<svg xmlns="http://www.w3.org/2000/svg" width="476.8" height="426.2" viewBox="0 0 476.8 426.2"><defs><style>.a{fill:#f5f5f5;}.b{fill:#e0e0e0;}.c{fill:#e6e6e6;}.d{fill:#ebebeb;}.e{fill:#6f7070;}.f,.h,.j,.o,.p,.y,.z{fill:#fff;}.f{opacity:0.5;}.g{fill:#37474f;}.h{opacity:0.7;}.i{fill:#555656;}.j{opacity:0.85;}.k{fill:#5a5b5b;}.ac,.l,.m{opacity:0.3;}.m{fill:#898989;}.n{opacity:0.15;}.o{opacity:0.4;}.p{opacity:0.8;}.q{fill:#06826a;}.r{fill:#455a64;}.s{fill:#263238;}.t{fill:#f0f0f0;}.u{fill:#fafafa;}.v{fill:#ff3600;}.w{opacity:0.1;}.ab,.x{opacity:0.2;}.y{opacity:0.6;}.aa{fill:#ffa8a7;}.ad{fill:#f28f8f;}</style></defs><g transform="translate(-12.9 -51.8)"><ellipse class="a" cx="238.4" cy="144.3" rx="238.4" ry="144.3" transform="translate(12.9 189.4)"/><ellipse class="b" cx="44.8" cy="25.9" rx="44.8" ry="25.9" transform="translate(53.4 353.8)"/><path class="c" d="M472,337.5,301.9,239.1a10.38,10.38,0,0,0-9.4,0L161,314.7c-2.6,1.5-2.6,3.9,0,5.4l170.8,98.3a10.38,10.38,0,0,0,9.4,0L472,342.9C474.6,341.4,474.6,339,472,337.5Z"/><path class="b" d="M340.6,91.8l-2.4,5-2.1,3.8,4.5,10.1,1.6,2.7c1.3,2,7.2,5.8,8.8,7.6l-.2,3.2,7.8,6.1,2.1-6.9c1.7.8,1.3,3.8,2.9,4.1l6.8,6.7,6.5-1.5-3.5-9.4a9.874,9.874,0,0,0,2.8-3.3l7.3,4.8,1.4-8.1-7-6.4a27.673,27.673,0,0,0-1.1-6.4l5.5-2.3-4.5-10.1-6.4.3a47.279,47.279,0,0,0-4.3-5.7l.5-8.1-7.8-6-2.1,6.9a18.224,18.224,0,0,0-5-1.6l-4.8-9.1-6.5,1.4,3.5,9.4a9.874,9.874,0,0,0-2.8,3.3l-7.3-4.8-1.4,8.1Zm16.6,20.4c-5.9-4.7-9.9-13.6-8.8-19.8s3.4-5.9,9.3-1.2,9.4,14.2,8.3,20.4c-1,6.3-2.8,5.3-8.8.6Z"/><path class="a" d="M352.8,77l-8.5,4.8-4.8-9.1,8.5-4.9Z"/><path class="a" d="M335,77.3l7.2,4.8-8.4,4.8-7.3-4.7Z"/><path class="b" d="M336.1,100.5l5.5-2.3-8.4,4.9-5.5,2.3Z"/><path class="b" d="M373.4,123.2l-8.5,4.8,3.5,9.4,8.4-4.8Z"/><path class="b" d="M352.2,128.1l8.4-4.8-2.1,6.8-8.4,4.9Z"/><path class="d" d="M332.1,96.7a27.673,27.673,0,0,0,1.1,6.4l-5.5,2.3,4.5,10.1,6.4-.3a47.279,47.279,0,0,0,4.3,5.7l-.5,8.1,7.8,6.1,2.1-6.9a18.225,18.225,0,0,0,5,1.6l4.8,9.1,6.5-1.4-3.5-9.4a9.318,9.318,0,0,0,2.8-3.4l7.3,4.8,1.4-8.1-7-6.4a27.673,27.673,0,0,0-1.1-6.4l5.5-2.3-4.5-10.1-6.4.3a47.279,47.279,0,0,0-4.3-5.7l.5-8.1-7.8-6.1-2.1,6.9a18.224,18.224,0,0,0-5-1.6l-4.8-9.1-6.5,1.4,3.5,9.4a9.874,9.874,0,0,0-2.8,3.3l-7.3-4.8-1.4,8.1Zm7.9.6c1.1-6.2,6.8-7.5,12.7-2.8s9.9,13.5,8.8,19.8-6.8,7.5-12.7,2.8C342.8,112.4,338.9,103.6,340,97.3Z"/><path class="a" d="M359.1,82.7l8.5-4.9-7.8-6.1-8.4,4.9Z"/><path class="b" d="M359.1,82.7l-.5,8.1,8.4-4.9.6-8.1Z"/><path class="a" d="M369.3,96.1l8.4-4.9-6.4.4-8.4,4.8Z"/><path class="b" d="M369.3,96.1l4.5,10.1,8.4-4.9-4.5-10.1Z"/><path class="a" d="M376.3,121.3l8.5-4.9-7-6.4-8.4,4.9Z"/><path class="b" d="M376.3,121.3l8.5-4.9-1.4,8.2-8.5,4.9Z"/><path class="a" d="M333.1,74.2l8.4-4.9,6.5-1.5-8.5,4.9Z"/><path class="b" d="M406.3,88.6c-.2,2.5-.1,7.1,1.1,10l-4.5,3.9,7.4,12.8,5.4-1.9a19.235,19.235,0,0,0,8.4,5.9l1.1,11.7,10.4,6,1.1-10.5a16.523,16.523,0,0,0,6.3.6l7.6,11.3,7.4-4.3-6-12.2a16.932,16.932,0,0,0,2.6-5.8l9.6,4.3V108.3l-9.6-6.8a51.343,51.343,0,0,0-2.6-8.7l6-5.2L450.5,75,443,77.6a49.175,49.175,0,0,0-6.3-6.6l-1.1-11.7-10.4-6-1.1,10.5a16.523,16.523,0,0,0-6.3-.6l-7.6-11.4-7.4,4.3,6,12.2a17.326,17.326,0,0,0-2.6,5.7l-9.6-4.3V81.8Zm9.6-1.9c0-9.3,4.9-12.6,12.9-8s14.7,16,14.7,25.3-5,12.5-13,7.9C422.4,107.3,415.9,96,415.9,86.7Z"/><path class="a" d="M409.5,68l8.4-4.8-7.6-11.4-8.4,4.9Z"/><path class="a" d="M398,78.8l8.4-4.8-9.6-4.3-8.4,4.8Z"/><path class="b" d="M428.3,131.3l8.4-4.8L435.6,137l-8.4,4.8Z"/><path class="b" d="M451.8,122l-8.4,4.8,6.1,12.2,8.4-4.8Z"/><path class="d" d="M397.8,93.4a51.343,51.343,0,0,0,2.6,8.7l-6,5.2,7.4,12.8,7.5-2.6a49.175,49.175,0,0,0,6.3,6.6l1.1,11.7,10.5,6,1.1-10.5a16.523,16.523,0,0,0,6.3.6l7.5,11.4,7.4-4.3-6-12.2a17.326,17.326,0,0,0,2.6-5.7l9.6,4.3V113.3l-9.5-6.8a51.343,51.343,0,0,0-2.6-8.7l6-5.2-7.4-12.8-7.5,2.6a49.175,49.175,0,0,0-6.3-6.6L427.3,64l-10.5-6-1.1,10.5a16.523,16.523,0,0,0-6.3-.6L402,56.6l-7.4,4.3,6,12.2a17.326,17.326,0,0,0-2.6,5.7l-9.6-4.3V86.6Zm9.7-1.8c0-9.3,6.5-13,14.5-8.4s14.5,15.9,14.5,25.2-6.5,13-14.5,8.4C414,112.1,407.5,100.8,407.5,91.6Z"/><path class="a" d="M450.5,75l-8.4,4.8-7.6,2.7,8.4-4.9Z"/><rect class="a" width="9.7" height="14.8" transform="translate(442.054 79.852) rotate(-29.967)"/><path class="b" d="M451.8,93l-8.4,4.9,6.1-5.2,8.4-4.9Z"/><path class="a" d="M464,108.5l-8.4,4.8-9.6-6.7,8.4-4.9Z"/><path class="b" d="M464,120.6l-8.4,4.8V113.3l8.4-4.8Z"/><path class="a" d="M427.2,64.2l8.4-4.9-10.4-6-8.4,4.8Z"/><path class="e" d="M456.7,330.4,297.2,238.3a9.32,9.32,0,0,0-8.3,0L172.3,305.6a7.6,7.6,0,0,0-3.2,3.2,7.9,7.9,0,0,0,3.2,10.6l159.5,92.1a9.32,9.32,0,0,0,8.3,0l116.6-67.3a8.991,8.991,0,0,0,4.2-6.9A9.1,9.1,0,0,0,456.7,330.4Z"/><path class="f" d="M340.1,402.5l116.6-67.3c2.1-1.2,2.3-3.2.4-4.5a7.344,7.344,0,0,1,2.8,3,7.788,7.788,0,0,1-3.3,10.5L340,411.5a8.679,8.679,0,0,1-4.2,1v-9A8.8,8.8,0,0,0,340.1,402.5Z"/><path class="g" d="M456.7,330.4,297.1,238.3a9.262,9.262,0,0,1-4.2-7.2V91.9a7.8,7.8,0,0,1,12-6.9l159.5,92.1a9.262,9.262,0,0,1,4.2,7.2V323.4a8.92,8.92,0,0,1-3.9,7.1A8.7,8.7,0,0,1,456.7,330.4Z"/><path class="f" d="M460.8,328V188.8a9.744,9.744,0,0,0-1.2-4.1h0l7.8-4.5a7.3,7.3,0,0,1,1.2,4.1V323.5a7.793,7.793,0,0,1-11.5,7.1C459.2,331.5,460.8,330.4,460.8,328Z"/><path class="h" d="M456.7,181.6,297.1,89.5c-2.3-1.3-4.2-.3-4.2,2.4V231.1a9.262,9.262,0,0,0,4.2,7.2l159.5,92.1c2.3,1.3,4.2.3,4.2-2.4V188.8A9.157,9.157,0,0,0,456.7,181.6Z"/><path class="i" d="M456.7,330.4,297.2,238.3a9.32,9.32,0,0,0-8.3,0L172.3,305.6c-2.3,1.3-2.3,3.5,0,4.8l159.5,92.1a9.32,9.32,0,0,0,8.3,0l116.6-67.3C459,333.9,459,331.7,456.7,330.4Z"/><path class="j" d="M456.7,330.4,297.2,238.3a9.32,9.32,0,0,0-8.3,0L172.3,305.6c-2.3,1.3-2.3,3.5,0,4.8l159.5,92.1a9.32,9.32,0,0,0,8.3,0l116.6-67.3C459,333.9,459,331.7,456.7,330.4Z"/><path class="k" d="M456.9,193.7V314.1c0,1.6-1.1,2.2-2.5,1.4L300.5,226.7a5.571,5.571,0,0,1-2.5-4.3V102c0-1.6,1.1-2.2,2.5-1.4l153.9,88.8A5.271,5.271,0,0,1,456.9,193.7Z"/><path class="l" d="M456.9,193.7V314.1c0,1.6-1.1,2.2-2.5,1.4L300.5,226.7a5.571,5.571,0,0,1-2.5-4.3V102c0-1.6,1.1-2.2,2.5-1.4l153.9,88.8A5.271,5.271,0,0,1,456.9,193.7Z"/><path class="m" d="M408.1,162.6l-107.4-62c-1.4-.8-2.5-.1-2.5,1.4V222.4a4.823,4.823,0,0,0,1.1,3Z"/><path class="n" d="M408.1,162.6l-107.4-62c-1.4-.8-2.5-.1-2.5,1.4V222.4a4.823,4.823,0,0,0,1.1,3Z"/><path class="f" d="M301.6,101.1V220.4a5.271,5.271,0,0,0,2.5,4.3L456.9,313V193.7a5.271,5.271,0,0,0-2.5-4.3Z"/><path class="g" d="M444,332.4a1.311,1.311,0,0,1-.8,1.6l-7.6,4.3a4.462,4.462,0,0,1-4.2,0L283.3,252.8a1.085,1.085,0,0,1-.8-.8,1.23,1.23,0,0,1,.8-1.6l7.6-4.4a4.463,4.463,0,0,1,4.2,0l148.1,85.5A1.419,1.419,0,0,1,444,332.4Z"/><path class="o" d="M444,332.4a1.311,1.311,0,0,1-.8,1.6l-7.6,4.3a4.462,4.462,0,0,1-4.2,0L283.3,252.8a1.085,1.085,0,0,1-.8-.8,1.23,1.23,0,0,1,.8-1.6l7.6-4.4a4.463,4.463,0,0,1,4.2,0l148.1,85.5A1.419,1.419,0,0,1,444,332.4Z"/><path class="g" d="M424.4,343.6a1.23,1.23,0,0,1-.8,1.6L376.9,372a4.462,4.462,0,0,1-4.2,0L224.8,286.6a1.085,1.085,0,0,1-.8-.8,1.23,1.23,0,0,1,.8-1.6l46.6-26.9a4.462,4.462,0,0,1,4.2,0l148,85.5A3.043,3.043,0,0,1,424.4,343.6Z"/><path class="o" d="M424.4,343.6a1.23,1.23,0,0,1-.8,1.6L376.9,372a4.462,4.462,0,0,1-4.2,0L224.8,286.6a1.085,1.085,0,0,1-.8-.8,1.23,1.23,0,0,1,.8-1.6l46.6-26.9a4.462,4.462,0,0,1,4.2,0l148,85.5A3.043,3.043,0,0,1,424.4,343.6Z"/><path class="g" d="M291.6,295.8l5.4-3.1a.208.208,0,0,0,0-.4l-4.6-2.7a.854.854,0,0,0-.7,0l-5.4,3.1a.208.208,0,0,0,0,.4l4.6,2.7A.854.854,0,0,0,291.6,295.8Zm8.4-10.6a.854.854,0,0,0-.7,0l-5.4,3.1a.208.208,0,0,0,0,.4l4.6,2.7a.854.854,0,0,0,.7,0l5.4-3.1a.208.208,0,0,0,0-.4l-4.6-2.7Zm15,8.6a.854.854,0,0,0-.7,0l-5.4,3.1a.208.208,0,0,0,0,.4l7.9,4.5a.854.854,0,0,0,.7,0l5.4-3.1a.208.208,0,0,0,0-.4l-7.9-4.5Zm-8.2-4.7a.854.854,0,0,0-.7,0l-5.4,3.1a.208.208,0,0,0,0,.4l4.6,2.7a.854.854,0,0,0,.7,0l5.4-3.1a.208.208,0,0,0,0-.4l-4.6-2.7ZM325,299.6a.854.854,0,0,0-.7,0l-5.4,3.1a.208.208,0,0,0,0,.4l4.6,2.7a.854.854,0,0,0,.7,0l5.4-3.1a.208.208,0,0,0,0-.4l-4.6-2.7Zm6.8,3.9a.854.854,0,0,0-.7,0l-5.4,3.1a.208.208,0,0,0,0,.4l4.6,2.7a.854.854,0,0,0,.7,0l5.4-3.1a.208.208,0,0,0,0-.4l-4.6-2.7Zm-21.1,12.6a1.1,1.1,0,0,0,.8,0l5.4-3.1a.208.208,0,0,0,0-.4l-4.6-2.7a.854.854,0,0,0-.7,0l-5.4,3.1a.208.208,0,0,0,0,.4l4.5,2.7Zm7.5,3.9,5.4-3.1a.208.208,0,0,0,0-.4l-4.6-2.7a.854.854,0,0,0-.7,0l-5.4,3.1a.208.208,0,0,0,0,.4l4.6,2.7A.854.854,0,0,0,318.2,320Zm6.8,3.9,5.4-3.1a.208.208,0,0,0,0-.4l-4.6-2.7a.854.854,0,0,0-.7,0l-5.4,3.1a.208.208,0,0,0,0,.4l4.6,2.7A.846.846,0,0,0,325,323.9Zm6.8,3.9,5.4-3.1a.208.208,0,0,0,0-.4l-4.6-2.7a.854.854,0,0,0-.7,0l-5.4,3.1a.208.208,0,0,0,0,.4l4.6,2.7A.846.846,0,0,0,331.8,327.8Zm-33.4-28.1,5.4-3.1a.208.208,0,0,0,0-.4l-4.6-2.7a.854.854,0,0,0-.7,0l-5.4,3.1a.208.208,0,0,0,0,.4l4.6,2.7A.854.854,0,0,0,298.4,299.7Zm6.3,12.5,5.4-3.1a.208.208,0,0,0,0-.4l-4.3-2.5a.208.208,0,0,1,0-.4l6.9-4a.208.208,0,0,0,0-.4l-5.4-3.1a.854.854,0,0,0-.7,0l-13,7.5a.208.208,0,0,0,0,.4l10.4,6A.846.846,0,0,0,304.7,312.2Zm33.1-4.8-5.4,3.1a.208.208,0,0,0,0,.4l4.6,2.7a.854.854,0,0,0,.7,0l5.4-3.1a.208.208,0,0,0,0-.4l-4.6-2.7A.846.846,0,0,0,337.8,307.4Zm7.5,3.9a1.1,1.1,0,0,0-.8,0l-5.3,3.1a.208.208,0,0,0,0,.4l4.6,2.7a.854.854,0,0,0,.7,0l5.4-3.1a.208.208,0,0,0,0-.4l-4.6-2.7Zm39.3,40.8a.208.208,0,0,0,0-.4L380,349a.854.854,0,0,0-.7,0l-5.4,3.1a.208.208,0,0,0,0,.4l4.6,2.7a.854.854,0,0,0,.7,0Zm14.2-9.5-5.4,3.1a.208.208,0,0,0,0,.4l4.6,2.7a.854.854,0,0,0,.7,0l5.4-3.1a.208.208,0,0,0,0-.4l-4.6-2.7A.846.846,0,0,0,398.8,342.6Zm-4.8,6.1a.208.208,0,0,0,0-.4l-4.6-2.7a.854.854,0,0,0-.7,0l-5.4,3.1a.208.208,0,0,0,0,.4l4.6,2.7a.854.854,0,0,0,.7,0Zm-26.8,8.9a1.1,1.1,0,0,0,.8,0l5.4-3.1a.208.208,0,0,0,0-.4l-4.6-2.6a.854.854,0,0,0-.7,0l-5.4,3.1a.208.208,0,0,0,0,.4l4.5,2.6Zm12.9.8a.208.208,0,0,0,0-.4l-4.6-2.7a.854.854,0,0,0-.7,0l-5.4,3.1a.208.208,0,0,0,0,.4l4.6,2.7a.854.854,0,0,0,.7,0Zm12.7-19.7a.854.854,0,0,0-.7,0l-5.4,3.1a.208.208,0,0,0,0,.4l4.6,2.7a.854.854,0,0,0,.7,0l5.4-3.1a.208.208,0,0,0,0-.4l-4.6-2.7Zm-33.9-19.6a.854.854,0,0,0-.7,0l-5.4,3.1a.208.208,0,0,0,0,.4l4.6,2.7a.854.854,0,0,0,.7,0l5.4-3.1a.208.208,0,0,0,0-.4l-4.6-2.7ZM386,334.8a1.1,1.1,0,0,0-.8,0l-5.4,3.1a.208.208,0,0,0,0,.4l4.6,2.7a.854.854,0,0,0,.7,0l5.4-3.1a.208.208,0,0,0,0-.4l-4.5-2.7Zm-33.9-19.6a.854.854,0,0,0-.7,0l-5.4,3.1a.208.208,0,0,0,0,.4l4.6,2.7a.854.854,0,0,0,.7,0l5.4-3.1a.208.208,0,0,0,0-.4l-4.6-2.7Zm13.6,7.9a.854.854,0,0,0-.7,0l-5.4,3.1a.208.208,0,0,0,0,.4l4.6,2.7a.854.854,0,0,0,.7,0l5.4-3.1a.208.208,0,0,0,0-.4l-4.6-2.7Zm6,3.9-5.4,3.1a.208.208,0,0,0,0,.4l4.6,2.7a.854.854,0,0,0,.7,0l5.4-3.1a.208.208,0,0,0,0-.4l-4.6-2.7A.854.854,0,0,0,371.7,327Zm7.5,3.9a.854.854,0,0,0-.7,0l-5.4,3.1a.208.208,0,0,0,0,.4l4.6,2.7a.854.854,0,0,0,.7,0l5.4-3.1a.208.208,0,0,0,0-.4l-4.6-2.7Zm-33.9,4.7,5.4-3.1a.208.208,0,0,0,0-.4l-4.6-2.7a.854.854,0,0,0-.7,0l-5.4,3.1a.208.208,0,0,0,0,.4l4.6,2.7A.483.483,0,0,0,345.3,335.6Zm-60.2-59.1a.854.854,0,0,0-.7,0l-5.4,3.1a.208.208,0,0,0,0,.4l4.6,2.7a.854.854,0,0,0,.7,0l5.4-3.1a.208.208,0,0,0,0-.4l-4.6-2.7Zm8.2,4.8a.854.854,0,0,0-.7,0l-5.4,3.1a.208.208,0,0,0,0,.4l4.6,2.7a.854.854,0,0,0,.7,0l5.4-3.1a.208.208,0,0,0,0-.4l-4.6-2.7Zm-15-8.7a.854.854,0,0,0-.7,0l-5.4,3.1a.208.208,0,0,0,0,.4l4.6,2.7a.854.854,0,0,0,.7,0l5.4-3.1a.208.208,0,0,0,0-.4l-4.6-2.7Zm35.1,36.2a.854.854,0,0,0,.7,0l5.4-3.1a.208.208,0,0,0,0-.4l-4.6-2.7a.854.854,0,0,0-.7,0l-5.4,3.1a.208.208,0,0,0,0,.4l4.6,2.7Zm-48-37a.208.208,0,0,0,0,.4l4.6,2.7a.854.854,0,0,0,.7,0l5.4-3.1a.208.208,0,0,0,0-.4l-4.6-2.7a.854.854,0,0,0-.7,0Zm72.4,59.9a1.1,1.1,0,0,0,.8,0l5.4-3.1a.208.208,0,0,0,0-.4l-4.6-2.7a.854.854,0,0,0-.7,0l-5.5,3.1a.208.208,0,0,0,0,.4l4.6,2.7Zm-83.1-47.9a.616.616,0,0,0,.7-.1l5.4-3.1a.208.208,0,0,0,0-.4l-4.6-2.7a.854.854,0,0,0-.7,0l-5.4,3.1a.208.208,0,0,0,0,.4l4.6,2.8Zm14.4-.5a.616.616,0,0,0,.7-.1l5.4-3.1a.208.208,0,0,0,0-.4l-4.6-2.7a.854.854,0,0,0-.7,0l-5.4,3.1a.208.208,0,0,0,0,.4l4.6,2.8Zm-11.4-7.1a.208.208,0,0,0,0,.4l4.6,2.7a.854.854,0,0,0,.7,0l5.4-3.1a.208.208,0,0,0,0-.4l-4.6-2.7a.854.854,0,0,0-.7,0Zm4-3.9c.2-.1.2-.3,0-.5l-4.6-2.7a.854.854,0,0,0-.7,0l-13,7.5a.208.208,0,0,0,0,.4l4.6,2.7a.854.854,0,0,0,.7,0l13-7.4Zm15,8.7-5.4,3.1a.208.208,0,0,0,0,.4l4.6,2.7a.854.854,0,0,0,.7,0l5.4-3.1a.208.208,0,0,0,0-.4l-4.6-2.7A.854.854,0,0,0,276.7,281Zm51.7,29.4a.616.616,0,0,0-.7.1l-5.4,3.1a.208.208,0,0,0,0,.4l4.6,2.7a.854.854,0,0,0,.7,0l5.4-3.1a.208.208,0,0,0,0-.4l-4.6-2.8Zm-60.8-25.8a.208.208,0,0,0,0-.4l-4.6-2.6a.854.854,0,0,0-.7,0l-5.4,3.1a.208.208,0,0,0,0,.4l4.6,2.7a.854.854,0,0,0,.7,0Zm53.2,21.9-5.4,3.1a.208.208,0,0,0,0,.4l4.6,2.7a.854.854,0,0,0,.7,0l5.4-3.1a.208.208,0,0,0,0-.4l-4.6-2.7A.846.846,0,0,0,320.8,306.5Zm56.9,41.7a.208.208,0,0,0,0-.4l-4.6-2.7a.854.854,0,0,0-.7,0l-5.4,3.1a.208.208,0,0,0,0,.4l4.6,2.7a.854.854,0,0,0,.7,0Zm4.1-6.5-5.4,3.1a.208.208,0,0,0,0,.4l4.6,2.7a.854.854,0,0,0,.7,0l5.4-3.1a.208.208,0,0,0,0-.4l-4.6-2.7A.846.846,0,0,0,381.8,341.7Zm-16.9,5.7a.854.854,0,0,0,.7,0l5.4-3.1a.208.208,0,0,0,0-.4l-4.6-2.7a.854.854,0,0,0-.7,0l-5.4,3.1a.208.208,0,0,0,0,.4l4.6,2.7Zm-6.8-3.9a.854.854,0,0,0,.7,0l5.4-3.1a.208.208,0,0,0,0-.4l-4.6-2.7a.854.854,0,0,0-.7,0l-5.4,3.1a.208.208,0,0,0,0,.4l4.6,2.7Zm-6.8-3.9a1.1,1.1,0,0,0,.8,0l5.4-3.1a.208.208,0,0,0,0-.4l-4.7-2.6a.854.854,0,0,0-.7,0l-5.4,3.1a.208.208,0,0,0,0,.4l4.6,2.6Zm24.5-1.8a1.1,1.1,0,0,0-.8,0l-5.4,3.1a.208.208,0,0,0,0,.4l4.6,2.7a.854.854,0,0,0,.7,0l5.4-3.1a.208.208,0,0,0,0-.4l-4.5-2.7Zm-6.7-3.9a1.1,1.1,0,0,0-.8,0l-5.4,3.1a.208.208,0,0,0,0,.4l4.6,2.7a.854.854,0,0,0,.7,0l5.4-3.1a.208.208,0,0,0,0-.4l-4.5-2.7Zm-27.2-15.7a.854.854,0,0,0-.7,0l-5.4,3.1a.208.208,0,0,0,0,.4l4.6,2.7a.854.854,0,0,0,.7,0l5.4-3.1a.208.208,0,0,0,0-.4l-4.6-2.7Zm6.8,3.9a1.1,1.1,0,0,0-.8,0l-5.4,3.1a.208.208,0,0,0,0,.4l4.6,2.7a.854.854,0,0,0,.7,0l5.4-3.1a.208.208,0,0,0,0-.4l-4.5-2.7Zm-13.5-7.8a1.1,1.1,0,0,0-.8,0l-5.4,3.1a.208.208,0,0,0,0,.4l4.6,2.7a.854.854,0,0,0,.7,0l5.4-3.1a.208.208,0,0,0,0-.4l-4.5-2.7ZM361.6,330l-5.4,3.1a.208.208,0,0,0,0,.4l4.6,2.7a.854.854,0,0,0,.7,0l5.4-3.1a.208.208,0,0,0,0-.4l-4.6-2.7A.854.854,0,0,0,361.6,330Zm-6.1-4a.8.8,0,0,0-.8.1l-5.4,3.1a.208.208,0,0,0,0,.4l4.6,2.7a.854.854,0,0,0,.7,0l5.4-3.1a.208.208,0,0,0,0-.4l-4.5-2.8Zm4.9,27.7a1.1,1.1,0,0,0,.8,0l5.4-3.1a.208.208,0,0,0,0-.4l-4.7-2.6a.854.854,0,0,0-.7,0l-5.4,3.1a.208.208,0,0,0,0,.4l4.6,2.6Zm39.8-4.1c-.2.1-.2.4,0,.4l4.6,2.7a.854.854,0,0,0,.7,0l5.4-3.1a.208.208,0,0,0,0-.4l-4.6-2.7a.854.854,0,0,0-.7,0l-5.4,3.1Zm-10.1,3c-.2.1-.2.3,0,.5l7.1,4.1a.854.854,0,0,0,.7,0l5.4-3.1a.208.208,0,0,0,0-.4l-7.1-4.1a.854.854,0,0,0-.7,0l-5.4,3Zm18.3-8.9c-.2.1-.2.3,0,.5l5.7,3.3a.854.854,0,0,0,.7,0l5.4-3.1a.208.208,0,0,0,0-.4l-5.7-3.3a.854.854,0,0,0-.7,0l-5.4,3Zm1.1-5.6a.208.208,0,0,0,0-.4l-4.6-2.7a.854.854,0,0,0-.7,0l-5.4,3.1a.208.208,0,0,0,0,.4l4.6,2.7a.854.854,0,0,0,.7,0Zm-28.9,18.3,8.9,5.1a.854.854,0,0,0,.7,0l5.4-3.1a.208.208,0,0,0,0-.4l-8.9-5.1a.854.854,0,0,0-.7,0l-5.4,3.1A.208.208,0,0,0,380.6,356.4Zm-4.4,5.9a.208.208,0,0,0,0,.4l5.7,3.3a.854.854,0,0,0,.7,0l5.4-3.1a.208.208,0,0,0,0-.4l-5.7-3.3a.854.854,0,0,0-.7,0l-5.4,3.1ZM359,308.9a.208.208,0,0,0,0-.4l-4.6-2.7a.854.854,0,0,0-.7,0l-5.4,3.1a.208.208,0,0,0,0,.4l4.6,2.7a.854.854,0,0,0,.7,0Zm13.6,7.9a.208.208,0,0,0,0-.4l-4.7-2.7a.854.854,0,0,0-.7,0l-5.4,3.1a.208.208,0,0,0,0,.4l4.6,2.7a.854.854,0,0,0,.7,0Zm30.1,17.3a.208.208,0,0,0,0-.4L398,331a.854.854,0,0,0-.7,0l-5.5,3.1a.208.208,0,0,0,0,.4l4.6,2.7a.854.854,0,0,0,.7,0Zm-36.9-21.2a.208.208,0,0,0,0-.4l-4.6-2.7a.854.854,0,0,0-.7,0l-5.4,3.1a.208.208,0,0,0,0,.4l4.6,2.7a.854.854,0,0,0,.7,0Zm13.6,7.8a.208.208,0,0,0,0-.4l-4.6-2.7a.854.854,0,0,0-.7,0l-5.4,3.1a.208.208,0,0,0,0,.4l4.6,2.7a.854.854,0,0,0,.7,0Zm-12.3,45.2a.208.208,0,0,0,0,.4l7.1,4.1a.854.854,0,0,0,.7,0l5.4-3.1a.208.208,0,0,0,0-.4l-7.1-4.1a.854.854,0,0,0-.7,0Zm22-39.6a.208.208,0,0,0,0-.4l-4.6-2.7a.854.854,0,0,0-.7,0l-5.4,3.1a.208.208,0,0,0,0,.4l4.6,2.7a.854.854,0,0,0,.7,0Zm6.8,3.9a.208.208,0,0,0,0-.4l-4.6-2.7a.854.854,0,0,0-.7,0l-5.4,3.1a.208.208,0,0,0,0,.4l4.6,2.7a.854.854,0,0,0,.7,0ZM241.5,293.4a.208.208,0,0,0,0,.4l11.4,6.6a.854.854,0,0,0,.7,0l5.4-3.1a.208.208,0,0,0,0-.4l-11.4-6.6a.854.854,0,0,0-.7,0Zm15,8.7a.208.208,0,0,0,0,.4l4.6,2.7a.854.854,0,0,0,.7,0l5.4-3.1a.208.208,0,0,0,0-.4l-4.6-2.7a.854.854,0,0,0-.7,0Zm97.9,47.7,5.4-3.1a.208.208,0,0,0,0-.4l-4.6-2.7a.854.854,0,0,0-.7,0l-5.4,3.1a.208.208,0,0,0,0,.4l4.6,2.7A.854.854,0,0,0,354.4,349.8Zm-84.3-40a.208.208,0,0,0,0,.4l4.6,2.7a.854.854,0,0,0,.7,0l5.4-3.1a.208.208,0,0,0,0-.4l-4.6-2.7a.854.854,0,0,0-.7,0Zm-35.3-20.3a.208.208,0,0,0,0,.4l4.6,2.7a.854.854,0,0,0,.7,0l5.4-3.1a.208.208,0,0,0,0-.4l-4.6-2.7a.854.854,0,0,0-.7,0Zm-6.8-3.9a.208.208,0,0,0,0,.4l4.6,2.7a.854.854,0,0,0,.7,0l13-7.5a.208.208,0,0,0,0-.4l-4.6-2.7a.854.854,0,0,0-.7,0l-13,7.5Zm67.4,38.9a.208.208,0,0,0,0,.4l5.7,3.3a.854.854,0,0,0,.7,0l5.4-3.1a.208.208,0,0,0,0-.4l-5.7-3.3a.854.854,0,0,0-.7,0Zm-17.1-9.9a.208.208,0,0,0,0,.4l7.1,4.1a.854.854,0,0,0,.7,0l5.4-3.1a.208.208,0,0,0,0-.4l-7.1-4.1a.854.854,0,0,0-.7,0Zm32.8,19a.208.208,0,0,0,0,.4l38.2,22a.854.854,0,0,0,.7,0l5.4-3.1a.208.208,0,0,0,0-.4l-38.2-22a.854.854,0,0,0-.7,0Zm40.3,23.2a.208.208,0,0,0,0,.4l5.7,3.3a.854.854,0,0,0,.7,0l5.4-3.1a.208.208,0,0,0,0-.4l-5.7-3.3a.854.854,0,0,0-.7,0ZM303.2,329a.208.208,0,0,0,0,.4l5.7,3.3a.854.854,0,0,0,.7,0l5.4-3.1a.208.208,0,0,0,0-.4l-5.7-3.3a.854.854,0,0,0-.7,0Zm56,32.4a.208.208,0,0,0,0,.4l5.7,3.3a.854.854,0,0,0,.7,0L371,362a.208.208,0,0,0,0-.4l-5.7-3.3a.854.854,0,0,0-.7,0ZM287.5,320a.208.208,0,0,0,0,.4l5.7,3.3a.854.854,0,0,0,.7,0l5.4-3.1a.208.208,0,0,0,0-.4l-5.7-3.3a.854.854,0,0,0-.7,0Zm-24.2-14a.208.208,0,0,0,0,.4l4.6,2.7a.854.854,0,0,0,.7,0L274,306a.208.208,0,0,0,0-.4l-4.6-2.7a.854.854,0,0,0-.7,0Zm-9.5-13.9a.854.854,0,0,0,.7,0l5.4-3.1a.208.208,0,0,0,0-.4l-4.6-2.7a.854.854,0,0,0-.7,0l-5.4,3.1a.208.208,0,0,0,0,.4l4.6,2.7Zm30.3-.2a.854.854,0,0,0,.7,0l5.4-3.1a.208.208,0,0,0,0-.4l-4.6-2.7a.854.854,0,0,0-.7,0l-5.4,3.1a.208.208,0,0,0,0,.4l4.6,2.7Zm15.4,26.6a1.1,1.1,0,0,0,.8,0l5.4-3.1a.208.208,0,0,0,0-.4l-13.6-7.8a.854.854,0,0,0-.7,0l-5.4,3.1a.208.208,0,0,0,0,.4l13.5,7.8Zm-32.8-25.6a.208.208,0,0,0,0-.4l-4.6-2.7a.854.854,0,0,0-.7,0l-5.4,3.1a.208.208,0,0,0,0,.4l4.6,2.7a.854.854,0,0,0,.7,0Zm1.5-1.3a1.1,1.1,0,0,0,.8,0l5.4-3.1a.208.208,0,0,0,0-.4l-4.7-2.6a.854.854,0,0,0-.7,0l-5.4,3.1a.208.208,0,0,0,0,.4l4.6,2.6Zm38,30.8a1.1,1.1,0,0,0,.8,0l5.4-3.1a.208.208,0,0,0,0-.4l-4.6-2.7a.854.854,0,0,0-.7,0l-5.4,3.1a.208.208,0,0,0,0,.4l4.5,2.7Zm-24.5-20.9a.208.208,0,0,0,0-.4l-4.6-2.7a.854.854,0,0,0-.7,0l-5.4,3.1a.208.208,0,0,0,0,.4l4.6,2.7a.854.854,0,0,0,.7,0Zm58.4,40.4a.854.854,0,0,0,.7,0l5.4-3.1a.208.208,0,0,0,0-.4l-4.6-2.7a.854.854,0,0,0-.7,0l-5.4,3.1a.208.208,0,0,0,0,.4l4.6,2.7Zm-6.8-3.9a1.1,1.1,0,0,0,.8,0l5.4-3.1a.208.208,0,0,0,0-.4l-4.6-2.7a.854.854,0,0,0-.7,0l-5.4,3.1a.208.208,0,0,0,0,.4l4.5,2.7Zm13.6,7.8a1.1,1.1,0,0,0,.8,0l5.4-3.1a.208.208,0,0,0,0-.4l-4.6-2.7a.854.854,0,0,0-.7,0l-5.4,3.1a.208.208,0,0,0,0,.4l4.5,2.7Zm-27.1-15.6a1.1,1.1,0,0,0,.8,0l5.4-3.1a.208.208,0,0,0,0-.4l-4.6-2.7a.854.854,0,0,0-.7,0l-5.4,3.1a.208.208,0,0,0,0,.4l4.5,2.7Zm7.5,3.9,5.4-3.1a.208.208,0,0,0,0-.4l-4.6-2.7a.854.854,0,0,0-.7,0L322,331a.208.208,0,0,0,0,.4l4.6,2.7A.854.854,0,0,0,327.3,334.1ZM313,326.3a1.1,1.1,0,0,0,.8,0l5.4-3.1a.208.208,0,0,0,0-.4l-4.6-2.7a.854.854,0,0,0-.7,0l-5.4,3.1a.208.208,0,0,0,0,.4l4.5,2.7Zm-29.6-58.7a.208.208,0,0,0,0-.4l-4.6-2.7a.854.854,0,0,0-.7,0l-1.4.8a.208.208,0,0,0,0,.4l4.6,2.7a.854.854,0,0,0,.7,0Zm37.3,19.2a.208.208,0,0,0,0-.4l-4.6-2.7a.854.854,0,0,0-.7,0l-5.4,3.1a.208.208,0,0,0,0,.4l4.6,2.7a.854.854,0,0,0,.7,0ZM307.2,279a.208.208,0,0,0,0-.4l-4.6-2.7a.854.854,0,0,0-.7,0l-5.4,3.1a.208.208,0,0,0,0,.4l4.6,2.7a.854.854,0,0,0,.7,0Zm21.7,12.6a.208.208,0,0,0,0-.4l-4.6-2.7a.854.854,0,0,0-.7,0l-5.4,3.1a.208.208,0,0,0,0,.4l4.6,2.7a.854.854,0,0,0,.7,0Zm-15-8.7a.208.208,0,0,0,0-.4l-4.6-2.7a.854.854,0,0,0-.7,0l-5.4,3.1a.208.208,0,0,0,0,.4l4.6,2.7a.854.854,0,0,0,.7,0Zm28.7,16.5a.208.208,0,0,0,0-.4l-4.7-2.7a.854.854,0,0,0-.7,0l-5.4,3.1a.208.208,0,0,0,0,.4l4.6,2.7a.854.854,0,0,0,.7,0Zm-6.8-3.9a.208.208,0,0,0,0-.4l-4.6-2.7a.854.854,0,0,0-.7,0l-5.4,3.1a.208.208,0,0,0,0,.4l4.6,2.7a.854.854,0,0,0,.7,0ZM297,275.4a.208.208,0,0,0,0-.4l-4.7-2.7a.854.854,0,0,0-.7,0l-1.4.8a.208.208,0,0,0,0,.4l4.6,2.7a.854.854,0,0,0,.7,0Zm-20.3-11.7a.208.208,0,0,0,0-.4l-4.6-2.7a.854.854,0,0,0-.7,0l-1.4.8a.208.208,0,0,0,0,.4l4.6,2.7a.854.854,0,0,0,.7,0Zm-7.4,4.2a.208.208,0,0,0,0-.4l-4.6-2.7a.854.854,0,0,0-.7,0l-5.4,3.1a.208.208,0,0,0,0,.4l4.6,2.7a.854.854,0,0,0,.7,0ZM247,288.2a.854.854,0,0,0,.7,0l5.4-3.1a.208.208,0,0,0,0-.4l-4.6-2.7a.854.854,0,0,0-.7,0l-5.4,3.1a.208.208,0,0,0,0,.4l4.6,2.7Zm43.2-16.7a.208.208,0,0,0,0-.4l-4.6-2.7a.854.854,0,0,0-.7,0l-1.4.8a.208.208,0,0,0,0,.4l4.6,2.7a.854.854,0,0,0,.7,0Zm59.1,31.9a.208.208,0,0,0,0-.4l-4.6-2.7a.854.854,0,0,0-.7,0l-5.4,3.1a.208.208,0,0,0,0,.4l4.6,2.7a.854.854,0,0,0,.7,0Z"/><path class="p" d="M291.6,295.8l5.4-3.1a.208.208,0,0,0,0-.4l-4.6-2.7a.854.854,0,0,0-.7,0l-5.4,3.1a.208.208,0,0,0,0,.4l4.6,2.7A.854.854,0,0,0,291.6,295.8Zm8.4-10.6a.854.854,0,0,0-.7,0l-5.4,3.1a.208.208,0,0,0,0,.4l4.6,2.7a.854.854,0,0,0,.7,0l5.4-3.1a.208.208,0,0,0,0-.4l-4.6-2.7Zm15,8.6a.854.854,0,0,0-.7,0l-5.4,3.1a.208.208,0,0,0,0,.4l7.9,4.5a.854.854,0,0,0,.7,0l5.4-3.1a.208.208,0,0,0,0-.4l-7.9-4.5Zm-8.2-4.7a.854.854,0,0,0-.7,0l-5.4,3.1a.208.208,0,0,0,0,.4l4.6,2.7a.854.854,0,0,0,.7,0l5.4-3.1a.208.208,0,0,0,0-.4l-4.6-2.7ZM325,299.6a.854.854,0,0,0-.7,0l-5.4,3.1a.208.208,0,0,0,0,.4l4.6,2.7a.854.854,0,0,0,.7,0l5.4-3.1a.208.208,0,0,0,0-.4l-4.6-2.7Zm6.8,3.9a.854.854,0,0,0-.7,0l-5.4,3.1a.208.208,0,0,0,0,.4l4.6,2.7a.854.854,0,0,0,.7,0l5.4-3.1a.208.208,0,0,0,0-.4l-4.6-2.7Zm-21.1,12.6a1.1,1.1,0,0,0,.8,0l5.4-3.1a.208.208,0,0,0,0-.4l-4.6-2.7a.854.854,0,0,0-.7,0l-5.4,3.1a.208.208,0,0,0,0,.4l4.5,2.7Zm7.5,3.9,5.4-3.1a.208.208,0,0,0,0-.4l-4.6-2.7a.854.854,0,0,0-.7,0l-5.4,3.1a.208.208,0,0,0,0,.4l4.6,2.7A.854.854,0,0,0,318.2,320Zm6.8,3.9,5.4-3.1a.208.208,0,0,0,0-.4l-4.6-2.7a.854.854,0,0,0-.7,0l-5.4,3.1a.208.208,0,0,0,0,.4l4.6,2.7A.846.846,0,0,0,325,323.9Zm6.8,3.9,5.4-3.1a.208.208,0,0,0,0-.4l-4.6-2.7a.854.854,0,0,0-.7,0l-5.4,3.1a.208.208,0,0,0,0,.4l4.6,2.7A.846.846,0,0,0,331.8,327.8Zm-33.4-28.1,5.4-3.1a.208.208,0,0,0,0-.4l-4.6-2.7a.854.854,0,0,0-.7,0l-5.4,3.1a.208.208,0,0,0,0,.4l4.6,2.7A.854.854,0,0,0,298.4,299.7Zm6.3,12.5,5.4-3.1a.208.208,0,0,0,0-.4l-4.3-2.5a.208.208,0,0,1,0-.4l6.9-4a.208.208,0,0,0,0-.4l-5.4-3.1a.854.854,0,0,0-.7,0l-13,7.5a.208.208,0,0,0,0,.4l10.4,6A.846.846,0,0,0,304.7,312.2Zm33.1-4.8-5.4,3.1a.208.208,0,0,0,0,.4l4.6,2.7a.854.854,0,0,0,.7,0l5.4-3.1a.208.208,0,0,0,0-.4l-4.6-2.7A.846.846,0,0,0,337.8,307.4Zm7.5,3.9a1.1,1.1,0,0,0-.8,0l-5.3,3.1a.208.208,0,0,0,0,.4l4.6,2.7a.854.854,0,0,0,.7,0l5.4-3.1a.208.208,0,0,0,0-.4l-4.6-2.7Zm39.3,40.8a.208.208,0,0,0,0-.4L380,349a.854.854,0,0,0-.7,0l-5.4,3.1a.208.208,0,0,0,0,.4l4.6,2.7a.854.854,0,0,0,.7,0Zm14.2-9.5-5.4,3.1a.208.208,0,0,0,0,.4l4.6,2.7a.854.854,0,0,0,.7,0l5.4-3.1a.208.208,0,0,0,0-.4l-4.6-2.7A.846.846,0,0,0,398.8,342.6Zm-4.8,6.1a.208.208,0,0,0,0-.4l-4.6-2.7a.854.854,0,0,0-.7,0l-5.4,3.1a.208.208,0,0,0,0,.4l4.6,2.7a.854.854,0,0,0,.7,0Zm-26.8,8.9a1.1,1.1,0,0,0,.8,0l5.4-3.1a.208.208,0,0,0,0-.4l-4.6-2.6a.854.854,0,0,0-.7,0l-5.4,3.1a.208.208,0,0,0,0,.4l4.5,2.6Zm12.9.8a.208.208,0,0,0,0-.4l-4.6-2.7a.854.854,0,0,0-.7,0l-5.4,3.1a.208.208,0,0,0,0,.4l4.6,2.7a.854.854,0,0,0,.7,0Zm12.7-19.7a.854.854,0,0,0-.7,0l-5.4,3.1a.208.208,0,0,0,0,.4l4.6,2.7a.854.854,0,0,0,.7,0l5.4-3.1a.208.208,0,0,0,0-.4l-4.6-2.7Zm-33.9-19.6a.854.854,0,0,0-.7,0l-5.4,3.1a.208.208,0,0,0,0,.4l4.6,2.7a.854.854,0,0,0,.7,0l5.4-3.1a.208.208,0,0,0,0-.4l-4.6-2.7ZM386,334.8a1.1,1.1,0,0,0-.8,0l-5.4,3.1a.208.208,0,0,0,0,.4l4.6,2.7a.854.854,0,0,0,.7,0l5.4-3.1a.208.208,0,0,0,0-.4l-4.5-2.7Zm-33.9-19.6a.854.854,0,0,0-.7,0l-5.4,3.1a.208.208,0,0,0,0,.4l4.6,2.7a.854.854,0,0,0,.7,0l5.4-3.1a.208.208,0,0,0,0-.4l-4.6-2.7Zm13.6,7.9a.854.854,0,0,0-.7,0l-5.4,3.1a.208.208,0,0,0,0,.4l4.6,2.7a.854.854,0,0,0,.7,0l5.4-3.1a.208.208,0,0,0,0-.4l-4.6-2.7Zm6,3.9-5.4,3.1a.208.208,0,0,0,0,.4l4.6,2.7a.854.854,0,0,0,.7,0l5.4-3.1a.208.208,0,0,0,0-.4l-4.6-2.7A.854.854,0,0,0,371.7,327Zm7.5,3.9a.854.854,0,0,0-.7,0l-5.4,3.1a.208.208,0,0,0,0,.4l4.6,2.7a.854.854,0,0,0,.7,0l5.4-3.1a.208.208,0,0,0,0-.4l-4.6-2.7Zm-33.9,4.7,5.4-3.1a.208.208,0,0,0,0-.4l-4.6-2.7a.854.854,0,0,0-.7,0l-5.4,3.1a.208.208,0,0,0,0,.4l4.6,2.7A.483.483,0,0,0,345.3,335.6Zm-60.2-59.1a.854.854,0,0,0-.7,0l-5.4,3.1a.208.208,0,0,0,0,.4l4.6,2.7a.854.854,0,0,0,.7,0l5.4-3.1a.208.208,0,0,0,0-.4l-4.6-2.7Zm8.2,4.8a.854.854,0,0,0-.7,0l-5.4,3.1a.208.208,0,0,0,0,.4l4.6,2.7a.854.854,0,0,0,.7,0l5.4-3.1a.208.208,0,0,0,0-.4l-4.6-2.7Zm-15-8.7a.854.854,0,0,0-.7,0l-5.4,3.1a.208.208,0,0,0,0,.4l4.6,2.7a.854.854,0,0,0,.7,0l5.4-3.1a.208.208,0,0,0,0-.4l-4.6-2.7Zm35.1,36.2a.854.854,0,0,0,.7,0l5.4-3.1a.208.208,0,0,0,0-.4l-4.6-2.7a.854.854,0,0,0-.7,0l-5.4,3.1a.208.208,0,0,0,0,.4l4.6,2.7Zm-48-37a.208.208,0,0,0,0,.4l4.6,2.7a.854.854,0,0,0,.7,0l5.4-3.1a.208.208,0,0,0,0-.4l-4.6-2.7a.854.854,0,0,0-.7,0Zm72.4,59.9a1.1,1.1,0,0,0,.8,0l5.4-3.1a.208.208,0,0,0,0-.4l-4.6-2.7a.854.854,0,0,0-.7,0l-5.5,3.1a.208.208,0,0,0,0,.4l4.6,2.7Zm-83.1-47.9a.616.616,0,0,0,.7-.1l5.4-3.1a.208.208,0,0,0,0-.4l-4.6-2.7a.854.854,0,0,0-.7,0l-5.4,3.1a.208.208,0,0,0,0,.4l4.6,2.8Zm14.4-.5a.616.616,0,0,0,.7-.1l5.4-3.1a.208.208,0,0,0,0-.4l-4.6-2.7a.854.854,0,0,0-.7,0l-5.4,3.1a.208.208,0,0,0,0,.4l4.6,2.8Zm-11.4-7.1a.208.208,0,0,0,0,.4l4.6,2.7a.854.854,0,0,0,.7,0l5.4-3.1a.208.208,0,0,0,0-.4l-4.6-2.7a.854.854,0,0,0-.7,0Zm4-3.9c.2-.1.2-.3,0-.5l-4.6-2.7a.854.854,0,0,0-.7,0l-13,7.5a.208.208,0,0,0,0,.4l4.6,2.7a.854.854,0,0,0,.7,0l13-7.4Zm15,8.7-5.4,3.1a.208.208,0,0,0,0,.4l4.6,2.7a.854.854,0,0,0,.7,0l5.4-3.1a.208.208,0,0,0,0-.4l-4.6-2.7A.854.854,0,0,0,276.7,281Zm51.7,29.4a.616.616,0,0,0-.7.1l-5.4,3.1a.208.208,0,0,0,0,.4l4.6,2.7a.854.854,0,0,0,.7,0l5.4-3.1a.208.208,0,0,0,0-.4l-4.6-2.8Zm-60.8-25.8a.208.208,0,0,0,0-.4l-4.6-2.6a.854.854,0,0,0-.7,0l-5.4,3.1a.208.208,0,0,0,0,.4l4.6,2.7a.854.854,0,0,0,.7,0Zm53.2,21.9-5.4,3.1a.208.208,0,0,0,0,.4l4.6,2.7a.854.854,0,0,0,.7,0l5.4-3.1a.208.208,0,0,0,0-.4l-4.6-2.7A.846.846,0,0,0,320.8,306.5Zm56.9,41.7a.208.208,0,0,0,0-.4l-4.6-2.7a.854.854,0,0,0-.7,0l-5.4,3.1a.208.208,0,0,0,0,.4l4.6,2.7a.854.854,0,0,0,.7,0Zm4.1-6.5-5.4,3.1a.208.208,0,0,0,0,.4l4.6,2.7a.854.854,0,0,0,.7,0l5.4-3.1a.208.208,0,0,0,0-.4l-4.6-2.7A.846.846,0,0,0,381.8,341.7Zm-16.9,5.7a.854.854,0,0,0,.7,0l5.4-3.1a.208.208,0,0,0,0-.4l-4.6-2.7a.854.854,0,0,0-.7,0l-5.4,3.1a.208.208,0,0,0,0,.4l4.6,2.7Zm-6.8-3.9a.854.854,0,0,0,.7,0l5.4-3.1a.208.208,0,0,0,0-.4l-4.6-2.7a.854.854,0,0,0-.7,0l-5.4,3.1a.208.208,0,0,0,0,.4l4.6,2.7Zm-6.8-3.9a1.1,1.1,0,0,0,.8,0l5.4-3.1a.208.208,0,0,0,0-.4l-4.7-2.6a.854.854,0,0,0-.7,0l-5.4,3.1a.208.208,0,0,0,0,.4l4.6,2.6Zm24.5-1.8a1.1,1.1,0,0,0-.8,0l-5.4,3.1a.208.208,0,0,0,0,.4l4.6,2.7a.854.854,0,0,0,.7,0l5.4-3.1a.208.208,0,0,0,0-.4l-4.5-2.7Zm-6.7-3.9a1.1,1.1,0,0,0-.8,0l-5.4,3.1a.208.208,0,0,0,0,.4l4.6,2.7a.854.854,0,0,0,.7,0l5.4-3.1a.208.208,0,0,0,0-.4l-4.5-2.7Zm-27.2-15.7a.854.854,0,0,0-.7,0l-5.4,3.1a.208.208,0,0,0,0,.4l4.6,2.7a.854.854,0,0,0,.7,0l5.4-3.1a.208.208,0,0,0,0-.4l-4.6-2.7Zm6.8,3.9a1.1,1.1,0,0,0-.8,0l-5.4,3.1a.208.208,0,0,0,0,.4l4.6,2.7a.854.854,0,0,0,.7,0l5.4-3.1a.208.208,0,0,0,0-.4l-4.5-2.7Zm-13.5-7.8a1.1,1.1,0,0,0-.8,0l-5.4,3.1a.208.208,0,0,0,0,.4l4.6,2.7a.854.854,0,0,0,.7,0l5.4-3.1a.208.208,0,0,0,0-.4l-4.5-2.7ZM361.6,330l-5.4,3.1a.208.208,0,0,0,0,.4l4.6,2.7a.854.854,0,0,0,.7,0l5.4-3.1a.208.208,0,0,0,0-.4l-4.6-2.7A.854.854,0,0,0,361.6,330Zm-6.1-4a.8.8,0,0,0-.8.1l-5.4,3.1a.208.208,0,0,0,0,.4l4.6,2.7a.854.854,0,0,0,.7,0l5.4-3.1a.208.208,0,0,0,0-.4l-4.5-2.8Zm4.9,27.7a1.1,1.1,0,0,0,.8,0l5.4-3.1a.208.208,0,0,0,0-.4l-4.7-2.6a.854.854,0,0,0-.7,0l-5.4,3.1a.208.208,0,0,0,0,.4l4.6,2.6Zm39.8-4.1c-.2.1-.2.4,0,.4l4.6,2.7a.854.854,0,0,0,.7,0l5.4-3.1a.208.208,0,0,0,0-.4l-4.6-2.7a.854.854,0,0,0-.7,0l-5.4,3.1Zm-10.1,3c-.2.1-.2.3,0,.5l7.1,4.1a.854.854,0,0,0,.7,0l5.4-3.1a.208.208,0,0,0,0-.4l-7.1-4.1a.854.854,0,0,0-.7,0l-5.4,3Zm18.3-8.9c-.2.1-.2.3,0,.5l5.7,3.3a.854.854,0,0,0,.7,0l5.4-3.1a.208.208,0,0,0,0-.4l-5.7-3.3a.854.854,0,0,0-.7,0l-5.4,3Zm1.1-5.6a.208.208,0,0,0,0-.4l-4.6-2.7a.854.854,0,0,0-.7,0l-5.4,3.1a.208.208,0,0,0,0,.4l4.6,2.7a.854.854,0,0,0,.7,0Zm-28.9,18.3,8.9,5.1a.854.854,0,0,0,.7,0l5.4-3.1a.208.208,0,0,0,0-.4l-8.9-5.1a.854.854,0,0,0-.7,0l-5.4,3.1A.208.208,0,0,0,380.6,356.4Zm-4.4,5.9a.208.208,0,0,0,0,.4l5.7,3.3a.854.854,0,0,0,.7,0l5.4-3.1a.208.208,0,0,0,0-.4l-5.7-3.3a.854.854,0,0,0-.7,0l-5.4,3.1ZM359,308.9a.208.208,0,0,0,0-.4l-4.6-2.7a.854.854,0,0,0-.7,0l-5.4,3.1a.208.208,0,0,0,0,.4l4.6,2.7a.854.854,0,0,0,.7,0Zm13.6,7.9a.208.208,0,0,0,0-.4l-4.7-2.7a.854.854,0,0,0-.7,0l-5.4,3.1a.208.208,0,0,0,0,.4l4.6,2.7a.854.854,0,0,0,.7,0Zm30.1,17.3a.208.208,0,0,0,0-.4L398,331a.854.854,0,0,0-.7,0l-5.5,3.1a.208.208,0,0,0,0,.4l4.6,2.7a.854.854,0,0,0,.7,0Zm-36.9-21.2a.208.208,0,0,0,0-.4l-4.6-2.7a.854.854,0,0,0-.7,0l-5.4,3.1a.208.208,0,0,0,0,.4l4.6,2.7a.854.854,0,0,0,.7,0Zm13.6,7.8a.208.208,0,0,0,0-.4l-4.6-2.7a.854.854,0,0,0-.7,0l-5.4,3.1a.208.208,0,0,0,0,.4l4.6,2.7a.854.854,0,0,0,.7,0Zm-12.3,45.2a.208.208,0,0,0,0,.4l7.1,4.1a.854.854,0,0,0,.7,0l5.4-3.1a.208.208,0,0,0,0-.4l-7.1-4.1a.854.854,0,0,0-.7,0Zm22-39.6a.208.208,0,0,0,0-.4l-4.6-2.7a.854.854,0,0,0-.7,0l-5.4,3.1a.208.208,0,0,0,0,.4l4.6,2.7a.854.854,0,0,0,.7,0Zm6.8,3.9a.208.208,0,0,0,0-.4l-4.6-2.7a.854.854,0,0,0-.7,0l-5.4,3.1a.208.208,0,0,0,0,.4l4.6,2.7a.854.854,0,0,0,.7,0ZM241.5,293.4a.208.208,0,0,0,0,.4l11.4,6.6a.854.854,0,0,0,.7,0l5.4-3.1a.208.208,0,0,0,0-.4l-11.4-6.6a.854.854,0,0,0-.7,0Zm15,8.7a.208.208,0,0,0,0,.4l4.6,2.7a.854.854,0,0,0,.7,0l5.4-3.1a.208.208,0,0,0,0-.4l-4.6-2.7a.854.854,0,0,0-.7,0Zm97.9,47.7,5.4-3.1a.208.208,0,0,0,0-.4l-4.6-2.7a.854.854,0,0,0-.7,0l-5.4,3.1a.208.208,0,0,0,0,.4l4.6,2.7A.854.854,0,0,0,354.4,349.8Zm-84.3-40a.208.208,0,0,0,0,.4l4.6,2.7a.854.854,0,0,0,.7,0l5.4-3.1a.208.208,0,0,0,0-.4l-4.6-2.7a.854.854,0,0,0-.7,0Zm-35.3-20.3a.208.208,0,0,0,0,.4l4.6,2.7a.854.854,0,0,0,.7,0l5.4-3.1a.208.208,0,0,0,0-.4l-4.6-2.7a.854.854,0,0,0-.7,0Zm-6.8-3.9a.208.208,0,0,0,0,.4l4.6,2.7a.854.854,0,0,0,.7,0l13-7.5a.208.208,0,0,0,0-.4l-4.6-2.7a.854.854,0,0,0-.7,0l-13,7.5Zm67.4,38.9a.208.208,0,0,0,0,.4l5.7,3.3a.854.854,0,0,0,.7,0l5.4-3.1a.208.208,0,0,0,0-.4l-5.7-3.3a.854.854,0,0,0-.7,0Zm-17.1-9.9a.208.208,0,0,0,0,.4l7.1,4.1a.854.854,0,0,0,.7,0l5.4-3.1a.208.208,0,0,0,0-.4l-7.1-4.1a.854.854,0,0,0-.7,0Zm32.8,19a.208.208,0,0,0,0,.4l38.2,22a.854.854,0,0,0,.7,0l5.4-3.1a.208.208,0,0,0,0-.4l-38.2-22a.854.854,0,0,0-.7,0Zm40.3,23.2a.208.208,0,0,0,0,.4l5.7,3.3a.854.854,0,0,0,.7,0l5.4-3.1a.208.208,0,0,0,0-.4l-5.7-3.3a.854.854,0,0,0-.7,0ZM303.2,329a.208.208,0,0,0,0,.4l5.7,3.3a.854.854,0,0,0,.7,0l5.4-3.1a.208.208,0,0,0,0-.4l-5.7-3.3a.854.854,0,0,0-.7,0Zm56,32.4a.208.208,0,0,0,0,.4l5.7,3.3a.854.854,0,0,0,.7,0L371,362a.208.208,0,0,0,0-.4l-5.7-3.3a.854.854,0,0,0-.7,0ZM287.5,320a.208.208,0,0,0,0,.4l5.7,3.3a.854.854,0,0,0,.7,0l5.4-3.1a.208.208,0,0,0,0-.4l-5.7-3.3a.854.854,0,0,0-.7,0Zm-24.2-14a.208.208,0,0,0,0,.4l4.6,2.7a.854.854,0,0,0,.7,0L274,306a.208.208,0,0,0,0-.4l-4.6-2.7a.854.854,0,0,0-.7,0Zm-9.5-13.9a.854.854,0,0,0,.7,0l5.4-3.1a.208.208,0,0,0,0-.4l-4.6-2.7a.854.854,0,0,0-.7,0l-5.4,3.1a.208.208,0,0,0,0,.4l4.6,2.7Zm30.3-.2a.854.854,0,0,0,.7,0l5.4-3.1a.208.208,0,0,0,0-.4l-4.6-2.7a.854.854,0,0,0-.7,0l-5.4,3.1a.208.208,0,0,0,0,.4l4.6,2.7Zm15.4,26.6a1.1,1.1,0,0,0,.8,0l5.4-3.1a.208.208,0,0,0,0-.4l-13.6-7.8a.854.854,0,0,0-.7,0l-5.4,3.1a.208.208,0,0,0,0,.4l13.5,7.8Zm-32.8-25.6a.208.208,0,0,0,0-.4l-4.6-2.7a.854.854,0,0,0-.7,0l-5.4,3.1a.208.208,0,0,0,0,.4l4.6,2.7a.854.854,0,0,0,.7,0Zm1.5-1.3a1.1,1.1,0,0,0,.8,0l5.4-3.1a.208.208,0,0,0,0-.4l-4.7-2.6a.854.854,0,0,0-.7,0l-5.4,3.1a.208.208,0,0,0,0,.4l4.6,2.6Zm38,30.8a1.1,1.1,0,0,0,.8,0l5.4-3.1a.208.208,0,0,0,0-.4l-4.6-2.7a.854.854,0,0,0-.7,0l-5.4,3.1a.208.208,0,0,0,0,.4l4.5,2.7Zm-24.5-20.9a.208.208,0,0,0,0-.4l-4.6-2.7a.854.854,0,0,0-.7,0l-5.4,3.1a.208.208,0,0,0,0,.4l4.6,2.7a.854.854,0,0,0,.7,0Zm58.4,40.4a.854.854,0,0,0,.7,0l5.4-3.1a.208.208,0,0,0,0-.4l-4.6-2.7a.854.854,0,0,0-.7,0l-5.4,3.1a.208.208,0,0,0,0,.4l4.6,2.7Zm-6.8-3.9a1.1,1.1,0,0,0,.8,0l5.4-3.1a.208.208,0,0,0,0-.4l-4.6-2.7a.854.854,0,0,0-.7,0l-5.4,3.1a.208.208,0,0,0,0,.4l4.5,2.7Zm13.6,7.8a1.1,1.1,0,0,0,.8,0l5.4-3.1a.208.208,0,0,0,0-.4l-4.6-2.7a.854.854,0,0,0-.7,0l-5.4,3.1a.208.208,0,0,0,0,.4l4.5,2.7Zm-27.1-15.6a1.1,1.1,0,0,0,.8,0l5.4-3.1a.208.208,0,0,0,0-.4l-4.6-2.7a.854.854,0,0,0-.7,0l-5.4,3.1a.208.208,0,0,0,0,.4l4.5,2.7Zm7.5,3.9,5.4-3.1a.208.208,0,0,0,0-.4l-4.6-2.7a.854.854,0,0,0-.7,0L322,331a.208.208,0,0,0,0,.4l4.6,2.7A.854.854,0,0,0,327.3,334.1ZM313,326.3a1.1,1.1,0,0,0,.8,0l5.4-3.1a.208.208,0,0,0,0-.4l-4.6-2.7a.854.854,0,0,0-.7,0l-5.4,3.1a.208.208,0,0,0,0,.4l4.5,2.7Zm-29.6-58.7a.208.208,0,0,0,0-.4l-4.6-2.7a.854.854,0,0,0-.7,0l-1.4.8a.208.208,0,0,0,0,.4l4.6,2.7a.854.854,0,0,0,.7,0Zm37.3,19.2a.208.208,0,0,0,0-.4l-4.6-2.7a.854.854,0,0,0-.7,0l-5.4,3.1a.208.208,0,0,0,0,.4l4.6,2.7a.854.854,0,0,0,.7,0ZM307.2,279a.208.208,0,0,0,0-.4l-4.6-2.7a.854.854,0,0,0-.7,0l-5.4,3.1a.208.208,0,0,0,0,.4l4.6,2.7a.854.854,0,0,0,.7,0Zm21.7,12.6a.208.208,0,0,0,0-.4l-4.6-2.7a.854.854,0,0,0-.7,0l-5.4,3.1a.208.208,0,0,0,0,.4l4.6,2.7a.854.854,0,0,0,.7,0Zm-15-8.7a.208.208,0,0,0,0-.4l-4.6-2.7a.854.854,0,0,0-.7,0l-5.4,3.1a.208.208,0,0,0,0,.4l4.6,2.7a.854.854,0,0,0,.7,0Zm28.7,16.5a.208.208,0,0,0,0-.4l-4.7-2.7a.854.854,0,0,0-.7,0l-5.4,3.1a.208.208,0,0,0,0,.4l4.6,2.7a.854.854,0,0,0,.7,0Zm-6.8-3.9a.208.208,0,0,0,0-.4l-4.6-2.7a.854.854,0,0,0-.7,0l-5.4,3.1a.208.208,0,0,0,0,.4l4.6,2.7a.854.854,0,0,0,.7,0ZM297,275.4a.208.208,0,0,0,0-.4l-4.7-2.7a.854.854,0,0,0-.7,0l-1.4.8a.208.208,0,0,0,0,.4l4.6,2.7a.854.854,0,0,0,.7,0Zm-20.3-11.7a.208.208,0,0,0,0-.4l-4.6-2.7a.854.854,0,0,0-.7,0l-1.4.8a.208.208,0,0,0,0,.4l4.6,2.7a.854.854,0,0,0,.7,0Zm-7.4,4.2a.208.208,0,0,0,0-.4l-4.6-2.7a.854.854,0,0,0-.7,0l-5.4,3.1a.208.208,0,0,0,0,.4l4.6,2.7a.854.854,0,0,0,.7,0ZM247,288.2a.854.854,0,0,0,.7,0l5.4-3.1a.208.208,0,0,0,0-.4l-4.6-2.7a.854.854,0,0,0-.7,0l-5.4,3.1a.208.208,0,0,0,0,.4l4.6,2.7Zm43.2-16.7a.208.208,0,0,0,0-.4l-4.6-2.7a.854.854,0,0,0-.7,0l-1.4.8a.208.208,0,0,0,0,.4l4.6,2.7a.854.854,0,0,0,.7,0Zm59.1,31.9a.208.208,0,0,0,0-.4l-4.6-2.7a.854.854,0,0,0-.7,0l-5.4,3.1a.208.208,0,0,0,0,.4l4.6,2.7a.854.854,0,0,0,.7,0Z"/><path class="g" d="M313.9,350l-26.2,15.1a5.508,5.508,0,0,1-5,0l-45.8-26.4c-1.4-.8-1.4-2.1,0-2.9l26.2-15.1a5.508,5.508,0,0,1,5,0l45.8,26.4C315.3,347.9,315.3,349.2,313.9,350Z"/><path class="o" d="M313.9,350l-26.2,15.1a5.508,5.508,0,0,1-5,0l-45.8-26.4c-1.4-.8-1.4-2.1,0-2.9l26.2-15.1a5.508,5.508,0,0,1,5,0l45.8,26.4C315.3,347.9,315.3,349.2,313.9,350Z"/><path class="q" d="M465.1,330.3c-.1.1-.3.2-.4.3a5.023,5.023,0,0,1-1.3.5,6.943,6.943,0,0,0,1.3-.5C464.9,330.4,465,330.4,465.1,330.3Z"/><path class="j" d="M294.2,87.4A7.767,7.767,0,0,1,304.9,85l159.5,92.1a8.632,8.632,0,0,1,2.9,3.1l-7.8,4.5a8.632,8.632,0,0,0-2.9-3.1L297.1,89.5c-2.1-1.2-3.8-.4-4.1,1.7A8.9,8.9,0,0,1,294.2,87.4Z"/><path class="q" d="M457.4,330.9Z"/><path class="h" d="M171.8,305.9c-1.9,1.3-1.7,3.3.4,4.5l159.5,92.1a8.679,8.679,0,0,0,4.2,1v9a8.955,8.955,0,0,1-4.2-1L172.2,319.4a7.7,7.7,0,0,1-.4-13.5Z"/><path class="r" d="M217.7,270.1,366.5,356c.2.1.5.2.4.2a6.536,6.536,0,0,0,5.3.2,7.946,7.946,0,0,0,3.2-5.1L399,228.5a5.37,5.37,0,0,0-.6-3.5l-.3-.6a2.65,2.65,0,0,0-.5-.6,9.014,9.014,0,0,0-1-.9L247.8,137a2.994,2.994,0,0,0-.8-.4l-.2-.1c-.2,0-.4-.1-.6-.1a4.953,4.953,0,0,0-2.6,1.3l-3.3,1.9a2.471,2.471,0,0,0-1.4,2L215.3,264.4A5.674,5.674,0,0,0,217.7,270.1Z"/><path class="g" d="M370,355.5a2.527,2.527,0,0,1-3.5.5L217.7,270.1a5.668,5.668,0,0,1-2.5-5.5l23.6-122.8a1.845,1.845,0,0,1,.5-1.2,2.426,2.426,0,0,1,3.4-.6l148.9,86a5.559,5.559,0,0,1,2.6,5.5L370.6,354.3A2.725,2.725,0,0,1,370,355.5Z"/><path class="s" d="M367.9,356.5a2.443,2.443,0,0,0,2.6-2.2l23.6-122.8a5.37,5.37,0,0,0-.6-3.5l5-2.9a5.37,5.37,0,0,1,.6,3.5L375.5,351.4a8.477,8.477,0,0,1-3.2,5.1,6.151,6.151,0,0,1-5.3-.2A2.92,2.92,0,0,0,367.9,356.5Z"/><path class="r" d="M246.3,136.7a.749.749,0,0,1,.5.1l.2.1a2.01,2.01,0,0,1,.8.4l148.8,85.9a2.836,2.836,0,0,1,1,.9,2.651,2.651,0,0,1,.5.6l.3.6-5,2.9a5.2,5.2,0,0,0-1.9-2l-148.8-86a2.486,2.486,0,0,0-2.5-.2h0l3.3-1.9A5.718,5.718,0,0,1,246.3,136.7Z"/><path class="q" d="M365.7,327.3a1.714,1.714,0,0,0,1.9-1.6l17-88.4a3.678,3.678,0,0,0-.5-2.5l3.6-2.1a3.627,3.627,0,0,1,.4,2.5l-17,88.4a5.57,5.57,0,0,1-2.3,3.6,4.586,4.586,0,0,1-3.8-.1A1.445,1.445,0,0,0,365.7,327.3Z"/><path class="f" d="M365.7,327.3a1.714,1.714,0,0,0,1.9-1.6l17-88.4a3.678,3.678,0,0,0-.5-2.5l3.6-2.1a3.627,3.627,0,0,1,.4,2.5l-17,88.4a5.57,5.57,0,0,1-2.3,3.6,4.586,4.586,0,0,1-3.8-.1A1.445,1.445,0,0,0,365.7,327.3Z"/><path class="q" d="M367.2,326.7a1.76,1.76,0,0,1-2.5.3l-140-80.9a4.026,4.026,0,0,1-1.8-3.9l17-88.3a1.613,1.613,0,0,1,.3-.9,1.776,1.776,0,0,1,2.5-.4l140,80.9a4.026,4.026,0,0,1,1.8,3.9l-17,88.4C367.6,326.1,367.4,326.4,367.2,326.7Z"/><path class="h" d="M367.2,326.7a1.76,1.76,0,0,1-2.5.3l-140-80.9a4.026,4.026,0,0,1-1.8-3.9l17-88.3a1.613,1.613,0,0,1,.3-.9,1.776,1.776,0,0,1,2.5-.4l140,80.9a4.026,4.026,0,0,1,1.8,3.9l-17,88.4C367.6,326.1,367.4,326.4,367.2,326.7Z"/><path class="q" d="M245.2,150.2h.5l.6.3,140,80.9c.3.2.5.4.8.6.1.1.2.3.4.4.1.1.2.3.3.4l-3.6,2.1a3.531,3.531,0,0,0-1.3-1.4l-140-80.9a1.914,1.914,0,0,0-1.8-.2h0l2.4-1.4A3.014,3.014,0,0,1,245.2,150.2Z"/><path class="j" d="M245.2,150.2h.5l.6.3,140,80.9c.3.2.5.4.8.6.1.1.2.3.4.4.1.1.2.3.3.4l-3.6,2.1a3.531,3.531,0,0,0-1.3-1.4l-140-80.9a1.914,1.914,0,0,0-1.8-.2h0l2.4-1.4A3.014,3.014,0,0,1,245.2,150.2Z"/><path class="t" d="M274.4,234.2l-79.6-46.1A4.047,4.047,0,0,1,193,185V61.9a3.83,3.83,0,0,1,.5-1.9,3.411,3.411,0,0,1,4.7-1.1L277.8,105a4.047,4.047,0,0,1,1.8,3.1V231.3a3.939,3.939,0,0,1-1.7,3.1A4.29,4.29,0,0,1,274.4,234.2Z"/><path class="u" d="M276.3,233.2V110.1a3.892,3.892,0,0,0-1.8-3.1L194.9,60.9c-1-.6-1.8-.2-1.8,1V185a3.892,3.892,0,0,0,1.8,3.1l79.6,46.1C275.4,234.8,276.3,234.4,276.3,233.2Z"/><path class="d" d="M194,61.5h0c.1,0,.2.1.4.1L274,107.7a3.15,3.15,0,0,1,1.4,2.3V233.2a.6.6,0,0,1-.1.4c-.1,0-.2-.1-.4-.1l-79.6-46.1a2.772,2.772,0,0,1-1.3-2.3V61.9c-.1-.2-.1-.3,0-.4m0-.9c-.6,0-1,.5-1,1.3V185a3.892,3.892,0,0,0,1.8,3.1l79.7,46.1a1.884,1.884,0,0,0,.8.2c.6,0,1-.5,1-1.3V110a3.892,3.892,0,0,0-1.8-3.1L194.9,60.8a1.486,1.486,0,0,0-.9-.2Z"/><path class="b" d="M276.2,233.2V110.1a4.075,4.075,0,0,0-.5-1.8l3.4-2a3.743,3.743,0,0,1,.5,1.8V231.3a3.287,3.287,0,0,1-.4,1.7,3.339,3.339,0,0,1-4.5,1.4C275.6,234.7,276.3,234.3,276.2,233.2Z"/><path class="b" d="M236.6,98.6v.7c0,1-.7,1.4-1.6.9L206.9,83.8a3.677,3.677,0,0,1-1.6-2.8v-.7c0-1,.7-1.4,1.6-.9L235,95.8A4.049,4.049,0,0,1,236.6,98.6Z"/><path class="b" d="M236.6,109.3v.6c0,1-.7,1.4-1.6.9L206.9,94.3a3.677,3.677,0,0,1-1.6-2.8V91c0-1,.7-1.4,1.6-.9L235,106.5A4.049,4.049,0,0,1,236.6,109.3Z"/><path class="b" d="M236.6,120.1v.6c0,1-.7,1.4-1.6.9l-28.1-16.4a3.677,3.677,0,0,1-1.6-2.8v-.6c0-1,.7-1.4,1.6-.9L235,117.3A3.677,3.677,0,0,1,236.6,120.1Z"/><path class="b" d="M266.2,158.6v.6c0,1-.7,1.4-1.6.9l-57.8-33.5a3.677,3.677,0,0,1-1.6-2.8v-.6c0-1,.7-1.4,1.6-.9l57.8,33.5A3.314,3.314,0,0,1,266.2,158.6Z"/><path class="b" d="M266.2,147.8v.6c0,1-.7,1.4-1.6.9l-57.8-33.5a3.658,3.658,0,0,1-1.6-2.7v-.6c0-1,.7-1.4,1.6-.9l57.8,33.5A3.152,3.152,0,0,1,266.2,147.8Z"/><path class="b" d="M266.2,169.4v.6c0,1-.7,1.4-1.6.9l-57.8-33.5a3.658,3.658,0,0,1-1.6-2.7V134c0-1,.7-1.4,1.6-.9l57.8,33.5A3.314,3.314,0,0,1,266.2,169.4Z"/><path class="b" d="M266.2,180.1v.6c0,1-.7,1.4-1.6.9l-57.8-33.5a3.677,3.677,0,0,1-1.6-2.8v-.6c0-1,.7-1.4,1.6-.9l57.8,33.5A3.446,3.446,0,0,1,266.2,180.1Z"/><path class="b" d="M266.2,190.8v.6c0,1-.7,1.4-1.6.9l-57.8-33.5a3.677,3.677,0,0,1-1.6-2.8v-.6c0-1,.7-1.4,1.6-.9L264.6,188A3.446,3.446,0,0,1,266.2,190.8Z"/><path class="b" d="M266.2,201.6v.6c0,1-.7,1.4-1.6.9l-57.8-33.5a3.658,3.658,0,0,1-1.6-2.7v-.6c0-1,.7-1.4,1.6-.9l57.8,33.5A2.925,2.925,0,0,1,266.2,201.6Z"/><path class="b" d="M266.2,212.3v.6c0,1-.7,1.4-1.6.9l-57.8-33.5a3.677,3.677,0,0,1-1.6-2.8v-.6c0-1,.7-1.4,1.6-.9l57.8,33.5A3.314,3.314,0,0,1,266.2,212.3Z"/><path class="v" d="M265.8,138.9l-23.3-13.4v-27L265.8,112Z"/><path class="u" d="M246,105.2v8.1l.7.4v-2.5c0-1.3,1.1-1.8,2.5-1l3.4,2v12c0,1.6-1,2.3-2.2,1.6l-2.2-1.3v.9l11.7,6.7v-.9l-2.2-1.3a5.458,5.458,0,0,1-2.2-4.1v-12l3.5,2a5.231,5.231,0,0,1,2.5,3.9v2.5l.7.4v-8.1Z"/><path class="b" d="M359.3,156.7l2.6,1.5v68.7l69.2,40v3.7c0,.8-.5,1-1.2.7l-70.6-40.9a2.652,2.652,0,0,1-1.2-2v-71C358.2,156.6,358.7,156.3,359.3,156.7Z"/><path class="q" d="M429.9,197.5a2.361,2.361,0,0,1,.8.9,3.582,3.582,0,0,1,.4,1.1v67.3l-69.2-40V158.1Z"/><path class="p" d="M429.9,197.5a2.361,2.361,0,0,1,.8.9,3.582,3.582,0,0,1,.4,1.1v67.3l-69.2-40V158.1Z"/><path class="v" d="M359.7,207.4v19.3a2.606,2.606,0,0,0,1.3,2.2l68,39.2,4.4-2.5V245.3l-15.1-30.6a1.432,1.432,0,0,0-2-.4h0l-4.3,2.5h-.1a.349.349,0,0,0-.2.1l-10.4,6.9-15.6-38.4a1.456,1.456,0,0,0-2-.5h0l-4.4,2.5h0c-.1.1-.2.1-.2.2Z"/><path class="n" d="M359.7,207.4v19.3a2.606,2.606,0,0,0,1.3,2.2l68,39.2,4.4-2.5V245.3l-15.1-30.6a1.432,1.432,0,0,0-2-.4h0l-4.3,2.5h-.1a.349.349,0,0,0-.2.1l-10.4,6.9-15.6-38.4a1.456,1.456,0,0,0-2-.5h0l-4.4,2.5h0c-.1.1-.2.1-.2.2Z"/><path class="v" d="M361,228.9a2.606,2.606,0,0,1-1.3-2.2V207.4L379,187.5l.2-.2a1.528,1.528,0,0,1,2,.4l15.9,38.6,14.5-9.5.1-.1a1.48,1.48,0,0,1,2.1.4l15.1,30.6V268Z"/><path class="n" d="M398.8,225.3l2.9,12.2-4.6-11.1Z"/><path class="t" d="M355.4,153.2v88.9a2.652,2.652,0,0,0,1.2,2l75.7,43.7c.1,0,.1.1.2.1h.1a3.043,3.043,0,0,0,2.1-.1l2-1.2a2.652,2.652,0,0,0,1.2-2V195.7a2.016,2.016,0,0,0-.3-1.1,2.361,2.361,0,0,0-.8-.9L360.9,150a2.548,2.548,0,0,0-2.4,0l-2.1,1.2a2.454,2.454,0,0,0-1.1,1.7v.1C355.3,153.1,355.4,153.1,355.4,153.2Zm2.8,4.2c0-.8.5-1.1,1.2-.7L430,197.5a2.652,2.652,0,0,1,1.2,2v71c0,.8-.5,1-1.2.7l-70.6-40.8a2.652,2.652,0,0,1-1.2-2Z"/><path class="b" d="M433.3,287.1V198.3a2.663,2.663,0,0,0-.3-1.2l4.4-2.5a3.582,3.582,0,0,1,.4,1.1v88.9a2.652,2.652,0,0,1-1.2,2l-2,1.2a2.551,2.551,0,0,1-2.1.1C432.9,288,433.3,287.7,433.3,287.1Z"/><path class="a" d="M355.3,153.2v88.9a2.652,2.652,0,0,0,1.2,2l75.7,43.7.2.1h.1c.5.2.9-.2.9-.8V198.2a1.922,1.922,0,0,0-.4-1.2,2.361,2.361,0,0,0-.8-.9l-75.7-43.7c-.5-.3-1-.2-1.1.3v.1C355.3,153.1,355.3,153.1,355.3,153.2Zm2.9,4.2c0-.8.5-1,1.2-.7l2.6,1.5,68,39.3a2.361,2.361,0,0,1,.8.9,3.582,3.582,0,0,1,.4,1.1v71c0,.8-.5,1-1.2.7l-70.6-40.8a2.652,2.652,0,0,1-1.2-2Z"/><path class="v" d="M406.9,204.2l1.6,2.8,3.4-2h0a3.478,3.478,0,0,0,1.4-3,10.483,10.483,0,0,0-4.7-8.2,3.451,3.451,0,0,0-3.4-.3h0l-3.5,2,1.7,2.9A11.98,11.98,0,0,0,406.9,204.2Z"/><path class="n" d="M406.9,204.2l1.6,2.8,3.4-2h0a3.478,3.478,0,0,0,1.4-3,10.483,10.483,0,0,0-4.7-8.2,3.451,3.451,0,0,0-3.4-.3h0l-3.5,2,1.7,2.9A11.98,11.98,0,0,0,406.9,204.2Z"/><path class="v" d="M409.9,203.9c0,3-2.1,4.2-4.7,2.7a10.22,10.22,0,0,1-4.7-8.2c0-3,2.1-4.3,4.7-2.7A10.64,10.64,0,0,1,409.9,203.9Z"/><path class="g" d="M212.7,151.1h0l.2-.1a2.817,2.817,0,0,1,2.2.3L311.7,207a3.552,3.552,0,0,0,.9.4,2.88,2.88,0,0,0,3.5-2.2l.4-1.2,2.8-11.4a3.306,3.306,0,0,1,1.4-1.9h.1a3.182,3.182,0,0,1,3,.1l41,23.7a7.185,7.185,0,0,1,2.4,2.5,6.387,6.387,0,0,1,1,3.3V357.6c0,1.5-1.5,2.5-3.3,1.5L215.1,272.7a7.173,7.173,0,0,1-3.3-5.8l.1-113.7A2.131,2.131,0,0,1,212.7,151.1Z"/><path class="r" d="M325.8,188h0a2.938,2.938,0,0,1,3,.1l41,23.7a7.185,7.185,0,0,1,2.4,2.5l-5,2.9a7.185,7.185,0,0,0-2.4-2.5l-41-23.7a2.93,2.93,0,0,0-3-.1Z"/><path class="r" d="M217.7,148.2h0a2.92,2.92,0,0,1,.9-.2,2.6,2.6,0,0,1,1.5.4L316.6,204l-.5,1.2a4.18,4.18,0,0,1-.4,1,2.9,2.9,0,0,1-4,.8l-96.6-55.7a2.413,2.413,0,0,0-2.2-.3Z"/><path class="v" d="M279.7,242.2a2.4,2.4,0,0,0-1.1,3.1l10.9,23.1a2.307,2.307,0,0,0,1.7,1.3,2.417,2.417,0,0,0,2-.6l10.9-10.5.1-.1a2.335,2.335,0,1,0-3.4-3.2l-7,6.7V232.7a2.3,2.3,0,1,0-4.6,0v24.4l-6.5-13.8a2.2,2.2,0,0,0-3-1.1Z"/><path class="v" d="M272,253.6v15.2a2.305,2.305,0,0,0,1.1,2l31.3,18.1a2.279,2.279,0,0,0,1.1.3,2.016,2.016,0,0,0,1.1-.3,2.11,2.11,0,0,0,1.1-2V271.7h0a2.3,2.3,0,1,0-4.6,0v11.2l-26.7-15.4V253.6h0a2.263,2.263,0,0,0-2.3-2.3A2.227,2.227,0,0,0,272,253.6Z"/><path class="s" d="M368.2,357.7V220.4a6.387,6.387,0,0,0-1-3.3h0l5-2.9a6.387,6.387,0,0,1,1,3.3V354.4a2.428,2.428,0,0,1-.9,2.1l-5.2,3H367A1.976,1.976,0,0,0,368.2,357.7Z"/><path class="q" d="M220.4,250.4a3.164,3.164,0,0,1-1.4,2.4l-1.6.9a2.8,2.8,0,0,1-2.8,0l-71-41a3.164,3.164,0,0,1-1.4-2.4V155.9a3.164,3.164,0,0,1,1.4-2.4l1.6-.9a3.417,3.417,0,0,1,2.8,0l71,41a3.164,3.164,0,0,1,1.4,2.4Z"/><path class="o" d="M219,193.6l-71-41a3.417,3.417,0,0,0-2.8,0l-1.6.9a2.41,2.41,0,0,0-1,1L216,196.9l3.9-2.3A2.836,2.836,0,0,0,219,193.6Z"/><path class="w" d="M220,194.6l-3.9,2.3-.7.4a1.086,1.086,0,0,1,.7,1.2V253a.975.975,0,0,1-.4.9.846.846,0,0,1-.7,0,.349.349,0,0,0,.2.1l.3.1a2.054,2.054,0,0,0,1.1,0c.2,0,.4-.1.6-.1a.758.758,0,0,0,.4-.2l1.6-.9a3.164,3.164,0,0,0,1.4-2.4V196A14.668,14.668,0,0,1,220,194.6Z"/><path class="x" d="M187.9,209.3,216,252v.9a.975.975,0,0,1-.4.9l-27.7-44.5-4.4,1.9a5.373,5.373,0,0,1-6.7-2l-6.1-9.8-27.9,12.3a2.3,2.3,0,0,1-.4-1.4l28.2-11-28.1-44.9L171.6,199l5.3,8.1a5.375,5.375,0,0,0,6.4,2.1l32.9-12.3Z"/><path class="q" d="M140.2,76.8v35.6h0a12.007,12.007,0,0,0,5.4,9.4,3.732,3.732,0,0,0,3.8.4h0l4.4-2.1h0c1.1-.5,1.8-1.8,1.8-3.6a12.007,12.007,0,0,0-5.4-9.4,6.7,6.7,0,0,0-1.8-.7V89.9l14.3,8.2v27.2a11.849,11.849,0,0,0,5.5,9.4,3.708,3.708,0,0,0,3.8.4h0l4.4-2.1h0c1.1-.5,1.8-1.8,1.8-3.6a12.007,12.007,0,0,0-5.4-9.4,6.7,6.7,0,0,0-1.8-.7V89.6l-26.1-15Z"/><path class="n" d="M140.2,76.8v35.6h0a12.007,12.007,0,0,0,5.4,9.4,3.732,3.732,0,0,0,3.8.4h0l4.4-2.1h0c1.1-.5,1.8-1.8,1.8-3.6a12.007,12.007,0,0,0-5.4-9.4,6.7,6.7,0,0,0-1.8-.7V89.9l14.3,8.2v27.2a11.849,11.849,0,0,0,5.5,9.4,3.708,3.708,0,0,0,3.8.4h0l4.4-2.1h0c1.1-.5,1.8-1.8,1.8-3.6a12.007,12.007,0,0,0-5.4-9.4,6.7,6.7,0,0,0-1.8-.7V89.6l-26.1-15Z"/><path class="q" d="M163.8,129.9l12.1-6.7a11.168,11.168,0,0,0-3.3-3.2,6.7,6.7,0,0,0-1.8-.7l-4.5,2.2-3.2,6.5A10.662,10.662,0,0,0,163.8,129.9Z"/><path class="o" d="M163.8,129.9l12.1-6.7a11.168,11.168,0,0,0-3.3-3.2,6.7,6.7,0,0,0-1.8-.7l-4.5,2.2-3.2,6.5A10.662,10.662,0,0,0,163.8,129.9Z"/><path class="q" d="M141.4,117l12.1-6.7a11.168,11.168,0,0,0-3.3-3.2,6.7,6.7,0,0,0-1.8-.7l-4.5,2.2-3.2,6.5A10.663,10.663,0,0,0,141.4,117Z"/><path class="o" d="M141.4,117l12.1-6.7a11.168,11.168,0,0,0-3.3-3.2,6.7,6.7,0,0,0-1.8-.7l-4.5,2.2-3.2,6.5A10.663,10.663,0,0,0,141.4,117Z"/><path class="y" d="M166.3,91.8l4.5-2.1-26-15.1-4.6,2.2Z"/><path class="q" d="M140.2,76.8v35.6h0a12.007,12.007,0,0,0,5.4,9.4c3,1.7,5.5.3,5.5-3.1a11.849,11.849,0,0,0-5.5-9.4,6.7,6.7,0,0,0-1.8-.7V87.3h0l18.8,10.8v27.2a11.849,11.849,0,0,0,5.5,9.4c3,1.7,5.4.3,5.4-3.1a12.007,12.007,0,0,0-5.4-9.4,6.7,6.7,0,0,0-1.8-.7V91.8Z"/><path class="v" d="M91.6,167.5l-3.4-6.4,2.8-7.9v-4.9l-8.4,4.9v4.9l3.6,6.3c.1.1.1.2.2.2h0Z"/><path class="x" d="M91.6,167.5l-3.4-6.4,2.8-7.9v-4.9l-8.4,4.9v4.9l3.6,6.3c.1.1.1.2.2.2h0Z"/><path class="v" d="M111.7,99.5a5.6,5.6,0,0,0-2.5-4.4l-2.1-1.2a5.508,5.508,0,0,0-5,0L70.5,112.1a5.6,5.6,0,0,0-2.5,4.4v44.8a5.6,5.6,0,0,0,2.5,4.4l2,1.2a5.507,5.507,0,0,0,5,0L87.6,161l3.6,6.3a.443.443,0,0,0,.7.2l.3-.3,3.8-11,13-7.5a5.6,5.6,0,0,0,2.5-4.4Z"/><path class="x" d="M68.1,161.3a5.6,5.6,0,0,0,2.5,4.4l2,1.2a5.667,5.667,0,0,0,4.6.2c-1.2.4-2.1-.2-2.1-1.7V120.6a5.528,5.528,0,0,1,.7-2.5L68.7,114a4.514,4.514,0,0,0-.7,2.5v44.8Z"/><path class="f" d="M111.7,98.8c-.3-1.1-1.3-1.4-2.4-.7L77.8,116.3a5.463,5.463,0,0,0-1.8,1.9l-7.1-4.1a4.689,4.689,0,0,1,1.8-1.9L102.1,94a5.507,5.507,0,0,1,5,0l2.1,1.2A5.475,5.475,0,0,1,111.7,98.8Z"/><path class="u" d="M86.7,138.3a.9.9,0,0,1-.5-.1,1.05,1.05,0,0,1-.5-.9V131a1,1,0,0,1,2,0v4.6L99.2,129v-5.8a1,1,0,0,1,2,0v6.3a1.05,1.05,0,0,1-.5.9l-13.5,7.8A.9.9,0,0,1,86.7,138.3Z"/><path class="u" d="M97.4,116.3a.756.756,0,0,1,.4.1,1.04,1.04,0,0,1,.6,1.3L94,128.9a.993.993,0,0,1-.8.6.975.975,0,0,1-.9-.4l-4.2-6.2a1.012,1.012,0,1,1,1.7-1.1l3.1,4.7,3.7-9.5A.709.709,0,0,1,97.4,116.3Z"/><path class="u" d="M93,114a.945.945,0,0,1,1,1v12a1,1,0,0,1-2,0V115A1.075,1.075,0,0,1,93,114Z"/><path class="z" d="M80.6,154.3v-.6c0-.2.1-.4.1-.7.1-.2.1-.4.2-.6l.3-.6c.1-.2.3-.3.4-.5a2.181,2.181,0,0,1,.5-.4c.1,0,.1-.1.2-.1s.1,0,.2-.1h.4l-.2,1.3a.367.367,0,0,0-.3.1c-.1,0-.2.1-.3.2l-.3.3c-.1.1-.2.2-.2.3s-.1.2-.2.4c0,.1-.1.3-.1.4h.3a.367.367,0,0,0,.3-.1h.4a.367.367,0,0,1,.3.1c.1,0,.2.1.3.2s.1.2.1.4v.7a1.421,1.421,0,0,1-.2.6,2.092,2.092,0,0,1-.4.6c-.1.2-.3.3-.4.5a1,1,0,0,1-.5.4c-.2.1-.3.2-.5.3a1.6,1.6,0,0,1-.8.3,1.483,1.483,0,0,1-.7-.1,1.205,1.205,0,0,1-.5-.5,2,2,0,0,1-.2-.9V155a6.882,6.882,0,0,1,.2-1.3h.8c0,.2-.1.3-.1.5s-.1.3-.1.5v.9c0,.2.1.3.1.4.1.1.2.2.3.2h.4a.758.758,0,0,0,.4-.2l.9-.6a1.794,1.794,0,0,0,.5-.7c-.2,0-.3.1-.5.1s-.3.1-.4.1H81a.367.367,0,0,1-.3-.1l-.2-.2C80.6,154.6,80.6,154.4,80.6,154.3Z"/><path class="z" d="M84.5,150.4a1.689,1.689,0,0,1,.2.5c.1.1.1.2.2.3a.1.1,0,0,0,.1.1h.2l.1,1.3H85a2.354,2.354,0,0,1-.2.8,6.888,6.888,0,0,1-.3.8c-.1.3-.3.5-.4.8-.2.3-.3.5-.5.8l-.7-.7c.2-.2.3-.5.5-.7.1-.2.3-.5.4-.7a4.876,4.876,0,0,0,.3-.7,1.268,1.268,0,0,0,.1-.6c0-.1-.1-.2-.1-.3s-.1-.2-.1-.3-.1-.2-.1-.3c-.1-.1-.1-.2-.2-.4Z"/><path class="z" d="M87.3,150.2l.1,1.3h-.1a.349.349,0,0,0-.2.1h-.4c-.1,0-.1,0-.1-.1,0,.1-.1.2-.2.3s-.2.2-.2.3c-.1.1-.2.2-.3.2-.1.1-.2.1-.3.2l-.3.2-.1-1.3.3-.2c.1-.1.2-.1.3-.2.1,0,.1-.1.2-.2s.1-.1.1-.2v-.5c0-.1-.1-.3-.1-.4l.9-.8a18543839468553.64,18543839468553.64,0,0,0,.3.9v.3a.1.1,0,0,0,.1.1h.2c-.3.1-.3.1-.2,0Zm-1,2.8-.4.9-.5-.4.4-.9.5.4.4-.9.5.4-.4.9Z"/><path class="z" d="M87,146l1.8-2.1.2.3-2,2.3Zm.2,4.3.2-.1a655542040720.847,655542040720.847,0,0,0,.4-.2l.2-.2.2-.2c0-.1.1-.1.1-.2v-.2c0-.1,0-.2-.1-.2,0-.1-.1-.1-.2-.2l-.2-.2c-.1-.1-.2-.1-.3-.2s-.2-.1-.3-.2-.2-.1-.3-.2v-1.1l2-2.3.5.9L88,147.2c.1.1.3.1.4.2a1.381,1.381,0,0,0,.4.3c.1.1.2.3.3.4a.9.9,0,0,1,.1.5v.8c-.1.2-.1.5-.2.7a2.092,2.092,0,0,1-.4.6,1.755,1.755,0,0,1-.5.4l-.8.4Z"/><path class="z" d="M93.9,150.2a1.6,1.6,0,0,1-.8.3,1.483,1.483,0,0,1-.7-.1,1.205,1.205,0,0,1-.5-.5,2.388,2.388,0,0,1-.2-.9v-1.1c.1-.4.2-.9.3-1.3l.8.3c0,.1-.1.2-.1.4a4.332,4.332,0,0,0-.1.5.9.9,0,0,1-.1.5v.4c0,.2.1.3.1.4.1.1.2.2.3.2s.2.1.4,0a.6.6,0,0,0,.4-.1,1.38,1.38,0,0,0,.4-.3,2.182,2.182,0,0,0,.4-.5c.1-.2.2-.3.2-.5a.9.9,0,0,0,.1-.5.6.6,0,0,0-.1-.4.758.758,0,0,0-.2-.4c-.1-.1-.1-.2-.2-.4-.1-.1-.1-.2-.2-.3l.8-1a.349.349,0,0,1,.1.2c0,.1.1.2.1.3.1.1.1.2.2.3a.6.6,0,0,1,.1.4c0,.1.1.3.1.4s.1.3.1.4v.6c0,.2-.1.4-.1.7a6.373,6.373,0,0,0-.2.7l-.3.6a1.205,1.205,0,0,1-.5.5A1.422,1.422,0,0,0,93.9,150.2Zm-.4-3.9-.6-.4.5-1,.6.4Z"/><path class="z" d="M97.3,146.1a1.421,1.421,0,0,1-.6.2c-.2,0-.3,0-.4-.1a1.381,1.381,0,0,1-.3-.4,1.268,1.268,0,0,1-.1-.6c0-.3-.1-.6-.1-.9s-.1-.6-.1-.9-.1-.6-.1-.9a2.92,2.92,0,0,0-.2-.9l.9-.9c.1.3.1.5.2.8,0,.3.1.6.1.9s.1.6.1.9a2.769,2.769,0,0,0,.1.9v.5l.1.1a.31.31,0,0,0,.2-.1h.1l.1,1.4Z"/><path class="z" d="M99,143.8l.1,1.3H99a.756.756,0,0,1-.4.1.367.367,0,0,1-.3-.1,1,1,0,0,1-.4.5,2.092,2.092,0,0,1-.6.4l-.1.1-.1-1.3.1-.1c.1-.1.2-.1.3-.2.1,0,.1-.1.2-.1s.1-.1.1-.2V144a.367.367,0,0,0-.1-.3.6.6,0,0,1-.1-.4l.9-.8a12362559645707.207,12362559645707.207,0,0,0,.2.6v.6a.1.1,0,0,0,.1.1H99q-.15,0,0,0Zm-.7,3.4-.6-.4.5-1,.6.4Z"/><path class="z" d="M101.1,142.6l.1,1.3h-.1a.349.349,0,0,0-.2.1h-.4c-.1,0-.1,0-.1-.1,0,.1-.1.2-.2.3s-.2.2-.2.3c-.1.1-.2.2-.3.2-.1.1-.2.1-.3.2l-.3.2-.1-1.3.3-.2c.1-.1.2-.1.3-.2.1,0,.1-.1.2-.2s.1-.1.1-.2v-.5c0-.1-.1-.3-.1-.4l.9-.8a1123869058695.019,1123869058695.019,0,0,0,.2.6v.6a.1.1,0,0,0,.1.1h.2c-.2.1-.2.1-.1,0Zm-1,2.8-.4.9-.5-.4.4-.9.5.4.4-.9.5.4-.4.9Z"/><path class="z" d="M101.9,139.4l-.4.9-.5-.4.4-.9.5.4.4-.9.5.4-.4.9Zm1.3,2.1.1,1.3h-.1a.349.349,0,0,0-.2.1h-.4c-.1,0-.1,0-.1-.1,0,.1-.1.2-.2.3s-.2.2-.2.3c-.1.1-.2.2-.3.2-.1.1-.2.1-.3.2l-.3.2-.1-1.3.3-.2c.1-.1.2-.1.3-.2.1,0,.1-.1.2-.2s.1-.1.1-.2v-.5c0-.1-.1-.3-.1-.4l.9-.8a12362559645646.98,12362559645646.98,0,0,0,.2.6v.6a.1.1,0,0,0,.1.1h.1Z"/><path class="z" d="M106.2,141.2a.349.349,0,0,0-.2.1h-.2c-.1,0-.1,0-.2-.1a.1.1,0,0,1-.1-.1.349.349,0,0,1-.1.2c0,.1-.1.2-.1.3-.1.1-.1.2-.2.2a.215.215,0,0,0-.2.2.349.349,0,0,0-.2.1h-.2c-.1,0-.1,0-.2-.1l-.1-.1c0,.1,0,.2-.1.2a.215.215,0,0,1-.2.2c-.1,0-.1.1-.2.2s-.2.1-.3.2h-.1l-.1-1.3h0c.1-.1.2-.1.3-.3.1-.1.1-.2.2-.4,0-.2.1-.3.1-.5a1.268,1.268,0,0,1,.1-.6l.9-.3v1.4h.1c.1,0,.1-.1.2-.2a.349.349,0,0,1,.1-.2c0-.1.1-.2.1-.3v-.9l.8-.3v1.1a.1.1,0,0,0,.1.1h.2c.1,0,.1-.1.1-.2a.349.349,0,0,1,.1-.2v-1.1l.8-.6c0,.2.1.5.1.6,0,.2.1.3.1.4s.1.1.2.2.1,0,.2,0h.1l.1,1.3h-.1c-.2.1-.3.1-.5.2a.6.6,0,0,1-.4-.1c0,.1-.1.2-.1.3-.1.1-.1.2-.2.2l-.2.2C106.4,141.1,106.3,141.1,106.2,141.2Zm-.8-3.7-.4.9-.5-.4.4-.9.5.4.4-.9.5.4-.4.9Zm.3-1.2-.4.8-.5-.3.4-.8Z"/><path class="z" d="M107.7,139l.5-.3a.1.1,0,0,0,.1-.1c.1,0,.1-.1.2-.1s.1-.1.2-.1a.1.1,0,0,0,.1-.1l.1-.1v-.1a.31.31,0,0,0-.1-.2.367.367,0,0,1-.1-.3c-.1-.1-.1-.2-.2-.3s-.1-.2-.2-.3l.8-1.1c.1.1.1.2.2.4.1.1.1.3.2.4a.6.6,0,0,1,.1.4c0,.1.1.3.1.4a2.2,2.2,0,0,1-.1.8c-.1.2-.2.5-.3.7a2.652,2.652,0,0,1-.5.6,2.092,2.092,0,0,1-.6.4l-.5.3Zm1.2,1.6.4-.9.5.4-.4.9-.5-.4-.4.9-.5-.4.4-.9Zm-.4,1.2.4-.8.5.3-.4.8Z"/><path class="aa" d="M79.4,246.9l-3.6,9.6,4.7,14-6,6.7s-6.9-12-9.8-18.1c-.9-1.9-1-2.9-.4-4.5,1.5-3.7,5.6-15.7,8-21.6s6.5-8.4,10.2-7.6Z"/><path class="q" d="M113.5,235.9l3,1.7a3.821,3.821,0,0,1,1.8,3.2V315a4.073,4.073,0,0,1-1.8,3.2l-77.9,45a3.825,3.825,0,0,1-3.6,0l-3-1.7a3.786,3.786,0,0,1-1.8-3.1V284.2A4.073,4.073,0,0,1,32,281l77.9-45A3.57,3.57,0,0,1,113.5,235.9Z"/><path class="l" d="M113.5,235.9l3,1.7a3.821,3.821,0,0,1,1.8,3.2V315a4.073,4.073,0,0,1-1.8,3.2l-77.9,45a3.825,3.825,0,0,1-3.6,0l-3-1.7a3.786,3.786,0,0,1-1.8-3.1V284.2A4.073,4.073,0,0,1,32,281l77.9-45A3.57,3.57,0,0,1,113.5,235.9Z"/><path class="q" d="M116.5,237.6l-3-1.7a3.825,3.825,0,0,0-3.6,0L32,280.9a3.531,3.531,0,0,0-1.3,1.4l6.6,3.8a4.357,4.357,0,0,1,1.3-1.4l77.9-45c.8-.5,1.5-.3,1.8.5A4.3,4.3,0,0,0,116.5,237.6Z"/><path class="x" d="M116.5,237.6l-3-1.7a3.825,3.825,0,0,0-3.6,0L32,280.9a3.531,3.531,0,0,0-1.3,1.4l6.6,3.8a4.357,4.357,0,0,1,1.3-1.4l77.9-45c.8-.5,1.5-.3,1.8.5A4.3,4.3,0,0,0,116.5,237.6Z"/><path class="q" d="M118.3,240.8V315a4.073,4.073,0,0,1-1.8,3.2l-77.9,45c-1,.6-1.8.1-1.8-1V287.9a3.748,3.748,0,0,1,1.8-3.1l77.9-45C117.5,239.1,118.3,239.6,118.3,240.8Z"/><path class="z" d="M64.7,328.3c-4.5-2.6-7.1-8.5-7.1-16.2,0-14,8.6-30.4,19.2-36.5,4.9-2.9,9.7-3.2,13.6-1,4.5,2.6,7.1,8.5,7.1,16.2,0,14-8.6,30.4-19.2,36.5a16.3,16.3,0,0,1-8.1,2.4A9.834,9.834,0,0,1,64.7,328.3Zm13.7-50c-9.7,5.6-17.6,20.8-17.6,33.8,0,6.5,2,11.5,5.6,13.5,2.8,1.6,6.6,1.3,10.5-1,9.7-5.6,17.6-20.8,17.6-33.8,0-6.6-2-11.5-5.6-13.6a7.924,7.924,0,0,0-4-1A12.534,12.534,0,0,0,78.4,278.3Z"/><path class="z" d="M67.1,306.9l15.3-19c1.4-1.7,2.5-1.4,2.5.6v19.6c0,2.1-1.1,3.6-2.5,3.5l-15.3-1.4C65.7,310.1,65.7,308.6,67.1,306.9Z"/><path class="q" d="M82,247.3l-3.2,6.6a21.912,21.912,0,0,1-13.1-5.4c1.5-5,4.3-11.9,6.4-18.5,1.4-4.4,4.6-9,10.5-8Z"/><g class="ab"><path d="M82,247.3l-3.2,6.6a21.912,21.912,0,0,1-13.1-5.4c1.5-5,4.3-11.9,6.4-18.5,1.4-4.4,4.6-9,10.5-8Z"/></g><path class="r" d="M95.9,388.8c-.2,0-.3.3-.3,1.6a1.909,1.909,0,0,0,.6,1.6c1.2,1.1,4.8,1.6,6.8,1.2s5.4-1.5,7.4-1.5,6.7.4,10-.4,5.2-2.9,5.3-3.5.1-2-.3-1.9Z"/><path class="q" d="M96.5,383.9c.1-.5.1-.9.2-1.5s.2-4,1-4.1,9-.3,9-.3c.6,0,.7.6,1,1.2a3.269,3.269,0,0,0,1.1,1.5,8.424,8.424,0,0,0,3.5.7c1.7,0,3.2-.3,5.1-.4a9.3,9.3,0,0,1,5.2.9,4.678,4.678,0,0,1,2.8,4.5,6.049,6.049,0,0,1-3,2.9,17.391,17.391,0,0,1-5.1,1.3,40.906,40.906,0,0,1-7,0,21.626,21.626,0,0,0-5.1.7,12.089,12.089,0,0,1-6.8.2,3.94,3.94,0,0,1-2.5-1.7,14.1,14.1,0,0,1,.1-4.1c0-.3.1-.5.1-.8A6.894,6.894,0,0,0,96.5,383.9Z"/><g class="ac"><path d="M96.5,383.9c.1-.5.1-.9.2-1.5s.2-4,1-4.1,9-.3,9-.3c.6,0,.7.6,1,1.2a3.269,3.269,0,0,0,1.1,1.5,8.424,8.424,0,0,0,3.5.7c1.7,0,3.2-.3,5.1-.4a9.3,9.3,0,0,1,5.2.9,4.678,4.678,0,0,1,2.8,4.5,6.049,6.049,0,0,1-3,2.9,17.391,17.391,0,0,1-5.1,1.3,40.906,40.906,0,0,1-7,0,21.626,21.626,0,0,0-5.1.7,12.089,12.089,0,0,1-6.8.2,3.94,3.94,0,0,1-2.5-1.7,14.1,14.1,0,0,1,.1-4.1c0-.3.1-.5.1-.8A6.894,6.894,0,0,0,96.5,383.9Z"/></g><path class="u" d="M111.6,381.2a9.075,9.075,0,0,1,1.7,3.4c0,1-1.8,1-1.8,0a5.73,5.73,0,0,0-2.2-3.8A3.659,3.659,0,0,1,111.6,381.2Z"/><path class="u" d="M114.7,381.1a4.7,4.7,0,0,1,2.1,3.3c.1.7-1.5.9-1.5.1a6.309,6.309,0,0,0-2-3.3C113.3,381,114.2,380.8,114.7,381.1Z"/><path class="u" d="M115.3,381.1s.2-.8,3.4-.8c2.9,0,4.7.9,5.9,2.2.2.2.4.3.5.5a3.361,3.361,0,0,1-.6,4.7,8.176,8.176,0,0,1-4.4,2.3,13.268,13.268,0,0,0-.6-5.6c-.9-2.4-2.7-3.5-3.5-3.4Z"/><path class="aa" d="M106.9,373.3l-.3,5.7c0,.6-1.8,2-4.3,2.1-3.5.1-4.6-.7-4.6-1.4,0-1.1-.5-8-.5-8Z"/><path class="r" d="M83.3,370.3s-6.8.8-6.9,3,.4,2.7,1.8,3.4,4.3.5,5.3-.4a18.571,18.571,0,0,0,3.3-4.1,16.573,16.573,0,0,1,3.2-3.8c1.1-1,2.9-2.1,3.8-4.6a9.338,9.338,0,0,0,.3-4.7Z"/><path class="q" d="M83.8,359.5c1.9-.5,5.8-3.9,8.2-2.9,1.8.8,2.2,1.9,1.7,4.5-.8,4.1-2.8,4.8-4.8,6.9-2.2,2.4-3.3,4.1-4.8,6a5.584,5.584,0,0,1-6,1.3c-2.3-1-1.6-3.5-1.5-5.1.1-2.2.2-3.3.8-3.5C77.9,366.5,82.1,360,83.8,359.5Z"/><path class="l" d="M83.8,359.5c1.9-.5,5.8-3.9,8.2-2.9,1.8.8,2.2,1.9,1.7,4.5-.8,4.1-2.8,4.8-4.8,6.9-2.2,2.4-3.3,4.1-4.8,6a5.584,5.584,0,0,1-6,1.3c-2.3-1-1.6-3.5-1.5-5.1.1-2.2.2-3.3.8-3.5C77.9,366.5,82.1,360,83.8,359.5Z"/><path class="u" d="M82.8,360.1a6.773,6.773,0,0,1,5.3,3.5c.6.6,1.6,0,1.3-.7a6.273,6.273,0,0,0-5.3-3.5l-.3.1A8.794,8.794,0,0,0,82.8,360.1Z"/><path class="u" d="M81.4,361.6a6.456,6.456,0,0,1,4.4,3.3c.6.6,1.6,0,1.3-.7a6.42,6.42,0,0,0-4.9-3.5C81.9,361,81.7,361.3,81.4,361.6Z"/><path class="aa" d="M84.6,363.1a39.567,39.567,0,0,1-.5,4.4,6.641,6.641,0,0,1-6.8-.2l-.3-4.6Z"/><path class="u" d="M93.7,357.7a4.723,4.723,0,0,0-5.1-1.5,5.9,5.9,0,0,0-3.3,2.5l.4-.2c6.6.7,6.8,5.6,6.8,5.6C93.7,363.2,94.8,359.2,93.7,357.7Z"/><path class="g" d="M77,363.9a10.515,10.515,0,0,0,7.8,0s3.2-18.8,4.4-28.1c1.4-10.7,3-13.6,3.3-19.4l.8-15.8,3.5,29.6a54.757,54.757,0,0,0-2.2,14.5c-.1,6.7,2.6,31.7,2.6,31.7s5.1,1.7,9.8,0c0,0,1.6-20.6,2.6-30s1-15.3,1.3-21.1c.2-4.1,1-36.5,1-51.2,0-12.8-36.8-5-36.8-5,.3,2.8.1,17.1.8,28.4.7,10.5,1.8,21.5,1.8,21.5a62.8,62.8,0,0,0-2.6,12.9C74.1,340.1,77,363.9,77,363.9Z"/><path class="s" d="M92.4,293.8l.8,6.8L92.6,313c0,.4-2.5-17.8-2.5-17.8-8.4-3.5-10.4-9.1-10.4-9.1C84.5,291.3,92.4,293.8,92.4,293.8Z"/><path class="aa" d="M86.9,216.1l-.9,14H97.9L99.1,218Z"/><path class="r" d="M73.7,242.3c.4,2.8,2,8.6,2,12.9l-.8,19.9s1.9,4.9,13.2,7.1a42.813,42.813,0,0,0,24-2.5c.2-7.7.7-24.9.1-36s-2.6-17.2-6.4-18.5L98.4,224c-5.3,1.2-11.5.4-12-1.6-.9-.2-1.8-.2-2.8-.4-4.1-.7-7.8,3-8.8,6.3C74.2,230.5,72.7,233.8,73.7,242.3Z"/><path class="aa" d="M105.6,240s10.5,22.6,12.9,25.6c.5.6.9,1.7,4,1.8h1.6c6,0,11.7-.5,17.7-.7,4.1-.2,6.9-.2,10.2-.3a35.267,35.267,0,0,0,10.2-1.8,10.32,10.32,0,0,0,5.3-3.6c1.4-2.1,1.4-4.8,1.2-7.2-.1-.7-.3-1.6-.9-1.9a2.4,2.4,0,0,0-2,.4l-3.7,2.1a14.019,14.019,0,0,1-3,1.5c-.8.2-3.2.8-2.8-.8a2.55,2.55,0,0,1,.8-1.2,4.589,4.589,0,0,0,1-2.5,1.8,1.8,0,0,0-.2-1,1.02,1.02,0,0,0-.8-.5,1.374,1.374,0,0,0-.8.5c-1.3,1.3-2.5,2.5-3.7,3.9-.9,1.1-1.5,2.5-2.9,3a16.351,16.351,0,0,1-2.2.2c-2.8.1-16.6-1-19.4-1.4,0,0-8.9-20.1-11.6-24.9-2.5-4.4-10.3-4.9-10.3-4.9S102.9,231.1,105.6,240Z"/><path class="q" d="M105.5,242.9c2.1,4.5,7.9,15.5,7.9,15.5a22.3,22.3,0,0,0,12.9-7s-7-14.6-10-20.4c-2.6-5.2-8-5.5-10.4-5.8C103.3,228.3,103.3,238.1,105.5,242.9Z"/><path class="x" d="M105.5,242.9c2.1,4.5,7.9,15.5,7.9,15.5a22.3,22.3,0,0,0,12.9-7s-7-14.6-10-20.4c-2.6-5.2-8-5.5-10.4-5.8C103.3,228.3,103.3,238.1,105.5,242.9Z"/><path class="ad" d="M106.6,208.4a8.064,8.064,0,0,0,2.4-.9c.3-.4-2.8-4.6-2.8-4.6Z"/><path class="aa" d="M82.8,195c-3.8,3.3-2.4,10.9,1.6,16.3,3.4,4.6,10.2,6.6,13.2,7.2,2.4.5,7,.1,7.8-.8,1.2-1.3,2-4.4.9-13.8-1-9-2.8-11.4-8.6-12.3C95.4,191.2,88.1,190.3,82.8,195Z"/><path class="g" d="M107.2,194.3a4.054,4.054,0,0,0,.5-.9,5.266,5.266,0,0,0,.8-2.4,1.843,1.843,0,0,0-1.4-1.9,2.054,2.054,0,0,0-1.1,0,8.752,8.752,0,0,1-1.6.2h-.8c-.1,0-.6-.1-.7,0a2.813,2.813,0,0,0,1.3-2.4,1.274,1.274,0,0,0-.5-1.1,1.183,1.183,0,0,0-1,.1c-.8.3-1.6.5-2.3.8-4.8,1.4-9.6-1.3-14.5.1-3.3.9-6.1,2.8-6.4,6.5-2.6,2.3-4.1,7.4-.1,15.2,1.9,3.7,4,5.7,7.5,9.9,4.7.7,7-.6,7-.6a10.121,10.121,0,0,0,2.6-8.1s-2.2.5-3.2-1c-1.6-2.5-1.5-5.9,1.4-6.5s4,2.8,4,2.8c.6,2.1,1.5.8,1.5-.7-.1-1.1-.1-2-.1-2.8a3.39,3.39,0,0,1,1-3,10.076,10.076,0,0,1,2.3-1.2,11.354,11.354,0,0,0,2.3-1.5,17.411,17.411,0,0,0,1.4-1.2Z"/><path class="ad" d="M99.2,217.3l-.2,1.4h.2c2.5.1,5.6-.3,6.3-1C103.1,218.3,99.2,217.3,99.2,217.3Z"/></g></svg>