<svg xmlns="http://www.w3.org/2000/svg" width="611.813" height="460.51" viewBox="0 0 611.813 460.51"><defs><style>.a{fill:#f0f0f0;}.b{fill:#ff3600;}.c,.t{opacity:0.2;}.d,.f{fill:#fafafa;}.e{fill:#06826a;}.f,.w{opacity:0.5;}.g{opacity:0.1;}.h{fill:#e0e0e0;}.i{fill:#ba68c8;}.j,.w{fill:#37474f;}.k{fill:#263238;}.l,.s,.t{fill:#455a64;}.m,.x{fill:#fff;}.n{fill:#f28f8f;}.o{fill:#ffa8a7;}.p{fill:#ef3206;}.q{fill:#f2f2f2;}.r,.s,.x{opacity:0.4;}.u{fill:#ed9b80;}.v{fill:#ffbda7;}</style></defs><g transform="translate(-7.475 -45.752)"><path class="a" d="M529.7,233.8c-119.5-62.3-313.1-62.3-432.6,0s-119.5,163.3,0,225.7,313.1,62.3,432.6,0C649.1,397.2,649.2,296.1,529.7,233.8Z"/><path class="b" d="M489.2,361.8c14.7-6.1,20.8-22.9,21.3-36.9.3-9-2.3-16.7-4.4-20.2-4.3-7.3-12.8-3.5-10.7,13,1.3,10.4.9,26.9-8.2,33Z"/><path class="c" d="M489.2,361.8c14.7-6.1,20.8-22.9,21.3-36.9.3-9-2.3-16.7-4.4-20.2-4.3-7.3-12.8-3.5-10.7,13,1.3,10.4.9,26.9-8.2,33Z"/><path class="d" d="M488.6,360.6h0a.633.633,0,0,1,.1-.9c15.1-12.9,17.4-35.9,13.2-51.9a.667.667,0,0,1,1.3-.3c4.3,16.4,1.9,40-13.6,53.2a.758.758,0,0,1-.4.2A.6.6,0,0,1,488.6,360.6Z"/><path class="e" d="M464.6,364.5c1.1-7.7,15.6-7.6,24.1-8,5.2-.2,5.8-12.2,11.2-15.2,5.4-2.9,8.2,1.1,12.9-.8s9.3-19.1,17.4-10.8-3,18.9-.3,26.3.1,16.1-11.1,14.5-7.5,2.4-13.1,11.5c-5.9,9.8-24.2,4.8-32.2-.9C473.5,381.2,463.5,372.1,464.6,364.5Z"/><path class="d" d="M469.5,377.3h0c0-.4.2-.7.6-.7,40.9-4.3,56.6-39.7,57.6-44.9.1-.4.4-.6.7-.5.4.1.6.4.5.7-1,5.3-17.1,41.6-58.7,45.9h-.1A.738.738,0,0,1,469.5,377.3Z"/><path class="d" d="M508.7,361h0c-.3-.1-.6-.4-.5-.7a.688.688,0,0,1,.8-.5,42.9,42.9,0,0,0,14.3,0h0a.608.608,0,1,1,.2,1.2,51.226,51.226,0,0,1-7.8.6A41.359,41.359,0,0,1,508.7,361Z"/><path class="d" d="M502.7,365a50.637,50.637,0,0,1-.9-17.8c.1-.4.4-.6.7-.5s.6.4.5.7a49.627,49.627,0,0,0,.9,17.2.533.533,0,0,1-.5.7h-.1A.486.486,0,0,1,502.7,365Z"/><path class="b" d="M109.6,291v23a6.922,6.922,0,0,1-3.1,5.4l-2.5,1.5a6.781,6.781,0,0,1-6.2,0L77.9,309.4a6.923,6.923,0,0,1-3.1-5.4V281a6.922,6.922,0,0,1,3.1-5.4l2.5-1.5a6.781,6.781,0,0,1,6.2,0l20,11.5A7.452,7.452,0,0,1,109.6,291Z"/><path class="f" d="M109.6,291v23a6.922,6.922,0,0,1-3.1,5.4l-2.5,1.5a6.781,6.781,0,0,1-6.2,0L77.9,309.4a6.923,6.923,0,0,1-3.1-5.4V281a6.922,6.922,0,0,1,3.1-5.4l2.5-1.5a6.781,6.781,0,0,1,6.2,0l20,11.5A7.452,7.452,0,0,1,109.6,291Z"/><path class="b" d="M74.7,304a6.922,6.922,0,0,0,3.1,5.4l19.9,11.5c1.7,1,3.1.2,3.1-1.8v-23a6.922,6.922,0,0,0-3.1-5.4L77.8,279.2c-1.7-1-3.1-.2-3.1,1.8Z"/><path class="b" d="M109.6,291a5.291,5.291,0,0,0-.9-3l-8.7,5.1a5.53,5.53,0,0,1,.9,3v23c0,1.8-1.1,2.6-2.5,2a7.514,7.514,0,0,0,5.7-.2l2.5-1.5a6.923,6.923,0,0,0,3.1-5.4Z"/><path class="g" d="M109.6,291a5.291,5.291,0,0,0-.9-3l-8.7,5.1a5.53,5.53,0,0,1,.9,3v23c0,1.8-1.1,2.6-2.5,2a7.514,7.514,0,0,0,5.7-.2l2.5-1.5a6.923,6.923,0,0,0,3.1-5.4Z"/><path class="d" d="M97.1,299.1v11.4a.519.519,0,0,1-.8.5l-17-9.9a1.723,1.723,0,0,1-.8-1.4V288.3a.519.519,0,0,1,.8-.5l17,9.8A1.9,1.9,0,0,1,97.1,299.1Z"/><path class="h" d="M86.7,302.6l-8.2-15.2,8.5,14,10.1-3.3Z"/><path class="e" d="M109.6,233v23a6.663,6.663,0,0,1-3.1,5.4l-2.5,1.4a6.781,6.781,0,0,1-6.2,0L77.9,251.3a6.9,6.9,0,0,1-3.1-5.3V223a6.923,6.923,0,0,1,3.1-5.4l2.5-1.5a6.781,6.781,0,0,1,6.2,0l20,11.5A7.1,7.1,0,0,1,109.6,233Z"/><path class="f" d="M109.6,233v23a6.663,6.663,0,0,1-3.1,5.4l-2.5,1.4a6.781,6.781,0,0,1-6.2,0L77.9,251.3a6.9,6.9,0,0,1-3.1-5.3V223a6.923,6.923,0,0,1,3.1-5.4l2.5-1.5a6.781,6.781,0,0,1,6.2,0l20,11.5A7.1,7.1,0,0,1,109.6,233Z"/><path class="e" d="M74.7,246a6.591,6.591,0,0,0,3.1,5.3l19.9,11.5c1.7,1,3.1.2,3.1-1.8V238a6.923,6.923,0,0,0-3.1-5.4L77.8,221.1c-1.7-1-3.1-.2-3.1,1.8Z"/><path class="e" d="M109.6,233a5.291,5.291,0,0,0-.9-3l-8.7,5.1a5.53,5.53,0,0,1,.9,3v23c0,1.8-1.1,2.6-2.5,2a7.1,7.1,0,0,0,5.7-.3l2.5-1.4a6.923,6.923,0,0,0,3.1-5.4Z"/><path class="g" d="M109.6,233a5.291,5.291,0,0,0-.9-3l-8.7,5.1a5.53,5.53,0,0,1,.9,3v23c0,1.8-1.1,2.6-2.5,2a7.1,7.1,0,0,0,5.7-.3l2.5-1.4a6.923,6.923,0,0,0,3.1-5.4Z"/><path class="d" d="M85.8,248.2c-2.8-3.4-6.1-8.4-6.1-12.3,0-2.7,1.9-3.8,4.2-2.4a9.284,9.284,0,0,1,4,5.5c.6-1.5,2.1-2,4-.9a9.176,9.176,0,0,1,4.2,7.3c0,4-3.3,5.1-6.1,5.3l-2.1.2Z"/><path class="e" d="M567.6,262.2v23a6.922,6.922,0,0,1-3.1,5.4L562,292a6.781,6.781,0,0,1-6.2,0l-19.9-11.5a6.922,6.922,0,0,1-3.1-5.4v-23a6.591,6.591,0,0,1,3.1-5.3l2.5-1.5a6.781,6.781,0,0,1,6.2,0l20,11.5A7.452,7.452,0,0,1,567.6,262.2Z"/><path class="f" d="M567.6,262.2v23a6.922,6.922,0,0,1-3.1,5.4L562,292a6.781,6.781,0,0,1-6.2,0l-19.9-11.5a6.922,6.922,0,0,1-3.1-5.4v-23a6.591,6.591,0,0,1,3.1-5.3l2.5-1.5a6.781,6.781,0,0,1,6.2,0l20,11.5A7.452,7.452,0,0,1,567.6,262.2Z"/><path class="e" d="M535.9,280.5a6.922,6.922,0,0,1-3.1-5.4v-23c0-2,1.4-2.8,3.1-1.8l19.9,11.5a6.922,6.922,0,0,1,3.1,5.4v23c0,2-1.4,2.8-3.1,1.8"/><path class="e" d="M567.6,262.2a5.291,5.291,0,0,0-.9-3l-8.7,5.1a5.531,5.531,0,0,1,.9,3v23c0,1.8-1.1,2.6-2.5,2a7.1,7.1,0,0,0,5.7-.3l2.5-1.4a6.922,6.922,0,0,0,3.1-5.4Z"/><path class="g" d="M567.6,262.2a5.291,5.291,0,0,0-.9-3l-8.7,5.1a5.531,5.531,0,0,1,.9,3v23c0,1.8-1.1,2.6-2.5,2a7.1,7.1,0,0,0,5.7-.3l2.5-1.4a6.922,6.922,0,0,0,3.1-5.4Z"/><path class="d" d="M549.4,282.1l-8.5-5a3.676,3.676,0,0,1-1.9-3,5.85,5.85,0,0,1,.2-1.3,3.546,3.546,0,0,1-1.4-2.5c0-1,.3-1.3.3-1.3a4.071,4.071,0,0,1-1.3-2.5c0-1.4,1-1.1,1-1.1a3.5,3.5,0,0,1-.8-2.2c0-.7.5-1.6,1.6-1l5.2,3a7.5,7.5,0,0,1,.4-4.9c.7-1.5,2.8,0,2.8.5a26.711,26.711,0,0,0,0,4c.2.8,2.5,6.1,2.5,6.1Z"/><path class="d" d="M554.5,273.5l-3.8-2.2v13l3.7,2.2Z"/><path class="b" d="M580.1,197.2v35.3a10.483,10.483,0,0,1-4.7,8.2l-3.8,2.2a10.59,10.59,0,0,1-9.5,0l-30.5-17.7a10.432,10.432,0,0,1-4.8-8.2V181.7a10.324,10.324,0,0,1,4.8-8.2l3.8-2.2a10.59,10.59,0,0,1,9.5,0l30.6,17.6A10.719,10.719,0,0,1,580.1,197.2Z"/><path class="g" d="M580.1,197.2v35.3a10.483,10.483,0,0,1-4.7,8.2l-3.8,2.2a10.59,10.59,0,0,1-9.5,0l-30.5-17.7a10.432,10.432,0,0,1-4.8-8.2V181.7a10.324,10.324,0,0,1,4.8-8.2l3.8-2.2a10.59,10.59,0,0,1,9.5,0l30.6,17.6A10.719,10.719,0,0,1,580.1,197.2Z"/><path class="b" d="M564.4,203.1l2.4-2.4a11.031,11.031,0,0,0-4.8-5.2c-3.1-1.8-25.4-14.4-29.9-17.2s-5.4,1.6-5.4,3.4Z"/><path class="c" d="M564.4,203.1l2.4-2.4a11.031,11.031,0,0,0-4.8-5.2c-3.1-1.8-25.4-14.4-29.9-17.2s-5.4,1.6-5.4,3.4Z"/><path class="i" d="M531.6,225.2a10.432,10.432,0,0,1-4.8-8.2V181.7c0-3,2.1-4.3,4.8-2.7l30.5,17.6a10.589,10.589,0,0,1,4.8,8.2V240c0,3-2.1,4.2-4.8,2.7"/><path class="b" d="M531.6,225.2a10.432,10.432,0,0,1-4.8-8.2V181.7c0-3,2.1-4.3,4.8-2.7l30.5,17.6a10.589,10.589,0,0,1,4.8,8.2V240c0,3-2.1,4.2-4.8,2.7"/><path class="b" d="M580.2,197.2a9.885,9.885,0,0,0-1.4-4.7l-13.4,7.7a9.565,9.565,0,0,1,1.4,4.7v35.2c0,2.7-1.7,4-3.9,3.1a10.575,10.575,0,0,0,8.7-.4l3.8-2.2a10.221,10.221,0,0,0,4.7-8.2Z"/><path class="c" d="M580.2,197.2a9.885,9.885,0,0,0-1.4-4.7l-13.4,7.7a9.565,9.565,0,0,1,1.4,4.7v35.2c0,2.7-1.7,4-3.9,3.1a10.575,10.575,0,0,0,8.7-.4l3.8-2.2a10.221,10.221,0,0,0,4.7-8.2Z"/><path class="d" d="M547.6,193.6l4,11.6,8.9,6.6c.8.6,1.2,2,.6,2.3l-6.4,3.5,1.5,11.1c.1,1.1-.7,1.3-1.5.4l-7.9-9.4-8,.2c-.7,0-1.6-1.2-1.5-2.1l1.5-9.3-6.4-10.9c-.6-1-.3-2,.6-1.7l8.9,3.6,4-7C546.3,191.9,547.3,192.5,547.6,193.6Z"/><path class="h" d="M119.6,258.5c15.2-7.2,39.9-7.2,55.1,0,15.3,7.2,15.2,19,0,26.2s-39.9,7.2-55.1,0S104.3,265.8,119.6,258.5Z"/><path class="j" d="M473.8,371.4l-211-121.7a11.879,11.879,0,0,0-11,0L97.7,338.6a11.108,11.108,0,0,0-4.3,4.3,10.262,10.262,0,0,0,4.3,13.9l211,121.7a11.879,11.879,0,0,0,11,0l154.2-88.8a11.842,11.842,0,0,0,5.5-9.1A11.969,11.969,0,0,0,473.8,371.4Z"/><path class="k" d="M314.1,337.9V479.8a10.637,10.637,0,0,0,5.5-1.3l154.2-88.8a11.108,11.108,0,0,0,4.3-4.3,10.262,10.262,0,0,0-4.3-13.9L415.7,338H314.1Z"/><path class="l" d="M473.8,371.4l-211-121.7a12.026,12.026,0,0,1-5.5-9.5V56.5a10.3,10.3,0,0,1,1.6-5.9,10.448,10.448,0,0,1,14.3-3.3l211,121.6a12.026,12.026,0,0,1,5.5,9.5V362.2a11.367,11.367,0,0,1-5.2,9.3A11.863,11.863,0,0,1,473.8,371.4Z"/><path class="k" d="M449.7,357.5l24.1,13.9a11.043,11.043,0,0,0,5.8,1.6,10.376,10.376,0,0,0,10-10.7V178.4A11.329,11.329,0,0,0,488,173l-24.1,14Z"/><path class="j" d="M473.8,174.9,262.8,53.3c-3-1.8-5.5-.3-5.5,3.2V240.3a12.138,12.138,0,0,0,5.5,9.5l211,121.7c3,1.8,5.5.3,5.5-3.2V184.5A12.055,12.055,0,0,0,473.8,174.9Z"/><path class="l" d="M473.8,371.4l-211-121.7a11.879,11.879,0,0,0-11,0L97.7,338.6c-3.1,1.8-3.1,4.6,0,6.3l211,121.7a11.879,11.879,0,0,0,11,0l154.2-88.9C476.9,376,476.9,373.1,473.8,371.4Z"/><path class="m" d="M474.2,190.8V349.9c0,2.1-1.5,3-3.3,1.9L265.8,233.6a7.409,7.409,0,0,1-3.3-5.7V68.8c0-2.1,1.5-3,3.3-1.9L470.9,185.1A7.409,7.409,0,0,1,474.2,190.8Z"/><path class="k" d="M456.9,373.9a1.742,1.742,0,0,1-1,2.2l-10,5.8a5.939,5.939,0,0,1-5.5,0L244.6,269a1.643,1.643,0,0,1-1-1,1.675,1.675,0,0,1,1-2.1l10-5.8a5.939,5.939,0,0,1,5.5,0L456,373A1.352,1.352,0,0,1,456.9,373.9Z"/><path class="k" d="M431.2,388.9a1.676,1.676,0,0,1-1,2.1l-61.8,35.4a5.939,5.939,0,0,1-5.5,0L167.2,313.6a1.643,1.643,0,0,1-1-1,1.675,1.675,0,0,1,1-2.1L228.8,275a5.939,5.939,0,0,1,5.5,0L430.1,388A1.273,1.273,0,0,1,431.2,388.9Z"/><path class="h" d="M255.6,325.7l7.1-4.1q.45-.3,0-.6l-6.1-3.5a.908.908,0,0,0-1,0l-7.1,4.1c-.2.2-.3.4,0,.6l6.1,3.5A.9.9,0,0,0,255.6,325.7Zm10.1-14.1-7.1,4.1c-.2.2-.3.4,0,.6l6.1,3.5a.908.908,0,0,0,1,0l7.1-4.1q.45-.3,0-.6l-6.1-3.5A1.7,1.7,0,0,0,265.7,311.6Zm19.8,11.6-7.1,4.1c-.2.2-.3.4,0,.6l10.4,6a.908.908,0,0,0,1,0l7.1-4.1c.2-.2.3-.4,0-.6l-10.4-6A.908.908,0,0,0,285.5,323.2Zm-10.8-6.3-7.1,4.1q-.45.3,0,.6l6.1,3.5a.908.908,0,0,0,1,0l7.1-4.1c.2-.2.3-.4,0-.6l-6.1-3.5A.9.9,0,0,0,274.7,316.9Zm25,13.8a.908.908,0,0,0-1,0l-7.1,4.1c-.2.2-.3.4,0,.6l6.1,3.5a.908.908,0,0,0,1,0l7.1-4.1c.2-.2.3-.4,0-.6l-6.1-3.5Zm9,5.2a.908.908,0,0,0-1,0l-7.1,4.1c-.2.2-.3.4,0,.6l6.1,3.5a.908.908,0,0,0,1,0l7.1-4.1q.45-.3,0-.6l-6.1-3.5Zm-27.9,16.6a.908.908,0,0,0,1,0l7.1-4.1c.2-.2.3-.4,0-.6l-6.1-3.5a.908.908,0,0,0-1,0l-7.1,4c-.2.2-.3.4,0,.6l6.1,3.6Zm8.9,5.2a.908.908,0,0,0,1,0l7.1-4.1c.2-.2.3-.4,0-.6l-6.2-3.6a.908.908,0,0,0-1,0l-7.1,4.1c-.2.2-.3.4,0,.6l6.2,3.6Zm9,5.2a1.7,1.7,0,0,0,1,0l7.1-4.1q.45-.3,0-.6l-6.1-3.5a.908.908,0,0,0-1,0l-7.1,4.1c-.2.2-.3.4,0,.6l6.1,3.5Zm9,5.1a.908.908,0,0,0,1,0l7.1-4.1q.45-.3,0-.6l-6.2-3.6a.908.908,0,0,0-1,0l-7.1,4.1c-.2.2-.3.4,0,.6l6.2,3.6Zm-43.2-37.1,7.1-4.1q.45-.3,0-.6l-6.1-3.5a.908.908,0,0,0-1,0l-7.1,4.1q-.45.3,0,.6l6.1,3.5A.9.9,0,0,0,264.5,330.9Zm7.3,16.5a1.183,1.183,0,0,0,1,.1l7.1-4.1c.2-.2.3-.4,0-.6l-5.7-3.3c-.3-.1-.3-.4,0-.6l9.1-5.3q.45-.3,0-.6l-7.1-4.1a.908.908,0,0,0-1,0L258,338.8c-.2.2-.3.4,0,.6l13.8,8Zm44.8-6.3-7.1,4.1c-.2.2-.3.4,0,.6l6.1,3.5a.908.908,0,0,0,1,0l7.1-4.1q.45-.3,0-.6l-6.1-3.5A.908.908,0,0,0,316.6,341.1Zm10,5.1a.908.908,0,0,0-1,0l-7.1,4.1q-.45.3,0,.6l6.1,3.5a.908.908,0,0,0,1,0l7.1-4.1c.2-.2.3-.4,0-.6l-6.1-3.5Zm51.8,53.9q.45-.3,0-.6l-6.1-3.5a.908.908,0,0,0-1,0l-7.1,4.1c-.2.2-.3.4,0,.6l6.1,3.5a.908.908,0,0,0,1,0Zm18.9-12.6-7.1,4.1q-.45.3,0,.6l6.1,3.5a.908.908,0,0,0,1,0l7.1-4.1c.2-.2.3-.4,0-.6l-6.1-3.5A1.7,1.7,0,0,0,397.3,387.5Zm-6.4,8.1c.2-.2.3-.4,0-.6l-6.1-3.5a.908.908,0,0,0-1,0l-7.1,4.1c-.2.2-.3.4,0,.6l6.1,3.5a.908.908,0,0,0,1,0Zm-35.4,11.7a1.183,1.183,0,0,0,1-.1l7.1-4.1q.45-.3,0-.6l-6.1-3.5a.908.908,0,0,0-1,0l-7.1,4.1c-.2.2-.3.4,0,.6l6.1,3.6Zm17.1,1.1q.45-.3,0-.6l-6.2-3.6a.908.908,0,0,0-1,0l-7.1,4.1c-.2.2-.3.4,0,.6l6.1,3.5a.908.908,0,0,0,1,0Zm15.7-25.9-7,4.1q-.45.3,0,.6l6.1,3.5a.908.908,0,0,0,1,0l7.1-4.1c.2-.2.3-.4,0-.6l-6.1-3.5A1.083,1.083,0,0,0,388.3,382.5Zm-44.8-25.9-7.1,4.1c-.2.2-.3.4,0,.6l6.1,3.5a.908.908,0,0,0,1,0l7.1-4.1c.2-.2.3-.4,0-.6l-6.1-3.5A.908.908,0,0,0,343.5,356.6Zm35.9,20.6-7.1,4.1c-.2.2-.3.4,0,.6l6.1,3.5a.908.908,0,0,0,1,0l7.1-4.1q.45-.3,0-.6l-6.1-3.5A1.7,1.7,0,0,0,379.4,377.2Zm-43.9-25.8a.908.908,0,0,0-1,0l-7.1,4.1q-.45.3,0,.6l6.1,3.5a.908.908,0,0,0,1,0l7.1-4.1c.2-.2.3-.4,0-.6l-6.1-3.5Zm18,10.3a1.7,1.7,0,0,0-1,0l-7.1,4.1c-.2.2-.3.4,0,.6l6.1,3.5a.908.908,0,0,0,1,0l7.1-4.1c.2-.2.3-.4,0-.6l-6.1-3.5Zm8.9,5.2a.908.908,0,0,0-1,0l-7.1,4.1c-.2.2-.3.4,0,.6l6.1,3.5a.908.908,0,0,0,1,0l7.2-4.1c.2-.2.3-.4,0-.6l-6.2-3.5Zm9,5.2a.908.908,0,0,0-1,0l-7.1,4.1c-.2.2-.3.4,0,.6l6.1,3.5a.908.908,0,0,0,1,0l7.1-4.1c.2-.2.3-.4,0-.6l-6.1-3.5Zm-45.8,6.3a.908.908,0,0,0,1,0l7.1-4.1c.2-.2.3-.4,0-.6l-6.1-3.5a.908.908,0,0,0-1,0l-7.1,4.1q-.45.3,0,.6l6.1,3.5Zm-78.7-78.1a1.183,1.183,0,0,0-1-.1l-7.1,4.1q-.45.3,0,.6l6.1,3.5a.908.908,0,0,0,1,0l7.1-4.1c.2-.2.3-.4,0-.6l-6.1-3.4Zm10.8,6.2a1.183,1.183,0,0,0-1,.1l-7.1,4.1c-.2.2-.3.4,0,.6l6.1,3.5a.908.908,0,0,0,1,0l7.1-4.1q.45-.3,0-.6l-6.1-3.6Zm-19.8-11.4a1.7,1.7,0,0,0-1,0l-7.1,4.1q-.45.3,0,.6l6.1,3.5a.908.908,0,0,0,1,0l7.1-4.1c.2-.2.3-.4,0-.6l-6.1-3.5Zm46.4,47.8a1.7,1.7,0,0,0,1,0l7.1-4.1c.2-.2.3-.4,0-.6l-6.1-3.5a.908.908,0,0,0-1,0l-7.1,4.1c-.2.2-.3.4,0,.6l6.1,3.5ZM220.9,294c-.2.2-.3.4,0,.6l6.1,3.5a.908.908,0,0,0,1,0l7.1-4.1q.45-.3,0-.6l-6.1-3.5a.908.908,0,0,0-1,0Zm96.7,79.2,7.1-4.1c.2-.2.3-.4,0-.6l-6.2-3.5a.908.908,0,0,0-1,0l-7.1,4.1q-.45.3,0,.6l6.1,3.5A2.046,2.046,0,0,0,317.6,373.2ZM206.7,309.8a.908.908,0,0,0,1,0l7.1-4.1c.2-.2.3-.4,0-.6l-6.1-3.5a.908.908,0,0,0-1,0l-7.1,4.1c-.2.2-.3.4,0,.6l6.1,3.5Zm19.1-.6a.908.908,0,0,0,1,0l7.1-4.1c.2-.2.3-.4,0-.6l-6.1-3.5a.908.908,0,0,0-1,0l-7.1,4.1q-.45.3,0,.6l6.1,3.5Zm-15.1-9.3c-.2.2-.3.4,0,.6l6.1,3.5a.908.908,0,0,0,1,0l7.1-4.1q.45-.3,0-.6l-6.1-3.5a.908.908,0,0,0-1,0Zm5.3-5.2q.45-.3,0-.6l-6.1-3.5a.908.908,0,0,0-1,0l-17.3,9.9c-.2.2-.3.4,0,.6l6.1,3.5a.908.908,0,0,0,1,0l17.3-9.9Zm20.7,11.4a.908.908,0,0,0-1,0l-7.1,4.1q-.45.3,0,.6l6.1,3.5a.908.908,0,0,0,1,0l7.1-4.1c.2-.2.3-.4,0-.6l-6.1-3.5ZM303.2,345l-7.1,4.1q-.45.3,0,.6l6.1,3.5a.908.908,0,0,0,1,0l7.1-4.1c.2-.2.3-.4,0-.6l-6.1-3.5A.9.9,0,0,0,303.2,345Zm-79.4-34.1c.2-.2.3-.4,0-.6l-6.1-3.5a.908.908,0,0,0-1,0l-7.1,4.1q-.45.3,0,.6l6.1,3.5a.908.908,0,0,0,1,0Zm71.4,28.9a1.387,1.387,0,0,0-.9,0l-7.1,4.1q-.45.3,0,.6l6.1,3.5a.908.908,0,0,0,1,0l7.1-4.1c.2-.2.3-.4,0-.6l-6.2-3.5Zm74.3,55.1q.45-.3,0-.6l-6.1-3.5a.908.908,0,0,0-1,0l-7.1,4.1c-.2.2-.3.4,0,.6l6.1,3.5a.908.908,0,0,0,1,0Zm6.4-8.6a1.183,1.183,0,0,0-1-.1l-7.1,4.1q-.45.3,0,.6l6.1,3.5a.908.908,0,0,0,1,0l7.1-4.1c.2-.2.3-.4,0-.6l-6.1-3.4Zm-22.4,7.6,7.1-4.1c.2-.2.3-.4,0-.6l-6.1-3.5a.908.908,0,0,0-1,0l-7.1,4.1c-.2.2-.3.4,0,.6l6.1,3.5A1.7,1.7,0,0,0,353.5,393.9Zm-10-5.2a.908.908,0,0,0,1,0l7.1-4.1c.2-.2.3-.4,0-.6l-6.1-3.5a.908.908,0,0,0-1,0l-7.1,4.1c-.2.2-.3.4,0,.6l6.1,3.5Zm-9-5.2a1.079,1.079,0,0,0,1.1,0l7.1-4.1c.2-.2.3-.4,0-.6l-6.1-3.5a.908.908,0,0,0-1,0l-7.1,4.1c-.2.2-.3.4,0,.6l6.1,3.5Zm31.4-2.3-7.1,4.1q-.45.3,0,.6l6.1,3.5a.908.908,0,0,0,1,0l7.1-4.1c.2-.2.3-.4,0-.6l-6.1-3.5A.9.9,0,0,0,365.9,381.2ZM358,376a1.7,1.7,0,0,0-1,0l-7.1,4.1c-.2.2-.3.4,0,.6l6.1,3.5a.908.908,0,0,0,1,0l7.1-4.1c.2-.2.3-.4,0-.6L358,376Zm-35.9-20.7a1.7,1.7,0,0,0-1,0l-7.1,4.1c-.2.2-.3.4,0,.6l6.1,3.5a.908.908,0,0,0,1,0l7.1-4.1c.2-.2.3-.4,0-.6l-6.1-3.5Zm9,5.2a1.387,1.387,0,0,0-.9,0l-7.1,4.1c-.2.2-.3.4,0,.6l6.1,3.5a.908.908,0,0,0,1,0l7.1-4.1c.2-.2.3-.4,0-.6l-6.2-3.5Zm-19-10.3-7.1,4.1c-.2.2-.3.4,0,.6l6.1,3.5a.908.908,0,0,0,1,0l7.1-4.1c.2-.2.3-.4,0-.6l-6.1-3.5A.908.908,0,0,0,312.1,350.2ZM349,370.8a.908.908,0,0,0-1,0l-7.1,4.1c-.2.2-.3.4,0,.6L347,379a.908.908,0,0,0,1,0l7.1-4.1q.45-.3,0-.6l-6.1-3.5Zm-9-5.1a.908.908,0,0,0-1,0l-7.1,4.1c-.2.2-.3.4,0,.6l6.1,3.5a.908.908,0,0,0,1,0l7.1-4.1q.45-.3,0-.6l-6.1-3.5Zm6.6,36.5a1.387,1.387,0,0,0,.9,0l7.1-4.1c.2-.2.3-.4,0-.6l-6.1-3.5a.908.908,0,0,0-1,0l-7.1,4.1c-.2.2-.3.4,0,.6l6.2,3.5Zm52.6-5.4q-.45.3,0,.6l6.1,3.5a.908.908,0,0,0,1,0l7.1-4.1c.2-.2.3-.4,0-.6l-6.1-3.5a.908.908,0,0,0-1,0l-7.1,4.1Zm-13.5,4q-.45.3,0,.6l9.4,5.4a.908.908,0,0,0,1,0l7.1-4.1c.2-.2.3-.4,0-.6l-9.4-5.4a.908.908,0,0,0-1,0l-7.1,4.1ZM410,388.9q-.45.3,0,.6l7.5,4.4a.908.908,0,0,0,1,0l7.1-4.1c.2-.2.3-.4,0-.6l-7.5-4.4a.908.908,0,0,0-1,0l-7.1,4.1Zm1.3-7.4c.2-.2.3-.4,0-.6l-6.1-3.5a.908.908,0,0,0-1,0l-7.1,4.1q-.45.3,0,.6l6.1,3.5a.908.908,0,0,0,1,0Zm-38,24.4,11.8,6.8a.908.908,0,0,0,1,0l7.1-4.1c.2-.2.3-.4,0-.6l-11.8-6.8a.908.908,0,0,0-1,0l-7.1,4.1C373,405.4,373,405.7,373.3,405.9Zm-5.9,7.6c-.3.2-.3.4,0,.5l7.5,4.4a.908.908,0,0,0,1,0l7.1-4.1c.2-.2.3-.4,0-.6l-7.6-4.3a.908.908,0,0,0-1,0l-7,4.1Zm-22.7-70.4c.2-.2.3-.4,0-.6l-6.1-3.5a.908.908,0,0,0-1,0l-7.1,4.1c-.2.2-.3.4,0,.6l6.1,3.5a.908.908,0,0,0,1,0Zm18,10.3q.45-.3,0-.6l-6.2-3.5a.908.908,0,0,0-1,0l-7.1,4.1c-.2.2-.3.4,0,.6l6.1,3.5a.908.908,0,0,0,1,0Zm39.7,23c.2-.2.3-.4,0-.6l-6.1-3.5a.908.908,0,0,0-1,0l-7.1,4.1q-.45.3,0,.6l6.1,3.5a.908.908,0,0,0,1,0Zm-48.7-28.1c.2-.2.3-.4,0-.6l-6.1-3.5a.908.908,0,0,0-1,0l-7.1,4.1c-.2.2-.3.4,0,.6l6.1,3.5a.908.908,0,0,0,1,0Zm17.9,10.3q.45-.3,0-.6l-6.1-3.5a.908.908,0,0,0-1,0l-7.1,4.1c-.2.2-.3.4,0,.6l6.1,3.5a.908.908,0,0,0,1,0Zm-16.3,59.7c-.2.2-.3.4,0,.6l9.4,5.4a.908.908,0,0,0,1,0l7.1-4.1c.2-.2.3-.4,0-.6l-9.4-5.4a.908.908,0,0,0-1,0ZM384.5,366q.45-.3,0-.6l-6.1-3.5a.908.908,0,0,0-1,0l-7.1,4.1c-.2.2-.3.4,0,.6l6.1,3.5a.908.908,0,0,0,1,0Zm8.9,5.2c.2-.2.3-.4,0-.6l-6.1-3.5a.908.908,0,0,0-1,0l-7.1,4.1c-.2.2-.3.4,0,.6l6.1,3.5a.908.908,0,0,0,1,0ZM189.3,322.6q-.45.3,0,.6l15.1,8.7a.908.908,0,0,0,1,0l7.1-4.1c.2-.2.3-.4,0-.6l-15.1-8.7a.908.908,0,0,0-1,0ZM209.1,334c-.2.2-.3.4,0,.6l6.1,3.5a.908.908,0,0,0,1,0l7.1-4.1q.45-.3,0-.6l-6.1-3.5a.908.908,0,0,0-1,0Zm129.5,63,7.1-4.1c.2-.2.3-.4,0-.6l-6.1-3.5a.908.908,0,0,0-1,0l-7.1,4.1c-.2.2-.3.4,0,.6l6.1,3.5A1.167,1.167,0,0,0,338.6,397ZM227.1,344.3q-.45.3,0,.6l6.1,3.5a.908.908,0,0,0,1,0l7.1-4.1c.2-.2.3-.4,0-.6l-6.1-3.5a.908.908,0,0,0-1,0Zm-46.7-26.9q-.45.3,0,.6l6.1,3.5a.908.908,0,0,0,1,0l7.1-4.1c.2-.2.3-.4,0-.6l-6.1-3.5a.908.908,0,0,0-1,0Zm-9.1-4.6,6.1,3.5a.908.908,0,0,0,1,0l17.2-9.9q.45-.3,0-.6l-6.1-3.5a.908.908,0,0,0-1,0l-17.2,9.9A.375.375,0,0,0,171.3,312.8Zm89.3,50.9q-.45.3,0,.6l7.5,4.4a.908.908,0,0,0,1,0l7.1-4.1c.2-.2.3-.4,0-.6l-7.5-4.4a.908.908,0,0,0-1,0Zm-22.7-13.1c-.2.2-.3.4,0,.6l9.4,5.4a.908.908,0,0,0,1,0l7.1-4c.2-.2.3-.4,0-.6l-9.4-5.4a.908.908,0,0,0-1,0Zm43.4,25q-.45.3,0,.6l50.5,29.1a.908.908,0,0,0,1,0l7.1-4.1c.2-.2.3-.4,0-.6l-50.4-29a.908.908,0,0,0-1,0Zm53.3,30.7c-.2.2-.3.4,0,.6l7.5,4.4a.908.908,0,0,0,1,0l7.1-4.1c.2-.2.3-.4,0-.6l-7.5-4.3a.908.908,0,0,0-1,0Zm-63.7-36.6c-.2.2-.3.4,0,.6l7.5,4.4a.908.908,0,0,0,1,0l7.1-4.1q.45-.3,0-.6l-7.5-4.4a.908.908,0,0,0-1,0Zm74,42.7q-.45.3,0,.6l7.6,4.4a.908.908,0,0,0,1,0l7.1-4.1c.2-.2.3-.4,0-.6l-7.5-4.4a.908.908,0,0,0-1,0Zm-94.7-54.7c-.2.2-.3.4,0,.6l7.5,4.3a.908.908,0,0,0,1,0l7.1-4.1c.2-.2.3-.4,0-.6l-7.5-4.4a.908.908,0,0,0-1,0Zm-32.1-18.5c-.2.2-.3.4,0,.6l6.1,3.5a.908.908,0,0,0,1,0l7.1-4.1c.2-.2.3-.4,0-.6l-6.1-3.5a.908.908,0,0,0-1,0Zm-12.5-18.4a.908.908,0,0,0,1,0l7.1-4.1c.2-.2.3-.4,0-.6l-6.1-3.5a.908.908,0,0,0-1,0l-7.1,4.2q-.45.3,0,.6l6.1,3.4Zm40-.2a1.183,1.183,0,0,0,1,.1l7.1-4.1q.45-.3,0-.6l-6.1-3.5a.908.908,0,0,0-1,0l-7.1,4.1c-.2.2-.3.4,0,.6l6.1,3.4Zm20.3,35a1.183,1.183,0,0,0,1,.1l7.1-4.1c.2-.2.3-.4,0-.6l-17.9-10.3a.908.908,0,0,0-1,0l-7.1,4.1c-.2.2-.3.4,0,.6l17.9,10.2Zm-43.3-33.7c.2-.2.3-.4,0-.6l-6.1-3.5a.908.908,0,0,0-1,0l-7.1,4.1c-.2.2-.3.4,0,.6l6.1,3.5a.908.908,0,0,0,1,0Zm2-1.7a1.183,1.183,0,0,0,1,.1l7.1-4.1c.2-.2.3-.4,0-.6l-6.1-3.5a.908.908,0,0,0-1,0l-7.1,4.1q-.45.3,0,.6l6.1,3.4Zm50.3,40.7a1.167,1.167,0,0,0,1,0l7.1-4.1c.2-.2.3-.4,0-.6l-6.1-3.5a.908.908,0,0,0-1,0l-7.1,4.1c-.2.2-.3.4,0,.6l6.1,3.5Zm-32.5-27.6q.45-.3,0-.6l-6.1-3.5a.908.908,0,0,0-1,0l-7.1,4.1c-.2.2-.3.4,0,.6l6.1,3.5a.908.908,0,0,0,1,0Zm77.3,53.3a1.079,1.079,0,0,0,1.1,0l7.1-4.1c.2-.2.3-.4,0-.6l-6.1-3.5a.908.908,0,0,0-1,0l-7.1,4.1c-.2.2-.3.4,0,.6l6,3.5Zm-9-5.1a.908.908,0,0,0,1,0l7.1-4.1c.2-.2.3-.4,0-.6l-6.1-3.5a.908.908,0,0,0-1,0l-7.1,4.1q-.45.3,0,.6l6.1,3.5Zm18,10.3a.908.908,0,0,0,1,0l7.1-4.1c.2-.2.3-.4,0-.6l-6.1-3.5a.908.908,0,0,0-1,0l-7.1,4.1c-.2.2-.3.4,0,.6l6.1,3.5Zm-35-20.7,7.1-4.1q.45-.3,0-.6l-6.1-3.5a.908.908,0,0,0-1,0l-7.1,4.1c-.2.2-.3.4,0,.6l6.1,3.5A.9.9,0,0,0,293.7,371.1Zm8.1,5.2a1.387,1.387,0,0,0,.9,0l7.1-4.1c.2-.2.3-.4,0-.6l-6.1-3.5a.908.908,0,0,0-1,0l-7.1,4.1c-.2.2-.3.4,0,.6l6.2,3.5Zm-17-10.3,7.1-4.1c.2-.2.3-.4,0-.6l-6.1-3.5a.908.908,0,0,0-1,0l-7.1,4.1c-.2.2-.3.4,0,.6l6.1,3.5A1.7,1.7,0,0,0,284.8,366Zm-40-77.6c.2-.2.3-.4,0-.6l-6.1-3.5a.908.908,0,0,0-1,0l-1.9,1.1c-.2.2-.3.4,0,.6l6.1,3.5a.908.908,0,0,0,1,0ZM294,313.9c.2-.2.3-.4,0-.6l-6.1-3.6a.908.908,0,0,0-1,0l-7.1,4.1q-.45.3,0,.6l6.1,3.5a.908.908,0,0,0,1,0Zm-17.9-10.4c.2-.2.3-.4,0-.6l-6.1-3.5a.908.908,0,0,0-1,0l-7.1,4.1c-.2.2-.3.4,0,.6l6.1,3.5a.908.908,0,0,0,1,0ZM305,320.2c.2-.2.3-.4,0-.6l-6.1-3.5a.908.908,0,0,0-1,0l-7.1,4.1q-.45.3,0,.6l6.1,3.5a.908.908,0,0,0,1,0Zm-19.8-11.5c.2-.2.3-.4,0-.6l-6.2-3.5a.908.908,0,0,0-1,0l-7.1,4.1q-.45.3,0,.6l6.1,3.5a.908.908,0,0,0,1,0Zm37.7,21.8c.2-.2.3-.4,0-.6l-6.1-3.5a.908.908,0,0,0-1,0l-7.1,4.1c-.2.2-.3.4,0,.6l6.1,3.5a.908.908,0,0,0,1,0Zm-9-5.1c.2-.2.3-.4,0-.6l-6.1-3.5a.908.908,0,0,0-1,0l-7.1,4.1c-.2.2-.3.4,0,.6l6.1,3.5a.908.908,0,0,0,1,0Zm-51.2-26.6q.45-.3,0-.6l-6.1-3.5a.908.908,0,0,0-1,0l-1.9,1.1q-.45.3,0,.6l6.1,3.5a.908.908,0,0,0,1,0Zm-26.9-15.5c.2-.2.3-.4,0-.6l-6.1-3.5a.908.908,0,0,0-1,0l-1.9,1.1c-.2.2-.3.4,0,.6l6.1,3.5a.908.908,0,0,0,1,0Zm-9.6,5.6q.45-.3,0-.6l-6.1-3.5a.908.908,0,0,0-1,0l-7.2,4.1c-.2.2-.3.4,0,.6L218,293a.908.908,0,0,0,1,0Zm-28.6,26.8,7.1-4.1c.2-.2.3-.4,0-.6l-6.1-3.5a.908.908,0,0,0-1,0l-7.1,4.1q-.45.3,0,.6l6.1,3.5A1.7,1.7,0,0,0,197.6,315.7Zm56.1-22.1c.2-.2.3-.4,0-.6l-6.1-3.5a.908.908,0,0,0-1,0l-1.9,1.1c-.2.2-.3.4,0,.6l6.1,3.5a.908.908,0,0,0,1,0Zm78.2,42.1c.2-.2.3-.4,0-.6l-6.1-3.5a.908.908,0,0,0-1,0l-7.1,4.1c-.2.2-.3.4,0,.6l6.1,3.5a.908.908,0,0,0,1,0Z"/><path class="k" d="M247,419.2l-67.1-38.7,41.3-23.8,67.1,38.7Z"/><path class="d" d="M466.8,201.3V353.4c0,2.1-1.5,2.9-3.3,1.9L219.4,215.1a7.409,7.409,0,0,1-3.3-5.7V54.7c0-4.5,3.2-6.4,7.1-4.1L462.2,188C464.9,189.7,466.6,198.1,466.8,201.3Z"/><path class="k" d="M466.8,202.5v-6.6a10.26,10.26,0,0,0-4.6-7.9L223.2,50.6c-3.9-2.2-7.1-.4-7.1,4.1v3.7Z"/><path class="h" d="M243.4,68.3a5.242,5.242,0,0,0,2.5,4.2,1.514,1.514,0,0,0,2.5-1.4,5.4,5.4,0,0,0-2.4-4.2C244.5,66.1,243.4,66.7,243.4,68.3Z"/><path class="h" d="M233.7,62.6a5.571,5.571,0,0,0,2.5,4.3c1.4.8,2.5.2,2.5-1.4a5.242,5.242,0,0,0-2.5-4.2C234.8,60.5,233.7,61.1,233.7,62.6Z"/><path class="h" d="M224,57.1a5.4,5.4,0,0,0,2.4,4.2c1.4.8,2.5.2,2.5-1.4a5.242,5.242,0,0,0-2.5-4.2C225.1,54.9,224,55.5,224,57.1Z"/><path class="i" d="M216.1,58.4V88.2L466.8,232.3V202.5Z"/><path class="e" d="M216.1,58.4V88.2L466.8,232.3V202.5Z"/><path class="h" d="M334,246.7V288c0,1.8-1.2,2.5-2.8,1.6L189.4,207.8a6.109,6.109,0,0,1-2.7-4.8V161.7c0-1.8,1.2-2.5,2.7-1.6L331.3,242A5.927,5.927,0,0,1,334,246.7Z"/><path class="e" d="M186.7,164.6,334,249.5v-2.8a6.1,6.1,0,0,0-2.8-4.8L189.4,160.1c-1.5-.9-2.7-.2-2.7,1.6v2.9Z"/><path class="d" d="M296.8,234.7V263a4.886,4.886,0,0,0,2.2,3.8l28.6,16.5c1.2.7,2.2.1,2.2-1.3V253.7a4.887,4.887,0,0,0-2.2-3.8L299,233.4C297.8,232.7,296.8,233.3,296.8,234.7Z"/><path class="b" d="M319.1,257.4a1.489,1.489,0,0,0-2,.6l-4.1,5.2-8.5-20c-.5-1.3-1.5-1.4-2.2-.1l-5.4,10.2v9.8a4.886,4.886,0,0,0,2.2,3.8l28.6,16.5c1.2.7,2.2.1,2.2-1.3v-2.2l-10.1-21.6A1.6,1.6,0,0,0,319.1,257.4Z"/><path class="b" d="M329.9,258.5v-4.7a4.887,4.887,0,0,0-2.2-3.8l-5.3-3.1a3.675,3.675,0,0,0-.7,2.5,11,11,0,0,0,4.9,8.6A3.532,3.532,0,0,0,329.9,258.5Z"/><path class="d" d="M286.1,230.8c0,1.3-.9,1.8-2.2,1.1l-88.5-51a4.532,4.532,0,0,1-2.2-3.6c0-1.3.9-1.8,2.2-1.1l88.5,51A4.532,4.532,0,0,1,286.1,230.8Z"/><path class="d" d="M286.1,242.7c0,1.3-.9,1.8-2.2,1.1l-88.5-51a4.532,4.532,0,0,1-2.2-3.6c0-1.3.9-1.8,2.2-1.1l88.5,51A4.532,4.532,0,0,1,286.1,242.7Z"/><path class="d" d="M286.1,254.6c0,1.3-.9,1.8-2.2,1.1l-88.5-51.1a4.532,4.532,0,0,1-2.2-3.6c0-1.3.9-1.8,2.2-1.1l88.5,51A4.866,4.866,0,0,1,286.1,254.6Z"/><path class="n" d="M165.3,114.6s13.2-.9,16.7-1.1a4.175,4.175,0,0,0,3.2-1.6c1.3-1.4,14.8-15.8,14.7-16.3s-5-8.2-5-8.2-13.6,15.4-14.5,16.1l-13,.4Z"/><path class="b" d="M146.8,104.3l20.6-.4,1.6,13.4-20,1.5Z"/><path class="c" d="M146.8,104.3l20.6-.5,1.6,13.5-20,1.5Z"/><path class="h" d="M336.6,167.7V209c0,1.8-1.2,2.5-2.8,1.6L192,128.8a6.109,6.109,0,0,1-2.7-4.8V82.8c0-1.8,1.2-2.5,2.7-1.6L333.8,163A6.031,6.031,0,0,1,336.6,167.7Z"/><path class="e" d="M189.3,85.5l147.3,84.9v-2.8a6.1,6.1,0,0,0-2.8-4.8L192,81.2c-1.5-.9-2.7-.2-2.7,1.6Z"/><path class="d" d="M299.4,155.7V184a4.887,4.887,0,0,0,2.2,3.8l28.6,16.5c1.2.7,2.2.1,2.2-1.3V174.7a4.887,4.887,0,0,0-2.2-3.8l-28.6-16.5C300.4,153.7,299.4,154.2,299.4,155.7Z"/><path class="b" d="M321.7,178.5a1.456,1.456,0,0,0-2,.5l-4.1,5.2-8.5-20c-.5-1.3-1.5-1.4-2.2-.1l-5.4,10.2v9.8a4.887,4.887,0,0,0,2.2,3.8l28.6,16.5c1.2.7,2.2.1,2.2-1.3v-2.2l-10.2-21.5A1.225,1.225,0,0,0,321.7,178.5Z"/><path class="b" d="M332.4,179.4v-4.7a4.887,4.887,0,0,0-2.2-3.8l-5.3-3.1a3.675,3.675,0,0,0-.7,2.5,11,11,0,0,0,4.9,8.6A3.315,3.315,0,0,0,332.4,179.4Z"/><path class="d" d="M288.7,151.8c0,1.3-1,1.8-2.2,1.1l-88.5-51a4.532,4.532,0,0,1-2.2-3.6c0-1.3.9-1.8,2.2-1.1l88.5,51A4.9,4.9,0,0,1,288.7,151.8Z"/><path class="d" d="M288.7,163.7c0,1.3-1,1.8-2.2,1.1l-88.5-51a4.532,4.532,0,0,1-2.2-3.6c0-1.3.9-1.8,2.2-1.1l88.5,51A5.1,5.1,0,0,1,288.7,163.7Z"/><path class="d" d="M288.7,175.6c0,1.3-1,1.8-2.2,1.1l-88.5-51a4.532,4.532,0,0,1-2.2-3.6c0-1.3.9-1.8,2.2-1.1l88.5,51A5.1,5.1,0,0,1,288.7,175.6Z"/><rect class="o" width="7.5" height="10.9" transform="translate(123.4 260.8)"/><rect class="o" width="10.9" height="7.5" transform="matrix(0.034, -0.999, 0.999, 0.034, 149.432, 258.103)"/><path class="l" d="M159,154.2s6.1,46.8,5.3,51.3-6.9,46.1-6.9,46.1a8.279,8.279,0,0,1-8.2-.3s-1.5-28.5-1.3-33.4a105.014,105.014,0,0,1,1.5-11.9l-6.9-29.6s-2,25.2-3.2,34.5c-1.3,10.6-8.1,51.2-8.1,51.2-5,3.5-8.5,0-8.5,0s-.9-29.9-1.5-40.6c-.4-7.9,1.5-11.7,1.7-13.8,0,0,.9-46.3.9-53.4H159Z"/><path class="b" d="M146.8,104.3c9,.5,12.2,7.5,12.2,13.4v36.6c-11.5,8.4-29.8,5.7-35.1,0V119.2a14.979,14.979,0,0,1,11.2-14.5h.1Z"/><path class="k" d="M133.7,86.8l-4.4-.5c-1.1-6.2-1.4-8.9,0-10.3a4.138,4.138,0,0,1,3.3-1.2Z"/><path class="k" d="M155.6,74.5s1.3,3.2,1.3,3.4a6.41,6.41,0,0,0,5.1-3.4c.7-1.3.4-2.9-1-2.1a6.71,6.71,0,0,1-2.8.6Z"/><path class="o" d="M138.5,72.2c6.2-3.9,16.5-3.6,18.8,6,2.1,8.9-.3,14.2-1.7,17.2-1.3,2.7-3.2,5-4.1,5.2a15.494,15.494,0,0,1-4.8-.2v3.9c2.1,2.6,3.4,7.8-2.9,6.9a11.711,11.711,0,0,1-8.7-6.5L134.6,94a3.166,3.166,0,0,1-3.7-.3c-1.8-1.2-4.8-5-3.5-7.8a3.592,3.592,0,0,1,.7-1,2.842,2.842,0,0,1,4,.3c.8.8,1.7,2.1,2.4,1.7C134.7,86.8,132.4,76,138.5,72.2Z"/><path class="k" d="M136.9,80.3c.6-3.2.9-4.4,2.1-4.2a64.076,64.076,0,0,0,11.6.2c4.2-.5,5.4-1.6,5.4-1.6l2.2-.8c2.7-3,2.5-7.5,1.9-9.5-.5-2-.9-1.7-5.4.2a29.264,29.264,0,0,1-11.3,2.3c-3.2.1-7.5-.3-9.7,2s-1.1,5.8-1.1,5.8-1.5,9.3-.3,10.3c.8.7,2.1,2.8,2.4,2.8C135.8,87.8,136.3,83.1,136.9,80.3Z"/><path class="k" d="M131.7,72.5c0-.1-.1-.1,0,0a2.16,2.16,0,0,0-3,1l3.9,2.1A2.266,2.266,0,0,0,131.7,72.5Z"/><path class="n" d="M146.7,102s-7.6-1.4-9.1-3.3a10.11,10.11,0,0,1-1.6-3.3,6.319,6.319,0,0,0,2.8,2.8,54.851,54.851,0,0,0,7.9,2.3Z"/><path class="k" d="M145.3,85.3a1.155,1.155,0,0,0-1.2-1.2,1.278,1.278,0,0,0-1.2,1.1,1.221,1.221,0,0,0,1.1,1.3c.7-.1,1.3-.5,1.3-1.2Z"/><path class="k" d="M144,80.8a1.342,1.342,0,0,0-1.9-.5,1.489,1.489,0,0,0-.6,2l2.5-1.4C144.1,80.8,144.1,80.8,144,80.8Z"/><path class="n" d="M146.1,95.1h0a1.378,1.378,0,0,0,1.8-.9l-2.7-1A1.626,1.626,0,0,0,146.1,95.1Z"/><path class="k" d="M155.5,79.8h0a1.429,1.429,0,0,0-2,.3l2.3,1.8A1.552,1.552,0,0,0,155.5,79.8Z"/><path class="k" d="M155.1,84.9a1.3,1.3,0,1,0-1.2,1.4h.1a1.32,1.32,0,0,0,1.1-1.4Z"/><path class="n" d="M153.2,89.7l-3.7,1.2-.4-7Z"/><path class="k" d="M127.1,269a5.405,5.405,0,0,1-3.7-1.3v-.8c-.5-.1-.8,1.4-1.2,2.7a8.694,8.694,0,0,0-.4,3.9c.5,1.4,2.6,2.8,3.5,4s1.4,3.7,2.5,5.4,5.6,3.5,8.1,3.9c2.2.4,7.5-1.1,6.7-3.5s-4-4.9-6.4-7c-3-2.7-4.6-9.1-5.4-9.4V268C130.9,268.8,128.2,269,127.1,269Z"/><path class="k" d="M157,257.3c-2,1-6.6.4-7.5-.9v-.7c-.7-.2-1.4,3.1-1.9,5.2-.4,1.9-1.1,4.2.5,5.2,1.5,1.1,5.4,1.1,7.5,1s5.3,2.2,7.9,2.8c4.6,1,8.5.3,10.1-.8s1.7-2.9.1-3.6c-2.5-1.1-7.9-3.3-10.7-4.7a17.1,17.1,0,0,1-4.4-3.2c-.9-.9-1.2-1.5-1.6-1.5Z"/><path class="o" d="M129.3,123.2s18.3,15.9,20.7,18.3c2.5,2.4,4.1,2.5,6.4,2,4.2-1,26.2-7.8,29.3-8.6,3.9-1,7.6-.1,14.1-1.9,4.6-1.3,7.2-5,5.2-6.5-2.6-1.8-4.8-.5-11.1-1.8-1.8-.4-3.8-.6-4-1.8a30.671,30.671,0,0,1-.5-4.7,4.656,4.656,0,0,0-1.7,3.3c-.5,2.5-2,5.7-4.2,6.3-6.9,2-27.3,5.6-27.3,5.6L133,109.5Z"/><path class="p" d="M128.4,123.5c2,2.9,13,10.2,13,10.2l8.5-7.2s-15.5-18.4-18-17.8C124.2,110.6,126.4,120.6,128.4,123.5Z"/><path class="b" d="M141.4,133.7l.8.7-1.4,1.3-1.4-1.3c-1.4-1.3-10.3-9.1-11.6-11.8s0-6.3,0-6.3-.3,4.1.8,6.3c.5,1.1,12.2,11.6,12.2,11.6Z"/><path class="c" d="M141.4,133.7l.8.7-1.4,1.3-1.4-1.3c-1.4-1.3-10.3-9.1-11.6-11.8s0-6.3,0-6.3-.3,4.1.8,6.3c.5,1.1,12.2,11.6,12.2,11.6Z"/><path class="n" d="M206.9,89.4c.2,4.2-1.1,10.6-6,6.6-1.7-1.3-1.6-5.2-1.8-7.1a26.621,26.621,0,0,0-.7-3.9,17.928,17.928,0,0,1-3.8-2.2,1.374,1.374,0,0,1,.1-1.8c.6-.5,2.3,1.4,4.8,1.6C202.1,82.8,206.6,84.1,206.9,89.4Z"/><path class="q" d="M358.8,187l102.4,56.3-2.8,108.5L337.1,286.4Z"/><path class="m" d="M282.1,349.9h0l109.7,60,.4-.3c31.2-25.8,51.3-61.3,56.5-100l8.3-61.8-109.7-60-8.1,61.3C334.1,288.2,313.8,324.1,282.1,349.9Z"/><path class="j" d="M453.1,250.5c0,.8-.6,1.2-1.4.7a2.965,2.965,0,0,1-1.4-2.2c0-.8.6-1.1,1.4-.7A2.506,2.506,0,0,1,453.1,250.5Z"/><path class="i" d="M450.4,246.5a5.663,5.663,0,0,0,.3,1.8,2.909,2.909,0,0,0,1.4,1.7,1.929,1.929,0,0,0,1,.3,3.583,3.583,0,0,0-.4-1.1h-.1a2.047,2.047,0,0,1-.8-.8,3.922,3.922,0,0,1-.4-1.8,9.863,9.863,0,0,1,4.8-7.7,3.308,3.308,0,0,1,3-.3,2.651,2.651,0,0,1,1.2,2.6,5.852,5.852,0,0,1-.2,1.3l.9.5a11.267,11.267,0,0,0,.3-1.8,3.616,3.616,0,0,0-1.7-3.4,4.151,4.151,0,0,0-4,.3A10.417,10.417,0,0,0,450.4,246.5Z"/><path class="j" d="M446.5,246.9c0,.8-.6,1.2-1.4.7a2.965,2.965,0,0,1-1.4-2.2c0-.8.6-1.2,1.4-.7A2.8,2.8,0,0,1,446.5,246.9Z"/><path class="i" d="M443.8,242.9a5.663,5.663,0,0,0,.3,1.8,2.909,2.909,0,0,0,1.4,1.7,1.929,1.929,0,0,0,1,.3,3.583,3.583,0,0,0-.4-1.1H446a2.047,2.047,0,0,1-.8-.8,3.922,3.922,0,0,1-.4-1.8,9.863,9.863,0,0,1,4.8-7.7,3.308,3.308,0,0,1,3-.3,2.651,2.651,0,0,1,1.2,2.6,5.852,5.852,0,0,1-.2,1.3l.9.5a11.267,11.267,0,0,0,.3-1.8,3.616,3.616,0,0,0-1.7-3.4,4.151,4.151,0,0,0-4,.3A10.057,10.057,0,0,0,443.8,242.9Z"/><path class="j" d="M439.8,243.2c0,.8-.6,1.2-1.4.7a2.965,2.965,0,0,1-1.4-2.2c0-.8.6-1.1,1.4-.7A2.506,2.506,0,0,1,439.8,243.2Z"/><path class="i" d="M437.1,239.2a5.663,5.663,0,0,0,.3,1.8,2.909,2.909,0,0,0,1.4,1.7,1.929,1.929,0,0,0,1,.3,3.583,3.583,0,0,0-.4-1.1h-.1a2.047,2.047,0,0,1-.8-.8,3.922,3.922,0,0,1-.4-1.8,9.863,9.863,0,0,1,4.8-7.7,3.308,3.308,0,0,1,3-.3,2.651,2.651,0,0,1,1.2,2.6,5.852,5.852,0,0,1-.2,1.3l.9.5a11.267,11.267,0,0,0,.3-1.8,3.616,3.616,0,0,0-1.7-3.4,4.151,4.151,0,0,0-4,.3A10.417,10.417,0,0,0,437.1,239.2Z"/><path class="j" d="M433.2,239.6c0,.8-.6,1.2-1.4.7a2.965,2.965,0,0,1-1.4-2.2c0-.8.6-1.2,1.4-.7A2.8,2.8,0,0,1,433.2,239.6Z"/><path class="i" d="M430.4,235.5a5.663,5.663,0,0,0,.3,1.8,2.909,2.909,0,0,0,1.4,1.7,1.929,1.929,0,0,0,1,.3,3.583,3.583,0,0,0-.4-1.1h-.1a2.047,2.047,0,0,1-.8-.8,3.922,3.922,0,0,1-.4-1.8,9.693,9.693,0,0,1,4.8-7.6,3.308,3.308,0,0,1,3-.3,2.651,2.651,0,0,1,1.2,2.6,5.852,5.852,0,0,1-.2,1.3l.9.5a11.267,11.267,0,0,0,.3-1.8,3.616,3.616,0,0,0-1.7-3.4,4.151,4.151,0,0,0-4,.3A10.485,10.485,0,0,0,430.4,235.5Z"/><path class="j" d="M426.5,235.9c0,.8-.6,1.2-1.4.7a2.965,2.965,0,0,1-1.4-2.2c0-.8.6-1.1,1.4-.7A2.506,2.506,0,0,1,426.5,235.9Z"/><path class="i" d="M423.8,231.9a5.663,5.663,0,0,0,.3,1.8,2.909,2.909,0,0,0,1.4,1.7,1.929,1.929,0,0,0,1,.3,3.583,3.583,0,0,0-.4-1.1H426a2.047,2.047,0,0,1-.8-.8,3.922,3.922,0,0,1-.4-1.8,9.863,9.863,0,0,1,4.8-7.7,3.319,3.319,0,0,1,3-.3,2.651,2.651,0,0,1,1.2,2.6,5.7,5.7,0,0,1-.1,1.3l.9.5a11.267,11.267,0,0,0,.3-1.8,3.616,3.616,0,0,0-1.7-3.4,4.151,4.151,0,0,0-4,.3A10.217,10.217,0,0,0,423.8,231.9Z"/><path class="j" d="M419.8,232.3c0,.8-.6,1.2-1.4.7a2.965,2.965,0,0,1-1.4-2.2c0-.8.6-1.2,1.4-.7A2.4,2.4,0,0,1,419.8,232.3Z"/><path class="i" d="M417.1,228.3a5.663,5.663,0,0,0,.3,1.8,2.909,2.909,0,0,0,1.4,1.7,1.929,1.929,0,0,0,1,.3,3.583,3.583,0,0,0-.4-1.1h-.1a2.047,2.047,0,0,1-.8-.8,3.922,3.922,0,0,1-.4-1.8,9.863,9.863,0,0,1,4.8-7.7,3.319,3.319,0,0,1,3-.3,2.651,2.651,0,0,1,1.2,2.6,5.7,5.7,0,0,1-.1,1.3l.9.5a11.267,11.267,0,0,0,.3-1.8,3.616,3.616,0,0,0-1.7-3.4,4.151,4.151,0,0,0-4,.3A10.3,10.3,0,0,0,417.1,228.3Z"/><path class="j" d="M413.2,228.6c0,.8-.6,1.2-1.4.7a2.965,2.965,0,0,1-1.4-2.2c0-.8.6-1.1,1.4-.7A2.965,2.965,0,0,1,413.2,228.6Z"/><path class="i" d="M410.4,224.6a5.663,5.663,0,0,0,.3,1.8,2.909,2.909,0,0,0,1.4,1.7,1.929,1.929,0,0,0,1,.3,3.583,3.583,0,0,0-.4-1.1h-.1a2.047,2.047,0,0,1-.8-.8,3.922,3.922,0,0,1-.4-1.8,9.863,9.863,0,0,1,4.8-7.7,3.319,3.319,0,0,1,3-.3,2.651,2.651,0,0,1,1.2,2.6c0,.4-.1.9-.1,1.3l.9.5a11.267,11.267,0,0,0,.3-1.8,3.616,3.616,0,0,0-1.7-3.4,4.151,4.151,0,0,0-4,.3A10.441,10.441,0,0,0,410.4,224.6Z"/><path class="j" d="M406.5,225c0,.8-.6,1.2-1.4.7a2.965,2.965,0,0,1-1.4-2.2c0-.8.6-1.2,1.4-.7A2.58,2.58,0,0,1,406.5,225Z"/><path class="i" d="M403.8,221a5.663,5.663,0,0,0,.3,1.8,2.909,2.909,0,0,0,1.4,1.7,1.929,1.929,0,0,0,1,.3,3.583,3.583,0,0,0-.4-1.1H406a2.047,2.047,0,0,1-.8-.8,3.922,3.922,0,0,1-.4-1.8,9.863,9.863,0,0,1,4.8-7.7,3.319,3.319,0,0,1,3-.3,2.651,2.651,0,0,1,1.2,2.6c0,.4-.1.9-.1,1.3l.9.5a11.267,11.267,0,0,0,.3-1.8,3.616,3.616,0,0,0-1.7-3.4,4.152,4.152,0,0,0-4,.3A10.083,10.083,0,0,0,403.8,221Z"/><path class="j" d="M399.8,221.3c0,.8-.6,1.2-1.4.7a2.965,2.965,0,0,1-1.4-2.2c0-.8.6-1.1,1.4-.7A2.506,2.506,0,0,1,399.8,221.3Z"/><path class="i" d="M397.1,217.3a5.663,5.663,0,0,0,.3,1.8,2.909,2.909,0,0,0,1.4,1.7,1.929,1.929,0,0,0,1,.3,3.583,3.583,0,0,0-.4-1.1h-.1a2.047,2.047,0,0,1-.8-.8,3.922,3.922,0,0,1-.4-1.8,9.863,9.863,0,0,1,4.8-7.7,3.319,3.319,0,0,1,3-.3,2.845,2.845,0,0,1,1.2,2.6c0,.4-.1.9-.1,1.3l.9.5a11.267,11.267,0,0,0,.3-1.8,3.616,3.616,0,0,0-1.7-3.4,4.152,4.152,0,0,0-4,.3A10.441,10.441,0,0,0,397.1,217.3Z"/><path class="j" d="M393.2,217.7c0,.8-.6,1.2-1.4.7a2.965,2.965,0,0,1-1.4-2.2c0-.8.6-1.2,1.4-.7A2.8,2.8,0,0,1,393.2,217.7Z"/><path class="i" d="M390.4,213.7a5.663,5.663,0,0,0,.3,1.8,2.909,2.909,0,0,0,1.4,1.7,1.929,1.929,0,0,0,1,.3,3.583,3.583,0,0,0-.4-1.1h-.1a2.047,2.047,0,0,1-.8-.8,3.922,3.922,0,0,1-.4-1.8,9.693,9.693,0,0,1,4.8-7.6,3.319,3.319,0,0,1,3-.3,2.651,2.651,0,0,1,1.2,2.6c0,.4-.1.9-.1,1.3l.9.5a11.267,11.267,0,0,0,.3-1.8,3.616,3.616,0,0,0-1.7-3.4,4.151,4.151,0,0,0-4,.3A10.217,10.217,0,0,0,390.4,213.7Z"/><path class="j" d="M386.5,214c0,.8-.6,1.2-1.4.7a2.965,2.965,0,0,1-1.4-2.2c0-.8.6-1.1,1.4-.7A2.506,2.506,0,0,1,386.5,214Z"/><path class="i" d="M383.8,210a5.663,5.663,0,0,0,.3,1.8,2.909,2.909,0,0,0,1.4,1.7,1.929,1.929,0,0,0,1,.3,3.583,3.583,0,0,0-.4-1.1H386a2.047,2.047,0,0,1-.8-.8,3.922,3.922,0,0,1-.4-1.8,9.863,9.863,0,0,1,4.8-7.7,3.319,3.319,0,0,1,3-.3,2.845,2.845,0,0,1,1.2,2.6c0,.4-.1.9-.1,1.3l.9.5a11.267,11.267,0,0,0,.3-1.8,3.616,3.616,0,0,0-1.7-3.4,4.151,4.151,0,0,0-4,.3A10.441,10.441,0,0,0,383.8,210Z"/><path class="j" d="M379.9,210.4c0,.8-.6,1.1-1.4.7a2.965,2.965,0,0,1-1.4-2.2c0-.8.6-1.2,1.4-.7A2.8,2.8,0,0,1,379.9,210.4Z"/><path class="i" d="M377.1,206.4a5.663,5.663,0,0,0,.3,1.8,2.909,2.909,0,0,0,1.4,1.7,1.929,1.929,0,0,0,1,.3,3.583,3.583,0,0,0-.4-1.1h-.1a2.047,2.047,0,0,1-.8-.8,3.922,3.922,0,0,1-.4-1.8,9.863,9.863,0,0,1,4.8-7.7,3.319,3.319,0,0,1,3-.3,2.845,2.845,0,0,1,1.2,2.6c0,.4-.1.9-.1,1.3l.9.5a11.267,11.267,0,0,0,.3-1.8,3.616,3.616,0,0,0-1.7-3.4,4.151,4.151,0,0,0-4,.3A10.3,10.3,0,0,0,377.1,206.4Z"/><path class="j" d="M373.2,206.7c0,.8-.6,1.2-1.4.7a2.965,2.965,0,0,1-1.4-2.2c0-.8.6-1.2,1.4-.7A2.965,2.965,0,0,1,373.2,206.7Z"/><path class="i" d="M370.5,202.7a5.663,5.663,0,0,0,.3,1.8,2.909,2.909,0,0,0,1.4,1.7,1.929,1.929,0,0,0,1,.3,3.583,3.583,0,0,0-.4-1.1h-.1a2.047,2.047,0,0,1-.8-.8,3.922,3.922,0,0,1-.4-1.8,9.863,9.863,0,0,1,4.8-7.7c1.2-.6,2.3-.8,3-.3a2.966,2.966,0,0,1,1.2,2.6c0,.4-.1.9-.1,1.3l.9.5a5.537,5.537,0,0,0,.2-1.8,3.616,3.616,0,0,0-1.7-3.4,4.151,4.151,0,0,0-4,.3A10.33,10.33,0,0,0,370.5,202.7Z"/><path class="j" d="M366.5,203.1c0,.8-.6,1.1-1.4.7a2.965,2.965,0,0,1-1.4-2.2c0-.8.6-1.2,1.4-.7A2.506,2.506,0,0,1,366.5,203.1Z"/><path class="i" d="M363.8,199.1a5.663,5.663,0,0,0,.3,1.8,2.909,2.909,0,0,0,1.4,1.7,1.929,1.929,0,0,0,1,.3,3.583,3.583,0,0,0-.4-1.1H366a2.047,2.047,0,0,1-.8-.8,3.922,3.922,0,0,1-.4-1.8,9.863,9.863,0,0,1,4.8-7.7,3.319,3.319,0,0,1,3-.3,2.845,2.845,0,0,1,1.2,2.6,5.852,5.852,0,0,1-.2,1.3l.9.5a5.537,5.537,0,0,0,.2-1.8,3.616,3.616,0,0,0-1.7-3.4,4.151,4.151,0,0,0-4,.3A10.7,10.7,0,0,0,363.8,199.1Z"/><path class="j" d="M359.9,199.5c0,.8-.6,1.2-1.4.7a2.965,2.965,0,0,1-1.4-2.2c0-.8.6-1.2,1.4-.7A2.652,2.652,0,0,1,359.9,199.5Z"/><path class="i" d="M357.1,195.5a5.663,5.663,0,0,0,.3,1.8,2.909,2.909,0,0,0,1.4,1.7,1.929,1.929,0,0,0,1,.3,3.583,3.583,0,0,0-.4-1.1h-.1a2.047,2.047,0,0,1-.8-.8,3.922,3.922,0,0,1-.4-1.8,9.863,9.863,0,0,1,4.8-7.7c1.2-.6,2.3-.8,3-.3a2.966,2.966,0,0,1,1.2,2.6,5.852,5.852,0,0,1-.2,1.3l.9.5a5.537,5.537,0,0,0,.2-1.8,3.616,3.616,0,0,0-1.7-3.4,4.151,4.151,0,0,0-4,.3A10.4,10.4,0,0,0,357.1,195.5Z"/><path class="j" d="M353.2,195.8c0,.8-.6,1.1-1.4.7a2.965,2.965,0,0,1-1.4-2.2c0-.8.6-1.2,1.4-.7A2.713,2.713,0,0,1,353.2,195.8Z"/><path class="i" d="M350.5,191.8a5.663,5.663,0,0,0,.3,1.8,2.909,2.909,0,0,0,1.4,1.7,1.929,1.929,0,0,0,1,.3,3.583,3.583,0,0,0-.4-1.1h-.1a2.047,2.047,0,0,1-.8-.8,3.922,3.922,0,0,1-.4-1.8,9.863,9.863,0,0,1,4.8-7.7,3.319,3.319,0,0,1,3-.3,2.845,2.845,0,0,1,1.2,2.6,5.852,5.852,0,0,1-.2,1.3l.9.5a11.267,11.267,0,0,0,.3-1.8,3.616,3.616,0,0,0-1.7-3.4,4.151,4.151,0,0,0-4,.3A10.33,10.33,0,0,0,350.5,191.8Z"/><path class="r" d="M350.5,191.9a5.663,5.663,0,0,0,.3,1.8,2.909,2.909,0,0,0,1.4,1.7,1.929,1.929,0,0,0,1,.3,3.583,3.583,0,0,0-.4-1.1h-.1a2.047,2.047,0,0,1-.8-.8,3.922,3.922,0,0,1-.4-1.8,9.863,9.863,0,0,1,4.8-7.7,3.319,3.319,0,0,1,3-.3,2.651,2.651,0,0,1,1.2,2.6,5.852,5.852,0,0,1-.2,1.3l.5.3a10.815,10.815,0,0,0-3.7,7.4,5.663,5.663,0,0,0,.3,1.8,2.909,2.909,0,0,0,1.4,1.7,1.929,1.929,0,0,0,1,.3,3.583,3.583,0,0,0-.4-1.1h-.1a2.047,2.047,0,0,1-.8-.8,3.922,3.922,0,0,1-.4-1.8,9.863,9.863,0,0,1,4.8-7.7c1.2-.6,2.3-.8,3-.3a2.966,2.966,0,0,1,1.2,2.6,5.852,5.852,0,0,1-.2,1.3l.5.3a10.815,10.815,0,0,0-3.7,7.4,5.663,5.663,0,0,0,.3,1.8,2.909,2.909,0,0,0,1.4,1.7,1.929,1.929,0,0,0,1,.3,3.583,3.583,0,0,0-.4-1.1h-.1a2.047,2.047,0,0,1-.8-.8,3.922,3.922,0,0,1-.4-1.8,9.863,9.863,0,0,1,4.8-7.7,3.319,3.319,0,0,1,3-.3,2.845,2.845,0,0,1,1.2,2.6,5.852,5.852,0,0,1-.2,1.3l.5.3a10.815,10.815,0,0,0-3.7,7.4,5.663,5.663,0,0,0,.3,1.8,2.909,2.909,0,0,0,1.4,1.7,1.929,1.929,0,0,0,1,.3,3.583,3.583,0,0,0-.4-1.1h-.1a2.047,2.047,0,0,1-.8-.8,3.922,3.922,0,0,1-.4-1.8,9.863,9.863,0,0,1,4.8-7.7c1.2-.6,2.3-.8,3-.3a2.966,2.966,0,0,1,1.2,2.6c0,.4-.1.9-.1,1.3l.5.3a10.815,10.815,0,0,0-3.7,7.4,5.663,5.663,0,0,0,.3,1.8,2.909,2.909,0,0,0,1.4,1.7,1.929,1.929,0,0,0,1,.3,3.583,3.583,0,0,0-.4-1.1h-.1a2.047,2.047,0,0,1-.8-.8,3.922,3.922,0,0,1-.4-1.8,9.863,9.863,0,0,1,4.8-7.7,3.319,3.319,0,0,1,3-.3,2.651,2.651,0,0,1,1.2,2.6c0,.4-.1.9-.1,1.3l.5.3a10.815,10.815,0,0,0-3.7,7.4,5.663,5.663,0,0,0,.3,1.8,2.909,2.909,0,0,0,1.4,1.7,1.929,1.929,0,0,0,1,.3,3.583,3.583,0,0,0-.4-1.1h-.1a2.047,2.047,0,0,1-.8-.8,3.922,3.922,0,0,1-.4-1.8,9.863,9.863,0,0,1,4.8-7.7,3.319,3.319,0,0,1,3-.3,2.845,2.845,0,0,1,1.2,2.6c0,.4-.1.9-.1,1.3l.5.3a10.815,10.815,0,0,0-3.7,7.4,5.663,5.663,0,0,0,.3,1.8,2.909,2.909,0,0,0,1.4,1.7,1.929,1.929,0,0,0,1,.3,3.583,3.583,0,0,0-.4-1.1h-.1a2.047,2.047,0,0,1-.8-.8,3.922,3.922,0,0,1-.4-1.8,9.693,9.693,0,0,1,4.8-7.6,3.319,3.319,0,0,1,3-.3,2.651,2.651,0,0,1,1.2,2.6c0,.4-.1.9-.1,1.3l.5.3a10.815,10.815,0,0,0-3.7,7.4,5.663,5.663,0,0,0,.3,1.8,2.909,2.909,0,0,0,1.4,1.7,1.929,1.929,0,0,0,1,.3,3.583,3.583,0,0,0-.4-1.1h-.1a2.047,2.047,0,0,1-.8-.8,3.922,3.922,0,0,1-.4-1.8,9.863,9.863,0,0,1,4.8-7.7,3.319,3.319,0,0,1,3-.3,2.651,2.651,0,0,1,1.2,2.6c0,.4-.1.9-.1,1.3l.5.3a10.815,10.815,0,0,0-3.7,7.4,5.663,5.663,0,0,0,.3,1.8,2.909,2.909,0,0,0,1.4,1.7,1.929,1.929,0,0,0,1,.3,3.583,3.583,0,0,0-.4-1.1H406a2.047,2.047,0,0,1-.8-.8,3.922,3.922,0,0,1-.4-1.8,9.863,9.863,0,0,1,4.8-7.7,3.319,3.319,0,0,1,3-.3,2.651,2.651,0,0,1,1.2,2.6c0,.4-.1.9-.1,1.3l.5.3a10.815,10.815,0,0,0-3.7,7.4,5.663,5.663,0,0,0,.3,1.8,2.909,2.909,0,0,0,1.4,1.7,1.929,1.929,0,0,0,1,.3,3.583,3.583,0,0,0-.4-1.1h-.1a2.047,2.047,0,0,1-.8-.8,3.922,3.922,0,0,1-.4-1.8,9.863,9.863,0,0,1,4.8-7.7,3.319,3.319,0,0,1,3-.3,2.651,2.651,0,0,1,1.2,2.6c0,.4-.1.9-.1,1.3l.5.3a10.815,10.815,0,0,0-3.7,7.4,5.663,5.663,0,0,0,.3,1.8,2.909,2.909,0,0,0,1.4,1.7,1.929,1.929,0,0,0,1,.3,3.583,3.583,0,0,0-.4-1.1h-.1a2.047,2.047,0,0,1-.8-.8,3.922,3.922,0,0,1-.4-1.8,9.863,9.863,0,0,1,4.8-7.7,3.319,3.319,0,0,1,3-.3,2.651,2.651,0,0,1,1.2,2.6,5.7,5.7,0,0,1-.1,1.3l.5.3a10.815,10.815,0,0,0-3.7,7.4,5.663,5.663,0,0,0,.3,1.8,2.909,2.909,0,0,0,1.4,1.7,1.929,1.929,0,0,0,1,.3,3.583,3.583,0,0,0-.4-1.1h-.1a2.047,2.047,0,0,1-.8-.8,3.922,3.922,0,0,1-.4-1.8,9.863,9.863,0,0,1,4.8-7.7,3.308,3.308,0,0,1,3-.3,2.651,2.651,0,0,1,1.2,2.6,5.7,5.7,0,0,1-.1,1.3l.5.3a10.815,10.815,0,0,0-3.7,7.4,5.663,5.663,0,0,0,.3,1.8,2.909,2.909,0,0,0,1.4,1.7,1.929,1.929,0,0,0,1,.3,3.583,3.583,0,0,0-.4-1.1h-.1a2.047,2.047,0,0,1-.8-.8,3.922,3.922,0,0,1-.4-1.8,9.518,9.518,0,0,1,4.8-7.2,3.308,3.308,0,0,1,3-.3,2.651,2.651,0,0,1,1.2,2.6,5.852,5.852,0,0,1-.2,1.3l.5.3a10.815,10.815,0,0,0-3.7,7.4,5.663,5.663,0,0,0,.3,1.8,2.909,2.909,0,0,0,1.4,1.7,1.929,1.929,0,0,0,1,.3,3.583,3.583,0,0,0-.4-1.1h-.1a2.047,2.047,0,0,1-.8-.8,3.922,3.922,0,0,1-.4-1.8A9.863,9.863,0,0,1,443,233a3.308,3.308,0,0,1,3-.3,2.651,2.651,0,0,1,1.2,2.6,5.852,5.852,0,0,1-.2,1.3l.5.3a10.815,10.815,0,0,0-3.7,7.4,5.663,5.663,0,0,0,.3,1.8,2.909,2.909,0,0,0,1.4,1.7,1.929,1.929,0,0,0,1,.3,3.583,3.583,0,0,0-.4-1.1H446a2.047,2.047,0,0,1-.8-.8,3.922,3.922,0,0,1-.4-1.8,9.863,9.863,0,0,1,4.8-7.7,3.308,3.308,0,0,1,3-.3,2.651,2.651,0,0,1,1.2,2.6,5.852,5.852,0,0,1-.2,1.3l.5.3a10.815,10.815,0,0,0-3.7,7.4,5.663,5.663,0,0,0,.3,1.8,2.909,2.909,0,0,0,1.4,1.7,1.929,1.929,0,0,0,1,.3,3.583,3.583,0,0,0-.4-1.1h-.1a2.047,2.047,0,0,1-.8-.8,3.922,3.922,0,0,1-.4-1.8,9.863,9.863,0,0,1,4.8-7.7,3.308,3.308,0,0,1,3-.3,2.651,2.651,0,0,1,1.2,2.6,5.852,5.852,0,0,1-.2,1.3l.9.5a11.267,11.267,0,0,0,.3-1.8,3.616,3.616,0,0,0-1.7-3.4,4.152,4.152,0,0,0-4,.3,8.791,8.791,0,0,0-1,.6,4.868,4.868,0,0,0,.1-1.2,3.616,3.616,0,0,0-1.7-3.4,4.151,4.151,0,0,0-4,.3,8.791,8.791,0,0,0-1,.6,4.868,4.868,0,0,0,.1-1.2,3.616,3.616,0,0,0-1.7-3.4,4.151,4.151,0,0,0-4,.3,8.791,8.791,0,0,0-1,.6,4.868,4.868,0,0,0,.1-1.2,3.616,3.616,0,0,0-1.7-3.4,4.151,4.151,0,0,0-4,.3,8.791,8.791,0,0,0-1,.6,4.868,4.868,0,0,0,.1-1.2,3.616,3.616,0,0,0-1.7-3.4,4.151,4.151,0,0,0-4,.3,8.791,8.791,0,0,0-1,.6,4.868,4.868,0,0,0,.1-1.2,3.616,3.616,0,0,0-1.7-3.4,4.152,4.152,0,0,0-4,.3,8.791,8.791,0,0,0-1,.6,4.868,4.868,0,0,0,.1-1.2,3.616,3.616,0,0,0-1.7-3.4,4.151,4.151,0,0,0-4,.3,8.791,8.791,0,0,0-1,.6,4.868,4.868,0,0,0,.1-1.2,3.616,3.616,0,0,0-1.7-3.4,4.152,4.152,0,0,0-4,.3,8.791,8.791,0,0,0-1,.6,4.868,4.868,0,0,0,.1-1.2,3.616,3.616,0,0,0-1.7-3.4,4.151,4.151,0,0,0-4,.3,8.791,8.791,0,0,0-1,.6,4.868,4.868,0,0,0,.1-1.2,3.616,3.616,0,0,0-1.7-3.4,4.151,4.151,0,0,0-4,.3,8.791,8.791,0,0,0-1,.6,4.868,4.868,0,0,0,.1-1.2,3.616,3.616,0,0,0-1.7-3.4,4.151,4.151,0,0,0-4,.3,8.791,8.791,0,0,0-1,.6,4.868,4.868,0,0,0,.1-1.2,3.616,3.616,0,0,0-1.7-3.4,4.152,4.152,0,0,0-4,.3,8.791,8.791,0,0,0-1,.6,4.868,4.868,0,0,0,.1-1.2,3.616,3.616,0,0,0-1.7-3.4,4.151,4.151,0,0,0-4,.3,8.791,8.791,0,0,0-1,.6,4.868,4.868,0,0,0,.1-1.2,3.616,3.616,0,0,0-1.7-3.4,4.151,4.151,0,0,0-4,.3,8.791,8.791,0,0,0-1,.6,4.868,4.868,0,0,0,.1-1.2,3.616,3.616,0,0,0-1.7-3.4,4.151,4.151,0,0,0-4,.3,8.791,8.791,0,0,0-1,.6,4.868,4.868,0,0,0,.1-1.2,3.616,3.616,0,0,0-1.7-3.4,4.151,4.151,0,0,0-4,.3A8.121,8.121,0,0,0,350.5,191.9Z"/><path class="e" d="M448,260.6l-1.6,11.5c-.2,1.7-1.7,2.4-3.3,1.5l-90.2-49.3a4.751,4.751,0,0,1-2.4-4.6l1.6-11.6c.2-1.7,1.7-2.4,3.3-1.5L445.7,256A5.046,5.046,0,0,1,448,260.6Z"/><path class="d" d="M355.2,216.5a1.546,1.546,0,0,1,2-.3l42.4,23.2a3.329,3.329,0,0,1,1.7,3.2v.1a1.136,1.136,0,0,1-.3.8,1.546,1.546,0,0,1-2,.3l-42.4-23.2a3.329,3.329,0,0,1-1.7-3.2v-.1A1.135,1.135,0,0,1,355.2,216.5Z"/><path class="l" d="M360.7,218.2l-3.5-2a1.613,1.613,0,0,0-.9-.3,1.347,1.347,0,0,0-1.4,1.3v.1a3.514,3.514,0,0,0,1.7,3.2l3.5,2Z"/><path class="s" d="M425,268.9a.966.966,0,0,1,1.4-.1l17.7,9.7a2.466,2.466,0,0,1,1.2,2.3,1.421,1.421,0,0,1-.2.6.966.966,0,0,1-1.4.1L426,271.8a2.466,2.466,0,0,1-1.2-2.3C424.7,269.3,424.8,269.1,425,268.9Z"/><path class="s" d="M383.8,246.4a.966.966,0,0,1,1.4-.1l34.8,19a2.466,2.466,0,0,1,1.2,2.3,1.421,1.421,0,0,1-.2.6.966.966,0,0,1-1.4.1l-34.8-19.1a2.466,2.466,0,0,1-1.2-2.3A1.691,1.691,0,0,1,383.8,246.4Z"/><path class="s" d="M349.4,228.2a1.421,1.421,0,0,1,.2-.6.966.966,0,0,1,1.4-.1l28,15.3a2.466,2.466,0,0,1,1.2,2.3,1.421,1.421,0,0,1-.2.6.966.966,0,0,1-1.4.1l-28-15.3A2.466,2.466,0,0,1,349.4,228.2Z"/><path class="s" d="M430.8,279.7a.966.966,0,0,1,1.4-.1l10.9,6a2.466,2.466,0,0,1,1.2,2.3.764.764,0,0,1-.2.5.972.972,0,0,1-1.4.1l-10.9-5.9a2.466,2.466,0,0,1-1.2-2.3A.735.735,0,0,1,430.8,279.7Z"/><path class="s" d="M396.6,261a.966.966,0,0,1,1.4-.1l27.9,15.3a2.466,2.466,0,0,1,1.2,2.3,1.421,1.421,0,0,1-.2.6.966.966,0,0,1-1.4.1l-28-15.3a2.466,2.466,0,0,1-1.2-2.3C396.4,261.4,396.4,261.2,396.6,261Z"/><path class="s" d="M348.4,235.3a.764.764,0,0,1,.2-.5,1.09,1.09,0,0,1,1.4-.2l41.6,22.8a2.466,2.466,0,0,1,1.2,2.3,1.421,1.421,0,0,1-.2.6.966.966,0,0,1-1.4.1l-41.7-22.8A2.387,2.387,0,0,1,348.4,235.3Z"/><path class="s" d="M416.2,279.3a.966.966,0,0,1,1.4-.1l24.7,13.5a2.079,2.079,0,0,1,1.1,2.2c0,.2-.1.3-.2.5a1.212,1.212,0,0,1-1.5.2l-24.5-13.4a2.466,2.466,0,0,1-1.2-2.3A.735.735,0,0,1,416.2,279.3Z"/><path class="s" d="M371.7,255a1.075,1.075,0,0,1,1.4-.2l37.8,20.7a2.466,2.466,0,0,1,1.2,2.3,1.421,1.421,0,0,1-.2.6.966.966,0,0,1-1.4.1l-37.8-20.7a2.466,2.466,0,0,1-1.2-2.3A.764.764,0,0,1,371.7,255Z"/><path class="s" d="M347.5,242.4a.764.764,0,0,1,.2-.5,1.212,1.212,0,0,1,1.5-.2l17.7,9.7a2.466,2.466,0,0,1,1.2,2.3,1.421,1.421,0,0,1-.2.6.966.966,0,0,1-1.4.1l-17.8-9.8A2.083,2.083,0,0,1,347.5,242.4Z"/><path class="s" d="M401.6,278.7a.966.966,0,0,1,1.4-.1l38.4,21a2.234,2.234,0,0,1,1.1,2.2c0,.2-.1.3-.2.5a1.228,1.228,0,0,1-1.5.2l-38.1-20.9a2.466,2.466,0,0,1-1.2-2.3A.471.471,0,0,1,401.6,278.7Z"/><path class="s" d="M381.1,267.5a.966.966,0,0,1,1.4-.1l14.3,7.8a2.466,2.466,0,0,1,1.2,2.3,1.421,1.421,0,0,1-.2.6.966.966,0,0,1-1.4.1l-14.3-7.8a2.466,2.466,0,0,1-1.2-2.3A.445.445,0,0,1,381.1,267.5Z"/><path class="s" d="M346.5,249.3c0-.2.1-.3.2-.5a1.228,1.228,0,0,1,1.5-.2l27.4,15a2.466,2.466,0,0,1,1.2,2.3,1.421,1.421,0,0,1-.2.6.966.966,0,0,1-1.4.1l-27.7-15.1A2.574,2.574,0,0,1,346.5,249.3Z"/><path class="s" d="M434.8,304.7a.972.972,0,0,1,1.4-.1l4.1,2.3a2.011,2.011,0,0,1,1,2.2.52.52,0,0,1-.2.4,1.127,1.127,0,0,1-1.6.2l-3.8-2.1a2.466,2.466,0,0,1-1.2-2.3A1.629,1.629,0,0,1,434.8,304.7Z"/><path class="s" d="M416.1,294.5a.972.972,0,0,1,1.4-.1l12.4,6.8a2.466,2.466,0,0,1,1.2,2.3,1.421,1.421,0,0,1-.2.6.972.972,0,0,1-1.4.1l-12.4-6.8a2.466,2.466,0,0,1-1.2-2.3A1.421,1.421,0,0,1,416.1,294.5Z"/><path class="s" d="M390.4,280.5a1.212,1.212,0,0,1,1.5-.2l19.4,10.6a2.316,2.316,0,0,1,1.2,2.2.764.764,0,0,1-.2.5,1.09,1.09,0,0,1-1.4.2l-19.4-10.6a2.412,2.412,0,0,1-1.2-2.2A.44.44,0,0,1,390.4,280.5Z"/><path class="s" d="M423.3,306.9a1.212,1.212,0,0,1,1.5-.2l14.3,7.8a1.879,1.879,0,0,1,1,2.1.758.758,0,0,1-.2.4,1.236,1.236,0,0,1-1.7.2l-14-7.7a2.234,2.234,0,0,1-1.1-2.2A.4.4,0,0,1,423.3,306.9Z"/><path class="s" d="M402.7,295.6a1.212,1.212,0,0,1,1.5-.2l14.1,7.7a2.079,2.079,0,0,1,1.1,2.2c0,.2-.1.3-.2.5a1.212,1.212,0,0,1-1.5.2l-5.4-3-8.7-4.8a2.234,2.234,0,0,1-1.1-2.2Z"/><path class="s" d="M389,288.1a1.212,1.212,0,0,1,1.5-.2l7.3,4a2.079,2.079,0,0,1,1.1,2.2c0,.2-.1.3-.2.5a1.212,1.212,0,0,1-1.5.2l-7.3-4a2.234,2.234,0,0,1-1.1-2.2C388.8,288.4,388.9,288.3,389,288.1Z"/><path class="s" d="M411.1,308.6a1.226,1.226,0,0,1,1.6-.2l24.6,13.5a1.879,1.879,0,0,1,1,2.1c0,.1-.1.2-.2.3a1.248,1.248,0,0,1-1.7.2L412,311.2a2.234,2.234,0,0,1-1.1-2.2C411,308.9,411,308.7,411.1,308.6Z"/><path class="s" d="M387.3,295.5a1.226,1.226,0,0,1,1.6-.2l17.6,9.6a2.234,2.234,0,0,1,1.1,2.2.52.52,0,0,1-.2.4,1.127,1.127,0,0,1-1.6.2l-17.6-9.6a2.234,2.234,0,0,1-1.1-2.2C387.1,295.8,387.2,295.7,387.3,295.5Z"/><path class="s" d="M422.8,323.3a1.236,1.236,0,0,1,1.7-.2l10.9,6a1.708,1.708,0,0,1,.9,2.1c0,.1-.1.2-.2.3a1.5,1.5,0,0,1-1.8.3l-10.7-5.9a1.879,1.879,0,0,1-1-2.1A.588.588,0,0,1,422.8,323.3Z"/><path class="s" d="M402,312.4a.758.758,0,0,1,.2-.4,1.236,1.236,0,0,1,1.7-.2l14.3,7.8a1.952,1.952,0,0,1,1,2.2.758.758,0,0,1-.2.4,1.236,1.236,0,0,1-1.7.2L403,314.6A2.073,2.073,0,0,1,402,312.4Z"/><path class="s" d="M385.3,302.8a1.127,1.127,0,0,1,1.6-.2l10.7,5.8a1.952,1.952,0,0,1,1,2.2.758.758,0,0,1-.2.4,1.236,1.236,0,0,1-1.7.2l-10.6-5.8a1.952,1.952,0,0,1-1-2.2C385.2,303,385.2,302.9,385.3,302.8Z"/><path class="s" d="M406.7,322.7a1.248,1.248,0,0,1,1.7-.2L433,336a1.818,1.818,0,0,1,.9,2.1.349.349,0,0,1-.1.2,1.4,1.4,0,0,1-1.9.3l-24.5-13.4a1.708,1.708,0,0,1-.9-2.1A.519.519,0,0,1,406.7,322.7Z"/><path class="s" d="M382.9,309.7a1.5,1.5,0,0,1,1.8-.3l17.5,9.6a1.708,1.708,0,0,1,.9,2.1c0,.1-.1.2-.2.3a1.5,1.5,0,0,1-1.8.3l-17.5-9.6a1.708,1.708,0,0,1-.9-2.1C382.8,309.9,382.9,309.8,382.9,309.7Z"/><path class="e" d="M390.4,321.8a1.378,1.378,0,0,1,1.8-.3l38.3,21a1.658,1.658,0,0,1,.8,2.1c0,.1-.1.1-.1.2a1.4,1.4,0,0,1-1.9.3l-38.2-20.9a1.818,1.818,0,0,1-.9-2.1C390.3,322,390.3,321.9,390.4,321.8Z"/><path class="s" d="M362.9,306.8a1.378,1.378,0,0,1,1.8-.3l21.4,11.7a1.818,1.818,0,0,1,.9,2.1.349.349,0,0,1-.1.2,1.28,1.28,0,0,1-1.8.3l-21.4-11.7a1.818,1.818,0,0,1-.9-2.1A.349.349,0,0,0,362.9,306.8Z"/><path class="s" d="M335.4,292.1c0-.1.1-.1.1-.2a1.4,1.4,0,0,1,1.9-.3l21.3,11.7a1.818,1.818,0,0,1,.9,2.1.349.349,0,0,1-.1.2,1.28,1.28,0,0,1-1.8.3l-21.4-11.7A1.75,1.75,0,0,1,335.4,292.1Z"/><path class="s" d="M414.9,343.2a1.4,1.4,0,0,1,1.9-.3l10.9,6a1.576,1.576,0,0,1,.8,2,.1.1,0,0,1-.1.1,1.528,1.528,0,0,1-2,.4l-10.8-5.9a1.658,1.658,0,0,1-.8-2.1A.349.349,0,0,0,414.9,343.2Z"/><path class="s" d="M377.2,322.6a1.4,1.4,0,0,1,1.9-.3l31.4,17.2a1.658,1.658,0,0,1,.8,2.1.349.349,0,0,1-.1.2,1.417,1.417,0,0,1-1.9.3l-31.4-17.2a1.658,1.658,0,0,1-.8-2.1A.349.349,0,0,1,377.2,322.6Z"/><path class="s" d="M348,306.6a1.4,1.4,0,0,1,1.9-.3l22.9,12.5a1.658,1.658,0,0,1,.8,2.1c0,.1-.1.1-.1.2a1.4,1.4,0,0,1-1.9.3l-22.9-12.5a1.658,1.658,0,0,1-.8-2.1C347.9,306.7,348,306.7,348,306.6Z"/><path class="s" d="M332.6,298.4l.1-.1a1.51,1.51,0,0,1,2-.3l8.9,4.9a1.658,1.658,0,0,1,.8,2.1c0,.1-.1.1-.1.2a1.4,1.4,0,0,1-1.9.3l-9-4.9A1.714,1.714,0,0,1,332.6,298.4Z"/><path class="s" d="M398,341.9a1.573,1.573,0,0,1,2-.4L424.6,355a1.445,1.445,0,0,1,.7,2v.1a1.685,1.685,0,0,1-2.1.4L398.7,344a1.576,1.576,0,0,1-.8-2A.1.1,0,0,0,398,341.9Z"/><path class="s" d="M363.7,323.2a1.551,1.551,0,0,1,2-.4l28,15.3a1.576,1.576,0,0,1,.8,2v.1a1.551,1.551,0,0,1-2,.4l-28-15.3a1.569,1.569,0,0,1-.8-2.1Z"/><path class="s" d="M329.5,304.5h0a1.6,1.6,0,0,1,2.1-.5l27.9,15.3a1.576,1.576,0,0,1,.8,2,.1.1,0,0,1-.1.1,1.528,1.528,0,0,1-2,.4l-27.9-15.3A1.507,1.507,0,0,1,329.5,304.5Z"/><path class="s" d="M415.3,359.1a1.572,1.572,0,0,1,2.1-.4l4.1,2.2a1.445,1.445,0,0,1,.7,2h0a1.581,1.581,0,0,1-2.2.4l-4-2.2a1.42,1.42,0,0,1-.7-2Z"/><path class="s" d="M381.1,340.4a1.572,1.572,0,0,1,2.1-.4l27.9,15.3a1.445,1.445,0,0,1,.7,2h0a1.572,1.572,0,0,1-2.1.4l-27.9-15.3a1.445,1.445,0,0,1-.7-2Z"/><path class="s" d="M346.8,321.6a1.572,1.572,0,0,1,2.1-.4l28,15.3a1.445,1.445,0,0,1,.7,2h0a1.572,1.572,0,0,1-2.1.4l-28-15.3a1.4,1.4,0,0,1-.7-2Z"/><path class="s" d="M326.2,310.4h0a1.48,1.48,0,0,1,2.1-.4l14.2,7.8a1.445,1.445,0,0,1,.7,2h0a1.572,1.572,0,0,1-2.1.4l-14.2-7.8A1.528,1.528,0,0,1,326.2,310.4Z"/><path class="s" d="M400.3,356.9l17.7,9.7h0a1.375,1.375,0,0,1,.6,1.9,1.7,1.7,0,0,1-2.2.4l-17.7-9.7a1.34,1.34,0,0,1-.7-1.9A1.738,1.738,0,0,1,400.3,356.9Z"/><path class="s" d="M366,338.1l27.9,15.3a1.445,1.445,0,0,1,.7,2,1.6,1.6,0,0,1-2.2.4l-27.9-15.3h0a1.445,1.445,0,0,1-.7-2A1.826,1.826,0,0,1,366,338.1Z"/><path class="s" d="M323.4,318a1.415,1.415,0,0,1-.7-1.9,1.7,1.7,0,0,1,2.2-.4l34.7,18.9h0a1.445,1.445,0,0,1,.7,2,1.6,1.6,0,0,1-2.2.4l-34.7-19Z"/><path class="s" d="M383,354.8,414.4,372a.1.1,0,0,1,.1.1,1.342,1.342,0,0,1,.5,1.9,1.812,1.812,0,0,1-2.3.4l-31.4-17.2h-.1a1.342,1.342,0,0,1-.5-1.9A1.835,1.835,0,0,1,383,354.8Z"/><path class="s" d="M348.7,336.1l27.9,15.3h.1a1.342,1.342,0,0,1,.5,1.9,1.7,1.7,0,0,1-2.2.4l-27.9-15.3H347a1.272,1.272,0,0,1-.5-1.9A1.7,1.7,0,0,1,348.7,336.1Z"/><path class="s" d="M319.6,323.4a1.342,1.342,0,0,1-.5-1.9,1.7,1.7,0,0,1,2.2-.4l21,11.5h.1a1.342,1.342,0,0,1,.5,1.9,1.7,1.7,0,0,1-2.2.4l-21.1-11.5Z"/><path class="t" d="M338.6,283.9a15.876,15.876,0,0,0,.7-2c.3-.8.5-1.6.8-2.4a161.081,161.081,0,0,0,5.8-24.7L387,277.3a165.415,165.415,0,0,1-6.7,27.7,8.8,8.8,0,0,0-.5,1.5l-.6,1.5a.758.758,0,0,1-.2.4l-.6,1.5-41.1-22.5C337.7,286.4,338.1,285.2,338.6,283.9Z"/><path class="b" d="M338.6,283.9c.2-.7.5-1.3.7-2,.3-.8.5-1.6.8-2.4h0l11.4-4.1,3.7,11.3-4.7,4.4,23.1-12s5.1,20,6.7,26a8.8,8.8,0,0,0-.5,1.5l-.6,1.5a.758.758,0,0,1-.2.4l-.6,1.5-41.1-22.5C337.7,286.4,338.1,285.2,338.6,283.9Z"/><path class="b" d="M361.8,272.2a2.425,2.425,0,0,1-3.6,1.9,4.694,4.694,0,0,1-2-4.9c.4-1.9,1.9-2.7,3.5-1.9A4.9,4.9,0,0,1,361.8,272.2Z"/><path class="m" d="M417.6,253.3c.2.1.3.2.5.2a1.689,1.689,0,0,0,.5.2c.2.1.3.1.5.2.2,0,.3.1.4.1h.4a.215.215,0,0,0,.2-.2c.1-.1.1-.2.1-.4a1.087,1.087,0,0,0-.1-.5c-.1-.2-.1-.4-.2-.6a4.872,4.872,0,0,1-.3-.7,2.507,2.507,0,0,0-.4-.7c-.1-.2-.3-.5-.4-.7l.8-1.3,5.1.5.1,1.9-3.6-.3c.2.3.3.6.5.9.1.3.2.7.3,1a3.4,3.4,0,0,1,.1,1,2.92,2.92,0,0,1-.2.9,1.853,1.853,0,0,1-.7.8,2.016,2.016,0,0,1-1.1.3,9.972,9.972,0,0,1-1.6-.2c-.6-.2-1.3-.5-2.1-.8-.6-.3-1.2-.6-1.7-.9a4.485,4.485,0,0,1-1.3-1,4.064,4.064,0,0,1-.9-1,2.112,2.112,0,0,1-.4-1v-.8a4.878,4.878,0,0,1,.3-.7,2.652,2.652,0,0,1,.5-.6,5.549,5.549,0,0,1,.8-.6l1.2,1.5-.3.3-.3.3c-.1.1-.2.2-.2.3s-.1.2,0,.3a.864.864,0,0,0,.3.6,4.35,4.35,0,0,0,.7.6,8.8,8.8,0,0,0,1,.6c.4.2.7.4,1.1.6Zm2.6-5.6,4.6.6v.7l-5-.6Z"/><path class="m" d="M429.7,257.6a1.268,1.268,0,0,0-.1.6c0,.2-.1.3-.1.5a.6.6,0,0,0,.1.4.215.215,0,0,0,.2.2h.1l-.8,1.7-.3-.2a5.546,5.546,0,0,1-.8-.6,3.039,3.039,0,0,1-.5-.7,2.437,2.437,0,0,1-1.2,0,3.079,3.079,0,0,1-1.3-.3c-.4-.2-.9-.3-1.3-.5s-.8-.5-1.2-.7l1.1-1.5c.2.2.5.3.7.5a2.994,2.994,0,0,0,.8.4l-.9-5.4,2.1-.3.6,6a.367.367,0,0,0,.3-.1.349.349,0,0,0,.2-.1c.1-.1.2-.1.2-.2.1-.1.1-.2.2-.3v-.5a.367.367,0,0,1,.1-.3,4.331,4.331,0,0,0,.1-.5,2.544,2.544,0,0,1,.2-.7c.1-.3.1-.6.2-1s.2-.9.3-1.4l2.1.6Z"/><path class="m" d="M429.5,263.9l-.7-1.5,1.6-.4.7,1.5Zm.2-4.7.6.3c.1.1.3.1.4.2a.9.9,0,0,0,.5.1h.4c.1,0,.2,0,.2-.1v-.8a1.952,1.952,0,0,0-.1-.7,1.7,1.7,0,0,0-.1-.7l2.2.1v1.6c0,.3-.1.5-.1.7-.1.2-.1.4-.2.6a2.177,2.177,0,0,1-.7.9,3.553,3.553,0,0,1-.9.4,4.484,4.484,0,0,1-1.1-.1,11.214,11.214,0,0,1-1.3-.5l-.7-.4Z"/><path class="m" d="M432.1,264.2c.5.1.9.2,1.3.3a4.484,4.484,0,0,0,1.1.1h.9a1.445,1.445,0,0,0,.7-.2c-.1,0-.1-.1-.2-.1s-.1-.1-.2-.1-.1-.1-.2-.1a.1.1,0,0,1-.1-.1,2.177,2.177,0,0,1-.9-.7,1.555,1.555,0,0,1-.6-.8,2.353,2.353,0,0,1-.2-.8,2.92,2.92,0,0,1,.2-.9,1,1,0,0,1,.4-.5c.2-.1.3-.3.5-.5.2-.1.4-.3.6-.4a1.445,1.445,0,0,1,.7-.2c.3,0,.5-.1.7,0a1.421,1.421,0,0,1,.6.2,1.344,1.344,0,0,1,.7.6,2.177,2.177,0,0,1,.5.8l.3.9a4.1,4.1,0,0,1,0,1.8,6.9,6.9,0,0,1-.3.8,3.591,3.591,0,0,1-.7,1,5.5,5.5,0,0,1-.9.7,3.582,3.582,0,0,1-1.1.4,5.282,5.282,0,0,1-1.3.1,7.084,7.084,0,0,1-1.4-.1c-.5-.1-.9-.2-1.4-.3Zm4.5-3c-.1,0-.2-.1-.3-.1a.367.367,0,0,0-.3.1c-.1.1-.2.1-.3.2s-.1.2-.2.2v.2c0,.1.1.1.2.2s.2.2.3.2.2.2.4.2a.52.52,0,0,1,.4.2c.1.1.2.1.3.2a4.331,4.331,0,0,0,.1-.5.9.9,0,0,0-.1-.5.52.52,0,0,0-.2-.4C436.9,261.3,436.8,261.2,436.6,261.2Z"/><path class="u" d="M388,368.1l4-6.2,12.6,16.4,2.9,3.7h0a1.1,1.1,0,0,1,.1,1.1,1.145,1.145,0,0,1-1.3.6h0l-4.1-1.1-20.3-5.4Z"/><path class="v" d="M392.1,362l12.6,16.4,2.9,3.7h0a1.1,1.1,0,0,1,.1,1.1l-3.2-2.4L388,368.1Z"/><path class="e" d="M404.5,380.8a5.23,5.23,0,0,0,.2-2.5l2.9,3.7h0a1.1,1.1,0,0,1,.1,1.1,1.145,1.145,0,0,1-1.3.6h0l-4.1-1.1A3.1,3.1,0,0,0,404.5,380.8Z"/><path class="e" d="M290.6,316.5l4.6,3.1,86.7,57.7c2.9,0,6.7-3,8.8-6.9A11.83,11.83,0,0,0,392,362l-87.3-58.1-2.4-1.6-2-1.3C303.3,302.8,293.7,318.4,290.6,316.5Z"/><path class="w" d="M300.8,309.8l89.9,60.5a11.83,11.83,0,0,0,1.3-8.4l-87.3-58.1-2.4-1.6Z"/><path class="a" d="M308,306h0c1.1,1,.1,4.2-1.7,7.4-2.4,4.5-6.4,9.1-8.1,8.1l1.2.8,3.3,2.2c1.8,1.1,5.7-3.5,8.1-8.1,1.8-3.4,2.9-6.7,1.5-7.6l-4.5-3C307.9,306,308,306,308,306Z"/><path class="d" d="M306.4,313.5l4.5,3c1.8-3.4,2.9-6.7,1.5-7.6l-4.5-3,.1.1h0c1.1,1,.1,4.2-1.6,7.5Z"/><path class="e" d="M304.5,303.7c3.1,1.9-6.5,17.5-9.6,15.6l4.5,3c3.1,1.9,12.7-13.7,9.6-15.6Z"/><path class="a" d="M290.6,316.5l4.5,3c.1,0,.1.1.2.1,3.3,1.2,12.4-13.9,9.4-15.8l-4.5-2.9C303.3,302.8,293.7,318.4,290.6,316.5Z"/><path class="u" d="M276.1,289.3c-4.6,3.5-8.1,12.7-3.6,15.2l18.2,12h0c1.8,1.1,5.7-3.6,8.1-8.1,1.8-3.4,2.8-6.7,1.5-7.5l-18.9-12.5C279.6,287.5,277.8,288,276.1,289.3Z"/><path class="v" d="M276.1,289.3c2-1.2,3.9-1.3,4.9.5,1,1.9-1.3,6.6-1.3,6.6l19,12c1.8-3.4,2.8-6.7,1.5-7.5l-18.9-12.5C279.6,287.5,277.8,288,276.1,289.3Z"/><path class="x" d="M303,311.3l4.5,3c1.8-3.4,2.8-6.7,1.5-7.6l-4.5-3C305.8,304.5,304.8,307.9,303,311.3Z"/><path class="d" d="M298.7,308.4l4.5,3c1.8-3.4,2.8-6.7,1.5-7.6l-4.5-2.9C301.5,301.7,300.5,305,298.7,308.4Z"/><path class="m" d="M262.1,101.4l-1.2-10.8h0c-1.1-.7-1.8.1-1.6,1.7l1.1,9.6a5.722,5.722,0,0,0,2.1,3.8l8.2,5.2c1.1.7,1.8-.1,1.6-1.7h0l-9-5.7A3.116,3.116,0,0,1,262.1,101.4Z"/><path class="m" d="M257.1,94.8l-.2-.1.4,3.4c.1,1-.3,1.5-1,1.1L256,99a3.87,3.87,0,0,1-1.4-2.5l-.4-3.4-1.9-1.2.5,4.3a8.4,8.4,0,0,0,2.9,5.4l1.5.9c1.4.9,2.3-.1,2.1-2.3l-.2-1.7A6.082,6.082,0,0,0,257.1,94.8Z"/><path class="m" d="M252.3,91.8l.4,3.6c.1.9-.3,1.3-.8.9l-6.5-4.1.3,2.9,6.4,4c1.7,1,2.8-.2,2.5-2.7l-.4-3.5Z"/><path class="m" d="M238.1,82.9l.4,3.6a3,3,0,0,0,1.2,2.2l6.5,4.1.3,2.9-6.4-4c-1.7-1-3.2-4-3.5-6.5l-.4-3.5Z"/><path class="m" d="M236.2,81.7l.4,3.6c.1.9-.3,1.3-.8.9l-4.1-2.6.3,2.9,4,2.5c1.7,1,2.8-.2,2.5-2.7l-.4-3.5Z"/><path class="m" d="M244.3,84.1l-2.4-1.5c-1.4-.9-2.1-.7-1.9,1.5l4.1,2.6a5.81,5.81,0,0,1,2,3.7c.2,1.4-.5,2.1-1.4,1.5l-3.6-2.3c.4,1.9,1,3.4,2.3,4.2l2.1,1.3c1.8,1.1,2.9-.2,2.6-2.9l-.1-1.3A10,10,0,0,0,244.3,84.1Z"/><path class="m" d="M229.4,79l1.5-.6s3,6.8,1.4,10.8-6.7-.4-8.4-4.7a16.183,16.183,0,0,1-1.3-7.8l1.8,1.7a11.8,11.8,0,0,0,1.3,5.9c1.6,2.7,4.9,4.6,5,.8C231,82.4,229.4,79,229.4,79Z"/><ellipse class="m" cx="0.9" cy="2.1" rx="0.9" ry="2.1" transform="translate(222.152 74.018) rotate(-23.24)"/><ellipse class="m" cx="0.9" cy="2.1" rx="0.9" ry="2.1" transform="translate(233.254 89.744) rotate(-23.24)"/><ellipse class="m" cx="0.9" cy="2.1" rx="0.9" ry="2.1" transform="translate(235.657 91.228) rotate(-23.24)"/><ellipse class="m" cx="0.9" cy="2.1" rx="0.9" ry="2.1" transform="translate(254.249 102.945) rotate(-23.24)"/><ellipse class="m" cx="0.9" cy="2.1" rx="0.9" ry="2.1" transform="translate(256.651 104.429) rotate(-23.24)"/><ellipse class="m" cx="0.9" cy="2.1" rx="0.9" ry="2.1" transform="translate(240.866 94.531) rotate(-23.24)"/><ellipse class="m" cx="0.9" cy="2.1" rx="0.9" ry="2.1" transform="translate(243.268 96.015) rotate(-23.24)"/><ellipse class="m" cx="0.9" cy="2.1" rx="0.9" ry="2.1" transform="translate(239.96 86.01) rotate(-23.24)"/><ellipse class="m" cx="0.9" cy="2.1" rx="0.9" ry="2.1" transform="translate(242.271 87.534) rotate(-23.24)"/><ellipse class="m" cx="0.9" cy="2.1" rx="0.9" ry="2.1" transform="translate(245.578 97.539) rotate(-23.24)"/><path class="m" d="M222.3,69.2a1.38,1.38,0,0,1-.4-.3l-.3-.3V68c.1.1.2.3.3.4s.3.2.4.3c.3.2.4.1.4-.1,0-.1,0-.1-.1-.2,0-.1-.1-.1-.1-.2s-.1-.1-.1-.2a.1.1,0,0,0-.1-.1l-.3-.3-.1-.1a1.38,1.38,0,0,0-.3-.4.749.749,0,0,1-.1-.5v-.3c0-.1.1-.1.1-.2s.1-.1.2,0c.1,0,.2.1.3.1s.1.1.2.2l.2.2.2.2c.1.1.1.1.1.2v.5l-.7-.7c-.1,0-.1-.1-.2-.1h-.2v.1c0,.1,0,.1.1.2,0,.1.1.1.1.2l.2.2.3.3.2.2a.349.349,0,0,1,.1.2c.1.1.1.1.1.2s.1.2.1.3.1.2.1.3v.3c0,.1,0,.2-.1.2,0,.1-.1.1-.2.1C222.7,69.3,222.5,69.3,222.3,69.2Z"/><path class="m" d="M226.7,71.9l-.4-.3-.3-2.8.4.3Z"/><path class="m" d="M231.1,72.5l-.6-.4.3,2.3-.4-.3-.3-2.3-.6-.4-.1-.5,1.6,1Z"/><path class="m" d="M235.9,77.7l-1.4-.9-.3-2.8,1.4.9.1.5-1-.6.1.6.8.5.1.5-.8-.5.1.7,1,.6Z"/><path class="m" d="M243.5,82.5a.781.781,0,0,1-.4-.4c-.1-.2-.3-.3-.4-.5l-.3-.6a1.483,1.483,0,0,1-.1-.7v-.6c0-.2.1-.3.2-.3a.367.367,0,0,1,.3-.1.758.758,0,0,1,.4.2,1.7,1.7,0,0,1,.6.6v.5a2.651,2.651,0,0,0-.6-.5.367.367,0,0,0-.3-.1c-.1,0-.1,0-.2.1,0,.1-.1.1-.1.2v.4a.6.6,0,0,0,.1.4c.1.1.1.3.2.4s.1.2.2.3.2.2.3.2a1.421,1.421,0,0,0,.6.2l.1.5A.988.988,0,0,1,243.5,82.5Z"/><path class="m" d="M249.1,86l-.4-.3-.1-1.2-1-.6.1,1.2-.4-.3L247,82l.4.3.1,1.1,1,.6-.1-1.1.4.3Z"/><path class="m" d="M252.8,88.3l-.4-.3-.3-2.8.4.3Z"/><path class="m" d="M257.8,91.4l-.3-.2-1.2-2.6.2,1.9-.4-.3-.3-2.8.4.2,1.1,2.4-.2-1.8.4.3Z"/></g></svg>