<svg xmlns="http://www.w3.org/2000/svg" width="349.453" height="418.298" viewBox="0 0 349.453 418.298"><defs><style>.a{fill:#ff3600;}.b{fill:#ebebeb;}.c{fill:#033a2f;}.d{fill:#06826a;}.e{fill:#e0e0e0;}.f{opacity:0.3;}.g{opacity:0.8;}.h,.o{fill:#fff;}.i{fill:#ffbe9d;}.j,.s{fill:#263238;}.k{fill:#fafafa;}.l{fill:#f5f5f5;}.m,.v{opacity:0.4;}.n,.o{opacity:0.6;}.p{fill:#455a64;}.q{fill:#eb996e;}.r,.s{opacity:0.2;}.t{opacity:0.5;}.u{opacity:0.7;}</style></defs><g transform="translate(-87.147 -34.902)"><path class="a" d="M175.8,338.2l.6,1a7.74,7.74,0,0,0,2.8,2.6l1,.5-1,.6a7.74,7.74,0,0,0-2.6,2.8l-.5,1-.6-1a7.74,7.74,0,0,0-2.8-2.6l-1.1-.5,1-.6a7.74,7.74,0,0,0,2.6-2.8Z"/><path class="a" d="M120.4,131.9l.6,1a7.74,7.74,0,0,0,2.8,2.6l1,.5-1,.6a7.74,7.74,0,0,0-2.6,2.8l-.5,1-.6-1a7.74,7.74,0,0,0-2.8-2.6l-1.1-.5,1-.6a7.294,7.294,0,0,0,2.6-2.9Z"/><path class="a" d="M376.7,237.1l.6,1a7.294,7.294,0,0,0,2.9,2.6l1,.5-1,.6a7.294,7.294,0,0,0-2.6,2.9l-.5,1-.6-1a7.74,7.74,0,0,0-2.8-2.6l-1.1-.5,1-.6a7.74,7.74,0,0,0,2.6-2.8Z"/><path class="a" d="M346.6,351.1l.6,1a7.294,7.294,0,0,0,2.9,2.6l1,.5-1,.6a7.74,7.74,0,0,0-2.6,2.8l-.5,1-.6-1a7.74,7.74,0,0,0-2.8-2.6l-1-.5,1-.6a7.294,7.294,0,0,0,2.6-2.9Z"/><path class="a" d="M352.4,389.7l.3.1a1.729,1.729,0,0,0,1,.1l.3-.1-.1.3a1.729,1.729,0,0,0-.1,1l.1.3-.3-.1a1.729,1.729,0,0,0-1-.1l-.3.1.1-.3a1.729,1.729,0,0,0,.1-1Z"/><path class="a" d="M369.9,108.8l.3.1a1.729,1.729,0,0,0,1,.1l.3-.1-.1.3a1.729,1.729,0,0,0-.1,1l.1.3-.3-.1a1.729,1.729,0,0,0-1-.1l-.3.1.1-.3a1.729,1.729,0,0,0,.1-1Z"/><path class="a" d="M131.6,105l.3.1a1.729,1.729,0,0,0,1,.1h.3l-.1.3a1.729,1.729,0,0,0-.1,1l.1.3-.3-.1a1.729,1.729,0,0,0-1-.1h-.3l.1-.3a1.729,1.729,0,0,0,.1-1Z"/><path class="a" d="M161,308.2l.3.1a1.729,1.729,0,0,0,1,.1h.3l-.1.3a1.729,1.729,0,0,0-.1,1l.1.3-.3-.1a1.729,1.729,0,0,0-1-.1l-.3.1.1-.3a1.729,1.729,0,0,0,.1-1Z"/><path class="a" d="M192.9,386.7l-.3.3-.8.8-3.2,3.2-12,11.6v-.1c.6,12.5,1.4,29.5,2.3,48.5v.4l-.4-.2-4.3-2.9-27.4-18.4h-.1v-.1c-4.1-12.2-7.6-22.5-10-29.8-1.2-3.6-2.1-6.5-2.8-8.5l-.7-2.3c-.1-.2-.1-.4-.2-.6a.349.349,0,0,0-.1-.2l.1.2.2.6c.2.5.4,1.3.8,2.2l2.9,8.4c2.5,7.3,6,17.6,10.1,29.8l-.1-.1,27.5,18.3,4.3,2.9-.3.2c-.8-19-1.5-36-2.1-48.6v-.1h.1l12.1-11.5,3.3-3.1.9-.8A.349.349,0,0,0,192.9,386.7Z"/><path class="a" d="M180.1,445.3l-.1,2.8,2.3,1.7-2.7.7-.9,2.7-1.6-2.3h-2.8l1.7-2.3-.8-2.6,2.6.9Z"/><path class="a" d="M147.1,426v1.9l1.6,1-1.8.6-.4,1.8-1.1-1.5-1.9.1,1.1-1.5-.7-1.7,1.7.5Z"/><path class="a" d="M132.8,385.1l1.4,1.8,2.3-.1-1.3,1.8.8,2.1-2.1-.6-1.8,1.4-.1-2.2-1.9-1.2,2.2-.8Z"/><path class="a" d="M191.5,383.3l1.4,1.8,2.2-.1-1.2,1.8.8,2.1-2.1-.6-1.8,1.4-.1-2.2-1.9-1.2,2.2-.8Z"/><path class="a" d="M176.1,400.5l.9,1.1,1.4-.1-.8,1.2.5,1.4-1.3-.4-1.1.9-.1-1.5-1.2-.7,1.4-.5Z"/><rect class="b" width="14.8" height="28" transform="translate(207.291 376.086) rotate(-19.209)"/><path class="c" d="M205.1,375.8l16.9-5.9a.815.815,0,0,1,1.1.5h0l.1.2a.815.815,0,0,1-.5,1.1h0l-16.9,5.9h0l-.7-1.8Z"/><path class="c" d="M232,398.6l-16.8,5.9-.6-1.9,16.8-5.9a.9.9,0,0,1,1.2.6h0A1.09,1.09,0,0,1,232,398.6Z"/><rect class="d" width="69.3" height="30.3" transform="translate(141.447 398.046) rotate(-19.209)"/><path class="e" d="M222.4,374.8s-3.1,1.2-7,2.5-7,2.4-7,2.4,3.1-1.2,6.9-2.5C219.3,375.8,222.4,374.8,222.4,374.8Z"/><path class="e" d="M223.6,378.2s-3.1,1.2-7,2.5-7,2.4-7,2.4c0-.1,3.1-1.2,6.9-2.5C220.5,379.2,223.6,378.1,223.6,378.2Z"/><path class="e" d="M224.8,381.6s-3.1,1.2-7,2.5-7,2.4-7,2.4c0-.1,3.1-1.2,6.9-2.5C221.7,382.6,224.8,381.5,224.8,381.6Z"/><path class="e" d="M226,385s-3.1,1.2-7,2.5-7,2.4-7,2.4c0-.1,3.1-1.2,6.9-2.5S226,384.9,226,385Z"/><path class="e" d="M227.2,388.4s-3.1,1.2-7,2.5-7,2.4-7,2.4,3.1-1.2,7-2.5C224,389.4,227.2,388.3,227.2,388.4Z"/><path class="e" d="M228.4,391.8s-3.1,1.2-6.9,2.5-7,2.4-7,2.3c0,0,3.1-1.2,7-2.5C225.2,392.8,228.3,391.7,228.4,391.8Z"/><path class="e" d="M229.5,395.1s-3.1,1.2-6.9,2.5c-3.9,1.3-7,2.4-7,2.3,0,0,3.1-1.2,7-2.5Z"/><path class="b" d="M169.4,406.1l.6,1.6c.7,1.9.1,3.4-1.7,4s-3.2-.1-3.9-2.1l-2.2-6.2c-.7-1.9-.1-3.4,1.8-4s3.2.1,3.9,2.1l.4,1.2-1.8.6L166,402c-.3-.9-.8-1.1-1.4-.8-.6.2-.9.7-.6,1.5l2.3,6.5c.3.9.8,1,1.4.8s.9-.7.6-1.5l-.6-1.7Z"/><path class="b" d="M168.8,401.1a2.931,2.931,0,0,1,1.8-4.1c1.8-.6,3.2.1,3.9,2.1l2.2,6.2c.7,1.9.1,3.4-1.8,4.1q-2.85.9-3.9-2.1Zm4.1,5.7c.3.9.8,1.1,1.4.8.6-.2.9-.7.6-1.5l-2.3-6.5c-.3-.9-.8-1.1-1.4-.8-.6.2-.9.7-.6,1.5Z"/><path class="b" d="M174.7,395.8l1.9-.7,3.6,10.3,3.1-1.1.6,1.7-5,1.7Z"/><path class="b" d="M181.4,396.7c-.7-1.9-.1-3.4,1.8-4.1s3.2.1,3.9,2.1l2.2,6.2a2.931,2.931,0,0,1-1.8,4.1c-1.8.6-3.2-.1-3.9-2.1Zm4.1,5.7c.3.9.8,1.1,1.4.8.6-.2.9-.7.6-1.5l-2.3-6.5c-.3-.9-.8-1.1-1.4-.8-.6.2-.9.7-.6,1.5Z"/><path class="b" d="M189.1,390.8l3.2,9.3c.3.9.8,1,1.4.8s.9-.6.6-1.5l-3.2-9.3,1.8-.6,3.2,9.2c.7,1.9.1,3.4-1.8,4s-3.2-.1-3.9-2.1l-3.2-9.2Z"/><path class="b" d="M202.3,399.7a3.694,3.694,0,0,1-.7-1.4l-.7-1.9c-.4-1.1-.9-1.4-1.8-1.1l-.6.2,1.7,4.9-1.9.7-4.2-12,2.8-1c2-.7,3.1-.1,3.8,1.8l.3.9a2.668,2.668,0,0,1-.4,2.9c1.1.1,1.7.9,2.1,2.1l.6,1.9a3.694,3.694,0,0,0,.7,1.4Zm-5.7-9.6,1.3,3.7.8-.3c.7-.2,1-.7.7-1.7l-.4-1.2c-.3-.9-.7-1.1-1.4-.9Z"/><g class="f"><path d="M157.7,392.3l1,31.8-7.3,2.6L141.5,398Z"/></g><path class="e" d="M307.7,291.1c2.1-16.1-9.2-29.4-23.4-37.4s-30.6-10.7-46.2-15.1c-14.8-4.2-29.4-10.3-40.3-21.1s-17.5-26.9-13.6-41.8c1-3.7,2.8-7.5,5.9-9.6s8.1-2.1,10.5.9c5.1,6.4-4.8,18,1.4,23.3,1.4,1.2,3.4,1.7,4.9,2.9,3.9,3.1,2.6,9.2,3.2,14.2,1.1,9.9,10.3,16.7,19.4,20.7,12.1,5.3,25.3,7.9,38.2,11s25.9,7.2,36.6,15,20.1,20,20,33.3c0,3.7-.5,8.3-2.8,11.1a6.576,6.576,0,0,1-8.6,1.9c-3.3-1.6-5.8-3.9-5.2-9.3"/><g class="g"><path class="h" d="M307.7,291.1c2.1-16.1-9.2-29.4-23.4-37.4s-30.6-10.7-46.2-15.1c-14.8-4.2-29.4-10.3-40.3-21.1s-17.5-26.9-13.6-41.8c1-3.7,2.8-7.5,5.9-9.6s8.1-2.1,10.5.9c5.1,6.4-4.8,18,1.4,23.3,1.4,1.2,3.4,1.7,4.9,2.9,3.9,3.1,2.6,9.2,3.2,14.2,1.1,9.9,10.3,16.7,19.4,20.7,12.1,5.3,25.3,7.9,38.2,11s25.9,7.2,36.6,15,20.1,20,20,33.3c0,3.7-.5,8.3-2.8,11.1a6.576,6.576,0,0,1-8.6,1.9c-3.3-1.6-5.8-3.9-5.2-9.3"/></g><path class="e" d="M239.2,163c-.5-6,3.9-11.2,9-13.9s10.9-3.9,16.1-6.4c13-6.1,21.2-20.6,21.8-35.4s-5.8-29.6-15.9-40.5c-4.1-4.4-9.1-9.1-9.2-15.1-.1-6.3,6-11.3,12.1-11.2s11.7,4.2,15.4,9.3S294.2,61,296.1,67c-1.4-2.5,1.5-5.6,4.3-5.4s5,2.6,6.7,4.9a52.2,52.2,0,0,1,10,34.8,48.78,48.78,0,0,1-15.5,31.9c-9.9,9-22.9,13.2-35.6,17.2l-26.4,8.3"/><g class="g"><path class="h" d="M239.2,163c-.5-6,3.9-11.2,9-13.9s10.9-3.9,16.1-6.4c13-6.1,21.2-20.6,21.8-35.4s-5.8-29.6-15.9-40.5c-4.1-4.4-9.1-9.1-9.2-15.1-.1-6.3,6-11.3,12.1-11.2s11.7,4.2,15.4,9.3S294.2,61,296.1,67c-1.4-2.5,1.5-5.6,4.3-5.4s5,2.6,6.7,4.9a52.2,52.2,0,0,1,10,34.8,48.78,48.78,0,0,1-15.5,31.9c-9.9,9-22.9,13.2-35.6,17.2l-26.4,8.3"/></g><path class="e" d="M231.9,37.5a5.608,5.608,0,1,0,7.3,3.1,5.608,5.608,0,0,0-6.4-3.3"/><g class="g"><path class="h" d="M231.9,37.5a5.608,5.608,0,1,0,7.3,3.1,5.608,5.608,0,0,0-6.4-3.3"/></g><path class="e" d="M264.5,422.8c-3.2-6.7-.4-15.1,4.8-20.5s12.2-8.5,19-11.5c15.1-6.6,31-14.5,38.6-29.1,2.6-4.9,4-10.3,5.5-15.7,2.8-10.4,5.5-22.1-.2-31.3-1.6-2.6-4.1-5-7.1-5.5-3.5-.6-7,1.3-9.2,4.1a20.361,20.361,0,0,0-3.5,9.8c-.8,6.6-.1,13.4-.8,20s-3.1,13.7-8.6,17.5c-6.7,4.6-16.2,3.6-22.6,8.5-5.2,4-7.2,10.8-11.3,16-3.4,4.3-8.3,7.3-12.6,10.6s-8.7,7.4-10.2,12.7A14.984,14.984,0,0,0,267.2,426"/><g class="g"><path class="h" d="M264.5,422.8c-3.2-6.7-.4-15.1,4.8-20.5s12.2-8.5,19-11.5c15.1-6.6,31-14.5,38.6-29.1,2.6-4.9,4-10.3,5.5-15.7,2.8-10.4,5.5-22.1-.2-31.3-1.6-2.6-4.1-5-7.1-5.5-3.5-.6-7,1.3-9.2,4.1a20.361,20.361,0,0,0-3.5,9.8c-.8,6.6-.1,13.4-.8,20s-3.1,13.7-8.6,17.5c-6.7,4.6-16.2,3.6-22.6,8.5-5.2,4-7.2,10.8-11.3,16-3.4,4.3-8.3,7.3-12.6,10.6s-8.7,7.4-10.2,12.7A14.984,14.984,0,0,0,267.2,426"/></g><path class="e" d="M164.3,83.9A20.891,20.891,0,0,1,160,54.7a21.869,21.869,0,0,1,4.9-4.7c3.1-2.1,6.7-3.4,9.5-6,2.4-2.3,4-5.4,6.7-7.3A9.893,9.893,0,0,1,194.8,39a9.647,9.647,0,0,1,1.2,9c-1.3,3.5-4.4,6.1-5.7,9.6-1.4,3.8-.5,8-1,11.9a16.527,16.527,0,0,1-18.5,14.2,23.69,23.69,0,0,1-3.6-.9"/><g class="g"><path class="h" d="M164.3,83.9A20.891,20.891,0,0,1,160,54.7a21.869,21.869,0,0,1,4.9-4.7c3.1-2.1,6.7-3.4,9.5-6,2.4-2.3,4-5.4,6.7-7.3A9.893,9.893,0,0,1,194.8,39a9.647,9.647,0,0,1,1.2,9c-1.3,3.5-4.4,6.1-5.7,9.6-1.4,3.8-.5,8-1,11.9a16.527,16.527,0,0,1-18.5,14.2,23.69,23.69,0,0,1-3.6-.9"/></g><path class="d" d="M164.7,62.4H177V87.7a5.378,5.378,0,0,1-5.4,5.4h-1.5a5.378,5.378,0,0,1-5.4-5.4h0V62.4Z"/><path class="i" d="M164.7,62.4l6.2-11.2L177,62.4Z"/><path class="d" d="M168.4,55.6s1.9,2.8,4.9,0l-2.4-4.5Z"/><path class="j" d="M177.2,86.5a44.306,44.306,0,0,1-6.3.3,31.834,31.834,0,0,1-6.2-.3,43.61,43.61,0,0,1,6.2-.3Q174.05,86.2,177.2,86.5Z"/><path class="j" d="M177,84.6a41.55,41.55,0,0,1-6.1.3,31.2,31.2,0,0,1-6.1-.3,41.467,41.467,0,0,1,6.1-.2A41.468,41.468,0,0,1,177,84.6Z"/><path class="k" d="M168.3,62.6c.1,0,.3,4.9.3,10.9s-.1,11-.3,11-.3-4.9-.3-11S168.2,62.6,168.3,62.6Z"/><path class="k" d="M173.3,62.6c.1,0,.3,4.9.3,10.9s-.1,11-.3,11-.3-4.9-.3-11S173.1,62.6,173.3,62.6Z"/><path class="e" d="M332.2,92.1H398s-5.8-10.6-22.7-9c-16.2,1.5-17-5.2-25.2-6S334.9,82.5,332.2,92.1Z"/><path class="b" d="M160.3,265.9s-6.6,3.6,3,17.3,15.8,20.4,15.8,20.4,1.8,3.3-1,4.2-9.3.8-10.1,4.5c-.8,3.9,2.3,7,8.1,9.3s18.4,7.8,19.5,8.3,2.4,2,.6,2.9-15.9,4.4-13.9,11,19.3,10.3,21.2,10.8,2.4,1.1,2.4,2.1-4.9,1.7-8.8,2.9-8.4,3.2-6.9,6.9,12.4,10.4,36.3,9.5l11.1-1.2,4.7-10.1c8.8-22.3,6-34.8,3-37.4s-6.4.9-8.8,4.2-4.7,7.7-5.6,7.4-1.4-1-1.2-3,2.4-19.5-3.2-23.6-13.5,8.1-15,9.5-2.4-.3-2.6-1.5-1.1-14.9-1.4-21.2-2.1-10.2-6.1-10.7-5.8,5.7-7.6,8.1-4.3-.4-4.3-.4-4.2-8.1-14-21.6-15.5-8.3-15.5-8.3"/><path class="e" d="M238.6,377.2c-7.2-10-19.7-28-30.4-43.4s-20.6-29.3-27.7-39.4c-3.6-5-6.4-9.1-8.5-11.9l-2.3-3.2-.6-.8a1.237,1.237,0,0,0-.2-.3,1.238,1.238,0,0,1,.2.3l.6.8,2.4,3.2c2,2.8,5,6.8,8.6,11.8,7.2,10,17,23.9,27.8,39.3S231.7,367,238.9,377"/><path class="e" d="M177.1,312.8a2.2,2.2,0,0,1,.8.1c.5.1,1.2.2,2.1.4,1.8.4,4.3,1,7,1.7l7,1.9,2.1.6a2.353,2.353,0,0,1,.8.2,2.2,2.2,0,0,1-.8-.1,14.916,14.916,0,0,1-2.1-.5c-1.8-.4-4.3-1-7-1.8l-7-1.8-2.1-.5A2.354,2.354,0,0,1,177.1,312.8Z"/><path class="e" d="M197.6,317c-.1,0,.9-5.2,2.3-11.6s2.6-11.5,2.6-11.5-.9,5.2-2.3,11.6S197.7,317,197.6,317Z"/><path class="e" d="M213.1,341.3a1.612,1.612,0,0,1,.4-.7l1.1-2c.9-1.7,2.1-4,3.4-6.6s2.3-5,3.1-6.7l.9-2a1.612,1.612,0,0,1,.4-.7c-.1.3-.1.5-.2.8-.2.5-.4,1.2-.8,2.1-.7,1.8-1.7,4.2-3,6.8s-2.5,4.9-3.5,6.5c-.5.8-.9,1.5-1.2,1.9A3.4,3.4,0,0,0,213.1,341.3Z"/><path class="e" d="M193.8,341.7a1.949,1.949,0,0,1,.8-.1l2.1-.1c1.7-.1,4.1-.2,6.8-.3s5.1-.1,6.8-.2h2.9a1.949,1.949,0,0,1-.8.1l-2.1.1c-1.8.1-4.2.2-6.8.3s-5.1.1-6.8.2h-2.9Z"/><path class="e" d="M204.7,365a3.4,3.4,0,0,1,1-.1l2.6-.2c2.2-.1,5.3-.3,8.7-.4s6.5-.2,8.7-.3l2.6-.1h1a3.4,3.4,0,0,1-1,.1l-2.6.2c-2.2.1-5.3.3-8.7.4s-6.5.2-8.7.3l-2.6.1Z"/><path class="e" d="M228.8,363.8a10.37,10.37,0,0,0,.4-1l1.3-2.5c1.1-2.1,2.5-5.1,4-8.5s2.8-6.4,3.7-8.6l1.1-2.6c.1-.3.3-.6.4-.9-.1.3-.2.7-.3,1-.2.6-.6,1.5-1,2.7-.9,2.2-2.1,5.3-3.6,8.6s-3,6.3-4.1,8.4c-.6,1.1-1,1.9-1.4,2.5A4.052,4.052,0,0,1,228.8,363.8Z"/><path class="e" d="M419.3,304c0,.2-.1.3-.2.5l-.5,1.3c-.5,1.2-1.2,2.9-2.1,5l-7.7,17.8v.1h-.1l-24.2,4-8.1,1.3-.4.1.1-.4c2-7.8,3.8-15,5.3-21l.1.2-14.2-6.4-3.9-1.8-1-.5c-.1-.1-.2-.1-.3-.2l.4.1,1,.4,4,1.7,14.3,6.2.2.1v.2c-1.5,6.1-3.3,13.3-5.3,21.1l-.3-.3,8.1-1.3,24.2-3.9-.2.1,7.9-17.8c1-2.1,1.7-3.8,2.3-5l.6-1.3C419.2,304.2,419.3,304.1,419.3,304Z"/><path class="e" d="M379.1,331.3l-.7,1.7,1.1,1.5-1.9-.1-1.1,1.5-.5-1.8-1.7-.6,1.5-1,.1-1.9,1.4,1.2Z"/><path class="e" d="M362.5,303l-.4.9.6.7h-1l-.5.7-.3-.9-.8-.3.7-.5.1-.9.7.6Z"/><path class="e" d="M409.4,327.6l-.3.8.5.8-.9-.1-.6.8-.2-.9-.9-.3.8-.5v-.9l.7.5Z"/><path class="e" d="M382.3,312l-.3.8.5.8-.9-.1-.6.8-.2-.9-.9-.3.8-.5v-1l.7.6Z"/><path class="e" d="M420.4,303.1l-.3.9.5.8-.9-.1-.6.8-.2-.9-.9-.3.8-.5v-1l.7.6Z"/><path class="e" d="M117.3,375.9h52.4s-4.6-8.4-18.1-7.2c-12.9,1.2-13.5-4.1-20.1-4.8S119.5,368.3,117.3,375.9Z"/><path class="l" d="M127.7,169.8H180s-4.6-8.4-18.1-7.2c-12.9,1.2-13.5-4.1-20.1-4.8S129.9,162.2,127.7,169.8Z"/><path class="l" d="M393.6,206.2h43s-3.8-6.9-14.9-5.9c-10.6,1-11.1-3.4-16.5-3.9S395.4,199.9,393.6,206.2Z"/><rect class="h" width="72.9" height="99.9" transform="translate(295.217 173.966) rotate(-68.536)"/><rect class="a" width="9.1" height="99.9" transform="translate(318.531 114.656) rotate(-68.536)"/><path class="h" d="M325.2,112.6a1.03,1.03,0,1,1-1.8-1,.962.962,0,0,1,1.2-.4A1.1,1.1,0,0,1,325.2,112.6Z"/><path class="h" d="M329.1,114.2a1.03,1.03,0,1,1-1.8-1,.962.962,0,0,1,1.2-.4A1.066,1.066,0,0,1,329.1,114.2Z"/><path class="h" d="M333,115.7a1.03,1.03,0,1,1-1.8-1,.962.962,0,0,1,1.2-.4A1.019,1.019,0,0,1,333,115.7Z"/><rect class="d" width="35.8" height="14.2" transform="translate(310.985 159.712) rotate(-68.536)"/><rect class="b" width="35.8" height="14.2" transform="translate(331.463 167.785) rotate(-68.536)"/><rect class="k" width="35.8" height="14.2" transform="translate(351.847 175.82) rotate(-68.536)"/><rect class="e" width="35.8" height="14.2" transform="translate(372.194 184.049) rotate(-68.536)"/><rect class="d" width="8.2" height="86.3" transform="translate(304.998 170.4) rotate(-68.536)"/><path class="j" d="M379.8,198l-1.8,9.8,2.4-2,1.2,5.8,2-.4-1.3-5.8,3,.7Z"/><path class="j" d="M388.1,210.5s.2-.4.5-1.2.8-2,1.4-3.6c1.2-3.2,3.1-7.8,5.3-13.7,4.6-11.8,11.3-28.8,19.3-49.4l.1.2-92.9-36.5h0l.3-.1c-9.6,24.3-18.7,47.5-26.7,67.9l-.1-.3,67,26.4,19.1,7.5,5.1,2,1.3.5-1.3-.5-5-2-19.1-7.4L295.2,174H295l.1-.2c8.1-20.5,17.1-43.5,26.7-67.9l.1-.2.2.1L415,142.4l.2.1-.1.2c-8.1,20.6-14.8,37.6-19.5,49.4-2.3,5.9-4.1,10.5-5.4,13.6-.6,1.6-1.1,2.8-1.4,3.6A5.757,5.757,0,0,1,388.1,210.5Z"/><path class="d" d="M216.6,233.3l25.1-3.7-12-17-6.4.4a11.406,11.406,0,0,0-9.9,6.9h0a11.046,11.046,0,0,0-.7,6.7Z"/><path class="m" d="M216.6,233.3l25.1-3.7-12-17-6.4.4a11.406,11.406,0,0,0-9.9,6.9h0a11.046,11.046,0,0,0-.7,6.7Z"/><path class="i" d="M324.6,261.2c.3.7.5,1.6.8,2.6a12.412,12.412,0,0,1,.3,2.7,9.6,9.6,0,0,1-.6,3.3c-.4,1,.5,1.9,1.4,1.4s2-3.1,2-6.4,3.3.7,4.6,2.1,5.4,5.7,6.2,5.7c1.1-.1,1.2-1.3-.1-2.7s-4.9-5.9-4.1-6.5,7.1,6.8,7.1,6.8,1.1,1.8,2,1.1c1.7-1.3-5.6-8.7-6.4-9.3-.5-.5.3-1.2.9-.7s6.2,7.5,7.9,6.3c1.3-1-6-6.1-6.4-8.2s5.2,4.5,6.4,3.5c.5-.4.8-.7-3-4-1.8-1.6-8.7-6.4-8.7-6.4l-20.6-59.1-15.9,9.1Z"/><path class="i" d="M201.8,149.4l-23.1-27.5h0c-.3-.9-.7-1.9-1.1-2.8a8.619,8.619,0,0,0-5.4-4.5c-1.5-.3-3.1-.2-4.3-1.1-.5-.4-.9-1-1.4-1.4a1.267,1.267,0,0,0-1.8.1,1.691,1.691,0,0,0,.1,1.4,13.5,13.5,0,0,0,4,5.2c-2.2.7-5.3,1.7-5.3,1.7s-4.9-5.3-7.4-5.3,2,4.7,2,4.7-4-3.7-5.2-2.7,1.9,3.8,1.9,3.8a5.494,5.494,0,0,0-3.3-.9c-1.1.2-2.1,1.5-1.5,2.5a3.916,3.916,0,0,0,1,.8l6.1,3.4a6.619,6.619,0,0,0,3.3,1.2c3.1.1,5.5-1.8,8.6-1.8,0,0,17.4,36.6,19.1,38.5s40,4.5,40,4.5l22.1-19.1Z"/><path class="a" d="M271,348.8l23.5,10.3L282,388.5c-2.7-1.4-1.8-19-1.8-19l-15.4-6Z"/><g class="n"><path class="h" d="M282.8,359.8a1.221,1.221,0,1,1,2,1.4,1.529,1.529,0,0,1-1.8.3,1.374,1.374,0,0,1-.1-1.8"/></g><path class="o" d="M294.6,359.1l-2.4-.9L281,386.6s0,1.6,1,1.8Z"/><path class="j" d="M279.8,369.9a11.781,11.781,0,0,1,1.3-1.1c.8-.5,1.5-.6,1.5-.8s-.9-.3-1.8.3S279.6,369.9,279.8,369.9Z"/><path class="j" d="M279.7,373.5c.1.1.6-.4,1.5-.6s1.5-.1,1.6-.2-.7-.6-1.7-.3S279.6,373.4,279.7,373.5Z"/><path class="j" d="M282.7,376.8c.1-.1-.5-.6-1.5-.6a1.635,1.635,0,0,0-1.5.7,13.581,13.581,0,0,0,1.5-.1C282,376.8,282.6,377,282.7,376.8Z"/><path class="j" d="M276.4,368.1c.2,0,.2-.8.6-1.5s.9-1.3.8-1.4-.9.3-1.3,1.2A1.92,1.92,0,0,0,276.4,368.1Z"/><path class="j" d="M273.3,365.9c.1,0,.4-.5.6-1.5a11.135,11.135,0,0,0,.2-1.7,3.4,3.4,0,0,0-.1-1,1.421,1.421,0,0,0-.2-.6.67.67,0,0,0-.7-.4c-.3.1-.5.2-.6.5-.1.2-.1.4-.2.6a5.359,5.359,0,0,0,.2,2.8,2.924,2.924,0,0,0,.8,1.4l-.5-1.5a8.752,8.752,0,0,1-.2-1.6,3.4,3.4,0,0,1,.1-1c0-.3.2-.6.3-.6s.1,0,.1.1a.6.6,0,0,1,.1.4,3.4,3.4,0,0,1,.1,1,8.083,8.083,0,0,1-.1,1.6A3.812,3.812,0,0,1,273.3,365.9Z"/><path class="j" d="M273.5,365.8a3.21,3.21,0,0,0-1.3-1,4.8,4.8,0,0,0-1.7-.5h-1a1.149,1.149,0,0,0-1.1.6,1.062,1.062,0,0,0,.1.8,2.181,2.181,0,0,0,.5.4,2.994,2.994,0,0,0,1,.4,5.437,5.437,0,0,0,1.8,0,2.924,2.924,0,0,0,1.4-.8,8.33,8.33,0,0,1-1.5.4,4.329,4.329,0,0,1-1.6-.1,2.01,2.01,0,0,1-.8-.4c-.3-.2-.5-.4-.4-.5a.908.908,0,0,1,.7-.3h1a9.007,9.007,0,0,1,1.6.3C273,365.5,273.5,365.9,273.5,365.8Z"/><path class="a" d="M252.9,389.2l9.7,20.4,3.1,18.4a2.3,2.3,0,0,0,2.7,1.9h.2a2.475,2.475,0,0,0,1.6-1.4c1.8-4.4,8.3-20.8,7.5-22.2-.9-1.7-8.9-22.2-8.9-22.2Z"/><path class="o" d="M268.5,429.8l8.5-25,.4.9a3.973,3.973,0,0,1,.2,2.4c-.6,2.1-2.5,8-7.4,20.3A2.216,2.216,0,0,1,268.5,429.8Z"/><g class="n"><path class="h" d="M269.8,400.1a1.3,1.3,0,0,0,2.2,1.4,1.4,1.4,0,0,0-.4-1.9,1.317,1.317,0,0,0-1.8.6"/></g><path class="j" d="M269.2,418.7a4.921,4.921,0,0,0-5.1-.2,1.317,1.317,0,0,1,.6-.6,3.513,3.513,0,0,1,2-.5,3.606,3.606,0,0,1,2,.6C269.1,418.4,269.2,418.6,269.2,418.7Z"/><path class="j" d="M269,422.1a16.2,16.2,0,0,0-2.2-.1l-2.1.6c-.1-.1.7-1,2.1-1.1A2.977,2.977,0,0,1,269,422.1Z"/><path class="j" d="M270.3,413.9a19.528,19.528,0,0,0-3.4-.3,13.722,13.722,0,0,0-3.4.7,6.232,6.232,0,0,1,6.8-.4Z"/><path class="j" d="M267.9,407.5c0,.1-1.4.2-2.9.8s-2.5,1.5-2.6,1.4a5,5,0,0,1,2.4-1.9A4.209,4.209,0,0,1,267.9,407.5Z"/><path class="j" d="M265.2,401.4a7.59,7.59,0,0,0-5.4,2.7,1.6,1.6,0,0,1,.4-.9,6.549,6.549,0,0,1,1.8-1.5,4.558,4.558,0,0,1,2.3-.5A2.229,2.229,0,0,1,265.2,401.4Z"/><path class="j" d="M261.7,401a2.01,2.01,0,0,1-.4-.8,8.523,8.523,0,0,1-.3-2.3,3.022,3.022,0,0,1,.5-1.6.959.959,0,0,1,1-.3,2.047,2.047,0,0,1,.8.8,3.206,3.206,0,0,1-1.4,3.9,3.617,3.617,0,0,1-4.2-.3,1.231,1.231,0,0,1-.5-1,.849.849,0,0,1,.7-.8,3.284,3.284,0,0,1,1.7.1,5.119,5.119,0,0,1,2.1,1c.5.3.6.5.6.6a13.9,13.9,0,0,0-2.8-1.2,2.556,2.556,0,0,0-1.5,0c-.2.1-.4.2-.4.5a.822.822,0,0,0,.4.6,3.326,3.326,0,0,0,3.7.2A2.905,2.905,0,0,0,263,397a2.651,2.651,0,0,0-.5-.6.661.661,0,0,0-.6.1,2.389,2.389,0,0,0-.5,1.4A8,8,0,0,0,261.7,401Z"/><path class="j" d="M285.7,351.3l-26.7-18,8.8-86.8-25.3-14.8-23.1-5.4s-9.7,20.1-14,33c-9.1,27.4-15.6,37.2-14.1,57,.5,6.3,23.6,22,38.3,30.7a46.71,46.71,0,0,0,.8,5.2c5,22.6,20.3,52.7,20.3,52.7l23.2-10.8-7.5-25.6,7.8,4.5Zm-57.4-56,3.1-13.9c-.7,8.9-1.3,18.1-1.7,26.9a28.58,28.58,0,0,1-1.4-13Z"/><path class="p" d="M250.7,405c-.1-.1-.1-.2-.2-.4l-.5-1.1-1.8-4.2c-1.5-3.7-3.8-9-6.4-15.6s-5.8-14.5-9-23.4c-.8-2.2-1.6-4.5-2.3-6.9-.3-1.2-.7-2.4-.9-3.6-.1-.3-.1-.6-.2-.9l-.1-1-.2-1.9c-.3-2.6-.5-5.2-.7-7.8-.1-1.3-.1-2.7-.2-4a28.045,28.045,0,0,1,0-4.1c.4-10.9,1.3-21.2,2.1-30.6s1.5-17.9,2.1-25,1-12.9,1.2-16.9c.1-2,.2-3.5.2-4.6l.1-1.2V253c0,1.1-.1,2.6-.1,4.6-.2,4-.5,9.8-1.1,16.9s-1.2,15.6-2,25-1.6,19.8-2,30.6c-.1,1.4,0,2.7,0,4s.1,2.7.2,4q.3,4.05.6,7.8l.2,1.9.1.9c.1.3.1.6.2.9.2,1.2.6,2.4.9,3.6.7,2.4,1.5,4.6,2.3,6.9,3.1,8.9,6.3,16.8,8.9,23.5s4.8,12,6.3,15.7c.7,1.8,1.3,3.3,1.7,4.3.2.5.3.8.4,1.1S250.7,405,250.7,405Z"/><path class="p" d="M232.9,248.4a2.826,2.826,0,0,1-.6-.5,4.869,4.869,0,0,1-1.1-1.8,17.855,17.855,0,0,1-1.1-6.9c0-2.3.1-4.7.3-7a14.455,14.455,0,0,1,.4-2.9,14.053,14.053,0,0,1,0,2.9c-.1,1.8-.2,4.2-.2,6.9a22.4,22.4,0,0,0,1,6.8,10.085,10.085,0,0,0,.9,1.8A7.236,7.236,0,0,0,232.9,248.4Z"/><path class="p" d="M222.9,227.7a6.522,6.522,0,0,1,.2,2.4,11.271,11.271,0,0,1-6.4,9.4,6.154,6.154,0,0,1-2.3.7c0-.1.9-.3,2.2-1a11.724,11.724,0,0,0,6.2-9.1C222.9,228.6,222.8,227.7,222.9,227.7Z"/><path class="p" d="M264.4,278.2v.3a2.485,2.485,0,0,1-.1.8q-.15,1.05-.3,3c-.3,2.6-.7,6.3-1.2,10.9-1,9.2-2.5,21.9-4.1,35.9a65.266,65.266,0,0,0,1.3,19.7,60.469,60.469,0,0,0,2.4,8.3c.9,2.6,1.7,5,2.5,7.1,1.5,4.3,2.7,7.9,3.6,10.4.4,1.2.7,2.1,1,2.8l.2.7c0,.1.1.2.1.3a.31.31,0,0,0-.1-.2,2.388,2.388,0,0,1-.3-.7c-.3-.7-.6-1.6-1-2.8l-3.7-10.3c-.8-2.2-1.6-4.6-2.6-7.1a74.364,74.364,0,0,1-2.5-8.4,65.974,65.974,0,0,1-1.4-19.8c1.6-14,3.1-26.7,4.2-35.9.6-4.6,1-8.3,1.4-10.9.2-1.3.3-2.2.4-3,0-.3.1-.6.1-.8C264.4,278.3,264.4,278.3,264.4,278.2Z"/><path class="i" d="M219.4,226.3l4.1-10.5,9.4,13.9-12.5-3.1"/><path class="d" d="M317.3,194.8l-11.1-24.9c-1.3-4-3.8-4.6-5.9-6.9l-27.8-15.7c-20.3-8.3-31.3,19.5-31.3,19.5l-18.4,42c-21.6,7.2-6.3,23.8-6.3,23.8s-5.9-10.2-.1-13.9c6.1-3.9,12.8,6.3,19.2,16,7.6,11.4,32.4,18.8,32.4,18.8,2.9-3.1,2.1-13.8,4.4-19.5.7-1.8,17.9-41.6,17.9-41.6l6.6,16.1s8.5-10,12.7-11.6A48.5,48.5,0,0,1,317.3,194.8Z"/><path class="j" d="M268,212.5c-.3.2-.5.4-.8.6a14.243,14.243,0,0,1-2.5,1.2,18.3,18.3,0,0,1-17.6-2.7c-.7-.6-1.4-1.2-2.1-1.9a2.407,2.407,0,0,1-.6-.8c.1-.1,1,1.1,2.9,2.4a18.636,18.636,0,0,0,17.2,2.7C266.7,213.2,268,212.4,268,212.5Z"/><path class="d" d="M222,173h0l17.1,1.6,27.4-29-16.1-.6-28.7,2.8A76.172,76.172,0,0,1,222,173Z"/><path class="j" d="M245.8,157.7a.764.764,0,0,1-.2.5l-.7,1.5c-.6,1.3-1.5,3.2-2.5,5.4-2.1,4.6-5,11-8,18.1s-5.9,13.5-8,18.1c-1.1,2.3-1.9,4.2-2.5,5.4l-.7,1.5c-.1.2-.2.3-.3.5.1-.2.1-.4.2-.5l.6-1.5,2.4-5.5c2-4.7,4.8-11.1,7.8-18.2s6-13.5,8.2-18.1q1.65-3.45,2.7-5.4a13.7,13.7,0,0,1,.8-1.4C245.6,158,245.7,157.9,245.8,157.7Z"/><path class="j" d="M298.1,166.2c0,.1-1,.6-2.5,1.9a17.526,17.526,0,0,0-2.3,2.4,18.335,18.335,0,0,0-3.6,7.2,12.423,12.423,0,0,0-.4,3.3c-.1,1.9.1,3.1,0,3.1a2.353,2.353,0,0,1-.2-.8,3.4,3.4,0,0,1-.1-1,5.7,5.7,0,0,1-.1-1.3,13.168,13.168,0,0,1,.4-3.4,18.992,18.992,0,0,1,1.4-4,16.284,16.284,0,0,1,2.3-3.5,14.211,14.211,0,0,1,2.5-2.4,10.474,10.474,0,0,1,1.1-.8,4.054,4.054,0,0,1,.9-.5A.846.846,0,0,1,298.1,166.2Z"/><path class="i" d="M302.9,126.3l-16.1,30.1a10.6,10.6,0,0,1-13.7,4.7h0a10.621,10.621,0,0,1-5.3-14l.3-.6,2.8-5.2s-7-4.5-3.7-12.1c2.9-6.7,13.6-25.8,15.9-29.8l13.6,6.1a15.164,15.164,0,0,1,6.5,20.5C303,126.1,303,126.2,302.9,126.3Z"/><path class="q" d="M270.9,141.1a18.967,18.967,0,0,0,11,1.6s-4.7,4.4-11.9.3Z"/><path class="j" d="M276.1,117.1a1.258,1.258,0,0,0,.5,1.6,1.079,1.079,0,0,0,1.5-.5h0a1.258,1.258,0,0,0-.5-1.6,1.079,1.079,0,0,0-1.5.5Z"/><path class="j" d="M276.1,116.1c.1.2,1.1,0,2.3.5s1.7,1.5,1.9,1.4.1-.3-.2-.8a3.182,3.182,0,0,0-1.5-1.3,3.132,3.132,0,0,0-1.9-.2C276.3,115.8,276.1,116,276.1,116.1Z"/><path class="j" d="M286.9,122.4a1.258,1.258,0,0,0,.5,1.6,1.079,1.079,0,0,0,1.5-.5h0a1.1,1.1,0,0,0-.5-1.5.98.98,0,0,0-1.5.4Z"/><path class="j" d="M287.4,121.4c.1.2,1.1,0,2.3.5s1.7,1.5,1.9,1.4.1-.3-.2-.8a3.182,3.182,0,0,0-1.5-1.3,3.132,3.132,0,0,0-1.9-.2C287.6,121.1,287.4,121.3,287.4,121.4Z"/><path class="j" d="M279.4,128.1a6.569,6.569,0,0,0-1.7-1.2c-.3-.2-.5-.3-.5-.6s.3-.5.6-.8l1.9-1.9a36.376,36.376,0,0,0,4.6-5,36.379,36.379,0,0,0-5,4.6l-1.9,1.9a2.589,2.589,0,0,0-.7,1.1,1.08,1.08,0,0,0,.3.7,2.186,2.186,0,0,0,.5.3A5.576,5.576,0,0,0,279.4,128.1Z"/><path class="j" d="M282.4,130.4c-.2-.1-.7,1.2-2.2,1.6s-2.8-.3-2.8-.1.2.4.8.6a3.659,3.659,0,0,0,2.3.2,3.1,3.1,0,0,0,1.8-1.4C282.5,130.8,282.5,130.5,282.4,130.4Z"/><path class="j" d="M289.1,116.8c0,.4,1.2.7,2.5,1.5s2.2,1.6,2.5,1.4c.1-.1.1-.5-.2-1a5.049,5.049,0,0,0-3.8-2.2C289.5,116.5,289.1,116.6,289.1,116.8Z"/><path class="j" d="M278,113c.1.4,1,.4,2,.8s1.7,1,2,.8.1-.4-.1-.8a2.586,2.586,0,0,0-1.4-1.1,3.722,3.722,0,0,0-1.8-.2C278.3,112.6,278,112.8,278,113Z"/><path class="i" d="M297.9,130.9c.2,0,5.9.8,3.4,5.9s-7,1.6-7,1.4S297.9,130.9,297.9,130.9Z"/><path class="q" d="M296.7,136.9a1.238,1.238,0,0,1,.2.3.908.908,0,0,0,.7.3,2.436,2.436,0,0,0,2-1.5,5.732,5.732,0,0,0,.4-1.4,1.209,1.209,0,0,0-.3-1c-.2-.2-.5-.2-.6,0-.1.1-.1.2-.2.2s-.1-.1.1-.3a.52.52,0,0,1,.4-.2.749.749,0,0,1,.5.1,1.217,1.217,0,0,1,.5,1.2,3.167,3.167,0,0,1-.4,1.6,2.651,2.651,0,0,1-2.4,1.6,2.177,2.177,0,0,1-.8-.5A1,1,0,0,1,296.7,136.9Z"/><path class="j" d="M300.8,132a2.936,2.936,0,0,0-3,.2c-.7.6-1.1,1.4-1.8,2a1.975,1.975,0,0,1-2.4.4,1.423,1.423,0,0,1-.5-1.6,5.093,5.093,0,0,1,.7-1.7c1.4-2.3,2.9-4.4,4.1-6.8a13.591,13.591,0,0,0,1.6-7.7,7.551,7.551,0,0,0-4.5-6.1c-1.6-.6-3.5-.4-5.2-.9a6.669,6.669,0,0,1-4.4-4.1,4.129,4.129,0,0,0-.7-1.1c.1-.1.7-1.1,1.3-1.3,4.5-1.5,10.5.2,14.2,3.1a16.572,16.572,0,0,1,6.3,12.3c0,4.7-2.9,9.8-5.7,13.3"/><path class="j" d="M300.8,131.4c1.4-2.4,3.7-4.1,5.4-6.3s3-5.2,1.7-7.7c-.4-.8-1.1-1.6-1.5-2.4a13.734,13.734,0,0,1-.5-2.8,9.79,9.79,0,0,0-4.8-7c-1.8-1-3.8-1.4-5.6-2.3-2.9-1.5-4.9-4.3-8-5.5a3.733,3.733,0,0,0-3.1-.1,1.986,1.986,0,0,0-.9,2.5c0,.1.1.1.1.2a1.636,1.636,0,0,0-2-1.2c-.1,0-.2.1-.3.1a2.432,2.432,0,0,0-1.3,2.4,4.707,4.707,0,0,0,1.1,2.6,13.871,13.871,0,0,0,7.7,5.3l6.9-.5,5.7,4.2,4.2,6.7-7.6,9.9Z"/><path class="a" d="M257.6,92.1a24.4,24.4,0,1,0-33.3,24.2c.2,2.9.4,6.1.4,6.1L246,121s-.1-3.4-.3-6.5A23.915,23.915,0,0,0,257.6,92.1Z"/><path class="j" d="M238.4,121.5v-1.2c0-.8.1-1.9.2-3.4s.3-3.3.6-5.3a38.818,38.818,0,0,1,1.8-6.9,26.4,26.4,0,0,1,1.8-3.8,4.1,4.1,0,0,1,1.6-1.6,2.657,2.657,0,0,1,2.3-.1,1.419,1.419,0,0,1,.8.9,1.483,1.483,0,0,1,0,1.3,3.321,3.321,0,0,1-1.8,1.7,6.84,6.84,0,0,1-8.7-3.8v-.1a4.541,4.541,0,0,1-.3-2.8,2.232,2.232,0,0,1,2.1-1.8,1.561,1.561,0,0,1,1.3.8,1.971,1.971,0,0,1,.3,1.5,4.208,4.208,0,0,1-1.6,2.5,7.219,7.219,0,0,1-5.6,2,6.245,6.245,0,0,1-4.9-3.2,4.247,4.247,0,0,1-.4-2.9,1.812,1.812,0,0,1,2.2-1.2c.1,0,.2.1.3.1a2.66,2.66,0,0,1,1.1,1,5.783,5.783,0,0,1,.5,1.4,6.658,6.658,0,0,1-.2,2.8,7.291,7.291,0,0,1-8.2,5.3,4.3,4.3,0,0,1-2.3-1,1.973,1.973,0,0,1-.3-2.3,1.524,1.524,0,0,1,1.1-.6,1.721,1.721,0,0,1,1.2.2,3.539,3.539,0,0,1,1.6,1.6c.7,1.3,1.3,2.5,1.9,3.7,2.3,4.8,3.9,8.7,5,11.5A23.227,23.227,0,0,1,233,121a3.385,3.385,0,0,0,.3.8c0,.1.1.2.1.3l-.1-.3-.3-.8-1.3-3.2c-1.1-2.7-2.8-6.7-5.1-11.4-.6-1.2-1.2-2.4-1.9-3.7a3.122,3.122,0,0,0-1.5-1.5,1.508,1.508,0,0,0-1.9.4,1.529,1.529,0,0,0,.3,2,3.333,3.333,0,0,0,2.1.9,7.254,7.254,0,0,0,4.8-1,6.855,6.855,0,0,0,3-4.1,8.222,8.222,0,0,0,.2-2.7,2.965,2.965,0,0,0-1.4-2.2,1.483,1.483,0,0,0-1.3,0,1.589,1.589,0,0,0-.8,1,3.2,3.2,0,0,0,.3,2.7,6.088,6.088,0,0,0,4.7,3,7.234,7.234,0,0,0,5.3-1.9,4.254,4.254,0,0,0,1.4-2.3,1.592,1.592,0,0,0-.3-1.3,1.149,1.149,0,0,0-1.1-.6,1.845,1.845,0,0,0-1.2.5,2.384,2.384,0,0,0-.6,1.1,5.66,5.66,0,0,0,.3,2.6,6.486,6.486,0,0,0,8.3,3.8h.1a3.123,3.123,0,0,0,1.6-1.6,1.356,1.356,0,0,0-.7-1.8,2.238,2.238,0,0,0-2.1.1,5.356,5.356,0,0,0-1.5,1.5,25.282,25.282,0,0,0-1.8,3.7,38.819,38.819,0,0,0-1.8,6.9c-.4,2.1-.5,3.9-.7,5.3s-.2,2.6-.3,3.4c0,.4-.1.7-.1.9S238.4,121.5,238.4,121.5Z"/><path class="j" d="M244.7,125.2l-18.3,1.2a1.435,1.435,0,0,1-1.5-1.3h0a1.435,1.435,0,0,1,1.3-1.5l18.3-1.2a1.367,1.367,0,0,1,1.5,1.3h0A1.435,1.435,0,0,1,244.7,125.2Z"/><path class="j" d="M244.8,126.4l-18.3,1.2a1.4,1.4,0,0,0,.2,2.8l2-.1,3,4.9a1.545,1.545,0,0,0,1.6.8l6.5-.4a1.923,1.923,0,0,0,1.5-1.1l2.3-5.2,1.4-.1a1.342,1.342,0,0,0,1.2-1.5,1.408,1.408,0,0,0-1.4-1.3Z"/><g class="r"><path class="h" d="M216.7,79.2a18.905,18.905,0,0,1,4.7-3.6,11.981,11.981,0,0,1,3.6-1.3c.9-.2,1.4-.1,1.5.1.1.4-1.7,1.2-4,3a20.07,20.07,0,0,0-7.9,20.2c.5,2.9,1.3,4.7,1,5q-.3.15-1.2-.9a11.63,11.63,0,0,1-1.8-3.5,19.1,19.1,0,0,1-1-5.8,19.919,19.919,0,0,1,1.3-7.2"/></g><g class="r"><path class="h" d="M232.4,75.1c-1.5.1-2.9-.3-3.1-1.1-.1-.4.2-.8.7-1.2a4.994,4.994,0,0,1,4.6-.3c.6.3.9.7.8,1.1"/></g><path class="p" d="M241,134.9c-.4-.1-.9-.2-1.3-.3a10.8,10.8,0,0,0-3.1-.2,11.136,11.136,0,0,0-3,.8c-.7.3-1.2.6-1.2.5a2.589,2.589,0,0,1,1.1-.7,8.617,8.617,0,0,1,6.3-.6A3.08,3.08,0,0,1,241,134.9Z"/><path class="p" d="M243.6,129.3a65.8,65.8,0,0,1-7.4.6c-4.1.2-7.4.4-7.4.3a65.8,65.8,0,0,1,7.4-.6C240.3,129.4,243.6,129.2,243.6,129.3Z"/><path class="p" d="M242.6,131.5l-1.8.3c-1.1.1-2.6.3-4.4.4s-3.3.2-4.4.2a5.437,5.437,0,0,1-1.8,0,11.018,11.018,0,0,1,1.8-.2l4.4-.3,4.4-.4Z"/><path class="j" d="M367.7,312.7l-13.8,2.6-.9,4.1a7.394,7.394,0,0,0-.2,3.3,2.577,2.577,0,0,0,1.8,2.2,13.408,13.408,0,0,0,4,0l.2,1.1-13.1,2.4-.2-1.1a5.736,5.736,0,0,0,3.1-2.4,22.708,22.708,0,0,0,2.2-6.5l8.1-33.9.6-.1,20.2,29.5c1.9,2.8,3.4,4.5,4.4,5.1a4.4,4.4,0,0,0,3,.5l.2,1.1-19,3.6-.2-1.1.8-.1a5.949,5.949,0,0,0,3.1-1.2,1.485,1.485,0,0,0,.4-1.4,3,3,0,0,0-.4-1,12.692,12.692,0,0,0-1.3-2Zm-1.4-1.9-8.4-12.4L354.4,313Z"/><path class="j" d="M391.8,325.1a1.929,1.929,0,0,1,1-.3l.4-.1-.1.1c-.1-.4-.1-.7,0-.7s.2.3.3.7v.1l-.6.1A3.4,3.4,0,0,1,391.8,325.1Z"/><path class="j" d="M388.8,325.7c0-.1.3-.2.7-.3s.7-.1.7,0-.3.2-.7.3Z"/><path class="j" d="M386,326.2c0-.1.3-.2.7-.3s.7-.1.7,0-.3.2-.7.3C386.4,326.3,386,326.3,386,326.2Z"/><path class="j" d="M383.2,326.8c0-.1.3-.2.7-.3s.7-.1.7,0-.3.2-.7.3Z"/><path class="j" d="M380.3,327.3c0-.1.3-.2.7-.3s.7-.1.7,0-.3.2-.7.3S380.3,327.4,380.3,327.3Z"/><path class="j" d="M377.4,327.9c0-.1.3-.2.7-.3s.7-.1.7,0-.3.2-.7.3C377.8,328,377.4,328,377.4,327.9Z"/><path class="j" d="M374.6,328.5c0-.1.3-.2.7-.3s.7-.1.7,0-.3.2-.7.3Z"/><path class="j" d="M371.7,329c0-.1.3-.2.7-.3s.7-.1.7,0-.3.2-.7.3S371.7,329.1,371.7,329Z"/><path class="j" d="M368.8,329.6c0-.1.3-.2.7-.3s.7-.1.7,0-.3.2-.7.3A1.488,1.488,0,0,1,368.8,329.6Z"/><path class="j" d="M366,330.1c0-.1.3-.2.7-.3s.7-.1.7,0-.3.2-.7.3S366,330.2,366,330.1Z"/><path class="j" d="M363.1,330.7c0-.1.3-.2.7-.3s.7-.1.7,0-.3.2-.7.3C363.5,330.8,363.1,330.8,363.1,330.7Z"/><path class="j" d="M360.3,331.3c0-.1.3-.2.7-.3s.7-.1.7,0-.3.2-.7.3Z"/><path class="j" d="M357.4,331.8c0-.1.3-.2.7-.3s.7-.1.7,0-.3.2-.7.3C357.8,331.9,357.4,331.9,357.4,331.8Z"/><path class="j" d="M354.5,332.4c0-.1.3-.2.7-.3s.7-.1.7,0-.3.2-.7.3Z"/><path class="j" d="M351.7,332.9c0-.1.3-.2.7-.3s.7-.1.7,0-.3.2-.7.3S351.7,333,351.7,332.9Z"/><path class="j" d="M348.8,333.5c0-.1.3-.2.7-.3s.7-.1.7,0-.3.2-.7.3C349.2,333.5,348.8,333.6,348.8,333.5Z"/><path class="j" d="M346,334c0-.1.3-.2.7-.3s.7-.1.7,0-.3.2-.7.3S346,334.1,346,334Z"/><path class="j" d="M343.1,334.6c0-.1.3-.2.7-.3s.7-.1.7,0-.3.2-.7.3S343.1,334.7,343.1,334.6Z"/><path class="j" d="M341.8,332.8c.1,0,.2.3.3.7s.1.7,0,.7-.2-.3-.3-.7C341.7,333.2,341.7,332.8,341.8,332.8Z"/><path class="j" d="M341.3,329.9c.1,0,.2.3.3.7s.1.7,0,.7-.2-.3-.3-.7A.82.82,0,0,1,341.3,329.9Z"/><path class="j" d="M340.7,327.1c.1,0,.2.3.3.7s.1.7,0,.7-.2-.3-.3-.7S340.6,327.1,340.7,327.1Z"/><path class="j" d="M340.1,324.2c.1,0,.2.3.3.7s.1.7,0,.7-.2-.3-.3-.7Z"/><path class="j" d="M339.6,321.4c.1,0,.2.3.3.7s.1.7,0,.7-.2-.3-.3-.7S339.5,321.4,339.6,321.4Z"/><path class="j" d="M339,318.5c.1,0,.2.3.3.7s.1.7,0,.7-.2-.3-.3-.7Z"/><path class="j" d="M338.5,315.6c.1,0,.2.3.3.7s.1.7,0,.7-.2-.3-.3-.7A.82.82,0,0,1,338.5,315.6Z"/><path class="j" d="M337.9,312.8c.1,0,.2.3.3.7s.1.7,0,.7-.2-.3-.3-.7S337.8,312.8,337.9,312.8Z"/><path class="j" d="M337.3,309.9c.1,0,.2.3.3.7s.1.7,0,.7-.2-.3-.3-.7Z"/><path class="j" d="M336.8,307.1c.1,0,.2.3.3.7s.1.7,0,.7-.2-.3-.3-.7S336.7,307.1,336.8,307.1Z"/><path class="j" d="M336.2,304.2c.1,0,.2.3.3.7s.1.7,0,.7-.2-.3-.3-.7Z"/><path class="j" d="M335.7,301.3c.1,0,.2.3.3.7s.1.7,0,.7-.2-.3-.3-.7A.82.82,0,0,1,335.7,301.3Z"/><path class="j" d="M335.1,298.5c.1,0,.2.3.3.7s.1.7,0,.7-.2-.3-.3-.7S335,298.5,335.1,298.5Z"/><path class="j" d="M334.6,295.6c.1,0,.2.3.3.7s.1.7,0,.7-.2-.3-.3-.7C334.5,296,334.5,295.6,334.6,295.6Z"/><path class="j" d="M334,292.8c.1,0,.2.3.3.7s.1.7,0,.7-.2-.3-.3-.7S333.9,292.8,334,292.8Z"/><path class="j" d="M333.4,289.9c.1,0,.2.3.3.7s.1.7,0,.7-.2-.3-.3-.7Z"/><path class="j" d="M332.9,287c.1,0,.2.3.3.7s.1.7,0,.7-.2-.3-.3-.7A.82.82,0,0,1,332.9,287Z"/><path class="j" d="M332.3,284.2c.1,0,.2.3.3.7s.1.7,0,.7-.2-.3-.3-.7C332.3,284.5,332.2,284.2,332.3,284.2Z"/><path class="j" d="M334.7,283.3c0,.1-.3.2-.7.3s-.7.1-.7,0,.3-.2.7-.3Z"/><path class="j" d="M337.7,282.8c0,.1-.3.2-.7.3s-.7.1-.7,0,.3-.2.7-.3A.82.82,0,0,1,337.7,282.8Z"/><path class="j" d="M340.5,282.2c0,.1-.3.2-.7.3s-.7.1-.7,0,.3-.2.7-.3C340.1,282.1,340.5,282.1,340.5,282.2Z"/><path class="j" d="M343.3,281.6c0,.1-.3.2-.7.3s-.7.1-.7,0,.3-.2.7-.3Z"/><ellipse class="j" cx="0.7" cy="0.1" rx="0.7" ry="0.1" transform="translate(344.794 281.25) rotate(-11.046)"/><path class="j" d="M349.1,280.5c0,.1-.3.2-.7.3s-.7.1-.7,0,.3-.2.7-.3Z"/><path class="j" d="M351.9,280c0,.1-.3.2-.7.3s-.7.1-.7,0,.3-.2.7-.3S351.9,279.9,351.9,280Z"/><ellipse class="j" cx="0.7" cy="0.1" rx="0.7" ry="0.1" transform="translate(353.389 279.546) rotate(-11.046)"/><path class="j" d="M357.6,278.9c0,.1-.3.2-.7.3s-.7.1-.7,0,.3-.2.7-.3S357.6,278.8,357.6,278.9Z"/><path class="j" d="M360.5,278.3c0,.1-.3.2-.7.3s-.7.1-.7,0,.3-.2.7-.3S360.5,278.2,360.5,278.3Z"/><ellipse class="j" cx="0.7" cy="0.1" rx="0.7" ry="0.1" transform="translate(362.003 277.942) rotate(-11.046)"/><path class="j" d="M366.2,277.2c0,.1-.3.2-.7.3s-.7.1-.7,0,.3-.2.7-.3S366.2,277.1,366.2,277.2Z"/><path class="j" d="M369.1,276.6c0,.1-.3.2-.7.3s-.7.1-.7,0,.3-.2.7-.3A1.361,1.361,0,0,1,369.1,276.6Z"/><ellipse class="j" cx="0.7" cy="0.1" rx="0.7" ry="0.1" transform="translate(370.501 276.26) rotate(-11.046)"/><path class="j" d="M374.8,275.5c0,.1-.3.2-.7.3s-.7.1-.7,0,.3-.2.7-.3S374.8,275.4,374.8,275.5Z"/><path class="j" d="M377.7,274.9c0,.1-.3.2-.7.3s-.7.1-.7,0,.3-.2.7-.3Z"/><ellipse class="j" cx="0.7" cy="0.1" rx="0.7" ry="0.1" transform="translate(379.096 274.556) rotate(-11.046)"/><path class="j" d="M383.2,274a.349.349,0,0,1-.1-.2l.1.2c-.2-.1-.4,0-.5,0-.4.1-.7.1-.7,0s.3-.2.7-.3a1.087,1.087,0,0,1,.5-.1h.1v.1C383.3,274,383.3,274,383.2,274Z"/><ellipse class="j" cx="0.1" cy="0.7" rx="0.1" ry="0.7" transform="translate(383.474 275.543) rotate(-11.046)"/><path class="j" d="M384.4,279.8c-.1,0-.2-.3-.3-.7s-.1-.7,0-.7.2.3.3.7Z"/><path class="j" d="M384.9,282.6c-.1,0-.2-.3-.3-.7s-.1-.7,0-.7.2.3.3.7S385,282.6,384.9,282.6Z"/><ellipse class="j" cx="0.1" cy="0.7" rx="0.1" ry="0.7" transform="translate(385.08 284.157) rotate(-11.046)"/><path class="j" d="M386,288.4c-.1,0-.2-.3-.3-.7s-.1-.7,0-.7.2.3.3.7A.82.82,0,0,1,386,288.4Z"/><path class="j" d="M386.6,291.2c-.1,0-.2-.3-.3-.7s-.1-.7,0-.7.2.3.3.7S386.7,291.2,386.6,291.2Z"/><ellipse class="j" cx="0.1" cy="0.7" rx="0.1" ry="0.7" transform="translate(386.782 292.753) rotate(-11.046)"/><path class="j" d="M387.7,296.9c-.1,0-.2-.3-.3-.7s-.1-.7,0-.7.2.3.3.7S387.8,296.9,387.7,296.9Z"/><path class="j" d="M388.3,299.8c-.1,0-.2-.3-.3-.7s-.1-.7,0-.7.2.3.3.7Z"/><ellipse class="j" cx="0.1" cy="0.7" rx="0.1" ry="0.7" transform="translate(388.464 301.25) rotate(-11.046)"/><path class="j" d="M389.4,305.6c-.1,0-.2-.3-.3-.7s-.1-.7,0-.7.2.3.3.7A.82.82,0,0,1,389.4,305.6Z"/><path class="j" d="M390,308.4c-.1,0-.2-.3-.3-.7s-.1-.7,0-.7.2.3.3.7A1.361,1.361,0,0,1,390,308.4Z"/><ellipse class="j" cx="0.1" cy="0.7" rx="0.1" ry="0.7" transform="translate(390.168 309.845) rotate(-11.046)"/><ellipse class="j" cx="0.1" cy="0.7" rx="0.1" ry="0.7" transform="translate(390.675 312.756) rotate(-11.046)"/><path class="j" d="M391.6,317c-.1,0-.2-.3-.3-.7s-.1-.7,0-.7.2.3.3.7C391.7,316.6,391.7,317,391.6,317Z"/><ellipse class="j" cx="0.1" cy="0.7" rx="0.1" ry="0.7" transform="translate(391.771 318.46) rotate(-11.046)"/><ellipse class="j" cx="0.1" cy="0.7" rx="0.1" ry="0.7" transform="translate(392.379 321.351) rotate(-11.046)"/><rect class="j" width="3.9" height="3.9" transform="translate(390.776 322.831) rotate(-11.046)"/><rect class="j" width="3.8" height="3.9" transform="translate(339.978 333.317) rotate(-11.046)"/><rect class="j" width="3.9" height="3.8" transform="translate(380.878 272.025) rotate(-11.046)"/><rect class="j" width="3.8" height="3.8" transform="translate(329.974 282.325) rotate(-11.046)"/><path class="b" d="M357,223.1l-2.4-.6-3.3-8.7,1.3-4.8s-3.7-1.2-4.9,5.2-1.3,4.7-1.3,4.7-7.9-2-8.8-1.5c-.6.4-2.9,8.2-4.1,12.4a4.746,4.746,0,0,0,2,5.5c.3.1.5.3.8.3,2,.5,12.5,1.6,12.5,1.6l4.2,1.1Z"/><path class="b" d="M364.3,223.6l-5.8,16.1-4.2-1.1,4.3-16.2Z"/><path class="p" d="M381.7,367l-29.3,64.9H224.8l.5-3.3,44.2-.7,22.3-60.7Z"/><path class="b" d="M323.3,396.4a5.062,5.062,0,0,1,6.8,2,5.359,5.359,0,0,1,.5,1.1,4.88,4.88,0,0,1-3.8,5.7,2.2,2.2,0,0,1-.8.1,4.66,4.66,0,0,1-4.7-3.1c-.6-1.9,0-4.8,2-5.8"/><path class="b" d="M140.5,327.8l-4.2-31.3,38.4-5.2,4.2,31.2Z"/><path class="j" d="M136.5,296.5l.5-.1,2.1-.3,7.8-1.1,27.8-3.9h.1v.1c1.2,9.3,2.7,19.9,4.1,31.2h0v.1h-.1l-38.4,5.3h-.1v-.1c-1.3-9.5-2.2-17.3-3-22.7-.4-2.7-.6-4.9-.8-6.3-.1-.7-.1-1.3-.2-1.7a2.8,2.8,0,0,1-.1-.6l.1.6c.1.4.1.9.2,1.7q.3,2.25.9,6.3c.7,5.4,1.8,13.2,3,22.6l-.1-.1,38.4-5.3-.1.1h0c-1.5-11.3-2.9-21.9-4.1-31.2l.1.1L146.9,295l-7.9,1-2.1.3-.4.2h0Z"/><path class="s" d="M141.6,325.6,138,298.3l35.6-4.9,3.7,27.3Z"/><path class="d" d="M141.6,325.6l8.6-13.4,6,4.9,6.4-11.6,14.7,15.2Z"/><path class="d" d="M153.7,301.7h0a2.878,2.878,0,1,1-2.4,3.2A2.838,2.838,0,0,1,153.7,301.7Z"/><path class="b" d="M96.7,320.7l-6.9-47.1,57.9-8.8,6.9,47.1Z"/><path class="j" d="M90.1,273.6l.8-.1L94,273l11.8-1.8,41.9-6.4h.1v.2c2.1,14,4.4,30.1,6.9,47.1h0v.2h-.2l-57.9,8.8h-.1V321l-5-34.2c-.6-4.1-1-7.3-1.4-9.5a11.815,11.815,0,0,0-.4-2.5,5.951,5.951,0,0,1-.1-.8,3.139,3.139,0,0,1,.1.9c.1.6.2,1.4.4,2.5.3,2.2.8,5.4,1.4,9.5,1.2,8.2,3,19.9,5.1,34.1l-.2-.1,57.9-8.8-.1.2h0c-2.5-17-4.8-33-6.9-47.1l.2.1-41.8,6.2L94,273l-3.1.5-.8.1h0Z"/><path class="s" d="M98.3,317.4l-6-41.1,53.8-8.2,6.1,41.1Z"/><path class="d" d="M98.3,317.4l12.9-20.5,9.1,7.4,9.3-17.8,22.6,22.7Z"/><path class="d" d="M112.6,285.9a4.4,4.4,0,0,1,3.6-5,4.349,4.349,0,0,1,1.3,8.6,4.177,4.177,0,0,1-4.9-3.6Z"/><path class="l" d="M99.3,225.6l10.3,10.7a1.85,1.85,0,0,0,2.5.1l40.8-39.2a1.751,1.751,0,0,0,0-2.5L142.6,184a1.85,1.85,0,0,0-2.5-.1L99.3,223.1A1.751,1.751,0,0,0,99.3,225.6Z"/><path class="j" d="M99.3,225.6l-.3-.3a2.016,2.016,0,0,1-.3-1.1,1.135,1.135,0,0,1,.3-.8c.2-.3.5-.5.7-.8l1.9-1.8,11.9-11.5,17.6-17,5.1-4.9,2.6-2.5c.5-.4.9-.9,1.4-1.3a1.877,1.877,0,0,1,1.9-.2,1.555,1.555,0,0,1,.8.6l.7.7,1.3,1.4,2.7,2.8,5.5,5.7a1.838,1.838,0,0,1,.4,2,2.361,2.361,0,0,1-.6.9l-.7.7-2.8,2.7-5.5,5.3-10.5,10c-6.7,6.4-12.6,12.1-17.7,16.9l-3.6,3.4a1.807,1.807,0,0,1-2.2.2,3.043,3.043,0,0,1-.8-.8l-.7-.8-4.9-5.1-3.1-3.3a8.175,8.175,0,0,0-.8-.9l-.3-.2.3.3.8.8,3.1,3.2,4.9,5.1.7.8a2.7,2.7,0,0,0,.8.7,1.657,1.657,0,0,0,2-.2l3.6-3.5,17.6-17,10.4-10,5.5-5.3,2.8-2.7.7-.7a1.607,1.607,0,0,0,.2-2.3l-.1-.1-5.5-5.7-2.7-2.8-1.3-1.4-.7-.7a1.794,1.794,0,0,0-.7-.5,1.566,1.566,0,0,0-1.6.2,15.935,15.935,0,0,0-1.3,1.3l-2.6,2.5-5.1,4.9-17.7,16.9-11.9,11.4-1.9,1.8a4.62,4.62,0,0,0-.7.7,1.136,1.136,0,0,0-.3.8,1.978,1.978,0,0,0,.2,1.1A5.757,5.757,0,0,1,99.3,225.6Z"/><rect class="a" width="10.3" height="15.1" transform="matrix(0.717, -0.697, 0.697, 0.717, 133.431, 192.567)"/><rect class="a" width="10.3" height="15.1" transform="matrix(0.717, -0.697, 0.697, 0.717, 109.33, 216.039)"/><rect class="a" width="10.3" height="15.1" transform="matrix(0.717, -0.697, 0.697, 0.717, 117.374, 208.125)"/><rect class="a" width="10.3" height="15.1" transform="matrix(0.717, -0.697, 0.697, 0.717, 125.423, 200.355)"/><g class="g"><rect width="10.3" height="15.1" transform="matrix(0.717, -0.697, 0.697, 0.717, 133.431, 192.567)"/></g><g class="t"><rect width="10.3" height="15.1" transform="matrix(0.717, -0.697, 0.697, 0.717, 109.33, 216.039)"/></g><g class="n"><rect width="10.3" height="15.1" transform="matrix(0.717, -0.697, 0.697, 0.717, 117.374, 208.125)"/></g><g class="u"><rect width="10.3" height="15.1" transform="matrix(0.717, -0.697, 0.697, 0.717, 125.423, 200.355)"/></g><path class="l" d="M100,223.8l7.2,13a1.7,1.7,0,0,0,2.4.7l48.8-27a1.779,1.779,0,0,0,.6-2.4l-7.2-12.9a1.7,1.7,0,0,0-2.4-.7l-48.8,27A1.6,1.6,0,0,0,100,223.8Z"/><path class="j" d="M100,223.8c-.1-.1-.1-.2-.2-.4a2.438,2.438,0,0,1,0-1.2,1.794,1.794,0,0,1,.5-.7,4.054,4.054,0,0,1,.9-.5l2.2-1.3,14.3-7.9,21.2-11.7,6.1-3.4,3.2-1.7.8-.4a3.552,3.552,0,0,1,.9-.4,1.9,1.9,0,0,1,1.9.5,2.177,2.177,0,0,1,.5.8l.5.8c.3.6.6,1.1.9,1.6l1.8,3.3c1.2,2.2,2.5,4.5,3.8,6.8a1.822,1.822,0,0,1-.1,2,2.7,2.7,0,0,1-.8.7l-.9.5L154,213l-6.6,3.6-12.5,6.9-21.2,11.7c-1.5.8-2.9,1.6-4.3,2.4a1.719,1.719,0,0,1-2.1-.6c-.4-.6-.7-1.3-1.1-1.9-1.3-2.4-2.4-4.5-3.4-6.2s-1.6-3-2.1-3.9l-.5-1c-.2-.1-.2-.3-.2-.2a1.238,1.238,0,0,1,.2.3,6.416,6.416,0,0,0,.6,1c.5.9,1.2,2.2,2.2,3.9l3.4,6.1c.3.6.7,1.2,1,1.8a1.569,1.569,0,0,0,1.9.5c1.3-.7,2.8-1.5,4.3-2.4l21.2-11.7,12.5-6.9,6.6-3.7,3.4-1.9.9-.5a1.344,1.344,0,0,0,.7-.6,1.718,1.718,0,0,0,0-1.7l-3.8-6.8-1.8-3.3-.9-1.6-.5-.8a1.794,1.794,0,0,0-.5-.7,1.555,1.555,0,0,0-1.6-.4,2.994,2.994,0,0,0-.8.4l-.8.4-3.2,1.7-6.1,3.4L117.7,212l-14.3,8-2.2,1.2a4.054,4.054,0,0,0-.9.5,1.794,1.794,0,0,0-.5.7,2.045,2.045,0,0,0,0,1.1A1.238,1.238,0,0,0,100,223.8Z"/><rect class="a" width="10.3" height="15.1" transform="translate(140.078 201.796) rotate(-29.282)"/><rect class="a" width="10.3" height="15.1" transform="translate(110.789 218.258) rotate(-29.282)"/><rect class="a" width="10.3" height="15.1" transform="translate(120.584 212.758) rotate(-29.282)"/><rect class="a" width="10.3" height="15.1" transform="translate(130.384 207.261) rotate(-29.282)"/><g class="t"><rect width="10.3" height="15.1" transform="translate(140.078 201.796) rotate(-29.282)"/></g><g class="r"><rect width="10.3" height="15.1" transform="translate(110.789 218.258) rotate(-29.282)"/></g><g class="f"><rect width="10.3" height="15.1" transform="translate(120.584 212.758) rotate(-29.282)"/></g><g class="v"><rect width="10.3" height="15.1" transform="translate(130.384 207.261) rotate(-29.282)"/></g><path class="l" d="M98.2,223.7l3.2,14.5a1.79,1.79,0,0,0,2.1,1.4h0l57.2-12.5a1.743,1.743,0,0,0,1.4-2.1h0l-3.2-14.5a1.79,1.79,0,0,0-2.1-1.4h0L99.6,221.6a1.656,1.656,0,0,0-1.4,2.1Z"/><path class="j" d="M98.2,223.7c0-.1-.1-.3-.1-.4a1.5,1.5,0,0,1,.4-1.1,1.794,1.794,0,0,1,.7-.5c.3-.1.7-.2,1-.3l2.6-.6,16.5-3.7,24.6-5.4,7.1-1.6,3.7-.8,1.9-.4a3.4,3.4,0,0,1,1-.1,1.623,1.623,0,0,1,.9.5,1.456,1.456,0,0,1,.6.9c.1.3.1.6.2,1,.1.6.3,1.3.4,1.9.3,1.3.6,2.6.8,3.9.6,2.6,1.1,5.2,1.7,7.9a1.976,1.976,0,0,1-.7,2,1.777,1.777,0,0,1-1,.4l-1,.2-3.9.9-7.7,1.7-14.5,3.2-24.6,5.3-5,1.1c-.2,0-.4.1-.6.1a2.239,2.239,0,0,1-1.7-.6,2.355,2.355,0,0,1-.5-1c-.1-.4-.1-.7-.2-1.1-.6-2.8-1.1-5.2-1.5-7.1s-.7-3.5-1-4.5a7.385,7.385,0,0,1-.2-1.2c.1-.6.1-.7.1-.6a.584.584,0,0,1,.1.4l.3,1.2c.2,1,.6,2.6,1,4.5s1,4.3,1.6,7.1a3.6,3.6,0,0,1,.2,1.1,1.777,1.777,0,0,0,.4,1,1.193,1.193,0,0,0,.9.5,1.986,1.986,0,0,0,1.1-.1l5-1.1,24.6-5.4,14.5-3.2,7.7-1.7,3.9-.9,1-.2a1.8,1.8,0,0,0,.9-.4,1.751,1.751,0,0,0,.6-1.7c-.6-2.7-1.2-5.3-1.7-7.9-.3-1.3-.6-2.6-.8-3.9-.1-.6-.3-1.3-.4-1.9-.1-.3-.1-.6-.2-.9a1.794,1.794,0,0,0-.5-.7,1.747,1.747,0,0,0-1.7-.3l-1.9.4-3.7.8-7.1,1.5-24.6,5.3-16.6,3.6-2.6.6a3.81,3.81,0,0,0-1,.3,1.794,1.794,0,0,0-.7.5,2.1,2.1,0,0,0-.4,1.1A1,1,0,0,1,98.2,223.7Z"/><path class="j" d="M98.1,223.7c0,.1-.7,0-2,.2a9.777,9.777,0,0,0-4.8,2.3A10,10,0,0,0,97,243.8a9.923,9.923,0,0,0,9.5-5,10.3,10.3,0,0,0,1.4-5.1v-.9a1.083,1.083,0,0,0-.1-.6v-.5a.9.9,0,0,1,.1.5c0,.2.1.4.1.6s.1.5.1.9a9.715,9.715,0,0,1-1.3,5.3,9.884,9.884,0,0,1-6.3,5,10.457,10.457,0,0,1-9.6-2,8.6,8.6,0,0,1-1.8-2A10.447,10.447,0,0,1,91,225.8a10.706,10.706,0,0,1,5-2.2,7.568,7.568,0,0,1,1.5-.1C97.8,223.6,97.9,223.7,98.1,223.7Z"/><path class="j" d="M109.4,229.5a2.256,2.256,0,1,1-2.7-1.7A2.268,2.268,0,0,1,109.4,229.5Z"/><rect class="a" width="10.3" height="15.1" transform="translate(147.106 213.182) rotate(-12.328)"/><rect class="a" width="10.3" height="15.1" transform="translate(136.187 215.477) rotate(-12.328)"/><rect class="a" width="10.3" height="15.1" transform="translate(125.187 217.88) rotate(-12.328)"/><rect class="a" width="10.3" height="15.1" transform="translate(114.188 220.284) rotate(-12.328)"/><g class="g"><rect class="h" width="10.3" height="15.1" transform="translate(114.188 220.284) rotate(-12.328)"/></g><g class="n"><rect class="h" width="10.3" height="15.1" transform="translate(125.187 217.88) rotate(-12.328)"/></g><g class="v"><rect class="h" width="10.3" height="15.1" transform="translate(136.187 215.477) rotate(-12.328)"/></g></g></svg>