<svg xmlns="http://www.w3.org/2000/svg" width="425.5" height="409.167" viewBox="0 0 425.5 409.167"><defs><style>.a{fill:#fff;}.b,.d{fill:#e0e0e0;}.c{opacity:0.3;}.d{fill-rule:evenodd;}.e{fill:#ebebeb;}.f{fill:#263238;}.g{fill:#ff3600;}.h{fill:#06826a;}.i{fill:#455a64;}.j{fill:#f5f5f5;}.k{fill:#f0b191;}.l{fill:#ffd7c3;}.m{fill:#f0f0f0;}</style></defs><g transform="translate(-21.5 -40)"><rect class="a" width="125.2" height="83.8" transform="translate(290.5 103.7)"/><path class="b" d="M290.3,185.8V164.6c0-14.6-.1-35.6-.1-61.1v-.2H415.8v84.2h-.2l-90.3-.1-25.7-.1h.2l25.8-.1,90.2-.1-.2.2V103.5l.2.2H290.4l.2-.2c0,25.5-.1,46.4-.1,61v22.8A4.422,4.422,0,0,1,290.3,185.8Z"/><path class="b" d="M353.2,111.4c-34.6,0-62.6-.1-62.6-.2s28-.2,62.6-.2,62.6.1,62.6.2C415.8,111.2,387.8,111.4,353.2,111.4Z"/><g class="c"><path class="b" d="M411.8,106.4a1,1,0,1,1-1,1A1,1,0,0,1,411.8,106.4Z"/></g><g class="c"><circle class="b" cx="1" cy="1" r="1" transform="translate(407.4 106.4)"/></g><g class="c"><path class="b" d="M405,106.4a1,1,0,1,1-1,1A.945.945,0,0,1,405,106.4Z"/></g><rect class="b" width="33.4" height="33.4" transform="translate(371.6 119.9)"/><path class="b" d="M336.8,129.1c16.1,0,29.1.1,29.1.2s-13,.2-29.1.2-29.1-.1-29.1-.2S320.7,129.1,336.8,129.1Z"/><path class="b" d="M336.8,135.3c16.1,0,29.1.1,29.1.2s-13,.2-29.1.2-29.1-.1-29.1-.2S320.7,135.3,336.8,135.3Z"/><path class="b" d="M336.8,141.5c16.1,0,29.1.1,29.1.2s-13,.2-29.1.2-29.1-.1-29.1-.2S320.7,141.5,336.8,141.5Z"/><path class="b" d="M332.8,147.9l3.7-.1c3.1-.1,7.4-.1,12.1-.1s9,0,12.2.1l3.7.1a5.282,5.282,0,0,1,1.3.1,5.7,5.7,0,0,1-1.3.1l-3.7.1c-3.2.1-7.4.1-12.2.1s-9-.1-12.1-.1l-3.7-.1a6.6,6.6,0,0,1-1.4-.1A3.437,3.437,0,0,1,332.8,147.9Z"/><rect class="b" width="15.7" height="15.7" transform="translate(387.2 164.5)"/><rect class="b" width="15.7" height="15.7" transform="translate(358.7 164.5)"/><rect class="b" width="15.7" height="15.7" transform="translate(330.3 164.5)"/><rect class="b" width="15.7" height="15.7" transform="translate(301.8 164.5)"/><path class="d" d="M276.9,85.8l-2.1.3-1.3-3.3,1.8-1.2a5.95,5.95,0,0,1,.1-2.3L273.7,78l1.4-3.2,2.1.4a12.878,12.878,0,0,1,1.7-1.6l-.3-2.1,3.3-1.3,1.2,1.8a5.951,5.951,0,0,1,2.3.1l1.3-1.7,3.2,1.4-.4,2.1a8.689,8.689,0,0,1,1.6,1.7l2.1-.3,1.3,3.3-1.8,1.2a5.95,5.95,0,0,1-.1,2.3l1.7,1.3-1.4,3.2-2.1-.4a8.689,8.689,0,0,1-1.7,1.6l.3,2.1-3.3,1.3-1.2-1.8a5.951,5.951,0,0,1-2.3-.1L281.3,91l-3.2-1.4.4-2.1c-.6-.6-1.1-1.1-1.6-1.7Zm3.6-3.7h0a3.92,3.92,0,0,0,5,2.2h0a3.8,3.8,0,1,0-2.7-7.1,3.9,3.9,0,0,0-2.3,4.9Z"/><path class="d" d="M290.9,66l-3.3.5-2-5.2,2.8-1.9a14.472,14.472,0,0,1,.1-3.6l-2.7-2,2.3-5.1,3.3.7a15.388,15.388,0,0,1,2.6-2.5l-.5-3.3,5.2-2,1.9,2.8a14.473,14.473,0,0,1,3.6.1l2-2.7,5.1,2.3-.7,3.3a16.022,16.022,0,0,1,2.5,2.7l3.3-.5,2,5.2-2.8,1.9a14.472,14.472,0,0,1-.1,3.6l2.7,2-2.3,5.1-3.3-.7a15.388,15.388,0,0,1-2.6,2.5l.5,3.3-5.2,2-1.9-2.8a14.473,14.473,0,0,1-3.6-.1l-2,2.7L292.7,72l.7-3.3a21.06,21.06,0,0,1-2.5-2.7Zm5.7-5.7a5.905,5.905,0,0,0,7.7,3.4h0a5.952,5.952,0,1,0-7.7-3.4Z"/><path class="b" d="M359.6,75.9,358,74.5c-1.3-1.2-3.2-3-5.2-4.9v-.1l-.1-.1.1-.1c2-1.9,3.9-3.6,5.2-4.8l1.6-1.4a2.651,2.651,0,0,1,.6-.5c-.2.2-.3.4-.5.6l-1.5,1.5c-1.3,1.3-3.1,3-5.1,4.8v-.3h0c2,1.9,3.8,3.7,5.1,4.9l1.5,1.5a2.651,2.651,0,0,1,.5.6A.864.864,0,0,1,359.6,75.9Z"/><path class="b" d="M376.5,63.1l1.6,1.4c1.3,1.2,3.2,3,5.2,4.9h0l.1.1-.1.1c-2,1.9-3.9,3.6-5.2,4.8-.6.6-1.2,1-1.6,1.4-.2.2-.4.3-.6.5.2-.2.3-.4.5-.6l1.5-1.5c1.3-1.3,3.1-3,5.1-4.8v.3h0c-2-1.9-3.8-3.7-5.1-4.9l-1.4-1.7a2.651,2.651,0,0,1-.6-.5C376.1,62.8,376.3,62.9,376.5,63.1Z"/><path class="b" d="M367.9,69.5c-2.1-5.6-3.8-10.2-3.7-10.3s1.9,4.5,4,10.2,3.8,10.3,3.7,10.3S370,75.1,367.9,69.5Z"/><path class="b" d="M342.3,88.6V78c0-7.2-.1-17.6-.1-30.1v-.2h51.1V89.6h-.2l-36.8-.1-10.4-.1h10.5l36.7-.1-.2.2V48.1l.2.2H342.3l.1-.2c-.1,12.5-.1,22.8-.1,30V88.6Z"/><path class="b" d="M367.7,54.1c14.1,0,25.6.1,25.6.2s-11.5.2-25.6.2-25.6-.1-25.6-.2S353.6,54.1,367.7,54.1Z"/><path class="b" d="M389.1,51.2a.7.7,0,1,1,.7.7h0a.751.751,0,0,1-.7-.7Z"/><circle class="b" cx="0.7" cy="0.7" r="0.7" transform="translate(386.6 50.5)"/><path class="b" d="M384.2,51.2a.7.7,0,1,1,.7.7.684.684,0,0,1-.7-.7Z"/><rect class="a" width="117.4" height="47.7" transform="translate(102.1 40.3)"/><path class="b" d="M102.1,87.1V75.2c0-8.3-.1-20.2-.1-34.9V40H219.7V88h-.2l-84.3-.1H110.8l24.4-.1,84.2-.1-.2.2V40.2l.1.2h0l-117.4-.1.1-.1c-.1,14.7-.1,26.6-.1,34.9v9.5a12.866,12.866,0,0,1,.2,2.5v0Z"/><path class="b" d="M160.8,46.9c-32.4,0-58.6-.1-58.6-.2s26.2-.2,58.6-.2,58.6.1,58.6.2S193.1,46.9,160.8,46.9Z"/><g class="c"><path class="e" d="M214.5,43.8a.817.817,0,0,1,.9-.8.9.9,0,0,1,.9.9.817.817,0,0,1-.9.8h0a.9.9,0,0,1-.9-.9Z"/></g><g class="c"><path class="e" d="M211.6,43.8a.817.817,0,0,1,.9-.8.9.9,0,0,1,.9.9.817.817,0,0,1-.9.8h0a.9.9,0,0,1-.9-.9Z"/></g><g class="c"><circle class="e" cx="0.9" cy="0.9" r="0.9" transform="translate(208.7 42.9)"/></g><rect class="b" width="28.4" height="28.3" transform="translate(181.2 54.5)"/><path class="b" d="M142.8,61.9c18,0,32.6.1,32.6.2s-14.6.2-32.6.2-32.6-.1-32.6-.2S124.8,61.9,142.8,61.9Z"/><path class="b" d="M142.8,67.6c18,0,32.6.1,32.6.2s-14.6.2-32.6.2-32.6-.1-32.6-.2C110.3,67.7,124.8,67.6,142.8,67.6Z"/><path class="b" d="M133.9,73.6h1.2l4.5-.1h29.6l4.5.1h0l-4.5.1-14.8.1-14.8-.1-4.5-.1Z"/><rect class="a" width="143.9" height="117.2" transform="translate(21.9 120.9)"/><path class="f" d="M21.7,235.8v-6.2c0-5.5-.1-13.5-.1-23.7,0-20.5-.1-49.8-.1-85.2v-.2H165.9V238.2h-.2l-104.1-.1L32.2,238h.1l29.4-.1,104-.1-.2.2V120.8l.3.3H21.8l.2-.2c0,35.3-.1,64.5-.1,85v32.3A12.193,12.193,0,0,1,21.7,235.8Z"/><path class="g" d="M148.2,137.3l2.2.8v.6l-2.2.8V139l1.5-.6-1.5-.6Z"/><path class="g" d="M145.3,136.8v1.3h1.5v-1.3h.8v3.3h-.8v-1.3h-1.5v1.3h-.8v-3.3Z"/><path class="g" d="M143.1,140h-.8v-2.6h-1v-.6h2.8v.6h-1Z"/><path class="g" d="M137.3,140v-3.3h.6l1.2,2,1.2-2h.6V140h-.7v-1.9l-1,1.6H139l-1-1.6v2Z"/><path class="g" d="M136.4,140H134v-.6h1.7v-2.6h.8Z"/><path class="g" d="M133.8,137.3v.5l-1.5.6,1.5.6v.6l-2.2-.8v-.6Z"/><path d="M138,146.3l2.1.8v.4l-2.1.8V148l1.6-.6-1.6-.6Z"/><path d="M134.9,145.7v1.4h1.9v-1.4h.5V149h-.5v-1.4h-1.9V149h-.5v-3.3Z"/><path d="M133,148.5v-1h-1.6v-.4H133v-1h-1.8v-.4h2.3V149h-2.4v-.4Z"/><path d="M127.9,149h-.5l1.5-3.3h.5l1.5,3.3h-.5l-.4-.8h-1.7Zm1.9-1.2-.7-1.6-.7,1.6Z"/><path d="M126.9,149h-1.7a1.657,1.657,0,0,1,.3-3.3h1.4Zm-.4-.4v-2.4h-.9a1.2,1.2,0,1,0,0,2.4Z"/><path d="M123.3,146.3v.4l-1.6.6,1.6.6v.4l-2.1-.8v-.4Z"/><path class="f" d="M93.5,130.4c39.6,0,71.7.1,71.7.3s-32.1.3-71.7.3-71.7-.1-71.7-.3C21.9,130.5,53.9,130.4,93.5,130.4Z"/><path class="f" d="M161.8,124.6a.9.9,0,1,1-.9.9A.9.9,0,0,1,161.8,124.6Z"/><circle class="f" cx="0.9" cy="0.9" r="0.9" transform="translate(157.4 124.6)"/><path class="f" d="M154.7,124.6h0a.9.9,0,1,1-.9.9A.9.9,0,0,1,154.7,124.6Z"/><path class="b" d="M155.8,184.7c0-30,.1-54.3.3-54.3s.3,24.3.3,54.3-.1,54.3-.3,54.3C156,239.1,155.8,214.8,155.8,184.7Z"/><rect class="g" width="59.2" height="42.2" transform="translate(118.7 113.5)"/><path class="a" d="M148.1,119.5c16.5,0,29.9.1,29.9.3s-13.4.3-29.9.3-29.9-.1-29.9-.3S131.6,119.5,148.1,119.5Z"/><path class="a" d="M173.1,116.7a.773.773,0,0,1,.8-.7h.1c.4.1.8.5.7.9s-.5.8-.9.7a.779.779,0,0,1-.7-.9Z"/><path class="a" d="M170.8,116a.76.76,0,0,1,.8.6c.1.4-.2.7-.6.8h0a.773.773,0,0,1-.8-.7A.563.563,0,0,1,170.8,116Z"/><ellipse class="a" cx="0.8" cy="0.7" rx="0.8" ry="0.7" transform="translate(167.3 115.9)"/><rect class="g" width="53.6" height="38.2" transform="translate(59.4 233.1)"/><path class="a" d="M86,238.7c14.9,0,27,.1,27,.2s-12.1.2-27,.2-27-.1-27-.2C59,238.7,71.1,238.7,86,238.7Z"/><path class="a" d="M109.2,235.4a.641.641,0,0,1,.8.6.9.9,0,0,1-.6.6.641.641,0,0,1-.8-.6A.9.9,0,0,1,109.2,235.4Z"/><path class="a" d="M106.6,235.4a.641.641,0,0,1,.8.6.9.9,0,0,1-.6.6.641.641,0,0,1-.8-.6C106,235.7,106.3,235.5,106.6,235.4Z"/><path class="a" d="M104.1,235.4h.1c.4.1.7.4.6.8s-.4.7-.8.6-.7-.4-.6-.8C103.4,235.6,103.7,235.4,104.1,235.4Z"/><path class="g" d="M204.5,139.6V128.9c0-7.4-.1-18.1-.1-31.1v-.2h.2l65.9-.1h.3v42.9h-.2l-47.6-.1-13.5-.1h0l13.6-.1,47.4-.1-.2.2V97.6l.3.3H204.7l.2-.2c0,13-.1,23.6-.1,31-.1,3.7-.1,6.6-.1,8.6v3.1A1.539,1.539,0,0,1,204.5,139.6Z"/><path class="g" d="M237.6,103.8c18.2,0,33,.1,33,.3s-14.8.3-33,.3-33-.1-33-.3S219.4,103.8,237.6,103.8Z"/><path class="g" d="M265.6,101a.773.773,0,0,1,.8-.7h.1c.4.1.8.5.7.9s-.5.8-.9.7a.96.96,0,0,1-.7-.9Z"/><path class="g" d="M262.7,101a.773.773,0,0,1,.8-.7h.1c.4.1.8.5.7.9s-.5.8-.9.7a.96.96,0,0,1-.7-.9Z"/><path class="g" d="M259.8,101a.773.773,0,0,1,.8-.7h.1c.4.1.8.5.7.9s-.5.8-.9.7a.961.961,0,0,1-.7-.9Z"/><path class="a" d="M70.7,255.8a2.01,2.01,0,0,1,1.3.4,1.606,1.606,0,0,1,.5,1.1,1.433,1.433,0,0,1-.5,1.1,1.844,1.844,0,0,1-1.3.4,2.01,2.01,0,0,1-1.3-.4,1.46,1.46,0,0,1,0-2.2A2.836,2.836,0,0,1,70.7,255.8Z"/><path class="a" d="M74.2,253.8a5.954,5.954,0,0,1,.6-2.7,4.237,4.237,0,0,1,1.7-1.8,5.26,5.26,0,0,1,2.6-.6,4.9,4.9,0,0,1,3.6,1.4,5.167,5.167,0,0,1,1.3,3.8v.1a4.658,4.658,0,0,1-4.9,5.1,4.6,4.6,0,0,1-3.5-1.3,4.665,4.665,0,0,1-1.4-3.5Zm3.2.2a3.524,3.524,0,0,0,.4,2,1.486,1.486,0,0,0,1.3.6c1.1,0,1.7-.9,1.7-2.6v-.3q0-2.7-1.8-2.7c-1.1,0-1.6.8-1.7,2.3Z"/><path class="a" d="M91.7,251.8l-1-.1c-1,0-1.7.3-1.9.9v6.3H85.6v-10h3l.1,1.3a2.437,2.437,0,0,1,2.2-1.5,2.768,2.768,0,0,1,.9.1Z"/><path class="a" d="M92.4,253.9a7.635,7.635,0,0,1,.5-2.7,3.353,3.353,0,0,1,1.5-1.8,4.032,4.032,0,0,1,2.2-.6,3.1,3.1,0,0,1,2.5,1.1l.1-.9h2.9v9.6a4.142,4.142,0,0,1-.6,2.3,3.353,3.353,0,0,1-1.8,1.5,7.782,7.782,0,0,1-2.8.5,5.7,5.7,0,0,1-2.2-.4,3.807,3.807,0,0,1-1.6-1.1l1.3-1.8a2.965,2.965,0,0,0,2.4,1,1.856,1.856,0,0,0,2.1-2.1v-.3a2.9,2.9,0,0,1-2.3,1,3.749,3.749,0,0,1-3-1.4,5.586,5.586,0,0,1-1.2-3.8Zm3.2.2a3.312,3.312,0,0,0,.5,1.9,1.709,1.709,0,0,0,1.3.7,1.579,1.579,0,0,0,1.5-.7v-4.2a1.579,1.579,0,0,0-1.5-.7,1.357,1.357,0,0,0-1.3.7A4.9,4.9,0,0,0,95.6,254.1Z"/><path class="a" d="M130.6,138.9a2.01,2.01,0,0,1,1.3.4,1.46,1.46,0,0,1,0,2.2,1.844,1.844,0,0,1-1.3.4,2.01,2.01,0,0,1-1.3-.4,1.46,1.46,0,0,1,0-2.2A2.01,2.01,0,0,1,130.6,138.9Z"/><path class="a" d="M138.8,139.8a1.16,1.16,0,0,0,1-.4,1.528,1.528,0,0,0,.4-1h3a3.424,3.424,0,0,1-1.2,2.7,5,5,0,0,1-6.6-.3,5.167,5.167,0,0,1-1.3-3.8v-.1a5.954,5.954,0,0,1,.6-2.7,3.72,3.72,0,0,1,1.7-1.8,5.26,5.26,0,0,1,2.6-.6,4.771,4.771,0,0,1,3.2,1.1,3.7,3.7,0,0,1,1.2,2.9h-3a1.594,1.594,0,0,0-.4-1.2,1.284,1.284,0,0,0-1-.4c-.8,0-1.3.5-1.4,1.6,0,.3-.1.8-.1,1.4a3.694,3.694,0,0,0,.4,2.1C138.2,139.7,138.3,139.8,138.8,139.8Z"/><path class="a" d="M144.1,136.9a5.954,5.954,0,0,1,.6-2.7,4.237,4.237,0,0,1,1.7-1.8,5.26,5.26,0,0,1,2.6-.6,4.9,4.9,0,0,1,3.6,1.4,5.167,5.167,0,0,1,1.3,3.8v.1a4.658,4.658,0,0,1-4.9,5.1,4.6,4.6,0,0,1-3.5-1.3,4.665,4.665,0,0,1-1.4-3.5Zm3.2.2a3.524,3.524,0,0,0,.4,2,1.486,1.486,0,0,0,1.3.6c1.1,0,1.7-.9,1.7-2.6v-.3q0-2.7-1.8-2.7c-1.1,0-1.6.8-1.7,2.3Z"/><path class="a" d="M158.4,132l.1,1.2a3.555,3.555,0,0,1,2.9-1.4,2.52,2.52,0,0,1,2.6,1.5,3.442,3.442,0,0,1,3-1.5c2.1,0,3.1,1.2,3.2,3.7V142H167v-6.3a1.609,1.609,0,0,0-.3-1.1,1.333,1.333,0,0,0-1-.4,1.6,1.6,0,0,0-1.4.8v6.9h-3.2v-6.3a1.609,1.609,0,0,0-.3-1.1,1.333,1.333,0,0,0-1-.4,1.6,1.6,0,0,0-1.4.8v7h-3.2v-10h3.2Z"/><path class="f" d="M242.7,447.8c112.9,0,204.3.1,204.3.3s-91.5.3-204.3.3-204.3-.1-204.3-.3S129.9,447.8,242.7,447.8Z"/><path class="g" d="M138.2,248.7a12.385,12.385,0,0,1-4.7,0A12.382,12.382,0,0,1,138.2,248.7Z"/><path class="g" d="M131,247.1a12.912,12.912,0,0,1,0-4.8A9.75,9.75,0,0,1,131,247.1Z"/><path class="g" d="M123.7,248.6a12.385,12.385,0,0,1,4.7,0A12.382,12.382,0,0,1,123.7,248.6Z"/><path class="g" d="M130.9,250.2a12.912,12.912,0,0,1,0,4.8A9.75,9.75,0,0,1,130.9,250.2Z"/><path class="g" d="M127.7,251c.4-.6.9-.9,1-.8s-.2.6-.6,1.2-.9.9-1,.8S127.3,251.6,127.7,251Z"/><path class="g" d="M128.3,245.6c.5.5.8,1,.7,1.1s-.6-.2-1.1-.7-.8-1-.7-1.1C127.4,244.8,127.9,245.2,128.3,245.6Z"/><path class="g" d="M133.3,245.9c.5-.4.9-.6,1-.5s-.2.5-.7.9-.9.6-1,.5A2.992,2.992,0,0,1,133.3,245.9Z"/><path class="g" d="M133.9,250.7c.4.4.7.9.6,1s-.6-.3-1-.7-.7-.9-.6-1S133.5,250.2,133.9,250.7Z"/><path class="g" d="M227.7,126.8a2.271,2.271,0,0,1,1.6.6,1.816,1.816,0,0,1,.6,1.4,1.678,1.678,0,0,1-.6,1.4,2.271,2.271,0,0,1-1.6.6,2.111,2.111,0,0,1-1.6-.6,1.974,1.974,0,0,1-.6-1.4,1.816,1.816,0,0,1,.6-1.4A2.111,2.111,0,0,1,227.7,126.8Z"/><path class="g" d="M232.6,114.7a1.816,1.816,0,0,1,.6-1.4,2.2,2.2,0,0,1,1.6-.5,2.767,2.767,0,0,1,1.6.5,1.933,1.933,0,0,1,0,2.8,2.2,2.2,0,0,1-1.6.5,2.767,2.767,0,0,1-1.6-.5A1.678,1.678,0,0,1,232.6,114.7Zm4.3,16.1h-4.1V118h4.1Z"/><path class="g" d="M247.3,121.6l-1.3-.1a2.486,2.486,0,0,0-2.5,1.2v8.1h-4.1V118h3.8l.1,1.6a3.09,3.09,0,0,1,2.9-1.9,3.75,3.75,0,0,1,1.1.1Z"/><path class="h" d="M142.7,209.8a30.3,30.3,0,0,0,1.2-4.3,20.849,20.849,0,0,0-17.1-24,27.877,27.877,0,0,0-55.3-3.6A25.432,25.432,0,0,0,46.6,186c-6,7-8.1,15.8-4.5,24.3Z"/><path class="a" d="M93,209.9V195.7H86l10.7-15,10.7,15.1h-7.1v14.1Z"/><path class="f" d="M262.4,187.3c0-11,.1-23.9.2-23.9s.2,12.9.2,23.9-.1,19.9-.2,19.9S262.4,198.3,262.4,187.3Z"/><path class="f" d="M242.6,163.6c-11,0-76.9-.1-76.9-.2s65.9-.2,76.9-.2,19.9.1,19.9.2S253.6,163.6,242.6,163.6Z"/><rect class="f" width="86.6" height="100" transform="translate(68.1 342.3)"/><rect class="i" width="94.7" height="24.7" transform="translate(72.7 362.3)"/><rect class="f" width="18.6" height="3" transform="translate(144.5 367.4)"/><rect class="f" width="18.6" height="3" transform="translate(144.5 372.6)"/><rect class="f" width="18.6" height="3" transform="translate(144.5 378)"/><path class="f" d="M137.2,369.3a1.1,1.1,0,1,1,1.1,1.1,1.049,1.049,0,0,1-1.1-1.1Z"/><path class="f" d="M132.4,369.3a1.1,1.1,0,1,1,1.1,1.1,1.11,1.11,0,0,1-1.1-1.1Z"/><path class="f" d="M127.7,369.3a1.1,1.1,0,1,1,1.1,1.1,1.11,1.11,0,0,1-1.1-1.1Z"/><path class="f" d="M123,369.3a1.1,1.1,0,1,1,1.1,1.1,1.11,1.11,0,0,1-1.1-1.1Z"/><path class="f" d="M86.4,369.3a1.1,1.1,0,1,1,1.1,1.1,1.11,1.11,0,0,1-1.1-1.1Z"/><path class="f" d="M81.6,369.3a1.1,1.1,0,1,1,1.1,1.1,1.11,1.11,0,0,1-1.1-1.1Z"/><path class="f" d="M118.3,369.3a1.1,1.1,0,1,1,1.1,1.1,1.11,1.11,0,0,1-1.1-1.1Z"/><path class="f" d="M95.1,369.3a1.1,1.1,0,1,1,1.1,1.1,1.11,1.11,0,0,1-1.1-1.1Z"/><path class="j" d="M113.6,369.3a1.1,1.1,0,1,1,1.1,1.1,1.049,1.049,0,0,1-1.1-1.1Z"/><path class="j" d="M109.9,368.1h0a1.1,1.1,0,1,1-1.1,1.1A1.182,1.182,0,0,1,109.9,368.1Z"/><path class="j" d="M100.3,368.1h0a1.1,1.1,0,1,1-1.1,1.1A1.182,1.182,0,0,1,100.3,368.1Z"/><path class="j" d="M77.7,369.3a1.1,1.1,0,1,1,1.1,1.1,1.11,1.11,0,0,1-1.1-1.1Z"/><path class="g" d="M104.1,369.3a1.11,1.11,0,0,1,1.1-1.1h0a1.1,1.1,0,1,1-1.1,1.1Z"/><path class="g" d="M90.6,369.3a1.1,1.1,0,1,1,1.1,1.1,1.11,1.11,0,0,1-1.1-1.1Z"/><path class="f" d="M79.8,374.7a1.1,1.1,0,1,1-1.1-1.1,1.049,1.049,0,0,1,1.1,1.1Z"/><path class="f" d="M83.5,375.8h0a1.1,1.1,0,1,1,1.1-1.1A1.11,1.11,0,0,1,83.5,375.8Z"/><path class="f" d="M89.3,374.7a1.11,1.11,0,0,1-1.1,1.1h0a1.1,1.1,0,0,1,0-2.2,1.049,1.049,0,0,1,1.1,1.1Z"/><path class="f" d="M94,374.7a1.11,1.11,0,0,1-1.1,1.1h0a1.1,1.1,0,0,1,0-2.2,1.049,1.049,0,0,1,1.1,1.1Z"/><path class="f" d="M130.6,374.7a1.11,1.11,0,0,1-1.1,1.1h0a1.1,1.1,0,0,1,0-2.2,1.049,1.049,0,0,1,1.1,1.1Z"/><path class="f" d="M135.4,374.7a1.1,1.1,0,1,1-1.1-1.1,1.11,1.11,0,0,1,1.1,1.1Z"/><path class="f" d="M98.7,374.7a1.1,1.1,0,1,1-1.1-1.1,1.11,1.11,0,0,1,1.1,1.1Z"/><path class="f" d="M121.9,374.7a1.1,1.1,0,1,1-1.1-1.1,1.11,1.11,0,0,1,1.1,1.1Z"/><path class="j" d="M103.4,374.7a1.1,1.1,0,1,1-1.1-1.1,1.049,1.049,0,0,1,1.1,1.1Z"/><path class="j" d="M108.1,374.7a1.1,1.1,0,1,1-1.1-1.1,1.049,1.049,0,0,1,1.1,1.1Z"/><path class="j" d="M117.7,374.7a1.1,1.1,0,1,1-1.1-1.1,1.11,1.11,0,0,1,1.1,1.1Z"/><path class="j" d="M139.3,374.7a1.1,1.1,0,1,1-1.1-1.1,1.11,1.11,0,0,1,1.1,1.1Z"/><path class="g" d="M112.9,374.7a1.1,1.1,0,1,1-1.1-1.1,1.11,1.11,0,0,1,1.1,1.1Z"/><path class="g" d="M125.3,375.8h0a1.1,1.1,0,1,1,1.1-1.1A1.11,1.11,0,0,1,125.3,375.8Z"/><circle class="f" cx="1.1" cy="1.1" r="1.1" transform="translate(137.1 378.4)"/><circle class="f" cx="1.1" cy="1.1" r="1.1" transform="translate(132.4 378.4)"/><circle class="f" cx="1.1" cy="1.1" r="1.1" transform="translate(127.7 378.4)"/><circle class="f" cx="1.1" cy="1.1" r="1.1" transform="translate(123 378.4)"/><circle class="f" cx="1.1" cy="1.1" r="1.1" transform="translate(86.4 378.4)"/><circle class="f" cx="1.1" cy="1.1" r="1.1" transform="translate(81.6 378.4)"/><circle class="f" cx="1.1" cy="1.1" r="1.1" transform="translate(118.2 378.4)"/><path class="f" d="M95.1,379.5a1.1,1.1,0,1,1,1.1,1.1,1.11,1.11,0,0,1-1.1-1.1Z"/><circle class="j" cx="1.1" cy="1.1" r="1.1" transform="translate(113.5 378.4)"/><path class="j" d="M109.9,378.4h0a1.1,1.1,0,1,1-1.1,1.1A1.182,1.182,0,0,1,109.9,378.4Z"/><circle class="j" cx="1.1" cy="1.1" r="1.1" transform="translate(99.2 378.4)"/><path class="j" d="M77.7,379.5a1.1,1.1,0,1,1,1.1,1.1,1.11,1.11,0,0,1-1.1-1.1Z"/><circle class="g" cx="1.1" cy="1.1" r="1.1" transform="translate(104.1 378.4)"/><circle class="g" cx="1.1" cy="1.1" r="1.1" transform="translate(90.6 378.4)"/><rect class="i" width="94.7" height="24.7" transform="translate(72.7 392.8)"/><path class="f" d="M137.4,399.5a1.1,1.1,0,1,1,1.1,1.1,1.11,1.11,0,0,1-1.1-1.1Z"/><path class="f" d="M132.7,399.5a1.1,1.1,0,1,1,1.1,1.1,1.11,1.11,0,0,1-1.1-1.1Z"/><path class="f" d="M129,398.4h0a1.1,1.1,0,1,1-1.1,1.1A1.11,1.11,0,0,1,129,398.4Z"/><path class="f" d="M123.2,399.5a1.11,1.11,0,0,1,1.1-1.1h0a1.1,1.1,0,0,1,0,2.2,1.049,1.049,0,0,1-1.1-1.1Z"/><path class="f" d="M87.7,398.4h0a1.1,1.1,0,1,1-1.1,1.1A1.182,1.182,0,0,1,87.7,398.4Z"/><path class="f" d="M81.8,399.5a1.1,1.1,0,1,1,1.1,1.1,1.11,1.11,0,0,1-1.1-1.1Z"/><path class="f" d="M118.5,399.5a1.11,1.11,0,0,1,1.1-1.1h0a1.1,1.1,0,0,1,0,2.2,1.049,1.049,0,0,1-1.1-1.1Z"/><path class="f" d="M95.3,399.5a1.11,1.11,0,0,1,1.1-1.1h0a1.1,1.1,0,0,1,0,2.2,1.049,1.049,0,0,1-1.1-1.1Z"/><path class="j" d="M113.8,399.5a1.1,1.1,0,1,1,1.1,1.1,1.11,1.11,0,0,1-1.1-1.1Z"/><path class="j" d="M109.1,399.5a1.1,1.1,0,1,1,1.1,1.1,1.049,1.049,0,0,1-1.1-1.1Z"/><path class="j" d="M99.5,399.5a1.1,1.1,0,1,1,1.1,1.1,1.11,1.11,0,0,1-1.1-1.1Z"/><path class="j" d="M77.9,399.5a1.1,1.1,0,1,1,1.1,1.1,1.11,1.11,0,0,1-1.1-1.1Z"/><path class="g" d="M104.4,399.5a1.1,1.1,0,1,1,1.1,1.1,1.049,1.049,0,0,1-1.1-1.1Z"/><path class="g" d="M91.9,398.4h0a1.1,1.1,0,1,1-1.1,1.1A1.11,1.11,0,0,1,91.9,398.4Z"/><path class="f" d="M79,406.1a1.1,1.1,0,1,1,1.1-1.1A1.11,1.11,0,0,1,79,406.1Z"/><path class="f" d="M83.7,406.1a1.1,1.1,0,1,1,1.1-1.1A1.11,1.11,0,0,1,83.7,406.1Z"/><path class="f" d="M88.4,406.1a1.1,1.1,0,1,1,1.1-1.1A1.11,1.11,0,0,1,88.4,406.1Z"/><path class="f" d="M93.2,406.1a1.1,1.1,0,1,1,1.1-1.1A1.182,1.182,0,0,1,93.2,406.1Z"/><path class="f" d="M129.7,406.1a1.1,1.1,0,1,1,1.1-1.1A1.11,1.11,0,0,1,129.7,406.1Z"/><path class="f" d="M134.5,406.1a1.1,1.1,0,1,1,1.1-1.1A1.11,1.11,0,0,1,134.5,406.1Z"/><path class="f" d="M97.9,406.1A1.1,1.1,0,1,1,99,405,1.182,1.182,0,0,1,97.9,406.1Z"/><path class="f" d="M121.1,406.1a1.1,1.1,0,1,1,1.1-1.1A1.269,1.269,0,0,1,121.1,406.1Z"/><path class="j" d="M102.6,406.1h0a1.1,1.1,0,1,1,1.1-1.1A1.11,1.11,0,0,1,102.6,406.1Z"/><path class="j" d="M107.3,406.1h0a1.1,1.1,0,1,1,1.1-1.1A1.11,1.11,0,0,1,107.3,406.1Z"/><path class="j" d="M116.9,406.1h0A1.1,1.1,0,1,1,118,405,1.11,1.11,0,0,1,116.9,406.1Z"/><path class="j" d="M138.5,406.1a1.1,1.1,0,1,1,1.1-1.1A1.269,1.269,0,0,1,138.5,406.1Z"/><path class="g" d="M112,406.1h0a1.1,1.1,0,1,1,1.1-1.1A1.11,1.11,0,0,1,112,406.1Z"/><path class="g" d="M125.5,406.1a1.1,1.1,0,1,1,1.1-1.1A1.11,1.11,0,0,1,125.5,406.1Z"/><circle class="f" cx="1.1" cy="1.1" r="1.1" transform="translate(137.4 408.7)"/><circle class="f" cx="1.1" cy="1.1" r="1.1" transform="translate(132.6 408.7)"/><circle class="f" cx="1.1" cy="1.1" r="1.1" transform="translate(127.9 408.7)"/><circle class="f" cx="1.1" cy="1.1" r="1.1" transform="translate(123.2 408.7)"/><circle class="f" cx="1.1" cy="1.1" r="1.1" transform="translate(86.6 408.7)"/><circle class="f" cx="1.1" cy="1.1" r="1.1" transform="translate(81.8 408.7)"/><circle class="f" cx="1.1" cy="1.1" r="1.1" transform="translate(118.5 408.7)"/><circle class="f" cx="1.1" cy="1.1" r="1.1" transform="translate(95.3 408.7)"/><circle class="j" cx="1.1" cy="1.1" r="1.1" transform="translate(113.8 408.7)"/><circle class="j" cx="1.1" cy="1.1" r="1.1" transform="translate(109 408.7)"/><circle class="j" cx="1.1" cy="1.1" r="1.1" transform="translate(99.5 408.7)"/><path class="j" d="M77.9,409.8a1.1,1.1,0,1,1,1.1,1.1,1.11,1.11,0,0,1-1.1-1.1Z"/><circle class="g" cx="1.1" cy="1.1" r="1.1" transform="translate(104.3 408.7)"/><circle class="g" cx="1.1" cy="1.1" r="1.1" transform="translate(90.8 408.7)"/><rect class="f" width="18.6" height="3" transform="translate(144.5 397.9)"/><rect class="f" width="18.6" height="3" transform="translate(144.5 403.1)"/><rect class="f" width="18.6" height="3" transform="translate(144.5 408.5)"/><rect class="i" width="94.7" height="24.7" transform="translate(72.7 423.3)"/><rect class="f" width="18.6" height="3" transform="translate(144.5 428.4)"/><rect class="f" width="18.6" height="3" transform="translate(144.5 433.6)"/><rect class="f" width="18.6" height="3" transform="translate(144.5 439)"/><path class="f" d="M137.7,430a1.11,1.11,0,0,1,1.1-1.1h0a1.1,1.1,0,0,1,0,2.2,1.049,1.049,0,0,1-1.1-1.1Z"/><path class="f" d="M133,430a1.1,1.1,0,1,1,1.1,1.1A1.11,1.11,0,0,1,133,430Z"/><path class="f" d="M128.3,430a1.1,1.1,0,1,1,1.1,1.1,1.11,1.11,0,0,1-1.1-1.1Z"/><path class="f" d="M123.6,430a1.1,1.1,0,1,1,1.1,1.1,1.049,1.049,0,0,1-1.1-1.1Z"/><path class="f" d="M87,430a1.1,1.1,0,1,1,1.1,1.1A1.11,1.11,0,0,1,87,430Z"/><path class="f" d="M82.2,430a1.1,1.1,0,1,1,1.1,1.1,1.11,1.11,0,0,1-1.1-1.1Z"/><path class="f" d="M118.8,430a1.1,1.1,0,1,1,1.1,1.1,1.11,1.11,0,0,1-1.1-1.1Z"/><path class="f" d="M95.7,430a1.1,1.1,0,1,1,1.1,1.1,1.11,1.11,0,0,1-1.1-1.1Z"/><path class="j" d="M114.1,430a1.1,1.1,0,1,1,1.1,1.1,1.11,1.11,0,0,1-1.1-1.1Z"/><path class="j" d="M109.4,430a1.1,1.1,0,1,1,1.1,1.1,1.11,1.11,0,0,1-1.1-1.1Z"/><path class="j" d="M99.8,430a1.1,1.1,0,1,1,1.1,1.1,1.11,1.11,0,0,1-1.1-1.1Z"/><path class="j" d="M78.3,430a1.11,1.11,0,0,1,1.1-1.1h0a1.1,1.1,0,0,1,0,2.2,1,1,0,0,1-1.1-1.1Z"/><path class="g" d="M105.8,428.9h0a1.1,1.1,0,1,1-1.1,1.1A1.11,1.11,0,0,1,105.8,428.9Z"/><path class="g" d="M91.2,430a1.1,1.1,0,1,1,1.1,1.1,1.11,1.11,0,0,1-1.1-1.1Z"/><path class="f" d="M79.3,436.5h0a1.1,1.1,0,1,1,1.1-1.1A1.11,1.11,0,0,1,79.3,436.5Z"/><path class="f" d="M85.1,435.4a1.11,1.11,0,0,1-1.1,1.1h0a1.1,1.1,0,0,1,0-2.2,1.049,1.049,0,0,1,1.1,1.1Z"/><path class="f" d="M89.9,435.4a1.1,1.1,0,1,1-1.1-1.1,1.11,1.11,0,0,1,1.1,1.1Z"/><path class="f" d="M94.6,435.4a1.1,1.1,0,1,1-1.1-1.1,1.11,1.11,0,0,1,1.1,1.1Z"/><path class="f" d="M131.1,435.4a1.1,1.1,0,1,1-1.1-1.1,1.11,1.11,0,0,1,1.1,1.1Z"/><path class="f" d="M136,435.4a1.1,1.1,0,1,1-1.1-1.1,1.11,1.11,0,0,1,1.1,1.1Z"/><path class="f" d="M99.3,435.4a1.1,1.1,0,1,1-1.1-1.1,1.11,1.11,0,0,1,1.1,1.1Z"/><path class="f" d="M122.5,435.4a1.1,1.1,0,1,1-1.1-1.1,1.11,1.11,0,0,1,1.1,1.1Z"/><path class="j" d="M104,435.4a1.1,1.1,0,1,1-1.1-1.1,1.11,1.11,0,0,1,1.1,1.1Z"/><path class="j" d="M108.7,435.4a1.1,1.1,0,1,1-1.1-1.1,1.11,1.11,0,0,1,1.1,1.1Z"/><path class="j" d="M118.3,435.4a1.1,1.1,0,1,1-1.1-1.1,1.11,1.11,0,0,1,1.1,1.1Z"/><path class="j" d="M138.8,436.5h0a1.1,1.1,0,1,1,1.1-1.1A1.11,1.11,0,0,1,138.8,436.5Z"/><path class="g" d="M113.5,435.4a1.1,1.1,0,1,1-1.1-1.1,1.11,1.11,0,0,1,1.1,1.1Z"/><path class="g" d="M127,435.4a1.11,1.11,0,0,1-1.1,1.1h0a1.1,1.1,0,1,1,1.1-1.1Z"/><path class="f" d="M137.7,440.3a1.1,1.1,0,1,1,1.1,1.1,1.11,1.11,0,0,1-1.1-1.1Z"/><path class="f" d="M134.1,439.2a1.1,1.1,0,1,1-1.1,1.1A1.11,1.11,0,0,1,134.1,439.2Z"/><path class="f" d="M129.4,439.2a1.1,1.1,0,1,1-1.1,1.1A1.11,1.11,0,0,1,129.4,439.2Z"/><path class="f" d="M124.6,439.2a1.1,1.1,0,1,1-1.1,1.1A1.269,1.269,0,0,1,124.6,439.2Z"/><path class="f" d="M87,440.2a1.11,1.11,0,0,1,1.1-1.1,1.028,1.028,0,0,1,1,1.1,1.11,1.11,0,0,1-1.1,1.1c-.5.1-1-.4-1-1.1Z"/><path class="f" d="M83.3,439.2a1.1,1.1,0,1,1-1.1,1.1A1.11,1.11,0,0,1,83.3,439.2Z"/><path class="f" d="M119.9,439.2a1.1,1.1,0,1,1-1.1,1.1A1.11,1.11,0,0,1,119.9,439.2Z"/><path class="f" d="M96.7,439.2a1.1,1.1,0,1,1-1.1,1.1A1.269,1.269,0,0,1,96.7,439.2Z"/><path class="j" d="M115.2,439.2a1.1,1.1,0,1,1-1.1,1.1A1.11,1.11,0,0,1,115.2,439.2Z"/><path class="j" d="M110.5,439.2a1.1,1.1,0,1,1-1.1,1.1A1.11,1.11,0,0,1,110.5,439.2Z"/><path class="j" d="M100.9,439.2a1.1,1.1,0,1,1-1.1,1.1A1.11,1.11,0,0,1,100.9,439.2Z"/><path class="j" d="M79.3,439.2h0a1.1,1.1,0,1,1-1.1,1.1A1.182,1.182,0,0,1,79.3,439.2Z"/><path class="g" d="M105.8,439.2h0a1.1,1.1,0,1,1-1.1,1.1A1.11,1.11,0,0,1,105.8,439.2Z"/><path class="g" d="M92.2,439.2a1.1,1.1,0,1,1-1.1,1.1A1.269,1.269,0,0,1,92.2,439.2Z"/><path class="f" d="M58.5,362.3H72.7v24.8L58.5,387Z"/><path class="f" d="M58.5,332.2l14.2.1V357H58.5Z"/><path class="f" d="M58.5,392.6l14.2.1v24.7l-14.2-.1Z"/><path class="f" d="M58.5,423.3H72.7v24.8L58.5,448Z"/><rect class="i" width="94.7" height="24.7" transform="translate(72 332.1)"/><rect class="f" width="18.6" height="3" transform="translate(143.8 337.1)"/><rect class="f" width="18.6" height="3" transform="translate(143.8 342.3)"/><rect class="f" width="18.6" height="3" transform="translate(143.8 347.7)"/><path class="f" d="M136.5,339a1.1,1.1,0,1,1,1.1,1.1,1.11,1.11,0,0,1-1.1-1.1Z"/><path class="f" d="M131.7,339a1.1,1.1,0,1,1,1.1,1.1,1.11,1.11,0,0,1-1.1-1.1Z"/><path class="f" d="M127,339a1.1,1.1,0,1,1,1.1,1.1A1.11,1.11,0,0,1,127,339Z"/><path class="f" d="M122.3,339a1.1,1.1,0,1,1,1.1,1.1,1.11,1.11,0,0,1-1.1-1.1Z"/><path class="f" d="M85.7,339a1.1,1.1,0,1,1,1.1,1.1,1.11,1.11,0,0,1-1.1-1.1Z"/><path class="f" d="M82,337.8h0a1.1,1.1,0,1,1-1.1,1.1A1.11,1.11,0,0,1,82,337.8Z"/><path class="f" d="M118.7,337.8h0a1.1,1.1,0,1,1-1.1,1.1A1.11,1.11,0,0,1,118.7,337.8Z"/><path class="f" d="M94.4,339a1.1,1.1,0,1,1,1.1,1.1,1.11,1.11,0,0,1-1.1-1.1Z"/><path class="j" d="M113.9,337.8h0a1.1,1.1,0,1,1-1.1,1.1A1.269,1.269,0,0,1,113.9,337.8Z"/><path class="j" d="M108.1,339a1.11,1.11,0,0,1,1.1-1.1h0a1.1,1.1,0,1,1-1.1,1.1Z"/><path class="j" d="M98.6,339a1.11,1.11,0,0,1,1.1-1.1h0a1.1,1.1,0,1,1-1.1,1.1Z"/><path class="j" d="M77,339a1.1,1.1,0,1,1,1.1,1.1A1.11,1.11,0,0,1,77,339Z"/><path class="g" d="M103.4,339a1.1,1.1,0,1,1,1.1,1.1,1.11,1.11,0,0,1-1.1-1.1Z"/><path class="g" d="M89.9,339a1.1,1.1,0,1,1,1.1,1.1,1.11,1.11,0,0,1-1.1-1.1Z"/><path class="f" d="M78.1,345.5a1.1,1.1,0,1,1,1.1-1.1A1.182,1.182,0,0,1,78.1,345.5Z"/><path class="f" d="M82.8,345.5a1.1,1.1,0,1,1,1.1-1.1A1.11,1.11,0,0,1,82.8,345.5Z"/><path class="f" d="M87.5,345.5a1.1,1.1,0,1,1,1.1-1.1A1.11,1.11,0,0,1,87.5,345.5Z"/><path class="f" d="M92.2,345.5h0a1.1,1.1,0,1,1,1.1-1.1A1.11,1.11,0,0,1,92.2,345.5Z"/><path class="f" d="M128.8,345.5a1.1,1.1,0,1,1,1.1-1.1A1.11,1.11,0,0,1,128.8,345.5Z"/><path class="f" d="M133.6,345.5h0a1.1,1.1,0,1,1,1.1-1.1A1.11,1.11,0,0,1,133.6,345.5Z"/><path class="f" d="M97,345.5h0a1.1,1.1,0,1,1,1.1-1.1A1.269,1.269,0,0,1,97,345.5Z"/><path class="f" d="M120.1,345.5h0a1.1,1.1,0,1,1,1.1-1.1A1.11,1.11,0,0,1,120.1,345.5Z"/><path class="j" d="M101.7,345.5a1.1,1.1,0,1,1,1.1-1.1A1.182,1.182,0,0,1,101.7,345.5Z"/><path class="j" d="M106.4,345.5a1.1,1.1,0,1,1,1.1-1.1A1.11,1.11,0,0,1,106.4,345.5Z"/><path class="j" d="M116,345.5a1.1,1.1,0,1,1,1.1-1.1A1.182,1.182,0,0,1,116,345.5Z"/><path class="j" d="M137.5,345.5a1.1,1.1,0,1,1,1.1-1.1A1.11,1.11,0,0,1,137.5,345.5Z"/><path class="g" d="M111.1,345.5a1.1,1.1,0,1,1,1.1-1.1A1.11,1.11,0,0,1,111.1,345.5Z"/><path class="g" d="M124.6,345.5a1.1,1.1,0,1,1,1.1-1.1A1.11,1.11,0,0,1,124.6,345.5Z"/><path class="f" d="M136.5,349.2a1.1,1.1,0,1,1,1.1,1.1,1.11,1.11,0,0,1-1.1-1.1Z"/><path class="f" d="M131.7,349.2a1.1,1.1,0,1,1,1.1,1.1,1.11,1.11,0,0,1-1.1-1.1Z"/><path class="f" d="M128.1,348.1h0a1.1,1.1,0,1,1-1.1,1.1A1.11,1.11,0,0,1,128.1,348.1Z"/><path class="f" d="M122.3,349.2a1.1,1.1,0,1,1,1.1,1.1,1.11,1.11,0,0,1-1.1-1.1Z"/><path class="f" d="M85.7,349.2a1.1,1.1,0,1,1,1.1,1.1,1.11,1.11,0,0,1-1.1-1.1Z"/><path class="f" d="M82,348.1h0a1.1,1.1,0,1,1-1.1,1.1A1.11,1.11,0,0,1,82,348.1Z"/><path class="f" d="M118.7,348.1h0a1.1,1.1,0,1,1-1.1,1.1A1.11,1.11,0,0,1,118.7,348.1Z"/><path class="f" d="M94.4,349.2a1.1,1.1,0,1,1,1.1,1.1,1.11,1.11,0,0,1-1.1-1.1Z"/><path class="j" d="M113.9,348.1h0a1.1,1.1,0,1,1-1.1,1.1A1.269,1.269,0,0,1,113.9,348.1Z"/><path class="j" d="M108.1,349.2a1.11,1.11,0,0,1,1.1-1.1h0a1.1,1.1,0,0,1,0,2.2,1.049,1.049,0,0,1-1.1-1.1Z"/><path class="j" d="M99.6,348.1h0a1.1,1.1,0,1,1-1.1,1.1A1.182,1.182,0,0,1,99.6,348.1Z"/><path class="j" d="M77,349.2a1.11,1.11,0,0,1,1.1-1.1,1.028,1.028,0,0,1,1,1.1,1.11,1.11,0,0,1-1.1,1.1,1.1,1.1,0,0,1-1-1.1Z"/><path class="g" d="M103.4,349.2a1.1,1.1,0,1,1,1.1,1.1,1.11,1.11,0,0,1-1.1-1.1Z"/><path class="g" d="M89.9,349.2a1.1,1.1,0,1,1,1.1,1.1,1.11,1.11,0,0,1-1.1-1.1Z"/><rect class="e" width="74.2" height="239.3" transform="translate(231.1 208.3)"/><path class="b" d="M172.6,208.3h58.6l-.1,239.3H172.6Z"/><rect class="f" width="63" height="18.7" transform="translate(238.3 246.6)"/><rect class="i" width="3.5" height="14.3" transform="translate(296 248.9)"/><path class="a" d="M293,250.8h0a1.2,1.2,0,1,1-1.1,1.2A1.078,1.078,0,0,1,293,250.8Z"/><path class="a" d="M293,255.8h0a1.2,1.2,0,1,1-1.1,1.2A1.03,1.03,0,0,1,293,255.8Z"/><rect class="i" width="3.5" height="11" transform="translate(283.9 250.8)"/><rect class="i" width="3.5" height="11" transform="translate(278.9 250.8)"/><rect class="i" width="3.5" height="11" transform="translate(273.9 250.8)"/><rect class="i" width="3.5" height="11" transform="translate(268.9 250.8)"/><rect class="i" width="3.5" height="11" transform="translate(263.9 250.8)"/><rect class="i" width="3.5" height="11" transform="translate(258.9 250.8)"/><rect class="i" width="3.5" height="11" transform="translate(253.9 250.8)"/><rect class="i" width="3.5" height="11" transform="translate(248.8 250.8)"/><rect class="i" width="3.5" height="11" transform="translate(243.8 250.8)"/><rect class="i" width="3.5" height="11" transform="translate(238.8 250.8)"/><rect class="f" width="63" height="18.7" transform="translate(238.3 273.4)"/><rect class="i" width="3.5" height="14.3" transform="translate(296 275.7)"/><path class="a" d="M293,277.6h0a1.2,1.2,0,1,1-1.1,1.2A1.03,1.03,0,0,1,293,277.6Z"/><path class="a" d="M293,282.6h0a1.2,1.2,0,1,1-1.1,1.2A1.073,1.073,0,0,1,293,282.6Z"/><rect class="i" width="3.5" height="11" transform="translate(283.9 277.6)"/><rect class="i" width="3.5" height="11" transform="translate(278.9 277.6)"/><rect class="i" width="3.5" height="11" transform="translate(273.9 277.6)"/><rect class="i" width="3.5" height="11" transform="translate(268.9 277.6)"/><rect class="i" width="3.5" height="11" transform="translate(263.9 277.6)"/><rect class="i" width="3.5" height="11" transform="translate(258.9 277.6)"/><rect class="i" width="3.5" height="11" transform="translate(253.9 277.6)"/><rect class="i" width="3.5" height="11" transform="translate(248.8 277.6)"/><rect class="i" width="3.5" height="11" transform="translate(243.8 277.6)"/><rect class="i" width="3.5" height="11" transform="translate(238.8 277.6)"/><rect class="f" width="63" height="18.7" transform="translate(238.3 300.4)"/><rect class="i" width="3.5" height="14.3" transform="translate(296 302.8)"/><path class="a" d="M293,304.6h0a1.2,1.2,0,1,1-1.1,1.2A1.03,1.03,0,0,1,293,304.6Z"/><path class="a" d="M293,309.6h0a1.2,1.2,0,1,1-1.1,1.2A1.073,1.073,0,0,1,293,309.6Z"/><rect class="i" width="3.5" height="11" transform="translate(283.9 304.6)"/><rect class="i" width="3.5" height="11" transform="translate(278.9 304.6)"/><rect class="i" width="3.5" height="11" transform="translate(273.9 304.6)"/><rect class="i" width="3.5" height="11" transform="translate(268.9 304.6)"/><rect class="i" width="3.5" height="11" transform="translate(263.9 304.6)"/><rect class="i" width="3.5" height="11" transform="translate(258.9 304.6)"/><rect class="i" width="3.5" height="11" transform="translate(253.9 304.6)"/><rect class="i" width="3.5" height="11" transform="translate(248.8 304.6)"/><rect class="i" width="3.5" height="11" transform="translate(243.8 304.6)"/><rect class="i" width="3.5" height="11" transform="translate(238.8 304.6)"/><rect class="f" width="63" height="18.7" transform="translate(238.3 329.6)"/><rect class="i" width="3.5" height="14.3" transform="translate(296 332)"/><path class="a" d="M293,333.8h0a1.2,1.2,0,1,1-1.1,1.2A1.078,1.078,0,0,1,293,333.8Z"/><path class="a" d="M293,338.8h0a1.2,1.2,0,1,1-1.1,1.2A1.078,1.078,0,0,1,293,338.8Z"/><rect class="i" width="3.5" height="11" transform="translate(283.9 333.8)"/><rect class="i" width="3.5" height="11" transform="translate(278.9 333.8)"/><rect class="i" width="3.5" height="11" transform="translate(273.9 333.8)"/><rect class="i" width="3.5" height="11" transform="translate(268.9 333.8)"/><rect class="i" width="3.5" height="11" transform="translate(263.9 333.8)"/><rect class="i" width="3.5" height="11" transform="translate(258.9 333.8)"/><rect class="i" width="3.5" height="11" transform="translate(253.9 333.8)"/><rect class="i" width="3.5" height="11" transform="translate(248.8 333.8)"/><rect class="i" width="3.5" height="11" transform="translate(243.8 333.8)"/><rect class="i" width="3.5" height="11" transform="translate(238.8 333.8)"/><rect class="f" width="63" height="18.7" transform="translate(238.3 359.1)"/><rect class="i" width="3.5" height="14.3" transform="translate(296 361.4)"/><path class="a" d="M293,363.3h0a1.2,1.2,0,1,1-1.1,1.2A1.03,1.03,0,0,1,293,363.3Z"/><path class="a" d="M293,368.3h0a1.2,1.2,0,1,1-1.1,1.2A1.078,1.078,0,0,1,293,368.3Z"/><rect class="i" width="3.5" height="11" transform="translate(283.9 363.3)"/><rect class="i" width="3.5" height="11" transform="translate(278.9 363.3)"/><rect class="i" width="3.5" height="11" transform="translate(273.9 363.3)"/><rect class="i" width="3.5" height="11" transform="translate(268.9 363.3)"/><rect class="i" width="3.5" height="11" transform="translate(263.9 363.3)"/><rect class="i" width="3.5" height="11" transform="translate(258.9 363.3)"/><rect class="i" width="3.5" height="11" transform="translate(253.9 363.3)"/><rect class="i" width="3.5" height="11" transform="translate(248.8 363.3)"/><rect class="i" width="3.5" height="11" transform="translate(243.8 363.3)"/><rect class="i" width="3.5" height="11" transform="translate(238.8 363.3)"/><rect class="f" width="63" height="18.7" transform="translate(238.3 417.8)"/><rect class="i" width="3.5" height="14.3" transform="translate(296 420.1)"/><path class="a" d="M293,421.9h0a1.2,1.2,0,1,1-1.1,1.2A1.078,1.078,0,0,1,293,421.9Z"/><path class="a" d="M293,427h0a1.2,1.2,0,1,1-1.1,1.2A1.03,1.03,0,0,1,293,427Z"/><rect class="i" width="3.5" height="11" transform="translate(283.9 421.9)"/><rect class="i" width="3.5" height="11" transform="translate(278.9 421.9)"/><rect class="i" width="3.5" height="11" transform="translate(273.9 421.9)"/><rect class="i" width="3.5" height="11" transform="translate(268.9 421.9)"/><rect class="i" width="3.5" height="11" transform="translate(263.9 421.9)"/><rect class="i" width="3.5" height="11" transform="translate(258.9 421.9)"/><rect class="i" width="3.5" height="11" transform="translate(253.9 421.9)"/><rect class="i" width="3.5" height="11" transform="translate(248.8 421.9)"/><rect class="i" width="3.5" height="11" transform="translate(243.8 421.9)"/><rect class="i" width="3.5" height="11" transform="translate(238.8 421.9)"/><rect class="f" width="63" height="18.7" transform="translate(238.3 388.4)"/><rect class="i" width="3.5" height="14.3" transform="translate(296 390.8)"/><path class="a" d="M293,392.6h0a1.2,1.2,0,1,1-1.1,1.2A1.03,1.03,0,0,1,293,392.6Z"/><path class="a" d="M293,397.7h0a1.2,1.2,0,1,1-1.1,1.2A1.03,1.03,0,0,1,293,397.7Z"/><rect class="i" width="3.5" height="11" transform="translate(283.9 392.6)"/><rect class="i" width="3.5" height="11" transform="translate(278.9 392.6)"/><rect class="i" width="3.5" height="11" transform="translate(273.9 392.6)"/><rect class="i" width="3.5" height="11" transform="translate(268.9 392.6)"/><rect class="i" width="3.5" height="11" transform="translate(263.9 392.6)"/><rect class="i" width="3.5" height="11" transform="translate(258.9 392.6)"/><rect class="i" width="3.5" height="11" transform="translate(253.9 392.6)"/><rect class="i" width="3.5" height="11" transform="translate(248.8 392.6)"/><rect class="i" width="3.5" height="11" transform="translate(243.8 392.6)"/><rect class="i" width="3.5" height="11" transform="translate(238.8 392.6)"/><path class="f" d="M262.3,246.1v-4.2a13.934,13.934,0,0,1,.4-3.5,11.309,11.309,0,0,1,1.7-3.9,8.333,8.333,0,0,1,3.6-3.1,17.233,17.233,0,0,1,5-1.1l5.4-.5c7.4-.7,14.2-1.1,19.1-1.1,2.5,0,4.4,0,5.8.1l1.5.1a.749.749,0,0,1,.5.1h-2c-1.4,0-3.3-.1-5.8,0-4.9.1-11.6.5-19.1,1.2l-5.4.5a13.955,13.955,0,0,0-4.9,1.1,8.186,8.186,0,0,0-3.5,2.9,12.449,12.449,0,0,0-1.7,3.7,13.168,13.168,0,0,0-.4,3.4c-.1,1,0,1.9-.1,2.6a8.622,8.622,0,0,1-.1,1.7.446.446,0,0,1,0,.5Z"/><path class="f" d="M281.4,246.1c0-.4-.1-.9-.1-1.6a20.682,20.682,0,0,1,0-2.5,7.216,7.216,0,0,1,.8-3.2,5.687,5.687,0,0,1,3-2.5,7.153,7.153,0,0,1,4.3-.5,6.31,6.31,0,0,1,2.3.8,3.924,3.924,0,0,1,1.8,1.8,2.616,2.616,0,0,1,0,2.7,3.158,3.158,0,0,1-2.2,1.7,2.855,2.855,0,0,1-2.6-.8,4.2,4.2,0,0,1-1.2-2.5,3.75,3.75,0,0,1,.8-2.5,5.814,5.814,0,0,1,1.8-1.7,4.874,4.874,0,0,1,1.1-.4c.4-.1.7-.1,1.1-.2l2.1-.3c1.3-.1,2.6-.3,3.8-.3a45.425,45.425,0,0,1,5.5.1l1.5.1a.9.9,0,0,1,.5.1h-2c-1.3,0-3.1,0-5.4.1a25.063,25.063,0,0,0-3.7.3l-2.1.3a8.3,8.3,0,0,0-2.1.6,6.122,6.122,0,0,0-1.7,1.5,3.484,3.484,0,0,0,.3,4.5,2.313,2.313,0,0,0,2.2.7,2.852,2.852,0,0,0,1.9-1.5,2.354,2.354,0,0,0,0-2.3,3.748,3.748,0,0,0-1.7-1.6,9.037,9.037,0,0,0-2.1-.8,7.17,7.17,0,0,0-4.1.4,4.921,4.921,0,0,0-2.8,2.3,8.364,8.364,0,0,0-.8,3.1,21.817,21.817,0,0,0-.1,2.4,8.623,8.623,0,0,1-.1,1.7.446.446,0,0,1,0,.5Z"/><path class="f" d="M257.3,245.9a8.207,8.207,0,0,1,.3-1.8,46.367,46.367,0,0,1,1.7-6.4,19.04,19.04,0,0,1,2.1-4,16.31,16.31,0,0,1,3.5-3.9,9.936,9.936,0,0,1,5.2-2.1,40.208,40.208,0,0,1,6-.3c8.1-.2,15.5-.1,20.8-.2,2.7-.1,4.8-.1,6.3-.2l1.7-.1h.6a1.268,1.268,0,0,1-.6.1l-1.7.1c-1.5.1-3.7.2-6.3.3-5.3.2-12.7.2-20.8.3a58.28,58.28,0,0,0-5.9.3,10.384,10.384,0,0,0-5,2,19.451,19.451,0,0,0-5.5,7.7,45.722,45.722,0,0,0-1.9,6.3c-.3,1-.4,1.6-.5,1.9a1.483,1.483,0,0,1-.1.7A1.954,1.954,0,0,1,257.3,245.9Z"/><rect class="f" width="61.2" height="9.4" transform="translate(239.2 211.3)"/><rect class="i" width="33.3" height="4.7" transform="translate(253.6 216)"/><path class="f" d="M214.6,405.4c.5.1.9.2,1.4.3a15.817,15.817,0,0,1,4.7,2.3,13.264,13.264,0,0,1,2.7,2.6,9.551,9.551,0,0,1,1.8,3.9c.7,3,.5,6.5.4,10s.1,6.9,1.3,9.7a10.458,10.458,0,0,0,2.4,3.4,12.086,12.086,0,0,0,3,2,13.086,13.086,0,0,0,2.8.9,16.351,16.351,0,0,0,2.2.2,12.856,12.856,0,0,1,1.9-.2.9.9,0,0,1-.5.1,6.752,6.752,0,0,1-1.4.2,8.879,8.879,0,0,1-2.3-.1,11.136,11.136,0,0,1-5.9-3,10.718,10.718,0,0,1-2.5-3.5c-1.3-2.8-1.5-6.3-1.4-9.8s.3-6.9-.4-9.9a17.232,17.232,0,0,0-.7-2.1,9.907,9.907,0,0,0-1.1-1.7,10.3,10.3,0,0,0-2.6-2.5,14.484,14.484,0,0,0-4.6-2.4c-1.2-.4-1.9-.4-1.9-.5C214.3,405.3,214.5,405.3,214.6,405.4Z"/><rect class="f" width="5" height="6.4" transform="translate(237.4 437.5)"/><rect class="i" width="28.2" height="32.5" transform="translate(186 389.1)"/><ellipse class="f" cx="9.3" cy="9.8" rx="9.3" ry="9.8" transform="translate(190.8 395.6)"/><path class="i" d="M200,400.6a4.91,4.91,0,1,1-4.6,4.9A4.788,4.788,0,0,1,200,400.6Z"/><circle class="f" cx="0.9" cy="0.9" r="0.9" transform="translate(209.5 393.2)"/><circle class="f" cx="0.9" cy="0.9" r="0.9" transform="translate(189.4 393.2)"/><path class="f" d="M190.1,417.2h0a.9.9,0,1,1-.9.9A.9.9,0,0,1,190.1,417.2Z"/><circle class="f" cx="0.9" cy="0.9" r="0.9" transform="translate(209.5 417.6)"/><rect class="f" width="2.3" height="32.5" transform="translate(183.7 389.1)"/><path class="g" d="M68.4,311.9a4.116,4.116,0,0,0,1.9,2l.7.3-.5.2a3.952,3.952,0,0,0-2.2,2l-.3.5-.2-.4a3.962,3.962,0,0,0-2.2-2.2l-.6-.2.6-.2a4.117,4.117,0,0,0,2.2-2.1l.2-.6Z"/><path class="g" d="M34.3,264a4.116,4.116,0,0,0,1.9,2l.7.3-.5.2a3.952,3.952,0,0,0-2.2,2l-.2.5-.2-.4a3.962,3.962,0,0,0-2.2-2.2l-.6-.2.6-.3a3.62,3.62,0,0,0,2.1-2.1l.2-.5Z"/><path class="g" d="M49.6,166.5a8.6,8.6,0,0,1-3.2,0A8.6,8.6,0,0,1,49.6,166.5Z"/><path class="g" d="M44.7,165.4a8.6,8.6,0,0,1,0-3.2A5.8,5.8,0,0,1,44.7,165.4Z"/><path class="g" d="M41.3,166.6a2.966,2.966,0,0,1-1.6-.2,4.4,4.4,0,0,1,1.6-.2,2.966,2.966,0,0,1,1.6.2A4.145,4.145,0,0,1,41.3,166.6Z"/><path class="g" d="M44.6,167.5a8.6,8.6,0,0,1,0,3.2A8.6,8.6,0,0,1,44.6,167.5Z"/><path class="g" d="M42.5,168.1a1.49,1.49,0,0,1,.7-.6c.1,0-.1.4-.4.8a1.49,1.49,0,0,1-.7.6C42,168.8,42.2,168.4,42.5,168.1Z"/><path class="g" d="M42.9,164.4a3.083,3.083,0,0,1,.5.7,1.39,1.39,0,0,1-.7-.5c-.3-.4-.5-.6-.5-.7A1.791,1.791,0,0,1,42.9,164.4Z"/><path class="g" d="M46.3,164.6c.3-.3.6-.4.7-.3s-.1.3-.5.6-.6.4-.7.3C45.8,165.1,46,164.9,46.3,164.6Z"/><path class="g" d="M46.7,167.8c.3.3.5.6.4.7s-.4-.2-.7-.5-.5-.6-.4-.7A1.791,1.791,0,0,1,46.7,167.8Z"/><path class="h" d="M407.5,442.3l-.1-1.6-17.3.5.5,6.7h1.1c4.8-.1,24.2-1,27.3-2.2C422.4,444.4,407.5,442.3,407.5,442.3Z"/><path class="j" d="M396.8,447.3a6.356,6.356,0,0,0-2.5-3.5,5.951,5.951,0,0,0-4.1-.9l.4,4.8Z"/><path class="j" d="M414.8,443.6s5.2,1.1,4.7,2-20.2,2.5-28.9,2.4v-.4l22.9-1.6C413.5,445.9,413.8,443.7,414.8,443.6Z"/><path class="f" d="M390.3,447.6h1.2l3.1-.1c2.6-.1,6.3-.3,10.3-.6s7.7-.7,10.3-1l3.1-.4.8-.1h0l-.9.1-3.1.3c-2.6.3-6.3.6-10.3.9s-7.7.5-10.3.7l-3.1.2-.9.1C390.5,447.5,390.4,447.5,390.3,447.6Z"/><path class="f" d="M413.5,446.1a4.424,4.424,0,0,1,.5-1.5,6.419,6.419,0,0,1,1-1.3,2.84,2.84,0,0,0-1.5,2.8Z"/><path class="f" d="M408.2,444a3.03,3.03,0,0,0,.5-.7c.2-.4.4-.8.3-.8s-.3.3-.5.7A4.416,4.416,0,0,0,408.2,444Z"/><path class="f" d="M406.8,443.4a4.434,4.434,0,0,0,.6-.5c.3-.3.5-.5.4-.6s-.3.2-.6.5S406.7,443.3,406.8,443.4Z"/><path class="f" d="M405.8,441.8a1.387,1.387,0,0,0,.9,0c.5,0,.9-.1.9-.2a1.387,1.387,0,0,0-.9,0C406.2,441.7,405.8,441.8,405.8,441.8Z"/><path class="f" d="M408.7,442.4a4.1,4.1,0,0,0,1.1-.1,3.583,3.583,0,0,0,1.1-.4l.6-.3a1.38,1.38,0,0,0,.3-.4.52.52,0,0,0-.2-.4,1.948,1.948,0,0,0-2.6,1.1.9.9,0,0,0-.1.5v.3a3,3,0,0,1,.4-1,1.6,1.6,0,0,1,.9-.7,1.483,1.483,0,0,1,1.3,0c.2.1.1.3,0,.5l-.6.3a4.874,4.874,0,0,1-1.1.4A4.469,4.469,0,0,1,408.7,442.4Z"/><path class="f" d="M409,442.5a1.949,1.949,0,0,0,.1-.8,2.01,2.01,0,0,0-.4-.8,1.231,1.231,0,0,0-1-.5c-.2.1-.4.3-.3.5,0,.2.1.3.2.5l.6.6a1.612,1.612,0,0,0,.7.4,2.651,2.651,0,0,0-.6-.5,2.651,2.651,0,0,1-.5-.6c-.2-.2-.3-.6,0-.7s.6.2.8.4a1.612,1.612,0,0,1,.4.7A2.151,2.151,0,0,0,409,442.5Z"/><path class="f" d="M390.3,442.8a7.308,7.308,0,0,1,1.3-.1,5.533,5.533,0,0,1,4.8,3.2,6.744,6.744,0,0,1,.4,1.2v-.4a3.179,3.179,0,0,0-.3-.9,5.325,5.325,0,0,0-4.9-3.3,3.751,3.751,0,0,0-1,.1C390.4,442.8,390.3,442.8,390.3,442.8Z"/><path class="f" d="M398.8,445.4a10.454,10.454,0,0,0,2.5,0,10.856,10.856,0,0,0,2.5-.4,19.666,19.666,0,0,0-2.5.2C399.9,445.3,398.9,445.4,398.8,445.4Z"/><path class="f" d="M395.5,445.7a4.206,4.206,0,0,1,.2.5c.1.3.2.5.3.5s.1-.3-.1-.6S395.5,445.6,395.5,445.7Z"/><path class="f" d="M394.1,444.2a1.727,1.727,0,0,0,.3.4c.2.2.4.3.4.2s-.1-.2-.3-.4A.62.62,0,0,0,394.1,444.2Z"/><path class="f" d="M392.2,443.6c0,.1.3,0,.5.1s.5.2.5.1-.1-.3-.4-.4S392.2,443.6,392.2,443.6Z"/><path class="f" d="M390.9,443.4l.2.2c.1.1.3,0,.3,0l-.2-.2C391.1,443.3,390.9,443.3,390.9,443.4Z"/><path class="k" d="M386.7,413l3.6,28.3,16.7-.2-2.9-32.3L386.7,413"/><path class="j" d="M390.1,441.2l-1.2-11,17-1.6,1.1,12.5Z"/><path class="i" d="M406.3,431.3a78.916,78.916,0,0,1-8.5,1,80.754,80.754,0,0,1-8.5.5,78.916,78.916,0,0,1,8.5-1A59.718,59.718,0,0,1,406.3,431.3Z"/><path class="i" d="M406.4,432.4a78.916,78.916,0,0,1-8.5,1,80.754,80.754,0,0,1-8.5.5,78.916,78.916,0,0,1,8.5-1A59.718,59.718,0,0,1,406.4,432.4Z"/><path class="l" d="M413.1,141.5l4.4,11.9h.1l14.7,29.2c3.9,7.2,2.2,19.2-9.4,23.1-9.3,3.1-28.6-5.8-28.6-5.8l2.3-16.9,18.8,5.6-7.4-31s-.6-1.1-2.1-4.4l-6.1-6.1s.3-1.8,3.3.8a2.074,2.074,0,0,0,2.8-.6,1.857,1.857,0,0,0,.1-1.9,3.241,3.241,0,0,0-4.3-1.2,2.827,2.827,0,0,0-1.4,1.8s-1.2.5-1.6-.4,1.5-4.1,4-4.1a7.653,7.653,0,0,1,3,.6s-3-7.6-2.4-7.8,1.6-.1,4.8,8.2c0,0-1.9-6.8-2-7.7s.8-1.8,1.7.3l2.6,6.7s-.6-4.6-.7-4.9c-.1-1,.9-1.2,1.3,0A39.1,39.1,0,0,1,413.1,141.5Z"/><path class="l" d="M343.6,250.2l.2-12s-13.4-5.1-14.4-5.6l9.4-21.4-16.5-4.6s-12.7,30.6-10.2,34.4c3.7,5.7,21,8.2,28.3,8.9h0l-3.2,6.6-3.4,3.7,1,2s9.1-5,8.9-5-.1-3.5-.1-7Z"/><path class="f" d="M351.6,145.6c-.1-1.6-.8-6.7-.9-8.3a4.7,4.7,0,0,1-.2-9.4,7.719,7.719,0,0,1,1.5.2,6.752,6.752,0,0,1,11.9-5.5c.1-1.8,2.1-2.9,3.9-3.4a6.928,6.928,0,0,1,4.5.2,3.372,3.372,0,0,1,2,3.8,3.912,3.912,0,0,1,6.1,4.9,4.662,4.662,0,0,1-2.8,8.8"/><path class="l" d="M354.5,175.5l18.1-1.4c.1-2.1,0-10.3,0-10.3s7.5-1.2,7.6-8.7-1.2-24.8-1.2-24.8h0a26.253,26.253,0,0,0-26.3,3.3l-1.1.9Z"/><path class="f" d="M376.4,143.2a1.063,1.063,0,0,1,1.4-1.6,1.215,1.215,0,0,1,.1,1.6A1.081,1.081,0,0,1,376.4,143.2Z"/><path class="f" d="M379.1,141.5a4.713,4.713,0,0,0-3.8,0c-.1-.1.1-.3.4-.5a2.4,2.4,0,0,1,3,0C379,141.2,379.1,141.4,379.1,141.5Z"/><path class="f" d="M366.5,142.4a1.1,1.1,0,1,1-1.5.4,1.045,1.045,0,0,1,1.5-.4Z"/><path class="f" d="M367.8,142.4a4.713,4.713,0,0,0-3.8,0c-.1-.1.1-.3.4-.5a2.5,2.5,0,0,1,3,0C367.8,142.1,367.9,142.3,367.8,142.4Z"/><path class="f" d="M372,150.9a8.468,8.468,0,0,1,1.7-.4c.3,0,.5-.1.5-.2a2.353,2.353,0,0,0-.2-.8c-.3-.7-.5-1.4-.8-2.1a27.221,27.221,0,0,1-1.8-5.5,27.428,27.428,0,0,1,2.3,5.3c.3.7.5,1.4.8,2.1a1.417,1.417,0,0,1,.1,1.1c-.1.2-.2.4-.5.4-.2,0-.3.1-.5.1A2.208,2.208,0,0,1,372,150.9Z"/><path class="a" d="M368.6,152.1c1.4.4,3,1.6,5.1,1.5a2.813,2.813,0,0,1-3.4,1.1A2.2,2.2,0,0,1,368.6,152.1Z"/><path class="b" d="M373,154.3a15.456,15.456,0,0,1-2.3-.7,6.985,6.985,0,0,1-2.1-1.1s1,.4,2.2.9A10.2,10.2,0,0,1,373,154.3Z"/><path class="b" d="M369.7,152.7l-.3.4.4.3.4-.5Z"/><path class="b" d="M371.2,153.4l-.3.4.4.3.3-.5Z"/><path class="b" d="M372.5,153.8l-.3.5.4.2.4-.5Z"/><path class="k" d="M372.6,163.6a16.976,16.976,0,0,1-9.8-2.8s2.3,5.4,9.8,4.7Z"/><path class="l" d="M351.6,141.7c-.2,0-5.6-.4-4.7,5.9s7,3.3,7,3.1S351.6,141.7,351.6,141.7Z"/><path class="k" d="M351.6,148.8a1.238,1.238,0,0,1-.3.2.755.755,0,0,1-.8.1,2.806,2.806,0,0,1-1.6-2.3,2.917,2.917,0,0,1,.1-1.6,1.445,1.445,0,0,1,.7-1,.574.574,0,0,1,.7.2.774.774,0,0,1,.1.3s.1-.1,0-.4a1.381,1.381,0,0,0-.3-.4,1.268,1.268,0,0,0-.6-.1,1.573,1.573,0,0,0-1,1.1,3.672,3.672,0,0,0-.1,1.8,2.8,2.8,0,0,0,2,2.5,1.209,1.209,0,0,0,1-.3C351.6,149,351.6,148.8,351.6,148.8Z"/><path class="f" d="M380.3,129.7a5.08,5.08,0,0,0-2.7-3.2,14.436,14.436,0,0,0-4.2-1.1c-5-.7-10.3-1.1-15.2.4a10.969,10.969,0,0,0-6.1,4c-1.2,1.8-2.2,4.4-1.3,6.3h0l1.2,11.1a8.1,8.1,0,0,0,2.2,0v-8.8a4.084,4.084,0,0,0,1.9-.1,5.09,5.09,0,0,0,3.6-4,5.652,5.652,0,0,0,7.9,1.4A5.78,5.78,0,0,0,370,131a7.071,7.071,0,0,0,6,3.6C378.5,134.5,380.8,132.1,380.3,129.7Z"/><path class="f" d="M350.3,126.7c-.1.1-.8-.6-1.8-1.1-1-.6-1.9-.8-1.9-1s1-.1,2.1.5S350.5,126.6,350.3,126.7Z"/><path class="f" d="M350.6,125.6c-.1.1-.7-.8-.9-2.1a3.6,3.6,0,0,1,.1-2.3,8.505,8.505,0,0,1,.4,2.2A5.382,5.382,0,0,1,350.6,125.6Z"/><path class="f" d="M356.2,144.3c2.1-.5,3.9-.8,4.5-.9-.1-.4-.1-.7-.2-1.1a5.581,5.581,0,0,1,1-3.3,5.456,5.456,0,0,1,2.5-2,5.343,5.343,0,0,1,5.2.7,5.2,5.2,0,0,1,2,3,3.4,3.4,0,0,1,.1,1v.4a4.115,4.115,0,0,0-.3-1.3,6.292,6.292,0,0,0-2-2.8,5.259,5.259,0,0,0-5-.6,5,5,0,0,0-2.4,1.9,4.907,4.907,0,0,0-.9,3.1,5.5,5.5,0,0,0,1.1,3,5.259,5.259,0,0,0,7.4.9h0a5.692,5.692,0,0,0,1.9-2.9c.1-.3.1-.7.2-1a.167.167,0,1,1,0-.2h0c.2,0,.4-.1.6-.1a2.2,2.2,0,0,1,.8.1v-.1a5.376,5.376,0,0,1,1-3.3,5.456,5.456,0,0,1,2.5-2,5.343,5.343,0,0,1,5.2.7,5.2,5.2,0,0,1,2,3,3.4,3.4,0,0,1,.1,1v.4a4.115,4.115,0,0,0-.3-1.3,5.285,5.285,0,0,0-4.3-3.7,6.1,6.1,0,0,0-2.7.3,5.359,5.359,0,0,0-3.3,5,4.823,4.823,0,0,0,1.1,3,5.768,5.768,0,0,0,2.5,1.8,4.876,4.876,0,0,0,4.9-.9,5.692,5.692,0,0,0,1.9-2.9,5.944,5.944,0,0,0,.2-1.3v.3a3.4,3.4,0,0,1-.1,1,5.111,5.111,0,0,1-1.9,3.1,4.929,4.929,0,0,1-2.3,1.1,5.438,5.438,0,0,1-6.7-5,2.2,2.2,0,0,1-.8.1h-.6a3.4,3.4,0,0,1-.1,1,5.434,5.434,0,0,1-10.6.2,41.6,41.6,0,0,1-4.5,1.1,40.48,40.48,0,0,1-4.8.9A26,26,0,0,1,356.2,144.3Z"/><path class="f" d="M369.1,139.9c-.2.7-1.7.9-3.4,1s-3.2.2-3.5-.5c-.1-.3.1-.8.7-1.2a6.22,6.22,0,0,1,2.6-.9,5.025,5.025,0,0,1,2.7.5C368.9,139.1,369.2,139.6,369.1,139.9Z"/><path class="f" d="M380.4,138.9c-.3.7-1.5.8-2.8,1s-2.6.2-3-.5c-.2-.3,0-.8.5-1.2a4.306,4.306,0,0,1,2.2-.9,4.025,4.025,0,0,1,2.4.5C380.2,138.1,380.5,138.6,380.4,138.9Z"/><path class="f" d="M368.9,138.3c.1-.1.5.3.7,1s.2,1.2.1,1.2-.4-.4-.6-1S368.8,138.4,368.9,138.3Z"/><path class="k" d="M350,413l.9,28.6,16.7,1.3.1-32.4L350,413"/><path class="j" d="M350.7,441.4l-.1-11h17v12.5Z"/><path class="h" d="M368,444.2v-1.6l-17.3-1.1-.1,6.8,1.1.1c4.8.3,24.2,1.3,27.4.4C382.6,447.6,368,444.2,368,444.2Z"/><path class="m" d="M356.9,448.2a5.846,5.846,0,0,0-6.1-5l-.1,4.8Z"/><path class="m" d="M375.2,446.1s5.1,1.5,4.5,2.4-20.3.6-29-.3v-.4l22.9.5C373.5,448.3,374.2,446.1,375.2,446.1Z"/><path class="f" d="M350.4,447.8h.3l.9.1,3.1.2c2.6.1,6.3.3,10.3.3h10.3l3.1-.1H365.1c-4,0-7.7-.2-10.3-.3l-3.1-.1h-.9Z"/><path class="f" d="M373.6,448.6a9.384,9.384,0,0,1,.6-1.5,11.988,11.988,0,0,1,1.1-1.2A2.754,2.754,0,0,0,373.6,448.6Z"/><path class="f" d="M368.5,445.9l.6-.6a1.426,1.426,0,0,0,.4-.8c0-.1-.3.3-.5.6A2.509,2.509,0,0,0,368.5,445.9Z"/><path class="f" d="M367.2,445.2a1.716,1.716,0,0,0,.6-.4l.5-.5a1.716,1.716,0,0,0-.6.4C367.4,445,367.1,445.1,367.2,445.2Z"/><path class="f" d="M366.3,443.6a1.412,1.412,0,0,0,.9.1,2.768,2.768,0,0,0,.9-.1,2.768,2.768,0,0,0-.9-.1A1.412,1.412,0,0,0,366.3,443.6Z"/><path class="f" d="M369.2,444.4a2.054,2.054,0,0,0,1.1,0,5.019,5.019,0,0,0,1.2-.2c.2-.1.5-.2.7-.3l.3-.3c0-.2,0-.3-.2-.4a1.9,1.9,0,0,0-2.5.6,2.506,2.506,0,0,0-.4.7v.3a2.622,2.622,0,0,1,.5-.9,2.075,2.075,0,0,1,1-.6,1.95,1.95,0,0,1,1.3.1c.2.1.1.3-.1.5l-.6.3c-.4.1-.8.2-1.1.3A10.9,10.9,0,0,0,369.2,444.4Z"/><path class="f" d="M369.4,444.5a1.062,1.062,0,0,0,.1-.8,1.136,1.136,0,0,0-.3-.8,1.149,1.149,0,0,0-.9-.6c-.2.1-.4.3-.3.5,0,.2.1.3.2.5a3.039,3.039,0,0,0,.5.7,1.793,1.793,0,0,0,.7.5q-.15,0-.6-.6a4.233,4.233,0,0,1-.5-.7c-.1-.2-.3-.7,0-.7s.5.3.7.5a1.08,1.08,0,0,1,.3.7A2.485,2.485,0,0,1,369.4,444.5Z"/><path class="f" d="M350.8,443.1a11.616,11.616,0,0,1,1.3.1,5.025,5.025,0,0,1,2.8,1.2,5.343,5.343,0,0,1,1.7,2.5,3.366,3.366,0,0,1,.3,1.2v-.4a2.92,2.92,0,0,0-.2-.9,5.63,5.63,0,0,0-1.7-2.6,5.032,5.032,0,0,0-2.9-1.2h-1C351,443,350.9,443.1,350.8,443.1Z"/><path class="f" d="M359.1,446.5a10.679,10.679,0,0,0,2.5.3,10.553,10.553,0,0,0,2.5-.2,17.184,17.184,0,0,0-2.5,0C360.2,446.6,359.1,446.4,359.1,446.5Z"/><path class="f" d="M355.7,446.5a4.206,4.206,0,0,1,.2.5,4.206,4.206,0,0,0,.2.5,1.056,1.056,0,0,0,0-.6C356,446.6,355.7,446.4,355.7,446.5Z"/><path class="f" d="M354.4,444.9a1.768,1.768,0,0,0,.7.7l-.2-.4C354.7,444.9,354.5,444.8,354.4,444.9Z"/><path class="f" d="M352.6,444.1c0,.1.2.1.5.1s.4.2.5.2a.683.683,0,0,0-.4-.4A.77.77,0,0,0,352.6,444.1Z"/><path class="f" d="M351.3,443.7c0,.1.1.1.2.2s.3.1.3,0-.1-.1-.2-.2Z"/><path class="i" d="M367.8,433.1a80.4,80.4,0,0,1-8.5.2,61.822,61.822,0,0,1-8.6-.3,81.666,81.666,0,0,1,8.6-.2A60.392,60.392,0,0,1,367.8,433.1Z"/><path class="i" d="M367.8,434.2a80.4,80.4,0,0,1-8.5.2,82.387,82.387,0,0,1-8.6-.3,81.666,81.666,0,0,1,8.6-.2A60.387,60.387,0,0,1,367.8,434.2Z"/><path class="h" d="M414.3,187.4a138.944,138.944,0,0,1-18.6-8c-11.9-7-18-7.4-21.5-7.6l-.5-6.1-20.3-1.1v7.5a41.265,41.265,0,0,0-9.8,1.8c-8.1,2.9-14.6,7.4-18.3,17l-7.8,17.3,21.9,5.8,3.7-8.1.4,21.2.2,23,51.1,2.9-1.9-23.1-1.2-23.7,14.9,4.3Z"/><path class="f" d="M403,209.1a19.294,19.294,0,0,1,1.1-3.4c.7-2.2,1.7-5.1,2.7-8.2s2-6.1,2.8-8.2c.4-1,.7-1.9.9-2.4a3.553,3.553,0,0,1,.4-.9,33.736,33.736,0,0,1-1,3.4c-.7,2.2-1.6,5.1-2.6,8.2s-2.1,6.1-2.9,8.1a22.085,22.085,0,0,1-1,2.4A3,3,0,0,1,403,209.1Z"/><path class="f" d="M341.1,210.7a2.768,2.768,0,0,1-.9-.1c-.6-.1-1.4-.2-2.5-.4-2.1-.4-5-1-8.1-1.8a70.8,70.8,0,0,1-8-2.5q-1.5-.6-2.4-.9a2.01,2.01,0,0,1-.8-.4c1.1.3,2.2.6,3.3,1,2,.6,4.8,1.5,8,2.3s6,1.5,8.1,1.9C338.9,210.2,340,210.4,341.1,210.7Z"/><path class="f" d="M366.3,251.3c-.1,0-.6-17.4-1.1-39s-.7-39-.6-39,.6,17.4,1.1,39S366.5,251.3,366.3,251.3Z"/><path class="f" d="M367.4,187.1c0,.1-.3.3-.3.8a.908.908,0,0,0,.3.7.71.71,0,0,0,1.1-.2.749.749,0,0,0,.1-.5.675.675,0,0,0-.4-.6.975.975,0,0,0-.8-.2c0-.1.4-.4,1.1-.1a1.272,1.272,0,0,1,.7.9,1.244,1.244,0,0,1-1.1,1.4,1.4,1.4,0,0,1-.9-.3,1.129,1.129,0,0,1-.3-1.1C366.9,187.2,367.4,187,367.4,187.1Z"/><path class="f" d="M368.4,208.4c0,.1-.3.3-.3.8a.908.908,0,0,0,.3.7.783.783,0,0,0,.8.1.569.569,0,0,0,.4-.7.675.675,0,0,0-.4-.6.846.846,0,0,0-.8-.3.883.883,0,0,1,1-.2,1.272,1.272,0,0,1,.7.9,1.244,1.244,0,0,1-1.1,1.4,1.4,1.4,0,0,1-.9-.3,1.129,1.129,0,0,1-.3-1.1C367.9,208.5,368.4,208.3,368.4,208.4Z"/><path class="f" d="M368.4,225.1c0,.1-.3.3-.3.8a.908.908,0,0,0,.3.7.783.783,0,0,0,.8.1.569.569,0,0,0,.4-.7.675.675,0,0,0-.4-.6c-.4-.4-.7-.2-.8-.3a.883.883,0,0,1,1-.2,1.272,1.272,0,0,1,.7.9,1.244,1.244,0,0,1-1.1,1.4,1.4,1.4,0,0,1-.9-.3,1.129,1.129,0,0,1-.3-1.1A.822.822,0,0,1,368.4,225.1Z"/><path class="f" d="M369.4,240c0,.1-.3.3-.3.8a.908.908,0,0,0,.3.7.6.6,0,0,0,.8,0,.569.569,0,0,0,.4-.7.675.675,0,0,0-.4-.6.7.7,0,0,0-.8-.2c0-.2.4-.5,1.1-.2a1.208,1.208,0,1,1-1,2.2,1.274,1.274,0,0,1-.7-1.4C368.9,240,369.4,239.9,369.4,240Z"/><path class="f" d="M378.6,172.1l2,42.2h3.2l-2-41.4Z"/><path class="f" d="M380.7,217.8l3.2,34.9a16.279,16.279,0,0,0,3.1-.3c-.1-.2-3-34.5-3-34.5Z"/><path class="f" d="M383.9,214.2a2.879,2.879,0,0,1-1.6.3,3.476,3.476,0,0,1-1.6-.2,2.88,2.88,0,0,1,1.6-.3A3.476,3.476,0,0,1,383.9,214.2Z"/><path class="f" d="M383.9,217.6a2.692,2.692,0,0,1-1.5.3c-.8,0-1.5,0-1.5-.2s.7-.3,1.5-.3A3.221,3.221,0,0,1,383.9,217.6Z"/><path class="f" d="M382.1,217.9a3.911,3.911,0,0,1-.5-1.9,4.937,4.937,0,0,1,0-1.9,3.911,3.911,0,0,1,.5,1.9C382.2,217.1,382.3,217.8,382.1,217.9Z"/><path class="f" d="M383.1,217.9a3.633,3.633,0,0,1-.5-1.7,4.69,4.69,0,0,1,0-1.8,3.633,3.633,0,0,1,.5,1.7A4.69,4.69,0,0,1,383.1,217.9Z"/><path class="f" d="M348.7,217.9l.6,32.7a19.4,19.4,0,0,0,3.4.2c-.1-.2-.8-32.8-.8-32.8Z"/><path class="f" d="M348,172.4l.4,41.9h3.2l-.4-42.3Z"/><path class="f" d="M351.6,214.4a3.476,3.476,0,0,1-1.6.2c-.9,0-1.6-.1-1.6-.3a2.419,2.419,0,0,1,1.6-.2C350.9,214.1,351.6,214.2,351.6,214.4Z"/><path class="f" d="M352.1,217.9a2.681,2.681,0,0,1-1.7.4c-1,0-1.7-.2-1.7-.4s.8-.1,1.7-.2C351.3,217.7,352.1,217.7,352.1,217.9Z"/><path class="f" d="M349.9,218.2a4.457,4.457,0,0,1-.4-1.8,4.121,4.121,0,0,1,.1-1.9,4.457,4.457,0,0,1,.4,1.8C350.1,217.3,350.1,218.2,349.9,218.2Z"/><path class="f" d="M350.9,218.2a4.457,4.457,0,0,1-.4-1.8,4.121,4.121,0,0,1,.1-1.9,4.457,4.457,0,0,1,.4,1.8A4.121,4.121,0,0,1,350.9,218.2Z"/><path class="i" d="M372.3,168.2c-1-.5-4.7,1.5-6.7,2.8a1.33,1.33,0,0,0-.3-.8h-2.8a1.577,1.577,0,0,1-.1.4,14.979,14.979,0,0,0-5.1-2.4,1.347,1.347,0,0,0-1.6,1v.3c-.1,2-.2,5.7.4,6,.9.5,4.3-1.3,6.4-2.6l.3.6,2.9-.2v-.4a15.038,15.038,0,0,0,5.4,2.6,1.435,1.435,0,0,0,1.6-1v-.2C372.8,172.2,372.9,168.6,372.3,168.2Z"/><path class="f" d="M365.5,173.1a11.924,11.924,0,0,1-.1-1.5,4.34,4.34,0,0,1-.1-1.5c.1-.1.6.6.6,1.4S365.7,173.2,365.5,173.1Z"/><path class="f" d="M369.9,170.6a4.982,4.982,0,0,1-1.9.8,3.861,3.861,0,0,1-2.1.3,4.982,4.982,0,0,1,1.9-.8C368.9,170.6,369.8,170.4,369.9,170.6Z"/><path class="f" d="M370,172.9a5.5,5.5,0,0,1-2.2-.2,4.756,4.756,0,0,1-2.1-.7,5.339,5.339,0,0,1,2.2.2A3.771,3.771,0,0,1,370,172.9Z"/><path class="f" d="M362.6,173.2c-.1,0-.4-.5-.5-1.3s.1-1.4.3-1.3.2.6.2,1.3S362.7,173.1,362.6,173.2Z"/><path class="f" d="M357.3,171a5.7,5.7,0,0,1,2.6,0,5.421,5.421,0,0,1,2.5.6,14.306,14.306,0,0,1-5.1-.6Z"/><path class="f" d="M358.4,173.3a5.262,5.262,0,0,1,2-1,5.374,5.374,0,0,1,2.1-.5c.1.1-.8.6-2,1A6.029,6.029,0,0,1,358.4,173.3Z"/><path class="f" d="M343.9,249.8l2.5,175.8,24.9-1.2,1.3-136.8,10.3,138h26.2L394.9,252.9Z"/><path class="i" d="M345.7,424.8v4.3l25.9-.6.3-5.3Z"/><path class="i" d="M382.7,424.8v4.3l26.6-1-.4-4.9Z"/><path class="i" d="M368.7,271.4a1.854,1.854,0,0,0,.7-.2,2.087,2.087,0,0,0,1.1-1.6,10.8,10.8,0,0,0-.2-3.1c-.1-1.2-.3-2.5-.4-3.8-.3-2.7-.5-5.2-.7-7a14.078,14.078,0,0,1-.1-2.9,13.521,13.521,0,0,1,.5,2.9c.2,1.8.5,4.3.8,7,.1,1.4.3,2.6.4,3.8a11.45,11.45,0,0,1,.1,3.2,2.217,2.217,0,0,1-1.4,1.7A.89.89,0,0,1,368.7,271.4Z"/><path class="i" d="M366.1,252.3a3.23,3.23,0,0,1,.9.8,2.389,2.389,0,0,1,.5,1.4,1.136,1.136,0,0,1-.3.8,1.193,1.193,0,0,1-.9.5,1.49,1.49,0,0,1-1.3-1.2,2.2,2.2,0,0,1,.2-1.4c.4-.7.7-1,.8-1s-.2.4-.4,1.1a2.161,2.161,0,0,0-.1,1.1,1.075,1.075,0,0,0,.9.8c.4,0,.7-.4.8-.8a2.016,2.016,0,0,0-.3-1.1C366.3,252.7,366,252.4,366.1,252.3Z"/><path class="i" d="M358.4,424c-.1,0-.3-36.5-.3-81.5s.1-81.5.3-81.5.3,36.5.3,81.5S358.6,424,358.4,424Z"/><path class="i" d="M395.5,425v-.4c0-.3-.1-.7-.1-1.2-.1-1.1-.2-2.6-.3-4.6-.3-4-.7-9.8-1.2-17-1-14.3-2.3-34.1-3.7-56s-2.5-41.7-3.1-56c-.3-7.2-.6-13-.7-17-.1-2-.1-3.5-.1-4.6V267a5.739,5.739,0,0,0,.1,1.2c0,1.1.1,2.6.2,4.6.2,4,.5,9.8.9,17,.8,14.3,1.9,34.1,3.3,56s2.6,41.6,3.6,56c.4,7.1.8,12.9,1,17,.1,2,.2,3.5.2,4.6v1.2A.6.6,0,0,0,395.5,425Z"/></g></svg>