<svg xmlns="http://www.w3.org/2000/svg" width="480.2" height="416.815" viewBox="0 0 480.2 416.815"><defs><style>.a{fill:#f5f5f5;}.b{fill:#e0e0e0;}.c,.o{fill:#06826a;}.d{fill:#263238;}.e{fill:#37474f;}.f{fill:#455a64;}.g{opacity:0.2;}.h{fill:#edbd8c;}.i{fill:#9a4a4d;}.j{fill:#f28f8f;}.k{fill:#a5a9aa;}.aa,.l,.p{fill:#fff;}.l{opacity:0.5;}.m{fill:#ba68c8;}.n{fill:#686868;}.aa,.o{opacity:0.4;}.q,.t,.w{opacity:0.15;}.r{fill:#fafafa;}.s,.u{opacity:0.3;}.v,.w,.x{fill:#ff3600;}.v,.y{opacity:0.1;}.z{fill:#d62d07;}</style></defs><g transform="translate(3.4 -52.185)"><ellipse class="a" cx="240.1" cy="122.6" rx="240.1" ry="122.6" transform="translate(-3.4 223.8)"/><path class="b" d="M96.6,340.2c16.5,9.3,16.6,24.6.4,34.2s-42.8,9.9-59.2.6-16.6-24.6-.4-34.2S80.2,330.9,96.6,340.2Z"/><path class="c" d="M193.7,92.5l-1.8-4.1a2.361,2.361,0,0,0-.9-.8,8.428,8.428,0,0,1-1.4-.6h-.3c-.1,0-.1.1-.1.2l-.9,2.4a.85.85,0,0,1-.3.5.972.972,0,0,1-1.4-.1l-3.1-2.8a2.64,2.64,0,0,1-.7-1.9l.4-3.1a2.663,2.663,0,0,0-.3-1.2,16.443,16.443,0,0,1-1.4-2.2,1.05,1.05,0,0,0-.9-.5h-2.1a1.815,1.815,0,0,1-1.6-1.2l-1.7-4.6h0a1.337,1.337,0,0,1,.8-1.7l1.8-.6a.486.486,0,0,0,.3-.6,16.351,16.351,0,0,1-.2-2.2,2.078,2.078,0,0,0-.5-1.2l-2.8-2.8a1.9,1.9,0,0,1-.5-1.9l.8-3.1a.764.764,0,0,1,.2-.5,1.071,1.071,0,0,1,1.4-.1l2.8,2.1h0c.2.1.4.1.5-.1a2.336,2.336,0,0,1,.7-.7,1.222,1.222,0,0,0,.3-.9l-1.2-4.1a1.729,1.729,0,0,1,.1-1,1.456,1.456,0,0,1,.9-.6l2.2-.3a1.682,1.682,0,0,1,1.7.9l1.8,4a2.361,2.361,0,0,0,.9.8,8.428,8.428,0,0,1,1.4.6h.3c.1,0,.1-.1.1-.2l.9-2.4a.85.85,0,0,1,.3-.5.972.972,0,0,1,1.4.1l3.1,2.8a2.64,2.64,0,0,1,.7,1.9l-.4,3.1a2.663,2.663,0,0,0,.3,1.2,16.443,16.443,0,0,1,1.4,2.2,1.05,1.05,0,0,0,.9.5h2.1a1.761,1.761,0,0,1,1.6,1.1l1.7,4.6a1.7,1.7,0,0,1,0,1,1.387,1.387,0,0,1-.8.7l-1.8.6a.486.486,0,0,0-.3.6,16.351,16.351,0,0,1,.2,2.2,2.078,2.078,0,0,0,.5,1.2l2.7,2.9A2.157,2.157,0,0,1,204,84l-.8,3.1a.969.969,0,0,1-.7.8,1.232,1.232,0,0,1-1-.2l-2.8-2.1h0c-.2-.1-.4-.1-.5.1a4.62,4.62,0,0,1-.7.7,1.222,1.222,0,0,0-.3.9l1.3,4.1a1.729,1.729,0,0,1-.1,1,1.456,1.456,0,0,1-.9.6l-2.2.3h-.2C194.6,93.5,194,93.1,193.7,92.5Zm5.7-7.6,2.8,2.1.1.1V87l.8-3.1a.959.959,0,0,0-.3-1L200.1,80a3.7,3.7,0,0,1-.8-1.8,14.92,14.92,0,0,0-.2-2.1,1.62,1.62,0,0,1,1-1.7l1.8-.6a.215.215,0,0,0,.2-.2v-.3l-1.7-4.6a.752.752,0,0,0-.7-.5h-2.1a2.062,2.062,0,0,1-1.7-1c-.4-.7-.9-1.4-1.4-2.1a2.623,2.623,0,0,1-.5-1.9l.4-3.1a1.284,1.284,0,0,0-.4-1l-3.1-2.8a.1.1,0,0,1-.1-.1c-.1,0-.1,0-.1.1l-.9,2.4a1.208,1.208,0,0,1-.7.7,1.7,1.7,0,0,1-1,0,5.023,5.023,0,0,0-1.3-.5,2.726,2.726,0,0,1-1.5-1.3l-1.8-4.1a.842.842,0,0,0-.7-.4l-2.2.3c-.1,0-.1,0-.2.1v.2l1.2,4.1a1.955,1.955,0,0,1-.6,1.9l-.6.6h0a1.294,1.294,0,0,1-1.8.3l-2.8-2.1h-.1v.1l-.8,3.1h0a.959.959,0,0,0,.3,1l2.7,2.9a3.7,3.7,0,0,1,.8,1.8,14.92,14.92,0,0,0,.2,2.1,1.62,1.62,0,0,1-1,1.7l-1.8.6a.215.215,0,0,0-.2.2v.3l1.7,4.6a.752.752,0,0,0,.7.5h2.1a2.062,2.062,0,0,1,1.7,1c.4.7.9,1.4,1.4,2.1a2.623,2.623,0,0,1,.5,1.9l-.4,3.1a1.284,1.284,0,0,0,.4,1l3.2,2.8a.1.1,0,0,1,.1.1c.1,0,.1,0,.1-.1l.9-2.4a1.208,1.208,0,0,1,.7-.7,1.183,1.183,0,0,1,1,.1,5.023,5.023,0,0,0,1.3.5,2.726,2.726,0,0,1,1.5,1.3l1.8,4a.842.842,0,0,0,.7.4l2.2-.3c.1,0,.1,0,.2-.1v-.2l-1.2-4.1a1.955,1.955,0,0,1,.6-1.9l.6-.6a1.606,1.606,0,0,1,1.1-.5A1.268,1.268,0,0,1,199.4,84.9Zm-7.6-2.8a7.281,7.281,0,0,1-4.6-2.1h0c-3.5-3.1-5.6-8.8-4.6-12.6a4.6,4.6,0,0,1,2.8-3.4c1.7-.5,3.8.2,5.7,1.9,3.5,3.1,5.6,8.8,4.6,12.6a4.6,4.6,0,0,1-2.8,3.4,5.16,5.16,0,0,1-1.1.2Zm-5.3-17.3a2.769,2.769,0,0,0-.9.1,3.157,3.157,0,0,0-2.1,2.7c-.9,3.5,1.1,8.8,4.3,11.7,1.7,1.5,3.4,2.1,4.8,1.7a3.322,3.322,0,0,0,2.1-2.7c.8-3.5-1.1-8.8-4.3-11.7a6.182,6.182,0,0,0-3.9-1.8Z"/><path class="c" d="M161.8,81.3l-1.2-2.7a.664.664,0,0,0-.5-.4,3.552,3.552,0,0,1-.9-.4c0-.1-.1-.1-.1,0l-.6,1.6a.821.821,0,0,1-.5.5.618.618,0,0,1-.7-.2l-2-1.8a1.9,1.9,0,0,1-.5-1.3l.3-2a1.445,1.445,0,0,0-.2-.7c-.3-.4-.6-.9-.9-1.4a.55.55,0,0,0-.5-.3h-1.4a1.17,1.17,0,0,1-1.1-.8l-1.1-3a.854.854,0,0,1,0-.7,1.205,1.205,0,0,1,.5-.5l1.1-.4c.1-.1.2-.2.2-.3a7.084,7.084,0,0,1-.1-1.4.908.908,0,0,0-.3-.7l-1.8-1.9a2.2,2.2,0,0,1-.4-1.3l.5-2.1a.634.634,0,0,1,.5-.6.821.821,0,0,1,.7.1l1.8,1.4h0c.1,0,.2,0,.2-.1.1-.2.3-.3.4-.5a.764.764,0,0,0,.2-.5l-.8-2.7a.878.878,0,0,1,.1-.7.822.822,0,0,1,.6-.4l1.5-.2a1.086,1.086,0,0,1,1.2.7l1.2,2.7a.664.664,0,0,0,.5.4,3.552,3.552,0,0,1,.9.4h.1l.6-1.6c0-.1.1-.2.2-.3a.785.785,0,0,1,1.1,0l2,1.8a1.9,1.9,0,0,1,.5,1.3l-.3,2a.844.844,0,0,0,.2.7c.3.4.6.9.9,1.4a.55.55,0,0,0,.5.3h1.4a1.17,1.17,0,0,1,1.1.8l1.1,3a.854.854,0,0,1,0,.7,1.205,1.205,0,0,1-.5.5l-1.1.4c-.1.1-.2.2-.2.3a7.084,7.084,0,0,1,.1,1.4.908.908,0,0,0,.3.7l1.8,1.9a1.678,1.678,0,0,1,.4,1.3l-.5,2.1a.758.758,0,0,1-.2.4.769.769,0,0,1-1,.1l-1.8-1.4c-.1,0-.2,0-.2.1-.1.2-.3.3-.5.5a.764.764,0,0,0-.2.5l.8,2.7a.878.878,0,0,1-.1.7.822.822,0,0,1-.6.4L163,82h-.1A1.356,1.356,0,0,1,161.8,81.3Zm3.4-5.3a.749.749,0,0,1,.5.1l1.8,1.4.5-2a.735.735,0,0,0-.2-.6L166,73a1.845,1.845,0,0,1-.5-1.2c0-.5-.1-.9-.1-1.4a1.086,1.086,0,0,1,.7-1.2l1.1-.4a.1.1,0,0,0,.1-.1v-.1l-1.1-3c-.1-.2-.2-.3-.4-.3h-1.4a1.525,1.525,0,0,1-1.2-.7c-.3-.5-.6-.9-.9-1.4a2.01,2.01,0,0,1-.4-1.3l.3-2a1.421,1.421,0,0,0-.2-.6l-2-1.8-.6,1.5a1.205,1.205,0,0,1-.5.5,1.1,1.1,0,0,1-.8,0c-.3-.1-.5-.2-.8-.3a2.189,2.189,0,0,1-1-.9l-1.2-2.6a.52.52,0,0,0-.4-.2l-1.4.3-.1-.4V56l.8,2.7a1.249,1.249,0,0,1-.4,1.3l-.4.4a.948.948,0,0,1-1.3.2l-1.8-1.4-.5,2.1h0a.735.735,0,0,0,.2.6l1.8,1.9a1.845,1.845,0,0,1,.5,1.2c0,.5.1.9.1,1.4a1.086,1.086,0,0,1-.7,1.2l-1.1.4a.1.1,0,0,0-.1.1v.1l1.1,3c.1.2.2.3.4.3h1.4a1.525,1.525,0,0,1,1.2.7c.3.5.6.9.9,1.4a1.517,1.517,0,0,1,.3,1.3l-.3,2a1.421,1.421,0,0,0,.2.6l2,1.8.6-1.6a1.205,1.205,0,0,1,.5-.5,1.1,1.1,0,0,1,.8,0c.3.1.5.2.8.3a2.189,2.189,0,0,1,1,.9l1.2,2.7a.52.52,0,0,0,.4.2l1.5-.2.1-.1-.8-2.7A1.249,1.249,0,0,1,164,77c.1-.1.3-.2.4-.4a1.162,1.162,0,0,1,.8-.6Zm-7.6-3h0c-2.3-2.1-3.7-5.8-3.1-8.4a2.849,2.849,0,0,1,1.9-2.2,3.9,3.9,0,0,1,3.8,1.3c2.3,2.1,3.7,5.8,3.1,8.4a3.157,3.157,0,0,1-1.9,2.3,2.2,2.2,0,0,1-.8.1A4.571,4.571,0,0,1,157.6,73Zm-.9-9.8a2.428,2.428,0,0,0-1.4,1.7c-.6,2.3.7,5.7,2.8,7.6h0a3.3,3.3,0,0,0,3.1,1.1,2.1,2.1,0,0,0,1.3-1.7c.6-2.3-.7-5.7-2.8-7.6a4.2,4.2,0,0,0-2.5-1.2A.749.749,0,0,0,156.7,63.2Z"/><path class="d" d="M98.3,353.5a2.458,2.458,0,0,1-.5,2.7,13.754,13.754,0,0,1-9.1,1.9c-4.5-.5-7-1.8-8.8-3.2s-4.3-3.3-6.4-3.7a14.992,14.992,0,0,1-4.6-1.7c-.6-.5-.5-2.9-.5-2.9Z"/><path class="e" d="M70.2,337.3a.752.752,0,0,0-.7.5,29.9,29.9,0,0,1-.6,3.6,16.108,16.108,0,0,0-.4,5.8c.3,1.2,3.3,2.1,5.3,2.8a25.448,25.448,0,0,1,6.4,3.7,20.055,20.055,0,0,0,9.5,3.3c3.5,0,7.4-1.1,8.3-2.5,1.1-1.8.2-2.9-4.9-5.1-1-.4-4.4-2.3-5.6-2.9-3.2-1.8-6.3-4.4-7.8-7.6a1.834,1.834,0,0,0-.7-1,1.729,1.729,0,0,0-1-.1,7.172,7.172,0,0,0-2.5.7c-.7.3-1.7.6-1.7,1.5a1.884,1.884,0,0,0,.2.8.446.446,0,0,1,0,.5c-.1.1-.3,0-.5-.1a19.2,19.2,0,0,1-1.4-1.5,6.034,6.034,0,0,0-.8-.8c-.3-.2-.6-.3-.9-.5A1.978,1.978,0,0,1,70.2,337.3Z"/><path class="f" d="M80.2,353.8a27.5,27.5,0,0,0-2.8-1.9h0s6.1,3.4,8.5,1.8a1.939,1.939,0,0,0,.8-2.6h0c0-.4,3.2-2.4,4.8-2.5l2,.8c5.2,2.2,5.8,3.3,4.6,5.1-.9,1.5-3.7,2.6-8.3,2.6A20.813,20.813,0,0,1,80.2,353.8Z"/><path class="d" d="M52.7,360.7a11.726,11.726,0,0,1-1,6.4,4.672,4.672,0,0,1-5,2.1c-2.1-.3-4.9-1.3-5.8-3.7a14.914,14.914,0,0,1-.9-6.6Z"/><path class="e" d="M42.1,341.3c-.8.1-.7,3.9-.8,7.7-.1,4.1-1.2,5.8-1.3,9.2-.1,3.8.3,5.5,2,7.6s7.1,3.9,9.3.4c1.8-2.8,1.5-5.8.9-9.5a77.089,77.089,0,0,1-1.2-9.5c-.2-2.8-.2-5.6-1-5.8v1.4c0,.5.1,1.8-.4,1.9a3.75,3.75,0,0,1-.1-1.1,1.613,1.613,0,0,0-.3-.9,1.689,1.689,0,0,0-1-.3,22.6,22.6,0,0,0-2.6-.1,5.7,5.7,0,0,0-1.3.1,4.253,4.253,0,0,0-1.1.2.781.781,0,0,0-.4.4v1.2c0,.1-.1.3-.2.2s-.2-.1-.2-.2a5.7,5.7,0,0,0-.1-1.3v-.8A3.092,3.092,0,0,0,42.1,341.3Z"/><path class="f" d="M40.1,357.1c0,.5-.1,4.2,1,4.7s2-2.3,2-2.3a8.544,8.544,0,0,1,6.1-.1c.1.8,1,2.8,2,2.3s1-4.7,1-4.7c.6,3.6.7,6.5-1,9.2-2.2,3.5-7.5,1.7-9.3-.4s-2.1-3.8-2-7.6A2.153,2.153,0,0,0,40.1,357.1Z"/><path class="c" d="M47.3,225.6A54.823,54.823,0,0,0,43.2,241c-1.5,19.3-2.2,47.4-2.2,47.4-.2,2-1.5,6.6-2.3,15.5-1,10.5,1.8,45.8,1.8,45.8s6.3,3.8,11.2-.5c0,0,5.7-48.9,7-59.4C59.8,280.7,63,261,63,261l2.5,30.2s-.3,8.2-.1,13.5c.3,6.2,3.3,36.6,3.3,36.6s8.6,2.9,12.5-1.2c0,0,.9-43.6,1-51,.3-14.5-.5-41.7-1-56.5Z"/><path class="g" d="M47.3,225.6A54.823,54.823,0,0,0,43.2,241c-1.5,19.3-2.2,47.4-2.2,47.4-.2,2-1.5,6.6-2.3,15.5-1,10.5,1.8,45.8,1.8,45.8s6.3,3.8,11.2-.5c0,0,5.7-48.9,7-59.4C59.8,280.7,63,261,63,261l2.5,30.2s-.3,8.2-.1,13.5c.3,6.2,3.3,36.6,3.3,36.6s8.6,2.9,12.5-1.2c0,0,.9-43.6,1-51,.3-14.5-.5-41.7-1-56.5Z"/><path class="g" d="M63,261l1.3-9.3s7.8-1.1,11.4-4.4a12.652,12.652,0,0,1-9.2,5.8l-1.4,8.4L65,287.7Z"/><path class="h" d="M87,228.3l-5.7,6.4s-4.7-5.8-4.5-5.8,5.4-8.6,5.4-8.6Z"/><path class="f" d="M72.9,182.4c7.6,2.2,7.7,1.7,12.6,8.1,3.4,4.5,10.1,12.8,12,16.2,2.2,3.8,2.5,5.4.8,8.3S87,228.7,87,228.7c-2.3-1.8-4.8-3.5-6.1-6.7L87,211.8,74.3,198.7Z"/><path class="d" d="M52,150.1c-.2,0-.3.1-.5.1a2.092,2.092,0,0,0-1.1-2.4,2.242,2.242,0,0,0-2.9,1.2l3.2,1.5a5.091,5.091,0,0,0-2.5,2.1c-.9,1.8.3,5.7,1.5,10.4a68.211,68.211,0,0,0,2.6,8.8c.5,1.4,1.5,1.4,1.5,1.4v-4.8l-.2-3.9s2.5-3.4,2.8-6.3c.3-3.6-.4-5.1-.4-5.1Z"/><path class="d" d="M69.4,146.1a8,8,0,1,0,8,8A8.024,8.024,0,0,0,69.4,146.1Z"/><path class="h" d="M53.7,163.9c-1,.8-1.7-1.3-2.5-2.1s-3.4-2-4.7.8,1.2,6.6,3.1,7.5a2.959,2.959,0,0,0,4-1.3c0-.1.1-.1.1-.2v11.9c3,5.4,8.8,4.3,11.8,5.1.6-2.2,1-3.2.7-4.4v-3.9a17.023,17.023,0,0,0,3.9.2c2.6-.4,4-2.5,4.8-5.4,1.3-4.5,1.5-12.1-.2-20.8-2.9-2.2-12.7-1.9-18.8,2C56.4,160.9,54.6,163.1,53.7,163.9Z"/><path class="d" d="M64.5,162.1a1.2,1.2,0,1,1-1.2-1.2h0a1.155,1.155,0,0,1,1.2,1.2Z"/><path class="d" d="M73.7,161.6a1.2,1.2,0,1,1-1.2-1.2h0a1.216,1.216,0,0,1,1.2,1.2Z"/><path class="i" d="M66.3,177.2s-5.8-1.2-7.8-2.2a6.319,6.319,0,0,1-2.8-2.8,10.11,10.11,0,0,0,1.6,3.3c1.5,1.9,9,3.3,9,3.3Z"/><path class="d" d="M76.7,145v-.3a.764.764,0,0,0-.2-.5c-.4-.4-1.2.6-1.4.9-.3.2-.5.4-.8.6a3.509,3.509,0,0,0-.8.5,7.079,7.079,0,0,0,0-2.9c-.1-.6-.3-2.1-1.1-2.3-.5-.1-.9.3-1.2.6-3.2,3-7.3,1.6-11.1,1.7-3.2.1-7,1.4-8.5,4.5-.7,1.4-.8,2.9.5,3.9.8.6,1.7.6,2.1,1.6.1.3.8,3.3.4,3.2a3.275,3.275,0,0,0,3.5-2.4,4.961,4.961,0,0,0,.3-1.3.76.76,0,0,1,.8-.6h.1a18.411,18.411,0,0,1,2.5.9,19.6,19.6,0,0,0,8,.5,9.429,9.429,0,0,0,5.1-2.7A7.042,7.042,0,0,0,76.7,145Z"/><path class="d" d="M62.8,158.6l-2.4,1.5a1.528,1.528,0,0,1,.4-2,1.554,1.554,0,0,1,2,.5Z"/><path class="i" d="M64.6,169.6l3.9,1a1.916,1.916,0,0,1-2.4,1.5h0A2.06,2.06,0,0,1,64.6,169.6Z"/><path class="j" d="M66.8,172.2a2.077,2.077,0,0,0-2.1-1.9h-.2a2.04,2.04,0,0,0,1.5,1.8A2.485,2.485,0,0,0,66.8,172.2Z"/><path class="d" d="M74.7,159.4l-2.6-1.2a1.5,1.5,0,0,1,1.8-.8H74A1.668,1.668,0,0,1,74.7,159.4Z"/><path class="i" d="M67.4,160.4l.7,7.8,4-1.4Z"/><path class="e" d="M48.6,180.4A103.229,103.229,0,0,0,38,185.5s1.3,13.3,3.5,21.8C43.1,213.5,44,235,44,235a50.348,50.348,0,0,0,22.4,3.6,46.185,46.185,0,0,0,15.1-3.5s.5-13.5-.5-30.4c-.7-12.4-1.2-19-4.2-20.8-1.8-1.1-9.5-2.9-9.5-2.9a12.8,12.8,0,0,1-1.7,4.6C62.9,184.1,48.6,180.4,48.6,180.4Z"/><path class="d" d="M68,238.4c.6-.1,1.3-.1,1.9-.2.8-8.9,1.8-30.2-4.3-52.7C65.6,185.5,70.7,212,68,238.4Z"/><path class="f" d="M65.6,185.5c2.3-1.5,4.2,2.3,4.6,1.7s-2-9-3.8-9.5V181C66.2,182.5,65.9,184,65.6,185.5Z"/><path class="f" d="M53.8,175.4v.9c.2.9,1.9,2.9,6.3,4.9s5.5,4.3,5.5,4.3-1-.6-2.8.4-3.7,3.9-4.7,3.9-3.9-3.3-6.4-5.9c-2.1-2.2-3.2-3.5-3.2-3.5S52,175.4,53.8,175.4Z"/><path class="k" d="M54.2,240.4v29.9a1.421,1.421,0,0,1-.2.6l-1.3.8c-.1,0-.1.1-.2,0a.6.6,0,0,1-.4-.1L18.1,252a2.143,2.143,0,0,1-.9-1.5V220.6a1.421,1.421,0,0,1,.2-.6h.1l1.3-.8c.1,0,.1-.1.2-.1s.3.1.4.1l17.8,10.2,2.1,1.2s2.6,1.5,3.1,1.8l.1.1,10.8,6.2c.1,0,.1.1.2.1a1,1,0,0,1,.4.5A3.035,3.035,0,0,1,54.2,240.4Z"/><path class="l" d="M53.9,239.5l-1.3.8h0l-.1-.2-.3-.3c-.1-.1-.1-.1-.2-.1l-10.8-6.2c-.3-.2-2.7-1.6-3.2-1.8l-1.3-.8L18.1,220.2a.661.661,0,0,0-.6-.1l1.3-.8c.1,0,.1-.1.2-.1a.6.6,0,0,1,.4.1l17.8,10.2,2.1,1.2s2.6,1.5,3.1,1.8l.1.1,10.8,6.2c.1,0,.1.1.2.1A2.092,2.092,0,0,1,53.9,239.5Z"/><path class="m" d="M52.6,240.3h0l-.1-.2A.349.349,0,0,1,52.6,240.3Z"/><path class="g" d="M52.5,271.6h0l1.5-.8c.2-.1.2-.3.2-.6V240.3a1.613,1.613,0,0,0-.3-.9l-1.3.8h0a3.178,3.178,0,0,1,.3.9v30A.51.51,0,0,1,52.5,271.6Z"/><path class="h" d="M25.8,222.8c7.3-29.7,11-38.8,19.8-38.7,2.6,3.1-.1,12.6-1.8,17.3,0,0-7.8,19.1-9.3,25.9-1.3,6-2.7,13.5-2.6,18.6a3.492,3.492,0,0,0,1,2.4c1.7,1.8,1.7,3.2,2.7,5.2.8,1.6,1.8,2.1,1.5,2.5a1.907,1.907,0,0,1-2.7.2,9.967,9.967,0,0,1-2.1-2A21.919,21.919,0,0,0,34,261l1.8,1.1s-.6,1.9-5,.6c-5-1.4-6.8-2.1-7.4-10.6a59.011,59.011,0,0,1-.1-9.4C24.1,234.7,24.6,227.6,25.8,222.8Z"/><path class="f" d="M45.8,181.6s-8.9,2.1-11,5.3c-2.5,3.8-3.4,8.6-7.5,23.4a124.958,124.958,0,0,0-4.7,33.9s5.2,2.4,10-.4c0,0,2.1-12.8,4-19.6s7.9-21.6,7.9-21.6S49.2,191.8,45.8,181.6Z"/><path class="n" d="M54.8,265c.4.3.6-.5.7-1.6v-2.1s1.6,1.4,2-3.4c.4-5.3-1.9-6.3-1.9-6.3V249c0-1.7-.4-2.2-.8-2.5l-.6-.3v18.3C54.2,264.6,54.4,264.7,54.8,265Z"/><path class="n" d="M52.9,262.4c0-1.6-.2-2.5-1.2-3.1s-1.7-1-1.7-1l-.3-9.7s1.7,1.1,2.2,1.4.9-1.6.9-2.2l1.4.6.2,15Z"/><path class="n" d="M49.6,261.4l1.2.7c.7.4,1-1.6.7-4.5l.3-6.4c-.3-2.9-.3-5.5-1-5.9l-1.2-.7Z"/><path class="o" d="M213.9,242.1a8.843,8.843,0,0,0,4,7L402.4,355.6a2.979,2.979,0,0,0,2.9.3h0l3.2-1.8h0a2.96,2.96,0,0,0,1.2-2.6V168.2a8.843,8.843,0,0,0-4-7L221.2,54.7a2.98,2.98,0,0,0-2.9-.3h0l-3.1,1.8h0a2.742,2.742,0,0,0-1.2,2.6Z"/><path class="o" d="M217.2,56.2a2.2,2.2,0,0,0-.1.8V240.3a8.843,8.843,0,0,0,4,7L405.6,353.8c.2.1.5.2.7.3-.3,2-1.9,2.7-3.9,1.5L217.9,249.2a8.843,8.843,0,0,1-4-7V58.8C213.9,56.5,215.3,55.5,217.2,56.2Z"/><path class="p" d="M261.9,81.4l43.9,25.1,43.9,25.2,21.9,12.6L393.5,157l5.5,3.2,2.7,1.6c.5.3.9.5,1.4.8a6.885,6.885,0,0,1,1.3,1.1,10.025,10.025,0,0,1,2.7,6.1v31.6L407,252c-.1,33.7-.3,67.5-.5,101.2-.2-33.7-.4-67.5-.5-101.2l-.1-50.6V169.8a8.007,8.007,0,0,0-2.3-5.2,4.811,4.811,0,0,0-1.1-.9,14.8,14.8,0,0,0-1.3-.8l-2.7-1.6-5.5-3.1-21.9-12.6L349,133l-43.8-25.4L261.5,82.1,217.9,56.5Z"/><path class="q" d="M390.5,271.4v50.3c0,1.6-1.1,2.3-2.6,1.5l-70.8-40.9a5.7,5.7,0,0,1-2.6-4.4V227.6c0-1.6,1.1-2.3,2.6-1.5L387.9,267A5.7,5.7,0,0,1,390.5,271.4Z"/><path class="r" d="M386.3,277l-67.7-39.1h0c-.1-.1-.2-.2-.1-.3s.2-.2.4-.1l67.7,39.1h0c.1.1.2.2.1.3,0,.1-.1.1-.2.1Z"/><path class="r" d="M386.3,286l-67.7-39.1h0c-.1-.1-.2-.2-.1-.3s.2-.2.4-.1l67.7,39.1h0c.1.1.2.2.1.3,0,.1-.1.1-.2.1A.138.138,0,0,1,386.3,286Z"/><path class="r" d="M386.3,295.1,318.6,256h0c-.1-.1-.2-.2-.1-.3s.2-.2.4-.1l67.7,39.1h0c.1.1.2.2.1.3,0,.1-.1.1-.2.1Z"/><path class="r" d="M386.3,304.1,318.6,265h0c-.1-.1-.2-.2-.1-.3s.2-.2.4-.1l67.7,39.1h0c.1.1.2.2.1.3,0,.1-.1.1-.2.1C386.4,304.2,386.3,304.2,386.3,304.1Z"/><path class="r" d="M386.3,313.2l-67.7-39.1h0c-.1-.1-.2-.2-.1-.4.1-.1.2-.2.4-.1l67.7,39.1c.1.1.2.2.1.4,0,.1-.1.1-.2.1Z"/><path class="s" d="M318.7,273.8l67.7,39.1V299.8l-2.4-6.7c-1.9-5.3-6-7.7-7.9-4.5l-.1.2c-1.3,2.2-3.8,1.8-5.9-.8l-2.1-2.7a5.1,5.1,0,0,0-3.5-2.2l-2-.1c-1.9-.1-4-2.2-5.3-5.3l-2.3-5.5c-1.4-3.5-3.8-5.7-5.8-5.3h0c-1.7.3-3.8-1.2-5.2-4l-1.5-2.7c-2-3.8-5-5.2-6.8-3.1l-1.7,2c-1.4,1.7-3.7,1.1-5.7-1.5l-.1-.2c-1.9-2.4-4.1-3.2-5.5-1.8l-3.9,3.8Z"/><path class="f" d="M386.2,299.9l-2.4-6.6c-1.1-3.3-3.2-5.6-5.1-5.8a2.214,2.214,0,0,0-2.3,1.3l-.1.2a2.841,2.841,0,0,1-2.3,1.5c-1.3.1-2.7-.7-4-2.3l-2.1-2.7a4.919,4.919,0,0,0-3.3-2.1l-2-.1c-2-.1-4.2-2.3-5.5-5.5l-2.3-5.5c-1.4-3.3-3.7-5.5-5.6-5.1s-4-1.3-5.5-4.2l-1.5-2.7c-1.2-2.3-2.8-3.8-4.3-3.9a2.04,2.04,0,0,0-2,.9l-1.7,2a2.656,2.656,0,0,1-2.2,1.1c-1.3,0-2.7-.9-3.9-2.6l-.1-.2a5.542,5.542,0,0,0-3.4-2.4,2.114,2.114,0,0,0-1.7.6l-4,3.8a.283.283,0,0,1-.4-.4l3.9-3.8a2.782,2.782,0,0,1,2.1-.8,5.667,5.667,0,0,1,3.8,2.6l.1.2c1.1,1.5,2.4,2.4,3.5,2.4h0a2.271,2.271,0,0,0,1.8-.9l1.7-2a2.638,2.638,0,0,1,2.4-1.1c1.7.2,3.4,1.7,4.7,4.2l1.4,2.7c1.4,2.7,3.4,4.2,5,3.9,2.1-.4,4.6,1.9,6.1,5.5l2.3,5.5c1.2,3,3.2,5.1,5,5.2l2,.1a5.291,5.291,0,0,1,3.7,2.3l2.1,2.7c1.1,1.4,2.4,2.2,3.5,2.1a2.585,2.585,0,0,0,1.9-1.3l.1-.2a2.829,2.829,0,0,1,2.8-1.5c2.1.2,4.4,2.6,5.6,6.1l2.4,6.7c0,.1,0,.3-.2.3h-.1C386.3,300.1,386.2,300,386.2,299.9Z"/><path class="m" d="M325.1,277.8a.319.319,0,0,1-.3-.3V276h0a.3.3,0,1,1,.6,0v1.5a.319.319,0,0,1-.3.3Zm0-3a.319.319,0,0,1-.3-.3V273h0a.3.3,0,1,1,.6,0v1.5a.451.451,0,0,1-.3.3Zm0-3.2c-.1,0-.2-.1-.3-.2v-1.5h0a.3.3,0,0,1,.6,0v1.5c0,.2-.2.3-.3.2Zm0-3h0a.319.319,0,0,1-.3-.3v-1.5h0a.3.3,0,0,1,.6,0v1.5a.319.319,0,0,1-.3.3Zm0-3.1a.319.319,0,0,1-.3-.3v-1.5h0a.3.3,0,0,1,.6,0v1.5a.319.319,0,0,1-.3.3Zm0-3.1a.319.319,0,0,1-.3-.3v-1.5h0a.3.3,0,0,1,.6,0v1.5a.319.319,0,0,1-.3.3Zm0-3a.319.319,0,0,1-.3-.3v-1.5a.3.3,0,0,1,.6,0v1.5a.451.451,0,0,1-.3.3Zm0-3.1a.319.319,0,0,1-.3-.3v-.9a.3.3,0,1,1,.6,0v.9a.319.319,0,0,1-.3.3Z"/><path class="m" d="M352.6,293.7a.319.319,0,0,1-.3-.3v-1.5a.319.319,0,0,1,.3-.3.265.265,0,0,1,.3.3v1.5h0q-.15.3-.3.3Zm0-3.1h0a.265.265,0,0,1-.3-.3v-1.5a.319.319,0,0,1,.3-.3.265.265,0,0,1,.3.3v1.5h0q-.15.3-.3.3Zm0-3.1a.319.319,0,0,1-.3-.3v-1.5a.319.319,0,0,1,.3-.3.265.265,0,0,1,.3.3v1.5h0q-.15.3-.3.3Zm0-3h0a.265.265,0,0,1-.3-.3v-1.5a.319.319,0,0,1,.3-.3.265.265,0,0,1,.3.3v1.6h0c-.1,0-.2.2-.3.2Zm0-3.1a.319.319,0,0,1-.3-.3v-1.5a.319.319,0,0,1,.3-.3.265.265,0,0,1,.3.3v1.5h0q-.15.3-.3.3Zm0-3.1a.319.319,0,0,1-.3-.3v-1.5a.319.319,0,0,1,.3-.3.265.265,0,0,1,.3.3V278h0q-.15.3-.3.3Zm0-3.1a.319.319,0,0,1-.3-.3v-1.5a.319.319,0,0,1,.3-.3.265.265,0,0,1,.3.3v1.5h0q-.15.3-.3.3Zm0-3.1a.319.319,0,0,1-.3-.3v-1.5a.319.319,0,0,1,.3-.3.265.265,0,0,1,.3.3v1.5h0q-.15.3-.3.3Zm0-3a.319.319,0,0,1-.3-.3v-.4a.319.319,0,0,1,.3-.3.265.265,0,0,1,.3.3v.4h0c-.1.1-.2.3-.3.3Z"/><path class="m" d="M366.3,301.6a.319.319,0,0,1-.3-.3v-1.5a.3.3,0,0,1,.6,0v1.5h0a.265.265,0,0,1-.3.3Zm0-3.1a.319.319,0,0,1-.3-.3v-1.5a.3.3,0,1,1,.6,0v1.5h0c0,.2-.1.4-.3.3Zm0-3h0a.265.265,0,0,1-.3-.3v-1.5a.3.3,0,1,1,.6,0v1.6h0c0,.1-.1.2-.3.2Zm0-3.1c-.1,0-.2-.1-.3-.2v-1.5a.3.3,0,0,1,.6,0v1.5h0c0,.1-.1.2-.3.2Zm0-3.1c-.1,0-.3-.1-.3-.2v-1.5a.3.3,0,0,1,.6,0v1.5h0c0,.1-.1.2-.3.2Zm0-3.1c-.1,0-.3-.1-.3-.2v-1.5a.3.3,0,0,1,.6,0V286h0c0,.1-.1.2-.3.2Z"/><path class="m" d="M379.8,309.3v-1.6c0-.1.2-.2.3-.2s.2.2.2.3v1.5h0c0,.1-.1.2-.3.2C379.9,309.6,379.8,309.4,379.8,309.3Zm.2-2.8c-.1,0-.2-.1-.3-.2v-1.6c0-.1.2-.2.3-.2s.2.2.2.3v1.5h0c.1.1,0,.2-.2.2Zm0-3.1c-.1,0-.2-.1-.3-.2v-1.6c0-.1.2-.2.3-.2s.2.2.2.3v1.5h0c.1.1,0,.2-.2.2Zm0-3.1c-.1,0-.2-.1-.3-.2v-1.6c0-.1.2-.2.3-.2s.2.2.2.3v1.5h0c.1.1,0,.2-.2.2Zm0-3.1c-.1,0-.2-.1-.3-.2v-1.6c0-.1.2-.2.3-.2s.2.2.2.3V297h0c.1.1,0,.2-.2.2Zm0-3c-.1,0-.2-.1-.3-.2v-1.6c0-.1.2-.2.3-.2s.2.2.2.3V294h0c.1.1,0,.2-.2.2Zm0-3.1c-.1,0-.2-.1-.3-.2v-1.6c0-.1.2-.2.3-.2s.2.2.2.3v1.5h0c.1.1,0,.2-.2.2Zm0-3.1c-.1,0-.2-.1-.3-.2v-.1c0-.1.2-.2.3-.2s.2.2.2.3h0c.1.1,0,.2-.2.2Z"/><path class="m" d="M338.6,285.5V284a.215.215,0,0,1,.2-.2c.1,0,.3.1.3.2v1.5h0a.319.319,0,0,1-.3.3C338.7,285.8,338.6,285.6,338.6,285.5Zm.2-2.8a.319.319,0,0,1-.3-.3v-1.5a.215.215,0,0,1,.2-.2c.1,0,.3.1.3.2v1.5h0c.1.2,0,.3-.2.3Zm0-3.1h0a.265.265,0,0,1-.3-.3v-1.5a.215.215,0,0,1,.2-.2c.1,0,.3.1.3.2v1.5h0c.1.2,0,.3-.2.3Zm0-3.1a.319.319,0,0,1-.3-.3v-1.5a.215.215,0,0,1,.2-.2c.1,0,.3.1.3.2v1.5h0c.1.2,0,.3-.2.3Zm0-3.1h0a.319.319,0,0,1-.3-.3v-1.5a.215.215,0,0,1,.2-.2c.1,0,.3.1.3.2v1.6h0c.1.1,0,.2-.2.2Zm0-3a.319.319,0,0,1-.3-.3v-1.5a.215.215,0,0,1,.2-.2c.1,0,.3.1.3.2v1.5h0c.1.2,0,.3-.2.3Zm0-3.1a.319.319,0,0,1-.3-.3v-1.5a.215.215,0,0,1,.2-.2c.1,0,.3.1.3.2V267h0c.1.2,0,.3-.2.3Zm0-3.1a.319.319,0,0,1-.3-.3v-1.5a.215.215,0,0,1,.2-.2c.1,0,.3.1.3.2v1.5h0c.1.2,0,.3-.2.3Zm0-3.1a.319.319,0,0,1-.3-.3v-1.5a.215.215,0,0,1,.2-.2c.1,0,.3.1.3.2v1.5h0c.1.2,0,.3-.2.3Zm0-3.1a.319.319,0,0,1-.3-.3v-1.6c0-.1.2-.2.3-.2s.2.2.2.3v1.5c.1.2,0,.3-.2.3Z"/><path class="b" d="M325.1,256c.3.2.6-.1.6-.6a1.612,1.612,0,0,0-.6-1.3c-.3-.2-.6.1-.6.6A1.612,1.612,0,0,0,325.1,256Z"/><path class="b" d="M338.8,257.2c.4.2.6-.1.6-.6a1.612,1.612,0,0,0-.6-1.3c-.3-.2-.6.1-.6.6A1.613,1.613,0,0,0,338.8,257.2Z"/><path class="b" d="M352.6,269.3c.3.2.6-.1.6-.6a1.612,1.612,0,0,0-.6-1.3c-.3-.2-.6.1-.6.6A1.371,1.371,0,0,0,352.6,269.3Z"/><path class="b" d="M366.3,284.7c.3.2.6-.1.6-.6a1.612,1.612,0,0,0-.6-1.3c-.3-.2-.6.1-.6.6A1.613,1.613,0,0,0,366.3,284.7Z"/><path class="b" d="M380,288.7c.4.2.6-.1.6-.6a1.612,1.612,0,0,0-.6-1.3c-.3-.2-.6.1-.6.6A1.613,1.613,0,0,0,380,288.7Z"/><path class="p" d="M241.3,109.5l-8-4.6a.55.55,0,0,1-.3-.5V95.2a.55.55,0,0,1,.3-.5.446.446,0,0,1,.5,0l8,4.6a.536.536,0,0,1,.3.4v9.2c0,.2-.1.4-.3.4-.1,0-.2.1-.3.1C241.5,109.6,241.4,109.5,241.3,109.5Zm-7.2-13.4v8l6.9,4v-8Z"/><path class="f" d="M242.5,98.4a.642.642,0,0,1-.1.9l-4,4.9c-.1.2-.5.5-.7.4s-.3-.2-.5-.6l-1.9-4c-.1-.3-.1-.7.2-.8s.6,0,.9.5l1.5,3,3.7-4.5a.691.691,0,0,1,.9.2Z"/><path class="p" d="M247.1,107.6a2.529,2.529,0,0,0,1.3,2.1l38,21.9c.7.4,1.3.1,1.3-.6a2.529,2.529,0,0,0-1.3-2.1l-38-21.9C247.7,106.5,247.1,106.8,247.1,107.6Z"/><path class="p" d="M241.3,123.3l-8-4.6a.536.536,0,0,1-.3-.4V109c0-.2.1-.4.3-.4a.446.446,0,0,1,.5,0l8,4.6a.55.55,0,0,1,.3.5v9.2a.55.55,0,0,1-.3.5c-.1,0-.2.1-.3.1C241.5,123.4,241.4,123.4,241.3,123.3ZM234.1,110v8l6.9,4v-8Z"/><path class="f" d="M242.6,112.4a.633.633,0,0,1-.1.9l-4,4.9c-.1.2-.5.5-.7.4s-.3-.2-.5-.6l-1.9-4c-.1-.3-.1-.7.2-.8s.6,0,.9.5l1.5,3,3.7-4.5c.1-.2.4-.3.9.2Z"/><path class="p" d="M247.1,121.4a2.529,2.529,0,0,0,1.3,2.1l38,21.9c.7.4,1.3.1,1.3-.6a2.529,2.529,0,0,0-1.3-2.1l-38-21.9C247.7,120.3,247.1,120.6,247.1,121.4Z"/><g class="t"><path class="p" d="M309.6,129.9v47.3a7.985,7.985,0,0,0,3.7,6.4l51.9,30c2,1.2,3.7.2,3.7-2.1V164.2a7.985,7.985,0,0,0-3.7-6.4l-51.9-30C311.2,126.6,309.6,127.6,309.6,129.9Z"/></g><path class="f" d="M335.6,166a.1.1,0,0,1,.1.1c0,.1.1.1.1.2v.8c0,.1-.1.1-.1.2l-1.6,4a.1.1,0,0,1-.1.1h-.1l-.6-.3a.1.1,0,0,1-.1-.1c0-.1-.1-.1-.1-.2v-.1l1.6-4-2.2-1.3a.1.1,0,0,1-.1-.1c0-.1-.1-.1-.1-.2v-.6c0-.1,0-.1.1-.1h.1Z"/><path class="f" d="M340.1,171.1v1.7a2.768,2.768,0,0,1-.1.9c0,.2-.2.4-.3.6s-.4.2-.6.2a1.613,1.613,0,0,1-.9-.3,5.5,5.5,0,0,1-.9-.7,7.018,7.018,0,0,1-.6-.9,3.809,3.809,0,0,1-.3-1,4.1,4.1,0,0,1-.1-1.1v-1.6c0-.3.1-.6.1-.9l.3-.6a1.421,1.421,0,0,1,.6-.2,1.613,1.613,0,0,1,.9.3,5.5,5.5,0,0,1,.9.7,7.018,7.018,0,0,1,.6.9,1.929,1.929,0,0,1,.3,1A3.083,3.083,0,0,1,340.1,171.1Zm-2.8,0a5.019,5.019,0,0,0,.2,1.2,1.779,1.779,0,0,0,.7.8c.3.1.6.2.7,0a1.486,1.486,0,0,0,.2-.9v-1.6a5.019,5.019,0,0,0-.2-1.2,1.779,1.779,0,0,0-.7-.8c-.3-.1-.6-.2-.7,0a1.02,1.02,0,0,0-.2.9v1.6Z"/><path class="f" d="M341.9,169.6a.781.781,0,0,1,.4.4c.1.1.2.3.3.4.1.2.2.3.2.5s.1.3.1.5v1a.6.6,0,0,1-.1.4c0,.1-.1.2-.2.3a.367.367,0,0,1-.3.1.52.52,0,0,1-.4-.2,3.043,3.043,0,0,1-.8-.8c-.1-.2-.2-.3-.2-.5s-.1-.3-.1-.5v-1a.6.6,0,0,1,.1-.4c0-.1.1-.2.2-.3a.367.367,0,0,1,.3-.1C341.6,169.5,341.7,169.5,341.9,169.6Zm2.7,1.9.1-.1h.1l.4.2c.1.1.2.2.2.3v.1h0l-3.4,3.9-.1.1h-.1l-.4-.2-.1-.1v-.2h0Zm-2.5.7a.367.367,0,0,0,.1-.3V171a.6.6,0,0,0-.1-.4l-.3-.3a.187.187,0,0,0-.3,0,.367.367,0,0,0-.1.3v.9a.756.756,0,0,0,.1.4l.3.3Zm2.8,2.4a1.756,1.756,0,0,1,.5.4c.1.1.2.3.3.4.1.2.2.3.2.5s.1.3.1.5v1a.6.6,0,0,1-.1.4c0,.1-.1.2-.2.3a.367.367,0,0,1-.3.1c-.2,0-.3-.1-.5-.2a.781.781,0,0,1-.4-.4c-.1-.1-.2-.3-.3-.4-.1-.2-.1-.3-.2-.5,0-.2-.1-.3-.1-.5v-1a.6.6,0,0,1,.1-.4c0-.1.1-.2.2-.3a.367.367,0,0,1,.3-.1C344.6,174.5,344.7,174.5,344.9,174.6Zm.3,2.6c0-.1.1-.2.1-.3V176a.6.6,0,0,0-.1-.4l-.3-.3c-.1,0-.3-.1-.3,0a.367.367,0,0,0-.1.3v.9a.6.6,0,0,0,.1.4l.3.3Z"/><path class="f" d="M328.7,160.1l-3.7-3.8c1-3.5,2.9-5.8,5.4-6.8l2.3,5.5A7.162,7.162,0,0,0,328.7,160.1Z"/><path class="f" d="M332.7,155.1l-2.3-5.5c2.5-1,5.5-.6,8.8,1.3v5.2C336.8,154.6,334.5,154.3,332.7,155.1Z"/><path class="f" d="M328.7,169.2l-3.7-.5a29.624,29.624,0,0,1-.7-6.6,21.716,21.716,0,0,1,.7-5.7l3.7,3.8a12.1,12.1,0,0,0-.5,4.2A19.586,19.586,0,0,0,328.7,169.2Z"/><g class="u"><path d="M354.1,179.3a21.716,21.716,0,0,1-.7,5.7c-1,3.5-3,5.9-5.4,6.8s-5.5.6-8.8-1.3a26.745,26.745,0,0,1-8.8-8.9,39.5,39.5,0,0,1-5.4-13.1l3.7.5a29.317,29.317,0,0,0,4,9.7,19.534,19.534,0,0,0,6.5,6.6c2.5,1.4,4.7,1.6,6.5.9a7.262,7.262,0,0,0,4-5,12.1,12.1,0,0,0,.5-4.2,27.152,27.152,0,0,0-.5-4.9,29.317,29.317,0,0,0-4-9.7,19.534,19.534,0,0,0-6.5-6.6v-5.2a26.745,26.745,0,0,1,8.8,8.9,38.656,38.656,0,0,1,5.4,13.1A31.151,31.151,0,0,1,354.1,179.3Z"/></g><path class="q" d="M380.1,170.7v47.4a7.985,7.985,0,0,0,3.7,6.4l25.9,15v-8a26.745,26.745,0,0,1-8.8-8.9,38.656,38.656,0,0,1-5.4-13.1,29.624,29.624,0,0,1-.7-6.6,21.716,21.716,0,0,1,.7-5.7c1-3.5,3-5.9,5.4-6.8s5.5-.6,8.8,1.3v-8l-25.9-15C381.7,167.4,380.1,168.4,380.1,170.7Z"/><path class="q" d="M409.7,214v-3.8a1.167,1.167,0,0,0-.6-.6c-.3-.1-.6-.2-.7,0a1.02,1.02,0,0,0-.2.9v1.6a5.019,5.019,0,0,0,.2,1.2,1.779,1.779,0,0,0,.7.8C409.4,214.1,409.6,214.1,409.7,214Z"/><path class="q" d="M409.7,208.9V196.8a7.493,7.493,0,0,0-6.5-.9,7.262,7.262,0,0,0-4,5,12.1,12.1,0,0,0-.5,4.2,27.152,27.152,0,0,0,.5,4.9,31.6,31.6,0,0,0,4,9.7,19.534,19.534,0,0,0,6.5,6.6V215.5c-.2-.1-.4-.1-.6-.3a5.5,5.5,0,0,1-.9-.7,7.018,7.018,0,0,1-.6-.9,3.809,3.809,0,0,1-.3-1,4.1,4.1,0,0,1-.1-1.1v-1.6a2.768,2.768,0,0,1,.1-.9,1.141,1.141,0,0,1,.3-.6,1.421,1.421,0,0,1,.6-.2,1.613,1.613,0,0,1,.9.3A2.093,2.093,0,0,1,409.7,208.9Zm-3.3,1.9a2.353,2.353,0,0,1,.2.8,2.2,2.2,0,0,1-.1.8.781.781,0,0,1-.4.4,1.268,1.268,0,0,1-.6.1c-.3-.1-.5-.2-.8-.3a5.545,5.545,0,0,1-.8-.6c-.2-.2-.4-.5-.6-.7a2.01,2.01,0,0,1-.4-.8c-.1-.2-.1-.5-.2-.7-.1-.1,0-.1,0-.1h.1l.5.3.1.1.1.2c0,.1.1.2.1.3s.1.2.2.3l.3.3c.1.1.3.2.4.3a1.445,1.445,0,0,0,.7.2c.2,0,.3-.2.3-.5a1.33,1.33,0,0,0-.3-.8,4.35,4.35,0,0,0-.7-.6l-.6-.3a.1.1,0,0,1-.1-.1c0-.1-.1-.1-.1-.2v-.8l.1-.1,1-.8-1.9-1.1a.1.1,0,0,1-.1-.1v-1h.1l3,1.8a.1.1,0,0,1,.1.1v1.1l-.1.1-1,.8c.2.2.4.3.6.5a2.092,2.092,0,0,1,.4.6c.4,0,.5.2.5.5Z"/><path class="f" d="M406.3,212.3a1.949,1.949,0,0,0,.1-.8,2.2,2.2,0,0,0-.1-.8,4.878,4.878,0,0,0-.3-.7c-.1-.2-.3-.4-.4-.6a2.652,2.652,0,0,0-.6-.5l1-.8.1-.1v-1.1a.1.1,0,0,0-.1-.1l-3-1.8h-.1v1a.1.1,0,0,0,.1.1l1.9,1.1-1,.8-.1.1v.8c0,.1,0,.1.1.2a.1.1,0,0,0,.1.1l.6.3a1.345,1.345,0,0,1,.7.6,1.135,1.135,0,0,1,.3.8c0,.3-.1.5-.3.5a.952.952,0,0,1-.7-.2c-.1-.1-.3-.2-.4-.3l-.3-.3c-.1-.1-.1-.2-.2-.3,0-.1-.1-.2-.1-.3l-.1-.2a.1.1,0,0,0-.1-.1l-.6-.3h-.1v.1c0,.2.1.5.1.7a3,3,0,0,0,.4.8,4.349,4.349,0,0,0,.6.7c.3.2.5.5.8.6a6.891,6.891,0,0,0,.8.3,1.268,1.268,0,0,0,.6-.1C406.1,212.7,406.2,212.5,406.3,212.3Z"/><path class="f" d="M409.1,215.1l.6.3V214a.482.482,0,0,1-.6-.1,1.387,1.387,0,0,1-.7-.8,2.537,2.537,0,0,1-.2-1.2v-1.6a2.92,2.92,0,0,1,.2-.9c.1-.2.4-.2.7,0a1.7,1.7,0,0,1,.6.6v-1.4a2.092,2.092,0,0,0-.6-.4,1.613,1.613,0,0,0-.9-.3,1.421,1.421,0,0,0-.6.2.864.864,0,0,0-.3.6,2.768,2.768,0,0,0-.1.9v1.6a4.1,4.1,0,0,0,.1,1.1c.1.3.2.7.3,1a2.361,2.361,0,0,0,.6.9A2.547,2.547,0,0,0,409.1,215.1Z"/><path class="f" d="M403.2,195.8l-2.3-5.5c-2.5,1-4.4,3.4-5.4,6.8l3.7,3.8A7.434,7.434,0,0,1,403.2,195.8Z"/><path class="f" d="M409.7,196.7v-5.2c-3.3-1.9-6.3-2.3-8.8-1.3l2.3,5.5A7.884,7.884,0,0,1,409.7,196.7Z"/><path class="f" d="M399.2,200.8l-3.7-3.8a18.571,18.571,0,0,0-.7,5.7,36.986,36.986,0,0,0,.7,6.6l3.7.5a26.26,26.26,0,0,1-.5-4.9A15.29,15.29,0,0,1,399.2,200.8Z"/><path class="f" d="M403.2,219.6l-2.3,2.9a27.7,27.7,0,0,0,8.8,8.9v-5.2A21.55,21.55,0,0,1,403.2,219.6Z"/><path class="f" d="M399.2,210l-3.7-.5a38.656,38.656,0,0,0,5.4,13.1l2.3-2.9A31.6,31.6,0,0,1,399.2,210Z"/><path class="r" d="M409.7,231.3v8l26,15c2,1.2,3.7.2,3.7-2.1V204.9a7.985,7.985,0,0,0-3.7-6.4l-26-15v8h0a26.745,26.745,0,0,1,8.8,8.9,38.656,38.656,0,0,1,5.4,13.1,29.624,29.624,0,0,1,.7,6.6,21.716,21.716,0,0,1-.7,5.7c-1,3.5-3,5.9-5.4,6.8s-5.5.7-8.8-1.3Z"/><path class="b" d="M435.4,254.8,409.7,240v-1.2l26.2,15.1a1.608,1.608,0,0,0,1.6.4,1.8,1.8,0,0,0,1.3-2.1V204.9a7.452,7.452,0,0,0-3.4-5.9l-25.7-14.8V183l26.2,15.1a8.5,8.5,0,0,1,3.9,6.8v47.3a3.052,3.052,0,0,1-1.3,2.8,2.663,2.663,0,0,1-1.2.3A4.136,4.136,0,0,1,435.4,254.8Z"/><path class="r" d="M409.8,210.3l-.1-.1V214a.1.1,0,0,1,.1-.1,1.02,1.02,0,0,0,.2-.9v-1.6A5.16,5.16,0,0,0,409.8,210.3Z"/><path class="r" d="M415.3,216.7v.7a.756.756,0,0,0,.1.4l.3.3c.1.1.3.1.3,0a.367.367,0,0,0,.1-.3v-.9a.6.6,0,0,0-.1-.4l-.3-.3c-.1,0-.3-.1-.3,0a.367.367,0,0,0-.1.3Z"/><path class="r" d="M409.7,196.7h0v12.1c.1.1.2.1.2.2a7.018,7.018,0,0,1,.6.9,3.809,3.809,0,0,1,.3,1,4.1,4.1,0,0,1,.1,1.1v1.7a2.768,2.768,0,0,1-.1.9c0,.2-.2.4-.3.6a1.421,1.421,0,0,1-.6.2c-.1,0-.2,0-.2-.1v10.8h0a7.461,7.461,0,0,0,6.5.9c1.9-.7,3.3-2.4,4-5a12.1,12.1,0,0,0,.5-4.2,27.152,27.152,0,0,0-.5-4.9,29.317,29.317,0,0,0-4-9.7A20.18,20.18,0,0,0,409.7,196.7Zm5,20.4v-1a.6.6,0,0,1,.1-.4c0-.1.1-.2.2-.3a.367.367,0,0,1,.3-.1c.2,0,.3.1.5.1a.781.781,0,0,1,.4.4c.1.1.2.3.3.4.1.2.2.3.2.5s.1.3.1.5v1a.6.6,0,0,1-.1.4c0,.1-.1.2-.2.3a.367.367,0,0,1-.3.1.52.52,0,0,1-.4-.2,1.756,1.756,0,0,1-.5-.4c-.1-.1-.2-.3-.3-.4-.1-.2-.2-.3-.2-.5-.1-.1-.1-.2-.1-.4Zm-2.6-.5v-.2h0l3.4-4,.1-.1c0-.1.1,0,.2,0l.4.2.1.1v.3h0l-3.4,4-.1.1h-.1l-.4-.2c-.2,0-.2-.1-.2-.2Zm.6-6.1a.781.781,0,0,1,.4.4c.1.1.2.3.3.4a.764.764,0,0,1,.2.5c0,.2.1.3.1.5v1a.6.6,0,0,1-.1.4c0,.1-.1.2-.2.3a.367.367,0,0,1-.3.1.52.52,0,0,1-.4-.2.781.781,0,0,1-.4-.4c-.1-.1-.2-.3-.3-.4-.1-.2-.2-.3-.2-.5s-.1-.3-.1-.5v-1a.6.6,0,0,1,.1-.4c0-.1.1-.2.2-.3a.367.367,0,0,1,.3-.1.758.758,0,0,0,.4.2Z"/><path class="r" d="M413.1,212.9V212a.6.6,0,0,0-.1-.4c-.1-.1-.1-.2-.3-.3-.1-.1-.3-.1-.3,0a.367.367,0,0,0-.1.3v1a.6.6,0,0,0,.1.4l.3.3c.1.1.3.1.3,0C413,213,413.1,213,413.1,212.9Z"/><path class="b" d="M409.7,214v1.3c.1,0,.2,0,.2.1a1.421,1.421,0,0,0,.6-.2.864.864,0,0,0,.3-.6,2.768,2.768,0,0,0,.1-.9V212a4.1,4.1,0,0,0-.1-1.1c-.1-.3-.2-.7-.3-1a2.361,2.361,0,0,0-.6-.9c-.1-.1-.2-.1-.2-.2v1.4l.1.1a2.537,2.537,0,0,1,.2,1.2v1.6a1.1,1.1,0,0,1-.3.9Z"/><path class="b" d="M413.5,211.4a1.381,1.381,0,0,0-.3-.4l-.4-.4c-.1-.1-.3-.1-.4-.2a.367.367,0,0,0-.3.1c-.1.1-.2.1-.2.3,0,.1-.1.3-.1.4v1a.9.9,0,0,0,.1.5c0,.2.1.3.2.5a1.381,1.381,0,0,0,.3.4l.4.4c.1.1.3.1.4.2a.367.367,0,0,0,.3-.1c.1-.1.2-.2.2-.3s.1-.2.1-.4v-1a.9.9,0,0,0-.1-.5A1.689,1.689,0,0,1,413.5,211.4Zm-.4,1.5a.367.367,0,0,1-.1.3q0,.15-.3,0l-.3-.3c-.1-.1-.1-.2-.1-.4v-1a.367.367,0,0,1,.1-.3c.1-.1.1-.1.3,0l.3.3c.1.1.1.2.1.4v1Z"/><path class="b" d="M414.7,216.1v1a.9.9,0,0,0,.1.5c0,.2.1.3.2.5a1.381,1.381,0,0,0,.3.4,2.181,2.181,0,0,0,.5.4c.1.1.3.1.4.2a.367.367,0,0,0,.3-.1c.1-.1.2-.2.2-.3s.1-.3.1-.4v-1a.9.9,0,0,0-.1-.5c0-.2-.1-.3-.2-.5a1.381,1.381,0,0,0-.3-.4l-.4-.4a.749.749,0,0,0-.5-.1.367.367,0,0,0-.3.1c-.1.1-.2.2-.2.3A.367.367,0,0,0,414.7,216.1Zm.6,1.1v-.7a.367.367,0,0,1,.1-.3q0-.15.3,0l.3.3c0,.1.1.2.1.4v.9a.367.367,0,0,1-.1.3q0,.15-.3,0l-.3-.3c-.1-.1-.1-.2-.1-.4v-.2Z"/><path class="b" d="M412,216.5h0c0,.1,0,.1.1.2l.1.1.4.2h.2l.1-.1,3.4-4h0v-.3l-.1-.1-.4-.2h-.1a.1.1,0,0,0-.1.1l-3.6,4.1Z"/><path class="m" d="M409.7,191.5h0v5.2h0Z"/><path class="c" d="M420.2,222.1l3.7,3.8a18.571,18.571,0,0,0,.7-5.7,36.986,36.986,0,0,0-.7-6.6,38.656,38.656,0,0,0-5.4-13.1,27.7,27.7,0,0,0-8.8-8.9v5.2a20.491,20.491,0,0,1,6.5,6.6,28.472,28.472,0,0,1,4,9.7,26.26,26.26,0,0,1,.5,4.9A11.827,11.827,0,0,1,420.2,222.1Z"/><path class="b" d="M416.2,227.1l2.3,5.5c2.5-1,4.4-3.4,5.4-6.8l-3.7-3.8C419.5,224.6,418.1,226.4,416.2,227.1Z"/><path class="m" d="M409.7,226.2v5.2h0Z"/><path class="b" d="M409.7,226.2v5.2c3.3,1.9,6.3,2.3,8.8,1.3l-2.3-5.5A7.927,7.927,0,0,1,409.7,226.2Z"/><path class="p" d="M345,234.3l-29.4-17a3.248,3.248,0,0,1-1.5-2.6V194.6a1.486,1.486,0,0,1,.2-.9,1.28,1.28,0,0,1,1.8-.3l29.4,17A3.248,3.248,0,0,1,347,213v20.1a1.612,1.612,0,0,1-.6,1.3.661.661,0,0,1-.6.1A1.884,1.884,0,0,1,345,234.3Zm-29.9-40.2c-.1,0-.1.2-.1.4v20.1a2.234,2.234,0,0,0,1,1.8l29.4,17a1,1,0,0,0,.4.1,1.034,1.034,0,0,0,.1-.4V213a2.234,2.234,0,0,0-1-1.8l-29.4-17c-.1-.1-.2-.1-.4-.1Z"/><path class="p" d="M342.2,216.5l-24-13.8a.574.574,0,0,1-.2-.7c.1-.3.4-.3.7-.2l24,13.9a.536.536,0,0,1,.3.4.472.472,0,0,1-.5.5A.367.367,0,0,1,342.2,216.5Z"/><path class="p" d="M342.2,221.2l-24-13.9h0a.574.574,0,0,1-.2-.7h0a.574.574,0,0,1,.7-.2l24,13.9a.52.52,0,0,1,.2.4.472.472,0,0,1-.5.5Z"/><path class="p" d="M342.2,225.8l-24-13.9h0a.515.515,0,1,1,.5-.9l24,13.9a.536.536,0,0,1,.3.4.472.472,0,0,1-.5.5C342.4,225.9,342.3,225.8,342.2,225.8Z"/><path class="p" d="M388.9,259.6l-29.4-17A3.248,3.248,0,0,1,358,240V219.9a1.612,1.612,0,0,1,.6-1.3,1.41,1.41,0,0,1,1.4.1l29.4,17a3.248,3.248,0,0,1,1.5,2.6v20.1a1.612,1.612,0,0,1-.6,1.3.661.661,0,0,1-.6.1A.882.882,0,0,1,388.9,259.6Zm-29.8-40.1c-.1,0-.1.2-.1.4V240a2.234,2.234,0,0,0,1,1.8l29.4,17a1,1,0,0,0,.4.1,1.034,1.034,0,0,0,.1-.4V238.4a2.234,2.234,0,0,0-1-1.8l-29.4-17c-.1-.1-.2-.1-.4-.1Z"/><path class="p" d="M386.2,241.9l-24-13.9a.515.515,0,1,1,.5-.9l24,13.9a.536.536,0,0,1,.3.4.472.472,0,0,1-.5.5C386.3,242,386.2,241.9,386.2,241.9Z"/><path class="p" d="M386.2,246.6l-24-13.8a.574.574,0,0,1-.2-.7h0a.574.574,0,0,1,.7-.2l24,13.8a.536.536,0,0,1,.3.4.472.472,0,0,1-.5.5Z"/><path class="p" d="M386.2,251.2l-24-13.9a.515.515,0,1,1,.5-.9l24,13.9a.536.536,0,0,1,.3.4.472.472,0,0,1-.5.5C386.3,251.3,386.2,251.2,386.2,251.2Z"/><path class="v" d="M118.6,267.2a8.843,8.843,0,0,0,4,7l163.9,94.6a2.979,2.979,0,0,0,2.9.3h0l3.2-1.8h0a2.96,2.96,0,0,0,1.2-2.6v-192a8.843,8.843,0,0,0-4-7L125.9,71.1a2.98,2.98,0,0,0-2.9-.3h0l-3.1,1.8h0a2.742,2.742,0,0,0-1.2,2.6Z"/><path class="v" d="M118.6,75.3v192a8.843,8.843,0,0,0,4,7L286.5,369c2.2,1.3,4,.2,4-2.3v-192a8.843,8.843,0,0,0-4-7L122.6,73C120.4,71.6,118.6,72.7,118.6,75.3Z"/><path class="w" d="M122,72.6c0,.3-.1.5-.1.8v192a8.843,8.843,0,0,0,4,7L289.8,367c.2.1.5.2.7.3-.4,2-2,2.6-4,1.5L122.6,274.2a8.843,8.843,0,0,1-4-7V75.2C118.6,73,120,71.9,122,72.6Z"/><path class="p" d="M165,96.9,207.3,121l42.2,24.3,21.1,12.1,10.5,6.1,5.3,3.1c.4.3.9.6,1.3.9a13.58,13.58,0,0,1,1.2,1.2,10,10,0,0,1,1.7,2.8,8.662,8.662,0,0,1,.6,3.2v45.7l-.1,48.7-.2,48.7-.3,48.7-.3-48.7-.2-48.7-.1-48.7V174.7a8.574,8.574,0,0,0-.5-2.7,7.629,7.629,0,0,0-3.6-4.1l-5.3-3L270,158.8l-21.1-12.2-42.1-24.4L164.7,97.6l-42-24.7Z"/><path class="r" d="M274.5,184.3v64.3c0,1.4-1,1.9-2.1,1.2l-75.7-43.7a4.364,4.364,0,0,1-2.1-3.7V138.1c0-1.4,1-1.9,2.1-1.2l75.7,43.7A4.5,4.5,0,0,1,274.5,184.3Z"/><path class="f" d="M263.9,231a.758.758,0,0,1,.2-.4c.1-.1.2-.2.3-.1.2,0,.3.1.5.1a1.756,1.756,0,0,1,.5.4,2.185,2.185,0,0,1,.3.5c.1.2.1.4.2.6,0,.2.1.4.1.6v1a1.268,1.268,0,0,1-.1.6.758.758,0,0,1-.2.4.367.367,0,0,1-.3.1c-.2,0-.3-.1-.5-.1a1.756,1.756,0,0,1-.5-.4,2.185,2.185,0,0,1-.3-.5c-.1-.2-.1-.4-.2-.6,0-.2-.1-.4-.1-.6v-1A1.268,1.268,0,0,1,263.9,231Zm1.4,2.4v-1a1.7,1.7,0,0,0-.1-.7.781.781,0,0,0-.4-.4c-.2-.1-.3-.1-.4,0a1.268,1.268,0,0,0-.1.6v1a1.7,1.7,0,0,0,.1.7.781.781,0,0,0,.4.4c.2.1.3.1.4,0a1.268,1.268,0,0,0,.1-.6Z"/><path class="b" d="M259.7,232.6l-57.2-33a.481.481,0,0,1-.2-.6.43.43,0,0,1,.7-.2l57.2,33a.574.574,0,0,1,.2.7.758.758,0,0,1-.4.2A.774.774,0,0,0,259.7,232.6Z"/><path class="f" d="M264.1,217.5a.758.758,0,0,1,.2-.4.367.367,0,0,1,.3-.1c.2,0,.3.1.5.1a1.756,1.756,0,0,1,.5.4c.1.2.2.3.3.5s.1.4.2.6a1.486,1.486,0,0,1,.1.6v1a1.268,1.268,0,0,1-.1.6.758.758,0,0,1-.2.4.367.367,0,0,1-.3.1c-.2,0-.3-.1-.5-.1a1.756,1.756,0,0,1-.5-.4c-.1-.2-.2-.3-.3-.5s-.1-.4-.2-.6a1.759,1.759,0,0,1-.1-.6v-.9A1.952,1.952,0,0,0,264.1,217.5Zm1.5,1.9v-.5a1.7,1.7,0,0,0-.1-.7.781.781,0,0,0-.4-.4c-.2-.1-.3-.1-.4,0a1.268,1.268,0,0,0-.1.6v.9c0,.2.1.5.1.7a.781.781,0,0,0,.4.4c.2.1.3.1.4,0a1.268,1.268,0,0,0,.1-.6Z"/><path class="b" d="M259.7,216.8l-57.2-33a.574.574,0,0,1-.2-.7h0a.574.574,0,0,1,.7-.2l57.2,33a.536.536,0,0,1,.3.4.472.472,0,0,1-.5.5Z"/><path class="f" d="M264.4,201.5a.758.758,0,0,1,.2-.4.367.367,0,0,1,.3-.1c.2,0,.3.1.5.1a1.756,1.756,0,0,1,.5.4c.1.2.2.3.3.5s.1.4.2.6c0,.2.1.4.1.6v1a1.268,1.268,0,0,1-.1.6.758.758,0,0,1-.2.4c-.1.1-.2.2-.3.1-.2,0-.3-.1-.5-.1a1.756,1.756,0,0,1-.5-.4,2.185,2.185,0,0,1-.3-.5c-.1-.2-.1-.4-.2-.6,0-.2-.1-.4-.1-.6v-1A1.268,1.268,0,0,1,264.4,201.5Zm1.4,2.4v-1a1.7,1.7,0,0,0-.1-.7.781.781,0,0,0-.4-.4c-.2-.1-.3-.1-.4,0a1.268,1.268,0,0,0-.1.6v1a1.7,1.7,0,0,0,.1.7.781.781,0,0,0,.4.4c.2.1.3.1.4,0,0-.2.1-.4.1-.6Z"/><path class="b" d="M259.7,201l-57.2-33a.481.481,0,0,1-.2-.6.43.43,0,0,1,.7-.2l57.2,33a.52.52,0,0,1,.2.4.472.472,0,0,1-.5.5A.31.31,0,0,0,259.7,201Z"/><path class="f" d="M264.3,185.7a.758.758,0,0,1,.2-.4.367.367,0,0,1,.3-.1c.2,0,.3.1.5.1a1.756,1.756,0,0,1,.5.4c.1.2.2.3.3.5s.1.4.2.6c0,.2.1.4.1.6v1a1.268,1.268,0,0,1-.1.6.758.758,0,0,1-.2.4c-.1.1-.2.2-.3.1-.2,0-.3-.1-.5-.1a1.756,1.756,0,0,1-.5-.4,2.185,2.185,0,0,1-.3-.5c-.1-.2-.1-.4-.2-.6,0-.2-.1-.4-.1-.6v-1A1.486,1.486,0,0,0,264.3,185.7Zm1.4,2.4v-1c0-.2-.1-.5-.1-.7a.781.781,0,0,0-.4-.4c-.2-.1-.3-.1-.4,0a1.268,1.268,0,0,0-.1.6v1a1.7,1.7,0,0,0,.1.7.781.781,0,0,0,.4.4c.2.1.3.1.4,0a1.486,1.486,0,0,0,.1-.6Z"/><path class="b" d="M259.7,185.1l-57.2-33a.515.515,0,0,1,.5-.9l57.2,33a.536.536,0,0,1,.3.4.472.472,0,0,1-.5.5Q259.7,185.25,259.7,185.1Z"/><path class="x" d="M202.7,199.2V178.5c4.1,2.4,8.6-10,14.7-6.4s8.7,13.1,14.3,22.7,14.2,14.9,18.4,1.6,9.9-9.2,9.9-9.2v45Z"/><path class="g" d="M202.7,199.2V178.5c4.1,2.4,8.6-10,14.7-6.4s8.7,13.1,14.3,22.7,14.2,14.9,18.4,1.6,9.9-9.2,9.9-9.2v45Z"/><path class="x" d="M259.9,232.1l-57.2-33V170.5c8.1,4.7,9.2,15,14,17.8s5.8-15.6,12.3-11.8,8.1,36.4,14.5,40.1,6.8-9.6,10.5-7.5c2.9,1.6,5.9,16.3,5.9,16.3Z"/><path class="y" d="M202.6,178.4v20.7l57.2,33v-6.8s-3-14.7-5.9-16.3c-3.7-2.1-4.1,11.1-10.5,7.5-2.5-1.5-4.3-7.6-6-14.6a25.975,25.975,0,0,1-5.9-7.3c-3.3-5.6-5.5-11.2-8-15.5-2.4,4.2-3.9,10.9-6.9,9.1-3.4-2-4.9-7.7-8.4-12.5C206.3,177.7,204.5,179.5,202.6,178.4Z"/><path class="r" d="M274.5,276.7V341c0,1.4-1,1.9-2.1,1.2l-75.7-43.7a4.364,4.364,0,0,1-2.1-3.7V230.5c0-1.4,1-1.9,2.1-1.2L272.4,273A4.364,4.364,0,0,1,274.5,276.7Z"/><path class="b" d="M262.1,278.2l4.2,2.4v47l-4.2-2.4Z"/><path class="b" d="M254.7,273.9l4.2,2.4v47l-4.2-2.4Z"/><path class="b" d="M247.3,269.6l4.2,2.5V319l-4.2-2.4Z"/><path class="b" d="M239.9,265.4l4.2,2.4v46.9l-4.2-2.4Z"/><path class="b" d="M232.5,261.1l4.2,2.4v47l-4.2-2.5Z"/><path class="b" d="M225,256.8l4.2,2.4v47l-4.2-2.4Z"/><path class="x" d="M229.2,280.7l-4.2-2.5V256.8l4.2,2.4Z"/><path class="b" d="M217.6,252.5l4.2,2.5v46.9l-4.2-2.4Z"/><path class="b" d="M210.2,248.3l4.2,2.4v46.9l-4.2-2.4Z"/><path class="b" d="M202.8,244l4.2,2.4v46.9l-4.2-2.4Z"/><path class="x" d="M266.3,317.1l-4.2-2.4V288.5l4.2,2.4Z"/><path class="q" d="M266.3,327.6l-4.2-2.4V314.7l4.2,2.4Z"/><path class="x" d="M258.9,302l-4.2-2.4v-9.5l4.2,2.5Z"/><path class="q" d="M258.9,323.3l-4.2-2.4V299.6l4.2,2.4Z"/><path class="x" d="M251.5,284.2l-4.2-2.4v-8.2l4.2,2.4Z"/><path class="q" d="M251.5,319l-4.2-2.4V281.8l4.2,2.4Z"/><path class="x" d="M244.1,298.8l-4.2-2.4V275.6l4.2,2.4Z"/><path class="q" d="M244.1,314.7l-4.2-2.4V296.4l4.2,2.4Z"/><path class="x" d="M236.7,291l-4.2-2.5v-8.7l4.2,2.4Z"/><path class="q" d="M236.7,310.5l-4.2-2.5V288.5l4.2,2.5Z"/><path class="q" d="M229.2,306.2l-4.2-2.4V278.2l4.2,2.5Z"/><path class="x" d="M221.8,290.1l-4.2-2.4V277.4l4.2,2.4Z"/><path class="q" d="M221.8,301.9l-4.2-2.4V287.7l4.2,2.4Z"/><path class="x" d="M214.4,282.1l-4.2-2.5V256.3l4.2,2.4Z"/><path class="q" d="M214.4,297.6l-4.2-2.4V279.6l4.2,2.5Z"/><path class="x" d="M207,275.3l-4.2-2.4v-8.2l4.2,2.5Z"/><path class="z" d="M207,293.3l-4.2-2.4v-18l4.2,2.4Z"/><path class="z" d="M266.3,327.6l-4.2-2.4V314.7l4.2,2.4Z"/><path class="z" d="M258.9,323.3l-4.2-2.4V299.6l4.2,2.4Z"/><path class="z" d="M251.5,319l-4.2-2.4V281.8l4.2,2.4Z"/><path class="z" d="M244.1,314.7l-4.2-2.4V296.4l4.2,2.4Z"/><path class="z" d="M236.7,310.5l-4.2-2.5V288.5l4.2,2.5Z"/><path class="z" d="M229.2,306.2l-4.2-2.4V278.2l4.2,2.5Z"/><path class="z" d="M221.8,301.9l-4.2-2.4V287.7l4.2,2.4Z"/><path class="z" d="M214.4,297.6l-4.2-2.4V279.6l4.2,2.5Z"/><path class="r" d="M173.8,162.7V227c0,1.4-1,1.9-2.1,1.2l-60-34.6a4.6,4.6,0,0,1-2.1-3.7V125.6c0-1.4,1-1.9,2.1-1.2l60,34.6A4.364,4.364,0,0,1,173.8,162.7Z"/><path class="b" d="M171.4,228.6l-60-34.6a5.216,5.216,0,0,1-2.4-4.1V125.6a1.918,1.918,0,0,1,.9-1.8,1.84,1.84,0,0,1,2,.2l60,34.6a5.375,5.375,0,0,1,2.4,4.1V227a1.918,1.918,0,0,1-.9,1.8,1.884,1.884,0,0,1-.8.2A1.922,1.922,0,0,1,171.4,228.6Zm-60.9-104a1.159,1.159,0,0,0-.4,1V190a4.539,4.539,0,0,0,1.9,3.3l60,34.6a.778.778,0,0,0,.8.2.887.887,0,0,0,.6-1V162.8a4.539,4.539,0,0,0-1.9-3.3l-60-34.6a1.854,1.854,0,0,0-.7-.2A.367.367,0,0,0,110.5,124.6Z"/><path class="f" d="M141.7,176.3l-9.3-22.4c2.6-1,5.8-.7,9.3,1.3Z"/><path class="x" d="M141.7,176.3V155.2a28.8,28.8,0,0,1,9.3,9.4Z"/><path class="x" d="M141.7,176.3l9.3-11.7a43.1,43.1,0,0,1,5.8,13.8Z"/><path class="f" d="M141.7,176.3l-15-15.2c1-3.7,3.1-6.2,5.8-7.2Z"/><path class="x" d="M141.7,176.3l15.1,2.2a32.659,32.659,0,0,1,.8,7,20.868,20.868,0,0,1-.8,6.1Z"/><path class="x" d="M141.7,176.3,132.4,188a40.445,40.445,0,0,1-5.7-13.9Z"/><path class="x" d="M141.7,176.3l9.3,22.4c-2.6,1-5.8.7-9.3-1.3Z"/><path class="x" d="M151,198.7l-9.3-22.4,15.1,15.2C155.7,195.2,153.7,197.7,151,198.7Z"/><path class="y" d="M141.7,176.4l9.3,22.4c2.7-1.1,4.8-3.5,5.8-7.2a24.894,24.894,0,0,0,.8-6.1,32.659,32.659,0,0,0-.8-7,42.347,42.347,0,0,0-5.8-13.9Z"/><path class="x" d="M141.7,176.3l-15-2.2a32.659,32.659,0,0,1-.8-7,20.868,20.868,0,0,1,.8-6.1Z"/><path class="x" d="M141.7,176.3v21.1a28.8,28.8,0,0,1-9.3-9.4Z"/><path class="g" d="M125.9,167.1a32.659,32.659,0,0,0,.8,7,42.347,42.347,0,0,0,5.8,13.9,28.8,28.8,0,0,0,9.3,9.4c3.5,2,6.7,2.3,9.3,1.3l-9.3-22.4-15-15.2A17.851,17.851,0,0,0,125.9,167.1Z"/><path class="b" d="M141.5,202c-10.6-6.1-19.2-22.6-19.2-36.7,0-7.5,2.5-13.3,6.8-15.8,3.6-2.1,8.2-1.7,12.9,1,10.6,6.1,19.2,22.6,19.2,36.7,0,7.5-2.5,13.3-6.8,15.8a9.257,9.257,0,0,1-5.1,1.3A14.246,14.246,0,0,1,141.5,202Zm-11.9-51.6c-4,2.3-6.3,7.8-6.3,14.9,0,13.8,8.4,29.8,18.7,35.8,4.4,2.5,8.6,2.9,11.9,1,4-2.3,6.3-7.8,6.3-14.9,0-13.8-8.4-29.8-18.7-35.8a14.5,14.5,0,0,0-7.3-2.2A9.291,9.291,0,0,0,129.6,150.4Z"/><path class="f" d="M174.6,143.2,155,131.9l-2.8,6.5a1.23,1.23,0,0,1-1.1.7,1.077,1.077,0,0,1-1-.8l-3.3-11.1-4.8-2.8a5.65,5.65,0,0,1-2.6-4.6V99.5a2.155,2.155,0,0,1,.4-1.6,1.907,1.907,0,0,1,2.7-.2l32.6,18.8a5.65,5.65,0,0,1,2.6,4.6v20.3a2.147,2.147,0,0,1-.9,2,1.486,1.486,0,0,1-.9.2A6.468,6.468,0,0,1,174.6,143.2ZM142.1,98.5a1.163,1.163,0,0,0-1-.2,1.086,1.086,0,0,0-.7,1.2v20.3a4.877,4.877,0,0,0,2.1,3.7l5.2,3,3.4,11.4a.1.1,0,0,0,.1.1c.1,0,.1,0,.2-.1l3.2-7.5,20.5,11.8a.959.959,0,0,0,.9.2,1.037,1.037,0,0,0,.8-1.2V121a4.877,4.877,0,0,0-2.1-3.7L142.1,98.5Z"/><path class="f" d="M169.6,123l-22.4-13h0a.515.515,0,0,1,.5-.9L170.1,122a.536.536,0,0,1,.3.4.472.472,0,0,1-.5.5A.774.774,0,0,1,169.6,123Z"/><path class="f" d="M169.6,127.3l-22.4-12.9h0a.515.515,0,1,1,.5-.9l22.4,12.9a.52.52,0,0,1,.2.4.472.472,0,0,1-.5.5A.139.139,0,0,1,169.6,127.3Z"/><path class="f" d="M169.6,131.6l-22.4-12.9h0a.515.515,0,1,1,.5-.9l22.4,12.9a.574.574,0,0,1,.2.7.758.758,0,0,1-.4.2Q169.6,131.75,169.6,131.6Z"/><path class="x" d="M182.3,258.5l-8-4.6c-.2-.1-.2-.2-.3-.4v-9.2c0-.1,0-.2.1-.2a.574.574,0,0,1,.7-.2l8,4.6a.536.536,0,0,1,.3.4v9.2c0,.2-.1.3-.3.4a.349.349,0,0,0-.2.1A.367.367,0,0,0,182.3,258.5Zm-7.2-13.4v8.1l7,4v-8.1Z"/><path class="f" d="M173.1,243.2l4.2,10a1.057,1.057,0,0,0,.7.6h.2a.908.908,0,0,0,.7-.3l1.9-1.8a.908.908,0,0,0,0-1,1.012,1.012,0,0,0-1.4-.4l-.9.9-3.7-8.7a.92.92,0,1,0-1.7.7Z"/><path class="f" d="M169.1,245.6c0,.8-.6,1.1-1.3.6l-29.4-17a3.168,3.168,0,0,1-1.3-2.1c0-.8.6-1.1,1.3-.6l29.4,17A3.168,3.168,0,0,1,169.1,245.6Z"/><path class="x" d="M182.3,272.3l-8-4.6a.536.536,0,0,1-.3-.4V258c0-.2.1-.3.3-.4a.454.454,0,0,1,.5,0l8,4.6a.758.758,0,0,1,.2.4v9.3a.52.52,0,0,1-.2.4c-.1,0-.2.1-.3.1A.31.31,0,0,1,182.3,272.3Zm-7.2-13.4V267l7,4v-8Z"/><path class="f" d="M173.6,255.8a.992.992,0,0,0-.5,1.3l4.2,10a1.057,1.057,0,0,0,.7.6h.2a1.08,1.08,0,0,0,.7-.3l1.9-1.8a.908.908,0,0,0,0-1,.984.984,0,0,0-1.4-.3l-.9.9-3.7-8.7a.839.839,0,0,0-1.2-.7C173.7,255.7,173.6,255.7,173.6,255.8Z"/><path class="f" d="M169.1,259.5c0,.8-.6,1.1-1.3.6l-29.4-17a3.168,3.168,0,0,1-1.3-2.1c0-.8.6-1.1,1.3-.7l29.4,17A3.158,3.158,0,0,1,169.1,259.5Z"/><path class="x" d="M182.3,286.2l-8-4.6a.536.536,0,0,1-.3-.4V272c0-.2.1-.3.3-.4a.454.454,0,0,1,.5,0l8,4.6a.758.758,0,0,1,.2.4v9.2a.472.472,0,0,1-.5.5C182.5,286.2,182.4,286.2,182.3,286.2Zm-7.2-13.4v8.1l7,4v-8.1Z"/><path class="f" d="M173.6,269.6a.992.992,0,0,0-.5,1.3l4.2,10a1.057,1.057,0,0,0,.7.6h.2a1.08,1.08,0,0,0,.7-.3l1.9-1.8a.908.908,0,0,0,0-1,.984.984,0,0,0-1.4-.3l-.9.8-3.7-8.7a.9.9,0,0,0-1.2-.6Z"/><path class="f" d="M169.1,273.3c0,.8-.6,1.1-1.3.6l-29.4-17a3.168,3.168,0,0,1-1.3-2.1c0-.8.6-1.1,1.3-.6l29.4,17A2.772,2.772,0,0,1,169.1,273.3Z"/><path class="x" d="M350.4,107.8,329.5,95.7l-3,7a1.143,1.143,0,0,1-.8.7,1.245,1.245,0,0,1-1.5-.8l-3.5-11.9-5.2-3a6.127,6.127,0,0,1-2.8-4.9V61a2.036,2.036,0,0,1,.5-1.8,1.933,1.933,0,0,1,2.8-.1l34.9,20.1a6.1,6.1,0,0,1,2.8,4.8v21.8a2.277,2.277,0,0,1-1,2.1,1.486,1.486,0,0,1-.9.2A2.232,2.232,0,0,1,350.4,107.8ZM315.5,60a.959.959,0,0,0-1-.3,1,1,0,0,0-.8,1.3V82.8a5.369,5.369,0,0,0,2.3,4l5.5,3.2,3.6,12.3c0,.1.1.1.2.1s.2,0,.2-.1l3.5-8,21.9,12.6a1.258,1.258,0,0,0,1.3.2,1.217,1.217,0,0,0,.5-1.2V84.1a5.369,5.369,0,0,0-2.3-4L315.5,60Z"/><path class="x" d="M345,86.1,321,72.3a.481.481,0,0,1-.2-.6.43.43,0,0,1,.7-.2l24,13.8h0a.574.574,0,0,1,.2.7.758.758,0,0,1-.4.2A.367.367,0,0,1,345,86.1Z"/><path class="x" d="M345,90.8,321,77a.574.574,0,0,1-.2-.7h0a.574.574,0,0,1,.7-.2l24,13.8h0a.574.574,0,0,1,.2.7.4.4,0,0,1-.4.2Z"/><path class="x" d="M345,95.4,321,81.6a.1.1,0,0,1-.1-.1.5.5,0,1,1,.6-.8l24,13.8h0a.574.574,0,0,1,.2.7c-.1.2-.3.2-.4.3A.367.367,0,0,1,345,95.4Z"/><path class="x" d="M383.9,106.6,356.5,90.8a.574.574,0,0,1-.2-.7h0a.574.574,0,0,1,.7-.2l27.4,15.8a.959.959,0,0,0,1,.3,1.065,1.065,0,0,0,.8-1.3V82.9a5.369,5.369,0,0,0-2.3-4L349,58.8a1.258,1.258,0,0,0-1.3-.2,1.217,1.217,0,0,0-.5,1.2V73.6h0a.472.472,0,0,1-.5.5h0a.472.472,0,0,1-.5-.5V59.8a2.036,2.036,0,0,1,.5-1.8,1.933,1.933,0,0,1,2.8-.1L384.4,78a6.1,6.1,0,0,1,2.8,4.8v21.8a2.277,2.277,0,0,1-1,2.1,1.486,1.486,0,0,1-.9.2A1.735,1.735,0,0,1,383.9,106.6Z"/><path class="x" d="M378.4,85l-24-13.8a.515.515,0,1,1,.5-.9l24,13.8a.536.536,0,0,1,.3.4.472.472,0,0,1-.5.5Z"/><path class="x" d="M378.4,89.6l-24-13.9a.574.574,0,0,1-.2-.7h0a.574.574,0,0,1,.7-.2l24,13.8a.536.536,0,0,1,.3.4.472.472,0,0,1-.5.5C378.6,89.7,378.5,89.7,378.4,89.6Z"/><path class="x" d="M378.4,94.3,357,81.9a.574.574,0,0,1-.2-.7h0a.574.574,0,0,1,.7-.2l21.4,12.4a.536.536,0,0,1,.3.4.472.472,0,0,1-.5.5Z"/><path class="c" d="M69.9,124.4h0c.1,0,.1-.1.2-.2l2.6-4.4v-3.4l-6-3.5v3.5l2,5.6-2.4,4.6Z"/><path class="g" d="M69.9,124.4h0c.1,0,.1-.1.2-.2l2.6-4.4v-3.4l-6-3.5v3.5l2,5.6-2.4,4.6Z"/><path class="c" d="M50.8,109.4a3.892,3.892,0,0,0,1.8,3.1l10.4,6,2.7,7.8a.215.215,0,0,0,.2.2c.2.1.4.1.5-.1l2.6-4.5L81.2,129a3.825,3.825,0,0,0,3.6,0l1.5-.8a3.892,3.892,0,0,0,1.8-3.1V107.6a3.892,3.892,0,0,0-1.8-3.1L57.6,88A3.825,3.825,0,0,0,54,88l-1.5.8a3.892,3.892,0,0,0-1.8,3.1Z"/><path class="g" d="M88,107.5a4.075,4.075,0,0,0-.5-1.8l-5,2.9a3.453,3.453,0,0,1,.5,1.8V128c0,1-.7,1.5-1.5,1.2a4.194,4.194,0,0,0,3.3-.1l1.5-.8a3.892,3.892,0,0,0,1.8-3.1Z"/><path class="aa" d="M52.6,88.8,54,88a3.825,3.825,0,0,1,3.6,0l28.6,16.4a3.325,3.325,0,0,1,1.2,1.4l-5,2.9a2.735,2.735,0,0,0-1.3-1.3L52.6,90.9c-.8-.5-1.5-.2-1.7.5A3.785,3.785,0,0,1,52.6,88.8Z"/><path class="p" d="M73.2,113.7a5.216,5.216,0,0,0,2.4,4.1c1.3.8,2.4.2,2.4-1.4a5.4,5.4,0,0,0-2.4-4.2C74.3,111.5,73.2,112.1,73.2,113.7Z"/><path class="p" d="M64.4,108.5a5.561,5.561,0,0,0,2.4,4.2c1.3.8,2.4.1,2.4-1.4a5.216,5.216,0,0,0-2.4-4.1C65.5,106.4,64.4,107,64.4,108.5Z"/><path class="p" d="M55.6,103.4a5.216,5.216,0,0,0,2.4,4.1c1.3.8,2.4.2,2.4-1.4a5.561,5.561,0,0,0-2.4-4.2C56.6,101.3,55.6,101.9,55.6,103.4Z"/></g></svg>