<svg xmlns="http://www.w3.org/2000/svg" width="481.2" height="413.68" viewBox="0 0 481.2 413.68"><defs><style>.a{fill:#fafafa;}.b{fill:#ebebeb;}.c{fill:#06826a;}.aa,.d{opacity:0.15;}.e,.p,.q,.r,.s,.w{fill:#fff;}.f{fill:#ff3600;}.g,.m{fill:#455a64;}.h{fill:#f0f0f0;}.i{fill:#263238;}.j,.v{fill:#37474f;}.k{fill:#e0e0e0;}.l{fill:#e6e6e6;}.m,.n,.o,.q{opacity:0.5;}.p,.z{opacity:0.6;}.r,.y{opacity:0.4;}.s,.v{opacity:0.8;}.t{opacity:0.05;}.u{opacity:0.1;}.w{opacity:0.3;}.x{opacity:0.2;}.ab{opacity:0.25;}</style></defs><g transform="translate(-8.5 -66.42)"><ellipse class="a" cx="240.6" cy="138.9" rx="240.6" ry="138.9" transform="translate(8.5 202.3)"/><path class="b" d="M285.7,418.1l-86.5-50c-2.2-1.3-2.2-3.4,0-4.7l128.1-74a8.9,8.9,0,0,1,8.1,0l86.5,50c2.2,1.3,2.2,3.4,0,4.7l-128.1,74A8.9,8.9,0,0,1,285.7,418.1Z"/><path class="b" d="M67.7,395.3,37.4,377.8c-2.1-1.2-2.1-3.1,0-4.3L255.5,247.6a8.262,8.262,0,0,1,7.5,0l30.3,17.5c2.1,1.2,2.1,3.1,0,4.3L75.2,395.3A8.262,8.262,0,0,1,67.7,395.3Z"/><path class="c" d="M69.4,355.2a71.314,71.314,0,0,0-2.7-20.5c-3.1-10.7-10.1-21.9-19.1-24.8s-13.6,2.9-12.3,9.2c1.2,5.4,7.6,10.5,12.3,15.6s13.4,17.2,15,28.2l5.2,1.1Z"/><g class="d"><path d="M69.4,355.2a71.314,71.314,0,0,0-2.7-20.5c-3.1-10.7-10.1-21.9-19.1-24.8s-13.6,2.9-12.3,9.2c1.2,5.4,7.6,10.5,12.3,15.6s13.4,17.2,15,28.2l5.2,1.1Z"/></g><path class="e" d="M65.4,359.6a.56.56,0,0,1-.5-.6c1.8-27-23-44.7-23.3-44.9a.521.521,0,0,1-.1-.8h0a.627.627,0,0,1,.8-.2h0c.3.2,25.6,18.3,23.8,46-.1.3-.4.6-.7.5Z"/><path class="f" d="M63.3,390a11.317,11.317,0,0,1-7.7,0,15.572,15.572,0,0,1-5.2-3.2,17.5,17.5,0,0,1-3.4-5.1,15.487,15.487,0,0,0-2.1-3.5c-1.8-2.2-5.2-2.5-7.7-3.3a9.831,9.831,0,0,1-6.9-7.3c-.7-3.5.2-7.5,3.5-9.4l-2.5-2a17.668,17.668,0,0,1-3.1-3,5.688,5.688,0,0,1-1.3-4,5.615,5.615,0,0,1,4-4.5,11.25,11.25,0,0,1,6.3,0,33.851,33.851,0,0,1,6.1,2.1,4.924,4.924,0,0,0,1.7.6,4.194,4.194,0,0,0,2.2-.8c4.8-2.5,12.2-1.5,14.1,4.4.3.9.4,1.8.7,2.6,1.1,3.2,5.2,2.7,7.6,4.4a6.448,6.448,0,0,1,2.5,5c.2,3.4-1,6.9-2,10-.4,1.2-1.1,2.2-1.5,3.4a30.711,30.711,0,0,0-.6,5.3c-.4,2.9-1,6.6-3.9,8A2.192,2.192,0,0,1,63.3,390Z"/><path class="e" d="M66.7,383.5A42.971,42.971,0,0,0,57.4,366c0-.1-.1-.2-.2-.3a53.347,53.347,0,0,0-4-4.2,22.669,22.669,0,0,1,2.7-11.7.447.447,0,1,0-.8-.4h0a23.75,23.75,0,0,0-2.9,11.3,75.074,75.074,0,0,0-19.5-12.4.446.446,0,0,0-.6.3h0a.446.446,0,0,0,.3.6,69.274,69.274,0,0,1,23,15.9c-6.6-1.9-14.9.6-15.3.7a.486.486,0,0,0-.3.6h0c.1.2.2.3.4.3h.2c.1,0,9.9-2.9,16.3-.1a40.331,40.331,0,0,1,9.1,17.2c0,.2.2.3.4.4h.2a.908.908,0,0,0,.3-.7Z"/><path class="g" d="M67.3,392.3a4.271,4.271,0,0,1-1.9-3.4V197a4.559,4.559,0,0,1,2-3.5L286.6,67a3.742,3.742,0,0,1,5.2,1.2,4.032,4.032,0,0,1,.6,2.2V262.2a4.559,4.559,0,0,1-2,3.5L71.2,392.2A4.147,4.147,0,0,1,67.3,392.3Z"/><path class="h" d="M71.2,392.2a4.147,4.147,0,0,1-3.9.1,4.271,4.271,0,0,1-1.9-3.4v-168l3.8,2.2v168A1.226,1.226,0,0,0,71.2,392.2Z"/><path class="i" d="M69.8,197.2a3.606,3.606,0,0,0-.6,2v23.9l-3.8-2.2V196.8a.9.9,0,0,1,.1-.5A6.944,6.944,0,0,1,66,195Z"/><path class="j" d="M292.4,70.3V81.1L131.8,173.9c-1.1.6-2,.1-2-1.2v-4.1c0-1.3-.9-1.8-2-1.2l-49,28.3a4.559,4.559,0,0,0-2,3.5v4.1a4.559,4.559,0,0,1-2,3.5L69.2,210V199.2a4.559,4.559,0,0,1,2-3.5L290.4,69.2C291.5,68.5,292.4,69,292.4,70.3Z"/><path class="a" d="M292.4,262.2a4.559,4.559,0,0,1-2,3.5L71.2,392.2c-1.1.7-2,.1-2-1.2V209.9l5.6-3.2c1.1-.6,2.9-10.4,4-11.1l48.1-27.8c1.1-.6,3.7,6.6,4.8,5.9L292.4,80.9V262.2Z"/><path class="k" d="M291.4,82.8V262.2a3.362,3.362,0,0,1-1.5,2.6L70.7,391.3c-.1.1-.3.1-.4.2a.749.749,0,0,1-.1-.5V210.5l5-2.9c.8-.5,1.3-2,2.5-6.1a29.459,29.459,0,0,1,1.7-5L127,169l1.5,2.4c1.3,2.3,2,3.5,3.1,3.5a1.072,1.072,0,0,0,.6-.2L291.4,82.8m1-1.7L131.8,173.9h-.1c-1.1,0-3.4-6-4.6-6h-.2L78.8,195.7c-1.1.6-2.9,10.4-4,11.1L69.2,210V391c0,.9.4,1.5,1.1,1.5a1.613,1.613,0,0,0,.9-.3L290.3,265.7a4.559,4.559,0,0,0,2-3.5l.1-181.1Z"/><path class="l" d="M292.4,81.1V94.2L69.2,223.1V210l4.2-2.4c1.1-.6,1.5-1.6,2-3.5l1.4-4.9c.4-1.7.9-2.9,2-3.5l48.1-27.8c1.1-.6,2-.7,2.8.7l1.7,3.1c.6,1.1,1,1.7,2.1,1.1Z"/><path class="e" d="M282.9,77.1c1.4-.8,2.5-.2,2.5,1.5a5.6,5.6,0,0,1-2.5,4.4c-1.4.8-2.5.2-2.5-1.5A5.448,5.448,0,0,1,282.9,77.1Z"/><path class="e" d="M273.8,82.3c1.4-.8,2.5-.2,2.5,1.5a5.6,5.6,0,0,1-2.5,4.4c-1.4.8-2.5.2-2.5-1.5A5.6,5.6,0,0,1,273.8,82.3Z"/><path class="e" d="M264.7,87.6c1.4-.8,2.5-.2,2.5,1.5a5.6,5.6,0,0,1-2.5,4.4c-1.4.8-2.5.2-2.5-1.5A5.342,5.342,0,0,1,264.7,87.6Z"/><path class="m" d="M78.4,210.9l-3.2,1.8,1.2-2.3a.638.638,0,0,0,0-.6c-.1-.1-.3,0-.3.2l-1.7,3.3h0v.1h0v.3h0v.1h0l1.7,1.3h.2c.1-.1.2-.1.2-.2.1-.2.1-.5,0-.5l-1.2-.9,3.2-1.8a.55.55,0,0,0,.3-.5C78.7,210.9,78.6,210.8,78.4,210.9Z"/><path class="m" d="M81.1,209.4l3.2-1.8-1.2-.9a.446.446,0,0,1,0-.5.536.536,0,0,1,.4-.3l1.7,1.3h0v.1h0v.3h0v.1h0L83.5,211c0,.1-.1.1-.2.2h-.2a.638.638,0,0,1,0-.6l1.2-2.3-3.2,1.8c-.1.1-.3,0-.3-.3A.536.536,0,0,1,81.1,209.4Z"/><path class="m" d="M91.5,200.3c0-.2-.2-.2-.3,0l-.4,1.1c-.7-.1-1.6.6-2.2,1.9-.8,1.7-.8,3.6,0,4.4a1.071,1.071,0,0,0,1.4.1,3.907,3.907,0,0,0,1.4-1.7.638.638,0,0,0,0-.6c-.1-.1-.3,0-.4.2-.6,1.2-1.5,1.8-2.1,1.2s-.6-2,0-3.3c.4-.9,1-1.4,1.5-1.4l-.3.8c-.1.2,0,.4.1.3l1.3-.8a.52.52,0,0,0,.2-.4Z"/><path class="m" d="M125.5,173.9l1.2-2.4a1.1,1.1,0,0,0,0-.8c-.1-.1-.4,0-.5.3l-1.2,2.4-1.2-1.1c-.1-.1-.4,0-.5.3a1.1,1.1,0,0,0,0,.8l1.2,1.1-1.2,2.4a1.1,1.1,0,0,0,0,.8c.1.1.2.1.2,0l.3-.3L125,175l1.2,1.1a.187.187,0,0,0,.3,0c.1-.1.2-.2.2-.3a1.1,1.1,0,0,0,0-.8Z"/><path class="a" d="M95.7,203.3v-4.1a4.559,4.559,0,0,1,2-3.5L279,91c1.1-.6,2-.1,2,1.2v4.1a4.559,4.559,0,0,1-2,3.5L97.7,204.4C96.6,205.1,95.7,204.5,95.7,203.3Z"/><path class="k" d="M276.3,100.1h-.2c-.2-.1-.4-.4-.3-.6l.2-1.6-.8-.6a.764.764,0,0,1-.2-.5.908.908,0,0,1,.3-.7l1.2-.9v-.1l.5-1.7a.9.9,0,0,1,.6-.6.55.55,0,0,1,.5.3l.4.9,1-.4a.661.661,0,0,1,.6.1.6.6,0,0,1,0,.8l-.9,1.6.2,1.5a.908.908,0,0,1-.3.7.764.764,0,0,1-.5.2l-1-.1-1,1.3C276.7,100,276.5,100.1,276.3,100.1Zm-.6-3.4.8.6a.481.481,0,0,1,.2.6l-.1,1,.6-.8a.55.55,0,0,1,.5-.3l1,.1v-.1l-.2-1.5a.749.749,0,0,1,.1-.5l.7-1.3-.7.3a.446.446,0,0,1-.6-.3l-.3-.7-.5,1.5c0,.2-.2.3-.3.4l-1.2,1C275.8,96.6,275.8,96.7,275.7,96.7Z"/><g class="n"><path class="g" d="M283.4,90.5a.6.6,0,0,1-.6-.3.8.8,0,0,1,.2-1h.1l5.7-3.2a.714.714,0,0,1,1,.3.8.8,0,0,1-.2,1h-.1l-5.7,3.3C283.6,90.6,283.5,90.6,283.4,90.5Z"/><path class="g" d="M283.4,93.8a.6.6,0,0,1-.6-.3.8.8,0,0,1,.2-1h.1l5.7-3.3a.659.659,0,0,1,.9.3.651.651,0,0,1-.2.9l-5.7,3.3A.6.6,0,0,1,283.4,93.8Z"/><path class="g" d="M283.4,97.1a.6.6,0,0,1-.6-.3.8.8,0,0,1,.2-1h.1l5.7-3.3a.631.631,0,0,1,.9.2h0a.775.775,0,0,1-.2,1h-.1L283.7,97C283.7,97.1,283.5,97.1,283.4,97.1Z"/></g><path class="k" d="M69.2,209.9v13.2l-3.8-2.2V207.8Z"/><path class="c" d="M292.4,94.2,69.2,223.1v17.4L292.4,111.7Z"/><path class="f" d="M292.4,94.2,69.2,223.1v17.4L292.4,111.7Z"/><path class="f" d="M69.2,223.1l-3.8-2.2v17.5l3.8,2.1Z"/><path class="o" d="M69.2,223.1l-3.8-2.2v17.5l3.8,2.1Z"/><path class="a" d="M173.5,167.2l26-15c2.2-1.3,4-.4,4,2a8.846,8.846,0,0,1-4,6.7l-26,15c-2.2,1.3-4,.4-4-2A8.682,8.682,0,0,1,173.5,167.2Z"/><path class="a" d="M161.9,173.9a8.728,8.728,0,0,0-3.8,6.6c0,2.4,1.7,3.4,3.8,2.2a8.728,8.728,0,0,0,3.8-6.6C165.7,173.7,164,172.7,161.9,173.9Z"/><path class="e" d="M239.6,133a1.268,1.268,0,0,1-.6-.1,1.371,1.371,0,0,1-.6-1.3,3.69,3.69,0,0,1,1.7-2.9h0a1.294,1.294,0,0,1,1.8.3,1.02,1.02,0,0,1,.2.9,3.69,3.69,0,0,1-1.7,2.9A3.091,3.091,0,0,1,239.6,133Zm.8-3.7a2.772,2.772,0,0,0-1.3,2.3.569.569,0,0,0,.4.7.481.481,0,0,0,.6-.2,2.772,2.772,0,0,0,1.3-2.3.569.569,0,0,0-.4-.7C240.8,129,240.6,129.1,240.4,129.3Z"/><path class="e" d="M237,139.4v-1a5.75,5.75,0,0,1,2.7-4.6l.9-.5a2.232,2.232,0,0,1,2.1-.2,1.961,1.961,0,0,1,.9,2v.6Zm4.8-5.8a1.613,1.613,0,0,0-.9.3l-.9.5a5.167,5.167,0,0,0-2.3,3.8l5.1-3V135a1.64,1.64,0,0,0-.6-1.4c-.1,0-.2-.1-.4,0Z"/><path class="e" d="M249.9,130a.367.367,0,0,1-.3-.1,1.012,1.012,0,0,1-.4-.7,2.354,2.354,0,0,1,.2-.8l.1-.1a3.7,3.7,0,0,0,.6-2.1v-.8a4.952,4.952,0,0,1,2.2-4.2,1.71,1.71,0,0,1,1.7-.1,2.248,2.248,0,0,1,.9,2v.9a1.069,1.069,0,0,0,.5,1.1l.1.1a.908.908,0,0,1,.3.7,1.709,1.709,0,0,1-.7,1.3l-4.8,2.8Zm3.4-8.3a1.421,1.421,0,0,0-.6.2,4.643,4.643,0,0,0-1.9,3.6v.8a5.528,5.528,0,0,1-.7,2.5.6.6,0,0,0-.1.4v.1l4.8-2.8a.908.908,0,0,0,.3-.7v-.1a1.614,1.614,0,0,1-.8-1.7v-.9a1.553,1.553,0,0,0-.5-1.4Z"/><path class="e" d="M253.5,128.5a2.576,2.576,0,0,1-1,1.9c-.5.3-1,0-1-.8Z"/><path class="e" d="M263.4,121.5a2.92,2.92,0,0,1-.9-.2,2.031,2.031,0,0,1-1-2,6.4,6.4,0,0,1,2.8-4.9h0a2.19,2.19,0,0,1,2.2-.2,2.221,2.221,0,0,1,1,2,6.128,6.128,0,0,1-2.8,4.9A2.01,2.01,0,0,1,263.4,121.5Zm1.4-6.6a5.571,5.571,0,0,0-2.5,4.3,1.347,1.347,0,0,0,1,1.6,1.314,1.314,0,0,0,1.2-.3,5.571,5.571,0,0,0,2.5-4.3,1.347,1.347,0,0,0-1-1.6,1.247,1.247,0,0,0-1.2.3Z"/><path class="e" d="M269.6,120.9h-.2l-3.1-1.8c-.2-.1-.2-.3-.1-.5.1-.1.3-.2.4-.1l3.1,1.8c.2.1.2.3.1.5A.349.349,0,0,1,269.6,120.9Z"/><path class="e" d="M277.6,116.3l-1.2-.3a3.779,3.779,0,0,1-2.9-3.9,5.307,5.307,0,0,1,2-4.2,1.531,1.531,0,0,1,1.3-.2,1,1,0,0,1,.5.4,4.517,4.517,0,0,1,1.6-2.2,1.583,1.583,0,0,1,1.5-.1,2.278,2.278,0,0,1,.9,2.2c0,2.3-1.5,5-2.7,6.8Zm-1.2-8c-.2,0-.3.1-.5.2a4.6,4.6,0,0,0-1.7,3.6,3.223,3.223,0,0,0,2.4,3.3l.7.2.8-1.1c1.2-1.7,2.6-4.3,2.6-6.4a1.5,1.5,0,0,0-.6-1.5.8.8,0,0,0-.8.1,3.876,3.876,0,0,0-1.5,2.6l-.3,1.4-.4-1.4a1.275,1.275,0,0,0-.5-.7c-.1-.3-.1-.3-.2-.3Z"/><path class="k" d="M114.6,218.7l18.9-10.9v8.7l-18.9,10.9Z"/><path class="k" d="M137.3,205.6l18.9-10.9v8.7l-18.9,10.9Z"/><path class="k" d="M160,192.5l18.9-10.9v8.7L160,201.2Z"/><path class="k" d="M182.7,179.4l18.9-10.9v8.7l-18.9,10.9Z"/><path class="k" d="M205.4,166.3l18.9-10.9v8.7L205.4,175Z"/><path class="k" d="M228.1,153.2,247,142.3V151l-18.9,10.9Z"/><path class="c" d="M91.9,244.9l56.7-32.8v8.8L91.9,253.6Z"/><path class="p" d="M91.9,244.9l56.7-32.8v8.8L91.9,253.6Z"/><path class="c" d="M152.4,210l56.8-32.8v8.7l-56.8,32.8Z"/><path class="q" d="M152.4,210l56.8-32.8v8.7l-56.8,32.8Z"/><path class="c" d="M213,175l56.7-32.7V151L213,183.8Z"/><path class="r" d="M213,175l56.7-32.7V151L213,183.8Z"/><path class="c" d="M91.9,354.1l56.7-32.7v17.4L91.9,371.6Z"/><path class="p" d="M91.9,354.1l56.7-32.7v17.4L91.9,371.6Z"/><path class="c" d="M152.4,319.2l56.8-32.8v17.5l-56.8,32.7Z"/><path class="q" d="M152.4,319.2l56.8-32.8v17.5l-56.8,32.7Z"/><path class="c" d="M213,284.2l56.7-32.7v17.4L213,301.7Z"/><path class="r" d="M213,284.2l56.7-32.7v17.4L213,301.7Z"/><path class="c" d="M93.9,256.9,267.7,156.5c1.1-.6,2-.1,2,1.2v87.1a4.559,4.559,0,0,1-2,3.5L93.9,348.6c-1.1.6-2,.1-2-1.2V260.3A4.224,4.224,0,0,1,93.9,256.9Z"/><path class="s" d="M93.9,256.9,267.7,156.5c1.1-.6,2-.1,2,1.2v87.1a4.559,4.559,0,0,1-2,3.5L93.9,348.6c-1.1.6-2,.1-2-1.2V260.3A4.224,4.224,0,0,1,93.9,256.9Z"/><path class="c" d="M220.5,216.9l-23.9,35.4,16.8,13.3-59-23.9L91.9,325.9v21.6a1.255,1.255,0,0,0,2,1.2L267.7,248.4a4.559,4.559,0,0,0,2-3.5V225.3Z"/><path class="e" d="M260.6,202.1a1.367,1.367,0,0,1-1.4-1.4,1.268,1.268,0,0,1,.1-.6l3.5-7.3-3.2-3a1.421,1.421,0,1,1,1.8-2.2l.2.2,3.9,3.7a1.566,1.566,0,0,1,.3,1.6l-3.9,8.2A1.441,1.441,0,0,1,260.6,202.1Z"/><path class="e" d="M101,295.9a1.284,1.284,0,0,1-1-.4l-3.9-3.7a1.383,1.383,0,0,1-.3-1.6l3.9-8.2a1.432,1.432,0,1,1,2.6,1.2h0l-3.4,7.3,3.2,3a1.335,1.335,0,0,1,0,2h0A2.966,2.966,0,0,1,101,295.9Z"/><g class="d"><path d="M90.3,404.2c-.7-.4-3.3-1.9-3.7-2.1a1.371,1.371,0,0,1-.6-1.3V237.5l3.8,2.2V403A1.147,1.147,0,0,0,90.3,404.2Z"/></g><g class="t"><path d="M312.9,110.8,89.8,239.7,86,237.5,309.1,108.7Z"/></g><g class="u"><path d="M312.9,274.1a4.559,4.559,0,0,1-2,3.5L91.8,404.1c-1.1.6-2,.1-2-1.2V239.7L313,110.8Z"/></g><path class="v" d="M269.1,169.5a1.37,1.37,0,0,0-1.5.1L139.2,243.7a4.559,4.559,0,0,0-2,3.5v87.1a1.612,1.612,0,0,0,.6,1.3l3.8,2.2a1.392,1.392,0,0,0,1.4-.1l128.4-74.1a4.559,4.559,0,0,0,2-3.5v-87a1.371,1.371,0,0,0-.6-1.3A28.457,28.457,0,0,0,269.1,169.5Z"/><path class="w" d="M269.1,169.5c.3.2,3,1.7,3.6,2.1a1.531,1.531,0,0,0-1.3.2L143,245.9a4.009,4.009,0,0,0-1.4,1.5l-3.8-2.2a4.009,4.009,0,0,1,1.4-1.5l128.4-74.1A1.378,1.378,0,0,1,269.1,169.5Z"/><path class="x" d="M141.1,336.5a1.656,1.656,0,0,0,.5,1.3l-3.7-2.1a1.612,1.612,0,0,1-.6-1.3V247.3a3.606,3.606,0,0,1,.6-2l3.8,2.2a3.606,3.606,0,0,0-.6,2Z"/><path class="e" d="M181.4,258.9a3.552,3.552,0,0,1-.9.4,3.091,3.091,0,0,1-.8.2,1.483,1.483,0,0,1-.7-.1,1,1,0,0,1-.5-.4,1.612,1.612,0,0,1-.4-.7,3.749,3.749,0,0,1-.1-1.1v-.9c0-.3.1-.6.1-.9a4.4,4.4,0,0,1,.2-1c.1-.3.2-.7.3-1.1l1.4-.1-.3.9c-.1.3-.1.6-.2.9,0,.3-.1.5-.1.8v.6a.749.749,0,0,0,.1.5c.1.1.1.2.2.3s.2.1.4.1a.6.6,0,0,0,.4-.1c.2,0,.3-.1.5-.2s.3-.1.4-.2c.1,0,.2-.1.3-.2s.3-.2.4-.3a1.756,1.756,0,0,0,.5-.4c.2-.1.3-.3.5-.4l.4-.4c.1-.1.2-.2.2-.3a3.444,3.444,0,0,0-.9.1,9.289,9.289,0,0,0-1.3.4l.2-2,3.6-2v2l-.5.3c0,.1.1.1.1.2v.3a3.553,3.553,0,0,1-.2,1c-.1.3-.3.6-.4.9a4.7,4.7,0,0,1-.6.9c-.2.3-.5.5-.7.8s-.5.4-.7.6C181.9,258.6,181.6,258.7,181.4,258.9Z"/><path class="e" d="M185.1,251.5c.1-.1.2-.1.3-.2l.2-.2c.1-.1.1-.1.1-.2s.1-.1.1-.2.1-.2.1-.3.1-.2.1-.4.1-.4.1-.6a5.756,5.756,0,0,1,.2-1l1.3-.2a.367.367,0,0,1-.1.3.756.756,0,0,1-.1.4v.7a3.552,3.552,0,0,1,.4-.9,4.053,4.053,0,0,1,.5-.9c.2-.3.3-.6.5-.9a5.546,5.546,0,0,1,.6-.8,2.336,2.336,0,0,1,.7-.7,3.039,3.039,0,0,1,.7-.5,2.236,2.236,0,0,1,1-.3.844.844,0,0,1,.7.2,1.275,1.275,0,0,1,.4.6,2.219,2.219,0,0,1,.1.9,5.02,5.02,0,0,1-.2,1.2,3.128,3.128,0,0,1-.5,1,5.5,5.5,0,0,1-.7.9,6.034,6.034,0,0,1-.8.8c-.3.2-.6.5-.9.7a9.224,9.224,0,0,1-.8.5l-.6.3a1.421,1.421,0,0,1-.6.2,1.268,1.268,0,0,1-.6.1.749.749,0,0,1-.5-.1,3.512,3.512,0,0,1-1.7,1.7l-.1.1.1-2.2Zm6.8-4.7a.749.749,0,0,0-.5-.1.864.864,0,0,0-.6.3,2.652,2.652,0,0,0-.6.5,4.35,4.35,0,0,0-.6.7,3.039,3.039,0,0,0-.5.7,5.736,5.736,0,0,0-.4.7,1.332,1.332,0,0,0,.5-.3,2.092,2.092,0,0,0,.6-.4,2.652,2.652,0,0,0,.6-.5c.2-.2.4-.3.6-.5s.3-.4.5-.6A1,1,0,0,0,191.9,246.8Z"/><path class="e" d="M195.8,247.6a2.236,2.236,0,0,1-1,.3c-.3,0-.5,0-.6-.2a.918.918,0,0,1-.4-.6,2.768,2.768,0,0,1-.1-.9V242c0-.5-.1-.9-.1-1.4l1.6-1.4c.1.4.1.8.2,1.3v4.9a.1.1,0,0,0,.1.1.367.367,0,0,0,.3-.1l.1-.1v2Z"/><path class="e" d="M195.8,245.5c.1-.1.2-.1.3-.2l.2-.2c.1-.1.1-.1.1-.2a.1.1,0,0,1,.1-.1c0-.1.1-.2.1-.3s.1-.2.1-.4.1-.4.1-.6a5.756,5.756,0,0,1,.2-1l1.3-.2a.367.367,0,0,1-.1.3.756.756,0,0,1-.1.4v.7a3.552,3.552,0,0,1,.4-.9,4.053,4.053,0,0,1,.5-.9c.2-.3.3-.6.5-.9a5.545,5.545,0,0,1,.6-.8,2.336,2.336,0,0,1,.7-.7,3.039,3.039,0,0,1,.7-.5,2.236,2.236,0,0,1,1-.3.844.844,0,0,1,.7.2.918.918,0,0,1,.4.6,2.219,2.219,0,0,1,.1.9.9.9,0,0,1-.1.5c0,.2-.1.3-.1.5l.4-.2v2l-1.4.8c-.1.1-.2.1-.3.2-.1,0-.2.1-.3.1s-.2.1-.3.1-.2.1-.3.1c-.3.2-.6.5-.8.6a9.226,9.226,0,0,1-.8.5l-.6.3a1.421,1.421,0,0,1-.6.2,1.268,1.268,0,0,1-.6.1.749.749,0,0,1-.5-.1,3.512,3.512,0,0,1-1.7,1.7l-.1.1.2-2.4Zm6.7-4.7a.749.749,0,0,0-.5-.1.864.864,0,0,0-.6.3,2.652,2.652,0,0,0-.6.5,4.35,4.35,0,0,0-.6.7,3.039,3.039,0,0,0-.5.7,5.736,5.736,0,0,0-.4.7,1.332,1.332,0,0,0,.5-.3,2.092,2.092,0,0,0,.6-.4,2.652,2.652,0,0,0,.6-.5c.2-.2.4-.3.6-.5s.3-.4.5-.6C202.4,241.3,202.5,241.1,202.5,240.8Z"/><path class="e" d="M207.6,239v2l-.1.1c-.1.1-.3.1-.4.2a.6.6,0,0,1-.4.1h-.3a.349.349,0,0,1-.2-.1,1.38,1.38,0,0,1-.3.4l-.4.4c-.2.1-.3.3-.5.4l-.6.3-.5.3v-2l.5-.3c.2-.1.3-.2.5-.3l.3-.3c.1-.1.2-.2.2-.3s.1-.2.1-.4V239c0-.2-.1-.4-.1-.7l1.5-1.3a.6.6,0,0,0,.1.4.9.9,0,0,0,.1.5v1a.1.1,0,0,0,.1.1h.2c.1,0,.1,0,.2-.1-.2.2-.2.2,0,.1Zm-1.8-3.2-.8,1.4-.8-.5.8-1.4.8.5.8-1.4.8.5-.8,1.4Z"/><path class="e" d="M207.4,239.1l.9-.5a4.129,4.129,0,0,0,1.1-.7,8.745,8.745,0,0,0,1-.8,6.47,6.47,0,0,1,.9-.8l.8-.8a1.087,1.087,0,0,0-.5.1.749.749,0,0,0-.5.1,4.331,4.331,0,0,0-.5.1c-.2.1-.4.1-.5.2l-.3.3c-.1.1-.2.3-.3.4s-.2.3-.3.4a.367.367,0,0,0-.1.3l-1.2-.3c.1-.3.3-.7.4-1,.2-.3.3-.6.5-.9a4.348,4.348,0,0,1,.6-.7,3.039,3.039,0,0,1,.7-.5,4.875,4.875,0,0,1,.7-.3,1.483,1.483,0,0,1,.7-.1h1.4a1.268,1.268,0,0,0,.6-.1,1.422,1.422,0,0,0,.6-.2l-.1,2c-.4.5-.8.9-1.1,1.3a10.95,10.95,0,0,1-1,1.1,7.637,7.637,0,0,1-.9.9,6.47,6.47,0,0,1-.9.8c-.3.2-.6.5-.9.7l-.9.6-.9.5Zm2.7-5.4-.9-.6.9-1.6.9.6Z"/><path class="e" d="M214.6,237v-4.6c0-.5-.1-1-.1-1.4s-.1-.7-.1-1-.1-.5-.1-.7l1.6-1.5c.1.5.1.9.2,1.4a6.152,6.152,0,0,1,.1,1.3v5.3Z"/><path class="e" d="M221.3,231.5c-.1.2-.1.3-.2.5,0,.2-.1.3-.1.5s-.1.3-.1.5v.5a4.331,4.331,0,0,0,.1.5l.3.3a.6.6,0,0,0,.4.1c.2,0,.3-.1.5-.2.1-.1.2-.1.4-.2.1-.1.3-.2.4-.4l.4-.4c.1-.2.2-.3.3-.5a1.421,1.421,0,0,0,.2-.6,1.268,1.268,0,0,0,.1-.6v-.9a4.868,4.868,0,0,0-.1-1.2c0-.4-.1-.9-.1-1.4s-.1-1-.1-1.5v-2.4l1.7-1.4v1.1h0v4.8c0,.1,0,.2.1.2s.1.1.1.2a.1.1,0,0,0,.1.1h.3v2h-.1c-.1,0-.1.1-.2.1s-.2,0-.2.1a4.3,4.3,0,0,1-.2,1.2,3.583,3.583,0,0,1-.4,1.1,5.3,5.3,0,0,1-.6,1,2.7,2.7,0,0,1-.7.8c-.2.2-.5.4-.7.6s-.5.3-.7.5l-.6.3a1.85,1.85,0,0,1-1.2,0,1,1,0,0,1-.5-.4,1.493,1.493,0,0,1-.3-.7,3.083,3.083,0,0,1-.1-1,4.868,4.868,0,0,1,.1-1.2c.1-.3.1-.6.2-.9,0-.1.1-.3.1-.4s.1-.3.1-.4Z"/><path class="e" d="M229.6,226.8v2l-.1.1c-.1.1-.3.1-.4.2a.6.6,0,0,1-.4.1h-.3a.349.349,0,0,1-.2-.1,1.38,1.38,0,0,1-.3.4l-.4.4c-.2.1-.3.3-.5.4l-.6.3-.5.3v-2l.5-.3c.2-.1.3-.2.5-.3l.3-.3c.1-.1.2-.2.2-.3s.1-.2.1-.4v-.5c0-.2-.1-.4-.1-.7l1.5-1.3a.6.6,0,0,0,.1.4c.1.1,0,.3.1.5s0,.4,0,.5v.5a.1.1,0,0,0,.1.1h.2c.1,0,.1,0,.2-.1-.2.2-.1.2,0,.1Zm-2.1,4.5-.8,1.4-.8-.5.8-1.4.8.5.8-1.4.8.5-.8,1.4Z"/><path class="e" d="M233.1,226.9a.764.764,0,0,1-.5.2,1.268,1.268,0,0,1-.6.1,1.268,1.268,0,0,0-.6.1h-.5a8.793,8.793,0,0,1-.6,1,2.7,2.7,0,0,1-.8.7h-.1v-2h.1l.3-.3c.1-.1.2-.3.3-.4s.1-.3.2-.5.1-.3.2-.5l.3-.9c.1-.3.3-.6.4-.9a5.582,5.582,0,0,1,.5-.8l.6-.6a2.544,2.544,0,0,1,.7-.2.764.764,0,0,1,.5.2,2.181,2.181,0,0,1,.4.5,1.884,1.884,0,0,1,.2.8,4.331,4.331,0,0,0,.1.5v.2l.3-.2v2l-.2.1a.349.349,0,0,0-.2.1h-.2c-.1,0-.1,0-.2-.1a.1.1,0,0,1-.1-.1,561978920434.712,561978920434.712,0,0,0-.2.4c0,.1-.1.1-.1.2-.1.3-.1.3-.2.4Zm-.7-2.9c-.1,0-.1.1-.2.2s-.1.2-.2.3-.1.2-.1.4c0,.1-.1.2-.1.4h.6a.756.756,0,0,0,.4-.1c.1,0,.2-.1.3-.1,0-.2-.1-.3-.1-.4a.758.758,0,0,0-.2-.4c-.1-.1-.1-.2-.2-.2A.31.31,0,0,0,232.4,224Z"/><path class="e" d="M234.4,224.2l.8-.5c.1,0,.1-.1.2-.1.1-.1.2-.1.3-.2s.2-.1.3-.2.2-.1.2-.2l.2-.2c0-.1.1-.1.1-.2a.367.367,0,0,0-.1-.3.758.758,0,0,0-.2-.4.764.764,0,0,1-.2-.5c-.1-.2-.2-.3-.3-.5l1.5-1.7a1.421,1.421,0,0,1,.2.6c.1.2.1.4.2.6a1.483,1.483,0,0,1,.1.7c0,.2.1.4.1.7a5.853,5.853,0,0,1-.2,1.3,3.7,3.7,0,0,1-.5,1.1,6.469,6.469,0,0,1-.8.9,3.592,3.592,0,0,1-1,.7l-.9.5Zm1.7,2.3-.8,1.4-.8-.5.8-1.4.8.5.8-1.4.8.5-.8,1.4Z"/><path class="e" d="M238.4,223.8v-4.6c0-.5-.1-1-.1-1.4s-.1-.7-.1-1-.1-.5-.1-.7l1.6-1.5c.1.5.1.9.2,1.4,0,.5.1.9.1,1.3v5.3Z"/><path class="e" d="M157.3,284.9l.5-3.9,1.5-.8-1.2,6.8-1.3.7-.8-3.2-.8,4.1-1.3.7-1.2-5.5,1.5-.8.5,3.4.8-4.2,1.1-.6Z"/><path class="e" d="M164.2,281l.5-3.9,1.5-.8-1.2,6.8-1.3.7-.8-3.2-.8,4.1-1.3.7-1.2-5.5,1.5-.8.5,3.4.8-4.2,1.1-.6Z"/><path class="e" d="M171.2,277.2l.5-3.9,1.5-.8-1.2,6.8-1.3.7-.8-3.2-.8,4.1-1.3.7-1.2-5.5,1.5-.8.5,3.4.8-4.2,1.1-.6Z"/><path class="e" d="M174.7,275.8c.3-.1.5-.2.6-.1.2.1.2.3.2.6a1.884,1.884,0,0,1-.2.8,1.7,1.7,0,0,1-.6.6c-.3.1-.5.2-.6.1-.2-.1-.2-.3-.2-.6a1.884,1.884,0,0,1,.2-.8A1.7,1.7,0,0,1,174.7,275.8Z"/><path class="e" d="M178.7,272.9l.8-3.9,1.7-.9-2.1,8.3-.1.3a3.445,3.445,0,0,1-1.6,2.1,1.421,1.421,0,0,1-.6.2v-1.4l.2-.1a2.182,2.182,0,0,0,.5-.4,1.628,1.628,0,0,0,.3-.6l.1-.5-1.8-5.2,1.7-.9Z"/><path class="e" d="M181.4,270.9a5.662,5.662,0,0,1,.3-1.8,7.973,7.973,0,0,1,.8-1.6,4.488,4.488,0,0,1,1.3-1.1c.8-.4,1.4-.5,1.8-.1a2.494,2.494,0,0,1,.7,2v.1a5.189,5.189,0,0,1-.7,2.7,3.924,3.924,0,0,1-1.8,1.8c-.7.4-1.3.5-1.7.2a2.168,2.168,0,0,1-.7-1.8Zm1.6-.8a2.332,2.332,0,0,0,.2,1.1c.1.2.4.2.7,0,.6-.3.8-1,.9-2.1v-.2q0-1.65-.9-1.2a2.3,2.3,0,0,0-.9,1.9Z"/><path class="e" d="M190,268.6a2.94,2.94,0,0,1-1.4,1.5c-.6.3-1,.3-1.3.1s-.4-.7-.4-1.5v-4l1.6-.9v4c0,.5.2.7.6.4a1.765,1.765,0,0,0,.8-.9V263l1.6-.9v6.2l-1.5.8Z"/><path class="e" d="M195.4,261.8l-.5.2a2.132,2.132,0,0,0-1,1.1V267l-1.6.9v-6.2l1.5-.8.1.8c.3-.8.6-1.3,1.1-1.5.2-.1.3-.2.4-.2Z"/><path class="e" d="M201.6,261.1c0-.2-.1-.3-.2-.3a3.217,3.217,0,0,0-.8.1,1.8,1.8,0,0,1-1,.1.6.6,0,0,1-.6-.3,1.445,1.445,0,0,1-.2-.7,2.934,2.934,0,0,1,.6-1.7,5.017,5.017,0,0,1,1.5-1.4c.7-.4,1.2-.5,1.6-.3.4.1.6.5.6,1.1l-1.6.9c0-.5-.2-.6-.6-.4a.781.781,0,0,0-.4.4c-.1.2-.2.3-.2.5s.1.3.2.3a2.252,2.252,0,0,0,.7-.1,3.091,3.091,0,0,1,.8-.2c.8-.1,1.1.3,1.1,1.1a2.934,2.934,0,0,1-.6,1.7,4.389,4.389,0,0,1-1.6,1.4,2.842,2.842,0,0,1-1.2.4,1.136,1.136,0,0,1-.8-.3,1.222,1.222,0,0,1-.3-.9l1.5-.8c0,.3.1.5.2.5a1.759,1.759,0,0,0,.6-.1,2.182,2.182,0,0,0,.5-.4A1.422,1.422,0,0,0,201.6,261.1Z"/><path class="e" d="M203.8,253.9a2.354,2.354,0,0,1,.2-.8,1.7,1.7,0,0,1,.6-.6c.2-.1.5-.2.6-.1.2.1.2.3.2.5a2.354,2.354,0,0,1-.2.8,1.7,1.7,0,0,1-.6.6c-.2.1-.5.2-.6.1A.764.764,0,0,1,203.8,253.9Zm1.7,6.8-1.6.9v-6.2l1.6-.9Z"/><path class="e" d="M208.3,251.4v1.5l.8-.5v1.3l-.8.5V257c0,.2,0,.4.1.4.1.1.2,0,.4-.1a1.381,1.381,0,0,0,.4-.3v1.4a5.5,5.5,0,0,1-.9.7c-.5.3-.9.4-1.2.2s-.4-.6-.4-1.2V255l-.6.4v-1.3l.6-.4v-1.5Z"/><path class="e" d="M212.2,257.1a1.921,1.921,0,0,1-1.9.2c-.5-.3-.7-.9-.7-1.8v-.2a5.663,5.663,0,0,1,.3-1.8,7.972,7.972,0,0,1,.8-1.6,4.487,4.487,0,0,1,1.3-1.1,1.52,1.52,0,0,1,1.7-.1c.4.3.6.9.6,1.9v.7l-3.1,1.7a.918.918,0,0,0,.4.6.631.631,0,0,0,.7-.1,3.039,3.039,0,0,0,1.2-1.3l.7.6a9.129,9.129,0,0,1-.8,1.3A3.543,3.543,0,0,1,212.2,257.1Zm-.2-4.8a1.923,1.923,0,0,0-.8,1.6l1.6-.9v-.2a.845.845,0,0,0-.2-.6C212.4,252.1,212.3,252.1,212,252.3Z"/><path class="e" d="M219.3,246.9l.1.7a2.809,2.809,0,0,1,1.4-1.6,1.075,1.075,0,0,1,1.2-.1c.3.2.4.7.4,1.5v4l-1.6.9v-3.9a.845.845,0,0,0-.2-.6c-.1-.1-.3-.1-.6.1a1.852,1.852,0,0,0-.7.8v4.4l-1.6.9v-6.2Z"/><path class="e" d="M226.1,249.3c-.1-.1-.1-.2-.2-.5a3.039,3.039,0,0,1-1.2,1.3,1.075,1.075,0,0,1-1.2.1,1.171,1.171,0,0,1-.5-1.1,2.792,2.792,0,0,1,.6-1.8,4.529,4.529,0,0,1,1.8-1.5l.5-.3v-.3c0-.6-.2-.7-.6-.5a1,1,0,0,0-.6,1l-1.6.9a3.226,3.226,0,0,1,.6-1.8,3.638,3.638,0,0,1,1.6-1.4,1.828,1.828,0,0,1,1.5-.3c.4.2.6.6.6,1.3v2.7a2.872,2.872,0,0,0,.2,1.2v.1Zm-1-.7a1,1,0,0,0,.5-.4c.1-.2.2-.3.3-.5v-1l-.5.3a1.6,1.6,0,0,0-.8,1.4c0,.2,0,.3.1.3S225,248.6,225.1,248.6Z"/><path class="e" d="M229.8,241l.1.7a3.208,3.208,0,0,1,1.4-1.6c.6-.4,1.1-.3,1.3.2a3.353,3.353,0,0,1,1.5-1.8c1-.6,1.6-.1,1.6,1.4v4l-1.6.9v-3.9c0-.3,0-.5-.1-.6s-.2-.1-.5,0a2.178,2.178,0,0,0-.7.9v4.3l-1.6.9v-3.9c0-.3,0-.5-.1-.6s-.2-.1-.5,0a2.178,2.178,0,0,0-.7.9v4.3l-1.6.9v-6.2Z"/><path class="e" d="M239,242.2a1.921,1.921,0,0,1-1.9.2c-.5-.3-.7-.9-.7-1.8v-.2a5.663,5.663,0,0,1,.3-1.8,7.972,7.972,0,0,1,.8-1.6,4.487,4.487,0,0,1,1.3-1.1,1.52,1.52,0,0,1,1.7-.1c.4.3.6.9.6,1.9v.7l-3.1,1.7a.918.918,0,0,0,.4.6.631.631,0,0,0,.7-.1,3.039,3.039,0,0,0,1.2-1.3l.7.6a9.13,9.13,0,0,1-.8,1.3A3.543,3.543,0,0,1,239,242.2Zm-.2-4.8a1.923,1.923,0,0,0-.8,1.6l1.6-.9v-.2a.845.845,0,0,0-.2-.6C239.3,237.2,239.1,237.3,238.8,237.4Z"/><path class="e" d="M245.7,236.5c.3-.1.5-.2.6-.1.2.1.2.3.2.6a1.884,1.884,0,0,1-.2.8,1.7,1.7,0,0,1-.6.6c-.3.1-.5.2-.6.1a.845.845,0,0,1-.2-.6,1.884,1.884,0,0,1,.2-.8A1.167,1.167,0,0,1,245.7,236.5Z"/><path class="e" d="M249.7,234.8a1.205,1.205,0,0,0,.5-.5,1.445,1.445,0,0,0,.2-.7l1.5-.8a3.859,3.859,0,0,1-.6,2,3.607,3.607,0,0,1-1.5,1.5,1.52,1.52,0,0,1-1.7.1,2.507,2.507,0,0,1-.6-2v-.1a5.663,5.663,0,0,1,.3-1.8,7.972,7.972,0,0,1,.8-1.6,4.487,4.487,0,0,1,1.3-1.1,1.617,1.617,0,0,1,1.6-.2q.6.3.6,1.5l-1.5.8a.845.845,0,0,0-.2-.6.446.446,0,0,0-.5,0c-.4.2-.6.7-.7,1.4v.9a2.872,2.872,0,0,0,.2,1.2C249.3,234.9,249.5,235,249.7,234.8Z"/><path class="e" d="M252.4,231.6a5.663,5.663,0,0,1,.3-1.8,7.972,7.972,0,0,1,.8-1.6,4.487,4.487,0,0,1,1.3-1.1c.8-.4,1.4-.5,1.8-.1a2.494,2.494,0,0,1,.7,2v.1a5.189,5.189,0,0,1-.7,2.7,3.924,3.924,0,0,1-1.8,1.8c-.7.4-1.3.5-1.7.2a2.087,2.087,0,0,1-.7-1.7Zm1.5-.8a2.332,2.332,0,0,0,.2,1.1c.1.2.4.2.7,0,.6-.3.8-1,.9-2.1v-.2q0-1.65-.9-1.2a2.3,2.3,0,0,0-.9,1.9Z"/><path class="e" d="M259.4,224.6v.7a3.208,3.208,0,0,1,1.4-1.6c.6-.4,1.1-.3,1.3.2a3.353,3.353,0,0,1,1.5-1.8c1-.6,1.6-.1,1.6,1.4v4l-1.6.9v-3.9c0-.3,0-.5-.1-.6s-.2-.1-.5,0a2.178,2.178,0,0,0-.7.9v4.3l-1.6.9v-3.9c0-.3,0-.5-.1-.6s-.2-.1-.5,0a2.178,2.178,0,0,0-.7.9v4.3l-1.6.9v-6.2Z"/><path class="e" d="M153.5,300.8a2.354,2.354,0,0,1,.2-.8,1.7,1.7,0,0,1,.6-.6c.2-.1.5-.2.6-.1.2.1.2.3.2.5a2.354,2.354,0,0,1-.2.8,1.7,1.7,0,0,1-.6.6c-.2.1-.5.2-.6.1A.764.764,0,0,1,153.5,300.8Zm1.7,6.8-1.6.9v-6.2l1.6-.9Z"/><path class="e" d="M157.6,300.1l.1.7a2.809,2.809,0,0,1,1.4-1.6,1.075,1.075,0,0,1,1.2-.1c.3.2.4.7.4,1.5v4l-1.6.9v-3.9a.845.845,0,0,0-.2-.6c-.1-.1-.3-.1-.6.1a1.853,1.853,0,0,0-.7.8v4.4l-1.6.9V301Z"/><path class="e" d="M161.9,303.9v-4.8l-.7.4v-1.3l.7-.4v-.5a4.136,4.136,0,0,1,.5-1.9,3.76,3.76,0,0,1,1.4-1.4c.2-.1.5-.2.7-.3v1.4c-.1,0-.2.1-.4.2a1.213,1.213,0,0,0-.7,1.2v.5l1-.5v1.3l-1,.5v4.8Z"/><path class="e" d="M164.8,299.1a5.662,5.662,0,0,1,.3-1.8,7.973,7.973,0,0,1,.8-1.6,4.488,4.488,0,0,1,1.3-1.1c.8-.4,1.4-.5,1.8-.1a2.651,2.651,0,0,1,.7,2v.1a5.189,5.189,0,0,1-.7,2.7,3.924,3.924,0,0,1-1.8,1.8c-.7.4-1.3.5-1.7.2a2.087,2.087,0,0,1-.7-1.7Zm1.6-.8a2.332,2.332,0,0,0,.2,1.1c.1.2.4.2.7,0,.6-.3.8-1,.9-2.1v-.2q0-1.65-.9-1.2a2.3,2.3,0,0,0-.9,1.9Z"/><path class="e" d="M178.2,291.7a5.954,5.954,0,0,1-.6,2.7,3.632,3.632,0,0,1-1.5,1.7,2.544,2.544,0,0,1-.7.2c-.2,0-.3-.1-.5-.3a2.814,2.814,0,0,1-1.2,1.4.8.8,0,0,1-.8.1,1.024,1.024,0,0,1-.5-.6,4.887,4.887,0,0,1-.1-1.3,6.083,6.083,0,0,1,.8-2.7,3.632,3.632,0,0,1,1.5-1.7,2.1,2.1,0,0,1,1.2-.3l.3.1-.2,3.5c-.1.6.1.7.5.5.3-.1.5-.5.7-1a4.671,4.671,0,0,0,.3-1.7,3.018,3.018,0,0,0-.7-2.6,1.805,1.805,0,0,0-2.1.1,5.211,5.211,0,0,0-1.6,1.4,7.56,7.56,0,0,0-1.1,2.2,10.891,10.891,0,0,0-.5,2.6c0,1.4.2,2.3.7,2.7s1.2.4,2.2-.2a2.1,2.1,0,0,0,.8-.6,4.62,4.62,0,0,0,.7-.7l.2.9a3.017,3.017,0,0,1-.8.8,3.592,3.592,0,0,1-1,.7,3.49,3.49,0,0,1-2.2.6,1.655,1.655,0,0,1-1.3-1,6.163,6.163,0,0,1-.4-2.6,9.058,9.058,0,0,1,.6-3.2,11.74,11.74,0,0,1,1.5-2.7,7.561,7.561,0,0,1,2.1-1.9,3.439,3.439,0,0,1,2-.5,1.655,1.655,0,0,1,1.3,1A5.463,5.463,0,0,1,178.2,291.7Zm-4.7,3.2a3.11,3.11,0,0,0,.1,1.1c.1.2.3.2.5.1a1.082,1.082,0,0,0,.4-.5,4.649,4.649,0,0,0,.3-.9l.2-2.7c-.1,0-.2.1-.3.1a2.361,2.361,0,0,0-.8.9A5.848,5.848,0,0,0,173.5,294.9Z"/><path class="e" d="M181,290.6l.8-3.9,1.7-.9-2.1,8.3-.1.3a3.445,3.445,0,0,1-1.6,2.1,1.421,1.421,0,0,1-.6.2v-1.4l.2-.1a2.182,2.182,0,0,0,.5-.4,1.628,1.628,0,0,0,.3-.6l.1-.5-1.8-5.2,1.7-.9Z"/><path class="e" d="M183.7,288.6a5.662,5.662,0,0,1,.3-1.8,7.973,7.973,0,0,1,.8-1.6,4.488,4.488,0,0,1,1.3-1.1c.8-.4,1.4-.5,1.8-.1a2.494,2.494,0,0,1,.7,2v.1a5.189,5.189,0,0,1-.7,2.7,3.924,3.924,0,0,1-1.8,1.8c-.7.4-1.3.5-1.7.2a2.087,2.087,0,0,1-.7-1.7Zm1.6-.7a2.332,2.332,0,0,0,.2,1.1c.1.2.4.2.7,0,.6-.3.8-1,.9-2.1v-.2q0-1.65-.9-1.2a2.3,2.3,0,0,0-.9,1.9Z"/><path class="e" d="M192.3,286.3a2.94,2.94,0,0,1-1.4,1.5c-.6.3-1,.3-1.3.1s-.4-.7-.4-1.5v-4l1.6-.9v4c0,.5.2.7.6.4a1.765,1.765,0,0,0,.8-.9v-4.3l1.6-.9V286l-1.5.8Z"/><path class="e" d="M197.8,279.5l-.5.2a2.132,2.132,0,0,0-1,1.1v3.9l-1.6.9v-6.2l1.5-.8.1.8c.3-.8.6-1.3,1.1-1.5.2-.1.3-.2.4-.2Z"/><path class="e" d="M203.9,278.9c0-.2-.1-.3-.2-.3a3.217,3.217,0,0,0-.8.1,1.8,1.8,0,0,1-1,.1.6.6,0,0,1-.6-.3,1.445,1.445,0,0,1-.2-.7,2.934,2.934,0,0,1,.6-1.7,5.017,5.017,0,0,1,1.5-1.4c.7-.4,1.2-.5,1.6-.3.4.1.6.5.6,1.1l-1.6.9c0-.5-.2-.6-.6-.4a.781.781,0,0,0-.4.4c-.1.2-.2.3-.2.5s.1.3.2.3a2.252,2.252,0,0,0,.7-.1,3.091,3.091,0,0,1,.8-.2c.8-.1,1.1.3,1.1,1.1a2.934,2.934,0,0,1-.6,1.7,4.389,4.389,0,0,1-1.6,1.4,2.842,2.842,0,0,1-1.2.4,1.136,1.136,0,0,1-.8-.3,1.222,1.222,0,0,1-.3-.9l1.5-.8c0,.3.1.5.2.5a1.759,1.759,0,0,0,.6-.1,2.182,2.182,0,0,0,.5-.4A3.932,3.932,0,0,0,203.9,278.9Z"/><path class="e" d="M206.1,271.6a2.354,2.354,0,0,1,.2-.8,1.7,1.7,0,0,1,.6-.6c.3-.1.5-.2.6-.1.2.1.2.3.2.5a2.354,2.354,0,0,1-.2.8,1.7,1.7,0,0,1-.6.6c-.3.1-.5.2-.6.1A.588.588,0,0,1,206.1,271.6Zm1.7,6.8-1.6.9v-6.2l1.6-.9Z"/><path class="e" d="M210.6,269.2v1.5l.8-.5v1.3l-.8.5v2.8c0,.2,0,.4.1.4.1.1.2,0,.4-.1a1.381,1.381,0,0,0,.4-.3v1.4a5.5,5.5,0,0,1-.9.7c-.5.3-.9.4-1.2.2s-.4-.6-.4-1.2v-3.1l-.6.4v-1.3l.6-.4V270Z"/><path class="e" d="M214.5,274.8a1.921,1.921,0,0,1-1.9.2c-.5-.3-.7-.9-.7-1.8V273a5.662,5.662,0,0,1,.3-1.8,7.972,7.972,0,0,1,.8-1.6,4.488,4.488,0,0,1,1.3-1.1,1.52,1.52,0,0,1,1.7-.1c.4.3.6.9.6,1.9v.7l-3.1,1.7a.918.918,0,0,0,.4.6.631.631,0,0,0,.7-.1,3.039,3.039,0,0,0,1.2-1.3l.7.6a9.129,9.129,0,0,1-.8,1.3A3.543,3.543,0,0,1,214.5,274.8Zm-.2-4.8a1.923,1.923,0,0,0-.8,1.6l1.6-.9v-.2a.845.845,0,0,0-.2-.6C214.8,269.8,214.6,269.9,214.3,270Z"/><path class="e" d="M221.6,264.6l.1.7a2.809,2.809,0,0,1,1.4-1.6,1.075,1.075,0,0,1,1.2-.1c.3.2.4.7.4,1.5v4l-1.6.9v-3.9a.845.845,0,0,0-.2-.6c-.1-.1-.3-.1-.6.1a1.853,1.853,0,0,0-.7.8v4.4l-1.6.9v-6.2Z"/><path class="e" d="M228.4,267c-.1-.1-.1-.2-.2-.5a3.039,3.039,0,0,1-1.2,1.3,1.075,1.075,0,0,1-1.2.1,1.171,1.171,0,0,1-.5-1.1,2.792,2.792,0,0,1,.6-1.8,4.529,4.529,0,0,1,1.8-1.5l.5-.3V263c0-.6-.2-.7-.6-.5a1,1,0,0,0-.6,1l-1.6.9a3.226,3.226,0,0,1,.6-1.8,3.638,3.638,0,0,1,1.6-1.4,1.828,1.828,0,0,1,1.5-.3c.4.2.6.6.6,1.3v2.7a2.872,2.872,0,0,0,.2,1.2v.1Zm-1-.7a1,1,0,0,0,.5-.4c.1-.2.2-.3.3-.5v-1l-.5.3a1.6,1.6,0,0,0-.8,1.4c0,.2,0,.3.1.3C227.2,266.4,227.3,266.4,227.4,266.3Z"/><path class="e" d="M232.1,258.8l.1.7a3.208,3.208,0,0,1,1.4-1.6c.6-.4,1.1-.3,1.3.2a3.353,3.353,0,0,1,1.5-1.8c1-.6,1.6-.1,1.6,1.4v4l-1.6.9v-3.9c0-.3,0-.5-.1-.6s-.2-.1-.5,0a2.178,2.178,0,0,0-.7.9v4.3l-1.6.9v-3.9c0-.3,0-.5-.1-.6s-.2-.1-.5,0a2.178,2.178,0,0,0-.7.9v4.3l-1.6.9v-6.2Z"/><path class="e" d="M241.3,259.9a1.921,1.921,0,0,1-1.9.2c-.5-.3-.7-.9-.7-1.8v-.2a5.662,5.662,0,0,1,.3-1.8,7.972,7.972,0,0,1,.8-1.6,4.487,4.487,0,0,1,1.3-1.1,1.52,1.52,0,0,1,1.7-.1c.4.3.6.9.6,1.9v.7l-3.1,1.7a.918.918,0,0,0,.4.6.631.631,0,0,0,.7-.1,3.039,3.039,0,0,0,1.2-1.3l.7.6a9.129,9.129,0,0,1-.8,1.3A2.94,2.94,0,0,1,241.3,259.9Zm-.1-4.8a1.923,1.923,0,0,0-.8,1.6l1.6-.9v-.2a.845.845,0,0,0-.2-.6A1.268,1.268,0,0,0,241.2,255.1Z"/><path class="e" d="M245.1,255.8c.3-.1.5-.2.6-.1.2.1.2.3.2.6a1.884,1.884,0,0,1-.2.8,1.7,1.7,0,0,1-.6.6c-.3.1-.5.2-.6.1-.2-.1-.2-.3-.2-.6a1.884,1.884,0,0,1,.2-.8A1.7,1.7,0,0,1,245.1,255.8Z"/><path class="e" d="M249.1,254.1a1.205,1.205,0,0,0,.5-.5,1.445,1.445,0,0,0,.2-.7l1.5-.8a3.859,3.859,0,0,1-.6,2,3.607,3.607,0,0,1-1.5,1.5,1.52,1.52,0,0,1-1.7.1,2.507,2.507,0,0,1-.6-2v-.1a5.663,5.663,0,0,1,.3-1.8,7.972,7.972,0,0,1,.8-1.6,4.487,4.487,0,0,1,1.3-1.1,1.617,1.617,0,0,1,1.6-.2q.6.3.6,1.5l-1.5.8a.845.845,0,0,0-.2-.6.446.446,0,0,0-.5,0c-.4.2-.6.7-.7,1.4v.9a2.872,2.872,0,0,0,.2,1.2C248.7,254.3,248.9,254.3,249.1,254.1Z"/><path class="e" d="M251.8,250.9a5.663,5.663,0,0,1,.3-1.8,7.972,7.972,0,0,1,.8-1.6,4.487,4.487,0,0,1,1.3-1.1c.8-.4,1.4-.5,1.8-.1a2.494,2.494,0,0,1,.7,2v.1a5.189,5.189,0,0,1-.7,2.7,3.924,3.924,0,0,1-1.8,1.8c-.7.4-1.3.5-1.7.2a2.087,2.087,0,0,1-.7-1.7Zm1.6-.7a2.332,2.332,0,0,0,.2,1.1c.1.2.4.2.7,0,.6-.3.8-1,.9-2.1V249q0-1.65-.9-1.2a2.3,2.3,0,0,0-.9,1.9Z"/><path class="e" d="M258.8,244l.1.7a3.208,3.208,0,0,1,1.4-1.6c.6-.4,1.1-.3,1.3.2a3.353,3.353,0,0,1,1.5-1.8c1-.6,1.6-.1,1.6,1.4v4l-1.6.9v-3.9c0-.3,0-.5-.1-.6s-.2-.1-.5,0a2.178,2.178,0,0,0-.7.9v4.3l-1.6.9v-3.9c0-.3,0-.5-.1-.6s-.2-.1-.5,0a2.178,2.178,0,0,0-.7.9v4.3l-1.6.9v-6.2Z"/><path class="f" d="M372.6,171.2a18.136,18.136,0,0,0-7.4-9.6c-.7-.4-9.5-5.5-11.4-6.6a19.989,19.989,0,0,0-2.1-1c-4.2-1.5-9.3-.6-15.2,2.8a64.059,64.059,0,0,0-22.4,22.1A110.446,110.446,0,0,0,301,209.7a126.737,126.737,0,0,0-4.2,31.2c0,10.8,1.3,19.2,4,25.1a19.2,19.2,0,0,0,7.3,9.1c1,.6,9.6,5.5,11.4,6.6a12.659,12.659,0,0,0,3.2,1.3c4.4,1.1,9.2.1,14.4-2.9a49.694,49.694,0,0,0,10.8-9.1,61.84,61.84,0,0,0,9.5-14.2l-3.9-7.5-9.7-3.3a64.238,64.238,0,0,0,4.7-9,8.043,8.043,0,0,0,3.4,5.2,5.077,5.077,0,0,0,5.3-.5c3.6-2.1,6.8-5.7,9.6-10.9a72.727,72.727,0,0,0,6.6-18.1,95.856,95.856,0,0,0,2.3-20.7A53.463,53.463,0,0,0,372.6,171.2ZM337,213.7l-.4,5.7a13.047,13.047,0,0,1-3.3,8,40.128,40.128,0,0,1,1.1-6.8,33.76,33.76,0,0,1,2.6-6.9Zm-9.7,46a19.093,19.093,0,0,1-7,2.6c-.2-.3-.3-.7-.5-1a40.089,40.089,0,0,1-2.7-12.7c.3.2,10,5.8,11.6,6.7a5.937,5.937,0,0,0,.8.4,5.482,5.482,0,0,0,2.5.4,34.3,34.3,0,0,1-4.7,3.6Zm21.8-80.4-9.2,5.3-.8,4.5-4-2.3a43.477,43.477,0,0,1,11.3-9.2,21.033,21.033,0,0,1,6.4-2.6,11.732,11.732,0,0,0,.5,1.1,29.091,29.091,0,0,1,1.7,6.6Z"/><path class="f" d="M358,219.7c0,.5-.1,1.2-.1,2.1,0,2.8.6,3.9,1.9,3.2a10.213,10.213,0,0,0,3.4-5,48.6,48.6,0,0,0,2.8-9.9,76.852,76.852,0,0,0,1.1-12.7,40.247,40.247,0,0,0-2.3-14.6q-2.25-5.85-6.9-7.5c-3.1-1.1-6.9-.3-11.5,2.4a46.831,46.831,0,0,0-17.8,18.6,92.907,92.907,0,0,0-9.2,24.5,109.825,109.825,0,0,0-2.6,21.4c0,8.4,1,14.7,2.9,19.1,1.9,4.3,4.6,6.8,7.8,7.5,3.3.7,6.9-.2,11-2.5a32.452,32.452,0,0,0,7.7-6.6,66.581,66.581,0,0,0,7.3-10.1l3.9,7.4a64.074,64.074,0,0,1-9.5,14.2,42.855,42.855,0,0,1-10.8,9.1c-5.2,3-10,4-14.4,2.9s-7.9-4.6-10.5-10.4c-2.6-5.9-4-14.2-4-25.1a131.725,131.725,0,0,1,4.1-31.3,110.445,110.445,0,0,1,13.1-30.8,64.06,64.06,0,0,1,22.4-22.1c5.8-3.4,10.9-4.3,15.1-2.8s7.4,5.1,9.6,10.5a58.288,58.288,0,0,1,3.3,21.1,96.772,96.772,0,0,1-2.3,20.8,72.727,72.727,0,0,1-6.6,18.1c-2.8,5.2-6,8.8-9.6,10.9a5.325,5.325,0,0,1-5.3.5,7.475,7.475,0,0,1-3.4-5.2,60.922,60.922,0,0,1-5.5,10.4,22.07,22.07,0,0,1-6.7,6.9,7.714,7.714,0,0,1-6.9,1c-2-.8-3.6-2.7-4.8-5.8a34.246,34.246,0,0,1-1.7-12.3,72.722,72.722,0,0,1,2.2-18,56.533,56.533,0,0,1,6.2-15.3,26.483,26.483,0,0,1,9-9.5c2.7-1.5,4.7-2,6.1-1.3a8.467,8.467,0,0,1,3.6,4.1l1.1-6.4,9.2-5.3ZM344.7,234a37.435,37.435,0,0,0,3.3-8,39.536,39.536,0,0,0,1-13.7,6.633,6.633,0,0,0-2.4-4.9q-1.8-1.2-4.5.3a12.479,12.479,0,0,0-4.5,4.9,32.647,32.647,0,0,0-3.2,8,37.2,37.2,0,0,0-1.2,8.7c0,3.7.6,6.5,2,8.3a3.411,3.411,0,0,0,4.7,1.1c.1-.1.2-.1.3-.2a12.926,12.926,0,0,0,4.5-4.5Z"/><path class="y" d="M339.9,184.6l11.4,6.6,9.2-5.3-11.4-6.6Z"/><path class="o" d="M339.1,189.1l7.9,4.5a9.377,9.377,0,0,1,3.2,3.9l1.1-6.4-11.4-6.6Z"/><path class="o" d="M324.7,249.9a36.689,36.689,0,0,1-1.8-12.3,73.518,73.518,0,0,1,2.2-18.1c.6-2.3,1.3-4.6,2.1-6.8l-4.8-2.8a66.424,66.424,0,0,0-3,10.8,102.656,102.656,0,0,0-2.6,21.4c0,2.2.1,4.3.2,6.3h0l11.6,6.7A10.183,10.183,0,0,1,324.7,249.9Z"/><path class="y" d="M335.1,186.8a50.777,50.777,0,0,0-6.5,9.4,99.139,99.139,0,0,0-6.2,13.7l4.8,2.8a54.328,54.328,0,0,1,4.1-8.4,25.661,25.661,0,0,1,9-9.5c2.7-1.5,4.7-2,6.1-1.3Z"/><path class="z" d="M349,212.3a45.075,45.075,0,0,1-1,13.7,37.435,37.435,0,0,1-3.3,8,12.656,12.656,0,0,1-4.4,4.5,3.37,3.37,0,0,1-4.8-.6c-.1-.1-.1-.2-.2-.3-1.3-1.8-2-4.5-2-8.3v-2c1.5-1.5,2.8-3.7,3.3-8l.4-5.7c.2-.3.4-.7.6-1a13.264,13.264,0,0,1,4.5-4.9q2.7-1.65,4.5-.3A7,7,0,0,1,349,212.3Z"/><path class="r" d="M364.6,161.3c-.5-.2-1-.5-1.5-.7-4.2-1.5-9.3-.6-15.2,2.8a64.059,64.059,0,0,0-22.4,22.1,109.8,109.8,0,0,0-9.9,20.4l-11.4-6.6a112.932,112.932,0,0,1,9.9-20.4,64.06,64.06,0,0,1,22.4-22.1c5.9-3.4,11-4.3,15.2-2.8a19.989,19.989,0,0,1,2.1,1C355.5,156,362.4,160,364.6,161.3Z"/><path class="o" d="M353.6,249.5a60.341,60.341,0,0,1-7.3,10.1,32.452,32.452,0,0,1-7.7,6.6c-4.1,2.4-7.8,3.2-11,2.5-3-.6-5.4-2.8-7.3-6.5a19.781,19.781,0,0,0,7-2.6,33.4,33.4,0,0,0,4.8-3.6,9.506,9.506,0,0,0,4.3-1.4,22.07,22.07,0,0,0,6.7-6.9l.9-1.4Z"/><path class="aa" d="M319.1,281.6l-11-6.3a19.2,19.2,0,0,1-7.3-9.1c-2.7-5.9-4-14.2-4-25A126.737,126.737,0,0,1,301,210c.9-3.6,2-7,3.2-10.4l11.4,6.6c-1.2,3.4-2.3,6.9-3.2,10.4a126.737,126.737,0,0,0-4.2,31.2c0,10.8,1.3,19.2,4,25.1A20.171,20.171,0,0,0,319.1,281.6Z"/><path class="z" d="M367,197.4a67.383,67.383,0,0,1-1.1,12.7,42.962,42.962,0,0,1-2.8,9.9,10.213,10.213,0,0,1-3.4,5c-1.3.7-1.9-.3-1.9-3.2a14.768,14.768,0,0,1,.1-2.1l.2-2.9,2.3-31-5.4-3.1a30.5,30.5,0,0,0-1.7-6.6,11.732,11.732,0,0,0-.5-1.1,8.516,8.516,0,0,1,5,.3q4.65,1.65,6.9,7.5A38.217,38.217,0,0,1,367,197.4Z"/><path class="c" d="M58,155.4l44.2-13.8-34,23.6Z"/><path class="c" d="M102.2,141.6l-47.6,7.9-10.2-9.8Z"/><path class="c" d="M54.6,149.5v11.7l3.4-5.8,44.2-13.8Z"/><path class="ab" d="M54.6,149.5v11.7l3.4-5.8,44.2-13.8Z"/><path class="c" d="M54.6,161.2l6.8-2.6L58,155.4Z"/><path class="ab" d="M58,155.4l3.4,3.2-1.1.4Z"/><path class="k" d="M46.8,159.8a.713.713,0,0,1-.7-.8.548.548,0,0,1,.4-.6c.9-.5,1.8-1,2.7-1.4a.777.777,0,0,1,1,.3h0a.777.777,0,0,1-.3,1c-.9.4-1.7.9-2.6,1.4A.9.9,0,0,1,46.8,159.8Z"/><path class="k" d="M38.3,226.2c-.2,0-.3-.1-.5-.2a31.249,31.249,0,0,1-4.6-4.3.781.781,0,1,1,1.2-1h0a28.515,28.515,0,0,0,4.4,4.1.784.784,0,0,1,.1,1.1.6.6,0,0,1-.6.3ZM30.8,218a.6.6,0,0,1-.6-.3,41.359,41.359,0,0,1-2.9-5.5.777.777,0,0,1,.3-1h.1a.731.731,0,0,1,1,.4h0a38.447,38.447,0,0,0,2.8,5.3.775.775,0,0,1-.2,1A4.331,4.331,0,0,0,30.8,218Zm-4.6-10.2a.73.73,0,0,1-.7-.6,61.765,61.765,0,0,1-1.2-6.2.709.709,0,0,1,.7-.8.641.641,0,0,1,.8.6h0a29.412,29.412,0,0,0,1.2,5.9.715.715,0,0,1-.5.9c-.1.1-.2.1-.3.2Zm-1.4-11.9H24a42.127,42.127,0,0,1,.4-6.2c.1-.4.4-.7.8-.6h0c.4.1.7.4.6.8h0a40.323,40.323,0,0,0-.4,6Zm1.4-10.4H26a.715.715,0,0,1-.5-.9h0a31.933,31.933,0,0,1,2.1-5.9.762.762,0,0,1,1.4.6,34.884,34.884,0,0,0-2,5.7,1.02,1.02,0,0,1-.8.5Zm4.5-10.3a.6.6,0,0,1-.4-.1.81.81,0,0,1-.3-1,35.88,35.88,0,0,1,3.7-5,.781.781,0,1,1,1.2,1,33.607,33.607,0,0,0-3.5,4.9,2.543,2.543,0,0,1-.7.2Zm7.1-8.7a.773.773,0,0,1-.8-.7,1.421,1.421,0,0,1,.2-.6,46.251,46.251,0,0,1,4.8-4,.721.721,0,1,1,.8,1.2c-1.6,1.2-3.2,2.5-4.7,3.8.1.2-.1.3-.3.3Z"/><path class="k" d="M45.3,230.4a.367.367,0,0,1-.3-.1,22.894,22.894,0,0,1-2.7-1.4.714.714,0,0,1-.3-1,.777.777,0,0,1,1-.3,21.018,21.018,0,0,0,2.6,1.3.731.731,0,0,1,.4,1h0A.752.752,0,0,1,45.3,230.4Z"/><path class="c" d="M388.1,198.6l35.3-22.7,15.6,5Z"/><path class="c" d="M388.1,198.6l30.5-25.5-6.8-7.9Z"/><path class="c" d="M418.6,173.1V179l-30.5,19.6Z"/><path class="ab" d="M418.6,173.1V179l-30.5,19.6Z"/><path class="k" d="M423.7,172.6a.773.773,0,0,1-.8-.7,1.421,1.421,0,0,1,.2-.6c1-1,2-2,2.9-3.1a.784.784,0,0,1,1.1-.1.668.668,0,0,1,.1,1,24.224,24.224,0,0,1-3.1,3.3C424.1,172.5,423.9,172.6,423.7,172.6Zm5.7-7.5a.367.367,0,0,1-.3-.1.693.693,0,0,1-.3-1,27.047,27.047,0,0,0,2-5.4.765.765,0,1,1,1.5.3h0a31,31,0,0,1-2.1,5.8,1.2,1.2,0,0,1-.8.4Zm2.7-10.5h0a.773.773,0,0,1-.7-.8h0v-1.2a23.835,23.835,0,0,0-.4-4.6.779.779,0,0,1,.6-.9h0a.779.779,0,0,1,.9.6,26.286,26.286,0,0,1,.4,4.9v1.3A.849.849,0,0,1,432.1,154.6Zm-1.6-10.8a.752.752,0,0,1-.7-.5,35.932,35.932,0,0,0-2.4-5.3.721.721,0,0,1,1.2-.8.1.1,0,0,0,.1.1,28.144,28.144,0,0,1,2.5,5.6.731.731,0,0,1-.4,1h-.1a.31.31,0,0,0-.2-.1Zm-5.3-9.7a.713.713,0,0,1-.6-.3,33.126,33.126,0,0,0-4-4.4.778.778,0,1,1,1.1-1.1,34.721,34.721,0,0,1,4.1,4.5.758.758,0,0,1-.1,1c-.2.3-.3.3-.5.3Zm-7.8-7.6c-.2,0-.3-.1-.5-.2A52.507,52.507,0,0,0,412,123a.738.738,0,0,1,.7-1.3,44.525,44.525,0,0,1,5.1,3.3.668.668,0,0,1,.1,1,.822.822,0,0,1-.5.5Zm-78.6-2.9a.773.773,0,0,1-.8-.7.755.755,0,0,1,.4-.7c1.7-1,3.5-1.9,5.4-2.8a.762.762,0,0,1,.6,1.4,53.616,53.616,0,0,0-5.3,2.8C339,123.5,338.9,123.6,338.8,123.6Zm69.2-2.8a.367.367,0,0,1-.3-.1,53.8,53.8,0,0,0-5.5-2.4.7.7,0,0,1-.4-1,.731.731,0,0,1,1-.4h0a55.474,55.474,0,0,1,5.6,2.4.819.819,0,0,1,.4,1C408.5,120.7,408.3,120.8,408,120.8Zm-59.3-2a.752.752,0,0,1-.7-.5.731.731,0,0,1,.4-1h0c1.9-.7,3.8-1.4,5.7-2a.762.762,0,0,1,.6,1.4h-.1c-1.9.6-3.8,1.2-5.6,1.9-.1.2-.2.2-.3.2Zm49-2h-.2q-2.85-.9-5.7-1.5a.765.765,0,1,1,.3-1.5c2,.4,3.9.9,5.9,1.5a.825.825,0,0,1,.5,1c-.2.3-.5.6-.8.5Zm-38.5-1.2a.713.713,0,0,1-.7-.8.73.73,0,0,1,.6-.7c2-.4,4-.8,6-1.1a.765.765,0,1,1,.3,1.5h-.1c-2,.3-3.9.7-5.8,1.1Zm27.8-1.2h-.1a58.954,58.954,0,0,0-5.9-.6.752.752,0,1,1,.1-1.5q3,.15,6,.6a.779.779,0,0,1,.6.9.73.73,0,0,1-.7.6Zm-17-.5a.752.752,0,1,1-.1-1.5,60.78,60.78,0,0,1,6.1-.3h0a.789.789,0,0,1,.8.8.736.736,0,0,1-.8.8,40.122,40.122,0,0,0-6,.2Z"/><path class="c" d="M421,332.1V332h0v-.3c0-.1,0-.1-.1-.2a1.344,1.344,0,0,0-.6-.7h0l-.1-.1-.1-.1h0L340,284.4l-.2-.1a8.4,8.4,0,0,0-4.7-1.1H335a8.9,8.9,0,0,0-3.9,1.2h0l-5.8,3.4L224.2,346.1l-12.9,7.4h0a3.132,3.132,0,0,0-1.2,2.4V363a3.034,3.034,0,0,0,1.6,2.7h0l1.3.7,78.6,45.4a5.421,5.421,0,0,0,2.5.6,4.645,4.645,0,0,0,2.3-.6h0l108.1-62.4,15.7-9.1.1-.1.1-.1a1.99,1.99,0,0,0,.8-1.2C421,338.8,421,332.5,421,332.1Z"/><path class="ab" d="M292.4,412.2l.2.1c.2,0,.4.1.6.1h.7v-6.9a5.025,5.025,0,0,1-2.4-.6l-79.8-46.1a3.356,3.356,0,0,1-1.6-2.9V363a3.034,3.034,0,0,0,1.6,2.7h0l1.3.7,78.6,45.4.6.3C292.1,412.1,292.2,412.2,292.4,412.2Z"/><path class="aa" d="M421,339a1.411,1.411,0,0,1-.8,1.2l-.1.1-.1.1-15.7,9L296.2,411.8h0a4.645,4.645,0,0,1-2.3.6h-.1v-6.9a5.325,5.325,0,0,0,2.4-.6h0l123.9-71.6.1-.1a1.99,1.99,0,0,0,.8-1.2C421,332.5,421,338.8,421,339Z"/><path class="y" d="M421,332.1a1.411,1.411,0,0,1-.8,1.2l-.1.1-15.8,9.1-65.5,37.8-42.6,24.6h0a5.1,5.1,0,0,1-4.8,0l-1.4-.8-61.2-35.3-16-9.3-1.3-.7h0a3.356,3.356,0,0,1-1.6-2.9v-.1a2.935,2.935,0,0,1,1.2-2.3h0l12.9-7.4,101.1-58.4,5.8-3.4h0a9.317,9.317,0,0,1,3.9-1.2h.1a8.8,8.8,0,0,1,4.7,1.1l.2.1,80.1,46.2h0l.1.1.1.1h0a1.344,1.344,0,0,1,.6.7c0,.1.1.1.1.2v.3h0A.215.215,0,0,1,421,332.1Z"/><path class="c" d="M421,332.1a1.411,1.411,0,0,1-.8,1.2l-.1.1-15.8,9.1-65.5,37.8-42.6,24.6h0a5.1,5.1,0,0,1-4.8,0l-1.4-.8-61.2-35.3-16-9.3-1.3-.7h0a3.356,3.356,0,0,1-1.6-2.9v-.1l1.5-.3,14.4-1.4,74.4-7.4h0l11.6-1.2c2.6-.3,4.9-1.2,5.1-2.1l2.3-7.8h0l14.5-48.7,1.1-3.6h0a.349.349,0,0,1,.1-.2,8.8,8.8,0,0,1,4.7,1.1l.2.1,3.5,2,76.6,44.3h0l.1.1.1.1h0a1.344,1.344,0,0,1,.6.7c0,.1.1.1.1.2v.3h0C420.9,331.9,421,332,421,332.1Z"/><path class="ab" d="M420,333.4l.1-.1h.1a1.489,1.489,0,0,0,.6-2,1.853,1.853,0,0,0-.8-.7l-100.8,5.1,85,6.7Z"/><path class="ab" d="M291.4,404.8a5.421,5.421,0,0,0,2.5.6,4.645,4.645,0,0,0,2.3-.6h0l42.6-24.6-38.6-33.5L290,404.1Z"/><path class="c" d="M421,332.1a1.644,1.644,0,0,1-.8,1.2h-.1L296.2,404.8h0a4.645,4.645,0,0,1-2.3.6l7-64.4c.3-2.7,6.4-4.9,14.4-5.2Z"/><path class="ab" d="M335.1,283.1l-.4,3.9-5.1,48.2v.1l-.1,1.2L328.4,347c-.3,2.7-6.4,4.9-14.4,5.2l-7.2.3h0l-7.2.3h-.4l-73.1,2.6L210,356v-.1a2.935,2.935,0,0,1,1.2-2.3h0l12.9-7.4,101.1-58.4,5.8-3.4h0a9.317,9.317,0,0,1,3.9-1.2Z"/><path class="c" d="M335,283.2v.2h0l-.6,3.6-7.9,48.4v.1l-.1.8-1.5,8.9c-.4,2.5-6,4.6-13.4,5l-6.7.4h0l-4.8.3h-.3L226,355l-16,.9h0a2.935,2.935,0,0,1,1.2-2.3h0l12.9-7.4,101.1-58.4,5.8-3.4h0A8.123,8.123,0,0,1,335,283.2Z"/></g></svg>