<svg xmlns="http://www.w3.org/2000/svg" xmlns:xlink="http://www.w3.org/1999/xlink" width="460.4" height="457.565" viewBox="0 0 460.4 457.565"><defs><style>.a{fill:#f5f5f5;}.ab,.b{fill:#263238;}.c,.x{opacity:0.3;}.aa,.d,.l{fill:#455a64;}.e{fill:#37474f;}.f{fill:#fafafa;}.g{fill:#e0e0e0;}.h{fill:#06826a;}.i,.j,.x{fill:#fff;}.i{opacity:0.75;}.k{fill:#e6e6e6;}.l,.m,.q{opacity:0.5;}.n{fill:#ff3600;}.o{fill:#ffa8a7;}.p{fill:#ff603b;}.r{fill:#f28f8f;}.s{fill:#0b5446;}.ab,.t{opacity:0.2;}.u{opacity:0.1;}.v{clip-path:url(#a);}.w{clip-path:url(#b);}.y{clip-path:url(#c);}.z{fill:#a2a3a3;}.aa{opacity:0.4;}.ac{fill:#ebebeb;}.ad{opacity:0.7;}</style><clipPath id="a"><path d="M236.9,361.6c.2-.1.3-.2.5-.3h0a19.987,19.987,0,0,0,4.3-3.9c.7-.7,1.2-1.3,1.9-2l.1-.1.2-.2.1-.1c.3-.3.7-.6,1-.9l6.1,3.6h0l.3.3h0c.1.1.1.1.1.2h0c0,.1.1.1.1.2v.1l.1.2v.1c0,.1.1.2.1.3v.1a1.007,1.007,0,0,1,.1.3v.1c0,.1.1.3.1.4h0c0,.2.1.3.1.5h0l.1.5v22.1l60.4-34.9V267.6h0l-12.7,7.3-.2.1-.1.1h0l-2.5,1.5h0a31.547,31.547,0,0,0-2.9,2.2l-.1.1-.2.1a4.349,4.349,0,0,1-.7.6l-.1.1-.3.3-.6.6-.4.4a2.651,2.651,0,0,0-.5.6c-.2.2-.2.3-.3.4a2.651,2.651,0,0,1-.5.6l-.3.4-.1.1-.1.1c-.1.2-.3.4-.4.6s-.2.3-.2.4l-.1.1c-.2.4-.4.8-.6,1.3l-.1.1a1.421,1.421,0,0,0-.2.6c-.1.2-.1.4-.2.6l-.1.1a1.445,1.445,0,0,0-.2.7c-.1.2-.1.5-.2.7a6.375,6.375,0,0,1-.2.7,1.7,1.7,0,0,0-.1.7c0,.3-.1.5-.1.8v.1c0,.2-.1.4-.1.7,0,.2-.1.6-.1.9v2.4a22.017,22.017,0,0,0,1.3,8,15.484,15.484,0,0,1,1,5.2v.8a10.668,10.668,0,0,1-1.4,5.2,9.062,9.062,0,0,1-3.3,3.7h0c-.2.1-.5.2-.7.3h-.1a1.268,1.268,0,0,1-.6.1h-.7a1.421,1.421,0,0,1-.6-.2h-.1l-6.4-3.7a1.268,1.268,0,0,1,.1-.6,1.483,1.483,0,0,0,.1-.7c.1-.5.1-.9.2-1.3s.1-.8.2-1.2c0-.2.1-.4.1-.6.2-.8.4-1.6.6-2.5a26.758,26.758,0,0,0,1-6.9c0-2.2-.2-3.2-.8-3.6l-7.3-4.2-12.3,7.1-5.1-2.9v5.9l-4.4,2.6h0l-1.4.8,5.9,3.4h0v8.8h0v8.1c0,4.7-.4,7.9-1.1,9.7-.5,1.2-1.3,2-3.1,3a8.968,8.968,0,0,1-4.8,1.4,7.719,7.719,0,0,0-1.5.2l-.6.1c-.2,0-.4.1-.6.1-.4.1-.7.2-1.1.3h-.1l-.2.1c-.6.2-1.1.5-1.6.7l-.2.1h-.1c-.2.1-.5.2-.7.3a18.2,18.2,0,0,0-5.4,5.3,14,14,0,0,0-1,1.6l-.1.2a10.092,10.092,0,0,0-.7,1.5l-.1.1a20.944,20.944,0,0,0-1.3,3.5h0a19.423,19.423,0,0,0-.7,3.3l6.5,3.7A2.558,2.558,0,0,0,236.9,361.6Z"/></clipPath><clipPath id="b"><path d="M252.6,302.7V285.8l.2-5.2V280c0-.3.1-.6.1-1a.9.9,0,0,1,.1-.5v-.1c0-.3.1-.6.1-.9s.1-.4.1-.6c.1-.3.1-.6.2-1v-.1c0-.1.1-.3.1-.4.1-.4.2-.8.3-1.3V274c.1-.5.3-.9.4-1.4l.1-.2a6.119,6.119,0,0,1,.5-1.2.349.349,0,0,1,.1-.2h0c.2-.4.3-.7.5-1.1l.1-.3c.2-.4.5-.8.7-1.2h0a21.1,21.1,0,0,1,1.9-2.3h0l.1-.1a9.015,9.015,0,0,1,1-.9l.1-.1a21.954,21.954,0,0,1,2.5-1.7,15.5,15.5,0,0,1,2.9-1.4,7.491,7.491,0,0,1,1.6-.4,13.552,13.552,0,0,1,2-.2,9.16,9.16,0,0,0,4.3-1.1h0l.6-.3a9.83,9.83,0,0,0,3.3-3.7c.2-.4.4-.8.6-1.3a10.065,10.065,0,0,0,.8-3.9v-.8a.6.6,0,0,0-.1-.4v-.2c0-.1-.1-.3-.1-.4s0-.1-.1-.1a1.034,1.034,0,0,1-.1-.4l-.1-.1c0-.1-.1-.2-.2-.3a.1.1,0,0,0-.1-.1c-.1-.1-.1-.2-.2-.3h0l-.3-.3h0c-.1-.1-.2-.2-.3-.2h0l-6.7-3.9a42.424,42.424,0,0,0-3,3,20.876,20.876,0,0,1-4.8,4.1c-1.2.7-2.1,1.2-2.8.8l-6.5-3.7V228.6l-15.7-9,55.9-32.3L313,199v75.3l-12.7,7.3c-7.7,4.4-7.7,6.5-7.7,10.1a16.468,16.468,0,0,0,1,5.8,20.573,20.573,0,0,1,1.3,6.9,4.869,4.869,0,0,0,.1,1.2,23.613,23.613,0,0,1-3.3,11.6l-12.8,7.4a3.126,3.126,0,0,1-1.1-.9c-1.4-1.5-2.2-3.9-2.2-6.9a6.15,6.15,0,0,1,.1-1.3h0a17.959,17.959,0,0,1,.2-2.2c0-.2.1-.4.1-.7.1-.5.1-.9.2-1.3s.1-.8.2-1.2c0-.2.1-.4.1-.6.2-.8.4-1.6.6-2.5a27.4,27.4,0,0,0,1-6.9c0-2.2-.2-3.2-.8-3.6l-7.3-4.2-12.3,7.1Z"/></clipPath><clipPath id="c"><path d="M197.2,334.7l-15.7-9,.1-64.3a18.739,18.739,0,0,1,1.8-7.4h0a14.87,14.87,0,0,1,5.5-6.5L237,219.8l15.7,9v19l6.5,3.7c.7.4,1.6-.1,2.8-.8a20.876,20.876,0,0,0,4.8-4.1,42.424,42.424,0,0,1,3-3l6.7,3.9h0a.1.1,0,0,1,.1.1h.1c.1,0,.1.1.2.1.2.2.4.5.6.7a.31.31,0,0,1,.1.2c0,.1.1.1.1.2l.3.9v.1c0,.2.1.4.1.6v1.2a1.268,1.268,0,0,1-.1.6,1.268,1.268,0,0,0-.1.6c0,.2-.1.3-.1.5,0,.1-.1.2-.1.3a8.18,8.18,0,0,1-1,2.4,9.062,9.062,0,0,1-3.3,3.7l-.6.3h0a9.16,9.16,0,0,1-4.3,1.1c-.5,0-1,.1-1.5.1l-.5.1a16.274,16.274,0,0,0-3.7,1.3c-.1.1-.3.1-.4.2l-.4.2a21.954,21.954,0,0,0-2.5,1.7l-.1.1a9.015,9.015,0,0,0-1,.9l-.1.1h0a13.655,13.655,0,0,0-1.9,2.3h0a7.458,7.458,0,0,0-.7,1.2l-.1.3a5.36,5.36,0,0,0-.5,1.1v.1a.349.349,0,0,1-.1.2c-.2.4-.3.8-.5,1.2l-.1.2a10.26,10.26,0,0,0-.4,1.4v.1c-.1.4-.2.8-.3,1.3,0,.1-.1.3-.1.4v.1c-.1.3-.1.6-.2,1,0,.2-.1.4-.1.6s-.1.6-.1.9v.1c0,.2-.1.3-.1.5,0,.3-.1.6-.1,1v.7l-.2,5.2v16.9l-4.4,2.6-1.4.8-2.8,1.6-4,2.3c-2.8,1.6-4.8,2.5-6,2.5h-.6c-.1,0-.2-.1-.4-.1h0l-5.8-3.4h0v-.1c.1-.7.2-1.5.3-2.1.1-.4.1-.8.2-1.2.2-1.2.5-2.3.7-3.3a27.557,27.557,0,0,0,1-6.3h0V295a4.449,4.449,0,0,0-1.4-3.6l-.1-.1-.1-.1h0l-6.4-3.7a24.75,24.75,0,0,0-4.3,6.7c-.1.3-.3.7-.4,1s-.3.7-.4,1l-.1.1c-.1.3-.2.7-.3,1s-.2.7-.3,1a6.378,6.378,0,0,1-.2.7,1.7,1.7,0,0,0-.1.7,7.719,7.719,0,0,0-.2,1.5c0,.3-.1.5-.1.8v2.3a2.768,2.768,0,0,0,.1.9,13.554,13.554,0,0,0,.2,2c0,.3.1.5.1.7a20.245,20.245,0,0,0,.9,3.3,15.4,15.4,0,0,1,.9,3.7v.4c0,.5.1,1.1.1,1.6,0,3.6,0,5.6-7.7,10.1Z"/></clipPath></defs><g transform="translate(-9.7 -14.735)"><ellipse class="a" cx="230.2" cy="125.1" rx="230.2" ry="125.1" transform="translate(9.7 222.1)"/><path class="b" d="M166.4,319.9l31.9-18.5c3.3-1.9,4.9-4.4,4.9-6.9v-4.4L170,271.4a6.942,6.942,0,0,1-3.2-5.5V226.5L111,258.7v39.4a6.942,6.942,0,0,0,3.2,5.5l28.2,16.3C149,323.7,159.7,323.7,166.4,319.9Z"/><path class="c" d="M124.5,305.1v4.4l-10.2-5.9a7.213,7.213,0,0,1-3.2-5.5V258.8l10.6-6.1c.2,2.7.5,5.5.7,8.2l-7.4,4.3V296a6.942,6.942,0,0,0,3.2,5.5Z"/><path class="d" d="M114.9,295.9a6.942,6.942,0,0,0,3.2,5.5l24.3,14c6.6,3.8,17.3,3.8,23.8,0l31.9-18.5c6.6-3.8,6.6-10,0-13.8l-24.3-14a6.942,6.942,0,0,1-3.2-5.5V232.8L114.8,265Z"/><path class="e" d="M180.4,273h0l-6.5-3.7a6.942,6.942,0,0,1-3.2-5.5V233L115,265.2V296a6.942,6.942,0,0,0,3.2,5.5l6.4,3.7Z"/><path class="e" d="M203.2,290.1v4.4c0,2.6-1.7,5-4.9,6.9l-31.9,18.5a23.751,23.751,0,0,1-11.4,2.8v-4.4a24.949,24.949,0,0,0,11.4-2.8L198.3,297C201.5,295.1,203.2,292.6,203.2,290.1Z"/><path class="d" d="M262.5,22.5V197a8.666,8.666,0,0,1-4,6.9l-5.8,3.4-2.1,1.3-6.2,3.5-2.7,1.6L140.7,272l-4.7,2.7-29,16.7-4.7,2.7L88.6,302l-4.4,2.6-4.3,2.6-4.2,2.4-6.2,3.6-5.9,3.4L22.9,340l-.4.2h-.1c-2,.9-3.5-.2-3.5-2.6v3.3a7.786,7.786,0,0,1-3.7-.9,8.528,8.528,0,0,1-3.7-6.7V158.8a8.666,8.666,0,0,1,4-6.9L251,15.9a7.31,7.31,0,0,1,10.2,2.3,6.625,6.625,0,0,1,1.1,3.6A.844.844,0,0,1,262.5,22.5Z"/><path class="e" d="M262.5,22.5V197a8.666,8.666,0,0,1-4,6.9l-5.8,3.4-2.1,1.3-6.2,3.5-2.7,1.6L140.7,272l-4.7,2.7-29,16.7-4.7,2.7L88.6,302l-4.4,2.6-4.3,2.6-4.2,2.4-6.2,3.6-5.9,3.4L22.9,340l-.4.2h-.1c-2,.9-3.5-.2-3.5-2.6V163.1a8.933,8.933,0,0,1,4-6.9l235.6-136c2-1.2,3.6-.4,3.9,1.6A1.483,1.483,0,0,1,262.5,22.5Z"/><path class="b" d="M18.9,337.6V326l-7.4-4.3v11.7a8.528,8.528,0,0,0,3.7,6.7,7.786,7.786,0,0,0,3.7.9,2.768,2.768,0,0,0,.9-.1c.3,0,.6-.1.9-.1h.1a1.854,1.854,0,0,0,.7-.2h0l.2-.1c.2-.1.5-.2.7-.3C20.5,341,18.9,340,18.9,337.6Z"/><path class="d" d="M262.5,185.3V197a8.666,8.666,0,0,1-4,6.9l-5.8,3.4-2.1,1.3-6.2,3.5-2.7,1.6L140.7,272l-4.7,2.7-29,16.7-4.7,2.7L88.6,302l-4.4,2.6-4.3,2.6-4.2,2.4-6.2,3.6-5.9,3.4L22.9,340l-.4.2h-.1c-2,.9-3.5-.2-3.5-2.6V326Z"/><path class="b" d="M20.1,159.2a8.9,8.9,0,0,0-1.2,3.9V326l-7.5-4.3V158.8a8.9,8.9,0,0,1,1.2-3.9Z"/><path class="f" d="M139.3,270.3a3.08,3.08,0,0,1-1.3-.3,3.155,3.155,0,0,1-1.4-3,8.554,8.554,0,0,1,4-7h0a2.984,2.984,0,0,1,4.1.4,2.724,2.724,0,0,1,.6,2.3,8.554,8.554,0,0,1-4,7A3.606,3.606,0,0,1,139.3,270.3Zm2-9.2a7.452,7.452,0,0,0-3.4,5.9,1.636,1.636,0,0,0,1.2,2,1.8,1.8,0,0,0,1.6-.4,7.452,7.452,0,0,0,3.4-5.9,1.636,1.636,0,0,0-1.2-2,1.555,1.555,0,0,0-1.6.4Z"/><path class="g" d="M26.4,306.1V165.6a5.4,5.4,0,0,1,2.4-4.2L252.6,32.2c1.3-.8,2.4-.2,2.4,1.4V174a5.216,5.216,0,0,1-2.4,4.1L28.8,307.4C27.5,308.3,26.4,307.6,26.4,306.1Z"/><path class="f" d="M38.2,162.7,240.6,45.9c1.4-.8,2.6-.2,2.6,1.5V175a5.617,5.617,0,0,1-2.6,4.5L38.2,296.3c-1.4.8-2.6.2-2.6-1.5V167.2A5.886,5.886,0,0,1,38.2,162.7Z"/><path class="g" d="M209.4,193.2a.576.576,0,0,1-.6-.6V108.5a.6.6,0,0,1,1.2,0v84.1A.645.645,0,0,1,209.4,193.2Z"/><path class="h" d="M216.8,102.5l19-11c1.4-.8,2.6-.2,2.6,1.5v21.9a5.617,5.617,0,0,1-2.6,4.5l-19,11c-1.4.8-2.6.2-2.6-1.5V107A5.475,5.475,0,0,1,216.8,102.5Z"/><path class="i" d="M216.8,102.5l19-11c1.4-.8,2.6-.2,2.6,1.5v21.9a5.617,5.617,0,0,1-2.6,4.5l-19,11c-1.4.8-2.6.2-2.6-1.5V107A5.475,5.475,0,0,1,216.8,102.5Z"/><path class="h" d="M234,106.6a1.021,1.021,0,0,0-1.5.2l-.1.1-3.4,5.9,2.8,3.8-9-8.3a.967.967,0,0,0-1.4,0c-.1.1-.1.2-.2.3l-7,14.4v5.8c0,1.6,1.1,2.3,2.6,1.5l19-11a5.886,5.886,0,0,0,2.6-4.5v-4.7Z"/><path class="j" d="M230.2,99.4a5.4,5.4,0,0,0-2.4,4.2c0,1.5,1.1,2.2,2.4,1.4a5.4,5.4,0,0,0,2.4-4.2C232.6,99.3,231.5,98.7,230.2,99.4Z"/><path class="g" d="M215.5,135.2l21.6-12.4c.7-.4,1.3-.1,1.3.7a2.529,2.529,0,0,1-1.3,2.1L215.5,138c-.7.4-1.3.1-1.3-.7A2.838,2.838,0,0,1,215.5,135.2Z"/><path class="g" d="M215.5,139.4,237,127c.7-.4,1.3-.1,1.3.7a2.529,2.529,0,0,1-1.3,2.1l-21.6,12.5c-.7.4-1.3.1-1.3-.7A2.965,2.965,0,0,1,215.5,139.4Z"/><path class="g" d="M215.5,143.7l21.6-12.4c.7-.4,1.3-.1,1.3.7a2.529,2.529,0,0,1-1.3,2.1l-21.6,12.4c-.7.4-1.3.1-1.3-.7A2.838,2.838,0,0,1,215.5,143.7Z"/><path class="h" d="M216.8,150.2l19-11c1.4-.8,2.6-.2,2.6,1.5v21.9a5.617,5.617,0,0,1-2.6,4.5l-19,10.9c-1.4.8-2.6.2-2.6-1.5V154.6A5.444,5.444,0,0,1,216.8,150.2Z"/><path class="i" d="M216.8,150.2l19-11c1.4-.8,2.6-.2,2.6,1.5v21.9a5.617,5.617,0,0,1-2.6,4.5l-19,10.9c-1.4.8-2.6.2-2.6-1.5V154.6A5.444,5.444,0,0,1,216.8,150.2Z"/><path class="h" d="M234,154.3a1.021,1.021,0,0,0-1.5.2l-.1.1-3.4,5.9,2.8,3.8-9-8.3a.972.972,0,0,0-1.4.1c-.1.1-.1.2-.2.2l-7,14.4v5.8c0,1.6,1.1,2.3,2.6,1.5l19-11a5.886,5.886,0,0,0,2.6-4.5v-4.7Z"/><path class="j" d="M230.2,147.1a5.4,5.4,0,0,0-2.4,4.2c0,1.5,1.1,2.2,2.4,1.4a5.4,5.4,0,0,0,2.4-4.2C232.6,147,231.5,146.4,230.2,147.1Z"/><path class="g" d="M215.5,182.9l21.6-12.4c.7-.4,1.3-.1,1.3.7a2.529,2.529,0,0,1-1.3,2.1l-21.6,12.5c-.7.4-1.3.1-1.3-.7A2.606,2.606,0,0,1,215.5,182.9Z"/><path class="g" d="M215.5,187.2l21.6-12.4c.7-.4,1.3-.1,1.3.7a2.529,2.529,0,0,1-1.3,2.1L215.5,190c-.7.4-1.3.1-1.3-.7A2.332,2.332,0,0,1,215.5,187.2Z"/><path class="h" d="M81.6,198.8l115.5-66.7c1.4-.8,2.6-.2,2.6,1.5v60.9a5.617,5.617,0,0,1-2.6,4.5L81.6,265.7c-1.4.8-2.6.2-2.6-1.5V203.3A6.007,6.007,0,0,1,81.6,198.8Z"/><path class="i" d="M81.6,198.8l115.5-66.7c1.4-.8,2.6-.2,2.6,1.5v60.9a5.617,5.617,0,0,1-2.6,4.5L81.6,265.7c-1.4.8-2.6.2-2.6-1.5V203.3A6.007,6.007,0,0,1,81.6,198.8Z"/><path class="j" d="M156.3,168a13.95,13.95,0,0,0-6.3,10.8c0,4,2.8,5.6,6.3,3.6a13.95,13.95,0,0,0,6.3-10.8C162.5,167.6,159.7,166,156.3,168Z"/><path class="h" d="M81.6,265.7,197.1,199a5.727,5.727,0,0,0,2.6-4.5v-3.2l-21.5-16.1a3.249,3.249,0,0,0-4.6.7h0L153.7,203l8.9,10.3-35.9-25.8a3.282,3.282,0,0,0-4.5.7c0,.1-.1.1-.1.2l-43,68.8v6.9C79,265.8,80.2,266.5,81.6,265.7Z"/><path class="d" d="M243.1,46.4v10L35.6,176.2v-10a4.073,4.073,0,0,1,1.8-3.2L241.3,45.3C242.3,44.7,243.1,45.2,243.1,46.4Z"/><path class="k" d="M243.1,56.4V68.6L35.6,188.4V176.2l3.8-2.2c1-.6,1.4-1.5,1.9-3.3l1.3-4.5a4.888,4.888,0,0,1,1.9-3.3l44.7-25.8c1-.6,1.9-.7,2.6.7l1.6,2.9c.6,1,.9,1.6,1.9,1Z"/><path class="j" d="M235.9,52.2c1.1-.6,2-.1,2,1.1a4.559,4.559,0,0,1-2,3.5c-1.1.6-2,.1-2-1.2A4.265,4.265,0,0,1,235.9,52.2Z"/><path class="j" d="M228.7,56.4c1.1-.6,2-.1,2,1.2a4.559,4.559,0,0,1-2,3.5c-1.1.6-2,.1-2-1.1A4.078,4.078,0,0,1,228.7,56.4Z"/><path class="j" d="M221.5,60.5c1.1-.6,2-.1,2,1.2a4.559,4.559,0,0,1-2,3.5c-1.1.6-2,.1-2-1.1A4.331,4.331,0,0,1,221.5,60.5Z"/><path class="l" d="M44.2,177.1l-2.9,1.7,1.1-2.2a.446.446,0,0,0,0-.5c-.1-.1-.2,0-.3.2l-1.6,3h0v.1h0v.3h0l1.6,1.3h.2c.1,0,.1-.1.2-.2a.446.446,0,0,0,0-.5l-1.1-.9,2.9-1.7c.2-.1.2-.3.2-.5C44.4,177.1,44.3,177,44.2,177.1Z"/><path class="l" d="M46.7,175.7l2.9-1.7-1.1-.9a.446.446,0,0,1,0-.5c.1-.2.2-.3.3-.2l1.6,1.3h0v.1h0v.3h0v.1h0l-1.6,3.1c0,.1-.1.1-.2.2h-.2a.446.446,0,0,1,0-.5l1.1-2.2-2.9,1.7c-.1.1-.2,0-.2-.2A.6.6,0,0,1,46.7,175.7Z"/><path class="l" d="M56.3,167.2c0-.2-.2-.2-.3,0l-.4,1c-.7-.1-1.5.6-2.1,1.8-.7,1.5-.7,3.4,0,4.1a1.059,1.059,0,0,0,1.3.1,4.013,4.013,0,0,0,1.3-1.6.446.446,0,0,0,0-.5c-.1-.1-.2,0-.3.2-.5,1.1-1.4,1.7-2,1.1a2.725,2.725,0,0,1,0-3c.4-.8.9-1.3,1.4-1.3l-.3.7c-.1.2,0,.4.1.3l1.2-.8c.1-.1.2-.2.1-.3Z"/><path class="l" d="M87.9,142.7l1.1-2.3a.854.854,0,0,0,0-.7c-.1-.1-.3,0-.5.3l-1.1,2.3-1.1-1c-.1-.1-.3,0-.5.3a.854.854,0,0,0,0,.7l1.1,1-1.1,2.2a.854.854,0,0,0,0,.7c.1.1.2.1.2,0,.1-.1.2-.2.2-.3l1.1-2.3,1.1,1c.1.1.2.1.2,0,.1-.1.2-.2.2-.3a.854.854,0,0,0,0-.7Z"/><path class="f" d="M60.2,170v-3.8a4.177,4.177,0,0,1,1.9-3.2L230.7,65.8a1.166,1.166,0,0,1,1.9,1.1v3.8a4.177,4.177,0,0,1-1.9,3.2L62.1,171.1A1.166,1.166,0,0,1,60.2,170Z"/><path class="g" d="M228.2,74.2H228a.67.67,0,0,1-.4-.7l.2-1.5-.7-.5a.55.55,0,0,1-.3-.5.91.91,0,0,1,.4-.8l1.1-.9.5-1.6a.749.749,0,0,1,.7-.6.713.713,0,0,1,.6.3h0l.4.8.8-.3a.663.663,0,0,1,.7.2.75.75,0,0,1,0,.9l-.8,1.5.2,1.4a1.136,1.136,0,0,1-.3.8c-.1.2-.4.2-.6.2l-.8-.1-.9,1.2C228.5,74.1,228.4,74.2,228.2,74.2Zm-.4-3.3.6.4a.908.908,0,0,1,.3.7v.5l.2-.4a.713.713,0,0,1,.6-.3l.7.1-.2-1.3a1.268,1.268,0,0,1,.1-.6l.5-.9-.3.1a.67.67,0,0,1-.8-.3l-.2-.3-.3,1.1a2.186,2.186,0,0,1-.3.5Z"/><g class="m"><path class="d" d="M235,65.3a.645.645,0,0,1-.6-.6.55.55,0,0,1,.3-.5l5-2.9a.583.583,0,0,1,.6,1l-4.9,2.8C235.2,65.2,235.1,65.3,235,65.3Z"/><path class="d" d="M235,68.1a.645.645,0,0,1-.6-.6.55.55,0,0,1,.3-.5l5-2.9a.583.583,0,1,1,.6,1h0L235.4,68A.756.756,0,0,1,235,68.1Z"/><path class="d" d="M235,71a.645.645,0,0,1-.6-.6.55.55,0,0,1,.3-.5l5-2.9a.54.54,0,0,1,.8.2h0a.524.524,0,0,1-.2.8l-4.9,2.9C235.2,70.9,235.1,71,235,71Z"/></g><path class="g" d="M47.6,188.9l15.8-9.2c.6-.3,1.1-.1,1.1.6v1.4a2.107,2.107,0,0,1-1.1,1.8l-15.8,9.2c-.6.3-1.1.1-1.1-.6v-1.4A2.453,2.453,0,0,1,47.6,188.9Z"/><path class="n" d="M43.3,192.6V194a2.107,2.107,0,0,1-1.1,1.8l-1.2.7c-.6.3-1.1,0-1.1-.6v-1.4a2.107,2.107,0,0,1,1.1-1.8l1.2-.7C42.8,191.6,43.3,191.9,43.3,192.6Z"/><path class="g" d="M47.6,196.5l15.8-9.2c.6-.3,1.1-.1,1.1.6v1.4a2.107,2.107,0,0,1-1.1,1.8l-15.8,9.2c-.6.3-1.1,0-1.1-.6v-1.4A2.653,2.653,0,0,1,47.6,196.5Z"/><path class="n" d="M43.3,200.2v1.4a2.107,2.107,0,0,1-1.1,1.8l-1.2.7c-.6.3-1.1,0-1.1-.6v-1.4a2.107,2.107,0,0,1,1.1-1.8l1.2-.7C42.8,199.3,43.3,199.5,43.3,200.2Z"/><path class="g" d="M47.6,204.1l15.8-9.2c.6-.3,1.1-.1,1.1.6v1.4a2.107,2.107,0,0,1-1.1,1.8l-15.8,9.2c-.6.3-1.1,0-1.1-.6v-1.4A2.653,2.653,0,0,1,47.6,204.1Z"/><path class="n" d="M43.3,207.8v1.4a2.107,2.107,0,0,1-1.1,1.8l-1.2.7c-.6.3-1.1,0-1.1-.6v-1.4a2.107,2.107,0,0,1,1.1-1.8l1.2-.7C42.8,206.9,43.3,207.2,43.3,207.8Z"/><path class="g" d="M47.6,211.6l15.8-9.2c.6-.3,1.1-.1,1.1.6v1.4a2.107,2.107,0,0,1-1.1,1.8l-15.8,9.2c-.6.3-1.1.1-1.1-.6v-1.4A2.653,2.653,0,0,1,47.6,211.6Z"/><path class="n" d="M43.3,215.3v1.4a2.107,2.107,0,0,1-1.1,1.8l-1.2.7c-.6.3-1.1,0-1.1-.6v-1.4a2.107,2.107,0,0,1,1.1-1.8l1.2-.7C42.8,214.4,43.3,214.7,43.3,215.3Z"/><path class="g" d="M47.6,218.8l15.8-9.2c.6-.3,1.1-.1,1.1.6v1.4a2.107,2.107,0,0,1-1.1,1.8l-15.8,9.2c-.6.3-1.1.1-1.1-.6v-1.4A2.653,2.653,0,0,1,47.6,218.8Z"/><path class="n" d="M43.3,222.5v1.4a2.107,2.107,0,0,1-1.1,1.8l-1.2.7c-.6.3-1.1,0-1.1-.6v-1.4a2.107,2.107,0,0,1,1.1-1.8l1.2-.7C42.8,221.6,43.3,221.9,43.3,222.5Z"/><path class="g" d="M69.3,273.9a.576.576,0,0,1-.6-.6V172.6a.576.576,0,0,1,.6-.6.645.645,0,0,1,.6.6V273.3C70,273.6,69.7,273.9,69.3,273.9Z"/><path class="n" d="M84.9,178.5a12.736,12.736,0,0,0-5.8,10.1c0,3.7,2.6,5.2,5.8,3.4a13.112,13.112,0,0,0,5.9-10.1C90.7,178.2,88.1,176.6,84.9,178.5Z"/><path class="j" d="M84.2,184.4a.749.749,0,0,1-.5-.1,1.425,1.425,0,0,1-.6-1.2,3.209,3.209,0,0,1,1.5-2.6h0a1.127,1.127,0,0,1,1.6.2,1.02,1.02,0,0,1,.2.9,3.551,3.551,0,0,1-1.5,2.7A1.482,1.482,0,0,1,84.2,184.4Z"/><path class="j" d="M87.2,184.9a2.011,2.011,0,0,0-2.1.2l-.9.5a5.65,5.65,0,0,0-2.6,4.6v.6a3.3,3.3,0,0,0,3.2-.3,10.094,10.094,0,0,0,3.2-3.3v-.1A1.926,1.926,0,0,0,87.2,184.9Z"/><path class="d" d="M94.9,177.1c0,1.5,1.2,2.1,2.6,1.3l23.8-13.7a5.628,5.628,0,0,0,2.6-4.3c0-1.5-1.1-2.1-2.6-1.3L97.5,172.8A5.371,5.371,0,0,0,94.9,177.1Z"/><path class="g" d="M94.9,184.2c0,.8.6,1.1,1.3.7l12.4-7.1a3.158,3.158,0,0,0,1.3-2.2c0-.8-.6-1.1-1.3-.7L96.2,182A2.485,2.485,0,0,0,94.9,184.2Z"/><path class="n" d="M68.8,169.2v14.7L243.1,83.2V68.6Z"/><path class="c" d="M68.8,169.2v14.7L243.1,83.2V68.6Z"/><path class="f" d="M81.6,166.6,173,113.8c1.4-.8,2.6-.2,2.6,1.3a5.523,5.523,0,0,1-2.6,4.3L81.6,172.2c-1.4.8-2.6.2-2.6-1.3A5.628,5.628,0,0,1,81.6,166.6Z"/><ellipse class="g" cx="34.4" cy="19.8" rx="34.4" ry="19.8" transform="translate(305.5 316.1)"/><ellipse class="g" cx="34.4" cy="19.8" rx="34.4" ry="19.8" transform="translate(119.7 366.4)"/><path class="o" d="M293.1,204.3a44.06,44.06,0,0,1,3.9,2.8,8.144,8.144,0,0,0,3.4,2.4c1.7.7,3.3.5,8-.3,5.8-.9,8.3-1.9,10.7-4,2.9-2.5,9.4-10,12.6-12.9,3.3-3.1,7.9-1.9,7.9-1.9a48.566,48.566,0,0,1-6.2,13c-2.5,3.6-7.2,7-9.4,8.8-3.4,2.8-5.2,4-12.7,4.5-5.7.4-6.4.6-11.1.4-1.7-.1-2.7-.1-5.5-.3a19.676,19.676,0,0,1-3.5-.6,13.09,13.09,0,0,1-3.7-1.5,10.1,10.1,0,0,1-3.5-3.9,5.457,5.457,0,0,1-.6-2.8,4.49,4.49,0,0,1,1-2.7.55.55,0,0,1,.5-.3,1.163,1.163,0,0,1,1,.2c1.8.9,3.6,2.2,5.4,2.9,1.6.6,2.8.8,2.6.5-.1-.3-1.1-.6-2-1.7-1-1.1-1.2-2.6-.6-3.1C292,203.3,292,203.4,293.1,204.3Z"/><path class="p" d="M341,190.4a8.069,8.069,0,0,0-5.7-.6c-2.9.8-5.2,2.7-8,5.7s-7.5,7.8-7.5,7.8,2.3,5.8,7.5,7.9l10.9-10.1Z"/><rect class="o" width="6.6" height="11.3" transform="translate(350.4 323.9)"/><path class="o" d="M338.7,326.7l-6.6.2-.3-11.9,6.9-.2Z"/><path class="e" d="M359.8,239.6c0,6.3-1.1,42.9-1.1,42.9.1,1.8,1.9,5,2,11.6.2,9.5-3.4,35.4-3.4,35.4a8.706,8.706,0,0,1-7.4.1s-3-35.2-4.2-44.6c-1-8.2-2.8-30.4-2.8-30.4l-3.1,26.7a36.978,36.978,0,0,1,.8,10.5c-.3,4.3-1.5,31.2-1.5,31.2a9.185,9.185,0,0,1-7.6.6s-4.6-38.2-4.7-42.2c-.1-4.5,1.7-50.8,1.7-50.8Z"/><path class="n" d="M355.4,193.3a5.773,5.773,0,0,1,3.2,3.3,15.927,15.927,0,0,1,1,5.7v12.9l.2,24.4c-9.5,5-21.5,5.3-31.6-2.1,0,0,.6-31.4.6-36.5v-.7a11.64,11.64,0,0,1,14.7-10.5l6,1.6,5.9,1.9Z"/><circle class="h" cx="9.1" cy="9.1" r="9.1" transform="translate(327.568 162.545) rotate(-13.279)"/><circle class="q" cx="9.1" cy="9.1" r="9.1" transform="translate(327.568 162.545) rotate(-13.279)"/><path class="h" d="M354.2,175.7s-1.5,6.9-2.1,8a3.353,3.353,0,0,1-1.8,1.5l.1-4.9Z"/><path class="q" d="M354.2,175.7s-1.5,6.9-2.1,8a3.353,3.353,0,0,1-1.8,1.5l.1-4.9Z"/><path class="h" d="M352.3,165.8a3.284,3.284,0,0,1,2.8,1c1.2,1.2.5,5.1-1,8.9l-2.8.3Z"/><path class="q" d="M352.3,165.8a3.284,3.284,0,0,1,2.8,1c1.2,1.2.5,5.1-1,8.9l-2.8.3Z"/><path class="o" d="M350.6,176c.6.3,1.3-.7,2-1.5a2.334,2.334,0,0,1,4,.7c1.1,2.4-1,5.5-2.7,6.1-3,1-3.5-1-3.5-1l-.2,11.3h0c-3.8,4.8-14.2,4.4-9.9-.6v-3.3a18.5,18.5,0,0,1-4.1.2c-2.2-.3-3.6-2.1-4.3-4.5-1.1-3.9-1.5-7-.6-14.6,1-8.3,10.7-8.4,16-5.2C352.6,166.9,350.6,176,350.6,176Z"/><path class="h" d="M350.6,177c.3,0,1.3-1.8,2-2.4,1-.9-.3-8.8-.3-8.8a3.707,3.707,0,0,0-.9-4c-1.3-1.5-3.5-1.6-7.2-2.2-2-.3-4.9-.9-6.9-1.2-2.3-.4-4.3-.9-5.9.5a4,4,0,0,0-1.1,4.6,4.479,4.479,0,0,0,2.3,2.2s1,.9,4.6,1.3a53.319,53.319,0,0,0,9.8-.2c1-.1,1.3.9,1.8,3.6C349.2,172.9,349.6,177,350.6,177Z"/><path class="q" d="M350.6,177c.3,0,1.3-1.8,2-2.4,1-.9-.3-8.8-.3-8.8a3.707,3.707,0,0,0-.9-4c-1.3-1.5-3.5-1.6-7.2-2.2-2-.3-4.9-.9-6.9-1.2-2.3-.4-4.3-.9-5.9.5a4,4,0,0,0-1.1,4.6,4.479,4.479,0,0,0,2.3,2.2s1,.9,4.6,1.3a53.319,53.319,0,0,0,9.8-.2c1-.1,1.3.9,1.8,3.6C349.2,172.9,349.6,177,350.6,177Z"/><path class="h" d="M352.3,166.4l3.4-1.8a1.916,1.916,0,0,0-2.5-.9h0A2.162,2.162,0,0,0,352.3,166.4Z"/><path class="q" d="M352.3,166.4l3.4-1.8a1.916,1.916,0,0,0-2.5-.9h0A2.162,2.162,0,0,0,352.3,166.4Z"/><path class="r" d="M340.3,187.7s5-1,6.7-1.9a5.563,5.563,0,0,0,2.4-2.4,7.388,7.388,0,0,1-1.4,2.8c-1.3,1.6-7.8,2.8-7.8,2.8Z"/><path class="b" d="M340.6,174.8a1,1,0,1,0,1-1A.945.945,0,0,0,340.6,174.8Z"/><path class="b" d="M341.6,171l2.1,1.2a1.282,1.282,0,0,0-.5-1.7,1.216,1.216,0,0,0-1.6.5Z"/><path class="r" d="M340.8,181.7l-2.3.9a1.112,1.112,0,0,0,1.5.7h0A1.309,1.309,0,0,0,340.8,181.7Z"/><path class="b" d="M332,171.9l1.9-1.5a1.147,1.147,0,0,0-1.6-.3h-.1A1.363,1.363,0,0,0,332,171.9Z"/><path class="b" d="M332.6,174.5a1,1,0,0,0,2,0,1.075,1.075,0,0,0-1-1,.945.945,0,0,0-1,1Z"/><path class="r" d="M337.7,173.6l-.4,6-3.1-1.1Z"/><path class="b" d="M350.4,331.9V331c-.6.3-2.1,5.9-4.7,8.3-2.1,1.9-4.9,4.1-5.6,6.2s3.9,3.4,5.9,3.1c2.3-.4,6.2-2,7.2-3.5s1.4-3.6,2.2-4.7,2.6-2.3,3.1-3.5a7.781,7.781,0,0,0-.4-3.5c-.3-1.2-.6-2.4-1-2.3v.7a5.456,5.456,0,0,1-3.3,1.1C352.7,332.8,350.4,332.6,350.4,331.9Z"/><path class="b" d="M332.1,324.9c-.3,0-.6.5-1.4,1.3a13.866,13.866,0,0,1-3.9,2.8c-2.5,1.2-7.3,3.1-9.4,4.1-1.4.6-1.3,2.3.1,3.2s4.8,1.6,8.8.7c2.2-.5,5.1-2.5,6.9-2.4s5.2.1,6.6-.8.8-2.9.4-4.6c-.4-1.9-.9-4.8-1.5-4.6v.6c-.8,1.2-4.9,1.7-6.6.8Z"/><path class="b" d="M343,254.7a25.737,25.737,0,0,1-9.2-5.3s1.8,3.3,7,6.4l-.7,23.3Z"/><path class="b" d="M155.3,211.7c7.3,0,8.4,4.2,5.6,16.3-1.2,5.1-11.4,13.4-11.4,13.4L163,253.5l-15.7-13.1-1.9-1.4s-6.3-1.8-7.9-12.1c-1.4-9.1,4.6-13.2,9.1-12.5C147.2,214.4,152.3,211.7,155.3,211.7Z"/><path class="o" d="M146.5,391.2l-1.8-1.6a16.927,16.927,0,0,1-3.9-6.3,9.828,9.828,0,0,1-.7-3.4v-3.7h-6.5v6h0v.1h0c.3,1.3,3.3,4.9,5,7.2a9.473,9.473,0,0,0,5.8,3.9C146.8,393.8,148,393,146.5,391.2Z"/><path class="o" d="M165.1,381.3a1.756,1.756,0,0,0,.5-.4c.5-.7.1-1.1-.3-1.6a25.573,25.573,0,0,1-1.1-2.4c-.3-.7-.7-2-.7-2v-5.1H157V376h0c.3,1.5,1.6,2.8,2.5,4,.7.9,2.4,1.3,3.4,1.6a6.6,6.6,0,0,0,1.4.1C164.6,381.5,164.9,381.5,165.1,381.3Z"/><path class="e" d="M134.8,282c-5,10.9-2,54.7-2.8,62.6-.9,9.2,1.5,34.8,1.5,34.8a6.821,6.821,0,0,0,6.5.3s6.1-37.3,7.2-46.4c1-8,2.9-25.6,2.9-25.6s2.5,30.8,2.1,33.5c-.5,5.4,4.7,32.3,4.7,32.3s2.2.8,6.5.2c0,0,1.9-35.2,2.4-41.7.8-10.9-.4-45-2.4-51.5Z"/><path class="b" d="M150.3,307.5l1.6-10.2s6.9-1.4,10-4.4a17.73,17.73,0,0,1-8.1,5.4l-1.8,7.8,1.6,23.2Z"/><path class="b" d="M140,381.2v-.9c.6.3,2.1,5.8,4.6,8.1,2,1.9,4.8,4,5.5,6.1s-3.9,3.4-5.8,3c-2.2-.4-6.1-2-7-3.4s-1.4-3.6-2.2-4.6-2.6-2.2-3-3.4a7.261,7.261,0,0,1,.4-3.4c.3-1.2.6-2.4,1-2.3v.7a5.386,5.386,0,0,0,3.2,1.1C137.7,382.1,140,381.9,140,381.2Z"/><path class="b" d="M163.5,374.8c.3,0,.7.5,1.5,1.3a14.585,14.585,0,0,0,3.8,2.7c2.4,1.2,7.1,3.1,9.3,4,1.3.6,1.3,2.2-.1,3.1s-4.7,1.6-8.7.7c-2.2-.5-5-2.5-6.8-2.4s-5.2.1-6.5-.8-.8-2.9-.4-4.5c.4-1.8.9-4.7,1.5-4.6v.6c.8,1.2,4.8,1.7,6.5.8Z"/><path class="s" d="M154.3,243.7a9.084,9.084,0,0,1,8.2,3.7c2.6,3.4,9.4,17.2,9.4,17.2s14.9-1,15.7-1.9c.7-.9.3-2.6.1-3.6s-.5-3.1-.7-3.7c-.4-1.1,1.2-.7,2.1.2s1.3,2.9,1.8,3.2,3.9-3.7,5.6-5.6,2.5-3.3,3.6-2.5c.8.6.3,1.7-.9,3.4a17.682,17.682,0,0,0-1.6,2.2c-.1.3.3.5.5.7.3.3.9.8,1,1.2v.7c.2.6.8.8,1,1.3.1.4,0,.8.1,1.2a2.543,2.543,0,0,1,.2.7,2.389,2.389,0,0,1-.5,1.4c-1.2,1.4-2.8,1.9-4.4,2.8-1.3.7-2.6,1-4.1,1.7s-19.7,5.4-22.4,3.9S155.9,254,155.9,254C151.8,247.5,154.3,243.7,154.3,243.7Z"/><path class="h" d="M143.7,244h0c-6.4.4-6.9,3.5-8.5,6.9-1.2,2.6-.8,5.7.1,8.4,0,0-2.7,33.1-3.5,38.7,11.2,6.3,30.1,3.3,33.5-1.3.1-1,0-53-11.7-53Z"/><path class="b" d="M139.4,214.6l1.9,3.1a1.717,1.717,0,0,1-2.5-.5v-.1A1.808,1.808,0,0,1,139.4,214.6Z"/><path class="o" d="M159.3,220.1c1.5.9,2.3,4.9,2.1,10.8-.2,6.8-2.4,8.5-3.5,8.9-1.1.5-3.2.2-5.3-.2v4.1s2.9,3.3,2.7,5.2c-.2,1.8-4.1,2.3-6.8.5a17.548,17.548,0,0,1-4.4-4.6V235a2.553,2.553,0,0,1-3.7.3c-2.3-1.5-2.4-5.3-1-6.6s4.2-.9,4.7.9a24.7,24.7,0,0,0,7.3-6.1C155.5,223,158.4,223.8,159.3,220.1Z"/><path class="b" d="M153.1,229.2a.882.882,0,0,1-.8.9.851.851,0,0,1-.1-1.7.765.765,0,0,1,.9.8Z"/><path class="r" d="M154.1,234.9l2,.6a1.1,1.1,0,0,1-1.2.8h-.1A1.081,1.081,0,0,1,154.1,234.9Z"/><path class="b" d="M160.1,226.5l-1.8-1.2a.984.984,0,0,1,1.4-.3h0A1.062,1.062,0,0,1,160.1,226.5Z"/><path class="b" d="M159.7,228.5a.817.817,0,0,1-.8.9h0a.974.974,0,0,1-1-.8.9.9,0,0,1,.8-1c.5.1,1,.4,1,.9Z"/><path class="r" d="M155.5,228l.2,5.2,2.7-.9Z"/><path class="r" d="M152.7,239.6c-2.2-.3-6.6-1.6-7.4-3.4a4.606,4.606,0,0,0,1.6,2.3c1.3,1.1,5.8,2.4,5.8,2.4v-1.3Z"/><path class="n" d="M199.6,411.4,185,403c-1.5-.9-2.4-3.2-2.4-6.1l-.1-64,14.7,8.5-.1,64.3C197.2,408.4,198.1,410.4,199.6,411.4Z"/><path class="t" d="M199.6,411.4,185,403c-1.5-.9-2.4-3.2-2.4-6.1l-.1-64,14.7,8.5-.1,64.3C197.2,408.4,198.1,410.4,199.6,411.4Z"/><path class="n" d="M199.7,411.4l-.1-.1c-1.5-.9-2.4-2.9-2.4-5.8l.1-64.3-14.7-8.5,12.7-7.4.1-.1h0l1.8-1h0l2-1.4.1-.1.1-.1c.1-.1.2-.2.3-.2l.1-.1.4-.3.3-.3c.1-.1.2-.2.3-.2l.1-.1.1-.1a2.652,2.652,0,0,0,.6-.5l.3-.3.1-.1,1-1,.1-.1.4-.4.2-.2.2-.2v-.2l.1-.1.4-.5a2.186,2.186,0,0,0,.3-.5l.1-.1h0c.1-.2.3-.4.4-.6s.2-.3.3-.5v-.1c.1-.2.2-.3.3-.5l.1-.2.3-.6h0l.2-.4c.1-.1.1-.3.2-.4a.367.367,0,0,0,.1-.3c0-.1.1-.2.1-.3.1-.3.2-.5.3-.8h0a6.37,6.37,0,0,0,.2-.7v-.1c.1-.2.1-.5.2-.7v-.1c0-.2.1-.4.1-.6h0a2.768,2.768,0,0,0,.1-.9v-.7c0-.4.1-.7.1-1.1v-.6h0v-3.5a2.2,2.2,0,0,0-.1-.8h0c0-.2-.1-.5-.1-.7a13.565,13.565,0,0,0-.6-2.9,14.244,14.244,0,0,1-.5-1.6,23.691,23.691,0,0,1-.9-3.6c0-.2-.1-.5-.1-.7a3.085,3.085,0,0,0-.1-.9v-.8c0-3.4,2.1-7.4,4.6-8.8.3-.1.5-.3.8-.3.2,0,.4-.1.6-.1h.5a.367.367,0,0,1,.3.1,4.878,4.878,0,0,1,.7.3l15,8.5h0c.1,0,.2.1.3.2a4.314,4.314,0,0,1,1.4,3.6v.9a27.556,27.556,0,0,1-1,6.3c-.1.5-.3,1-.4,1.6a1.268,1.268,0,0,0-.1.6,9.656,9.656,0,0,0-.3,1.8c0,.2-.1.4-.1.6l10.3-5.8,14.7,8.5v16.9c0,4.7-.4,7.9-1.1,9.7-.5,1.2-1.3,2-3.1,3a8.889,8.889,0,0,1-4.7,1.4,7.719,7.719,0,0,0-1.5.2l-.6.1c-.2,0-.4.1-.6.1-.4.1-.7.2-1.1.3l-.3.1c-.6.2-1.1.5-1.6.7-.1,0-.1.1-.2.1h-.2a4.872,4.872,0,0,1-.7.3,18.2,18.2,0,0,0-5.4,5.3,22.681,22.681,0,0,0-1.9,3.4,20.944,20.944,0,0,0-1.3,3.5l.8-.9a27.153,27.153,0,0,1,2.4-2.4,19.521,19.521,0,0,1,2.3-1.7c1.2-.7,2.1-1.2,2.8-.8h0l14.6,8.7h0l.2.1.1.1.1.1a.349.349,0,0,1,.1.2h0c0,.1.1.1.1.2a12.721,12.721,0,0,1,.7,4.6v20.2l-48.1,27.8a6.22,6.22,0,0,1-2.6.9H201a.367.367,0,0,1-.3-.1C200.3,411.8,200,411.6,199.7,411.4Z"/><path class="u" d="M236.6,349.1h0l14.6,8.7h0c-.7-.4-1.6.1-2.8.8a12.418,12.418,0,0,0-2.3,1.7c-.9.8-1.7,1.6-2.5,2.4a25.613,25.613,0,0,1-5.8,5.1l-.9.6c-5.3,3.1-9.7-.2-9.7-7.3a21.727,21.727,0,0,1,1-6.2,6.034,6.034,0,0,1,.8-.8,27.153,27.153,0,0,1,2.4-2.4,19.521,19.521,0,0,1,2.3-1.7C234.9,349.2,235.9,348.6,236.6,349.1Z"/><path class="u" d="M227.5,306.8l10.4-5.8,14.7,8.5h0l-12.7,7.3h0l-3.8,2h0l-.3.1-.1.1-.6.3-.4.1h-.1c-.2.1-.4.1-.6.2l-.4.1a1.268,1.268,0,0,1-.6.1h-.4c-.2,0-.5.1-.7.1h-.2a2.768,2.768,0,0,1-.9-.1h-.1c-.2-.1-.4-.1-.6-.2-.1,0-.1-.1-.2-.1h0a1,1,0,0,1-.5-.4h0l-.1-.1a2.652,2.652,0,0,1-.5-.6l-.1-.1a7.218,7.218,0,0,1-.9-2v-.1a4.253,4.253,0,0,1-.2-1.1v-.2a6.149,6.149,0,0,1-.1-1.4c0-.6-.1-1.2-.1-1.7A16.7,16.7,0,0,1,227.5,306.8Z"/><path class="u" d="M197.2,341.3l-14.7-8.5,12.7-7.4.1-.1h0l1.8-1h0l2-1.4.1-.1.1-.1c.1-.1.2-.2.3-.2l.1-.1.4-.3.3-.3c.1-.1.2-.2.3-.2l.1-.1.1-.1a2.652,2.652,0,0,0,.6-.5l.3-.3.1-.1,1-1,.1-.1.4-.4.2-.2.2-.2v-.1l.1-.1.1-.1c.1-.2.3-.3.4-.5l.3-.4.1-.1h0c.1-.2.3-.4.4-.6s.2-.3.3-.5v-.1c.1-.2.2-.3.3-.5,0-.1.1-.1.1-.2l.3-.6h0l.2-.4c.1-.1.1-.2.2-.4s.1-.2.1-.3.1-.2.1-.3c.1-.3.2-.5.3-.8h0a6.37,6.37,0,0,0,.2-.7v-.1c.1-.2.1-.5.2-.7V311c0-.2.1-.4.1-.6h0a2.768,2.768,0,0,0,.1-.9v-.7c0-.4.1-.7.1-1.1v-.6h0v-3.5a2.2,2.2,0,0,0-.1-.8v-.1h0l-.1-.7a13.565,13.565,0,0,0-.6-2.9c-.2-.6-.3-1.1-.5-1.6a23.691,23.691,0,0,1-.9-3.6c0-.2-.1-.5-.1-.7v-1.7c0-3.4,2.1-7.4,4.6-8.8.3-.1.5-.3.8-.3.2,0,.4-.1.6-.1h.5a.367.367,0,0,1,.3.1,4.878,4.878,0,0,1,.7.3l14.9,8.5a1.929,1.929,0,0,0-1-.3,2.2,2.2,0,0,0-.8.1,6.117,6.117,0,0,0-1.2.5,4,4,0,0,0-1.2,1,11.349,11.349,0,0,0-2.4,3.6l-.3.9a6.106,6.106,0,0,0-.3,1.3,15.172,15.172,0,0,0-.3,2.1v.8a13.448,13.448,0,0,0,.5,3.5,1.421,1.421,0,0,0,.2.6,4.875,4.875,0,0,0,.4,1.1,7.494,7.494,0,0,1,.5,1.6c.1.2.1.4.2.6a6.37,6.37,0,0,1,.2.7,18.456,18.456,0,0,1,.4,2.3h0v5c0,.3-.1.7-.1,1.1a.9.9,0,0,1-.1.5v.1h0l-.2.9-.1.6v.1c0,.1-.1.3-.1.4s-.1.3-.1.4v.2a1.69,1.69,0,0,1-.2.5h0c-.1.3-.2.5-.3.8s-.2.4-.3.7c-.1.2-.2.5-.3.7l-.3.6h0c-.1.1-.1.2-.2.3l-.2.3v.1c0,.1-.1.2-.2.3l-.1.1c0,.1-.1.1-.1.2-.1.2-.3.4-.4.6h0l-.1.1a796088946271.767,796088946271.767,0,0,1-.4.4l-.1.2-.3.3-.1.1-.1.1-.2.2-.1.1-.1.1-.2.2-.2.2-.1.1a9.428,9.428,0,0,1-1,1l-.1.1-.3.3c-.2.2-.4.3-.5.5l-.1.1-.1.1h-.1l-.3.2-.7.5-.1.1-.3.2-.2.1-2,1.4-1.8,1h-.1l-.1.1Z"/><g class="v"><path class="h" d="M253.5,341.4l-15.7-9.1.3-.5h0l.2-.2a6.726,6.726,0,0,0,.7-1.1l.1-.1c.2-.4.4-.8.7-1.3,0-.1.1-.2.1-.3v-.1a3.552,3.552,0,0,1,.4-.9c.1-.2.1-.3.2-.5v-.1c.1-.3.2-.5.3-.8s.1-.4.2-.7a6.373,6.373,0,0,1,.2-.7,1.7,1.7,0,0,0,.1-.7c0-.3.1-.5.1-.7v-.1c0-.2.1-.5.1-.7s0-.3.1-.4v-.1a22.526,22.526,0,0,0,.3-3.8v-.1l.1-3.6V297.6l15.6,9.2h0V324l-.1,3.6v.1c-.1,1.3-.2,2.6-.3,3.8v.2a.6.6,0,0,1-.1.4c-.1.1-.1.5-.1.7v.1c0,.2-.1.5-.1.7a1.854,1.854,0,0,1-.2.7,6.375,6.375,0,0,1-.2.7,6.373,6.373,0,0,0-.2.7,6.889,6.889,0,0,0-.3.8v.1c-.1.2-.1.3-.2.5a7.932,7.932,0,0,1-.4.9v.1l-.1.3a5.387,5.387,0,0,1-.7,1.3l-.1.1a6.726,6.726,0,0,1-.7,1.1c-.1.1-.1.2-.2.2v.1Z"/><path class="h" d="M242,371.3V357.1l-.2.2c.6-.7,1.2-1.3,1.9-2l.1-.1.2-.2.1-.1a21.033,21.033,0,0,1,4.1-3.1h0l.2-.1h0l.1-.1h0a5.359,5.359,0,0,1,1.1-.5.367.367,0,0,1,.3-.1l.1-.1c.2-.1.5-.2.7-.3a.6.6,0,0,1,.4-.1h.1a1.268,1.268,0,0,1,.6-.1c.2,0,.3-.1.4-.1h.9a.9.9,0,0,1,.5.1h.1l.3.1c.2.1.3.1.4.2a1.381,1.381,0,0,1,.4.3c.2.1.3.3.5.4.1.1.2.2.2.3l.1.1v.1c.1.1.1.2.2.3s.2.3.3.4.1.3.2.4.1.4.2.5a.756.756,0,0,1,.1.4,2.073,2.073,0,0,0,.2.6l.1.4v.1c.1.2.1.5.2.7v.3a30.3,30.3,0,0,1,.4,3.6v.1l.1,3.3v17.4Z"/><path class="h" d="M233.7,361.7l-15.4-8.9c-1-.5-1.6-2-1.6-3.9a13,13,0,0,1,2-6.3l.3-.4c-.1.1-.2.2-.2.3l15.7,9.1c0,.1-.1.1-.1.2a10.963,10.963,0,0,0-2,6.3C232.3,359.9,232.8,361.1,233.7,361.7Z"/><path class="b" d="M253.5,341.4l-15.7-9.1.3-.5h0l.2-.2a6.726,6.726,0,0,0,.7-1.1l.1-.1c.2-.4.4-.8.7-1.3,0-.1.1-.2.1-.3v-.1a3.552,3.552,0,0,1,.4-.9c.1-.2.1-.3.2-.5v-.1c.1-.3.2-.5.3-.8s.1-.4.2-.7a6.373,6.373,0,0,1,.2-.7,1.7,1.7,0,0,0,.1-.7c0-.3.1-.5.1-.7v-.1c0-.2.1-.5.1-.7s0-.3.1-.4v-.1a22.526,22.526,0,0,0,.3-3.8v-.1l.1-3.6V297.6l15.6,9.2h0V324l-.1,3.6v.1c-.1,1.3-.2,2.6-.3,3.8v.2a.6.6,0,0,1-.1.4c-.1.1-.1.5-.1.7v.1c0,.2-.1.5-.1.7a1.854,1.854,0,0,1-.2.7,6.375,6.375,0,0,1-.2.7,6.373,6.373,0,0,0-.2.7,6.889,6.889,0,0,0-.3.8v.1c-.1.2-.1.3-.2.5a7.932,7.932,0,0,1-.4.9v.1l-.1.3a5.387,5.387,0,0,1-.7,1.3l-.1.1a6.726,6.726,0,0,1-.7,1.1c-.1.1-.1.2-.2.2v.1Z"/><path class="b" d="M242,371.3V357.1l-.2.2c.6-.7,1.2-1.3,1.9-2l.1-.1.2-.2.1-.1a21.033,21.033,0,0,1,4.1-3.1h0l.2-.1h0l.1-.1h0a5.359,5.359,0,0,1,1.1-.5.367.367,0,0,1,.3-.1l.1-.1c.2-.1.5-.2.7-.3a.6.6,0,0,1,.4-.1h.1a1.268,1.268,0,0,1,.6-.1c.2,0,.3-.1.4-.1h.9a.9.9,0,0,1,.5.1h.1l.3.1c.2.1.3.1.4.2a1.381,1.381,0,0,1,.4.3c.2.1.3.3.5.4.1.1.2.2.2.3l.1.1v.1c.1.1.1.2.2.3s.2.3.3.4.1.3.2.4.1.4.2.5a.756.756,0,0,1,.1.4,2.073,2.073,0,0,0,.2.6l.1.4v.1c.1.2.1.5.2.7v.3a30.3,30.3,0,0,1,.4,3.6v.1l.1,3.3v17.4Z"/><path class="b" d="M233.7,361.7l-15.4-8.9c-1-.5-1.6-2-1.6-3.9a13,13,0,0,1,2-6.3l.3-.4c-.1.1-.2.2-.2.3l15.7,9.1c0,.1-.1.1-.1.2a10.963,10.963,0,0,0-2,6.3C232.3,359.9,232.8,361.1,233.7,361.7Z"/><path class="e" d="M233.8,361.8h0l-.1-.1c-.9-.6-1.4-1.9-1.4-3.6a13,13,0,0,1,2-6.3c0-.1.1-.1.1-.2l-15.7-9.1c.1-.1.2-.2.2-.3a4.35,4.35,0,0,1,.6-.7l.3-.3a1.38,1.38,0,0,1,.4-.3,3.592,3.592,0,0,1,1-.7h0c.1-.1.3-.1.4-.2l.2-.1h0a13.063,13.063,0,0,1,2.1-.8l.3-.1c.6-.1,1.3-.2,2-.3a13.407,13.407,0,0,0,6.5-2l.5-.3a1.381,1.381,0,0,0,.4-.3c.1-.1.2-.1.3-.2h0l.5-.4.5-.4.1-.1.1-.1.1-.1.2-.2.2-.2c.1-.1.3-.2.4-.4l.2-.2.1-.1.3-.3.4-.4.1-.1.2-.3c.1-.1.2-.3.3-.4l15.7,9.1.3-.4v.1l.2-.2a6.726,6.726,0,0,0,.7-1.1l.1-.1a8.264,8.264,0,0,1,.7-1.3l.1-.3v-.1c.1-.3.3-.6.4-.9.1-.2.1-.3.2-.5v-.1c.1-.3.2-.5.3-.8s.1-.4.2-.7c.1-.2.1-.5.2-.7s.1-.5.2-.7a1.952,1.952,0,0,0,.1-.7v-.1c0-.2.1-.4.1-.7s0-.3.1-.4v-.2a22.524,22.524,0,0,0,.3-3.8v-.1l.1-3.6V306.6h0L242,297.4l6.4-3.7,3.3-1.9,2.9-1.7,1.1-.6c.3-.1.6-.3.9-.4a16.923,16.923,0,0,1,3.1-1.3l.3-.1a3.4,3.4,0,0,1,1-.1c.2,0,.3.2.4.3l15.8,9a1.456,1.456,0,0,1,.6.9c0,.1.1.3.1.4a.9.9,0,0,0,.1.5v1.8a11.482,11.482,0,0,1-.1,1.9v.4a.6.6,0,0,1-.1.4c-.1.1,0,.3-.1.4s0,.3-.1.4a2.2,2.2,0,0,0-.1.8c-.1.3-.1.5-.2.8v.1a21.488,21.488,0,0,0,2-9v-1.2a22.8,22.8,0,0,0-1.3-6.9,16.087,16.087,0,0,1-1-5.8c0-3.6,0-5.6,7.7-10.1l12.6-7.2,15.7,9.1v64.1c0,5.3-3.3,11.6-7.3,13.9l-48.1,27.8V363l-.1-3.3v-.1a32.917,32.917,0,0,0-.4-3.6v-.3a1.445,1.445,0,0,0-.2-.7v-.1l-.1-.4c-.1-.2-.1-.4-.2-.6a.756.756,0,0,1-.1-.4c-.1-.1-.1-.4-.2-.5-.1-.2-.1-.3-.2-.4a1.38,1.38,0,0,0-.3-.4c-.1-.1-.1-.2-.2-.3v-.1l-.1-.1c-.1-.1-.2-.2-.2-.3a2.182,2.182,0,0,0-.5-.4c-.1-.1-.3-.2-.4-.3a.758.758,0,0,0-.4-.2l-.3-.1h-.1c-.2,0-.3-.1-.5-.1h-.9a.6.6,0,0,0-.4.1c-.2,0-.4.1-.6.1h-.1c-.1,0-.2.1-.4.1a4.878,4.878,0,0,0-.7.3l-.1.1c-.1,0-.2.1-.3.1-.4.2-.7.3-1.1.5h0l-.1.1h0l-.2.1h0a21.491,21.491,0,0,0-4.1,3.2l-.1.1-.2.2-.1.1c-.6.6-1.2,1.3-1.9,2a22.657,22.657,0,0,1-4.3,3.9h0c-.2.1-.4.3-.5.3a3.36,3.36,0,0,1-1.4.5,1.387,1.387,0,0,1-.9,0A9.4,9.4,0,0,1,233.8,361.8Z"/><path class="q" d="M257.6,306.5,242,297.3l6.4-3.7,3.3-1.9,2.9-1.7,1.1-.6c.3-.1.6-.3.9-.4a16.923,16.923,0,0,1,3.1-1.3l.3-.1a3.4,3.4,0,0,1,1-.1c.2,0,.3.2.4.3l15.6,9c-.1,0-.1-.1-.2-.1a.349.349,0,0,1-.2-.1h-.7c-.2,0-.4.1-.6.1a23.771,23.771,0,0,0-5.1,2.4l-2.9,1.7-3.3,1.9Z"/><path class="q" d="M277.9,324c-1.5-1.5-2.2-4-2.2-7a5.7,5.7,0,0,1,.1-1.3v-.1a17.959,17.959,0,0,1,.2-2.2c0-.2.1-.4.1-.7.1-.5.1-.9.2-1.3s.1-.8.2-1.2c0-.2.1-.4.1-.6.2-.8.4-1.6.6-2.5.1-.6.3-1.1.4-1.6h0a23.062,23.062,0,0,0,2-8.9,4.483,4.483,0,0,0-.1-1.2,22.8,22.8,0,0,0-1.3-6.9,16.087,16.087,0,0,1-1-5.8c0-3.6,0-5.6,7.7-10.1l12.6-7.2,15.7,9.1-12.7,7.3c-7.7,4.4-7.7,6.5-7.7,10.1a16.468,16.468,0,0,0,1,5.8,20.573,20.573,0,0,1,1.3,6.9,4.819,4.819,0,0,1,0,1.2c0,7.1-4.3,15.4-9.7,18.5C282.4,326.1,279.7,325.9,277.9,324Z"/><path class="q" d="M234.4,351.7l-15.7-9.1c.1-.1.2-.2.2-.3a4.35,4.35,0,0,1,.6-.7l.3-.3a1.38,1.38,0,0,1,.4-.3,3.592,3.592,0,0,1,1-.7h0c.1-.1.3-.1.4-.2l.2-.1h0a13.063,13.063,0,0,1,2.1-.8l.3-.1c.6-.1,1.3-.2,2-.3a13.407,13.407,0,0,0,6.5-2l.5-.3a1.381,1.381,0,0,0,.4-.3c.1-.1.2-.1.3-.2h0l.5-.4.5-.4.1-.1.1-.1.1-.1.2-.2.2-.2c.1-.1.3-.2.4-.4l.2-.2.1-.1.3-.3.4-.4.1-.1.2-.3c.1-.1.2-.3.3-.4l15.7,9.1-.1.1c-.1.1-.2.3-.3.4s-.1.2-.2.2l-.1.1c-.2.3-.5.5-.7.8l-.1.1-.1.1-.4.4-.4.4-.1.1-.2.1a4.44,4.44,0,0,1-1.1.8l-.1.1a5.669,5.669,0,0,1-1.3.8l-.5.2-.5.3a17.061,17.061,0,0,1-3.8,1.3l-.7.1h-.3l-.6.1h0a8.083,8.083,0,0,0-2.7.5l-.9.3h0l-.6.3h0l-.2.1c-.1.1-.3.1-.4.2a8.65,8.65,0,0,0-1,.7l-.3.3-.3.3-.4.4c-.1.1-.2.2-.2.3C234.5,351.5,234.5,351.6,234.4,351.7Z"/></g><g class="w"><path class="h" d="M282.3,317.9l-15.7-9.1c-.1,0-.1-.1-.2-.1-.9-.7-1.3-2-1.3-3.7v-.9a34.405,34.405,0,0,1,1-6.3,34.028,34.028,0,0,0,.7-3.4l3.4-2,.1-.1h.1l2.7-1.4h.1a20.294,20.294,0,0,1,2.6-1.1h.1l.3-.1c.1,0,.3-.1.4-.1h.1c.2,0,.3-.1.5-.1l.4-.1h.9a.749.749,0,0,1,.5.1h.4c.2.1.4.1.6.2l.2.1a3.744,3.744,0,0,1,1.3,1.2l.1.1a2.506,2.506,0,0,1,.4.7c0,.1.1.1.1.2v.1l.3.9.1.2a4.253,4.253,0,0,1,.2,1.1v.2c.1,1,.2,2.1.2,3.2a38.167,38.167,0,0,1-1.3,9.5,27.557,27.557,0,0,0-1,6.3v.9a4.76,4.76,0,0,0,1.3,3.6Z"/><path class="h" d="M257.6,299.8,242,290.7V273.8a36.36,36.36,0,0,1,.5-7.4c.5-3,1.4-3.9,3.7-5.3a8.968,8.968,0,0,1,4.8-1.4,7.772,7.772,0,0,0,1.6-.2l.4-.1.7-.2c.3-.1.6-.2,1-.3.1,0,.3-.1.4-.1a11.11,11.11,0,0,0,1.6-.7h.1a4.053,4.053,0,0,0,.9-.5c2.9-1.7,5.6-5,7.5-9,.1-.3.2-.5.3-.8l-.4.4c.5-.5,1-1,1.5-1.6a28.31,28.31,0,0,1,5.8-5.1,8.8,8.8,0,0,1,1-.6c5.3-3.1,9.7.2,9.7,7.3a24.008,24.008,0,0,1-2.2,9.5c-1.8,4.1-4.6,7.4-7.5,9a3.552,3.552,0,0,1-.9.4h-.1a7.742,7.742,0,0,1-1.6.7l-.4.1c-.3.1-.6.2-1,.3a6.375,6.375,0,0,0-.7.2l-.4.1c-.5.1-1.1.1-1.6.2a9.23,9.23,0,0,0-4.8,1.4c-2.4,1.4-3.2,2.3-3.7,5.3a46.021,46.021,0,0,0-.5,7.4V294h0Z"/><path class="h" d="M259.1,251.5l-15.7-9.1c-.9-.6-1.3-2.9-1.3-8.7l-.1-16.8,15.7,9.1v16.9c0,5.8.4,8.1,1.4,8.6Z"/><path class="t" d="M282.3,317.9l-15.7-9.1c-.1,0-.1-.1-.2-.1-.9-.7-1.3-2-1.3-3.7v-.9a34.405,34.405,0,0,1,1-6.3,34.028,34.028,0,0,0,.7-3.4l3.4-2,.1-.1h.1l2.7-1.4h.1a20.294,20.294,0,0,1,2.6-1.1h.1l.3-.1c.1,0,.3-.1.4-.1h.1c.2,0,.3-.1.5-.1l.4-.1h.9a.749.749,0,0,1,.5.1h.4c.2.1.4.1.6.2l.2.1a3.744,3.744,0,0,1,1.3,1.2l.1.1a2.506,2.506,0,0,1,.4.7c0,.1.1.1.1.2v.1l.3.9.1.2a4.253,4.253,0,0,1,.2,1.1v.2c.1,1,.2,2.1.2,3.2a38.167,38.167,0,0,1-1.3,9.5,27.557,27.557,0,0,0-1,6.3v.9a4.76,4.76,0,0,0,1.3,3.6Z"/><path class="t" d="M257.6,299.8,242,290.7V273.8a36.36,36.36,0,0,1,.5-7.4c.5-3,1.4-3.9,3.7-5.3a8.968,8.968,0,0,1,4.8-1.4,7.772,7.772,0,0,0,1.6-.2l.4-.1.7-.2c.3-.1.6-.2,1-.3.1,0,.3-.1.4-.1a11.11,11.11,0,0,0,1.6-.7h.1a4.053,4.053,0,0,0,.9-.5c2.9-1.7,5.6-5,7.5-9,.1-.3.2-.5.3-.8l-.4.4c.5-.5,1-1,1.5-1.6a28.31,28.31,0,0,1,5.8-5.1,8.8,8.8,0,0,1,1-.6c5.3-3.1,9.7.2,9.7,7.3a24.008,24.008,0,0,1-2.2,9.5c-1.8,4.1-4.6,7.4-7.5,9a3.552,3.552,0,0,1-.9.4h-.1a7.742,7.742,0,0,1-1.6.7l-.4.1c-.3.1-.6.2-1,.3a6.375,6.375,0,0,0-.7.2l-.4.1c-.5.1-1.1.1-1.6.2a9.23,9.23,0,0,0-4.8,1.4c-2.4,1.4-3.2,2.3-3.7,5.3a46.021,46.021,0,0,0-.5,7.4V294h0Z"/><path class="t" d="M259.1,251.5l-15.7-9.1c-.9-.6-1.3-2.9-1.3-8.7l-.1-16.8,15.7,9.1v16.9c0,5.8.4,8.1,1.4,8.6Z"/><path class="h" d="M282.4,317.9l-.1-.1h0l-.3-.2c-.9-.7-1.3-1.9-1.3-3.6v-.9a34.405,34.405,0,0,1,1-6.3,34.024,34.024,0,0,0,1.3-9.5c0-1.1-.1-2.1-.2-3.2v-.2a4.253,4.253,0,0,0-.2-1.1l-.1-.2-.3-.9v-.1a.31.31,0,0,0-.1-.2,4.349,4.349,0,0,0-.4-.7l-.1-.1a3.745,3.745,0,0,0-1.3-1.2l-.2-.1a1.421,1.421,0,0,0-.6-.2h-.4c-.2,0-.3-.1-.5-.1h-.9l-.4.1c-.2,0-.3.1-.5.1h-.1c-.1,0-.3.1-.4.1l-.3.1h0a20.292,20.292,0,0,0-2.6,1.1h-.1l-2.7,1.4h-.1l-.1.1-3.4,2-9.4,5.4V294h0V282.9a36.36,36.36,0,0,1,.5-7.4c.5-3,1.4-3.9,3.7-5.3a8.968,8.968,0,0,1,4.8-1.4,7.772,7.772,0,0,0,1.6-.2l.4-.1a1.854,1.854,0,0,0,.7-.2c.3-.1.6-.2,1-.3l.4-.1c.5-.2,1.1-.5,1.6-.7h.1c.3-.1.6-.3.9-.4,2.9-1.7,5.6-5,7.5-9a24.008,24.008,0,0,0,2.2-9.5c0-7.1-4.4-10.4-9.7-7.3a8.8,8.8,0,0,1-1,.6,31.2,31.2,0,0,0-5.8,5.1c-.5.5-1,1.1-1.5,1.6a16.379,16.379,0,0,1-2.5,2.1l-.3.2-.4.2a7.457,7.457,0,0,1-1.2.7l-.4.1c-.1,0-.2.1-.3.1s-.2.1-.3.1a1.268,1.268,0,0,1-.6-.1c-.9-.5-1.4-2.8-1.4-8.7V226.1L241.9,217l48.2-27.9c.2-.1.3-.2.5-.3s.3-.2.5-.2h0l.5-.2a.9.9,0,0,1,.5-.1c.2,0,.4-.1.6-.1a4.645,4.645,0,0,1,2.3.6l15.5,8.9h0a3.179,3.179,0,0,1,1.2,1.1,2.185,2.185,0,0,1,.3.5c.1.1.1.2.2.3.1.2.2.5.3.7,0,.1.1.3.1.4a10.116,10.116,0,0,1,.4,2.9v64.1L300.3,275l-.2.1-.2.1h0l-2.5,1.6h0c-1,.7-2,1.4-2.9,2.1l-.1.1-.1.1-.7.6-.1.1-.3.3-.6.6-.4.4a3.171,3.171,0,0,0-.5.6l-.3.4-.5.6-.3.4-.1.1-.1.1c-.1.2-.3.4-.4.6s-.2.3-.2.4l-.1.1c-.2.4-.4.8-.6,1.3v.1a1.421,1.421,0,0,0-.2.6h0c-.1.2-.1.4-.2.6l-.1.1-.2.7c-.1.2-.1.5-.2.7a6.375,6.375,0,0,1-.2.7,1.7,1.7,0,0,0-.1.7c0,.2-.1.5-.1.8h0c0,.2-.1.5-.1.7s-.1.6-.1.9v2.4a22.017,22.017,0,0,0,1.3,8,15.484,15.484,0,0,1,1,5.2v.8c0,3.4-2.1,7.4-4.6,8.8a2.976,2.976,0,0,1-1.5.5h-.9l-.2-.1a.1.1,0,0,1-.1-.1C282.6,318,282.5,318,282.4,317.9Z"/><path class="x" d="M257.6,225.9l-15.7-9.1,48.2-27.9c.2-.1.3-.2.5-.3s.3-.2.5-.2h0l.5-.2a.9.9,0,0,1,.5-.1c.2,0,.4-.1.6-.1a4.645,4.645,0,0,1,2.3.6l15.3,8.8c-.1-.1-.3-.1-.4-.2h-.1c-.1,0-.3-.1-.4-.1h-1.5c-.2,0-.4.1-.6.1l-.3.1-.6.2a5.738,5.738,0,0,0-.7.4Z"/></g><g class="y"><path class="z" d="M233,312.4l-15.6-9.2h0c-.6-.4-.8-1.4-.8-3.6a23.278,23.278,0,0,1,.6-5.3,21.9,21.9,0,0,0-1.2,3.3c1.5-5.4,4.9-10.6,8.8-12.8,2.6-1.5,5-1.6,6.9-.2,1.8,1.4,2.8,4,2.8,7.5v1.4a16.354,16.354,0,0,1-.2,2.2v.5c-.1.5-.1,1-.2,1.5-.1.3-.1.6-.2.9s-.1.6-.2.9c-.2.7-.3,1.5-.5,2.3a27.4,27.4,0,0,0-1,6.9C232.2,311,232.3,312,233,312.4Z"/><path class="z" d="M197.2,334.7l-15.7-9,.1-64.3a18.739,18.739,0,0,1,1.8-7.4l15.7,9a16.264,16.264,0,0,0-1.8,7.5Z"/><path class="aa" d="M233,312.4l-15.6-9.2h0c-.6-.4-.8-1.4-.8-3.6a23.278,23.278,0,0,1,.6-5.3h0c1.8-4.1,4.5-7.7,7.7-9.5,2.6-1.5,5-1.6,6.9-.2,1.8,1.4,2.8,4,2.8,7.5v1.4a16.354,16.354,0,0,1-.2,2.2v.5c-.1.5-.1,1-.2,1.5-.1.3-.1.6-.2.9s-.1.6-.2.9c-.2.7-.3,1.5-.5,2.3a27.4,27.4,0,0,0-1,6.9C232.2,311,232.3,312,233,312.4Z"/><path class="ab" d="M197.2,334.7l-15.7-9,.1-64.3a18.739,18.739,0,0,1,1.8-7.4l15.7,9a16.264,16.264,0,0,0-1.8,7.5Z"/><path class="z" d="M197.2,334.7V270.5A19.218,19.218,0,0,1,199,263l-15.7-9c0-.1.1-.2.1-.3.1-.1.1-.3.2-.4l.3-.6c.1-.2.3-.5.4-.7l.1-.2a.1.1,0,0,1,.1-.1c.1-.2.3-.4.4-.6h0l.1-.2.3-.3.3-.3.1-.1c.1-.2.3-.3.4-.5l.2-.2.1-.1.1-.1.2-.1h0l.3-.3a.1.1,0,0,0,.1-.1l.2-.2.1-.1h0l.2-.1c.1-.1.2-.1.2-.2s.1-.1.2-.2.2-.1.3-.2c.2-.1.3-.2.5-.3l48.1-27.7,15.7,9.1V243l.2-.2a22.657,22.657,0,0,1,4.3-3.9h.1c.2-.1.3-.2.5-.3a2.729,2.729,0,0,1,3-.1l15.6,9a.215.215,0,0,1,.2.2l.1.1a4.532,4.532,0,0,1,1.1,1.9c0,.2.1.4.1.6,0,.3.1.7.1,1a11.352,11.352,0,0,1-1.3,5.1,9.062,9.062,0,0,1-3.3,3.7l-.6.3h0a9.16,9.16,0,0,1-4.3,1.1,13.407,13.407,0,0,0-6.5,2,21.954,21.954,0,0,0-2.5,1.7l-.1.1a9.015,9.015,0,0,0-1,.9v.1h0a13.655,13.655,0,0,0-1.9,2.3h0a12.746,12.746,0,0,0-.7,1.2l-.1.2v.1a3.7,3.7,0,0,0-.5,1.1v.1c0,.1-.1.2-.1.3-.2.4-.3.7-.5,1.2l-.1.2a10.26,10.26,0,0,0-.4,1.4v.2c-.1.4-.2.8-.3,1.3,0,.1-.1.3-.1.4v.1c-.1.3-.1.6-.2,1,0,.2-.1.4-.1.6s-.1.6-.1.9v.6c0,.3-.1.6-.1,1v.7l-.2,5.2v16.9l-4.4,2.6-4.2,2.4-4,2.3c-2.8,1.6-4.8,2.5-6,2.5H234a1.854,1.854,0,0,1-.7-.2h0c-.6-.4-.8-1.4-.8-3.6a26.758,26.758,0,0,1,1-6.9c.2-.8.4-1.6.5-2.3.1-.3.1-.6.2-.9s.1-.6.2-.9c.1-.5.1-1,.2-1.5v-.5c.1-.8.1-1.5.2-2.2v-1.4c0-3.5-1-6.1-2.8-7.5s-4.3-1.3-6.9.2c-3.1,1.8-5.9,5.4-7.7,9.5a10.639,10.639,0,0,0-.9,2.5,6.889,6.889,0,0,1-.3.8c-.1.2-.2.7-.3,1v.2c-.1.3-.1.7-.2,1l-.3,2.1v1.3a4.483,4.483,0,0,0,.1,1.2,22.8,22.8,0,0,0,1.3,6.9,15.4,15.4,0,0,1,.9,3.7v.1h0v.3c0,.5.1,1.1.1,1.6,0,3.6,0,5.6-7.7,10.1Z"/><path class="aa" d="M260.7,238.4l15.6,9a2.936,2.936,0,0,0-3,.2,2.186,2.186,0,0,1-.5.3l-.1.1h0a19.987,19.987,0,0,0-4.3,3.9,26.055,26.055,0,0,1-6.5,5.5l-.3.2-.1.1h-.1c-.2.1-.5.3-.7.4l-.4.2-.1.1h-.1l-.5.2a.9.9,0,0,1-.5.1H259l-.5.1c-.2,0-.3.1-.5.1h-1c-.1,0-.3-.1-.4-.1s-.3-.1-.4-.1a.758.758,0,0,1-.4-.2h-.1c-.1-.1-.2-.1-.3-.2s-.2-.1-.3-.2H255V258c-.1-.1-.2-.1-.3-.2l-.3-.3v-.1a2.506,2.506,0,0,1-.4-.7v-.1c-.1-.1-.1-.2-.2-.3s-.1-.3-.2-.4v-.2c0-.1-.1-.3-.1-.4a2.074,2.074,0,0,0-.2-.6,1.087,1.087,0,0,1-.1-.5c0-.2-.1-.4-.1-.7,0-.2-.1-.4-.1-.6s-.1-.5-.1-.7a1.268,1.268,0,0,0-.1-.6c0-.2-.1-.5-.1-.8v-1.6l-.1-2.9v-3.1c.1-.1.1-.2.2-.2a22.657,22.657,0,0,1,4.3-3.9h.1a2.186,2.186,0,0,1,.5-.3A2.471,2.471,0,0,1,260.7,238.4Z"/><path class="aa" d="M199,263l-15.7-9.1c0-.1.1-.2.1-.3.1-.1.1-.3.2-.4l.3-.6c.1-.2.3-.5.4-.7a.349.349,0,0,1,.1-.2c.1-.2.3-.4.4-.6h0l.1-.2.3-.3c.1-.1.2-.3.3-.4.1-.2.3-.3.4-.5l.2-.2.1-.1.2-.2h0l.3-.3a.1.1,0,0,0,.1-.1l.3-.3h0l.2-.1c.1-.1.3-.2.4-.4.1-.1.2-.1.3-.2.2-.1.3-.2.5-.3l48.1-27.7,15.7,9.1-21.1,12.2-27,15.6a2.093,2.093,0,0,0-.6.4,2.182,2.182,0,0,0-.5.4c-.1.1-.2.1-.3.2a1.205,1.205,0,0,0-.5.5l-.6.6a15.758,15.758,0,0,0-1.2,1.5c-.1.2-.3.4-.4.6A21.158,21.158,0,0,1,199,263Z"/></g><path class="o" d="M309.6,217.5a30.8,30.8,0,0,1,4.2,2.3,9.34,9.34,0,0,0,3.7,1.9c1.8.4,15.8-4.3,18.3-6.3,5.3-4.1,9.8-11.7,12.3-14.6,2.1-2.4,4.4-6,7-6,4.3,1.3,3.3,7.6-.3,13.3a51.1,51.1,0,0,1-14.9,14.8c-3.1,2-17.2,5.7-21.9,6-1.4.1-2.5.4-5.2.8a12.967,12.967,0,0,1-3.4.2,14.192,14.192,0,0,1-4-1.2,10.137,10.137,0,0,1-4-3.4,5.234,5.234,0,0,1-1-2.7,4.465,4.465,0,0,1,.6-2.8.781.781,0,0,1,.4-.4,1.183,1.183,0,0,1,1,.1,57.148,57.148,0,0,0,5.8,2.1c1.6.4,2.8.4,2.7.1-.2-.3-1.1-.5-2.2-1.4s-1.6-2.4-1-3C308.4,216.6,308.3,216.8,309.6,217.5Z"/><path class="p" d="M355.5,193.3c3.1,1.5,4.4,3.9,3,9.1-1.3,4.7-6.1,12.7-9.8,16.6,0,0-6.5-3.1-9.9-7.1,3.4-5.2,5-8.3,8.2-12.7S353.6,192.8,355.5,193.3Z"/><path class="o" d="M337,378.6c2.3-2.7,4.2-7.2,5-8,2.4-2.3,5.5-36.1,5.5-36.1-6-1.1-9.2,3.3-10.2,7.6s-4.8,25.2-4.8,25.2"/><path class="e" d="M348.8,334.3s-5.5-.8-8.8,2.1c-3.9,3.4-4.3,8.8-7,25,.7,2,4.7,4.3,11.9,3.4Z"/><path class="e" d="M371.3,380.2c2.7,5.7,9.7,22.7,12.4,34.4,2.6,11,3.6,18.6,0,21.3s-13.8,1-20.2-12.7c-2-4.3-9.6-17.6-9.6-17.6a37.661,37.661,0,0,1-7.6-3.6s-18.8.5-27.9-1.4-18.8-13-15-14.1c6.7-2,19.8-3.4,35-4.4Z"/><path class="b" d="M327.2,398.4c4.1,1,10.2-.3,13.7-1.4a9.23,9.23,0,0,1,.1-3.7,12.457,12.457,0,0,0,1.5,4.6l1.4.8c2.3,1.2,8.6,4.4,9.7,3.4a12.589,12.589,0,0,1,7-4.5c-2,1.4-7.7,5.4-5.6,10.1l-1.2-2.2a37.661,37.661,0,0,1-7.6-3.6s-10.5.3-19.6-.3l-10.8-7.5A22.281,22.281,0,0,1,327.2,398.4Z"/><path class="o" d="M337.8,411.6c2,1.8,5,3.2,7.1,2.7s5.1-.6,6.3,3.6c1.4,4.8,5.7,7.7,8.1,10.3s1.6,6.6.4,9.3c-2.1,4.6-5.2,1.8-6.8-1.1a69.977,69.977,0,0,0-9.1-10.5,87.134,87.134,0,0,0-8.6-7.5Z"/><path class="e" d="M309.5,386.3c-11.8-1.2-12,6-9,10.8,3.3,5.2,15.7,11.7,21.8,14.8s14.6,8,14.6,8a12.235,12.235,0,0,0,3.2-7.1c-6.7-4.7-13.2-16.7-24.4-18.5Z"/><path class="b" d="M344.1,414.4h0a2.2,2.2,0,0,0,.8-.1c2.1-.4,5.1-.6,6.3,3.6,1.4,4.8,5.7,7.7,8.1,10.3s1.6,6.6.4,9.3c-2.1,4.6-5.2,1.8-6.8-1.1-.7-1.1-9.7-10.7-10.9-12.2C343.4,425.8,345.2,414.3,344.1,414.4Z"/><path class="o" d="M342.6,413c-2.1-.5-5.3-1.4-6.6-3-1.3-1.7-4-3.4-7.7-1-4.1,2.7-9.3,2.1-12.9,2.5-3.5.4-5.5,3.9-6.4,6.7-1.4,4.9,2.7,3.2,5.9,2.1a45.843,45.843,0,0,1,13.8-1.7c3.2.4,11,2.4,11,2.4Z"/><path class="b" d="M316.5,419.9c-.6.2-1.1.3-1.5.4-3.2,1.1-7.3,2.7-5.9-2.1.8-2.9,2.8-6.4,6.4-6.7,3.5-.4,8.7.2,12.9-2.5,3.7-2.4,6.4-.8,7.7,1,.2.2.3.4.5.5h0a9.156,9.156,0,0,0-4.7,2.8,6.688,6.688,0,0,0-1.4,5.6A59.673,59.673,0,0,0,316.5,419.9Z"/><path class="e" d="M385.6,432.8c-.7,4.2-5.4,6.2-15.4,4.2s-31.7-15.8-31.7-15.8-1.4-7.1,4.1-8.6c0,0,5,.9,13.2,2.7a103.428,103.428,0,0,1,10.9,3c5.5,7.4,11.3,4.4,13.3,7C383.5,429.7,385.6,432.8,385.6,432.8Z"/><path class="b" d="M359.7,416.2a38.872,38.872,0,0,1,11.8,4.7,22.7,22.7,0,0,0-13.1-7.1Z"/><path class="e" d="M360.8,334.5c.8.2,7.9,1.9,10.9,2.9v23.8l1.4,23.2c-5.1,5.6-25,6.1-36.1-2.1,0,0,.2-29.6,1-35.2.9-6.6,4-12.9,11.5-12.9Z"/><path class="b" d="M363.2,305.4a4.073,4.073,0,0,1,3.2,1.1c1.4,1.4,1.1,4,0,10.1l-4.3.5Z"/><path class="b" d="M338.3,303.6a8.083,8.083,0,0,1-2.7-.5c-1.4-.8-1.7.7-.9,2a6.142,6.142,0,0,0,5,3.3c0-.2,1.2-3.3,1.2-3.3Z"/><path class="o" d="M361.2,317.1c.6.4,1.5-.8,2.3-1.7a2.723,2.723,0,0,1,3.9-.3,4.44,4.44,0,0,1,.8,1.1c1.3,2.7-1.1,6.4-3.1,7-3.5,1.1-4-1.1-4-1.1l-.3,12.5a11.278,11.278,0,0,1-8.4,6.4c-6.2.8-4.9-4.2-2.9-6.7v-3.8a24.32,24.32,0,0,1-4.7.2c-2.5-.4-4.1-2.4-4.9-5.2-1.2-4.4-1.7-8-.7-16.8,1.2-9.6,12.3-9.7,18.3-5.9S361.2,317.1,361.2,317.1Z"/><path class="b" d="M361.2,318.1c.3,0,1.5-2,2.3-2.7,1.1-1-.3-10-.3-10s1.1-3.4-1.1-5.7-6.4-1.9-9.4-2a26.89,26.89,0,0,1-10.9-2.2c-4.4-1.9-4.7-2.1-5.2-.2a10.489,10.489,0,0,0,1.9,9.2l2.2.8s1.2,1,5.2,1.5a60.963,60.963,0,0,0,11.3-.2c1.2-.2,1.4,1,2.1,4.1C359.7,313.5,360.2,318.1,361.2,318.1Z"/><path class="b" d="M363.2,306.1,367,304a2.073,2.073,0,0,0-2.8-1h-.1A2.494,2.494,0,0,0,363.2,306.1Z"/><path class="r" d="M349.5,330.3a42.155,42.155,0,0,0,7.7-2.2,6.393,6.393,0,0,0,2.7-2.7,7.447,7.447,0,0,1-1.6,3.2c-1.4,1.9-8.9,3.2-8.9,3.2Z"/><path class="b" d="M350.9,315.6a1.151,1.151,0,0,0,2.3-.1,1.11,1.11,0,0,0-1.1-1.1A1.287,1.287,0,0,0,350.9,315.6Z"/><path class="b" d="M352.1,311.3l2.4,1.4a1.351,1.351,0,0,0-.6-1.9,1.252,1.252,0,0,0-1.8.5Z"/><path class="r" d="M350,323.5l-2.6,1a1.391,1.391,0,0,0,1.7.9h.1A1.517,1.517,0,0,0,350,323.5Z"/><path class="b" d="M340.7,312.3l2.2-1.7a1.313,1.313,0,0,0-1.9-.3h0A1.429,1.429,0,0,0,340.7,312.3Z"/><path class="b" d="M341.4,315.3a1.16,1.16,0,0,0,2.3.3v-.3a1.2,1.2,0,0,0-1.1-1.2h0A1.216,1.216,0,0,0,341.4,315.3Z"/><path class="r" d="M347.2,314.2l-.4,6.9-3.6-1.2Z"/><path class="ac" d="M369.3,409.4v.8a2.144,2.144,0,0,1-1.1,1.9L347.6,424a2.167,2.167,0,0,1-2.2,0l-37.7-22a2.144,2.144,0,0,1-1.1-1.9v-.5l40.1,23.1Z"/><path class="f" d="M306.6,399.7l22.4-13a1.483,1.483,0,0,1,1.3,0l38.9,22.5c.1.1.2.3.1.4l-.1.1-22.6,13.1Z"/><path class="o" d="M332.4,367.2c-3,4.4-9.8,13.9-12.9,19.4-1.8,3.1.5,6.2,5.3,4.9,3.2-.9,7.8-7.8,12.2-12.9"/><path class="g" d="M346.8,420.9l12.1-7-35.4-20.4-12.2,6.9Z"/><path class="g" d="M352.7,401.5l-.2.1-5.9,3.4L336,398.9l-.2-.1,6.1-3.5Z"/><path class="k" d="M352.5,401.6l-5.9,3.4L336,398.9l5.9-3.4Z"/><path class="ac" d="M346.6,422.8v1.4a2.016,2.016,0,0,1-1.1-.3L307.7,402a2.144,2.144,0,0,1-1.1-1.9v-.5Z"/><g class="m"><path class="g" d="M346.6,422.8v1.4a2.016,2.016,0,0,1-1.1-.3L307.7,402a2.144,2.144,0,0,1-1.1-1.9v-.5Z"/></g><path class="h" d="M346,423.1a2.463,2.463,0,0,1-2.2-.2l-37.7-21.7a2.3,2.3,0,0,1-1.2-1.8l-4.1-24.6v-.4a2.5,2.5,0,0,1,.8-1.8l39.1,22.6a1.945,1.945,0,0,1,.9,1.4Z"/><g class="ad"><path class="j" d="M346,423.1a2.463,2.463,0,0,1-2.2-.2l-37.7-21.7a2.3,2.3,0,0,1-1.2-1.8l-4.1-24.6v-.4a2.5,2.5,0,0,1,.8-1.8l39.1,22.6a1.945,1.945,0,0,1,.9,1.4Z"/></g><path class="f" d="M346.6,422.8l-.3.2c-.1.1-.2.1-.4.2l-4.5-26.6a1.945,1.945,0,0,0-.9-1.4l-39.1-22.6a1.755,1.755,0,0,1,.5-.4L341,394.8a1.945,1.945,0,0,1,.9,1.4Z"/><path class="n" d="M324.8,400.4a8.122,8.122,0,0,0-3.8-4.9c-1.8-1.1-3.1-.6-2.8,1.1a8.279,8.279,0,0,0,3.9,4.9C323.8,402.5,325,402,324.8,400.4Z"/><path class="o" d="M366.1,405c2.1-1.4,15.3-11,20.5-15.1,5.5-4.3,5.2-5.6,4.5-8.7-1.4-6.1-8.9-25.4-11.1-31.1-2.7-7.1-5-13.3-10.8-13.3-3.4,2.7-4.6,13,0,22.2l9.5,22.2s-5.6,6.5-9.3,10-7.7,7.4-10.4,7.7c-2.2.2-6,.7-6.8,1.5a69.8,69.8,0,0,0-5.6,6.6c-.8,1.3-1.8,4.5.8,5.3,2.4.8,4.4-.3,6.4-1.6a27.465,27.465,0,0,0,2.6-2.2,10.093,10.093,0,0,0,5.7-1.1Z"/><path class="e" d="M366.9,336s5.2-.4,8,2.7,11,24.8,11,24.8-2.2,6.5-12.1,7l-7.6-18.1C366.2,352.5,362,341.8,366.9,336Z"/><path class="s" d="M155.5,272.5c-.9-1.2-10.2-17.8-10.2-17.8-1.8-5.7-3-8.2-4.9-10.2-3.4,0-7.1,3.4-6.4,9.3.9,7.1,7.4,15,14.5,24.6,2.5,3.4,16.9,5.5,24.1,6.9.8.2,1.7.3,2.5.5v-7.2C171.5,277.8,157.6,273.7,155.5,272.5Z"/><path class="o" d="M191.5,282.1c1.7-4.7-.1-5.2-3.8-3.9a18.756,18.756,0,0,1-4.7,1,6.9,6.9,0,0,0,1.8-1.6,1.693,1.693,0,0,0,0-2.3c-.3-.3-.8.5-2.2,1.1-1.7.8-3,.6-4.6,1.9a3.322,3.322,0,0,1-2.1.7c-.1,0-.4-.1-.8-.2V286a49.544,49.544,0,0,0,5.4.6C187.8,286.7,190.5,285.1,191.5,282.1Z"/><rect class="b" width="0.5" height="3.4" transform="translate(143.8 228)"/></g></svg>