<svg xmlns="http://www.w3.org/2000/svg" width="472.2" height="473.85" viewBox="0 0 472.2 473.85"><defs><style>.a{fill:#f0f0f0;}.b{opacity:0.07;}.c{fill:#e0e0e0;}.d{fill:#ebebeb;}.e{fill:#ba68c8;}.f{fill:#06826a;}.ae,.g,.m,.n,.o,.s,.u{fill:#fff;}.h{fill:#ff3600;}.ae,.i,.v{opacity:0.3;}.j{opacity:0.2;}.k,.n{opacity:0.4;}.l{fill:#455a64;}.m{opacity:0.8;}.o{opacity:0.65;}.p{opacity:0.1;}.q{fill:#37474f;}.r{fill:#fafafa;}.s{opacity:0.55;}.t{opacity:0.25;}.u{opacity:0.7;}.w{fill:#fcc3c3;}.x,.z{fill:#263238;}.y{fill:#ffa8a7;}.aa,.z{opacity:0.6;}.ab{opacity:0.15;}.ac{fill:#f5f5f5;}.ad{fill:#f28f8f;}</style></defs><g transform="translate(-15.9 -13.55)"><ellipse class="a" cx="236.1" cy="136.3" rx="236.1" ry="136.3" transform="translate(15.9 214.8)"/><path class="b" d="M301.1,471.9,61.7,333.7a1.262,1.262,0,0,1-.8-1.7,1.085,1.085,0,0,1,.8-.8l141.9-81.9a4.664,4.664,0,0,1,4.3,0L447.3,387.5a1.262,1.262,0,0,1,.8,1.7,1.085,1.085,0,0,1-.8.8L305.4,471.9A4.664,4.664,0,0,1,301.1,471.9Z"/><ellipse class="c" cx="37.4" cy="21.6" rx="37.4" ry="21.6" transform="translate(117.5 419.2)"/><ellipse class="c" cx="35.7" cy="20.6" rx="35.7" ry="20.6" transform="translate(350.7 305.3)"/><path class="d" d="M350.8,82.6l6,3.5V83.6c0-3.1,2.2-4.3,4.9-2.8a9.682,9.682,0,0,1,2.9,2.8c.4-3.9,3.5-5.3,7.2-3.2A16.184,16.184,0,0,1,379.1,93v2.6a7.653,7.653,0,0,1-.6,3l5,2.9a5.927,5.927,0,0,1,2.7,4.7c0,1.7-1.2,2.4-2.7,1.6L350.9,89a5.927,5.927,0,0,1-2.7-4.7C348.1,82.4,349.3,81.8,350.8,82.6Z"/><path class="d" d="M390.5,66.7l3.3,1.3V60.7c0-5.8,4.6-7.2,9.6-4.3h0c5,2.9,9.1,9.9,9.1,15.7v1.1a4.842,4.842,0,0,1,4.2.7h0a14.113,14.113,0,0,1,6.5,11.3v.5l4.6,2.7a9.738,9.738,0,0,1,4.3,7.4c0,2.7-1.9,3.8-4.3,2.5L390.5,76.7a9.738,9.738,0,0,1-4.3-7.4C386.2,66.4,388.1,65.3,390.5,66.7Z"/><path class="e" d="M406.5,319.1c2.2-3.1,8.6-6.2,16.8-7.4s16.5-2.8,14.9-7.6c-1.7-5.2-9.1-6-16.7-3.4-8.3,2.7-14.8,10.5-15.2,15.6Z"/><path class="f" d="M406.5,319.1c2.2-3.1,8.6-6.2,16.8-7.4s16.5-2.8,14.9-7.6c-1.7-5.2-9.1-6-16.7-3.4-8.3,2.7-14.8,10.5-15.2,15.6Z"/><path class="g" d="M406,317.6a.713.713,0,0,0,.6-.3c7.3-12.8,22.3-14,27-12.9.3.1.6-.1.7-.5s-.1-.6-.5-.7c-4.9-1.1-20.6.1-28.3,13.5a.524.524,0,0,0,.2.8.367.367,0,0,0,.3.1Z"/><path class="f" d="M406.6,317.3s1.8-12,15.2-20.8c3-2.2,5.9-4.5,8.7-7,5-4.2,3.4-9.3-3.1-9.6-9.6-.5-17.1,7.1-20.9,17.4A30.474,30.474,0,0,0,406.6,317.3Z"/><path class="g" d="M405.4,313.1a.56.56,0,0,0,.6-.5c3.1-19.3,18.6-28.1,22.7-28.9a.608.608,0,0,0-.2-1.2c-5,.9-20.5,10.1-23.7,29.9a.73.73,0,0,0,.6.7Z"/><path class="h" d="M106.2,335.2l8.2-2.9s2.4-17.8.2-32.4c-3.3-21.9-21.8-43.1-35.1-47.2-24.4-7.6-24.2,15.5-5.8,28.3C89.6,292,103.8,308.7,106.2,335.2Z"/><path class="g" d="M110.2,334.2h0a.919.919,0,0,1-.8-1.1c4.4-20-11.2-57.9-33-69.1a.967.967,0,0,1,0-1.4.806.806,0,0,1,.9-.3c22.5,11.6,38.5,50.5,34,71.2A1.23,1.23,0,0,1,110.2,334.2Z"/><path class="e" d="M116.9,346.6c.4-2.4.6-5.9.7-6.7a21.22,21.22,0,0,0-1-9c-.4-1.3-1.3-2.5-1.5-3.8s.1-2.4-.2-3.7a9.493,9.493,0,0,0-4.6-6.1c-2.2-1.3-5-1.8-6.2-4-.8-1.5-.6-3.3-.6-5,.1-2.6-.2-5.4-1.9-7.3-2.1-2.6-5.9-3.1-9.2-2.7s-6.6,1.3-9.9,1.1c-5.6-.5-10.4-4.4-16-5.3a16.655,16.655,0,0,0-5.9.2c-2.9.6-5.8,2-7.2,4.6a8.114,8.114,0,0,0,.6,7.7c1.5,2.6,4,4.2,6.6,5.6s4.6,3,3.3,6.3a8.017,8.017,0,0,0-.9,3,5.22,5.22,0,0,0,2.7,4.5,15.894,15.894,0,0,0,5.2,1.7l6.4,1.3c1.8.4,4.1,1.2,4.2,3.1.1,1.2-.8,2.1-1.3,3.2a5.933,5.933,0,0,0,1.7,6.4,11.507,11.507,0,0,0,6.4,2.7c2.3.3,4.7.3,7,.6a27.229,27.229,0,0,1,10.3,3.4,10.343,10.343,0,0,0,2.6,1.2C109.6,349.8,116.6,348.1,116.9,346.6Z"/><path class="f" d="M116.9,346.6c.4-2.4.6-5.9.7-6.7a21.22,21.22,0,0,0-1-9c-.4-1.3-1.3-2.5-1.5-3.8s.1-2.4-.2-3.7a9.493,9.493,0,0,0-4.6-6.1c-2.2-1.3-5-1.8-6.2-4-.8-1.5-.6-3.3-.6-5,.1-2.6-.2-5.4-1.9-7.3-2.1-2.6-5.9-3.1-9.2-2.7s-6.6,1.3-9.9,1.1c-5.6-.5-10.4-4.4-16-5.3a16.655,16.655,0,0,0-5.9.2c-2.9.6-5.8,2-7.2,4.6a8.114,8.114,0,0,0,.6,7.7c1.5,2.6,4,4.2,6.6,5.6s4.6,3,3.3,6.3a8.017,8.017,0,0,0-.9,3,5.22,5.22,0,0,0,2.7,4.5,15.894,15.894,0,0,0,5.2,1.7l6.4,1.3c1.8.4,4.1,1.2,4.2,3.1.1,1.2-.8,2.1-1.3,3.2a5.933,5.933,0,0,0,1.7,6.4,11.507,11.507,0,0,0,6.4,2.7c2.3.3,4.7.3,7,.6a27.229,27.229,0,0,1,10.3,3.4,10.343,10.343,0,0,0,2.6,1.2C109.6,349.8,116.6,348.1,116.9,346.6Z"/><path class="g" d="M113.1,348.8a.938.938,0,0,1-.8-.6c-8-21.1-26.9-37.9-53.4-47.4a.926.926,0,0,1-.4-1.2.876.876,0,0,1,1-.5c26.9,9.7,46.3,26.9,54.4,48.5a.815.815,0,0,1-.5,1.1A.367.367,0,0,1,113.1,348.8Z"/><path class="f" d="M112.4,358.4l-3.4-1.9a4.364,4.364,0,0,1-1.9-3.3V105.9a4.364,4.364,0,0,1,1.9-3.3L262.4,14a4.236,4.236,0,0,1,3.8,0l3.3,1.9a4.364,4.364,0,0,1,1.9,3.3V266.5a4.364,4.364,0,0,1-1.9,3.3L116.1,358.4A4.749,4.749,0,0,1,112.4,358.4Z"/><path class="i" d="M112.4,358.4l-3.4-1.9a4.364,4.364,0,0,1-1.9-3.3V105.9a4.364,4.364,0,0,1,1.9-3.3L262.4,14a4.236,4.236,0,0,1,3.8,0l3.3,1.9a4.364,4.364,0,0,1,1.9,3.3V266.5a4.364,4.364,0,0,1-1.9,3.3L116.1,358.4A4.749,4.749,0,0,1,112.4,358.4Z"/><path class="f" d="M271.5,18.9c-.1-1-.9-1.4-1.9-.8L116.2,106.7a2.949,2.949,0,0,0-1.3,1.4l-7.2-4.1a3.532,3.532,0,0,1,1.3-1.4L262.4,14a4.236,4.236,0,0,1,3.8,0l3.3,1.9A4.414,4.414,0,0,1,271.5,18.9Z"/><path class="j" d="M271.5,18.9c-.1-1-.9-1.4-1.9-.8L116.2,106.7a2.949,2.949,0,0,0-1.3,1.4l-7.2-4.1a3.532,3.532,0,0,1,1.3-1.4L262.4,14a4.236,4.236,0,0,1,3.8,0l3.3,1.9A4.414,4.414,0,0,1,271.5,18.9Z"/><path class="f" d="M115.8,358.5h-.1l-.2.1h-.1l-.3.1h0a4.532,4.532,0,0,1-2.3-.2c-.1-.1-.3-.1-.4-.2l-3.4-1.9a4.364,4.364,0,0,1-1.9-3.3V105.9a3.292,3.292,0,0,1,.6-1.9l7.2,4.1a6.033,6.033,0,0,0-.6,1.9V357.3a1.689,1.689,0,0,0,.3,1,.905.905,0,0,0,1,.3Z"/><path class="k" d="M115.8,358.5h-.1l-.2.1h-.1l-.3.1h0a4.532,4.532,0,0,1-2.3-.2c-.1-.1-.3-.1-.4-.2l-3.4-1.9a4.364,4.364,0,0,1-1.9-3.3V105.9a3.292,3.292,0,0,1,.6-1.9l7.2,4.1a6.033,6.033,0,0,0-.6,1.9V357.3a1.689,1.689,0,0,0,.3,1,.905.905,0,0,0,1,.3Z"/><path class="l" d="M169.6,95.9a4.875,4.875,0,0,0-.3-.7l-.1-.1a.616.616,0,0,0-.7-.1c-.1,0-.2.1-.3.1a2.765,2.765,0,0,0-1.1,1.3,4.333,4.333,0,0,0-.4,1.9,2.3,2.3,0,0,0,.4,1.4.909.909,0,0,0,1.1.1,2.652,2.652,0,0,0,.6-.5,2.092,2.092,0,0,0,.4-.6,4.552,4.552,0,0,0,.5-2A2.2,2.2,0,0,0,169.6,95.9Zm25-55.7a4.075,4.075,0,0,0-1.8-.5,6.849,6.849,0,0,0-3.4,1.1,15.591,15.591,0,0,0-6.3,7.6c-.2.5-.4.9-.6,1.4a7.837,7.837,0,0,0-.5,1.4,5.783,5.783,0,0,1-.5,1.4.9.9,0,0,0-.1.5c-.1.3-.2.6-.3,1v.1l-.6,1.8c-.1.3-.2.6-.3,1l-.2,1a30.651,30.651,0,0,1-1.1,3.6c-.1.2-.1.5-.2.7a6.894,6.894,0,0,1-.4,1,3.63,3.63,0,0,0-.3.7,11.73,11.73,0,0,1-.5,1.1c-.2.3-.2.5-.4.7-2.7,5.2-6,7.2-7.9,9.8-1.7,2.3-2.1,4.2-4.4,7.8a43.526,43.526,0,0,1-2.8,4.1c-3.2,4.5-4.4,6.7-4.8,8v.1c0,.1-.1.2-.1.3V107l3.6,2.1V99.2a7.568,7.568,0,0,1,.1-1.5c.4-1.3,1.5-3.5,4.8-8,1.2-1.6,2.1-3,2.8-4.1,2.2-3.7,2.7-5.5,4.4-7.8h0c1.9-2.7,5.2-4.7,7.9-9.8a27.184,27.184,0,0,0,1.1-2.5c1.7-4.3,2.5-10,4.6-14.8a15.682,15.682,0,0,1,6.3-7.6c2.2-1.3,3.8-1.4,5-.8Zm15.6,12.7h0a3.552,3.552,0,0,0-.9-.4c-1.4-.3-3.4.5-5.4.2,2.8,3.7,6.8,1.3,9,1.8a2.471,2.471,0,0,1,.9.4h0Zm7.6,13.6c-.1.1-.2.1-.3.2l-.1.2c-.1,0-.1.1-.1.2a4.388,4.388,0,0,0-.9,2.7,1.844,1.844,0,0,0,.4,1.3l.1.1a.616.616,0,0,0,.7.1c.1,0,.2-.1.3-.1.1-.1.2-.1.3-.2a2.181,2.181,0,0,0,.4-.5,4.376,4.376,0,0,0,.8-2.5C219.3,66.7,218.6,66,217.8,66.5Zm2.3-9a11.637,11.637,0,0,0-3.7-1.3c-.5-.1-1-.3-1.5-.4a10.32,10.32,0,0,0,5,2.5,14.219,14.219,0,0,1,3.3,1.1Z"/><path class="m" d="M169.6,95.9a4.875,4.875,0,0,0-.3-.7l-.1-.1a.616.616,0,0,0-.7-.1c-.1,0-.2.1-.3.1a2.765,2.765,0,0,0-1.1,1.3,4.333,4.333,0,0,0-.4,1.9,2.3,2.3,0,0,0,.4,1.4.909.909,0,0,0,1.1.1,2.652,2.652,0,0,0,.6-.5,2.092,2.092,0,0,0,.4-.6,4.552,4.552,0,0,0,.5-2A2.2,2.2,0,0,0,169.6,95.9Zm25-55.7a4.075,4.075,0,0,0-1.8-.5,6.849,6.849,0,0,0-3.4,1.1,15.591,15.591,0,0,0-6.3,7.6c-.2.5-.4.9-.6,1.4a7.837,7.837,0,0,0-.5,1.4,5.783,5.783,0,0,1-.5,1.4.9.9,0,0,0-.1.5c-.1.3-.2.6-.3,1v.1l-.6,1.8c-.1.3-.2.6-.3,1l-.2,1a30.651,30.651,0,0,1-1.1,3.6c-.1.2-.1.5-.2.7a6.894,6.894,0,0,1-.4,1,3.63,3.63,0,0,0-.3.7,11.73,11.73,0,0,1-.5,1.1c-.2.3-.2.5-.4.7-2.7,5.2-6,7.2-7.9,9.8-1.7,2.3-2.1,4.2-4.4,7.8a43.526,43.526,0,0,1-2.8,4.1c-3.2,4.5-4.4,6.7-4.8,8v.1c0,.1-.1.2-.1.3V107l3.6,2.1V99.2a7.568,7.568,0,0,1,.1-1.5c.4-1.3,1.5-3.5,4.8-8,1.2-1.6,2.1-3,2.8-4.1,2.2-3.7,2.7-5.5,4.4-7.8h0c1.9-2.7,5.2-4.7,7.9-9.8a27.184,27.184,0,0,0,1.1-2.5c1.7-4.3,2.5-10,4.6-14.8a15.682,15.682,0,0,1,6.3-7.6c2.2-1.3,3.8-1.4,5-.8Zm15.6,12.7h0a3.552,3.552,0,0,0-.9-.4c-1.4-.3-3.4.5-5.4.2,2.8,3.7,6.8,1.3,9,1.8a2.471,2.471,0,0,1,.9.4h0Zm7.6,13.6c-.1.1-.2.1-.3.2l-.1.2c-.1,0-.1.1-.1.2a4.388,4.388,0,0,0-.9,2.7,1.844,1.844,0,0,0,.4,1.3l.1.1a.616.616,0,0,0,.7.1c.1,0,.2-.1.3-.1.1-.1.2-.1.3-.2a2.181,2.181,0,0,0,.4-.5,4.376,4.376,0,0,0,.8-2.5C219.3,66.7,218.6,66,217.8,66.5Zm2.3-9a11.637,11.637,0,0,0-3.7-1.3c-.5-.1-1-.3-1.5-.4a10.32,10.32,0,0,0,5,2.5,14.219,14.219,0,0,1,3.3,1.1Z"/><path class="l" d="M223.6,59.5l-.3-.2a14.219,14.219,0,0,0-3.3-1.1,9.527,9.527,0,0,1-5-2.5,12.491,12.491,0,0,0-1.2-.9,3,3,0,0,0-1-.4c-2.2-.5-6.1,1.8-8.9-1.8l-.1-.1c-2-2.7-2.7-8.6-5.7-10.4-.1-.1-.2-.1-.3-.2-1.2-.6-2.8-.5-5,.8-7.9,4.5-8.1,15.3-11,22.4s-6.8,9.3-9,12.4-2.3,5.3-7.2,12-5,8.3-5,9.6V109L225,71.9V62A2.659,2.659,0,0,0,223.6,59.5ZM168.2,99.8c-.8.5-1.5-.2-1.5-1.5a3.934,3.934,0,0,1,1.5-3.2c.8-.5,1.5.2,1.5,1.5A4.073,4.073,0,0,1,168.2,99.8Zm24.7-29.9a3.121,3.121,0,0,1-4.5-.7c-.2-.3-.3-.5-.5-.8a9.237,9.237,0,0,1-.8-4c0-4.9,2.6-10.3,5.7-12.1a3.36,3.36,0,0,1,1.4-.5c2.5-.5,4.3,1.9,4.3,6.1.1,4.8-2.5,10.2-5.6,12Zm24.9,1.3c-.9.5-1.5-.2-1.5-1.4a3.934,3.934,0,0,1,1.5-3.2c.8-.5,1.5.2,1.5,1.5a4.024,4.024,0,0,1-1.5,3.1Z"/><path class="n" d="M223.6,59.5l-.3-.2a14.219,14.219,0,0,0-3.3-1.1,9.527,9.527,0,0,1-5-2.5,12.491,12.491,0,0,0-1.2-.9,3,3,0,0,0-1-.4c-2.2-.5-6.1,1.8-8.9-1.8l-.1-.1c-2-2.7-2.7-8.6-5.7-10.4-.1-.1-.2-.1-.3-.2-1.2-.6-2.8-.5-5,.8-7.9,4.5-8.1,15.3-11,22.4s-6.8,9.3-9,12.4-2.3,5.3-7.2,12-5,8.3-5,9.6V109L225,71.9V62A2.659,2.659,0,0,0,223.6,59.5ZM168.2,99.8c-.8.5-1.5-.2-1.5-1.5a3.934,3.934,0,0,1,1.5-3.2c.8-.5,1.5.2,1.5,1.5A4.073,4.073,0,0,1,168.2,99.8Zm24.7-29.9a3.121,3.121,0,0,1-4.5-.7c-.2-.3-.3-.5-.5-.8a9.237,9.237,0,0,1-.8-4c0-4.9,2.6-10.3,5.7-12.1a3.36,3.36,0,0,1,1.4-.5c2.5-.5,4.3,1.9,4.3,6.1.1,4.8-2.5,10.2-5.6,12Zm24.9,1.3c-.9.5-1.5-.2-1.5-1.4a3.934,3.934,0,0,1,1.5-3.2c.8-.5,1.5.2,1.5,1.5a4.024,4.024,0,0,1-1.5,3.1Z"/><path class="l" d="M161,97.6a3.887,3.887,0,0,0-.2,1.5V109l-3.6-2.1V95.8c0-.1.1-.2.1-.3v-.1h0Z"/><path class="l" d="M172.9,77.7c-1.7,2.3-2.1,4.2-4.4,7.8l-3.6-2.1c2.2-3.7,2.7-5.5,4.4-7.8h0Z"/><path class="l" d="M186.5,50.5c-2.1,4.8-2.9,10.5-4.6,14.8a18.886,18.886,0,0,1-1.1,2.5l-3.6-2a5.737,5.737,0,0,1,.4-.7,11.73,11.73,0,0,0,.5-1.1c.1-.2.2-.5.3-.7a5.132,5.132,0,0,0,.4-1,4.077,4.077,0,0,0,.2-.7c.4-1.2.7-2.4,1.1-3.6l.2-1c.1-.3.2-.6.3-1l.5-1.8v-.1c.1-.3.2-.6.3-1,0-.2.1-.3.1-.5a5.783,5.783,0,0,1,.5-1.4c.2-.4.3-.9.5-1.4s.4-.9.6-1.4Z"/><path class="o" d="M161,97.6a3.887,3.887,0,0,0-.2,1.5V109l-3.6-2.1V95.8c0-.1.1-.2.1-.3v-.1h0Z"/><path class="o" d="M172.9,77.7c-1.7,2.3-2.1,4.2-4.4,7.8l-3.6-2.1c2.2-3.7,2.7-5.5,4.4-7.8h0Z"/><path class="o" d="M186.5,50.5c-2.1,4.8-2.9,10.5-4.6,14.8a18.886,18.886,0,0,1-1.1,2.5l-3.6-2a5.737,5.737,0,0,1,.4-.7,11.73,11.73,0,0,0,.5-1.1c.1-.2.2-.5.3-.7a5.132,5.132,0,0,0,.4-1,4.077,4.077,0,0,0,.2-.7c.4-1.2.7-2.4,1.1-3.6l.2-1c.1-.3.2-.6.3-1l.5-1.8v-.1c.1-.3.2-.6.3-1,0-.2.1-.3.1-.5a5.783,5.783,0,0,1,.5-1.4c.2-.4.3-.9.5-1.4s.4-.9.6-1.4Z"/><path class="h" d="M167.1,96.4a4.333,4.333,0,0,0-.4,1.9,2.3,2.3,0,0,0,.4,1.4,1.792,1.792,0,0,1-.4-1.4A4.333,4.333,0,0,1,167.1,96.4Zm2.6.2a1.7,1.7,0,0,0-.1-.7,1.952,1.952,0,0,1,.1.7,4.552,4.552,0,0,1-.5,2,4.552,4.552,0,0,0,.5-2Zm47.1-25.4a.616.616,0,0,0,.7.1.878.878,0,0,1-.7-.1Z"/><path class="l" d="M198.6,57.8c0,4.9-2.6,10.3-5.7,12.1a3.121,3.121,0,0,1-4.5-.7c-.2-.3-.3-.5-.5-.8a3.506,3.506,0,0,0,1.4-.6c3.2-1.9,5.8-7.3,5.8-12.1a9.237,9.237,0,0,0-.8-4C196.7,51.2,198.6,53.6,198.6,57.8Z"/><path class="p" d="M198.6,57.8c0,4.9-2.6,10.3-5.7,12.1a3.121,3.121,0,0,1-4.5-.7c-.2-.3-.3-.5-.5-.8a3.506,3.506,0,0,0,1.4-.6c3.2-1.9,5.8-7.3,5.8-12.1a9.237,9.237,0,0,0-.8-4C196.7,51.2,198.6,53.6,198.6,57.8Z"/><path class="l" d="M169.2,98.7a2.092,2.092,0,0,1-.4.6,2.651,2.651,0,0,1-.6.5.909.909,0,0,1-1.1-.1,1.792,1.792,0,0,1-.4-1.4,5.847,5.847,0,0,1,.4-1.9,2.765,2.765,0,0,1,1.1-1.3c.1,0,.2-.1.3-.1a.778.778,0,0,1,.8.2.908.908,0,0,1,.3.7,1.7,1.7,0,0,1,.1.7A5.374,5.374,0,0,1,169.2,98.7Z"/><path class="q" d="M219.3,68a4.376,4.376,0,0,1-.8,2.5c-.1.2-.3.3-.4.5-.1.1-.2.2-.3.2a.367.367,0,0,1-.3.1.778.778,0,0,1-.8-.2,1.678,1.678,0,0,1-.4-1.3,4.388,4.388,0,0,1,.9-2.7c0-.1.1-.1.1-.2l.1-.2c.1-.1.2-.2.3-.2C218.6,66,219.3,66.7,219.3,68Z"/><path class="g" d="M264.3,55.1c-.1-.5-.6-.6-1.1-.3L129.7,131.9a2.361,2.361,0,0,0-.8.9l-3.6-2.1c.1-.1.1-.2.2-.3s.1-.2.2-.2l.4-.4L259.6,52.7c.1-.1.2-.1.3-.2a2.479,2.479,0,0,1,1.7,0c.1,0,.2.1.3.1l1.3.7c.1,0,.1.1.2.1s.1.1.2.1l.2.2c.1.1.1.1.1.2.1.1.1.1.1.2.1.2.1.3.2.5A1.339,1.339,0,0,1,264.3,55.1Z"/><path class="d" d="M441.8,383l-92.4-49.4h0l-12.6-8.1a146.989,146.989,0,0,1-28.3-23.9,167.714,167.714,0,0,1-44.2-113.5v-49l-4.1-2.3-131.7-2.9a2.016,2.016,0,0,1,.3-1.1l-3.6-2.1a.367.367,0,0,0-.1.3,2.92,2.92,0,0,0-.2.9v83.3h-.1v49c0,2.3,0,4.7.1,7v.1a133.577,133.577,0,0,0,1.4,17.9c.6,3.9,1.3,7.8,2.2,11.7a167.072,167.072,0,0,0,40.2,76.8A146.987,146.987,0,0,0,197,401.6l12.6,8.1,91.5,52.8h0l4,2.3a4.664,4.664,0,0,0,4.3,0L440.9,389a1.6,1.6,0,0,0,.9-1.3Z"/><path class="p" d="M441.8,383v4.7a1.681,1.681,0,0,1-.9,1.3L309.5,464.9a4.193,4.193,0,0,1-2.2.5v-4.7a5.45,5.45,0,0,0,2.2-.5l131.4-75.9A1.761,1.761,0,0,0,441.8,383Z"/><path class="r" d="M440.9,381.8,349.4,329h0l-12.6-8.1A146.989,146.989,0,0,1,308.5,297a167.714,167.714,0,0,1-44.2-113.5V55.2c-.1-.5-.6-.6-1.1-.3l-133.5,77a2.361,2.361,0,0,0-.8.9,2.016,2.016,0,0,0-.3,1.1v128a167.652,167.652,0,0,0,44.2,113.4,146.987,146.987,0,0,0,28.3,23.9l12.6,8.1,91.5,52.8a4.664,4.664,0,0,0,4.3,0l131.4-75.9a1.262,1.262,0,0,0,.8-1.7A1.143,1.143,0,0,0,440.9,381.8Z"/><path class="l" d="M182.2,83l-.2.3a9.172,9.172,0,0,0-.9,2.3v.2L178.9,98l-.7,3.9c0,.2-.1.3-.1.5s-.1.3-.1.5c0,.1-.1.2-.1.3l3.6,2.1a4.951,4.951,0,0,0,.4-1.3l.7-3.9,2.2-12.3a6.437,6.437,0,0,1,1.1-2.7Z"/><path class="l" d="M157.6,122.6a15.056,15.056,0,0,0-1,1.7,5.9,5.9,0,0,0-.4.8,5.822,5.822,0,0,0-.5,1.1,6.117,6.117,0,0,1-.5,1.2,5.637,5.637,0,0,0-.4,1.2c-.1.4-.3.9-.4,1.4-.1.3-.2.6-.3,1a18.917,18.917,0,0,0-.5,2.3c-.1.3-.1.6-.2.8a8.662,8.662,0,0,0-.2,1v.1c0,.3,0,.4.1.5h.1l3-2.4.5-.4.2-.2.3-.2.2-.2c.1-.1.1-.1.2-.1a27.923,27.923,0,0,1,4.4-9l-3.5-2.2C158.3,121.6,157.9,122.1,157.6,122.6Z"/><path class="l" d="M196.2,56.1a2.994,2.994,0,0,0-.4.8c-.1.2-.2.3-.3.5a2.507,2.507,0,0,1-.4.7c-.2.2-.2.4-.3.6-.2.4-.3.7-.5,1.1s-.3.8-.5,1.2h0c-.1.3-.3.7-.4,1.1a9.83,9.83,0,0,0-.5,1.6c-.1.3-.1.6-.2.8v.1l-.1.4c-.1.3-.1.7-.2,1s-.1.5-.2.8-.1.6-.2.8a6.893,6.893,0,0,0-.3.8v.1a3.552,3.552,0,0,1-.4.9c-.2.3-.2.6-.4.9a.349.349,0,0,1-.1.2l-.3.7c-.2.4-.4.7-.6,1.1s-.3.5-.4.7l3.5,2.1a25.028,25.028,0,0,0,2.8-7,29.9,29.9,0,0,1,3.8-9.9Z"/><path class="l" d="M217.4,64a1.421,1.421,0,0,0-.6-.2,4.289,4.289,0,0,0,3.2,2,2.92,2.92,0,0,1,.9.2Z"/><path class="m" d="M217.4,64a1.421,1.421,0,0,0-.6-.2,4.289,4.289,0,0,0,3.2,2,2.92,2.92,0,0,1,.9.2Z"/><path class="l" d="M230.7,79.5a3.829,3.829,0,0,0-3.6.1c-4.1,1.8-5.9,2.7-8.1,3.6-.4,2.8,1.2,3,2,2.7,3-1.2,4.6-1.9,9.6-4.2a3.821,3.821,0,0,1,3.6-.1Z"/><path class="m" d="M230.7,79.5a3.829,3.829,0,0,0-3.6.1c-4.1,1.8-5.9,2.7-8.1,3.6-.4,2.8,1.2,3,2,2.7,3-1.2,4.6-1.9,9.6-4.2a3.821,3.821,0,0,1,3.6-.1Z"/><path class="l" d="M181.4,105.3a15.7,15.7,0,0,1-3.1,4.5l-11.2,8.4a32.356,32.356,0,0,0-4.8,5l-3.6-2.2a27.832,27.832,0,0,1,4.8-4.9l11.2-8.4a13.94,13.94,0,0,0,3.1-4.5Z"/><path class="m" d="M181.4,105.3a15.7,15.7,0,0,1-3.1,4.5l-11.2,8.4a32.356,32.356,0,0,0-4.8,5l-3.6-2.2a27.832,27.832,0,0,1,4.8-4.9l11.2-8.4a13.94,13.94,0,0,0,3.1-4.5Z"/><path class="l" d="M193.2,75a36.5,36.5,0,0,1-5.6,7.9,20,20,0,0,0-1.9,2.2l-3.6-2a13.015,13.015,0,0,1,1.8-2.3,36.5,36.5,0,0,0,5.6-7.9Z"/><path class="m" d="M193.3,74.8a36.935,36.935,0,0,1-5.7,7.9,14.539,14.539,0,0,0-1.9,2.3l-3.6-2a10.179,10.179,0,0,1,1.8-2.3,40.746,40.746,0,0,0,5.7-7.9Z"/><path class="l" d="M213.4,48.6c-1.3-.7-3.1-.6-5.1.5-3.1,1.6-6.1,5-8.5,9L196.2,56c2.4-4,5.4-7.4,8.5-9a6.294,6.294,0,0,1,3.3-.9,4.552,4.552,0,0,1,2,.5Z"/><path class="m" d="M213.4,48.6c-1.3-.7-3.1-.6-5.1.5-3.1,1.6-6.1,5-8.5,9L196.2,56c2.4-4,5.4-7.4,8.5-9a6.294,6.294,0,0,1,3.3-.9,4.552,4.552,0,0,1,2,.5Z"/><path class="o" d="M162.3,123.1a27.923,27.923,0,0,0-4.4,9c-.1,0-.1.1-.2.1l-.2.2-.3.2-.2.2-.5.4-3,2.4h-.1a.4.4,0,0,1-.1-.5V135c.1-.3.1-.6.2-1s.1-.5.2-.8c.2-.8.3-1.5.5-2.3.1-.3.2-.6.3-1,.1-.5.3-.9.4-1.4s.3-.8.4-1.2a6.117,6.117,0,0,1,.5-1.2c.2-.4.3-.7.5-1.1l.4-.8a9.5,9.5,0,0,1,1-1.7c.4-.5.7-1,1.1-1.6Z"/><path class="o" d="M185.8,85a5.7,5.7,0,0,0-1.1,2.8l-2.2,12.3-.7,3.9a6.469,6.469,0,0,1-.4,1.3l-3.6-2.1c0-.1.1-.2.1-.3a3109722431626.9,3109722431626.9,0,0,0,.2-1l.7-3.9L181,85.7v-.2a9.172,9.172,0,0,1,.9-2.3l.2-.3Z"/><path class="o" d="M199.9,57.8a32.248,32.248,0,0,0-3.8,9.9,23.875,23.875,0,0,1-2.8,7l-3.6-2.1c.1-.2.3-.5.4-.7.1-.3.4-.7.6-1.1l.3-.7a.349.349,0,0,1,.1-.2c.1-.3.3-.6.4-.9a3.552,3.552,0,0,1,.4-.9V68c.1-.3.2-.5.3-.8a3.091,3.091,0,0,0,.2-.8c.1-.3.1-.5.2-.8s.1-.7.2-1l.1-.4v-.1c.1-.3.1-.6.2-.8.2-.5.3-1.1.5-1.6a4.875,4.875,0,0,1,.4-1.1h0c.2-.4.3-.8.5-1.2s.3-.7.5-1.1l.3-.6a2.507,2.507,0,0,1,.4-.7c.1-.2.2-.3.3-.5a2.178,2.178,0,0,1,.5-.8Z"/><path class="h" d="M153.4,135.6h0l3-2.4C155.2,134.2,153.6,135.4,153.4,135.6Z"/><path class="l" d="M234.3,81.6h0a4.128,4.128,0,0,0-3.6.1c-5.1,2.3-6.6,3-9.6,4.2-.8.3-2.4.1-2-2.7V83l.7-3.9,1.9-10.7s.4-1.7-.7-2.3h-.1a2.92,2.92,0,0,0-.9-.2,4.289,4.289,0,0,1-3.2-2,8.22,8.22,0,0,1-1.2-6.1c.8-4.6-.1-7.8-2.1-9l-.2-.1c-1.3-.7-3.1-.6-5.1.5C202.8,52,197.4,60.4,196,68c-.8,4.8-5.6,12.2-8.4,14.9s-3,5-3,5l-2.2,12.3-.7,3.9c-.5,2.9-3.5,5.8-3.5,5.8L167,118.3a26.752,26.752,0,0,0-9.2,13.9s-4.2,3.3-4.5,3.5h0l1.4-.8L232,90.4l1.1-.6c.2-.1,3.3-3.1,3.3-3.1C236.3,84.2,235.6,82.4,234.3,81.6ZM212,59.1c-.8,4.7-4.2,9.9-7.5,11.6-2.3,1.2-4,.5-4.6-1.7a10.875,10.875,0,0,1,0-3.6c.8-4.7,4.2-9.9,7.5-11.6a4.179,4.179,0,0,1,1-.4C211.2,52.6,212.7,54.9,212,59.1Z"/><path class="s" d="M234.3,81.6h0a4.128,4.128,0,0,0-3.6.1c-5.1,2.3-6.6,3-9.6,4.2-.8.3-2.4.1-2-2.7V83l.7-3.9,1.9-10.7s.4-1.7-.7-2.3h-.1a2.92,2.92,0,0,0-.9-.2,4.289,4.289,0,0,1-3.2-2,8.22,8.22,0,0,1-1.2-6.1c.8-4.6-.1-7.8-2.1-9l-.2-.1c-1.3-.7-3.1-.6-5.1.5C202.8,52,197.4,60.4,196,68c-.8,4.8-5.6,12.2-8.4,14.9s-3,5-3,5l-2.2,12.3-.7,3.9c-.5,2.9-3.5,5.8-3.5,5.8L167,118.3a26.752,26.752,0,0,0-9.2,13.9s-4.2,3.3-4.5,3.5h0l1.4-.8L232,90.4l1.1-.6c.2-.1,3.3-3.1,3.3-3.1C236.3,84.2,235.6,82.4,234.3,81.6ZM212,59.1c-.8,4.7-4.2,9.9-7.5,11.6-2.3,1.2-4,.5-4.6-1.7a10.875,10.875,0,0,1,0-3.6c.8-4.7,4.2-9.9,7.5-11.6a4.179,4.179,0,0,1,1-.4C211.2,52.6,212.7,54.9,212,59.1Z"/><path class="l" d="M153.4,135.6l78.7-45.2,1.1-.6c.2-.1,3.3-3.1,3.3-3.1l-78.6,45.4C157.8,132.1,153.1,135.8,153.4,135.6Z"/><path class="l" d="M208.4,53.4a4.179,4.179,0,0,0-1,.4c-3.3,1.7-6.7,6.9-7.5,11.6a10.875,10.875,0,0,0,0,3.6c.6,2.1,2.2,2.9,4.6,1.7,3.3-1.8,6.7-7,7.5-11.6C212.7,54.9,211.2,52.6,208.4,53.4Zm-8.3,15.5a10.283,10.283,0,0,1,0-3.5c.8-4.6,4.1-9.7,7.4-11.4a3.552,3.552,0,0,1,.9-.4,9.708,9.708,0,0,1,0,3.4c-.8,4.7-4.2,9.9-7.5,11.6a1.909,1.909,0,0,1-.8.3Z"/><path class="p" d="M208.4,53.4a4.179,4.179,0,0,0-1,.4c-3.3,1.7-6.7,6.9-7.5,11.6a10.875,10.875,0,0,0,0,3.6c.6,2.1,2.2,2.9,4.6,1.7,3.3-1.8,6.7-7,7.5-11.6C212.7,54.9,211.2,52.6,208.4,53.4Zm-8.3,15.5a10.283,10.283,0,0,1,0-3.5c.8-4.6,4.1-9.7,7.4-11.4a3.552,3.552,0,0,1,.9-.4,9.708,9.708,0,0,1,0,3.4c-.8,4.7-4.2,9.9-7.5,11.6a1.909,1.909,0,0,1-.8.3Z"/><path class="a" d="M136.7,179.1v50.8c0,.9.6,1.3,1.4.8l75.6-43.5a3.081,3.081,0,0,0,1.4-2.5V133.9c0-.9-.6-1.3-1.4-.8l-75.6,43.5A3.546,3.546,0,0,0,136.7,179.1Z"/><path class="h" d="M140,225.9s6.8-9,8.8-12.8c2.9-5.7,2.3-16.8,7.9-20s4.8,11.3,12.1,7.2,7.3-9.1,11-11.6,6.9,2.4,11.3,0c5-2.8,7.3-19.8,12.4-22.6,5.8-3.2,8.1,12.3,8.1,12.3v6.2Z"/><path class="h" d="M140,225.9s3.2-17.3,6.7-19.3c5-2.9,3.2,10,10,5.8,5.6-3.4,4.5-18.1,11.7-22.2,5.4-3,5.1,8.5,11.7,4.8s5-22.3,11.7-26.1,5.8,16.1,10.9,13c6.1-3.6,4-8.6,8.8-12.9v15.5Z"/><path class="t" d="M140,225.9s3.2-17.3,6.7-19.3c5-2.9,3.2,10,10,5.8,5.6-3.4,4.5-18.1,11.7-22.2,5.4-3,5.1,8.5,11.7,4.8s5-22.3,11.7-26.1,5.8,16.1,10.9,13c6.1-3.6,4-8.6,8.8-12.9v15.5Z"/><path class="h" d="M143.4,181.9c0,1.1.8,1.5,1.7,1a3.69,3.69,0,0,0,1.7-2.9c0-1.1-.7-1.5-1.7-1A4.03,4.03,0,0,0,143.4,181.9Z"/><path class="t" d="M143.4,181.9c0,1.1.8,1.5,1.7,1a3.69,3.69,0,0,0,1.7-2.9c0-1.1-.7-1.5-1.7-1A4.03,4.03,0,0,0,143.4,181.9Z"/><path class="l" d="M151,176.8l28.4-16.4c.5-.3.9-.1.9.5a2.016,2.016,0,0,1-.9,1.5L151,178.7c-.5.3-.9.1-.9-.5A2.159,2.159,0,0,1,151,176.8Z"/><path class="h" d="M143.4,189.7c0,1.1.8,1.5,1.7,1a3.69,3.69,0,0,0,1.7-2.9c0-1.1-.7-1.5-1.7-1A3.69,3.69,0,0,0,143.4,189.7Z"/><path class="l" d="M151,184.5l28.4-16.4c.5-.3.9-.1.9.5a2.016,2.016,0,0,1-.9,1.5L151,186.5c-.5.3-.9.1-.9-.5A2.371,2.371,0,0,1,151,184.5Z"/><path class="a" d="M136.7,239.1v33.6c0,.6.4.9.9.5L177.8,250a1.922,1.922,0,0,0,.9-1.6V214.8c0-.6-.4-.8-.9-.5l-40.2,23.2A1.893,1.893,0,0,0,136.7,239.1Z"/><path class="h" d="M141.1,266.1V240.5l1.5-.8v25.5Z"/><path class="l" d="M140.8,268.1l2.2-1.3v.8l-2.2,1.3Z"/><path class="h" d="M144,264.4V244l1.6-.9v20.4Z"/><path class="l" d="M143.7,266.4l2.2-1.3v.8l-2.2,1.3Z"/><path class="h" d="M148.4,261.9V239.6l1.6-.8V261Z"/><path class="l" d="M148.1,263.8l2.2-1.3v.8l-2.2,1.3Z"/><path class="h" d="M151.4,260.2V241.8l1.5-.9v18.4Z"/><path class="l" d="M151,262.1l2.2-1.2v.8l-2.2,1.2Z"/><path class="h" d="M155.8,257.6V247.4l1.5-.9v10.3Z"/><path class="l" d="M155.4,259.6l2.2-1.3v.8l-2.2,1.3Z"/><path class="h" d="M158.7,256V244.3l1.5-.9v11.7Z"/><path class="l" d="M158.3,257.9l2.3-1.3v.8l-2.3,1.3Z"/><path class="h" d="M163.1,253.4v-14l1.5-.9v14Z"/><path class="l" d="M162.8,255.4l2.2-1.3v.8l-2.2,1.2Z"/><path class="h" d="M166,251.7v-9.1l1.5-.9v9.2Z"/><path class="l" d="M165.7,253.7l2.2-1.3v.8l-2.2,1.3Z"/><path class="h" d="M170.4,249.2v-4l1.6-.9v4Z"/><path class="h" d="M141.1,266.1V240.5l1.5-.8v25.5Z"/><path class="h" d="M148.4,261.9V239.6l1.6-.8V261Z"/><path class="h" d="M155.8,257.6V247.4l1.5-.9v10.3Z"/><path class="h" d="M163.1,253.4v-14l1.5-.9v14Z"/><path class="h" d="M170.4,249.2v-4l1.6-.9v4Z"/><path class="l" d="M170.1,251.1l2.2-1.2v.7l-2.2,1.3Z"/><path class="h" d="M173.4,247.5v-2l1.5-.9v2Z"/><path class="l" d="M173,249.4l2.2-1.2v.8l-2.2,1.2Z"/><path class="h" d="M163.3,226.9l-1.7.9v1.9l1.7-.9Z"/><path class="t" d="M163.3,226.9l-1.7.9v1.9l1.7-.9Z"/><path class="l" d="M176.1,219.7l-11.9,6.8a1.039,1.039,0,0,0-.4.8v.4c0,.3.2.4.4.3l11.9-6.9a1.039,1.039,0,0,0,.4-.8V220C176.5,219.7,176.4,219.6,176.1,219.7Z"/><path class="h" d="M163.3,230.1l-1.7.9v1.9l1.7-.9Z"/><path class="l" d="M176.1,222.9l-11.9,6.9a1.039,1.039,0,0,0-.4.8v.4c0,.3.2.4.4.3l11.9-6.9a.812.812,0,0,0,.4-.8v-.4C176.5,222.9,176.4,222.8,176.1,222.9Z"/><path class="h" d="M141.1,266.1V240.5l1.5-.8v25.5Z"/><path class="h" d="M148.4,261.9V239.6l1.6-.8V261Z"/><path class="h" d="M155.8,257.6V247.4l1.5-.9v10.3Z"/><path class="h" d="M163.1,253.4v-14l1.5-.9v14Z"/><path class="h" d="M141.1,266.1V240.5l1.5-.8v25.5Z"/><path class="h" d="M148.4,261.9V239.6l1.6-.8V261Z"/><path class="h" d="M155.8,257.6V247.4l1.5-.9v10.3Z"/><path class="h" d="M163.1,253.4v-14l1.5-.9v14Z"/><path class="h" d="M170.4,249.2v-4l1.6-.9v4Z"/><path class="t" d="M141.1,266.1V240.5l1.5-.8v25.5Z"/><path class="t" d="M148.4,261.9V239.6l1.6-.8V261Z"/><path class="t" d="M155.8,257.6V247.4l1.5-.9v10.3Z"/><path class="t" d="M163.1,253.4v-14l1.5-.9v14Z"/><path class="t" d="M170.4,249.2v-4l1.6-.9v4Z"/><path class="a" d="M183.2,212.3v33.6c0,.6.4.8.9.5l30-17.4a2.335,2.335,0,0,0,1-1.6V193.8c0-.6-.4-.8-1-.5l-30,17.4A1.894,1.894,0,0,0,183.2,212.3Z"/><path class="h" d="M187.1,211.5l-1.7.9v2l1.7-1Z"/><path class="l" d="M193.2,208.4l-5.5,3.2a.536.536,0,0,0-.3.4v.5c0,.2.1.2.3.1l5.5-3.2c.2-.1.2-.3.3-.4v-.5A.367.367,0,0,0,193.2,208.4Z"/><path class="h" d="M196.5,206.1l-1.7.9v1.9l1.7-.9Z"/><path class="t" d="M196.5,206.1l-1.7.9v1.9l1.7-.9Z"/><path class="l" d="M202.6,203.1l-5.5,3.2c-.1.1-.2.3-.3.4v.5c0,.1,0,.2.1.2h.1l5.5-3.2a.55.55,0,0,0,.3-.5v-.5C202.9,203.1,202.8,203,202.6,203.1Z"/><path class="h" d="M205.9,200.6l-1.7,1v1.9l1.7-1Z"/><path class="k" d="M205.9,200.6l-1.7,1v1.9l1.7-1Z"/><path class="l" d="M212.1,197.7l-5.5,3.2c-.2.1-.2.3-.3.4v.5c0,.2.1.2.3.1l5.5-3.2a.536.536,0,0,0,.3-.4v-.5C212.3,197.7,212.2,197.6,212.1,197.7Z"/><path class="h" d="M199.7,212c-4.9,2.8-8.9,9.7-8.9,15.3s4,7.9,8.9,5.1,8.9-9.7,8.9-15.3S204.6,209.1,199.7,212Zm-1.4,18.1a4.957,4.957,0,0,1-2.6.8c-1.9,0-2.2-2.3-2.2-3.6,0-4.7,3.4-10.6,7.5-13a6.22,6.22,0,0,1,2.6-.9c1.9,0,2.2,2.3,2.2,3.6a16.879,16.879,0,0,1-7.5,13.1Z"/><path class="t" d="M201,214.3a6.22,6.22,0,0,1,2.6-.9c1.2,0,1.7.9,2,1.9l2-2.3c-1.4-2.5-4.4-3.1-7.9-1.1v3.3A14.627,14.627,0,0,1,201,214.3Z"/><path class="k" d="M207.6,213.1l-2,2.3a11.135,11.135,0,0,1,.2,1.7,8.083,8.083,0,0,1-.1,1.6l2.9-1.6a9.1,9.1,0,0,0-1-4Z"/><path class="h" d="M157.2,271.3l82.7-47.7a1.628,1.628,0,0,1,2.3.4,1.136,1.136,0,0,1,.3.8l.2,1.1a3.826,3.826,0,0,1-1.7,3.7l-82.6,47.7a1.747,1.747,0,0,1-2.4-.4,1.136,1.136,0,0,1-.3-.8l-.2-1A3.9,3.9,0,0,1,157.2,271.3Z"/><path class="h" d="M165.3,317.6,232.1,279a1.61,1.61,0,0,1,2.3.3v.1a2.081,2.081,0,0,1-1.1,2.4l-66.9,38.6c-1,.5-2,.4-2.3-.4A2.151,2.151,0,0,1,165.3,317.6Z"/><path class="u" d="M165.3,317.6,232.1,279a1.61,1.61,0,0,1,2.3.3v.1a2.081,2.081,0,0,1-1.1,2.4l-66.9,38.6c-1,.5-2,.4-2.3-.4A2.151,2.151,0,0,1,165.3,317.6Z"/><path class="h" d="M168,323l40.9-23.6a1.542,1.542,0,0,1,2.3.3l.1.1a2.081,2.081,0,0,1-1.1,2.4l-41,23.6c-1,.5-2,.4-2.3-.4A1.984,1.984,0,0,1,168,323Z"/><path class="h" d="M179.8,343.9,247.2,305a1.983,1.983,0,0,1,2.6.2c.5.7.1,1.7-.9,2.2l-67.4,38.9a1.891,1.891,0,0,1-2.6-.3C178.5,345.5,178.9,344.5,179.8,343.9Z"/><path class="u" d="M179.8,343.9,247.2,305a1.983,1.983,0,0,1,2.6.2c.5.7.1,1.7-.9,2.2l-67.4,38.9a1.891,1.891,0,0,1-2.6-.3C178.5,345.5,178.9,344.5,179.8,343.9Z"/><path class="h" d="M183.3,348.9l26.5-15.3a1.983,1.983,0,0,1,2.6.2c.5.7.1,1.7-.9,2.2L185,351.3a1.983,1.983,0,0,1-2.6-.2C181.9,350.4,182.3,349.4,183.3,348.9Z"/><path class="h" d="M188.7,356.1l67.5-39a2.127,2.127,0,0,1,2.7.2c.5.6.2,1.6-.8,2.2l-67.5,39a2.127,2.127,0,0,1-2.7-.2A1.572,1.572,0,0,1,188.7,356.1Z"/><path class="u" d="M188.7,356.1l67.5-39a2.127,2.127,0,0,1,2.7.2c.5.6.2,1.6-.8,2.2l-67.5,39a2.127,2.127,0,0,1-2.7-.2A1.572,1.572,0,0,1,188.7,356.1Z"/><path class="h" d="M192.6,360.7l26.3-15.2a2.259,2.259,0,0,1,2.8.2c.6.6.2,1.6-.7,2.2L194.7,363a2.259,2.259,0,0,1-2.8-.2C191.3,362.2,191.6,361.2,192.6,360.7Z"/><path class="h" d="M172,331l52.8-30.5a1.76,1.76,0,0,1,2.5.3,1.857,1.857,0,0,1-1,2.3l-52.9,30.6a1.854,1.854,0,0,1-2.5-.3A1.984,1.984,0,0,1,172,331Z"/><path class="u" d="M172,331l52.8-30.5a1.76,1.76,0,0,1,2.5.3,1.857,1.857,0,0,1-1,2.3l-52.9,30.6a1.854,1.854,0,0,1-2.5-.3A1.984,1.984,0,0,1,172,331Z"/><path class="h" d="M175,336.3l48.2-27.8a1.76,1.76,0,0,1,2.5.3,1.848,1.848,0,0,1-.9,2.3l-48.2,27.8a1.76,1.76,0,0,1-2.5-.3A1.721,1.721,0,0,1,175,336.3Z"/><path class="h" d="M252.8,278.3a2.12,2.12,0,0,1,2.8.9h0a2.089,2.089,0,1,1-3.6,2.1h0A2.39,2.39,0,0,1,252.8,278.3Z"/><path class="h" d="M265.7,298.7a2.492,2.492,0,0,1,3.1.8,1.75,1.75,0,0,1-.1,2.5c-.1.1-.2.2-.3.2a2.492,2.492,0,0,1-3.1-.8,1.79,1.79,0,0,1,.2-2.6A.349.349,0,0,1,265.7,298.7Z"/><path class="u" d="M265.7,298.7a2.492,2.492,0,0,1,3.1.8,1.75,1.75,0,0,1-.1,2.5c-.1.1-.2.2-.3.2a2.492,2.492,0,0,1-3.1-.8,1.79,1.79,0,0,1,.2-2.6A.349.349,0,0,1,265.7,298.7Z"/><path class="a" d="M216.6,388,317,330a5.939,5.939,0,0,1,5.5,0l53.1,30.7c1.5.9,1.5,2.3,0,3.2l-100.4,58a5.939,5.939,0,0,1-5.5,0l-53.1-30.7C215.1,390.3,215.1,388.9,216.6,388Z"/><path class="l" d="M284.5,406.3c.1,0,.1.1.2.1l.1.1a.349.349,0,0,1,.1.2v.7l.8-.4h.2l.4.2h0l-1.6.9h-.2l-.3-.2a.1.1,0,0,1-.1-.1v-.1l.2-.9v-.2l-.1-.1h-.4c-.1,0-.1,0-.2.1l-.1.1v.2h0v.1h-.1l-.4.2h-.1a.215.215,0,0,1-.2-.2.454.454,0,0,1,0-.5l.3-.3c.1-.1.3-.1.4-.2h.4a.6.6,0,0,1,.4.1C284.4,406.2,284.5,406.2,284.5,406.3Z"/><path class="l" d="M285,405.1c.1-.1.3-.1.5-.2h.5a.9.9,0,0,1,.5.1.758.758,0,0,1,.4.2c.1.1.2.1.3.2l.3.2c.1.1.2.1.3.2a.5.5,0,0,1,0,.6l-.3.3c-.1.1-.3.1-.5.2h-.5a.9.9,0,0,1-.5-.1.758.758,0,0,1-.4-.2l-.3-.2-.3-.2c-.1-.1-.2-.1-.3-.2a.5.5,0,0,1,0-.6Zm1.9.7-.6-.3-.2-.1h-.4l-.2.1-.1.1v.1a.1.1,0,0,0,.1.1l.1.1.6.3.2.1h.4c.1,0,.1,0,.2-.1l.1-.1V406a.1.1,0,0,0-.1-.1.1.1,0,0,1-.1-.1Z"/><path class="l" d="M286.9,404.9h0v-1l.4-.2h.2l2.2,1.3h0l-.4.2h-.2l-1.5-.9v.4h-.1Z"/><path class="l" d="M291,403.5c.1.1.2.1.3.3a.367.367,0,0,1,.1.3c0,.1-.1.2-.1.3-.1.1-.2.2-.3.2-.1.1-.3.1-.4.2-.2,0-.3.1-.5.1h-.5a.52.52,0,0,1-.4-.2c-.1,0-.1-.1-.2-.1l-.1-.1-.1-.1v-.1l-.3-.9h0l.5-.3h.2l.2.6c.1-.1.2-.1.4-.1h.4l.4.1C290.7,403.4,290.9,403.4,291,403.5Zm-1.2.7a.349.349,0,0,0,.2.1h.4l.1-.1.1-.1v-.2l-.1-.1a.31.31,0,0,1-.2-.1h-.4l-.1.1-.1.1v.2c-.1,0,0,.1.1.1Z"/><path class="l" d="M310.7,391.4l.2.1a.1.1,0,0,1,.1.1l.1.2v.2l-.1.5.8-.4h.2l.4.2h0l-1.6.9h-.2l-.3-.2-.1-.1v-.1l.1-1v-.2l-.1-.1h-.5a.1.1,0,0,0-.1.1v.2h0v.1c0,.1,0,0-.1,0l-.4.2H309c-.1-.1-.2-.1-.2-.2a.31.31,0,0,1-.1-.2.367.367,0,0,1,.1-.3l.3-.3c.1-.1.3-.1.4-.2h.4a.6.6,0,0,1,.4.1C310.4,391.3,310.5,391.3,310.7,391.4Z"/><path class="l" d="M311.1,390.2c.1-.1.3-.1.5-.2h.5a.9.9,0,0,1,.5.1.758.758,0,0,1,.4.2l.3.2.3.2c.1.1.2.2.3.2a.5.5,0,0,1,0,.6l-.3.3c-.1.1-.3.1-.5.2h-.5a.9.9,0,0,1-.5-.1.758.758,0,0,1-.4-.2l-.3-.2-.3-.2-.3-.3a.5.5,0,0,1,0-.6A1.442,1.442,0,0,0,311.1,390.2Zm1.8.7-.6-.3-.2-.1h-.3c-.1,0-.1,0-.2.1l-.1.1v.1a.1.1,0,0,0,.1.1l.1.1.6.3.2.1h.4c.1,0,.1,0,.2-.1l.1-.1v-.1a.1.1,0,0,0-.1-.1Z"/><path class="l" d="M313,390.1h0v-.9l.4-.2h.2l2.2,1.3h0l-.4.2h-.2l-1.5-.9v.4h-.1Z"/><path class="l" d="M316.4,389.9h0l-1.1-1.4-.9.5h-.2l-.4-.2h0l1.4-.8h.2l.3.2.1.1,1.1,1.4h0l-.4.2h-.1Z"/><path class="l" d="M338.1,375.5l.2.1.1.1c0,.1.1.1.1.2v.7l.8-.4h.2l.4.2h0l-1.6.9H338l-.3-.2a.1.1,0,0,1-.1-.1v-.1l.2-1v-.2l-.1-.1h-.5l-.1.1v.2h0v.1c0,.1,0,0-.1,0l-.4.2h-.2c-.1-.1-.2-.1-.2-.2a.31.31,0,0,1-.1-.2.367.367,0,0,1,.1-.3l.3-.3c.1-.1.3-.1.4-.2h.4a.6.6,0,0,1,.4.1A1.406,1.406,0,0,0,338.1,375.5Z"/><path class="l" d="M338.5,374.3c.1-.1.3-.1.5-.2h.5a.9.9,0,0,1,.5.1.758.758,0,0,1,.4.2l.3.2.3.2c.1.1.2.2.3.2a.5.5,0,0,1,0,.6l-.3.3c-.1.1-.3.1-.5.2H340a.9.9,0,0,1-.5-.1.758.758,0,0,1-.4-.2l-.3-.2-.3-.2-.3-.3a.5.5,0,0,1,0-.6C338.3,374.5,338.4,374.4,338.5,374.3Zm1.8.7-.6-.3-.2-.1h-.4c-.1,0-.1,0-.2.1l-.1.1v.1a.1.1,0,0,0,.1.1l.1.1.6.3.2.1h.4c.1,0,.1,0,.2-.1l.1-.1v-.1a.1.1,0,0,0-.1-.1Z"/><path class="l" d="M340.4,374.2h0c-.1,0-.1-.1,0,0v-1l.4-.2h.2l2.2,1.3h0l-.4.2h-.2l-1.5-.9v.4H341Z"/><path class="l" d="M342,373.2c-.1-.1-.2-.1-.2-.2a.349.349,0,0,0-.1-.2c0-.1.1-.2.1-.3.1-.1.2-.2.3-.2.1-.1.2-.1.4-.1.1,0,.3-.1.4-.1h.4c.1,0,.3.1.4.1a.215.215,0,0,1,.2.2c0,.1.1.1.1.2h.4c.1,0,.2.1.3.1.1.1.2.1.2.2s.1.2,0,.3c0,.1-.1.2-.1.3-.1.1-.2.2-.3.2-.1.1-.3.1-.4.2-.1,0-.3.1-.4.1h-.4c-.1,0-.3-.1-.4-.1a.215.215,0,0,1-.2-.2c0-.1-.1-.1-.1-.2h-.3Q342.15,373.2,342,373.2Zm.5-.3c.1,0,.2.1.3,0a.367.367,0,0,0,.3-.1c.1,0,.1-.1.1-.2s0-.1-.1-.1h-.3a.367.367,0,0,0-.3.1v.3Zm1,.6c.1,0,.2.1.3,0a.367.367,0,0,0,.3-.1c.1-.1.2-.1.2-.2s0-.1-.1-.1-.2-.1-.3,0a.367.367,0,0,0-.3.1c-.1.1-.2.1-.2.2s0,0,.1.1Z"/><path class="l" d="M360.7,362.4c.1,0,.1.1.2.1a.1.1,0,0,1,.1.1.349.349,0,0,1,.1.2v.2l-.1.5.8-.4h.2l.4.2v.1h0l-1.6.9h-.2l-.3-.2-.1-.1v-.1l.1-.9v-.2l-.1-.1h-.3c-.1,0-.1,0-.2.1l-.1.1v.2h0v.1l-.1.1-.4.2h-.2a.215.215,0,0,1-.2-.2.31.31,0,0,1-.1-.2.367.367,0,0,1,.1-.3l.3-.3c.1-.1.3-.1.4-.2h.4a.6.6,0,0,1,.4.1Z"/><path class="l" d="M361.1,361.3c.1-.1.3-.1.5-.2h.5a.9.9,0,0,1,.5.1.758.758,0,0,1,.4.2c.1.1.2.1.3.2l.3.2c.1.1.2.1.3.2a.5.5,0,0,1,0,.6l-.3.3c-.1.1-.3.1-.5.2h-.5a.9.9,0,0,1-.5-.1.758.758,0,0,1-.4-.2l-.3-.2-.3-.2c-.1-.1-.2-.1-.3-.2a.5.5,0,0,1,0-.6Q360.95,361.3,361.1,361.3Zm1.9.7-.6-.3-.2-.1h-.4l-.2.1-.1.1v.1a.1.1,0,0,0,.1.1l.1.1.6.3.2.1h.4c.1,0,.1,0,.2-.1l.1-.1v-.1a.1.1,0,0,0-.1-.1Z"/><path class="l" d="M363,361.1h0v-1l.4-.2h.2l2.2,1.3h0l-.4.2h-.2l-1.5-.9v.4h-.1Z"/><path class="l" d="M364.6,360.2c-.1-.1-.2-.1-.3-.3a.5.5,0,0,1,0-.6c.1-.1.2-.2.3-.2.1-.1.2-.1.4-.2.2,0,.3-.1.5-.1h.5a.52.52,0,0,1,.4.2l.2.1.1.1.1.1v.1l.3.9h0l-.5.3h-.2l-.2-.6c-.1,0-.2.1-.4.1H365C364.9,360.3,364.8,360.3,364.6,360.2Zm1.2-.7-.1-.1h-.4c-.1,0-.1,0-.1.1a.1.1,0,0,0-.1.1v.2l.1.1.1.1h.4c.1,0,.1,0,.1-.1a.1.1,0,0,0,.1-.1v-.2l-.1-.1Z"/><path class="h" d="M263.1,408.1c2.5-1.5-16.8-13-8.4-17.7s22.1,6.5,30.6,1.6c8.1-4.7-16.7-16.1-8.4-20.9s24.7,7.9,33.4,3.2c7.6-4.1-1.5-8.7,2.1-12.1s13.2.8,19.5-2.6-17.3-11-4.4-18.5l30.1,17.4-90,52.3Z"/><path class="h" d="M264.1,408.3l-2.1-.4c.6-.4-1.6-2.5-3.4-4.2-4.5-4.3-10.7-10.2-4.9-13.5a12.944,12.944,0,0,1,5.1-1.4c3.9-.2,8,1,11.9,2.1,3.5,1,7.2,2.1,10,1.9a7.589,7.589,0,0,0,3.6-1.1c3.8-2.2-.3-6.1-4.3-10-4.2-4.1-8.5-8.3-4.1-10.9a11.906,11.906,0,0,1,4.9-1.3c4.3-.2,8.7,1.2,13.5,2.8,4.2,1.3,8.5,2.7,11.8,2.6a6.294,6.294,0,0,0,3.3-.9c4.1-2.2,3-4.6,2-7-.8-1.8-1.6-3.5,0-5.1,2.1-2,6.5-1.8,10-1.6,3.7.2,6.8.4,9.6-1.1,2.2-1.2-.1-3.3-2.8-5.6-4.2-3.7-9.5-8.3-1.6-12.9l2.1.4c-7.4,4.3-2.3,8.6,1.8,12.2,2.9,2.5,5.5,4.8,2.6,6.3-3.5,1.9-8.2,1.7-12,1.5s-5.9-.3-7.4,1.1-.7,3,.1,4.7c1.1,2.4,2.3,5-2.3,7.5a11.148,11.148,0,0,1-5,1.2c-4.4.2-8.9-1.3-13.7-2.8-4.1-1.3-8.4-2.7-11.5-2.5a6.2,6.2,0,0,0-3.2.9c-3.9,2.3.2,6.3,4.3,10.3,4.3,4.2,8.4,8.2,4.1,10.7a10.757,10.757,0,0,1-5.3,1.4c-3.9.2-8-1-12-2.1-3.5-1-7.1-2.1-9.9-1.9a8.785,8.785,0,0,0-3.5,1c-5.2,2.9,1,8.9,5.1,12.8C263.8,406.2,265.2,407.6,264.1,408.3Z"/><path class="l" d="M279.3,372.4h-.6l-.5-.3c-.1-.1,0-.2.2-.2a1.268,1.268,0,0,1,.6.1l.5.3C279.6,372.3,279.5,372.4,279.3,372.4Z"/><path class="l" d="M305.5,387.6a1.268,1.268,0,0,1-.6-.1l-.9-.5c-.1-.1,0-.2.2-.2a1.268,1.268,0,0,1,.6.1l.9.5C305.8,387.4,305.8,387.5,305.5,387.6Zm-1.8-1.1h-.6l-.9-.5c-.1-.1,0-.2.2-.2h.6l.9.5c.1.1,0,.1-.2.2Zm-1.9-1.1a.637.637,0,0,1-.6,0l-.9-.5c-.1-.1,0-.2.2-.2a.637.637,0,0,1,.6,0l.9.5c.1.1,0,.2-.2.2Zm-1.9-1.1a1.268,1.268,0,0,1-.6-.1l-.9-.5c-.1-.1,0-.2.2-.2a1.268,1.268,0,0,1,.6.1l.9.5c.1.1,0,.2-.2.2Zm-1.9-1.1a1.268,1.268,0,0,1-.6-.1l-.9-.5c-.1-.1,0-.2.2-.2a1.268,1.268,0,0,1,.6.1l.9.5c.1.1.1.2-.2.2Zm-1.8-1a.637.637,0,0,1-.6,0l-.9-.5c-.1-.1,0-.2.2-.2a.637.637,0,0,1,.6,0l.9.5c.1,0,0,.1-.2.2Zm-1.9-1.1h-.6l-.9-.5c-.1-.1,0-.2.2-.2h.6l.9.5c.1,0,0,.1-.2.2Zm-1.9-1.1a1.268,1.268,0,0,1-.6-.1l-.9-.5c-.1-.1,0-.2.2-.2a1.268,1.268,0,0,1,.6.1l.9.5C292.7,379.9,292.6,380,292.4,380Zm-1.8-1.1a1.268,1.268,0,0,1-.6-.1l-.9-.5c-.1-.1,0-.2.2-.2a1.268,1.268,0,0,1,.6.1l.9.5c0,.1,0,.2-.2.2Zm-1.9-1.1h-.6l-.9-.5c-.1-.1,0-.2.2-.2a1.268,1.268,0,0,1,.6.1l.9.5c.1,0,0,.1-.2.1Zm-1.9-1h-.6l-.9-.5c-.1-.1,0-.2.2-.2h.6l.9.5c.1,0,0,.1-.2.2Zm-1.9-1.1a1.268,1.268,0,0,1-.6-.1l-.9-.5c-.1-.1,0-.2.2-.2a1.268,1.268,0,0,1,.6.1l.9.5c.1,0,0,.1-.2.2Zm-1.8-1.1a1.268,1.268,0,0,1-.6-.1l-.9-.5c-.1-.1-.1-.2.2-.2a1.268,1.268,0,0,1,.6.1l.9.5s0,.1-.2.2Zm-1.9-1.1a1.268,1.268,0,0,1-.6-.1l-.9-.5c-.1-.1,0-.2.2-.2a1.268,1.268,0,0,1,.6.1l.9.5c.1.1,0,.2-.2.2Z"/><path class="l" d="M306.9,388.4h-.6l-.5-.3c-.1-.1,0-.2.2-.2a1.268,1.268,0,0,1,.6.1l.5.3C307.2,388.2,307.2,388.3,306.9,388.4Z"/><path class="l" d="M277.8,403.5a1.268,1.268,0,0,1-.6-.1l-.9-.5c-.1-.1,0-.2.2-.2a1.268,1.268,0,0,1,.6.1l.9.5C278.1,403.3,278,403.4,277.8,403.5Zm-1.9-1.1h-.6l-.9-.5c-.1-.1,0-.2.2-.2h.6l.9.5C276.2,402.2,276.1,402.3,275.9,402.4Zm-1.8-1.1h-.6l-.9-.5c-.1-.1-.1-.2.2-.2h.6l.9.5C274.4,401.2,274.3,401.3,274.1,401.3Zm-1.9-1.1a1.268,1.268,0,0,1-.6-.1l-.9-.5c-.1-.1,0-.2.2-.2a1.268,1.268,0,0,1,.6.1l.9.5c.1.1,0,.2-.2.2Zm-1.9-1.1a1.268,1.268,0,0,1-.6-.1l-.9-.5c-.1-.1-.1-.2.2-.2a1.268,1.268,0,0,1,.6.1l.9.5c.1.1,0,.2-.2.2Zm-1.9-1a1.268,1.268,0,0,1-.6-.1l-.9-.5c-.1-.1,0-.2.2-.2a1.268,1.268,0,0,1,.6.1l.9.5c.1,0,0,.1-.2.2Zm-1.8-1.1a.637.637,0,0,1-.6,0l-.9-.5c-.1-.1,0-.2.2-.2a.637.637,0,0,1,.6,0l.9.5C266.9,396.8,266.8,396.9,266.6,397Zm-1.9-1.1a1.268,1.268,0,0,1-.6-.1l-.9-.5c-.1-.1,0-.2.2-.2a1.268,1.268,0,0,1,.6.1l.9.5c.1,0,0,.1-.2.2Zm-1.9-1.1a1.268,1.268,0,0,1-.6-.1l-.9-.5c-.1-.1,0-.2.2-.2a1.268,1.268,0,0,1,.6.1l.9.5c.1.1,0,.2-.2.2Zm-1.9-1a1.268,1.268,0,0,1-.6-.1l-.9-.5c-.1-.1,0-.2.2-.2a1.268,1.268,0,0,1,.6.1l.9.5c.1,0,0,.1-.2.2Zm-1.8-1.1h-.6l-.9-.5c-.1-.1,0-.2.2-.2h.6l.9.5c.1,0,0,.1-.2.2Zm-1.9-1.1a1.268,1.268,0,0,1-.6-.1l-.9-.5c-.1-.1-.1-.2.2-.2h.6l.9.5c.1.1,0,.2-.2.3Z"/><path class="l" d="M279.2,404.3h-.6l-.5-.3c-.1-.1,0-.2.2-.2a1.268,1.268,0,0,1,.6.1l.5.3C279.5,404.1,279.4,404.2,279.2,404.3Z"/><path class="l" d="M315.7,362.1a1.268,1.268,0,0,1-.6-.1l-.5-.3c-.1-.1,0-.2.2-.2h.6l.5.3C316,362,315.9,362.1,315.7,362.1Z"/><path class="l" d="M332.5,371.8a1.268,1.268,0,0,1-.6-.1l-.9-.5c-.1-.1,0-.2.2-.2a.637.637,0,0,1,.6,0l.9.5C332.7,371.6,332.7,371.7,332.5,371.8Zm-1.9-1.1H330l-.9-.5c-.1-.1,0-.2.2-.2a1.268,1.268,0,0,1,.6.1l.9.5c.1,0,0,0-.2.1Zm-1.9-1.1a1.268,1.268,0,0,1-.6-.1l-.9-.5c-.1-.1,0-.2.2-.2h.6l.9.5c.1.2.1.3-.2.3Zm-1.8-1.1h-.6l-.9-.5c-.1-.1,0-.2.2-.2a1.268,1.268,0,0,1,.6.1l.9.5c.1,0,0,.1-.2.1Zm-1.9-1a1.268,1.268,0,0,1-.6-.1l-.9-.5c-.1-.1,0-.2.2-.2h.6l.9.5C325.3,367.3,325.2,367.4,325,367.5Zm-1.9-1.1a1.268,1.268,0,0,1-.6-.1l-.9-.5c-.1-.1,0-.2.2-.2a1.268,1.268,0,0,1,.6.1l.9.5C323.4,366.3,323.4,366.4,323.1,366.4Zm-1.8-1.1h-.6l-.9-.5c-.1-.1,0-.2.2-.2a1.268,1.268,0,0,1,.6.1l.9.5c.1,0,0,.1-.2.1Zm-1.9-1a1.268,1.268,0,0,1-.6-.1l-.9-.5c-.1-.1-.1-.2.2-.2a1.268,1.268,0,0,1,.6.1l.9.5c.1,0,0,.1-.2.2Zm-1.8-1.1H317l-.9-.5c-.1-.1-.1-.2.2-.2a1.268,1.268,0,0,1,.6.1l.9.5c.1-.1,0,0-.2.1Z"/><path class="l" d="M333.8,372.6a1.268,1.268,0,0,1-.6-.1l-.5-.3c-.1-.1,0-.2.2-.2a1.268,1.268,0,0,1,.6.1l.5.3C334.1,372.4,334.1,372.5,333.8,372.6Z"/><path class="l" d="M275.4,366.6l-4.3-2.5-5.6,3.3,4.3,2.5,2.3-1.4,2.7.9-1.2-1.8h0Z"/><path class="l" d="M252.9,386.3l-4.3-2.4-5.7,3.2,4.4,2.5,2.3-1.3,2.7.9-1.2-1.8h0Z"/><path class="l" d="M313.2,357.4l-4.3-2.5-5.7,3.3,4.3,2.5,2.4-1.4,2.7.9-1.2-1.8h0Z"/><path class="l" d="M300.8,422.2h.2l.5.3a.1.1,0,0,1,.1.1v.1l.1.7a2.768,2.768,0,0,1,.9-.1,2.92,2.92,0,0,1,.9.2c.4.2.6.5.5.7a1.542,1.542,0,0,1-.7.7l-.6.3a1.268,1.268,0,0,1-.6.1h-.6c-.2,0-.3-.1-.5-.2v-.2l.5-.3h.8c.1,0,.2-.1.3-.1.1-.1.2-.1.3-.3,0-.1,0-.2-.1-.2a.6.6,0,0,0-.4-.1.52.52,0,0,0-.4.2l-.4.2h-.2l-.4-.3a.1.1,0,0,1-.1-.1v-.1l-.1-.6-1.1.7h-.3l-.5-.3-.1-.1v-.1Z"/><path class="l" d="M302.7,421a4.872,4.872,0,0,1,.7-.3h.7a1.7,1.7,0,0,1,.7.1l.6.3.5.3a1.381,1.381,0,0,1,.4.3.781.781,0,0,1,.4.4.52.52,0,0,1,.2.4.6.6,0,0,1-.1.4,1,1,0,0,1-.5.4,4.872,4.872,0,0,1-.7.3h-.7c-.2,0-.5-.1-.7-.1-.2-.1-.4-.1-.6-.3l-.5-.3-.5-.3a.781.781,0,0,1-.4-.4.52.52,0,0,1-.2-.4.6.6,0,0,1,.1-.4A5.921,5.921,0,0,0,302.7,421Zm2.8,1c-.3-.2-.6-.3-.9-.5l-.3-.1a.367.367,0,0,1-.3-.1h-.3c-.1,0-.2.1-.3.1s-.1.1-.2.1v.2a.1.1,0,0,0,.1.1c.1.1.1.1.2.1a7.255,7.255,0,0,0,.9.5l.3.1c.1,0,.2.1.3.1h.3a.367.367,0,0,0,.3-.1c.1,0,.1-.1.2-.1v-.1c0-.1-.1-.1-.1-.2Z"/><path class="l" d="M306.5,419.7c.1.1.3.1.4.2a.215.215,0,0,1,.2.2c.1.1.1.1.1.2s0,.2-.1.2c-.1.1-.1.2-.2.2-.1.1-.2.1-.4.1h-.4l-.4-.1c-.1,0-.2-.1-.3-.1l-.2-.1-.2-.1c-.1-.1-.2-.1-.2-.2-.1-.1-.1-.1-.1-.2s0-.2.1-.2c.1-.1.1-.2.2-.2.1-.1.2-.1.4-.1h.8C306.3,419.6,306.4,419.6,306.5,419.7Zm-.5.7c.1,0,.2.1.3.1h.2a.1.1,0,0,0,0-.2c-.1-.1-.2-.1-.3-.2a.349.349,0,0,1-.2-.1h-.2a.1.1,0,1,0,0,.2.215.215,0,0,0,.2.2Zm1-1.7h0c0-.1,0-.1.1-.1l.4-.2h.2l1.1,3.2v.1a.1.1,0,0,1-.1.1l-.4.2h-.2Zm3.3.8c.1.1.3.1.4.2s.2.1.2.2c.1.1.1.1.1.2s0,.2-.1.2c-.1.1-.1.2-.2.2-.1.1-.2.1-.4.1h-.8c-.1,0-.2-.1-.3-.1s-.1-.1-.2-.1l-.2-.1c-.1-.1-.2-.1-.2-.2s-.1-.1-.1-.2,0-.2.1-.2c.1-.1.1-.2.2-.2.1-.1.2-.1.4-.1h.4a.756.756,0,0,1,.4.1Zm-.5.8c.1,0,.2.1.3.1h.2a.1.1,0,0,0,.1-.1c0-.1-.1-.1-.2-.1-.1-.1-.2-.1-.3-.2l-.2-.1h-.2a.1.1,0,0,0,0,.2c.1.1.2.1.3.2Z"/><path class="h" d="M295,419.3l-3.7-1.1a5.717,5.717,0,0,0-1.3,4.7l4.1-.4A3.812,3.812,0,0,1,295,419.3Z"/><path class="h" d="M291.8,417.7l3.7,1.1a6.991,6.991,0,0,1,1.7-1.3,15.956,15.956,0,0,1,2.3-1l-1.9-2.1a16.375,16.375,0,0,0-3.3,1.4A7.9,7.9,0,0,0,291.8,417.7Z"/><path class="h" d="M306,415.7l.6-2.4a24.508,24.508,0,0,0-8.1.7l1.9,2.1A17.461,17.461,0,0,1,306,415.7Z"/><path class="h" d="M294.3,423.1l-4.1.4a8.015,8.015,0,0,0,3.7,4.2l2.9-1.7A5.933,5.933,0,0,1,294.3,423.1Z"/><path class="h" d="M297.6,426.4l-3,1.7a21.13,21.13,0,0,0,7.4,2.2l.6-2.4A15.164,15.164,0,0,1,297.6,426.4Z"/><path class="h" d="M303.6,428l-.6,2.4a24.508,24.508,0,0,0,8.1-.7l-1.9-2.1A25.944,25.944,0,0,1,303.6,428Z"/><path class="h" d="M312.4,426.2a15.956,15.956,0,0,1-2.3,1l1.9,2.1a12.372,12.372,0,0,0,3.3-1.5,11.78,11.78,0,0,0,2.5-1.9l-3.7-1.1A4.573,4.573,0,0,1,312.4,426.2Z"/><path class="h" d="M314.6,424.4l3.7,1.1a5.717,5.717,0,0,0,1.3-4.7l-4.1.4A3.812,3.812,0,0,1,314.6,424.4Z"/><path class="h" d="M312,417.2l2.9-1.7a21.246,21.246,0,0,0-7.3-2.2l-.6,2.4A15.164,15.164,0,0,1,312,417.2Z"/><path class="h" d="M315.3,420.6l4.1-.4a8.015,8.015,0,0,0-3.7-4.2l-3,1.7A5.3,5.3,0,0,1,315.3,420.6Z"/><path class="i" d="M291.8,417.7l3.7,1.1a6.991,6.991,0,0,1,1.7-1.3,15.956,15.956,0,0,1,2.3-1l-1.9-2.1a16.375,16.375,0,0,0-3.3,1.4A7.9,7.9,0,0,0,291.8,417.7Z"/><path class="i" d="M306,415.7l.6-2.4a24.508,24.508,0,0,0-8.1.7l1.9,2.1A17.461,17.461,0,0,1,306,415.7Z"/><g class="v"><path d="M312,417.2l2.9-1.7a21.246,21.246,0,0,0-7.3-2.2l-.6,2.4A15.164,15.164,0,0,1,312,417.2Z"/></g><path class="l" d="M338.2,403.5h.6l.2-.1a.1.1,0,0,0,.1-.1l.1-.1v-.1c0-.1-.1-.1-.2-.1a.6.6,0,0,0-.4-.1c-.2,0-.3,0-.4.1a.1.1,0,0,0-.1.1l-.1.1v.1h0l-.7.4h-.2l-1.7-1.1-.1-.1v-.1l1.9-1.1h.2l.5.3a.1.1,0,0,1,.1.1v.1l-1.3.7.4.3a.1.1,0,0,1,.1-.1c.1-.1.1-.1.2-.1a1.69,1.69,0,0,1,.5-.2,1.85,1.85,0,0,1,1.2,0c.2.1.4.1.6.3a.781.781,0,0,1,.4.4c.1.1.1.2.1.4a.758.758,0,0,1-.2.4c-.1.1-.3.3-.4.3l-.6.3c-.2,0-.4.1-.6.1a1.268,1.268,0,0,1-.6-.1c-.2,0-.3-.1-.5-.2v-.1h0l.6-.3c.1-.4.2-.4.3-.4Z"/><path class="l" d="M339,400.1a4.872,4.872,0,0,1,.7-.3c.2,0,.5-.1.7-.1s.5.1.7.1c.2.1.4.1.6.3l.5.3a1.381,1.381,0,0,1,.4.3.781.781,0,0,1,.4.4.52.52,0,0,1,.2.4.6.6,0,0,1-.1.4,1,1,0,0,1-.5.4,4.872,4.872,0,0,1-.7.3c-.2,0-.5.1-.7.1a1.7,1.7,0,0,1-.7-.1c-.2-.1-.4-.1-.6-.3l-.5-.3-.4-.3a.781.781,0,0,1-.4-.4.52.52,0,0,1-.2-.4.6.6,0,0,1,.1-.4A1.755,1.755,0,0,1,339,400.1Zm2.7,1c-.3-.2-.6-.3-.9-.5-.1,0-.2-.1-.3-.1l-.3-.1a.749.749,0,0,0-.5.1c-.1,0-.1.1-.2.1v.2a.1.1,0,0,0,.1.1c.1.1.1.1.2.1.3.2.6.3.9.5.1,0,.2.1.3.1a.367.367,0,0,1,.3.1h.3a.367.367,0,0,0,.3-.1c.1,0,.1-.1.2-.1v-.2a.1.1,0,0,0-.1-.1c-.1,0-.2-.1-.3-.1Z"/><path class="l" d="M342.8,398.7c.1.1.3.1.4.2s.2.1.2.2c.1.1.1.1.1.2s0,.2-.1.2c-.1.1-.1.2-.2.2-.1.1-.2.1-.4.1h-.4a.756.756,0,0,1-.4-.1c-.1,0-.2-.1-.3-.1l-.2-.1-.2-.1c-.1-.1-.2-.1-.2-.2s-.1-.1-.1-.2,0-.2.1-.2c.1-.1.1-.2.2-.2.1-.1.2-.1.4-.1h.4a.756.756,0,0,1,.4.1C342.6,398.6,342.7,398.7,342.8,398.7Zm-.5.8c.1,0,.2.1.3.1h.2a.1.1,0,0,0,.1-.1c0-.1-.1-.1-.2-.1-.1-.1-.2-.1-.3-.2l-.2-.1H342a.1.1,0,0,0,0,.2C342.1,399.3,342.2,399.4,342.3,399.5Zm1-1.7h0c0-.1,0-.1.1-.1l.4-.2h.2l1.1,3.2v.1a.1.1,0,0,1-.1.1l-.4.2h-.2Zm3.3.8.4.2c.1.1.2.1.2.2.1.1.1.1.1.2s0,.2-.1.2l-.2.2c-.1.1-.2.1-.4.1h-.4a.756.756,0,0,1-.4-.1c-.1,0-.2-.1-.3-.1l-.2-.1-.2-.1c-.1-.1-.2-.1-.2-.2s-.1-.1-.1-.2,0-.2.1-.2c.1-.1.1-.2.2-.2.1-.1.2-.1.4-.1h.4l.4.1a.367.367,0,0,1,.3.1Zm-.5.7c.1,0,.2.1.3.1h.2a.1.1,0,0,0,0-.2c-.1-.1-.2-.1-.3-.2-.1,0-.2-.1-.3-.1h-.2a.1.1,0,0,0,0,.2c.1.1.2.1.3.2Z"/><path class="h" d="M331.3,398.3l-3.7-1.1a5.717,5.717,0,0,0-1.3,4.7l4.1-.4A4.623,4.623,0,0,1,331.3,398.3Z"/><path class="h" d="M328.1,396.7l3.7,1.1a6.991,6.991,0,0,1,1.7-1.3,15.956,15.956,0,0,1,2.3-1l-1.9-2.1a16.375,16.375,0,0,0-3.3,1.4A9.2,9.2,0,0,0,328.1,396.7Z"/><path class="h" d="M342.3,394.7l.6-2.4a24.508,24.508,0,0,0-8.1.7l1.9,2.1A17.461,17.461,0,0,1,342.3,394.7Z"/><path class="h" d="M330.6,402.1l-4.1.4a7.8,7.8,0,0,0,3.8,4.2l2.9-1.7A5.659,5.659,0,0,1,330.6,402.1Z"/><path class="h" d="M333.9,405.5l-3,1.7a21.246,21.246,0,0,0,7.3,2.2l.6-2.4A22.952,22.952,0,0,1,333.9,405.5Z"/><path class="h" d="M340,407l-.6,2.4a24.508,24.508,0,0,0,8.1-.7l-1.9-2.1A25.944,25.944,0,0,1,340,407Z"/><path class="h" d="M348.8,405.3a15.956,15.956,0,0,1-2.3,1l1.9,2.1a12.372,12.372,0,0,0,3.3-1.5,11.78,11.78,0,0,0,2.5-1.9l-3.7-1.1A7.455,7.455,0,0,1,348.8,405.3Z"/><path class="h" d="M351,403.4l3.7,1.1a5.717,5.717,0,0,0,1.3-4.7l-4.1.4A3.812,3.812,0,0,1,351,403.4Z"/><path class="h" d="M348.4,396.3l3-1.7a21.246,21.246,0,0,0-7.3-2.2l-.7,2.4A13.12,13.12,0,0,1,348.4,396.3Z"/><path class="h" d="M351.7,399.6l4.1-.4a8.015,8.015,0,0,0-3.7-4.2l-2.9,1.7A5.933,5.933,0,0,1,351.7,399.6Z"/><path class="i" d="M328.1,396.7l3.7,1.1a6.991,6.991,0,0,1,1.7-1.3,15.956,15.956,0,0,1,2.3-1l-1.9-2.1a16.375,16.375,0,0,0-3.3,1.4A9.2,9.2,0,0,0,328.1,396.7Z"/><path class="i" d="M342.3,394.7l.6-2.4a24.508,24.508,0,0,0-8.1.7l1.9,2.1A17.461,17.461,0,0,1,342.3,394.7Z"/><path class="i" d="M351,403.4l3.7,1.1a5.717,5.717,0,0,0,1.3-4.7l-4.1.4A3.812,3.812,0,0,1,351,403.4Z"/><g class="v"><path d="M348.4,396.3l3-1.7a21.246,21.246,0,0,0-7.3-2.2l-.7,2.4A13.12,13.12,0,0,1,348.4,396.3Z"/></g><path class="i" d="M351.7,399.6l4.1-.4a8.015,8.015,0,0,0-3.7-4.2l-2.9,1.7A5.933,5.933,0,0,1,351.7,399.6Z"/><path class="l" d="M375.2,383.2h0l-1.7-2-1.3.8H372l-.5-.3a.1.1,0,0,1-.1-.1v-.1l2.1-1.2h.2l.5.3.2.2,1.6,2v.2l-.6.4h-.1C375.3,383.2,375.2,383.2,375.2,383.2Z"/><path class="l" d="M375.2,379.2a4.872,4.872,0,0,1,.7-.3h.7c.2,0,.5.1.7.1.2.1.4.1.6.3l.5.3.4.3a.781.781,0,0,1,.4.4.52.52,0,0,1,.2.4.6.6,0,0,1-.1.4,1,1,0,0,1-.5.4,4.872,4.872,0,0,1-.7.3h-.7a1.7,1.7,0,0,1-.7-.1c-.2-.1-.4-.1-.6-.3l-.5-.3c-.2-.1-.3-.2-.5-.3a.781.781,0,0,1-.4-.4.52.52,0,0,1-.2-.4.6.6,0,0,1,.1-.4A6.115,6.115,0,0,1,375.2,379.2Zm2.8,1-.9-.5-.3-.1c-.1,0-.2-.1-.3-.1h-.3c-.1,0-.2.1-.3.1s-.1.1-.2.2v.1a.1.1,0,0,0,.1.1l.2.2a7.255,7.255,0,0,0,.9.5l.3.1.3.1h.3c.1,0,.2-.1.3-.1s.1-.1.2-.2v-.1a.1.1,0,0,0-.1-.1c-.1-.1-.1-.2-.2-.2Z"/><path class="l" d="M379,377.8c.1.1.3.1.4.2s.2.1.2.2c.1.1.1.1.1.2s0,.2-.1.2c-.1.1-.1.2-.2.2-.1.1-.2.1-.4.1h-.4l-.4-.1c-.1,0-.2-.1-.3-.1l-.2-.1-.2-.1c-.1-.1-.2-.1-.2-.2-.1-.1-.1-.1-.1-.2s0-.2.1-.2l.2-.2c.1-.1.2-.1.4-.1a.854.854,0,0,1,.7,0C378.8,377.7,378.9,377.8,379,377.8Zm-.5.7c.1,0,.2.1.3.1h.2a.1.1,0,0,0,.1-.1c0-.1-.1-.1-.2-.1-.1-.1-.2-.1-.3-.2-.1,0-.2-.1-.3-.1h-.2a.1.1,0,0,0,0,.2c.2.1.3.2.4.2Zm1-1.6h0c0-.1,0-.1.1-.1l.4-.2h.2l1.1,3.2v.1a.1.1,0,0,1-.1.1l-.4.2h-.2Zm3.3.8c.1.1.3.1.4.2s.2.1.2.2c.1.1.1.1.1.2s0,.2-.1.2c-.1.1-.1.2-.2.2-.1.1-.2.1-.4.1h-.4a.756.756,0,0,1-.4-.1c-.1,0-.2-.1-.3-.1l-.2-.1-.2-.1c-.1-.1-.2-.1-.2-.2s-.1-.1-.1-.2,0-.2.1-.2c.1-.1.1-.2.2-.2.1-.1.2-.1.4-.1h.8c.1.1.2.1.3.2Zm-.5.7c.1,0,.2.1.3.1h.2a.1.1,0,0,0,.1-.1c0-.1-.1-.1-.2-.1-.1-.1-.2-.1-.3-.2-.1,0-.2-.1-.3-.1h-.2a.1.1,0,0,0-.1.1l.1.1c.2.1.3.1.4.2Z"/><path class="h" d="M367.7,377.3l-3.7-1.1a5.717,5.717,0,0,0-1.3,4.7l4.1-.4A3.812,3.812,0,0,1,367.7,377.3Z"/><path class="h" d="M364.4,375.7l3.7,1.1a6.991,6.991,0,0,1,1.7-1.3,15.956,15.956,0,0,1,2.3-1l-1.9-2.1a16.375,16.375,0,0,0-3.3,1.4A11.027,11.027,0,0,0,364.4,375.7Z"/><path class="h" d="M378.6,373.7l.6-2.4a24.508,24.508,0,0,0-8.1.7l1.9,2.1A21.456,21.456,0,0,1,378.6,373.7Z"/><path class="h" d="M366.9,381.1l-4.1.4a8.015,8.015,0,0,0,3.7,4.2l2.9-1.7A7.878,7.878,0,0,1,366.9,381.1Z"/><path class="h" d="M370.2,384.5l-3,1.7a21.246,21.246,0,0,0,7.3,2.2l.6-2.4A15.356,15.356,0,0,1,370.2,384.5Z"/><path class="h" d="M376.3,386l-.6,2.4a24.508,24.508,0,0,0,8.1-.7l-1.9-2.1A25.944,25.944,0,0,1,376.3,386Z"/><path class="h" d="M385.1,384.3a15.956,15.956,0,0,1-2.3,1l1.9,2.1A15.55,15.55,0,0,0,388,386a11.78,11.78,0,0,0,2.5-1.9l-3.7-1.1A10.916,10.916,0,0,1,385.1,384.3Z"/><path class="h" d="M387.3,382.4l3.7,1.1a5.717,5.717,0,0,0,1.3-4.7l-4.1.4A4.173,4.173,0,0,1,387.3,382.4Z"/><path class="h" d="M384.7,375.3l3-1.7a21.246,21.246,0,0,0-7.3-2.2l-.6,2.4A14.629,14.629,0,0,1,384.7,375.3Z"/><path class="h" d="M388,378.6l4.1-.4a8.015,8.015,0,0,0-3.7-4.2l-3,1.7A5.659,5.659,0,0,1,388,378.6Z"/><g class="v"><path d="M364.4,375.7l3.7,1.1a6.991,6.991,0,0,1,1.7-1.3,15.956,15.956,0,0,1,2.3-1l-1.9-2.1a16.375,16.375,0,0,0-3.3,1.4A11.027,11.027,0,0,0,364.4,375.7Z"/><path d="M378.6,373.7l.6-2.4a24.508,24.508,0,0,0-8.1.7l1.9,2.1A21.456,21.456,0,0,1,378.6,373.7Z"/><path d="M376.3,386l-.6,2.4a24.508,24.508,0,0,0,8.1-.7l-1.9-2.1A25.944,25.944,0,0,1,376.3,386Z"/><path d="M385.1,384.3a15.956,15.956,0,0,1-2.3,1l1.9,2.1A15.55,15.55,0,0,0,388,386a11.78,11.78,0,0,0,2.5-1.9l-3.7-1.1A10.916,10.916,0,0,1,385.1,384.3Z"/><path d="M387.3,382.4l3.7,1.1a5.717,5.717,0,0,0,1.3-4.7l-4.1.4A4.173,4.173,0,0,1,387.3,382.4Z"/><path d="M384.7,375.3l3-1.7a21.246,21.246,0,0,0-7.3-2.2l-.6,2.4A14.629,14.629,0,0,1,384.7,375.3Z"/><path d="M388,378.6l4.1-.4a8.015,8.015,0,0,0-3.7-4.2l-3,1.7A5.659,5.659,0,0,1,388,378.6Z"/></g><g class="v"><path d="M222,192.2c-.2,0-.3-.1-.4-.3a.663.663,0,0,1,.2-.7l32.5-18.8a.5.5,0,1,1,.6.8.1.1,0,0,0-.1.1l-32.5,18.8A.367.367,0,0,1,222,192.2Z"/><path d="M222,196.9c-.2,0-.3-.1-.4-.3a.663.663,0,0,1,.2-.7l32.5-18.8a.5.5,0,1,1,.6.8.1.1,0,0,0-.1.1l-32.5,18.8A.367.367,0,0,1,222,196.9Z"/><path d="M222,201.6c-.2,0-.3-.1-.4-.3a.663.663,0,0,1,.2-.7l32.5-18.8a.5.5,0,1,1,.6.8.1.1,0,0,0-.1.1l-32.5,18.8A.367.367,0,0,1,222,201.6Z"/><path d="M222,206.3c-.2,0-.3-.1-.4-.3a.663.663,0,0,1,.2-.7l32.5-18.8a.5.5,0,1,1,.6.8.1.1,0,0,0-.1.1l-32.5,18.8C222.2,206.2,222.1,206.3,222,206.3Z"/><path d="M222,211c-.2,0-.3-.1-.4-.3a.663.663,0,0,1,.2-.7l32.5-18.8a.527.527,0,0,1,.7.2h0a.527.527,0,0,1-.2.7l-32.5,18.7C222.2,211,222.1,211,222,211Z"/><path d="M222,215.6c-.2,0-.3-.1-.4-.3a.663.663,0,0,1,.2-.7l32.5-18.7a.527.527,0,0,1,.7.2h0a.527.527,0,0,1-.2.7l-32.5,18.8A.188.188,0,0,1,222,215.6Z"/><path d="M222,220.3c-.2,0-.4-.1-.4-.3a.663.663,0,0,1,.2-.7l32.5-18.8a.527.527,0,0,1,.7.2h0a.527.527,0,0,1-.2.7l-32.5,18.8A.367.367,0,0,1,222,220.3Z"/><path d="M222,135.9c-.2,0-.3-.1-.4-.3a.663.663,0,0,1,.2-.7l32.5-18.8a.527.527,0,0,1,.7.2h0a.527.527,0,0,1-.2.7l-32.5,18.8A.367.367,0,0,1,222,135.9Z"/><path d="M222,140.6c-.2,0-.4-.1-.4-.3a.663.663,0,0,1,.2-.7l32.5-18.8a.527.527,0,0,1,.7.2h0a.527.527,0,0,1-.2.7l-32.5,18.8A.367.367,0,0,1,222,140.6Z"/><path d="M222,145.3a.472.472,0,0,1-.5-.5.55.55,0,0,1,.3-.5l32.5-18.8a.527.527,0,0,1,.7.2h0a.527.527,0,0,1-.2.7l-32.5,18.8A.367.367,0,0,1,222,145.3Z"/><path d="M222,150a.472.472,0,0,1-.5-.5.55.55,0,0,1,.3-.5l32.5-18.8a.527.527,0,0,1,.7.2h0a.527.527,0,0,1-.2.7l-32.5,18.8A.367.367,0,0,1,222,150Z"/><path d="M222,154.7a.472.472,0,0,1-.5-.5.55.55,0,0,1,.3-.5L254.3,135a.527.527,0,0,1,.7.2c.2.3.1.5-.2.7l-32.5,18.8Z"/><path d="M222,159.4a.472.472,0,0,1-.5-.5.55.55,0,0,1,.3-.5l32.5-18.8a.527.527,0,0,1,.7.2h0a.527.527,0,0,1-.2.7l-32.5,18.8C222.2,159.3,222.1,159.4,222,159.4Z"/><path d="M222,164.1c-.2,0-.3-.1-.4-.3a.527.527,0,0,1,.2-.7h0l32.5-18.8a.663.663,0,0,1,.7.2.527.527,0,0,1-.2.7h0L222.2,164A.349.349,0,0,1,222,164.1Z"/><path d="M222,168.8c-.2,0-.3-.1-.4-.3a.527.527,0,0,1,.2-.7h0L254.3,149a.663.663,0,0,1,.7.2.527.527,0,0,1-.2.7h0l-32.5,18.8C222.2,168.7,222.1,168.8,222,168.8Z"/><path d="M222,173.4c-.2,0-.3-.1-.4-.3a.527.527,0,0,1,.2-.7h0l32.5-18.8a.663.663,0,0,1,.7.2.527.527,0,0,1-.2.7h0l-32.5,18.8A.367.367,0,0,1,222,173.4Z"/><path d="M222,178.1c-.2,0-.3-.1-.4-.3a.663.663,0,0,1,.2-.7l32.5-18.8a.5.5,0,1,1,.6.8.1.1,0,0,0-.1.1L222.3,178A.367.367,0,0,1,222,178.1Z"/><path d="M222,182.8c-.2,0-.3-.1-.4-.3a.663.663,0,0,1,.2-.7l16.3-9.4a.515.515,0,1,1,.5.9l-16.2,9.4A.756.756,0,0,1,222,182.8Z"/><path d="M147.7,290.6c-.2,0-.3-.1-.4-.3a.527.527,0,0,1,.2-.7l106.4-61.4a.5.5,0,1,1,.6.8.1.1,0,0,0-.1.1L148,290.5A.367.367,0,0,1,147.7,290.6Z"/><path d="M149.2,296.5a.472.472,0,0,1-.5-.5.52.52,0,0,1,.2-.4l106.4-61.4a.527.527,0,0,1,.7.2h0a.527.527,0,0,1-.2.7L149.4,296.5Z"/><path d="M151,302.3c-.2,0-.3-.1-.4-.3a.527.527,0,0,1,.2-.7h0l106.4-61.4a.527.527,0,0,1,.7.2.663.663,0,0,1-.2.7L151.3,302.2A.367.367,0,0,1,151,302.3Z"/><path d="M152.9,308c-.2,0-.3-.1-.4-.3s-.1-.6.2-.7L259,245.7a.618.618,0,0,1,.7.2.481.481,0,0,1-.2.6L153.1,308C153,308,152.9,308.1,152.9,308Z"/><path d="M155,313.7c-.2,0-.3-.1-.4-.3a.527.527,0,0,1,.2-.7l106.4-61.4a.618.618,0,0,1,.7.2.481.481,0,0,1-.2.6L155.3,313.5C155.2,313.7,155.1,313.7,155,313.7Z"/><path d="M190,369.5a.758.758,0,0,1-.4-.2c-3.6-4.1-11.5-13.4-15.2-18.8-7.9-11.9-13.7-22.2-17.6-31.7a.517.517,0,0,1,.3-.7.419.419,0,0,1,.6.3h0c3.9,9.4,9.6,19.7,17.5,31.5,3.7,5.3,11.5,14.5,15.2,18.6a.483.483,0,0,1,0,.7h0C190.2,369.5,190.1,369.5,190,369.5Z"/><path d="M258.5,277.9c-.2,0-.3-.1-.4-.3a.663.663,0,0,1,.2-.7l11.5-6.7a.527.527,0,0,1,.7.2c.2.3.1.5-.2.7l-11.5,6.7A.367.367,0,0,1,258.5,277.9Z"/><path d="M254.5,287.3a.472.472,0,0,1-.5-.5.52.52,0,0,1,.2-.4L273,275.5c.2-.1.6-.1.7.2a.663.663,0,0,1-.2.7l-18.8,10.9Z"/><path d="M271.9,298.2c-.2,0-.3-.1-.4-.3a.663.663,0,0,1,.2-.7l11.5-6.6a.5.5,0,0,1,.6.8.1.1,0,0,0-.1.1l-11.5,6.6A.774.774,0,0,1,271.9,298.2Z"/><path d="M268.4,307.3a.472.472,0,0,1-.5-.5.52.52,0,0,1,.2-.4l18.5-11a.515.515,0,1,1,.5.9h0l-18.5,11C268.6,307.2,268.5,307.3,268.4,307.3Z"/><path d="M194.2,373.9a.472.472,0,0,1-.5-.5.52.52,0,0,1,.2-.4l107-61.8a.663.663,0,0,1,.7.2.527.527,0,0,1-.2.7h0l-107,61.8C194.4,373.8,194.3,373.9,194.2,373.9Z"/><path d="M198.7,378a.472.472,0,0,1-.5-.5.52.52,0,0,1,.2-.4l107-61.8a.5.5,0,0,1,.6.8.1.1,0,0,0-.1.1L198.9,378Z"/><path d="M203,381.8c-.2,0-.3-.1-.4-.3a.663.663,0,0,1,.2-.7l107-61.8a.527.527,0,0,1,.7.2c.2.3.1.5-.2.7l-107,61.8C203.2,381.7,203.1,381.8,203,381.8Z"/><path d="M208.1,385.9a.472.472,0,0,1-.5-.5.52.52,0,0,1,.2-.4l107-61.8a.515.515,0,0,1,.5.9l-107,61.8Z"/><path d="M311.1,436.2a.472.472,0,0,1-.5-.5.52.52,0,0,1,.2-.4l20.3-11.7a.527.527,0,0,1,.7.2c.2.3.1.5-.2.7l-20.3,11.7Z"/><path d="M315.2,438.6a.472.472,0,0,1-.5-.5.52.52,0,0,1,.2-.4L335.2,426a.618.618,0,0,1,.7.2.481.481,0,0,1-.2.6l-20.3,11.7A.35.35,0,0,1,315.2,438.6Z"/><path d="M319.3,440.9a.472.472,0,0,1-.5-.5.52.52,0,0,1,.2-.4l20.3-11.7a.527.527,0,0,1,.7.2c.2.3.1.5-.2.7l-20.3,11.7Z"/><path d="M347.7,415.1a.472.472,0,0,1-.5-.5.52.52,0,0,1,.2-.4l20.3-11.7a.5.5,0,1,1,.6.8.1.1,0,0,0-.1.1L348,415A.367.367,0,0,1,347.7,415.1Z"/><path d="M351.8,417.5a.472.472,0,0,1-.5-.5.52.52,0,0,1,.2-.4l20.3-11.7a.527.527,0,0,1,.7.2h0a.527.527,0,0,1-.2.7L352,417.4C351.9,417.4,351.9,417.5,351.8,417.5Z"/><path d="M355.8,419.8a.472.472,0,0,1-.5-.5.52.52,0,0,1,.2-.4l20.3-11.7a.527.527,0,0,1,.7.2c.2.3.1.5-.2.7L356,419.8Z"/><path d="M384.3,394a.472.472,0,0,1-.5-.5.52.52,0,0,1,.2-.4l20.3-11.7a.515.515,0,1,1,.5.9h0L384.5,394Z"/><path d="M388.3,396.4a.472.472,0,0,1-.5-.5.52.52,0,0,1,.2-.4l20.3-11.7a.527.527,0,0,1,.7.2c.2.3.1.5-.2.7l-20.3,11.7C388.5,396.3,388.4,396.4,388.3,396.4Z"/><path d="M392.4,398.7c-.2,0-.3-.1-.4-.3a.527.527,0,0,1,.2-.7l20.3-11.8a.5.5,0,0,1,.6.8.1.1,0,0,0-.1.1l-20.3,11.7C392.6,398.7,392.5,398.7,392.4,398.7Z"/></g><path class="l" d="M167.4,149.7a2.976,2.976,0,0,1-1.5.5,1.551,1.551,0,0,1-1.2-.2,2.361,2.361,0,0,1-.8-.9,3.867,3.867,0,0,1-.4-1.7,7.736,7.736,0,0,1,.1-2.1,13.971,13.971,0,0,1,.6-2.4l1.4.5a6.369,6.369,0,0,0-.2.7c-.1.3-.1.5-.2.8,0,.3-.1.6-.1.9v.8a1.445,1.445,0,0,0,.2.7,1,1,0,0,0,.5.4,1.268,1.268,0,0,0,.6.1,1.854,1.854,0,0,0,.7-.2c.3-.2.5-.4.8-.6a5.008,5.008,0,0,0,.7-.8,3.552,3.552,0,0,0,.4-.9,1.412,1.412,0,0,0,.1-.9,1.854,1.854,0,0,0-.2-.7c-.1-.2-.2-.5-.3-.7l-.3-.6-.3-.6,1.4-1.9c.1.1.1.2.2.4s.2.3.3.5l.3.6c.1.2.2.5.3.7s.1.5.2.7a1.7,1.7,0,0,1,.1.7v1.1a5.02,5.02,0,0,1-.2,1.2,5.638,5.638,0,0,1-.4,1.2,10.906,10.906,0,0,1-.6,1.1,4.3,4.3,0,0,1-.9,1A5.171,5.171,0,0,0,167.4,149.7Zm-.7-7.2-1.1-.7.9-1.8,1.1.7Z"/><path class="l" d="M173.5,142.2a2.607,2.607,0,0,1-1.1.3,1.445,1.445,0,0,1-.7-.2,1.794,1.794,0,0,1-.5-.7,2.958,2.958,0,0,1-.2-1c0-.5-.1-1-.1-1.6,0-.5-.1-1.1-.1-1.6a8.753,8.753,0,0,0-.2-1.6c-.1-.5-.2-1-.3-1.6l1.6-1.6.3,1.5c.1.5.1,1.1.2,1.6a9.15,9.15,0,0,1,.1,1.6c0,.5.1,1.1.1,1.6v.5a.367.367,0,0,0,.1.3c0,.1.1.1.2.1a.367.367,0,0,0,.3-.1l.1-.1.2,2.3Z"/><path class="l" d="M173,132.3l3.3-3.7.3.6-3.6,4Zm.3,7.7.4-.2a.758.758,0,0,1,.4-.2c.1,0,.3-.2.4-.3s.3-.2.4-.3l.3-.3a.52.52,0,0,0,.2-.4c0-.1.1-.3.1-.4s-.1-.3-.1-.4c-.1-.1-.2-.3-.3-.4a1.381,1.381,0,0,0-.4-.3,2.186,2.186,0,0,0-.5-.3,2.186,2.186,0,0,1-.5-.3l-.6-.3V134l3.6-4.2.9,1.6-2.6,3.1c.2.1.5.3.7.4l.6.6a5.582,5.582,0,0,1,.5.8,2.958,2.958,0,0,1,.2,1,6.6,6.6,0,0,1-.1,1.4,4.235,4.235,0,0,1-.4,1.2,3.512,3.512,0,0,1-1.7,1.7l-1.4.7Z"/><path class="l" d="M180.6,138.5a2.663,2.663,0,0,1-1.2.3,1.922,1.922,0,0,1-1.2-.4l.9-2.4c.2.1.3.1.5.2h.7c.1,0,.2-.1.3-.1s.1-.1.2-.1a.215.215,0,0,0,.2-.2c.1-.1.2-.1.2-.2l.2-.2c-.1-.3-.3-.5-.4-.8-.2-.3-.3-.6-.5-.9s-.3-.6-.5-.9-.3-.6-.5-.9l1.6-1.8,1.9,3.8a1,1,0,0,0,.4.5.3.3,0,0,0,.4,0l.1-.1.2,2.3-.1.1c-.2.1-.3.2-.5.2-.1,0-.3.1-.4.1a.367.367,0,0,1-.3-.1c-.1,0-.2-.1-.3-.1a2.182,2.182,0,0,1-.4.5c-.1.2-.3.3-.4.4a2.181,2.181,0,0,1-.5.4C181,138.2,180.8,138.4,180.6,138.5Z"/><path class="l" d="M187,132.7l.2,2.3-.1.1a1.2,1.2,0,0,1-.8.2,1.422,1.422,0,0,1-.6-.2,5.5,5.5,0,0,1-.7.9,4.129,4.129,0,0,1-1.1.7l-.2.1-.2-2.3.2-.1a2.186,2.186,0,0,0,.5-.3l.3-.3c.1-.1.1-.2.2-.3v-.4a1.486,1.486,0,0,0-.1-.6c-.1-.3-.1-.5-.2-.8l1.6-1.4a4.331,4.331,0,0,1,.1.5c0,.2.1.4.1.6s.1.4.1.6v.5a.1.1,0,0,0,.1.1h.2a1.034,1.034,0,0,0,.4.1Zm-2.2-2.5-1.1-.7.9-1.8,1.1.7Z"/><path class="l" d="M190.1,130.9l.2,2.3-.1.1a1.2,1.2,0,0,1-.8.2,1.422,1.422,0,0,1-.6-.2,5.5,5.5,0,0,1-.7.9,4.129,4.129,0,0,1-1.1.7v.1l-.2-2.3.2-.1a2.186,2.186,0,0,0,.5-.3l.3-.3c.1-.1.1-.2.2-.3v-.4a1.486,1.486,0,0,0-.1-.6c-.1-.3-.1-.5-.2-.8l1.6-1.4a4.331,4.331,0,0,1,.1.5c0,.2.1.4.1.6s.1.4.1.6v.5a.1.1,0,0,0,.1.1h.2c.1.2.1.2.2.1Zm-2.2-2.4-1.1-.7.9-1.8,1.1.7Z"/><path class="l" d="M190,131l.4-.2a.758.758,0,0,1,.4-.2c.1-.1.3-.2.4-.3s.3-.2.4-.3l.3-.3a.52.52,0,0,0,.2-.4c0-.1.1-.3.1-.4s-.1-.3-.1-.4c-.1-.1-.2-.3-.3-.4a1.381,1.381,0,0,0-.4-.3,2.186,2.186,0,0,0-.5-.3,2.186,2.186,0,0,1-.5-.3l-.6-.3V125l3.6-4.2.9,1.6-2.6,3.1c.2.1.5.3.7.4l.6.6a5.582,5.582,0,0,1,.5.8,2.958,2.958,0,0,1,.2,1,6.6,6.6,0,0,1-.1,1.4,4.235,4.235,0,0,1-.4,1.2,3.512,3.512,0,0,1-1.7,1.7l-1.4.7Z"/><path class="l" d="M197.3,129.5a2.663,2.663,0,0,1-1.2.3,1.922,1.922,0,0,1-1.2-.4l.9-2.4c.2.1.3.1.5.2h.7c.1,0,.2-.1.3-.1s.1-.1.2-.1a.215.215,0,0,0,.2-.2c.1-.1.2-.1.2-.2l.2-.2c-.1-.3-.3-.5-.4-.8-.2-.3-.3-.6-.5-.9s-.3-.6-.5-.9-.3-.6-.5-.9l1.6-1.8,1.9,3.8a1,1,0,0,0,.4.5.3.3,0,0,0,.4,0l.1-.1.2,2.3-.1.1c-.2.1-.3.2-.5.2-.1,0-.3.1-.4.1a.367.367,0,0,1-.3-.1c-.1,0-.2-.1-.3-.1a2.182,2.182,0,0,1-.4.5c-.1.2-.3.3-.4.4a2.181,2.181,0,0,1-.5.4A5.921,5.921,0,0,0,197.3,129.5Z"/><path class="l" d="M200.3,125.5l.9-.5a.349.349,0,0,0,.2-.1,1.439,1.439,0,0,0,.3-.2c.1-.1.2-.1.3-.2l.2-.2c.1-.1.1-.2.2-.2a.349.349,0,0,1,.1-.2.367.367,0,0,0-.1-.3c-.1-.1-.1-.3-.2-.5a2.186,2.186,0,0,0-.3-.5l-.3-.6,1.5-1.9a4.875,4.875,0,0,1,.3.7,4.875,4.875,0,0,0,.3.7,2.353,2.353,0,0,1,.2.8,2.2,2.2,0,0,1,.1.8,4.2,4.2,0,0,1-.6,2.6,3.915,3.915,0,0,1-.8,1,4.129,4.129,0,0,1-1.1.7l-1,.5Zm2.1,2.8-.8,1.5-1-.6.8-1.6,1,.7.8-1.6,1,.6-.8,1.6Z"/><path class="l" d="M205,122.1a3.4,3.4,0,0,0,1,.1,2.92,2.92,0,0,0,.9-.2c.1,0,.2-.1.3-.2s.2-.1.3-.2.2-.1.2-.2c.1-.1.1-.1.1-.2a.6.6,0,0,0-.1-.4c-.1-.1-.2-.3-.3-.4s-.3-.2-.5-.4l-.6-.3-.6-.3a1.689,1.689,0,0,0-.5-.2l.9-2.5c.2.1.5.2.7.3s.5.3.7.4a4.313,4.313,0,0,1,1.1,1.1,5.936,5.936,0,0,1,.4.8,2.92,2.92,0,0,1,.2.9,4.483,4.483,0,0,1-.5,2.3,3.114,3.114,0,0,1-.7.9,5.5,5.5,0,0,1-.9.7H207a4.876,4.876,0,0,1-.7.3,1.483,1.483,0,0,1-.7.1H205c-.2,0-.4-.1-.6-.1Z"/><path class="l" d="M211.9,116.9c.1.2.2.5.3.7.1.3.2.5.3.8a2.353,2.353,0,0,1,.2.8,2.2,2.2,0,0,1,.1.8,10.283,10.283,0,0,1-.1,1.7,8.447,8.447,0,0,1-.5,1.7,5.559,5.559,0,0,1-.9,1.7,9.062,9.062,0,0,1-1.1,1.6l-1.2-1.2.9-1.2a8.264,8.264,0,0,0,.7-1.3,6.118,6.118,0,0,0,.5-1.2,4.4,4.4,0,0,0,.2-1c-.1-.2-.1-.4-.2-.6a1.421,1.421,0,0,1-.2-.6,1.689,1.689,0,0,1-.2-.5c-.1-.2-.2-.3-.2-.5Zm-1-.5-1.1-.7.9-1.8,1.1.7Z"/><path class="l" d="M215.8,119.6a2.607,2.607,0,0,1-1.1.3,1.445,1.445,0,0,1-.7-.2,1.794,1.794,0,0,1-.5-.7,2.958,2.958,0,0,1-.2-1c0-.5-.1-1-.1-1.6,0-.5-.1-1.1-.1-1.6a8.753,8.753,0,0,0-.2-1.6c-.1-.5-.2-1-.3-1.6l1.6-1.6.3,1.5c.1.5.1,1.1.2,1.6a9.7,9.7,0,0,1,.1,1.7c0,.5.1,1.1.1,1.6v.5a.367.367,0,0,0,.1.3c0,.1.1.1.2.1a.367.367,0,0,0,.3-.1l.1-.1.2,2.3Z"/><path class="l" d="M215.5,117.3l.6-.3c.1-.1.2-.1.4-.2.1-.1.3-.2.4-.3l.3-.3a.5.5,0,0,0,0-.6c-.1-.1-.1-.3-.2-.5a2.186,2.186,0,0,0-.3-.5l-.3-.6,1.5-1.9a4.875,4.875,0,0,1,.3.7,4.875,4.875,0,0,0,.3.7,2.353,2.353,0,0,1,.2.8c0,.3.1.5.1.8a4.2,4.2,0,0,1-.6,2.6,3.915,3.915,0,0,1-.8,1,4.129,4.129,0,0,1-1.1.7l-.6.3Zm1.9,4.5-1.1-.7.9-1.8,1.1.7Z"/><path class="l" d="M224.5,110.1c.1.2.2.5.3.7.1.3.2.5.3.8a2.353,2.353,0,0,1,.2.8c0,.3.1.5.1.8a10.283,10.283,0,0,1-.1,1.7,8.447,8.447,0,0,1-.5,1.7,5.559,5.559,0,0,1-.9,1.7,9.062,9.062,0,0,1-1.1,1.6l-1.2-1.2.9-1.2a8.265,8.265,0,0,0,.7-1.3,6.118,6.118,0,0,0,.5-1.2,4.4,4.4,0,0,0,.2-1c-.1-.2-.1-.4-.2-.6a1.421,1.421,0,0,1-.2-.6,1.689,1.689,0,0,1-.2-.5c-.1-.2-.2-.3-.2-.5Z"/><path class="l" d="M228.4,112.8a2.607,2.607,0,0,1-1.1.3,1.445,1.445,0,0,1-.7-.2,1.794,1.794,0,0,1-.5-.7,2.958,2.958,0,0,1-.2-1c0-.5-.1-1-.1-1.6,0-.5-.1-1.1-.1-1.6a8.753,8.753,0,0,0-.2-1.6c-.1-.5-.2-1-.3-1.6l1.6-1.6.3,1.5c.1.5.1,1.1.2,1.6a9.15,9.15,0,0,1,.1,1.6c0,.5.1,1.1.1,1.6v.5a.367.367,0,0,0,.1.3c0,.1.1.1.2.1a.367.367,0,0,0,.3-.1l.1-.1.2,2.3Z"/><path class="l" d="M232.7,110.4a1.381,1.381,0,0,1-.4.3c-.1.1-.3.1-.4.2-.2,0-.3.1-.5.1h-.9a.6.6,0,0,1-.4-.1l-.3.6a1,1,0,0,1-.4.5c-.1.2-.3.3-.4.4-.2.1-.3.2-.5.3l-.2.1-.2-2.3.2-.1c.1-.1.3-.2.4-.3l.3-.3c.1-.1.1-.3.2-.4a.9.9,0,0,0,.1-.5,6.37,6.37,0,0,0,.2-.7,6.373,6.373,0,0,1,.2-.7c.1-.2.2-.5.3-.7a4.875,4.875,0,0,0,.3-.7,2.182,2.182,0,0,1,.4-.5,1.756,1.756,0,0,1,.5-.4,2.544,2.544,0,0,1,.7-.2.864.864,0,0,1,.6.3c.2.1.3.3.5.6a6.89,6.89,0,0,1,.3.8,3.083,3.083,0,0,1,.1,1v1a3.178,3.178,0,0,1-.3.9A1.235,1.235,0,0,1,232.7,110.4Zm-1.3-3.1c-.1,0-.1.1-.2.2s-.1.2-.2.4a.6.6,0,0,0-.1.4c0,.2-.1.3-.1.4a.367.367,0,0,1,.3.1h.3a.6.6,0,0,0,.4-.1.6.6,0,0,1,.4-.1V108c0-.2-.1-.3-.2-.5l-.3-.3A.367.367,0,0,0,231.4,107.3Z"/><path class="l" d="M232.9,100.4a1.854,1.854,0,0,1,.2-.7l.3-.6a1,1,0,0,1,.4-.5c.1-.1.3-.3.4-.3a.367.367,0,0,1,.3-.1h.6a.367.367,0,0,0,.3-.1.1.1,0,0,0,.1-.1l.1-.1c0-.1.1-.1.1-.2s.1-.2.2-.3l.8.2a.774.774,0,0,1-.1.3,1.332,1.332,0,0,1-.3.5,2.092,2.092,0,0,1-.4.6,1.756,1.756,0,0,1-.5.4.367.367,0,0,1-.3.1h-.6a.367.367,0,0,0-.3.1l-.3.3c-.1.1-.1.3-.2.6Zm1.7,8.9v-2.5a1.483,1.483,0,0,0-.1-.7c-.1-1.1-.2-2-.3-2.8s-.2-1.5-.3-2l1.6-1.6a6.881,6.881,0,0,1,.2,1.3,4.3,4.3,0,0,0,.2,1.2c0,.4.1.8.1,1.1s.1.6.1.9a2.2,2.2,0,0,0,.1.8,3.751,3.751,0,0,0,.1,1,3.4,3.4,0,0,0,.1,1v1Z"/><path class="w" d="M373.3,220c-1.8,3.2-13.4,13.4-14.4,14.5s-2.3,2.2-3.3,3.2c-1.2,1.2-2.2,2.5-3.9,3.1a2.573,2.573,0,0,1-1.5.1c-.2-.1-.4-.3-.6-.4a7.6,7.6,0,0,1-1.1-.4c-.3-.2-.5-1-.9-1.4a4.875,4.875,0,0,0-.7-.3,2.326,2.326,0,0,1-.8-1.2c-.1-.2-.2-.7-.5-.6a24.128,24.128,0,0,0-2.5.8c-1.9.6-3.1.7-3.4-.2-.4-1.3,1.1-1.6,3.3-2.6s7-2.9,6.8-3.5-1.8-1.4-2.4-2.6-.4-2.6.4-2c.5.4,2.3,1.3,3.2,1.8s2.3,1.4,3.3,1,11.2-13,11.2-13,8.1-17.4,10.1-20.9,3.6-5.6,7-5.7l.4,6.4-.9,7.2C382.2,203.3,374.7,217.4,373.3,220Z"/><path class="x" d="M383.8,189.6s-3.3-.8-5.4,1.5-3,4.1-4.8,7.8-6.7,14.2-6.7,14.2a9.18,9.18,0,0,0,8.4,3.8l8.9-16.8Z"/><path class="y" d="M398,291l7.7-.1c-.2,6.9,1.4,18.3,1.2,24.7,0,1.2,0,9.4-.4,11.9-.7,3.8-5.1,3.3-5.4,1s.3-11.8.3-12.8c0-4.1-1.9-14.9-2.9-22.3A20.475,20.475,0,0,1,398,291Z"/><path class="y" d="M377.1,308.6c.1-2.1-1-17.8-1-17.8l7.9.9c-2.1,12.5-1.3,16.8-1.1,18.7h0c0,.2.1.3.1.5,0,2.4-2.8,3.7-4.9,5.4a19.785,19.785,0,0,1-5.5,3.5c-1.6.6-4.7.8-5.1-.2,2.9-2.1,6-3.1,8.5-5.6C376.9,312.8,377,310.7,377.1,308.6Z"/><path class="l" d="M400.9,216.9a39.235,39.235,0,0,1,6.5,13.3c2.9,11.8-1.7,37-1.7,37,.1,1.7,1.3,47.3,1.3,47.3a5.736,5.736,0,0,1-5.8.1s-6.3-37-7.4-45.8c-1-7.7-3-23.8-3-23.8l-4.5,23.7-3.7,40.6a7.072,7.072,0,0,1-5.7-.1s-2.2-35.4-2.7-41.6c-.5-6.5,1.2-21.5,2.4-33.5.4-3.6,2.2-14.7,2.8-17.8Z"/><path class="z" d="M390.9,245.1l-1.1-7.3a17.542,17.542,0,0,1-8.6-2.8,11.368,11.368,0,0,0,7.2,4l.7,6.5L387,265.9Z"/><path class="h" d="M379.6,231.3c8.8,5.9,21.9.9,21.9.9l1.2-27.8s-4.6-6.4-.3-13.1l-6.9-1.4-8.2-.7-4.8.4C380,191.6,379.6,231.3,379.6,231.3Z"/><g class="aa"><path class="g" d="M380.3,231.7c8.8,5.9,21.3.5,21.3.5l1.2-27.8s-4.6-6.4-.3-13.1l-6.9-1.4-8.2-.7-4.8.4C380,191.6,380.3,231.7,380.3,231.7Z"/></g><path class="q" d="M396.3,189.7s7.5.6,9,1.4,3.9,4.9,1.7,11.1,2.8,34.4,2.8,34.4a12.553,12.553,0,0,1-4.8,2.3l-2,.3a33.008,33.008,0,0,1-8.3.9C394.6,240.1,390.8,205.6,396.3,189.7Z"/><path class="q" d="M382.7,189.6c-2.3,1.6-6,33.5-6,33.5s1.9,1.8,7.2.9c1,.2-.5-18.3.2-30.7a8.8,8.8,0,0,1,1.4-3.9S384.6,189.5,382.7,189.6Z"/><path class="e" d="M360.8,215.1l22.2,1.5,11.3,25-21.2-2Z"/><path class="f" d="M360.8,215.1l22.2,1.5,11.3,25-21.2-2Z"/><path class="ab" d="M381.3,232.4a5.247,5.247,0,0,0,4,3.2,10.6,10.6,0,0,0,5.8-1.1l-1-2.1h-8.8Z"/><path class="ab" d="M367.7,217.7l-.3-.8c-.2-.4,1-.7,2.8-.6l3.3.2c1.7.1,3.2.5,3.4,1l.3.8Z"/><path class="a" d="M365.7,214.9c-.1-.3.4-.4,1.1-.4l1.3.1s-.7-1.7,2.1-1.6a4.353,4.353,0,0,1,3.8,1.9l1.4.1a2.271,2.271,0,0,1,1.6.6l.3.5-11.4-.8Z"/><path class="c" d="M367.3,215.5c1,.1,1.5.1,1.8.8s.5,1.3.5,1.3l5.1.4s-.4-.9-.6-1.3,0-.6.8-.6v-.3l-7.9-.5Z"/><path class="ac" d="M367.6,217.8l-.3-.8c-.2-.4,1-.7,2.8-.6l3.3.2c1.7.1,3.2.5,3.4,1l.3.8Z"/><path class="x" d="M393.9,183.1l-8.4,1.5-8.3-13.3c0-7.4,6-12.7,13.4-12.7h0c7.4,0,13.1,9.1,11.4,16.3C401.1,178.6,398.6,183.1,393.9,183.1Z"/><path class="w" d="M380.8,166.5c-.8.3-2.4,1.7-2.4,9.7,0,6.8,2.1,8.5,3.2,9s3.2.3,5.3,0v3.3c-1.8,3.1-2.4,3.5.9,4.7,5,1.9,8.1-3.4,8.1-3.4l.2-9.4s1.2,1.2,3.3-.5c1.8-1.4,2.4-3.9,1.1-5.3a2.988,2.988,0,0,0-4.2.1,3.039,3.039,0,0,0-.5.7c-4.4,0-6.4-4.9-6.6-8C387.5,168.6,383.2,169.5,380.8,166.5Z"/><path class="x" d="M384.1,171.6a7.546,7.546,0,0,0,5.8-5s2.6-7-4.4-7.4c-10.8-.7-9.7,12.4-9.7,12.4Z"/><path class="x" d="M386.1,174.5a.851.851,0,1,0,1.7.1.875.875,0,0,0-.8-.9.817.817,0,0,0-.9.8Z"/><path class="ad" d="M386,180.5l-2.3.7a1.3,1.3,0,0,0,1.4.9h0A1.284,1.284,0,0,0,386,180.5Z"/><path class="x" d="M379.2,172.4l1.8-1.1a.984.984,0,0,0-1.4-.3h0A1.012,1.012,0,0,0,379.2,172.4Z"/><path class="x" d="M386.9,171.5l1.8,1a1.076,1.076,0,0,0-.3-1.4h0A1.2,1.2,0,0,0,386.9,171.5Z"/><path class="x" d="M379.6,174.4a.817.817,0,0,0,.8.9h0a.851.851,0,0,0,.1-1.7h0A.765.765,0,0,0,379.6,174.4Z"/><path class="ad" d="M383.8,173.9l-.1,5.5-2.7-.9Z"/><path class="ad" d="M386.9,185.5c2.1-.2,6.6-1.4,7.3-3.1a5.027,5.027,0,0,1-1.6,2.2c-1.3,1.1-5.7,2.3-5.7,2.3Z"/><path class="w" d="M383.8,228.9a13.348,13.348,0,0,0,4.3-1.3,10.548,10.548,0,0,1-2.4-.6,1.556,1.556,0,0,1-.9-1.8c.1-.3.9.1,2.2,0a17.709,17.709,0,0,1,4.6,0c.7.1,1.6.6,2.2.3a139.362,139.362,0,0,0,12.8-8.9h0l-3.9-11.7a15.216,15.216,0,0,1,1.1-13.9c2.6.5,4.7,1,6.7,8,2.1,7.4,5,17,4.8,20.1s-8.1,6.2-14.1,9.2c-2.5,1.3-6.7,3.7-8.4,4.5-5.7,2.9-8.4,2.7-10.4.8C379.2,230.5,380.4,229.4,383.8,228.9Z"/><path class="x" d="M403.4,190.5c5.4.3,6,4.5,7.5,8.6,1.5,3.8,3.3,13.9,3.3,13.9s-3.9,3.9-8.1,2.9l-3.7-11.7S397.9,195.2,403.4,190.5Z"/><path class="x" d="M382.6,310.2c.2-.1.5,0,.6.5s.1,1.3.3,2.2a11.244,11.244,0,0,1,.4,4.1c-.2,1-2.4,2.4-3.9,2.6a11.7,11.7,0,0,0-4.8,2.8,10.919,10.919,0,0,1-6.6,2.6c-2.5,0-4.2-.8-5.1-2.2s.8-1.5,3.6-3.4l2.2-1.4c4.5-3,6.2-4.5,7.5-7.5C376.9,310.6,380.3,311.6,382.6,310.2Z"/><path class="x" d="M406.9,315.6a29.374,29.374,0,0,1,.5,5.1c.1,3.1.6,4.2.7,6.8a7.638,7.638,0,0,1-1.6,5.7c-1.2,1.7-4.3,3.1-5.6.4s-1.1-4.6-.7-7.5.5-4.6.7-6.9a18.659,18.659,0,0,1,.5-3.5C403.9,317,406.9,315.6,406.9,315.6Z"/><path class="l" d="M195.9,305.6h0c.5-1.3,1.9-2.2,4-2.4a14.518,14.518,0,0,1,12,5.1c1.3,1.7,1.5,3.3,1,4.5h0l-34.3,89.9h0c-.7,1.9-2.6,3.3-5.6,3.6-5.8.7-13.3-2.5-16.8-7.2-1.8-2.5-2.2-4.8-1.3-6.6h0Z"/><path class="q" d="M211.9,308.4c2.5,3.3,1.2,6.5-3,7a14.518,14.518,0,0,1-12-5.1c-2.5-3.3-1.2-6.5,3-7A13.964,13.964,0,0,1,211.9,308.4Z"/><path class="e" d="M212.8,279.5a8.83,8.83,0,0,1,7.3,3.1,2.692,2.692,0,0,1,.6,2.7h0l-11.1,26.1h0a3.007,3.007,0,0,1-2.4,1.5,8.83,8.83,0,0,1-7.3-3.1,2.821,2.821,0,0,1-.6-2.8l11.1-26.1h0A2.655,2.655,0,0,1,212.8,279.5Z"/><path class="f" d="M212.8,279.5a8.83,8.83,0,0,1,7.3,3.1,2.692,2.692,0,0,1,.6,2.7h0l-11.1,26.1h0a3.007,3.007,0,0,1-2.4,1.5,8.83,8.83,0,0,1-7.3-3.1,2.821,2.821,0,0,1-.6-2.8l11.1-26.1h0A2.655,2.655,0,0,1,212.8,279.5Z"/><path class="j" d="M205.2,293l.8.5h0l.1.1h0l.1.1.2.1a10.929,10.929,0,0,0,1.5.8c.6.3,1.3.6,1.9.9a12.664,12.664,0,0,0,1.8.6c.7.2,1.3.4,2,.6.4.1.7.2,1,.3s.5.1.8.2h.3l5-11.7h0a2.643,2.643,0,0,0-.6-2.7,5.731,5.731,0,0,0-1.1-1.1,34.468,34.468,0,0,1-9.6,1.6Z"/><path class="ab" d="M204.9,315l-36.2,91.3a15.4,15.4,0,0,0,4.3.1c3-.4,5-1.7,5.6-3.6h0l34.3-89.9c-.5,1.3-1.9,2.1-4,2.4A13.273,13.273,0,0,1,204.9,315Z"/><path class="q" d="M318,171.4a15.482,15.482,0,0,0-.1-2.2c-.1-.7-.1-1.5-.2-2.2,0-.5-.1-1-.1-1.4-.1-1.3-.3-2.5-.5-3.7-.1-.5-.2-1.1-.3-1.6l-.3-1.5c-.3-1.4-.6-2.7-1-4l-.6-1.8c0-.1-.1-.2-.1-.3-.2-.6-.4-1.2-.6-1.7s-.5-1.3-.8-1.9-.4-.9-.6-1.3a4.671,4.671,0,0,0-.5-1l-.6-1.2c0-.1-.1-.2-.2-.3-.2-.3-.4-.7-.6-1a6.122,6.122,0,0,1-.4-.6,25.893,25.893,0,0,0-3.2-4.2,4.349,4.349,0,0,1-.6-.7,1.18,1.18,0,0,0-.5-.5c-.2-.1-.4-.4-.6-.6a15.372,15.372,0,0,0-1.9-1.7,8.744,8.744,0,0,0-1-.8c-.4-.3-.7-.5-1-.7-.5-.4-1.1-.7-1.6-1.1l-.4-.3-.1-.1h0l-10.4-6h0l-.1-.1a33.742,33.742,0,0,0-16.5-4.2c-8.6,0-18.3,2.8-28.5,8.7C208.6,151.7,180,201.2,180,242c0,20.3,7.1,34.6,18.6,41.3l.1.1h0l10.3,6h0l.1.1h0l.1.1.2.1a10.929,10.929,0,0,0,1.5.8c.6.3,1.3.6,1.9.9a12.664,12.664,0,0,0,1.8.6l.9.3c.3.1.7.2,1,.3s.7.2,1,.3c.2.1.5.1.8.2a5.9,5.9,0,0,0,1.4.2h.3a9.971,9.971,0,0,0,1.6.2c9.5,1,20.6-1.7,32.4-8.5,35.4-20.5,64-70,64-110.7A28.051,28.051,0,0,0,318,171.4ZM201.6,267.5a62.782,62.782,0,0,1-2.2-16.7c0-38.6,28.2-87.5,61.7-106.8a59.238,59.238,0,0,1,15.6-6.5,35.763,35.763,0,0,1,8-1,28.28,28.28,0,0,1,4.1.3h.1c6.8,8.1,7.9,21.1,7.9,28,0,38.6-28.2,87.5-61.6,106.8-8.5,4.9-16.7,7.5-23.7,7.5a20.237,20.237,0,0,1-4.3-.5h0A31.451,31.451,0,0,1,201.6,267.5Z"/><path class="t" d="M308.9,171.6c0,20.5-8,43.9-20.5,64.3-.6,1-1.2,1.9-1.8,2.9a24.965,24.965,0,0,1-1.6,2.4c-1.2,1.7-2.4,3.5-3.6,5.1l-1.8,2.4c-.6.8-1.3,1.7-2,2.6-1.3,1.6-2.6,3.2-4,4.7l-2.7,3a105.371,105.371,0,0,1-23.7,19.4c-1.6.9-3.2,1.8-4.8,2.5a48.843,48.843,0,0,1-16.3,4.9,24.367,24.367,0,0,1-2.7.1H222a10.075,10.075,0,0,1-2.5-.3c-.4-.1-.8-.1-1.2-.2l-1.2-.3a18.311,18.311,0,0,1-10-6.5,12.386,12.386,0,0,0,4.3.5c7,0,15.2-2.6,23.7-7.5,33.4-19.3,61.6-68.2,61.6-106.8,0-6.9-1-19.9-7.8-28h-.1c8.7,1.4,13.7,7.3,16.5,14.2a41.818,41.818,0,0,1,1.9,6,.367.367,0,0,0,.1.3c.1.4.2.7.3,1.1s.1.7.2,1.1v.3c.1.4.1.8.2,1.1.2,1.4.4,2.8.5,4.2,0,.4.1.8.1,1.1a1.949,1.949,0,0,0,.1.8v2.7A6.155,6.155,0,0,1,308.9,171.6Z"/><path class="x" d="M208.1,288.9l-9.6-5.6c-11.5-6.7-18.6-21-18.6-41.2,0-18.2,5.7-38.1,15.1-56.3l10.9,6.3c-9.4,18.3-15.7,38-15.7,56.1C190.3,267.9,197.1,282,208.1,288.9Z"/><path class="l" d="M299.5,133h0L289,126.9h0l-.1-.1a33.742,33.742,0,0,0-16.5-4.2c-8.6,0-18.3,2.8-28.6,8.7-19.5,11.3-37,31.5-48.7,54.3l10.8,6.4-.2.4c11.8-22.5,29.2-42.8,48.5-55,17.5-11,34.1-11.2,45.7-4.1Z"/><path class="ae" d="M303.3,168.3c0,38.6-28.2,87.5-61.7,106.8a59.882,59.882,0,0,1-15.7,6.5,31,31,0,0,1-8.1,1,22.819,22.819,0,0,1-8.2-1.4c-4.1-3.5-6.6-8.5-8.1-13.7a62.782,62.782,0,0,1-2.2-16.7c0-38.6,28.2-87.5,61.7-106.8a59.238,59.238,0,0,1,15.6-6.5,35.763,35.763,0,0,1,8-1,22.819,22.819,0,0,1,8.2,1.4c4.1,3.5,6.6,8.5,8.1,13.7A55.771,55.771,0,0,1,303.3,168.3Z"/><path class="y" d="M172.1,343.5c1.9.4,5.5.8,5.5.8l2.6-5.5-5.8-2.7Z"/><path class="f" d="M158,339.4a38.2,38.2,0,0,0,14.7,4.2l3.1-4.7-15.7-10.6Z"/><path class="i" d="M158,339.4a38.2,38.2,0,0,0,14.7,4.2l3.1-4.7-15.7-10.6Z"/><path class="x" d="M171.7,343.5l2.6.4,2-6s-2.6-1.2-2.7-1.2S171.7,343.5,171.7,343.5Z"/><path class="k" d="M171.7,343.5l2.6.4,2-6s-2.6-1.2-2.7-1.2S171.7,343.5,171.7,343.5Z"/><path class="f" d="M136.7,306.1a6.407,6.407,0,0,0-6.4,3.3,13.174,13.174,0,0,0-1,6.8c.6,5.3,4.6,16.8,4.6,16.8Z"/><path class="k" d="M136.7,306.1a6.407,6.407,0,0,0-6.4,3.3,13.174,13.174,0,0,0-1,6.8c.6,5.3,4.6,16.8,4.6,16.8Z"/><path class="x" d="M131,430.3c-.5.2-.7,1-.9,3.1-.1,1.3-.6,3,1.4,4.1a5.19,5.19,0,0,0,4.7,0c1.7-1.1,2.6-3,4.6-4.6,1.8-1.4,4-2.4,5.4-4.9s1.2-4.2-1.7-4.2c-4.7,0-6.1,2.6-8.5,2.6C134.6,426.4,131.5,430.1,131,430.3Z"/><path class="y" d="M131,429.3v2.1c0,1,4.4,2.6,5.6.2.1-.2.6-3.1.6-3.1Z"/><path class="x" d="M151.4,442.6s-.8,0-1.2,3.4c-.1,1.3-.4,4,0,4.9s2.9,1.4,5.6,1.6a14.724,14.724,0,0,1,5.7,2.2,12.914,12.914,0,0,0,5.8,1.6c2.6,0,4.7-.3,6.5-1.7,1-.8,2.2-2.4,1.3-3.6a2.349,2.349,0,0,0-1.4-.7c-1.1-.4-2.3-.8-3.4-1.2a52.718,52.718,0,0,1-5.1-1.9c-2.4-1.2-5-2.5-6.8-4.5Z"/><path class="y" d="M151.4,440.8v2.5c0,.9,1,2.2,3.8,2.2,1.9-.1,3.3-.6,3.2-2.2V441Z"/><path class="x" d="M129.8,401.2a53.279,53.279,0,0,1,2.6-11s-.7-9.5-1-18.5a233.008,233.008,0,0,1,.8-27.7s30.6-2.9,31.1,8.3-.2,39.9-.6,44.8-.8,9.6-1.8,18.8c-.9,7.9-2.4,25.1-2.4,25.1a7.541,7.541,0,0,1-7-.2s-2.3-23.1-2.6-28.8c-.3-7.4,1.4-11.5,1.4-11.5s-.6-4.6-1.8-14.2c-.8-6.8-1.9-14.4-1.9-14.4s-1,9.5-1.7,14.8c-.6,4.9-1.6,8.8-3.1,18-1.3,8-4.8,24.8-4.8,24.8a5.1,5.1,0,0,1-6-.3C131.1,429.3,128.8,408.1,129.8,401.2Z"/><path d="M146.6,372l-1.4-9.4s-6-1.9-9-5.4c0,0,1.6,4.1,7.2,6.4l2.2,7.9.4,6.5Z"/><path class="y" d="M151.6,303.3l-1.4,10.1-9.1-.4.9-11.7Z"/><path class="ad" d="M158.1,290.9s2.4,3.5,2.2,3.9a6.789,6.789,0,0,1-2,.7Z"/><path class="x" d="M154.3,290.3a3,3,0,1,1,3.1,2.9h-.1a2.862,2.862,0,0,1-3-2.9Zm.6,0a2.3,2.3,0,1,0,2.3-2.3h0a2.326,2.326,0,0,0-2.3,2.3Z"/><path class="y" d="M151.4,281.1c4.8.9,6.2,3,6.8,10.6.6,8-.2,10.5-1.2,11.5-.7.7-4.6.9-6.6.4-2.5-.6-8.1-2.5-10.8-6.5-3.1-4.7-4.1-11-.8-13.7C143.3,279.7,149.4,280.7,151.4,281.1Z"/><path class="ad" d="M151.5,303.9c2.1.2,4.9,0,5.4-.6a14.469,14.469,0,0,1-5.1-1Z"/><path class="x" d="M158.9,283l-.1.1c-1,.9-2.2,1.5-3.2,2.4a6.726,6.726,0,0,0-2.2,3.7c-.3,1.2-.4,2.5-1.7,3.1,0,0-.8-3.1-3.4-2.6s-2.9,3.8-1.2,5.8,3.2,1.2,3.2,1.2,0,4.4-1.9,6.9a12.238,12.238,0,0,1-6.3-.1c-2.5-.5-6.1-3.6-7.6-6.9-3.3-7-3.6-13.3.9-15.2.4-3.2,3-4.7,5.9-5.4,4.3-1.1,8.4,1.5,12.7.4a26.814,26.814,0,0,1,2.7-.7h.3c.2.1.2.4.2.7a4.637,4.637,0,0,1-1.2,2.3,13.858,13.858,0,0,0,4.9-.7A7.68,7.68,0,0,1,158.9,283Z"/><path class="x" d="M135.9,283l-2.9-1.7a1.662,1.662,0,0,1,2.3-.6,1.728,1.728,0,0,1,.6,2.3Z"/><path class="x" d="M151.7,294l-.1-3.3a1.666,1.666,0,0,1,1.7,1.6A1.6,1.6,0,0,1,151.7,294Z"/><path class="x" d="M159.9,289.6l-8.9,1.3.4.6,8.5-1.2Z"/><path class="f" d="M131.2,311.6c1.1-4.1,2.5-5.5,6.1-5.6a51.68,51.68,0,0,1,5.5.7c.4,1.8,4.9,2.9,9.4,2,1.4.4,5,1.4,6.1,1.8,3.2,1.2,4.8,4.5,5,15.1,0,0,.6,25.2,0,29.5a39.38,39.38,0,0,1-21.2,2c-9.7-2.2-10.8-6.2-10.8-6.2s.5-10.1.8-17.8c-.5-4.9-1.2-8.6-1.5-12.5A30.587,30.587,0,0,1,131.2,311.6Z"/><g class="aa"><path class="g" d="M131.2,311.6c1.1-4.1,2.5-5.5,6.1-5.6a51.68,51.68,0,0,1,5.5.7c.4,1.8,4.9,2.9,9.4,2,1.4.4,5,1.4,6.1,1.8,3.2,1.2,4.8,4.5,5,15.1,0,0,.6,25.2,0,29.5a39.38,39.38,0,0,1-21.2,2c-9.7-2.2-10.8-6.2-10.8-6.2s.5-10.1.8-17.8c-.5-4.9-1.2-8.6-1.5-12.5A30.587,30.587,0,0,1,131.2,311.6Z"/></g><path class="f" d="M141.8,304.1l-.1,1s.5,1.4,3.2,1.9c4.6.9,6.2-.6,6.2-.6l.1-.8s.4-.2,1.2.4c1.1,1.2,2.2,2.4,3.2,3.7,0,0-.9-.3-3.8,1a13.875,13.875,0,0,1-9,.3,5.132,5.132,0,0,1-3.3-3.7C139.5,306.5,141,303.8,141.8,304.1Z"/><path class="t" d="M141.8,304.1l-.1,1s.5,1.4,3.2,1.9c4.6.9,6.2-.6,6.2-.6l.1-.8s.4-.2,1.2.4c1.1,1.2,2.2,2.4,3.2,3.7,0,0-.9-.3-3.8,1a13.875,13.875,0,0,1-9,.3,5.132,5.132,0,0,1-3.3-3.7C139.5,306.5,141,303.8,141.8,304.1Z"/><path class="y" d="M157.9,310.3c4.1.5,7.3,1.4,9.1,5.3,3,6.6,6.3,12.1,8.7,14.6,2.6,2.7,13,7.5,15.4,7.1s4.7-3.1,5.9-2.4-1,3.3-.9,3.9,4.4.3,6.4-1.1,2.8,1.5.1,4.6-7.5,3.3-12.9,2.2-16.2-3.6-20.3-7c-5-4.1-5.8-7.5-7.9-11.1C154,318.6,157.9,310.3,157.9,310.3Z"/><path class="f" d="M157.3,310.2s4.4,0,6.7,1.4,3.8,4.4,5.6,8.5a52.353,52.353,0,0,0,6.2,9.8c1,1.2,8.3,5.3,8.3,5.3a34.367,34.367,0,0,1-2.1,7.6s-7.3-1.8-11.8-4.2-11.1-11.9-11.1-11.9S154.4,320.5,157.3,310.2Z"/><path class="ab" d="M157.3,310.2s4.4,0,6.7,1.4,3.8,4.4,5.6,8.5a52.353,52.353,0,0,0,6.2,9.8c1,1.2,8.3,5.3,8.3,5.3a34.367,34.367,0,0,1-2.1,7.6s-7.3-1.8-11.8-4.2-11.1-11.9-11.1-11.9S154.4,320.5,157.3,310.2Z"/><path class="x" d="M183.8,335a17.652,17.652,0,0,1-2.3,7.7c1.3.4,2.6.6,3.9.9,0,0,2.3-2.3,2.2-6.9Z"/><path class="i" d="M183.8,335a17.652,17.652,0,0,1-2.3,7.7c1.3.4,2.6.6,3.9.9,0,0,2.3-2.3,2.2-6.9Z"/><path class="l" d="M186,337.1a.472.472,0,0,1-.5.5c-.3,0-.4-.3-.4-.5a.43.43,0,0,1,.4-.4A.457.457,0,0,1,186,337.1Z"/></g></svg>