<svg xmlns="http://www.w3.org/2000/svg" width="498.4" height="440.675" viewBox="0 0 498.4 440.675"><defs><style>.a{fill:#f5f5f5;}.as,.b{fill:#171e21;}.c{fill:#ebebeb;}.ao,.d{fill:#37474f;}.e{fill:#455a64;}.f{fill:#06826a;}.g,.q,.u,.v,.x{fill:#fff;}.ak,.g{opacity:0.4;}.h,.z{opacity:0.1;}.i{fill:#e0e0e0;}.j{fill:#fafafa;}.k{fill:#f0f0f0;}.ap,.l{fill:#263238;}.m{fill:#ff3600;}.aj,.as,.n,.x{opacity:0.2;}.o,.p{opacity:0.3;}.q{opacity:0.8;}.r,.s{opacity:0.15;}.t{fill:#b72908;}.v{opacity:0.65;}.ab,.ao,.ap,.w{opacity:0.5;}.ag,.y{opacity:0.25;}.aa{fill:#ffa8a7;}.ac{fill:#b16668;}.ad{fill:#f28f8f;}.ae{fill:#ffbda7;}.af{fill:#f0997a;}.ah{opacity:0.7;}.ai{fill:#e6e6e6;}.al{fill:#9a4a4d;}.am{fill:#9e6767;}.an{fill:#874c4c;}.aq{fill:#565655;}.ar{fill:#1d1d1b;}</style></defs><g transform="translate(-1.6 -36.325)"><ellipse class="a" cx="249.2" cy="163.4" rx="249.2" ry="163.4" transform="translate(1.6 150.2)"/><path class="b" d="M228.4,197l-1.1-16.6,8.6,4-3.8,10.4Z"/><path class="c" d="M411.3,368.6,300.4,304.5,124,406.4l110.8,64.1Z"/><path class="c" d="M409,252.7l4.5-2.6a.791.791,0,0,0,0-1.5l-29.9-17.2a.791.791,0,0,1,0-1.5l46-26.6c.7-.4.7-1,0-1.4l-2.2-1.3a2.754,2.754,0,0,0-2.5,0l-46,26.5a2.548,2.548,0,0,1-2.4,0l-25.2-14.6a2.754,2.754,0,0,0-2.5,0l-4.5,2.6c-.7.4-.7,1,0,1.4l62.1,35.8A5.291,5.291,0,0,0,409,252.7Z"/><ellipse class="c" cx="38.4" cy="24.1" rx="38.4" ry="24.1" transform="translate(111.1 410.9)"/><ellipse class="c" cx="46.8" cy="29.3" rx="46.8" ry="29.3" transform="translate(344.1 381.4)"/><ellipse class="c" cx="42" cy="26.3" rx="42" ry="26.3" transform="translate(256.5 200.1)"/><path class="d" d="M395.5,212.8l.7-.5-33-19.2v.9Z"/><path class="d" d="M415.5,145.8h0c.1-.1.2,0,.2.1l12.7,56.2c0,.1,0,.2-.1.2l-.8.5h0a.9.9,0,0,1-.5.1l-.3-1.5-12.4-54.8c0-.1,0-.2.1-.2Z"/><path class="e" d="M414.2,146.3l12.4,55,.4,1.6a.6.6,0,0,1-.4-.1l-.8-.5a.215.215,0,0,1-.2-.2l-12.7-56.5Z"/><path class="d" d="M397,152.4l1.5-.8v93c0,.1-.1.2-.2.3l-.8.4h0a.9.9,0,0,1-.5.1v-93Z"/><path class="e" d="M397,152.4v93a.764.764,0,0,1-.5-.2l-.8-.4c-.1-.1-.2-.2-.2-.3v-93Z"/><path class="d" d="M357.2,220.5,372,142.8l1.4-.8-15.1,79.3c0,.1-.1.2-.2.3l-.8.5c-.1,0-.2.1-.4.1Z"/><path class="e" d="M355.5,221.3h0L370.6,142l1.4.8-14.8,77.7-.3,1.6a.749.749,0,0,1-.5-.1h0l-.7-.4c-.1-.1-.2-.2-.2-.3Z"/><path class="e" d="M396,213l-34.2-19.8v1.6L396,214.7Z"/><path class="f" d="M424.7,172.6l-63-36.3a2.118,2.118,0,0,0-1.9,0L350,142a1.893,1.893,0,0,0-.9,1.6v1.2a2.2,2.2,0,0,0,.9,1.6l63,36.3a2.118,2.118,0,0,0,1.9,0l9.9-5.7a1.893,1.893,0,0,0,.9-1.6v-1.2A1.984,1.984,0,0,0,424.7,172.6Z"/><path class="g" d="M424.7,173.6c.3.1.6-.2.5-.6a.56.56,0,0,0-.6-.5l-63-36.3a2.118,2.118,0,0,0-1.9,0l-9.8,5.7a.781.781,0,0,0-.4.4.569.569,0,0,0,.4.7l63,36.3a2.118,2.118,0,0,0,1.9,0l9.9-5.7Z"/><path class="h" d="M414.8,179.3l9.8-5.7a.5.5,0,0,0,.2-.9,1.9,1.9,0,0,1,.8,1.5v1.2a1.922,1.922,0,0,1-.9,1.6l-9.9,5.7a2.92,2.92,0,0,1-.9.2v-3.4C414.3,179.5,414.6,179.5,414.8,179.3Z"/><path class="i" d="M415.3,177.2l-61.7-35.5a3.056,3.056,0,0,1-1.5-2.7l5.7-97.9a4.112,4.112,0,0,1,1.7-2.7l2.7-1.6a3.391,3.391,0,0,1,3.1,0L427,72.4a3.056,3.056,0,0,1,1.5,2.7L422.8,173a4.112,4.112,0,0,1-1.7,2.7l-2.7,1.6A3.128,3.128,0,0,1,415.3,177.2Z"/><path class="j" d="M359.4,38.3l2.8-1.6a3.391,3.391,0,0,1,3.1,0L427,72.3a3.179,3.179,0,0,1,1.1,1.2l-5.9,3.4a3.179,3.179,0,0,0-1.1-1.2L359.4,40.1a.764.764,0,0,0-.5-.2,1.172,1.172,0,0,0-1.1.9A4.208,4.208,0,0,1,359.4,38.3Z"/><path class="k" d="M421.3,75.6,359.6,40.1a.855.855,0,0,0-.9-.3,1.1,1.1,0,0,0-.8,1.2l-5.7,97.9a3.282,3.282,0,0,0,1.5,2.7l61.7,35.6a.829.829,0,0,0,.8.3.937.937,0,0,0,.8-1.1l5.6-98A3.72,3.72,0,0,0,421.3,75.6Z"/><path class="l" d="M376.2,49.1l10.4-6a1.483,1.483,0,0,1,1.3,0l19.2,11a1.23,1.23,0,0,1,.7,1.1v6l-2.9-1.7L399,62.9v2.6a1.9,1.9,0,0,1-.7,1.1l-1.6.9a1.483,1.483,0,0,1-1.3,0l-19.2-11a1.23,1.23,0,0,1-.7-1.1V50.2A1.081,1.081,0,0,1,376.2,49.1Z"/><path class="d" d="M376.1,49.1c-.3.2-.2.5.1.7l19.2,11a1.854,1.854,0,0,0,.7.2v6.7a1.445,1.445,0,0,1-.7-.2l-19.2-11a1.23,1.23,0,0,1-.7-1.1V50.2A1.382,1.382,0,0,1,376.1,49.1Z"/><path class="e" d="M407,54,387.8,43a1.483,1.483,0,0,0-1.3,0l-10.4,6c-.4.3-.4.6,0,.8l19.2,11a1.483,1.483,0,0,0,1.3,0l10.4-6A.417.417,0,0,0,407,54Z"/><path class="m" d="M407.6,137.2l-1.1,19.1a.44.44,0,0,1-.1.5.769.769,0,0,1-1,.1l-3.6-2.1a2.234,2.234,0,0,1-1-1.8l1.1-19.1a.44.44,0,0,1,.1-.5.769.769,0,0,1,1-.1l3.6,2.1A2.1,2.1,0,0,1,407.6,137.2Z"/><path class="d" d="M406.1,161.8c-.1.5-.5.6-1.1.3l-3.5-2a1.969,1.969,0,0,1-1-1.5c.1-.5.5-.6,1.1-.3l3.6,2.1A1.945,1.945,0,0,1,406.1,161.8Z"/><path class="f" d="M394.8,139.1l-.6,10a.44.44,0,0,1-.1.5.769.769,0,0,1-1,.1l-3.6-2.1a2.234,2.234,0,0,1-1-1.8l.6-10a.44.44,0,0,1,.1-.5.633.633,0,0,1,.9-.1l3.6,2.1A2.452,2.452,0,0,1,394.8,139.1Z"/><path class="h" d="M394.8,139.1l-.6,10a.44.44,0,0,1-.1.5.769.769,0,0,1-1,.1l-3.6-2.1a2.234,2.234,0,0,1-1-1.8l.6-10a.44.44,0,0,1,.1-.5.633.633,0,0,1,.9-.1l3.6,2.1A2.452,2.452,0,0,1,394.8,139.1Z"/><path class="d" d="M393.8,154.7c-.1.5-.5.6-1.1.3l-3.6-2.1a1.969,1.969,0,0,1-1-1.5c.1-.5.5-.6,1.1-.3l3.6,2.1A1.969,1.969,0,0,1,393.8,154.7Z"/><path class="f" d="M383.1,117.4l-1.3,24.5a.44.44,0,0,1-.1.5.633.633,0,0,1-.9.1l-3.6-2.1a2.234,2.234,0,0,1-1-1.8l1.4-24.5a.44.44,0,0,1,.1-.5.633.633,0,0,1,.9-.1l3.6,2.1A2.138,2.138,0,0,1,383.1,117.4Z"/><path class="n" d="M383.1,117.4l-1.3,24.5a.44.44,0,0,1-.1.5.633.633,0,0,1-.9.1l-3.6-2.1a2.234,2.234,0,0,1-1-1.8l1.4-24.5a.44.44,0,0,1,.1-.5.633.633,0,0,1,.9-.1l3.6,2.1A2.138,2.138,0,0,1,383.1,117.4Z"/><path class="d" d="M381.4,147.6c0,.5-.5.6-1.1.3l-3.6-2.1a1.969,1.969,0,0,1-1-1.5c.1-.5.5-.6,1.1-.3l3.6,2.1A1.637,1.637,0,0,1,381.4,147.6Z"/><path class="m" d="M370.2,121.1l-.8,13.7a.44.44,0,0,1-.1.5.633.633,0,0,1-.9.1l-3.6-2.1a2.234,2.234,0,0,1-1-1.8l.8-13.7a.44.44,0,0,1,.1-.5.633.633,0,0,1,.9-.1l3.6,2.1A2.354,2.354,0,0,1,370.2,121.1Z"/><path class="o" d="M370.2,121.1l-.8,13.7a.44.44,0,0,1-.1.5.633.633,0,0,1-.9.1l-3.6-2.1a2.234,2.234,0,0,1-1-1.8l.8-13.7a.44.44,0,0,1,.1-.5.633.633,0,0,1,.9-.1l3.6,2.1A2.354,2.354,0,0,1,370.2,121.1Z"/><path class="d" d="M369.1,140.4c0,.5-.5.6-1.1.3l-3.6-2.1a1.969,1.969,0,0,1-1-1.5c.1-.5.5-.6,1.1-.3l3.6,2.1A2.263,2.263,0,0,1,369.1,140.4Z"/><path class="e" d="M386.3,87.4a1.421,1.421,0,0,1,.2.6c-.4,8,4.7,17.5,11.3,21.6,6.8,4.3,12.6,1.1,12.8-7.2.2-7.5-4.1-16.6-10.2-20.9l.4-.2v-.6c6.4,4.8,11.1,14.4,10.7,22.3-.4,8.6-6.6,12-13.8,7.8S385,96.1,385.5,87.6C385.6,87.3,386,87.4,386.3,87.4Z"/><path class="m" d="M397.5,112.3c7.9,4.7,14.6.9,15.1-8.4l-3.3-1.9c-.4,7.2-5.6,10.1-11.6,6.5S387,96.2,387.4,89,393,78.9,399,82.5a20.151,20.151,0,0,1,7.1,7.4l2.3-1.7a27.3,27.3,0,0,0-9.1-9.7c-7.9-4.7-14.6-.9-15.1,8.4S389.6,107.6,397.5,112.3Z"/><path class="f" d="M390.1,90.4c-.3,5.4,3.1,12,7.7,14.7s8.5.5,8.8-4.9-3.2-12-7.7-14.7C394.3,82.8,390.4,85,390.1,90.4Z"/><g class="p"><path d="M390.1,90.4c-.3,5.4,3.1,12,7.7,14.7s8.5.5,8.8-4.9-3.2-12-7.7-14.7C394.3,82.8,390.4,85,390.1,90.4Z"/></g><path class="e" d="M365.2,60.7a2.851,2.851,0,0,0,1.3,2.2l14.1,8.4c.7.4,1.4.2,1.4-.6a2.509,2.509,0,0,0-1.2-2.2l-14.1-8.4C365.9,59.7,365.3,60,365.2,60.7Z"/><path class="e" d="M364.9,67.9a2.851,2.851,0,0,0,1.3,2.2l14.1,8.4c.7.4,1.4.2,1.4-.6a2.851,2.851,0,0,0-1.3-2.2l-14.1-8.4C365.5,66.9,364.9,67.1,364.9,67.9Z"/><path class="e" d="M364.5,75.1a2.851,2.851,0,0,0,1.3,2.2l14.1,8.4c.7.4,1.4.2,1.4-.6a2.851,2.851,0,0,0-1.3-2.2l-14.1-8.4C365.2,74.1,364.5,74.3,364.5,75.1Z"/><path class="e" d="M364.1,82.3a2.851,2.851,0,0,0,1.3,2.2l14.1,8.4c.7.4,1.4.2,1.4-.6a2.851,2.851,0,0,0-1.3-2.2l-14.1-8.4C364.8,81.2,364.2,81.5,364.1,82.3Z"/><path class="e" d="M363.8,89.5a2.851,2.851,0,0,0,1.3,2.2l14.1,8.4c.7.4,1.4.2,1.4-.6a2.851,2.851,0,0,0-1.3-2.2l-14.1-8.4C364.4,88.4,363.8,88.7,363.8,89.5Z"/><path class="f" d="M76,133.2V254.6a3.141,3.141,0,0,0,1.3,3.1,8.794,8.794,0,0,0,1,.6,2.57,2.57,0,0,0,2.4-.3l119.6-69c2.2-1.2,3.9-4.5,3.9-7.4V60.2l-.9-.5Z"/><path class="q" d="M76.8,255.1V133.7L204.2,60.2V181.6a9.592,9.592,0,0,1-3.9,7.4L80.7,258C78.6,259.3,76.8,257.9,76.8,255.1Z"/><g class="r"><g class="r"><path d="M115,195l8.7-5v13.4l-8.7,5Z"/></g><g class="r"><path d="M102.3,202.3l8.8-5v13.4l-8.8,5Z"/></g><g class="r"><path d="M89.7,209.6l8.7-5V218l-8.7,5Z"/></g><g class="r"><path d="M115,213.4l8.7-5v13.4l-8.7,5.1Z"/></g><path d="M101.5,220.8l10.3-3.7-1.1,12.5-10.3,3.6Z"/><path d="M88.7,228.4l8.8-5v13.4l-8.8,5Z"/></g><path class="e" d="M124.1,191.9l-9,5.2.6,7.6c.1.9,1.4.6,2.1.2,0,.7.4,1.8,1.1,1.4l6-3.4Z"/><path class="d" d="M124.1,190.3l-9,5.2v1.7l9-5.3Z"/><path class="d" d="M117.6,204.3l.8,2-2.5-1.1Z"/><path class="f" d="M111.5,199.3l-9.1,5.2.8,10.9,9-5.2Z"/><path class="f" d="M111.5,197.6l-9.1,5.2v1.7l9.1-5.2Z"/><path class="h" d="M111.5,197.6l-9.1,5.2v1.7l9.1-5.2Z"/><path class="f" d="M98.1,225.4,89,230.7l.8,10.9,9-5.2Z"/><path class="f" d="M98.1,223.8,89,229v1.7l9.1-5.3Z"/><path class="h" d="M98.1,223.8,89,229v1.7l9.1-5.3Z"/><path class="f" d="M112,219.2l-9.8,3.6-1,10.9,9.7-3.5Z"/><path class="f" d="M112.3,217.6l-9.8,3.6-.3,1.6,9.8-3.6Z"/><path class="h" d="M112.3,217.6l-9.8,3.6-.3,1.6,9.8-3.6Z"/><path class="e" d="M124.1,210.3l-9,5.2.8,10.9,9-5.1Z"/><path class="f" d="M124.1,208.6l-9,5.2v1.7l9-5.2Z"/><path class="d" d="M124.1,208.6l-9,5.2v1.7l9-5.2Z"/><path class="e" d="M98.9,206.6l-9.1,5.2.6,7.6c.1.8,1.4.5,2.1.1,0,.7.4,1.8,1.1,1.4l6-3.4Z"/><path class="d" d="M98.8,204.9l-9,5.2v1.7l9-5.2Z"/><path class="d" d="M92.3,218.9l.8,2-2.5-1.1Z"/><path class="s" d="M99.2,137.7,154,106.1v62.4L99.2,200.1Z"/><path class="k" d="M102.9,199.5l52.8-30.6a1.709,1.709,0,0,0,.7-1.3V108.9a1.561,1.561,0,0,0-.7-1.3l-.3-.2a1.95,1.95,0,0,0-1.5,0L101.1,138a1.709,1.709,0,0,0-.7,1.3V198a1.561,1.561,0,0,0,.7,1.3l.3.1A2.573,2.573,0,0,0,102.9,199.5Z"/><path class="i" d="M100.6,138.6l1.7,1a1.445,1.445,0,0,0-.2.7V199a.46.46,0,0,0,.6.5,1.95,1.95,0,0,1-1.3-.1l-.3-.1a1.709,1.709,0,0,1-.7-1.3V139.3A1.854,1.854,0,0,1,100.6,138.6Z"/><path class="j" d="M156.4,108.8v58.7a1.561,1.561,0,0,1-.7,1.3l-52.8,30.6c-.4.2-.7.1-.7-.4V140.4a1.561,1.561,0,0,1,.7-1.3l52.8-30.6C156.1,108.3,156.4,108.4,156.4,108.8Z"/><path class="f" d="M153,164v2.8l-47.7,27.6v-7.9a10.77,10.77,0,0,0,5.8-9.3c.1-2.2.2-12.2.3-19.2,0-7.9,1.5-9.9,3-10.7s2.9.6,3.5,3.6,2.2,6.8,3.8,6.2c2.4-1,2.4-3.4,2.4-7.8,0-5-.3-10.4,3-12.2,2.2-1.3,3.4.9,4.6,9,.9,5.7,2.8,11.8,5.3,10.4,1.6-.9,1.3-2.5,3.1-3.7,2.5-1.7,4.3,2.4,6.4,7.4s4.8,4.8,6.5,3.8Z"/><path class="f" d="M104.9,185.9a10.253,10.253,0,0,0,5.5-8.9c.1-2.2.2-12.9.3-19.1.1-8.2,1.7-10.2,3.3-11.1a1.9,1.9,0,0,1,1.8-.1c1.1.4,1.9,1.9,2.4,4,.6,2.8,1.8,5.3,2.7,5.8a.446.446,0,0,0,.5,0c2.1-.9,2.1-2.9,2.1-7.3v-1.1c0-4.7,0-9.7,3.3-11.5a2.232,2.232,0,0,1,2.1-.2c1.4.7,2.4,3.4,3.3,9.6.8,5.4,2.3,9.4,3.7,10.1a.972.972,0,0,0,.9-.1,3.182,3.182,0,0,0,1.3-1.5,5.2,5.2,0,0,1,1.8-2.1,2.4,2.4,0,0,1,2-.4c1.9.6,3.4,3.9,5.1,8,.9,2.2,2,3.5,3.2,3.9a3.645,3.645,0,0,0,2.7-.4l.5.8a3.984,3.984,0,0,1-3.5.5c-1.5-.5-2.8-2-3.8-4.5-1.2-2.9-2.9-6.9-4.5-7.4a1.314,1.314,0,0,0-1.2.3,4.281,4.281,0,0,0-1.5,1.8,4.213,4.213,0,0,1-1.6,1.9,1.92,1.92,0,0,1-1.8.1c-2.6-1.3-3.9-8.7-4.2-10.9-.5-3.8-1.4-8.2-2.7-8.9a1.149,1.149,0,0,0-1.2.2c-2.8,1.6-2.8,6.2-2.8,10.7v1.1c0,4.6,0,7.1-2.7,8.2a1.95,1.95,0,0,1-1.3-.1c-1.5-.7-2.7-3.9-3.2-6.4-.4-1.8-1-3.1-1.8-3.4a.972.972,0,0,0-.9.1c-1.3.8-2.7,2.6-2.8,10.3-.1,6.2-.2,16.9-.3,19.2a11.265,11.265,0,0,1-6,9.7Z"/><g class="p"><path d="M104.9,185.9a10.253,10.253,0,0,0,5.5-8.9c.1-2.2.2-12.9.3-19.1.1-8.2,1.7-10.2,3.3-11.1a1.9,1.9,0,0,1,1.8-.1c1.1.4,1.9,1.9,2.4,4,.6,2.8,1.8,5.3,2.7,5.8a.446.446,0,0,0,.5,0c2.1-.9,2.1-2.9,2.1-7.3v-1.1c0-4.7,0-9.7,3.3-11.5a2.232,2.232,0,0,1,2.1-.2c1.4.7,2.4,3.4,3.3,9.6.8,5.4,2.3,9.4,3.7,10.1a.972.972,0,0,0,.9-.1,3.182,3.182,0,0,0,1.3-1.5,5.2,5.2,0,0,1,1.8-2.1,2.4,2.4,0,0,1,2-.4c1.9.6,3.4,3.9,5.1,8,.9,2.2,2,3.5,3.2,3.9a3.645,3.645,0,0,0,2.7-.4l.5.8a3.984,3.984,0,0,1-3.5.5c-1.5-.5-2.8-2-3.8-4.5-1.2-2.9-2.9-6.9-4.5-7.4a1.314,1.314,0,0,0-1.2.3,4.281,4.281,0,0,0-1.5,1.8,4.213,4.213,0,0,1-1.6,1.9,1.92,1.92,0,0,1-1.8.1c-2.6-1.3-3.9-8.7-4.2-10.9-.5-3.8-1.4-8.2-2.7-8.9a1.149,1.149,0,0,0-1.2.2c-2.8,1.6-2.8,6.2-2.8,10.7v1.1c0,4.6,0,7.1-2.7,8.2a1.95,1.95,0,0,1-1.3-.1c-1.5-.7-2.7-3.9-3.2-6.4-.4-1.8-1-3.1-1.8-3.4a.972.972,0,0,0-.9.1c-1.3.8-2.7,2.6-2.8,10.3-.1,6.2-.2,16.9-.3,19.2a11.265,11.265,0,0,1-6,9.7Z"/></g><path class="m" d="M153.1,152.9v13.8l-47.8,27.6v-17c2.4-2.3,1-15,5.1-16.8s7.8,9.7,11.2,7.7,2.7-8.1,6.4-10.1,6.5,6.5,14.1,6,11-9.5,11-11.2Z"/><path class="t" d="M104.8,177.1c.9-.9,1.3-3.8,1.6-6.7.5-4.4,1.1-9,3.7-10.2,2.5-1,4.7,1.8,6.6,4.3,1.7,2.1,3.3,4.2,4.6,3.4,1.6-.9,2.2-2.8,2.9-4.7.8-2.2,1.6-4.5,3.6-5.5s3.6.4,5.6,2.1c2.1,1.9,4.7,4.1,8.6,3.9,7.4-.5,10.5-9.3,10.5-10.7h1c0,2.1-3.7,11.1-11.4,11.6-4.3.3-7-2.2-9.3-4.1-2-1.7-3.2-2.6-4.5-1.9-1.7.9-2.3,2.9-3.1,4.9s-1.5,4.1-3.3,5.2c-2,1.2-3.9-1.3-5.8-3.7s-3.7-4.8-5.5-4c-2.1.9-2.6,5.4-3.1,9.4-.4,3.3-.7,6.2-1.9,7.3Z"/><path class="f" d="M151.2,117.5a2.748,2.748,0,0,1-1.2,2.2c-.7.4-1.3.1-1.3-.7a3.158,3.158,0,0,1,1.3-2.2C150.7,116.4,151.3,116.8,151.2,117.5Z"/><path class="e" d="M146.9,118.8l-8.5,4.9a2.143,2.143,0,0,0-.9,1.5c0,.6.4.8.9.5l8.5-4.9a1.859,1.859,0,0,0,.9-1.5C147.8,118.7,147.4,118.5,146.9,118.8Z"/><path class="f" d="M151.2,123.5a2.748,2.748,0,0,1-1.2,2.2c-.7.4-1.3.1-1.3-.7a3.158,3.158,0,0,1,1.3-2.2C150.7,122.4,151.3,122.7,151.2,123.5Z"/><path class="o" d="M151.2,123.5a2.748,2.748,0,0,1-1.2,2.2c-.7.4-1.3.1-1.3-.7a3.158,3.158,0,0,1,1.3-2.2C150.7,122.4,151.3,122.7,151.2,123.5Z"/><path class="e" d="M146.9,124.7l-8.5,4.9a2.143,2.143,0,0,0-.9,1.5c0,.6.4.8.9.5l8.5-4.9a1.859,1.859,0,0,0,.9-1.5C147.8,124.7,147.4,124.5,146.9,124.7Z"/><path class="s" d="M132.2,185.3,150,175v30l-17.8,10.3Z"/><path class="u" d="M133,215.3v-29a1.374,1.374,0,0,1,.5-.8l17-9.8c.3-.1.5,0,.5.3v29a1.374,1.374,0,0,1-.5.8l-17,9.8C133.2,215.8,133,215.6,133,215.3Z"/><path class="i" d="M134.7,189.8c.1-.3.2-.6.5-.7l13.5-7.8c.3-.2.5-.1.5.1a.752.752,0,0,1-.5.7L135.2,190C134.9,190.1,134.7,190.1,134.7,189.8Z"/><path class="i" d="M134.7,192c.1-.3.2-.6.5-.7l13.5-7.8c.3-.2.5-.1.5.1a.752.752,0,0,1-.5.7l-13.5,7.8C134.9,192.3,134.7,192.2,134.7,192Z"/><path class="i" d="M134.7,196.5a.752.752,0,0,1,.5-.7l13.5-7.8c.3-.2.5-.1.5.1a.752.752,0,0,1-.5.7l-13.5,7.8C134.9,196.7,134.7,196.6,134.7,196.5Z"/><path class="i" d="M134.7,198.6c.1-.3.2-.6.5-.7l13.5-7.8c.3-.2.5-.1.5.1a.752.752,0,0,1-.5.7l-13.5,7.8C134.9,198.9,134.7,198.8,134.7,198.6Z"/><path class="i" d="M134.7,205.2c.1-.3.2-.6.5-.7l13.5-7.8c.3-.2.5-.1.5.1a.752.752,0,0,1-.5.7l-13.5,7.8C134.9,205.4,134.7,205.4,134.7,205.2Z"/><path class="i" d="M134.7,203c.1-.3.2-.6.5-.7l13.5-7.8c.3-.2.5-.1.5.1a.752.752,0,0,1-.5.7l-13.5,7.8C134.9,203.3,134.7,203.2,134.7,203Z"/><path class="f" d="M142.9,183.4l.1-.1a.1.1,0,0,0-.1-.1l-.3-.2-.5-.3-.6-.3c-.1,0-.1.2-.1.2l.5.3a2.186,2.186,0,0,1,.5.3l.3.2Z"/><path class="f" d="M143.3,183.7a.879.879,0,0,0-.1-1.2h0a.749.749,0,0,0-.5.1,1.525,1.525,0,0,0-.7,1.2.758.758,0,0,0,.2.4h0c.4.2.8-.1,1.1-.5Z"/><g class="r"><path d="M143.3,183.7a.879.879,0,0,0-.1-1.2h0a.749.749,0,0,0-.5.1,1.525,1.525,0,0,0-.7,1.2.758.758,0,0,0,.2.4h0c.4.2.8-.1,1.1-.5Z"/></g><path class="f" d="M142.7,184.1h-.2a.367.367,0,0,1-.1-.3,1.374,1.374,0,0,1,.5-.8.187.187,0,0,1,.3,0h0a4.129,4.129,0,0,0,1.1.7l-.5.9A2.22,2.22,0,0,0,142.7,184.1Z"/><path class="f" d="M144.5,184.2v.1h0a.472.472,0,0,1-.5.5.51.51,0,0,1-.5-.4v-.1a1.193,1.193,0,0,1,.5-.9h.3a.472.472,0,0,1,.5.5A.319.319,0,0,1,144.5,184.2Z"/><g class="r"><path d="M144.5,184.2v.1h0a.472.472,0,0,1-.5.5.51.51,0,0,1-.5-.4v-.1a1.193,1.193,0,0,1,.5-.9h.3a.472.472,0,0,1,.5.5A.319.319,0,0,1,144.5,184.2Z"/></g><path class="f" d="M143.7,184.5c0,.3.2.5.5.3a1.05,1.05,0,0,0,.5-.9c0-.3-.2-.5-.5-.3A1.193,1.193,0,0,0,143.7,184.5Z"/><path class="s" d="M79.6,147.1l17.8-10.3v30L79.6,177.2Z"/><path class="u" d="M80.4,177.1v-29a1.374,1.374,0,0,1,.5-.8l17-9.8c.3-.1.5,0,.5.3v29a1.374,1.374,0,0,1-.5.8l-17,9.8C80.6,177.6,80.4,177.5,80.4,177.1Z"/><path class="i" d="M82.1,151.7c.1-.3.2-.6.5-.7l13.5-7.8c.3-.2.5-.1.5.1-.1.3-.2.6-.5.7l-13.5,7.8C82.3,152,82.1,151.9,82.1,151.7Z"/><path class="i" d="M82.1,153.8c.1-.3.2-.6.5-.7l13.5-7.8c.3-.2.5-.1.5.1-.1.3-.2.6-.5.7l-13.5,7.8C82.3,154.1,82.1,154,82.1,153.8Z"/><path class="i" d="M82.1,158.3c.1-.3.2-.6.5-.7l13.5-7.8c.3-.2.5-.1.5.1-.1.3-.2.6-.5.7l-13.5,7.8C82.3,158.5,82.1,158.5,82.1,158.3Z"/><path class="i" d="M82.1,160.4c.1-.3.2-.6.5-.7l13.5-7.8c.3-.2.5-.1.5.1-.1.3-.2.6-.5.7l-13.5,7.8C82.3,160.7,82.1,160.6,82.1,160.4Z"/><path class="i" d="M82.1,167c.1-.3.2-.6.5-.7l13.5-7.8c.3-.2.5-.1.5.1a.752.752,0,0,1-.5.7l-13.5,7.8C82.3,167.3,82.1,167.2,82.1,167Z"/><path class="i" d="M82.1,164.9c.1-.3.2-.6.5-.7l13.5-7.8c.3-.2.5-.1.5.1a.752.752,0,0,1-.5.7L82.6,165C82.3,165.1,82.1,165.1,82.1,164.9Z"/><path class="f" d="M90.3,145.3c.1-.1.1-.2.1-.1a.1.1,0,0,0-.1-.1l-.3-.2-.5-.3-.6-.3c-.1,0-.1.2-.1.2l.5.3.5.3.3.2Z"/><path class="f" d="M90.7,145.5a.8.8,0,0,0-.2-1.2h0a.749.749,0,0,0-.5.1,1.525,1.525,0,0,0-.7,1.2.758.758,0,0,0,.2.4h.1a1,1,0,0,0,1.1-.5Z"/><g class="r"><path d="M90.7,145.5a.8.8,0,0,0-.2-1.2h0a.749.749,0,0,0-.5.1,1.525,1.525,0,0,0-.7,1.2.758.758,0,0,0,.2.4h.1a1,1,0,0,0,1.1-.5Z"/></g><path class="f" d="M90.1,145.9H90a.367.367,0,0,1-.1-.3.909.909,0,0,1,.4-.8.187.187,0,0,1,.3,0h0a6.726,6.726,0,0,0,1.1.7l-.5.9A3.7,3.7,0,0,0,90.1,145.9Z"/><path class="f" d="M92,146.1h0a.552.552,0,1,1-1.1.1v-.1a1.193,1.193,0,0,1,.5-.9h.3a.472.472,0,0,1,.5.5C92.2,145.9,92.1,146.1,92,146.1Z"/><g class="r"><path d="M92,146.1h0a.552.552,0,1,1-1.1.1v-.1a1.193,1.193,0,0,1,.5-.9h.3a.472.472,0,0,1,.5.5C92.2,145.9,92.1,146.1,92,146.1Z"/></g><path class="f" d="M91.1,146.3c0,.3.2.5.5.3a1.05,1.05,0,0,0,.5-.9c0-.3-.2-.5-.5-.3A1.193,1.193,0,0,0,91.1,146.3Z"/><path class="s" d="M157.8,132.3l40-23.1v71.3l-40,23.1Z"/><path class="j" d="M159,133.1,199,110v37.3l-40,23.1Z"/><path class="f" d="M160.5,136.1l37-21.4V144l-37,21.4Z"/><path class="q" d="M160.5,136.1l37-21.4V144l-37,21.4Z"/><path class="i" d="M197.5,144l-37,21.4V150.7l37-21.4Z"/><path class="f" d="M160.5,163.4s12.5-6.2,15.4-12c3.7-7.4,11.1-9.7,13-12.7s-6.8-.5-6.8-.5l-21.6,12.5v12.7Z"/><path class="v" d="M160.5,163.4s12.5-6.2,15.4-12c3.7-7.4,11.1-9.7,13-12.7s-6.8-.5-6.8-.5l-21.6,12.5v12.7Z"/><path class="f" d="M197.5,129.4V114.8s-2.5,6.5-3.1,6.8-1.7-2.8-4.1-.4-10.8,18.5-10.8,18.5Z"/><path class="o" d="M197.5,129.4V114.8s-2.5,6.5-3.1,6.8-1.7-2.8-4.1-.4-10.8,18.5-10.8,18.5Z"/><path class="f" d="M188.7,134.4s-4.4-6.2-6.3-5.4-3.9,5.7-4.6,7.8-3.2,4.3-4.9,5.3a6.4,6.4,0,0,0-2.5,2.9Z"/><path class="u" d="M165.2,141.9c-1.2.8-2.2-.2-2.2-2.1a6.045,6.045,0,0,1,2.2-4.7c1.2-.8,2.2.2,2.2,2.1A6.045,6.045,0,0,1,165.2,141.9Z"/><path class="j" d="M160.1,205.5l40.1-23.1V148l-40.1,23.1Z"/><path class="i" d="M160.1,171.1v34.4l-1.1-.6V170.5Z"/><path class="f" d="M160.1,171.1l-1.1-.6,40.1-23.2,1.1.7Z"/><g class="w"><path class="u" d="M160.1,171.1l-1.1-.6,40.1-23.2,1.1.7Z"/></g><path class="f" d="M159,177.1l1.1.6v-6.6l-1.1-.6Z"/><g class="w"><path class="e" d="M159,177.1l1.1.6v-6.6l-1.1-.6Z"/></g><path class="f" d="M160.1,171.1,200.2,148v6.6l-40.1,23.1Z"/><path class="e" d="M163.5,178.9l3-1.7c.3-.2.6-.1.6.3a1.1,1.1,0,0,1-.6,1l-3,1.7c-.3.2-.6.1-.6-.3A1.1,1.1,0,0,1,163.5,178.9Z"/><path class="e" d="M168.5,175.9l3-1.7c.3-.2.6-.1.6.3a1.326,1.326,0,0,1-.6,1l-3,1.7c-.3.2-.6.1-.6-.3A2.075,2.075,0,0,1,168.5,175.9Z"/><path class="e" d="M173.6,173l3-1.7c.3-.2.6-.1.6.3a1.326,1.326,0,0,1-.6,1l-3,1.7c-.3.2-.6.1-.6-.3A1.326,1.326,0,0,1,173.6,173Z"/><path class="e" d="M178.7,170.1l3-1.7c.3-.2.6-.1.6.3a1.326,1.326,0,0,1-.6,1l-3,1.7c-.3.2-.6.1-.6-.3A1.326,1.326,0,0,1,178.7,170.1Z"/><path class="e" d="M183.8,167.1l3-1.7c.3-.2.6-.1.6.3a1.326,1.326,0,0,1-.6,1l-3,1.7c-.3.2-.6.1-.6-.3A1.217,1.217,0,0,1,183.8,167.1Z"/><path class="e" d="M188.8,164.2l3-1.7c.3-.2.6-.1.6.3a1.326,1.326,0,0,1-.6,1l-3,1.7c-.3.2-.6.1-.6-.3A1.7,1.7,0,0,1,188.8,164.2Z"/><path class="e" d="M193.9,161.3l3-1.7c.3-.2.6-.1.6.3a1.1,1.1,0,0,1-.6,1l-3,1.7c-.3.2-.6.1-.6-.3A1.326,1.326,0,0,1,193.9,161.3Z"/><path class="i" d="M163.1,186.7l3.7-2.1v-3.4l-3.7,2.2Z"/><path class="i" d="M163.1,191.4l3.7-2.2v-3.3l-3.7,2.1Z"/><path class="i" d="M163.1,196.1l3.7-2.2v-3.3l-3.7,2.1Z"/><path class="i" d="M163.1,200.7l3.7-2.1v-3.4l-3.7,2.2Z"/><path class="i" d="M168.2,183.8l3.7-2.2v-3.3l-3.7,2.1Z"/><path class="i" d="M168.2,188.5l3.7-2.2V183l-3.7,2.1Z"/><path class="i" d="M168.2,193.1l3.7-2.1v-3.4l-3.7,2.2Z"/><path class="i" d="M168.2,197.8l3.7-2.2v-3.3l-3.7,2.1Z"/><path class="i" d="M173.3,180.9l3.7-2.2v-3.3l-3.7,2.1Z"/><path class="i" d="M173.3,185.5l3.7-2.1V180l-3.7,2.2Z"/><path class="i" d="M173.3,190.2,177,188v-3.3l-3.7,2.1Z"/><path class="i" d="M173.3,194.9l3.7-2.2v-3.3l-3.7,2.1Z"/><path class="i" d="M178.4,177.9l3.7-2.1v-3.4l-3.7,2.2Z"/><path class="i" d="M178.4,182.6l3.7-2.2v-3.3l-3.7,2.1Z"/><path class="i" d="M178.4,187.3l3.7-2.2v-3.3l-3.7,2.1Z"/><path class="i" d="M178.4,191.9l3.7-2.1v-3.4l-3.7,2.2Z"/><path class="i" d="M183.4,175l3.7-2.2v-3.3l-3.7,2.1Z"/><path class="i" d="M183.4,179.7l3.7-2.2v-3.3l-3.7,2.1Z"/><path class="i" d="M183.4,184.3l3.7-2.1v-3.4l-3.7,2.2Z"/><path class="i" d="M183.4,189l3.7-2.2v-3.3l-3.7,2.1Z"/><path class="i" d="M188.5,172.1l3.7-2.2v-3.3l-3.7,2.1Z"/><path class="i" d="M188.5,176.7l3.7-2.1v-3.4l-3.7,2.2Z"/><path class="i" d="M188.5,181.4l3.7-2.2v-3.3l-3.7,2.1Z"/><path class="i" d="M188.5,186.1l3.7-2.2v-3.3l-3.7,2.1Z"/><path class="f" d="M193.6,169.1l3.7-2.1v-3.4l-3.7,2.2Z"/><path class="f" d="M193.6,173.8l3.7-2.2v-3.3l-3.7,2.1Z"/><path class="f" d="M193.6,178.5l3.7-2.2V173l-3.7,2.1Z"/><path class="f" d="M193.6,183.1l3.7-2.1v-3.4l-3.7,2.2Z"/><path class="m" d="M196.9,162.7l-.3.9-.1.1-.6.5c-.1.1-.2.3-.1.3l.5.3v.1l-.1.9c0,.2.1.2.2.1l.6-.7a.1.1,0,0,1,.1-.1l.6.1c.1,0,.2-.2.2-.3l-.1-.8v-.2l.5-.9c0-.1,0-.2-.1-.2l-.6.2h-.1l-.3-.6C197.1,162.4,197,162.4,196.9,162.7Z"/><path class="m" d="M179.9,187.2c-2,.7-2.9-1.4-2.3-3a9.737,9.737,0,0,1,1.5-2.4c.6-.6,1.3-1.4,2.2-1.3.2,0,0,.3-.1.3-1.8.3-5.2,5.8-2.1,6a3.439,3.439,0,0,0,3.1-2.3,2.3,2.3,0,0,0,0-2.4c-.6-.7-1.6-.2-2.1.3-.1.1-.3,0-.2-.1.5-.5,1.2-1.2,2-.9a1.781,1.781,0,0,1,1,1.6A4.416,4.416,0,0,1,179.9,187.2Z"/><path class="m" d="M177.7,181.7a.215.215,0,0,1-.2.2,3.553,3.553,0,0,0-1-.2,1.949,1.949,0,0,1-.8.1v-.1a1.314,1.314,0,0,1,1.2-.3,4.919,4.919,0,0,0-2-.5,6.6,6.6,0,0,0-1.4.1.6.6,0,0,1-.4.1s-.1-.1,0-.1a4.993,4.993,0,0,1,2.7-.2,2.836,2.836,0,0,1,1.3.4l-.1-.1c-.2-.2-.4-.5-.5-.6s.1-.2.2-.1c.2.1.4.4.6.6C177.4,181.2,177.6,181.5,177.7,181.7Z"/><path class="e" d="M179.8,124.5c.1-.1.2,0,.2-.1a.1.1,0,0,0-.1-.1l-.4-.2-.5-.3-.6-.3c-.1,0-.2.2-.1.2l.5.3.5.3.3.2Z"/><path class="d" d="M180.2,124.7a.83.83,0,0,0-.2-1.2h0a.749.749,0,0,0-.5.1,1.525,1.525,0,0,0-.7,1.2.758.758,0,0,0,.2.4h.1a.852.852,0,0,0,1.1-.5Z"/><path class="e" d="M179.6,125.1h-.1a.367.367,0,0,1-.1-.3.91.91,0,0,1,.4-.8.188.188,0,0,1,.3,0h0a6.725,6.725,0,0,0,1.1.7l-.5.9A5.36,5.36,0,0,0,179.6,125.1Z"/><path class="d" d="M181.5,125.2h0c0,.4-.2.7-.5.7a.56.56,0,0,1-.6-.5v-.1a1.193,1.193,0,0,1,.5-.9h.3a.472.472,0,0,1,.5.5C181.7,125.1,181.6,125.3,181.5,125.2Z"/><path class="e" d="M180.7,125.6c0,.3.2.5.5.3a1.05,1.05,0,0,0,.5-.9c0-.3-.2-.5-.5-.3A.76.76,0,0,0,180.7,125.6Z"/><path class="e" d="M206.6,62.1h0a1.371,1.371,0,0,0,.6-1.3,4.877,4.877,0,0,0-2.1-3.7,1.357,1.357,0,0,0-1.5-.1h0L73.2,132.3l3,5.2Z"/><path class="d" d="M74.7,137.3a4.688,4.688,0,0,1-2.1-3.6c0-1.3.9-1.9,2.1-1.2a4.688,4.688,0,0,1,2.1,3.6C76.8,137.4,75.9,138,74.7,137.3Z"/><path class="s" d="M160.9,85.1l17.9-10.3v30.1l-17.9,10.3Z"/><path class="u" d="M161.8,115.3v-29a1.374,1.374,0,0,1,.5-.8l17-9.8c0-.1.1-.1.2-.1s.2.1.2.3v29a1.374,1.374,0,0,1-.5.8l-17,9.8C162,115.6,161.8,115.5,161.8,115.3Z"/><path class="i" d="M163.5,89.7a.752.752,0,0,1,.5-.7l13.5-7.8c.3-.2.5-.1.5.1-.1.3-.2.6-.5.7L164,89.8C163.7,90,163.5,89.9,163.5,89.7Z"/><path class="i" d="M163.5,91.8a.752.752,0,0,1,.5-.7l13.5-7.8c.3-.2.5-.1.5.1-.1.3-.2.6-.5.7L164,92C163.7,92.1,163.5,92.1,163.5,91.8Z"/><path class="i" d="M163.5,96.3a.752.752,0,0,1,.5-.7l13.5-7.8c.3-.2.5-.1.5.1-.1.3-.2.6-.5.7L164,96.4C163.7,96.6,163.5,96.5,163.5,96.3Z"/><path class="i" d="M163.5,98.4a.752.752,0,0,1,.5-.7l13.5-7.8c.3-.2.5-.1.5.1a.752.752,0,0,1-.5.7L164,98.5C163.7,98.7,163.5,98.6,163.5,98.4Z"/><path class="i" d="M163.5,105a.752.752,0,0,1,.5-.7l13.5-7.8c.3-.2.5-.1.5.1-.1.3-.2.6-.5.7L164,105.1C163.7,105.3,163.5,105.2,163.5,105Z"/><path class="i" d="M163.5,102.9a.752.752,0,0,1,.5-.7l13.5-7.8c.3-.2.5-.1.5.1-.1.3-.2.6-.5.7L164,103C163.7,103.1,163.5,103.1,163.5,102.9Z"/><path class="f" d="M171.7,83.3c0-.2.1-.1.1-.2a.1.1,0,0,0-.1-.1l-.3-.1-.5-.3-.6-.3c-.1,0-.2.1-.1.2a2.186,2.186,0,0,0,.5.3l.5.3.3.2Z"/><path class="f" d="M172.1,83.5a.9.9,0,0,0-.1-1.2h0a.749.749,0,0,0-.5.1,1.525,1.525,0,0,0-.7,1.2.758.758,0,0,0,.2.4h0c.4.2.8,0,1.1-.5Z"/><g class="r"><path d="M172.1,83.5a.9.9,0,0,0-.1-1.2h0a.749.749,0,0,0-.5.1,1.525,1.525,0,0,0-.7,1.2.758.758,0,0,0,.2.4h0c.4.2.8,0,1.1-.5Z"/></g><path class="f" d="M171.5,83.8h-.1a.367.367,0,0,1-.1-.3.91.91,0,0,1,.4-.8.188.188,0,0,1,.3,0h0a7.632,7.632,0,0,0,1.1.8l-.5.9A10.905,10.905,0,0,0,171.5,83.8Z"/><path class="f" d="M173.4,84h0c0,.4-.2.7-.5.7a.56.56,0,0,1-.6-.5v-.1a1.193,1.193,0,0,1,.5-.9h.3a.472.472,0,0,1,.5.5C173.5,83.9,173.4,84.1,173.4,84Z"/><g class="r"><path d="M173.4,84h0c0,.4-.2.7-.5.7a.56.56,0,0,1-.6-.5v-.1a1.193,1.193,0,0,1,.5-.9h.3a.472.472,0,0,1,.5.5C173.5,83.9,173.4,84.1,173.4,84Z"/></g><path class="f" d="M172.5,84.3c0,.3.2.5.5.3a1.05,1.05,0,0,0,.5-.9c0-.3-.2-.5-.5-.3A1.382,1.382,0,0,0,172.5,84.3Z"/><path class="f" d="M163.9,80.6l1.5-.8v5.6l-1.5.8Z"/><path class="s" d="M181.6,73.2l17.8-10.3V93l-17.8,10.3Z"/><path class="u" d="M182.4,103.3v-29a1.374,1.374,0,0,1,.5-.8l17-9.8c.3-.1.5,0,.5.3V93a1.374,1.374,0,0,1-.5.8l-17,9.8C182.6,103.7,182.4,103.6,182.4,103.3Z"/><path class="i" d="M184.1,77.8a.752.752,0,0,1,.5-.7l13.5-7.8c.3-.2.5-.1.5.1a.752.752,0,0,1-.5.7l-13.5,7.8C184.3,78.1,184.1,78,184.1,77.8Z"/><path class="i" d="M184.1,79.9a.752.752,0,0,1,.5-.7l13.5-7.8c.3-.2.5-.1.5.1a.752.752,0,0,1-.5.7L184.6,80C184.3,80.2,184.1,80.1,184.1,79.9Z"/><path class="i" d="M184.1,84.4a.752.752,0,0,1,.5-.7l13.5-7.8c.3-.2.5-.1.5.1-.1.3-.2.6-.5.7l-13.5,7.8C184.3,84.6,184.1,84.6,184.1,84.4Z"/><path class="i" d="M184.1,86.5a.752.752,0,0,1,.5-.7L198.1,78c.3-.2.5-.1.5.1-.1.3-.2.6-.5.7l-13.5,7.8C184.3,86.8,184.1,86.7,184.1,86.5Z"/><path class="i" d="M184.1,93.1a.752.752,0,0,1,.5-.7l13.5-7.8c.3-.2.5-.1.5.1-.1.3-.2.6-.5.7l-13.5,7.8C184.3,93.4,184.1,93.3,184.1,93.1Z"/><path class="i" d="M184.1,91a.752.752,0,0,1,.5-.7l13.5-7.8c.3-.2.5-.1.5.1-.1.3-.2.6-.5.7l-13.5,7.8C184.3,91.2,184.1,91.2,184.1,91Z"/><path class="f" d="M192.3,71.4c.1-.2.1,0,.1-.1a.1.1,0,0,0-.1-.1L192,71l-.5-.3-.6-.3c-.1,0-.2.2-.1.2l.5.3.5.3.3.2Z"/><path class="f" d="M192.7,71.6a.9.9,0,0,0-.1-1.2h0a.749.749,0,0,0-.5.1,1.525,1.525,0,0,0-.7,1.2.758.758,0,0,0,.2.4h0c.4.2.8,0,1.1-.5Z"/><g class="r"><path d="M192.7,71.6a.9.9,0,0,0-.1-1.2h0a.749.749,0,0,0-.5.1,1.525,1.525,0,0,0-.7,1.2.758.758,0,0,0,.2.4h0c.4.2.8,0,1.1-.5Z"/></g><path class="f" d="M192.1,72H192a.367.367,0,0,1-.1-.3.91.91,0,0,1,.4-.8.188.188,0,0,1,.3,0h0a6.725,6.725,0,0,0,1.1.7l-.5.9A3.7,3.7,0,0,0,192.1,72Z"/><path class="f" d="M194,72.2h0a.552.552,0,0,1-1.1.1v-.1a1.193,1.193,0,0,1,.5-.9h.3a.472.472,0,0,1,.5.5C194.2,72,194.1,72.2,194,72.2Z"/><g class="r"><path d="M194,72.2h0a.552.552,0,0,1-1.1.1v-.1a1.193,1.193,0,0,1,.5-.9h.3a.472.472,0,0,1,.5.5C194.2,72,194.1,72.2,194,72.2Z"/></g><path class="f" d="M193.2,72.4c0,.3.2.5.5.3a1.05,1.05,0,0,0,.5-.9c0-.3-.2-.5-.5-.3C193.3,71.8,193.1,72.1,193.2,72.4Z"/><path class="f" d="M184.5,68.7l1.5-.8v5.5l-1.5.9Z"/><path class="s" d="M159.9,113.1l8.7-5v13.4l-8.7,5Z"/><path class="e" d="M169.3,110l-9,5.2.6,7.6c.1.9,1.4.6,2.1.2,0,.7.4,1.8,1.1,1.4l6-3.4Z"/><path class="d" d="M169.3,108.4l-9,5.2v1.7l9-5.2Z"/><path class="d" d="M162.8,122.4l.8,2-2.5-1Z"/><path class="e" d="M85.9,290.5V368L60.6,382.6,35.3,368V290.5a9.819,9.819,0,0,1,4.5-7.8l16.3-9.4a10.168,10.168,0,0,1,9,0l16.3,9.4A9.819,9.819,0,0,1,85.9,290.5Z"/><path class="d" d="M60.6,382.6,85.9,368V290.5c0-2.9-2-4-4.5-2.6l-16.3,9.4a9.819,9.819,0,0,0-4.5,7.8v77.5Z"/><path class="l" d="M37.1,285.3l25.3,14.6a9.583,9.583,0,0,0-1.8,5.2v77.5L35.3,368V290.5A10.468,10.468,0,0,1,37.1,285.3Z"/><path class="e" d="M83.8,329.2,62.7,341.4v-28l21.1-12.2Z"/><path class="h" d="M83.8,329.2,62.7,341.4v-28l21.1-12.2Z"/><path class="l" d="M62.7,334.7V313.4L78,304.6v21.3Z"/><path class="e" d="M62.7,334.7v6.7l21.1-12.2L78,325.9Z"/><path class="j" d="M76,305.7l.3,1.4.2.1a2.441,2.441,0,0,0,2.6,0l.8-.5.8-3.7Z"/><path class="j" d="M65.8,311.6l.3,1.5.2.1a2.441,2.441,0,0,0,2.6,0l.8-.5.8-3.8Z"/><path class="d" d="M39.4,279.4c0,2.8,2.1,5.7,5.8,7.8a34.1,34.1,0,0,0,30.8,0c3.7-2.2,5.8-5,5.8-7.8v-3.5c0-2.8-2.1-5.7-5.8-7.8a34.1,34.1,0,0,0-30.8,0c-3.7,2.2-5.8,5-5.8,7.8Z"/><path class="e" d="M45.2,283.6c-3.7-2.2-5.8-5-5.8-7.8s2.1-5.7,5.8-7.8A34.1,34.1,0,0,1,76,268c3.7,2.2,5.8,5,5.8,7.8s-2.1,5.7-5.8,7.8a31.571,31.571,0,0,1-15.4,3.7A31.571,31.571,0,0,1,45.2,283.6Z"/><path class="m" d="M37.5,273v.1h0c.4,3,2.6,6,6.7,8.4,9.1,5.2,23.7,5.2,32.8,0,4.1-2.3,6.3-5.3,6.7-8.4h.1V225.4h0c0-3.4-2.3-6.9-6.8-9.5-9.1-5.2-23.7-5.2-32.8,0-4.9,2.8-7.2,6.7-6.7,10.4v44.8A6.054,6.054,0,0,0,37.5,273Z"/><path class="g" d="M45.7,279.3c-3-1.8-4.9-4-5.3-6.2v-.2a2.438,2.438,0,0,1,0-1.2V242.1c-.3-2.7,1.6-5.4,5.3-7.5a33.253,33.253,0,0,1,29.8,0c3.4,1.9,5.3,4.5,5.3,6.9v31.3c-.4,2.2-2.2,4.4-5.3,6.2a30.855,30.855,0,0,1-14.9,3.5A34.425,34.425,0,0,1,45.7,279.3Z"/><path class="x" d="M40.4,241.9c0,2.8,1.6,5.4,5.3,7.5A29.855,29.855,0,0,0,60.6,253a33.622,33.622,0,0,0,14.9-3.5c3.4-1.6,5.3-4.4,5.3-7.5s-1.9-5.9-5.3-7.5A36.2,36.2,0,0,0,60.6,231a30.855,30.855,0,0,0-14.9,3.5C41.9,236.6,40.3,239.1,40.4,241.9Z"/><path class="m" d="M45.2,233.1c-3.7-2.2-5.8-4.9-5.8-7.8s2.1-5.7,5.8-7.8a34.1,34.1,0,0,1,30.8,0c3.7,2.2,5.8,5,5.8,7.8s-2.1,5.7-5.8,7.8a31.57,31.57,0,0,1-15.4,3.7A31.57,31.57,0,0,1,45.2,233.1Z"/><path class="f" d="M67.9,301.6a3.164,3.164,0,0,0-1.4,2.4.975.975,0,0,0,.4.9h0l.9.5v-.1a1.421,1.421,0,0,0,.6-.2,3.164,3.164,0,0,0,1.4-2.4,1.445,1.445,0,0,0-.2-.7v-.1l-.9-.5A.627.627,0,0,0,67.9,301.6Z"/><path class="s" d="M67.9,301.6a3.164,3.164,0,0,0-1.4,2.4.975.975,0,0,0,.4.9h0l.9.5v-.1a1.421,1.421,0,0,0,.6-.2,3.164,3.164,0,0,0,1.4-2.4,1.445,1.445,0,0,0-.2-.7v-.1l-.9-.5A.627.627,0,0,0,67.9,301.6Z"/><path class="f" d="M68.6,302c.8-.4,1.4-.1,1.4.8a3.164,3.164,0,0,1-1.4,2.4c-.8.4-1.4.1-1.4-.8A3.164,3.164,0,0,1,68.6,302Z"/><path class="i" d="M78.1,295.6a3.164,3.164,0,0,0-1.4,2.4.975.975,0,0,0,.4.9h0l.9.5v-.1a1.421,1.421,0,0,0,.6-.2,3.164,3.164,0,0,0,1.4-2.4,1.421,1.421,0,0,0-.2-.6V296l-.9-.5A.989.989,0,0,0,78.1,295.6Z"/><path class="j" d="M78.8,296.2c.8-.4,1.4-.1,1.4.8a3.164,3.164,0,0,1-1.4,2.4c-.8.5-1.4.1-1.4-.8A3.164,3.164,0,0,1,78.8,296.2Z"/><path class="d" d="M61.3,150.4c.4,9.5-5.7,21.4-13.7,26.6-4,2.6-7.7,3-10.5,1.6h0l-2.8-1.7h0c-2.8-1.4-4.6-4.6-4.8-9.4-.5-9.5,5.7-21.4,13.7-26.6,4-2.6,7.7-3,10.5-1.6h0l2.8,1.7h0C59.3,142.4,61.1,145.7,61.3,150.4Z"/><path class="l" d="M32.3,169.3a29.436,29.436,0,0,1,2.9-13.4l-2.8-1.7a29.719,29.719,0,0,0-2.9,13.4c.2,4.7,2,8,4.8,9.4h0l2.6,1.5C34.2,177,32.5,173.8,32.3,169.3Z"/><path class="e" d="M32.2,169.2c-.4-9.5,5.6-21.4,13.7-26.6s15-1.6,15.4,7.9-5.7,21.4-13.7,26.6S32.6,178.7,32.2,169.2Z"/><path class="j" d="M46,174.5c7.1-4.5,12.7-15.5,12.3-23.9-.1-2.3-.9-7.6-5.6-7.4a10.591,10.591,0,0,0-5.1,1.9c-7.1,4.5-12.7,15.5-12.3,23.9.1,2.3.9,7.6,5.6,7.4A10.591,10.591,0,0,0,46,174.5Z"/><path class="d" d="M47.1,162.3l-6.6-.9c-.2,0-.1-.4.1-.8s.5-.7.7-.7l5.7.7V149.9a1.606,1.606,0,0,1,.5-1.1c.3-.4.5-.4.5-.1v12.2a3.552,3.552,0,0,1-.4.9l-.2.2Q47.1,162.15,47.1,162.3Z"/><path class="f" d="M50.1,167.7l-2.9-6.3c-.1,0-.1-.2.1-.4s.3-.3.3-.2l2.9,6.3a.646.646,0,0,1-.2.5h0A.31.31,0,0,1,50.1,167.7Z"/><path class="f" d="M49.1,160.1a4.158,4.158,0,0,1-1.8,3c-.9.5-1.7-.1-1.6-1.3a3.868,3.868,0,0,1,1.8-3C48.5,158.3,49.2,158.9,49.1,160.1Z"/><path class="l" d="M235.6,320.4V260.6a.9.9,0,0,0-1.8,0v59.8a.9.9,0,0,0,.9.9A.967.967,0,0,0,235.6,320.4Z"/><path class="l" d="M272.1,299.4a.883.883,0,0,0,.5-1.2l-18.4-46.4h0a.919.919,0,0,0-1.7.7l18.3,46.4a.961.961,0,0,0,.9.6A.6.6,0,0,0,272.1,299.4Z"/><path class="l" d="M270.2,293.6a.853.853,0,0,0,0-1.3l-34.8-36.8a.908.908,0,0,0-.7-.3h0a.908.908,0,0,0-.7.3l-34.8,36.7-.1.1a.922.922,0,0,0,1.4,1.2l34.1-36,34.2,36.1a.967.967,0,0,0,1.4,0Z"/><path class="l" d="M198.6,298.9l18.3-46.4a.919.919,0,0,0-1.7-.7l-18.3,46.4h0a.883.883,0,0,0,.5,1.2.367.367,0,0,0,.3.1A1.149,1.149,0,0,0,198.6,298.9Z"/><path class="f" d="M268.4,293.2l2.3,6v.1h0l.3.3a1.95,1.95,0,0,0,1.5,0c.2-.1.4-.3.4-.4v-.3l-2.4-6.4Z"/><path class="f" d="M201.1,293.2l-2.3,6v.1h0l-.3.3a1.95,1.95,0,0,1-1.5,0c-.2-.1-.4-.3-.4-.4v-.3l2.4-6.4Z"/><path class="f" d="M233.7,315.7V321c0,.2.1.3.3.4a1.95,1.95,0,0,0,1.5,0c.2,0,.3-.2.3-.4v-5.3A1.985,1.985,0,0,0,233.7,315.7Z"/><path class="f" d="M269.7,257.1a4.151,4.151,0,0,1-2.1,3.2,125.944,125.944,0,0,1-15,8.9c-5.7,2.8-13.3,8.5-22.6,4.8-5.2-2-17.3-7.8-22.7-12-3.2-2.4-5.3-2.4-7.1-16.9h0c-1.2-8.7-1.7-20.1-1.2-26.1.9-9.8,5-13.5,10.3-16.4,5.8-3.2,10.4-5.7,13.9-3.6l2.3,1.3c1.8,1,3.3,3.2,4.5,7.1,3.6,11.3,8.4,26.3,13.6,29.4v.1c6.8,3.7,17.5,10,22.3,13.1,2.6,1.7,3.8,3.2,3.8,4.6C269.7,255.1,269.7,256.9,269.7,257.1Z"/><path class="y" d="M269.7,257.1a4.151,4.151,0,0,1-2.1,3.2,125.944,125.944,0,0,1-15,8.9c-5.7,2.8-13.3,8.5-22.6,4.8-5.2-2-17.3-7.8-22.7-12-3.2-2.4-5.3-2.4-7.1-16.9h0c-1.2-8.7-1.7-20.1-1.2-26.1.9-9.8,5-13.5,10.3-16.4,5.8-3.2,10.4-5.7,13.9-3.6l2.3,1.3c1.8,1,3.3,3.2,4.5,7.1,3.6,11.3,8.4,26.3,13.6,29.4v.1c6.8,3.7,17.5,10,22.3,13.1,2.6,1.7,3.8,3.2,3.8,4.6C269.7,255.1,269.7,256.9,269.7,257.1Z"/><path class="f" d="M223.3,199c-3.5-2.1-8.2.5-13.9,3.6-3.6,1.9-6.6,4.3-8.5,8.6l2.4,1.4c1.9-4.3,4.9-6.6,8.5-8.6,5.6-3,10.1-5.5,13.6-3.7Z"/><path class="f" d="M267.5,257.7a125.944,125.944,0,0,1-15,8.9c-5.7,2.8-13.3,8.4-22.6,4.8-5.9-2.3-20.5-9.9-24.2-13.9-3.3-2.9-5.2-27.3-4.3-37.1s5-13.5,10.3-16.4c8.6-4.7,14.7-8,18.3,3.5,3.6,11.3,8.4,26.3,13.6,29.4h-.1c19.2,10.7,19.3,11.2,22.4,13.2C270.5,253.1,270.8,255.4,267.5,257.7Z"/><g class="z"><path d="M201.6,220.4c-.8,9.8,1,34.4,4.4,37.2.6.5,2.6-6.6,16-13.8,12.8-6.9,21.7-6.9,21.7-6.9-5.2-3.1-10-18-13.6-29.4-3.7-11.5-9.7-8.2-18.3-3.5C206.5,206.9,202.4,210.6,201.6,220.4Z"/></g><path class="aa" d="M266.3,213.3c-2,2.3-4,4.7-6,7.1a59.94,59.94,0,0,1-4.1,4.7c-.2.2-.3.4-.5.5-1.9,1.6-4.4.9-6-1-2.4-2.7-16.6-22.4-16.6-22.4l-2.3-9.6s7.8-1.4,11.9,5.1c2.3,3.5,11,17.4,11,17.4,1.5-1.3,7.3-7.1,8.9-8.6a15.255,15.255,0,0,0,3.5-4.1c.4-.8.8-1.5,1.3-2.3a9.062,9.062,0,0,1,1.1-1.6c.5-.6,1-1.1,1.5-1.6.1-.1.2-.1.3-.2a.61.61,0,0,1,.7.3,1.7,1.7,0,0,1,.2,1.4,3.505,3.505,0,0,1-.6,1.4,3.36,3.36,0,0,0-.5,1.4,2.492,2.492,0,0,0,1.7-.3,32.351,32.351,0,0,0,4.7-2.8,4.129,4.129,0,0,1,1.1-.7,1.95,1.95,0,0,1,1.3-.1,1.764,1.764,0,0,1,.9.8,3.513,3.513,0,0,1,.5,2,4.477,4.477,0,0,1-.4,2,7.219,7.219,0,0,1-.9,2,6.73,6.73,0,0,1-1.4,1.5,14.67,14.67,0,0,1-3.7,2.4,22.068,22.068,0,0,0-2.7,1.2,19.1,19.1,0,0,0-3.2,2.4C267.4,212.1,266.9,212.7,266.3,213.3Z"/><path class="l" d="M237.1,209.1l8.6,11.4c2.3,3.2,5.8,6.4,7.5,6.4,2.9,0,16.5-14.3,16.1-16.7-.4-2.7-5.6-4.6-5.3-5.1.9-1.2-10.5,9.2-10.5,9.2s-2.5-3.5-6.1-9.6c-3.9-6.7-4.9-8.2-7.8-10.7-3.1-2.7-9.5-1.7-9.5-1.7Z"/><path class="l" d="M245.8,308.8l1.2,2.6c-.5,1.1-.2,3.1-.1,5.3l-.7.1Z"/><path class="l" d="M245.8,308.7l.4,8.1-.7-.1a24.2,24.2,0,0,0-.2-3.8c-.3-3-1.2-4.5-1.5-6Z"/><path class="l" d="M254.6,316.7c-3.2-.8-4.6-4.8-6.2-8.3a4.87,4.87,0,0,0-4.8-3.1,2.622,2.622,0,0,0,.2,1.5,10.366,10.366,0,0,1,3.1,5.7c.3,1.5.9,4.6,2.3,5.8s2.8,2,6.7,2,5-1.1,5.4-1.4a2.1,2.1,0,0,0,.4-1.1A41.986,41.986,0,0,1,254.6,316.7Z"/><path class="aa" d="M257.6,313.3a6.419,6.419,0,0,1-1-1.3,27.324,27.324,0,0,1-2.6-6.1,19.6,19.6,0,0,1-.8-5.4c0-1.2.5-6,.5-6L245,293l.6,5.5a4.355,4.355,0,0,1-.7,3.5h0a5.5,5.5,0,0,0-1.1,3,5.935,5.935,0,0,0,1.4,2.3,11.252,11.252,0,0,1,1.2,2.1,24.477,24.477,0,0,1,1.8,5.4,10.41,10.41,0,0,0,.6,1.6c.9,1.7,3,2.5,5,2.7a13.493,13.493,0,0,0,6-.4c.8-.3,1.7-.8,1.8-1.8s-.8-1.4-2.1-2.3A12.734,12.734,0,0,0,257.6,313.3Z"/><path class="d" d="M243.6,305.6c.1.3.3.3.7.8s.8.9,1.1,1.3h0a1.381,1.381,0,0,1,.3.4,10.1,10.1,0,0,1,1.8,4.1,18.226,18.226,0,0,0,1.1,4c.5.9,1.6,2.8,5.9,3.1,4.8.4,6.7-.9,7.2-1.4a1.7,1.7,0,0,0-.3-2.3,22.652,22.652,0,0,1-4-2.9s.6,1.4-1.4,1.8h0a5.779,5.779,0,0,1-3.2-.1,5.92,5.92,0,0,1-3.8-3.9c-1.1-3-2-6.7-2.3-7.5a10.076,10.076,0,0,0-1.2-2.3c-.5.9-1.2,1.5-1.7,2.5A2.836,2.836,0,0,0,243.6,305.6Z"/><path class="l" d="M266.2,301.5l1.4,2.5c-.4,1.1,0,3.1.3,5.3l-.7.2Z"/><path class="l" d="M266.2,301.5l1,8-.8-.1a23.28,23.28,0,0,0-.4-3.8c-.5-2.9-1.5-4.3-1.9-5.8Z"/><path class="l" d="M275.6,308.7c-3.3-.5-4.9-4.5-6.8-7.8a4.765,4.765,0,0,0-5-2.7,2.059,2.059,0,0,0,.3,1.5,11.565,11.565,0,0,1,3.5,5.5c.4,1.5,1.3,4.6,2.7,5.6s2.9,1.7,6.8,1.4,5-1.4,5.3-1.7a2.662,2.662,0,0,0,.3-1.2A33.5,33.5,0,0,1,275.6,308.7Z"/><path class="aa" d="M278.4,305a6.886,6.886,0,0,1-1.1-1.3,32.737,32.737,0,0,1-3-5.9,18.116,18.116,0,0,1-1.2-5.7c-.1-2.5-.4-5.8-.4-5.8l-8.4-.8,1,4.8c.4,2.2.2,2.8-.5,4.2h0a6.5,6.5,0,0,0-.8,3.1,5.414,5.414,0,0,0,1.5,2.2,9.022,9.022,0,0,1,1.4,2,26.994,26.994,0,0,1,2.2,5.3,7.74,7.74,0,0,0,.7,1.6c1,1.7,3.2,2.3,5.2,2.4a13.223,13.223,0,0,0,5.9-.8c.8-.4,1.7-1,1.7-1.9s-1-1.2-2.3-2.1C279.6,305.9,279,305.4,278.4,305Z"/><path class="d" d="M263.8,298.5c.1.3.3.4.7.8l1.2,1.2h0l.3.4a15.3,15.3,0,0,1,2.1,4,16.416,16.416,0,0,0,1.4,3.9c.5.9,1.8,2.7,6.1,2.7,4.9,0,6.6-1.4,7.1-2a1.624,1.624,0,0,0-.5-2.2,22.639,22.639,0,0,1-4.2-2.6s.7,1.3-1.3,1.9h0a6.886,6.886,0,0,1-3.2.1,5.942,5.942,0,0,1-4.1-3.6c-1.3-2.9-2.3-6.6-2.8-7.5a8.577,8.577,0,0,0-1.3-2,17.612,17.612,0,0,0-1.4,2.3A2.959,2.959,0,0,0,263.8,298.5Z"/><path class="f" d="M273.8,260c-.2,6.7-.5,27.8-.5,27.8-5.6,2.3-8.3.3-8.3.3s-2.6-8.9-4.2-15.8c-1.8-7.7-.3-12.5-.3-12.5l-11.4-3.3a38.552,38.552,0,0,1,6.6,5.5c.8,1,1.4,3.3,1.1,6.8-.7,6.6-3.2,27.2-3.2,27.2a9.755,9.755,0,0,1-8.5-.3s-1.4-7.7-2.4-14.7-.2-10.5-.2-10.5-13.6-5.4-20.1-8c-11-4.4-12.6-9.9-13.4-14.6-.8-4.8,1.6-15.7,3.7-18.5,8.4,3.6,21.1,6.6,29.3,3.6,6,2.5,10.1,5,15.5,7.4s11.8,5.5,14.9,9.1C273.8,251.2,273.8,254.2,273.8,260Z"/><path class="ab" d="M273.8,260c-.2,6.7-.5,27.8-.5,27.8-5.6,2.3-8.3.3-8.3.3s-2.6-8.9-4.2-15.8c-1.8-7.7-.3-12.5-.3-12.5l-11.4-3.3a38.552,38.552,0,0,1,6.6,5.5c.8,1,1.4,3.3,1.1,6.8-.7,6.6-3.2,27.2-3.2,27.2a9.755,9.755,0,0,1-8.5-.3s-1.4-7.7-2.4-14.7-.2-10.5-.2-10.5-13.6-5.4-20.1-8c-11-4.4-12.6-9.9-13.4-14.6-.8-4.8,1.6-15.7,3.7-18.5,8.4,3.6,21.1,6.6,29.3,3.6,6,2.5,10.1,5,15.5,7.4s11.8,5.5,14.9,9.1C273.8,251.2,273.8,254.2,273.8,260Z"/><path class="e" d="M230.3,192.3c1.9-.1,8,4.6,11.8,11.3a9.383,9.383,0,0,1-1.5,10.9c-.1,3.3.2,5.5.2,7.5.5,2.7,1.5,7.2,2.3,10.8-.3,2.4,25,9.9,22.6,11.4-24.4,15.5-20.8,20.3-31.9,22.9-7,1.6-8.4.3-23-9.4-4.5-3,0-29.3,1.2-33l-4.4-10.4s11.5-13.6,2.5-19.3c1.1-.5,10.3-2,10.3-2Z"/><path class="aa" d="M223.6,170.5a13.108,13.108,0,0,0-4.4,8.6,1.555,1.555,0,0,0-.6-.8,3.2,3.2,0,0,0-4.6.1c-1.4,1.6-.6,4.3,1.4,5.8,2.4,1.8,3.6.4,3.6.4l.6,9.2s2.8,4.7,5.9,6.5,8.2.6,8.2-1.5-4.3-6.6-4.3-6.6l-.1-2.9c2.3.2,4.7.4,5.8-.2s3.4-2.6,3.1-10c-.4-8.8-2-12.4-5.1-13.6C229.8,165.6,227.7,167,223.6,170.5Z"/><path class="aa" d="M211.1,209.7l-4.2,18s3.5,5.9,5.8,9.9a41.425,41.425,0,0,0,4.6,6.9c.8.7,2.3,1,3.3,1.6a38.214,38.214,0,0,1,3.4,2.5c1.1.7,2.2.9,2,1.6s-1.4,1.1-2.6.8a18.285,18.285,0,0,1-2.5-.8c2.3,3.1,7.1,4.9,7.2,6.6s-3.1,3.4-5.9,3a12.219,12.219,0,0,1-6.8-3.8,46.385,46.385,0,0,1-4.6-6.1c-1.2-1.9-11.3-14.9-12.7-17.2-1.7-2.8-1.5-4-1-7.3.6-3.6,3.4-17,4.8-22.5,1.5-6.1,4-7.9,9.3-8.3C213.5,198.3,211.1,210,211.1,209.7Z"/><path class="l" d="M212,208.6l-4.4,18.7c-.7.2,12.6,16.3,10.4,16.8-8.9,2.1-6.2,7.1-7.4,6.8-3.6-.6-14.1-15.1-15.1-21.4-1.3-7.9,6.3-28.2,7-29.9a8.775,8.775,0,0,1,4-4.5,17.252,17.252,0,0,1,6-1.1C215.2,199.9,212,208.6,212,208.6Z"/><path class="d" d="M239.2,172.1a4,4,0,0,1-1.5,1.9c-3-.4-3.7-5.8-3.7-5.8.2,4.7-4.7,5.5-4.7,5.5,2.2-3.3,1.3-7.6,1.3-7.6.4,7.4-6.2,9.4-9.6,9.8l.2,3.1h0a2.077,2.077,0,0,1-1.9,2.1l-.1-1.9a1.555,1.555,0,0,0-.6-.8,3.2,3.2,0,0,0-4.6.1c-1.4,1.6-.6,4.3,1.4,5.8,2.4,1.8,3.6.4,3.6.4l.4,6.7c-.2-2.4-8.1-25.7-6.2-27.7,2.2-2.6,6.3-4,9.7-4.2a15.222,15.222,0,0,1,9.6,2.2C239.3,161.3,240.9,168.2,239.2,172.1Z"/><path class="l" d="M228.4,176.8a1.086,1.086,0,0,0-1.2-.9,1.061,1.061,0,0,0,.3,2.1h0a1.033,1.033,0,0,0,.9-1.2Z"/><path class="ac" d="M229.2,185.2h0a1.959,1.959,0,0,0,2.3-1.5l-3.8-.9A1.986,1.986,0,0,0,229.2,185.2Z"/><path class="ad" d="M228.1,184.6a1.445,1.445,0,0,0,1,.7,1.971,1.971,0,0,0,1.5-.3,1.508,1.508,0,0,0-1.4-.9A1.606,1.606,0,0,0,228.1,184.6Z"/><path class="l" d="M225.9,173.6h0a1.283,1.283,0,0,0-.4,1.8l2.4-1.3A1.434,1.434,0,0,0,225.9,173.6Z"/><path class="l" d="M236.1,171.7h0a1.3,1.3,0,0,0-1.7.8l2.5,1A1.4,1.4,0,0,0,236.1,171.7Z"/><path class="ad" d="M235.7,180.4l-2.8,1.2-1-5.7Z"/><path class="ad" d="M229.3,190.9s-4.9-1-6.5-2.2a5,5,0,0,1-1.9-2.4c.9,1.9,5.9,3,8.3,3.1Z"/><path class="l" d="M235.8,174.7h0a1.033,1.033,0,0,0-.9,1.2h0a1.061,1.061,0,1,0,.9-1.2Z"/><path class="ae" d="M365.9,71.3a3.044,3.044,0,0,1,.8-.8,1.083,1.083,0,0,1,1.1,0,1.284,1.284,0,0,1,.4,1,3.749,3.749,0,0,0-.1,1.1,4.942,4.942,0,0,0,.8,1.8,5.85,5.85,0,0,1,0,4.5c-1.1,2.6-3.8,4.4-6.2,5.7a82.526,82.526,0,0,0-8.8,5.7A139.205,139.205,0,0,1,340,99.5c-2.2,1.5-3.7,1.9-6.4.8-8.1-3.3-18.5-8.9-18.5-8.9L301.4,79c1.3-1.5,9.5,1.2,16.7,4,6.2,2.4,18.1,6.8,18.1,6.8l16.3-8.1a4.73,4.73,0,0,0,2-2.2c.6-2.1,2-3,3-4.8.8-1.4.8-2.3,1.2-2.3a1.856,1.856,0,0,1,1.4,2,13.654,13.654,0,0,1-.7,2.9c0-.2.7-.6.9-.8.5-.6,1.7-1.4,2.3-2l1.3-1.3A17.5,17.5,0,0,1,365.9,71.3Z"/><path class="d" d="M310.2,94.2s18.4,4.7,22.5,6,4.2,1.4,6.8-.2,11.9-8.2,11.9-8.2c-2.6-2.2-5-7.6-5-7.6L336,89.1s-16.1-6.2-21.1-8.3c-4.2-1.7-7.3-3.6-13.4-2.7Z"/><path class="ae" d="M274.6,214.6l8.4-.9-1.7,13.9a7.737,7.737,0,0,1-7.1-.2Z"/><path class="ae" d="M299.9,206l8.9.3.2,14.1c-3.8,2.4-7.1,3.4-8.8-.6Z"/><path class="l" d="M272.5,229.2a5.779,5.779,0,0,0-.1,3.2c.3.7,1.3,1.8,2,3.1s.5,2.8.6,4.4a5.061,5.061,0,0,0,2.5,3.9,12.639,12.639,0,0,0,6.9,1.4,6.761,6.761,0,0,0,4.9-1.9,3.36,3.36,0,0,0,.2-2.2Z"/><path class="e" d="M282.3,224.7a1.268,1.268,0,0,0-.1-.6.713.713,0,0,0-.6-.3,18.3,18.3,0,0,0-4.7.3.908.908,0,0,0-.7.3,1.445,1.445,0,0,0-.2.7c-.1.9-.1,1.7-.2,2.5a2.445,2.445,0,0,1-.9-1.1l-.3-.9c-.1-.2-.2-.5-.3-.7a1.7,1.7,0,0,1-.1-.7c-.3-.2-.7,1.2-1.1,2.3-.4,1.3-.9,2.8-.4,4.2a11.251,11.251,0,0,0,1.2,2.1,8.321,8.321,0,0,1,1.6,3.9c.1.6,0,1.2.1,1.8a5.485,5.485,0,0,0,3.9,4.5,13.08,13.08,0,0,0,5.9.5c1.9-.2,4.3-.9,4.2-3.1a5.69,5.69,0,0,0-1.6-3.5c-.9-1-1.9-1.9-2.7-2.9a16.293,16.293,0,0,1-1.1-1.7,15.759,15.759,0,0,1-1.6-3.5,5.662,5.662,0,0,1-.3-1.8C282.3,226.3,282.3,225.5,282.3,224.7Z"/><path class="a" d="M283.7,231.2a7.473,7.473,0,0,0-3.2-.3,6.471,6.471,0,0,0-3.2,1.1.1.1,0,0,1-.1.1.746.746,0,0,0,0,.9h0a.605.605,0,0,0,.8.1,7.542,7.542,0,0,1,2.9-.9,6.272,6.272,0,0,1,3.6.6C284.7,232.1,283.7,231.2,283.7,231.2Z"/><path class="a" d="M285.2,233.7s-.6-.5-3.1-.4a6.619,6.619,0,0,0-3.3,1.2l-.1.1a.746.746,0,0,0,0,.9h0a.605.605,0,0,0,.8.1,5.576,5.576,0,0,1,2.8-1,7.926,7.926,0,0,1,4,.5A2.586,2.586,0,0,0,285.2,233.7Z"/><path class="a" d="M276.4,229.7a.574.574,0,0,0-.2.7h0c.2.2.5.4.8.2.2-.1.5-.2.7-.3a13.1,13.1,0,0,1,2.7-.6,5.112,5.112,0,0,1,2.7.4c.3-.2,0-.8-.4-1.1a6.659,6.659,0,0,0-3.1-.4A7.646,7.646,0,0,0,276.4,229.7Z"/><path class="l" d="M297.7,223.9a5.3,5.3,0,0,0-.1,2.5c.4,1,3,2,5,2.2a9.219,9.219,0,0,1,5.1,1.5,17.119,17.119,0,0,0,8.2,3.1c4,.3,7-1.2,7.3-1.8a2.539,2.539,0,0,0,.2-1.9Z"/><path class="e" d="M306.4,217.2a3.39,3.39,0,0,0-1.4.9c-.4.7-.1,1.7-.7,2.3a1.217,1.217,0,0,1-1.6,0,3.316,3.316,0,0,1-1-1.4,4.418,4.418,0,0,0-.6-1.6c-.3-.5-.9-1-.9-1.6-.7-.2-1,2.9-1.6,4.8-.6,1.8-1.2,3.8-.8,4.5,1.2,1.5,4.9,2.2,6.8,2.4,3,.3,5.5,2.9,7.8,3.6a14.073,14.073,0,0,0,9.9-.4,2.7,2.7,0,0,0,.8-.7,2.786,2.786,0,0,0-.6-4c-1-.8-2.9-1.2-4.2-1.9s-2.6-1.3-3.9-2a21.838,21.838,0,0,1-3.1-2.2,4.263,4.263,0,0,1-1.1-1.2,11.627,11.627,0,0,1-.4-1.8.842.842,0,0,0-.4-.7,1.268,1.268,0,0,0-.6.1l-1.1.4Z"/><path class="a" d="M308.6,222.3a.605.605,0,0,1-.8.1h0l-.2-.2a.668.668,0,0,1,.1-1,5.046,5.046,0,0,1,3.4-1.2,2.068,2.068,0,0,1,1.4,1A5.594,5.594,0,0,0,308.6,222.3Z"/><path class="a" d="M310.6,224.1a.755.755,0,0,1-.8.1h0l-.2-.2a.668.668,0,0,1,.1-1,6.456,6.456,0,0,1,3.8-1.3,1.965,1.965,0,0,1,1.7.9A5.744,5.744,0,0,0,310.6,224.1Z"/><path class="a" d="M313.8,225.7a.605.605,0,0,1-.8.1h0c-.1-.1-.2-.1-.2-.2a.668.668,0,0,1,.1-1,5.876,5.876,0,0,1,3.6-1.3,2.289,2.289,0,0,1,1.7.8A4.827,4.827,0,0,0,313.8,225.7Z"/><path class="d" d="M311.5,122.5s-1,48.9-1.2,53.7c-.2,4.2-1.1,36.3-1.1,36.3a18.381,18.381,0,0,1-9.6-.1s-2.7-19.7-3.3-24.2a66.355,66.355,0,0,1-.3-12.6l-1.4-20.9s-3.1,16.1-4.7,24.7c-1.8,9.7-7.4,41-7.4,41a10.935,10.935,0,0,1-8.5-.7s-.8-22-.3-31.9c.4-6.8,1.1-11.4,1.3-13.3,0,0,1.5-33.7,2.5-49Z"/><path class="l" d="M295.5,167.7l.3-11.7,2.6-12.6c8-1.8,8.7-5.2,8.7-5.2-3.6,3.4-9.9,3.8-9.9,3.8l-2.6,12.5Z"/><path class="m" d="M289.2,79l10.6-.9c6.2-.1,10.4,3.3,11.3,12.6.5,5.4.6,38.7.6,38.7-10.6,7.7-29.9,6.1-34.7.8l.8-20.3-2.2-17.6a25.964,25.964,0,0,1,.8-7.3c.7-3,.9-4.5,3.9-5Z"/><path class="l" d="M291.6,56.4a9.475,9.475,0,0,1,9.4-9.5h0a9.45,9.45,0,1,1-9.4,9.5Z"/><path class="l" d="M288.8,73a3.171,3.171,0,0,1-1.9-1.5c-.6-1.2-2.2-8.4-2.2-8.4-1.5-4-2.3-8-1-9.3a3.379,3.379,0,0,1,2.9-1l2,5.4Z"/><path class="ae" d="M292,50.5c5.4-3.5,15.5-3.4,16.6,5.3.9,7.9.5,11.2-.6,15.2-.7,2.5-2.2,4.3-4.5,4.7a20.349,20.349,0,0,1-4.3-.2V79c1.8,2.2,3,6.8-2.6,6.1a10.059,10.059,0,0,1-7.7-5.8l-.1-11.4s-.4,2-3.6,1c-1.9-.5-4.1-3.8-2.9-6.3a1.8,1.8,0,0,1,.6-.9,2.51,2.51,0,0,1,3.5.2c.7.7,1.5,1.8,2.1,1.5C288.5,63.4,286.6,54,292,50.5Z"/><path class="l" d="M289,64.3a1.818,1.818,0,0,0,1-1.1,7.719,7.719,0,0,0,.2-1.5l.1-3a3.553,3.553,0,0,1,.2-1c.2-.4.7-.4,1.1-.5l1.2-.6a9.015,9.015,0,0,0,1-.9,6.728,6.728,0,0,0,.7-1.1,15.545,15.545,0,0,0,3.1.7,15.109,15.109,0,0,0,7.3-1,10.615,10.615,0,0,0,5.4-4.6,3.62,3.62,0,0,0,.2-3.2.1.1,0,0,0-.1-.1h-.2c-.3.1-1.8.8-2,.4a3.552,3.552,0,0,1,.4-.9,3.553,3.553,0,0,0,.2-1,2.92,2.92,0,0,0-.2-.9,1.057,1.057,0,0,0-.7-.6,2.016,2.016,0,0,0-1.1.3,18.952,18.952,0,0,1-5.7,1.8c-1.9.3-4.2.5-6.1.8-3.9.6-6.1.8-7.5,2.3a4.084,4.084,0,0,0-.9,4.2s-1.3,8.2-.3,9.1c.6.6,1.3,2,2.2,2.3A1.338,1.338,0,0,0,289,64.3Z"/><path class="af" d="M299.2,76.8s-6.8-1.2-8.1-2.9a8.7,8.7,0,0,1-1.4-2.9,6.025,6.025,0,0,0,2.5,2.5c1.8,1,7,2,7,2Z"/><path class="l" d="M297.4,60.8a.987.987,0,0,0-1,.9.945.945,0,0,0,.9,1.1.9.9,0,0,0,1.1-.9A1.028,1.028,0,0,0,297.4,60.8Z"/><path class="l" d="M297.2,58.7a1.362,1.362,0,0,0-1.9-.5h0a1.528,1.528,0,0,0-.4,2l2.3-1.5Z"/><path class="af" d="M296.7,68.2a2.1,2.1,0,0,0,.9,2.7h.1a2.03,2.03,0,0,0,2.6-1.1l-3.6-1.6Z"/><path class="l" d="M307.5,58h-.1a1.282,1.282,0,0,0-1.7.5l2.2,1.3A1.529,1.529,0,0,0,307.5,58Z"/><path class="l" d="M307.1,61.5a1.175,1.175,0,0,0-1-1.1H306a1.088,1.088,0,0,0-.9,1.1,1.075,1.075,0,0,0,1,1,1,1,0,0,0,1-1Z"/><path class="af" d="M305.6,66.2l-3.4,1.4-.9-6.6Z"/><path class="l" d="M313.2,126.7l-.1,3.4a8.961,8.961,0,0,1-1.9,1.5,10.887,10.887,0,0,1-2.5,1h-.2a.684.684,0,0,1-.7-.7v-2.3Z"/><path class="e" d="M312.6,98.3c-.3-6.9-.8-13-3.4-16.3s-3.9-3.9-10-3.8v.4a2.335,2.335,0,0,1,1.6,1A36.158,36.158,0,0,1,305.5,90c1.8,6.8,2.1,21.9,2.2,30s0,9.6,0,9.6,4.1-.9,5.4-3C314.9,121.5,312.9,105,312.6,98.3Zm-18.8,10.5c-.3-10.5-.4-17.2-1.4-22.1-.9-3.7-2.7-6.1-3.5-8L279.3,80a7.206,7.206,0,0,0-4.3,7.3l2,22.8c-.4,6.7-.9,17.2-1.3,23.1,3.4,4.6,17.2,5.1,17.2,5.1.2-1.6,1.4-10.8.9-29.5Z"/><path class="d" d="M299.2,78.9s1.1,0,3.4,4.5c2.2,4.2,4.5,18,4.5,18a22.13,22.13,0,0,0,1.5-5c.3-2.2-1.5-6.8-1.5-6.8a2.523,2.523,0,0,0,.5-2.5,28.228,28.228,0,0,0-3.6-6.6,7.807,7.807,0,0,0-4.8-2.9Z"/><path class="d" d="M288.8,78.8a26.987,26.987,0,0,1,4,9c2.1,8,.8,16.6.8,16.8a37.393,37.393,0,0,1-2.9-7.2,34.991,34.991,0,0,1,.3-6.5,5.052,5.052,0,0,1-2.7-2.3c-1.1-1.9-4.3-9.2-4.3-9.2a48.983,48.983,0,0,1,4.9-1.7Z"/><path class="f" d="M332.3,136l-24.5,2.3,4.9-29.7,25.9-1.8Z"/><path class="h" d="M332.3,136l-24.5,2.3,4.9-29.7,25.9-1.8Z"/><path class="s" d="M309.6,127.3l-.7,4.1a10.545,10.545,0,0,0,5-.3c1.6-.4,2.3-1.8,3.2-2.6,1.2-1,1.6-1.8,1.4-2.4Z"/><path class="s" d="M320.2,110.5l.1-.9c0-.5,1.7-1,3.7-1.1l3.8-.2c2-.1,3.6.2,3.5.7a5.1,5.1,0,0,0-.1.9Z"/><path class="l" d="M332.6,107.3l-13.3.9.1-.6c.1-.3.9-.6,1.8-.7l1.6-.2s.5-2.2,3.9-2.3,3.1,1.9,3.1,1.9l1.5-.1c.8-.1,1.5.1,1.4.4A5.638,5.638,0,0,1,332.6,107.3Z"/><path class="l" d="M331.4,106.9l-9.3.6.1.4c.9-.1,1.1.2,1.1.7a13.243,13.243,0,0,1-.2,1.6l5.9-.4a14.745,14.745,0,0,1,.1-1.6c.1-.8.6-.8,1.8-.9Z"/><path class="d" d="M320.4,110.6l.1-.9c0-.5,1.7-1,3.7-1.1l3.8-.2c2-.1,3.5.2,3.5.7a4.126,4.126,0,0,1-.1.9Z"/><path class="ae" d="M310.6,121.6c-.1,0-.2.1,0,.2h.2a18.751,18.751,0,0,0,4.1-.1c1.1-.1,2.3-.4,3.5-.6h.7a1.145,1.145,0,0,1,.6,1.3,3.506,3.506,0,0,1-.6,1.4c-.4.8-.5,1.8-.9,2.6-1.5,2.9-4.5,4.3-11.9,3.1a57.956,57.956,0,0,1-8.4-2.4c-14.6-4.2-19.6-5.4-24-7.1-4.2-1.6-4.3-3.6-4.8-5.5-.8-2.8.8-12.8,2.8-21.4,1.7-7.5,3-10.9,6.8-12.6,5,1.2,4.3,12.6,4.3,12.6l-3.1,17.8s18,7.4,20.3,8.4a14.159,14.159,0,0,0,2,.4,7.017,7.017,0,0,0,2.5-.1,59.279,59.279,0,0,1,6.3-1"/><path class="d" d="M284,94.5l-3.6,15.8,13.9,6.2c-2.2,1.5-3.7,5.9-3.6,8.5,0,0-11-2.7-14.7-3.8-2.5-.7-6.4-1.9-7.2-3.9s-.3-9,.9-15.2c1.3-6.8,1.9-9.8,3-15.2.8-3.5,3-6.4,6.5-6.8C285.6,83,284,94.5,284,94.5Z"/><path class="d" d="M399.3,292.9l1.9-1.1v76.6l-1.9,1.1Z"/><path class="e" d="M399.3,292.9l-1.9-1.1v76.6l1.9,1.1Z"/><path class="d" d="M349.2,266l1.9-1v55.8l-1.9,1.1Z"/><path class="e" d="M349.2,266l-1.9-1.1v55.9l1.9,1.1Z"/><path class="e" d="M347.3,262.8l52,30.1V295l-52-30Z"/><path class="d" d="M298.8,236.9l1.9-1-.7,74.9-1.9,1.1Z"/><path class="e" d="M298.8,236.9l-1.9-1-.7,74.9,1.9,1.1Z"/><path class="e" d="M296.9,233.7l52.3,30.2v2.2l-52.3-30.2Z"/><path class="e" d="M298.7,255.3l50.4,29.2v2.1l-50.4-29.2Z"/><path class="d" d="M349.2,284.5l48.2,27.9v-2.2l-48.2-27.8"/><path class="d" d="M347.3,281.3l-48.5-28.1v2.2l48.5,28"/><path class="e" d="M349.1,284.5l50.2,29v2.1l-50.2-29Z"/><path class="d" d="M348.9,321.9,234.8,387.8v6.3l114.1-65.7Z"/><path class="d" d="M399.3,292.9,347,323v6.4l52.3-30.2Z"/><path class="d" d="M234.8,387.8l1.9-1.1v76.6l-1.9,1.1Z"/><path class="e" d="M234.8,387.8l-1.9-1.1v76.6l1.9,1.1Z"/><path class="d" d="M184.7,361l1.9-1.1v74.7l-1.9,1.1Z"/><path class="e" d="M184.7,361l-1.9-1.1v74.7l1.9,1.1Z"/><path class="e" d="M182.8,357.7l52,30.1v6.3l-52-30.1Z"/><path class="d" d="M134.3,331.8l1.9-1v74.7l-1.9,1Z"/><path class="e" d="M134.3,331.8l-1.9-1v74.7l1.9,1Z"/><path class="e" d="M132.4,328.6l52.3,30.2v6.1l-52.3-30Z"/><path class="e" d="M134.2,350.3l50.4,29.1v2.1l-50.4-29.1Z"/><path class="d" d="M184.7,379.5l48.2,27.8v-2.2l-48.2-27.7"/><path class="d" d="M182.8,376.2l-48.5-28v2.1l48.5,28.1"/><path class="e" d="M184.6,379.4l50.2,29v2.1l-50.2-29Z"/><path class="f" d="M401.2,291.8,298.8,232.6l-166.4,96,102.4,59.2Z"/><path class="q" d="M401.2,291.8,298.8,232.6l-166.4,96,102.4,59.2Z"/><path class="l" d="M236.7,463.3v-1l-1.9,1.1v1Z"/><path class="l" d="M232.9,463.3v-1l1.9,1.1v1Z"/><path class="l" d="M186.6,434.6v-1l-1.9,1.1v1Z"/><path class="l" d="M182.8,434.6v-1l1.9,1.1v1Z"/><path class="l" d="M136.2,405.4v-1l-1.9,1.1v1Z"/><path class="l" d="M132.4,405.4v-1l1.9,1.1v1Z"/><path class="l" d="M401.2,368.4v-1l-1.9,1.1v1Z"/><path class="l" d="M397.4,368.4v-1l1.9,1.1v1Z"/><path class="l" d="M233.8,295v.3l-10.9,6.3a.85.85,0,0,1-.8,0l-14.7-8.5a.52.52,0,0,1-.2-.4v-.3l.2-.4,11.2-5.8Z"/><path class="f" d="M222.9,301.2l10.9-6.3-15.7-9.1-10.7,6.1a.5.5,0,0,0,0,.8l14.7,8.5a.6.6,0,0,0,.4.1C222.7,301.3,222.8,301.3,222.9,301.2Z"/><path class="c" d="M233.3,293.7v1.1l-10.5,6.1a.446.446,0,0,1-.5,0l-14.7-8.5c-.1,0-.1,0-.1-.1h0v-1.1l.1-.1,10.5-6.1Z"/><path class="k" d="M233.2,293.7h0L218.1,285l-10.4,6-.1.1-.1.1c0,.1,0,.2.1.2l14.7,8.5a.446.446,0,0,0,.5,0l8.4-4.8.3-.2,1.7-1,.1-.1Z"/><path class="i" d="M222.2,299.9l-14.7-8.5c-.1,0-.1,0-.1-.1v1.1a.1.1,0,0,0,.1.1l14.7,8.5a.367.367,0,0,0,.3.1V300A.367.367,0,0,1,222.2,299.9Z"/><path class="u" d="M218.3,284.8l-9.3,5.4h0a4.179,4.179,0,0,1-1,.4c-.1.1-.2.2-.2.3v.1h0a3.46,3.46,0,0,0,1.1,1l.3.2,13.1,7.6a.446.446,0,0,0,.5,0l8.3-4.8.3-.2,1.9-1.1Z"/><path class="h" d="M231.8,293.5a.187.187,0,0,1,0,.3.454.454,0,0,1-.5,0,.1.1,0,0,1-.1-.1c0-.1,0-.2.1-.2A.446.446,0,0,1,231.8,293.5Z"/><path class="l" d="M232.8,292.9c-.2-.2-.4-.1-.6,0a1.991,1.991,0,0,0-.8,1.2h.2a1.64,1.64,0,0,1,.7-1.1.367.367,0,0,1,.3-.1h.2a.713.713,0,0,1,.3.6v.1l.2.1v-.3C233.3,293.1,233.1,292.8,232.8,292.9Z"/><path class="h" d="M230.4,292.7a.1.1,0,0,1,.1.1c0,.1,0,.2-.1.2a.454.454,0,0,1-.5,0,.1.1,0,0,1-.1-.1c0-.1,0-.2.1-.2A.446.446,0,0,1,230.4,292.7Z"/><path class="l" d="M231.4,292a.6.6,0,0,0-.7,0,1.991,1.991,0,0,0-.8,1.2h.2a1.64,1.64,0,0,1,.7-1.1.367.367,0,0,1,.3-.1h.3a1.072,1.072,0,0,1,.2.6v.1l.2.1v-.3C231.8,292.2,231.7,292,231.4,292Z"/><path class="h" d="M228.9,291.8a.187.187,0,0,1,0,.3.454.454,0,0,1-.5,0,.187.187,0,0,1,0-.3A.454.454,0,0,1,228.9,291.8Z"/><path class="l" d="M230,291.1a.854.854,0,0,0-.7,0,1.991,1.991,0,0,0-.8,1.2h.2a1.64,1.64,0,0,1,.7-1.1.367.367,0,0,1,.3-.1c.1,0,.1.1.2.1a1.072,1.072,0,0,1,.2.6v.1l.2.1v-.3C230.3,291.4,230.2,291.1,230,291.1Z"/><path class="h" d="M227.4,291a.187.187,0,0,1,0,.3.454.454,0,0,1-.5,0,.187.187,0,0,1,0-.3A.446.446,0,0,1,227.4,291Z"/><path class="l" d="M228.3,290.3c-.2-.2-.4-.1-.6,0a1.991,1.991,0,0,0-.8,1.2h.2a1.64,1.64,0,0,1,.7-1.1.367.367,0,0,1,.3-.1h.2a.713.713,0,0,1,.3.6v.1l.2.1v-.3C228.9,290.5,228.7,290.3,228.3,290.3Z"/><path class="h" d="M226,290.1a.187.187,0,0,1,0,.3.454.454,0,0,1-.5,0,.187.187,0,0,1,0-.3A.446.446,0,0,1,226,290.1Z"/><path class="l" d="M227,289.5a.6.6,0,0,0-.7,0,1.991,1.991,0,0,0-.8,1.2h.2a1.64,1.64,0,0,1,.7-1.1.367.367,0,0,1,.3-.1h.3a1.072,1.072,0,0,1,.2.6v.1l.2.1V290C227.4,289.7,227.3,289.4,227,289.5Z"/><path class="h" d="M224.5,289.3a.187.187,0,0,1,0,.3.454.454,0,0,1-.5,0,.187.187,0,0,1,0-.3A.446.446,0,0,1,224.5,289.3Z"/><path class="l" d="M225.5,288.6a.6.6,0,0,0-.7,0,1.991,1.991,0,0,0-.8,1.2h.2a1.64,1.64,0,0,1,.7-1.1.367.367,0,0,1,.3-.1h.3a1.072,1.072,0,0,1,.2.6v.1l.2.1v-.3C225.9,288.9,225.8,288.6,225.5,288.6Z"/><path class="h" d="M223,288.4a.187.187,0,0,1,0,.3.446.446,0,0,1-.5,0,.187.187,0,0,1,0-.3A.446.446,0,0,1,223,288.4Z"/><path class="l" d="M224.1,287.8a.6.6,0,0,0-.7,0,1.991,1.991,0,0,0-.8,1.2h.2a1.64,1.64,0,0,1,.7-1.1.367.367,0,0,1,.3-.1h.3c0,.1.1.4.1.6v.1l.2.1v-.3C224.4,288,224.3,287.7,224.1,287.8Z"/><path class="h" d="M221.5,287.6a.187.187,0,0,1,0,.3.454.454,0,0,1-.5,0,.187.187,0,0,1,0-.3A.446.446,0,0,1,221.5,287.6Z"/><path class="l" d="M222.4,286.9a.637.637,0,0,0-.6,0,1.991,1.991,0,0,0-.8,1.2h.2a1.64,1.64,0,0,1,.7-1.1.367.367,0,0,1,.3-.1h.2a.713.713,0,0,1,.3.6v.1l.2.1v-.3C223,287.1,222.8,286.9,222.4,286.9Z"/><path class="h" d="M220.1,286.7a.1.1,0,0,1,.1.1c0,.1,0,.2-.1.2a.454.454,0,0,1-.5,0,.1.1,0,0,1-.1-.1c0-.1,0-.2.1-.2Z"/><path class="l" d="M221.1,286.1a.854.854,0,0,0-.7,0,1.991,1.991,0,0,0-.8,1.2h.2a1.64,1.64,0,0,1,.7-1.1.367.367,0,0,1,.3-.1h.3a1.072,1.072,0,0,1,.2.6v.1l.2.1v-.3C221.5,286.3,221.4,286,221.1,286.1Z"/><path class="h" d="M218.6,285.9a.1.1,0,0,1,.1.1c0,.1,0,.2-.1.2a.454.454,0,0,1-.5,0,.1.1,0,0,1-.1-.1c0-.1,0-.2.1-.2A.454.454,0,0,1,218.6,285.9Z"/><path class="l" d="M219.7,285.2a.854.854,0,0,0-.7,0,1.991,1.991,0,0,0-.8,1.2h.2a1.64,1.64,0,0,1,.7-1.1.367.367,0,0,1,.3-.1h.3c0,.1.1.4.1.6v.1l.2.1v-.3C220,285.5,219.9,285.2,219.7,285.2Z"/><path class="c" d="M220.8,298.3h0c-.1-.1,0-.3.1-.4l8.1-4.7c.1-.1.3,0,.4.1s0,.3-.1.4l-8.1,4.7H221A.349.349,0,0,1,220.8,298.3Z"/><path class="c" d="M219.9,297.6c-.1-.1,0-.3.1-.4l8.1-4.7h.1c.2,0,.3,0,.4.2,0,.2,0,.3-.2.4l-8.1,4.7h-.2C220,297.8,219.9,297.8,219.9,297.6Z"/><path class="c" d="M219.1,297.2a.367.367,0,0,1-.3-.1c-.1-.1,0-.3.1-.4L227,292c.1-.1.3,0,.4.1h0c.1.1,0,.3-.1.4l-8.1,4.7Z"/><path class="c" d="M218.1,296.7a.367.367,0,0,1-.3-.1c-.1-.1,0-.3.1-.4l8.1-4.7c.1-.1.3,0,.4.1h0c.1.1,0,.3-.1.4l-8.1,4.7Z"/><path class="c" d="M217.1,296.1a.367.367,0,0,1-.3-.1c-.1-.1,0-.3.1-.4l8.1-4.7h0c.1-.1.3,0,.4.1s0,.3-.1.4l-8.1,4.7Z"/><path class="c" d="M216.1,295.5c-.1,0-.2,0-.2-.1-.1-.1,0-.3.1-.4l8.1-4.7c.1-.1.3,0,.4.1s0,.3-.1.4l-8.1,4.7Z"/><path class="c" d="M215.2,295c-.2,0-.3,0-.2-.1-.1-.1,0-.3.1-.4l8.1-4.7c.2-.1.3,0,.4.1s0,.3-.1.4l-8.1,4.7Z"/><path class="c" d="M213.9,294.3c-.1-.1,0-.3.1-.4l8.1-4.7c.2,0,.3,0,.4.1s0,.3-.1.4l-8.1,4.7h-.1A.367.367,0,0,1,213.9,294.3Z"/><path class="c" d="M212.9,293.7c-.1-.1,0-.3.1-.4l8.1-4.7c.1-.1.3,0,.4.1h0c.1.1,0,.3-.1.4l-8.1,4.7h-.1A.368.368,0,0,1,212.9,293.7Z"/><path class="c" d="M211.9,293.2c-.1-.1,0-.3.1-.4l8.1-4.7c.1-.1.3,0,.4.1s0,.3-.1.4l-8.1,4.7h-.1C212.1,293.3,212,293.2,211.9,293.2Z"/><path class="c" d="M211,292.6h0c-.1-.1,0-.3.1-.4l8.1-4.7h0c.1-.1.3,0,.4.1s0,.3-.1.4l-8.1,4.7h-.2C211.1,292.7,211,292.7,211,292.6Z"/><path class="c" d="M210,292h0c-.1-.1,0-.3.1-.4l8.1-4.7h0c.1-.1.3,0,.4.1s0,.3-.1.4l-8.1,4.7h-.2C210.1,292.1,210,292.1,210,292Z"/><path class="c" d="M209.3,291.6a.438.438,0,0,1-.3-.1c-.1-.1,0-.3.1-.4l8.1-4.7c.1-.1.3,0,.4.1h0c.1.1,0,.3-.1.4l-8.1,4.7Z"/><path class="f" d="M222,298.9c-.1.1-.2,0-.3-.1s0-.3.1-.4l8.6-5c.1-.1.3,0,.4.1h0c.1.1,0,.3-.1.4l-8.6,5Z"/><g class="ag"><path class="e" d="M224.1,293.1a.367.367,0,0,1-.1-.3h.7c0-.1.3-.1.3-.1h0c-.1-.2.5-.2.5-.1h0c0-.1-.2-.2,0-.2h.2c.1.1.2.3.4.4m0-.1c.1.1.3,0,.4-.1-.1-.1-.2-.2-.3-.2l-.2-.1c0-.1-.1-.3,0-.3a1.007,1.007,0,0,1,.3.1s.2,0,0-.1-.4-.2-.5,0v.2h-.2a.1.1,0,0,0-.1.1v.1h0a.1.1,0,0,0,.1.1h-.1c-.1-.1-.5,0-.5,0v.1l-.2.1v.1h-.3c-.1,0-.5-.1-.5.2v.2h0s0-.1-.1,0,0,.1-.1.2-.4,0-.5,0,0,.3-.2.3c-.1,0,0,.1,0,.1.2,0,.1,0,.2-.2s.5,0,.7-.1c0,0,.1,0,0-.1s0-.2.1-.2Zm.1-.1c.1.1-.1,0-.1,0a.215.215,0,0,1-.2-.2l.1.1A.31.31,0,0,0,226.2,292.6Z"/><path class="e" d="M220.4,295c0,.1.1.1-.1.2h-.2c-.1,0-.1.1,0,.1s.3.1.4,0,0-.3,0-.2.2,0,.2,0h.2s.1.1.1,0v-.2h.1c.1,0,.1.1.2,0s0-.1,0-.2.3-.1.3-.1h0c0-.2.3-.1.4-.1h0v-.1c0-.1.1-.1.2-.1,0,.2.2.5.4.4h0m-1.8,0a.1.1,0,0,1-.1.1h-.1c-.1,0-.2.1-.3.1m2.4-.1a.664.664,0,0,0-.4-.5c0-.2,0-.3.1-.3s.2-.1,0-.1-.2.1-.2.3l-.2-.1a.349.349,0,0,0-.2.1v.1c0,.1.1.1,0,.1h-.1c-.1,0-.1,0-.2.1s.1.1-.1.1h-.2a.1.1,0,0,0-.1.1l.1.1c0,.2-.2,0-.3,0Zm-.4-.3h0a.1.1,0,0,1,.1.1Z"/><path class="e" d="M223,295.9c-.1,0-.1-.1-.1-.2h.7c0-.1.3-.1.3-.1h0c-.1-.2.5-.1.5-.1h0c0-.1-.2-.2,0-.2h.2a.781.781,0,0,0,.4.4m-.1-.1c.2.1.3,0,.4-.1-.1-.1-.2-.2-.3-.2l-.2-.1c0-.1-.1-.3,0-.3s.2.1.3.1c0,0,.2,0,0-.1s-.4-.3-.5,0v.2h-.2a.1.1,0,0,0-.1.1v.1a.1.1,0,0,0,.1.1h-.1a2.268,2.268,0,0,0-.4.1v.1l-.2.1v.1h-.3c-.1,0-.5-.1-.5.2v.2h0s0-.1-.1,0,0,.1-.1.2-.4,0-.5,0,0,.3-.2.3c-.1,0,0,.1,0,.1.2,0,.1,0,.2-.2s.5,0,.7-.1c0-.1.1,0,0-.1s0-.2.1-.2Zm.2-.1c.1.1-.1,0-.1,0-.1,0-.1-.1-.2-.2l.1.1A.31.31,0,0,0,225.1,295.5Z"/><path class="e" d="M227.8,293.6c0-.2,0-.3.1-.3s.2-.1,0-.1-.2.2-.2.3l-.2-.1a.349.349,0,0,0-.2.1v.1c0,.1.1.1,0,.1h-.1c-.1,0-.2,0-.2.1-.1.1.1.1-.1.1h-.2a.1.1,0,0,0-.1.1l.1.1c0,.2-.3,0-.3,0h0c0,.1,0,.1-.1.1l-.1-.1a1.007,1.007,0,0,0-.3.1h0c0,.1.1.1-.1.2h-.2c-.1,0-.1.1,0,.1s.3.1.4,0,0-.3,0-.2.2,0,.2,0h.3v-.2h.1c.1,0,.1.1.2,0s0-.1,0-.2.2,0,.3-.1h0c0-.2.3-.1.4-.1h0v-.1c0-.1.1-.1.2-.1,0,.2.2.5.4.4h0A.319.319,0,0,0,227.8,293.6Zm0,0h0a.1.1,0,0,1,.1.1C227.9,293.9,227.7,293.7,227.8,293.6Z"/><path class="e" d="M220.4,289.2c-.1-.1-.2-.2-.3-.2l-.2-.1c0-.1-.1-.3,0-.3a1.007,1.007,0,0,1,.3.1s.2,0,0-.1-.4-.2-.5,0v.2h-.2a.1.1,0,0,0-.1.1v.1a.1.1,0,0,0,.1.1h-.1c-.1-.1-.4,0-.4,0v.1l-.2.1v.1h-.3c-.1,0-.5-.1-.5.2v.2h0s0-.1-.1,0,0,.1-.1.2-.4,0-.5,0,0,.3-.2.3c-.1,0,0,.1,0,.1.2,0,.1,0,.2-.2s.5,0,.7-.1c0,0,.1,0,0-.1s.1-.2.1-.2h0a.367.367,0,0,1-.1-.3h.7c0-.1.3-.1.3-.1h0c-.1-.2.5-.2.5-.1h0c0-.1-.2-.2,0-.2h.2c.1.1.2.3.4.4S220.5,289.5,220.4,289.2Zm-.1.1c.1.1-.1,0-.1,0-.1,0-.1-.1-.2-.2l.1.1A.349.349,0,0,0,220.3,289.3Z"/><path class="e" d="M216.3,291c0-.2,0-.3.1-.3s.2-.1,0-.1-.2.1-.2.3c-.1-.1-.1-.1-.2-.1a.349.349,0,0,0-.2.1v.1c0,.1.1.1,0,.1h-.1c-.1,0-.1,0-.2.1s.1.1-.1.1h-.2a.1.1,0,0,0-.1.1l.1.1c0,.2-.3,0-.3,0h0c0,.1,0,.1-.1.1h-.1a1.007,1.007,0,0,0-.3.1h0c0,.1.1.1-.1.2h-.2c-.1,0-.1.1,0,.1s.3.1.4,0,0-.3,0-.2.2,0,.2,0h.2s.1.1.1,0v-.2h.1c.1,0,.1.1.2,0s0-.1,0-.2.3-.1.3-.1h0c0-.2.3-.1.4-.1h0v-.1a.367.367,0,0,1,.3-.1c0,.2.2.5.4.4h0C216.6,291.2,216.4,291,216.3,291Zm.2.3c0,.1-.2-.1-.1-.1h0a.1.1,0,0,1,.1.1Z"/><path class="e" d="M218.4,292.2c0-.1-.2-.2,0-.2h.2a.781.781,0,0,0,.4.4m-1.1-.1c-.1-.2.3-.1.5-.1m-1.4.5c-.1,0-.1-.1-.1-.2h.7c0-.1.3-.1.3-.1m-1,.6c-.1-.1,0-.2.1-.2m1.9-.5c.2,0,.3,0,.4-.2-.1-.1-.2-.2-.3-.2l-.2-.1c0-.1-.1-.3,0-.3a.367.367,0,0,1,.3.1s.2,0,0-.1-.4-.3-.5,0v.2h-.2a.1.1,0,0,0-.1.1v.1a.1.1,0,0,0,.1.1h-.1a2.268,2.268,0,0,0-.4.1v.1l-.2.1v.1h-.3c-.1,0-.5-.1-.5.2v.2h0s-.1-.1-.1,0,.2.1,0,.2-.5-.1-.6,0,0,.3-.2.3c-.1,0,0,.1,0,.1.2,0,.1,0,.2-.2s.5,0,.7-.1Zm.2-.1c.1.1-.1,0-.1,0-.1,0-.1-.1-.2-.2l.1.1A.31.31,0,0,0,219.1,292.2Z"/><path class="e" d="M221.7,290.3c0-.2,0-.3.1-.3s.2-.1,0-.1-.2.2-.2.3l-.2-.1a.349.349,0,0,0-.2.1v.1c0,.1.1.1,0,.1h-.1c-.1,0-.2,0-.2.1-.1.1.1.1-.1.1h-.2a.1.1,0,0,0-.1.1l.1.1c0,.2-.3,0-.3,0h0c0,.1,0,.1-.1.1l-.1-.1c-.1,0-.3.2-.3.1h0c0,.1.1.1-.1.2h-.1c-.1,0-.1.1,0,.1s.3.1.4,0,0-.3,0-.2.2,0,.2,0h.3v-.2h.1c.1,0,.1.1.2,0s0-.1,0-.2.2,0,.3-.1h0c0-.2.3-.1.4-.1h0v-.1c0-.1.1-.1.2-.1,0,.2.2.5.4.4h0C222.1,290.4,221.9,290.3,221.7,290.3Zm.1,0h0a.1.1,0,0,1,.1.1C221.9,290.5,221.8,290.3,221.8,290.3Z"/><path class="e" d="M218.6,294.3c-.1-.2.5-.1.5-.1h0c0-.1-.2-.2,0-.2h.2c.1.1.2.3.4.4m-2.1.3a.139.139,0,0,1,0-.2h.7c0-.1.3-.1.3-.1m-1.1.6c-.1-.1,0-.2.1-.2m2-.4c.2,0,.4-.1.4-.2s-.2-.1-.3-.2l-.2-.2c0-.1-.1-.3,0-.3s.2.1.3.1c0,0,.2,0,0-.1s-.4-.3-.5,0v.2h-.2l-.1.1v.1a.1.1,0,0,0,.1.1H219a4.331,4.331,0,0,0-.5.1v.1l-.2.1v.1H218c-.1,0-.5-.1-.5.2v.2h0s0-.1-.1,0,0,.1-.1.2-.3-.1-.5,0,0,.3-.2.3c-.1,0,0,.1,0,.1.2,0,.1,0,.2-.2s.5,0,.7-.1Zm0-.3c0,.1.1.1.2.1.1.1-.1,0-.1,0a.215.215,0,0,1-.2-.2l.1.1Z"/><path class="e" d="M221.8,292.4c0-.2,0-.3.1-.3s.2-.1,0-.1-.2.1-.2.3c-.1-.1-.1-.1-.2-.1a.349.349,0,0,0-.2.1v.1c0,.1.1.1,0,.1h-.1c-.1,0-.2,0-.2.1-.1.1.1.1-.1.1h-.2a.1.1,0,0,0-.1.1s.1-.1.1.1-.3,0-.3,0h0a.1.1,0,0,1-.1.1h-.1a1.007,1.007,0,0,0-.3.1h0c0,.1.1.1-.1.2h-.2c-.1,0-.1.1,0,.1s.3.1.4,0,0-.3,0-.2.2,0,.2,0h.2s.1.1.1,0V293h.1c.1,0,.1.1.2,0s0-.1,0-.2.3-.1.3-.1h0c0-.2.3-.1.4-.1h0v-.1a.367.367,0,0,1,.3-.1c0,.2.2.5.4.4h0C222.2,292.6,221.8,292.6,221.8,292.4Zm.2.2c0,.1-.1-.1-.1-.1h0a.1.1,0,0,1,.1.1Z"/><path class="e" d="M223.7,291.1c0-.1.4,0,.4,0h0v-.2m-1.6.7c0,.1.1.1-.1.2h-.2c-.1,0-.1.1,0,.1s.3.1.4,0,0-.3,0-.2.2,0,.2,0h.2s.1.1.1,0v-.2c0-.1,0,0,.1,0s.1.1.2,0,0-.1,0-.2.2-.1.3-.1m.4-.3v-.1h0c0-.1-.2,0-.2,0v.1c0,.1.1.1,0,.1h-.1c-.1,0-.1,0-.2.1h-.3a.1.1,0,0,0-.1.1l.1.1c0,.2-.3,0-.3,0h0c0,.1,0,.1-.1.1h-.1c-.1,0-.2.1-.3.1Z"/></g><path class="h" d="M237.1,295.7l2.6-.9h.1v.2l-1.4,1.4-10.9,6.4a1.617,1.617,0,0,1-1.4-.8Z"/><path class="aa" d="M238,296l1.6-1.8h0a.1.1,0,0,0-.1-.1l-2.3.5Z"/><path class="l" d="M239.4,294.7h0a.52.52,0,0,0-.2-.4h0l.5-.1h0v.1Z"/><path class="f" d="M228.6,299.7l.4-.3,8.3-4.7a1.245,1.245,0,0,1,.8,1.5l-8.3,4.7-.2.1-.2.1C229.7,300.9,228.8,299.5,228.6,299.7Z"/><path class="c" d="M230.1,300.6h0c.1,0,.1,0-.1-.5s-.5-.9-.7-.8l.1-.1.3-.2c.1-.1.5.4.7.7s.2.6.1.7l-.4.2Z"/><path class="f" d="M229.8,300.9c.3-.1-.5-1.6-.8-1.4l.4-.3c.3-.2,1.1,1.3.8,1.4Z"/><path class="c" d="M228.6,299.6l.4-.2h0c.3,0,1.1,1.4.8,1.5l-.4.2C229.7,300.9,228.8,299.5,228.6,299.6Z"/><path class="s" d="M239.7,294.2c.1.1.1.1.1.2l-1.6,1.8h0l-8.3,4.7-.2.1-.2.1c.1-.1,0-.6-.3-1h0l8.7-5,1.8-.9Z"/><path class="ad" d="M227.2,301.9c-.4-.3-.8-1.1-.4-1.3l1.8-1h0c.1,0,.5.5.7.8s.2.6.1.7l-1.8,1C227.4,302.1,227.2,302.1,227.2,301.9Z"/><path class="h" d="M227.6,302a.44.44,0,0,1-.5-.1c-.4-.3-.7-1-.4-1.3h.3a1.6,1.6,0,0,1,.7.9C227.8,301.8,227.7,302,227.6,302Z"/><path class="h" d="M258.9,288.7l-20.2-11.6-.1-.1c-.1-.2,0-.3.1-.4l34.7-20a1.079,1.079,0,0,1,1.1,0l20,11.5Z"/><path class="d" d="M258.9,285.4l-19.3-11.2c-.1,0-.1-.1-.1-.2h0v.6a1.7,1.7,0,0,0,.9,1.6L258,286.3a1.5,1.5,0,0,0,1.8,0l32.3-18.6a1.893,1.893,0,0,0,.9-1.6v-.5Z"/><path class="e" d="M258.9,285.4l-19.3-11.2-.1-.1c-.1-.1,0-.2.1-.3l33.2-19.2a1.083,1.083,0,0,1,1.1,0l19.1,11Z"/><path class="d" d="M289,266.3l-10.4-5.9-30.2,17.4,10.3,5.9Z"/><path class="f" d="M278.6,260.4l-30.2,17.4.4.2,29.8-17.2,10,5.7.4-.2Z"/><path class="l" d="M278.6,260.4l-30.2,17.4.4.2,29.8-17.2,10,5.7.4-.2Z"/><path class="l" d="M262.8,261.9l5.3,3-.2.1-9,5.2-5.1-2.9-.1-.1Z"/><path class="d" d="M262.8,262.1l5.1,2.9-9,5.2-5.1-2.9Z"/><path class="f" d="M293,265.6v.5a1.7,1.7,0,0,1-.9,1.6l-32.3,18.6a1.613,1.613,0,0,1-.9.3v-1.2Z"/><path class="l" d="M293,265.6v.5a1.7,1.7,0,0,1-.9,1.6l-32.3,18.6a1.613,1.613,0,0,1-.9.3v-1.2Z"/><path class="d" d="M263.3,262.9a1.779,1.779,0,0,1,.8-1.1l33.4-19.3a2.211,2.211,0,0,1,.6,1.9l-3.5,21a2.094,2.094,0,0,1-1.1,1.5l-32.2,18.6a2.51,2.51,0,0,1-1.9.1Z"/><path class="e" d="M262.7,262.6a1.779,1.779,0,0,1,.8-1.1L297,242.2c.1.1.3.2.4.3L264,261.8a1.548,1.548,0,0,0-.8,1.1l-3.8,22.7-.3-.1-.2-.1Z"/><path class="l" d="M263.2,262.9l-3.8,22.7-.3-.1-.2-.1,3.8-22.8a.908.908,0,0,1,.3-.7l.5.3C263.4,262.4,263.3,262.7,263.2,262.9Z"/><path class="m" d="M279.9,267.2a7.5,7.5,0,0,0,3.2-4.2c.2-1.4-.8-1.8-2.4-.9a7.181,7.181,0,0,0-3.2,4.2C277.3,267.7,278.4,268.1,279.9,267.2Z"/><g class="z"><path d="M281.5,353.2l17.7-11.4a1.05,1.05,0,0,0,.5-.9,1.02,1.02,0,0,0-.5-.8l-14.4-8.4a.367.367,0,0,1-.1-.3l.3-.6a1.31,1.31,0,0,0-.5-1.7l-7.2-4.1a2.92,2.92,0,0,0-.9-.2,1.613,1.613,0,0,0-.9.3l-19.8,12.6a1.193,1.193,0,0,0-.5.9,1.02,1.02,0,0,0,.5.8l24,13.9a2.92,2.92,0,0,0,.9.2A1.613,1.613,0,0,0,281.5,353.2Z"/></g><path class="d" d="M279.5,352.2,255,338c-.4-.2-.4-.5,0-.7L272.9,327a1.483,1.483,0,0,1,1.3,0l24.7,14c.4.2.4.5,0,.7l-18,10.4A2.2,2.2,0,0,1,279.5,352.2Z"/><path class="e" d="M255,337.2a.365.365,0,0,0,.2.5l24.5,14.2a1.483,1.483,0,0,0,1.3,0l18-11.6a.215.215,0,0,0,.2-.2.365.365,0,0,0-.2-.5L284.3,331a.777.777,0,0,1-.3-1l.3-.6a.777.777,0,0,0-.3-1l-7.3-4.2a1.483,1.483,0,0,0-1.3,0l-20.3,12.9Z"/><path class="h" d="M208.4,362.4l-22.6-13.1-.1-.1c-.1-.1,0-.2.1-.3l27.5-15.8a1.079,1.079,0,0,1,1.1,0l22.4,13Z"/><path class="f" d="M234.2,345.4l-22-11.1-25,14.4v.5l22,11.1a.446.446,0,0,0,.5,0l24.5-14.2c.2-.1.3-.2.3-.4A.265.265,0,0,0,234.2,345.4Z"/><path class="h" d="M209.8,359.8l24.5-14.2a.187.187,0,0,0,0-.3.215.215,0,0,1,.2.2.445.445,0,0,1-.2.6l-24.5,14.2h-.3v-.5Z"/><path class="ab" d="M212.2,334.1l22,11.1a.187.187,0,0,1,0,.3l-24.5,14.2a.454.454,0,0,1-.5,0l-22-11.1Z"/><path class="n" d="M209.2,359.6a.367.367,0,0,0,.3.1v.5c-.1.1-.2,0-.3,0l-22-11.1v-.5Z"/><path class="f" d="M187.6,342.5l25-14.5v6.4l-25,14.4Z"/><path class="ah" d="M187.6,342.5l25-14.5v6.4l-25,14.4Z"/><path class="c" d="M215.6,332.1l-25,14.4v2l18.6,10.1a.637.637,0,0,0,.6,0l24.4-14.1a.55.55,0,0,0,.3-.5v-1.3a.55.55,0,0,0-.3-.5Z"/><path class="j" d="M190.5,346.6l18.6,10.1a.637.637,0,0,0,.6,0l24.4-14.1a.208.208,0,0,0,0-.4l-18.6-10.1Z"/><path class="l" d="M193,346.4h-.4a.367.367,0,0,0-.3.1c-.1.1-.2.3,0,.4h.4c.1,0,.1-.1.2-.1C193.1,346.6,193.1,346.5,193,346.4Z"/><path class="ai" d="M209.8,356.6l24.4-14.1c.2-.1.2-.2.1-.3a.764.764,0,0,1,.2.5V344a.55.55,0,0,1-.3.5l-24.4,14.1a.367.367,0,0,1-.3.1v-2A.367.367,0,0,0,209.8,356.6Z"/><path class="l" d="M189.1,345.8a4.55,4.55,0,0,0,1.9,3.7,1.445,1.445,0,0,0,.7.2.9.9,0,0,0,.5-.1h0l-.5-.3a.661.661,0,0,1-.6-.1,4.518,4.518,0,0,1-1.7-3.4,1.553,1.553,0,0,1,.5-1.4.367.367,0,0,1,.3-.1c.2,0,.3.1.5.2a4.422,4.422,0,0,1,1.5,2.3l.4-.1a3.9,3.9,0,0,0-1.7-2.6,1.23,1.23,0,0,0-1.3-.1A1.681,1.681,0,0,0,189.1,345.8Z"/><path class="f" d="M234.2,341.2l-22-13.5-25,14.5v.5l22,13.4a.446.446,0,0,0,.5,0L234.2,342c.2-.1.3-.2.3-.4S234.4,341.3,234.2,341.2Z"/><path class="h" d="M209.7,355.7l24.5-14.2a.1.1,0,0,0,.1-.1c0-.1,0-.2-.1-.2.2.1.3.2.3.4a1.38,1.38,0,0,1-.3.4l-24.4,14.1a.367.367,0,0,1-.3.1v-.5Z"/><path class="f" d="M212.2,327.7l22,13.4a.1.1,0,0,1,.1.1c0,.1,0,.2-.1.2l-24.5,14.2a.454.454,0,0,1-.5,0l-22-13.4Z"/><path class="n" d="M209.2,355.7h.3v.5c-.1,0-.2-.1-.3-.1l-22-13.4v-.5Z"/><path class="f" d="M187.6,348.8v-6.3l-.4-.3v6.4Z"/><path class="n" d="M187.6,348.8v-6.3l-.4-.3v6.4Z"/><path class="f" d="M209.7,354.6l25-14.4L213,327.7a1.079,1.079,0,0,0-1.1,0l-24.1,13.6v.5c0,.1.1.2.2.3Z"/><path class="n" d="M209.7,354.6l25-14.4L213,327.7a1.079,1.079,0,0,0-1.1,0l-24.1,13.6v.5c0,.1.1.2.2.3Z"/><path class="f" d="M209.7,354.1l25-14.4L213,327.2a1.079,1.079,0,0,0-1.1,0L188,341a.215.215,0,0,0-.2.2c-.1.2,0,.3.2.4Z"/><path class="ab" d="M209.7,354.1l25-14.4L213,327.2a1.079,1.079,0,0,0-1.1,0L188,341a.215.215,0,0,0-.2.2c-.1.2,0,.3.2.4Z"/><path class="c" d="M232.1,335.1v2.7l-25,14.4-18.4-10.6c-.2-.1-.3-.3-.2-.4h0v-2.5l2.1,1.2,22-12.7a1.079,1.079,0,0,1,1.1,0l16,9.3Z"/><path class="j" d="M207.1,349.5l25-14.4-18.4-10.6a1.079,1.079,0,0,0-1.1,0l-23.9,13.8c-.3.1-.3.4,0,.6Z"/><path class="ai" d="M232.1,335.1v2.7l-25,14.4v-2.7Z"/><path class="l" d="M207.4,348.2h0a.756.756,0,0,0-.4-.1c-.1,0-.2.1-.3.1-.1.1-.2.3,0,.4h.4c.1,0,.1-.1.2-.1A.219.219,0,0,0,207.4,348.2Z"/><path class="l" d="M208.7,347.9a2.353,2.353,0,0,0-.8-.2,1.235,1.235,0,0,0-.8.4c-.1.2-.2.3-.2.5h.3a1.38,1.38,0,0,1,.3-.4.908.908,0,0,1,1,0,3.164,3.164,0,0,1,1.4,2.4c0,.9-.6,1.2-1.4.8l-.3.2.1.1a2.353,2.353,0,0,0,.8.2h0a1.235,1.235,0,0,0,.8-.4,1.4,1.4,0,0,0,.3-.9A3.552,3.552,0,0,0,208.7,347.9Z"/><path class="f" d="M209.4,348v.6l-21.3-10.2a.55.55,0,0,1-.3-.5v-.4L209.4,348Z"/><path class="n" d="M209.4,348v.6l-21.3-10.2a.55.55,0,0,1-.3-.5v-.4L209.4,348Z"/><path class="m" d="M209.7,348.2l25-14.4L213,323.4a1.079,1.079,0,0,0-1.1,0L188,337.2a.215.215,0,0,0-.2.2c-.1.1,0,.3.2.4Z"/><path class="m" d="M209.7,348.2l25-14.4v6.4l-25,14.4Z"/><path class="h" d="M209.7,348.2l25-14.4v6.4l-25,14.4Z"/><path class="e" d="M215.3,350.3a3.383,3.383,0,0,0,1.6-2.7c0-.8-.4-1.3-1.1-1.3a1.884,1.884,0,0,0-.8.2,3.552,3.552,0,0,0-1.5,2.7,1.613,1.613,0,0,0,.3.9.91.91,0,0,0,.8.4A1.165,1.165,0,0,0,215.3,350.3Z"/><path class="a" d="M215.3,346.8c.8-.5,1.4-.1,1.4.8a3.164,3.164,0,0,1-1.4,2.4c-.8.5-1.4.1-1.4-.8A2.693,2.693,0,0,1,215.3,346.8Z"/><path class="a" d="M220.4,343.4l10.9-6.3c.8-.5,1.5-.1,1.5.9v.5a3.248,3.248,0,0,1-1.5,2.6l-10.9,6.3c-.8.5-1.5.1-1.5-.9V346A3.362,3.362,0,0,1,220.4,343.4Z"/><path class="f" d="M209.7,354.6v-6.4l-.3-.1v6.4Z"/><path class="n" d="M209.7,354.6v-6.4l-.3-.1v6.4Z"/><path class="h" d="M236.7,282.4c2.4,1.3,2.4,3.4,0,4.7a9.75,9.75,0,0,1-8.5,0c-2.4-1.3-2.4-3.4,0-4.7A9.75,9.75,0,0,1,236.7,282.4Z"/><path class="e" d="M232.4,283h-.1a5.794,5.794,0,0,1,4.4,1.6C236.1,283.6,234.4,283,232.4,283Z"/><path class="f" d="M236.2,277.4a12.012,12.012,0,0,1-7.5.2c-2.1-.7-2.1-2-.1-2.8a12.773,12.773,0,0,1,7.5-.2C238.3,275.4,238.3,276.6,236.2,277.4Z"/><g class="p"><path d="M236.2,277.4a12.012,12.012,0,0,1-7.5.2c-2.1-.7-2.1-2-.1-2.8a12.773,12.773,0,0,1,7.5-.2C238.3,275.4,238.3,276.6,236.2,277.4Z"/></g><path class="j" d="M237.2,284.8h0c0,.4-.4.9-1.3,1.3a9.114,9.114,0,0,1-6.5.2c-.9-.3-1.3-.7-1.4-1.2h0l-1.1-12.8,10.8-.3Z"/><path class="c" d="M237.7,272.1l-.1,2.6c-.2.1-.5.3-.7.4l-.3.1a13.326,13.326,0,0,1-8.6.2c-.3-.2-.6-.3-.9-.5l-.2-2.6Z"/><path class="m" d="M236.6,274.2a13.326,13.326,0,0,1-8.6.2c-1.2-.4-1.8-1.1-1.8-1.7h0v-2h1.2a2.185,2.185,0,0,1,.5-.3,13.326,13.326,0,0,1,8.6-.2,1.421,1.421,0,0,1,.6.2h1.3v2C238.5,273,237.9,273.7,236.6,274.2Z"/><g class="aj"><path d="M236.6,274.2a13.326,13.326,0,0,1-8.6.2c-1.2-.4-1.8-1.1-1.8-1.7h0v-2h1.2a2.185,2.185,0,0,1,.5-.3,13.326,13.326,0,0,1,8.6-.2,1.421,1.421,0,0,1,.6.2h1.3v2C238.5,273,237.9,273.7,236.6,274.2Z"/></g><path class="m" d="M236.6,272.3a13.326,13.326,0,0,1-8.6.2c-2.4-.9-2.4-2.5-.1-3.5a13.326,13.326,0,0,1,8.6-.2C239,269.6,239,271.2,236.6,272.3Z"/><path class="m" d="M235.9,271.7a11.5,11.5,0,0,1-7.1.2c-1.2-.4-1.7-1-1.5-1.6h0l.4-1.6,3-.1a10.75,10.75,0,0,1,3.1-.1l3.1-.1.4,1.6h0C237.5,270.6,237,271.2,235.9,271.7Z"/><path class="n" d="M235.9,281.7a11.5,11.5,0,0,1-7.1.2c-1.2-.4-1.7-1-1.5-1.6h0l.4-1.6,3-.1a10.75,10.75,0,0,1,3.1-.1l3.1-.1.4,1.6h0C237.5,280.6,237,281.2,235.9,281.7Z"/><path class="m" d="M235.6,269.8a11.092,11.092,0,0,1-6.5.2c-1.8-.6-1.9-1.7-.1-2.4a11.092,11.092,0,0,1,6.5-.2C237.3,268,237.3,269.1,235.6,269.8Z"/><path class="m" d="M235.3,268a11,11,0,0,0-3.1-.4,10.474,10.474,0,0,0-3,.5c-.8.3-.9.6-.9.6l.2.2a1.612,1.612,0,0,0,.7.4,10.323,10.323,0,0,0,3,.4,10.588,10.588,0,0,0,3.1-.5,2.507,2.507,0,0,0,.7-.4c.2-.1.2-.2.2-.2A2.1,2.1,0,0,0,235.3,268Z"/><g class="w"><path d="M235.3,268a11,11,0,0,0-3.1-.4,10.474,10.474,0,0,0-3,.5c-.8.3-.9.6-.9.6l.2.2a1.612,1.612,0,0,0,.7.4,10.323,10.323,0,0,0,3,.4,10.588,10.588,0,0,0,3.1-.5,2.507,2.507,0,0,0,.7-.4c.2-.1.2-.2.2-.2A2.1,2.1,0,0,0,235.3,268Z"/></g><path class="m" d="M235.3,268.5a11,11,0,0,0-3.1-.4,10.474,10.474,0,0,0-3,.5,2.507,2.507,0,0,0-.7.4,1.612,1.612,0,0,0,.7.4,10.323,10.323,0,0,0,3,.4,10.588,10.588,0,0,0,3.1-.5,2.507,2.507,0,0,0,.7-.4A1.612,1.612,0,0,0,235.3,268.5Z"/><g class="aj"><path d="M235.3,268.5a11,11,0,0,0-3.1-.4,10.474,10.474,0,0,0-3,.5,2.507,2.507,0,0,0-.7.4,1.612,1.612,0,0,0,.7.4,10.323,10.323,0,0,0,3,.4,10.588,10.588,0,0,0,3.1-.5,2.507,2.507,0,0,0,.7-.4A1.612,1.612,0,0,0,235.3,268.5Z"/></g><g class="w"><path d="M234,269.3a.952.952,0,0,0,.7-.2c.2-.1.3-.3.2-.4a1.854,1.854,0,0,0-.7.2C233.9,269.1,233.8,269.3,234,269.3Z"/></g><path class="m" d="M227.2,276.3c.1.5.6,1,1.6,1.4a12.794,12.794,0,0,0,7.5-.2q1.5-.75,1.5-1.5l-.2,4.7c0,.5-.5,1-1.5,1.4a11.5,11.5,0,0,1-7.1.2c-1-.3-1.5-.8-1.5-1.3Z"/><path class="d" d="M231.4,281.7h0v.1a2.054,2.054,0,0,1-1.1,0,1.853,1.853,0,0,1-1.3-2.3c0-.1.1-.1.2-.1a1.887,1.887,0,0,1,1.3,1,2.01,2.01,0,0,0,.4.8A2.254,2.254,0,0,0,231.4,281.7Z"/><path class="d" d="M229.4,279.2a.139.139,0,0,1,0-.2,1.714,1.714,0,0,1,1.9.4,1.551,1.551,0,0,1,.4,2c-.1.1-.1.1-.2,0a2.178,2.178,0,0,1-.7-.9,5.545,5.545,0,0,0-.6-.8,2.177,2.177,0,0,0-.8-.5Z"/><g class="z"><path d="M242.5,343.4l16.3-9.4a1.483,1.483,0,0,1,1.3,0l22.2,12.8a.215.215,0,0,1,.2.2.365.365,0,0,1-.2.5l-16.4,9.4a1.483,1.483,0,0,1-1.3,0l-22.2-12.8C242.1,343.9,242.1,343.6,242.5,343.4Z"/></g><path class="c" d="M242.5,342.4l16.3-9.4a1.483,1.483,0,0,1,1.3,0l22.2,12.9a.215.215,0,0,1,.2.2.365.365,0,0,1-.2.5L265.9,356a1.483,1.483,0,0,1-1.3,0l-22.2-12.8A.441.441,0,0,1,242.5,342.4Z"/><path class="i" d="M260.1,333l21.4,12.4-15.5,9a1.483,1.483,0,0,1-1.3,0L243.3,342l15.5-9A1.479,1.479,0,0,1,260.1,333Z"/><path class="j" d="M242.5,340.2l16.3-9.4a1.483,1.483,0,0,1,1.3,0l22.2,12.8a.215.215,0,0,1,.2.2.365.365,0,0,1-.2.5l-16.4,9.4a1.483,1.483,0,0,1-1.3,0l-22.2-12.8C242.1,340.7,242.1,340.4,242.5,340.2Z"/><g class="z"><path d="M273,315.9c2.8,1.2,2.8,3.1,0,4.3a14.341,14.341,0,0,1-10-.1c-2.8-1.2-2.8-3.1,0-4.3A14.341,14.341,0,0,1,273,315.9Z"/></g><path class="m" d="M263,315.7l-.6-1.5a3.408,3.408,0,0,1-2,0c-.7-.5-1.6-5-1.3-5.8.2-.4,1.5-.4,2.3-.4h.5v-1.7h-.5c-1.4,0-3.1-.3-3.9,1.1-.5.9.3,4.4.7,5.6.5,1.5.9,2.4,1.7,2.7a4.133,4.133,0,0,0,1.9.2C262.2,315.8,262.6,315.8,263,315.7Z"/><g class="r"><path d="M263,315.7l-.6-1.5a3.408,3.408,0,0,1-2,0c-.7-.5-1.6-5-1.3-5.8.2-.4,1.5-.4,2.3-.4h.5v-1.7h-.5c-1.4,0-3.1-.3-3.9,1.1-.5.9.3,4.4.7,5.6.5,1.5.9,2.4,1.7,2.7a4.133,4.133,0,0,0,1.9.2C262.2,315.8,262.6,315.8,263,315.7Z"/></g><path class="m" d="M261,304c-.5,4.5.3,9.7,1.9,12.5v.1h0a3.745,3.745,0,0,0,1.3,1.2,8.172,8.172,0,0,0,7.6.1,3.744,3.744,0,0,0,1.3-1.2h0c1.6-2.9,2.4-8,2-12.5h0c-.1-.7-.8-1.4-2-1.9a14.341,14.341,0,0,0-10-.1q-1.8.75-2.1,1.8Z"/><g class="ak"><path class="u" d="M273,302.2c2.8,1.2,2.8,3.1,0,4.3a14.341,14.341,0,0,1-10-.1c-2.8-1.2-2.8-3.1,0-4.3A14.926,14.926,0,0,1,273,302.2Z"/></g><path class="f" d="M272,303c2.2.8,2.2,2,0,2.8a14.506,14.506,0,0,1-8-.1c-2.2-.8-2.2-2,0-2.8A14.507,14.507,0,0,1,272,303Z"/><path class="m" d="M272,303c2.2.8,2.2,2,0,2.8a14.506,14.506,0,0,1-8-.1c-2.2-.8-2.2-2,0-2.8A14.507,14.507,0,0,1,272,303Z"/><path class="d" d="M271.9,304.7a10.911,10.911,0,0,1,1.1.6,3.7,3.7,0,0,1-1.1.5,14.506,14.506,0,0,1-8-.1,10.911,10.911,0,0,1-1.1-.6,3.7,3.7,0,0,1,1.1-.5A14.494,14.494,0,0,1,271.9,304.7Z"/><g class="aj"><path d="M381.4,294h0l-28.2-16.3a.454.454,0,0,0-.5,0l-20.3,11.7h0v.1a.1.1,0,0,0,.1.1l28.1,16.2h.3c.1.1.2,0,.3,0l20.1-11.6h0c.1,0,.1-.1.1-.2Z"/></g><path class="m" d="M333.7,287.8,353,276.7a.446.446,0,0,1,.5,0l27,15.6a.52.52,0,0,1,.2.4v.5a.52.52,0,0,1-.2.4l-19.3,11.1a.446.446,0,0,1-.5,0l-26.9-15.6a.52.52,0,0,1-.2-.4v-.5C333.5,288.1,333.6,287.9,333.7,287.8Z"/><path class="g" d="M380.8,292.6v.5a.52.52,0,0,1-.2.4l-19.3,11.1c0,.1-.1.1-.2.1v-1c.1,0,.1-.1.2-.1l19.3-11.1a.187.187,0,0,0,0-.3A.519.519,0,0,1,380.8,292.6Z"/><path class="s" d="M333.7,287.8c0,.1,0,.1-.1.1l.1.1,27,15.6a.367.367,0,0,0,.3.1v1a.349.349,0,0,0-.2-.1l-27-15.6a.52.52,0,0,1-.2-.4v-.5a.368.368,0,0,1,.1-.3Z"/><path class="l" d="M340.8,281.5c0,.4.6.9.8,1.3v.1c-.1.2-.3.4-.4.6v.8a.367.367,0,0,0-.1.3.9.9,0,0,0-.1.5v.4c0,.1.1.2.2.3l1.1.6,8.1-4.7v-.4l-1.1-.6a.749.749,0,0,0-.5-.1h-2.5a6.153,6.153,0,0,1-1.9.2h0a8.735,8.735,0,0,0-2.2-.5h-.1a2.92,2.92,0,0,0-.9.2.51.51,0,0,0-.4.5S340.8,281.3,340.8,281.5Zm1.3.1a.215.215,0,0,1,.2-.2l.2-.1a1.939,1.939,0,0,1,1.5.2c.1.1.3.2.4.4a.215.215,0,0,1-.2.2,1.376,1.376,0,0,1-1.1.1,1.421,1.421,0,0,1-.6-.2A.781.781,0,0,1,342.1,281.6Z"/><path class="d" d="M348.8,280.6h-2.5a6.153,6.153,0,0,1-1.9.2h0a8.735,8.735,0,0,0-2.2-.5h-.1a2.92,2.92,0,0,0-.9.2c-1,.6.2,1.2.4,1.8s-.4.9-.4,1.1a1.561,1.561,0,0,1,0,1c-.2.6,0,.7.1.8l1.1.6,8.1-4.7-1.1-.6A.471.471,0,0,0,348.8,280.6Zm-6.1,4c.2.1.2.2.1.3a.3.3,0,0,1-.4,0c-.2-.1-.2-.2-.1-.3a.3.3,0,0,1,.4,0Zm1.4-2.5a1.376,1.376,0,0,1-1.1.1,1.421,1.421,0,0,1-.6-.2c-.5-.3-.6-.8-.2-1l.2-.1a1.939,1.939,0,0,1,1.5.2C344.5,281.5,344.6,281.9,344.1,282.1Zm4.8-1.1c.2.1.2.2.1.3a.3.3,0,0,1-.4,0c-.2-.1-.2-.2-.1-.3a.3.3,0,0,1,.4,0Z"/><path class="a" d="M359.8,301.8,337.6,289c0-.1-.1-.2-.1-.3v-.2c0-.1,0-.1.1-.2l16.9-9.7h.3L377,291.4c.1.1.2.2.2.3v.2a.768.768,0,0,1-.2.3l-16.8,9.7C360.1,302,360,302,359.8,301.8Z"/><path class="j" d="M377.2,291.8v.2c0,.2,0,.2-.1.3L360.3,302h-.1v-.6h.1l16.8-9.7v-.1C377.2,291.6,377.2,291.8,377.2,291.8Z"/><path class="i" d="M337.6,288.7,360,301.4h.1v.5H360l-22.2-12.8c0-.1-.1-.2-.1-.3v-.3h0A.309.309,0,0,1,337.6,288.7Z"/><path class="i" d="M355.9,281.8l-13.5,7.8c-.1,0-.1.1,0,.2l.2.1a.3.3,0,0,0,.4,0l13.5-7.8.1-.1c0-.1,0-.2-.1-.2l-.2-.1C356.1,281.6,356,281.6,355.9,281.8Z"/><path class="i" d="M357,282.3l-13.5,7.8-.1.1c0,.1,0,.2.1.2l.2.1a.3.3,0,0,0,.4,0l13.5-7.8c.1,0,.1-.1,0-.2l-.2-.1C357.3,282.3,357.2,282.3,357,282.3Z"/><path class="i" d="M358.2,283.1l-13.5,7.8c-.1,0-.1.1,0,.2l.2.1a.3.3,0,0,0,.4,0l13.5-7.8.1-.1c0-.1,0-.2-.1-.2l-.2-.1A.6.6,0,0,0,358.2,283.1Z"/><path class="i" d="M360.8,284.4l-13.5,7.8-.1.1c0,.1,0,.2.1.2l.2.1a.3.3,0,0,0,.4,0l13.5-7.8c.1,0,.1-.1,0-.2l-.2-.1A.6.6,0,0,1,360.8,284.4Z"/><path class="i" d="M362,285.1l-13.5,7.8-.1.1c0,.1,0,.2.1.2l.2.1a.3.3,0,0,0,.4,0l13.5-7.8c.1,0,.1-.1,0-.2l-.2-.1A.6.6,0,0,1,362,285.1Z"/><path class="i" d="M363.2,286l-13.5,7.8c-.1,0-.1.1,0,.2l.2.1a.3.3,0,0,0,.4,0l13.5-7.8.1-.1c0-.1,0-.2-.1-.2l-.2-.1C363.4,285.8,363.3,285.8,363.2,286Z"/><path class="i" d="M365.8,287.3l-13.5,7.8-.1.1c0,.1,0,.2.1.2l.2.1a.3.3,0,0,0,.4,0l13.5-7.8c.1,0,.1-.1,0-.2l-.2-.1A.756.756,0,0,0,365.8,287.3Z"/><path class="i" d="M366.9,288.1l-13.5,7.8c-.1,0-.1.1,0,.2l.2.1a.3.3,0,0,0,.4,0l13.5-7.8c.1,0,.1-.1,0-.2l-.2-.1C367.2,288,367.1,288,366.9,288.1Z"/><path class="i" d="M368.1,288.7l-13.5,7.8-.1.1c0,.1,0,.2.1.2l.2.1a.3.3,0,0,0,.4,0l13.5-7.8c.1,0,.1-.1,0-.2l-.2-.1A.6.6,0,0,0,368.1,288.7Z"/><path class="d" d="M343.5,286v.4a.764.764,0,0,0,.2.5l9.9-5.7v-.4a3.553,3.553,0,0,0-1-.2h0a1.268,1.268,0,0,0-.6.1,11.315,11.315,0,0,0-1.4.6.878.878,0,0,1-.7-.1h0l-.3-.3-.8-.7a.6.6,0,0,0-.4-.1h-1a1.613,1.613,0,0,1-.9-.3,2.389,2.389,0,0,0-1.4-.5h0a2.92,2.92,0,0,0-.9.2,1.078,1.078,0,0,0-.6,1.1.806.806,0,0,0,.3.9.52.52,0,0,1,.2.4.764.764,0,0,1-.2.5c-.1,0-.1.1-.1.2v.4c0,.1,0,.2.1.2l.9.9.3.3h0a.1.1,0,0,0-.1.1l-1.2.9A.864.864,0,0,0,343.5,286Zm2.3-5.6c.1.1.2.2.2.3a.781.781,0,0,1-.4.4,1.183,1.183,0,0,1-1,.1.758.758,0,0,1-.4-.2c-.1-.1-.2-.2-.2-.3a.781.781,0,0,1,.4-.4c0-.1,0-.1.1-.1a1.258,1.258,0,0,1,1.3.2Z"/><path class="e" d="M352.4,280.7h0a1.268,1.268,0,0,0-.6.1,11.315,11.315,0,0,0-1.4.6.878.878,0,0,1-.7-.1h0l-.3-.3-.8-.7a.6.6,0,0,0-.4-.1h-1a1.613,1.613,0,0,1-.9-.3,2.389,2.389,0,0,0-1.4-.5h0a2.92,2.92,0,0,0-.9.2c-.1,0-.2.1-.3.2a1.071,1.071,0,0,0,.1,1.4.91.91,0,0,1,0,1.2c-.2.3,0,.4,0,.4l.9.9.3.3c.3.2,0,.5,0,.5l-1.2.9a.771.771,0,0,0-.2,1.2l9.9-5.7A1.389,1.389,0,0,0,352.4,280.7Zm-6.5-.7c.1.1.2.2.2.3a.517.517,0,0,1-.3.7,1.183,1.183,0,0,1-1,.1.758.758,0,0,1-.4-.2c-.1-.1-.2-.2-.2-.3a.46.46,0,0,1,.3-.7c0-.1,0-.1.1-.1A2,2,0,0,1,345.9,280Z"/><path class="d" d="M291,318.5l33-19a1.718,1.718,0,0,1,1.7,0l18.7,10.9a2.337,2.337,0,0,1,.7.7,1.642,1.642,0,0,1-.7,2.2l-33,19a1.718,1.718,0,0,1-1.7,0L291,321.4a1.693,1.693,0,0,1-.9-1.4A2.371,2.371,0,0,1,291,318.5Z"/><path class="e" d="M290.6,319.2a.441.441,0,0,1,.4-.6l33-19a1.718,1.718,0,0,1,1.7,0l18.7,10.8c.5.3.5.7,0,1l-33,19a1.718,1.718,0,0,1-1.7,0L291,319.6A.366.366,0,0,1,290.6,319.2Z"/><path class="l" d="M309.7,330.4,291,319.6c-.5-.2-.5-.6-.1-.9a1.873,1.873,0,0,0-.8,1.4,1.945,1.945,0,0,0,.9,1.4l18.7,10.8a2.92,2.92,0,0,0,.9.2v-1.9A1.486,1.486,0,0,1,309.7,330.4Z"/><path class="d" d="M290.9,318.6l33-19a1.859,1.859,0,0,0,.9-1.5V272.2c0-.5,0-.9-.4-1.2a1.715,1.715,0,0,0-1.7,0l-33,19a1.763,1.763,0,0,0-.8,1.5v25.9c0,.5,0,.9.4,1.2A1.535,1.535,0,0,0,290.9,318.6Z"/><path class="e" d="M324.4,271a1.715,1.715,0,0,0-1.7,0l-33,19a.9.9,0,0,0-.6.6h0l1.2.7a1.7,1.7,0,0,1,.6-.6l33-19a.552.552,0,0,1,.9.5C324.8,271.7,324.8,271.2,324.4,271Z"/><path class="l" d="M290.1,318.2V292.3a2.39,2.39,0,0,1,.3-.9h0l-1.2-.7a1.613,1.613,0,0,0-.3.9v25.9c0,.5,0,.9.4,1.2a2.208,2.208,0,0,0,1.6,0A.527.527,0,0,1,290.1,318.2Z"/><path class="j" d="M290.9,292.6v22.6c0,.3.2.5.5.3l31.8-18.4a1.05,1.05,0,0,0,.5-.9V273.6c0-.3-.2-.5-.5-.3l-31.8,18.4A1.193,1.193,0,0,0,290.9,292.6Z"/><path class="l" d="M293.3,318.8c-.1.1,0,.2.1.3l.5.3a1.387,1.387,0,0,0,.9,0l30.6-17.6a.215.215,0,0,0,.2-.2c0-.1-.1-.3-.2-.3l-.5-.3a1.387,1.387,0,0,0-.9,0l-30.6,17.7C293.3,318.7,293.2,318.7,293.3,318.8Z"/><path class="l" d="M295.7,320.5l8,4.6a.762.762,0,0,0,.8,0l30.6-17.6c.3-.2.3-.4.1-.5l-8-4.6a1.1,1.1,0,0,0-.8,0l-30.6,17.7C295.5,320.2,295.5,320.4,295.7,320.5Z"/><path class="e" d="M322.2,309.8l1-.5v-.1l-.9-.5h-.1l-1,.5v.1l.9.5C322.2,309.9,322.2,309.9,322.2,309.8Zm-1.2-1.9a.1.1,0,0,0-.1.1l-1,.5v.1l.9.5h.1l1-.6v-.1l-.9-.5Zm-2.2,2.3-.9-.5m.1,0h-.2l-1.6.9v.1l.9.5h.1l1.6-.9Zm1.6-1a.31.31,0,0,0-.2.1l-.9.5v.1l.9.5h.1l1-.6v-.1l-.9-.5Zm-3.7,2.2c-.1,0-.1,0-.1.1l-1,.5v.1l.9.5h.1l1-.6v-.1l-.9-.5Zm-2.5,1.5.9.5h.1l1-.6v-.1l-.9-.5m-.1,0h-.1l-1,.5Zm3.4,2.2a.1.1,0,0,1,.1.1l1-.6v-.1l-.9-.5h-.1l-1,.5v.1l.9.5Zm-1.4.8a.1.1,0,0,1,.1.1l1-.6v-.1l-.9-.5h-.1l-1,.5v.1l.9.5Zm-1.4.8a.1.1,0,0,1,.1.1l1-.6v-.1l-.9-.5h-.1l-1,.5v.1l.9.5Zm-1.4.8h.1l1-.5v-.1l-.9-.5h-.1l-1,.5v.1l.9.5Zm7.2-5.8,1-.5v-.1l-.9-.5h-.1l-1,.6v.1l.9.5C320.7,310.7,320.8,310.7,320.8,310.5Zm-1.7,2.6h.1l2.1-1.2v-.1l-2.2-1.3H319l-1.1.6v.1l1.2.7c.1,0,.1.1,0,.1l-.9.5v.1l.9.5Zm-5.2-.1-.9-.5m-1.1.7.9.5h.1l1-.6m-.8-.5h-.2l-1,.5Zm-.6,1.2-.9-.5m-1.1.6.9.5h.1l1-.5m-.8-.5h0c-.1-.1-.1-.1-.2,0l-1,.5Zm-6.9,8-.9-.5h-.1l-1,.5m1,.6h.1l1-.6Zm-3.4-2.2h0c0-.1-.1-.1-.1,0l-1,.5v.1l.9.5h.1l1-.5v-.1l-.9-.5Zm2.7.9-.9-.5h-.1l-1,.6m1,.6h.1l1-.5Zm3.7.9a.1.1,0,0,1,.1.1l1-.6v-.1l-.9-.5h-.1l-1,.5v.1l.9.5Zm-1.3.9h.1l.9-.6v-.1l-.9-.5h-.1l-1,.6h0Zm-2.7-4.2h0l-1,.6v.1l.9.5h.1l.9-.6v-.1l-.9-.5Zm5.9-3.4.9.5h.1l1-.5v-.1l-.9-.5m.1-.1a.139.139,0,0,0-.2,0l-1,.6Zm-5.7,3.3c0-.1-.1,0-.1.1l-1,.5v.1l.9.5h.1l1-.6v-.1l-.9-.5Zm7.9-3.5-.9-.5m-1.1.6.9.5h.1l1-.5m-.8-.7c-.1,0-.2,0-.2.1l-1,.6Zm-2.9,1.7c0-.1-.1,0-.1-.1l-1,.6v.1l.9.5h.1l1-.5v-.1l-.9-.5Zm-1.4.8h0c0-.1-.1,0-.1,0l-1,.5v.1l.9.5h.1l1-.5v-.1l-.9-.5Zm-.5,1.3-.9-.5m.1,0h0c-.1,0-.2,0-.2.1l-1,.5v.1l.9.5h.1l1-.6Zm6,.6c.1,0,.1,0,.1-.1l1-.5v-.1l-.9-.5h-.1l-1,.6v.1l.9.5Zm13.4-11.8a.1.1,0,0,0-.1-.1l-1,.6v.1l.9.5h.1l1-.5v-.1l-.9-.5Zm-1.7,1c0-.1-.1,0,0,0l-1,.5v.1l.9.5h.1l.9-.5v-.1l-.9-.5Zm2-1.2.9.5h.1l1-.5v-.1l-.9-.5m.1-.1c-.1,0-.2,0-.2.1l-1,.6Zm-9,6.8.9.5m1.1-.6-.9-.5h-.1l-1,.5m.9.6a.1.1,0,0,0,.1.1l1-.6Zm8.3-7.5.9.5h.1l1-.6h0m-.9-.6h-.1l-1,.6Zm-14.7,12.7a.1.1,0,0,0,.1-.1l1-.5v-.1l-.9-.5h-.1l-1,.6v.1l.9.5Zm16.2-10.5.9.5m0,.1h.1l1-.6v-.1l-.9-.5h-.1l-1,.5Zm-2.7,0c.1.1.1,0,.1.1l1-.6v-.1l-.9-.5h-.1l-1,.5v.1l.9.5Zm1.6-1.9h-.1l-1,.5v.1l.9.5h.1l1-.6h0Zm.3-.3h0l2.1,1.4h.1l1-.6v-.1l-2.2-1.3h-.1l-.9.6Zm-2.2,2.3-.9-.5m0,.1h-.1l-1,.5v.1l.9.5h.1l1-.6Zm-9.6,6.6-.9-.5m-1.1.6.9.5h.1l1-.5m-1-.6h-.1l-1,.5Zm14.2-5.6-.9-.5H328l-1,.5m1,.6h.1l1-.5Zm-10.8,4.7-.9-.5m-1.1.6.9.5h.1l1-.5m-1-.6h-.1l-1,.5Zm-9.9,8.3-.9-.5h-.1l-1,.6h0m.9.6h.1l1-.6Zm-.6-1.2-.9-.5m-1.1.6.9.5h.1l1-.5m-.9-.6h-.1l-1,.5Zm2.9.9a.1.1,0,0,1,.1.1l1-.6v-.1l-.9-.5h-.1l-1,.5v.1l.9.5Zm1.4-.8h.1l1-.5V319l-.9-.5h-.1l-1,.5v.1l.9.5Zm.5-1.3.9.5m-.1-.1h.2l1-.5v-.1l-.9-.5h-.1l-1,.6Zm-5.3.6.9.5h.1l1-.5v-.1l-.9-.5m0,0H305l-1,.5Zm1.4-.8c-.1-.1-.1-.1-.2.1l-.9.5v.1l.9.5h.1l1-.6v-.1l-.9-.5Zm5.6-3.3h0l-1,.5v.1l.9.5h.1l.9-.5v-.1l-.9-.5Zm-1.4.8h0l-1,.5v.1l.9.5h.1l.9-.5v-.1l-.9-.5Zm3.7-1.1-.9-.5m0-.1h-.1l-1,.6v.1l.9.5h.1l1-.5Zm-5.6,3.3h-.2l-.9.6v.1l.9.5h.1l1-.6v-.1l-.9-.5Zm1.4-.8h-.1l-1,.5v.1l.9.5h.1l1-.5v-.1l-.9-.5Zm-.9,4.7-.9-.5h-.1l-1,.5v.1l.9.5m-.1.1h.2l1-.6Zm-7.2-.4h0l-.9-.7H299l-1,.6v.1l.9.5h.1l1-.5Zm1.8.5h0l-.9-.6h-.1l-1.5.9v.1l.9.5h.1l1.5-.9Zm-3.2-1.5h0l-.9-.6h-.1l-1.2.7v.1l.9.5h.1l1.2-.7Zm1-.5h.1l1-.6V319l-1-.5h-.1l-1,.6h0Zm3.9,2.5-1-.6h-.1l-1.8,1.1v.1l.9.5h.1l1.9-1.1Zm.6,1.2h0l-.9-.6h-.1l-1.2.7v.1l.9.5h.1l1.2-.7Zm6.9-10.5-.9-.5H310l-1,.5m1,.6h.1l1-.5Zm-2.9,1.5h.1l1-.5v-.1l-.9-.5h-.1l-1,.6Zm-6.2,3.8h.1l1-.6v-.1l-.9-.5H301l-1,.6h0Zm8.7-5.2-.9-.5h-.1l-1,.6m1,.6h.1l1-.5Zm-2.9,1.6h.1l1-.5v-.1l-.9-.5h-.1l-1,.6h0Zm-.9,7.3h-.1l-1.5.9v.1l.9.5h.1l1.5-.9h0Zm-1.1-6.1h.1l1-.5v-.1l-.9-.5h-.1l-1,.6h0Zm-1.4.8h.1l1-.5v-.1l-.9-.5h-.1l-1,.6h0Zm26-8.1.9.5h.1l2.4-1.4m-.9-.6h-.1l-2.4,1.4Zm-3.1,1.9h-.1l-1,.5v.1l.9.5h.1l1-.6h0Zm-19.1,10.5a.1.1,0,0,0,.1-.1l1-.5V320l-.9-.4h-.1l-1,.5v.1l.9.5Zm16.3-9h-.1l-1,.6v.1l.9.5h.1l1-.6h0Zm7.3-4.2h-.1l-1,.5v.1l.9.5h.1l1-.6h0Zm2.2-.2h0l-2.3-1.5H332l-.9.6v.1l2.2,1.3h.1l1-.5Zm-16.1,8.3.9.5h.1l1.2-.7m-.9-.6h-.1l-1.2.7Zm3.6-2.1h-.1l-1.5.9v.1l.9.5h.1l1.5-.9h0Zm-6.8,4h-.1l-7.9,4.5v.1l.9.5h.1l7.9-4.6h0Zm-9.7,5.6.9.5h.1l1.2-.8h0m-.9-.5h-.1l-1.2.7Zm10-5.8h-.1l-1.2.7v.1l.9.5h.1l1.2-.7h0Zm-12.9,7.6.9.5h.1l1.2-.7m-.9-.7h-.1l-1.2.7Zm13.6-7.7.9.5h.1l1.2-.7m-1-.6h-.1l-1.2.7Zm5-3h-.1l-.9.6v.1l.9.5h.1l1-.6h0Zm3-2.1c.1,0,.1,0,.1-.1l1-.5v-.1l-.9-.5h-.1l-1,.6v.1l.9.5Zm-5.7.3c.1,0,.1,0,.2.1l.9-.6v-.1l-.9-.5h-.1l-1,.5v.1l.9.5Zm-.8,3.4-.9-.5h-.1l-2.8,1.7v.1l.9.5m.1-.1h.1l2.8-1.6Zm7.9-4.7h.1l1-.5v-.1l-.9-.5h-.1l-1,.6h0Zm-2.1-1.2.9.5m1-.7-.9-.5h-.1l-1,.6m1,.5c0,.1.1,0,.1,0l1-.5Zm-8.2,6.3c.1,0,.1,0,.1.1l1-.6v-.1l-.9-.5h-.1l-1,.5v.1l.9.5Zm6.3-3.6h.1l1-.6v-.1l-.9-.5h-.1l-1,.6h0Zm-14.2,7.1.9.5m0-.1h.1l1-.5v-.1l-.9-.5h-.1l-1,.6Zm.5-1.2.9.5m1.1-.7-.9-.5h-.1l-1,.6m1,.6c0,.1.1,0,.1,0l1-.5Zm-2.9,1.6c.1.1.1.1.1-.1l1-.5v-.1l-.9-.5h-.1l-1,.6v.1l.9.5Zm4.7-3.7.9.5m0,.1h.1l1-.6V316l-.9-.5h-.1l-1,.5Zm-2.3.2.9.5m1.1-.6-.9-.5h-.1l-1,.5m1,.6c0,.1.1,0,.1,0l1-.5Zm1.8-2.1.9.5m0,.1h.1l1-.6v-.1l-.9-.5h-.1l-1,.5Zm7.9-11.4h.1l.9-.5v-.1l-.2-.1h-.1l-1,.6h0Zm-7.2,4.4h.1l1-.5v-.1l-.9-.5h-.1l-.9.6h0Zm3-1.6h.1l.9-.5v-.1l-.9-.5h-.1l-1,.6h0ZM316,310h.1l1-.6v-.1l-.9-.5h-.1l-.9.6h0Zm3.2-1.9h.1l1-.5v-.1l-.9-.5h-.1l-1,.6h0Zm-4.8,2.8-.9-.5h-.1l-1,.5m1,.6h.1l1-.5Zm1.3-.7h.1l1-.6v-.1l-.9-.5h-.1l-1,.5Zm7.3-4.6h.1l1-.6v-.1l-.2-.1h-.1l-1,.6h0Zm5.3-3.1-.2-.1H327l-1,.6h0m.2,0h.1l1-.5Zm1.8,1.2h.1l1-.5v-.1l-.9-.5h-.1l-.9.6h0Zm1.8,2.7.9.5m0-.1h.1l1-.5v-.1l-.9-.5h-.1l-1,.6Zm-7.3-2.5h.1l1-.5v-.1l-.2-.1h-.1l-1,.6h0Zm-10.3,6.3-.9-.5h-.1l-1,.6m.9.6h.1l1-.5Z"/><path class="d" d="M325.6,314.1l5.4,3.2-.2.1-9.3,5.3-5.2-3-.2-.1Z"/><path class="l" d="M325.6,314.4l5.2,3-9.3,5.3-5.2-3Z"/><path class="ac" d="M130,283l-9.7,15.3,8.9,13.6-4.8,7.1s-12.4-15.9-13.9-18.4-.5-5.4.5-7.4,7.9-17.9,10.3-21.3,4.9-4,9.5-4.2Z"/><path class="e" d="M127.6,288l-6.8,10.1,2.1,4.2a9.155,9.155,0,0,1-6.1,6.8s-5-6-6.6-8.3a5.215,5.215,0,0,1-.5-5.5c.5-1.3,7-15.6,8.2-18.2,1.8-3.8,3.1-7.8,6-9.9s5.9.3,7.5.5Z"/><path class="h" d="M120.8,298l6.8-10.1,2.8-14.5-6.6-.5c-1.6,3.3-2.7,6.7-1.5,15.2.6,4.1-1.7,9.1-1.7,9.1l-2.2,3.2A13.631,13.631,0,0,0,120.8,298Z"/><path class="l" d="M155.6,429.7c2.9,3.4,11.5,6.6,11.5,6.6,7.1,2.5,6.6,4,6.2,5.1s-3.2,2.5-5.9,2.7c-2.2.2-6.7-.5-8.7-1.7s-5-2.6-6.9-2.7c-2.9-.1-4.9-.8-5.3-1.9s.1-3.4.4-4.8c.5-1.8,1.2-3.8,1.2-3.8Z"/><path class="ac" d="M151.4,435.2c2,1.1,11.1,4.6,14.1,4.4s4.1-1.9,2.9-2.9l-1.1-.4c-.1,0-8.6-3.1-11.5-6.6l-6.3-.4-1.4.1A5.863,5.863,0,0,0,151.4,435.2Z"/><path class="ac" d="M155.9,427.1l-.1,2.5c0,1.8-1.5,2.3-3.6,2.3-3,0-4.1-1.5-4.1-2.5s.1-2.7.1-2.7Z"/><path class="l" d="M129.4,412.1a19.987,19.987,0,0,0,2.1-1c2.4-1.8,4.1-2.3,5.7-1.6s2.2,1.8,1.5,4.3c-.8,2.7-2.7,4.6-4.6,6.5a63.638,63.638,0,0,0-4.6,5.7c-1.2,1.4-3.8,1.7-5.7,1.1s-1.5-3.3-1.4-4.9c.1-2,.3-3.1.8-3.3C123.8,418.7,127.8,412.6,129.4,412.1Z"/><path class="ac" d="M130.3,412.2s-.5,7.3-.6,7.5c-4.9,3.2-6.5-.2-6.5-.2l.1-7.4Z"/><path class="ac" d="M127.7,413.3l-1,6s.7,1.4,2.9.4a22.473,22.473,0,0,0,5.9-5.6c1.9-2.7-2.1-3.5-4-3h0a13.552,13.552,0,0,1-2.1,1A10.384,10.384,0,0,0,127.7,413.3Z"/><path class="f" d="M122.9,415.2s2.9,1.2,7.3-1.1c0,0,2.7-16.9,4.7-28.7,1.7-10.3,3.7-27.2,3.9-37.8.5,4.4,8.8,79.2,8.8,79.2s4,3,8.4.7c0,0,.8-19.4,1.4-30,.7-12.6.2-15.5.8-21.5s-.4-37.9-1-54.8c-.2-6.6-1.1-16.1-1.1-16.1-3.9-10.3-27.5-2.6-27.5-2.6-7.6,14-9.7,13-8.2,40.4C121.1,355.2,122.9,415.2,122.9,415.2Z"/><path class="o" d="M122.9,415.2s2.9,1.2,7.3-1.1c0,0,2.7-16.9,4.7-28.7,1.7-10.3,3.7-27.2,3.9-37.8.5,4.4,8.8,79.2,8.8,79.2s4,3,8.4.7c0,0,.8-19.4,1.4-30,.7-12.6.2-15.5.8-21.5s-.4-37.9-1-54.8c-.2-6.6-1.1-16.1-1.1-16.1-3.9-10.3-27.5-2.6-27.5-2.6-7.6,14-9.7,13-8.2,40.4C121.1,355.2,122.9,415.2,122.9,415.2Z"/><path class="ac" d="M133.5,260.2l-.3,14.7,10.6.7.6-14.2Z"/><path class="d" d="M119,332.7c1.2,3.8,12.3,4.5,17.8,4.9,8.2.6,16.9,0,21.7-4,.4-4.5,2.8-44.8.5-48.8-1.8-3.4-3.5-14-6.3-14.7-3.5-.9-6.8-1.5-9.4-2-2.7,2.6-8.1.7-8.6-.8a13.23,13.23,0,0,0-7.1.4c-3.2,1.4-4.3,5.4-4.8,8.7C122.3,280.9,118.5,331.1,119,332.7Z"/><path class="e" d="M144.1,266.6c-.9.8-4.4,1.3-7.5.8s-3.3-1.6-3.3-1.6v-1s-.7-.1-1.3,1.2a6.374,6.374,0,0,0-.8,3.6c.3.9.6,1.6,2.6,2.4a17.282,17.282,0,0,0,9.3.4c4-.8,5.2-3.1,5.2-3.1s-1.4-1.6-2.4-2.9c-.7-.9-1.1-1.2-1.7-1.2Z"/><path class="l" d="M158.1,241a10.411,10.411,0,0,1-3.8,3.1,12.078,12.078,0,0,0-5.4,4.3,21.411,21.411,0,0,1-1.3,1.9c-.3.3-1.4,1.3-1.4,1.7l-7.8,9.4c.3-4.4-14.2-8.4-14-14.7a34.187,34.187,0,0,1,.4-4.5c.3-1.3.8-2.6,1.1-3.9.4-2-.7-4.5.2-6.4.7-1.7,3.2-2.5,4.9-2.1a5.859,5.859,0,0,1,2.6-3.4,5.8,5.8,0,0,1,7.9,2,4.112,4.112,0,0,1,2.3-2,6.7,6.7,0,0,1,5.2-.2,5.367,5.367,0,0,1,3,5.8c.3-.1.6-.1.9-.2a5.51,5.51,0,0,1,6.3,4.4,5.437,5.437,0,0,1,0,1.8A9.771,9.771,0,0,1,158.1,241Z"/><path class="al" d="M153.4,253.3a4.552,4.552,0,0,0,1.9-.8c.3-.4-2.2-4.1-2.2-4.1Z"/><path class="ac" d="M131.3,238.4c-3.9,2.9-3.2,10.3.2,15.8,2.9,4.7,9.1,7.7,12,8.6,2.3.7,6.6.4,7.5-.4,1.3-1.2,3.3-4.3,2.2-13.4-1.1-8.9-5.3-11.2-7.8-12.4A15.13,15.13,0,0,0,131.3,238.4Z"/><path class="al" d="M147.5,262.5a19.165,19.165,0,0,1-3.1-1.1l-.1,1.7c2.3.4,5.4.1,6.4-.5A17.128,17.128,0,0,1,147.5,262.5Z"/><path class="l" d="M145.2,235.8a21.019,21.019,0,0,0-14.6-1.4c-.3.1-.6.2-1,.3-10.1,3.3-9.7,13.7-2.9,20.9a87.964,87.964,0,0,1,6.1,6.5,16.34,16.34,0,0,0,8.5-.1c4-1.8,4.1-6.4,4.1-6.4a2.452,2.452,0,0,1-1.6.6,4.942,4.942,0,0,1-3-1.4c-2.2-2.2-2.4-5.7.5-6.6,2.1-.7,3.1,1.1,4.6,2.1a.6.6,0,0,0,.4.1c.1,0,.2,0,.2-.1a6.608,6.608,0,0,0,2.2-3.2,3.656,3.656,0,0,0-.6-3.2,3.862,3.862,0,0,0,2.3-3.2,2.622,2.622,0,0,0-.2-1.5,4.125,4.125,0,0,0-1-1.3,9.705,9.705,0,0,0-2.8-1.6Z"/><path class="l" d="M145.3,249.5a2.189,2.189,0,0,1,2.8,1.3h0a2.119,2.119,0,0,1-1.3,2.7Z"/><path class="ac" d="M157.9,290.7c2.6,4.6,4.7,8.4,10.9,13.5,5.1,4.2,17.6,7.6,24.3,9s14.6,1.2,17.8-2.6.9-7.3-2-5.9-7.8,2.2-8,1.4,2.6-4,1.1-4.9-4.5,2.5-7.4,3-15.9-5.5-19.1-8.9c-2.9-3.2-7-9.9-10.8-18.2-2.3-4.9-6.3-6-11.4-6.6C153.3,270.5,148.4,280.8,157.9,290.7Z"/><path class="e" d="M156.6,291c2.5,3.9,8.6,11.2,12.8,14.3s11.5,4.6,11.5,4.6c3.5-2.2,4.4-8.6,4.4-8.6-10.1-4.7-14.2-11.9-17.1-18s-4-8.2-6-10.5-7.2-3-9.7-2.6C149.5,283.4,154.1,287.1,156.6,291Z"/><path class="am" d="M406,282.7l1.3,12.1-12.9,2.5-1.1-11.7Z"/><path class="an" d="M385.2,276.4s-2.1-.4-2.4-.8,2.5-4.7,2.5-4.7Z"/><path class="am" d="M408.4,261.6c3.9,3.2,3,10.8-.7,16.4-3.2,4.8-9.8,7.2-12.8,8-2.4.6-7.1.5-7.9-.4-1.3-1.2-2.3-4.2-1.7-13.7.5-9.1,2.2-11.6,7.9-12.8C395.5,258.6,402.7,257.3,408.4,261.6Z"/><path class="an" d="M389.4,285.7a9.637,9.637,0,0,1-2.4,0h0c.7.7,4,.9,6.4.6l-.1-1.6A18.645,18.645,0,0,1,389.4,285.7Z"/><path class="l" d="M381.1,257.9a2.5,2.5,0,0,1,.8-1.8,3.144,3.144,0,0,1,2.1-.5,8.64,8.64,0,0,1,2.1.7,3.344,3.344,0,0,1-.2-2.6,2.091,2.091,0,0,1,.7-1.3,1.535,1.535,0,0,1,1.6,0,23.58,23.58,0,0,1,2.8,1.2c4.4,1.8,9.1-1.2,13.7-.1,3.4.8,6.2,2.4,6.8,6.1,5.1,2.2,4.9,9.4,1.3,17.4-1.7,3.8-5.7,7.4-8.6,8-4.7,1-7.2.2-7.2.2-2.2-2.9-2.3-7.9-2.3-7.9s1.7.9,3.6-1.4,1.5-6.1-1.5-6.5c-1.8-.3-2.6.9-3.5,2.2-1.3,1.8-2.6-1.4-2.9-2.4a11.661,11.661,0,0,1-.9-4.5A12.193,12.193,0,0,1,384,263h0A6.15,6.15,0,0,1,381.1,257.9Z"/><path class="l" d="M412.3,258.7a1.942,1.942,0,0,1,2.8.3l-3.4,2A2,2,0,0,1,412.3,258.7Z"/><path class="am" d="M358,381.4c-3.4-.1-7-.1-9.4-1.5s-.6-3,1.5-3.2h2c3.9-.2,7.5.1,8.2-2l.3-5.1a25.251,25.251,0,0,0,4.6,1c4.1.3,4.6-.4,4.6-.4s-.7,7.1-.7,7.2C369.1,381.4,362.1,381.4,358,381.4Z"/><path class="l" d="M371,385.2c.2.1.1,1-.1,1.5a8.772,8.772,0,0,1-6.9,1.9c-2.4-.2-4.4-.8-6.4-1s-6,.4-9.6-.6-6-3.4-6.1-4.2a12.252,12.252,0,0,1-.2-1.9S370.5,384.9,371,385.2Z"/><path class="d" d="M362.8,378.2c6.1,1.4,6.3-1.1,6.3-1.1,1.5-.4,2.3,7.2,1.8,8.2s-2.5,2.3-6.1,2.5c-2.7.1-4.6-.9-7.6-1.1-2.3-.1-6,.6-9.5-.8a19.48,19.48,0,0,1-4.1-2c-3.4-2.7-2.1-5.3-.1-6.4s5.6-.6,8.7-.8c3.3-.2,6.4,0,7.7-1.3C359.9,376,360.2,377.5,362.8,378.2Z"/><path class="d" d="M373.3,335.7l-3.4,37.8a10.828,10.828,0,0,1-9.8-1.8s-.3-32.9,0-40Z"/><path class="am" d="M338.7,394.2c-3.3.1-7,.1-9.4-1.2s-.7-2.9,1.4-3.2h.1a12.749,12.749,0,0,0,2-.1c3.8-.4,7.5-.2,8.1-2.3l.7-5a17.733,17.733,0,0,0,4,.8c4.1.3,5.4-.6,5.4-.6s-1.3,6.8-1.3,6.9C349.7,393.5,342.7,394.2,338.7,394.2Z"/><path class="l" d="M351.5,397.7c.2.1.1,1-.2,1.5a9.425,9.425,0,0,1-6.4,2.2c-2.3-.1-4.5-.8-6.5-1s-6,.5-9.6-.3-6.5-2.5-6.9-3.7a3.8,3.8,0,0,1-.2-2.1S351.2,397.4,351.5,397.7Z"/><path class="d" d="M343.5,390.9c6.2,1.2,6.3-1.3,6.3-1.3,1.4-.4,2.4,7.1,2,8.2s-2.4,2.4-6,2.7c-2.7.2-4.6-.8-7.6-.9-2.3-.1-5.9.6-9.5-.4a18.582,18.582,0,0,1-5-2.2c-3.4-2.6-1.4-5.1.5-6.2s5.5-.7,8.6-1c3.2-.3,6.4-.2,7.6-1.5C340.4,388.8,340.7,390.4,343.5,390.9Z"/><path class="e" d="M358.9,347.7l-7.6,38.1a14.984,14.984,0,0,1-10.6-1.2c.5-10.6,1.3-31.9,2.1-39.2Z"/><path class="e" d="M390.3,432.3a.9.9,0,0,0,.9-.9V374.5c-.1-.4-.4-.8-.8-.8a.974.974,0,0,0-1,.8v56.9h0a.9.9,0,0,0,.9.9Z"/><path class="e" d="M425.8,411.5h0a.756.756,0,0,0,.5-1.1l-17.4-44.1a.854.854,0,1,0-1.6.6L424.7,411a.76.76,0,0,0,.8.6A.367.367,0,0,0,425.8,411.5Z"/><path class="e" d="M423.4,406.3c.2,0,.4-.1.4-.3a.942.942,0,0,0,.1-1.3l-33.1-35a.713.713,0,0,0-.6-.3h0a.864.864,0,0,0-.6.3l-33,34.9a.919.919,0,1,0,1.3,1.3l32.4-34.2L422.7,406a1.08,1.08,0,0,0,.7.3Z"/><path class="e" d="M355.9,411l17.4-44.1a.854.854,0,1,0-1.6-.6l-17.4,44.1a.809.809,0,0,0,.5,1.1.367.367,0,0,0,.3.1A.76.76,0,0,0,355.9,411Z"/><path class="f" d="M356.3,359.6c1.3,4,19,15.5,26,16.4s43.6-19.8,43.6-19.8-24.5-14.8-32.6-19c-5.8-3-10.5-3.2-15.1-1.1a144.92,144.92,0,0,0-15.8,8.9c-5.4,3.6-8.3,6.4-7.7,10C354.7,355,355,355.6,356.3,359.6Z"/><path class="f" d="M385.6,377.3l-3.8.5c-4.8-.9-9.9-3.3-17-8.2s-8.7-7-9.4-8.8a23.01,23.01,0,0,1-.7-5.8s2,5.2,11.8,11.6c8.7,5.7,14.1,9.8,19.4,5"/><path class="ab" d="M385.9,371.6l-.3,5.7-3.8.5c-4.8-.9-9.9-3.3-17-8.2s-8.7-7-9.4-8.8a23.01,23.01,0,0,1-.7-5.8s2,5.2,11.8,11.6C375.2,372.3,380.7,376.4,385.9,371.6Z"/><path class="f" d="M422.5,405.6l2.1,5.7v.1h0l.3.3a1.708,1.708,0,0,0,1.4,0,1.38,1.38,0,0,0,.3-.4V411l-2.3-6Z"/><path class="f" d="M358.2,405.7l-2.1,5.7v.1h0l-.3.3a1.708,1.708,0,0,1-1.4,0,.781.781,0,0,1-.4-.4v-.3l2.3-6.1Z"/><path class="f" d="M389.4,427v5c0,.2.1.3.3.4a1.7,1.7,0,0,0,1.4,0c.2-.1.3-.2.3-.4v-5A2.323,2.323,0,0,0,389.4,427Z"/><path class="d" d="M384.1,345.6c-11.6,0-26.5-6-26.5-6s-.1-3.8,0-4.6c.3-4.1,1.7-5.6,4.6-6.9s12.7,1.1,17.8,2.5,34.5,10.3,34.5,10.3S395.7,345.6,384.1,345.6Z"/><path class="e" d="M387.2,342.2s-20.4-5.9-29.5-7.5c-8.7-1.6-14.5,2.1-14.9,10.7-.1.8,3.1,1.7,3.1,2.4.1,2.9,10.1,2.6,10.1,2.6s15.5,11.3,28.5,15.3c11.6,3.6,24.9-8.2,28.1-11.5,4.4-4.6,3.8-10.7,2-17Z"/><path class="ao" d="M384.5,365.8c-13-4-28.5-15.3-28.5-15.3s20.8,8.7,27,9.7,7.4-3.3,9.9-11.1l12-3.8s-2.6,10.1-4.8,18.1C395.3,365.8,389.8,367.3,384.5,365.8Z"/><path class="am" d="M416.1,313.4,421,325l-7.8,10.3s4.7,8,4.5,8.1c-.5.2,14.7-16.5,14.3-18.4-1-4.2-6.9-19.6-9.3-25.8S416,290.1,412,291Z"/><path class="i" d="M412.8,322.1c6.9,2.5,17.4-4,17.4-4-3-10-5.1-16.2-7.4-21.8s-5.9-7.4-11.1-5.9Z"/><path class="a" d="M420.7,311.6c.1,8.9-1.1,30.5-1.1,30.5s-1.8,6.1-13.2,8.3c-5.4,1.1-18.5,2-23.9-4.8-.8-7.3-.8-33.6-.8-33.6.6-12.4,1.2-16.7,5-18,1.3-.5,5.5-1.3,7.1-1.7,4.4,2.3,12.5.4,13-1.6,0,0,2.5-.3,3.9-.3,4.2-.1,6.2,1.4,7.9,5.2C419.5,297.7,420.7,303.9,420.7,311.6Z"/><path class="am" d="M334.4,309.9a10.614,10.614,0,0,1-3-6.7,7.564,7.564,0,0,1,1.3-5.3c.9-1.2,2.5-2,3.8-1.4a4.626,4.626,0,0,1,1.8,2.1c1.1,1.8,3.3,5.3,5.7,5.4a.44.44,0,0,0,.5-.1.758.758,0,0,0,.2-.4c.3-1,.3-2,.6-3a2.653,2.653,0,0,1,1.4-1.7c1.7-.7,1.4,1.6,1.3,2.5a17.851,17.851,0,0,0-.2,2.3c0,1.6-.3,4.5.9,5.8a8.016,8.016,0,0,0,1.9,1.3c2.5,1.5,5.1,2.9,7.6,4.3,3.1,1.7,6.2,3.4,9.3,5,0,0,8.1-15.7,10.7-20.3,3.1-5.5,4.9-5.3,8.1-5.6a29.574,29.574,0,0,1,1.4,17.4s-13,19.5-16.4,21.3-25.7-15.8-27.5-16.7A31.308,31.308,0,0,1,334.4,309.9Z"/><path class="f" d="M385.7,371.5c5.6-6,8.2-17.2,12.2-29.6,5.4-16.4,12.1-20.9,20.7-25.6,3.1-1.6,7.1-3.4,9.5-1.4h0l2.4,2-.9.1a10.225,10.225,0,0,1,.7,2.9c.9,8.7-1.7,28.6-5.5,35.4S411.1,366.5,398,372c-7.1,3-9.4,5.2-12.4,5.3"/><path class="o" d="M430.1,319.9c.9,8.7-1.7,28.6-5.5,35.4s-13.7,11.2-26.8,16.7c-7.1,3-9.4,5.2-12.4,5.3l.3-5.7c5.6-6,8.2-17.2,12.2-29.6,5.4-16.4,12.1-20.9,20.7-25.6,3.1-1.6,7.1-3.4,9.5-1.4h0l2.4,2-.9.1A5.569,5.569,0,0,1,430.1,319.9Z"/><path class="f" d="M432.9,321.9c.9,8.6-1.7,28.5-5.5,35.4-.7,1.2-5.1,4.6-12.3,8.6-3.7,2.1-9.3,5.7-13.9,7.6-14.6,6.2-19.3,4.3-19.3,4.3,10.5-2.9,13.4-17.4,18.7-33.8s12-20.9,20.6-25.6C425.5,316.1,432,313.3,432.9,321.9Z"/><path class="i" d="M393.6,288.1s-.5,0-1.4,1.2-2.7,4-2.7,4l1.4-.3a29.732,29.732,0,0,0,2.8,1.9,13.856,13.856,0,0,0,11.6.7c4.8-2,4.3-5.2,4.3-5.2a25.423,25.423,0,0,1-1.8-3c-.8-1.6-1.4-.8-1.4-.8l.1,1c-1.3,2.8-7.5,4-12.8,2.3Z"/><path class="i" d="M387.5,312.8s-10.6,15.9-13.3,18.9-3.8,3-6.9,1.3-18.1-13.1-18.1-13.1l5.2-7.1,13.2,6.6s9.4-18.9,11.8-22.2,3.6-3,7.4-3.3C391.9,305,387.5,312.8,387.5,312.8Z"/><path class="b" d="M226.4,222.2c1-.4,2,1.1,3.6,1.3,1.5.2,2.6-2,4.4-2.5s3.1,4.6,1.7-2.9c-.9-4.6-2-13.4-2.8-19.5H228c-.2,1.3-.3,2.8-.4,4.5C227.4,209.1,225.4,222.6,226.4,222.2Z"/><path class="b" d="M229.3,192.5a43.152,43.152,0,0,0-1.2,6.1h5.3a31.927,31.927,0,0,1-.2-6.7s-3.6-2.1-3.8-.1A3.2,3.2,0,0,0,229.3,192.5Z"/><path class="ap" d="M237.3,196.7c-.4-2.4-7.5,0-11.3-2.7-8.7-6.3-10.2-.9-10.2-.9l-2.8.9c6.6,17.1,21.3,11.7,21.3,11.7S238.6,202.9,237.3,196.7Z"/><path class="aq" d="M233.2,191.8a4.44,4.44,0,0,1-.8,1.1,10.625,10.625,0,0,1-1.1.9,5.376,5.376,0,0,1-2.8.8h0a5.263,5.263,0,0,1-1.8-.4,6.528,6.528,0,0,1-1.5-1,12.667,12.667,0,0,1-1.1-1.3,10.929,10.929,0,0,1-.8-1.5,1.794,1.794,0,0,1,.5.7l.6.6a11.986,11.986,0,0,0,1.2,1.1,6.375,6.375,0,0,0,1.4.8,4.013,4.013,0,0,0,1.5.3h0a6.963,6.963,0,0,0,2.5-.5A10.189,10.189,0,0,0,233.2,191.8Z"/><path class="ap" d="M235,195.3l1-2.9c.5.1.9.2.9.2a6.17,6.17,0,0,1,.4,4.3Z"/><path class="b" d="M211.1,189.3c5.8,10.9,10.4,16.9,18.9,16.7s7-13.2,6.1-13.6a4.707,4.707,0,0,1-.9-.3c-.5-.1-.8,0-1.2-.1a3.526,3.526,0,0,1-.9-.2c.1,1.6-9.6,7.9-11.7-8.5s8.9-22.8,8.9-22.8C208.3,152.4,205.6,178.7,211.1,189.3Z"/><path class="ap" d="M235.4,196.8a8.425,8.425,0,0,0,.3-4.4Z"/><path class="ap" d="M233.7,196.7a8.327,8.327,0,0,1,.8-4.3Z"/><path class="ar" d="M241.7,233.5a6.944,6.944,0,0,0-1.3.5c-.5.2-.9.5-1.3.7a8.341,8.341,0,0,0-1.2.8,5.241,5.241,0,0,1,1.1-1,8.264,8.264,0,0,1,1.3-.7,6.812,6.812,0,0,1,2.8-.7A7.366,7.366,0,0,0,241.7,233.5Z"/><path class="ar" d="M241.9,233.9c-.4.3-.7.6-1.1.9a9.429,9.429,0,0,0-1,1,10.625,10.625,0,0,0-.9,1.1,8.341,8.341,0,0,1,.8-1.2,5.242,5.242,0,0,1,1-1.1,7.935,7.935,0,0,1,2.5-1.5A5.671,5.671,0,0,0,241.9,233.9Z"/><path class="as" d="M233.7,221.2a22.606,22.606,0,0,0-2.1,1.6l-.3-11.2Z"/><path class="as" d="M228.8,223.1s-1.7-1.8-2.5-1l.7-11Z"/></g></svg>