<svg xmlns="http://www.w3.org/2000/svg" width="416.25" height="390.65" viewBox="0 0 416.25 390.65"><defs><style>.a{fill:#f5f5f5;}.b{fill:#e6e6e6;}.c{fill:#263238;}.d{fill:#455a64;}.e{fill:#37474f;}.f{fill:#e0e0e0;}.g,.m,.p{fill:#fff;}.h{fill:#06826a;}.i{fill:#ebebeb;}.j{fill:#fafafa;}.k{fill:#ff4c00;}.l,.n{opacity:0.1;}.m{opacity:0.4;}.o{opacity:0.15;}.p{opacity:0.7;}.q{fill:#ffa8a7;}.r{fill:#004436;}.s{fill:#f28f8f;}</style></defs><g transform="translate(-46.525 -65.875)"><path class="a" d="M401.8,426.6c-81.3,39.9-213,39.9-294.3,0s-81.3-104.5,0-144.4,213-39.9,294.3,0S483.1,386.7,401.8,426.6Z"/><ellipse class="b" cx="47.6" cy="23.3" rx="47.6" ry="23.3" transform="translate(69.5 359.6)"/><path class="c" d="M255.9,247.3l37.5,21.6a6.993,6.993,0,0,1,3,4.3l9.3,53.8a4.527,4.527,0,0,1-2,4.3l-24.2,14a5.508,5.508,0,0,1-5,0l-51.7-29.8a4.741,4.741,0,0,1,0-8.4l18.5-10.8a6.558,6.558,0,0,0,2.8-4.4l4.2-40.6A6.449,6.449,0,0,1,251,247,5.987,5.987,0,0,1,255.9,247.3Z"/><path class="d" d="M277.1,335.9V346a5.421,5.421,0,0,1-2.5-.6l-51.7-29.8a4.538,4.538,0,0,1-1.5-6.9h8.5Z"/><path class="c" d="M251.2,250l37.5,21.7a6.993,6.993,0,0,1,3,4.3l8.5,48.8a4.527,4.527,0,0,1-2,4.3l-18.6,10.7a5.508,5.508,0,0,1-5,0L222.9,310c-1.4-.8-1.4-2.1,0-2.9l18.6-10.7a6.558,6.558,0,0,0,2.8-4.4l4.2-40.6a1.774,1.774,0,0,1,1.7-1.8A4.18,4.18,0,0,1,251.2,250Z"/><path class="e" d="M222.9,307.1l18.6-10.7a6.871,6.871,0,0,0,1.9-1.9L300,327.2a4.1,4.1,0,0,1-1.7,2l-18.6,10.7a5.508,5.508,0,0,1-5,0L222.9,310C221.4,309.2,221.4,307.9,222.9,307.1Z"/><path class="d" d="M375.1,354.3l2.4-1.4a7.652,7.652,0,0,0,3.5-6.1v-161a7.652,7.652,0,0,0-3.5-6.1L180.7,66.7a8.05,8.05,0,0,0-7.1,0l-1.8,1a7.652,7.652,0,0,0-3.5,6.1V234.9a7.507,7.507,0,0,0,3.5,6.1L368,354.3A8.05,8.05,0,0,0,375.1,354.3Z"/><path class="c" d="M366.9,189.9l13.1-7.6a7.42,7.42,0,0,1,1,3.5v161a7.507,7.507,0,0,1-3.5,6.1l-2.4,1.4a8.05,8.05,0,0,1-7.1,0l-1.2-.7Z"/><path class="e" d="M371.6,352.3v-161a7.507,7.507,0,0,0-3.5-6.1L171.9,71.8c-2-1.1-3.5-.2-3.5,2V234.9a7.507,7.507,0,0,0,3.5,6.1L368.1,354.3C370,355.4,371.6,354.5,371.6,352.3Z"/><path class="f" d="M279.4,292.2l-18.6-10.7c-1.4-.8-2.5-.2-2.5,1.3a5.5,5.5,0,0,0,2.5,4.2l18.6,10.7c1.4.8,2.5.2,2.5-1.3A5.242,5.242,0,0,0,279.4,292.2Z"/><path class="g" d="M362.5,190,177.8,83c-1.1-.6-2-.1-2,1.2V224.6a4.559,4.559,0,0,0,2,3.5L362.6,334.8c1.1.6,2,.1,2-1.2v-140A4.688,4.688,0,0,0,362.5,190Z"/><path class="f" d="M349.2,193.5,155.3,81.5c-3.1-1.8-5.6-.3-5.6,3.2V211.3a5.886,5.886,0,0,0,2.6,4.5L350.2,330.1a1.6,1.6,0,0,0,2.6-1.5V199.8A7.963,7.963,0,0,0,349.2,193.5Z"/><path class="h" d="M149.7,87.7V84.8c0-3.6,2.5-5,5.6-3.2l193.9,112a7.936,7.936,0,0,1,3.6,6.2V205Z"/><path class="g" d="M173.2,94.4a4.364,4.364,0,0,1,1.9,3.3,1.166,1.166,0,0,1-1.9,1.1,4.093,4.093,0,0,1-1.9-3.3C171.3,94.2,172.1,93.7,173.2,94.4Z"/><path class="g" d="M165.5,90a4.364,4.364,0,0,1,1.9,3.3,1.166,1.166,0,0,1-1.9,1.1,4.093,4.093,0,0,1-1.9-3.3C163.6,89.8,164.4,89.3,165.5,90Z"/><path class="g" d="M157.9,85.5a4.093,4.093,0,0,1,1.9,3.3,1.166,1.166,0,0,1-1.9,1.1,4.364,4.364,0,0,1-1.9-3.3C156,85.4,156.8,84.9,157.9,85.5Z"/><path class="i" d="M162,109.9a.862.862,0,0,1,1.3-.4l123.3,71.2a2.189,2.189,0,0,1,.9,1l4.1-2.4a2.189,2.189,0,0,0-.9-1L167.4,107.1a2.967,2.967,0,0,0-2.6,0l-1.5.8A3.488,3.488,0,0,0,162,109.9Z"/><path class="j" d="M161.9,110.3v53.3a2.772,2.772,0,0,0,1.3,2.3l123.3,71.2.2.1a.349.349,0,0,1,.2.1h0c.5.1.8-.3.8-.9V183a2.01,2.01,0,0,0-.4-1.3,2.189,2.189,0,0,0-.9-1L163.1,109.5c-.6-.3-1.1-.2-1.3.4v.1A.367.367,0,0,1,161.9,110.3Z"/><path class="f" d="M287,237.2a2.462,2.462,0,0,0,1.2.1,1.613,1.613,0,0,0,.9-.3l1.5-.8a2.879,2.879,0,0,0,1.3-2.3V180.6a2.01,2.01,0,0,0-.4-1.3l-4.1,2.4a2.836,2.836,0,0,1,.4,1.3v53.3C287.8,237,287.5,237.3,287,237.2Z"/><path class="k" d="M165.5,144.2a.574.574,0,0,0-.2.7l4.9,9.6a4.834,4.834,0,0,0,2.3,3.8,4.234,4.234,0,0,0,1.2.4,2.354,2.354,0,0,0,.8-.2,1.561,1.561,0,0,0,.8-1.3l8.4-1.4a4.909,4.909,0,0,0,2.2,3.4,2.663,2.663,0,0,0,1.2.3,2.354,2.354,0,0,0,.8-.2,1.841,1.841,0,0,0,.8-1.8,4.136,4.136,0,0,0-.5-1.9l10.6-9.7a3.745,3.745,0,0,0,1.3,1.2,1.689,1.689,0,0,0,1,.3l7.7,23.2a2.836,2.836,0,0,0-.4,1.3,5.085,5.085,0,0,0,2.3,4,3.374,3.374,0,0,0,1.2.4,2.354,2.354,0,0,0,.8-.2,1.841,1.841,0,0,0,.8-1.8,3.4,3.4,0,0,0-.1-1l8.9-6.4a4.7,4.7,0,0,0,2.1,2.7,4.234,4.234,0,0,0,1.2.4.6.6,0,0,0,.4-.1l7.2,21.2a2.136,2.136,0,0,0-.8,1.7,4.763,4.763,0,0,0,2.3,3.9,4.234,4.234,0,0,0,1.2.4,2.354,2.354,0,0,0,.8-.2,1.445,1.445,0,0,0,.7-1l11.3,6.5A4.91,4.91,0,0,0,251,206a3.374,3.374,0,0,0,1.2.4,2.354,2.354,0,0,0,.8-.2,1.841,1.841,0,0,0,.8-1.8v-.1l7.5-3a5.662,5.662,0,0,0,1.9,2.4,2.663,2.663,0,0,0,1.2.3,2.354,2.354,0,0,0,.8-.2h0l8.3,15.8a2.662,2.662,0,0,0-.3,1.2,5.085,5.085,0,0,0,2.3,4,2.663,2.663,0,0,0,1.2.3,2.354,2.354,0,0,0,.8-.2,1.445,1.445,0,0,0,.7-1l5.5,3.2c.1,0,.2.1.3.1.2,0,.3-.1.4-.3a.527.527,0,0,0-.2-.7l-5.9-3.5a4.91,4.91,0,0,0-2.3-3.6,2.492,2.492,0,0,0-1.7-.3l-8.4-16.1a1.412,1.412,0,0,0,.1-.9,4.764,4.764,0,0,0-2.3-3.9,2.01,2.01,0,0,0-1.3-.4,1.8,1.8,0,0,0-1.5,2,1.268,1.268,0,0,0,.1.6l-7.4,3a4.61,4.61,0,0,0-2.1-2.8,1.66,1.66,0,0,0-1.9-.1,1.445,1.445,0,0,0-.7,1l-11.4-6.5a4.91,4.91,0,0,0-2.3-3.6,1.689,1.689,0,0,0-1-.3l-7.4-21.5a2.836,2.836,0,0,0,.4-1.3,5.085,5.085,0,0,0-2.3-4,2.01,2.01,0,0,0-1.3-.4,1.8,1.8,0,0,0-1.5,2v.1l-9.1,6.6a4.939,4.939,0,0,0-1.8-2,2.223,2.223,0,0,0-1.6-.3l-7.5-22.7a1.689,1.689,0,0,0,.8-1.7,4.763,4.763,0,0,0-2.3-3.9,2.01,2.01,0,0,0-1.3-.4,1.8,1.8,0,0,0-1.5,2,4.136,4.136,0,0,0,.5,1.9l-10.6,9.7a3.745,3.745,0,0,0-1.3-1.2,1.857,1.857,0,0,0-1.9-.1,1.561,1.561,0,0,0-.8,1.3l-8.4,1.4a5.257,5.257,0,0,0-2.2-3.4,1.857,1.857,0,0,0-1.9-.1c-.2.1-.3.3-.5.4l-4.4-8.6h0c-.2-.5-.5-.6-.8-.4ZM274,220.8a1.086,1.086,0,0,1,.4-.9c.1,0,.2-.1.3-.1a1.072,1.072,0,0,1,.6.2,4.169,4.169,0,0,1,1.8,3.1,1.086,1.086,0,0,1-.4.9.94.94,0,0,1-.9-.1A3.654,3.654,0,0,1,274,220.8Zm-10.5-18a4.169,4.169,0,0,1-1.8-3.1,1.4,1.4,0,0,1,.3-.9c.1,0,.2-.1.3-.1a1.854,1.854,0,0,1,.7.2,4.169,4.169,0,0,1,1.8,3.1,1.086,1.086,0,0,1-.4.9c-.2.2-.6.1-.9-.1Zm-12.1,2.4a4.047,4.047,0,0,1-1.8-3.1,1.4,1.4,0,0,1,.3-.9c.1,0,.2-.1.3-.1a1.854,1.854,0,0,1,.7.2,4.047,4.047,0,0,1,1.8,3.1,1.4,1.4,0,0,1-.3.9,1.1,1.1,0,0,1-1-.1Zm-18.1-12.5a1.086,1.086,0,0,1,.4-.9c.1,0,.2-.1.3-.1a1.072,1.072,0,0,1,.6.2,4.169,4.169,0,0,1,1.8,3.1,1.086,1.086,0,0,1-.4.9.94.94,0,0,1-.9-.1A4.354,4.354,0,0,1,233.3,192.7ZM223,165.6a1.086,1.086,0,0,1,.4-.9c.1,0,.2-.1.3-.1a1.072,1.072,0,0,1,.6.2,4.169,4.169,0,0,1,1.8,3.1,1.884,1.884,0,0,1-.2.8h0l-.1.1a.94.94,0,0,1-.9-.1A3.756,3.756,0,0,1,223,165.6Zm-13.6,6.3a1.136,1.136,0,0,1,.3-.8h0l.1-.1c.1,0,.2-.1.3-.1a1.854,1.854,0,0,1,.7.2,4.169,4.169,0,0,1,1.8,3.1,1.4,1.4,0,0,1-.3.9.94.94,0,0,1-.9-.1A3.779,3.779,0,0,1,209.4,171.9Zm-10.6-28.7a1.4,1.4,0,0,1,.3-.9c.1,0,.2-.1.3-.1a1.854,1.854,0,0,1,.7.2,4.169,4.169,0,0,1,1.8,3.1,1.086,1.086,0,0,1-.4.9.94.94,0,0,1-.9-.1A3.892,3.892,0,0,1,198.8,143.2Zm-14.2,12c0-.4.1-.8.3-.9.1,0,.2-.1.3-.1a1.854,1.854,0,0,1,.7.2,4.169,4.169,0,0,1,1.8,3.1,1.4,1.4,0,0,1-.3.9.94.94,0,0,1-.9-.1A3.755,3.755,0,0,1,184.6,155.2ZM173,157.4a4.158,4.158,0,0,1-1.8-3,1.086,1.086,0,0,1,.4-.9c.1,0,.2-.1.3-.1a1.072,1.072,0,0,1,.6.2,4.169,4.169,0,0,1,1.8,3.1,1.086,1.086,0,0,1-.4.9.8.8,0,0,1-.9-.2Z"/><path class="i" d="M235.1,217.8a.862.862,0,0,1,1.3-.4l50.2,29a2.189,2.189,0,0,1,.9,1l4.1-2.4a2.189,2.189,0,0,0-.9-1l-50.2-29a2.967,2.967,0,0,0-2.6,0l-1.5.8A3.206,3.206,0,0,0,235.1,217.8Z"/><path class="j" d="M235,218.2v39.2a3.214,3.214,0,0,0,1.3,2.3l47.4,27.4,2.8,1.6.2.1h0c.6.2,1.1-.1,1.1-.9V248.7a1.922,1.922,0,0,0-.4-1.2,2.932,2.932,0,0,0-.9-1l-50.2-29c-.6-.3-1.1-.2-1.3.4v.1S235,218.1,235,218.2Z"/><path class="f" d="M286.8,288.8l.2.1c.1,0,.1,0,.2.1.1,0,.2.1.3.1h.3a1.7,1.7,0,0,0,.7-.1,1.421,1.421,0,0,0,.6-.2l1.5-.9a2.645,2.645,0,0,0,1.3-2.3V246.4a2.2,2.2,0,0,0-.4-1.3l-4,2.4a5.637,5.637,0,0,1,.4,1.2v39.2C287.8,288.6,287.4,289,286.8,288.8Z"/><path class="h" d="M283.8,281.4V255.3a1.859,1.859,0,0,0-.9-1.5l-2.3-1.4a.552.552,0,0,0-.9.5V279a1.859,1.859,0,0,0,.9,1.5l2.3,1.3C283.4,282.2,283.8,281.9,283.8,281.4Z"/><path class="k" d="M275.6,276.7V245.9a1.65,1.65,0,0,0-.9-1.5l-2.4-1.4a.552.552,0,0,0-.9.5v30.8a1.859,1.859,0,0,0,.9,1.5l2.3,1.4C275.3,277.5,275.6,277.2,275.6,276.7Z"/><path class="h" d="M267.5,272V257.2a1.859,1.859,0,0,0-.9-1.5l-2.3-1.3c-.5-.3-.9-.1-.9.5v14.8a1.65,1.65,0,0,0,.9,1.5l2.3,1.4A.615.615,0,0,0,267.5,272Z"/><path class="h" d="M259.4,267.3V248.1a1.859,1.859,0,0,0-.9-1.5l-2.3-1.4c-.5-.3-.9-.1-.9.5V265a1.859,1.859,0,0,0,.9,1.5l2.3,1.4C259,268.1,259.4,267.9,259.4,267.3Z"/><path class="k" d="M251.3,262.6v-6.5a1.859,1.859,0,0,0-.9-1.5l-2.3-1.4c-.5-.3-.9-.1-.9.5v6.5a1.859,1.859,0,0,0,.9,1.5l2.3,1.4C250.9,263.4,251.3,263.2,251.3,262.6Z"/><path class="h" d="M243.2,257.9V236.4a1.859,1.859,0,0,0-.9-1.5l-2.3-1.3a.552.552,0,0,0-.9.5v21.4a1.859,1.859,0,0,0,.9,1.5l2.3,1.4C242.8,258.7,243.2,258.5,243.2,257.9Z"/><path class="i" d="M162,175.6a.862.862,0,0,1,1.3-.4l62.4,36a3.178,3.178,0,0,1,1,1l4-2.4a2.189,2.189,0,0,0-.9-1l-62.4-36a2.967,2.967,0,0,0-2.6,0l-1.5.8A2.969,2.969,0,0,0,162,175.6Z"/><path class="j" d="M161.9,176v39.2a3.214,3.214,0,0,0,1.3,2.3l59.6,34.4,2.8,1.6.2.1h0c.6.2,1.1-.1,1.1-.9V213.5a1.922,1.922,0,0,0-.4-1.2,2.41,2.41,0,0,0-1-1l-62.4-36c-.6-.3-1.1-.2-1.3.4v.1C161.9,175.8,161.9,175.9,161.9,176Z"/><path class="f" d="M225.8,253.6l.2.1c.1,0,.1,0,.2.1.1,0,.2.1.3.1h.3a1.7,1.7,0,0,0,.7-.1,1.422,1.422,0,0,0,.6-.2l1.5-.9a2.645,2.645,0,0,0,1.3-2.3V211.2a2.2,2.2,0,0,0-.4-1.3l-4,2.4a5.637,5.637,0,0,1,.4,1.2v39.2C226.9,253.5,226.4,253.8,225.8,253.6Z"/><path class="k" d="M203.8,207.9l3.2,12a8.67,8.67,0,0,0,1.4,2.7l10.4,12.5a5.794,5.794,0,0,0,2.5-4.1c.7-4-1.3-9.5-5.4-14.4-.7-.8-1.4-1.6-2.1-2.3A24.576,24.576,0,0,0,203.8,207.9Z"/><path class="h" d="M195.1,223.1c4.6,7.8,13.4,13.7,20,13.3a5.834,5.834,0,0,0,2.6-.6l-10.3-12.4a2.989,2.989,0,0,0-2.1-1h-.1Z"/><path class="h" d="M196,207.7l9.6,11.5-3.2-11.7A9.4,9.4,0,0,0,196,207.7Z"/><path class="h" d="M194.4,221.9l10.7-.7a.756.756,0,0,0,.4-.1c0-.1,0-.1-.1-.2l-.1-.1-10.4-12.5C191.5,210.6,191.3,215.9,194.4,221.9Z"/><path class="h" d="M188.1,199.5c0,.7-.6,1-1.3.6l-19.5-11.3a2.766,2.766,0,0,1-1.3-2c0-.7.6-1,1.3-.6l19.5,11.3A2.766,2.766,0,0,1,188.1,199.5Z"/><path class="f" d="M188.1,207.3c0,.7-.6,1-1.3.6l-19.5-11.3a2.772,2.772,0,0,1-1.3-2.1c0-.7.6-1,1.3-.6l19.5,11.3A3.168,3.168,0,0,1,188.1,207.3Z"/><path class="f" d="M188.1,212.2c0,.7-.6,1-1.3.6l-19.5-11.3a2.772,2.772,0,0,1-1.3-2.1c0-.7.6-1,1.3-.6l19.5,11.3A2.956,2.956,0,0,1,188.1,212.2Z"/><path class="f" d="M188.1,217c0,.7-.6,1-1.3.6l-19.5-11.3a2.772,2.772,0,0,1-1.3-2.1c0-.7.6-1,1.3-.6l19.5,11.3A3.168,3.168,0,0,1,188.1,217Z"/><path class="f" d="M188.1,221.9c0,.7-.6,1-1.3.6l-19.5-11.3a2.772,2.772,0,0,1-1.3-2.1c0-.7.6-1,1.3-.6l19.5,11.3A2.772,2.772,0,0,1,188.1,221.9Z"/><path class="i" d="M304.1,213.1a.862.862,0,0,1,1.3-.4l34,19.6a2.836,2.836,0,0,1,.9,1l4-2.4a2.189,2.189,0,0,0-.9-1l-34-19.6a2.967,2.967,0,0,0-2.6,0l-1.5.9A3.865,3.865,0,0,0,304.1,213.1Z"/><path class="j" d="M304.1,213.5v11.1a2.772,2.772,0,0,0,1.3,2.3l34,19.6.2.1h.1c.6.2,1-.2,1-.9V234.6a2.01,2.01,0,0,0-.4-1.3,2.837,2.837,0,0,0-.9-1l-34-19.6a.775.775,0,0,0-1.3.4v.1Q304.1,213.35,304.1,213.5Z"/><path class="f" d="M339.6,246.6a.9.9,0,0,0,.5.1,3.812,3.812,0,0,0,1.5-.1l.3-.1,1.5-.8a2.645,2.645,0,0,0,1.3-2.3V232.3a2.01,2.01,0,0,0-.4-1.3l-4.1,2.3a2.836,2.836,0,0,1,.4,1.3v11.1C340.6,246.4,340.2,246.8,339.6,246.6Z"/><path class="i" d="M304.1,234.2a.862.862,0,0,1,1.3-.4l34,19.6a2.836,2.836,0,0,1,.9,1l4.1-2.3a2.189,2.189,0,0,0-.9-1l-34-19.6a2.967,2.967,0,0,0-2.6,0l-1.5.9A2.937,2.937,0,0,0,304.1,234.2Z"/><path class="j" d="M304.1,234.6v11.1a2.772,2.772,0,0,0,1.3,2.3l34,19.6.2.1h.1c.6.2,1-.2,1-.9V255.7a2.01,2.01,0,0,0-.4-1.3,2.837,2.837,0,0,0-.9-1l-34-19.6a.775.775,0,0,0-1.3.4v.1Q304.1,234.45,304.1,234.6Z"/><path class="f" d="M339.6,267.7a.9.9,0,0,0,.5.1,3.812,3.812,0,0,0,1.5-.1l.3-.1,1.5-.8a2.645,2.645,0,0,0,1.3-2.3V253.4a2.01,2.01,0,0,0-.4-1.3l-4.1,2.3a2.836,2.836,0,0,1,.4,1.3v11.1C340.6,267.5,340.2,267.9,339.6,267.7Z"/><path class="i" d="M304.1,255.4a.862.862,0,0,1,1.3-.4l34,19.6a2.836,2.836,0,0,1,.9,1l4.1-2.3a2.189,2.189,0,0,0-.9-1l-34-19.6a2.967,2.967,0,0,0-2.6,0l-1.5.9A2.482,2.482,0,0,0,304.1,255.4Z"/><path class="j" d="M304.1,255.7v11.1a2.772,2.772,0,0,0,1.3,2.3l34,19.6.2.1h.1c.6.2,1-.2,1-.9v-11a2.01,2.01,0,0,0-.4-1.3,2.837,2.837,0,0,0-.9-1l-34-19.6a.775.775,0,0,0-1.3.4v.1C304.1,255.6,304.1,255.6,304.1,255.7Z"/><path class="f" d="M339.6,288.8a.9.9,0,0,0,.5.1,3.812,3.812,0,0,0,1.5-.1l.3-.1,1.5-.8a2.645,2.645,0,0,0,1.3-2.3V274.5a2.01,2.01,0,0,0-.4-1.3l-4.1,2.3a2.836,2.836,0,0,1,.4,1.3v11.1C340.6,288.6,340.2,289,339.6,288.8Z"/><path class="i" d="M304.1,276.5a.862.862,0,0,1,1.3-.4l34,19.6a2.836,2.836,0,0,1,.9,1l4.1-2.3a2.189,2.189,0,0,0-.9-1l-34-19.6a2.967,2.967,0,0,0-2.6,0l-1.5.9A2.482,2.482,0,0,0,304.1,276.5Z"/><path class="j" d="M304.1,276.9V288a2.772,2.772,0,0,0,1.3,2.3l34,19.6.2.1h.1c.6.2,1-.2,1-.9v-11a2.01,2.01,0,0,0-.4-1.3,2.837,2.837,0,0,0-.9-1l-34-19.6a.775.775,0,0,0-1.3.4v.1S304.1,276.8,304.1,276.9Z"/><path class="f" d="M339.6,309.9a.9.9,0,0,0,.5.1,3.812,3.812,0,0,0,1.5-.1l.3-.1,1.5-.8a2.645,2.645,0,0,0,1.3-2.3V295.6a2.01,2.01,0,0,0-.4-1.3l-4.1,2.3a2.836,2.836,0,0,1,.4,1.3V309C340.6,309.7,340.2,310.1,339.6,309.9Z"/><path class="h" d="M300.6,195.6h-.1l3.6-2.1V192a2.781,2.781,0,0,1,1.3-1.9l1.5-.9a2.967,2.967,0,0,1,2.6,0l34,19.6a2.645,2.645,0,0,1,1.3,2.3v11.1a2.772,2.772,0,0,1-1.3,2.3l-1.5.8-.3.1a2.573,2.573,0,0,1-1.5.1c-.2,0-.3-.1-.5-.1h-.1l-.2-.1-34-19.6a2.645,2.645,0,0,1-1.3-2.3v-3.2l-3.7-4.3a.3.3,0,0,1,0-.4C300.4,195.6,300.5,195.6,300.6,195.6Z"/><path class="l" d="M339.6,225.5a.9.9,0,0,0,.5.1,3.812,3.812,0,0,0,1.5-.1l.3-.1,1.5-.8a2.645,2.645,0,0,0,1.3-2.3V211.2a2.01,2.01,0,0,0-.4-1.3l-4.1,2.3a2.836,2.836,0,0,1,.4,1.3v11.1C340.6,225.3,340.2,225.6,339.6,225.5Z"/><path class="m" d="M304.1,192a.862.862,0,0,1,1.3-.4l34,19.6a2.836,2.836,0,0,1,.9,1l4.1-2.3a2.189,2.189,0,0,0-.9-1l-34-19.6a2.967,2.967,0,0,0-2.6,0l-1.5.9A2.689,2.689,0,0,0,304.1,192Z"/><path class="m" d="M300.6,195.6h3.5v-2.1l-3.6,2.1Z"/><path class="h" d="M410,374.3l-7-4s-3.4-18.5-.9-34.5c3.5-22.4,18.8-30.1,24.3-27.9s6.8,8.9-3.2,21.8C417.4,337.4,409.8,353.5,410,374.3Z"/><g class="n"><path d="M410,374.3l-7-4s-3.4-18.5-.9-34.5c3.5-22.4,18.8-30.1,24.3-27.9s6.8,8.9-3.2,21.8C417.4,337.4,409.8,353.5,410,374.3Z"/></g><path class="g" d="M407.5,365.4h0a.56.56,0,0,0,.5-.6c-2.9-21,5.5-44,15-53.2a.483.483,0,0,0,0-.7h0a.483.483,0,0,0-.7,0h0c-9.6,9.4-18.3,32.8-15.3,54.1C407,365.3,407.2,365.4,407.5,365.4Z"/><path class="k" d="M429.5,385.6c1.1.6,3.4-.8,4.3-1.4a10.124,10.124,0,0,0,4.4-10,18.727,18.727,0,0,0-.8-3.2c-.3-1-.6-2-.9-3.1a6.5,6.5,0,0,1-.4-3.1c.3-2.1,2.1-3.6,3.8-4.8,1.9-1.4,3.8-3.3,3.8-5.8a8.687,8.687,0,0,0-2.2-5.3c-1.2-1.5-2.6-2.9-3.7-4.5a6.116,6.116,0,0,1-1.3-3.9,5.813,5.813,0,0,1,.9-2.5,46.744,46.744,0,0,0,2.7-4.9c.6-1.8.5-4-.9-5.2a6.106,6.106,0,0,0-4.4-1.1,11.229,11.229,0,0,0-4,1.4c-4,2.2-6.3,7-10.6,8.7a47.674,47.674,0,0,1-5.1,1.3,6.488,6.488,0,0,0-4.3,2.9c-1.6,3.1,1.3,7,.2,10.3-1,2.9-3.8,4.1-5.4,6.7a6.406,6.406,0,0,0-.8,3.8,18.268,18.268,0,0,0,1.6,6.5,34.963,34.963,0,0,0,3.6,5.8C410.1,374.4,429.3,385.5,429.5,385.6Z"/><path class="g" d="M418.1,379.5h0a.472.472,0,0,0,.5-.5h0c-.8-19.9,8.5-41.8,15.3-48.1a.495.495,0,0,0-.7-.7c-6.9,6.5-16.5,28.8-15.6,48.9a.458.458,0,0,0,.5.4Z"/><path class="g" d="M421.1,356h.1a63.624,63.624,0,0,1,14.4-2.3.472.472,0,0,0,.5-.5h0a.472.472,0,0,0-.5-.5h0a72.751,72.751,0,0,0-14.7,2.4.441.441,0,0,0-.4.6c0,.3.3.4.6.3Z"/><path class="h" d="M346.1,334.2h0a3.18,3.18,0,0,1,2-2.7,10.59,10.59,0,0,1,9.5,0,3.313,3.313,0,0,1,2,2.7h0l2.7,69.9h0c.1,1.5-.8,2.9-2.7,4a14.826,14.826,0,0,1-13.3,0c-1.9-1.1-2.8-2.6-2.7-4h0Z"/><path class="o" d="M357.6,331.5c2.6,1.5,2.6,4,0,5.5a10.59,10.59,0,0,1-9.5,0c-2.6-1.5-2.6-4,0-5.5A10,10,0,0,1,357.6,331.5Z"/><path class="c" d="M350,311.9a6.354,6.354,0,0,1,5.7,0,1.986,1.986,0,0,1,1.2,1.6h0v20.6h0a2.137,2.137,0,0,1-1.2,1.7,6.354,6.354,0,0,1-5.7,0,2,2,0,0,1-1.2-1.7V313.5h0A1.815,1.815,0,0,1,350,311.9Z"/><path class="h" d="M307.6,262.9c0,22,15.5,48.8,34.5,59.8,6.4,3.7,12.4,5.1,17.5,4.6l.9-.1h.2c.3,0,.5-.1.8-.1.1,0,.3-.1.4-.1.2,0,.4-.1.6-.1a1.421,1.421,0,0,0,.6-.2l.5-.1a3,3,0,0,0,1-.4c.3-.2.7-.3,1-.5a5.937,5.937,0,0,0,.8-.4l.2-.1h.1l14.2-8.2h.1c6.2-3.6,10-11.3,10-22.3,0-22-15.5-48.8-34.5-59.8-5.5-3.2-10.8-4.7-15.4-4.7a17.388,17.388,0,0,0-8.9,2.3h-.1l-14.2,8.2h-.1l-.2.1-.9.6-.5.4a2.182,2.182,0,0,0-.5.4,9.017,9.017,0,0,0-1,.9l-.4.4-.3.3-.3.4a19.521,19.521,0,0,0-1.7,2.3c-.1.1-.1.2-.2.3-.1.2-.3.5-.3.5l-.1.1-.3.6c-.1.2-.2.3-.3.5a5.74,5.74,0,0,1-.4.7,4.18,4.18,0,0,0-.4,1,3.553,3.553,0,0,1-.4.9c0,.1,0,.1-.1.1-.1.3-.2.7-.3,1l-.6,2.1c-.1.3-.1.5-.2.8a2.92,2.92,0,0,0-.2.9c-.1.6-.2,1.3-.3,2a2.485,2.485,0,0,1-.1.8,4.869,4.869,0,0,1-.1,1.2,4.868,4.868,0,0,0-.1,1.2C307.6,261.9,307.6,262.4,307.6,262.9Zm23.1-17.1a28.776,28.776,0,0,1,7.9,3.3c16.8,9.7,31,34.3,31,53.7a29.824,29.824,0,0,1-1.1,8.4,28.777,28.777,0,0,1-7.9-3.3c-16.8-9.7-31-34.3-31-53.7a34.6,34.6,0,0,1,1.1-8.4Z"/><path class="l" d="M367,324.9l13.8-7.9c6.2-3.6,10-11.4,10-22.3,0-9.8-3.1-20.6-8.2-30.5l-14.2,8.2c5.1,9.9,8.2,20.6,8.2,30.5C376.7,313.6,373,321.2,367,324.9Z"/><path class="m" d="M307.5,262.9c0,22,15.5,48.8,34.5,59.8,6.4,3.7,12.4,5.1,17.5,4.6l.9-.1h.2c.3,0,.5-.1.8-.1.1,0,.3-.1.4-.1.2,0,.4-.1.6-.1a.764.764,0,0,0,.5-.2l.5-.1a3,3,0,0,0,1-.4c.3-.2.7-.3,1-.5a5.937,5.937,0,0,0,.8-.4c6.4-3.5,10.4-11.3,10.4-22.5,0-22-15.5-48.8-34.5-59.8-9.7-5.6-18.4-6-24.7-2.2l-.9.6-.5.4a2.182,2.182,0,0,0-.5.4,9.017,9.017,0,0,0-1,.9l-.4.4-.3.3-.3.4a19.521,19.521,0,0,0-1.7,2.3c-.1.1-.1.2-.2.3-.1.2-.3.5-.3.5l-.1.1-.3.6c-.1.2-.2.3-.3.5a5.74,5.74,0,0,1-.4.7,4.18,4.18,0,0,0-.4,1,3.553,3.553,0,0,1-.4.9c0,.1,0,.1-.1.1-.1.3-.2.7-.3,1l-.6,2.1c-.1.3-.1.5-.2.8a2.92,2.92,0,0,0-.2.9c-.1.6-.2,1.3-.3,2a2.485,2.485,0,0,1-.1.8,4.869,4.869,0,0,1-.1,1.2,4.868,4.868,0,0,0-.1,1.2A3.384,3.384,0,0,1,307.5,262.9Zm7.2.1c0-5.3,1.2-17.7,12.1-17.7a18.251,18.251,0,0,1,4,.5,28.776,28.776,0,0,1,7.9,3.3c16.8,9.7,31,34.3,31,53.7a29.824,29.824,0,0,1-1.1,8.4c-1.4,4.7-4.4,9.2-11,9.2-3.5,0-7.6-1.3-11.9-3.8C328.8,307,314.6,282.4,314.7,263Z"/><path class="l" d="M314.6,263c0,19.4,14.2,44,31,53.7,4.3,2.5,8.4,3.8,11.9,3.8,6.6,0,9.6-4.5,11-9.2a28.777,28.777,0,0,1-7.9-3.3c-16.8-9.7-31-34.3-31-53.7a29.824,29.824,0,0,1,1.1-8.4,18.251,18.251,0,0,0-4-.5C315.8,245.3,314.6,257.6,314.6,263Z"/><path class="p" d="M320.6,259.6c0,19.4,14.2,44,31,53.7,4.3,2.5,8.4,3.8,11.9,3.8a14.918,14.918,0,0,0,2.1-.2,15.411,15.411,0,0,0,2.9-5.7,33.967,33.967,0,0,0,1.1-8.4c0-19.4-14.2-44-31-53.7a28.776,28.776,0,0,0-7.9-3.3,18.251,18.251,0,0,0-4-.5,14.92,14.92,0,0,0-2.1.2C321.2,249.6,320.6,256.1,320.6,259.6Z"/><path class="l" d="M354.8,337.9l1.8,71.3a10.208,10.208,0,0,0,2.9-1.1c1.9-1.1,2.8-2.6,2.7-4h0l-2.7-69.9a3.18,3.18,0,0,1-2,2.7A9.868,9.868,0,0,1,354.8,337.9Z"/><path class="i" d="M362.1,111l6.9,4c0-.3-.1-.6-.1-.9v-2c0-3.5,2.5-5,5.6-3.2a11.169,11.169,0,0,1,3.3,3.2c.5-4.4,4-6.1,8.2-3.7,4.6,2.6,8.3,9.1,8.3,14.4v3a7.674,7.674,0,0,1-.7,3.4l5.7,3.3a6.741,6.741,0,0,1,3.1,5.3c0,2-1.4,2.8-3.1,1.8l-37.2-21.5a6.9,6.9,0,0,1-3.1-5.3C359.1,110.8,360.4,110,362.1,111Z"/><path class="c" d="M86.2,371.9c-.6.2-.7,1.4-.8,3.6,0,1.7-.3,4.6,1.7,5.2s4.9.2,6.1-1.4c1.5-2,2.6-3.8,4.8-6.3,1.9-2.1,4-4.1,4.7-7.1.6-2.7,0-3.8-1.8-4.6-2.5-1-6.4,2.6-8.3,3.1C90.9,365,86.8,371.7,86.2,371.9Z"/><path class="q" d="M86.1,369.9l.1,2.7a6.591,6.591,0,0,0,6.9,0c.1-.3.6-3.9.6-3.9Z"/><path class="c" d="M108.7,387.2s-.7,2.4-1.1,4.5c-.3,1.7-.7,4.4-.1,5.7s2.9,2,6.4,1.9c2.3-.1,5.8,1.4,8.3,2.7s7.8,1.8,10.4,1.4c3.1-.4,6.3-2.3,6.8-3.6s-.2-2.6-7.6-5.6c-.1,0-10.3-3.1-13.9-6.9Z"/><path class="q" d="M108.6,384.3s.1,2,.1,3.2,1.4,2.9,5,2.6c2.5-.1,4.2-.9,4.1-2.9l-.1-3Z"/><path class="e" d="M83.5,333.6a75.536,75.536,0,0,1,2.9-14.3s-1.3-12.3-2-23.9c-.8-12.6-1.5-19.1,1-37.2,0,0,38.6-3.5,39.6,11.1,1,14.5-.4,51.7-.8,58.1s-1.3,12.1-2.4,22.5-4.2,34.5-4.2,34.5a9.563,9.563,0,0,1-9,0s-3.5-29.1-3.4-36.4a63.481,63.481,0,0,1,2.4-16.2s-1-12-2-22.4-1.8-15.4-2-20l-.9-.4s-.5,18-.8,24.4-1.2,12.6-2.8,24.5c-1.4,10.4-5.6,32.4-5.6,32.4-4.6,2.6-7.4-.2-7.4-.2S82.5,342.6,83.5,333.6Z"/><path class="c" d="M103.7,289.3s-10-4.6-15-8.9c0,0,4.7,6.4,10.8,9.1,0,0,2.6,22.3,2.6,21.9l.7-22.1Z"/><path class="q" d="M110.6,206.2l-1.5,13.4-12.6-.7,1.4-15.5Z"/><path class="e" d="M91.8,211.3c-4.7-.2-7.1.5-9.2,4.5s-2.9,16.1-3.7,22.3-.9,10.6,1.6,11.3,12.5.9,12.5.9Z"/><path class="d" d="M83.9,218.2c.7-3.7,5.6-7.6,10.2-6.9l3.1.5c.5,2.2,6.7,3.6,12.6,2.3,1.8.5,7.6,1.6,9.1,2.1,4.2,1.4,6,5.6,6.6,19.3,0,0-.3,31.2-.2,37.3-10.4,4.4-21.3,4.5-27.4,3.3-12.6-2.5-14.3-7.6-14.3-7.6l1.9-14.3C85.4,254.3,82.4,226.7,83.9,218.2Z"/><path class="e" d="M110.1,210.6l-.1.8a19.951,19.951,0,0,1-7.7,0c-4.1-.9-4.9-2.1-4.9-2.1l.1-1s-1-.4-1.5,1.2c-.2.6-.4,1.3-.6,1.9,0,0-.5,2.9,4.3,4.3a14.828,14.828,0,0,0,12-1.3l1.9.4s-1.6-3.8-2.1-4.5a1.387,1.387,0,0,0-1.2-.7Z"/><path class="d" d="M148.5,196.3l25,13.1-12.4,33.9-23.3-13.1Z"/><path class="a" d="M149.7,199.7l20.9,10.9-11,29.1-19.5-10.9Z"/><path class="o" d="M154.1,202.8l.4-1c.2-.5,2-.2,3.9.8l3.7,1.9c1.9,1,3.3,2.3,3.1,2.8l-.4,1Z"/><path class="h" d="M154.5,198.7c.1-.4.9-.3,1.7.1l1.4.8s.9-2.2,4.2-.7,2.6,4.1,2.6,4.1l1.5.8c.9.5,1.5,1.1,1.4,1.5l-.2.7-12.9-6.7Z"/><path class="h" d="M155.9,200.2c1.2.6,1.7.9,1.3,1.8s-.8,1.7-.8,1.7l5.7,3s.5-1.3.7-1.8.6-.7,1.5-.3l.3-.4-9-4.6Z"/><path class="r" d="M155.9,200.2c1.2.6,1.7.9,1.3,1.8s-.8,1.7-.8,1.7l5.7,3s.5-1.3.7-1.8.6-.7,1.5-.3l.3-.4-9-4.6Z"/><path class="h" d="M153.9,202.9l.4-1c.2-.6,2-.2,3.9.8l3.7,1.9c1.9,1,3.3,2.3,3.1,2.8l-.4,1Z"/><path class="q" d="M118.8,216.2c5.8.5,8.2,1.6,12.5,9.3,4.7,8.5,13.7,23.8,14.9,25.7,1.6,2.7,1.9,6.8.5,9.3-1.3,2.3-5.4,3.4-10-1.9-5.5-6.2-15.7-21.3-15.7-21.3S112.4,225.9,118.8,216.2Z"/><path class="q" d="M144.3,262.3c4.4-.5,14.7-14.5,17.7-19.1a33.244,33.244,0,0,1,8.9-9.4c4.7-3.4,4-8.8,2-13.6-.7-1.7-3.1-.6-3.1-.6l-.8,2.3-1.5,4c-1,.9-1.6,1.2-1.6.9-.1-.5.7-2.7.7-4.9,0-2.7-1.9-.9-2.5,0a34.889,34.889,0,0,0-2,4.4c-.9,2.4-.6,4.9-1.7,6.5s-16.5,16.4-16.5,16.4Z"/><path class="e" d="M117.7,215.9c3.5-.1,7.7.5,10.9,4.7s16.3,27.2,16.3,27.2l7.3-6.5a12.6,12.6,0,0,1,5.6,7.9,74.363,74.363,0,0,1-6.6,9c-3.1,3.4-6.5,5.7-9.4,4.7-2.8-1-5.7-3.3-11.8-11.7-6.1-8.5-12.7-18.4-12.7-18.4S113.2,222.9,117.7,215.9Z"/><path class="s" d="M119.5,189.9s3.1,4.8,2.8,5.2-2.7.9-2.7.9Z"/><path class="c" d="M114.3,189.2h0a3.778,3.778,0,0,1,3.7-3.8,3.846,3.846,0,0,1,3.8,3.7,3.8,3.8,0,0,1-3.8,3.8A3.629,3.629,0,0,1,114.3,189.2Zm3.7-2.9a2.9,2.9,0,0,0-2.9,2.9h0a2.9,2.9,0,1,0,2.9-2.9Z"/><path class="q" d="M110.8,176.7c6.4,1.3,8.2,4.1,8.8,14.2.6,10.6-.5,13.9-1.8,15.3-.9,1-6.1,1.1-8.8.4-3.3-.9-10.7-3.5-14.2-8.8-4.1-6.2-5.2-14.7-.8-18.2C100.1,174.8,108.2,176.2,110.8,176.7Z"/><path class="s" d="M110.5,207l.3-1.9a12.226,12.226,0,0,0,6.5,1.5A17.512,17.512,0,0,1,110.5,207Z"/><path class="c" d="M121.4,188.5l-11.3,1.4.5.8,10.8-1.4Z"/><path class="c" d="M120.6,180.8a3.21,3.21,0,0,1-1.4-.1,2.069,2.069,0,0,1-.8,2.6,3.28,3.28,0,0,1-2.9.4,2.356,2.356,0,0,1,.3,2,3.223,3.223,0,0,1-3.3,2.4c-.1,1.5-.1,2.9-1.7,3.6,0,0-1-3.9-4.3-3.4s-3.8,4.7-1.7,7.3,4,1.6,4,1.6c-.2.1-.3,1.3-.3,1.6a7.837,7.837,0,0,1-.9,2.1,9.217,9.217,0,0,1-3,3.5,7.757,7.757,0,0,1-6,1.7,6.454,6.454,0,0,1-4.4-3.5,3.293,3.293,0,0,0-.7-1.3,4.594,4.594,0,0,0-1.6-.7,4.737,4.737,0,0,1-3-6c.1-.2.2-.5.3-.7a4.369,4.369,0,0,1-3.1-5.3,3.9,3.9,0,0,1,1.5-2.3,5.062,5.062,0,0,1,1.5-9.3c1.3-.4.8-.6,1.2-1.8a4.825,4.825,0,0,1,1.5-2.2,4.646,4.646,0,0,1,4.4-.8,4.439,4.439,0,0,1,3.2-3.4,4.121,4.121,0,0,1,2.2-.1c.5.1,1.6.6,1.8,1.1.7-.7.9-1.5,1.7-2.1a4.827,4.827,0,0,1,6.8,1c.1.2.2.3.3.5a6.134,6.134,0,0,1,4.4-1.9,4.769,4.769,0,0,1,4,2.5,4.094,4.094,0,0,1-.5,4.6,5.091,5.091,0,0,1,2.5,2.1,2.87,2.87,0,0,1-.4,3.3,2.151,2.151,0,0,1-1.2.9C121,180.8,120.8,180.8,120.6,180.8Z"/><path class="c" d="M111,193.9l-.1-4.4a2.3,2.3,0,0,1,2.3,2.2A2.22,2.22,0,0,1,111,193.9Z"/><path class="g" d="M311.1,203.7l1.7.8a1.555,1.555,0,0,0,.6.8,4.363,4.363,0,0,0,1,.8,1.853,1.853,0,0,0,1,.4.215.215,0,0,0,.2-.2c0-.1-.1-.2-.2-.3a3.806,3.806,0,0,0-.6-.5c-1.4-1.1-2.3-1.8-2.7-2.2a3.491,3.491,0,0,1-1-1.5.529.529,0,0,1,.4-.7,6.03,6.03,0,0,1,2,.8,6.9,6.9,0,0,1,2,1.5,7.166,7.166,0,0,1,1.1,1.5l-1.6-.7a3.039,3.039,0,0,0-.5-.7,3.491,3.491,0,0,0-.9-.6,1.964,1.964,0,0,0-.9-.4c-.1,0-.2,0-.1.1,0,.1.1.2.2.3a15.355,15.355,0,0,0,1.7,1.3,23.482,23.482,0,0,1,2,1.7,2.787,2.787,0,0,1,.7,1.3.505.505,0,0,1-.5.7,6.287,6.287,0,0,1-2.1-.8,9.841,9.841,0,0,1-2.2-1.7A8.558,8.558,0,0,1,311.1,203.7Z"/><path class="g" d="M322.3,210.3l1.7,1.2a.632.632,0,0,1-.8.4,6.761,6.761,0,0,1-1.7-.7,12.53,12.53,0,0,1-2.7-2.3,6.7,6.7,0,0,1-1-2.1c-.2-.8,0-1.3.4-1.4a3.128,3.128,0,0,1,2,.6,8.255,8.255,0,0,1,2.4,2.1,5.671,5.671,0,0,1,1.3,2.7l-4.3-2.6a2.384,2.384,0,0,0,.6,1.1,4.064,4.064,0,0,0,1,.9.988.988,0,0,0,.6.2C322.1,210.6,322.2,210.5,322.3,210.3Zm-.2-1.3a3,3,0,0,0-.6-1.1,6.469,6.469,0,0,0-.9-.8,2.3,2.3,0,0,0-.9-.3.445.445,0,0,0-.2.6Z"/><path class="g" d="M324.8,211a1.093,1.093,0,0,1,.2-1,1.023,1.023,0,0,1,1-.2,4.34,4.34,0,0,1,1.6.7,8.81,8.81,0,0,1,2.5,2.2,5.211,5.211,0,0,1,1.3,2.4q.3,1.05-.6,1.2a3.244,3.244,0,0,1-2.2-.7,10.916,10.916,0,0,1-1.7-1.3,20.022,20.022,0,0,1-1.4-1.6A6.122,6.122,0,0,1,324.8,211Zm1.8,1.1a3.082,3.082,0,0,0,.7,1.4,11.983,11.983,0,0,0,1.2,1.1,1.129,1.129,0,0,0,1,.3c.2-.1.3-.4.2-.8a3.082,3.082,0,0,0-.7-1.4,11.983,11.983,0,0,0-1.2-1.1,1.129,1.129,0,0,0-1-.3C326.5,211.4,326.5,211.7,326.6,212.1Z"/><path class="k" d="M252.5,173.2q.15,1.05-.6,1.2h-.5c-.2,0-.3-.1-.5-.2l-1-.6a3.447,3.447,0,0,1-1.2-1.2,5.228,5.228,0,0,1-.6-1.6l-.1-1.5.8.4.1,1.6a.756.756,0,0,0,.1.4c.1.1.1.3.2.4h0l.3.3c.1.1.3.2.4.3l.9.5c.1.1.2.1.4.1h.3a.354.354,0,0,0,.3-.3c0-.1-.1-.3-.4-.5h0l-.1-.1h-.1l-1-.6-.1-1.3c0-.4.1-.6.3-.7a1.009,1.009,0,0,1,.9.1l.9.5.1.9-.9-.5c-.2-.1-.3-.1-.4,0h0v.5c.2.1.4.3.6.4a1.38,1.38,0,0,1,.4.3,2.092,2.092,0,0,1,.4.6C252.5,172.7,252.5,173,252.5,173.2Z"/><path class="k" d="M255.3,174.2a1.246,1.246,0,0,1-.4,1.1c-.3.2-.7.1-1.2-.1l-1-.5-.2-1.1.9.5c.2.1.3.2.4.2s.2.1.3,0c.1,0,.2-.1.3-.1.1-.1.1-.1.1-.3l-.2-2.3.9.5Zm-.3-3.9v.2l-.1.1h-.2c-.1,0-.1,0-.2-.1a1.756,1.756,0,0,1-.5-.4.551.551,0,0,1-.2-.5c0-.3.2-.3.5-.1C254.8,169.8,255,170,255,170.3Z"/><path class="k" d="M258,176a4.031,4.031,0,0,1-1.4-1.1,1.222,1.222,0,0,1-.3-.9l-.2-3.3.8.5.2,3a.764.764,0,0,0,.2.5.349.349,0,0,0,.2.1c.1.1.3.2.4.3Z"/><path class="k" d="M263.2,177.8v.5c0,.1-.1.2-.1.3-.2.1-.4.1-.8-.1-.1-.1-.3-.2-.5-.4l-.5-.5c-.1.1-.2.1-.4.1-.1,0-.3-.1-.4-.1s-.1-.1-.2-.1c-.1-.1-.2-.1-.2-.2l-.3-.3c-.1-.1-.2-.2-.2-.3a.6.6,0,0,1-.4.1c-.1,0-.3-.1-.4-.1l-.9-.5-.1-1,.9.5c.3.1.4.1.4-.1l-.1-1.1.8.5.1,1.1c0,.1.1.2.2.4h0a1.381,1.381,0,0,0,.4.3c.3.1.4.1.4,0l-.1-1.3.8.5.1,1.1c0,.1.1.2.2.4h0a1.381,1.381,0,0,0,.4.3c.3.1.4.1.4,0l-.1-1.3.8.5Z"/><path class="k" d="M269.8,182.6a5.545,5.545,0,0,1-.8-.6,1.238,1.238,0,0,1-.2-.3,6.819,6.819,0,0,1-.5-.7.55.55,0,0,1-.5.3,2.544,2.544,0,0,1-.7-.2,2.4,2.4,0,0,1-1-1,3.08,3.08,0,0,1-.5-1.2v-.3c0-.1.1-.2.1-.3.1-.1.1-.2.2-.2.1-.1.2-.1.3-.2v-.2l-.1-.2.6-.3,2.3,3.3c.1.1.1.2.2.3s.1.1.1.2h0c.1.1.3.2.5.4Zm-2.2-2.4V180c0-.1,0-.1-.1-.2s-.2-.3-.3-.4-.2-.3-.3-.4h0c-.1,0-.1.1-.2.1h-.1l-.1.1v.2c0,.1.1.2.2.4h0a1.381,1.381,0,0,0,.4.3.756.756,0,0,0,.4.1l.1-.1C267.6,180.2,267.7,180.2,267.6,180.2Z"/><path class="k" d="M272.6,184.2l-.3-.2a2.177,2.177,0,0,1-.9-.7h-.3c-.1,0-.2-.1-.3-.1l-1.2-.7-.1-1c.4.2.7.4.9.5s.3.2.4.2.2-.1.1-.4v-.3h0v-.6l.9.5.1,1.1a.758.758,0,0,0,.2.4l.2.2c.1.1.2.1.4.2Zm-1.6-4.1v.2l-.1.1a.756.756,0,0,1-.4-.1.961.961,0,0,1-.6-.9c0-.3.1-.3.5-.1A1.555,1.555,0,0,1,271,180.1Z"/><path class="k" d="M275.6,185.9l-.1-.1c-.1-.1-.2-.1-.3-.2s-.2-.1-.2-.2l-.2-.2-.2-.2h-.3c-.1,0-.2-.1-.3-.1l-1.5-.9-.1-1,1.3.7a.774.774,0,0,0,.3.1c.1,0,.1-.1.1-.2l-.1-1.1.8.5.1,1.1c0,.2,0,.3.1.3,0,.1.1.1.2.2s.2.1.4.2Zm-2.1-.2c0,.3-.1.3-.5.1s-.6-.4-.6-.7v-.2l.1-.1h.2c.1,0,.1,0,.2.1A.938.938,0,0,1,273.5,185.7Zm1.4.7c0,.3-.1.3-.5.1a1.014,1.014,0,0,1-.6-.7.224.224,0,1,1,.4-.2A1.68,1.68,0,0,1,274.9,186.4Z"/><path class="k" d="M277.3,186.6h0a2.544,2.544,0,0,1-.7-.2l-1-.6-.1-1,.6.4c.3.1.5.2.6.1.1,0,.1-.2.1-.4l.1-.9.8.6-.1,1.2h0v.4c.2-.1.4,0,.7.2l1,.6.1,1-.6-.4c-.3-.1-.5-.2-.6-.1-.1,0-.1.2-.1.4l-.1.9-.8-.6.1-1.2h0v-.2C277.2,186.7,277.2,186.6,277.3,186.6Z"/><path class="k" d="M281.2,187.8v.4c0,.1-.1.2-.2.3a.367.367,0,0,1-.3.1.6.6,0,0,1-.4-.1l-1.2-.7-.1-1a8.6,8.6,0,0,1,1.2.7c.1,0,.2-.1.1-.4v-.3h0v-.7l.8.5Zm-.5,1.9a.367.367,0,0,1-.1.3h-.2c-.1,0-.1,0-.2-.1a.938.938,0,0,1-.6-.8c0-.3.1-.3.5-.1S280.7,189.4,280.7,189.7Z"/></g></svg>