<svg xmlns="http://www.w3.org/2000/svg" xmlns:xlink="http://www.w3.org/1999/xlink" width="400.8" height="328.974" viewBox="0 0 400.8 328.974"><defs><style>.a{fill:#f5f5f5;}.b{fill:#e6e6e6;}.aa,.ad,.c{opacity:0.5;}.d,.i{opacity:0.3;}.aj,.e{opacity:0.6;}.f{fill:#636161;}.g{fill:#2b2a2a;}.h{fill:#fafafa;}.i,.j{fill:#263238;}.k,.w{opacity:0.4;}.l{fill:#37474f;}.m{opacity:0.45;}.n{fill:#ebebeb;}.o{fill:#e0e0e0;}.aa,.p,.w{fill:#fff;}.q{clip-path:url(#a);}.r{fill:#ffa8a7;}.s{fill:#455a64;}.t{fill:#06826a;}.u{fill:#f28f8f;}.v{fill:#ff3600;}.ag,.x{fill:none;}.y{opacity:0.2;}.ak,.z{opacity:0.1;}.ab{clip-path:url(#b);}.ac{fill:#252f33;}.ae{fill:#f0f0f0;}.af{opacity:0.15;}.ag{stroke:#fff;stroke-miterlimit:10;stroke-width:0.5px;}.ah{opacity:0.35;}.ai{fill:#e5b28f;}.al{fill:#c69879;}.am{fill:#9a4a4d;}</style><clipPath id="a"><path d="M323,145.1v48.3c0,.8-.6,1.1-1.2.7l-38-21.9a2.717,2.717,0,0,1-1.2-2.1V121.8c0-.8.5-1.1,1.2-.7l38,21.9A2.676,2.676,0,0,1,323,145.1Z"/></clipPath><clipPath id="b"><path d="M323,237.2v48.3c0,.8-.6,1.1-1.2.7l-38-21.9a2.717,2.717,0,0,1-1.2-2.1V213.9c0-.8.5-1.1,1.2-.7l38,21.9A2.676,2.676,0,0,1,323,237.2Z"/></clipPath></defs><g transform="translate(-41.4 -75.026)"><ellipse class="a" cx="198.4" cy="99.1" rx="198.4" ry="99.1" transform="translate(41.4 205.8)"/><path class="b" d="M403.6,306,277.5,226.6a7.54,7.54,0,0,0-6.7-.3l-74.9,39.4a5.932,5.932,0,0,0-2.7,2.5,6.245,6.245,0,0,0,2.3,8.6l126.1,79.4a7.539,7.539,0,0,0,6.7.3L403.2,317a7.316,7.316,0,0,0,3.6-5.5A7.559,7.559,0,0,0,403.6,306Z"/><path class="c" d="M195.3,266.1c-1.3,1-1.1,2.5.5,3.5L321.9,349a6.557,6.557,0,0,0,3.3.9l-.3,7.3a6.294,6.294,0,0,1-3.3-.9L195.5,276.8a6.265,6.265,0,0,1-.2-10.7Z"/><path class="d" d="M403.6,306,277.5,226.6a7.54,7.54,0,0,0-6.7-.3l-74.9,39.4c-1.9,1-2,2.7-.1,3.9L321.9,349a7.233,7.233,0,0,0,6.7.3l74.9-39.5C405.3,308.8,405.4,307.1,403.6,306Z"/><path class="e" d="M328.6,349.4l74.9-39.5c1.8-.9,2-2.5.5-3.6a5.9,5.9,0,0,1,2.2,2.5,6.273,6.273,0,0,1-3,8.4l-74.9,39.4a7.973,7.973,0,0,1-3.4.7l.3-7.3A8.159,8.159,0,0,0,328.6,349.4Z"/><path class="d" d="M403.6,306,277.5,226.6a7.484,7.484,0,0,1-3.1-6l3.9-101.2c.1-2.1.1-3.8,1.8-4.8a7.119,7.119,0,0,1,6.5.4l126.1,79.4a7.484,7.484,0,0,1,3.1,6l-3.9,101.1c-.1,2.2-.1,3.9-1.8,4.8A7.423,7.423,0,0,1,403.6,306Z"/><path class="d" d="M280.1,114.6a7.119,7.119,0,0,1,6.5.4l126.1,79.4A7.11,7.11,0,0,1,415,197h0l-4.9,2.6a7.111,7.111,0,0,0-2.3-2.6L281.7,117.6c-1.8-1.1-3.4-.3-3.4,1.8C278.3,117.3,278.3,115.6,280.1,114.6Z"/><path class="f" d="M407.8,197,281.7,117.6c-1.8-1.2-3.4-.4-3.4,1.8l-3.9,101.2a7.484,7.484,0,0,0,3.1,6L403.6,306c1.8,1.1,3.4.3,3.4-1.8l3.9-101.1A7.529,7.529,0,0,0,407.8,197Z"/><path class="g" d="M407,304.1,410.9,203a6.921,6.921,0,0,0-.9-3.4h0l4.9-2.6a6.65,6.65,0,0,1,.9,3.4l-3.9,101.1c-.1,2.2-.1,3.9-1.8,4.8a6.884,6.884,0,0,1-6.1-.2C405.6,307,406.9,306.1,407,304.1Z"/><path class="h" d="M407.7,204.4l-3.4,88.3c0,1.3-1,1.8-2.1,1.1L280.6,217.2a4.369,4.369,0,0,1-1.9-3.6l3.4-88.3c.1-1.3,1-1.8,2.1-1.1l121.6,76.5A4.842,4.842,0,0,1,407.7,204.4Z"/><path class="d" d="M394.7,306.3a1.066,1.066,0,0,1-.6,1.4l-2,1a3.714,3.714,0,0,1-3.4-.1l-117-73.8a1.205,1.205,0,0,1-.5-.5,1.066,1.066,0,0,1,.6-1.4l2-1a3.714,3.714,0,0,1,3.4.1l117,73.8A.822.822,0,0,1,394.7,306.3Z"/><path class="i" d="M264.6,237l-31.7,16.9c-.8.4-.7,1.2.2,1.8L350,329.4a3.406,3.406,0,0,0,3.1.3l31.8-16.8c.8-.4.7-1.2-.2-1.8l-117-73.8A3.433,3.433,0,0,0,264.6,237Z"/><path class="j" d="M334.7,299.8l3.7,2.3a.446.446,0,0,0,.5,0l3.7-1.9a.187.187,0,0,0,0-.3l-3.7-2.3a.446.446,0,0,0-.5,0l-3.7,1.9A.187.187,0,0,0,334.7,299.8Zm13.1-2.6-3.7-2.3a.637.637,0,0,0-.6,0l-3.7,1.9a.187.187,0,0,0,0,.3l3.7,2.3a.637.637,0,0,0,.6,0l3.7-1.9Q348.1,297.35,347.8,297.2ZM336,289.7l-6.2-3.9a.637.637,0,0,0-.6,0l-3.7,1.9c-.2.1-.1.2,0,.3l6.2,3.9a.446.446,0,0,0,.5,0l3.7-1.9C336.2,290,336.2,289.8,336,289.7Zm6.5,4.1-3.7-2.3a.637.637,0,0,0-.6,0l-3.7,1.9a.187.187,0,0,0,0,.3l3.7,2.3a.637.637,0,0,0,.6,0l3.7-1.9c.2,0,.1-.2,0-.3Zm-14.4-9.1-3.7-2.3a.637.637,0,0,0-.6,0l-3.7,1.9c-.2.1-.1.2,0,.3l3.7,2.3a.637.637,0,0,0,.6,0l3.7-1.9q.3,0,0-.3Zm-5.3-3.3-3.7-2.3a.637.637,0,0,0-.6,0l-3.7,1.9c-.2.1-.1.2,0,.3l3.7,2.3a.637.637,0,0,0,.6,0l3.7-1.9a.187.187,0,0,0,0-.3Zm-15,7.5,3.7,2.3a.446.446,0,0,0,.5,0l3.7-1.9a.187.187,0,0,0,0-.3l-3.7-2.3a.637.637,0,0,0-.6,0l-3.7,2a.31.31,0,0,0,.1.2Zm-5.4-3.3,3.7,2.3a.446.446,0,0,0,.5,0l3.7-1.9a.187.187,0,0,0,0-.3l-3.7-2.3a.446.446,0,0,0-.5,0l-3.7,1.9C302.3,285.3,302.3,285.5,302.4,285.6Zm-5.2-3.4,3.7,2.3a.446.446,0,0,0,.5,0l3.7-1.9a.187.187,0,0,0,0-.3l-3.7-2.3a.446.446,0,0,0-.5,0l-3.7,1.9C296.9,281.9,296.9,282.1,297.2,282.2Zm-5.4-3.4,3.7,2.3a.446.446,0,0,0,.5,0l3.7-1.9a.187.187,0,0,0,0-.3l-3.7-2.3a.446.446,0,0,0-.5,0l-3.7,1.9q-.3.15,0,.3Zm37.6,17.7,3.7,2.3a.446.446,0,0,0,.5,0l3.7-1.9a.187.187,0,0,0,0-.3l-3.7-2.3a.637.637,0,0,0-.6,0l-3.7,1.9c-.1,0-.1.2.1.3Zm-16.2-4.2,8.2,5.1a.637.637,0,0,0,.6,0l8.9-4.7a.187.187,0,0,0,0-.3l-4.2-2.7a.446.446,0,0,0-.5,0l-4.7,2.5a.446.446,0,0,1-.5,0l-3.4-2.2a.637.637,0,0,0-.6,0l-3.7,1.9c-.3.2-.3.3-.1.4Zm4.3-14.3-3.7-2.3a.637.637,0,0,0-.6,0l-3.7,1.9a.187.187,0,0,0,0,.3l3.7,2.3a.637.637,0,0,0,.6,0l3.7-1.9c.1,0,0-.1,0-.3Zm-5.4-3.3-3.7-2.3a.637.637,0,0,0-.6,0l-3.7,1.9a.187.187,0,0,0,0,.3l3.7,2.3a.446.446,0,0,0,.5,0L312,275c.2-.1.2-.3.1-.3Zm-57.8-19.8a.187.187,0,0,0,0,.3l3.7,2.3a.446.446,0,0,0,.5,0l3.7-1.9a.187.187,0,0,0,0-.3l-3.7-2.3a.446.446,0,0,0-.5,0Zm15-7.2-3.7-2.3a.446.446,0,0,0-.5,0l-3.7,1.9a.187.187,0,0,0,0,.3l3.7,2.3a.446.446,0,0,0,.5,0l3.7-1.9c.1-.1.1-.3,0-.3Zm-11.2,3.6a.187.187,0,0,0,0,.3l3.7,2.3a.637.637,0,0,0,.6,0l3.7-1.9a.187.187,0,0,0,0-.3l-3.7-2.3a.637.637,0,0,0-.6,0Zm-6.2,8.5,3.7,2.3a.446.446,0,0,0,.5,0l3.7-1.9a.187.187,0,0,0,0-.3l-3.7-2.3a.446.446,0,0,0-.5,0l-3.8,1.9c-.1,0-.1.1.1.3Zm-5.4-3.7a.187.187,0,0,0,0,.3l3.7,2.3a.446.446,0,0,0,.5,0l3.7-1.9a.187.187,0,0,0,0-.3l-3.7-2.3a.446.446,0,0,0-.5,0Zm28.1-5.1-3.7-2.3a.446.446,0,0,0-.5,0l-3.7,1.9a.187.187,0,0,0,0,.3l3.7,2.3a.446.446,0,0,0,.5,0l3.7-1.9C274.7,251.3,274.7,251.1,274.6,251Zm26.7,16.9-3.7-2.3a.446.446,0,0,0-.5,0l-3.7,1.9a.187.187,0,0,0,0,.3l3.7,2.3a.446.446,0,0,0,.5,0l3.7-1.9Q301.6,268.05,301.3,267.9Zm-21.4-13.5-3.7-2.3a.446.446,0,0,0-.5,0L272,254a.187.187,0,0,0,0,.3l3.7,2.3a.446.446,0,0,0,.5,0l3.7-1.9Q280.2,254.55,279.9,254.4Zm26.8,16.9-3.6-2.3a.446.446,0,0,0-.5,0l-3.7,1.9a.187.187,0,0,0,0,.3l3.7,2.3a.446.446,0,0,0,.5,0l3.7-1.9C306.9,271.5,306.8,271.4,306.7,271.3ZM296,264.5l-3.7-2.3a.446.446,0,0,0-.5,0l-3.7,1.9a.187.187,0,0,0,0,.3l3.7,2.3a.446.446,0,0,0,.5,0l3.7-1.9c.1,0,.1-.2,0-.3Zm-5.4-3.4-3.7-2.3a.446.446,0,0,0-.5,0l-3.7,1.9a.187.187,0,0,0,0,.3l3.7,2.3a.446.446,0,0,0,.5,0l3.7-1.9c.2,0,.2-.2,0-.3Zm-5.3-3.3-3.7-2.3a.446.446,0,0,0-.5,0l-3.7,1.9a.187.187,0,0,0,0,.3l3.7,2.3a.446.446,0,0,0,.5,0l3.7-1.9a.187.187,0,0,0,0-.3ZM281,272l3.7,2.3a.446.446,0,0,0,.5,0l3.7-1.9a.187.187,0,0,0,0-.3l-3.7-2.3a.446.446,0,0,0-.5,0l-3.7,1.9c-.1.1-.1.3,0,.3Zm78.7,32.7-3.7-2.3a.446.446,0,0,0-.5,0l-3.7,1.9a.187.187,0,0,0,0,.3l3.7,2.3a.446.446,0,0,0,.5,0l3.7-1.9C359.8,304.9,359.8,304.7,359.7,304.7Zm-6.5-4.1-3.7-2.3a.637.637,0,0,0-.6,0l-3.7,1.9a.187.187,0,0,0,0,.3l3.7,2.3a.637.637,0,0,0,.6,0l3.7-1.9c.2-.1.1-.2,0-.3Zm11.8,7.5-3.7-2.3a.446.446,0,0,0-.5,0l-3.7,1.9a.187.187,0,0,0,0,.3l3.7,2.3a.446.446,0,0,0,.5,0l3.7-1.9c.2-.1.2-.3,0-.3Zm-48-19.4,3.7,2.3a.446.446,0,0,0,.5,0l3.7-1.9a.187.187,0,0,0,0-.3l-3.7-2.3a.446.446,0,0,0-.5,0l-3.7,1.9c-.2,0-.2.2,0,.3Zm53.4,23a.187.187,0,0,0,0-.3l-3.7-2.3a.446.446,0,0,0-.5,0l-3.7,1.9a.187.187,0,0,0,0,.3l3.7,2.3a.446.446,0,0,0,.5,0Zm-84-36.2,3.7,2.3a.446.446,0,0,0,.5,0l3.7-1.9a.187.187,0,0,0,0-.3l-3.7-2.3a.446.446,0,0,0-.5,0l-3.7,1.9q-.3,0,0,.3Zm65.7,41.3,3.7,2.3a.446.446,0,0,0,.5,0l3.7-1.9a.187.187,0,0,0,0-.3l-3.7-2.3a.446.446,0,0,0-.5,0l-3.7,1.9Q351.8,316.65,352.1,316.8Zm-.1-6.1,3.7,2.3a.446.446,0,0,0,.5,0l3.7-1.9a.187.187,0,0,0,0-.3l-3.7-2.3a.446.446,0,0,0-.5,0l-3.7,1.9c-.2,0-.2.2,0,.3Zm13.2,3.7a.187.187,0,0,0,0-.3l-3.7-2.3a.446.446,0,0,0-.5,0l-3.7,1.9a.187.187,0,0,0,0,.3l3.7,2.3a.446.446,0,0,0,.5,0Zm1.1.7-8.9,4.7a.187.187,0,0,0,0,.3l3.7,2.3a.446.446,0,0,0,.5,0l8.9-4.7a.187.187,0,0,0,0-.3l-3.7-2.3Zm-11.8-7.7-3.7-2.3a.446.446,0,0,0-.5,0l-3.7,1.9a.187.187,0,0,0,0,.3l3.7,2.3a.446.446,0,0,0,.5,0l3.7-1.9a.187.187,0,0,0,0-.3ZM314.2,282l-3.7-2.3a.637.637,0,0,0-.6,0l-3.7,1.9a.187.187,0,0,0,0,.3l3.7,2.3a.637.637,0,0,0,.6,0l3.7-1.9a.188.188,0,0,0,0-.3Zm32.5,31.1a.187.187,0,0,0,0,.3l3.7,2.3a.446.446,0,0,0,.5,0l3.7-1.9a.187.187,0,0,0,0-.3l-3.7-2.3a.446.446,0,0,0-.5,0Zm-27.2-27.7-3.7-2.3a.637.637,0,0,0-.6,0l-3.7,1.9a.187.187,0,0,0,0,.3l3.7,2.3a.637.637,0,0,0,.6,0l3.7-1.9C319.7,285.6,319.6,285.5,319.5,285.4Zm-59.9-27.2a.187.187,0,0,0,0,.3l3.7,2.3a.446.446,0,0,0,.5,0l3.7-1.9a.187.187,0,0,0,0-.3l-3.7-2.3a.446.446,0,0,0-.5,0Zm11.7-3.2-3.7-2.3a.637.637,0,0,0-.6,0l-3.7,1.9a.187.187,0,0,0,0,.3l3.7,2.3a.637.637,0,0,0,.6,0l3.7-1.9c.2,0,.1-.2,0-.3Zm-6.3,6.9,3.7,2.3a.446.446,0,0,0,.5,0l3.7-1.9a.187.187,0,0,0,0-.3l-3.7-2.3a.446.446,0,0,0-.5,0l-3.7,1.9Q264.7,261.75,265,261.9Zm5.3,3.4,3.7,2.3a.446.446,0,0,0,.5,0l3.7-1.9a.187.187,0,0,0,0-.3l-3.7-2.3a.446.446,0,0,0-.5,0l-3.7,1.9A.188.188,0,0,0,270.3,265.3Zm5.4,3.4,3.7,2.3a.446.446,0,0,0,.5,0l3.7-1.9a.187.187,0,0,0,0-.3l-3.7-2.3a.446.446,0,0,0-.5,0l-3.7,1.9c-.2,0-.2.2,0,.3Zm1-10.3-3.7-2.3a.637.637,0,0,0-.6,0l-3.7,1.9c-.2.1-.1.2,0,.3l3.7,2.3a.637.637,0,0,0,.6,0l3.7-1.9a.188.188,0,0,0,0-.3Zm5.3,3.4-3.7-2.3a.637.637,0,0,0-.6,0l-3.6,1.9c-.2.1-.1.2,0,.3l3.7,2.3a.637.637,0,0,0,.6,0l3.7-1.9c.1-.1.1-.2-.1-.3Zm21.4,13.5-3.7-2.3a.637.637,0,0,0-.6,0l-3.7,1.9a.187.187,0,0,0,0,.3l3.7,2.3a.637.637,0,0,0,.6,0l3.7-1.9q.3-.15,0-.3Zm-5.3-3.4-3.7-2.3a.637.637,0,0,0-.6,0l-3.7,1.9a.187.187,0,0,0,0,.3l3.7,2.3a.637.637,0,0,0,.6,0l3.7-1.9A.187.187,0,0,0,298.1,271.9Zm10.7,6.7-3.7-2.3a.637.637,0,0,0-.6,0l-3.6,1.9a.187.187,0,0,0,0,.3l3.7,2.3a.637.637,0,0,0,.6,0l3.7-1.9a.494.494,0,0,0-.1-.3Zm-21.4-13.5-3.7-2.3a.637.637,0,0,0-.6,0l-3.7,1.9c-.2.1-.1.2,0,.3l3.7,2.3a.637.637,0,0,0,.6,0l3.7-1.9C287.5,265.4,287.5,265.2,287.4,265.1Zm5.3,3.4-3.7-2.3a.637.637,0,0,0-.6,0l-3.7,1.9a.187.187,0,0,0,0,.3l3.7,2.3a.637.637,0,0,0,.6,0l3.7-1.9q.3-.15,0-.3Zm-35.5-5.4,3.7,2.3a.446.446,0,0,0,.5,0l3.7-1.9a.187.187,0,0,0,0-.3l-3.7-2.3a.446.446,0,0,0-.5,0l-3.7,1.9c-.2,0-.2.2,0,.3Zm3-16.6,3.7-1.9a.187.187,0,0,0,0-.3l-3.7-2.3a.446.446,0,0,0-.5,0l-3.7,1.9a.187.187,0,0,0,0,.3l3.7,2.3a.446.446,0,0,0,.5,0Zm-3.2,4,3.6-1.9a.187.187,0,0,0,0-.3l-5.6-3.6a.446.446,0,0,0-.5,0l-3.7,1.9a.187.187,0,0,0,0,.3l5.6,3.6a.637.637,0,0,0,.6,0Zm10.4-6.8,3.7-1.9c.2-.1.1-.2,0-.3l-4.5-2.8a.637.637,0,0,0-.6,0l-3.7,1.9a.187.187,0,0,0,0,.3l4.5,2.8c.2,0,.4.1.6,0Zm3.5,2.1a.187.187,0,0,0,0,.3l3.7,2.3a.446.446,0,0,0,.5,0l3.7-1.9a.187.187,0,0,0,0-.3l-3.7-2.3a.446.446,0,0,0-.5,0Zm-17.8,8.3,3.7-1.9a.187.187,0,0,0,0-.3l-7-4.4a.446.446,0,0,0-.5,0l-3.7,2a.187.187,0,0,0,0,.3l7,4.4c.1.1.3.1.5-.1Zm-7.7,1.2,3.7-1.9a.187.187,0,0,0,0-.3l-4.5-2.8a.446.446,0,0,0-.5,0l-3.7,1.9a.187.187,0,0,0,0,.3l4.5,2.8a.446.446,0,0,0,.5,0Zm65.3,15.6a.187.187,0,0,0,0,.3l3.7,2.3a.446.446,0,0,0,.5,0l3.7-1.9a.187.187,0,0,0,0-.3l-3.7-2.3a.637.637,0,0,0-.6,0ZM300,264.2a.187.187,0,0,0,0,.3l3.7,2.3a.637.637,0,0,0,.6,0l3.7-1.9c.2-.1.1-.2,0-.3l-3.7-2.3a.637.637,0,0,0-.6,0Zm-23.7-15a.187.187,0,0,0,0,.3l3.7,2.3a.446.446,0,0,0,.5,0l3.7-1.9a.187.187,0,0,0,0-.3l-3.7-2.3a.446.446,0,0,0-.5,0Zm29,18.4a.187.187,0,0,0,0,.3l3.7,2.3a.637.637,0,0,0,.6,0l3.7-1.9a.187.187,0,0,0,0-.3l-3.7-2.3a.637.637,0,0,0-.6,0Zm-10.7-6.8a.187.187,0,0,0,0,.3l3.7,2.3a.637.637,0,0,0,.6,0l3.7-1.9c.2-.1.1-.2,0-.3l-3.7-2.3a.637.637,0,0,0-.6,0Zm-49.7-3.9a.187.187,0,0,0,0-.3l-5.6-3.6a.446.446,0,0,0-.5,0l-3.7,1.9a.187.187,0,0,0,0,.3l5.6,3.6a.637.637,0,0,0,.6,0Zm42-.9a.187.187,0,0,0,0,.3l3.7,2.3a.446.446,0,0,0,.5,0l3.7-1.9a.187.187,0,0,0,0-.3l-3.7-2.3a.446.446,0,0,0-.5,0Zm-5.3-3.4a.187.187,0,0,0,0,.3l3.7,2.3a.446.446,0,0,0,.5,0l3.7-1.9a.187.187,0,0,0,0-.3l-3.7-2.3a.446.446,0,0,0-.5,0Zm62.5,66.8a.187.187,0,0,0,0-.3l-9-5.7a.446.446,0,0,0-.5,0l-3.7,1.9a.187.187,0,0,0,0,.3l9,5.6a.446.446,0,0,0,.5,0Zm-11.9-7.5a.187.187,0,0,0,0-.3l-3.7-2.3a.446.446,0,0,0-.5,0l-3.7,1.9a.187.187,0,0,0,0,.3l3.7,2.3a.446.446,0,0,0,.5,0Zm-69.7-45.4,3.7,2.3a.637.637,0,0,0,.6,0l3.7-1.9a.187.187,0,0,0,0-.3l-3.7-2.3a.446.446,0,0,0-.5,0l-3.7,1.9c-.2,0-.2.2-.1.3Zm59,38.7a.187.187,0,0,0,0-.3l-3.7-2.3a.446.446,0,0,0-.5,0l-3.7,1.9a.187.187,0,0,0,0,.3l3.7,2.3a.446.446,0,0,0,.5,0Zm27.9,17.5a.187.187,0,0,0,0-.3l-3.7-2.3a.446.446,0,0,0-.5,0l-3.7,1.9a.187.187,0,0,0,0,.3l3.7,2.3a.637.637,0,0,0,.6,0Zm1.7,5.3,8.9-4.7a.187.187,0,0,0,0-.3l-3.7-2.3a.446.446,0,0,0-.5,0l-8.9,4.7c-.2.1-.1.2,0,.3l3.7,2.3a.446.446,0,0,0,.5,0Zm-49.6-35.4a.187.187,0,0,0,0-.3l-4.5-2.8a.637.637,0,0,0-.6,0l-3.7,1.9c-.2.1-.1.2,0,.3l4.5,2.8a.637.637,0,0,0,.6,0Zm13.5,8.5c.2-.1.1-.2,0-.3l-5.6-3.6a.637.637,0,0,0-.6,0l-3.7,1.9c-.2.1-.1.2,0,.3l5.6,3.6a.637.637,0,0,0,.6,0Zm-25.9-16.4a.187.187,0,0,0,0-.3l-30.2-19a.637.637,0,0,0-.6,0l-3.7,1.9a.187.187,0,0,0,0,.3l30.2,19a.637.637,0,0,0,.6,0Zm-31.8-20a.187.187,0,0,0,0-.3l-4.5-2.8a.637.637,0,0,0-.6,0l-3.7,1.9a.187.187,0,0,0,0,.3l4.5,2.8a.637.637,0,0,0,.6,0Zm38,23.9a.187.187,0,0,0,0-.3l-4.5-2.8a.637.637,0,0,0-.6,0l-3.7,1.9c-.2.1-.1.2,0,.3l4.5,2.8a.637.637,0,0,0,.6,0Zm-44.2-27.8a.187.187,0,0,0,0-.3l-4.5-2.8a.637.637,0,0,0-.6,0l-3.7,1.9a.187.187,0,0,0,0,.3l4.5,2.8a.637.637,0,0,0,.6,0Zm56.7,35.7a.187.187,0,0,0,0-.3l-4.5-2.9a.637.637,0,0,0-.6,0l-3.7,1.9c-.2.1-.1.2,0,.3l4.5,2.8a.637.637,0,0,0,.6,0Zm19.1,12.1a.187.187,0,0,0,0-.3l-3.7-2.3a.446.446,0,0,0-.5,0l-3.7,1.9a.187.187,0,0,0,0,.3l3.7,2.3a.446.446,0,0,0,.5,0Zm14.6,7.6,3.7,2.3a.446.446,0,0,0,.5,0l3.7-1.9a.187.187,0,0,0,0-.3l-3.7-2.3a.446.446,0,0,0-.5,0l-3.7,1.9q-.3.15,0,.3Zm-1.4-12.9,3.7,2.3a.446.446,0,0,0,.5,0l3.7-1.9a.187.187,0,0,0,0-.3l-3.7-2.3a.446.446,0,0,0-.5,0l-3.7,1.9q-.3,0,0,.3Zm-34.7-9.8,10.7,6.7a.637.637,0,0,0,.6,0l3.7-1.9a.187.187,0,0,0,0-.3l-10.7-6.7a.637.637,0,0,0-.6,0l-3.7,1.9C305.2,293.2,305.2,293.4,305.4,293.5Zm30.7,19a.187.187,0,0,0,0,.3l3.7,2.3a.446.446,0,0,0,.5,0l3.7-1.9a.187.187,0,0,0,0-.3l-3.7-2.3a.446.446,0,0,0-.5,0Zm5.2-2.4,3.7,2.3a.446.446,0,0,0,.5,0l3.7-1.9a.187.187,0,0,0,0-.3l-3.7-2.3a.446.446,0,0,0-.5,0l-3.7,1.9c-.1,0-.1.2,0,.3Zm-41.3-20,3.7,2.3a.637.637,0,0,0,.6,0l3.7-1.9a.187.187,0,0,0,0-.3l-3.7-2.3a.637.637,0,0,0-.6,0l-3.7,1.9c-.1,0-.1.2,0,.3Zm24.2,15a.187.187,0,0,0,0,.3l3.7,2.3a.446.446,0,0,0,.5,0l3.7-1.9a.187.187,0,0,0,0-.3l-3.7-2.3a.446.446,0,0,0-.5,0Zm-50.9-31.9,3.7,2.3a.637.637,0,0,0,.6,0l3.7-1.9a.187.187,0,0,0,0-.3l-3.7-2.3a.637.637,0,0,0-.6,0l-3.7,1.9Q273,273.05,273.3,273.2Zm5.3,3.4,3.7,2.3a.637.637,0,0,0,.6,0l3.7-1.9a.187.187,0,0,0,0-.3l-3.7-2.3a.637.637,0,0,0-.6,0l-3.7,1.9c-.2.1-.1.2,0,.3Zm-10.7-6.8,3.7,2.3a.637.637,0,0,0,.6,0l3.7-1.9a.187.187,0,0,0,0-.3l-3.7-2.3a.637.637,0,0,0-.6,0l-3.7,1.9c-.2.1-.1.2,0,.3Zm21.4,13.5,3.7,2.3a.637.637,0,0,0,.6,0l3.7-1.9a.187.187,0,0,0,0-.3l-3.7-2.3a.637.637,0,0,0-.6,0l-3.7,1.9a.188.188,0,0,0,0,.3ZM284,280l3.7,2.3a.637.637,0,0,0,.6,0l3.6-1.9a.187.187,0,0,0,0-.3l-3.7-2.3a.637.637,0,0,0-.6,0l-3.7,1.9c-.1,0-.1.2.1.3Zm10.7,6.7,3.7,2.3a.637.637,0,0,0,.6,0l3.7-1.9a.187.187,0,0,0,0-.3l-3.7-2.3a.637.637,0,0,0-.6,0l-3.7,1.9q-.3.15,0,.3Zm75.5,20.2a.187.187,0,0,0,0,.3l3.7,2.3a.446.446,0,0,0,.5,0l1-.5a.187.187,0,0,0,0-.3l-3.7-2.3a.637.637,0,0,0-.6,0ZM341,290.1a.187.187,0,0,0,0,.3l3.7,2.3a.446.446,0,0,0,.5,0l3.7-1.9a.187.187,0,0,0,0-.3l-3.7-2.3a.446.446,0,0,0-.5,0Zm10.7,6.7a.187.187,0,0,0,0,.3l3.7,2.3a.637.637,0,0,0,.6,0l3.7-1.9a.187.187,0,0,0,0-.3l-3.7-2.3a.446.446,0,0,0-.5,0Zm-17.3-10.9a.187.187,0,0,0,0,.3l3.7,2.3a.446.446,0,0,0,.5,0l3.7-1.9a.187.187,0,0,0,0-.3l-3.7-2.3a.446.446,0,0,0-.5,0Zm11.9,7.5a.187.187,0,0,0,0,.3L350,296a.446.446,0,0,0,.5,0l3.7-1.9a.187.187,0,0,0,0-.3l-3.7-2.3a.446.446,0,0,0-.5,0Zm-22.6-14.2a.187.187,0,0,0,0,.3l3.7,2.3a.446.446,0,0,0,.5,0l3.7-1.9a.187.187,0,0,0,0-.3l-3.7-2.3a.446.446,0,0,0-.5,0Zm5.4,3.4a.187.187,0,0,0,0,.3l3.7,2.3a.446.446,0,0,0,.5,0l3.7-1.9a.187.187,0,0,0,0-.3l-3.7-2.3a.446.446,0,0,0-.5,0Zm30.4,17.6a.187.187,0,0,0,0,.3l3.7,2.3a.446.446,0,0,0,.5,0l1-.5a.187.187,0,0,0,0-.3l-3.7-2.3a.637.637,0,0,0-.6,0Zm16.1,10.1a.187.187,0,0,0,0,.3l3.7,2.3a.446.446,0,0,0,.5,0l1-.5a.187.187,0,0,0,0-.3l-3.7-2.3a.637.637,0,0,0-.6,0Zm-7.8,4a.187.187,0,0,0,0,.3l3.7,2.3a.446.446,0,0,0,.5,0l3.7-1.9a.187.187,0,0,0,0-.3l-3.7-2.3a.446.446,0,0,0-.5,0Zm-21,5.2,3.7,2.3a.446.446,0,0,0,.5,0l3.7-1.9a.187.187,0,0,0,0-.3l-3.7-2.3a.446.446,0,0,0-.5,0l-3.7,1.9c-.1.1-.1.3,0,.3Zm18-16a.187.187,0,0,0,0,.3l3.7,2.3a.446.446,0,0,0,.5,0l1-.5a.187.187,0,0,0,0-.3l-3.7-2.3a.637.637,0,0,0-.6,0Zm-46.5-27.8a.187.187,0,0,0,0,.3l3.7,2.3a.446.446,0,0,0,.5,0l3.7-1.9a.187.187,0,0,0,0-.3l-3.7-2.3a.446.446,0,0,0-.5,0Z"/><path class="k" d="M269,283.3l-21.6,11.4.7.5,35.5,22.3,20.9-11,.8-.4Z"/><path class="l" d="M269,284.2l-20.9,11,35.5,22.3,20.9-11Z"/><path class="m" d="M269,284.2l-20.9,11,35.5,22.3,20.9-11Z"/><path class="h" d="M228.4,155.4a6.663,6.663,0,0,1-3.1-5.4l-2.8-72.7,3.7-2.1h0a2.463,2.463,0,0,1,2.2.2l164.7,94.8a7.029,7.029,0,0,1,3.2,5.4v72.9a2.031,2.031,0,0,1-1,2h0l-3.7,2.1Z"/><path class="n" d="M389.4,172.3,224.7,77.5c-1.7-1-3.1-.2-3.1,1.8v72.8a6.923,6.923,0,0,0,3.1,5.4l164.7,94.8c1.7,1,3.1.2,3.1-1.8V177.7A6.922,6.922,0,0,0,389.4,172.3Z"/><path class="o" d="M395.3,250.4a1.961,1.961,0,0,0,.9-2V175.6a6.026,6.026,0,0,0-.8-2.9l-3.7,2.1a6.026,6.026,0,0,1,.8,2.9v72.8a2.174,2.174,0,0,1-.8,2l3.6-2.1Z"/><path class="o" d="M325,144.2v48.3a.91.91,0,0,1-.4.8c-.2.1-2.1.9-2.1.9l-36.8-22.9a2.717,2.717,0,0,1-1.2-2.1l-1.7-48.3s1.6-.7,2-.9a.972.972,0,0,1,.9.1l38,21.9A2.606,2.606,0,0,1,325,144.2Z"/><path class="p" d="M323,145.1v48.3c0,.8-.6,1.1-1.2.7l-38-21.9a2.717,2.717,0,0,1-1.2-2.1V121.8c0-.8.5-1.1,1.2-.7l38,21.9A2.676,2.676,0,0,1,323,145.1Z"/><g class="q"><path class="r" d="M295.5,173s-9,13.2-10.8,14.4-15.3-9.2-16.5-9.8-2.6-1.3-3.6-1.9a13.433,13.433,0,0,1-3.4-2.9,3.1,3.1,0,0,1-.6-1.3c0-.2.1-.4.1-.7a4.1,4.1,0,0,1-.1-1.1c.1-.5.6-.7.6-1.1v-1a2.093,2.093,0,0,1,.4-.6,7.491,7.491,0,0,0,.4-1.6.858.858,0,0,1,.6-.7c1-.2,2.3,1.1,3,1.9a10.7,10.7,0,0,0,1.6,1.4c.4,0,.4-1.1.9-2,.7-1.3,2-1.2,1.8-.3a8.545,8.545,0,0,0-.4,3.2c.1.9,0,2.5.7,3.3s12.1,6.9,12.1,6.9,5.9-10.1,7.6-12.8c2.5-3.9,5.5-3,5.5-3S297.6,167.2,295.5,173Z"/><path class="s" d="M297.3,172.2l-6.4,9.6a16.626,16.626,0,0,1-6.7-7.2s3.5-5.8,5.6-9.2a5.9,5.9,0,0,1,5.3-3.3,16.331,16.331,0,0,1,5.4,1.2Z"/><path class="t" d="M310.9,169.3l-4.4-2.9-4.4-2.5c-5.2-3-10.5-.1-10.8,6v.6c0,4.3-.4,30.8-.4,30.8,7.4,8.2,16.2,10.3,23.1,7.9l-.1-20.7V177.6a16.787,16.787,0,0,0-.7-5,6.431,6.431,0,0,0-2.3-3.3Z"/><path class="j" d="M299.1,139.3c-4-1.1-7.5-1.1-7.5,3.6s3.3,9.3,7.3,10.4,7.3-1.8,7.3-6.5S303.1,140.3,299.1,139.3Z"/><path class="j" d="M307.2,157.4l-.1,4.1a1.6,1.6,0,0,0,1.3-.9c.6-2.1,1.1-4.2,1.5-6.4Z"/><path class="j" d="M308,153.9l2,.3c1.1-2.9,1.6-6.1.7-7.3a3.447,3.447,0,0,0-2.1-1.4Z"/><path class="r" d="M305,142.5c-3.9-3.8-11-5.7-11.7,1.2-.7,6.3-.4,9,.4,12.5.5,2.2,1.5,3.9,3.2,4.7a15.945,15.945,0,0,0,3,.6v2.8c-2.9,1.8,3.6,6.5,7.3,2.5l.1-9.5a2.118,2.118,0,0,0,2.6,1.5c1.3-.1,2.9-2.4,2-4.6s-2.5-1.8-3-1.3-1.1,1.2-1.5.8C307.4,153.7,308.9,146.3,305,142.5Z"/><path class="j" d="M306,148.7c-.4-2.4-.6-3.3-1.3-3.4-3.3-.4-7.1-1.2-10.1-4a12.878,12.878,0,0,1-1.6-1.7,11.784,11.784,0,0,1-1.1-1.9,3.582,3.582,0,0,1-.4-1.1c-.1-.4.2-.7.6-.4a10.077,10.077,0,0,0,3.2,1.4,27.033,27.033,0,0,0,4.1.5c1.1.1,2.2.3,3.4.5a8.373,8.373,0,0,1,3.7,1.4c1.6,1.1,3.1,3.8,2.3,5.6,0,0,.9,6.9.2,7.5-.5.4-1.3,1.7-1.5,1.6C306.7,154.3,306.4,150.8,306,148.7Z"/><path class="j" d="M309.2,143.9a1.759,1.759,0,0,1,1.9,1.2l-2.4.9C308.3,145,308.5,144.1,309.2,143.9Z"/><path class="u" d="M299.8,162.7s4.7.3,5.7-.9a5.119,5.119,0,0,0,1-2.1,3.529,3.529,0,0,1-1.8,1.6,20.2,20.2,0,0,1-4.9.3v1.1Z"/><path class="j" d="M301.4,150.2a1.084,1.084,0,0,1,.8,1.1c0,.5-.3.8-.7.7a1.23,1.23,0,0,1-.7-1.1C300.7,150.4,301,150.1,301.4,150.2Z"/><path class="j" d="M302.1,147.5a.758.758,0,0,1,1,.1,1.439,1.439,0,0,1,.4,1.5l-1.6-1.4A.215.215,0,0,1,302.1,147.5Z"/><path class="u" d="M299.6,157.8a1.088,1.088,0,0,1-1.1-.9l1.7-.3C300.3,157.2,300.1,157.7,299.6,157.8Z"/><path class="j" d="M294.2,144.9c.4-.2.9,0,1.2.6l-1.4.9A1.212,1.212,0,0,1,294.2,144.9Z"/><path class="j" d="M295.4,148.3a1.23,1.23,0,0,1,.7,1.1c0,.5-.3.8-.7.7a1.23,1.23,0,0,1-.7-1.1A.565.565,0,0,1,295.4,148.3Z"/><path class="u" d="M295.5,153l2.7,1.4v-5.1Z"/><path class="r" d="M320.4,214c-.3,2-1,4.8-1.3,6.3-1.1,5.4-2.6,6.7-4.8,6.4-3.4-.5-3.5-2-2-4.2a12.318,12.318,0,0,0,1.4-3.1,6.375,6.375,0,0,1-1.4.8,1.476,1.476,0,0,1-1.6-.8c-.1-.3.5-.4,1.1-1.2.9-1,.7-2.1,1.9-2.8a2.223,2.223,0,0,0,.8-1.3,73.7,73.7,0,0,0,.8-13.3c-.2-4.8-4.2-18.8-4.2-18.8-1.9-4.7-1.4-10.9.4-12.2,5.1,2.2,8.3,9.8,9.8,30.8A75.468,75.468,0,0,1,320.4,214Z"/><path class="s" d="M309.1,174.7c.2,4.4,2.9,15.6,2.9,15.6,6.2,2.7,8.5-.5,8.5-.5-1.3-8.7-3.1-13.7-4.9-16.7a12.693,12.693,0,0,0-5.6-4.4C310,168.6,308.8,169.9,309.1,174.7Z"/></g><path class="s" d="M323,202.4c0,1.3-1,1.8-2.2,1.1l-36.2-20.9a4.532,4.532,0,0,1-2.2-3.6c0-1.3,1-1.8,2.2-1.1l36.2,20.9A4.532,4.532,0,0,1,323,202.4Z"/><path class="s" d="M278.4,120.3c0,1.3-1,1.8-2.2,1.1L240,100.5a4.532,4.532,0,0,1-2.2-3.6c0-1.3,1-1.8,2.2-1.1l36.2,20.9A5.307,5.307,0,0,1,278.4,120.3Z"/><path class="p" d="M278.4,128.6c0,.7-.5.9-1.1.6l-46.6-27a2.653,2.653,0,0,1-1.1-1.8c0-.7.5-.9,1.1-.6l46.6,26.9A2.865,2.865,0,0,1,278.4,128.6Z"/><path class="p" d="M278.4,133.2c0,.6-.5.9-1.1.5l-46.5-26.9a2.653,2.653,0,0,1-1.1-1.8c0-.6.5-.9,1.1-.5l46.6,26.9A2.944,2.944,0,0,1,278.4,133.2Z"/><path class="p" d="M278.4,137.9c0,.7-.5.9-1.1.6l-46.5-26.8a2.653,2.653,0,0,1-1.1-1.8c0-.7.5-.9,1.1-.6l46.6,26.9A2.7,2.7,0,0,1,278.4,137.9Z"/><path class="p" d="M278.4,142.6c0,.7-.5.9-1.1.6l-46.5-26.9a2.653,2.653,0,0,1-1.1-1.8c0-.7.5-.9,1.1-.6l46.6,26.9A2.534,2.534,0,0,1,278.4,142.6Z"/><path class="p" d="M278.4,147.3c0,.6-.5.9-1.1.5l-46.5-26.9a2.653,2.653,0,0,1-1.1-1.8c0-.6.5-.9,1.1-.5l46.6,26.9A2.944,2.944,0,0,1,278.4,147.3Z"/><path class="v" d="M278.4,157.8v4.4c0,1.4-1,1.9-2.2,1.3l-3.8-2.2a4.734,4.734,0,0,1-2.2-3.8v-4.3c0-1.4,1-1.9,2.2-1.3l3.8,2.2A4.707,4.707,0,0,1,278.4,157.8Z"/><path class="s" d="M267.8,149.2l-10-5.8c-.6-.4-1.1-.1-1.1.5a2.653,2.653,0,0,0,1.1,1.8l10,5.8c.6.3,1.1.1,1.1-.6A2.682,2.682,0,0,0,267.8,149.2Z"/><path class="s" d="M267.8,152.8l-10-5.8c-.6-.3-1.1-.1-1.1.6a2.653,2.653,0,0,0,1.1,1.8l10,5.8c.6.3,1.1.1,1.1-.6A2.453,2.453,0,0,0,267.8,152.8Z"/><path class="s" d="M267.8,156.3l-10-5.8c-.6-.3-1.1-.1-1.1.6a2.653,2.653,0,0,0,1.1,1.8l10,5.8c.6.3,1.1.1,1.1-.6A2.453,2.453,0,0,0,267.8,156.3Z"/><path class="v" d="M278.4,171.9v4.4c0,1.4-1,1.9-2.2,1.3l-3.8-2.2a4.734,4.734,0,0,1-2.2-3.8v-4.4c0-1.4,1-1.9,2.2-1.3l3.8,2.2A5.049,5.049,0,0,1,278.4,171.9Z"/><path class="s" d="M267.8,163.3l-10-5.8c-.6-.4-1.1-.1-1.1.5a2.653,2.653,0,0,0,1.1,1.8l10,5.8c.6.4,1.1.1,1.1-.5A2.653,2.653,0,0,0,267.8,163.3Z"/><path class="s" d="M267.8,166.8l-10-5.8c-.6-.3-1.1-.1-1.1.6a2.653,2.653,0,0,0,1.1,1.8l10,5.8c.6.3,1.1.1,1.1-.6A2.653,2.653,0,0,0,267.8,166.8Z"/><path class="s" d="M267.8,170.4l-10-5.8c-.6-.4-1.1-.1-1.1.5a2.653,2.653,0,0,0,1.1,1.8l10,5.8c.6.3,1.1.1,1.1-.6A2.454,2.454,0,0,0,267.8,170.4Z"/><path class="v" d="M251.4,142.5v4.4c0,1.4-1,1.9-2.2,1.3l-3.8-2.2a4.734,4.734,0,0,1-2.2-3.8v-4.4c0-1.4,1-1.9,2.2-1.3l3.8,2.2A5.049,5.049,0,0,1,251.4,142.5Z"/><path class="s" d="M240.8,133.9l-10-5.8c-.6-.4-1.1-.1-1.1.5a2.653,2.653,0,0,0,1.1,1.8l10,5.8c.6.3,1.1.1,1.1-.6A2.682,2.682,0,0,0,240.8,133.9Z"/><path class="s" d="M240.8,137.5l-10-5.8c-.6-.4-1.1-.1-1.1.5a2.653,2.653,0,0,0,1.1,1.8l10,5.8c.6.4,1.1.1,1.1-.5A2.28,2.28,0,0,0,240.8,137.5Z"/><path class="s" d="M240.8,141l-10-5.8c-.6-.3-1.1-.1-1.1.6a2.653,2.653,0,0,0,1.1,1.8l10,5.8c.6.3,1.1.1,1.1-.6A2.453,2.453,0,0,0,240.8,141Z"/><path class="v" d="M251.3,156.6V161c0,1.4-1,1.9-2.2,1.3l-3.8-2.2a4.364,4.364,0,0,1-2.1-3.7V152c0-1.4,1-1.9,2.2-1.3l3.8,2.2A4.877,4.877,0,0,1,251.3,156.6Z"/><path class="s" d="M240.8,148l-10-5.8c-.6-.4-1.1-.1-1.1.5a2.653,2.653,0,0,0,1.1,1.8l10,5.8c.6.4,1.1.1,1.1-.5A2.653,2.653,0,0,0,240.8,148Z"/><path class="s" d="M240.8,151.5l-10-5.8c-.6-.3-1.1-.1-1.1.6a2.653,2.653,0,0,0,1.1,1.8l10,5.8c.6.3,1.1.1,1.1-.6A2.653,2.653,0,0,0,240.8,151.5Z"/><path class="s" d="M240.8,155l-10-5.8c-.6-.3-1.1-.1-1.1.6a2.653,2.653,0,0,0,1.1,1.8l10,5.8c.6.3,1.1.1,1.1-.6A2.653,2.653,0,0,0,240.8,155Z"/><path class="d" d="M356,175.3l-.2.1-.1.1.1-.1Z"/><path class="v" d="M357,173.4l.3,1v0Z"/><path class="w" d="M357,173.4l.3,1v0Z"/><path class="v" d="M329.2,160.7l2.7,2.5a.471.471,0,0,0,.6.1,4.728,4.728,0,0,1,1.2-.7.55.55,0,0,0,.3-.5l-.9-3.8a.367.367,0,0,1,.1-.3h.2l2.7.3a.52.52,0,0,1,.4.2c.1.1.1.1.1.2l1.5,3.9h0a1.7,1.7,0,0,0,.6.6,15.056,15.056,0,0,1,1.7,1,.629.629,0,0,0,.6,0l1.4-2.1a.1.1,0,0,1,.1-.1h0c.2,0,.3,0,.4.1l2.9,3.1h0c.1.1.2.2.2.3v.3l-.8,2.8v.1h0a.735.735,0,0,0,.2.6c.5.8.9,1.5,1.4,2.4,0,.1.1.1.1.2a2.186,2.186,0,0,0,.5.3l2.5.6c.2,0,.3.1.5.3,0,.1.1.1.1.2l.1.5,1.1,3.8c0,.1,0,.3-.1.3h-.2l-2.3.1h0a.43.43,0,0,0-.4.4,8.1,8.1,0,0,1,0,2.2.367.367,0,0,0,.1.3.758.758,0,0,0,.2.4l2.6,3.1c.1.1.1.2.2.3v.3l-1.2,2.7a.1.1,0,0,1-.1.1l1.1-.6.2-.1,1.8-1c.2-.1.3-.2.5-.3a13.71,13.71,0,0,1,1.8-1.1h0v-.1l1.2-2.7v-.3c0-.1-.1-.2-.2-.3l-2.6-3.1a.52.52,0,0,1-.2-.4v-1.4h0l1.2-.7.2-.1.1-.1.2-.1.2-.1.3-.2h0l.1-.1.4-.2h0l.1-.1v-.2l-.3-1-.8-2.8-.2-.5c0-.1-.1-.1-.1-.2a.55.55,0,0,0-.5-.3l-2.5-.6a.55.55,0,0,1-.5-.3l-.1-.1a.1.1,0,0,0-.1-.1c-.4-.8-.9-1.6-1.4-2.4l-.1-.1v-.2h0v-.4l.8-2.8v-.3a.758.758,0,0,0-.2-.4l-1.2-1.2-1.8-1.9h0c-.1-.1-.2-.1-.3-.2h-.1l-2.8,1.6a3.552,3.552,0,0,0-.9-.4l-.1-.1c-.1-.1-.2-.1-.3-.2l-.1-.1v-.2h0l-1.4-3.9c0-.1-.1-.1-.1-.2a.758.758,0,0,0-.4-.2l-2.7-.3a.367.367,0,0,0-.3.1l-.7.4-.4.2-2.3,1.3-.6.3-.4.2h-.2l-5.3,3.1A7.249,7.249,0,0,1,329.2,160.7Z"/><path class="v" d="M327.6,170.5h.2l2.3-.1h0a.43.43,0,0,0,.4-.4,4.1,4.1,0,0,1-.1-1.1Z"/><path class="v" d="M336.9,186.4h0l2.8-1.6a9.227,9.227,0,0,0-.8-.5.629.629,0,0,0-.6,0Z"/><path class="v" d="M345.3,186.3l.8,3.9a.367.367,0,0,1-.1.3l4.4-2.5c-.1,0-.2-.1-.3-.1l-2.7-2.5a.471.471,0,0,0-.6-.1,7.457,7.457,0,0,1-1.2.7C345.4,185.9,345.3,186.1,345.3,186.3Z"/><path class="v" d="M334.6,168.8a2.994,2.994,0,0,1,2.1-1.7h.3a4.058,4.058,0,0,1,1.9.4v.7a11.676,11.676,0,0,0,5.4,9.3l.6.3a3.255,3.255,0,0,1-.4,1.4,2.725,2.725,0,0,1-2.5,1.7h-.8a7.416,7.416,0,0,1-3.5-2.3C334.8,175.9,333.5,171.5,334.6,168.8Z"/><path class="d" d="M334.6,168.8a2.994,2.994,0,0,1,2.1-1.7h.3a4.058,4.058,0,0,1,1.9.4v.7a11.676,11.676,0,0,0,5.4,9.3l.6.3a3.255,3.255,0,0,1-.4,1.4,2.725,2.725,0,0,1-2.5,1.7h-.8a7.416,7.416,0,0,1-3.5-2.3C334.8,175.9,333.5,171.5,334.6,168.8Z"/><path class="v" d="M327.5,170.9l1.3,4.3a1.024,1.024,0,0,0,.6.5l2.5.6c.3.1.5.2.6.5.4.8.9,1.6,1.4,2.4a1.445,1.445,0,0,1,.2.7l-.8,2.8a1.072,1.072,0,0,0,.2.6l3,3.1c.1.1.3.2.4.1a.1.1,0,0,0,.1-.1l1.4-2.1c.1-.2.4-.2.6,0l.8.5.9.5a.9.9,0,0,1,.6.6l1.5,3.9a.675.675,0,0,0,.6.4l2.7.3h.3c.1,0,.1-.2.1-.3l-.8-3.9a.55.55,0,0,1,.3-.5,7.46,7.46,0,0,0,1.2-.7.471.471,0,0,1,.6.1l2.7,2.5a.367.367,0,0,0,.3.1h.1a.1.1,0,0,0,.1-.1l1.2-2.7a.614.614,0,0,0-.1-.6l-2.6-3.1c-.2-.2-.2-.4-.3-.7a8.1,8.1,0,0,0,0-2.2.43.43,0,0,1,.4-.4l2.3-.1h.1c.2,0,.3-.2.2-.4l-1.3-4.3a1.024,1.024,0,0,0-.6-.5l-2.5-.6c-.3-.1-.5-.2-.6-.5-.4-.8-.9-1.6-1.4-2.4a.821.821,0,0,1-.1-.7l.8-2.8a1.072,1.072,0,0,0-.2-.6l-3-2.9c-.2-.2-.4-.2-.5-.1l-1.4,2.1c-.1.2-.4.1-.6,0a9.5,9.5,0,0,0-1.7-1,.9.9,0,0,1-.6-.6l-1.5-3.9a.675.675,0,0,0-.6-.4l-2.7-.3h-.3a.367.367,0,0,0-.1.3l.9,3.8a.55.55,0,0,1-.3.5,7.46,7.46,0,0,0-1.2.7.471.471,0,0,1-.6-.1l-2.8-2.5c-.1-.1-.2-.2-.4-.1h0a.1.1,0,0,0-.1.1l-1.2,2.7a.481.481,0,0,0,.2.6l2.6,3.1c.2.2.2.4.3.7a4.033,4.033,0,0,0,0,1.1V170h0c0,.2-.2.4-.4.3l-2.3.1h-.2C327.5,170.7,327.5,170.8,327.5,170.9Zm10.1,7.7c-2.8-2.9-4.1-7.3-2.9-9.8a2.994,2.994,0,0,1,2.1-1.7h.3a4.058,4.058,0,0,1,1.9.4,2.507,2.507,0,0,1,.7.4,15.582,15.582,0,0,1,2,1.6,11.7,11.7,0,0,1,3.3,7.6v.8a3.255,3.255,0,0,1-.4,1.4,2.725,2.725,0,0,1-2.5,1.7h-.9A6.987,6.987,0,0,1,337.6,178.6Z"/><line class="x" y1="3.1" x2="5.4" transform="translate(328.8 157.5)"/><path class="y" d="M352.4,168.7h0a2.186,2.186,0,0,0,.5.3l2.5.6a.55.55,0,0,1,.5.3l-5.4,3.1a2.186,2.186,0,0,0-.5-.3l-2.5-.6a2.186,2.186,0,0,1-.5-.3Z"/><path class="d" d="M345.3,168.6l.8-2.8v-.3l1.3-.7,4.1-2.4v.3l-.8,2.8v.1l-5.4,3Z"/><path class="d" d="M342.1,155.4c.1.1.1.1.1.2l1.4,3.9h0l-5.4,3.1h0l-1.5-3.9a.349.349,0,0,0-.1-.2Z"/><path class="d" d="M334.1,157.5h.2l-1,.6h0a.367.367,0,0,0-.1.3l.9,3.8a.55.55,0,0,1-.3.5,7.46,7.46,0,0,0-1.2.7.471.471,0,0,1-.6-.1l-2.7-2.5c-.1-.1-.2-.2-.4-.1Z"/><path class="d" d="M330.4,169c0,.4.1.7.1,1.1h0a.43.43,0,0,1-.4.4l-2.3.1h-.2Z"/><path class="k" d="M336.9,186.4l1.4-2.1q.15-.3.6,0a3.508,3.508,0,0,0,.8.5l-2.8,1.6Z"/><path class="k" d="M345.6,185.8a7.46,7.46,0,0,0,1.2-.7.471.471,0,0,1,.6.1l2.7,2.5a.367.367,0,0,0,.3.1l-4.4,2.5c.1,0,.1-.2.1-.3l-.8-3.9A.319.319,0,0,1,345.6,185.8Z"/><path class="y" d="M354.3,177.8a.758.758,0,0,0,.2.4l2.6,3.1c.1.1.1.2.2.3l-5.4,3.1c0-.1-.1-.2-.2-.3l-2.6-3.1a.52.52,0,0,1-.2-.4Z"/><path class="z" d="M343.8,159.5h0v.2l.1.1c.1.1.2.2.3.2l.1.1c.3.1.6.3.9.4l-2.6,1.5h0a.1.1,0,0,0-.1.1l-1.4,2.1c-.1.2-.4.1-.6,0a9.5,9.5,0,0,0-1.7-1,1.7,1.7,0,0,1-.6-.6Z"/><path class="k" d="M348.8,178.3h0a.43.43,0,0,1,.4-.4l2.3-.1h.2l2.6-1.5v1.4l-5.4,3.1c0-.1-.1-.2-.1-.3A8.067,8.067,0,0,0,348.8,178.3Z"/><path class="z" d="M350.8,165.6v.3h0v.2l.1.1a18.839,18.839,0,0,1,1.4,2.4.1.1,0,0,0,.1.1l.1.1-5.4,3.1c0-.1-.1-.1-.1-.2-.4-.8-.9-1.6-1.4-2.4a1.421,1.421,0,0,1-.2-.6h0Z"/><path class="k" d="M350.5,187.8l1.2-2.7v-.3l5.4-3.1v.3l-1.2,2.7v.1h0c-.1.1-.9.5-1.8,1.1-.2.1-.3.2-.5.3l-1.8,1-.2.1-1.1.5Z"/><path class="d" d="M350.5,173c0,.1.1.1.1.2l.1.5,1.1,3.8c0,.1,0,.3-.1.3l2.6-1.5h0l1.2-.7.2-.1.1-.1.2-.1.2-.1.3-.2h0l.1-.1.4-.2h0l.1-.1v-.2l-.3-1-.8-2.8-.2-.5c0-.1-.1-.1-.1-.2Z"/><path class="aa" d="M342.6,162c.2,0,.3,0,.4.1l2.9,3.1h0c.1.1.2.2.2.3l1.3-.7,4.1-2.4a.758.758,0,0,0-.2-.4l-1.2-1.2-1.8-1.9h0c-.1-.1-.2-.1-.3-.2h-.1l-2.8,1.6Z"/><path class="aa" d="M334.3,157.5l.4-.2.6-.3,2.3-1.3.4-.2.7-.4c.1,0,.2-.1.3-.1l2.7.3a.52.52,0,0,1,.4.2l-5.4,3.1a.758.758,0,0,0-.4-.2l-2.7-.3h-.2Z"/><path class="d" d="M384.4,214.4l-.3.1-.1.1.1-.1Z"/><path class="t" d="M385.6,211.8l.4,1.3v0Z"/><path class="w" d="M385.6,211.8l.4,1.3v0Z"/><path class="t" d="M349.2,193.4l3.8,3.4a.619.619,0,0,0,.8.1,5.071,5.071,0,0,1,1.6-.9.67.67,0,0,0,.4-.7l-1.2-5.3a.4.4,0,0,1,.2-.4h.3l3.7.4a.864.864,0,0,1,.6.3c.1.1.2.2.2.3l2,5.4h0a3.044,3.044,0,0,0,.8.8,17.1,17.1,0,0,1,2.3,1.3.6.6,0,0,0,.8,0l1.9-2.9.1-.1h0a.735.735,0,0,1,.6.2l4,4.2.1.1a2.185,2.185,0,0,1,.3.5v.4l-1.1,3.8v.1h0a1.884,1.884,0,0,0,.2.8,33.712,33.712,0,0,1,1.9,3.2c.1.1.1.2.2.2a1.612,1.612,0,0,0,.7.4l3.5.8c.2.1.5.2.6.4a.367.367,0,0,1,.1.3l.2.7,1.5,5.1a.365.365,0,0,1-.2.5h0c-.1,0-.2.1-.3.1l-3.2.2h0a.472.472,0,0,0-.5.5,15.037,15.037,0,0,1,0,3,.6.6,0,0,0,.1.4,2.187,2.187,0,0,0,.3.5l3.5,4.3a.758.758,0,0,1,.2.4.3.3,0,0,1,0,.4l-1.7,3.7-.1.1,1.5-.9.3-.2,2.4-1.4.7-.4c1.3-.8.7-.4.9-.5h.1l.1-.1,1.6-3.7v-.4a.52.52,0,0,0-.2-.4l-3.5-4.3c-.1-.2-.2-.3-.3-.5a.6.6,0,0,1-.1-.4,8.083,8.083,0,0,0,.1-1.6h0l1.7-1,.3-.2.1-.1.3-.2.3-.1.5-.3h0l.2-.1.6-.3h.1l.1-.1v-.3l-.4-1.3-1.1-3.8-.2-.7a.349.349,0,0,0-.1-.2,1.012,1.012,0,0,0-.7-.4l-3.5-.8a1.612,1.612,0,0,1-.7-.4l-.1-.1-.1-.1a33.717,33.717,0,0,0-1.9-3.2l-.1-.2v-.2h0V201l1.1-3.8v-.4a2.187,2.187,0,0,0-.3-.5l-1.6-1.7-2.4-2.6h0a.758.758,0,0,0-.4-.2h-.2l-3.9,2.2-1.2-.6-.1-.1c-.1-.1-.3-.2-.4-.3-.1,0-.1-.1-.1-.2l-.1-.1-.1-.1h0l-2-5.4c0-.1-.1-.2-.2-.3a.864.864,0,0,0-.6-.3l-3.7-.4a.6.6,0,0,0-.4.1l-1,.6-.5.3-1.5.9-.8.4-.6.3h-.1l-.1.1-7.3,4.2A.536.536,0,0,1,349.2,193.4Z"/><path class="t" d="M347,206.9h.2l3.2-.2h0a.472.472,0,0,0,.5-.5,7.568,7.568,0,0,1-.1-1.5Z"/><path class="t" d="M359.7,228.7l-.1.1h0l3.9-2.3a10.543,10.543,0,0,1-1.1-.7c-.3-.2-.7-.2-.8,0Z"/><path class="t" d="M371.3,228.5l1.2,5.3a.6.6,0,0,1-.1.4l6-3.5a.52.52,0,0,1-.4-.2l-3.8-3.5a.605.605,0,0,0-.8-.1,5.071,5.071,0,0,1-1.6.9C371.4,227.9,371.2,228.2,371.3,228.5Z"/><path class="t" d="M356.6,204.7a3.806,3.806,0,0,1,2.9-2.3h.4a7.512,7.512,0,0,1,2.6.5v1a16.229,16.229,0,0,0,7.4,12.8c.3.2.6.3.9.5a5.918,5.918,0,0,1-.5,1.9,3.735,3.735,0,0,1-3.5,2.2h-1.4a11.1,11.1,0,0,1-4.8-3.1C356.9,214.2,355.1,208.2,356.6,204.7Z"/><path class="d" d="M356.6,204.7a3.806,3.806,0,0,1,2.9-2.3h.4a7.512,7.512,0,0,1,2.6.5v1a16.229,16.229,0,0,0,7.4,12.8c.3.2.6.3.9.5a5.918,5.918,0,0,1-.5,1.9,3.735,3.735,0,0,1-3.5,2.2h-1.4a11.1,11.1,0,0,1-4.8-3.1C356.9,214.2,355.1,208.2,356.6,204.7Z"/><path class="t" d="M346.8,207.4l1.8,5.9a.871.871,0,0,0,.8.6l3.5.8a1.456,1.456,0,0,1,.9.6,33.717,33.717,0,0,0,1.9,3.2,1.02,1.02,0,0,1,.2.9l-1.1,3.8a1.4,1.4,0,0,0,.3.9l4.1,4.3a.481.481,0,0,0,.6.2l.1-.1,1.9-2.9c.1-.2.4-.3.8,0a6.726,6.726,0,0,0,1.1.7l1.2.6a2.047,2.047,0,0,1,.8.8l2,5.4a1.555,1.555,0,0,0,.8.6l3.7.4a.367.367,0,0,0,.3-.1h0a.52.52,0,0,0,.2-.4l-1.2-5.3a.569.569,0,0,1,.4-.7,5.071,5.071,0,0,0,1.6-.9.755.755,0,0,1,.8.1l3.8,3.5a.758.758,0,0,0,.4.2h.1l.1-.1,1.7-3.7a1.02,1.02,0,0,0-.2-.9l-3.5-4.3a1.613,1.613,0,0,1-.3-.9,15.037,15.037,0,0,0,0-3h0a.472.472,0,0,1,.5-.5l3.2-.2h.1c.2-.1.4-.3.3-.5l-1.8-5.9a.871.871,0,0,0-.8-.6l-3.5-.8a1.456,1.456,0,0,1-.9-.6,33.717,33.717,0,0,0-1.9-3.2,1.02,1.02,0,0,1-.2-.9l1.1-3.8a1.4,1.4,0,0,0-.3-.9l-4-4.3c-.3-.3-.6-.3-.7-.1l-1.9,2.9c-.1.2-.5.2-.8,0a17.1,17.1,0,0,0-2.3-1.3,2.047,2.047,0,0,1-.8-.8l-2-5.4a1.555,1.555,0,0,0-.8-.6l-3.7-.4a.756.756,0,0,0-.4.1.52.52,0,0,0-.2.4l1.2,5.3a.67.67,0,0,1-.4.7,5.071,5.071,0,0,0-1.6.9.605.605,0,0,1-.8-.1l-3.8-3.4c-.1-.2-.3-.2-.5-.2h0a.1.1,0,0,0-.1.1l-1.7,3.7a1.02,1.02,0,0,0,.2.9l3.5,4.3a3.552,3.552,0,0,1,.4.9,8.6,8.6,0,0,0-.1,1.6c0,.5.1,1,.1,1.5h0a.472.472,0,0,1-.5.5l-3.2.2c-.1,0-.2,0-.2.1h0C346.8,207.1,346.8,207.2,346.8,207.4Zm13.9,10.8c-3.8-4-5.6-10-4-13.5a3.806,3.806,0,0,1,2.9-2.3h.4a5.834,5.834,0,0,1,2.6.6,4.054,4.054,0,0,1,.9.5,12.265,12.265,0,0,1,2.8,2.3,17.089,17.089,0,0,1,4.6,10.5,4.1,4.1,0,0,1-.1,1.1,5.918,5.918,0,0,1-.5,1.9,3.735,3.735,0,0,1-3.5,2.2h-1.4A14.268,14.268,0,0,1,360.7,218.2Z"/><line class="x" y1="4.3" x2="7.5" transform="translate(348.6 188.9)"/><path class="y" d="M379.4,205.3h0a1.612,1.612,0,0,0,.7.4l3.5.8a1.612,1.612,0,0,1,.7.4l-5.8,3.3a2.092,2.092,0,0,0-.6-.4l-3.5-.8a1.612,1.612,0,0,1-.7-.4Z"/><path class="d" d="M371.3,204.3l1.1-3.8v-.4l1.8-1,4-2.3v.4l-1.1,3.8v.1l-5.8,3.3Z"/><path class="d" d="M365.2,187c.1.1.2.2.2.3l2,5.4h0l-5.8,3.3h0l-2-5.4c0-.1-.1-.2-.2-.3Z"/><path class="d" d="M356,188.9h0a.31.31,0,0,1,.2-.1l-1.4.8h0a.52.52,0,0,0-.2.4l1.2,5.3a.67.67,0,0,1-.4.7,5.071,5.071,0,0,0-1.6.9.605.605,0,0,1-.8-.1l-3.8-3.5a.764.764,0,0,0-.5-.2Z"/><path class="d" d="M350.9,204.8c0,.5.1,1,.1,1.5h0a.472.472,0,0,1-.5.5l-3.2.2h-.2Z"/><path class="k" d="M359.7,228.7l1.9-2.9c.1-.2.4-.3.8,0s.8.5,1.1.7l-3.9,2.3h0A.1.1,0,0,1,359.7,228.7Z"/><path class="k" d="M371.7,227.8a5.071,5.071,0,0,0,1.6-.9.755.755,0,0,1,.8.1l3.8,3.5a.758.758,0,0,0,.4.2l-6,3.5a.52.52,0,0,0,.2-.4l-1.2-5.3A.569.569,0,0,1,371.7,227.8Z"/><path class="y" d="M382,217.8c.1.2.1.4.3.5l3.5,4.3a.758.758,0,0,1,.2.4l-5.8,3.3a.52.52,0,0,0-.2-.4l-3.5-4.3c-.1-.2-.2-.3-.3-.5Z"/><path class="z" d="M367.4,192.7l.1.1a.1.1,0,0,0,.1.1c0,.1.1.1.1.2a1.381,1.381,0,0,0,.4.3l.1.1,1.2.6-1.9,1.1h0l-.1.1-1.9,2.9c-.1.2-.5.2-.8,0a17.1,17.1,0,0,0-2.3-1.3,2.047,2.047,0,0,1-.8-.8Z"/><path class="k" d="M376.1,217.7h0a.472.472,0,0,1,.5-.5l3.2-.2a.367.367,0,0,0,.3-.1h0l1.9-1.1c0,.6-.1,1.1-.1,1.6a.6.6,0,0,0,.1.4l-5.8,3.4a.6.6,0,0,1-.1-.4A16.044,16.044,0,0,0,376.1,217.7Z"/><path class="z" d="M377.2,201.1v.4h0v.2l.1.2a33.712,33.712,0,0,1,1.9,3.2l.1.1.1.1-5.8,3.3c-.1-.1-.1-.2-.2-.2a33.717,33.717,0,0,0-1.9-3.2,1.077,1.077,0,0,1-.2-.8h0Z"/><path class="d" d="M379.3,205.3h0l-.1-.1Z"/><path class="k" d="M378.5,230.6l1.7-3.7a.3.3,0,0,0,0-.4l5.8-3.3v.4l-1.7,3.7v.1h-.1c-.1.1.4-.3-.9.5l-.7.4-2.5,1.4-.3.2-1.5.9C378.4,230.6,378.5,230.6,378.5,230.6Z"/><path class="d" d="M378.4,210.3a.367.367,0,0,1,.1.3l.2.7,1.5,5.1a.365.365,0,0,1-.2.5l1.9-1.1h0l1.7-1,.3-.2.1-.1.3-.2.3-.1.5-.3h0l.2-.1.6-.3h.1l.1-.1v-.3l-.4-1.3-1.1-3.8-.2-.7a.349.349,0,0,0-.1-.2Z"/><path class="aa" d="M367.5,195.1a.735.735,0,0,1,.6.2l4,4.2.1.1a2.185,2.185,0,0,1,.3.5l1.8-1,4-2.3a2.187,2.187,0,0,0-.3-.5l-1.6-1.7L374,192h0a.758.758,0,0,0-.4-.2h-.2l-3.9,2.2Z"/><path class="aa" d="M356.2,188.9l.6-.3.8-.5,1.5-.9.5-.3,1-.6c.1-.1.2-.1.4-.1l3.7.4a.864.864,0,0,1,.6.3l-5.8,3.3a.864.864,0,0,0-.6-.3l-3.7-.4h-.3Z"/><line class="x" x1="0.1" y2="0.1" transform="translate(356 188.9)"/><path class="h" d="M228.4,247.5a6.663,6.663,0,0,1-3.1-5.4l-2.8-72.7,3.7-2.1h0a2.463,2.463,0,0,1,2.2.2l164.7,94.8a6.923,6.923,0,0,1,3.1,5.4v72.9a2.031,2.031,0,0,1-1,2h0l-3.7,2.1Z"/><path class="n" d="M389.4,264.4,224.7,169.6c-1.7-1-3.1-.2-3.1,1.8v72.8a6.923,6.923,0,0,0,3.1,5.4l164.7,94.8c1.7,1,3.1.2,3.1-1.8V269.8A7.083,7.083,0,0,0,389.4,264.4Z"/><path class="o" d="M395.3,342.5a1.961,1.961,0,0,0,.9-2V267.7a6.026,6.026,0,0,0-.8-2.9l-3.7,2.1a6.026,6.026,0,0,1,.8,2.9v72.8a2.174,2.174,0,0,1-.8,2l3.6-2.1Z"/><path class="l" d="M376.6,325.8l-45.1-26.1a3.157,3.157,0,0,1-1.3-2.2V259.2a2.606,2.606,0,0,1,1.3-2.2l4.6-2.7a2.754,2.754,0,0,1,2.5,0l45.1,26.1a2.851,2.851,0,0,1,1.3,2.2V321a2.851,2.851,0,0,1-1.3,2.2l-4.6,2.7A3.127,3.127,0,0,1,376.6,325.8Z"/><path class="j" d="M377.9,325V286.6a2.2,2.2,0,0,0-.4-1.3l7.2-4.1a2.836,2.836,0,0,1,.4,1.3v38.4a2.851,2.851,0,0,1-1.3,2.2l-4.6,2.7a2.657,2.657,0,0,1-2.3.1C377.4,326.1,377.9,325.8,377.9,325Z"/><path class="s" d="M376.6,284.5l-45.1-26.1c-.7-.4-1.3-.1-1.3.7v38.3a2.851,2.851,0,0,0,1.3,2.2l45.1,26.1c.7.4,1.3.1,1.3-.7V286.6A2.838,2.838,0,0,0,376.6,284.5Z"/><path class="j" d="M377.9,300.4l-47.7-27.6v-1.4L377.9,299Z"/><path class="v" d="M357.6,291.4l-7.1-4.1v-5.5l7.1,4.1Z"/><path class="v" d="M357.6,285.9l1.2-.7-7.1-4.1-1.2.7Z"/><path class="w" d="M357.6,285.9l1.2-.7-7.1-4.1-1.2.7Z"/><path class="v" d="M357.6,285.9v5.5l1.2-.7v-5.5Z"/><path class="z" d="M357.6,285.9v5.5l1.2-.7v-5.5Z"/><path class="v" d="M365.6,274v-6.6a4.169,4.169,0,0,0-1.8-3.1l-12.9-7.5a.367.367,0,0,0-.3-.1v7c0,.8-.7.9-1.5.9s-1.5-.1-1.5-.9V257a2.743,2.743,0,0,1,.6-2.1,3.122,3.122,0,0,1,4.2-.7l12.9,7.5a7,7,0,0,1,3.3,5.7V274c0,.8-.7.9-1.5.9S365.6,274.8,365.6,274Z"/><path class="o" d="M325,236.3v48.3a.909.909,0,0,1-.4.8c-.2.1-2,.9-2,.9l-36.8-22.9a2.717,2.717,0,0,1-1.2-2.1L283,213.1l2-.9a.972.972,0,0,1,.9.1l38,21.9A2.745,2.745,0,0,1,325,236.3Z"/><path class="p" d="M323,237.2v48.3c0,.8-.6,1.1-1.2.7l-38-21.9a2.717,2.717,0,0,1-1.2-2.1V213.9c0-.8.5-1.1,1.2-.7l38,21.9A2.676,2.676,0,0,1,323,237.2Z"/><g class="ab"><path class="ac" d="M292.4,256.8l-3.3-8.7,7.3-.3,1.1,10.7Z"/></g><g class="ab"><path class="l" d="M287.2,295.9a32.458,32.458,0,0,1-2.8,5.2c-2.8,4.5-4.9,5.1-7.1,3.9-3.6-1.9-3.2-3.3-.9-4.8a9.154,9.154,0,0,0,2.5-2.3,4.879,4.879,0,0,1-1.7.1,1.7,1.7,0,0,1-1.4-1.4c0-.3.6-.2,1.5-.7,1.1-.6,1.6-1.4,3-1.6a1.964,1.964,0,0,0,1.3-.9c1.5-2.8,2.9-7.7,3.9-11.7,1.2-4.5,2.1-16.5,2.5-19.4.9-5.9,3.1-7.7,8.8-6.8,4.9,4.2-.6,7.8-5.2,27.9A107.493,107.493,0,0,1,287.2,295.9Z"/><path class="v" d="M288.7,251.2V238c0-6.6,4.6-10.7,10.3-9.1l.8.2c5.7,1.5,10.3,8.1,10.3,14.7v5.8c0,4.1-2.9,6.7-6.4,5.7l-15-4.1Z"/><g class="ad"><path d="M288.7,251.2V238c0-6.6,4.6-10.7,10.3-9.1l.8.2c5.7,1.5,10.3,8.1,10.3,14.7v5.8c0,4.1-2.9,6.7-6.4,5.7l-15-4.1Z"/></g><path class="l" d="M296.8,255.6c-1.3-.3-6.5,2.3-7.8,7.8-.5,2-.3,4.5,2.4,14.6.4,2.4-1.1,6-2.5,12.6-2,9.1-3.6,18.9-3.6,18.9,5,8.9,24.8,14.1,30.7,9.4-1.1-15-2.1-18.7-3.6-23.7a51.364,51.364,0,0,0-5.1-11.8l2.5-8.7s-3.7-10.2.8-15.1c-.8-.6-7-2.1-7-2.1Z"/><path class="r" d="M298.9,239.9a10.418,10.418,0,0,1,4.4,5.3c.7-1.5,2.5-1.3,3.5.1a3.379,3.379,0,0,1-.7,4.4l-.1.1a1.542,1.542,0,0,1-2.3-.3v8.1a11.553,11.553,0,0,1-3.7,3.6c-2,1-4.9-.1-5.1-1.8s2-3.9,2-3.9V252a8.447,8.447,0,0,1-4-.9c-.8-.6-2.5-2.5-2.6-8.4-.1-6.9,1.3-9.8,2.4-10.3C293.8,236,295.6,237.9,298.9,239.9Z"/><path class="j" d="M296.6,242.3a1.1,1.1,0,0,1,.6,1c0,.4-.3.7-.7.5a1,1,0,0,1-.6-1C296,242.4,296.3,242.2,296.6,242.3Z"/><path class="u" d="M295.3,248.8a1.063,1.063,0,0,1-1-.9l1.5-.1A.779.779,0,0,1,295.3,248.8Z"/><path class="j" d="M291,238c.4-.2.8.1,1.1.5l-1.3.7A.816.816,0,0,1,291,238Z"/><path class="j" d="M297.6,240.3c-.4-.3-.8-.4-1.1,0l1.3,1.4A1.185,1.185,0,0,0,297.6,240.3Z"/><path class="j" d="M291.7,240.5a1.1,1.1,0,0,1,.6,1c0,.4-.3.7-.7.5a1.1,1.1,0,0,1-.6-1C291.1,240.6,291.4,240.4,291.7,240.5Z"/><path class="u" d="M291.9,244.5l2,1.3.1-4.4Z"/><path class="u" d="M296.8,253.3s3.3-.2,4.3-.9a3.11,3.11,0,0,0,1.2-1.6c-.5,1.4-3.9,1.6-5.5,1.4Z"/><path class="j" d="M307.3,283.6l-3.4,1.6,4.6-5.8Z"/><path class="l" d="M322.9,305.8a51.447,51.447,0,0,1-.1,6.8c-.3,6-1.7,7.8-3.9,7.9-3.5.1-3.8-1.5-2.6-4.2a15.57,15.57,0,0,0,1-3.7,6.886,6.886,0,0,1-1.3,1.1,1.32,1.32,0,0,1-1.7-.6c-.2-.3.4-.5.9-1.5.7-1.3.7-2.3,1.7-3.3a2.271,2.271,0,0,0,.6-1.6,92.651,92.651,0,0,0-1.6-13.8c-.9-5.1-6.2-18-6.2-18a18.851,18.851,0,0,1-2.2-10.4c.2-1.6.9-4.4,3-4.6,4.2,3,6.9,12.1,10.8,31.4A98.959,98.959,0,0,1,322.9,305.8Z"/></g><g class="ab"><path class="s" d="M293.5,229.2s10.4,3.2,8.9,17.5-6.1,8.9-6.1,8.9a8.519,8.519,0,0,0-5.6.8c-1.6,1,2.2,15,16.2,5.6S310.3,222.6,293.5,229.2Z"/></g><path class="s" d="M323,294.5c0,1.3-1,1.8-2.2,1.1l-36.2-20.9a4.532,4.532,0,0,1-2.2-3.6c0-1.3,1-1.8,2.2-1.1l36.2,20.9A4.687,4.687,0,0,1,323,294.5Z"/><path class="s" d="M278.4,212.5c0,1.3-1,1.8-2.2,1.1L240,192.7a4.8,4.8,0,0,1-2.2-3.6c0-1.3,1-1.8,2.2-1.1l36.2,20.9A5.1,5.1,0,0,1,278.4,212.5Z"/><path class="p" d="M278.4,220.7c0,.6-.5.9-1.1.5l-46.5-26.9a2.653,2.653,0,0,1-1.1-1.8c0-.6.5-.9,1.1-.5l46.6,26.9A2.944,2.944,0,0,1,278.4,220.7Z"/><path class="p" d="M278.4,225.4c0,.6-.5.9-1.1.5L230.8,199a2.653,2.653,0,0,1-1.1-1.8c0-.6.5-.9,1.1-.5l46.6,26.9A2.944,2.944,0,0,1,278.4,225.4Z"/><path class="p" d="M278.4,230.1c0,.6-.5.9-1.1.5l-46.5-26.9a2.653,2.653,0,0,1-1.1-1.8c0-.6.5-.9,1.1-.5l46.6,26.9A2.693,2.693,0,0,1,278.4,230.1Z"/><path class="p" d="M278.4,234.8c0,.6-.5.9-1.1.5l-46.5-26.9a2.653,2.653,0,0,1-1.1-1.8c0-.6.5-.9,1.1-.5L277.4,233A2.693,2.693,0,0,1,278.4,234.8Z"/><path class="p" d="M278.4,239.4c0,.6-.5.9-1.1.5L230.8,213a2.653,2.653,0,0,1-1.1-1.8c0-.6.5-.9,1.1-.5l46.6,26.9A2.944,2.944,0,0,1,278.4,239.4Z"/><path class="v" d="M278.4,250v4.4c0,1.4-1,1.9-2.2,1.3l-3.8-2.2a4.734,4.734,0,0,1-2.2-3.8v-4.4c0-1.4,1-1.9,2.2-1.3l3.8,2.2A5.049,5.049,0,0,1,278.4,250Z"/><path class="s" d="M267.8,241.4l-10-5.8c-.6-.3-1.1-.1-1.1.5a2.653,2.653,0,0,0,1.1,1.8l10,5.8c.6.3,1.1.1,1.1-.5A2.453,2.453,0,0,0,267.8,241.4Z"/><path class="s" d="M267.8,244.9l-10-5.8c-.6-.3-1.1-.1-1.1.5a2.653,2.653,0,0,0,1.1,1.8l10,5.8c.6.3,1.1.1,1.1-.5A2.653,2.653,0,0,0,267.8,244.9Z"/><path class="s" d="M267.8,248.4l-10-5.8c-.6-.4-1.1-.1-1.1.5a2.653,2.653,0,0,0,1.1,1.8l10,5.8c.6.4,1.1.1,1.1-.5A2.653,2.653,0,0,0,267.8,248.4Z"/><path class="v" d="M278.4,264.1v4.4c0,1.4-1,1.9-2.2,1.3l-3.8-2.2a4.734,4.734,0,0,1-2.2-3.8v-4.4c0-1.4,1-1.9,2.2-1.3l3.8,2.2A4.734,4.734,0,0,1,278.4,264.1Z"/><path class="s" d="M267.8,255.4l-10-5.8c-.6-.3-1.1-.1-1.1.5a2.653,2.653,0,0,0,1.1,1.8l10,5.8c.6.3,1.1.1,1.1-.5A2.653,2.653,0,0,0,267.8,255.4Z"/><path class="s" d="M267.8,259l-10-5.8c-.6-.4-1.1-.1-1.1.5a2.653,2.653,0,0,0,1.1,1.8l10,5.8c.6.4,1.1.1,1.1-.5A2.453,2.453,0,0,0,267.8,259Z"/><path class="s" d="M267.8,262.5l-10-5.8c-.6-.4-1.1-.1-1.1.5a2.653,2.653,0,0,0,1.1,1.8l10,5.8c.6.4,1.1.1,1.1-.5A2.653,2.653,0,0,0,267.8,262.5Z"/><path class="v" d="M251.3,234.7v4.4c0,1.4-1,1.9-2.2,1.3l-3.8-2.2a4.406,4.406,0,0,1-2.1-3.8V230c0-1.4,1-1.9,2.2-1.3l3.8,2.2A4.667,4.667,0,0,1,251.3,234.7Z"/><path class="s" d="M240.8,226.1l-10-5.8c-.6-.4-1.1-.1-1.1.5a2.653,2.653,0,0,0,1.1,1.8l10,5.8c.6.4,1.1.1,1.1-.5A2.453,2.453,0,0,0,240.8,226.1Z"/><path class="s" d="M240.8,229.6l-10-5.8c-.6-.3-1.1-.1-1.1.5a2.653,2.653,0,0,0,1.1,1.8l10,5.8c.6.3,1.1.1,1.1-.5A2.653,2.653,0,0,0,240.8,229.6Z"/><path class="s" d="M240.8,233.1l-10-5.8c-.6-.4-1.1-.1-1.1.5a2.653,2.653,0,0,0,1.1,1.8l10,5.8c.6.4,1.1.1,1.1-.5A2.653,2.653,0,0,0,240.8,233.1Z"/><path class="v" d="M251.4,248.8v4.4c0,1.4-1,1.9-2.2,1.3l-3.8-2.2a4.734,4.734,0,0,1-2.2-3.8v-4.4c0-1.4,1-1.9,2.2-1.3l3.8,2.2A4.734,4.734,0,0,1,251.4,248.8Z"/><path class="s" d="M240.8,240.1l-10-5.8c-.6-.3-1.1-.1-1.1.5a2.653,2.653,0,0,0,1.1,1.8l10,5.8c.6.3,1.1.1,1.1-.5A2.653,2.653,0,0,0,240.8,240.1Z"/><path class="s" d="M240.8,243.7l-10-5.8c-.6-.3-1.1-.1-1.1.5a2.653,2.653,0,0,0,1.1,1.8l10,5.8c.6.4,1.1.1,1.1-.5A2.453,2.453,0,0,0,240.8,243.7Z"/><path class="s" d="M240.8,247.2l-10-5.8c-.6-.4-1.1-.1-1.1.5a2.653,2.653,0,0,0,1.1,1.8l10,5.8c.6.4,1.1.1,1.1-.5A2.653,2.653,0,0,0,240.8,247.2Z"/><path class="v" d="M419.2,249.7a4.559,4.559,0,0,0,2,3.5l13.1,7.6a6.886,6.886,0,0,0,.8.3h.1c.1,0,.3.1.4.1h2c.1,0,.2-.1.3-.1l.2-.1c.1-.1.3-.1.4-.2l1.7-1a4.294,4.294,0,0,0,2-3.5V241.2a3.606,3.606,0,0,0-.6-2,4.009,4.009,0,0,0-1.4-1.5l-13.1-7.6a4.265,4.265,0,0,0-4.1,0l-1.7,1a4.294,4.294,0,0,0-2,3.5Z"/><path class="v" d="M419.2,233.9a.367.367,0,0,0-.1.3c.1-1,1-1.4,2-.8l13.1,7.6a4.009,4.009,0,0,1,1.4,1.5,3.606,3.606,0,0,1,.6,2v15.2c0,1-.5,1.5-1.3,1.4h-.1c-.2-.1-.3-.1-.5-.2l-13.1-7.6a4.294,4.294,0,0,1-2-3.5V233.9Z"/><path class="h" d="M434,249.9l-11.7-6.8v6.5a.55.55,0,0,0,.3.5l11,6.4c.2.1.3,0,.3-.2v-6.4Z"/><path class="h" d="M422.3,239.5v2.3l11.7,6.8v-2.3a.55.55,0,0,0-.3-.5l-3-1.7v-1.6a1.6,1.6,0,0,0-.8-1.4l-3.2-1.8a.6.6,0,0,0-.8,0,1.012,1.012,0,0,0-.4.7v1.1l-2.9-1.7C422.4,239.2,422.3,239.3,422.3,239.5Zm7.8,4.1-3.7-2.1v-1.6h.1l3.2,1.8a.91.91,0,0,1,.4.8Z"/><path class="w" d="M421.2,231l1.7-1a4.265,4.265,0,0,1,4.1,0l13.1,7.6a4.009,4.009,0,0,1,1.4,1.5l-5.7,3.3a4.009,4.009,0,0,0-1.4-1.5l-13.1-7.6c-1-.6-1.9-.2-2,.8A4.163,4.163,0,0,1,421.2,231Z"/><path class="z" d="M435,261.1h.1c.8.1,1.3-.5,1.3-1.4V244.5a3.606,3.606,0,0,0-.6-2l5.7-3.3.1.2c.1.2.2.3.2.5a2.745,2.745,0,0,1,.2,1.3v15.2a4.559,4.559,0,0,1-2,3.5l-1.7.9a4.552,4.552,0,0,1-2,.5h-.4a2.353,2.353,0,0,1-.8-.2l-.3-.1h-.1Z"/><path class="l" d="M419.2,281.8a4.559,4.559,0,0,0,2,3.5l13.1,7.6a6.886,6.886,0,0,0,.8.3h.1c.1,0,.3.1.4.1h2l.3-.1.2-.1c.1-.1.3-.1.4-.2l1.7-1a4.559,4.559,0,0,0,2-3.5V273.2a4.559,4.559,0,0,0-2-3.5l-13.1-7.6a4.265,4.265,0,0,0-4.1,0l-1.7,1a4.294,4.294,0,0,0-2,3.5Z"/><path class="ae" d="M425.8,278.6c-.1.1,0,.3,0,.3a.781.781,0,0,0,.4.4,1.27,1.27,0,0,0-.4-.7Z"/><path class="ae" d="M427.4,278.2a1.7,1.7,0,0,0,.1.7,1.087,1.087,0,0,0,.1-.5c0-.1,0-.2-.2-.2Z"/><path class="ae" d="M428.8,280.8a.756.756,0,0,0,.4.1.187.187,0,0,0,0-.3.1.1,0,0,0-.1-.1h0C429.1,280.4,428.9,280.6,428.8,280.8Z"/><path class="ae" d="M424.2,276.9c0,3.5,2.2,5.4,2.2,6.8h0a1.136,1.136,0,0,0,.3.8,1.922,1.922,0,0,0,1.6.9c.2,0,.4-.2.3-.4,0-1.4,2.2-.7,2.2-4.3a8.275,8.275,0,0,0-3.3-6.4C425.7,273.3,424.2,274.4,424.2,276.9Zm1.4,2.1a.755.755,0,0,1-.1-.8c.1-.1.2-.1.4,0a2.281,2.281,0,0,1,.6,1.2h.3a.85.85,0,0,0,.5-.3,2.344,2.344,0,0,1-.2-1.1c0-.2.2-.3.4-.2a.918.918,0,0,1,.4.6,1.02,1.02,0,0,1-.2.9,4.053,4.053,0,0,0,.5.9c.1.1.2.3.3.4.2-.4.4-.5.6-.5a.781.781,0,0,1,.4.4.8.8,0,0,1-.1.8c-.2.1-.4.1-.8-.1a1.884,1.884,0,0,0-.2.8,13.328,13.328,0,0,0-.3,2.8c0,.1-.1.2-.1.1a.367.367,0,0,1-.1-.3,13.577,13.577,0,0,1,.3-2.9c.1-.3.1-.5.2-.8-.1-.1-.2-.3-.3-.4a4.053,4.053,0,0,1-.5-.9,2.185,2.185,0,0,1-.5.3h-.4c.1.3.1.6.2,1a18.163,18.163,0,0,1,.3,3.2.1.1,0,0,1-.1.1h0a.367.367,0,0,1-.1-.3,15.527,15.527,0,0,0-.3-3.1c-.1-.4-.1-.7-.2-1a1.075,1.075,0,0,1-.9-.8Z"/><path class="ae" d="M427.3,273.1v-1.7c0-.2.1-.2.2-.2a.758.758,0,0,1,.2.4v1.7c0,.2-.1.2-.2.2A.758.758,0,0,1,427.3,273.1Z"/><path class="ae" d="M429.5,275l.7-1.1c.1-.1.2-.1.3.1a.749.749,0,0,1,.1.5l-.6,1.1c-.1.1-.2.1-.3-.1C429.5,275.3,429.4,275.1,429.5,275Z"/><path class="ae" d="M431.1,277.9l1.1-.2a.319.319,0,0,1,.3.3c.1.2,0,.4-.1.4l-1.1.2a.319.319,0,0,1-.3-.3C431,278.1,431,278,431.1,277.9Z"/><path class="ae" d="M431.8,281.2l1.3.8a.758.758,0,0,1,.2.4c0,.2-.1.2-.2.2l-1.3-.8a.758.758,0,0,1-.2-.4C431.6,281.2,431.7,281.1,431.8,281.2Z"/><path class="ae" d="M431.4,283.8l1.1,1.5a.749.749,0,0,1,.1.5c-.1.1-.2.1-.3-.1l-1.1-1.5a.749.749,0,0,1-.1-.5A.494.494,0,0,1,431.4,283.8Z"/><path class="ae" d="M423.9,280l-1.1.2q-.15,0-.3-.3c-.1-.2,0-.4.1-.4l1.1-.2a.319.319,0,0,1,.3.3C424,279.8,424,280,423.9,280Z"/><path class="ae" d="M423.2,276.8l-1.3-.8a.758.758,0,0,1-.2-.4c0-.2.1-.2.2-.2l1.3.8a.758.758,0,0,1,.2.4C423.4,276.8,423.3,276.9,423.2,276.8Z"/><path class="ae" d="M423.7,274.1l-1.1-1.5a.749.749,0,0,1-.1-.5c.1-.1.2-.1.3.1l1.1,1.5a.749.749,0,0,1,.1.5C423.9,274.3,423.8,274.3,423.7,274.1Z"/><path class="ae" d="M425.2,272.8l-.6-1.9c-.1-.2,0-.3.1-.4a.319.319,0,0,1,.3.3l.7,1.9c.1.2,0,.4-.1.4C425.4,273.1,425.2,273,425.2,272.8Z"/><path class="ae" d="M426.7,284.9a2.333,2.333,0,0,0,1.7,1c.2,0,.3-.2.3-.4v1a.55.55,0,0,1-.3.5,2.062,2.062,0,0,1-1.7-1,1.135,1.135,0,0,1-.3-.8v-1.1A1.135,1.135,0,0,0,426.7,284.9Z"/><path class="s" d="M421.2,263l1.7-1a4.265,4.265,0,0,1,4.1,0l13.1,7.6a4.009,4.009,0,0,1,1.4,1.5l-5.7,3.3a4.009,4.009,0,0,0-1.4-1.5l-13.1-7.6c-1-.6-1.9-.2-2,.8A4.344,4.344,0,0,1,421.2,263Z"/><path class="j" d="M435,293.1h.1c.8.1,1.3-.5,1.3-1.4V276.5a3.606,3.606,0,0,0-.6-2l5.7-3.3.1.2c.1.2.2.3.2.5a2.745,2.745,0,0,1,.2,1.3v15.2a4.559,4.559,0,0,1-2,3.5l-1.7.9a4.552,4.552,0,0,1-2,.5h-.4a2.353,2.353,0,0,1-.8-.2l-.3-.1h-.1C434.8,293,434.9,293.1,435,293.1Z"/><path class="v" d="M419.2,313.8a4.559,4.559,0,0,0,2,3.5l13.1,7.6a6.886,6.886,0,0,0,.8.3h.1c.1,0,.3.1.4.1h2l.3-.1.2-.1c.2-.1.3-.1.4-.2l1.7-1a4.294,4.294,0,0,0,2-3.5V305.2a4.559,4.559,0,0,0-2-3.5l-13.1-7.6a4.894,4.894,0,0,0-4.1,0l-1.7,1a4.294,4.294,0,0,0-2,3.5Z"/><path class="w" d="M421.2,295l1.7-1a4.265,4.265,0,0,1,4.1,0l13.1,7.6a4.009,4.009,0,0,1,1.4,1.5l-5.7,3.3a4.009,4.009,0,0,0-1.4-1.5l-13.1-7.6c-1-.6-1.9-.2-2,.8A4.163,4.163,0,0,1,421.2,295Z"/><path class="v" d="M419.2,297.9a.367.367,0,0,0-.1.3c.1-1,1-1.4,2-.8l13.1,7.6a4.009,4.009,0,0,1,1.4,1.5,3.606,3.606,0,0,1,.6,2v15.2c0,1-.5,1.5-1.3,1.4h-.1c-.2-.1-.3-.1-.5-.2l-13.1-7.6a4.294,4.294,0,0,1-2-3.5V297.9Z"/><path class="h" d="M421.7,309.8l.6,2.1c.1.1.2.2.3.2l1.2.3c.1,0,.2.1.3.2a4.13,4.13,0,0,0,.7,1.1.367.367,0,0,1,.1.3l-.4,1.3a.367.367,0,0,0,.1.3l1.4,1.5c.1.1.1.1.2.1h0l.7-1c0-.1.2-.1.3,0s.3.2.4.3l.4.2.3.3.7,1.9c.1.1.2.2.3.2l1.3.1h.1l.1-.1-.4-1.9c0-.1,0-.2.1-.2l.6-.3a.367.367,0,0,1,.3.1l1.3,1.2a.349.349,0,0,0,.2.1h0l.6-1.3a.367.367,0,0,0-.1-.3l-1.3-1.5a.367.367,0,0,1-.1-.3v-1.1h0a.215.215,0,0,1,.2-.2l1.1-.1h0c.1,0,.1-.1.1-.2l-.6-2.1c-.1-.1-.2-.2-.3-.2l-1.2-.3c-.1,0-.2-.1-.3-.2a7.46,7.46,0,0,0-.7-1.2.367.367,0,0,1-.1-.3l.4-1.4a.367.367,0,0,0-.1-.3l-1.4-1.5c-.1-.1-.2-.1-.2,0l-.7,1c0,.1-.2.1-.3,0-.3-.2-.5-.3-.8-.5l-.3-.3-.7-1.9c-.1-.1-.2-.2-.3-.2l-1.3-.1h-.1l-.1.1.4,1.9c0,.1,0,.2-.1.2l-.6.3c-.1.1-.2,0-.3,0l-1.3-1.2c-.1-.1-.1-.1-.2-.1h0l-.6,1.3a.367.367,0,0,0,.1.3l1.3,1.5a.367.367,0,0,1,.1.3v1.1a.215.215,0,0,1-.2.2l-1.1.1h-.1Zm4.9,3.8c-1.3-1.4-2-3.6-1.4-4.8a1.589,1.589,0,0,1,1-.8h.2a2.92,2.92,0,0,1,.9.2l.3.2a3.916,3.916,0,0,1,1,.8,5.685,5.685,0,0,1,1.6,3.7v.4a1.854,1.854,0,0,1-.2.7,1.3,1.3,0,0,1-1.2.8h-.5A4.345,4.345,0,0,1,426.6,313.6Z"/><path class="z" d="M435,325.1h.1c.8.1,1.3-.5,1.3-1.4V308.5a3.606,3.606,0,0,0-.6-2l5.7-3.3.1.3c.1.2.2.3.2.5a2.745,2.745,0,0,1,.2,1.3v15.2a4.559,4.559,0,0,1-2,3.5l-1.7.9a4.552,4.552,0,0,1-2,.5h-.4a2.353,2.353,0,0,1-.8-.2l-.3-.1h-.1C434.8,325,434.9,325.1,435,325.1Z"/><path class="v" d="M419.2,217.7a4.559,4.559,0,0,0,2,3.5l13.1,7.6a6.891,6.891,0,0,0,.8.3h.1c.1,0,.3.1.4.1h2c.1,0,.2-.1.3-.1l.2-.1c.1-.1.3-.1.4-.2l1.7-1a4.294,4.294,0,0,0,2-3.5V209.2a3.606,3.606,0,0,0-.6-2,4.009,4.009,0,0,0-1.4-1.5l-13.1-7.6a4.265,4.265,0,0,0-4.1,0l-1.7,1a4.294,4.294,0,0,0-2,3.5Z"/><path class="s" d="M421.2,199l1.7-1a4.265,4.265,0,0,1,4.1,0l13.1,7.6a4.009,4.009,0,0,1,1.4,1.5l-5.7,3.3a4.009,4.009,0,0,0-1.4-1.5l-13.1-7.6c-1-.6-1.9-.2-2,.8A4.345,4.345,0,0,1,421.2,199Z"/><path class="l" d="M419.2,201.9a.367.367,0,0,0-.1.3c.1-1,1-1.4,2-.8l13.1,7.6a4.009,4.009,0,0,1,1.4,1.5,3.606,3.606,0,0,1,.6,2v15.2c0,1-.5,1.5-1.3,1.4h-.1c-.2-.1-.3-.1-.5-.2l-13.1-7.6a4.294,4.294,0,0,1-2-3.5V201.9Z"/><path class="ae" d="M421.9,209l6.4,8.1,6.1-.7-6.3-8.1Z"/><path class="ae" d="M432.1,218.1l-4,.5-4-5.1v2.9c0,1.3,1.8,3.5,4,4.7,2.2,1.3,4,1.2,4-.1Z"/><path class="j" d="M435,229.1h.1c.8.1,1.3-.5,1.3-1.4V212.5a3.606,3.606,0,0,0-.6-2l5.7-3.3.1.2c.1.2.2.3.2.5a2.745,2.745,0,0,1,.2,1.3v15.1a4.559,4.559,0,0,1-2,3.5l-1.7.9a4.552,4.552,0,0,1-2,.5h-.4a2.354,2.354,0,0,1-.8-.2l-.3-.1h-.1C434.8,229,434.9,229.1,435,229.1Z"/><ellipse class="o" cx="43.3" cy="25" rx="43.3" ry="25" transform="translate(88.5 267.5)"/><path class="d" d="M194.3,83.7l-.8.4a2.57,2.57,0,0,0-1.2,2.1V199.6a2.717,2.717,0,0,0,1.2,2.1l53.7,31a2.548,2.548,0,0,0,2.4,0l.8-.4a2.57,2.57,0,0,0,1.2-2.1V116.7a2.57,2.57,0,0,0-1.2-2.1L196.8,83.7A2.754,2.754,0,0,0,194.3,83.7Z"/><path class="h" d="M192.4,86.7h0a4.331,4.331,0,0,1,.1-.5,1.129,1.129,0,0,1,1.5-.4l52.7,30.5a3.449,3.449,0,0,1,1.7,2.9h0V231.6c0,1.1-.7,1.5-1.7,1L194,202.1a2.726,2.726,0,0,1-1.7-2.3Z"/><path class="d" d="M194.6,85.9a1.443,1.443,0,0,0-2.2,1.3V199.7c0,1.1.7,1.7,1.7,2.3l52.7,30.5c.9.5,1.7.1,1.7-1V119.2a3.74,3.74,0,0,0-1.9-3.3Z"/><path class="o" d="M193.5,86.1a.367.367,0,0,1,.3.1l52.7,30.5a2.851,2.851,0,0,1,1.4,2.5V231.6c0,.3-.1.7-.5.7a.764.764,0,0,1-.5-.2l-52.7-30.4c-1-.6-1.4-1.2-1.4-1.9V86.7h0a.669.669,0,0,1,.7-.6h0m0-.5h0a1.11,1.11,0,0,0-1.1,1.1v113c0,1.1.7,1.7,1.7,2.3l52.7,30.5a1.854,1.854,0,0,0,.7.2q.9,0,.9-1.2V119.1a3.242,3.242,0,0,0-1.7-2.9L194,85.7a4.332,4.332,0,0,0-.5-.1Z"/><path class="d" d="M193.6,84.2l.8-.4a2.548,2.548,0,0,1,2.4,0l53.6,30.9a2.581,2.581,0,0,1,.9.9l-3.3,1.9h0a3.447,3.447,0,0,0-1.2-1.2L194.1,85.9a.9.9,0,0,0-.5-.1,1.11,1.11,0,0,0-1.1,1.1v-.5A2.229,2.229,0,0,1,193.6,84.2Z"/><g class="af"><path d="M244.6,136.9c0,.6-.5.8-1,.5l-18.8-10.8a2.062,2.062,0,0,1-1-1.7c0-.6.4-.8,1-.5l18.8,10.8A2.7,2.7,0,0,1,244.6,136.9Z"/></g><g class="af"><path d="M242.4,144.7c0,.6-.4.8-1,.5l-11-6.4a2.062,2.062,0,0,1-1-1.7c0-.6.4-.8,1-.5l11,6.4A2.062,2.062,0,0,1,242.4,144.7Z"/></g><g class="af"><path d="M244.6,128.9c0,.6-.4.8-1,.5l-11-6.4a2.062,2.062,0,0,1-1-1.7c0-.6.4-.8,1-.5l11,6.4A2.208,2.208,0,0,1,244.6,128.9Z"/></g><path class="o" d="M244.2,141.6l-49.1-28.3a.367.367,0,0,1-.1-.3h0a.367.367,0,0,1,.3-.1l49.1,28.3a.367.367,0,0,1,.1.3c0,.1-.1.1-.3.1Z"/><path class="o" d="M244.2,150.3,195.1,122a.367.367,0,0,1-.1-.3h0a.367.367,0,0,1,.3-.1l49.1,28.3c.1,0,.1.1.1.2s-.1.2-.3.2C244.3,150.4,244.2,150.4,244.2,150.3Z"/><path class="s" d="M203.5,122.1a.552.552,0,0,1-.9.5,2.143,2.143,0,0,1-.9-1.5c0-.5.4-.7.9-.5A2.371,2.371,0,0,1,203.5,122.1Z"/><path class="s" d="M202.4,123.2l-2.9-1.7a3.007,3.007,0,0,1-1.5-2.4,1.05,1.05,0,0,1,.5-.9,1.287,1.287,0,0,1,1.2.1l2.9,1.7a3.007,3.007,0,0,1,1.5,2.4,1.05,1.05,0,0,1-.5.9.6.6,0,0,1-.4.1A.778.778,0,0,1,202.4,123.2Zm0-3-2.9-1.7a.94.94,0,0,0-.9-.1.908.908,0,0,0-.3.7,3.158,3.158,0,0,0,1.3,2.2l2.9,1.7a.94.94,0,0,0,.9.1.908.908,0,0,0,.3-.7A2.606,2.606,0,0,0,202.4,120.2Z"/><g class="af"><path d="M242.4,153.4c0,.6-.4.8-1,.5l-16.9-9.8a2.062,2.062,0,0,1-1-1.7c0-.6.4-.8,1-.5l16.9,9.7A2.386,2.386,0,0,1,242.4,153.4Z"/></g><path class="o" d="M244.2,159.1l-49.1-28.3a.367.367,0,0,1-.1-.3h0a.367.367,0,0,1,.3-.1l49.1,28.3a.367.367,0,0,1,.1.3c0,.1-.1.1-.3.1Z"/><path class="v" d="M202.4,131.9l-2.9-1.7a3.007,3.007,0,0,1-1.5-2.4,1.05,1.05,0,0,1,.5-.9,1.287,1.287,0,0,1,1.2.1l2.9,1.7a3.033,3.033,0,0,1,1.5,2.5,1.05,1.05,0,0,1-.5.9.6.6,0,0,1-.4.1A1.135,1.135,0,0,1,202.4,131.9Z"/><path class="h" d="M200.4,129a.552.552,0,0,1-.9.5,2.143,2.143,0,0,1-.9-1.5c0-.5.4-.7.9-.5A2.371,2.371,0,0,1,200.4,129Z"/><path class="o" d="M244.2,132.9l-49.1-28.3a.367.367,0,0,1-.1-.3h0a.367.367,0,0,1,.3-.1l49.1,28.3c.1,0,.1.1.1.2s-.1.2-.3.2Z"/><path class="s" d="M203.5,104.7a.552.552,0,0,1-.9.5,2.143,2.143,0,0,1-.9-1.5c0-.5.4-.7.9-.5A2.371,2.371,0,0,1,203.5,104.7Z"/><path class="s" d="M202.4,105.8l-2.9-1.7a3.007,3.007,0,0,1-1.5-2.4,1.05,1.05,0,0,1,.5-.9,1.287,1.287,0,0,1,1.2.1l2.9,1.7a3.007,3.007,0,0,1,1.5,2.4,1.05,1.05,0,0,1-.5.9.6.6,0,0,1-.4.1A1.884,1.884,0,0,1,202.4,105.8Zm0-3-2.9-1.7a.94.94,0,0,0-.9-.1.908.908,0,0,0-.3.7,3.158,3.158,0,0,0,1.3,2.2l2.9,1.7a.94.94,0,0,0,.9.1.908.908,0,0,0,.3-.7A2.606,2.606,0,0,0,202.4,102.8Z"/><path class="v" d="M202.4,114.5l-2.9-1.7a3.007,3.007,0,0,1-1.5-2.4,1.05,1.05,0,0,1,.5-.9,1.287,1.287,0,0,1,1.2.1l2.9,1.7a3.033,3.033,0,0,1,1.5,2.5,1.05,1.05,0,0,1-.5.9.6.6,0,0,1-.4.1C202.9,114.7,202.6,114.7,202.4,114.5Z"/><path class="h" d="M200.4,111.6a.552.552,0,0,1-.9.5,2.143,2.143,0,0,1-.9-1.5c0-.5.4-.7.9-.5A2.371,2.371,0,0,1,200.4,111.6Z"/><path class="v" d="M202.4,149.4l-2.9-1.7a3.007,3.007,0,0,1-1.5-2.4,1.05,1.05,0,0,1,.5-.9,1.287,1.287,0,0,1,1.2.1l2.9,1.7a3.033,3.033,0,0,1,1.5,2.5,1.05,1.05,0,0,1-.5.9.6.6,0,0,1-.4.1A6.89,6.89,0,0,1,202.4,149.4Z"/><path class="h" d="M200.4,146.5a.552.552,0,0,1-.9.5,2.143,2.143,0,0,1-.9-1.5.552.552,0,0,1,.9-.5A2.143,2.143,0,0,1,200.4,146.5Z"/><path class="v" d="M202.4,158.1l-2.9-1.7a3.033,3.033,0,0,1-1.5-2.5,1.05,1.05,0,0,1,.5-.9,1.287,1.287,0,0,1,1.2.1l2.9,1.7a3.033,3.033,0,0,1,1.5,2.5,1.05,1.05,0,0,1-.5.9.6.6,0,0,1-.4.1A1.884,1.884,0,0,1,202.4,158.1Z"/><path class="h" d="M200.4,155.2a.552.552,0,0,1-.9.5,2.143,2.143,0,0,1-.9-1.5c0-.5.4-.7.9-.5A2.371,2.371,0,0,1,200.4,155.2Z"/><g class="af"><path d="M242.4,162.1c0,.6-.4.8-1,.5l-11-6.4a2.062,2.062,0,0,1-1-1.7c0-.6.4-.8,1-.5l11,6.4A2.062,2.062,0,0,1,242.4,162.1Z"/></g><path class="o" d="M244.2,167.8l-49.1-28.3a.367.367,0,0,1-.1-.3h0a.367.367,0,0,1,.3-.1l49.1,28.3a.367.367,0,0,1,.1.3c0,.1-.1.1-.3.1Z"/><path class="s" d="M203.5,139.6a.552.552,0,0,1-.9.5,2.143,2.143,0,0,1-.9-1.5.552.552,0,0,1,.9-.5A2.143,2.143,0,0,1,203.5,139.6Z"/><path class="s" d="M202.4,140.7l-2.9-1.7a3.007,3.007,0,0,1-1.5-2.4,1.05,1.05,0,0,1,.5-.9,1.287,1.287,0,0,1,1.2.1l2.9,1.7a3.033,3.033,0,0,1,1.5,2.5,1.05,1.05,0,0,1-.5.9.6.6,0,0,1-.4.1A6.893,6.893,0,0,1,202.4,140.7Zm1.3-.9a3.158,3.158,0,0,0-1.3-2.2l-2.9-1.7a.94.94,0,0,0-.9-.1.908.908,0,0,0-.3.7,3.158,3.158,0,0,0,1.3,2.2l2.9,1.7a.94.94,0,0,0,.9.1c.3-.2.4-.4.3-.7Z"/><g class="af"><path d="M242.4,170.8c0,.6-.4.8-1,.5l-15-8.6a2.062,2.062,0,0,1-1-1.7c0-.6.5-.8,1-.5l15,8.6A2.207,2.207,0,0,1,242.4,170.8Z"/></g><path class="o" d="M244.2,176.5l-49.1-28.4a.367.367,0,0,1-.1-.3h0a.367.367,0,0,1,.3-.1l49.1,28.4a.367.367,0,0,1,.1.3c0,.1-.1.1-.3.1Z"/><g class="af"><path d="M242.4,179.5c0,.6-.4.8-1,.5l-11-6.3a2.062,2.062,0,0,1-1-1.7c0-.6.4-.8,1-.5l11,6.4A1.9,1.9,0,0,1,242.4,179.5Z"/></g><g class="af"><path d="M244.3,190.5c0,.6-.4.8-1,.5l-18.7-10.8a2.062,2.062,0,0,1-1-1.7c0-.6.4-.8,1-.5l18.7,10.8A2.062,2.062,0,0,1,244.3,190.5Z"/></g><g class="af"><path d="M242.4,197.1c0,.6-.4.8-1,.5l-20.7-11.9a2.062,2.062,0,0,1-1-1.7c0-.6.4-.8,1-.5l20.7,11.9A1.936,1.936,0,0,1,242.4,197.1Z"/></g><path class="o" d="M244.2,194l-49.1-28.3a.367.367,0,0,1-.1-.3h0a.367.367,0,0,1,.3-.1l49.1,28.3c.1,0,.1.1.1.2s-.1.2-.3.2Z"/><path class="o" d="M244.2,202.7l-49.1-28.3a.224.224,0,1,1,.2-.4l49.1,28.3c.1,0,.1.1.1.2s-.1.2-.3.2Z"/><g class="af"><path d="M242.4,205.8c0,.6-.4.8-1,.5l-16.9-9.7a2.062,2.062,0,0,1-1-1.7c0-.6.4-.8,1-.5l16.9,9.7A2.062,2.062,0,0,1,242.4,205.8Z"/></g><path class="o" d="M210.1,178.4c0,.6-.5.8-1,.5l-10-5.8a2.062,2.062,0,0,1-1-1.7c0-.6.4-.8,1-.5l10,5.8A2.062,2.062,0,0,1,210.1,178.4Z"/><path class="t" d="M196.5,170.5l.5.9v.5h0l-.8-1.4a.1.1,0,0,0-.1-.1v-.3h.1l.8-.4h0v.5h0Z"/><path class="o" d="M210.1,187.1c0,.6-.5.8-1,.5l-10-5.8a2.062,2.062,0,0,1-1-1.7c0-.6.4-.8,1-.5l10,5.8A2.062,2.062,0,0,1,210.1,187.1Z"/><path class="t" d="M196.5,179.2l.5.9v.5h0l-.8-1.4a.1.1,0,0,0-.1-.1v-.3h.1l.8-.4h0v.5h0Z"/><path class="v" d="M228.6,213.2l11.4,6.3c.5.2,1,0,1.2-.7l-.1-4.2a1.568,1.568,0,0,0-.6-1.7l-11.4-6.3c-.5-.2-1,0-1.2.7l.1,4.2A1.511,1.511,0,0,0,228.6,213.2Z"/><path class="p" d="M231.6,212.8a1.381,1.381,0,0,0-.4-.3c-.2-.1-.2-.3-.3-.5l.3-.2c.1.2.2.3.2.4l.2.2a.1.1,0,0,1,.1.1h.3l-.4-1.7h.4v.2c0,.1,0,.1.1.2l.3,1.3v.2a.1.1,0,0,0,.1.1l.1.1h0v.5h0c-.1,0-.1-.1-.2-.1l-.1-.1-.1-.1a.1.1,0,0,0-.1-.1h-.4c-.1,0-.1,0-.2-.1C231.7,212.9,231.7,212.8,231.6,212.8Z"/><path class="p" d="M233.2,214.5l-.3.2-.2-.5.3-.2Zm-.3-1.5a.349.349,0,0,1,.2.1c.1,0,.1.1.2.1h.1a.349.349,0,0,0,.1-.2v-.5l.4.1v.8a.1.1,0,0,0,.1.1l.1.1.3.2c.1,0,.1.1.2.1s.1,0,.2.1h.2v-.7c0-.1,0-.1-.1-.2s0-.1,0-.2h.4a1236284260546.7,1236284260546.7,0,0,0,.2.6v.5a.367.367,0,0,1-.1.3c0,.1-.1.1-.2.2h-.4a.1.1,0,0,1-.1-.1.1.1,0,0,1-.1-.1c0-.1-.1,0-.1-.1l-.3-.2c-.1-.1-.2-.1-.3-.2s-.1-.2-.2-.2h-.4c-.1,0-.1,0-.2-.1-.1,0-.1-.1-.2-.1l-.1-.1v-.5Zm.9,1.8-.3.2-.2-.5.3-.2Zm.9.3-.3.2-.2-.5.3-.2Zm.6.3-.3.2-.2-.5.3-.2Z"/><path class="p" d="M236.5,215.5h0a1.18,1.18,0,0,1-.5-.5,1.268,1.268,0,0,1-.1-.6v-2.1l.4.1v2.1h0v.2a.1.1,0,0,0,.1.1l.1.1h.1Z"/><path class="p" d="M236.5,215l.3.2a.349.349,0,0,0,.2.1h.3l.1-.1v-.3c0-.1,0-.2-.1-.2a.367.367,0,0,0-.1-.3h.4a6181421302761.115,6181421302761.115,0,0,0,.2.6v.6a.367.367,0,0,1-.1.3c-.1.1-.1.1-.2.1h-.3c-.1,0-.2-.1-.3-.1l-.3-.2Zm.8-1.4-.3.2-.2-.5.3-.2Zm.6.3-.3.2-.2-.5.3-.2Z"/><path class="ag" d="M197.6,196.7,209,203c.5.2,1,0,1.2-.7l-.1-4.2a1.568,1.568,0,0,0-.6-1.7l-11.4-6.3c-.5-.2-1,0-1.2.7l.1,4.2A1.568,1.568,0,0,0,197.6,196.7Z"/><path class="p" d="M199.8,195.8c-.1-.1-.2-.1-.3-.2s-.2-.1-.3-.2l-.3-.3c-.1-.1-.2-.2-.2-.3a.367.367,0,0,1-.1-.3v-.6c0-.1,0-.1.1-.1a.1.1,0,0,1,.1-.1l.1-.1.2.4-.1.1a.1.1,0,0,1-.1.1v.1h0v.1c0,.1.1.1.1.2.1.1.1.2.2.2.1.1.2.2.3.2a.52.52,0,0,0,.4.2c.1.1.2.1.3.2a.367.367,0,0,0,.3.1c.1,0,.1.1.2.1h.1l-.1-.1a.215.215,0,0,1-.2-.2l-.2-.2a.367.367,0,0,1-.1-.3v-.5c0-.1,0-.1.1-.2a.1.1,0,0,1,.1-.1l.1-.1h.1a.31.31,0,0,1,.2.1c.1,0,.1.1.2.2s.1.1.1.2.1.2.1.3.1.2.1.3v.6a.367.367,0,0,1-.1.3c0,.1-.1.1-.1.2-.1,0-.1.1-.2.1h-.3c-.1,0-.2-.1-.3-.1C200,195.9,199.9,195.8,199.8,195.8Zm.7-1.3h-.2a.1.1,0,0,1-.1.1v.1h0v.1a.1.1,0,0,0,.1.1l.1.1.1.1h.3v-.4c0-.1,0-.1-.1-.2C200.5,194.6,200.5,194.5,200.5,194.5Zm.4-.8-.3.2-.3-.5.3-.2Z"/><path class="p" d="M201.9,194.1v2.8l-.4-.1c0-.4.1-.7.1-1v-1.6Z"/><path class="p" d="M203.1,197.7h0a.1.1,0,0,1-.1-.1l-.1-.1c0,.1-.1.3-.1.4-.1.1-.2.2-.3.2a.367.367,0,0,1-.3.1.756.756,0,0,0-.4.1l-.1-.5h.4c.1,0,.1,0,.2-.1a.1.1,0,0,0,.1-.1.349.349,0,0,0,.1-.2v-1h.4c0,.2.1.3.1.4s.1.2.1.3.1.1.1.2l.1.1h0Z"/><path class="p" d="M203.1,197.2h0a.31.31,0,0,0,.2.1h.1l.1-.1a.31.31,0,0,1,.1-.2c0-.1,0-.1.1-.2,0-.1,0-.1.1-.2l.3.3v.8a.1.1,0,0,1,.1-.1l.1-.1.1-.1.1-.1c.1,0,.1,0,.2-.1h.4c.1,0,.1,0,.2.1s.2.1.3.2.1.2.2.3a.367.367,0,0,1,.1.3v.3h0a.52.52,0,0,1-.2.4l.3.2v.5l-.4-.2c-.1-.1-.2-.1-.2-.2-.1,0-.1-.1-.2-.1s-.2-.1-.3-.1-.2-.1-.3-.1c-.1-.1-.2-.1-.3-.2s-.2-.1-.2-.2c-.1-.1-.1-.1-.1-.2s-.1-.1-.1-.2a.367.367,0,0,1-.3.1c-.1,0-.2-.1-.3-.1h0Zm1.1.7c.1.1.2.1.2.2h.1c.1,0,.1.1.2.1a.349.349,0,0,1,.2.1h.4l.1-.1V198c0-.1-.1-.1-.1-.2a.1.1,0,0,0-.1-.1h-.7c-.1,0-.1.1-.2.1Z"/><path class="p" d="M205.8,198.8l.2.1a.1.1,0,0,1,.1.1h.2v-.6c0-.1,0-.2-.1-.2h.3a.367.367,0,0,0,.1.3v.8a.367.367,0,0,1-.1.3c0,.1-.1.1-.2.1h-.2c-.1,0-.2-.1-.3-.1l-.2-.1Zm.9-1.3-.3.2-.3-.5.3-.2Z"/><path class="p" d="M207.6,197.4v2.8l-.4-.1c0-.4.1-.7.1-1v-1.6Z"/><path class="s" d="M132.7,300.4c-.1,0-.2.2-.3,1.4a2.026,2.026,0,0,0,.4,1.5c1,1,3.2,1.6,6,1.2,1.8-.2,7.4-.9,9.2-.8s5.9.7,8.9.1a7.328,7.328,0,0,0,4.7-2.7c.2-.4.2-1.8-.1-1.9Z"/><path class="t" d="M133.4,296.1c.1-.4.1-.9.2-1.4.1-.6.3-3.5,1.1-3.6.7-.1,8,.1,8,.1.5.1.6.5.8,1.1.4,1.1,1.4,1.2,2.6,1.6a17.525,17.525,0,0,0,4,.5c1.5.1,2.8-.1,4.6-.1a9.116,9.116,0,0,1,4.6,1,4.041,4.041,0,0,1,2.3,4.1c-.3,1.3-1.5,1.9-2.8,2.5a12.158,12.158,0,0,1-4.6.9,42.919,42.919,0,0,1-6.2-.3,42.284,42.284,0,0,0-7.1.4,12.147,12.147,0,0,1-6-.1,3.124,3.124,0,0,1-2.1-1.6,10.987,10.987,0,0,1,.3-3.6,1.854,1.854,0,0,1,.2-.7A2.2,2.2,0,0,1,133.4,296.1Z"/><g class="ah"><path d="M133.4,296.1c.1-.4.1-.9.2-1.4.1-.6.3-3.5,1.1-3.6.7-.1,8,.1,8,.1.5.1.6.5.8,1.1.4,1.1,1.4,1.2,2.6,1.6a17.525,17.525,0,0,0,4,.5c1.5.1,2.8-.1,4.6-.1a9.116,9.116,0,0,1,4.6,1,4.041,4.041,0,0,1,2.3,4.1c-.3,1.3-1.5,1.9-2.8,2.5a12.158,12.158,0,0,1-4.6.9,42.919,42.919,0,0,1-6.2-.3,42.284,42.284,0,0,0-7.1.4,12.147,12.147,0,0,1-6-.1,3.124,3.124,0,0,1-2.1-1.6,10.987,10.987,0,0,1,.3-3.6,1.854,1.854,0,0,1,.2-.7A2.2,2.2,0,0,1,133.4,296.1Z"/></g><path class="h" d="M149.5,294.4a7.269,7.269,0,0,1,1.4,3.1c0,.9-1.6.8-1.6-.1a5.3,5.3,0,0,0-1.9-3.3A4.878,4.878,0,0,1,149.5,294.4Z"/><path class="h" d="M152.3,294.5a4.3,4.3,0,0,1,1.7,3c0,.7-1.4.7-1.4.1a5.067,5.067,0,0,0-1.7-3C151.1,294.2,151.8,294.2,152.3,294.5Z"/><path class="s" d="M119.8,286.7s-6.5.6-6.6,2.7.3,2.6,1.6,3.2,4.1.6,5.1-.3a13.37,13.37,0,0,0,3.2-3.9,21.092,21.092,0,0,1,3.1-3.6,9.9,9.9,0,0,0,3.5-4.3c.6-1.6.6-2.3.3-4.8Z"/><path class="t" d="M120.4,276.4c1.8-.5,5.6-3.7,7.9-2.6,1.7.8,2.1,1.8,1.5,4.3-.9,3.9-2.8,4.5-4.7,6.5a51.916,51.916,0,0,0-4.7,5.7c-1.2,1.5-4,1.9-5.8,1.1-2.1-1-1.4-3.3-1.3-4.9.1-2.1.3-3.1.8-3.3C114.8,282.9,118.9,276.8,120.4,276.4Z"/><path class="k" d="M120.4,276.4c1.8-.5,5.6-3.7,7.9-2.6,1.7.8,2.1,1.8,1.5,4.3-.9,3.9-2.8,4.5-4.7,6.5a51.916,51.916,0,0,0-4.7,5.7c-1.2,1.5-4,1.9-5.8,1.1-2.1-1-1.4-3.3-1.3-4.9.1-2.1.3-3.1.8-3.3C114.8,282.9,118.9,276.8,120.4,276.4Z"/><path class="h" d="M119.5,277a6.391,6.391,0,0,1,5,3.4c.6.5,1.5,0,1.2-.7a5.725,5.725,0,0,0-5-3.4c-.1,0-.2.1-.3.1A2.362,2.362,0,0,0,119.5,277Z"/><path class="h" d="M118.2,278.4a6.477,6.477,0,0,1,4.2,3.2c.6.5,1.5,0,1.2-.7a6.205,6.205,0,0,0-4.7-3.4C118.7,277.8,118.4,278.1,118.2,278.4Z"/><path class="ai" d="M121.5,279.3s-.3,4.2-.4,4.4c-.2,2-6.7,1.5-6.9.3l-.3-5.1Z"/><path class="ai" d="M121.1,283.7s1.7-13.5,2.5-22.3,1.8-16.8,1.8-16.8l-13.8-1.2c-.7,11.9,1.9,29.9,2.4,37.8Z"/><path class="ai" d="M142.7,288.4l.1,2.8c.2,1.9-1.5,2.6-3.8,2.8-3.3.2-4.6-1.3-4.7-2.4,0-1.1-.1-3-.1-3Z"/><path class="ai" d="M142.9,287l4-33.6-14.1-8c-1.1,3.2-1.1,35.5-.9,40,.2,5.6,1.3-4.6,2.5,5.7Z"/><path class="l" d="M146.6,285.7c.8-4.7.4-34.5.9-39.1.6-6,.4-40.5-.5-57.5-.7-13.6-32.4-9.9-32.4-9.9-4,8.7-5,11.3-4,30.9.7,13.5,1.3,23.8,1.3,23.8s-1.6,29.1-1.6,37.5c0,.9.1,2.2.2,3.7a16.757,16.757,0,0,0,14.4.7c1.5-12.4,1.9-42.5,2.5-48.4.6-6,1.3-13.8,1.3-13.8.5,4.4,3.8,31.8,3.8,31.8-1.3,4.2-1.2,35-.9,39.4C138.4,288.5,146.6,285.7,146.6,285.7Z"/><g class="aj"><path class="p" d="M146.6,285.7c.8-4.7.4-34.5.9-39.1.6-6,.4-40.5-.5-57.5-.7-13.6-32.4-9.9-32.4-9.9-4,8.7-5,11.3-4,30.9.7,13.5,1.3,23.8,1.3,23.8s-1.6,29.1-1.6,37.5c0,.9.1,2.2.2,3.7a16.757,16.757,0,0,0,14.4.7c1.5-12.4,1.9-42.5,2.5-48.4.6-6,1.3-13.8,1.3-13.8.5,4.4,3.8,31.8,3.8,31.8-1.3,4.2-1.2,35-.9,39.4C138.4,288.5,146.6,285.7,146.6,285.7Z"/><path class="p" d="M131.3,284.8l-.2-.1v-.2c-.3-4.5-.4-35.2.9-39.5-.2-1.4-2.4-20.3-3.4-28.5-.3,2.8-.6,7.1-1,10.6l-.1,1.5c-.5,5.5-1,35.6-2.4,47v.2l-.2.1c-8.4,3.2-14.7-.6-14.7-.7l-.1-.1v-.2c-.1-1.6-.2-2.9-.2-3.7,0-7.9,1.4-36.9,1.6-37.5-.1-1-.7-10.9-1.3-23.7-1-19.4,0-22.2,4-31l.1-.2h.2c.9-.1,21.8-2.4,29.8,4.3a8.128,8.128,0,0,1,3,5.9c.9,16.6,1.1,51.4.5,57.6l-.1,1.2c-.4,4.1,0,33.6-.8,37.9v.2l-.2.1a21.676,21.676,0,0,1-6.7.9A15.818,15.818,0,0,1,131.3,284.8Zm15,.7c.7-4.2.4-33.6.7-37.7l.1-1.2c.6-6.1.4-40.9-.5-57.5a7.608,7.608,0,0,0-2.8-5.5c-7.4-6.2-27-4.4-29.1-4.2-3.9,8.5-4.8,11.4-3.9,30.5.6,13.4,1.3,23.7,1.3,23.8v.2s-1.6,29.1-1.6,37.4c0,.8.1,2,.2,3.5a16.631,16.631,0,0,0,13.8.6c1.4-11.2,1.9-41.3,2.4-46.8l.1-1.5c.6-5.9,1.3-13.7,1.3-13.8l.3-3.3.4,3.3c.5,4.4,3.7,31.5,3.8,31.8v.2c-1.3,4.1-1.1,34.8-.9,39.1,6,3.4,13.2,1.5,14.4,1.1Z"/></g><path class="l" d="M125.1,273.9s-1.4,1.6-7.3,1.5-7.5-2-7.5-2l-.1-1.1c-.6.1-.7.8-.6,2.2a41.89,41.89,0,0,0,.7,5.8c.3.6,2.3,1.7,7,1.9,3.6.2,7-.7,7.5-1.5a29.84,29.84,0,0,0,.9-5.2c.3-2.1.1-2.7-.6-2.7Z"/><g class="ad"><path class="p" d="M117.2,282.5c-4.8-.3-6.7-1.3-7.1-2.1a40.495,40.495,0,0,1-.8-5.9c-.1-1.2-.1-2.4.9-2.5l.4-.1.1,1.4c.4.3,2.2,1.7,7.2,1.8s6.6-1.1,7-1.3l.2-1.3h.3a.908.908,0,0,1,.7.3c.3.4.4,1.1.2,2.8l-.1.4a23.686,23.686,0,0,1-.9,5c-.5.8-3.7,1.7-7,1.7A2.345,2.345,0,0,0,117.2,282.5Zm8.2-8.5h0c-.1.1-1.6,1.8-7.6,1.7s-7.7-2-7.7-2.1l-.1-.1V273a3.3,3.3,0,0,0,0,1.4,32.477,32.477,0,0,0,.7,5.7c.2.4,1.8,1.5,6.8,1.7,3.6.2,6.8-.8,7.2-1.3a44.1,44.1,0,0,0,.8-4.7v-.4a7.388,7.388,0,0,0,0-2.1Z"/></g><path class="aa" d="M125.1,273.9s-1.4,1.6-7.3,1.5-7.5-2-7.5-2l-.1-1.1c-.6.1-.7.8-.6,2.2a41.89,41.89,0,0,0,.7,5.8c.3.6,2.3,1.7,7,1.9,3.6.2,7-.7,7.5-1.5a29.84,29.84,0,0,0,.9-5.2c.3-2.1.1-2.7-.6-2.7Z"/><g class="ak"><path d="M143.5,285.2s-.3-31,.5-43.6c.7-12.4.3-40.5-1.1-51.2l.7-.1c1.4,10.7,1.9,39,1.2,51.4-.7,12.6-.5,43.6-.5,43.6Z"/></g><path class="l" d="M147.2,282.4s-2.4,1.3-8.6,1c-4.8-.2-7.1-2.2-7.1-2.2l.1-1.3c-.9-.1-.6,1.7-.7,3.5a13.011,13.011,0,0,0,.1,3.7c.3.6,2.7,2.4,7.8,2.6s7.8-.7,8.3-1.4.3-1.5.7-4,.6-3-.4-3.4Z"/><g class="ad"><path class="p" d="M138.7,290c-5.3-.2-7.8-2.1-8.1-2.8a8.678,8.678,0,0,1-.1-3.8v-1.2c0-1.2,0-2,.5-2.4a1.421,1.421,0,0,1,.6-.2h.3l-.1,1.5c.5.4,2.7,1.8,6.8,2,5.2.2,7.7-.7,8.3-.9l.2-1.7.4.2c1.1.4,1,1.1.7,2.9,0,.3-.1.5-.1.8-.1.9-.2,1.5-.3,2.1a5.374,5.374,0,0,1-.5,2.1c-.5.8-3,1.5-7.2,1.5A6.6,6.6,0,0,1,138.7,290Zm8.8-7.3-.2.1c-.1.1-2.6,1.3-8.8,1.1a13.173,13.173,0,0,1-7.3-2.2l-.1-.1v2a11.949,11.949,0,0,0,.1,3.5c.2.5,2.6,2.2,7.5,2.4,5.3.2,7.7-.7,8-1.2a3.424,3.424,0,0,0,.4-1.8c.1-.5.1-1.2.3-2.1,0-.3.1-.6.1-.8.2-1.3.3-1.7.1-1.9Z"/></g><path class="aa" d="M147.2,282.4s-2.4,1.3-8.6,1c-4.8-.2-7.1-2.2-7.1-2.2l.1-1.3c-.9-.1-.6,1.7-.7,3.5a13.011,13.011,0,0,0,.1,3.7c.3.6,2.7,2.4,7.8,2.6s7.8-.7,8.3-1.4.3-1.5.7-4,.6-3-.4-3.4Z"/><path class="z" d="M124.9,200c-1.1-1.6,0-9.7.2-10.6v-.3l12.4.4v.3c0,1.5.1,2.8.1,4,.1,3.7.2,5.7-.4,6.6-.7,1-4.2,2.9-6.4,2.9C128.7,203.4,125.6,201,124.9,200Zm.8-10.2c-.5,3.5-1,8.8-.2,9.8.6.9,3.4,3.1,5.3,3.1a11.2,11.2,0,0,0,5.8-2.6c.5-.7.4-2.8.3-6.2,0-1.1-.1-2.3-.1-3.7Z"/><path class="z" d="M110.3,199.1v.9a3.152,3.152,0,0,0,1.7.9h.1c.7-.1,4.5-2,4.7-2.9a6.6,6.6,0,0,0,.1-1.4,52.937,52.937,0,0,1,.9-8l-.7-.1a55.764,55.764,0,0,0-.9,8.1,6.151,6.151,0,0,1-.1,1.3c-.2.5-3.4,2.2-4.2,2.4A12.437,12.437,0,0,1,110.3,199.1Z"/><path class="ai" d="M115.2,161.3l-4.1,10.8,6.5,10s-4.5,7.5-4.4,7.6c.4.2-9-10.4-11.8-15a3.946,3.946,0,0,1-.4-3.5c1-4,5.6-17.6,8-23.5s5.6-8,11.3-7.5Z"/><path class="j" d="M120,150.7l-7.2,17c-6.7-.6-9.4-4-9.4-4,1.1-4.2,5.1-16.2,7.2-19.4s3.6-3.7,5.8-4.2a14.765,14.765,0,0,1,4.7.1Z"/><path class="ai" d="M134.4,135.6l-.4,11.6-11.5-.6.7-1.8.1-4.3.1-6.2Z"/><path class="l" d="M110.5,189.8s6.4,5.7,20.1,5.4c13.8-.3,21.2-3.4,21.2-3.4s-.3-32.8-2.3-37.1c-4.6-10-6.4-11.5-10.4-12.3-1.8-.3-5.1-.7-5.1-.7v.7a11,11,0,0,1-8.7,1.1c-2-.7-2.3-1.7-2.1-2.9-1-.2-2-.3-3-.4-2.9-.1-6.2,2.5-7.2,5.8C111.7,151,110.6,186.6,110.5,189.8Z"/><path class="al" d="M142.4,128a7.565,7.565,0,0,0,1.9-.7c.3-.4-2-4.1-2-4.1Z"/><path class="j" d="M128.7,135.1c.3-4.1-15-8.9-15-14.9,0-9,4.7-10.8,8.5-12.3,8.3-3.1,15.2-4,19.6,1,6.1,6.9-1.1,10.9-1.1,10.9Z"/><path class="ai" d="M122,113.5c-3.7,2.7-3,9.7.2,14.9,2.7,4.4,8.5,7.3,11.1,8.1,2.1.7,6.2.4,7-.4,1.2-1.1,3.1-4.1,2-12.7-1-8.4-5-10.5-7.2-11.7C133.2,110.7,127.1,109.7,122,113.5Z"/><path class="am" d="M134.5,134.9a11.824,11.824,0,0,0,5.5,1.4,12.786,12.786,0,0,1-5.7.4Z"/><path class="j" d="M134.4,107.2s6.9,2.1,6.2,7.6a8.406,8.406,0,0,1-5.3,7Z"/><path class="j" d="M114.6,123.9a14.535,14.535,0,0,0,3.1,6.2c1.5,2,4.3,4.7,5.5,6.2.9,1,5.2,1,6.6.3a6.778,6.778,0,0,0,3-2.8,13.09,13.09,0,0,0,1.5-3.7c.1-.2.1-.4-.1-.5-.1-.1-.2-.1-.4,0-1.3.5-2.2.5-3.1-.5a4.1,4.1,0,0,1-1.3-2.3c-.4-1.7.2-3.5,2-4,1.9-.7,3.2.8,3.7,1.7l.1,2.1a2.094,2.094,0,0,0,2-2.1l-.1-3.8a1.268,1.268,0,0,0-.6.1,27.587,27.587,0,0,0-.7-8.6s-5.9-5.8-15.3-2.7c-3.5,1.2-5.1,2.8-6.2,6.3a13.448,13.448,0,0,0-.5,3.5A13.916,13.916,0,0,0,114.6,123.9Z"/><path class="j" d="M114.3,112a2.2,2.2,0,0,1,.1,3.1l-3.2-2.9A2.129,2.129,0,0,1,114.3,112Z"/><path class="ai" d="M143.9,158.2s13.9,14.9,17.3,16.5,24.6-11.1,26.3-12c1.7-.4,3.3-.6,5-1,1.5-.4,2.8-.5,4-1.4a2.326,2.326,0,0,0,.9-1.1c.1-.5-.1-1,0-1.6.2-.6.7-1.1.6-1.6s-.7-.8-.9-1.3.1-.9.1-1.4a1.1,1.1,0,0,0-.6-1,6.07,6.07,0,0,0-1-.7c.1-.2-.1-.4.1-.7a23.908,23.908,0,0,1,2.3-2.2c1.8-1.7,2.5-2.6,2.2-3.3-.8-1.4-2.4.2-4.8,2.1s-6.5,4.7-6.9,4.2c-.5-.5-.3-1.9-1.1-3.5-.7-1.5-2.5-2.3-2.3-1,.1.8.1,2.6.1,3.8s.1,3.3-1,4.2c-2.3,1.9-20.3,8.2-20.3,8.2s-11.5-13.5-14.5-17.6c-2.4-3.2-6.5-3.2-10.2-3.3C137.4,144.8,138.6,152.8,143.9,158.2Z"/><path class="j" d="M139,151.6a18.409,18.409,0,0,0,4.9,7.5c1.8,1.9,10.8,10.3,10.8,10.3a10.906,10.906,0,0,0,8.1-7.3s-7.1-9.4-10.1-13.5c-3.5-4.8-5-5-6.9-5.6a22.132,22.132,0,0,0-7.3-.5A17.629,17.629,0,0,0,139,151.6Z"/></g></svg>