<svg xmlns="http://www.w3.org/2000/svg" width="479.4" height="448.704" viewBox="0 0 479.4 448.704"><defs><style>.a,.h,.z{opacity:0.5;}.b{fill:#e6e6e6;}.c,.o{fill:#cfcfcf;}.d{fill:#06826a;}.e{opacity:0.1;}.ad,.f,.h,.x{fill:#fff;}.g{fill:#ff3600;}.i{fill:#ebebeb;}.j{fill:#f5f5f5;}.k{fill:#455a64;}.l{fill:#fafafa;}.m,.v{opacity:0.3;}.n{fill:#e0e0e0;}.o,.y{opacity:0.15;}.p{fill:#b16668;}.q{fill:#ffa8a7;}.r{fill:#263238;}.s{fill:#37474f;}.t{fill:#f28f8f;}.u{fill:#f0f0f0;}.w{opacity:0.2;}.ag,.x{opacity:0.8;}.aa{opacity:0.23;}.ab{opacity:0.4;}.ac{opacity:0.38;}.ad,.af{opacity:0.7;}.ae{opacity:0.45;}</style></defs><g transform="translate(-3 -20.496)"><g class="a"><ellipse class="b" cx="239.7" cy="135.3" rx="239.7" ry="135.3" transform="translate(3 198.6)"/></g><path class="c" d="M405.8,352.2,175,218.9a1.085,1.085,0,0,1-.8-.8,1.23,1.23,0,0,1,.8-1.6l19-11a4.265,4.265,0,0,1,4.1,0L428.9,338.8a1.085,1.085,0,0,1,.8.8,1.23,1.23,0,0,1-.8,1.6l-19,11A4.895,4.895,0,0,1,405.8,352.2Z"/><path class="c" d="M108.4,349.4l51.6-30a4.669,4.669,0,0,1,4,0l60.9,35.2a1.245,1.245,0,0,1,.8,1.5,1.085,1.085,0,0,1-.8.8l-51.6,30a4.669,4.669,0,0,1-4,0l-61-35.2a1.245,1.245,0,0,1-.8-1.5A2.166,2.166,0,0,1,108.4,349.4Z"/><path class="c" d="M374.9,385.6l-69.1-39.9a1.085,1.085,0,0,1-.8-.8,1.23,1.23,0,0,1,.8-1.6l11.3-6.5a4.265,4.265,0,0,1,4.1,0l69.1,39.9a1.085,1.085,0,0,1,.8.8,1.23,1.23,0,0,1-.8,1.6l-11.4,6.6A5.067,5.067,0,0,1,374.9,385.6Z"/><path class="c" d="M286.6,335.1l-75.2-43.5a1.085,1.085,0,0,1-.8-.8,1.23,1.23,0,0,1,.8-1.6l11.3-6.5a4.265,4.265,0,0,1,4.1,0L302,326.2a1.085,1.085,0,0,1,.8.8,1.23,1.23,0,0,1-.8,1.6l-11.3,6.5A4.893,4.893,0,0,1,286.6,335.1Z"/><path class="d" d="M409.1,330.1l8.6-17.4c3.6-13.9,19.1-25.1,29.2-33.8,10.2-8.7,10.1-20.6.9-22.9-9.9-2.4-22.8,6.6-30.4,18.1-7.7,11.5-12.2,29.2-11.4,37.5Z"/><path class="e" d="M409.1,330.1l8.6-17.4c3.6-13.9,19.1-25.1,29.2-33.8,10.2-8.7,10.1-20.6.9-22.9-9.9-2.4-22.8,6.6-30.4,18.1-7.7,11.5-12.2,29.2-11.4,37.5Z"/><path class="f" d="M406.2,323.2h0a.545.545,0,0,1-.5-.7c3.2-29.2,24.4-54.7,37.9-61.1h.1a.6.6,0,1,1,.5,1.1c-13.3,6.3-34.1,31.3-37.2,60.1a.472.472,0,0,1-.5.5Z"/><path class="g" d="M409.5,332.2c1-21.8,18.2-37.7,28.5-39.9,10.4-2.2,16.5,3.5,13.5,10.4-2.5,5.7-15.1,10.1-24.7,18-8.6,7.1-13.7,15.4-14.6,20.1Z"/><path class="f" d="M409.5,336.2a.632.632,0,0,1-.4-.8c6.7-25.5,24.3-35.8,33.7-37.9h0c.3-.1.6.1.7.5a.533.533,0,0,1-.5.7c-8.5,1.8-26.2,12-32.8,37a1.2,1.2,0,0,1-.5.5Z"/><path class="d" d="M405,166.6,187.7,41.1a4.559,4.559,0,0,1-2-3.5v-12a4.557,4.557,0,0,1,1.9-3.4c3.6-2.3,5-1.8,6.1-1.2L411,146.6a4.559,4.559,0,0,1,2,3.5v12c0,1.3-3.1,4-4.1,4.6A4.147,4.147,0,0,1,405,166.6Z"/><path class="h" d="M187.6,22.3c3.4-2.2,5-1.8,6.1-1.2L411,146.6a4.009,4.009,0,0,1,1.4,1.5l-6,3.4A4.009,4.009,0,0,0,405,150L187.8,24.5c-1-.6-1.9-.2-2,.8A4.158,4.158,0,0,1,187.6,22.3Z"/><path class="i" d="M405.6,345.1h.3c.6,0,1.1-.5,1.1-1.4V180l6-3.4V340.2c0,1.3-.3,3-4.1,4.6a4.5,4.5,0,0,1-2.3.4h-.5a.367.367,0,0,1-.3-.1h-.2a.1.1,0,0,0-.1-.1h-.1Z"/><path class="e" d="M412.4,148a6.117,6.117,0,0,1,.5,1.2c0,.2.1.3.1.5v26.8l-6,3.4V153.4a3.606,3.606,0,0,0-.6-2Z"/><path class="j" d="M185.7,215.9V36.3l159.3,92c1.1.6,3.7-6.5,4.8-5.9l47.7,27.5c1.1.7,2.9,10.4,4,11l5.5,3.2V343.7c0,1.3-.9,1.8-2,1.1L187.7,219.4a4.559,4.559,0,0,1-2-3.5Z"/><path class="f" d="M399.5,214.1V330.7c0,1.3-.9,1.8-2,1.2l-41-23.7a4.559,4.559,0,0,1-2-3.5V188.1c0-1.3.9-1.8,2-1.2l41,23.7A4.559,4.559,0,0,1,399.5,214.1Z"/><path class="f" d="M347,222.7v77.7c0,1.3-.9,1.8-2,1.1L275.1,261a4.559,4.559,0,0,1-2-3.5V180c0-1.3.9-1.8,2-1.2L345,219.2A4.559,4.559,0,0,1,347,222.7Z"/><path class="f" d="M267.2,176.3V254c0,1.3-.9,1.8-2,1.1l-70-40.5a4.559,4.559,0,0,1-2-3.5V133.4c0-1.3.9-1.8,2-1.1l70,40.5A4.864,4.864,0,0,1,267.2,176.3Z"/><path class="k" d="M399.5,183.7v21.4c0,1.3-.9,1.8-2,1.1L195.2,89.5a4.559,4.559,0,0,1-2-3.5V64.6c0-1.3.9-1.8,2-1.2L397.5,180.2A4.559,4.559,0,0,1,399.5,183.7Z"/><path class="l" d="M267,114.7l-58.8-34v6.5l58.8,34c.7.4,1.2.1,1.2-.7v-3.7A2.437,2.437,0,0,0,267,114.7Z"/><path class="g" d="M208.2,80.7v6.5l-6.3-3.6a2.57,2.57,0,0,1-1.2-2.1V77.8c0-.8.5-1.1,1.2-.7Z"/><path class="l" d="M202.2,82.5c0,.1.1.2.3.2h.1l.7-.2a3.269,3.269,0,0,0,1.1,1.5,1.421,1.421,0,0,0,.6.2.9.9,0,0,0,.5-.1,1.5,1.5,0,0,0,.6-1.5,3.7,3.7,0,0,0-1.4-2.9.908.908,0,0,0-1,0,1.5,1.5,0,0,0-.6,1.5,2.768,2.768,0,0,0,.1.9l-.7.2C202.3,82.2,202.2,82.3,202.2,82.5Zm1.3-1.5a1.284,1.284,0,0,1,.4-1h.2a.367.367,0,0,1,.3.1,2.951,2.951,0,0,1,1.1,2.5,1.284,1.284,0,0,1-.4,1,.446.446,0,0,1-.5,0A3.631,3.631,0,0,1,203.5,81Z"/><path class="f" d="M345,180.3,195.2,93.8c-1.1-.6-2-.1-2,1.2v25.7a4.559,4.559,0,0,0,2,3.5L345,210.6c1.1.6,2,.1,2-1.1V183.8A4.257,4.257,0,0,0,345,180.3Z"/><path class="b" d="M343.3,127.3c1.1.6,1.4,0,2-1.1l1.7-3.1c.8-1.4,1.7-1.3,2.8-.7l47.7,27.5c1.1.6,1.6,1.8,2,3.5l1.4,4.8c.5,1.9.9,2.8,2,3.5l4.1,2.4V180L185.7,52.2V36.3Z"/><path class="f" d="M197.2,36.5c0,1.4-1,1.9-2.1,1.2A4.364,4.364,0,0,1,193,34c0-1.4,1-1.9,2.1-1.2A4.364,4.364,0,0,1,197.2,36.5Z"/><path class="f" d="M206.3,41.7c0,1.4-1,1.9-2.1,1.2a4.364,4.364,0,0,1-2.1-3.7c0-1.4,1-1.9,2.1-1.2A4.877,4.877,0,0,1,206.3,41.7Z"/><path class="f" d="M215.4,46.9c0,1.4-1,1.9-2.1,1.2a4.364,4.364,0,0,1-2.1-3.7c0-1.4,1-1.9,2.1-1.2A5.051,5.051,0,0,1,215.4,46.9Z"/><path class="l" d="M378.8,160.2,199,56.4a4.559,4.559,0,0,1-2-3.5V49.8c0-1.3.9-1.8,2-1.2L378.8,152.4a4.559,4.559,0,0,1,2,3.5V159C380.8,160.3,379.8,160.8,378.8,160.2Z"/><path class="k" d="M201.1,56.8l-.9-1.2-.9.1c-.2,0-.3,0-.4-.2a.844.844,0,0,1-.2-.7l.2-1.3v-.1l-.7-1.4a.854.854,0,0,1,0-.7.44.44,0,0,1,.5-.1l.9.3.4-.8c.1-.2.2-.3.4-.3a.472.472,0,0,1,.5.5l.5,1.6v.1l1.1.8a.864.864,0,0,1,.3.6.52.52,0,0,1-.2.4l-.7.5.2,1.5a.864.864,0,0,1-.3.6h-.2A.764.764,0,0,1,201.1,56.8Zm1-2.8h0l-1.1-.9a1.38,1.38,0,0,1-.3-.4l-.4-1.4-.3.7a.365.365,0,0,1-.5.2l-.7-.3.7,1.3a.749.749,0,0,1,.1.5l-.2,1.3v.1l.9-.1a.764.764,0,0,1,.5.2l.6.8-.1-1c0-.2,0-.4.2-.5l.6-.5Z"/><g class="m"><path d="M397.6,167.2a.55.55,0,0,0,.3.5l3.1,1.7-1.2.9a.446.446,0,0,0,0,.5.215.215,0,0,0,.2.2h.2l1.7-1.3h0v-.1h0v-.3h0v-.1h0l-1.7-3.3c-.1-.2-.3-.3-.4-.2a.637.637,0,0,0,0,.6l1.2,2.3-3.1-1.8C397.7,166.8,397.6,167,397.6,167.2Z"/><path d="M395.5,165.9c0,.2-.1.3-.3.2l-3.1-1.8,1.2,2.3a.637.637,0,0,1,0,.6h-.2c-.1,0-.1-.1-.2-.2l-1.7-3.3h0v-.1h0v-.3h0v-.1h0l1.7-1.3c.1-.1.3,0,.4.3a.446.446,0,0,1,0,.5l-1.2.9,3.1,1.8A.55.55,0,0,1,395.5,165.9Z"/><path d="M384.8,158.2a.6.6,0,0,0,.1.4l1.3.8c.1.1.2-.1.1-.3l-.3-.8c.5,0,1.1.5,1.5,1.4.6,1.2.6,2.7,0,3.2-.6.6-1.5,0-2.1-1.2-.1-.2-.3-.3-.4-.2a.637.637,0,0,0,0,.6,3.907,3.907,0,0,0,1.4,1.7,1.071,1.071,0,0,0,1.4-.1c.8-.8.8-2.7,0-4.3-.6-1.3-1.5-2-2.2-1.9l-.4-1.1c-.1-.2-.3-.2-.3,0Z"/><path d="M349.1,129.9a1.1,1.1,0,0,0,0,.8c.1.1.1.2.3.3.1.1.2.1.2,0l1.2-1.1,1.1,2.4c.1.1.1.2.3.3.1.1.2.1.2,0a1.1,1.1,0,0,0,0-.8l-1.1-2.4,1.1-1.1a1.1,1.1,0,0,0,0-.8c-.1-.3-.4-.4-.5-.3l-1.1,1.1-1.1-2.4c-.1-.3-.4-.4-.5-.3a1.1,1.1,0,0,0,0,.8l1.1,2.4Z"/><path d="M194.3,47.6l-5.6-3.3h-.1a.751.751,0,0,1-.2-1,.806.806,0,0,1,.9-.3l5.6,3.3a.806.806,0,0,1,.3.9c-.1.2-.4.4-.6.3A.367.367,0,0,1,194.3,47.6Z"/><path d="M194.3,50.8l-5.6-3.3h-.1a.751.751,0,0,1-.2-1,.806.806,0,0,1,.9-.3l5.6,3.3a.806.806,0,0,1,.3.9c-.1.2-.4.4-.6.3A.367.367,0,0,1,194.3,50.8Z"/><path d="M194.3,54.1l-5.6-3.3h-.1a.751.751,0,0,1-.2-1,.806.806,0,0,1,.9-.3l5.6,3.3a.806.806,0,0,1,.3.9c-.1.2-.4.4-.6.3A.367.367,0,0,1,194.3,54.1Z"/></g><path class="n" d="M413,160.7v15.8l-6,3.5V164.1Z"/><path class="o" d="M413,160.7v15.8l-6,3.5V164.1Z"/><path class="d" d="M368.6,242l16.9,9.7v25.1L368.6,267V242m0-.9c-.2,0-.3,0-.4.1a.812.812,0,0,0-.4.8v25.1a1.235,1.235,0,0,0,.4.8l16.8,9.8a.6.6,0,0,0,.4.1.9.9,0,0,0,.9-.9V251.8a1.235,1.235,0,0,0-.4-.8l-16.8-9.7a1.69,1.69,0,0,0-.5-.2Z"/><path class="d" d="M371.2,247.7l11.8,6.8v7.3l-.5-.3v-2.2a4.133,4.133,0,0,0-1.8-3.3l-2.5-1.4v10.8a4.449,4.449,0,0,0,1.6,3.5l1.6.9v.8l-8.4-4.9v-.8l1.5.9c.2.1.3.2.5.2.6,0,1-.7,1-1.8V253.4l-2.5-1.4a1.884,1.884,0,0,0-.8-.2c-.6,0-1,.5-1,1.4v2.2l-.5-.3v-7.4m0-.8c-.2,0-.3,0-.4.1a.812.812,0,0,0-.4.8v7.3a1.235,1.235,0,0,0,.4.8l.5.3a.6.6,0,0,0,.4.1c.2,0,.3,0,.4-.1a.755.755,0,0,0,.4-.7v-2.2c0-.3.1-.6.2-.6s.2.1.3.1l2.1,1.2v10a1.8,1.8,0,0,1-.2,1h-.1l-1.6-.9a.6.6,0,0,0-.4-.1.9.9,0,0,0-.9.9v.8a1.235,1.235,0,0,0,.4.8l8.4,4.9a.75.75,0,0,0,.9,0,.812.812,0,0,0,.4-.8v-.8a.842.842,0,0,0-.4-.7l-1.6-.9a3.17,3.17,0,0,1-1.1-2.7V256l1.2.7a3.546,3.546,0,0,1,1.4,2.5v2.2a.842.842,0,0,0,.4.7l.5.3a.749.749,0,0,0,.5.1.6.6,0,0,0,.4-.1.812.812,0,0,0,.4-.8v-7.3a1.235,1.235,0,0,0-.4-.8l-11.8-6.8c0,.2-.2.1-.3.2Z"/><path class="d" d="M321.1,251.6l-5-10.1-4.4,2.9a.755.755,0,0,1-.8.1.9.9,0,0,1-.6-.6l-5.1-12.3-6.3,6.5h0a.424.424,0,0,1-.6-.6l6.3-6.5c.1-.1.1-.1.2-.1a.984.984,0,0,1,1.3.4l5.1,12.3-.4.2.6-.1,4.3-2.8a.952.952,0,0,1,.7-.2c.3,0,.5.2.7.5l5,10.2h0a.481.481,0,0,1-.2.6h-.2C321.3,251.8,321.2,251.8,321.1,251.6Z"/><path class="d" d="M297.8,221.7h0m.9.5,22.7,13.1h0V258l-22.7-13V222.2m-.7-1.3c-.1,0-.2.1-.2.3V245a1.012,1.012,0,0,0,.4.7l23.7,13.7h.2c.1,0,.2-.1.2-.3V235.3a.6.6,0,0,0-.1-.4l-.3-.3-22.8-13.2-.9-.5Z"/><path class="d" d="M313.4,238.1a4.047,4.047,0,0,1-1.8-3.1,1.129,1.129,0,0,1,.3-1.1,1.426,1.426,0,0,1,2-.2,3.892,3.892,0,0,1,1.8,3.1,1.513,1.513,0,0,1-.7,1.4,1.421,1.421,0,0,1-.6.2A1.493,1.493,0,0,1,313.4,238.1Zm-.6-3.8h-.2a.908.908,0,0,0-.3.7,3.343,3.343,0,0,0,1.4,2.4c.1.2.4.2.6.1a.569.569,0,0,0,.4-.7,3.343,3.343,0,0,0-1.4-2.4.749.749,0,0,0-.5-.1Z"/><path class="d" d="M226.3,181a6.683,6.683,0,0,1,3.1,1,18.455,18.455,0,0,1,6.1,6.6,22.335,22.335,0,0,1,3.2,11c0,4.2-1.8,6.9-4.5,6.9a5.711,5.711,0,0,1-3.1-1,11.877,11.877,0,0,1-3.6-3.1,27.961,27.961,0,0,1-2.5-3.5,22.335,22.335,0,0,1-3.2-11c-.1-4.2,1.7-6.9,4.5-6.9h0m0-.9c-3.2,0-5.4,2.9-5.4,7.8a24.519,24.519,0,0,0,5.9,15.1,14.4,14.4,0,0,0,3.8,3.2,7.589,7.589,0,0,0,3.6,1.1c3.2,0,5.4-2.9,5.4-7.8a23.944,23.944,0,0,0-3.3-11.4,18.442,18.442,0,0,0-6.4-6.9,7.943,7.943,0,0,0-3.6-1.1Z"/><path class="d" d="M234.4,195.7h0m0,0-5.5,3.8v-.2l-.2-10.8,5.4,6.5a.779.779,0,0,1,.3.7m.6.6c.5-.4.4-1.3-.2-2l-5.9-7.1c-.3-.4-.7-.5-.9-.3s-.2.4-.2.9l.2,11.4c0,1,.5,1.6,1,1.2l6-4.1Z"/><path class="p" d="M148.8,118.6s15.3-.1,18-.3a6.205,6.205,0,0,0,3.6-1.8c1.1-1.1,10.6-12.8,10.5-13.1s-10.8,1-10.8,1-3.6,3.7-4.3,4.2l-18.7-.5Z"/><path class="d" d="M148.1,119s14.8-.1,18.5-.2c3-.1,3.8-1.2,5.2-3s10-12.6,10-12.6-1.3-.4-5.2,0-6.5.8-6.5.8l-4.6,4.3s-17.8-.7-19.3-.3Z"/><path class="q" d="M121.1,238.5l8.4,1.9-1.6,13.1a7.528,7.528,0,0,1-6.7-.2Z"/><path class="q" d="M144.6,232.9l9.2.6-.2,12.9c-3.5,2.3-5.9,3.5-7.5-.3Z"/><path class="r" d="M119.8,254.4a6.886,6.886,0,0,0,.1,3.2,21.116,21.116,0,0,0,1.7,2.7c.7,1.1.5,2.6.6,4.1a4.489,4.489,0,0,0,2.3,3.6,10.5,10.5,0,0,0,6.5,1.3,6.267,6.267,0,0,0,4.5-1.8,3.33,3.33,0,0,0,.1-2.2Z"/><path class="k" d="M129,250.7a.749.749,0,0,0-.1-.5.713.713,0,0,0-.6-.3,16.074,16.074,0,0,0-4.4.2h-.2a.961.961,0,0,0-.7.9l-.1,2.3a2.189,2.189,0,0,1-.9-1l-.3-.9c-.1-.3-.4-.4-.5-.7V250c-.4-.1-.7,1.2-1,2.3a6.661,6.661,0,0,0-.4,3.9,8.175,8.175,0,0,0,1.2,2,8.155,8.155,0,0,1,1.5,3.6c.1.6,0,1.2.1,1.7a5.2,5.2,0,0,0,3.6,4.2,11.781,11.781,0,0,0,5.6.4c1.7-.3,4-.9,3.9-2.9a5.9,5.9,0,0,0-1.5-3.3,31.962,31.962,0,0,1-2.5-2.7,15.163,15.163,0,0,1-2.5-4.9,4.671,4.671,0,0,1-.3-1.7A14.935,14.935,0,0,1,129,250.7Z"/><path class="j" d="M130.2,257a6.382,6.382,0,0,0-3-.3,6.3,6.3,0,0,0-3,1,.1.1,0,0,0-.1.1.608.608,0,0,0,0,.8h0a.605.605,0,0,0,.8.1,6.18,6.18,0,0,1,2.7-.9,5.622,5.622,0,0,1,3.4.6C131.2,257.7,130.2,257,130.2,257Z"/><path class="j" d="M131.6,259.3s-.6-.5-2.9-.4a6.8,6.8,0,0,0-3.1,1.1.1.1,0,0,0-.1.1.608.608,0,0,0,0,.8h0a.605.605,0,0,0,.8.1,6.22,6.22,0,0,1,2.6-.9,7.058,7.058,0,0,1,3.8.5A2.071,2.071,0,0,0,131.6,259.3Z"/><path class="j" d="M123.4,255.3a.481.481,0,0,0-.2.6h0a.443.443,0,0,0,.7.2l.6-.3a7.052,7.052,0,0,1,2.5-.6,5.7,5.7,0,0,1,2.6.4c.3-.1,0-.8-.4-1a4.78,4.78,0,0,0-2.9-.3A9.979,9.979,0,0,0,123.4,255.3Z"/><path class="r" d="M143.6,249.5a3.944,3.944,0,0,0-.1,2.4c.4.9,2.8,1.9,4.7,2a9.23,9.23,0,0,1,4.8,1.4,14.579,14.579,0,0,0,7.7,2.9c3.8.4,6.6-1.1,6.9-1.6a2.824,2.824,0,0,0,.2-1.8Z"/><path class="k" d="M151.5,243.7a2.223,2.223,0,0,0-1.3.8c-.4.7-.1,1.6-.7,2.2a1.36,1.36,0,0,1-1.5,0,3.045,3.045,0,0,1-.9-1.3l-.6-1.5c-.3-.5-.7-.6-.8-1.6-.6-.2-1,2.9-1.5,4.6s-1.2,3.6-.7,4.2c1.1,1.4,4.6,2,6.4,2.2,2.9.3,5.2,2.7,7.4,3.4a13,13,0,0,0,9.3-.4,2.336,2.336,0,0,0,.7-.7,2.723,2.723,0,0,0-.6-3.8,30.062,30.062,0,0,0-4-1.7c-1.3-.6-2.5-1.2-3.7-1.9a19.571,19.571,0,0,1-3-2,5.241,5.241,0,0,1-1-1.1,9.362,9.362,0,0,1-.4-1.6c-.1-.3-.1-.5-.4-.6a.446.446,0,0,0-.5,0l-1,.3Z"/><path class="j" d="M153.6,248.5a.755.755,0,0,1-.8.1h0c-.1,0-.1-.1-.2-.2a.769.769,0,0,1,.1-1,5.386,5.386,0,0,1,3.2-1.1,1.6,1.6,0,0,1,1.3.9A5.7,5.7,0,0,0,153.6,248.5Z"/><path class="j" d="M155.6,250.1a.755.755,0,0,1-.8.1h0c-.1,0-.1-.1-.2-.2a.633.633,0,0,1,.1-.9,5.707,5.707,0,0,1,3.5-1.2,1.922,1.922,0,0,1,1.6.9A5.332,5.332,0,0,0,155.6,250.1Z"/><path class="j" d="M158.4,251.6a.755.755,0,0,1-.8.1h0c-.1,0-.1-.1-.2-.2a.633.633,0,0,1,.1-.9,5.431,5.431,0,0,1,3.4-1.2,2.088,2.088,0,0,1,1.6.8A4.961,4.961,0,0,0,158.4,251.6Z"/><path class="s" d="M156.5,149.4s-.9,50.2-1.1,54.7c-.2,3.9-1.5,34.9-1.5,34.9a17.091,17.091,0,0,1-8.7.1s-2.5-18.5-3-22.7a68.67,68.67,0,0,1-.3-12.8l-1.4-23.9s-2.9,19.5-4.4,27.5c-1.7,9.2-7,39.5-7,39.5a10.158,10.158,0,0,1-8-.6s-.7-20.6-.3-29.9c.3-6.4,1-11.7,1.2-13.5,0,0,1.5-35.9,2.4-50.3Z"/><path class="r" d="M141.3,192.1l.3-11,2.5-11.9c7.5-1.7,8.1-4.9,8.1-4.9-3.4,3.2-9.3,3.5-9.3,3.5l-2.5,11.7Z"/><path class="k" d="M135.6,108.6l10-.9c5.8,0,9.8,3.1,10.6,11.9.5,5,.6,36.3.6,36.3-9.9,7.2-28.1,5.7-32.6.7l.7-19.1L122.8,121a23.152,23.152,0,0,1,.7-6.9c.6-2.8.8-4.2,3.6-4.7Z"/><path class="r" d="M137.6,87.4a8.835,8.835,0,0,1,8.8-8.9h0a8.85,8.85,0,1,1-8.8,8.9Z"/><path class="r" d="M135,103a2.827,2.827,0,0,1-1.8-1.4c-.5-1.1-2-7.9-2-7.9-1.5-3.7-2.2-7.5-1-8.7a3.483,3.483,0,0,1,2.8-1l1.9,5.1Z"/><path class="q" d="M137.9,81.8c5.1-3.2,14.6-3.2,15.6,5,.9,7.4.5,10.5-.5,14.3-.6,2.4-2,4.1-4.2,4.4a17.9,17.9,0,0,1-4-.2v3.3c1.7,2.1,2.8,6.4-2.4,5.8a9.4,9.4,0,0,1-7.2-5.4l-.3-10.7s-.4,1.9-3.4,1c-1.7-.6-3.8-3.7-2.7-6a4.7,4.7,0,0,1,.6-.9,2.266,2.266,0,0,1,3.3.2c.7.7,1.5,1.7,2,1.4C134.7,94,132.7,85,137.9,81.8Z"/><path class="r" d="M135.3,94.8a1.651,1.651,0,0,0,1-1,6.752,6.752,0,0,0,.2-1.4c0-.9.1-1.8.1-2.8a1.486,1.486,0,0,1,.2-.9c.2-.4.6-.4,1-.5a3.7,3.7,0,0,0,1.1-.5,2.361,2.361,0,0,0,.9-.8,3.329,3.329,0,0,0,.6-1,13.191,13.191,0,0,0,9.8-.3,9.574,9.574,0,0,0,5-4.3,3.5,3.5,0,0,0,.2-3,.1.1,0,0,0-.1-.1h-.2c-.3.1-1.7.7-1.9.3-.1-.1.3-.7.3-.8a2.92,2.92,0,0,0,.2-.9,1.949,1.949,0,0,0-.1-.8.738.738,0,0,0-.6-.5,1.689,1.689,0,0,0-1,.3,20.476,20.476,0,0,1-5.3,1.7c-1.8.3-3.9.5-5.7.8-3.6.6-5.8.8-7.1,2.2a3.732,3.732,0,0,0-.9,3.9s-1.2,7.7-.2,8.6c.5.5,1.1,1.9,2,2.1C134.9,94.8,135.1,94.8,135.3,94.8Z"/><path class="t" d="M144.8,106.6s-6.3-1.2-7.6-2.7a6.778,6.778,0,0,1-1.3-2.7,5.343,5.343,0,0,0,2.4,2.3,45.816,45.816,0,0,0,6.6,1.9l-.1,1.2Z"/><path class="r" d="M143.1,91.5a1,1,0,1,0,1,1A1,1,0,0,0,143.1,91.5Z"/><path class="r" d="M142.9,89.5a1.2,1.2,0,0,0-1.7-.4,1.3,1.3,0,0,0-.4,1.8l2.1-1.4Z"/><path class="p" d="M142.4,98.5a1.8,1.8,0,0,0,1,2.4h.1a1.958,1.958,0,0,0,2.5-1l-3.6-1.4Z"/><path class="t" d="M144.5,101a1.58,1.58,0,0,0-1.6-1.6,1.268,1.268,0,0,0-.6.1,1.933,1.933,0,0,0,1.1,1.4A1.376,1.376,0,0,0,144.5,101Z"/><path class="r" d="M152.3,88.4h0a1.226,1.226,0,0,0-1.6.4l2.1,1.3A1.31,1.31,0,0,0,152.3,88.4Z"/><path class="r" d="M151,91.1a1,1,0,1,0,1,1A1,1,0,0,0,151,91.1Z"/><path class="t" d="M150.5,96.8l-3.3,1-.1-6.3Z"/><path class="n" d="M170.2,130.3a4.877,4.877,0,0,0,2.1,3.7L346.9,234.8a1.357,1.357,0,0,0,1.5.1c.4-.2,3.8-2.1,4.1-2.4a1.678,1.678,0,0,0,.6-1.4V194.7A5.051,5.051,0,0,0,351,191L176.4,90.3a1.357,1.357,0,0,0-1.5-.1l-4.1,2.4a1.445,1.445,0,0,0-.6,1.4Z"/><path class="u" d="M348.9,197.1v36.4c0,1.4-1,1.9-2.1,1.2L172.3,133.9a4.6,4.6,0,0,1-2.1-3.7V93.9c0-1.4.9-1.9,2.1-1.2L346.9,193.5A4.2,4.2,0,0,1,348.9,197.1Z"/><path class="s" d="M337.5,223.2a.55.55,0,0,1-.3-.5c0-.3.2-.2.2-.2a.764.764,0,0,1-.2-.5c0-.1,0-.2.1-.2h.2l1.1.6v-.7c0-.1.1-.3.1-.4a.1.1,0,0,1,.1-.1h0c.2,0,.4,0,.5.2v.9c.1.2.6,1.3.6,1.3h0V226l-1.8-1a.822.822,0,0,1-.4-.6v-.3a.55.55,0,0,1-.3-.5Z"/><path class="s" d="M340.2,223.7v-.1l.3.2h0l.5.3v2.7h-.1l-.6-.3c-.1,0-.1-.1-.1-.2v-2.6Z"/><path class="s" d="M335.1,221.2c0,.6-.5.9-1.1.5l-12.3-7a2.453,2.453,0,0,1-1.1-1.8c0-.6.5-.9,1.1-.5l12.3,7A2.107,2.107,0,0,1,335.1,221.2Z"/><path class="s" d="M272.4,184.7c0,.6-.5.9-1.1.5L259,178.1a2.453,2.453,0,0,1-1.1-1.8c0-.6.5-.9,1.1-.5l12.3,7.1A2.107,2.107,0,0,1,272.4,184.7Z"/><path class="s" d="M275.8,187.9a1.524,1.524,0,0,0,.6,1.1l1.1.6,1.6,1.9h.1v-.9l1.1.6c.4.2.6,0,.6-.4v-2.6a1.524,1.524,0,0,0-.6-1.1l-3.9-2.2c-.4-.2-.6,0-.6.4Z"/><path class="s" d="M196.4,140.9c0,.6-.5.9-1.1.5l-12.3-7a2.453,2.453,0,0,1-1.1-1.8c0-.6.5-.9,1.1-.5l12.3,7.1A2.173,2.173,0,0,1,196.4,140.9Z"/><path class="s" d="M202.3,147v-1.8a5.806,5.806,0,0,1,2.8,2.1c1,1.8.1,2.4.1,2.4.6-.1,1.7-1.5.1-3.9a7.5,7.5,0,0,0-2.9-2.4v-1.6l-3,.9Z"/><path class="d" d="M334.2,189.9c6,3.5,10.9,11.9,10.9,18.8,0,3-.9,5.3-2.5,6.5l-.1.1a5.559,5.559,0,0,1-1.7.9,5.5,5.5,0,0,1-2.2.2h-.4a11.228,11.228,0,0,1-4-1.4,19.408,19.408,0,0,1-2.9-2.1c-.3-.2-.5-.5-.8-.7a26.224,26.224,0,0,1-2.2-2.5,5.5,5.5,0,0,0-.7-.9l-.2-.3a23.581,23.581,0,0,1-4.2-12.3C323.3,189.3,328.2,186.4,334.2,189.9Z"/><path class="g" d="M334.2,189.9c6,3.5,10.9,11.9,10.9,18.8,0,3-.9,5.3-2.5,6.5l-.1.1a5.559,5.559,0,0,1-1.7.9,5.5,5.5,0,0,1-2.2.2h-.4a11.228,11.228,0,0,1-4-1.4,19.408,19.408,0,0,1-2.9-2.1c-.3-.2-.5-.5-.8-.7a26.224,26.224,0,0,1-2.2-2.5,5.5,5.5,0,0,0-.7-.9l-.2-.3a23.581,23.581,0,0,1-4.2-12.3C323.3,189.3,328.2,186.4,334.2,189.9Z"/><path class="q" d="M330,208.1h0a7.252,7.252,0,0,1,.6,4.1,26.224,26.224,0,0,1-2.2-2.5,5.5,5.5,0,0,0-.7-.9A2.419,2.419,0,0,1,330,208.1Z"/><path class="d" d="M327.4,208.5l.2.3a5.5,5.5,0,0,0,.7.9,26.219,26.219,0,0,0,2.2,2.5,5.008,5.008,0,0,0,.8.7l1.1-3,.6-1.7-.4-.1-.7-.2h0a6.448,6.448,0,0,0-2-.3A2.659,2.659,0,0,0,327.4,208.5Z"/><path class="k" d="M330,208.1a3.079,3.079,0,0,1,1.9-.3h0c.2,0,.5.1.7.1a5.024,5.024,0,0,1,1.3.5l2.5,1.4.4.2,1.6,1.1h0l.5.3.3.3a4.517,4.517,0,0,1,1.1,1.7,8.628,8.628,0,0,1,.4,2.8,5.5,5.5,0,0,1-2.2.2h-.4a11.228,11.228,0,0,1-4-1.4,19.408,19.408,0,0,1-2.9-2.1c-.3-.2-.5-.5-.8-.7a26.224,26.224,0,0,1-2.2-2.5A4.552,4.552,0,0,1,330,208.1Z"/><path class="r" d="M332.4,194.4c-2.4-.6-4.4-.6-4.4,2.1a6.382,6.382,0,0,0,4.2,6c2.3.6,4.2-1,4.2-3.7C336.5,196.1,334.8,195.1,332.4,194.4Z"/><path class="r" d="M336.8,204.6V207a1.02,1.02,0,0,0,.8-.5c.4-1.2.6-2.5.9-3.7Z"/><path class="r" d="M337.3,202.6l1.2.2c.6-1.7.9-3.5.4-4.3a1.991,1.991,0,0,0-1.2-.8Z"/><path class="q" d="M335.6,196.1c-2.2-2.2-6.3-3.3-6.8.7a17.441,17.441,0,0,0,.3,7.2,3.612,3.612,0,0,0,1.8,2.7,10.461,10.461,0,0,0,1.7.4v1.6c-1.7,1,2.1,3.7,4.2,1.4v-5.5a1.349,1.349,0,0,0,1.5.9h.1a1.9,1.9,0,0,0,1-2.6c-.5-1.3-1.4-1-1.7-.8-.3.3-.6.7-.9.5C337,202.5,337.9,198.3,335.6,196.1Z"/><path class="r" d="M336.9,202.8a.55.55,0,0,1-.3-.5,11.8,11.8,0,0,1-.4-2,1.268,1.268,0,0,0-.1-.6,2.652,2.652,0,0,0-.5-.6,2.973,2.973,0,0,1-.8-2,7.457,7.457,0,0,1-6-.8,2.127,2.127,0,0,1-.7-1.5,1.549,1.549,0,0,1,1-1.2,2.286,2.286,0,0,1-.7-1,1.063,1.063,0,0,1,.2-1.2,1.389,1.389,0,0,1,1.1-.2,11.482,11.482,0,0,1,2.7,1.4,15.546,15.546,0,0,0,2.3.8,6.375,6.375,0,0,1,1.4.8c.2.2.3.4.5.5s.3.3.4.4a2.519,2.519,0,0,1,.6,2.6s.5,4,.1,4.3a2.092,2.092,0,0,0-.4.6h0c0,.2-.1.3-.4.2Z"/><path class="r" d="M338,196.8a.921.921,0,0,1,1.1.7l-1.4.5A.954.954,0,0,1,338,196.8Z"/><path class="t" d="M332.6,207.7s2.8.1,3.3-.5a3.38,3.38,0,0,0,.6-1.2,2.189,2.189,0,0,1-1,.9,13.678,13.678,0,0,1-2.9.2Z"/><path class="r" d="M333.5,200.5a.548.548,0,0,1,.4.6c0,.3-.2.5-.4.4a.548.548,0,0,1-.4-.6C333.1,200.6,333.3,200.4,333.5,200.5Z"/><path class="r" d="M333.9,198.9a.471.471,0,0,1,.6.1.765.765,0,0,1,.2.9l-.9-.8C333.8,199,333.9,199,333.9,198.9Z"/><path class="p" d="M332.6,205.1a1.172,1.172,0,0,1-1.1-.9l1.6-.3A.886.886,0,0,1,332.6,205.1Z"/><path class="t" d="M332.1,204.9a.9.9,0,0,0,.5.1.76.76,0,0,0,.6-.8H333A.876.876,0,0,0,332.1,204.9Z"/><path class="r" d="M329.4,197.4a.55.55,0,0,1,.7.3l-.8.5A.529.529,0,0,1,329.4,197.4Z"/><path class="r" d="M330,199.4a.548.548,0,0,1,.4.6c0,.3-.2.5-.4.4a.548.548,0,0,1-.4-.6A.366.366,0,0,1,330,199.4Z"/><path class="t" d="M330.1,202.1l1.6.8V200Z"/><path class="q" d="M339.3,211.8h0a5.845,5.845,0,0,1,3.1,3.6,5.559,5.559,0,0,1-1.7.9,5.5,5.5,0,0,1-2.2.2C338.3,214.4,338.5,212.4,339.3,211.8Z"/><path class="d" d="M342.5,215.3a7.974,7.974,0,0,0-.8-1.6,7.187,7.187,0,0,0-3.2-2.5h0s-.7.7-.5,3.5a14.051,14.051,0,0,0,.2,1.8h.4a5.339,5.339,0,0,0,2.2-.2,4.248,4.248,0,0,0,1.7-1Z"/><path class="g" d="M182.1,105.5v18a4.877,4.877,0,0,0,2.1,3.7l126.9,73.1c1.2.7,2.1.1,2.1-1.2V197a9.841,9.841,0,0,0,6.1.8c.1,0,.1-.1.2-.2,0-.1,0-.3-.2-.3a9.654,9.654,0,0,1-6.1-7.3v-9a4.877,4.877,0,0,0-2.1-3.7L184.2,104.2C183,103.5,182,104.1,182.1,105.5Z"/><path class="f" d="M309.2,182.1c0,.6-.5.9-1.1.5l-17.7-10.2a2.453,2.453,0,0,1-1.1-1.8c0-.6.5-.9,1.1-.5l17.7,10.3A1.848,1.848,0,0,1,309.2,182.1Z"/><path class="f" d="M305.2,185.3c0,.6-.5.9-1.1.5L190,120a2.453,2.453,0,0,1-1.1-1.8c0-.6.5-.9,1.1-.5l114.2,65.9A2.062,2.062,0,0,1,305.2,185.3Z"/><path class="f" d="M305.2,190.9c0,.6-.5.9-1.1.5l-56-32.3a2.453,2.453,0,0,1-1.1-1.8c0-.6.5-.9,1.1-.5l56,32.3A2.237,2.237,0,0,1,305.2,190.9Z"/><path class="q" d="M184.3,92c1.6.5,3.7,2.3,5,3.5a1.85,1.85,0,0,1,.4,2.4,5.277,5.277,0,0,0-2.2-.8,10.323,10.323,0,0,0-3,.4,12.233,12.233,0,0,0-2.4,1,27.817,27.817,0,0,0-2.7,2.1c-1.4,1.1-2.7.6-4.3-.3a3.915,3.915,0,0,1-1-.8,2.01,2.01,0,0,1-.4-.8,7.017,7.017,0,0,1,.1-2.5,4.124,4.124,0,0,1,2.9-3.2,19.954,19.954,0,0,1,3.5-.9A8.186,8.186,0,0,1,184.3,92Z"/><path class="q" d="M121.4,115.5c.1,3.6,1.4,7.2,4.6,12.5s6.9,11.3,8.5,13.5c2.3,3.3,2.7,3.6,6.6,3.4a103.3,103.3,0,0,0,13.6-1.8c3.2-.6,6.7-1.1,9.5-1.4a22.907,22.907,0,0,1,7.4.3c2.9.3,5.9.9,8.7.1a3.735,3.735,0,0,0,2.6-2.7,2.836,2.836,0,0,1,.4-1.3c.2-.3.6-.4.8-.7a.755.755,0,0,0,.1-.8c-.1-.4-.6-.5-1-.6a36.257,36.257,0,0,0-5.6-.9,14.463,14.463,0,0,1-4.6-1.4c-1-.5-2.6-1.1-2.7-2.5l-.2-2.7s-1.1-.3-1.7,1.7-.2,3-2,3.5c-5.3,1.4-25.6,1.1-25.6,1.1l-13.3-25C122.8,110.4,121.4,113.6,121.4,115.5Z"/><path class="d" d="M133.7,118.3l7.4,16,10.7.3a14.591,14.591,0,0,0,.5,9s-3.5.8-6.9,1.2c-5.7.7-8.9.8-10-.6C134,142.5,125,129,122.5,122s-1.4-9.1-.1-10.4,2.3-1.9,5.8-2.2C131,112.2,133.7,118.3,133.7,118.3Z"/><path class="d" d="M220.8,216.4l-2.7,1.5a3.314,3.314,0,0,0-1.6,2.8v66.4a3.854,3.854,0,0,0,1.6,2.8l69.7,40.3a3.816,3.816,0,0,0,3.3,0l2.7-1.5a3.314,3.314,0,0,0,1.6-2.8V259.5a3.854,3.854,0,0,0-1.6-2.8L224,216.4A3.6,3.6,0,0,0,220.8,216.4Z"/><path class="v" d="M220.8,216.4l-2.7,1.5a3.314,3.314,0,0,0-1.6,2.8v66.4a3.854,3.854,0,0,0,1.6,2.8l69.7,40.3a3.816,3.816,0,0,0,3.3,0l2.7-1.5a3.314,3.314,0,0,0,1.6-2.8V259.5a3.854,3.854,0,0,0-1.6-2.8L224,216.4A3.6,3.6,0,0,0,220.8,216.4Z"/><path class="d" d="M218.1,217.9l2.7-1.6a3.816,3.816,0,0,1,3.3,0l69.7,40.2a2.545,2.545,0,0,1,1.1,1.2l-5.9,3.4a4.263,4.263,0,0,0-1.1-1.2l-69.7-40.2c-.7-.4-1.4-.2-1.6.4A3,3,0,0,1,218.1,217.9Z"/><path class="w" d="M218.1,217.9l2.7-1.6a3.816,3.816,0,0,1,3.3,0l69.7,40.2a2.545,2.545,0,0,1,1.1,1.2l-5.9,3.4a4.263,4.263,0,0,0-1.1-1.2l-69.7-40.2c-.7-.4-1.4-.2-1.6.4A3,3,0,0,1,218.1,217.9Z"/><path class="d" d="M216.5,220.7v66.4a3.854,3.854,0,0,0,1.6,2.8l69.7,40.3c.9.5,1.6.1,1.6-.9V262.9a3.854,3.854,0,0,0-1.6-2.8l-69.7-40.3C217.2,219.3,216.5,219.7,216.5,220.7Z"/><path class="f" d="M251.6,297.8a30.055,30.055,0,0,1-10.7-11.4,40.552,40.552,0,0,1-5.6-20.1c0-7.1,2.4-12.6,6.6-15,3.5-2,7.9-1.7,12.4.9a26.028,26.028,0,0,1,6.7,5.7h0a37.8,37.8,0,0,1,4,5.6,41.618,41.618,0,0,1,5.6,20.1c0,7.1-2.4,12.6-6.6,15a9.576,9.576,0,0,1-5,1.3A13.819,13.819,0,0,1,251.6,297.8Zm1.5-43.5c-3.7-2.1-7.3-2.5-10-.9-3.4,1.9-5.4,6.7-5.4,12.9a38.483,38.483,0,0,0,5.3,18.9,27.956,27.956,0,0,0,9.8,10.4c3.7,2.1,7.3,2.5,10,.9,3.4-1.9,5.4-6.7,5.4-12.9a39.147,39.147,0,0,0-9-24.2A30.052,30.052,0,0,0,253.1,254.3Z"/><path class="f" d="M247.1,285.5l.5-21.8c0-2,1-2.4,2.1-.9l10.7,13.9c1.1,1.5,1.2,3.2.1,3.8l-11.6,7.4C247.9,288.6,247.1,287.5,247.1,285.5Z"/><path class="r" d="M315,270.1l2.2,1.3v58.5l58.9,34v3.2a.633.633,0,0,1-1,.6L315,332.9a2.062,2.062,0,0,1-1-1.7V270.7C314,270.1,314.4,269.8,315,270.1Z"/><path class="d" d="M375.1,304.8a1.853,1.853,0,0,1,.7.8,1.689,1.689,0,0,1,.3,1v57.3l-58.9-34V271.4Z"/><path class="x" d="M375.1,304.8a1.853,1.853,0,0,1,.7.8,1.689,1.689,0,0,1,.3,1v57.3l-58.9-34V271.4Z"/><path class="g" d="M315.3,313.3v16.4a2.144,2.144,0,0,0,1.1,1.9L374.3,365l3.8-2.2V345.5l-13-26a1.276,1.276,0,0,0-1.7-.4h0l-3.7,2.1h0l-.2.1-8.8,5.8-13.3-32.7a1.276,1.276,0,0,0-1.7-.4h0l-3.7,2.2h-.1c-.1,0-.1.1-.2.2Z"/><path class="y" d="M315.3,313.3v16.4a2.144,2.144,0,0,0,1.1,1.9L374.3,365l3.8-2.2V345.5l-13-26a1.276,1.276,0,0,0-1.7-.4h0l-3.7,2.1h0l-.2.1-8.8,5.8-13.3-32.7a1.276,1.276,0,0,0-1.7-.4h0l-3.7,2.2h-.1c-.1,0-.1.1-.2.2Z"/><path class="g" d="M316.4,331.6a2.144,2.144,0,0,1-1.1-1.9V313.3l16.4-16.9c.1-.1.1-.1.2-.1a1.3,1.3,0,0,1,1.8.4l13.5,32.9,12.3-8.1.1-.1a1.171,1.171,0,0,1,1.7.4l12.9,26.1V365Z"/><path class="y" d="M348.6,328.6l2.5,10.4-3.9-9.5Z"/><path class="s" d="M311.6,267.1v75.7a1.936,1.936,0,0,0,1,1.7l64.5,37.2.2.1h.1a2.263,2.263,0,0,0,1.8-.1l1.8-1a2.062,2.062,0,0,0,1-1.7V303.3a1.689,1.689,0,0,0-.3-1,2.7,2.7,0,0,0-.7-.8l-64.4-37.2a2.335,2.335,0,0,0-2,0l-1.8,1a2.263,2.263,0,0,0-1,1.5v.1C311.6,267,311.5,267.1,311.6,267.1Zm2.4,3.6a.633.633,0,0,1,1-.6l60.1,34.8a2.337,2.337,0,0,1,.7.7,1.689,1.689,0,0,1,.3,1v60.5a.633.633,0,0,1-1,.6L315,332.9a2.062,2.062,0,0,1-1-1.7Z"/><path class="r" d="M378,381.2V305.5a1.689,1.689,0,0,0-.3-1l3.8-2.2a1.689,1.689,0,0,1,.3,1V379a2.062,2.062,0,0,1-1,1.7l-1.8,1a2.263,2.263,0,0,1-1.8.1C377.7,382,378,381.7,378,381.2Z"/><path class="k" d="M311.5,267v75.9a2.062,2.062,0,0,0,1,1.7l64.4,37.2.2.1h.1c.4.1.8-.1.8-.7V305.5a2.062,2.062,0,0,0-1-1.7l-64.4-37.3c-.5-.3-.9-.1-1,.3,0,.1,0,.1-.1.2Zm2.5,3.7c0-.6.4-.9,1-.6l2.2,1.3,57.9,33.5a1.853,1.853,0,0,1,.7.8,1.689,1.689,0,0,1,.3,1v60.5a.633.633,0,0,1-1,.6L315,332.9a2.062,2.062,0,0,1-1-1.7Z"/><path class="g" d="M355.5,310.6l1.4,2.4,2.9-1.7h0a2.96,2.96,0,0,0,1.2-2.6,8.843,8.843,0,0,0-4-7,2.819,2.819,0,0,0-2.8-.3h0l-3,1.7,1.5,2.5A8.419,8.419,0,0,0,355.5,310.6Z"/><path class="y" d="M355.5,310.6l1.4,2.4,2.9-1.7h0a2.96,2.96,0,0,0,1.2-2.6,8.843,8.843,0,0,0-4-7,2.819,2.819,0,0,0-2.8-.3h0l-3,1.7,1.5,2.5A8.419,8.419,0,0,0,355.5,310.6Z"/><path class="g" d="M358,310.4c0,2.6-1.8,3.6-4,2.3a8.843,8.843,0,0,1-4-7c0-2.6,1.8-3.6,4-2.3A8.554,8.554,0,0,1,358,310.4Z"/><path class="d" d="M219.6,355,171,383l-54.7-31.6,48.6-28.1Z"/><path class="z" d="M219.6,355,171,383l-54.7-31.6,48.6-28.1Z"/><path class="d" d="M164.9,285.3v38l-48.6,28.1V313.3Z"/><path class="aa" d="M164.9,285.3v38l-48.6,28.1V313.3Z"/><path class="d" d="M219.6,316.9V355l-54.7-31.7v-38Z"/><path class="ab" d="M219.6,316.9V355l-54.7-31.7v-38Z"/><path class="d" d="M164.9,285.3V264.2l54.6,31.7.1,21Z"/><path class="w" d="M164.9,285.3V264.2l54.6,31.7.1,21Z"/><path class="d" d="M116.3,313.3l-5.8-19.1,48.6-28,5.8,19.1Z"/><path class="e" d="M116.3,313.3l-5.8-19.1,48.6-28,5.8,19.1Z"/><path class="u" d="M127.9,349.9a2.333,2.333,0,0,1-1-1.7l-4.1-67a1.965,1.965,0,0,1,.9-1.7l41.7-23.9a2.118,2.118,0,0,1,1.9,0,2.333,2.333,0,0,1,1,1.7l4.1,67a1.965,1.965,0,0,1-.9,1.7l-41.7,23.9A2.107,2.107,0,0,1,127.9,349.9Z"/><path class="l" d="M129.7,349.9,171.4,326a1.965,1.965,0,0,0,.9-1.7l-4.1-67a.633.633,0,0,0-1-.6l-41.7,23.9a1.965,1.965,0,0,0-.9,1.7l4.1,66.9C128.8,350,129.2,350.2,129.7,349.9Z"/><path class="i" d="M167.6,257.2c.1,0,.1.1.1.3l4.1,67a1.426,1.426,0,0,1-.6,1.2l-41.7,23.9c-.1,0-.1.1-.2.1s-.1-.1-.1-.3l-4.1-66.9a1.426,1.426,0,0,1,.6-1.2l41.7-24a.31.31,0,0,1,.2-.1m0-.5a.6.6,0,0,0-.4.1l-41.7,23.9a1.965,1.965,0,0,0-.9,1.7l4.1,67c0,.5.3.7.6.7a.6.6,0,0,0,.4-.1l41.7-23.9a1.965,1.965,0,0,0,.9-1.7l-4.1-67c0-.5-.2-.8-.6-.7Z"/><path class="n" d="M129.6,350a2.263,2.263,0,0,1-1.8-.1,2.333,2.333,0,0,1-1-1.7l-4.1-67a3.553,3.553,0,0,1,.2-1l1.9,1.1a1.645,1.645,0,0,0-.2,1l4.1,67C128.8,349.9,129.2,350.2,129.6,350Z"/><path class="n" d="M146.6,275.3l14.7-8.5a.552.552,0,0,1,.9.5v.4a1.9,1.9,0,0,1-.8,1.5l-14.7,8.5a.552.552,0,0,1-.9-.5v-.4A1.645,1.645,0,0,1,146.6,275.3Z"/><path class="n" d="M146.9,281.1l14.7-8.5a.552.552,0,0,1,.9.5v.3a1.9,1.9,0,0,1-.8,1.5L147,283.4a.563.563,0,0,1-.9-.5v-.4A1.723,1.723,0,0,1,146.9,281.1Z"/><path class="n" d="M147.3,286.9l14.7-8.5a.552.552,0,0,1,.9.5v.3a1.9,1.9,0,0,1-.8,1.5l-14.6,8.5a.552.552,0,0,1-.9-.5v-.4A1.42,1.42,0,0,1,147.3,286.9Z"/><path class="n" d="M132.4,307.4,162.6,290a.552.552,0,0,1,.9.5v.3a1.9,1.9,0,0,1-.8,1.5l-30.2,17.4a.563.563,0,0,1-.9-.5v-.3A2.751,2.751,0,0,1,132.4,307.4Z"/><path class="n" d="M132.1,301.6l30.2-17.4a.552.552,0,0,1,.9.5v.3a1.9,1.9,0,0,1-.8,1.5l-30.2,17.4a.552.552,0,0,1-.9-.5v-.3A1.763,1.763,0,0,1,132.1,301.6Z"/><path class="n" d="M132.8,313.3,163,295.9a.552.552,0,0,1,.9.5v.3a1.9,1.9,0,0,1-.8,1.5l-30.2,17.4a.552.552,0,0,1-.9-.5v-.3A1.763,1.763,0,0,1,132.8,313.3Z"/><path class="n" d="M133.2,319.1l30.2-17.4a.552.552,0,0,1,.9.5v.3a1.9,1.9,0,0,1-.8,1.5l-30.2,17.4a.552.552,0,0,1-.9-.5v-.3A1.9,1.9,0,0,1,133.2,319.1Z"/><path class="n" d="M133.5,325l30.2-17.4a.552.552,0,0,1,.9.5v.3a1.9,1.9,0,0,1-.8,1.5l-30.2,17.4a.552.552,0,0,1-.9-.5v-.3A1.645,1.645,0,0,1,133.5,325Z"/><path class="n" d="M133.9,330.8l30.2-17.4a.552.552,0,0,1,.9.5v.3a1.9,1.9,0,0,1-.8,1.5L134,333.1a.552.552,0,0,1-.9-.5v-.4A1.6,1.6,0,0,1,133.9,330.8Z"/><path class="n" d="M134.2,336.6l30.2-17.4a.552.552,0,0,1,.9.5v.3a1.763,1.763,0,0,1-.8,1.5L134.4,339a.552.552,0,0,1-.9-.5v-.4A1.488,1.488,0,0,1,134.2,336.6Z"/><path class="g" d="M130.4,283.6l12.2-7,.9,14.6-12.2,7Z"/><path class="u" d="M145.2,359.9a2.333,2.333,0,0,1-1-1.7l-4.1-66.9a1.965,1.965,0,0,1,.9-1.7l41.7-23.9a2.118,2.118,0,0,1,1.9,0,2.333,2.333,0,0,1,1,1.7l4.1,67a1.965,1.965,0,0,1-.9,1.7L147.1,360A2.51,2.51,0,0,1,145.2,359.9Z"/><path class="l" d="M147.1,359.9,188.8,336a1.965,1.965,0,0,0,.9-1.7l-4.1-66.9a.633.633,0,0,0-1-.6l-41.7,24a1.965,1.965,0,0,0-.9,1.7l4.1,66.9C146.1,360,146.6,360.2,147.1,359.9Z"/><path class="i" d="M185,267.2c.1,0,.1.1.1.3l4.1,67a1.426,1.426,0,0,1-.6,1.2l-41.7,23.9c-.1,0-.1.1-.2.1s-.1-.1-.1-.3l-4.1-67a1.426,1.426,0,0,1,.6-1.2l41.7-23.9c0-.1.1-.1.2-.1m0-.5a.6.6,0,0,0-.4.1l-41.7,24a1.965,1.965,0,0,0-.9,1.7l4.1,66.9c0,.5.3.7.6.7a.6.6,0,0,0,.4-.1l41.7-23.9a1.965,1.965,0,0,0,.9-1.7l-4.1-66.9c0-.5-.3-.8-.6-.8Z"/><path class="n" d="M147,360a2.263,2.263,0,0,1-1.8-.1,2.333,2.333,0,0,1-1-1.7l-4.1-67a3.553,3.553,0,0,1,.2-1l1.9,1.1a1.645,1.645,0,0,0-.2,1l4.1,67C146.1,359.9,146.5,360.2,147,360Z"/><path class="n" d="M163.9,285.3l14.7-8.5a.552.552,0,0,1,.9.5v.4a1.9,1.9,0,0,1-.8,1.5L164,287.7a.552.552,0,0,1-.9-.5v-.4A1.763,1.763,0,0,1,163.9,285.3Z"/><path class="n" d="M164.3,291.1l14.7-8.5a.563.563,0,0,1,.9.5v.4a1.9,1.9,0,0,1-.8,1.5l-14.6,8.5a.552.552,0,0,1-.9-.5v-.4A1.488,1.488,0,0,1,164.3,291.1Z"/><path class="n" d="M164.6,296.9l14.7-8.5a.552.552,0,0,1,.9.5v.4a1.763,1.763,0,0,1-.8,1.5l-14.7,8.5a.552.552,0,0,1-.9-.5v-.4A1.9,1.9,0,0,1,164.6,296.9Z"/><path class="n" d="M149.8,317.5,180,300.1a.552.552,0,0,1,.9.5v.3a1.9,1.9,0,0,1-.8,1.5L150,319.8a.552.552,0,0,1-.9-.5V319A1.412,1.412,0,0,1,149.8,317.5Z"/><path class="n" d="M149.4,311.6l30.2-17.4a.563.563,0,0,1,.9.5v.4a1.9,1.9,0,0,1-.8,1.5L149.6,314a.552.552,0,0,1-.9-.5v-.3A2.015,2.015,0,0,1,149.4,311.6Z"/><path class="n" d="M150.2,323.3l30.2-17.4a.552.552,0,0,1,.9.5v.3a1.9,1.9,0,0,1-.8,1.5l-30.2,17.4a.552.552,0,0,1-.9-.5v-.3A1.763,1.763,0,0,1,150.2,323.3Z"/><path class="n" d="M150.5,329.2l30.2-17.4a.552.552,0,0,1,.9.5v.3a1.9,1.9,0,0,1-.8,1.5l-30.2,17.4a.563.563,0,0,1-.9-.5v-.3A1.645,1.645,0,0,1,150.5,329.2Z"/><path class="n" d="M150.9,335l30.2-17.4a.552.552,0,0,1,.9.5v.3a1.9,1.9,0,0,1-.8,1.5L151,337.3a.552.552,0,0,1-.9-.5v-.3A1.763,1.763,0,0,1,150.9,335Z"/><path class="n" d="M151.2,340.8l30.2-17.4a.563.563,0,0,1,.9.5v.3a1.9,1.9,0,0,1-.8,1.5l-30.2,17.4a.563.563,0,0,1-.9-.5v-.3A1.763,1.763,0,0,1,151.2,340.8Z"/><path class="n" d="M151.6,346.6l30.2-17.4a.552.552,0,0,1,.9.5v.3a1.9,1.9,0,0,1-.8,1.5L151.7,349a.552.552,0,0,1-.9-.5v-.3A1.943,1.943,0,0,1,151.6,346.6Z"/><path class="g" d="M147.7,293.6l12.2-7,.9,14.7-12.2,6.9Z"/><path class="u" d="M162.5,369.9a2.333,2.333,0,0,1-1-1.7l-4.1-67a1.965,1.965,0,0,1,.9-1.7L200,275.6a2.118,2.118,0,0,1,1.9,0,2.333,2.333,0,0,1,1,1.7l4.1,66.9a1.965,1.965,0,0,1-.9,1.7l-41.6,24A2.332,2.332,0,0,1,162.5,369.9Z"/><path class="l" d="M164.4,369.9,206.1,346a1.965,1.965,0,0,0,.9-1.7l-4.1-66.9a.633.633,0,0,0-1-.6l-41.7,24a1.965,1.965,0,0,0-.9,1.7l4.1,66.9C163.4,370,163.9,370.2,164.4,369.9Z"/><path class="i" d="M202.3,277.2c.1,0,.1.1.1.3l4.1,66.9a1.426,1.426,0,0,1-.6,1.2l-41.7,23.9c-.1,0-.1.1-.2.1s-.1-.1-.1-.3l-4.1-67a1.426,1.426,0,0,1,.6-1.2l41.7-23.9a.138.138,0,0,1,.2,0m0-.5a.6.6,0,0,0-.4.1l-41.6,24a1.965,1.965,0,0,0-.9,1.7l4.1,66.9c0,.5.3.7.6.7a.6.6,0,0,0,.4-.1l41.7-23.9a1.965,1.965,0,0,0,.9-1.7l-4.1-67c-.1-.4-.3-.7-.7-.7Z"/><path class="n" d="M164.3,370a2.263,2.263,0,0,1-1.8-.1,2.333,2.333,0,0,1-1-1.7l-4.1-67a3.553,3.553,0,0,1,.2-1l1.9,1.1a1.645,1.645,0,0,0-.2,1l4.1,67C163.4,369.9,163.8,370.2,164.3,370Z"/><path class="n" d="M181.2,295.3l14.7-8.5a.552.552,0,0,1,.9.5v.4a1.9,1.9,0,0,1-.8,1.5l-14.7,8.5a.552.552,0,0,1-.9-.5v-.4A1.763,1.763,0,0,1,181.2,295.3Z"/><path class="n" d="M181.6,301.1l14.7-8.5a.552.552,0,0,1,.9.5v.4a1.9,1.9,0,0,1-.8,1.5l-14.7,8.5a.552.552,0,0,1-.9-.5v-.4A1.763,1.763,0,0,1,181.6,301.1Z"/><path class="n" d="M181.9,306.9l14.7-8.5a.552.552,0,0,1,.9.5v.4a1.9,1.9,0,0,1-.8,1.5L182,309.3a.552.552,0,0,1-.9-.5v-.4A2.751,2.751,0,0,1,181.9,306.9Z"/><path class="n" d="M167.1,327.5l30.2-17.4a.552.552,0,0,1,.9.5v.4a1.9,1.9,0,0,1-.8,1.5l-30.2,17.4a.552.552,0,0,1-.9-.5v-.3A2.226,2.226,0,0,1,167.1,327.5Z"/><path class="n" d="M166.8,321.6,197,304.2a.563.563,0,0,1,.9.5v.4a1.9,1.9,0,0,1-.8,1.5L166.9,324a.552.552,0,0,1-.9-.5v-.3A1.943,1.943,0,0,1,166.8,321.6Z"/><path class="n" d="M167.5,333.3l30.2-17.4a.552.552,0,0,1,.9.5v.3a1.9,1.9,0,0,1-.8,1.5l-30.2,17.4a.552.552,0,0,1-.9-.5v-.3A1.9,1.9,0,0,1,167.5,333.3Z"/><path class="n" d="M167.8,339.2,198,321.8a.552.552,0,0,1,.9.5v.3a1.9,1.9,0,0,1-.8,1.5L168,341.5a.563.563,0,0,1-.9-.5v-.3A1.806,1.806,0,0,1,167.8,339.2Z"/><path class="n" d="M168.2,345l30.2-17.4a.552.552,0,0,1,.9.5v.3a1.9,1.9,0,0,1-.8,1.5l-30.2,17.4a.552.552,0,0,1-.9-.5v-.3A1.763,1.763,0,0,1,168.2,345Z"/><path class="n" d="M168.6,350.8l30.2-17.4a.552.552,0,0,1,.9.5v.3a1.9,1.9,0,0,1-.8,1.5l-30.2,17.4a.563.563,0,0,1-.9-.5v-.3A1.763,1.763,0,0,1,168.6,350.8Z"/><path class="n" d="M168.9,356.7l30.2-17.4a.552.552,0,0,1,.9.5v.3a1.9,1.9,0,0,1-.8,1.5L169,359a.552.552,0,0,1-.9-.5v-.3A1.645,1.645,0,0,1,168.9,356.7Z"/><path class="g" d="M165,303.6l12.3-7,.8,14.7-12.2,7Z"/><path class="d" d="M171,345v38l-54.7-31.6V313.3Z"/><path class="ac" d="M171,345v38l-54.7-31.6V313.3Z"/><path class="d" d="M219.6,355V316.9L171,345v38Z"/><path class="aa" d="M219.6,355V316.9L171,345v38Z"/><path class="ad" d="M219.6,316.9,171,345v38l.9-37.2Z"/><path class="d" d="M171,345l4.6-18.4,48.1-27.8-4.1,18.1Z"/><path class="v" d="M171,345l4.6-18.4,48.1-27.8-4.1,18.1Z"/><path class="d" d="M116.3,313.3l-11.5-15.8,54.8,31.7L171,345Z"/><path class="ae" d="M116.3,313.3l-11.5-15.8,54.8,31.7L171,345Z"/><path class="ad" d="M104.8,297.5l54.8,31.7L171,345l-12-15.2Z"/><g class="af"><path class="f" d="M185.3,371.8a.265.265,0,0,1-.3-.3v-6.7a.3.3,0,0,1,.6,0v6.7A.319.319,0,0,1,185.3,371.8Z"/><path class="f" d="M184.4,367.1h-.1c-.2-.1-.2-.2-.2-.4h0l1.1-2.5,1.2,1.4a.283.283,0,0,1-.4.4h0l-.6-.6-.7,1.6A.438.438,0,0,1,184.4,367.1Z"/><path class="f" d="M188.1,370.2a.265.265,0,0,1-.3-.3v-6.7a.3.3,0,0,1,.6,0v6.7q0,.15-.3.3Z"/><path class="f" d="M187.2,365.5h-.1c-.2-.1-.2-.2-.2-.4l1.1-2.5,1.2,1.4a.3.3,0,0,1,0,.4h0a.3.3,0,0,1-.4,0l-.6-.7-.7,1.6C187.4,365.4,187.3,365.5,187.2,365.5Z"/></g><g class="af"><path class="f" d="M177.3,376.3a.367.367,0,0,1-.3-.1,1.012,1.012,0,0,1-.4-.7v-.8a.265.265,0,0,1,.3-.3h0a.265.265,0,0,1,.3.3v.8c0,.1,0,.1.1.2.1,0,.1,0,.2-.1a1.678,1.678,0,0,0,.6-1.4v-3.4a.3.3,0,0,1,.6,0h0v3.4a2.463,2.463,0,0,1-.9,1.9A.764.764,0,0,1,177.3,376.3Z"/><path class="f" d="M174.2,373.5V373a8.447,8.447,0,0,1,3.8-6.6,2.541,2.541,0,0,1,3.6.3,2.743,2.743,0,0,1,.6,2.1v.2Zm5.6-7.1a2.976,2.976,0,0,0-1.5.5,8.058,8.058,0,0,0-3.5,5.6l6.7-3.9a2.518,2.518,0,0,0-.9-2A1.884,1.884,0,0,0,179.8,366.4Z"/></g><g class="ag"><path class="b" d="M167.3,307a1.421,1.421,0,0,0-.2.6c0,.2-.1.4,0,.6,0,.1.1.2.1.3a.367.367,0,0,0,.3.1h.4a.758.758,0,0,0,.4-.2c.1-.1.3-.2.4-.3l.4-.4c.1-.2.2-.3.3-.5a1.087,1.087,0,0,0,.1-.5v-.5a1.268,1.268,0,0,0-.1-.6c0-.2-.1-.4-.1-.6s-.1-.4-.1-.6-.1-.5-.1-.7c0-.3-.1-.5-.1-.8l.8-.5c0,.3.1.5.1.8s.1.5.1.8l.1,1.3c0,.1,0,.1.1.2l.1.1h.2c.1,0,.1,0,.2-.1h.1v.6h-.1a.367.367,0,0,1-.3.1.349.349,0,0,0-.2.1h0v.6a1.421,1.421,0,0,1-.2.6c-.1.2-.2.3-.3.5s-.3.3-.4.4l-.4.4c-.1.1-.3.2-.4.3s-.3.1-.4.2a.6.6,0,0,1-.4.1h-.4a.6.6,0,0,1-.4-.1c-.1-.1-.2-.1-.3-.3a.6.6,0,0,1-.1-.4h0v-.7c0-.1.1-.3.1-.4s.1-.2.2-.4Z"/><path class="b" d="M170.7,305.4h0c.2-.1.3-.2.4-.2.1-.1.2-.1.3-.2h-.1c-.1,0-.1,0-.1-.1l-.1-.1c0-.1-.1-.1-.1-.2v-.3a.367.367,0,0,1,.1-.3c.1-.1.1-.2.2-.3s.1-.2.2-.3l.3-.3c.1-.1.2-.1.3-.2h0a.9.9,0,0,1,.5-.1.6.6,0,0,1,.4.1c.1,0,.2.1.3.2a.367.367,0,0,1,.1.3.6.6,0,0,1-.1.4c-.1.1-.1.3-.2.5.1,0,.2-.1.3-.1.1-.1.2-.1.3-.2h.1v.6h-.1c-.2.1-.3.2-.4.2-.1.1-.3.1-.4.2s-.2.1-.4.1h-.3l-.2.2a1.38,1.38,0,0,1-.4.3c-.1.1-.3.2-.4.3-.2.1-.3.2-.4.2h-.1Zm1.2-3.4-.5.7-.5-.2.5-.7Zm.2,1.4c-.1,0-.1.1-.2.1l-.2.2a.31.31,0,0,0-.1.2v.3a.1.1,0,0,0,.1.1l.1.1h.4l.2-.2c.1-.1.1-.1.1-.2s.1-.1.1-.2v-.2c0-.1,0-.1-.1-.2l-.1-.1h-.2C172.2,303.4,172.2,303.4,172.1,303.4Zm.9-2-.5.7-.5-.2.5-.7Z"/><path class="b" d="M173.6,303.8l.5-.3c.1,0,.2-.1.3-.2s.2-.1.3-.2l.2-.2c0-.1.1-.2.1-.3v-.2c0-.1-.1-.1-.1-.2a.349.349,0,0,0-.1-.2l-.2-.2.7-.7.2.2c.1.1.1.2.2.3,0,.1.1.2.1.3s.1.2.1.3a.749.749,0,0,1-.1.5c-.1.2-.2.3-.3.5a1,1,0,0,1-.5.4c-.2.1-.4.3-.6.4l-.5.3Zm1.3-3.3-.5.8-.6-.2.5-.8Z"/><path class="b" d="M167.6,314a1.421,1.421,0,0,0-.2.6c0,.2-.1.4,0,.6,0,.1.1.2.1.3a.367.367,0,0,0,.3.1h.4a.758.758,0,0,0,.4-.2c.1-.1.3-.2.4-.3l.4-.4a2.186,2.186,0,0,0,.3-.5,1.087,1.087,0,0,0,.1-.5v-.5a1.268,1.268,0,0,0-.1-.6c0-.2-.1-.4-.1-.6s-.1-.4-.1-.6-.1-.5-.1-.7-.1-.5-.1-.7l.8-.5c0,.3.1.5.1.8s.1.5.1.8a1.268,1.268,0,0,0,.1.6c0,.2.1.4.1.6a1.268,1.268,0,0,0,.1.6V314a1.421,1.421,0,0,1-.2.6c-.1.2-.2.3-.3.5s-.3.3-.4.4l-.4.4c-.1.1-.3.2-.4.3s-.3.1-.4.2a.6.6,0,0,1-.4.1h-.4a.6.6,0,0,1-.4-.1c-.1-.1-.2-.1-.3-.3-.1-.1-.1-.2-.1-.4h0V315c0-.1.1-.3.1-.4s.1-.2.2-.4Z"/><path class="b" d="M170.8,314.4c.3-.2.5-.4.8-.6l.6-.6c.2-.2.3-.4.4-.5.1-.2.2-.3.2-.5-.2.1-.3.2-.5.2-.2.1-.3.1-.4.2-.1,0-.3.1-.4.1h-.3a.215.215,0,0,1-.2-.2.367.367,0,0,1-.1-.3v-.3a.367.367,0,0,1,.1-.3c0-.1.1-.2.1-.4.1-.1.1-.2.2-.3l.3-.3c.1-.1.2-.2.3-.2a.972.972,0,0,1,.9-.1.349.349,0,0,1,.2.1l.2.2a.367.367,0,0,1,.1.3c0,.1.1.2.1.3l.2-.1v.6l-.3.1a1.135,1.135,0,0,1-.3.8,2.177,2.177,0,0,1-.5.8c-.2.3-.5.5-.7.8-.3.2-.5.5-.8.7Zm1.1-3.5c-.1,0-.1.1-.2.1s-.1.1-.2.2a.367.367,0,0,0-.1.3v.2c0,.1,0,.1.1.1h.4a.349.349,0,0,0,.2-.1.1.1,0,0,0,.1-.1.349.349,0,0,1,.2-.1c.1,0,.1-.1.2-.1a.1.1,0,0,0,.1-.1c0-.1,0-.1-.1-.2,0-.1-.1-.1-.1-.2a.1.1,0,0,0-.1-.1c-.1,0-.1-.1-.2-.1H172C172,310.9,172,310.9,171.9,310.9Z"/><path class="b" d="M173.6,311l.6-.3a2.186,2.186,0,0,0,.5-.3,1.381,1.381,0,0,0,.4-.3c.1-.1.2-.2.3-.2l-.4.1c-.2.1-.3.2-.5.2s-.3.1-.4.1-.2-.1-.3-.1a.367.367,0,0,1-.1-.3v-.3a.367.367,0,0,1,.1-.3c0-.1.1-.2.1-.3.1-.1.1-.2.2-.3s.2-.2.2-.3c.1-.1.2-.2.3-.2a.6.6,0,0,1,.4-.1h.3c.1,0,.2.1.3.1.1.1.2.1.2.2a.367.367,0,0,1,.1.3c0,.1.1.2.1.3a.749.749,0,0,1-.1.5c-.1.2-.1.3-.2.5a1.756,1.756,0,0,1-.4.5,2.182,2.182,0,0,1-.5.4c-.2.1-.4.3-.6.4a4.348,4.348,0,0,1-.7.4l-.1.1.2-.8Zm.9-3.7-.5.7-.5-.2.5-.7Zm.2,1.4h0c-.1,0-.1.1-.2.1,0,.1-.1.1-.1.2a.349.349,0,0,1-.1.2v.2h0c0,.1,0,.1.1.1h.1c.1,0,.1,0,.2-.1.1,0,.1-.1.2-.1s.1-.1.2-.1a.1.1,0,0,0,.1-.1c.1,0,.1-.1.2-.1,0-.1-.1-.1-.1-.2s-.1-.1-.1-.2c-.1-.1-.1-.1-.2-.1C174.9,308.7,174.8,308.7,174.7,308.7Zm.9-2-.5.7-.5-.2.5-.7Z"/></g><g class="ag"><path class="b" d="M150.3,297.7a1.421,1.421,0,0,0-.2.6c0,.2-.1.4,0,.6,0,.1.1.2.1.3a.367.367,0,0,0,.3.1h.4a.758.758,0,0,0,.4-.2c.1-.1.3-.2.4-.3l.4-.4c.1-.2.2-.3.3-.5a1.087,1.087,0,0,0,.1-.5v-.5a1.268,1.268,0,0,0-.1-.6c0-.2-.1-.4-.1-.6s-.1-.4-.1-.6-.1-.5-.1-.7c0-.3-.1-.5-.1-.8l.8-.5c0,.3.1.5.1.8s.1.5.1.8l.1,1.3c0,.1,0,.1.1.2l.1.1h.2c.1,0,.1,0,.2-.1h.1v.6h-.1a.367.367,0,0,1-.3.1.349.349,0,0,0-.2.1h0v.6a1.421,1.421,0,0,1-.2.6c-.1.2-.2.3-.3.5s-.3.3-.4.4l-.4.4c-.1.1-.3.2-.4.3s-.3.1-.4.2a.6.6,0,0,1-.4.1h-.4a.6.6,0,0,1-.4-.1c-.1-.1-.2-.1-.3-.3a.6.6,0,0,1-.1-.4h0v-.7c0-.1.1-.3.1-.4s.1-.2.2-.4Z"/><path class="b" d="M153.6,296.2h0c.2-.1.3-.2.4-.2.1-.1.2-.1.3-.2h-.1c-.1,0-.1,0-.1-.1l-.1-.1c0-.1-.1-.1-.1-.2v-.3a.367.367,0,0,1,.1-.3c.1-.1.1-.2.2-.3s.1-.2.2-.3l.3-.3c.1-.1.2-.1.3-.2h0a.9.9,0,0,1,.5-.1.6.6,0,0,1,.4.1c.1,0,.2.1.3.2a.367.367,0,0,1,.1.3.6.6,0,0,1-.1.4c-.1.1-.1.3-.2.5.1,0,.2-.1.3-.1.1-.1.2-.1.3-.2h.1v.6h-.1c-.2.1-.3.2-.4.2-.1.1-.3.1-.4.2s-.2.1-.4.1h-.3l-.2.2a1.38,1.38,0,0,1-.4.3c-.1.1-.3.2-.4.3-.2.1-.3.2-.4.2h-.1Zm1.3-3.5-.5.7-.5-.2.5-.7Zm.2,1.4c-.1,0-.1.1-.2.1l-.2.2a.31.31,0,0,0-.1.2v.3a.1.1,0,0,0,.1.1l.1.1h.4l.2-.2c.1-.1.1-.1.1-.2s.1-.1.1-.2v-.2c0-.1,0-.1-.1-.2l-.1-.1h-.2A.1.1,0,0,1,155.1,294.1Zm.9-1.9-.5.7-.5-.2.5-.7Z"/><path class="b" d="M156.6,294.6l.5-.3c.1,0,.2-.1.3-.2s.2-.1.3-.2l.2-.2c0-.1.1-.2.1-.3v-.2c0-.1-.1-.1-.1-.2a.349.349,0,0,0-.1-.2l-.2-.2.7-.7.2.2c.1.1.1.2.2.3,0,.1.1.2.1.3s.1.2.1.3a.749.749,0,0,1-.1.5c-.1.2-.2.3-.3.5a1,1,0,0,1-.5.4c-.2.1-.4.3-.6.4l-.5.3Zm1.3-3.4-.5.8-.6-.2.5-.8Z"/><path class="b" d="M150.6,304.8a1.421,1.421,0,0,0-.2.6c0,.2-.1.4,0,.6,0,.1.1.2.1.3a.367.367,0,0,0,.3.1h.4a.758.758,0,0,0,.4-.2c.1-.1.3-.2.4-.3l.4-.4a2.186,2.186,0,0,0,.3-.5,1.087,1.087,0,0,0,.1-.5V304a1.268,1.268,0,0,0-.1-.6c0-.2-.1-.4-.1-.6s-.1-.4-.1-.6-.1-.5-.1-.7-.1-.5-.1-.7l.8-.5c0,.3.1.5.1.8s.1.5.1.8a1.268,1.268,0,0,0,.1.6c0,.2.1.4.1.6a1.268,1.268,0,0,0,.1.6v1.1a1.421,1.421,0,0,1-.2.6c-.1.2-.2.3-.3.5s-.3.3-.4.4l-.4.4c-.1.1-.3.2-.4.3s-.3.1-.4.2a.6.6,0,0,1-.4.1h-.4a.6.6,0,0,1-.4-.1c-.1-.1-.2-.1-.3-.3-.1-.1-.1-.2-.1-.4h0v-.7c0-.1.1-.3.1-.4s.1-.2.2-.4Z"/><path class="b" d="M153.8,305.1c.3-.2.5-.4.8-.6l.6-.6c.2-.2.3-.4.4-.5.1-.2.2-.3.2-.5-.2.1-.3.2-.5.2-.2.1-.3.1-.4.2-.1,0-.3.1-.4.1h-.3a.215.215,0,0,1-.2-.2.367.367,0,0,1-.1-.3v-.3a.367.367,0,0,1,.1-.3c0-.1.1-.2.1-.4.1-.1.1-.2.2-.3l.3-.3c.1-.1.2-.2.3-.2a.972.972,0,0,1,.9-.1.349.349,0,0,1,.2.1l.2.2a.367.367,0,0,1,.1.3c0,.1.1.2.1.3l.2-.1v.6l-.3.1a1.135,1.135,0,0,1-.3.8,2.177,2.177,0,0,1-.5.8c-.2.3-.5.5-.7.8-.3.2-.5.5-.8.7Zm1.1-3.4c-.1,0-.1.1-.2.1s-.1.1-.2.2a.367.367,0,0,0-.1.3v.2c0,.1,0,.1.1.1h.4a.349.349,0,0,0,.2-.1.1.1,0,0,0,.1-.1.349.349,0,0,1,.2-.1c.1,0,.1-.1.2-.1a.1.1,0,0,0,.1-.1c0-.1,0-.1-.1-.2,0-.1-.1-.1-.1-.2a.1.1,0,0,0-.1-.1c-.1,0-.1-.1-.2-.1H155C155,301.6,155,301.6,154.9,301.7Z"/><path class="b" d="M156.5,301.8l.6-.3a2.186,2.186,0,0,0,.5-.3,1.381,1.381,0,0,0,.4-.3c.1-.1.2-.2.3-.2l-.3.2c-.2.1-.3.2-.5.2s-.3.1-.4.1-.2-.1-.3-.1a.367.367,0,0,1-.1-.3v-.3a.367.367,0,0,1,.1-.3c0-.1.1-.2.1-.3.1-.1.1-.2.2-.3s.2-.2.2-.3c.1-.1.2-.2.3-.2a.6.6,0,0,1,.4-.1h.3c.1,0,.2.1.3.1.1.1.2.1.2.2a.367.367,0,0,1,.1.3c0,.1.1.2.1.3a.749.749,0,0,1-.1.5c-.1.2-.1.3-.2.5a1.756,1.756,0,0,1-.4.5,2.182,2.182,0,0,1-.5.4c-.2.1-.4.3-.6.4a4.348,4.348,0,0,1-.7.4l-.1.1.1-.9Zm1-3.7-.5.7-.5-.2.5-.7Zm.2,1.4h0c-.1,0-.1.1-.2.1,0,.1-.1.1-.1.2a.349.349,0,0,1-.1.2v.2h0c0,.1,0,.1.1.1h.1c.1,0,.1,0,.2-.1.1,0,.1-.1.2-.1s.1-.1.2-.1a.1.1,0,0,0,.1-.1c.1,0,.1-.1.2-.1,0-.1-.1-.1-.1-.2s-.1-.1-.1-.2c-.1-.1-.1-.1-.2-.1C157.8,299.4,157.7,299.4,157.7,299.5Zm.9-2-.5.7-.5-.2.5-.7Z"/></g><g class="ag"><path class="b" d="M133,286.6a1.421,1.421,0,0,0-.2.6c0,.2-.1.4,0,.6,0,.1.1.2.1.3a.367.367,0,0,0,.3.1h.4a.758.758,0,0,0,.4-.2c.1-.1.3-.2.4-.3l.4-.4c.1-.2.2-.3.3-.5a1.087,1.087,0,0,0,.1-.5v-.5a1.268,1.268,0,0,0-.1-.6c0-.2-.1-.4-.1-.6s-.1-.4-.1-.6-.1-.5-.1-.7c0-.3-.1-.5-.1-.8l.8-.5c0,.3.1.5.1.8s.1.5.1.8l.1,1.3c0,.1,0,.1.1.2l.1.1h.2c.1,0,.1,0,.2-.1h.1v.6h-.1a.367.367,0,0,1-.3.1.349.349,0,0,0-.2.1h0v.6a1.421,1.421,0,0,1-.2.6c-.1.2-.2.3-.3.5s-.3.3-.4.4l-.4.4c-.1.1-.3.2-.4.3s-.3.1-.4.2a.6.6,0,0,1-.4.1H133a.6.6,0,0,1-.4-.1c-.1-.1-.2-.1-.3-.3a.6.6,0,0,1-.1-.4h0v-.7c0-.1.1-.3.1-.4s.1-.2.2-.4Z"/><path class="b" d="M136.3,285.1h0c.2-.1.3-.2.4-.2.1-.1.2-.1.3-.2h-.1c-.1,0-.1,0-.1-.1l-.1-.1c0-.1-.1-.1-.1-.2V284a.367.367,0,0,1,.1-.3c.1-.1.1-.2.2-.3s.1-.2.2-.3l.3-.3c.1-.1.2-.1.3-.2h0a.9.9,0,0,1,.5-.1.6.6,0,0,1,.4.1c.1,0,.2.1.3.2a.367.367,0,0,1,.1.3.6.6,0,0,1-.1.4c-.1.1-.1.3-.2.5.1,0,.2-.1.3-.1.1-.1.2-.1.3-.2h.1v.6h-.1c-.2.1-.3.2-.4.2-.1.1-.3.1-.4.2s-.2.1-.4.1h-.3l-.2.2a1.38,1.38,0,0,1-.4.3c-.1.1-.3.2-.4.3-.2.1-.3.2-.4.2h-.1Zm1.3-3.4-.5.7-.5-.2.5-.7Zm.1,1.4c-.1,0-.1.1-.2.1l-.2.2a.31.31,0,0,0-.1.2v.3a.1.1,0,0,0,.1.1l.1.1h.4l.2-.2c.1-.1.1-.1.1-.2s.1-.1.1-.2v-.2c0-.1,0-.1-.1-.2l-.1-.1h-.2C137.9,283,137.8,283,137.7,283.1Zm1-2-.5.7-.5-.2.5-.7Z"/><path class="b" d="M139.3,283.5l.5-.3c.1,0,.2-.1.3-.2s.2-.1.3-.2l.2-.2c0-.1.1-.2.1-.3v-.2c0-.1-.1-.1-.1-.2a.349.349,0,0,0-.1-.2l-.2-.2.7-.7.2.2c.1.1.1.2.2.3,0,.1.1.2.1.3s.1.2.1.3a.749.749,0,0,1-.1.5c-.1.2-.2.3-.3.5a1,1,0,0,1-.5.4c-.2.1-.4.3-.6.4l-.5.3Zm1.3-3.4-.5.8-.6-.2.5-.8Z"/><path class="b" d="M133.2,293.7a1.421,1.421,0,0,0-.2.6c0,.2-.1.4,0,.6,0,.1.1.2.1.3a.367.367,0,0,0,.3.1h.4a.758.758,0,0,0,.4-.2c.1-.1.3-.2.4-.3l.4-.4a2.186,2.186,0,0,0,.3-.5,1.087,1.087,0,0,0,.1-.5v-.5a1.268,1.268,0,0,0-.1-.6c0-.2-.1-.4-.1-.6s-.1-.4-.1-.6-.1-.5-.1-.7-.1-.5-.1-.7l.8-.5c0,.3.1.5.1.8s.1.5.1.8a1.268,1.268,0,0,0,.1.6c0,.2.1.4.1.6a1.268,1.268,0,0,0,.1.6v1.1a1.421,1.421,0,0,1-.2.6c-.1.2-.2.3-.3.5s-.3.3-.4.4l-.4.4c-.1.1-.3.2-.4.3s-.3.1-.4.2a.6.6,0,0,1-.4.1h-.4a.6.6,0,0,1-.4-.1c-.1-.1-.2-.1-.3-.3-.1-.1-.1-.2-.1-.4h0v-.7c0-.1.1-.3.1-.4s.1-.2.2-.4Z"/><path class="b" d="M136.5,294c.3-.2.5-.4.8-.6l.6-.6c.2-.2.3-.4.4-.5.1-.2.2-.3.2-.5-.2.1-.3.2-.5.2-.2.1-.3.1-.4.2-.1,0-.3.1-.4.1h-.3a.215.215,0,0,1-.2-.2.367.367,0,0,1-.1-.3v-.3a.367.367,0,0,1,.1-.3c0-.1.1-.2.1-.4.1-.1.1-.2.2-.3l.3-.3c.1-.1.2-.2.3-.2a.972.972,0,0,1,.9-.1.349.349,0,0,1,.2.1l.2.2a.367.367,0,0,1,.1.3c0,.1.1.2.1.3l.2-.1v.6l-.3.1a1.135,1.135,0,0,1-.3.8,2.177,2.177,0,0,1-.5.8c-.2.3-.5.5-.7.8-.3.2-.5.5-.8.7Zm1.1-3.4c-.1,0-.1.1-.2.1s-.1.1-.2.2a.367.367,0,0,0-.1.3v.2c0,.1,0,.1.1.1h.4a.349.349,0,0,0,.2-.1.1.1,0,0,0,.1-.1.349.349,0,0,1,.2-.1c.1,0,.1-.1.2-.1a.1.1,0,0,0,.1-.1c0-.1,0-.1-.1-.2,0-.1-.1-.1-.1-.2a.1.1,0,0,0-.1-.1c-.1,0-.1-.1-.2-.1h-.2C137.7,290.5,137.6,290.5,137.6,290.6Z"/><path class="b" d="M139.2,290.7l.6-.3a2.186,2.186,0,0,0,.5-.3,1.381,1.381,0,0,0,.4-.3c.1-.1.2-.2.3-.2l-.3.2c-.2.1-.3.2-.5.2s-.3.1-.4.1-.2-.1-.3-.1a.367.367,0,0,1-.1-.3v-.3a.367.367,0,0,1,.1-.3c0-.1.1-.2.1-.3.1-.1.1-.2.2-.3s.2-.2.2-.3c.1-.1.2-.2.3-.2a.6.6,0,0,1,.4-.1h.3c.1,0,.2.1.3.1.1.1.2.1.2.2a.367.367,0,0,1,.1.3c0,.1.1.2.1.3a.749.749,0,0,1-.1.5c-.1.2-.1.3-.2.5a1.756,1.756,0,0,1-.4.5,2.182,2.182,0,0,1-.5.4c-.2.1-.4.3-.6.4a4.348,4.348,0,0,1-.7.4l-.1.1.1-.9Zm1-3.7-.5.7-.5-.2.5-.7Zm.1,1.4h0c-.1,0-.1.1-.2.1,0,.1-.1.1-.1.2a.349.349,0,0,1-.1.2v.2h0c0,.1,0,.1.1.1h.1c.1,0,.1,0,.2-.1.1,0,.1-.1.2-.1s.1-.1.2-.1a.1.1,0,0,0,.1-.1c.1,0,.1-.1.2-.1,0-.1-.1-.1-.1-.2s-.1-.1-.1-.2c-.1-.1-.1-.1-.2-.1C140.5,288.3,140.4,288.3,140.3,288.4Zm1-2-.5.7-.5-.2.5-.7Z"/></g></g></svg>