<svg xmlns="http://www.w3.org/2000/svg" xmlns:xlink="http://www.w3.org/1999/xlink" width="442.6" height="461" viewBox="0 0 442.6 461"><defs><style>.a{fill:#f5f5f5;}.b{fill:#e0e0e0;}.c{fill:#06826a;}.d,.t{opacity:0.15;}.e{fill:#fff;}.f{fill:#ff3600;}.g{fill:#37474f;}.h{opacity:0.5;}.i,.r{fill:#455a64;}.j{fill:#263238;}.k{opacity:0.1;}.l{fill:#fafafa;}.m{fill:#f0f0f0;}.n{opacity:0.4;}.o{fill:#ffa8a7;}.p{fill:#b16668;}.q{fill:#f28f8f;}.r{opacity:0.2;}.s{fill:#045e4d;}.u{clip-path:url(#a);}.v{fill:#131719;}.w{clip-path:url(#b);}.x{fill:#ffbda7;}.y{fill:#f29077;}</style><clipPath id="a"><path d="M307.1,220.2,363,187.9c1-.6,1.8-.1,1.8,1V260a3.892,3.892,0,0,1-1.8,3.1l-55.9,32.2c-1,.6-1.8.1-1.8-1v-71A3.786,3.786,0,0,1,307.1,220.2Z"/></clipPath><clipPath id="b"><path d="M307.1,99.1,363,66.8c1-.6,1.8-.1,1.8,1v71.1A3.892,3.892,0,0,1,363,142l-55.9,32.2c-1,.6-1.8.1-1.8-1v-71A3.654,3.654,0,0,1,307.1,99.1Z"/></clipPath></defs><g transform="translate(-23.3 -25.6)"><ellipse class="a" cx="221.3" cy="114.9" rx="221.3" ry="114.9" transform="translate(23.3 256.8)"/><ellipse class="b" cx="49.6" cy="30.1" rx="49.6" ry="30.1" transform="translate(198.8 415.6)"/><path class="c" d="M87.3,364.1a58.542,58.542,0,0,0-4-17c-3.5-8.8-10.3-17.6-18.2-19.3s-11.2,3.6-9.5,8.8c1.4,4.5,7.3,8.2,11.7,12.1S80,362,82.3,371.2l4.4.5Z"/><g class="d"><path d="M87.3,364.1a58.542,58.542,0,0,0-4-17c-3.5-8.8-10.3-17.6-18.2-19.3s-11.2,3.6-9.5,8.8c1.4,4.5,7.3,8.2,11.7,12.1S80,362,82.3,371.2l4.4.5Z"/></g><path class="e" d="M84.3,368.2a.472.472,0,0,1-.5-.5C83,344.8,60.6,332,60.3,331.8a.515.515,0,0,1,.5-.9h0c.2.1,23.1,13.2,24,36.7a.56.56,0,0,1-.5.6Z"/><path class="f" d="M84.6,399.5a17.711,17.711,0,0,1-11.7,1.7,11.315,11.315,0,0,1-6.2-3c-1.8-1.9-2.1-3.8-2.7-6.4a6.423,6.423,0,0,0-1.1-3c-1.5-2.1-4.6-2.1-7.1-2.6a10.616,10.616,0,0,1-8-6.9c-1-3.6.7-7.9,4.1-9.3l-4.2-2.7a25.076,25.076,0,0,1-3.7-2.7,6.161,6.161,0,0,1-1.8-4,5.763,5.763,0,0,1,3.7-5.1,13.5,13.5,0,0,1,6.6-.7,37.119,37.119,0,0,1,6.6,1.5,3.922,3.922,0,0,0,1.8.4,5.23,5.23,0,0,0,2.3-1c4.8-3.2,12.7-2.9,15.2,3.1.4.9.6,1.8,1,2.7,1.5,3.2,5.7,2.3,8.4,3.8a6.978,6.978,0,0,1,3.2,4.8c.5,3.2-.3,6.8-.9,10a86.343,86.343,0,0,1-2.2,9.1c-.7,2.5-1.5,4.9-2.3,7.3C85.4,397,85.1,399.2,84.6,399.5Z"/><path class="e" d="M87.4,392.1a43.843,43.843,0,0,0-11.5-17.3c-.1-.1-.1-.2-.3-.3-1.5-1.4-3.1-2.7-4.7-4a23.618,23.618,0,0,1,1.6-12.6.663.663,0,0,0-.2-.7h0a.481.481,0,0,0-.6.2h0a23.913,23.913,0,0,0-1.8,12.1,76.266,76.266,0,0,0-21.7-10.9.51.51,0,1,0-.2,1,72.671,72.671,0,0,1,25.7,14.1c-7.1-1.2-15.5,2.2-15.9,2.3a.446.446,0,0,0-.3.6.55.55,0,0,0,.5.3h.2c.1,0,10-4.1,17-1.9a42.356,42.356,0,0,1,11.3,17,.55.55,0,0,0,.5.3h.2c.2.4.3.1.2-.2Z"/><path class="c" d="M98.5,388l209-120.6V46L98.5,166.8Z"/><path class="g" d="M88.8,161.2l9.7,5.6L307.5,46l9.7-16.7Z"/><path class="g" d="M317.2,272.9V29.3L307.5,46V267.4Z"/><path class="g" d="M88.8,161.2l9.7,5.6V388l-9.7,16.8Z"/><path class="g" d="M98.5,388l209-120.6,9.7,5.5L88.8,404.8Z"/><g class="h"><path class="i" d="M88.8,161.2l9.7,5.6L307.5,46l9.7-16.7Z"/></g><g class="h"><path class="i" d="M98.5,388l209-120.6,9.7,5.5L88.8,404.8Z"/></g><path class="i" d="M317.2,29.3l-6.4-3.7L82.4,157.5l6.4,3.7Z"/><path class="j" d="M82.4,157.5l6.4,3.7V404.8L82.4,401Z"/><g class="k"><path d="M307.5,46l-3.2,1.9V265.5L98.5,384.3V388l209-120.6Z"/></g><path class="b" d="M294.5,69.3l-.1-2.9-3.5-2h0a1.073,1.073,0,0,0-1.1.1L111.7,167.8a3.658,3.658,0,0,0-1.6,2.7v61.7a1.159,1.159,0,0,0,.4,1h0l3.5,2v-3.5L289.8,129.8a3.658,3.658,0,0,0,1.6-2.7V69.3Z"/><path class="l" d="M294.5,66.4l-3.5-2h0a1.073,1.073,0,0,0-1.1.1L111.7,167.8a2.41,2.41,0,0,0-1,1l4.9,2.9L291.5,70.3Z"/><path class="m" d="M115.2,169.8,293.4,66.5c.9-.5,1.6-.1,1.6.9v61.7a3.658,3.658,0,0,1-1.6,2.7L115.2,235.1c-.9.5-1.6.1-1.6-.9V172.6A3.677,3.677,0,0,1,115.2,169.8Z"/><path class="b" d="M164.9,217.9l-.1-2.9-3.5-2h0a1.073,1.073,0,0,0-1.1.1l-48.5,28a3.658,3.658,0,0,0-1.6,2.7v14.4a1.159,1.159,0,0,0,.4,1h0l3.5,2v-3.5l46.1-26.6a3.658,3.658,0,0,0,1.6-2.7V217.8Z"/><path class="l" d="M164.8,215l-3.5-2h0a1.073,1.073,0,0,0-1.1.1l-48.5,28a4.741,4.741,0,0,0-1,1l4.9,2.9,46.1-26Z"/><path class="m" d="M115.2,243.1l48.5-28c.9-.5,1.6-.1,1.6.9v14.5a3.658,3.658,0,0,1-1.6,2.7l-48.5,27.9c-.9.5-1.6.1-1.6-.9V245.8A3.658,3.658,0,0,1,115.2,243.1Z"/><path class="f" d="M119.8,244.4l.9,1.9a.192.192,0,0,0,.3.1h0l2-.8c.3-.1.4.3.2.8l-1.4,2.7a.9.9,0,0,0-.1.5l.3,2.4c0,.4-.3.9-.6.9l-1.8-.2c-.1,0-.3.1-.3.2l-1.8,2.3c-.3.4-.6.2-.6-.2l.3-2.8a.6.6,0,0,0-.1-.4l-1.4-1a.8.8,0,0,1,.2-1l2-1.5c.1-.1.2-.3.3-.4l.9-2.9C119.3,244.3,119.7,244.1,119.8,244.4Z"/><path class="f" d="M129.8,238.7l.9,1.9a.192.192,0,0,0,.3.1l2-.8c.3-.1.4.3.2.8l-1.4,2.7a.9.9,0,0,0-.1.5l.3,2.4a.8.8,0,0,1-.6.9l-1.8-.2a.758.758,0,0,0-.4.2l-1.8,2.3c-.3.4-.6.2-.6-.2l.3-2.8a.6.6,0,0,0-.1-.4l-1.4-1a.8.8,0,0,1,.2-1l2-1.5c.1-.1.2-.3.3-.4l.9-2.9C129.3,238.6,129.7,238.4,129.8,238.7Z"/><path class="f" d="M139.8,233l.9,1.9a.192.192,0,0,0,.3.1h0l2-.8c.3-.1.4.3.2.7l-1.4,2.7a.9.9,0,0,0-.1.5l.3,2.4a.8.8,0,0,1-.6.9l-1.8-.2a.758.758,0,0,0-.4.2l-1.8,2.3c-.3.4-.6.2-.6-.2l.3-2.8a.6.6,0,0,0-.1-.4l-1.4-1a.8.8,0,0,1,.2-1l2-1.5c.1-.1.2-.3.3-.4l.9-2.9C139.3,232.9,139.6,232.7,139.8,233Z"/><path class="f" d="M149.8,227.3l.9,1.9a.192.192,0,0,0,.3.1h0l2-.8c.3-.1.4.3.2.8l-1.4,2.7a.9.9,0,0,0-.1.5l.3,2.4a.8.8,0,0,1-.6.9l-1.8-.2a.758.758,0,0,0-.4.2l-1.8,2.3c-.3.4-.6.2-.6-.2l.3-2.8a.6.6,0,0,0-.1-.4l-1.4-1a.8.8,0,0,1,.2-1l2-1.5c.1-.1.2-.3.3-.4l.9-2.9C149.2,227.2,149.6,227,149.8,227.3Z"/><path class="b" d="M159.8,221.5l.9,1.9a.192.192,0,0,0,.3.1h0l2-.8c.3-.1.4.3.2.8l-1.4,2.7a.9.9,0,0,0-.1.5l.3,2.4a.8.8,0,0,1-.6.9l-1.8-.2a.758.758,0,0,0-.4.2l-1.8,2.3c-.3.4-.6.2-.6-.2l.3-2.8a.6.6,0,0,0-.1-.4l-1.4-1a.8.8,0,0,1,.2-1l2-1.5c.1-.1.2-.3.3-.4l.9-2.9C159.2,221.5,159.6,221.2,159.8,221.5Z"/><path class="b" d="M115.7,270.5,290.3,169.7c1.2-.7,2.1-.1,2.1,1.2v36.4a4.877,4.877,0,0,1-2.1,3.7L115.7,311.8c-1.2.7-2.1.1-2.1-1.2V274.2A4.877,4.877,0,0,1,115.7,270.5Z"/><path class="m" d="M115.7,270.5,290.3,169.7c1.2-.7,2.1-.1,2.1,1.2v36.4a4.877,4.877,0,0,1-2.1,3.7L115.7,311.8c-1.2.7-2.1.1-2.1-1.2V274.2A4.877,4.877,0,0,1,115.7,270.5Z"/><path class="g" d="M125.1,300.4a.55.55,0,0,1-.3.5c0,.1.1.2.1.3a.675.675,0,0,1-.4.6l-1.8,1.1v-2.4h0a8.93,8.93,0,0,0,.5-1.3v-.9a.365.365,0,0,1,.5-.2h0a.1.1,0,0,1,.1.1c.1.1.1.2.1.4v.7l1.1-.6c.1-.1.2-.1.2,0,.1.1.1.1.1.2,0,.2-.1.3-.2.5,0,0,.2-.1.2.2a.55.55,0,0,1-.3.5C125.1,300.2,125.1,300.2,125.1,300.4Z"/><path class="g" d="M122.4,302.8v.5c0,.1,0,.1-.1.2l-.6.3h-.1v-2.7l.5-.3h0l.3-.2v2.2Z"/><path class="g" d="M128.5,296.5l12.3-7.1c.6-.3,1.1-.1,1.1.5a2.344,2.344,0,0,1-1.1,1.8l-12.3,7c-.6.3-1.1.1-1.1-.5A2.454,2.454,0,0,1,128.5,296.5Z"/><path class="g" d="M191.2,260l12.3-7c.6-.3,1.1-.1,1.1.5a2.344,2.344,0,0,1-1.1,1.8l-12.3,7.1c-.6.3-1.1.1-1.1-.5A2.654,2.654,0,0,1,191.2,260Z"/><path class="g" d="M186.8,262.3c0-.4-.3-.6-.6-.4l-3.8,2.2a1.255,1.255,0,0,0-.6,1.1v2.6c0,.4.3.6.6.4l1.1-.6v.9c0,.1.1.1.1,0l1.6-1.9,1.1-.6a1.255,1.255,0,0,0,.6-1.1Z"/><path class="g" d="M267.2,216.3l12.3-7c.6-.3,1.1-.1,1.1.5a2.344,2.344,0,0,1-1.1,1.8l-12.3,7.1c-.6.3-1.1.1-1.1-.5A2.312,2.312,0,0,1,267.2,216.3Z"/><path class="g" d="M263.3,219.7l-3-.9v1.6a6.982,6.982,0,0,0-3,2.4c-1.6,2.5-.5,3.9.1,4,0,0-.9-.6.1-2.4a5.381,5.381,0,0,1,2.8-2.1v1.8Z"/><path class="c" d="M139.3,273.3a23.2,23.2,0,0,1-4.9,13.3.1.1,0,0,1-.1.1c-.4.5-.7.9-1.1,1.4a18.883,18.883,0,0,1-2,2,10.628,10.628,0,0,0-1.1.9,9.91,9.91,0,0,1-1.7,1.1,9.64,9.64,0,0,1-4.6,1.5h-.2a2.768,2.768,0,0,1-.9-.1,5.062,5.062,0,0,1-3.2-1.7l-.1-.1a8.466,8.466,0,0,1-1.8-5.9c0-6.9,4.9-15.4,10.9-18.8S139.3,266.4,139.3,273.3Z"/><path class="n" d="M139.3,273.3a23.2,23.2,0,0,1-4.9,13.3.1.1,0,0,1-.1.1c-.4.5-.7.9-1.1,1.4a18.883,18.883,0,0,1-2,2,10.628,10.628,0,0,0-1.1.9,9.91,9.91,0,0,1-1.7,1.1,9.64,9.64,0,0,1-4.6,1.5h-.2a2.768,2.768,0,0,1-.9-.1,5.062,5.062,0,0,1-3.2-1.7l-.1-.1a8.466,8.466,0,0,1-1.8-5.9c0-6.9,4.9-15.4,10.9-18.8S139.3,266.4,139.3,273.3Z"/><path class="o" d="M130.2,285.7h0l-.2.1c-1,1-1.1,1.9-.6,3.4.2.6.4,1.2.6,1.7a10.628,10.628,0,0,0,1.1-.9,18.883,18.883,0,0,0,2-2,13.445,13.445,0,0,0,1.1-1.4C133.5,285.6,132.2,285.4,130.2,285.7Z"/><path class="i" d="M134.4,286.6h0c-.4.6-.8,1-1.2,1.5a18.883,18.883,0,0,1-2,2l-.4-1.5-.6-2.4-.1-.4h.1a6.162,6.162,0,0,1,2.7-.1A2.016,2.016,0,0,1,134.4,286.6Z"/><path class="j" d="M125.3,284.9c-.8,0-3.6-2.3-3.6-5.9a13.553,13.553,0,0,1,.2-2,6.982,6.982,0,0,1,.8-2,13.3,13.3,0,0,1,1.4-1.9,18.5,18.5,0,0,1,3.7-2.5,6.31,6.31,0,0,1,2.3-.8,3.153,3.153,0,0,1,2.3.5,1.991,1.991,0,0,1,.8,1.2,2.845,2.845,0,0,1,0,1.3,1.612,1.612,0,0,1,.7.4,2.01,2.01,0,0,1,.4.8,2.41,2.41,0,0,1-.7,1.8,2.624,2.624,0,0,1-.4,2.8c-.8.8-2,1.1-2.8,1.9a6.983,6.983,0,0,0-1.3,2.4c-.3.7-.8,1.7-1.7,1.8a6.6,6.6,0,0,1-1.4.1Z"/><path class="c" d="M133.2,288a18.883,18.883,0,0,1-2,2,10.628,10.628,0,0,0-1.1.9,9.91,9.91,0,0,1-1.7,1.1,9.64,9.64,0,0,1-4.6,1.5h-.2a2.768,2.768,0,0,1-.9-.1c.5-1.6.8-3.8-.7-5.4h0a33.567,33.567,0,0,1,4.3-1.8l3.7-.6h.2A9.321,9.321,0,0,1,133.2,288Z"/><path class="o" d="M131.5,272.9c.7.3,1.5,2,1.4,6-.1,3.4-1,4.5-1.5,4.8a3.718,3.718,0,0,1-2.3.5v1.6a4.63,4.63,0,0,1,1.2,2.3c0,1-1.8,1.6-2.9,1a7.009,7.009,0,0,1-2.1-2.1v-4.2a.948.948,0,0,1-1.3.2l-.1-.1a1.776,1.776,0,0,1-.4-2.5c.6-.8,1.6-.9,2-.1a5.871,5.871,0,0,1,2.6-3A7.521,7.521,0,0,0,131.5,272.9Z"/><path class="j" d="M129.7,278.9a.713.713,0,0,1-.3.6c-.2.1-.3,0-.4-.2v-.1c0-.2.1-.5.4-.5C129.5,278.5,129.7,278.6,129.7,278.9Z"/><path class="p" d="M129.5,281.5l1.4.1a1.063,1.063,0,0,1-.9.8C129.6,282.4,129.4,282,129.5,281.5Z"/><path class="j" d="M132.7,276.8l-.7-.4a.446.446,0,0,1,.6-.3C132.8,276.2,132.8,276.5,132.7,276.8Z"/><path class="j" d="M128.6,278.2l.7-.8c-.1-.2-.4-.2-.6,0A.755.755,0,0,0,128.6,278.2Z"/><path class="j" d="M132.5,277.8c0,.2-.1.5-.3.5-.2.1-.3,0-.4-.2V278c0-.2.1-.5.4-.5C132.3,277.4,132.5,277.6,132.5,277.8Z"/><path class="q" d="M130.8,278v2.6l1.2-.8Z"/><path class="q" d="M129.2,284.2c-.9.1-2.9,0-3.2-.8a1.272,1.272,0,0,0,.7.9,6.963,6.963,0,0,0,2.5.5Z"/><path class="o" d="M123.6,293.6a2.768,2.768,0,0,1-.9-.1,5.062,5.062,0,0,1-3.2-1.7,8.417,8.417,0,0,1,2.5-3.7h0c1.2.1,1.6,1.8,1.7,2.7A8.677,8.677,0,0,1,123.6,293.6Z"/><path class="i" d="M123.8,293.6h-.2a2.768,2.768,0,0,1-.9-.1,5.062,5.062,0,0,1-3.2-1.7l-.1-.1c0-.1.1-.2.1-.3a6.255,6.255,0,0,1,2.5-3.3h0c.1-.1.3-.1.4-.2C124.2,288.9,124.2,291.7,123.8,293.6Z"/><path class="q" d="M130,282.5a.367.367,0,0,0,.3-.1.669.669,0,0,0-.7-.6h-.2a.73.73,0,0,0,.6.7Z"/><path class="f" d="M278.4,181.4,151.5,254.5a4.364,4.364,0,0,0-2.1,3.7v8.9a9.654,9.654,0,0,1-6.1,7.3c-.1,0-.2.2-.2.3s.1.1.2.2a9.625,9.625,0,0,0,6-.8v2.1c0,1.4,1,1.9,2.1,1.2l126.8-73.1a4.364,4.364,0,0,0,2.1-3.7V182.5C280.6,181.2,279.6,180.7,278.4,181.4Z"/><path class="m" d="M154.4,257.5l17.7-10.2c.6-.3,1.1-.1,1.1.5a2.344,2.344,0,0,1-1.1,1.8l-17.7,10.2c-.6.3-1.1.1-1.1-.5A2.453,2.453,0,0,1,154.4,257.5Z"/><path class="i" d="M122.5,182l17.7-10.2c.6-.3,1.1-.1,1.1.5a2.344,2.344,0,0,1-1.1,1.8l-17.7,10.2c-.6.3-1.1.1-1.1-.5A2.653,2.653,0,0,1,122.5,182Z"/><path class="i" d="M121.9,188.9l37.2-21.5c.6-.3,1.1-.1,1.1.5a2.344,2.344,0,0,1-1.1,1.8l-37.2,21.5c-.6.3-1.1.1-1.1-.5A1.992,1.992,0,0,1,121.9,188.9Z"/><path class="i" d="M121.9,194.6l37.2-21.5c.6-.3,1.1-.1,1.1.5a2.344,2.344,0,0,1-1.1,1.8l-37.2,21.5c-.6.3-1.1.1-1.1-.5A1.992,1.992,0,0,1,121.9,194.6Z"/><path class="i" d="M121.9,200.2l37.2-21.5c.6-.3,1.1-.1,1.1.5a2.344,2.344,0,0,1-1.1,1.8l-37.2,21.5c-.6.3-1.1.1-1.1-.5A2.107,2.107,0,0,1,121.9,200.2Z"/><path class="i" d="M122.2,177.2,139.9,167c.6-.3,1.1-.1,1.1.5a2.344,2.344,0,0,1-1.1,1.8l-17.7,10.2c-.6.3-1.1.1-1.1-.5A2.28,2.28,0,0,1,122.2,177.2Z"/><path class="i" d="M121.9,206.6l165.4-96.1c.6-.3,1.1-.1,1.1.5a2.344,2.344,0,0,1-1.1,1.8L121.9,208.9c-.6.3-1.1.1-1.1-.5A1.992,1.992,0,0,1,121.9,206.6Z"/><path class="i" d="M121.9,212l165.4-96.1c.6-.3,1.1-.1,1.1.5a2.344,2.344,0,0,1-1.1,1.8L121.9,214.3c-.6.3-1.1.1-1.1-.5A1.992,1.992,0,0,1,121.9,212Z"/><path class="i" d="M121.9,217l165.4-96c.6-.3,1.1-.1,1.1.5a2.344,2.344,0,0,1-1.1,1.8L121.9,219.4c-.6.3-1.1.1-1.1-.5A2.036,2.036,0,0,1,121.9,217Z"/><path class="i" d="M121.9,222.9l165.4-96.1c.6-.3,1.1-.1,1.1.5a2.344,2.344,0,0,1-1.1,1.8L121.9,225.2c-.6.3-1.1.1-1.1-.5A1.992,1.992,0,0,1,121.9,222.9Z"/><path class="m" d="M158.4,260.7l114.2-65.9c.6-.3,1.1-.1,1.1.5a2.344,2.344,0,0,1-1.1,1.8L158.4,263c-.6.3-1.1.1-1.1-.5A2.653,2.653,0,0,1,158.4,260.7Z"/><path class="m" d="M158.4,266.4l98.9-57.2c.6-.3,1.1-.1,1.1.5a2.344,2.344,0,0,1-1.1,1.8l-98.9,57.1c-.6.3-1.1.1-1.1-.5A2.454,2.454,0,0,1,158.4,266.4Z"/><path class="r" d="M143.1,157.6v14.1a1.122,1.122,0,0,0,1.7,1l14.3-8.7a1.1,1.1,0,0,0,.6-1V149a1.122,1.122,0,0,0-1.7-1l-14.3,8.6A1.054,1.054,0,0,0,143.1,157.6Z"/><path class="r" d="M163.8,145.9v29.7c0,.9.2,1.9,1,1.5l122-71.4a1.1,1.1,0,0,0,.6-1V75.1c0-.9.1-2-.7-1.5L164.5,145A.856.856,0,0,0,163.8,145.9Z"/><path class="b" d="M124.5,320.7,299.1,219.9c1.2-.7,2.1-.1,2.1,1.2v36.4a4.877,4.877,0,0,1-2.1,3.7L124.5,362c-1.2.7-2.1.1-2.1-1.2V324.4A4.877,4.877,0,0,1,124.5,320.7Z"/><path class="m" d="M124.5,320.7,299.1,219.9c1.2-.7,2.1-.1,2.1,1.2v36.4a4.877,4.877,0,0,1-2.1,3.7L124.5,362c-1.2.7-2.1.1-2.1-1.2V324.4A4.877,4.877,0,0,1,124.5,320.7Z"/><path class="g" d="M133.9,350.7a.55.55,0,0,1-.3.5c0,.1.1.2.1.3a.675.675,0,0,1-.4.6l-1.8,1.1v-2.4h0a8.93,8.93,0,0,0,.5-1.3v-.9a.365.365,0,0,1,.5-.2h0a.1.1,0,0,1,.1.1c.1.1.1.2.1.4v.7l1.1-.6c.1-.1.2-.1.2,0,.1.1.1.1.1.2,0,.2-.1.3-.2.5,0,0,.2-.1.2.2a.55.55,0,0,1-.3.5C133.9,350.4,133.9,350.5,133.9,350.7Z"/><path class="g" d="M131.2,353v.5c0,.1,0,.1-.1.2l-.6.3h-.1v-2.7l.5-.3h0l.3-.2V353Z"/><path class="g" d="M137.3,346.7l12.3-7.1c.6-.3,1.1-.1,1.1.5a2.344,2.344,0,0,1-1.1,1.8l-12.3,7c-.6.3-1.1.1-1.1-.5A2.454,2.454,0,0,1,137.3,346.7Z"/><path class="g" d="M200,310.2l12.3-7c.6-.3,1.1-.1,1.1.5a2.344,2.344,0,0,1-1.1,1.8L200,312.6c-.6.3-1.1.1-1.1-.5A2.144,2.144,0,0,1,200,310.2Z"/><path class="g" d="M195.6,312.5c0-.4-.3-.6-.6-.4l-3.8,2.2a1.255,1.255,0,0,0-.6,1.1V318c0,.4.3.6.6.4l1.1-.6v.9c0,.1.1.1.1,0l1.6-1.9,1.1-.6a1.255,1.255,0,0,0,.6-1.1Z"/><path class="g" d="M276,266.5l12.3-7c.6-.3,1.1-.1,1.1.5a2.344,2.344,0,0,1-1.1,1.8L276,268.9c-.6.3-1.1.1-1.1-.5A2.472,2.472,0,0,1,276,266.5Z"/><path class="g" d="M272.1,269.9l-3-.9v1.6a6.982,6.982,0,0,0-3,2.4c-1.6,2.5-.5,3.9.1,4,0,0-.9-.6.1-2.4a5.381,5.381,0,0,1,2.8-2.1v1.8Z"/><path class="c" d="M148.1,323.5a23.2,23.2,0,0,1-4.9,13.3.1.1,0,0,1-.1.1c-.4.5-.7.9-1.1,1.4a18.883,18.883,0,0,1-2,2,10.628,10.628,0,0,0-1.1.9,9.91,9.91,0,0,1-1.7,1.1,9.64,9.64,0,0,1-4.6,1.5h-.2a2.768,2.768,0,0,1-.9-.1,5.062,5.062,0,0,1-3.2-1.7l-.1-.1a8.466,8.466,0,0,1-1.8-5.9c0-6.9,4.9-15.4,10.9-18.8S148.1,316.6,148.1,323.5Z"/><path class="f" d="M148.1,323.5a23.2,23.2,0,0,1-4.9,13.3.1.1,0,0,1-.1.1c-.4.5-.7.9-1.1,1.4a18.883,18.883,0,0,1-2,2,10.628,10.628,0,0,0-1.1.9,9.91,9.91,0,0,1-1.7,1.1,9.64,9.64,0,0,1-4.6,1.5h-.2a2.768,2.768,0,0,1-.9-.1,5.062,5.062,0,0,1-3.2-1.7l-.1-.1a8.466,8.466,0,0,1-1.8-5.9c0-6.9,4.9-15.4,10.9-18.8S148.1,316.6,148.1,323.5Z"/><path class="o" d="M139,335.9h0l-.2.1c-1,1-1.1,1.9-.6,3.4.2.6.4,1.2.6,1.7a10.628,10.628,0,0,0,1.1-.9,18.883,18.883,0,0,0,2-2,13.445,13.445,0,0,0,1.1-1.4C142.3,335.8,141,335.6,139,335.9Z"/><path class="i" d="M143.2,336.8h0c-.4.6-.8,1-1.2,1.5a18.883,18.883,0,0,1-2,2l-.4-1.5-.6-2.4-.1-.4h.1a6.162,6.162,0,0,1,2.7-.1A2.371,2.371,0,0,1,143.2,336.8Z"/><path class="j" d="M134.1,335.1c-.8,0-3.6-2.3-3.6-5.9a13.554,13.554,0,0,1,.2-2,6.982,6.982,0,0,1,.8-2,13.3,13.3,0,0,1,1.4-1.9,18.5,18.5,0,0,1,3.7-2.5,6.31,6.31,0,0,1,2.3-.8,3.153,3.153,0,0,1,2.3.5,1.991,1.991,0,0,1,.8,1.2,2.845,2.845,0,0,1,0,1.3,1.612,1.612,0,0,1,.7.4,2.01,2.01,0,0,1,.4.8,2.41,2.41,0,0,1-.7,1.8,2.624,2.624,0,0,1-.4,2.8c-.8.8-2,1.1-2.8,1.9a6.983,6.983,0,0,0-1.3,2.4c-.3.7-.8,1.7-1.7,1.8a6.6,6.6,0,0,1-1.4.1Z"/><path class="c" d="M142,338.2a18.883,18.883,0,0,1-2,2,10.628,10.628,0,0,0-1.1.9,9.91,9.91,0,0,1-1.7,1.1,9.64,9.64,0,0,1-4.6,1.5h-.2a2.768,2.768,0,0,1-.9-.1c.5-1.6.8-3.8-.7-5.4h0a33.567,33.567,0,0,1,4.3-1.8l3.7-.6h.2A9.32,9.32,0,0,1,142,338.2Z"/><path class="o" d="M140.3,323.1c.7.3,1.5,2,1.4,6-.1,3.4-1,4.5-1.5,4.8a3.718,3.718,0,0,1-2.3.5V336a4.63,4.63,0,0,1,1.2,2.3c0,1-1.8,1.6-2.9,1a7.009,7.009,0,0,1-2.1-2.1V333a.948.948,0,0,1-1.3.2l-.1-.1a1.776,1.776,0,0,1-.4-2.5c.6-.8,1.6-.9,2-.1a5.871,5.871,0,0,1,2.6-3A7.521,7.521,0,0,0,140.3,323.1Z"/><path class="j" d="M138.5,329.1a.713.713,0,0,1-.3.6c-.2.1-.3,0-.4-.2v-.1c0-.2.1-.5.4-.5C138.3,328.7,138.4,328.8,138.5,329.1Z"/><path class="p" d="M138.3,331.7l1.4.1a1.063,1.063,0,0,1-.9.8C138.4,332.6,138.2,332.2,138.3,331.7Z"/><path class="j" d="M141.5,327l-.7-.4a.446.446,0,0,1,.6-.3C141.6,326.4,141.6,326.8,141.5,327Z"/><path class="j" d="M137.4,328.4l.7-.8c-.1-.2-.4-.2-.6,0A.605.605,0,0,0,137.4,328.4Z"/><path class="j" d="M141.3,328c0,.2-.1.5-.3.5-.2.1-.3,0-.4-.2v-.1c0-.2.1-.5.4-.5C141.1,327.6,141.3,327.8,141.3,328Z"/><path class="q" d="M139.6,328.2v2.6l1.2-.7Z"/><path class="q" d="M137.9,334.4c-.9.1-2.9,0-3.2-.8a1.272,1.272,0,0,0,.7.9,6.963,6.963,0,0,0,2.5.5Z"/><path class="o" d="M132.4,343.8a2.768,2.768,0,0,1-.9-.1,5.062,5.062,0,0,1-3.2-1.7,8.417,8.417,0,0,1,2.5-3.7h0c1.2.1,1.6,1.8,1.7,2.7A12.892,12.892,0,0,1,132.4,343.8Z"/><path class="i" d="M132.6,343.8h-.2a2.768,2.768,0,0,1-.9-.1,5.062,5.062,0,0,1-3.2-1.7l-.1-.1c0-.1.1-.2.1-.3a6.255,6.255,0,0,1,2.5-3.3h0c.1-.1.3-.1.4-.2C133,339.1,133,341.9,132.6,343.8Z"/><path class="q" d="M138.8,332.7a.367.367,0,0,0,.3-.1.669.669,0,0,0-.7-.6h-.2a.73.73,0,0,0,.6.7Z"/><path class="f" d="M287.2,231.6,160.3,304.7a4.364,4.364,0,0,0-2.1,3.7v8.9a9.654,9.654,0,0,1-6.1,7.3c-.1,0-.2.2-.2.3s.1.1.2.2a9.625,9.625,0,0,0,6-.8v2.1c0,1.4,1,1.9,2.1,1.2L287,254.5a4.364,4.364,0,0,0,2.1-3.7V232.7C289.3,231.4,288.4,230.9,287.2,231.6Z"/><path class="a" d="M163.2,307.7l17.7-10.2c.6-.3,1.1-.1,1.1.5a2.344,2.344,0,0,1-1.1,1.8L163.2,310c-.6.3-1.1.1-1.1-.5A2.453,2.453,0,0,1,163.2,307.7Z"/><path class="a" d="M167.2,311l114.1-66c.6-.3,1.1-.1,1.1.5a2.344,2.344,0,0,1-1.1,1.8L167.1,313.2c-.6.3-1.1.1-1.1-.5A2.691,2.691,0,0,1,167.2,311Z"/><path class="a" d="M167.2,316.6l98.9-57.2c.6-.3,1.1-.1,1.1.5a2.344,2.344,0,0,1-1.1,1.8l-98.9,57.1c-.6.3-1.1.1-1.1-.5A2.454,2.454,0,0,1,167.2,316.6Z"/><path class="j" d="M273.5,432.2c.7.3.8,1.5.8,4,0,1.9.4,5.2-1.9,5.8s-5.5.2-6.8-1.6a80.9,80.9,0,0,0-5.3-7c-2.1-2.4-4.5-4.6-5.3-8-.7-3,0-4.3,2-5.1,2.8-1.1,7.1,2.9,9.3,3.5C268.3,424.5,272.9,432,273.5,432.2Z"/><path class="o" d="M273.6,430l-.1,3.1a7.768,7.768,0,0,1-7.8,0c-.1-.3-.7-4.4-.7-4.4Z"/><path class="j" d="M248.3,449.4a40.5,40.5,0,0,1,1.2,5c.3,1.9.8,5,.1,6.4s-3.2,2.2-7.1,2.1c-2.5-.1-6.5,1.6-9.3,3s-8.7,2-11.6,1.6c-3.5-.5-7.1-2.6-7.6-4s.3-3,8.6-6.3c.1,0,11.5-3.5,15.6-7.8Z"/><path class="o" d="M248.4,446s-.1,2.3-.1,3.6-1.6,3.2-5.6,3c-2.8-.2-4.7-1-4.6-3.3l.1-3.3Z"/><path class="g" d="M276.5,389.3a82.227,82.227,0,0,0-3.3-16.1s1.4-13.8,2.2-26.8c.9-14.1.7-31.9,1-35.4,0,0-45.3-10.2-46.5,6s.5,57.9.9,65.1,1.5,13.5,2.7,25.2c1.2,11.5,4.7,38.7,4.7,38.7a10.638,10.638,0,0,0,10.1,0s3.9-32.5,3.8-40.8a69.554,69.554,0,0,0-2.7-18.1s1.2-13.4,2.2-25.1,2-17.3,2.3-22.4l1-.5s.5,20.2.9,27.4,1.4,14.1,3.1,27.4c1.5,11.6,6.4,36.1,6.4,36.1,5.1,2.9,8.3-.2,8.3-.2S277.7,399.3,276.5,389.3Z"/><path class="j" d="M253.9,339.6s11.2-5.2,16.8-10c0,0-5.3,7.1-12.1,10.2,0,0-3,25-2.9,24.5l-.9-24.7Z"/><path class="o" d="M246.1,246.6l2.4,14.9,13.4-.7-1.5-17.4Z"/><path class="c" d="M264.7,252.3s7.4-2.6,11.3,4.1c4,6.7.7,18.4.7,18.4Z"/><path class="s" d="M276.1,260.1c-1.2-4.1-6.3-8.6-11.4-7.7-1.2.2-2.4.4-3.5.6-.6,2.5-7,4.5-13.6,2.9-2,.5-3.8,1.1-5.4,1.6-4.7,1.6-9.1,5.5-9.8,20.9,0,0-2.4,35.9-2.6,42.9,11.7,4.9,23.9,5,30.7,3.7,14.1-2.8,16-8.6,16-8.6s.8-25.8.6-37C276.9,269.9,276.9,262.8,276.1,260.1Z"/><path class="g" d="M203.7,235.5l-28,14.6,13.9,38,26.1-14.6Z"/><path class="a" d="M202.4,239.2l-23.5,12.3,12.3,32.6,21.9-12.2Z"/><path class="t" d="M197.4,242.8l-.5-1.2c-.3-.6-2.2-.3-4.4.9l-4.1,2.1c-2.2,1.1-3.7,2.5-3.5,3.2l.5,1.2Z"/><path class="g" d="M197,238.1c-.2-.4-1-.3-1.9.1l-1.6.9s-1-2.5-4.7-.8-2.9,4.6-2.9,4.6l-1.7.9c-1,.5-1.6,1.3-1.5,1.7l.2.7,14.4-7.5Z"/><path class="j" d="M195.4,239.8c-1.3.7-1.9,1-1.5,2a18.887,18.887,0,0,0,.9,1.9l-6.4,3.3s-.5-1.4-.8-2-.7-.8-1.7-.3l-.4-.4,10-5.1Z"/><path class="g" d="M197.7,242.8l-.5-1.2c-.3-.6-2.2-.3-4.4.9l-4.1,2.1c-2.2,1.1-3.7,2.5-3.5,3.2l.5,1.2Z"/><path class="j" d="M231.6,289.2s6.9-8.4,8.7-14.5a36.911,36.911,0,0,1-8.9,17.6Z"/><path class="o" d="M241.4,257.7c-5.4,1.6-8.6,1.9-14.5,11s-19.3,26.1-20.6,28.2c-1.8,3-2.1,7.6-.6,10.4,1.4,2.6,4.9,1.1,10.8-4.1,5.7-5,17.6-18.7,17.6-18.7A95.1,95.1,0,0,0,241.4,257.7Z"/><path class="c" d="M241.4,257.7a49.206,49.206,0,0,0-7.7,2.4,13.749,13.749,0,0,0-6.6,4.5c-4.8,6.4-11.8,19.4-11.8,19.4s1.6,7.6,12,10.6c0,0,10-12,11.4-15C240.8,274.6,243,265.8,241.4,257.7Z"/><path class="o" d="M207.5,308.6c-5-.6-15.6-15.6-18.9-20.7a37.411,37.411,0,0,0-10-10.6c-5.2-3.9-4.5-9.8-2.2-15.3.8-1.9,3.5-.7,3.5-.7l1,2.6,1.6,4.5c1.1,1,1.7,1.4,1.8,1.1.1-.6-.8-3-.8-5.5,0-3,2.1-1,2.8,0a31.648,31.648,0,0,1,2.2,5c1.1,2.7.6,5.4,1.9,7.3s18.5,18.4,18.5,18.4Z"/><path class="q" d="M236.2,228.3s-3.5,5.3-3.1,5.9,3,1,3,1Z"/><path class="j" d="M237.9,231.8a4.2,4.2,0,1,1,4.2-4.2h0A4.292,4.292,0,0,1,237.9,231.8Zm0-7.5a3.3,3.3,0,1,0,3.3,3.3,3.329,3.329,0,0,0-3.3-3.3Z"/><path class="o" d="M246,213.6c-7.1,1.5-9.2,4.6-9.9,15.9-.7,11.8.5,15.5,2.1,17.1,1,1.1,6.9,1.3,9.8.4,3.7-1,12-4,15.9-9.9,4.6-7,5.8-16.5.9-20.4C257.9,211.3,248.9,213,246,213.6Z"/><path class="j" d="M234.1,226.7l12.6,1.6-.5.9-12.1-1.6Z"/><path class="j" d="M235.3,217.3l.2.2c1.4,1.3,3.1,2.1,4.5,3.4a9.9,9.9,0,0,1,3.2,5.1c.5,1.6.6,3.6,2.4,4.3,0,0,1.1-4.4,4.8-3.8s4.2,5.3,1.9,8.1-4.5,1.8-4.5,1.8.1,6.3,2.9,9.8c0,0,3.1,1,8.9-.2,3.6-.8,8.6-5.2,10.7-9.9,4.5-10,4.8-18.9-1.6-21.6-.7-4.6-4.3-6.6-8.4-7.6-6.2-1.4-11.9,2.3-18,.9-1.3-.3-2.5-.7-3.8-.9h-.4a.765.765,0,0,0-.2.9,7.151,7.151,0,0,0,1.8,3.3,20.171,20.171,0,0,1-6.9-.9A9.31,9.31,0,0,0,235.3,217.3Z"/><path class="j" d="M269,216l4.3-2.5A2.487,2.487,0,1,0,269,216Z"/><path class="j" d="M245.7,232.8l.1-5a2.616,2.616,0,0,0-2.6,2.4,2.559,2.559,0,0,0,2.5,2.6Z"/><path class="b" d="M364.2,191.3l-.1-3.4-4-2.3h0a1.5,1.5,0,0,0-1.3.1L303,218a4.047,4.047,0,0,0-1.8,3.1v71a1.845,1.845,0,0,0,.5,1.2h0l4,2.3v-4L358.9,261a4.047,4.047,0,0,0,1.8-3.1V191.3Z"/><path class="l" d="M364.2,187.9l-4-2.3h0a1.5,1.5,0,0,0-1.3.1L303,218a3.447,3.447,0,0,0-1.2,1.2l5.7,3.3,53.1-30Z"/><path class="m" d="M307.1,220.2,363,187.9c1-.6,1.8-.1,1.8,1V260a3.892,3.892,0,0,1-1.8,3.1l-55.9,32.2c-1,.6-1.8.1-1.8-1v-71A3.786,3.786,0,0,1,307.1,220.2Z"/><g class="u"><path class="v" d="M343.7,241.7l-1.3,12,6.9-.7.7-14Z"/><path class="o" d="M351.5,291.6c-6.7-29.5-14.8-34.9-7.6-41,8.4-1.3,11.6,1.3,12.9,10,.6,4.2,2,21.9,3.7,28.5,1.5,5.8,3.5,13,5.8,17.2a2.585,2.585,0,0,0,1.9,1.3c2.1.3,2.7,1.5,4.4,2.3,1.3.7,2.3.5,2.3,1a2.549,2.549,0,0,1-2.1,2.1,7.067,7.067,0,0,1-2.5-.2,13.416,13.416,0,0,0,3.7,3.4c3.3,2.1,3.8,4.2-1.4,7-3.3,1.7-6.3.9-10.4-5.8a56.824,56.824,0,0,1-4.1-7.7C355.1,302.5,352.5,296.3,351.5,291.6Z"/><path class="j" d="M343.8,250.5s4.3-1.3,7.5,0,5.8,3.1,6.6,15.6l-6.5,3.7Z"/><path class="g" d="M341.7,246.1a13.637,13.637,0,0,1-17-9.1,13.2,13.2,0,0,1-.6-3.9h0c0-9.7,6.8-19.3,15.2-21.6l1.2-.3c8.4-2.3,15.2,3.8,15.2,13.5v2.7a19.591,19.591,0,0,1-14,18.7Z"/><path class="g" d="M333.7,253.6s-9.2,2.2-10.3,3c6.6,7.1,1.2,22.2,1.2,22.2l3.7,12.9a74.014,74.014,0,0,0-7.6,17.3c-2.2,7.3-3.6,12.8-5.3,34.8,8.7,6.9,37.8-.6,45.2-13.8,0,0-2.3-14.4-5.2-27.8-2.2-9.8-4.3-15.1-3.8-18.6,3.9-14.9,4.2-18.6,3.5-21.5-1.9-8.2-9.6-12-11.5-11.5Z"/><path class="o" d="M349.8,216.5c1.7.7,3.7,5,3.5,15.1-.2,8.6-2.6,11.4-3.8,12.3s-3.5,1.2-5.8,1.4v5.1s3.1,3.4,2.9,5.8-4.5,4.1-7.5,2.6c-2.9-1.5-5.4-5.4-5.4-5.4V241.5s-1.3,1.9-3.6.2a4.839,4.839,0,0,1-1-6.5c1.5-2.1,4.1-2.4,5.2-.2a15.5,15.5,0,0,1,6.5-7.8C345.5,224.4,348.1,221.7,349.8,216.5Z"/><path class="j" d="M345,231.8a1.416,1.416,0,0,1-.9,1.4.758.758,0,0,1-1-.8,1.416,1.416,0,0,1,.9-1.4C344.5,230.8,344.9,231.1,345,231.8Z"/><path class="q" d="M345.2,239l2.2.2a1.594,1.594,0,0,1-1.4,1.3A1.233,1.233,0,0,1,345.2,239Z"/><path class="j" d="M352.6,226.4l-1.9-1a1.226,1.226,0,0,1,1.6-.8A1.28,1.28,0,0,1,352.6,226.4Z"/><path class="j" d="M342.3,230l1.9-2c-.3-.5-1-.5-1.6.1A1.49,1.49,0,0,0,342.3,230Z"/><path class="j" d="M352.2,229a1.416,1.416,0,0,1-.9,1.4.758.758,0,0,1-1-.8,1.416,1.416,0,0,1,.9-1.4A.8.8,0,0,1,352.2,229Z"/><path class="q" d="M347.8,229.6l.1,6.5,3-1.9Z"/><path class="q" d="M343.7,245.4c-2.4.3-7.3,0-8.1-2.1a4.63,4.63,0,0,0,1.7,2.4c1.5,1.1,6.3,1.4,6.3,1.4Z"/><path class="o" d="M307.6,302.7c5.7-28.4,9.6-41.8,15.9-46.1,3.1.3,4.1,4.5,4.4,6.8a26.712,26.712,0,0,1-3.2,15.4s-7.8,19-9.1,26.6c-1.2,6.6-2.5,14.9-2.4,20.3a3.583,3.583,0,0,0,.9,2.4c1.5,1.5,1.5,3,2.5,4.9.8,1.4,1.6,1.8,1.4,2.3a1.986,1.986,0,0,1-2.5.9,5.806,5.806,0,0,1-1.9-1.6,16.7,16.7,0,0,0,1.5,5.4c1.7,4,1.3,6.3-3.9,6.2-3.2-.1-5.3-2.7-5.8-11.6a83.21,83.21,0,0,1-.1-10C306,315.7,306.5,308.1,307.6,302.7Z"/><path class="j" d="M324.5,256.2c-2.5.9-5,3.4-7.4,8.9s-5.2,16.8-5.2,16.8,5,5.3,10.5,3.7c0,0,4.3-8.9,5.4-13.6C328.9,267.2,329.8,258.9,324.5,256.2Z"/><path class="j" d="M346.2,210.8s-13.4,5.5-11.9,25.4,9.3,14.2,9.3,14.2,3.6-.9,5.4-.5,3.4,9.4-2.1,11.6c-6,2.4-12.7,2.5-19.1-6.6S319.1,208.6,346.2,210.8Z"/></g><path class="b" d="M364.2,275.7l-.1-3.4-4-2.3h0a1.5,1.5,0,0,0-1.3.1L303,302.4a4.047,4.047,0,0,0-1.8,3.1v16.6a1.845,1.845,0,0,0,.5,1.2h0l4,2.3v-4L358.9,291a4.047,4.047,0,0,0,1.8-3.1V275.7Z"/><path class="l" d="M364.2,272.3l-4-2.3h0a1.5,1.5,0,0,0-1.3.1L303,302.4a3.447,3.447,0,0,0-1.2,1.2l5.7,3.3,53.1-30Z"/><path class="m" d="M307.1,304.7,363,272.4c1-.6,1.8-.1,1.8,1v16.7a3.892,3.892,0,0,1-1.8,3.1l-55.9,32.2c-1,.6-1.8.1-1.8-1V307.7A3.621,3.621,0,0,1,307.1,304.7Z"/><path class="f" d="M312.3,306.2l1,2.2c.1.1.2.2.3.1h0l2.3-.9c.4-.1.5.4.2.9l-1.6,3.1a1.268,1.268,0,0,0-.1.6l.4,2.8c.1.4-.3,1-.6,1l-2-.3a.52.52,0,0,0-.4.2l-2,2.6c-.3.4-.7.3-.6-.2l.4-3.2c0-.2,0-.3-.1-.4l-1.6-1.2c-.3-.2-.1-.9.2-1.2l2.3-1.8a.55.55,0,0,0,.3-.5l1-3.3C311.7,306.1,312.2,305.9,312.3,306.2Z"/><path class="f" d="M323.8,299.6l1,2.2a.192.192,0,0,0,.3.1h0l2.3-.9c.4-.1.5.4.2.9L326,305a1.268,1.268,0,0,0-.1.6l.4,2.8c0,.4-.3,1-.6,1l-2-.2a.52.52,0,0,0-.4.2l-2,2.6c-.3.4-.7.3-.6-.3l.4-3.2c0-.2,0-.3-.1-.4l-1.6-1.2c-.3-.2-.1-.9.2-1.2l2.3-1.8a.55.55,0,0,0,.3-.5l1-3.3C323.2,299.6,323.7,299.3,323.8,299.6Z"/><path class="f" d="M335.3,293.1l1,2.2a.192.192,0,0,0,.3.1h0l2.3-.9c.4-.1.5.4.2.9l-1.6,3.1a1.268,1.268,0,0,0-.1.6l.4,2.8c.1.4-.3,1-.6,1l-2-.3a.52.52,0,0,0-.4.2l-2,2.6c-.3.4-.7.3-.6-.3l.4-3.2c0-.2,0-.3-.1-.4l-1.6-1.2c-.3-.2-.1-.9.2-1.2l2.3-1.8a.55.55,0,0,0,.3-.5l1-3.3C334.7,293,335.2,292.7,335.3,293.1Z"/><path class="f" d="M346.8,286.5l1,2.2c.1.1.2.2.3.1h0l2.3-.9c.4-.1.5.4.3.9l-1.6,3.1a1.268,1.268,0,0,0-.1.6l.4,2.8c0,.4-.3,1-.6,1l-2-.3a.52.52,0,0,0-.4.2l-2,2.6c-.3.4-.7.3-.6-.2l.4-3.2c0-.2,0-.3-.1-.4l-1.6-1.2c-.3-.2-.1-.9.3-1.2l2.3-1.8a.55.55,0,0,0,.3-.5l1-3.3C346.2,286.4,346.7,286.1,346.8,286.5Z"/><path class="b" d="M346.7,295.9l2,.3c.3,0,.7-.5.6-1l-.4-2.8a1.268,1.268,0,0,1,.1-.6l1.6-3.1c.3-.5.1-1-.3-.9l-2.3.9a.192.192,0,0,1-.3-.1h0l-1-2.2c-.1-.2-.2-.2-.4-.1v9.6C346.5,296,346.6,295.9,346.7,295.9Z"/><path class="b" d="M358.3,279.9l1,2.2a.192.192,0,0,0,.3.1h0l2.3-.9c.4-.1.5.4.2.9l-1.6,3.1a1.268,1.268,0,0,0-.1.6l.4,2.8c.1.4-.3,1-.6,1l-2-.2a.52.52,0,0,0-.4.2l-2,2.6c-.3.4-.7.3-.6-.3l.4-3.2c0-.2,0-.3-.1-.4l-1.6-1.2c-.3-.2-.1-.9.2-1.2l2.3-1.8a.55.55,0,0,0,.3-.5l1-3.3C357.8,279.8,358.2,279.5,358.3,279.9Z"/><path class="b" d="M364.2,70.1l-.1-3.4-4-2.3h0a1.5,1.5,0,0,0-1.3.1L303,96.8a4.047,4.047,0,0,0-1.8,3.1v71a1.457,1.457,0,0,0,.5,1.2h0l4,2.3v-4l53.2-30.6a3.786,3.786,0,0,0,1.8-3.1V70.1Z"/><path class="l" d="M364.2,66.7l-4-2.3h0a1.5,1.5,0,0,0-1.3.1L303,96.8a3.447,3.447,0,0,0-1.2,1.2l5.7,3.3,53.1-30Z"/><path class="m" d="M307.1,99.1,363,66.8c1-.6,1.8-.1,1.8,1v71.1A3.892,3.892,0,0,1,363,142l-55.9,32.2c-1,.6-1.8.1-1.8-1v-71A3.654,3.654,0,0,1,307.1,99.1Z"/><g class="w"><path class="o" d="M346,129.1s4.4-1.4,8.1,4.4c2.5,3.9,11.2,18.8,11.2,18.8s16.9-9,17.9-10.1.9-3.5,1-4.8a12.489,12.489,0,0,0-.7-4.7c-.2-1.3,1.7-1.4,2.7.4.7,1.4.8,2.9,1.4,2.9a23.126,23.126,0,0,0,2.4-2c1-1.2,2.9-3.1,4.4-2.8a1.285,1.285,0,0,1,1,1,5.932,5.932,0,0,0,.5,2.3l.6.9v1.5c0,.7.7,1,.8,1.7a8.752,8.752,0,0,1-.2,1.6c0,.3.1.6.1,1a3.379,3.379,0,0,1-.9,1.9,18.345,18.345,0,0,1-5,4.2c-1.5,1-3.6,1.9-5.3,2.8-1.8.9-21.7,16.2-24.3,14.4s-15.9-21.2-15.9-21.2C342.6,134.8,346,129.1,346,129.1Z"/><path class="f" d="M338.3,129.2s4.8-2,8-1.8c3.1.2,5.5,1.2,7.8,4.8,3.1,4.9,8.2,13.5,8.2,13.5a25.3,25.3,0,0,1-9.9,10.6L343,142.2Z"/><path class="f" d="M338.3,129.2s4.8-2,8-1.8c3.1.2,5.5,1.2,7.8,4.8,3.1,4.9,8.2,13.5,8.2,13.5a25.3,25.3,0,0,1-9.9,10.6L343,142.2Z"/><path class="i" d="M323,137.8a11.685,11.685,0,0,0-3.5,5,23.206,23.206,0,0,0-1,7.4v16.1l-.2,30.4c10.2,3.5,23.2.4,34-11.7,0,0-.6-38.9-.6-45.3v-.9c-.4-9-8.2-13.2-15.8-8.9l-6.4,3.6-6.5,4.3Z"/><path class="j" d="M330,104.7c0,6.9,4.8,11.1,10.7,9.5s10.7-8.4,10.7-15.3-5.1-6.9-11.1-5.3C334.5,95.3,330,97.9,330,104.7Z"/><path class="j" d="M324.4,115.6s1.6,8.2,2.2,9.4a2.585,2.585,0,0,0,1.9,1.3l-.1-6Z"/><path class="j" d="M326.3,102.7a4.306,4.306,0,0,0-3,2c-1.3,1.9-.6,6.5,1,10.8l3-.4Z"/><path class="x" d="M328.2,114.9c-.6.6-1.5-.5-2.2-1.2s-3.1-1.3-4.4,2c-1.2,3.2,1.1,6.6,3,6.8,3.3.3,3.8-2.3,3.8-2.3l.1,14c5.5,5.8,15.1-1,10.8-3.6v-4.1a16.4,16.4,0,0,0,4.4-.9c2.4-1.1,3.9-3.7,4.6-6.9,1.2-5.1,1.6-9.1.6-18.4-1.1-10.1-11.5-7.4-17.2-1.8C326,104,328.2,114.9,328.2,114.9Z"/><path class="j" d="M328.2,116.1c-.3.1-1.5-1.8-2.2-2.4-1-.8.3-11,.3-11-1.2-2.6,1-6.6,3.3-8.2a13.1,13.1,0,0,1,5.4-2c1.6-.3,3.3-.5,4.9-.7a40.875,40.875,0,0,0,6-.7,15.164,15.164,0,0,0,4.7-2c.5-.3,1,0,.8.6a5.228,5.228,0,0,1-.6,1.6,15.568,15.568,0,0,1-1.6,2.8,28.484,28.484,0,0,1-2.3,2.6c-4.4,4.2-10,5.3-15,5.9-1.2.1-1.3,1.4-1.9,5C329.7,110.6,329.2,115.8,328.2,116.1Z"/><path class="j" d="M326.3,103.5l-3.6-1.3a2.464,2.464,0,0,1,2.7-1.8C326.4,100.7,326.9,102.2,326.3,103.5Z"/><path class="y" d="M339.3,126.4s-5.4.2-7.2-.5a4.53,4.53,0,0,1-2.6-2.3,8.924,8.924,0,0,0,1.5,3.1c1.3,1.7,8.4,1.3,8.4,1.3l-.1-1.6Z"/><path class="j" d="M338,110.8a1.714,1.714,0,0,1-1.1,1.6c-.6.2-1.1-.3-1.1-1a1.714,1.714,0,0,1,1.1-1.6A.926.926,0,0,1,338,110.8Z"/><path class="j" d="M336.3,106.1l-2.3,2.1a2.176,2.176,0,0,1,.5-2.3,1.087,1.087,0,0,1,1.5-.1Q336.15,105.8,336.3,106.1Z"/><path class="y" d="M338.8,119.1l2.5.4a1.721,1.721,0,0,1-1.7,1.4C338.9,120.8,338.6,120,338.8,119.1Z"/><path class="j" d="M347.9,104.1l-2.1-1.3c.4-.8,1.2-1.2,1.8-.8A1.664,1.664,0,0,1,347.9,104.1Z"/><path class="j" d="M346.9,108a1.714,1.714,0,0,1-1.1,1.6c-.6.2-1.1-.3-1.1-1a1.714,1.714,0,0,1,1.1-1.6A.926.926,0,0,1,346.9,108Z"/><path class="y" d="M341.6,108.4l.1,7.5,3.9-2Z"/><path class="x" d="M307.8,183.8c2.3-31,6.8-42.1,14.4-45.3,2.6,1.9,3.2,11,.5,18,0,0-5.9,20.6-6.2,27.6a107.534,107.534,0,0,0,1.2,19.6,2.47,2.47,0,0,0,1.2,1.9c1.6,1.1,1.5,2.6,2.7,4.1.9,1.2,1.8,1.4,1.6,1.8a2.026,2.026,0,0,1-2.3,1.2,5.639,5.639,0,0,1-2-1.1,19.155,19.155,0,0,0,2.1,4.6c2.1,3.3,2,5.5-3,6.2-3.2.5-5.5-1.5-7-9.4-.4-2.3-1.5-6.4-2-9.3A88.761,88.761,0,0,1,307.8,183.8Z"/><path class="f" d="M324.4,136.9s-5.5,1.9-8.3,6.4-5.4,11.7-7.3,24.6c0,0,3.5,4.7,12.5.8,0,0,4-16.4,4.3-22.9C326,138.8,324.4,136.9,324.4,136.9Z"/><path class="f" d="M324.4,136.9s-5.5,1.9-8.3,6.4-5.4,11.7-7.3,24.6c0,0,3.5,4.7,12.5.8,0,0,4-16.4,4.3-22.9C326,138.8,324.4,136.9,324.4,136.9Z"/></g><path class="b" d="M364.2,154.4l-.1-3.4-4-2.3h0a1.5,1.5,0,0,0-1.3.1L303,181.2a4.047,4.047,0,0,0-1.8,3.1v16.6a1.457,1.457,0,0,0,.5,1.2h0l4,2.3v-4l53.2-30.6a4.047,4.047,0,0,0,1.8-3.1V154.5h3.5Z"/><path class="l" d="M364.2,151.1l-4-2.3h0a1.5,1.5,0,0,0-1.3.1L303,181.2a3.447,3.447,0,0,0-1.2,1.2l5.7,3.3,53.1-30Z"/><path class="m" d="M307.1,183.4,363,151.1c1-.6,1.8-.1,1.8,1v16.7a3.892,3.892,0,0,1-1.8,3.1l-55.9,32.2c-1,.6-1.8.1-1.8-1V186.5A3.786,3.786,0,0,1,307.1,183.4Z"/><path class="f" d="M312.3,185l1,2.2c.1.1.2.2.3.1l2.3-.9c.4-.1.5.4.2.9l-1.6,3.1a1.268,1.268,0,0,0-.1.6l.4,2.8c.1.4-.3,1-.6,1l-2-.2a.52.52,0,0,0-.4.2l-2,2.6c-.3.4-.7.3-.6-.3l.4-3.2c0-.2,0-.3-.1-.4l-1.6-1.2c-.3-.2-.1-.9.2-1.2l2.3-1.8a.55.55,0,0,0,.3-.5l1-3.3C311.7,184.9,312.2,184.7,312.3,185Z"/><path class="f" d="M323.8,178.4l1,2.2a.192.192,0,0,0,.3.1h0l2.3-.9c.4-.1.5.4.2.9l-1.6,3.1a1.268,1.268,0,0,0-.1.6l.4,2.8c0,.4-.3,1-.6,1l-2-.3a.52.52,0,0,0-.4.2l-2,2.6c-.3.4-.7.3-.6-.3l.4-3.2c0-.2,0-.3-.1-.4l-1.6-1.2c-.3-.2-.1-.9.2-1.2l2.3-1.8a2.185,2.185,0,0,0,.3-.5l1-3.3C323.2,178.3,323.7,178.1,323.8,178.4Z"/><path class="f" d="M335.3,171.9l1,2.2c.1.1.2.2.3.1h0l2.3-.9c.4-.1.5.4.2.9l-1.6,3.1a1.268,1.268,0,0,0-.1.6l.4,2.8c.1.4-.3,1-.6,1l-2-.3a.52.52,0,0,0-.4.2l-2,2.6c-.3.4-.7.3-.6-.2l.4-3.2c0-.2,0-.3-.1-.4l-1.6-1.2c-.3-.2-.1-.9.2-1.2l2.3-1.8a.55.55,0,0,0,.3-.5l1-3.3C334.7,171.8,335.2,171.5,335.3,171.9Z"/><path class="b" d="M346.8,165.2l1,2.2a.192.192,0,0,0,.3.1h0l2.3-.9c.4-.1.5.4.3.9l-1.6,3.1a1.268,1.268,0,0,0-.1.6l.4,2.8c0,.4-.3,1-.6,1l-2-.2a.52.52,0,0,0-.4.2l-2.1,2.6c-.3.4-.7.3-.6-.3l.4-3.2c0-.2,0-.3-.1-.4l-1.6-1.2c-.3-.2-.1-.9.3-1.2l2.3-1.8a.55.55,0,0,0,.3-.5l1-3.3C346.2,165.2,346.7,164.9,346.8,165.2Z"/><path class="b" d="M358.3,158.7l1,2.2a.192.192,0,0,0,.3.1h0l2.3-.9c.4-.1.5.4.2.9l-1.6,3.1a1.268,1.268,0,0,0-.1.6l.4,2.8c.1.4-.3,1-.6,1l-2-.3a.52.52,0,0,0-.4.2l-2,2.6c-.3.4-.7.3-.6-.3l.4-3.2c0-.2,0-.3-.1-.4l-1.6-1.2c-.3-.2-.1-.9.2-1.2l2.3-1.8a.55.55,0,0,0,.3-.5l1-3.3C357.8,158.6,358.2,158.3,358.3,158.7Z"/></g></svg>