<svg xmlns="http://www.w3.org/2000/svg" width="496.028" height="356.39" viewBox="0 0 496.028 356.39"><defs><style>.a{fill:#f0f0f0;}.b{fill:#06826a;}.c{opacity:0.25;}.d{fill:#e0e0e0;}.e{fill:#ff3600;}.f,.n{opacity:0.2;}.g{fill:#fafafa;}.h{fill:#37474f;}.i{fill:#263238;}.j{fill:#455a64;}.k{fill:#f5f5f5;}.l{fill:#f28f8f;}.m{fill:#ffa8a7;}.n{fill:#1d1d1b;}.o{opacity:0.1;}.p,.r,.s,.t,.v,.z{fill:#fff;}.p{opacity:0.35;}.q{opacity:0.05;}.r{opacity:0.95;}.s{opacity:0.8;}.aa,.t{opacity:0.7;}.u{fill:#b16668;}.v,.y{opacity:0.4;}.w{opacity:0.15;}.x{opacity:0.3;}</style></defs><g transform="translate(-62.887 -82.46)"><path class="a" d="M125.7,406c83.8,43.8,219.6,43.8,303.4,0s83.8-114.7,0-158.5-219.6-43.8-303.4,0S42,362.3,125.7,406Z"/><path class="b" d="M491.3,281.8l37-19.8,15.2,6.2Z"/><path class="b" d="M491.3,281.8l32.5-23-6.2-8.4Z"/><path class="b" d="M523.8,258.8l-.5,5.9-32,17.1Z"/><path class="c" d="M523.8,258.8l-.5,5.9-32,17.1Z"/><path class="d" d="M531.2,255.9a.842.842,0,0,1-.7-.4,1.075,1.075,0,0,1,.2-1.4h0c.6-.5,1.3-1,1.9-1.5a.995.995,0,0,1,1.3,1.5c-.7.5-1.3,1.1-2,1.6A.844.844,0,0,1,531.2,255.9Z"/><path class="d" d="M536.9,251.1a.713.713,0,0,1-.6-.3.967.967,0,0,1,0-1.4c1.1-1.1,2.3-2.3,3.3-3.5a.992.992,0,1,1,1.5,1.3c-1.1,1.3-2.3,2.5-3.4,3.7A1.884,1.884,0,0,1,536.9,251.1Zm6.5-7.4a.764.764,0,0,1-.5-.2,1.075,1.075,0,0,1-.2-1.4h0c.9-1.3,1.9-2.6,2.7-4a.984.984,0,0,1,1.4-.3.974.974,0,0,1,.3,1.3c-.9,1.4-1.9,2.8-2.8,4.1a1.058,1.058,0,0,1-.9.5Zm5.2-8.3c-.1,0-.3-.1-.4-.1a1.012,1.012,0,0,1-.4-1.4h0c.8-1.4,1.5-2.9,2.2-4.4a.985.985,0,1,1,1.8.8c-.7,1.5-1.4,3-2.2,4.5a1.1,1.1,0,0,1-1,.6Zm4.1-9h-.3a1.04,1.04,0,0,1-.6-1.3h0c.6-1.5,1.1-3.1,1.6-4.6a1.044,1.044,0,0,1,2,.6h0c-.5,1.6-1,3.2-1.6,4.7a1.149,1.149,0,0,1-1.1.6Zm3-9.4h-.2a.949.949,0,0,1-.7-1.2h0c.4-1.6.7-3.2,1-4.8a1.02,1.02,0,1,1,2,.4h0c-.3,1.6-.6,3.3-1,4.9A1.357,1.357,0,0,1,555.7,217Zm1.7-9.8h0a.9.9,0,0,1-.9-1.1c.1-.8.1-1.5.2-2.3s.1-1.7.2-2.6a1,1,0,0,1,2,.2c-.1.9-.1,1.7-.2,2.6s-.1,1.6-.2,2.4c-.2.6-.6.9-1.1.8Zm.4-9.8a.987.987,0,0,1-.9-1,40.276,40.276,0,0,0-.3-4.9,1,1,0,0,1,2-.2,40.7,40.7,0,0,1,.3,5,.945.945,0,0,1-1,1h0Zm-.9-9.8a.882.882,0,0,1-.9-.8c-.3-1.6-.6-3.2-1-4.8a1.012,1.012,0,1,1,1.9-.7v.1c.4,1.6.7,3.2,1,4.9a.937.937,0,0,1-.8,1.1c-.1.2-.2.2-.2.2Zm-2.5-9.6a1.068,1.068,0,0,1-.9-.7,35.177,35.177,0,0,0-1.8-4.5.985.985,0,1,1,1.8-.8h0a37.981,37.981,0,0,1,1.8,4.7,1.04,1.04,0,0,1-.6,1.3Zm-4-9a1.02,1.02,0,0,1-.8-.5c-.8-1.4-1.6-2.8-2.5-4.2a.984.984,0,0,1,.3-1.4h0a.984.984,0,0,1,1.4.3c.9,1.4,1.8,2.8,2.7,4.3a1.012,1.012,0,0,1-.4,1.4c-.2,0-.4.1-.7.1Zm-5.5-8.2a1.012,1.012,0,0,1-.7-.4c-1-1.2-2.1-2.5-3.2-3.6a.99.99,0,0,1,1.4-1.4,39.021,39.021,0,0,1,3.3,3.8,1.063,1.063,0,0,1-.1,1.4A.618.618,0,0,1,544.9,160.8Zm-6.8-7.1a.864.864,0,0,1-.6-.3c-1.2-1.1-2.4-2.2-3.7-3.2a1.012,1.012,0,0,1,1.1-1.7.1.1,0,0,1,.1.1c1.3,1.1,2.6,2.2,3.8,3.3a1.071,1.071,0,0,1,.1,1.4.811.811,0,0,1-.8.4Zm-7.6-6.3a.764.764,0,0,1-.5-.2c-1.3-.9-2.7-1.9-4-2.8a1.075,1.075,0,0,1-.2-1.4,1.06,1.06,0,0,1,1.3-.3c1.4.9,2.8,1.9,4.1,2.8a1.075,1.075,0,0,1,.2,1.4A.76.76,0,0,1,530.5,147.4Zm-8.3-5.3c-.1,0-.3-.1-.4-.1-1.4-.8-2.9-1.6-4.3-2.3a.962.962,0,1,1,.9-1.7h0c1.5.8,2.9,1.6,4.4,2.4a1.107,1.107,0,0,1,.4,1.4,6.215,6.215,0,0,1-1,.3ZM421.7,131.7a.9.9,0,0,1-.9-1.1.948.948,0,0,1,.8-.9l4.8-1.2a1.044,1.044,0,1,1,.6,2h-.1c-1.6.4-3.2.8-4.7,1.2-.2-.1-.3,0-.5,0Zm91.8,5.9a.367.367,0,0,1-.3-.1c-1.5-.7-3-1.3-4.5-1.9a1.086,1.086,0,0,1-.7-1.2,1.028,1.028,0,0,1,1.2-.7c.1,0,.1,0,.2.1,1.6.6,3.1,1.3,4.6,2a1.145,1.145,0,0,1,.6,1.3A1.173,1.173,0,0,1,513.5,137.6Zm-82.1-8.2a1.088,1.088,0,0,1-1.1-.9c-.1-.5.4-1,.9-1.1,1.6-.3,3.2-.6,4.9-.9a1.013,1.013,0,0,1,.3,2l-4.8.9Zm72.9,4.5H504c-1.5-.5-3.1-1.1-4.6-1.6a1.146,1.146,0,0,1-.7-1.3c.1-.6.7-.8,1.3-.7,1.6.5,3.2,1,4.7,1.6a1.1,1.1,0,0,1,.8,1.2,1.037,1.037,0,0,1-1.2.8Zm-63.2-6.2a1,1,0,0,1,0-2h0c1.6-.2,3.3-.4,4.9-.6a1,1,0,0,1,.2,2c-1.6.2-3.2.4-4.9.6Zm53.8,3.2h-.2q-2.25-.6-4.8-1.2a.949.949,0,0,1-.7-1.2h0a.949.949,0,0,1,1.2-.7c1.6.4,3.3.8,4.8,1.2a1.037,1.037,0,0,1,.8,1.2c-.1.6-.5.8-1.1.7Zm-44-4.2a1,1,0,0,1-1-1,1.075,1.075,0,0,1,1-1c1.7-.1,3.3-.2,5-.2a1,1,0,0,1,0,2c-1.6.1-3.3.1-4.9.2Zm34.4,2h0c-1.7-.3-3.3-.6-4.9-.8a.991.991,0,0,1-.8-1.1h0a.991.991,0,0,1,1.1-.8h0c1.7.3,3.3.5,4.9.8a1.037,1.037,0,0,1,.8,1.2h0a1.008,1.008,0,0,1-1.1.7Zm-24.5-2.3a.987.987,0,0,1-.9-1,.945.945,0,0,1,1-1h0c1.7,0,3.3,0,5,.1a1,1,0,0,1-.2,2c-1.6,0-3.3-.1-4.9-.1Zm14.7.9h0c-1.4-.1-2.9-.3-4.3-.4h-.6a1,1,0,0,1,.2-2h.6c1.4.1,2.9.2,4.3.4a.9.9,0,0,1,.9,1.1c0,.5-.4.9-1.1.9Z"/><path class="d" d="M414.6,133.8a.9.9,0,0,1-.9-1.1,1.068,1.068,0,0,1,.7-.9l2.4-.8a.888.888,0,0,1,1.2.7h0a.888.888,0,0,1-.7,1.2h0l-2.4.7C414.8,133.8,414.7,133.8,414.6,133.8Z"/><path class="e" d="M126.3,140.8l47.6-18.9-35.6,28.8Z"/><path class="e" d="M173.9,121.9,122,134.5l-12-9.9Z"/><path class="e" d="M122,134.5l1,13,3.3-6.7,47.6-18.9Z"/><path class="c" d="M122,134.5l1,13,3.3-6.7,47.6-18.9Z"/><path class="e" d="M123,147.5l7.3-3.4-4-3.3Z"/><path class="c" d="M126.3,140.8l4,3.3-1.2.5Z"/><path class="d" d="M119.1,275.6a.367.367,0,0,1-.3-.1c-1.6-.7-3.1-1.4-4.6-2.1a.985.985,0,1,1,.8-1.8q2.1,1.05,4.5,2.1a.992.992,0,0,1,.5,1.3.875.875,0,0,1-.9.6Zm-9-4.4a.6.6,0,0,1-.4-.1c-1.5-.8-3-1.6-4.4-2.5a1.03,1.03,0,1,1,1-1.8c1.4.8,2.9,1.6,4.3,2.4a1.012,1.012,0,0,1,.4,1.4.875.875,0,0,1-.9.6Zm-8.6-5.1c-.2,0-.3-.1-.5-.2-1.4-.9-2.9-1.9-4.2-2.9a.967.967,0,0,1,0-1.4.937.937,0,0,1,1.1-.2c1.3,1,2.7,1.9,4.1,2.8a.984.984,0,0,1,.3,1.4.891.891,0,0,1-.8.5Zm-8.1-5.9a1.421,1.421,0,0,1-.6-.2c-1.3-1.1-2.6-2.2-3.8-3.3a1.061,1.061,0,0,1,1.5-1.5,40.1,40.1,0,0,0,3.8,3.2.972.972,0,0,1,.1,1.4,1.333,1.333,0,0,1-1,.4Zm-7.3-6.8a.713.713,0,0,1-.6-.3,39.023,39.023,0,0,1-3.3-3.8.984.984,0,0,1,.3-1.4,1.048,1.048,0,0,1,1.3.1c1,1.3,2.1,2.5,3.2,3.7a.967.967,0,0,1,0,1.4A1.613,1.613,0,0,1,86.1,253.4Zm-6.2-7.8a.842.842,0,0,1-.7-.4,38.652,38.652,0,0,1-2.7-4.3,1.03,1.03,0,0,1,1.8-1h0c.8,1.4,1.7,2.8,2.6,4.2a.984.984,0,0,1-.3,1.4,1.7,1.7,0,0,1-.7.1ZM75,236.9a.76.76,0,0,1-.8-.6,38.475,38.475,0,0,1-1.9-4.7,1.012,1.012,0,1,1,1.9-.7c.6,1.5,1.2,3.1,1.9,4.5a.992.992,0,0,1-.5,1.3h0a.845.845,0,0,1-.6.2Zm-3.5-9.3a.961.961,0,0,1-.9-.7,43.7,43.7,0,0,1-1.2-4.9.982.982,0,0,1,1.9-.5v.1a42.09,42.09,0,0,0,1.2,4.8,1.028,1.028,0,0,1-.7,1.2Zm-2-9.8a.9.9,0,0,1-.9-.9c-.2-1.6-.4-3.3-.5-5.1a1.172,1.172,0,0,1,.9-1.1,1.088,1.088,0,0,1,1.1.9h0c.1,1.7.3,3.3.5,4.9a.993.993,0,0,1-.9,1.1c-.1.2-.1.2-.2.2Zm-.8-10a.987.987,0,0,1-.9-1v-5a1.075,1.075,0,0,1,1-1,1,1,0,0,1,1,1h0v5a.975.975,0,0,1-1.1,1Zm.3-10h0a.9.9,0,0,1-.9-1.1,40.127,40.127,0,0,1,.7-5,1.037,1.037,0,0,1,1.2-.8h0a1.037,1.037,0,0,1,.8,1.2h0c-.3,1.6-.5,3.2-.7,4.9a.991.991,0,0,1-1.1.8Zm1.8-9.8h-.2a1.028,1.028,0,0,1-.7-1.2,45.8,45.8,0,0,1,1.5-4.9,1.04,1.04,0,0,1,1.3-.6h0a1.04,1.04,0,0,1,.6,1.3c-.5,1.5-1,3.1-1.5,4.7A.993.993,0,0,1,70.8,188Zm3.3-9.4a.367.367,0,0,1-.3-.1.992.992,0,0,1-.5-1.3h0c.7-1.5,1.4-3.1,2.2-4.6a.985.985,0,1,1,1.8.8.1.1,0,0,1-.1.1c-.8,1.4-1.5,2.9-2.2,4.4A.856.856,0,0,1,74.1,178.6Zm4.8-8.8a.9.9,0,0,1-.9-1.1c0-.2.1-.3.2-.5a42.673,42.673,0,0,1,2.9-4.1,1,1,0,0,1,1.6,1.2,35.968,35.968,0,0,0-2.8,4,1.217,1.217,0,0,1-1,.5Zm6.1-7.9a.9.9,0,0,1-.9-1.1.864.864,0,0,1,.3-.6,30.6,30.6,0,0,1,3.6-3.6.99.99,0,1,1,1.4,1.4h0c-1.2,1.1-2.3,2.3-3.4,3.5A1.616,1.616,0,0,1,85,161.9Zm7.3-6.9a.9.9,0,0,1-.9-1.1,1.012,1.012,0,0,1,.4-.7,39.064,39.064,0,0,1,4.1-3,1.012,1.012,0,1,1,1.1,1.7h0c-1.4.9-2.7,1.9-4,2.9a.663.663,0,0,1-.7.2Zm8.3-5.5a.945.945,0,0,1-1-1,.875.875,0,0,1,.6-.9c1.5-.8,3-1.6,4.5-2.3a.985.985,0,1,1,.8,1.8c-1.5.7-3,1.4-4.4,2.2a.764.764,0,0,1-.5.2Zm9.1-4.2a.9.9,0,0,1-.9-1.1,1.068,1.068,0,0,1,.7-.9,44.189,44.189,0,0,1,4.8-1.5,1.028,1.028,0,0,1,1.2.7,1.086,1.086,0,0,1-.7,1.2,36.761,36.761,0,0,0-4.7,1.5A.756.756,0,0,1,109.7,145.3Z"/><path class="e" d="M446.9,320.3s1-5.3,9.6-9.4c8.3-4,13.1-3.1,18.8-5.4s1.6-13-14-8.3C447,301.6,445.6,314,445.6,314Z"/><path class="f" d="M446.9,320.3s1-5.3,9.6-9.4c8.3-4,13.1-3.1,18.8-5.4s1.6-13-14-8.3C447,301.6,445.6,314,445.6,314Z"/><path class="g" d="M445.4,318.3h-.2a.517.517,0,0,1-.3-.7h0c2-5.7,7-11,13.5-14.2,8.4-4.1,14.3-2.8,14.6-2.7s.5.4.4.6-.4.5-.6.4h0c-.1,0-5.9-1.3-13.8,2.6-6.3,3.1-11.1,8.1-13,13.6C445.8,318.2,445.7,318.3,445.4,318.3Z"/><path class="b" d="M445.7,313.7s1-3,4.9-8.9c6.6-10.2,17.5-14.6,22.2-20.5,5.1-6.3-3.7-10.2-11.6-8-4.5,1.3-8.7,5.4-10.9,8.2a37.25,37.25,0,0,0-7.5,21Z"/><path class="g" d="M444.2,314h0a.56.56,0,0,1-.5-.6,46.846,46.846,0,0,1,5.5-18.9,34.971,34.971,0,0,1,15.3-14.8.569.569,0,0,1,.7.4.481.481,0,0,1-.2.6A34.057,34.057,0,0,0,450.2,295a45.573,45.573,0,0,0-5.4,18.4.576.576,0,0,1-.6.6Z"/><path class="e" d="M153.4,322.7c-7.2-4.8-7.5-17.8-6.5-26,1.6-13-5-16-8.4-10.3a32.761,32.761,0,0,0-3.5,15.9c.4,11.1,5.2,24.3,16.8,29.1Z"/><path class="f" d="M153.4,322.7c-7.2-4.8-7.5-17.8-6.5-26,1.6-13-5-16-8.4-10.3a32.761,32.761,0,0,0-3.5,15.9c.4,11.1,5.2,24.3,16.8,29.1Z"/><path class="g" d="M152,330.7a.367.367,0,0,1-.3-.1c-12.2-10.4-14.1-29-10.7-41.9a.51.51,0,1,1,1,.2c-3.3,12.6-1.5,30.8,10.4,40.9a.616.616,0,0,1,.1.7h0C152.3,330.7,152.1,330.8,152,330.7Z"/><path class="b" d="M164.3,346.7c-6.3,4.5-20.7,8.4-25.3.7-4.4-7.2-1.4-10.3-10.3-9.1s-10.9-5.6-8.8-11.4-6.6-14.2-.3-20.7,10,7.1,13.7,8.5c3.7,1.5,5.9-1.7,10.2.6,4.2,2.3,4.6,11.8,8.8,11.9,6.8.3,18.1.3,19,6.3S164.3,346.7,164.3,346.7Z"/><path class="g" d="M166.8,344.1h0c-32.8-3.4-45.5-32-46.3-36.2a.548.548,0,0,1,.4-.6c.3-.1.5.1.6.4.8,4.1,13.2,32,45.3,35.4a.536.536,0,0,1,.5.5h0A.472.472,0,0,1,166.8,344.1Z"/><path class="g" d="M131,331.3a43.186,43.186,0,0,1-6.2-.5.548.548,0,0,1-.4-.6c0-.3.3-.4.6-.4h0a35.693,35.693,0,0,0,11.3,0c.3-.1.5.1.6.4s-.1.5-.4.6h0A25.028,25.028,0,0,1,131,331.3Z"/><path class="g" d="M140.8,334.3h-.1a.548.548,0,0,1-.4-.6,38.863,38.863,0,0,0,.7-13.6.51.51,0,1,1,1-.2,41.159,41.159,0,0,1-.7,14A.51.51,0,0,1,140.8,334.3Z"/><path class="d" d="M407.9,275.6c-12,5.7-31.4,5.7-43.4,0s-12-15,0-20.7,31.4-5.7,43.4,0C419.9,260.7,419.8,269.9,407.9,275.6Z"/><path class="h" d="M159.6,346.2a9.371,9.371,0,0,0,4.3,7.2l121.3,70a9.535,9.535,0,0,0,8.7,0l166-95.9a8.114,8.114,0,0,0,3.4-11,8.555,8.555,0,0,0-3.4-3.4l-121.3-70a9.535,9.535,0,0,0-8.7,0L164,339A9.768,9.768,0,0,0,159.6,346.2Z"/><path class="i" d="M209.7,312.6,164,339a8.114,8.114,0,0,0-3.4,11,8.555,8.555,0,0,0,3.4,3.4l121.3,70a9.071,9.071,0,0,0,4.3,1V312.6Z"/><path class="j" d="M155.6,339.2a9.5,9.5,0,0,1-4.1-7.3V187a9.925,9.925,0,0,1,4.3-7.5l166-95.8A8.125,8.125,0,0,1,333,86.3a7.59,7.59,0,0,1,1.2,4.6V235.6a9.925,9.925,0,0,1-4.3,7.5L164,339A9.224,9.224,0,0,1,155.6,339.2Z"/><path class="i" d="M171.8,193.7l-19-11a9.377,9.377,0,0,0-1.3,4.3V331.8a8.075,8.075,0,0,0,7.8,8.4,8.349,8.349,0,0,0,4.6-1.2l18.9-10.9Z"/><path class="h" d="M159.6,191.7V336.5c0,2.8,1.9,3.9,4.3,2.5l166-95.9a9.376,9.376,0,0,0,4.3-7.5V90.9c0-2.8-1.9-3.9-4.3-2.5l-166,95.8A9.925,9.925,0,0,0,159.6,191.7Z"/><path class="j" d="M164,344l121.3,70.1a9.535,9.535,0,0,0,8.7,0l166-95.9c2.4-1.4,2.4-3.6,0-5L338.7,243.1a9.535,9.535,0,0,0-8.7,0L164,339C161.6,340.4,161.6,342.6,164,344Z"/><path class="g" d="M166.3,192.3,327.6,99.1c1.4-.8,2.6-.2,2.6,1.5V226a5.886,5.886,0,0,1-2.6,4.5L166.3,323.6c-1.4.8-2.6.2-2.6-1.5V196.7A5.7,5.7,0,0,1,166.3,192.3Z"/><path class="i" d="M178.1,340.3l154.1-89a4.664,4.664,0,0,1,4.3,0l7.9,4.6a1.262,1.262,0,0,1,.8,1.7,1.085,1.085,0,0,1-.8.8l-154.1,89a4.664,4.664,0,0,1-4.3,0l-7.9-4.6a1.38,1.38,0,0,1-.8-1.7A1.085,1.085,0,0,1,178.1,340.3Z"/><path class="i" d="M198.4,352l154.1-89a4.664,4.664,0,0,1,4.3,0l48.5,28a1.262,1.262,0,0,1,.8,1.7,1.085,1.085,0,0,1-.8.8L251.4,382.4a4.664,4.664,0,0,1-4.3,0l-48.6-27.9a1.262,1.262,0,0,1-.8-1.7A.849.849,0,0,1,198.4,352Z"/><path class="d" d="M336.5,303.1l4.8-2.8a.208.208,0,0,0,0-.4l-5.6-3.2a1.1,1.1,0,0,0-.8,0l-4.8,2.8a.208.208,0,0,0,0,.4l5.6,3.2A1.1,1.1,0,0,0,336.5,303.1ZM327,292l-4.8,2.8c-.2.1-.2.3,0,.5l5.6,3.2a1.1,1.1,0,0,0,.8,0l4.8-2.8a.208.208,0,0,0,0-.4l-5.6-3.2A.627.627,0,0,0,327,292Zm-15.6,9-8.2,4.8c-.2.1-.2.3,0,.5l5.6,3.2a1.1,1.1,0,0,0,.8,0l8.2-4.7a.208.208,0,0,0,0-.4l-5.6-3.2A.676.676,0,0,0,311.4,301Zm8.5-4.9-4.8,2.8a.208.208,0,0,0,0,.4l5.6,3.2a1.1,1.1,0,0,0,.8,0l4.8-2.8a.208.208,0,0,0,0-.4l-5.6-3.2A.608.608,0,0,0,319.9,296.1ZM301,307l-4.8,2.8c-.2.1-.2.3,0,.5l5.6,3.2a1.1,1.1,0,0,0,.8,0l4.8-2.8a.208.208,0,0,0,0-.4l-5.6-3.2a.8.8,0,0,0-.8-.1Zm-7.1,4.1-4.8,2.8c-.2.1-.2.3,0,.5l5.6,3.2a1.1,1.1,0,0,0,.8,0l4.8-2.8a.208.208,0,0,0,0-.4l-5.6-3.2a.521.521,0,0,0-.8-.1Zm22,13.1,4.8-2.8a.208.208,0,0,0,0-.4l-5.6-3.2a1.1,1.1,0,0,0-.8,0l-4.8,2.8a.208.208,0,0,0,0,.4l5.6,3.2a1.1,1.1,0,0,0,.8,0Zm-7.1,4,4.8-2.8a.208.208,0,0,0,0-.4l-5.6-3.3a1.1,1.1,0,0,0-.8,0l-4.8,2.8a.208.208,0,0,0,0,.4l5.6,3.2c.3.3.6.3.8.1Zm-7,4.1,4.8-2.8a.208.208,0,0,0,0-.4l-5.6-3.2a1.1,1.1,0,0,0-.8,0l-4.8,2.8a.208.208,0,0,0,0,.4l5.6,3.2a1.1,1.1,0,0,0,.8,0Zm-7,4.1,4.8-2.8a.208.208,0,0,0,0-.4L294,330a1.1,1.1,0,0,0-.8,0l-4.9,2.8a.208.208,0,0,0,0,.4l5.6,3.2a1.387,1.387,0,0,0,.9,0Zm34.6-29.3,4.8-2.8a.208.208,0,0,0,0-.4l-5.6-3.2a1.1,1.1,0,0,0-.8,0l-4.8,2.8a.208.208,0,0,0,0,.4l5.6,3.2A.6.6,0,0,0,329.4,307.1Zm-6.5,13,10.8-6.2a.208.208,0,0,0,0-.4l-13.5-7.8a1.1,1.1,0,0,0-.8,0l-5.6,3.2c-.2.1-.2.3,0,.5l7.2,4.1a.208.208,0,0,1,0,.4l-4.5,2.6a.208.208,0,0,0,0,.4l5.6,3.2a.762.762,0,0,0,.8,0Zm-36-5-4.8,2.8a.208.208,0,0,0,0,.4l5.6,3.2a1.1,1.1,0,0,0,.8,0l4.8-2.8a.208.208,0,0,0,0-.4l-5.6-3.2A1.1,1.1,0,0,0,286.9,315.1Zm-7,4.1-4.8,2.8a.208.208,0,0,0,0,.4l5.6,3.2a1.1,1.1,0,0,0,.8,0l4.8-2.8a.208.208,0,0,0,0-.4l-5.6-3.2a1.1,1.1,0,0,0-.8,0Zm-35.2,45.7a1.1,1.1,0,0,0,.8,0l4.8-2.8a.208.208,0,0,0,0-.4l-5.6-3.2a1.1,1.1,0,0,0-.8,0l-4.8,2.8a.208.208,0,0,0,0,.4Zm-21.3-13.2-4.8,2.8a.208.208,0,0,0,0,.4l5.6,3.2a1.1,1.1,0,0,0,.8,0l4.8-2.8a.208.208,0,0,0,0-.4l-5.6-3.2A1.1,1.1,0,0,0,223.4,351.7Zm11.4,9.6a1.1,1.1,0,0,0,.8,0l4.8-2.8a.208.208,0,0,0,0-.4l-5.6-3.2a1.1,1.1,0,0,0-.8,0l-4.8,2.8a.208.208,0,0,0,0,.4Zm22.3,6,4.8-2.8a.208.208,0,0,0,0-.4l-5.6-3.2a1.1,1.1,0,0,0-.8,0l-4.8,2.8a.208.208,0,0,0,0,.4l5.6,3.2a1.1,1.1,0,0,0,.8,0Zm-7.9,4a1.1,1.1,0,0,0,.8,0l4.8-2.8a.208.208,0,0,0,0-.4l-5.6-3.2a1.1,1.1,0,0,0-.8,0l-4.9,2.9a.208.208,0,0,0,0,.4Zm-18.8-23.6-4.8,2.8c-.2.1-.2.3,0,.5l5.6,3.2a1.1,1.1,0,0,0,.8,0l4.8-2.8a.208.208,0,0,0,0-.4l-5.5-3.2A.972.972,0,0,0,230.4,347.7Zm35.3-20.4-4.8,2.8a.208.208,0,0,0,0,.4l5.6,3.2a1.1,1.1,0,0,0,.8,0l4.8-2.8a.208.208,0,0,0,0-.4l-5.6-3.2A1.1,1.1,0,0,0,265.7,327.3Zm-28.2,16.3-4.8,2.8c-.2.1-.2.3,0,.5l5.6,3.2a1.1,1.1,0,0,0,.8,0l4.8-2.8c.2-.1.2-.3,0-.5l-5.6-3.2A1.1,1.1,0,0,0,237.5,343.6Zm35.3-20.3-4.8,2.8a.208.208,0,0,0,0,.4l5.6,3.2a1.1,1.1,0,0,0,.8,0l4.8-2.8a.208.208,0,0,0,0-.4l-5.6-3.2a1.1,1.1,0,0,0-.8,0Zm-14.1,8.1-4.8,2.8a.208.208,0,0,0,0,.4l5.6,3.2a1.1,1.1,0,0,0,.8,0l4.8-2.8c.2-.1.2-.3,0-.5l-5.6-3.2a1.949,1.949,0,0,0-.8.1Zm-7.1,4.1-4.8,2.8a.208.208,0,0,0,0,.4l5.6,3.2a1.1,1.1,0,0,0,.8,0l4.8-2.8c.2-.1.2-.3,0-.5l-5.6-3.2a2.485,2.485,0,0,0-.8.1Zm-7,4.1-4.8,2.8c-.2.1-.2.3,0,.5l5.6,3.2a1.1,1.1,0,0,0,.8,0l4.8-2.8c.2-.1.2-.3,0-.5l-5.6-3.2a.6.6,0,0,0-.8,0Zm36,4.9,4.8-2.8c.2-.1.2-.3,0-.5l-5.6-3.2a1.1,1.1,0,0,0-.8,0l-4.8,2.8c-.2.1-.2.3,0,.5l5.6,3.2a.762.762,0,0,0,.8,0Zm62-61.5-4.8,2.7a.208.208,0,0,0,0,.4l5.6,3.2a1.1,1.1,0,0,0,.8,0l4.8-2.8a.208.208,0,0,0,0-.4l-5.6-3.2a1.062,1.062,0,0,0-.8.1Zm-8.6,4.9-4.8,2.8c-.2.1-.2.3,0,.5l5.6,3.2a1.1,1.1,0,0,0,.8,0l4.8-2.8a.208.208,0,0,0,0-.4l-5.6-3.2a.755.755,0,0,0-.8-.1Zm15.6-9-4.8,2.8c-.2.1-.2.3,0,.5l5.6,3.2a1.1,1.1,0,0,0,.8,0l4.8-2.8a.208.208,0,0,0,0-.4l-5.6-3.2a.783.783,0,0,0-.8-.1Zm-36.5,37.7,4.8-2.8a.208.208,0,0,0,0-.4l-5.6-3.2a1.1,1.1,0,0,0-.8,0l-4.8,2.8c-.2.1-.2.3,0,.5l5.6,3.2a1.949,1.949,0,0,0,.8-.1Zm44.3-41.7a1.1,1.1,0,0,0-.8,0l-4.8,2.8c-.2.1-.2.3,0,.5l5.6,3.2a1.1,1.1,0,0,0,.8,0l4.8-2.8c.2-.1.2-.3,0-.5Zm-69.7,65.5,4.8-2.8c.2-.1.2-.3,0-.5l-5.6-3.2a1.1,1.1,0,0,0-.8,0l-4.9,2.8a.208.208,0,0,0,0,.4l5.6,3.2A.642.642,0,0,0,287.7,340.4Zm86.5-49.9,4.8-2.8a.208.208,0,0,0,0-.4l-5.6-3.2a1.1,1.1,0,0,0-.8,0l-4.8,2.8a.208.208,0,0,0,0,.4l5.6,3.2a.6.6,0,0,0,.8,0Zm-15-.5,4.8-2.8a.208.208,0,0,0,0-.4l-5.6-3.2a1.1,1.1,0,0,0-.8,0l-4.8,2.8a.208.208,0,0,0,0,.4l5.6,3.2a1.1,1.1,0,0,0,.8,0Zm6.2-10.5a1.1,1.1,0,0,0-.8,0l-4.8,2.8a.208.208,0,0,0,0,.4l5.6,3.2a1.1,1.1,0,0,0,.8,0l4.8-2.8a.208.208,0,0,0,0-.4Zm1.5-.9,13.5,7.8a1.1,1.1,0,0,0,.8,0l4.8-2.8a.208.208,0,0,0,0-.4l-13.6-7.8a1.1,1.1,0,0,0-.8,0l-4.8,2.8a.247.247,0,0,0,.1.4Zm-16.3,9-4.8,2.8a.208.208,0,0,0,0,.4l5.6,3.2a1.1,1.1,0,0,0,.8,0l4.8-2.8a.208.208,0,0,0,0-.4l-5.6-3.2a1.1,1.1,0,0,0-.8,0Zm-53.2,30.6-4.8,2.8a.208.208,0,0,0,0,.4l5.6,3.2a1.1,1.1,0,0,0,.8,0l4.8-2.8a.208.208,0,0,0,0-.4l-5.6-3.2A1.1,1.1,0,0,0,297.4,318.2Zm68.9-23.6a1.1,1.1,0,0,0,.8,0l4.8-2.8a.208.208,0,0,0,0-.4l-5.6-3.2a1.1,1.1,0,0,0-.8,0l-4.8,2.8a.208.208,0,0,0,0,.4Zm-61.8,19.6-4.8,2.8a.208.208,0,0,0,0,.4l5.6,3.2a1.1,1.1,0,0,0,.8,0l4.8-2.8a.208.208,0,0,0,0-.4l-5.6-3.2a1.1,1.1,0,0,0-.8,0Zm-52.8,46.5a1.1,1.1,0,0,0,.8,0l4.8-2.8a.208.208,0,0,0,0-.4l-5.6-3.2a1.1,1.1,0,0,0-.8,0l-4.8,2.8a.208.208,0,0,0,0,.4Zm-10.6-10-4.8,2.8a.208.208,0,0,0,0,.4l5.6,3.2a1.1,1.1,0,0,0,.8,0l4.8-2.8a.208.208,0,0,0,0-.4l-5.6-3.2a2.134,2.134,0,0,0-.8,0Zm18.3,6,4.8-2.8a.208.208,0,0,0,0-.4l-5.6-3.2a1.1,1.1,0,0,0-.8,0l-4.8,2.8c-.2.1-.2.3,0,.5l5.6,3.2A.755.755,0,0,0,259.4,356.7Zm7.1-4,4.8-2.8c.2-.1.2-.3,0-.5l-5.6-3.2a1.1,1.1,0,0,0-.8,0l-4.8,2.8c-.2.1-.2.3,0,.5l5.6,3.2a1.1,1.1,0,0,0,.8,0Zm7-4.1,4.8-2.8c.2-.1.2-.3,0-.5l-5.6-3.2a1.1,1.1,0,0,0-.8,0l-4.8,2.8c-.2.1-.2.3,0,.5l5.6,3.2a1.1,1.1,0,0,0,.8,0Zm-25.4-1.9-4.8,2.8c-.2.1-.2.3,0,.5l5.6,3.2a1.1,1.1,0,0,0,.8,0l4.8-2.8a.208.208,0,0,0,0-.4l-5.6-3.2A.8.8,0,0,0,248.1,346.7Zm7.1-4-4.8,2.8c-.2.1-.2.3,0,.5l5.6,3.2a1.1,1.1,0,0,0,.8,0l4.8-2.8c.2-.1.2-.3,0-.5l-5.6-3.2a1.1,1.1,0,0,0-.8,0Zm28.2-16.3-4.8,2.8a.208.208,0,0,0,0,.4l5.6,3.2a1.1,1.1,0,0,0,.8,0l4.8-2.8a.208.208,0,0,0,0-.4l-5.6-3.2a1.1,1.1,0,0,0-.8,0Zm-7.1,4.1-4.9,2.8a.208.208,0,0,0,0,.4l5.6,3.2a1.1,1.1,0,0,0,.8,0l4.8-2.8c.2-.1.2-.3,0-.5l-5.6-3.2a.616.616,0,0,0-.7.1Zm14.1-8.2-4.8,2.8a.208.208,0,0,0,0,.4l5.6,3.2a1.1,1.1,0,0,0,.8,0l4.8-2.8a.208.208,0,0,0,0-.4l-5.6-3.2A1.1,1.1,0,0,0,290.4,322.3Zm-28.2,16.3-4.8,2.8c-.2.1-.2.3,0,.5l5.6,3.2a1.1,1.1,0,0,0,.8,0l4.8-2.8c.2-.1.2-.3,0-.5l-5.6-3.2a1.1,1.1,0,0,0-.8,0Zm7.1-4.1-4.8,2.8c-.2.1-.2.3,0,.5l5.6,3.2a1.1,1.1,0,0,0,.8,0l4.8-2.8c.2-.1.2-.3,0-.5l-5.6-3.2a1.1,1.1,0,0,0-.8,0Zm-5.2,28.8,4.8-2.8a.208.208,0,0,0,0-.4l-5.6-3.2a1.1,1.1,0,0,0-.8,0l-4.8,2.8c-.2.1-.2.3,0,.5l5.6,3.2a1.949,1.949,0,0,0,.8-.1Zm-41.3-4.2-5.6-3.2a1.1,1.1,0,0,0-.8,0l-4.8,2.8a.208.208,0,0,0,0,.4l5.6,3.2a1.1,1.1,0,0,0,.8,0l4.8-2.8c.2-.1.1-.3,0-.4Zm10.5,3.1-5.6-3.2a1.1,1.1,0,0,0-.8,0l-7.4,4.3a.208.208,0,0,0,0,.4l5.6,3.2a1.1,1.1,0,0,0,.8,0l7.4-4.3a.208.208,0,0,0,0-.4Zm-19.1-9.3-5.6-3.2a1.1,1.1,0,0,0-.8,0l-5.9,3.4c-.2.1-.2.3,0,.5l5.6,3.2a1.1,1.1,0,0,0,.8,0l5.9-3.4c.2-.2.2-.4,0-.5Zm4.6-2.7a1.1,1.1,0,0,0,.8,0l4.8-2.8a.208.208,0,0,0,0-.4l-5.6-3.2a1.1,1.1,0,0,0-.8,0l-4.8,2.8a.208.208,0,0,0,0,.4Zm24.3,15.5-5.6-3.2a1.1,1.1,0,0,0-.8,0l-9.3,5.4a.208.208,0,0,0,0,.4l5.6,3.2a1.1,1.1,0,0,0,.8,0l9.3-5.4C243.4,366,243.3,365.8,243.1,365.7Zm4.7,6.6-5.6-3.2a1.1,1.1,0,0,0-.8,0l-6,3.4a.208.208,0,0,0,0,.4l5.6,3.2a1.1,1.1,0,0,0,.8,0l5.9-3.4c.3-.1.3-.3.1-.4ZM271.2,320a1.1,1.1,0,0,0,.8,0l4.8-2.8a.208.208,0,0,0,0-.4l-5.6-3.2a1.1,1.1,0,0,0-.8,0l-4.8,2.8a.208.208,0,0,0,0,.4ZM257,328.1a1.1,1.1,0,0,0,.8,0l4.8-2.8a.208.208,0,0,0,0-.4l-5.6-3.2a1.1,1.1,0,0,0-.8,0l-4.8,2.8a.208.208,0,0,0,0,.4Zm-31.2,18.1a1.1,1.1,0,0,0,.8,0l4.8-2.8a.208.208,0,0,0,0-.4l-5.6-3.2a1.1,1.1,0,0,0-.8,0l-4.8,2.8a.208.208,0,0,0,0,.4Zm38.3-22.1a1.1,1.1,0,0,0,.8,0l4.8-2.8a.208.208,0,0,0,0-.4l-5.6-3.2a1.1,1.1,0,0,0-.8,0l-4.8,2.8a.208.208,0,0,0,0,.4ZM250,332.2a1.1,1.1,0,0,0,.8,0l4.8-2.8c.2-.1.2-.3,0-.5l-5.6-3.2a1.1,1.1,0,0,0-.8,0l-4.8,2.8c-.2.1-.2.3,0,.5Zm1.6,40.5a1.1,1.1,0,0,0-.8,0l-7.4,4.3c-.2.1-.2.3,0,.5l5.6,3.3a1.1,1.1,0,0,0,.8,0l7.4-4.3c.2-.1.2-.3,0-.5ZM239.9,338a1.1,1.1,0,0,0,.8,0l4.8-2.8c.2-.1.2-.3,0-.5l-5.6-3.2a1.1,1.1,0,0,0-.8,0l-4.8,2.8c-.2.1-.2.3,0,.5Zm-7.1,4.1a1.1,1.1,0,0,0,.8,0l4.8-2.8a.208.208,0,0,0,0-.4l-5.6-3.2a1.1,1.1,0,0,0-.8,0l-4.8,2.8c-.2.1-.2.3,0,.5Zm149.5-44.8a1.1,1.1,0,0,0-.8,0l-11.9,6.9a.208.208,0,0,0,0,.4l5.6,3.2a1.1,1.1,0,0,0,.8,0l11.9-6.9a.208.208,0,0,0,0-.4Zm-15.6,9a1.1,1.1,0,0,0-.8,0l-4.8,2.8a.208.208,0,0,0,0,.4l5.6,3.2a1.1,1.1,0,0,0,.8,0l4.8-2.8a.208.208,0,0,0,0-.4Zm-95.5,52.9,4.8-2.8c.2-.1.2-.3,0-.5l-5.6-3.2a1.1,1.1,0,0,0-.8,0l-4.8,2.8c-.2.1-.2.3,0,.5l5.6,3.2A1.1,1.1,0,0,0,271.2,359.2Zm81.4-44.7a1.1,1.1,0,0,0-.8,0l-4.8,2.8c-.2.1-.2.3,0,.5l5.6,3.2a1.1,1.1,0,0,0,.8,0l4.8-2.8c.2-.1.2-.3,0-.5Zm36.7-21.2a1.1,1.1,0,0,0-.8,0l-4.8,2.8a.208.208,0,0,0,0,.4l5.6,3.2a1.1,1.1,0,0,0,.8,0l4.8-2.8a.208.208,0,0,0,0-.4Zm12.6-.9-13.5-7.8a1.1,1.1,0,0,0-.8,0l-4.8,2.8a.208.208,0,0,0,0,.4l13.5,7.8a1.1,1.1,0,0,0,.8,0l4.8-2.8C402.2,292.7,402.2,292.6,401.9,292.4Zm-75.7,37.3a1.1,1.1,0,0,0-.8,0l-5.9,3.4a.208.208,0,0,0,0,.4l5.6,3.2a1.1,1.1,0,0,0,.8,0l5.9-3.4c.2-.1.2-.3,0-.5ZM344,319.5a1.1,1.1,0,0,0-.8,0l-7.4,4.3a.208.208,0,0,0,0,.4l5.6,3.1a1.1,1.1,0,0,0,.8,0l7.4-4.3a.208.208,0,0,0,0-.4Zm-34.1,19.7a1.1,1.1,0,0,0-.8,0L269.4,362c-.2.1-.2.3,0,.5l5.6,3.2a1.1,1.1,0,0,0,.8,0l39.7-22.9c.2-.1.2-.3,0-.5ZM268,363.4a1.1,1.1,0,0,0-.8,0l-5.9,3.4a.208.208,0,0,0,0,.4l5.6,3.2a1.1,1.1,0,0,0,.8,0l5.9-3.4a.208.208,0,0,0,0-.4Zm50.1-28.9a1.1,1.1,0,0,0-.8,0l-5.9,3.4c-.2.1-.2.3,0,.5l5.6,3.2a1.1,1.1,0,0,0,.8,0l5.9-3.4a.208.208,0,0,0,0-.4Zm-58.3,33.6a1.1,1.1,0,0,0-.8,0l-5.9,3.4c-.2.1-.2.3,0,.5l5.6,3.2a1.1,1.1,0,0,0,.8,0l6-3.5a.208.208,0,0,0,0-.4ZM334.4,325a1.1,1.1,0,0,0-.8,0l-5.9,3.4c-.2.1-.2.3,0,.5l5.6,3.2a1.1,1.1,0,0,0,.8,0l5.9-3.4c.2-.1.2-.3,0-.5Zm25.2-14.5a1.1,1.1,0,0,0-.8,0l-4.8,2.8a.208.208,0,0,0,0,.4l5.6,3.2a1.1,1.1,0,0,0,.8,0l4.8-2.8c.2-.1.2-.3,0-.5Zm15.5-11.3,4.8-2.8a.208.208,0,0,0,0-.4l-5.6-3.3a1.1,1.1,0,0,0-.8,0l-4.8,2.8a.208.208,0,0,0,0,.4l5.6,3.2a.755.755,0,0,0,.8.1Zm-31.6-.2,4.8-2.8a.208.208,0,0,0,0-.4l-5.6-3.2a1.1,1.1,0,0,0-.8,0l-4.8,2.8a.208.208,0,0,0,0,.4l5.6,3.2a1.1,1.1,0,0,0,.8,0Zm-16,27.7,14.1-8.1a.208.208,0,0,0,0-.4L336,315a1.1,1.1,0,0,0-.8,0l-14.1,8.1c-.2.1-.2.3,0,.5l5.6,3.2a1.95,1.95,0,0,0,.8-.1Zm39.7-23.4a1.1,1.1,0,0,0,.8,0l4.8-2.8c.2-.1.2-.3,0-.5l-5.6-3.2a1.1,1.1,0,0,0-.8,0l-4.8,2.8a.208.208,0,0,0,0,.4Zm-7.2-4.6,4.8-2.8a.208.208,0,0,0,0-.4l-5.6-3.2a1.1,1.1,0,0,0-.8,0l-4.8,2.8a.208.208,0,0,0,0,.4l5.6,3.2a1.1,1.1,0,0,0,.8,0Zm-39.5,32,4.8-2.8a.208.208,0,0,0,0-.4l-5.6-3.2a1.1,1.1,0,0,0-.8,0l-4.8,2.8a.208.208,0,0,0,0,.4l5.6,3.2a.6.6,0,0,0,.8,0Zm31.1-18.4a1.1,1.1,0,0,0,.8,0l4.8-2.8a.208.208,0,0,0,0-.4l-5.6-3.2a1.1,1.1,0,0,0-.8,0l-4.8,2.8a.208.208,0,0,0,0,.4Zm-66.4,38.8,4.8-2.8c.2-.1.2-.3,0-.5l-5.6-3.2a1.1,1.1,0,0,0-.8,0l-4.8,2.8c-.2.1-.2.3,0,.5l5.6,3.2a1.1,1.1,0,0,0,.8,0Zm7.1-4.1,4.8-2.8c.2-.1.2-.3,0-.5l-5.6-3.2a1.1,1.1,0,0,0-.8,0l-4.8,2.8a.208.208,0,0,0,0,.4l5.6,3.2a.8.8,0,0,0,.8.1Zm-14.1,8.1,4.8-2.8c.2-.1.2-.3,0-.5l-5.6-3.2a1.1,1.1,0,0,0-.8,0l-4.8,2.8c-.2.1-.2.3,0,.5l5.6,3.2a1.1,1.1,0,0,0,.8,0Zm28.2-16.3,4.8-2.8a.208.208,0,0,0,0-.4l-5.6-3.2a1.1,1.1,0,0,0-.8,0l-4.8,2.8a.208.208,0,0,0,0,.4l5.6,3.2A.6.6,0,0,0,306.4,338.8Zm-7,4.1,4.8-2.8a.208.208,0,0,0,0-.4l-5.6-3.2a1.1,1.1,0,0,0-.8,0l-4.8,2.8a.208.208,0,0,0,0,.4l5.6,3.2a1.1,1.1,0,0,0,.8,0Zm14-8.2,4.8-2.8a.208.208,0,0,0,0-.4l-5.6-3.2a1.1,1.1,0,0,0-.8,0l-4.8,2.8a.208.208,0,0,0,0,.4l5.6,3.2A.6.6,0,0,0,313.4,334.7Zm32.3-60.2a1.1,1.1,0,0,0,.8,0l4.8-2.8a.208.208,0,0,0,0-.4l-1.5-.9a1.1,1.1,0,0,0-.8,0l-4.8,2.8c-.2.1-.2.3,0,.5ZM311,296.9a1.1,1.1,0,0,0,.8,0l4.8-2.8c.2-.1.2-.3,0-.5l-5.6-3.2a1.1,1.1,0,0,0-.8,0l-4.8,2.8c-.2.1-.2.3,0,.5Zm14.1-8.1a1.1,1.1,0,0,0,.8,0l4.8-2.8c.2-.1.2-.3,0-.5l-5.6-3.2a1.1,1.1,0,0,0-.8,0l-4.8,2.8a.208.208,0,0,0,0,.4Zm-22.7,13.1a1.1,1.1,0,0,0,.8,0l4.8-2.8c.2-.1.2-.3,0-.5l-5.6-3.2a1.1,1.1,0,0,0-.8,0l-4.8,2.8c-.2.1-.2.3,0,.5Zm15.7-9a1.1,1.1,0,0,0,.8,0l4.8-2.8c.2-.1.2-.3,0-.5l-5.6-3.2a1.1,1.1,0,0,0-.8,0l-4.9,2.7a.208.208,0,0,0,0,.4ZM288.3,310a1.1,1.1,0,0,0,.8,0l4.8-2.8a.208.208,0,0,0,0-.4l-5.6-3.2a1.1,1.1,0,0,0-.8,0l-4.8,2.8c-.2.1-.2.3,0,.5Zm7.1-4a1.1,1.1,0,0,0,.8,0l4.8-2.8c.2-.1.2-.3,0-.5l-5.6-3.2a1.1,1.1,0,0,0-.8,0l-4.8,2.8c-.2.1-.2.3,0,.5Zm36.2-23.3a1.1,1.1,0,0,0,.8,0l4.8-2.8c.2-.1.2-.3,0-.5l-1.5-.9a1.1,1.1,0,0,0-.8,0l-4.8,2.8c-.2.1-.2.3,0,.5Zm21.2-12.2a1.1,1.1,0,0,0,.8,0l4.8-2.8a.208.208,0,0,0,0-.4l-1.5-.9a1.1,1.1,0,0,0-.8,0l-4.8,2.8a.208.208,0,0,0,0,.4Zm11.7,6.7a1.1,1.1,0,0,0,.8,0l4.8-2.8c.2-.1.2-.3,0-.5l-5.6-3.2a1.1,1.1,0,0,0-.8,0l-4.8,2.8c-.2.1-.2.3,0,.5Zm17.6,17.9,4.8-2.8a.208.208,0,0,0,0-.4l-5.6-3.2a1.1,1.1,0,0,0-.8,0l-4.8,2.8a.208.208,0,0,0,0,.4l5.6,3.2A.6.6,0,0,0,382.1,295.1Zm-43.4-16.5a1.1,1.1,0,0,0,.8,0l4.8-2.8a.208.208,0,0,0,0-.4l-1.5-.9a1.1,1.1,0,0,0-.8,0l-4.8,2.8c-.2.1-.2.3,0,.5Zm-57.4,35.5a1.1,1.1,0,0,0,.8,0l4.8-2.8a.208.208,0,0,0,0-.4l-5.6-3.2a1.1,1.1,0,0,0-.8,0l-4.8,2.8a.208.208,0,0,0,0,.4Z"/><path class="i" d="M309.9,357.9l52.8-30.4,32.5,18.7-52.8,30.5Z"/><path class="k" d="M203.9,177.1,361.2,86.3c3.1-1.8,5.6-.3,5.6,3.2V211.4a5.886,5.886,0,0,1-2.6,4.5L202.9,309a1.6,1.6,0,0,1-2.6-1.5V183.4A7.71,7.71,0,0,1,203.9,177.1Z"/><path class="i" d="M366.8,92.4V89.5c0-3.6-2.5-5-5.6-3.2L203.9,177.2a7.936,7.936,0,0,0-3.6,6.2v5.2Z"/><path class="d" d="M343.3,99.1a4.539,4.539,0,0,0-1.9,3.3,1.166,1.166,0,0,0,1.9,1.1,4.093,4.093,0,0,0,1.9-3.3C345.3,99,344.4,98.5,343.3,99.1Z"/><path class="d" d="M351,94.7a4.093,4.093,0,0,0-1.9,3.3,1.166,1.166,0,0,0,1.9,1.1,4.271,4.271,0,0,0,1.9-3.4C352.9,94.6,352.1,94.1,351,94.7Z"/><path class="d" d="M358.6,90.3a4.093,4.093,0,0,0-1.9,3.3,1.166,1.166,0,0,0,1.9,1.1,4.364,4.364,0,0,0,1.9-3.3C360.6,90.1,359.7,89.6,358.6,90.3Z"/><path class="b" d="M200.3,188.6V212l166.5-96.1V92.4Z"/><path class="e" d="M200.3,188.6V212l166.5-96.1V92.4Z"/><path class="b" d="M228.7,206v82.4c0,.5.3.8.6.6a1.816,1.816,0,0,0,.6-1.4V205.2c0-.6-.3-.8-.6-.6A1.974,1.974,0,0,0,228.7,206Z"/><path class="d" d="M180,238l36.3-21c1.2-.7,2.2-.1,2.2,1.3v25.5a5.049,5.049,0,0,1-2.2,3.8L180,268.5c-1.2.7-2.2.1-2.2-1.3V241.7A4.707,4.707,0,0,1,180,238Z"/><path class="b" d="M218.4,218.3c0-1.4-1-1.9-2.2-1.3L180,238a4.734,4.734,0,0,0-2.2,3.8V244l40.6-23.5Z"/><path class="g" d="M181.8,246.3l16.3-9.4v16.4l-16.3,9.4Z"/><path class="e" d="M181.9,260.3l6.1-10.8a.687.687,0,0,1,.9-.3c.1,0,.2.1.3.2l2.1,2.3,3.7-8.5c.2-.5.6-.6,1-.1l2.2,3.1v7l-16.3,9.4Z"/><path class="g" d="M202.2,235.9c0,.8.6,1.1,1.3.7l9.6-5.5a2.851,2.851,0,0,0,1.3-2.2c0-.8-.6-1.1-1.3-.7l-9.6,5.5A2.606,2.606,0,0,0,202.2,235.9Z"/><path class="g" d="M202.2,242.7c0,.8.6,1.1,1.3.7l9.6-5.5a2.851,2.851,0,0,0,1.3-2.2c0-.8-.6-1.1-1.3-.7l-9.6,5.5A2.606,2.606,0,0,0,202.2,242.7Z"/><path class="g" d="M202.2,249.4c0,.8.6,1.1,1.3.7l9.6-5.5a2.851,2.851,0,0,0,1.3-2.2c0-.8-.6-1.1-1.3-.7l-9.6,5.5A2.89,2.89,0,0,0,202.2,249.4Z"/><path class="d" d="M180,277.5l36.3-20.9c1.2-.7,2.2-.1,2.2,1.3v25.5a5.049,5.049,0,0,1-2.2,3.8l-36.3,21c-1.2.7-2.2.1-2.2-1.3V281.3A4.734,4.734,0,0,1,180,277.5Z"/><path class="b" d="M218.4,257.8c0-1.4-1-1.9-2.2-1.3l-36.3,21a4.734,4.734,0,0,0-2.2,3.8v2.2L218.3,260v-2.2Z"/><path class="g" d="M181.8,285.8l16.3-9.4v16.4l-16.3,9.4Z"/><path class="e" d="M181.9,299.8,188,289a.687.687,0,0,1,.9-.3c.1,0,.2.1.3.2l2.1,2.3,3.7-8.5c.2-.5.6-.5,1-.1l2.2,3.1v7l-16.3,9.4Z"/><path class="g" d="M202.2,275.5c0,.8.6,1.1,1.3.7l9.6-5.5a2.851,2.851,0,0,0,1.3-2.2c0-.8-.6-1.1-1.3-.7l-9.6,5.5A2.606,2.606,0,0,0,202.2,275.5Z"/><path class="g" d="M202.2,282.2c0,.8.6,1.1,1.3.7l9.6-5.5a2.851,2.851,0,0,0,1.3-2.2c0-.8-.6-1.1-1.3-.7l-9.6,5.5A2.606,2.606,0,0,0,202.2,282.2Z"/><path class="g" d="M202.2,289c0,.8.6,1.1,1.3.7l9.6-5.5a2.851,2.851,0,0,0,1.3-2.2c0-.8-.6-1.1-1.3-.7l-9.6,5.5A2.606,2.606,0,0,0,202.2,289Z"/><path class="d" d="M243.1,238.9l111.6-64.4c1.2-.7,2.2-.1,2.2,1.3v32.5a5.049,5.049,0,0,1-2.2,3.8L243.1,276.5c-1.2.7-2.2.1-2.2-1.3V242.7A5.049,5.049,0,0,1,243.1,238.9Z"/><path class="b" d="M356.8,175.7c0-1.4-1-1.9-2.2-1.3L243,238.8a4.734,4.734,0,0,0-2.2,3.8v2.2l115.9-66.9v-2.2Z"/><path class="g" d="M268.4,232.2l-22.5,13a3.759,3.759,0,0,0-1.7,3v22.3c0,1.1.8,1.5,1.7,1l22.5-13a3.759,3.759,0,0,0,1.7-3V233.2C270.1,232.1,269.4,231.6,268.4,232.2Z"/><path class="b" d="M252.1,251.7l-7.9,17v1.8c0,1.1.8,1.5,1.7,1l22.5-13a3.759,3.759,0,0,0,1.7-3v-7.8l-4.3-8c-.5-1-1.3-.9-1.7.1l-6.7,15.8-3.3-4.1a1.079,1.079,0,0,0-1.5-.5A1.793,1.793,0,0,0,252.1,251.7Z"/><path class="b" d="M246.7,251.5a8.736,8.736,0,0,0,3.9-6.7,3.606,3.606,0,0,0-.6-2l-4.2,2.4a3.759,3.759,0,0,0-1.7,3v3.7A2.679,2.679,0,0,0,246.7,251.5Z"/><path class="g" d="M280.3,227.3,350,187.1c1-.6,1.7-.2,1.7.8a3.512,3.512,0,0,1-1.7,2.8L280.3,231c-1,.6-1.7.2-1.7-.9A3.512,3.512,0,0,1,280.3,227.3Z"/><path class="g" d="M280.3,236.7,350,196.5c1-.6,1.7-.2,1.7.8a3.512,3.512,0,0,1-1.7,2.8l-69.7,40.2c-1,.6-1.7.2-1.7-.9A3.493,3.493,0,0,1,280.3,236.7Z"/><path class="g" d="M280.3,246,350,205.8c1-.6,1.7-.2,1.7.8a3.852,3.852,0,0,1-1.7,2.9l-69.7,40.2c-1,.6-1.7.2-1.7-.9A3.842,3.842,0,0,1,280.3,246Z"/><path class="l" d="M373.5,143.2l-10.2-.3c-.7-.6-11.4-12.7-11.4-12.7s-3.9,6.1-3.9,6.5c-.1.4,10.5,11.7,11.6,12.9a3.034,3.034,0,0,0,2.5,1.2c2.8.2,13.1.9,13.1.9Z"/><path class="b" d="M388,155l-15.7-1.2,1.2-10.6,16.2.4Z"/><path class="f" d="M388,155l-15.7-1.2,1.2-10.6,16.2.4Z"/><path class="d" d="M242.6,189.8l111.6-64.4c1.2-.7,2.2-.1,2.2,1.3v32.5a5.049,5.049,0,0,1-2.2,3.8L242.6,227.4c-1.2.7-2.2.1-2.2-1.3V193.6A4.734,4.734,0,0,1,242.6,189.8Z"/><path class="b" d="M356.3,126.6c0-1.4-1-1.9-2.2-1.3L242.5,189.7a4.734,4.734,0,0,0-2.2,3.8v2.2l115.9-66.9v-2.2Z"/><path class="g" d="M267.9,183l-22.5,13a3.759,3.759,0,0,0-1.7,3v22.3c0,1.1.8,1.6,1.7,1l22.5-13a3.759,3.759,0,0,0,1.7-3V184C269.6,182.9,268.9,182.5,267.9,183Z"/><path class="b" d="M251.6,202.6l-8,17v1.8c0,1.1.8,1.6,1.7,1l22.5-13a3.759,3.759,0,0,0,1.7-3v-7.7l-4.3-8c-.5-1-1.3-.9-1.7.1l-6.7,15.8-3.3-4.1a1.226,1.226,0,0,0-1.6-.4C251.9,202.2,251.7,202.4,251.6,202.6Z"/><path class="b" d="M246.3,202.4a8.76,8.76,0,0,0,3.9-6.8,3.606,3.606,0,0,0-.6-2l-4.2,2.4a3.759,3.759,0,0,0-1.7,3v3.7A2.483,2.483,0,0,0,246.3,202.4Z"/><path class="g" d="M279.8,178.1l24.7-14.5c1-.6,1.7-.2,1.7.8a3.512,3.512,0,0,1-1.7,2.8l-24.7,14.5c-1,.6-1.7.2-1.7-.8A3.842,3.842,0,0,1,279.8,178.1Z"/><path class="h" d="M317.6,160.9a9.291,9.291,0,0,1-1,.5,2.994,2.994,0,0,1-1,.4l-.9.3a.846.846,0,0,1-.7,0,.55.55,0,0,1-.5-.3.845.845,0,0,1-.2-.6v-.4c0-.1.1-.3.1-.4.1-.2.1-.3.2-.5s.1-.3.2-.5l.8.1c0,.1-.1.2-.2.3s-.1.3-.2.4c0,.1-.1.3-.1.4v.2c.1.1.2.1.4.1a2.544,2.544,0,0,0,.7-.2,3.552,3.552,0,0,0,.9-.4c.4-.2.7-.4,1.1-.6a5.937,5.937,0,0,1,.8-.4l.9-.6.9-.6a5.008,5.008,0,0,0,.8-.7c0-.1-.1-.2-.2-.3s-.1-.2-.2-.3-.2-.2-.3-.2c-.1-.1-.2-.2-.3-.2l.9-1,.1.1.2.2c.1.1.1.2.2.3s.2.2.2.3c.1.1.1.2.2.4s.1.2.1.3a1.087,1.087,0,0,1-.1.5c-.1.2-.2.3-.3.5a2.652,2.652,0,0,1-.5.6l-.6.6a3.039,3.039,0,0,1-.7.5c-.2.2-.5.3-.7.5-.2.1-.4.3-.6.4,0,.1-.1.2-.4.3Zm-.2-3.8-.7,1.1-.8-.2.7-1.1Zm1.7-.9-.7,1.1-.8-.2.7-1.1Z"/><path class="h" d="M325,156.8l-.2.1a2.3,2.3,0,0,1-1.4.4c-.3-.1-.5-.4-.5-.9v-2.1a1.268,1.268,0,0,0-.1-.6.749.749,0,0,0-.1-.5.9.9,0,0,0-.1-.5c0-.1-.1-.3-.1-.4l1.1-.9a4.331,4.331,0,0,1,.1.5c0,.2.1.4.1.6s.1.5.1.7v2.7a.1.1,0,0,0,.1.1h.2c.1,0,.2-.1.3-.1l.2-.1Z"/><path class="h" d="M330.1,154l-.2.1c-.2.1-.5.2-.7.3l-.6.3c-.2.1-.4.1-.6.2h-.5c-.2.2-.3.4-.5.5a1.794,1.794,0,0,1-.7.5,1.794,1.794,0,0,0-.7.5c-.2.1-.5.3-.7.4l-.2.1v-1l.2-.1c.1-.1.3-.1.4-.2s.3-.2.4-.3.3-.2.4-.3l.3-.3c-.1,0-.2-.1-.3-.1s-.2-.1-.3-.1-.2-.1-.3-.1-.2-.1-.4-.1v-.8c.2-.2.3-.4.5-.6l.5-.5c.2-.1.3-.3.5-.4a1.38,1.38,0,0,0,.4-.3.758.758,0,0,1,.4-.2l.6-.3a1.854,1.854,0,0,1,.7-.2h.4a.367.367,0,0,1,.3.1c.1,0,.1.1.1.2v.3a.756.756,0,0,1-.1.4c0,.2-.1.3-.2.5l-.3.6c-.1.2-.3.4-.4.6.2-.1.4-.1.6-.2a4.875,4.875,0,0,1,.7-.3l.1-.1Zm-3.9-.5c.1,0,.2.1.3.1s.2.1.4.1c.1,0,.2.1.3.1a.367.367,0,0,1,.3.1,1.38,1.38,0,0,0,.3-.4c.1-.2.2-.3.3-.5s.2-.3.3-.5c.1-.1.1-.3.2-.3h-.2c-.1,0-.2.1-.3.1s-.2.1-.3.1-.2.1-.3.2-.2.1-.3.2-.2.1-.3.2l-.3.3A.519.519,0,0,0,326.2,153.5Zm2.1-3.7-.8,1.2-.9-.3.8-1.2Z"/><path class="h" d="M333.8,150.9v1h-.1a1.329,1.329,0,0,1-.7.3h-.5a1.756,1.756,0,0,1-.4.5c-.2.2-.4.3-.6.5a2.506,2.506,0,0,1-.7.4c-.2.1-.5.3-.7.4l-.2.1v-1l.2-.1a4.054,4.054,0,0,1,.9-.5c.2-.2.4-.3.6-.5.1-.1.2-.3.3-.4a.6.6,0,0,0,.1-.4.367.367,0,0,0-.1-.3.758.758,0,0,0-.2-.4l1.1-.9a.349.349,0,0,0,.1.2c0,.1,0,.1.1.2v.6c0,.1,0,.1.1.2,0,.1.1.1.2.2.1,0,.1.1.2.1,0,0,.1,0,.3-.2Zm-2.2,3.4-.7,1.1-.8-.2.7-1.1Zm1.6-.9-.7,1.1-.8-.2.7-1.1Z"/><path class="h" d="M333.6,151l.3-.2c.1-.1.2-.1.3-.2s.2-.1.2-.2c.1-.1.1-.2.2-.3,0-.1.1-.2.1-.4v-3.8a.6.6,0,0,0-.1-.4l1.1-.8c0,.1.1.3.1.4a.9.9,0,0,0,.1.5v3.3a.52.52,0,0,0,.2.4,1.087,1.087,0,0,0,.5-.1l.1-.1v1l-.1.1h0c-.1.1-.2.1-.3.2-.1,0-.2.1-.3.1h-.5l-.3.3-.3.3c-.1.1-.2.2-.3.2-.1.1-.2.1-.3.2l-.6.3Z"/><path class="h" d="M339.8,147.6v1h-.1a1.329,1.329,0,0,1-.7.3h-.5a2.336,2.336,0,0,1-.7.7,5.248,5.248,0,0,1-1.1.7l-.2.1v-1l.2-.1a2.9,2.9,0,0,0,1-.8,1.33,1.33,0,0,0,.3-.8.367.367,0,0,0-.1-.3,1.689,1.689,0,0,0-.2-.5l1.1-.9a.349.349,0,0,0,.1.2c0,.1,0,.1.1.2a.367.367,0,0,0,.1.3v.3c0,.1,0,.2.1.2,0,.1.1.1.1.2s.1.1.2.1c0,.3.1.2.3.1Zm-.8,2.7-.8,1.2-.9-.3.8-1.2Z"/><path class="h" d="M339.6,147.7l.9-.5c.1-.1.3-.2.4-.3a1.768,1.768,0,0,0,.7-.7.6.6,0,0,0,.1-.4c0-.1,0-.1-.1-.2,0-.1-.1-.2-.1-.3-.1-.1-.1-.2-.2-.3s-.2-.2-.2-.3l1-1c.1.1.2.2.2.3a.52.52,0,0,1,.2.4c.1.1.1.3.2.4a4.331,4.331,0,0,1,.1.5,1.077,1.077,0,0,1-.2.8,3.508,3.508,0,0,1-.5.8,5.718,5.718,0,0,1-.8.7l-.9.6-.9.5Zm1.8-5-.7,1.1-.8-.2.7-1.1Zm1.7-.9-.7,1.1-.8-.2.7-1.1Z"/><path class="g" d="M279.8,187.5l69.7-40.2c1-.6,1.7-.2,1.7.8a3.852,3.852,0,0,1-1.7,2.9l-69.7,40.2c-1,.6-1.7.2-1.7-.8A3.69,3.69,0,0,1,279.8,187.5Z"/><path class="g" d="M279.8,196.9l69.7-40.2c1-.6,1.7-.2,1.7.8a3.852,3.852,0,0,1-1.7,2.9l-69.7,40.2c-1,.6-1.7.2-1.7-.8A3.853,3.853,0,0,1,279.8,196.9Z"/><rect class="m" width="5.9" height="8.6" transform="translate(402.2 266.9)"/><rect class="m" width="5.9" height="8.6" transform="matrix(0.999, -0.034, 0.034, 0.999, 381.452, 256.401)"/><path class="j" d="M407.8,182.9c0,5.6.7,42.1.7,42.1.1,1.6,1.7,4.6,1.3,10.9-.4,8.5-1.2,32-1.2,32s-2.8,2.8-6.7,0c0,0-5.4-31.9-6.4-40.3-.9-7.3-2.5-27.2-2.5-27.2l-5.4,23.4a91.753,91.753,0,0,1,1.2,9.4c.2,3.9-1,26.3-1,26.3a6.626,6.626,0,0,1-6.4.3s-4.8-32.7-5.4-36.3,4.1-40.4,4.1-40.4h27.7Z"/><path class="b" d="M398.9,143.9h0a11.662,11.662,0,0,1,8.9,11.4V183c-4.1,4.5-18.6,6.6-27.6,0V154.2c0-4.6,2.5-10.1,9.6-10.5Z"/><path class="i" d="M400.9,120.3a3.114,3.114,0,0,1,2.6.9c1.1,1.1.9,3.3,0,8.1l-3.5.4Z"/><path class="i" d="M380.7,118.9a5.7,5.7,0,0,1-2.2-.4c-1.1-.6-1.3.6-.8,1.6a5.207,5.207,0,0,0,4,2.7c0-.2,1-2.7,1-2.7Z"/><path class="m" d="M399.2,129.8c.5.3,1.3-.7,1.9-1.3a2.208,2.208,0,0,1,3.1-.2,1.555,1.555,0,0,1,.6.8c1,2.2-1.3,5.2-2.7,6.1a2.579,2.579,0,0,1-2.9.3l-.4,8.5a9.078,9.078,0,0,1-6.8,5.2c-5,.7-3.9-3.4-2.3-5.4v-3.1a12,12,0,0,1-3.8.2c-.6-.2-2.2-2-3.2-4.1-1.1-2.4-3-6.5-1.3-13.6,1.8-7.6,9.9-7.8,14.8-4.8S399.2,129.8,399.2,129.8Z"/><path class="i" d="M399.2,130.6c.3,0,1.2-1.6,1.9-2.2.9-.8-.3-8.1-.3-8.1s.9-2.8-.9-4.6-5.1-1.5-7.6-1.6a22.832,22.832,0,0,1-8.9-1.8c-3.5-1.5-3.8-1.7-4.2-.2s-.6,5.1,1.5,7.5l1.7.6s1,.8,4.2,1.2a46.152,46.152,0,0,0,9.1-.2c1-.1,1.2.8,1.7,3.3C398,126.9,398.4,130.6,399.2,130.6Z"/><path class="i" d="M400.9,120.9l3.1-1.7a1.681,1.681,0,0,0-2.3-.8h-.1A1.862,1.862,0,0,0,400.9,120.9Z"/><path class="l" d="M389.8,140.5a33.8,33.8,0,0,0,6.2-1.8,5.81,5.81,0,0,0,2.2-2.2,7.071,7.071,0,0,1-1.3,2.6c-1.2,1.5-7.2,2.6-7.2,2.6Z"/><path class="i" d="M390.9,128.6a.951.951,0,0,0,1.9-.1.9.9,0,0,0-.9-.9.942.942,0,0,0-1,1Z"/><path class="i" d="M391.8,125.1l2,1.1a1.165,1.165,0,0,0-.5-1.6,1.228,1.228,0,0,0-1.5.5Z"/><path class="l" d="M390.9,134.9l-2.1.8a1.081,1.081,0,0,0,1.4.7h0A1.231,1.231,0,0,0,390.9,134.9Z"/><path class="i" d="M382.6,125.9l1.8-1.4a1.1,1.1,0,0,0-1.5-.3h0A1.4,1.4,0,0,0,382.6,125.9Z"/><path class="i" d="M383.2,128.4a.908.908,0,0,0,.8,1h.1a1,1,0,1,0,.2-2,.926.926,0,0,0-1.1,1Z"/><path class="l" d="M387.9,127.5l-.3,5.5-2.9-1Z"/><path class="i" d="M402.2,272.5v-.8c-.6.2-1.9,5.3-4.2,7.4-1.9,1.7-4.4,3.7-5,5.5s3.5,3.1,5.3,2.8c2-.4,5.5-1.8,6.4-3.1s1.3-3.3,2-4.2,2.4-2,2.8-3.2a8.2,8.2,0,0,0-.3-3.1c-.3-1-.6-2.2-.9-2.1v.6a4.533,4.533,0,0,1-3,1C404.3,273.4,402.2,273.2,402.2,272.5Z"/><path class="i" d="M381.7,263.2c-.3,0-.6.4-1.2,1.2a12.431,12.431,0,0,1-3.5,2.5c-2.2,1.1-6.5,2.8-8.5,3.7-1.2.5-1.2,2,.1,2.9s4.3,1.4,7.9.6c2-.4,4.6-2.3,6.2-2.2s4.7.1,5.9-.8c1.2-.8.7-2.6.4-4.1-.4-1.7-.9-4.2-1.5-4.1v.5c-.7,1.1-4.3,1.5-5.9.7Z"/><path class="m" d="M400.6,147.7l-18.2,18.9s-16-2.9-21.5-4.4c-1.7-.5-2.9-3.1-3.3-5a3.973,3.973,0,0,0-1.4-2.6,23.962,23.962,0,0,1-.4,3.7c-.1,1-1.7,1.1-3.1,1.4-5,1.1-6.7,0-8.8,1.4-1.6,1.1.4,4.1,4.1,5.1,5.1,1.4,8,.7,11.1,1.5,2.4.6,19.8,6,23,6.8,1.7.4,3.1.3,5-1.6s16.3-14.4,16.3-14.4Z"/><path class="b" d="M401.5,147.1c-2-.5-14.2,14-14.2,14l6.7,5.6s8.7-5.7,10.2-8S407.5,148.6,401.5,147.1Z"/><path class="b" d="M394.4,167.1s9.2-8.2,9.6-9.1c.8-1.7.6-4.9.6-4.9s1,2.8,0,4.9-8,8.3-9.1,9.3l-1.1,1.1-1.1-1,.6-.6Z"/><path class="f" d="M394.4,167.1s9.2-8.2,9.6-9.1c.8-1.7.6-4.9.6-4.9s1,2.8,0,4.9-8,8.3-9.1,9.3l-1.1,1.1-1.1-1,.6-.6Z"/><path class="l" d="M348.3,126.4c2-.2,3.3-1.7,3.8-1.3a1.071,1.071,0,0,1,.1,1.4,11.088,11.088,0,0,1-3,1.7,15.441,15.441,0,0,0-.5,3.1c-.2,1.5-.1,4.6-1.4,5.6-3.9,3.1-4.9-1.8-4.8-5.2C342.6,127.7,346.2,126.6,348.3,126.4Z"/><path class="n" d="M301.8,395.7l-29.3-16.9,131.5-76,30,16.6Z"/><path class="b" d="M293.9,290,419,217.8l5,2.9a5.216,5.216,0,0,1,2.4,4.1v92.3a5.216,5.216,0,0,1-2.4,4.1L303.6,390.7a5.522,5.522,0,0,1-4.7,0l-2.7-1.5a5.216,5.216,0,0,1-2.4-4.1Z"/><path class="f" d="M293.9,290,419,217.8l5,2.9a5.216,5.216,0,0,1,2.4,4.1v92.3a5.216,5.216,0,0,1-2.4,4.1L303.6,390.7a5.522,5.522,0,0,1-4.7,0l-2.7-1.5a5.216,5.216,0,0,1-2.4-4.1Z"/><path class="b" d="M418.3,209.7l.5-.3-1.9-1.1h0c-.2-.1-.3-.2-.5-.3l-55.1-20.4a3.7,3.7,0,0,0-4.2,1.3l-61.6,90a10.218,10.218,0,0,0-1.6,5.1v6l1.9,1.1L419,217.8v-6A4.05,4.05,0,0,0,418.3,209.7Z"/><path class="o" d="M359.6,189.4c-.2.2-.5.4-.6.7L297.4,280a8.486,8.486,0,0,0-1.1,2.6l-1.9-1.1a7.837,7.837,0,0,1,.5-1.4h0a2.187,2.187,0,0,1,.3-.5v-.1a2.187,2.187,0,0,1,.3-.5l61.6-89.9c.1-.1.2-.3.3-.4l.3-.3Z"/><path class="p" d="M418.8,209.4c-.2-.1-.3-.2-.5-.3l-55.1-20.4a3.657,3.657,0,0,0-3.6.7l-1.9-1.1a3.914,3.914,0,0,1,3.6-.7l55,20.4a2.186,2.186,0,0,1,.5.3Z"/><path class="b" d="M295.2,279.5a2.187,2.187,0,0,1,.3-.5A2.185,2.185,0,0,0,295.2,279.5Z"/><path class="b" d="M357.4,188.6l.3-.3Z"/><path class="b" d="M294.3,281.5a7.837,7.837,0,0,1,.5-1.4C294.6,280.6,294.5,281,294.3,281.5Z"/><path class="b" d="M294.8,280.1a2.187,2.187,0,0,1,.3-.5C295.1,279.7,294.9,279.9,294.8,280.1Z"/><path class="f" d="M295.1,279.5Z"/><path class="f" d="M357.1,189c.1-.1.2-.3.3-.4A1.38,1.38,0,0,0,357.1,189Z"/><path class="b" d="M359,190.1,297.4,280a10.218,10.218,0,0,0-1.6,5.1v6l125.1-72.2v-6a4.431,4.431,0,0,0-2.6-3.8l-55-20.4A3.948,3.948,0,0,0,359,190.1Z"/><path class="q" d="M420.9,212.9a3.771,3.771,0,0,0-.7-2.1l-124,71.8h0a10.892,10.892,0,0,0-.5,2.6v6L420.8,219Z"/><path class="b" d="M415.6,187.6a1.612,1.612,0,0,0-.6-1.3l-3.8-2.2a1.392,1.392,0,0,0-1.4.1L307.1,243.5a4.294,4.294,0,0,0-2,3.5V369.9a1.371,1.371,0,0,0,.6,1.3l3.8,2.2a1.392,1.392,0,0,0,1.4-.1L413.5,314a4.331,4.331,0,0,0,2-3.6V187.6Z"/><path class="r" d="M415.6,187.6a1.612,1.612,0,0,0-.6-1.3l-3.8-2.2a1.392,1.392,0,0,0-1.4.1L307.1,243.5a4.294,4.294,0,0,0-2,3.5V369.9a1.371,1.371,0,0,0,.6,1.3l3.8,2.2a1.392,1.392,0,0,0,1.4-.1L413.5,314a4.331,4.331,0,0,0,2-3.6V187.6Z"/><path class="b" d="M310.9,373.2,413.6,314a4.559,4.559,0,0,0,2-3.5V187.6c0-1.3-.9-1.8-2-1.2L311,245.7a4.294,4.294,0,0,0-2,3.5V372.1C308.9,373.4,309.8,373.9,310.9,373.2Z"/><path class="s" d="M310.9,373.2,413.6,314a4.559,4.559,0,0,0,2-3.5V187.6c0-1.3-.9-1.8-2-1.2L311,245.7a4.294,4.294,0,0,0-2,3.5V372.1C308.9,373.4,309.8,373.9,310.9,373.2Z"/><path class="b" d="M308.9,372.1a1.346,1.346,0,0,0,.5,1.2c-.7-.4-3.3-1.9-3.7-2.1a1.371,1.371,0,0,1-.6-1.3V247a3.606,3.606,0,0,1,.6-2l3.8,2.2a3.606,3.606,0,0,0-.6,2V372.1Z"/><path class="t" d="M308.9,372.1a1.346,1.346,0,0,0,.5,1.2c-.7-.4-3.3-1.9-3.7-2.1a1.371,1.371,0,0,1-.6-1.3V247a3.606,3.606,0,0,1,.6-2l3.8,2.2a3.606,3.606,0,0,0-.6,2V372.1Z"/><path class="q" d="M308.9,372.1a1.346,1.346,0,0,0,.5,1.2c-.7-.4-3.3-1.9-3.7-2.1a1.371,1.371,0,0,1-.6-1.3V247a3.606,3.606,0,0,1,.6-2l3.8,2.2a3.606,3.606,0,0,0-.6,2V372.1Z"/><path class="h" d="M346.3,279.2c-.4,11.4.3,35.9.3,35.9s12.1,3.7,20.4,2.3c8.2-1.4,25.9-13.9,25.9-13.9L390,277Z"/><path class="i" d="M374.5,314.7l2-18.7a24.95,24.95,0,0,0,10.2-11c-7,9.2-14.4,7.7-14.4,7.7v22.9A12.784,12.784,0,0,0,374.5,314.7Z"/><path class="j" d="M394.8,244.7c2-10,2.9-23.2-5.8-25.6-2.3-.6-8-.2-8-.2l-9.3.5c-5.2.7-12.5,1.7-14.4,2.2-5,1.2-6.5,9.4-8.8,27.6-1.4,11.4-2.6,20.2-2.6,31.3,9.2,8.2,37.8,5,44.4-.4C390.5,267.5,391.2,262.9,394.8,244.7Z"/><path class="h" d="M370.1,216c-.1,1.8,2,4.9,5.2,7,3.2,2.2,6,3,6.3,3.9-1.5.3-2.9,1-4,3.6-1.1,2.5-1.1,2.6-4.8,0s-7-8.5-7-10.4c0-2,2.9-5.8,4.3-5.4Z"/><path class="h" d="M381.6,227a12.383,12.383,0,0,0,2.2-5.4l.5-4.7a2.223,2.223,0,0,1,1.3.8c.4.6,2.4,4.7,2.3,6.9-.1,2.3-.6,5.3-1.4,6.6s-1.3-1-1.8-1.9C384.1,228.3,383.2,227,381.6,227Z"/><path class="h" d="M380.1,229.6s.2,8.2-.6,12.6a13.459,13.459,0,0,0,4.9-.1s-1.3,1.5-5.8.8C378.6,242.8,380,234.3,380.1,229.6Z"/><path class="i" d="M399.5,191.7a12.99,12.99,0,0,0-25.9-1l-5.9-4.2a4.89,4.89,0,0,0-3.8,1.4c-1.6,1.7-.6,6.9,1.5,12.1,0,0,2.1,9.3,3,10.8a4.064,4.064,0,0,0,2.5,1.9l-.2-5.7,23.6-1.7-2.3-1.7A12.671,12.671,0,0,0,399.5,191.7Z"/><path class="m" d="M370.2,200.4c-.7.5-1.4-1.1-2.8-1.9-1.2-.7-3.8-1.9-5.5,1-1.8,3.1,1.5,7.4,3.8,8.2,3.5,1.3,4.7-1.4,4.7-1.4l-.7,14.5c4.7,8.6,18.7,8.1,14,.9l.6-5.6a26.731,26.731,0,0,0,5.6.2c3-.5,4.9-2.9,5.8-6.2,1.4-5.3,1.9-9.5.5-19.9-1.5-11.3-14.7-11.2-21.8-6.7C367.4,188,370.2,200.4,370.2,200.4Z"/><path class="i" d="M399.1,179.5a5.036,5.036,0,0,0-3.2-.4,3.976,3.976,0,0,0-2.3-3.9,4.443,4.443,0,0,0-4.9.7,2.365,2.365,0,0,0-1.9-2.6,7.024,7.024,0,0,0-3.5.6c-1.7.6-3.3,1.3-5,1.9-3,1-6.1,1.6-8.8,3.2a7.942,7.942,0,0,0-1.7,1.4,4.345,4.345,0,0,0-.7,2.9c0,.3.1.7.1,1a3.039,3.039,0,0,0-.7-.5,2.537,2.537,0,0,0-3.4,1.1.1.1,0,0,1-.1.1l4.5,2.3-.3,2.7c-.2,2.4-.7,5.2-.2,7.5a1.136,1.136,0,0,0,.3.8,12.521,12.521,0,0,1,2.3,2.3,4.036,4.036,0,0,0,1.3,1.3,1.189,1.189,0,0,0,1.5-.7,3.749,3.749,0,0,0,.1-1.1l-.4-4.4a2.462,2.462,0,0,1,.1-1.2,2.345,2.345,0,0,1,1.1-1.1,5.435,5.435,0,0,0,1.8-3.5,6.151,6.151,0,0,1,.1-1.3c.1-.3.3-.8.7-.8.7,0,4.4.8,5.4.9,4.9.7,10.2.8,14.5-1.6,1.7-.9,4.5-2.9,4.8-5A2.721,2.721,0,0,0,399.1,179.5Z"/><path class="l" d="M384.4,216s-6.8-1.3-9.2-2.5a7.3,7.3,0,0,1-3.3-3.2,10.457,10.457,0,0,0,1.9,3.8c1.8,2.2,10.4,3.7,10.4,3.7Z"/><path class="i" d="M384.1,199.1a1.251,1.251,0,0,1-2.5-.1,1.24,1.24,0,0,1,1.3-1.2,1.309,1.309,0,0,1,1.2,1.3Z"/><path class="i" d="M381.6,194.4l-3,1.4a1.658,1.658,0,1,1,3-1.4Z"/><path class="u" d="M381.7,207.1l5.4,1.9a2.865,2.865,0,0,1-3.5,1.9h-.1A2.927,2.927,0,0,1,381.7,207.1Z"/><path class="l" d="M385.1,210.9a2.8,2.8,0,0,0-3.1-2.4.367.367,0,0,0-.3.1,2.849,2.849,0,0,0,1.9,2.2A2.376,2.376,0,0,0,385.1,210.9Z"/><path class="i" d="M395.7,195.4l-2.9-1.5a1.528,1.528,0,0,1,2.1-.7h.1A1.642,1.642,0,0,1,395.7,195.4Z"/><path class="i" d="M394.3,198.9a1.24,1.24,0,0,1-1.2,1.3h0a1.351,1.351,0,1,1,1.3-1.5.31.31,0,0,0-.1.2Z"/><path class="l" d="M387.8,198.2l.2,8.2,4.9-1.2Z"/><path class="b" d="M423.2,318.3c0,.1-.1.1-.1.2L371,302a9.068,9.068,0,0,0-11.3,3.5L304,388.3l-2.1,1.2h0a1.839,1.839,0,0,1-1.6.2l57.3-85.4a9.068,9.068,0,0,1,11.3-3.5Z"/><path class="v" d="M354.5,313.5l.1-.1-50.7,74.8-2.1,1.2h0a1.839,1.839,0,0,1-1.6.2l52.3-77.3Z"/><path class="v" d="M423.2,318.3c0,.1-.1.1-.1.2L371,302a9.068,9.068,0,0,0-11.3,3.5l-2.1-1.2a9.068,9.068,0,0,1,11.3-3.5Z"/><path class="b" d="M426.3,224.2h0c-.1-.7-.5-.9-.9-.5l-.6.6-.3.4L373,302.9l-7.7,10.7a4.261,4.261,0,0,1-4.2,1.6l-6.6-1.6L303.9,295a1.7,1.7,0,0,0-1,0c-.1,0-.3.1-.4.1l1.9-1.1,48.5,17.8,6.4,2.3a4.261,4.261,0,0,0,4.2-1.6l7.7-10.7,51.7-78.6a2.652,2.652,0,0,1,.6-.5l-4.5-2.6,1.9-1.1,3.1,1.8A4.638,4.638,0,0,1,426.3,224.2Z"/><path class="v" d="M373.1,302.8l-7.7,10.7a4.261,4.261,0,0,1-4.2,1.6l-6.6-1.6.1-.1.3-.5,4.3,1a4.261,4.261,0,0,0,4.2-1.6l7.6-10.6Z"/><path class="o" d="M424,220.7l-3.1-1.8L419,220l4.5,2.6h0a2.652,2.652,0,0,0-.6.5l-51.7,78.6-.1.1h0l1.9,1,51.4-78.2.3-.4.6-.6c.5-.3.8-.1.9.5h0A4.908,4.908,0,0,0,424,220.7Z"/><path class="b" d="M304.9,296.4l-11-6.4v95a5.216,5.216,0,0,0,2.4,4.1l2.7,1.5a5.522,5.522,0,0,0,4.7,0l1.3-.8V296.4Z"/><path class="w" d="M304.9,296.4l-11-6.4v95a5.216,5.216,0,0,0,2.4,4.1l2.7,1.5a5.522,5.522,0,0,0,4.7,0l1.3-.8V296.4Z"/><path class="b" d="M426.4,224.8v92.3a5.133,5.133,0,0,1-.7,2.4,5.211,5.211,0,0,1-1.4,1.6h-.1l-.1.1L303.7,390.7h0a1.839,1.839,0,0,1-1.6.2,1.357,1.357,0,0,1-.7-1.1V297a2.1,2.1,0,0,1,1.9-2.2,1.7,1.7,0,0,1,.7.1l50.6,18.6,6.6,1.6a4.261,4.261,0,0,0,4.2-1.6l7.7-10.7,51.5-78.2.3-.4C425.7,223,426.4,223.3,426.4,224.8Z"/><path class="b" d="M424,321.1c.1,0,.1-.1.2-.1l.1-.1a5.017,5.017,0,0,0,1.4-1.5,4.756,4.756,0,0,0,.7-2.3l-53.3-14.3,35.7,27.1Z"/><path class="f" d="M424,321.1c.1,0,.1-.1.2-.1l.1-.1a5.017,5.017,0,0,0,1.4-1.5,4.756,4.756,0,0,0,.7-2.3l-53.3-14.3,35.7,27.1Z"/><path class="b" d="M301.3,389.3a1.488,1.488,0,0,0,.7,1.5,1.566,1.566,0,0,0,1.6-.2h0l41.5-23.9,9.5-53.2-53.2,74.2Z"/><path class="w" d="M359.6,305.4,302,390.8a1.488,1.488,0,0,1-.7-1.5v-1.5l56.3-83.5h0Z"/><path class="b" d="M425.6,319.4a4.009,4.009,0,0,1-1.4,1.5l-.1.1L303.5,390.6h0a1.839,1.839,0,0,1-1.6.2l57.6-85.4a9.068,9.068,0,0,1,11.3-3.5Z"/><path class="w" d="M294.3,281.5l1.9,1.1a10.892,10.892,0,0,0-.5,2.6v6l-1.9-1.1v-6A19.973,19.973,0,0,1,294.3,281.5Z"/><path class="b" d="M304.4,293.9l-1.9,1.1-1.9-1.1-4.8-2.8,1.8-1.1Z"/><path class="o" d="M304.5,293.9l-6.8-3.9-1.8,1.1,4.7,2.7,1.9,1.1h0c.1-.1.2-.1.4-.1a3.352,3.352,0,0,1,1,0l3.8,1.4,44.2,16.3.7-1Z"/><path class="m" d="M357.2,221.5c-6.1.4-10.3,1.9-14.3,11.4-2.6,6.1-12.6,28.2-13.5,31.9-1.1,4.3-3.7,36.8-3.7,36.8l5.9,2.2s-2,7-3.7,11c-2,4.6,7.6,3.7,10.6-.5s5.1-9.8,3.5-11.8a31.247,31.247,0,0,0-4.6-4.3l6.4-29,13.4-28.6S363.9,226.6,357.2,221.5Z"/><path class="l" d="M337.3,298.2a13.829,13.829,0,0,0-5.9-1.7,10.9,10.9,0,0,1,6.2,0Z"/><path class="h" d="M358.6,221.3c-3.4,0-9.9-.2-14,7.3-4.2,7.5-10,21.8-10,21.8s2.4,6,15.5,7.3l10-21.4C360.1,236.4,362.6,226.6,358.6,221.3Z"/><path class="m" d="M403.1,226.2c5.2,4.1,13.6,10.5,17.7,13.1,3.1-3.7,8.8-11.3,10.1-12.9,1.8-2.1,7.3-5.5,7.3-5.5l2.1,8.4s-10.5,19.4-14.3,22.9c-4,3.8-6.9,2.2-14.7-1.4-7.4-3.4-15.4-7.6-15.4-7.6,1.6-14.1.5-21.7-6.2-24.1C394.1,219.6,398.7,222.8,403.1,226.2Z"/><path class="h" d="M416.6,236.5c-2.7.7-8.3,8.7-7.3,13.7l-14.2-7c1.7-9.7,2.1-21.7-6.1-24a9.863,9.863,0,0,0-2.4-.3h0c4.1-.4,6.8-.3,11,2.9C401.9,225,416.6,236.5,416.6,236.5Z"/><path class="l" d="M420.7,239.3c-2,1.8-2.7,5-3.1,6.3a11.229,11.229,0,0,1,1.9-7.1Z"/><path class="h" d="M440.6,211.4l4.9-3s.6,26.4.6,27.2a2.7,2.7,0,0,0,1,1.7l-4.9,3a2.7,2.7,0,0,1-1-1.7C441.1,237.8,440.6,211.4,440.6,211.4Z"/><path class="m" d="M445.7,219.4s1.4.3,1.9,2.5.8,6.3-.4,7.7c-1.3,1.4-3,2-4.1,1.4-2.1-.9-1.4-5.2.2-6.2,2.7-1.6,2.4-3.3,2.4-3.3Z"/><path class="j" d="M434.6,211.5l2.2,2.6.4,18.6-2.2,3.6,7.2,4a2.7,2.7,0,0,1-1-1.7l-.5-23.8Z"/><path class="e" d="M434.9,236.3v1.1l7.3,4v-1.1Z"/><path class="e" d="M442.2,241.4l4.9-2.9v-1.2l-4.9,3Z"/><path class="o" d="M442.2,241.4l4.9-2.9v-1.2l-4.9,3Z"/><path class="e" d="M436,198.6h0a3.332,3.332,0,0,0-3.1,1.3h0a10.1,10.1,0,0,0-2.1,9v.1a3.273,3.273,0,0,0,2.3,2.5h0l4.2,1,2.6-12.9Z"/><path class="t" d="M436,198.6h0a3.332,3.332,0,0,0-3.1,1.3h0a10.1,10.1,0,0,0-2.1,9v.1a3.273,3.273,0,0,0,2.3,2.5h0l4.2,1,2.6-12.9Z"/><path class="q" d="M433.1,211.4h0l4.2,1,.9-4.3-7.7-1.8a10.68,10.68,0,0,0,.3,2.5v.1C431.3,210.4,432.1,211.3,433.1,211.4Z"/><path class="e" d="M444.5,199h0a3.824,3.824,0,0,0-3.4,1.2l-.4.4a2.182,2.182,0,0,0-.4.5l-.6.9a7.571,7.571,0,0,0-.9,1.8,13.09,13.09,0,0,0-1,5.5,7.457,7.457,0,0,0,.4,2.6,4.212,4.212,0,0,0,2.6,3.1l-4-.9h0a4.875,4.875,0,0,1-3.2-3.2,10.855,10.855,0,0,1-.4-2.5,15.028,15.028,0,0,1,1-5.6l.9-1.8.6-.9c.1-.2.3-.3.4-.5l.4-.4a4.357,4.357,0,0,1,3.9-1.1h.2Z"/><path class="o" d="M436.8,214h0a4.875,4.875,0,0,1-3.2-3.2,10.855,10.855,0,0,1-.4-2.5l4.6.9a7.457,7.457,0,0,0,.4,2.6,4.212,4.212,0,0,0,2.6,3.1Z"/><path class="e" d="M447.3,202.1a12.844,12.844,0,0,1-2.6,11.3c-1.3,1.4-2.6,1.9-3.8,1.6h-.1a4.033,4.033,0,0,1-2.6-3.1,12.844,12.844,0,0,1,2.6-11.3c1.3-1.4,2.6-1.9,3.8-1.6C445.7,199.2,446.7,200.3,447.3,202.1Z"/><path class="f" d="M447.3,202.1a12.844,12.844,0,0,1-2.6,11.3c-1.3,1.4-2.6,1.9-3.8,1.6h-.1a4.033,4.033,0,0,1-2.6-3.1,12.844,12.844,0,0,1,2.6-11.3c1.3-1.4,2.6-1.9,3.8-1.6C445.7,199.2,446.7,200.3,447.3,202.1Z"/><path class="e" d="M464,196s-4.7,4.6-7,14.3a45.066,45.066,0,0,0-.9,5.3,27.4,27.4,0,0,0,.8,10.6c-2.9-3.6-6.3-7.2-10.7-9.4-1.7-.8-3.5-1.6-5.3-2.3h0a3.782,3.782,0,0,1-2.5-2.8,13.425,13.425,0,0,1-.4-3.5,8.525,8.525,0,0,1,.3-2.3,11.635,11.635,0,0,1,2.6-5.2,3.541,3.541,0,0,1,3.4-1.4h0a56.33,56.33,0,0,0,5.8.3C455.2,199.6,459.8,197.9,464,196Z"/><path class="t" d="M464,196s-4.7,4.6-7,14.3a45.066,45.066,0,0,0-.9,5.3,27.4,27.4,0,0,0,.8,10.6c-2.9-3.6-6.3-7.2-10.7-9.4-1.7-.8-3.5-1.6-5.3-2.3h0a3.782,3.782,0,0,1-2.5-2.8,13.425,13.425,0,0,1-.4-3.5,8.525,8.525,0,0,1,.3-2.3,11.635,11.635,0,0,1,2.6-5.2,3.541,3.541,0,0,1,3.4-1.4h0a56.33,56.33,0,0,0,5.8.3C455.2,199.6,459.8,197.9,464,196Z"/><path class="q" d="M456.2,215.6a27.4,27.4,0,0,0,.8,10.6c-2.9-3.6-6.3-7.2-10.7-9.4-1.7-.8-3.5-1.6-5.3-2.3h0a3.782,3.782,0,0,1-2.5-2.8,13.425,13.425,0,0,1-.4-3.5C443,209.1,451.1,211,456.2,215.6Z"/><path class="e" d="M477,200.7a27.341,27.341,0,0,1,.5,12.4h0c-1,5.5-3.3,10.9-6.7,14.5-6,6.4-13,4.8-15.5-3.6a21.627,21.627,0,0,1-.9-6.2,31.865,31.865,0,0,1,3.9-16,12.226,12.226,0,0,1,1.2-1.9l.5-.7h0a8.745,8.745,0,0,1,.8-1c.3-.3.6-.7.9-1C467.5,190.7,474.4,192.3,477,200.7Z"/><path class="o" d="M477.5,213.1c-1,5.5-3.3,10.9-6.7,14.5-6,6.4-13,4.8-15.5-3.6a21.627,21.627,0,0,1-.9-6.2h0c.8.9,3.1,2,3.5.6a20.317,20.317,0,0,0,.8,5.5,9.592,9.592,0,0,0,3.3,5.2,4.933,4.933,0,0,0,4.1.6,11.153,11.153,0,0,0,4.4-3,26.594,26.594,0,0,0,6-12.5C476.4,214.2,477,214.5,477.5,213.1Z"/><path class="e" d="M476.2,201.5a27.081,27.081,0,0,1,.2,12.7,26.594,26.594,0,0,1-6,12.5,10.205,10.205,0,0,1-4.4,3,4.312,4.312,0,0,1-4.1-.6,10.191,10.191,0,0,1-3.3-5.2,20.9,20.9,0,0,1-.8-5.5v-2.3a27.333,27.333,0,0,1,.5-4c.1-.3.1-.5.2-.8.1-.5.2-.9.3-1.4a39.558,39.558,0,0,1,1.5-4.5v-.1c.4-.9.8-1.8,1.3-2.7a17.393,17.393,0,0,1,1.1-1.8l.5-.7c.2-.3.4-.5.6-.8a4.349,4.349,0,0,1,.6-.7,10.205,10.205,0,0,1,4.4-3C472.1,194.8,474.9,196.9,476.2,201.5Z"/><path class="x" d="M476.2,201.5a27.081,27.081,0,0,1,.2,12.7,26.594,26.594,0,0,1-6,12.5,10.205,10.205,0,0,1-4.4,3,4.312,4.312,0,0,1-4.1-.6,10.191,10.191,0,0,1-3.3-5.2,20.9,20.9,0,0,1-.8-5.5v-2.3a27.333,27.333,0,0,1,.5-4c.1-.3.1-.5.2-.8.1-.5.2-.9.3-1.4a39.558,39.558,0,0,1,1.5-4.5v-.1c.4-.9.8-1.8,1.3-2.7a17.393,17.393,0,0,1,1.1-1.8l.5-.7c.2-.3.4-.5.6-.8a4.349,4.349,0,0,1,.6-.7,10.205,10.205,0,0,1,4.4-3C472.1,194.8,474.9,196.9,476.2,201.5Z"/><path class="e" d="M465.7,207l-2,10.1a53.592,53.592,0,0,0-5.8-.1v-.7a27.333,27.333,0,0,1,.5-4c.1-.3.1-.5.2-.8.1-.5.2-.9.3-1.4a39.558,39.558,0,0,1,1.5-4.5v-.1l.3-.6A32.647,32.647,0,0,0,465.7,207Z"/><g class="y"><path class="z" d="M465.7,207l-2,10.1a53.592,53.592,0,0,0-5.8-.1v-.7a27.333,27.333,0,0,1,.5-4c.1-.3.1-.5.2-.8.1-.5.2-.9.3-1.4a39.558,39.558,0,0,1,1.5-4.5v-.1l.3-.6A32.647,32.647,0,0,0,465.7,207Z"/></g><path class="e" d="M464,216.9c-1,.3-1.9-.3-2.4-1.8h0a8.177,8.177,0,0,1,1.6-7.1h0a3.805,3.805,0,0,1,1.3-.9c1-.3,1.9.3,2.4,1.8h0a8.177,8.177,0,0,1-1.6,7.1h0a3.045,3.045,0,0,1-1.3.9Z"/><g class="aa"><path class="z" d="M464,216.9c-1,.3-1.9-.3-2.4-1.8h0a8.177,8.177,0,0,1,1.6-7.1h0a3.805,3.805,0,0,1,1.3-.9c1-.3,1.9.3,2.4,1.8h0a8.177,8.177,0,0,1-1.6,7.1h0a3.045,3.045,0,0,1-1.3.9Z"/></g><path class="d" d="M461.6,191a1.081,1.081,0,0,1-1.4-.7h0l-3.1-10.1a1.065,1.065,0,0,1,.8-1.3,1.209,1.209,0,0,1,1.3.7l3.1,10.1a1.015,1.015,0,0,1-.7,1.3Z"/><path class="d" d="M453.2,196.2a1.389,1.389,0,0,1-1.1-.2l-7.7-7.2a1.007,1.007,0,0,1-.1-1.5,1.093,1.093,0,0,1,1.5-.1l.1.1,7.7,7.2a1.093,1.093,0,0,1,.1,1.5h0C453.5,196.1,453.4,196.2,453.2,196.2Z"/><path class="d" d="M458.4,247.7h-.6a1,1,0,0,1-.8-1.3l2.4-10.3a1.118,1.118,0,1,1,2.2.4v.1l-2.4,10.3A1.085,1.085,0,0,1,458.4,247.7Z"/><path class="d" d="M477.6,243.4a1.081,1.081,0,0,1-1.4-.7l-3.1-10.1a1.077,1.077,0,0,1,2-.8v.2l3.1,10.1A.961.961,0,0,1,477.6,243.4Z"/><path class="d" d="M488.9,229.6a1.389,1.389,0,0,1-1.1-.2l-7.7-7.2a1.088,1.088,0,0,1,0-1.5,1.071,1.071,0,0,1,1.4-.1l7.7,7.2a1.093,1.093,0,0,1,.1,1.5h0A.446.446,0,0,1,488.9,229.6Z"/><path class="d" d="M496.1,216.1h-.6l-10.3-2.4a1.065,1.065,0,0,1-.8-1.3,1,1,0,0,1,1.3-.8h0L496,214a1.065,1.065,0,0,1,.8,1.3c0,.3-.3.6-.7.8Z"/><path class="d" d="M495.6,200.7l-10.1,3.1a1.081,1.081,0,0,1-1.4-.7h0a1.081,1.081,0,0,1,.7-1.4l10.1-3.1a1.065,1.065,0,0,1,1.3.8.961.961,0,0,1-.6,1.3Z"/><path class="d" d="M480.3,195.3a1.081,1.081,0,0,1-1.4-.7,1.389,1.389,0,0,1,.2-1.1l7.2-7.7a1.063,1.063,0,1,1,1.6,1.4l-7.2,7.7C480.6,195.2,480.5,195.3,480.3,195.3Z"/><path class="d" d="M471.5,190.7h-.6a1,1,0,0,1-.8-1.3h0l2.4-10.3a1.118,1.118,0,1,1,2.2.4v.1l-2.4,10.3A1.549,1.549,0,0,1,471.5,190.7Z"/><path class="m" d="M430.9,226.3c2.1-2.6,2.2-4.3,3.8-5.6s3.3-1.4,5.7-.7c1.8.5,3.9.3,4.7.9.2.1-.1,1.3-1,1.7a9.984,9.984,0,0,1-3.9.4c-2.8,0-.5,2.7-3.2,5.5C435.8,230.6,430.9,226.3,430.9,226.3Z"/></g></svg>