<svg xmlns="http://www.w3.org/2000/svg" xmlns:xlink="http://www.w3.org/1999/xlink" width="617.4" height="394.945" viewBox="0 0 617.4 394.945"><defs><style>.a{fill:#e0e0e0;}.b{fill:#455a64;}.c{fill:#263238;}.d{fill:#ebebeb;}.e{fill:#f5f5f5;}.f{fill:#ff3600;}.g{clip-path:url(#a);}.h{fill:none;}.i{opacity:0.3;}.j{fill:#ffbe9d;}.k{fill:#eb996e;}.l{fill:#06826a;}.m{fill:#fff;}.n{opacity:0.4;}</style><clipPath id="a"><path d="M205.6,242.3a2.555,2.555,0,1,1-4.4,2.6,2.441,2.441,0,0,1,0-2.6h-2.9a2.836,2.836,0,0,1,.4,1.3,2.55,2.55,0,1,1-5.1.1,2.01,2.01,0,0,1,.4-1.3h-3a2.836,2.836,0,0,1,.4,1.3,2.55,2.55,0,1,1-5.1.1,2.01,2.01,0,0,1,.4-1.3h-2.9a2.836,2.836,0,0,1,.4,1.3,2.554,2.554,0,0,1-5.1.3v-.3a2.01,2.01,0,0,1,.4-1.3h-2.9a2.555,2.555,0,0,1-4.4,2.6,3.258,3.258,0,0,1-.4-1.3,2.01,2.01,0,0,1,.4-1.3H169a2.555,2.555,0,0,1-4.4,2.6,2.441,2.441,0,0,1,0-2.6h-1.9V295h43.8V242.3Z"/></clipPath></defs><g transform="translate(-76.9 -70.995)"><path class="a" d="M626.5,143l-2.7-5.2c-21.5-41-63.9-67.2-110.2-66.8a104.082,104.082,0,0,0-15.8,1.2c-42,5.9-80.1,34.4-97.8,73-10.4,22.7-14.6,49.3-32.6,66.7-23.3,22.6-60.2,20.8-92.5,17.6s-69.2-4.9-92.4,17.8C168,261.6,151,299.7,150.7,320c-.8,53.8,36.4,105.8,86.5,125.5,52.6,20.7,114,24.1,167.4,17.2,74.8-9.7,141.8-47.1,188.2-106.6S655.7,212.5,626.5,143Z"/><path class="b" d="M459.1,329.8a16.4,16.4,0,0,1,16-13.8c34.5-.5,122.5-1.3,127.2,2.5,5.9,4.7,9,7.1,8.5,14.5-.4,6.8-7.8,124.3-7.8,124.3H438.4Z"/><path class="c" d="M584.2,457.4V457a3.752,3.752,0,0,0-.1-1q-.15-1.35-.3-3.9c-.1-1.7-.3-3.8-.3-6.2s-.2-5.2-.2-8.2v-4.8c0-1.7,0-3.4.1-5.2,0-3.6.2-7.4.4-11.5.5-8.1,1.2-16.9,2.5-26.1s2.9-18,4.6-25.9c.9-3.9,1.8-7.7,2.7-11.1.5-1.7.9-3.4,1.3-5s.9-3.1,1.3-4.6c.8-2.9,1.7-5.5,2.4-7.9s1.4-4.3,2-5.9,1-2.8,1.3-3.7l.4-1a.774.774,0,0,0,.1-.3.367.367,0,0,1-.1.3l-.3,1c-.3.9-.7,2.1-1.2,3.7s-1.2,3.6-1.9,5.9-1.6,4.9-2.3,7.9c-.4,1.5-.8,3-1.3,4.6s-.8,3.3-1.3,5c-.9,3.5-1.7,7.2-2.6,11.1-1.7,7.9-3.3,16.6-4.6,25.8s-2,18-2.5,26.1c-.2,4-.4,7.9-.4,11.4,0,1.8-.1,3.5-.1,5.2v4.8c0,3,.1,5.8.2,8.2s.2,4.5.2,6.2.2,3,.2,3.9v1A.987.987,0,0,0,584.2,457.4Z"/><path class="c" d="M491.6,375.2a.774.774,0,0,0,.3-.1h.8a3.343,3.343,0,0,1,2.4,1.4,4.019,4.019,0,0,1,.2,4.1,4.944,4.944,0,0,1-1.6,1.9,5.813,5.813,0,0,1-2.5.9,3.946,3.946,0,0,1-2.6-.7,3.754,3.754,0,0,1-1.4-2.1,4.4,4.4,0,0,1,1.3-3.9c1.9-1.6,3.5-1.6,3.5-1.5s-.2,0-.4,0a1.445,1.445,0,0,0-.7.2,5.414,5.414,0,0,0-2.2,1.5,4,4,0,0,0-1,3.6,2.787,2.787,0,0,0,1.2,1.8,3.8,3.8,0,0,0,2.3.6,4.006,4.006,0,0,0,2.3-.8,4.978,4.978,0,0,0,1.5-1.7,3.4,3.4,0,0,0-2.2-5.1A5.284,5.284,0,0,0,491.6,375.2Z"/><path class="c" d="M517.5,360.3c0,.1-1.7-.2-4.4,0A20.145,20.145,0,0,0,496.5,372c-1.2,2.5-1.5,4.2-1.6,4.1a5.019,5.019,0,0,1,.2-1.2,16.042,16.042,0,0,1,1-3.1A19.973,19.973,0,0,1,513,359.9a18.211,18.211,0,0,1,3.3.1Z"/><path class="c" d="M469.7,390.9a3.553,3.553,0,0,1,.4-.9,13.655,13.655,0,0,1,1.5-2.1,15.583,15.583,0,0,1,15.2-5.2,11.276,11.276,0,0,1,2.4.8,5.937,5.937,0,0,1,.8.4,28.221,28.221,0,0,0-3.3-.8,15.876,15.876,0,0,0-14.8,5.1A23.671,23.671,0,0,0,469.7,390.9Z"/><path class="c" d="M501.6,394.9a6.569,6.569,0,0,1-1.7-1.2,15.538,15.538,0,0,1-3.3-3.9,19.154,19.154,0,0,1-2.1-4.6,4.767,4.767,0,0,1-.4-2,36.38,36.38,0,0,0,3,6.3A29.338,29.338,0,0,0,501.6,394.9Z"/><path class="c" d="M547.2,376.6a.774.774,0,0,0,.3-.1h.8a3.343,3.343,0,0,1,2.4,1.4,4.277,4.277,0,0,1,.3,4.1,4.945,4.945,0,0,1-1.6,1.9,5.813,5.813,0,0,1-2.5.9,3.945,3.945,0,0,1-2.6-.7,3.755,3.755,0,0,1-1.4-2.1,4.247,4.247,0,0,1,1.3-4c1.8-1.6,3.5-1.6,3.5-1.5s-.3,0-.5.1a1.445,1.445,0,0,0-.7.2,5.415,5.415,0,0,0-2.2,1.5,4,4,0,0,0-1,3.6,2.787,2.787,0,0,0,1.2,1.8,3.8,3.8,0,0,0,2.3.6,4.006,4.006,0,0,0,2.3-.8,4.978,4.978,0,0,0,1.5-1.7,3.4,3.4,0,0,0-2.2-5.1A5.284,5.284,0,0,0,547.2,376.6Z"/><path class="c" d="M573,361.7c0,.1-1.7-.2-4.4,0A20.375,20.375,0,0,0,552,373.3c-1.2,2.5-1.5,4.2-1.6,4.1a5.018,5.018,0,0,1,.2-1.2,16.04,16.04,0,0,1,1-3.1,19.846,19.846,0,0,1,16.9-11.9,18.211,18.211,0,0,1,3.3.1C572.2,361.5,572.6,361.5,573,361.7Z"/><path class="c" d="M525.3,392.2a3.551,3.551,0,0,1,.4-.9,13.659,13.659,0,0,1,1.5-2.1,15.656,15.656,0,0,1,15.2-5.2,11.278,11.278,0,0,1,2.4.8,5.939,5.939,0,0,1,.8.4c0,.1-1.2-.5-3.3-.9a15.876,15.876,0,0,0-14.8,5.1C526,391.1,525.4,392.3,525.3,392.2Z"/><path class="c" d="M557.2,396.3a6.57,6.57,0,0,1-1.7-1.2,15.537,15.537,0,0,1-3.3-3.9,19.153,19.153,0,0,1-2.1-4.6,6.465,6.465,0,0,1-.4-2,36.38,36.38,0,0,0,3,6.3A29.337,29.337,0,0,0,557.2,396.3Z"/><path class="d" d="M294.2,204l.1,2.7a2.269,2.269,0,0,1,3.3.1,2.035,2.035,0,0,1,.6,1.5,2.279,2.279,0,0,1-3.7,2l.1,2.7a2.035,2.035,0,0,1,1.5-.6,2.355,2.355,0,1,1,.3,4.7,1.964,1.964,0,0,1-1.5-.5l.1,2.7a2.035,2.035,0,0,1,1.5-.6,2.348,2.348,0,0,1,2.4,2.3,2.388,2.388,0,0,1-2.1,2.4,2.1,2.1,0,0,1-1.5-.5l.1,2.7a2.035,2.035,0,0,1,1.5-.6,2.348,2.348,0,0,1,2.4,2.3,2.388,2.388,0,0,1-2.1,2.4,1.964,1.964,0,0,1-1.5-.5l.1,2.7a2.335,2.335,0,1,1,.2,3.6l.1,2.7a2.035,2.035,0,0,1,1.5-.6,2.348,2.348,0,0,1,2.4,2.3,2.388,2.388,0,0,1-2.1,2.4,1.964,1.964,0,0,1-1.5-.5l.1,1.7,72.1-1.7-3.6-42Z"/><path class="e" d="M292.6,202.2l.1,2.7a2.035,2.035,0,0,1,1.5-.6,2.355,2.355,0,1,1-1.3,4.2l.1,2.7a2.269,2.269,0,0,1,3.3.1,2.035,2.035,0,0,1,.6,1.5,2.279,2.279,0,0,1-3.7,2l.1,2.7a2.035,2.035,0,0,1,1.5-.6,2.355,2.355,0,1,1,.3,4.7,1.964,1.964,0,0,1-1.5-.5l.1,2.7a2.035,2.035,0,0,1,1.5-.6,2.348,2.348,0,0,1,2.4,2.3,2.388,2.388,0,0,1-2.1,2.4,2.1,2.1,0,0,1-1.5-.5l.1,2.7a2.035,2.035,0,0,1,1.5-.6,2.348,2.348,0,0,1,2.4,2.3,2.388,2.388,0,0,1-2.1,2.4,1.964,1.964,0,0,1-1.5-.5l.1,2.7a2.335,2.335,0,1,1,.2,3.6l.1,1.7,72.1-3.9-2.1-39.2Z"/><path class="a" d="M365.1,206.1c0,.1-16.1,1.1-36,2.2s-36,1.8-36,1.7,16.1-1.1,36-2.2S365.1,206,365.1,206.1Z"/><path class="a" d="M365.5,212.4c0,.1-16.1,1.1-36,2.2s-36,1.8-36,1.7,16.1-1.1,36-2.2S365.4,212.3,365.5,212.4Z"/><path class="a" d="M365.8,218.7c0,.1-16.1,1.1-36,2.2s-36,1.8-36,1.7,16.1-1.1,36-2.2S365.8,218.5,365.8,218.7Z"/><path class="a" d="M366.1,225c0,.1-16.1,1.1-36,2.2s-36,1.8-36,1.7,16.1-1.1,36-2.2S366.1,224.8,366.1,225Z"/><path class="a" d="M366.5,231.2c0,.1-16.1,1.1-36,2.2s-36,1.8-36.1,1.7,16.1-1.1,36-2.2S366.5,231.1,366.5,231.2Z"/><rect class="f" width="0.5" height="39.3" transform="translate(302.361 201.749) rotate(-3.06)"/><path class="a" d="M311.3,240.6c-.1,0-.7-8.8-1.3-19.6s-.9-19.6-.8-19.6.7,8.8,1.3,19.6S311.4,240.6,311.3,240.6Z"/><path class="a" d="M298.4,241.2c-.1,0-.7-8.8-1.3-19.6s-.9-19.7-.8-19.7.7,8.8,1.3,19.6S298.6,241.2,298.4,241.2Z"/><path class="a" d="M318.3,240.2c-.1,0-.7-8.8-1.3-19.6s-.9-19.6-.8-19.6.7,8.8,1.3,19.6S318.4,240.2,318.3,240.2Z"/><path class="a" d="M325.3,239.8c-.1,0-.7-8.8-1.3-19.6s-.9-19.6-.8-19.6.7,8.8,1.3,19.6S325.5,239.8,325.3,239.8Z"/><path class="a" d="M332.4,239.4c-.1,0-.7-8.8-1.3-19.6s-.9-19.6-.8-19.6.7,8.8,1.3,19.6S332.5,239.4,332.4,239.4Z"/><path class="a" d="M339.4,239.1c-.1,0-.7-8.8-1.3-19.6s-.9-19.6-.8-19.6.7,8.8,1.3,19.6S339.5,239.1,339.4,239.1Z"/><path class="a" d="M346.4,238.7c-.1,0-.7-8.8-1.3-19.6s-.9-19.6-.8-19.6.7,8.8,1.3,19.6S346.5,238.7,346.4,238.7Z"/><path class="a" d="M353.4,238.3c-.1,0-.7-8.8-1.3-19.6s-.9-19.6-.8-19.6.7,8.8,1.3,19.6S353.6,238.3,353.4,238.3Z"/><path class="a" d="M360.5,237.9c-.1,0-.7-8.8-1.3-19.6s-.9-19.6-.8-19.6.7,8.8,1.3,19.6S360.6,237.9,360.5,237.9Z"/><path class="c" d="M359.6,214.2a.9.9,0,0,1-.5.1l-1.5.1-5.4.4c-4.6.3-10.9.6-17.9,1s-13.3.6-17.9.8-7.4.2-7.4,0l25.3-1.3,17.9-.8,5.4-.2h1.5C359.2,214.1,359.4,214.1,359.6,214.2Z"/><path class="c" d="M361,221.3c0,.1-11.6.8-26,1.4s-26,1.1-26,.9,11.6-.8,26-1.4S361,221.2,361,221.3Z"/><path class="c" d="M361.8,227.6c0,.1-11.6.8-26,1.5s-26,1.1-26,.9,11.6-.8,26-1.4S361.8,227.5,361.8,227.6Z"/><path class="a" d="M300.7,206.3a6.305,6.305,0,0,0,2.3,4,4.1,4.1,0,1,0,4.6-6.8,4.007,4.007,0,0,0-3.2-.6"/><path class="b" d="M300.5,206.3a3.306,3.306,0,1,0,3.1-3.5h0A3.4,3.4,0,0,0,300.5,206.3Z"/><path class="b" d="M298.6,205.1a1.979,1.979,0,0,0,3.9-.2,1.966,1.966,0,0,0-3.9-.5C298.6,204.6,298.6,204.9,298.6,205.1Z"/><path class="c" d="M300.5,206.9c0-.1.3-.1.7-.2a1.981,1.981,0,0,0,1.1-1.1,2.22,2.22,0,0,0-.1-1.6,2.476,2.476,0,0,0-.4-.6.946.946,0,0,1,.7.4,1.911,1.911,0,0,1,.3,1.9,1.994,1.994,0,0,1-1.5,1.3C300.7,207.2,300.5,207,300.5,206.9Z"/><path class="c" d="M302.1,203.8c.1-.1.6,0,1.1-.1s.9-.5,1-.4-.1.7-.9.9S302,203.9,302.1,203.8Z"/><path class="c" d="M302.6,208.8c-.1,0-.3-.6-.8-1.1s-1.1-.6-1.1-.7.8-.3,1.5.4S302.8,208.8,302.6,208.8Z"/><path class="a" d="M356.1,204a6.305,6.305,0,0,0,2.3,4,4.1,4.1,0,1,0,4.6-6.8,4.007,4.007,0,0,0-3.2-.6"/><path class="f" d="M362.4,203.1a3.154,3.154,0,1,1-6.3.3,3.136,3.136,0,0,1,3-3.3,3.2,3.2,0,0,1,3.3,3Z"/><path class="f" d="M364.1,201.8a1.9,1.9,0,1,1-3.8.2,1.894,1.894,0,0,1,1.8-2,1.838,1.838,0,0,1,2,1.8Z"/><path class="c" d="M362.5,203.7s-.2.3-.8.2a1.714,1.714,0,0,1-1.6-1.1,2.126,2.126,0,0,1,.1-1.9,1.413,1.413,0,0,1,.6-.5,5.948,5.948,0,0,1-.3.7,1.95,1.95,0,0,0,0,1.5,1.594,1.594,0,0,0,1.2.9C362.2,203.7,362.5,203.6,362.5,203.7Z"/><path class="c" d="M360.6,200.9c.1.1-.4.6-1.1.5s-1.1-.7-1-.8.5.2,1,.3S360.5,200.8,360.6,200.9Z"/><path class="c" d="M360.7,205.7a1.328,1.328,0,0,1,.3-1.5c.6-.7,1.4-.6,1.4-.5s-.6.3-1,.8S360.8,205.7,360.7,205.7Z"/><path class="a" d="M239.7,297.4l58.9,7.5-.7-21.6Z"/><rect class="b" width="18.8" height="56.8" transform="translate(239.672 297.848) rotate(-85.23)"/><path class="c" d="M289.9,289.4c0,.1-9.5-.5-21.2-1.5s-21.1-1.9-21.1-2,9.5.5,21.2,1.5S289.9,289.3,289.9,289.4Z"/><path class="c" d="M289.8,294.3c0,.1-9.5-.5-21.2-1.5s-21.1-1.9-21.1-2,9.5.5,21.2,1.5S289.8,294.1,289.8,294.3Z"/><path class="d" d="M258,277.8l21.9,1.8-1.1.9,1.5,1.4-1.8.8,1.6,1.4-23-1.9,1.4-1.2-.7-1.3,1.3-.7Z"/><path class="a" d="M206.3,243.8a2.555,2.555,0,0,1-4.4,2.6,2.441,2.441,0,0,1,0-2.6h-3a2.836,2.836,0,0,1,.4,1.3,2.55,2.55,0,0,1-5.1.1,2.01,2.01,0,0,1,.4-1.3h-2.9a2.836,2.836,0,0,1,.4,1.3,2.55,2.55,0,1,1-5.1.1,2.01,2.01,0,0,1,.4-1.3h-3a2.836,2.836,0,0,1,.4,1.3,2.554,2.554,0,0,1-5.1.3v-.3a2.01,2.01,0,0,1,.4-1.3h-3a2.836,2.836,0,0,1,.4,1.3,2.554,2.554,0,0,1-5.1.3v-.3a2.01,2.01,0,0,1,.4-1.3h-3a2.555,2.555,0,1,1-4.4,2.6,2.441,2.441,0,0,1,0-2.6h-1.9v52.6l46,2.5L207.3,244Z"/><g class="g"><path class="e" d="M205.6,242.3a2.555,2.555,0,1,1-4.4,2.6,2.441,2.441,0,0,1,0-2.6h-2.9a2.836,2.836,0,0,1,.4,1.3,2.55,2.55,0,1,1-5.1.1,2.01,2.01,0,0,1,.4-1.3h-3a2.836,2.836,0,0,1,.4,1.3,2.55,2.55,0,1,1-5.1.1,2.01,2.01,0,0,1,.4-1.3h-2.9a2.836,2.836,0,0,1,.4,1.3,2.554,2.554,0,0,1-5.1.3v-.3a2.01,2.01,0,0,1,.4-1.3h-2.9a2.555,2.555,0,0,1-4.4,2.6,3.258,3.258,0,0,1-.4-1.3,2.01,2.01,0,0,1,.4-1.3H169a2.555,2.555,0,0,1-4.4,2.6,2.441,2.441,0,0,1,0-2.6h-1.9V295h43.8V242.3Z"/><path class="a" d="M160.1,297.4c-.1,0-.4-12.8-.6-28.5s-.2-28.5,0-28.5.4,12.8.6,28.5S160.2,297.4,160.1,297.4Z"/><path class="a" d="M167.1,297.3c-.1,0-.4-12.8-.6-28.5s-.2-28.5,0-28.5.4,12.8.6,28.5S167.3,297.3,167.1,297.3Z"/><path class="a" d="M170.6,297.3c-.1,0-.4-12.8-.6-28.5s-.2-28.5,0-28.5.4,12.8.6,28.5S170.8,297.3,170.6,297.3Z"/><path class="a" d="M177.7,297.3c-.1,0-.4-12.8-.6-28.5s-.2-28.5,0-28.5.4,12.8.6,28.5S177.9,297.3,177.7,297.3Z"/><path class="a" d="M184.9,297.3c-.1,0-.4-12.8-.6-28.5s-.2-28.5,0-28.5.4,12.8.6,28.5S185,297.3,184.9,297.3Z"/><path class="a" d="M192,297.3c-.1,0-.4-12.8-.6-28.5s-.2-28.5,0-28.5.4,12.8.6,28.5S192.1,297.3,192,297.3Z"/><path class="a" d="M198.7,297.3c-.1,0-.4-12.8-.6-28.5s-.2-28.5,0-28.5.4,12.8.6,28.5S198.9,297.3,198.7,297.3Z"/><path class="a" d="M205.5,297.3c-.1,0-.4-12.8-.6-28.5s-.2-28.5,0-28.5.4,12.8.6,28.5S205.6,297.3,205.5,297.3Z"/><path class="a" d="M174.2,297.2c-.1,0-.4-12.8-.6-28.5s-.2-28.5,0-28.5.4,12.7.6,28.5S174.3,297.2,174.2,297.2Z"/><path class="a" d="M181.2,297.2c-.1,0-.4-12.8-.6-28.5s-.2-28.5,0-28.5.4,12.8.6,28.5S181.4,297.2,181.2,297.2Z"/><path class="a" d="M188.3,297.1c-.1,0-.4-12.8-.6-28.5s-.2-28.5,0-28.5.4,12.8.6,28.5S188.4,297.1,188.3,297.1Z"/><path class="a" d="M195.3,297c-.1,0-.4-12.8-.6-28.5s-.2-28.5,0-28.5.4,12.8.6,28.5S195.4,297,195.3,297Z"/><path class="a" d="M202,297.4c-.1,0-.4-12.8-.6-28.5s-.2-28.5,0-28.5.4,12.8.6,28.5S202.2,297.4,202,297.4Z"/><path class="a" d="M209.4,296.9c-.1,0-.4-12.8-.6-28.5s-.2-28.5,0-28.5.4,12.7.6,28.5S209.5,296.9,209.4,296.9Z"/><path class="a" d="M216.9,290.2c0,.1-12.8.4-28.5.5s-28.5.2-28.5,0,12.8-.4,28.5-.5S216.9,290.1,216.9,290.2Z"/><path class="a" d="M217.2,293.8c0,.1-12.8.4-28.5.5s-28.5.2-28.5,0,12.8-.4,28.5-.5S217.2,293.6,217.2,293.8Z"/><path class="a" d="M216.8,283.2c0,.1-12.8.4-28.5.5s-28.5.2-28.5,0,12.8-.4,28.5-.5S216.8,283,216.8,283.2Z"/><path class="a" d="M216.8,276.1c0,.1-12.8.4-28.5.5s-28.5.2-28.5,0,12.8-.4,28.5-.5S216.8,276,216.8,276.1Z"/><path class="a" d="M216.7,269.1c0,.1-12.8.4-28.5.5s-28.5.2-28.5,0,12.7-.4,28.5-.5S216.7,268.9,216.7,269.1Z"/><path class="a" d="M216.6,262c0,.1-12.8.4-28.5.5s-28.5.2-28.5,0,12.7-.4,28.5-.5S216.6,261.9,216.6,262Z"/><path class="a" d="M216.6,255c0,.1-12.8.4-28.5.6s-28.5.2-28.5,0,12.7-.4,28.5-.5S216.6,254.9,216.6,255Z"/><path class="a" d="M216.5,248c0,.1-12.8.4-28.5.5s-28.5.2-28.5,0,12.8-.4,28.5-.6S216.5,247.8,216.5,248Z"/><path class="a" d="M216.5,245.2c0,.1-12.8.4-28.5.5s-28.5.2-28.5,0,12.8-.4,28.5-.6S216.5,245,216.5,245.2Z"/><path class="a" d="M216.5,251.6c0,.1-12.8.4-28.5.6s-28.5.2-28.5,0,12.8-.4,28.5-.5S216.5,251.4,216.5,251.6Z"/><path class="a" d="M216.5,258.5c0,.1-12.8.4-28.5.5s-28.5.2-28.5,0,12.8-.4,28.5-.5S216.5,258.4,216.5,258.5Z"/><path class="a" d="M216.5,265.5c0,.1-12.8.4-28.5.5s-28.5.2-28.5,0,12.8-.4,28.5-.5S216.5,265.4,216.5,265.5Z"/><path class="a" d="M216.5,272.5c0,.1-12.8.4-28.5.5s-28.5.2-28.5,0,12.8-.4,28.5-.5S216.5,272.4,216.5,272.5Z"/><path class="a" d="M216.5,279.5c0,.1-12.8.4-28.5.5s-28.5.2-28.5,0,12.8-.4,28.5-.5S216.5,279.4,216.5,279.5Z"/><path class="a" d="M216.5,286.5c0,.1-12.8.4-28.5.5s-28.5.2-28.5,0,12.8-.4,28.5-.5S216.5,286.3,216.5,286.5Z"/><path class="h" d="M205.6,242.3a2.555,2.555,0,1,1-4.4,2.6,2.441,2.441,0,0,1,0-2.6h-2.9a2.836,2.836,0,0,1,.4,1.3,2.55,2.55,0,1,1-5.1.1,2.01,2.01,0,0,1,.4-1.3h-3a2.836,2.836,0,0,1,.4,1.3,2.55,2.55,0,1,1-5.1.1,2.01,2.01,0,0,1,.4-1.3h-2.9a2.836,2.836,0,0,1,.4,1.3,2.554,2.554,0,0,1-5.1.3v-.3a2.01,2.01,0,0,1,.4-1.3h-2.9a2.555,2.555,0,0,1-4.4,2.6,3.258,3.258,0,0,1-.4-1.3,2.01,2.01,0,0,1,.4-1.3H169a2.555,2.555,0,0,1-4.4,2.6,2.441,2.441,0,0,1,0-2.6h-1.9V295h43.8V242.3Z"/></g><path class="a" d="M181.7,250a6.3,6.3,0,0,0,2.3,4,4.1,4.1,0,1,0,4.6-6.8,4.007,4.007,0,0,0-3.2-.6"/><path class="f" d="M181.6,249.9a3.306,3.306,0,1,0,3.1-3.5h0A3.4,3.4,0,0,0,181.6,249.9Z"/><path class="f" d="M179.7,248.7a2,2,0,1,0,1.9-2.1h-.1A2.148,2.148,0,0,0,179.7,248.7Z"/><path class="c" d="M181.6,250.6c0-.1.3-.1.7-.2a1.981,1.981,0,0,0,1.1-1.1,2.22,2.22,0,0,0-.1-1.6,2.475,2.475,0,0,0-.4-.6.946.946,0,0,1,.7.4,1.843,1.843,0,0,1,.3,2,1.994,1.994,0,0,1-1.5,1.3C181.8,250.8,181.5,250.6,181.6,250.6Z"/><path class="c" d="M183.2,247.4c.1-.1.6,0,1.1-.1s.9-.5,1.1-.4-.1.7-.9.9S183.1,247.5,183.2,247.4Z"/><path class="c" d="M183.7,252.4c-.1,0-.3-.6-.8-1.1s-1.1-.6-1.1-.7.8-.3,1.5.4S183.9,252.4,183.7,252.4Z"/><path class="c" d="M201.7,261.1c0,.1-7,.3-15.6.3s-15.6-.1-15.6-.3,7-.3,15.6-.3S201.7,261,201.7,261.1Z"/><path class="c" d="M201.7,264.4c0,.1-7,.3-15.6.3s-15.6-.1-15.6-.3,7-.3,15.6-.3S201.7,264.2,201.7,264.4Z"/><path class="c" d="M201.7,267.6c0,.1-7,.3-15.6.3s-15.6-.1-15.6-.3,7-.3,15.6-.3S201.7,267.5,201.7,267.6Z"/><path class="c" d="M201.7,270.9c0,.1-7,.3-15.6.3s-15.6-.1-15.6-.3,7-.3,15.6-.3S201.7,270.7,201.7,270.9Z"/><path class="c" d="M201.7,274.1c0,.1-7,.3-15.6.3s-15.6-.1-15.6-.3,7-.3,15.6-.3S201.7,274,201.7,274.1Z"/><path class="c" d="M201.7,277.4c0,.1-7,.3-15.6.3s-15.6-.1-15.6-.3,7-.3,15.6-.3S201.7,277.2,201.7,277.4Z"/><path class="c" d="M201.7,280.6c0,.1-7,.3-15.6.3s-15.6-.1-15.6-.3,7-.3,15.6-.3S201.7,280.5,201.7,280.6Z"/><path class="c" d="M124.5,430.1a.974.974,0,0,1-1-.8L87.9,293.9a1.079,1.079,0,0,1,2.1-.5h0l35.6,135.5a1.038,1.038,0,0,1-.8,1.3h0C124.7,430.1,124.6,430.2,124.5,430.1Z"/><path class="c" d="M115.1,433.5a.974.974,0,0,1-1-.8L78.6,297.2a1.079,1.079,0,0,1,2.1-.5h0l35.6,135.5a1.038,1.038,0,0,1-.8,1.3h-.4Z"/><path class="c" d="M82.8,291.3,81.1,290l91.3-122.8,83.3,15.9-.4,2.1-82-15.7Z"/><rect class="c" width="150.9" height="2.1" transform="matrix(0.595, -0.804, 0.804, 0.595, 88.985, 292.368)"/><path class="f" d="M170.1,172.8a5.977,5.977,0,1,0,3.7-7.6,6.077,6.077,0,0,0-3.7,7.6Z"/><path class="f" d="M251.7,176.3l-1.4-8.7,6.4-.5.4,8.4Z"/><g class="i"><path d="M251.7,176.3l-1.4-8.7,6.4-.5.4,8.4Z"/></g><path class="f" d="M246.5,175.7l-6,32.2-15,42.5,84.6-12.2L276,201.1l-14.3-27.6-15.2,2.2"/><path class="f" d="M76.9,294.9a6.7,6.7,0,1,0,6.7-6.7h0A6.7,6.7,0,0,0,76.9,294.9Z"/><path class="f" d="M97.8,457.3c0-.5-.1-.9-.1-1.4a26.856,26.856,0,0,1,53.7,0c0,.5-.1.9-.1,1.4Z"/><path class="j" d="M244.1,447.2c-.3.1-1.7,1.5.3,3.8s14.1,8.5,16.4,4.8-3.1-6.3-3.1-6.3Z"/><path class="j" d="M257.4,443.2s12.5-1.4,17.6-.7c5.5.7,11.4-2.1,14.9-5.9a19.81,19.81,0,0,0,4.4-8.8l8-5.6s.9-18.9-11.8-15.9l-14.7.5s-29,4.8-33.5,8.4c0,0-5.5,5.3-7.1,7.4-.6.8-1.1,8.6,4.4,11.2,0,0-3.3,4.2-.4,6.5l1.4,1s-1.9,4.2-.1,5.4,15.7,5.4,19.6,2.7-.5-5.9-2.7-6.2"/><path class="k" d="M241.9,433.1a8.752,8.752,0,0,1,1.6.2c1.1.1,2.6.3,4.5.5a30.089,30.089,0,0,0,3.1.1c1.1,0,2.3,0,3.6.1a7.125,7.125,0,0,1,3.8,1.2,4.3,4.3,0,0,1,1.9,3.9,3.09,3.09,0,0,1-1.1,2,4.982,4.982,0,0,1-1.9,1,17.777,17.777,0,0,1-3.9.7,37.493,37.493,0,0,1-6.7-.1c-1.9-.2-3.4-.5-4.4-.6-.5-.1-1.1-.2-1.6-.3.5,0,1.1.1,1.6.1,1.1.1,2.6.3,4.5.5a36.373,36.373,0,0,0,6.6,0,15.949,15.949,0,0,0,3.8-.7,4.248,4.248,0,0,0,1.7-1,2.588,2.588,0,0,0,.9-1.7,3.867,3.867,0,0,0-1.6-3.4,6.625,6.625,0,0,0-3.6-1.1c-1.2-.1-2.4-.1-3.5-.1a28.507,28.507,0,0,1-3.1-.2c-1.9-.2-3.4-.4-4.4-.6A14.314,14.314,0,0,1,241.9,433.1Z"/><path class="k" d="M240.8,424.1a8.752,8.752,0,0,1,1.6.2c1,.1,2.6.3,4.4.5a62.485,62.485,0,0,0,6.6.3,8.647,8.647,0,0,1,3.9.6,2.942,2.942,0,0,1,1.5,1.6,3.36,3.36,0,0,1,.2,2.2,5.281,5.281,0,0,1-2.5,3.5,8.9,8.9,0,0,1-3.8,1.2,36.488,36.488,0,0,1-6.6-.3l-4.4-.5a8.752,8.752,0,0,1-1.6-.2h1.6l4.5.3a48.525,48.525,0,0,0,6.6.2,7.708,7.708,0,0,0,3.6-1.2,4.8,4.8,0,0,0,2.3-3.1,3.1,3.1,0,0,0-1.4-3.3,7.813,7.813,0,0,0-3.7-.6,59.911,59.911,0,0,1-6.6-.4c-1.8-.2-3.4-.5-4.4-.7C241.9,424.3,241.4,424.2,240.8,424.1Z"/><path class="k" d="M247.3,425.2a16.271,16.271,0,0,1-1.1-2.3,10.076,10.076,0,0,1-1.2-2.3c.1-.1,1,.7,1.7,2A5.834,5.834,0,0,1,247.3,425.2Z"/><path class="j" d="M285.5,407.1l-11.8-1.6s-33.4-6.8-33.7-5.9-2,1.2-.7,4.8,20.5,6.8,21.4,7.9,1.5,7.8,9,10.8,12.3,2,12.3,2"/><path class="k" d="M281.9,425.1l-.3.1-.8.1a15.037,15.037,0,0,1-3,0,23.3,23.3,0,0,1-4.6-.8,24.2,24.2,0,0,1-5.8-2.3,14.184,14.184,0,0,1-5.2-5.4,32.039,32.039,0,0,1-1.6-3.9c-.1-.2-.1-.3-.2-.4a.52.52,0,0,0-.4-.2c-.3-.1-.7-.3-1-.4-.7-.2-1.4-.4-2.2-.6-2.9-.8-6.1-1.5-9.2-2.4-1.6-.5-3.2-1-4.8-1.6a13.44,13.44,0,0,1-2.4-1.2,3.126,3.126,0,0,1-1.1-.9,2.092,2.092,0,0,1-.4-.6c-.1-.2-.1-.4-.2-.6a4.993,4.993,0,0,1-.2-2.7,7.46,7.46,0,0,1,.7-1.2,2.186,2.186,0,0,0,.3-.5l.1-.1c0-.1.1-.1.2-.1h.6a40.124,40.124,0,0,1,5,.7c3.3.5,6.4,1.1,9.4,1.7,6,1.1,11.3,2.2,15.8,3.1,1.1.2,2.2.5,3.2.6l2.9.4,4.6.7,2.9.4.8.1.3.1H285l-.8-.1-3-.4-4.6-.6-2.9-.4c-1-.2-2.1-.4-3.2-.6l-15.9-3c-3-.5-6.1-1.1-9.4-1.7a40.2,40.2,0,0,0-5-.6h-.4a.1.1,0,0,0-.1-.1h0c.4.1.1,0,.2.1h0a2.092,2.092,0,0,1-.4.6,2.075,2.075,0,0,0-.6,1,3.973,3.973,0,0,0,.2,2.4,3.7,3.7,0,0,0,.5,1.1,8.745,8.745,0,0,0,1,.8,16.271,16.271,0,0,0,2.3,1.1c1.6.6,3.2,1.1,4.8,1.6,3.2.9,6.3,1.7,9.2,2.5.7.2,1.5.4,2.2.6a4.876,4.876,0,0,1,1.1.4,1,1,0,0,1,.5.4c.1.2.2.3.3.5a32.039,32.039,0,0,0,1.6,3.9,12.783,12.783,0,0,0,5,5.3,23.486,23.486,0,0,0,5.7,2.3,34.022,34.022,0,0,0,4.6.9c1,.1,2,.1,2.9.1h.8Z"/><path class="k" d="M253.8,442.6a4.868,4.868,0,0,1,1.2.1,11.91,11.91,0,0,1,3.2,1,8.175,8.175,0,0,1,2,1.2,3.621,3.621,0,0,1,1.5,2.3,2.794,2.794,0,0,1-1.5,2.6,6,6,0,0,1-3.2.7,57.349,57.349,0,0,1-10.9-1.6,32.274,32.274,0,0,1-3.2-1,3.7,3.7,0,0,1-1.1-.5l1.2.3c.8.2,1.9.5,3.2.8A80.112,80.112,0,0,0,257,450a4.923,4.923,0,0,0,2.9-.6,2.485,2.485,0,0,0,1.3-2.2,2.969,2.969,0,0,0-1.3-2A7.608,7.608,0,0,0,258,444,14.839,14.839,0,0,0,253.8,442.6Z"/><path class="l" d="M340.7,374.4s14.8-24.4,18.1-40.5,20.5-41.6,26.1-48.3,27.8-14.4,27.8-14.4l8.2-4.4,63.4-5.6s42.2,4.4,54.9,16.1,22.7,38.3,22.7,51.6,12.9,128.6,12.9,128.6l-156.2-.2,3.5-56.9s-18.9-12.8-23.9-23.9S396,371,396,371s-17.7,37.6-23.8,42.1-77.1,26.2-77.1,26.2l-9.7-37.2Z"/><path class="l" d="M525.2,281.9c-1.7.5-22.9,55.2-24.4,60.1s0,36.3,0,36.3l7,12.9s-2,9.4-.5,13.9l-31.3,6s-8-5.5-15.4,0l-37,3.1s10.9.1,7.6,16.8c-3.2,16.3-5.6,19.9-5.6,19.9l129.9-3s14.4-.7,12.2-28.5-8.4-104.3-8.4-104.3S549.9,274.3,525.2,281.9Z"/><path class="c" d="M500.5,374a4.872,4.872,0,0,1-.3-.7l-.8-2c-.3-.9-.8-1.9-1.1-3.1s-.9-2.6-1.4-4.2-1-3.3-1.4-5.2-.9-3.9-1.3-6a105.88,105.88,0,0,1-1.1-28.3c.3-2.2.5-4.2.8-6.1.2-1,.3-1.9.5-2.8s.4-1.7.5-2.5a38.3,38.3,0,0,1,1.1-4.3c.4-1.3.6-2.3.9-3.2a18.513,18.513,0,0,0,.6-2c.1-.2.2-.5.3-.7a1.854,1.854,0,0,1-.2.7,13.6,13.6,0,0,1-.6,2,18.6,18.6,0,0,0-.8,3.2c-.2,1.2-.7,2.7-1,4.3-.2.8-.3,1.6-.5,2.5a23.578,23.578,0,0,0-.4,2.8c-.3,1.9-.5,4-.8,6.1a105.828,105.828,0,0,0,1.1,28.1c.4,2.1.8,4.2,1.2,6s.9,3.6,1.3,5.2.9,3,1.3,4.2.8,2.3,1.1,3.2l.7,2A1.33,1.33,0,0,1,500.5,374Z"/><path class="c" d="M545.7,433.3a2.961,2.961,0,0,1-.3-.4l-.9-1.1c-.4-.5-.8-1.1-1.4-1.8s-1.2-1.5-1.9-2.3a29.6,29.6,0,0,0-2.5-2.7c-1-.9-1.9-1.9-3-2.9a70.4,70.4,0,0,0-7.5-6,84.532,84.532,0,0,0-8.2-4.9c-1.3-.6-2.6-1.3-3.8-1.8s-2.3-1-3.4-1.4-2-.7-2.9-1-1.6-.5-2.2-.7l-1.4-.4c-.2,0-.3-.1-.5-.2a.9.9,0,0,1,.5.1l1.4.3a12.3,12.3,0,0,1,2.2.6c.8.3,1.8.5,2.9.9s2.2.8,3.4,1.3,2.5,1.1,3.8,1.7a62.4,62.4,0,0,1,8.3,4.9,71.448,71.448,0,0,1,7.5,6.1q1.65,1.5,3,3c.9,1,1.7,1.9,2.4,2.8s1.3,1.7,1.9,2.4a9.215,9.215,0,0,1,1.3,1.9,8.139,8.139,0,0,0,.8,1.2C545.6,433,545.6,433.1,545.7,433.3Z"/><path class="c" d="M556.6,426c-.1.1-1.2-1.2-3.4-3a35.962,35.962,0,0,0-4-2.8,33.6,33.6,0,0,0-5.4-2.6,37.208,37.208,0,0,0-10.7-2.2c-2.8-.1-4.5.1-4.5,0a5.019,5.019,0,0,1,1.2-.2,7.084,7.084,0,0,1,1.4-.1,12.033,12.033,0,0,1,1.9,0,26.261,26.261,0,0,1,4.9.5,35.3,35.3,0,0,1,5.8,1.6,31.111,31.111,0,0,1,5.5,2.7,36.916,36.916,0,0,1,4,2.9c.5.5,1,.9,1.4,1.3a4.74,4.74,0,0,1,1,1A1.95,1.95,0,0,1,556.6,426Z"/><path class="c" d="M544.6,407.7c-.1.1-1.6-1.1-4.4-2.5a22.875,22.875,0,0,0-2.3-1,18.433,18.433,0,0,0-2.8-.9,33.075,33.075,0,0,0-13.3-.9c-1,.2-2,.3-2.9.5a23.346,23.346,0,0,0-2.5.7c-3,1-4.6,2-4.7,1.9a7.461,7.461,0,0,1,1.2-.7,9.146,9.146,0,0,1,1.4-.7,16.672,16.672,0,0,1,2-.8,18.283,18.283,0,0,1,2.5-.8,14.963,14.963,0,0,1,2.9-.6,30.851,30.851,0,0,1,13.5.9c.9.3,1.9.6,2.8,1a16.269,16.269,0,0,1,2.3,1.1,17.393,17.393,0,0,1,1.8,1.1,14.623,14.623,0,0,1,1.3.9A2.8,2.8,0,0,1,544.6,407.7Z"/><path class="c" d="M468.7,448.7a50.3,50.3,0,0,0,.9-5.6,41.4,41.4,0,0,0,0-6.1,45.833,45.833,0,0,0-1.3-7.4,58.313,58.313,0,0,0-2.5-7,45.4,45.4,0,0,0-3-5.3c-1.1-1.5-2.3-3-3.5-4.4a5.242,5.242,0,0,1,1.1,1c.4.4.8.9,1.2,1.3l.7.9a6.072,6.072,0,0,1,.7,1,35.99,35.99,0,0,1,3.1,5.4,43.167,43.167,0,0,1,3.8,14.6,32.119,32.119,0,0,1-.1,6.2c0,.4-.1.9-.1,1.3l-.2,1.1a8.471,8.471,0,0,1-.4,1.7A9.3,9.3,0,0,1,468.7,448.7Z"/><path class="c" d="M446.9,411.2c0-.1-.1-.2-.1-.3,0-.2-.1-.5-.1-.9-.1-.8-.3-1.9-.5-3.3-.4-2.9-.9-7-1.6-12.1-1.2-10.3-2.7-24.5-3.9-40.2s-1.8-30-2-40.3c-.1-5.2-.2-9.3-.2-12.2v-4.2c-.1,0-.1-.1-.1-.2s.1-.1.2-.1.1.1.1.2a.1.1,0,0,1-.1.1v.9c0,.8.1,1.9.1,3.3.1,2.9.2,7.1.4,12.2.4,10.3,1,24.6,2.2,40.3s2.6,29.9,3.7,40.2c.6,5.1,1.1,9.2,1.4,12.1.2,1.4.3,2.5.4,3.3,0,.4.1.6.1.9Z"/><path class="c" d="M395.9,371.8a10.1,10.1,0,0,1-.7-1.5q-.6-1.5-1.8-4.2c-1.5-3.5-3.7-8.3-6.4-13.6s-5.1-9.9-6.9-13.3c-.9-1.7-1.6-3.1-2-4.1a10.1,10.1,0,0,1-.7-1.5c.3.5.6.9.9,1.4l2.2,4c1.8,3.4,4.4,8,7.1,13.3s4.9,10.1,6.3,13.6c.7,1.8,1.3,3.3,1.6,4.3C395.6,370.7,395.8,371.2,395.9,371.8Z"/><path class="c" d="M387.9,353.3a2.92,2.92,0,0,1-.9-.2c-.6-.1-1.4-.4-2.4-.7a59.968,59.968,0,0,1-14.8-7.3,14.547,14.547,0,0,1-2-1.5,4.351,4.351,0,0,1-.7-.6,17.483,17.483,0,0,1,2.9,1.8,82.348,82.348,0,0,0,7.2,4c2.9,1.4,5.6,2.5,7.5,3.3A17.553,17.553,0,0,1,387.9,353.3Z"/><path class="c" d="M374.5,387.4c-.4-.2-.7-.4-1.1-.6a26.053,26.053,0,0,0-2.9-1.8,58.153,58.153,0,0,0-20.9-7.8c-1.4-.3-2.6-.4-3.4-.5a5.019,5.019,0,0,1-1.2-.2h1.3a26.056,26.056,0,0,1,3.4.3,52.237,52.237,0,0,1,11,2.8,50.4,50.4,0,0,1,10.1,5.1c1.2.8,2.2,1.5,2.8,2A5.5,5.5,0,0,1,374.5,387.4Z"/><path class="c" d="M482.6,261.3a2.2,2.2,0,0,1-.1.8c-.1.6-.2,1.4-.3,2.3-.3,2-.6,4.9-1.2,8.5a101.4,101.4,0,0,1-2.8,12.4,55.17,55.17,0,0,1-6.3,14.3,48.053,48.053,0,0,1-5.2,6.7l-.2.2-.2-.3a27.946,27.946,0,0,0-9.5-7.9,23.023,23.023,0,0,0-5-1.8,17.4,17.4,0,0,0-4.5-.6,17.956,17.956,0,0,0-6.5.9c-1.5.5-2.2.9-2.2.8a2.187,2.187,0,0,0,.5-.3,11.114,11.114,0,0,1,1.6-.7,18.136,18.136,0,0,1,6.5-1.1,17.59,17.59,0,0,1,4.6.6,22.054,22.054,0,0,1,5.1,1.8,26.928,26.928,0,0,1,9.7,8h-.4a41.434,41.434,0,0,0,5.1-6.6,61.417,61.417,0,0,0,6.3-14.1,106.16,106.16,0,0,0,2.9-12.4c.7-3.6,1.1-6.5,1.4-8.5.1-1,.3-1.7.4-2.3C482.5,261.8,482.5,261.6,482.6,261.3Z"/><path class="l" d="M483.5,261.9l-9.6-12.8-10.5.4-34,17.9Z"/><path class="c" d="M438.6,297.7h-.5a9.007,9.007,0,0,1-1.6-.3,21.43,21.43,0,0,1-5.4-2.3,12.51,12.51,0,0,0-3.6-1.5,11.363,11.363,0,0,0-4.5,0,10.433,10.433,0,0,0-7.5,6.6l-.5,1.5v-2.8c.1-7.9.1-15,.5-20.2a56.543,56.543,0,0,1,.6-6.1,11.61,11.61,0,0,1,.3-1.6c0-.2.1-.4.1-.6,0,0-.1.8-.2,2.2s-.3,3.5-.4,6.1c-.2,5.2-.2,12.3-.3,20.2v1.2l-.5-.1a11.005,11.005,0,0,1,7.9-6.9,10.844,10.844,0,0,1,8.4,1.7,20.43,20.43,0,0,0,5.2,2.4A14.742,14.742,0,0,0,438.6,297.7Z"/><path class="j" d="M473.9,187.3V264a18.33,18.33,0,0,1-4.4,12h0a55.983,55.983,0,0,1-15.4,12.8l-15.5,8.7L425.8,286a18.516,18.516,0,0,1-6.2-13.1c-.2-5.6-.2-11.2-.2-11.2s-21.7-1.6-23.7-22.9c-1-10.1-1.3-30.7-1.3-49.7a41.606,41.606,0,0,1,38.1-41.5l.6-.1a39.765,39.765,0,0,1,40.7,38.8C473.8,186.6,473.9,186.9,473.9,187.3Z"/><path class="k" d="M419.4,261.3s13.6,0,27.2-10.2c0,0-5.3,15.9-26.8,15.8Z"/><path class="c" d="M401.6,203.4a2.954,2.954,0,0,0,3.2,2.8,2.9,2.9,0,0,0,2.9-2.9v-.1a3.055,3.055,0,0,0-6.1.2Z"/><path class="c" d="M399.9,197.6c.4.4,2.6-1.5,5.9-1.8s5.8,1.2,6.2.8c.2-.2-.3-.9-1.4-1.6a8.029,8.029,0,0,0-5-1.1,7.869,7.869,0,0,0-4.6,1.9C399.9,196.7,399.6,197.5,399.9,197.6Z"/><path class="c" d="M432.9,202.1a2.954,2.954,0,0,0,3.2,2.8A2.9,2.9,0,0,0,439,202v-.1a3.055,3.055,0,0,0-6.1.2Z"/><path class="c" d="M432.2,195.6c.4.4,2.6-1.5,5.9-1.8s5.8,1.2,6.2.7c.2-.2-.3-.9-1.4-1.6a8.029,8.029,0,0,0-5-1.1,7.869,7.869,0,0,0-4.6,1.9C432.3,194.7,432,195.4,432.2,195.6Z"/><path class="c" d="M422.3,221c0-.2-2.1-.4-5.4-.5-.8,0-1.6-.1-1.8-.7a4.289,4.289,0,0,1,.4-2.5c.6-2.1,1.3-4.3,2-6.6,2.7-9.4,4.6-17.1,4.2-17.2s-2.9,7.4-5.6,16.8c-.6,2.3-1.3,4.5-1.9,6.6a5.345,5.345,0,0,0-.2,3.3,1.923,1.923,0,0,0,1.5,1.1,7.084,7.084,0,0,0,1.4.1A31.83,31.83,0,0,0,422.3,221Z"/><path class="c" d="M429.1,228.8c-.5-.2-1.3,3.3-4.9,5.1s-7.2.6-7.3,1c-.1.2.7.9,2.2,1.3a8.65,8.65,0,0,0,6.1-.7,7.835,7.835,0,0,0,3.9-4.3C429.5,229.8,429.4,228.8,429.1,228.8Z"/><path class="c" d="M430.3,182.8c.4.9,3.6.2,7.5.3s7.1.9,7.5.1c.2-.4-.4-1.2-1.7-2a12.924,12.924,0,0,0-11.5-.3C430.8,181.6,430.1,182.4,430.3,182.8Z"/><path class="c" d="M400.3,188c.6.7,2.8-.3,5.6-.5s5.1.1,5.5-.7c.2-.4-.2-1.1-1.3-1.7a7.372,7.372,0,0,0-4.6-.9,7.664,7.664,0,0,0-4.3,1.9C400.2,186.9,400,187.7,400.3,188Z"/><path class="c" d="M448.7,165.8l.1.1a17.171,17.171,0,0,1,7.2,10.4l.1.4c1.3,6,1.7,12.3,3.1,18.3s1.1,10.6,7.2,12a7.968,7.968,0,0,0,8.4-3.4,5.759,5.759,0,0,0,.5-2.9c-.1-14.8,2.9-20.6,1.6-36a12.809,12.809,0,0,0-6.3-10.1c-3.4-2.1-7.6-4.1-11-2.1s-7.5,9.1-10.1,12.2"/><path class="j" d="M467.4,197.6c.4-.2,14.3-5.6,15.1,9.1s-14.1,12.4-14.2,12S467.4,197.6,467.4,197.6Z"/><path class="k" d="M472.5,212.9c.1-.1.3.2.7.3a2.51,2.51,0,0,0,1.9-.1c1.5-.6,2.7-3.2,2.6-5.8a7.4,7.4,0,0,0-.9-3.6,3.149,3.149,0,0,0-2-1.9,1.411,1.411,0,0,0-1.5.8.979.979,0,0,0-.1.7s-.3-.2-.2-.8a1.934,1.934,0,0,1,.5-.9,1.792,1.792,0,0,1,1.4-.4,3.8,3.8,0,0,1,2.8,2.1,8.017,8.017,0,0,1,1.1,4c.1,3-1.3,5.8-3.4,6.5a2.57,2.57,0,0,1-2.4-.3A1.413,1.413,0,0,1,472.5,212.9Z"/><path class="c" d="M460.3,154.6c3.1-6.1-7.4-13.7-14.9-15.4s-16.6,2.6-23.6,5.6c-4.4,1.9-8.8,4.4-13.5,4.5-3.2.1-6.4-.8-9.5-1.6s-6.3-1.6-9.5-1.1-6.3,2.4-7.3,5.5,1.1,7,4.3,7.2c-4.2-1.9-9.9,1.5-10.1,6.1s4.9,8.7,9.3,7.3c-2.2-1.4-5.2,1.5-4.7,4s3,4.3,5.5,5.1c6.3,2.2,13.4.7,19.5-1.9s11.7-6.4,17.8-9.2,16.2-7.8,22.7-6.1c4.8,1.3,8.4,6.6,11,5.1a9.227,9.227,0,0,0,4.1-7,27.778,27.778,0,0,0-1.1-8.1"/><path class="b" d="M384.5,159.1c.1-.1.8,1,2.6,2.6a19.973,19.973,0,0,0,8.6,4.6,18.209,18.209,0,0,0,13.9-1.7c4.8-2.6,8.7-7.5,13.2-12.1s10-8.3,15.8-9.3,11.2.6,14.4,3.7a12.893,12.893,0,0,1,4.1,9.2,9.034,9.034,0,0,1-.4,2.8,4.107,4.107,0,0,1-.4.9,21.861,21.861,0,0,0,.3-3.6,12.625,12.625,0,0,0-4.2-8.4c-3-2.7-8.1-4.1-13.5-3.1s-10.6,4.4-15,9-8.5,9.4-13.6,12.2a20.029,20.029,0,0,1-23.5-3.6c-.6-.7-1.2-1.4-1.7-2.1A6.412,6.412,0,0,1,384.5,159.1Z"/><path class="c" d="M562.1,332.2a2.8,2.8,0,0,0,.1.6,8.118,8.118,0,0,1,.1,1.7c.1,1.5.3,3.8.5,6.7.4,5.9,1,14.5,1.7,25.4s1.6,24.1,2.6,39.1c.2,3.8.5,7.6.8,11.6.2,2,.2,4,.3,6.1a16.058,16.058,0,0,1,0,3.1,30.274,30.274,0,0,1-.2,3.1l-.4,3.2c-.2,1-.5,2.1-.7,3.2a28.12,28.12,0,0,1-1,3.1,13.476,13.476,0,0,1-1.4,3c-2.1,3.9-5.4,7.5-9.9,9H425.4l.1-.3c1-3.4,1.9-6.7,2.8-10,.5-1.7.9-3.3,1.4-5a43.708,43.708,0,0,0,1.2-4.9,20.334,20.334,0,0,0-.9-9.8,12.234,12.234,0,0,0-2.3-4.2,6.915,6.915,0,0,0-4-2.4l-2-.3,2-.2,37-3.1h-.1a12.7,12.7,0,0,1,8-2.5,15.287,15.287,0,0,1,7.7,2.5h-.2l31.3-5.9-.1.2a11.415,11.415,0,0,1-.5-3.7c0-1.2,0-2.4.1-3.6a53.11,53.11,0,0,1,1-6.8v.1q-3.75-7.05-6.9-12.9v-.1c-.5-11.5-.7-20.6-.6-26.8a62.444,62.444,0,0,1,.3-7.1,5.663,5.663,0,0,1,.3-1.8,2.8,2.8,0,0,0,.1-.6,2.8,2.8,0,0,1-.1.6,11.019,11.019,0,0,0-.2,1.8c-.1,1.6-.2,4-.2,7.1,0,6.2.2,15.3.7,26.8v-.1c2.1,4,4.5,8.2,7,12.9h0v.1a38.36,38.36,0,0,0-.9,6.8c-.1,1.2-.1,2.4-.1,3.5a14.874,14.874,0,0,0,.5,3.6l.1.2h-.2l-31.3,6h-.2a16.2,16.2,0,0,0-7.5-2.4,11.786,11.786,0,0,0-7.7,2.4h-.2l-36.9,3.1v-.5a7.291,7.291,0,0,1,4.3,2.5,12.615,12.615,0,0,1,2.4,4.4,21.269,21.269,0,0,1,.9,10,40.5,40.5,0,0,1-1.2,5c-.5,1.7-.9,3.3-1.4,5-.9,3.3-1.9,6.7-2.8,10l-.3-.3h31l97.8.1h0a14.692,14.692,0,0,0,5.7-3.5,21.115,21.115,0,0,0,4-5.3c.5-1,.9-2,1.4-3a18.612,18.612,0,0,0,1-3.1c.3-1,.5-2.1.7-3.1s.3-2.1.4-3.1.2-2.1.2-3.1a16.058,16.058,0,0,0,0-3.1c-.1-2-.2-4.1-.3-6.1-.2-4-.5-7.9-.7-11.7-1-15.1-1.8-28.3-2.5-39.2s-1.2-19.5-1.6-25.4c-.2-2.9-.3-5.2-.4-6.7,0-.8-.1-1.3-.1-1.7S562.1,332.2,562.1,332.2Z"/><path class="c" d="M533.7,277.7a17.4,17.4,0,0,1-1.8,1.1,38.331,38.331,0,0,0-4.6,3.3,54.735,54.735,0,0,0-12,14.3,114.742,114.742,0,0,0-8,17l-2.1,5.3-.6,1.5c-.1.2-.1.3-.2.5a4.331,4.331,0,0,1,.1-.5c.1-.4.3-.9.5-1.5.4-1.3,1.1-3.1,1.9-5.4a106.044,106.044,0,0,1,7.9-17.1A52.806,52.806,0,0,1,527,281.8a30.835,30.835,0,0,1,4.8-3.2,5.887,5.887,0,0,1,1.4-.7A1.689,1.689,0,0,1,533.7,277.7Z"/><g class="i"><path d="M494.6,315.9a65.356,65.356,0,0,0-5.6,29.9c.4,10.2,1.6,20.4.6,30.5s-4.5,20.5-12.1,27.3a8.823,8.823,0,0,0-2.4,2.7,2.885,2.885,0,0,0,.5,3.4,3.776,3.776,0,0,0,3.1.3c7.2-1.3,14.5-2.2,21.8-3.4,1.5-.3,6.8-1.3,6.8-1.3a24.253,24.253,0,0,1-.4-6c.2-1.8.9-8,.9-8a9.386,9.386,0,0,0-1.4-2.6,60.1,60.1,0,0,1-6-15.4c-2.5-5-3.6-10.1-4.7-14.9-3.2-13.1-3.1-26-1.1-42.5"/></g><g class="i"><path d="M415.3,300.9l1.8,4.5a1.441,1.441,0,0,0,.9,1.1c.9.3,1.6-.8,2-1.6a11.4,11.4,0,0,1,8.9-6.2c3-.4,6.2.5,9.1-.1a37.706,37.706,0,0,0-8.3-4.1,13.533,13.533,0,0,0-9.1-.1,8.39,8.39,0,0,0-5.5,6.8"/></g><g class="i"><path d="M440,297.1a47.04,47.04,0,0,1,10.6,1,16.472,16.472,0,0,1,9.1,5.2c2.4,3,3.3,6.8,4.3,10.5.2.7.5,1.5,1.3,1.6a1.845,1.845,0,0,0,1.2-.5c6-4.4,9.9-11.1,12.1-18.2s2.7-14.6,2.8-22c-2.9,5.1-4.1,10.9-6,16.5s-4.7,11.1-9.6,14.3a4.908,4.908,0,0,0-1.1-3.5,9.551,9.551,0,0,0-2.9-2.4,27.676,27.676,0,0,0-22.3-2.7"/></g><path class="j" d="M424.5,414.9H412.2s-27.6-10-33.3-9c-5.1.9-23.9,13.3-27.5,15.8a3.126,3.126,0,0,0-.9,1.1h0a3.947,3.947,0,0,0,2.2,5.1l.4.2-.2.6a8.329,8.329,0,0,0-.3,2.2,2.7,2.7,0,0,0,2.9,2.5,2.956,2.956,0,0,0,2.1-1.3l-.7,1.3a3.287,3.287,0,0,0-.4,1.7l.1,1.1a3.141,3.141,0,0,0,2.1,2.8h0a3.013,3.013,0,0,0,3.2-.9c2.4-2.6,7.5-7.8,11-8.4a86.491,86.491,0,0,1,11.3-.6,3.89,3.89,0,0,1,3.6,2.5h0c-2.1.1-16.4,7.6-21.5,10.3a5.554,5.554,0,0,0-3,4.1c-.2,1.6.6,3.3,3.8,2.5,6.8-1.6,18.9-7.2,18.9-7.2s6.3-1.8,10.3,1.1c5.7,4,8.3,5.5,13.2,3.9a38.792,38.792,0,0,0,8.5-4l9.7-1C427.9,441.2,437,418.4,424.5,414.9Z"/><path class="k" d="M388,419.6c0,.1-2-.5-5.2-.7a26.854,26.854,0,0,0-22.3,9.5c-1.1,1.4-2.1,2.8-3.1,4.3.2-.4.4-.9.6-1.3a22.737,22.737,0,0,1,2.2-3.2,26,26,0,0,1,22.6-9.7,23.179,23.179,0,0,1,3.8.6C387.1,419.3,387.6,419.4,388,419.6Z"/><path class="k" d="M385.1,412.9a21.221,21.221,0,0,0-18,2.6,51.708,51.708,0,0,0-10.1,8.6l-2.8,2.9a5.241,5.241,0,0,1-1.1,1l.9-1.2c.6-.7,1.5-1.8,2.7-3.1a44.719,44.719,0,0,1,10.1-8.8,23.2,23.2,0,0,1,12.9-3.5,17.632,17.632,0,0,1,4,.7,4.18,4.18,0,0,1,1,.4Z"/><path class="m" d="M544.6,135.1a40.851,40.851,0,0,0-33.5,64.3l-4.9,15.3,15-5.1a40.863,40.863,0,0,0,46.8-67,40.241,40.241,0,0,0-23.4-7.5Z"/><path class="c" d="M545.9,134.8h.7l2.1.1a7.568,7.568,0,0,1,1.5.1l1.8.3,2.2.4,2.4.7a40.367,40.367,0,0,1,11.5,5.4,41.174,41.174,0,0,1,18,31.6,52.308,52.308,0,0,1,0,5.6c-.1.9-.1,1.9-.3,2.9s-.3,1.9-.5,2.9a42.5,42.5,0,0,1-4.3,11.4,40.7,40.7,0,0,1-18.8,17.5,38.688,38.688,0,0,1-13.3,3.6c-1.2.1-2.4.2-3.5.2a21.636,21.636,0,0,1-3.6,0,41.981,41.981,0,0,1-7.1-1.1,40.471,40.471,0,0,1-14-6.4l.4.1-14.6,5.4-.9.3.3-.9,4.7-15.3.1.4a41.314,41.314,0,0,1-7.2-17.9,34.567,34.567,0,0,1-.3-9.1c.1-1.5.3-2.9.5-4.3l.4-2.1a11.688,11.688,0,0,1,.6-2,41.5,41.5,0,0,1,16.8-23,43.819,43.819,0,0,1,9.7-4.8l2.2-.7,2.1-.5,1.9-.4c.6-.1,1.2-.1,1.7-.2,1.1-.1,2.1-.3,2.9-.3h3.4a.9.9,0,0,0,.5.1h-.5l-1.3.1-2.1.1a18.085,18.085,0,0,0-2.9.4,41.177,41.177,0,0,0-33.8,29.5,14.619,14.619,0,0,0-.5,2c-.1.7-.3,1.4-.4,2.1a29.753,29.753,0,0,0-.5,4.3,44.192,44.192,0,0,0,.3,8.9,41.324,41.324,0,0,0,7.1,17.5l.1.2-.1.2c-1.5,5-3.1,10.1-4.7,15.3l-.6-.6,14.6-5.4.2-.1.2.1a40.475,40.475,0,0,0,13.7,6.2,41.269,41.269,0,0,0,6.9,1.1c1.2.1,2.3.1,3.5.1,1.1,0,2.3-.1,3.4-.2a37.1,37.1,0,0,0,13-3.6,41.924,41.924,0,0,0,10.8-7.3,43.863,43.863,0,0,0,7.7-9.9,40.334,40.334,0,0,0,4.2-11.1c.2-1,.3-1.9.5-2.8a26.593,26.593,0,0,0,.3-2.8,51.855,51.855,0,0,0,.1-5.6,40.913,40.913,0,0,0-28.8-36.7l-2.4-.7-2.1-.4-1.8-.4c-.6-.1-1.1-.1-1.5-.2l-2.1-.2A1.088,1.088,0,0,1,545.9,134.8Z"/><path class="c" d="M533.4,159.5a2.865,2.865,0,0,1-1.7-2.6,4.678,4.678,0,0,1,.2-1.6,11.209,11.209,0,0,1,.5-1.3c.1-.2.2-.3.4-.3.2-.1.3,0,.5,0,.2.1.3.2.3.4.1.2,0,.3,0,.5a4.867,4.867,0,0,0-.6,2.2,1.551,1.551,0,0,0,.9,1.5,2.974,2.974,0,0,0,1.9.2,2.619,2.619,0,0,0,1.6-1h-.9a1.421,1.421,0,0,1-.6-.2,1.17,1.17,0,0,1-.8-1.3,3.079,3.079,0,0,1,.3-1.3,3.126,3.126,0,0,1,.9-1.1,8.341,8.341,0,0,1,1.2-.8,2.954,2.954,0,0,1,1.3-.2c.2,0,.3.1.5.2s.2.3.2.5-.1.3-.2.5a.764.764,0,0,1-.5.2,2.485,2.485,0,0,0-.8.1,3.508,3.508,0,0,0-.8.5,2.238,2.238,0,0,0-.8,1.5h.2a.367.367,0,0,1,.3.1h.8c.1,0,.3.1.4.1a1.037,1.037,0,0,1,.8.6,1.1,1.1,0,0,1,0,.8,2.092,2.092,0,0,1-.4.6,3.27,3.27,0,0,1-1.5,1.1,4.333,4.333,0,0,1-1.9.4A2.492,2.492,0,0,1,533.4,159.5Z"/><path class="c" d="M540,159.8a.454.454,0,0,1,0-.5,1.38,1.38,0,0,1,.3-.4,3.778,3.778,0,0,0,1.7-1.6,7.012,7.012,0,0,0,.6-3.2c0-.2.1-.3.2-.5a.764.764,0,0,1,.5-.2c.2,0,.3.1.5.2a.764.764,0,0,1,.2.5,8.247,8.247,0,0,1-.8,3.8,4.743,4.743,0,0,1-2.3,2.1.367.367,0,0,1-.3.1A.419.419,0,0,1,540,159.8Z"/><path class="c" d="M549.7,155.7a.764.764,0,0,1,.2.5c0,.2-.1.3-.2.5a.758.758,0,0,1-.4.2H549c0,.1-.1.3-.1.4a5.026,5.026,0,0,1-.8,1.2,4.8,4.8,0,0,1-2.5,1.4h-.1c-.2,0-.3,0-.4-.1a.52.52,0,0,1-.2-.4.9.9,0,0,1,.1-.5c.1-.2.2-.3.4-.3a3.1,3.1,0,0,0,1.3-.6,3.459,3.459,0,0,0,1-1.1h-.2a2.918,2.918,0,0,1-2.2-.7,2.092,2.092,0,0,1-.4-.6,1.088,1.088,0,0,1-.1-.5,2.41,2.41,0,0,1,.7-1.8,1.76,1.76,0,0,1,1.3-.6,2.279,2.279,0,0,1,1.1.3,2.361,2.361,0,0,1,.8.9,3.371,3.371,0,0,1,.5,1.7h.2A.368.368,0,0,1,549.7,155.7Zm-3.2-1.6a1.135,1.135,0,0,0-.3.8.519.519,0,0,0,.2.4c.1.1.2.1.4.1s.4.1.7.1h.4a2.935,2.935,0,0,0-.3-1c-.2-.4-.4-.6-.7-.6A.519.519,0,0,0,546.5,154.1Z"/><path class="c" d="M557,155.5c.2,0,.3.1.5.2a.764.764,0,0,1,.2.5c0,.2-.1.3-.2.5a.764.764,0,0,1-.5.2,3.121,3.121,0,0,1-2.7-1.1,11.814,11.814,0,0,1-5,1.1c-.2,0-.3-.1-.5-.2a.764.764,0,0,1-.2-.5c0-.2.1-.3.2-.5a.764.764,0,0,1,.5-.2,9.468,9.468,0,0,0,2.8-.4,8.445,8.445,0,0,0,2.7-1.1,1.759,1.759,0,0,1-.6-.1.756.756,0,0,1-.4-.1h-.4a5.836,5.836,0,0,0-1.5-.2.52.52,0,0,0-.4.2c-.1.1-.1.2-.2.4,0,.2-.1.3-.3.4a.9.9,0,0,1-.5.1c-.2,0-.3-.1-.4-.3a.9.9,0,0,1-.1-.5,3.551,3.551,0,0,1,.4-.9,2.4,2.4,0,0,1,1.2-.7c.6-.1,2,.2,4.4.9.1,0,.1,0,.2.1a.821.821,0,0,1,.5.5.481.481,0,0,1-.2.6c-.3.3-.6.5-.9.8a.908.908,0,0,0,.7.3Zm-3.3,2.9a.764.764,0,0,1-.2.5c-.1.2-.3.2-.5.2a1.421,1.421,0,0,1-.6-.2c-.1-.2-.2-.3-.2-.5s.1-.3.2-.5c.2-.2.3-.3.5-.3a.764.764,0,0,1,.5.2A.865.865,0,0,1,553.7,158.4Z"/><path class="c" d="M556.6,156.7a.764.764,0,0,1-.2-.5c0-.2.1-.3.2-.5a.764.764,0,0,1,.5-.2,14.065,14.065,0,0,0,2.8-.3,7.575,7.575,0,0,0,2.7-1.1c-.2,0-.4-.1-.8-.1a4.329,4.329,0,0,0-.5-.1h-.4c-.8-.1-1.2-.2-1.3-.2a1.034,1.034,0,0,0-.4.1c-.1.1-.1.3-.2.6,0,.2-.1.3-.3.4a.9.9,0,0,1-.5.1c-.2,0-.3-.1-.4-.3a.9.9,0,0,1-.1-.5,1.905,1.905,0,0,1,.5-1,2.4,2.4,0,0,1,1.2-.7c.6-.1,2,.2,4.4.9.1,0,.1,0,.2.1a.821.821,0,0,1,.5.5.661.661,0,0,1-.1.6,6.719,6.719,0,0,1-3.4,2,11.415,11.415,0,0,1-3.7.5A1.541,1.541,0,0,1,556.6,156.7Zm5.5.9c.1.1.2.2.2.3a.446.446,0,0,1,0,.5q-.15.3-.3.3a8.336,8.336,0,0,1-1.2.4,2.845,2.845,0,0,1-1.3,0,.52.52,0,0,1-.4-.2.6.6,0,0,1-.1-.4.519.519,0,0,1,.2-.4.6.6,0,0,1,.4-.1,1.352,1.352,0,0,0,.9,0c.4-.1.7-.2,1-.3a.349.349,0,0,0,.2-.1C561.9,157.5,562,157.6,562.1,157.6Zm-.7,1.9a.758.758,0,0,1,.2.4c0,.2,0,.3-.1.4l-.1.1a.605.605,0,0,1-.8.1l-.3-.3a.6.6,0,0,1-.1-.4c0-.3.2-.4.4-.5a.367.367,0,0,1,.3-.1C561.1,159.3,561.2,159.4,561.4,159.5Z"/><path class="c" d="M518,178.8a2.568,2.568,0,0,1-.8-2,5.851,5.851,0,0,1,.2-1.3,2.925,2.925,0,0,1,.7-1.2.758.758,0,0,1,.4-.2.9.9,0,0,1,.5.1.764.764,0,0,1,.2.5.9.9,0,0,1-.1.5,2.01,2.01,0,0,0-.4.8,2.921,2.921,0,0,0-.2.9,1.5,1.5,0,0,0,.4,1.1,2.111,2.111,0,0,0,1.6.6c.9,0,1.5-.2,1.8-.7a2.392,2.392,0,0,0,.3-1.5,7.869,7.869,0,0,0-.4-2,.454.454,0,0,1,0-.5c.1-.2.2-.3.4-.3a.454.454,0,0,1,.5,0,.781.781,0,0,1,.4.4,6.874,6.874,0,0,1,.5,2.4,4.143,4.143,0,0,1-.6,2.3,4,4,0,0,1-1.2,1,4.671,4.671,0,0,1-1.7.3A6.47,6.47,0,0,1,518,178.8Zm3.5-5.1a1.421,1.421,0,0,1-.2.6.551.551,0,0,1-.5.2,1.421,1.421,0,0,1-.6-.2.735.735,0,0,1-.2-.6.55.55,0,0,1,.3-.5.75.75,0,0,1,1.2,0C521.4,173.3,521.5,173.5,521.5,173.7Z"/><path class="c" d="M529.7,175.5a.764.764,0,0,1,.2.5c0,.2-.1.3-.2.5a.758.758,0,0,1-.4.2H529c0,.1-.1.3-.1.4a5.026,5.026,0,0,1-.8,1.2,4.8,4.8,0,0,1-2.5,1.4h-.1c-.2,0-.3,0-.4-.1a.52.52,0,0,1-.2-.4.9.9,0,0,1,.1-.5c.1-.2.2-.3.4-.3a3.1,3.1,0,0,0,1.3-.6,3.459,3.459,0,0,0,1-1.1h-.2a2.918,2.918,0,0,1-2.2-.7,2.092,2.092,0,0,1-.4-.6,1.088,1.088,0,0,1-.1-.5,2.41,2.41,0,0,1,.7-1.8,1.76,1.76,0,0,1,1.3-.6,2.279,2.279,0,0,1,1.1.3,2.361,2.361,0,0,1,.8.9,3.371,3.371,0,0,1,.5,1.7h.2C529.4,175.3,529.5,175.4,529.7,175.5Zm-3.3-1.6a1.135,1.135,0,0,0-.3.8.519.519,0,0,0,.2.4c.1.1.2.1.4.1s.4.1.7.1h.4a2.935,2.935,0,0,0-.3-1c-.2-.4-.4-.6-.7-.6A.519.519,0,0,0,526.4,173.9Z"/><path class="c" d="M533.1,175.3c.2,0,.3.1.5.2a.764.764,0,0,1,.2.5c0,.2-.1.3-.2.5a.764.764,0,0,1-.5.2,1.594,1.594,0,0,1-1.2-.4c-.1,0-.1-.1-.2-.2-.3.4-1.1.6-2.5.6-.2,0-.3-.1-.5-.2a.764.764,0,0,1-.2-.5c0-.2.1-.3.2-.5a.764.764,0,0,1,.5-.2,2.373,2.373,0,0,0,1.5-.3c.2-.2.2-.4.2-.8v-.9a.551.551,0,0,1,.2-.5.764.764,0,0,1,.5-.2.551.551,0,0,1,.5.2.764.764,0,0,1,.2.5v.3a8.786,8.786,0,0,0,.2,1.4A.6.6,0,0,0,533.1,175.3Zm-3.5-3c-.1-.1-.2-.1-.2-.3a.446.446,0,0,1,0-.5q.15-.3.3-.3a8.336,8.336,0,0,1,1.2-.4,2.845,2.845,0,0,1,1.3,0,.52.52,0,0,1,.4.2.6.6,0,0,1,.1.4.519.519,0,0,1-.2.4.6.6,0,0,1-.4.1,1.352,1.352,0,0,0-.9,0c-.4.1-.7.2-1,.3H530C529.8,172.4,529.7,172.4,529.6,172.3Z"/><path class="c" d="M538.2,175.3c.2,0,.3.1.5.2a.764.764,0,0,1,.2.5c0,.2-.1.3-.2.5a.764.764,0,0,1-.5.2,2.986,2.986,0,0,1-2.2-1,1.879,1.879,0,0,1-1.1.8,4.416,4.416,0,0,1-1.7.2c-.2,0-.3-.1-.5-.2a.764.764,0,0,1-.2-.5c0-.2.1-.3.2-.5a.764.764,0,0,1,.5-.2,5.213,5.213,0,0,0,1.4-.2c.1,0,.2-.1.3-.2a.1.1,0,0,0,.1-.1.75.75,0,0,0,.1-.5.367.367,0,0,0-.1-.3c0-.1-.1-.1-.1-.2v-.1a11.6,11.6,0,0,1-.8-1.6l-.2-.5a.638.638,0,0,1,0-.6h-.3a.6.6,0,0,1-.4-.1c-.1-.1-.2-.2-.2-.3-.1-.2,0-.3,0-.5.1-.2.2-.3.4-.3a15.572,15.572,0,0,0,4.6-2.5.764.764,0,0,1,.5-.2c.2,0,.3.1.5.2a.764.764,0,0,1,.2.5c0,.2-.1.3-.2.5a13.313,13.313,0,0,1-4,2.4c.1.1.3.2.3.3l.2.5c.7,1.3,1.2,2.3,1.5,2.7a2.165,2.165,0,0,0,.9.8C537.7,175.3,538,175.3,538.2,175.3Z"/><path class="c" d="M543.6,175.3c.2,0,.3.1.5.2a.764.764,0,0,1,.2.5c0,.2-.1.3-.2.5a.764.764,0,0,1-.5.2,1.5,1.5,0,0,1-1.1-.4,1.594,1.594,0,0,1-1.2.4h-.1a2.574,2.574,0,0,1-1.5-.7,2.271,2.271,0,0,1-1.6.6c-.2,0-.3-.1-.5-.2a.764.764,0,0,1-.2-.5c0-.2.1-.3.2-.5a.764.764,0,0,1,.5-.2.908.908,0,0,0,.7-.3c.1-.2.3-.5.5-.9l.1-.3c0-.1.1-.2.1-.3a2.186,2.186,0,0,1,.3-.5,1.612,1.612,0,0,1,1.3-.6,1.8,1.8,0,0,1,1.6.9,6.89,6.89,0,0,1,.3.8v.5a1.072,1.072,0,0,0,.2.6h.1C543.5,175.3,543.6,175.3,543.6,175.3Zm-2.2.1c.4,0,.6-.2.6-.7a.764.764,0,0,0-.2-.5.6.6,0,0,0-.6-.3c-.1,0-.2.1-.3.2a1.541,1.541,0,0,0-.3.7v.1l-.1.1A1.8,1.8,0,0,0,541.4,175.4Z"/><path class="c" d="M549.5,167.7a.764.764,0,0,1,.2.5c0,.2-.1.3-.2.5a10.679,10.679,0,0,1-2.5,1.6,11.645,11.645,0,0,1-1.5.6,6.333,6.333,0,0,1,1.9,1.6,3.746,3.746,0,0,1,.7,1.2,1.95,1.95,0,0,1,0,1.5,2.428,2.428,0,0,1-1.7,1.4c-.3.1-.6.1-1,.2h-1.6c-.2,0-.3-.1-.5-.2a.764.764,0,0,1-.2-.5c0-.2.1-.3.2-.5a.764.764,0,0,1,.5-.2,10.45,10.45,0,0,0,2.2-.1c.5-.1.8-.3.9-.7a.631.631,0,0,0-.1-.7c-.1-.1-.1-.2-.2-.3s-.1-.2-.2-.2a6.035,6.035,0,0,0-.8-.8c-.3-.2-.5-.4-.7-.5-.1-.1-.3-.2-.3-.4a.454.454,0,0,1,0-.5h-.2a.6.6,0,0,1-.4-.1c-.1-.1-.2-.2-.2-.3-.1-.2,0-.3,0-.5.1-.2.2-.3.4-.3a12.3,12.3,0,0,0,2.2-.9,7.705,7.705,0,0,0,2.1-1.4.725.725,0,0,1,1,0Z"/><path class="c" d="M552.5,180.2a.52.52,0,0,1-.2-.4c0-.3-.1-.6-.1-.9a5.284,5.284,0,0,1-.1-1.3,16.021,16.021,0,0,1,0-3.1.675.675,0,0,1,.4-.6.616.616,0,0,1,.7.1c.1.1.2.1.3.2a4.052,4.052,0,0,1,.5-.9,2.539,2.539,0,0,1,1-.8,1.721,1.721,0,0,1,1.2-.2,1.419,1.419,0,0,1,.9.8,3.583,3.583,0,0,1,.4,1.1,3.334,3.334,0,0,1,0,1h.4a.52.52,0,0,1,.4.2.764.764,0,0,1,.2.5c0,.2-.1.3-.2.5a.764.764,0,0,1-.5.2h-2.1a3.079,3.079,0,0,1-1.3-.3,9.743,9.743,0,0,1-1.1-.5,18.488,18.488,0,0,0,.1,2.3c0,.3.1.6.1.9v.5a.9.9,0,0,1-.1.5c-.1.1-.3.2-.4.3h-.1C552.8,180.4,552.7,180.3,552.5,180.2Zm3.6-5.2v-.5a.764.764,0,0,0-.2-.5c-.1-.1-.2-.2-.3-.2-.2,0-.5.2-.8.6-.1.1-.2.3-.3.4a.31.31,0,0,0-.1.2,6.213,6.213,0,0,0,1,.3h.6C556,175.2,556.1,175.1,556.1,175Z"/><path class="c" d="M557.7,176.7c-.2,0-.3-.1-.5-.2a.764.764,0,0,1-.2-.5c0-.2.1-.3.2-.5a.764.764,0,0,1,.5-.2,3.109,3.109,0,0,0,1.1-.1.918.918,0,0,0,.6-.4v-.7a9.284,9.284,0,0,0-.4-1.3.454.454,0,0,1,0-.5,1.38,1.38,0,0,1,.3-.4.454.454,0,0,1,.5,0,1.381,1.381,0,0,1,.4.3.349.349,0,0,0,.1.2c0,.1.1.2.1.3l.3.9a2.59,2.59,0,0,1-.1,1.8,1.761,1.761,0,0,1-1.3.9,1.949,1.949,0,0,1-.8.1h-.8Zm2.2-6a1.421,1.421,0,0,1-.2.6.551.551,0,0,1-.5.2,1.421,1.421,0,0,1-.6-.2.735.735,0,0,1-.2-.6.55.55,0,0,1,.3-.5.75.75,0,0,1,1.2,0C559.8,170.3,559.9,170.5,559.9,170.7Z"/><path class="c" d="M566.4,175.5a.764.764,0,0,1,.2.5c0,.2-.1.3-.2.5a.758.758,0,0,1-.4.2h-.3c0,.1-.1.3-.1.4a5.026,5.026,0,0,1-.8,1.2,4.8,4.8,0,0,1-2.5,1.4h-.1c-.2,0-.3,0-.4-.1a.52.52,0,0,1-.2-.4.9.9,0,0,1,.1-.5c.1-.2.2-.3.4-.3a3.1,3.1,0,0,0,1.3-.6,3.459,3.459,0,0,0,1-1.1h-.2a2.918,2.918,0,0,1-2.2-.7,2.092,2.092,0,0,1-.4-.6,1.088,1.088,0,0,1-.1-.5,2.41,2.41,0,0,1,.7-1.8,1.76,1.76,0,0,1,1.3-.6,2.279,2.279,0,0,1,1.1.3,2.361,2.361,0,0,1,.8.9,3.371,3.371,0,0,1,.5,1.7h.2C566.1,175.3,566.3,175.4,566.4,175.5Zm-3.3-1.6a1.135,1.135,0,0,0-.3.8.519.519,0,0,0,.2.4c.1.1.2.1.4.1s.4.1.7.1h.4a2.935,2.935,0,0,0-.3-1c-.2-.4-.4-.6-.7-.6C563.4,173.7,563.3,173.8,563.1,173.9Z"/><path class="c" d="M569.8,175.3c.2,0,.3.1.5.2a.764.764,0,0,1,.2.5c0,.2-.1.3-.2.5a.764.764,0,0,1-.5.2,1.594,1.594,0,0,1-1.2-.4c-.1,0-.1-.1-.2-.2-.3.4-1.1.6-2.5.6-.2,0-.3-.1-.5-.2a.764.764,0,0,1-.2-.5c0-.2.1-.3.2-.5a.764.764,0,0,1,.5-.2,2.373,2.373,0,0,0,1.5-.3c.2-.2.2-.4.2-.8v-.9a.551.551,0,0,1,.2-.5.764.764,0,0,1,.5-.2.551.551,0,0,1,.5.2.764.764,0,0,1,.2.5v.3a8.786,8.786,0,0,0,.2,1.4A.864.864,0,0,0,569.8,175.3Zm-3.4-3c-.1-.1-.2-.1-.2-.3a.446.446,0,0,1,0-.5q.15-.3.3-.3a8.336,8.336,0,0,1,1.2-.4,2.845,2.845,0,0,1,1.3,0,.52.52,0,0,1,.4.2.6.6,0,0,1,.1.4.519.519,0,0,1-.2.4.6.6,0,0,1-.4.1,1.352,1.352,0,0,0-.9,0c-.4.1-.7.2-1,.3h-.2C566.6,172.4,566.5,172.4,566.4,172.3Z"/><path class="c" d="M573.7,175.3c.2,0,.3.1.5.2a.764.764,0,0,1,.2.5c0,.2-.1.3-.2.5a.764.764,0,0,1-.5.2,1.594,1.594,0,0,1-1.2-.4c-.1,0-.1-.1-.2-.2-.3.4-1.1.6-2.5.6-.2,0-.3-.1-.5-.2a.764.764,0,0,1-.2-.5c0-.2.1-.3.2-.5a.764.764,0,0,1,.5-.2,2.373,2.373,0,0,0,1.5-.3c.2-.2.2-.4.2-.8v-.9a.551.551,0,0,1,.2-.5.764.764,0,0,1,.5-.2.551.551,0,0,1,.5.2.764.764,0,0,1,.2.5v.3a8.786,8.786,0,0,0,.2,1.4A.6.6,0,0,0,573.7,175.3Zm-3.6,3.5c-.1-.1-.2-.2-.2-.3a.454.454,0,0,1,0-.5q.15-.3.3-.3a8.336,8.336,0,0,1,1.2-.4,2.845,2.845,0,0,1,1.3,0,.52.52,0,0,1,.4.2.6.6,0,0,1,.1.4.519.519,0,0,1-.2.4.6.6,0,0,1-.4.1,1.352,1.352,0,0,0-.9,0c-.4.1-.7.2-1,.3h-.2C570.3,178.9,570.2,178.9,570.1,178.8Z"/><path class="c" d="M576.9,176.8a1.613,1.613,0,0,1-.9-.3c-.2-.1-.4-.3-.7-.5a2.413,2.413,0,0,1-1.7.7c-.2,0-.3-.1-.5-.2a.764.764,0,0,1-.2-.5c0-.2.1-.3.2-.5a.764.764,0,0,1,.5-.2.908.908,0,0,0,.7-.3c.1-.2.3-.5.6-1l.1-.3c0-.1.1-.2.1-.3a2.186,2.186,0,0,1,.3-.5,1.612,1.612,0,0,1,1.3-.6,1.8,1.8,0,0,1,1.6.9,2.01,2.01,0,0,1,.4,1.3,2.07,2.07,0,0,1-.5,1.5,1.287,1.287,0,0,1-1.3.8Zm-.8-2a1.209,1.209,0,0,0,.9.6c.2,0,.3-.1.4-.3s.2-.3.2-.5a1.421,1.421,0,0,0-.2-.6.6.6,0,0,0-.6-.3c-.1,0-.2.1-.3.2a3.218,3.218,0,0,0-.4.7Z"/><path class="c" d="M532,194.5a.764.764,0,0,1-.2-.5c0-.5,0-.8-.1-.9a1.755,1.755,0,0,0-.4-.5,2.853,2.853,0,0,1-.8-.7,1.594,1.594,0,0,1-.4-1.2,2.106,2.106,0,0,1,.5-1.3,2.136,2.136,0,0,1,1.7-.8,2.976,2.976,0,0,1,1.5.5,2.088,2.088,0,0,1,.8,1.6c0,.2-.1.3-.2.5a.764.764,0,0,1-.5.2c-.2,0-.3-.1-.5-.2a.764.764,0,0,1-.2-.5.6.6,0,0,0-.3-.6.367.367,0,0,0-.3-.1h-.3a.812.812,0,0,0-.8.4c0,.1-.1.2-.1.3v.1h0a.367.367,0,0,0,.1.3,2.18,2.18,0,0,0,.5.4,2.335,2.335,0,0,1,1,1.2,4.923,4.923,0,0,1,.1,1.4c0,.2-.1.3-.2.5a.764.764,0,0,1-.5.2C532.3,194.7,532.2,194.7,532,194.5Zm1.3,1.4a.684.684,0,1,1-.2-.5A.764.764,0,0,1,533.3,195.9Z"/><path class="c" d="M536.8,195.8a.7.7,0,1,1-1.2-.5c.2-.1.3-.2.5-.2a.684.684,0,0,1,.7.7Zm-1.2-1.3a.764.764,0,0,1-.2-.5v-4.7c0-.2.1-.3.2-.5a.764.764,0,0,1,.5-.2c.2,0,.3.1.5.2a.764.764,0,0,1,.2.5V194c0,.2-.1.3-.2.5a.764.764,0,0,1-.5.2A.588.588,0,0,1,535.6,194.5Z"/><path class="c" d="M538,196.2a.713.713,0,0,1,.3-.6.735.735,0,0,1,.6-.2.845.845,0,0,1,.6.2.75.75,0,0,1,0,1.2.735.735,0,0,1-.6.2.845.845,0,0,1-.6-.2A.6.6,0,0,1,538,196.2Z"/><path class="c" d="M541.1,196.2a.713.713,0,0,1,.3-.6.735.735,0,0,1,.6-.2.845.845,0,0,1,.6.2.75.75,0,0,1,0,1.2.735.735,0,0,1-.6.2.845.845,0,0,1-.6-.2A.6.6,0,0,1,541.1,196.2Z"/><path class="c" d="M544.2,196.2a.713.713,0,0,1,.3-.6.735.735,0,0,1,.6-.2.845.845,0,0,1,.6.2.75.75,0,0,1,0,1.2.735.735,0,0,1-.6.2.845.845,0,0,1-.6-.2A.6.6,0,0,1,544.2,196.2Z"/><path class="c" d="M547.3,200a.52.52,0,0,1-.2-.4c0-.3-.1-.6-.1-.9a5.284,5.284,0,0,1-.1-1.3,16.021,16.021,0,0,1,0-3.1.675.675,0,0,1,.4-.6.616.616,0,0,1,.7.1c.1.1.2.1.3.2a4.052,4.052,0,0,1,.5-.9,2.539,2.539,0,0,1,1-.8,1.721,1.721,0,0,1,1.2-.2,1.419,1.419,0,0,1,.9.8,3.583,3.583,0,0,1,.4,1.1,3.334,3.334,0,0,1,0,1h.4a.52.52,0,0,1,.4.2.764.764,0,0,1,.2.5c0,.2-.1.3-.2.5a.764.764,0,0,1-.5.2h-2.1a3.079,3.079,0,0,1-1.3-.3,9.743,9.743,0,0,1-1.1-.5,18.488,18.488,0,0,0,.1,2.3c0,.3.1.6.1.9v.5a.9.9,0,0,1-.1.5c-.1.1-.3.2-.4.3h-.1C547.5,200.2,547.4,200.1,547.3,200Zm3.6-5.2v-.5a.764.764,0,0,0-.2-.5c-.1-.1-.2-.2-.3-.2-.2,0-.5.2-.8.6-.1.1-.2.3-.3.4a.31.31,0,0,0-.1.2,6.213,6.213,0,0,0,1,.3h.6A.367.367,0,0,1,550.9,194.8Z"/><path class="c" d="M556.6,195.1v1.3h-4.3v-1.3Z"/><path class="c" d="M559.9,195.1c.2,0,.3.1.5.2a.764.764,0,0,1,.2.5c0,.2-.1.3-.2.5a.764.764,0,0,1-.5.2,1.746,1.746,0,0,1-1.2-.4c-.1,0-.1-.1-.2-.2a2.825,2.825,0,0,1-2,.5c-.2,0-.3-.1-.5-.2a.764.764,0,0,1-.2-.5c0-.2.1-.3.2-.5a.764.764,0,0,1,.5-.2h.7a.764.764,0,0,0,.5-.2.91.91,0,0,0,.1-.8v-.9a.551.551,0,0,1,.2-.5.764.764,0,0,1,.5-.2.551.551,0,0,1,.5.2.764.764,0,0,1,.2.5v.3a8.786,8.786,0,0,0,.2,1.4A.462.462,0,0,0,559.9,195.1Zm-1.2-4.1a1.421,1.421,0,0,1-.2.6.551.551,0,0,1-.5.2,1.421,1.421,0,0,1-.6-.2.735.735,0,0,1-.2-.6.55.55,0,0,1,.3-.5.75.75,0,0,1,1.2,0C558.6,190.6,558.7,190.8,558.7,191Z"/><path class="c" d="M565.7,187.5a.764.764,0,0,1,.2.5c0,.2-.1.3-.2.5a10.679,10.679,0,0,1-2.5,1.6,11.645,11.645,0,0,1-1.5.6,6.333,6.333,0,0,1,1.9,1.6,3.746,3.746,0,0,1,.7,1.2,1.95,1.95,0,0,1,0,1.5,2.428,2.428,0,0,1-1.7,1.4c-.3.1-.6.1-1,.2H560c-.2,0-.3-.1-.5-.2a.764.764,0,0,1-.2-.5c0-.2.1-.3.2-.5a.764.764,0,0,1,.5-.2,10.45,10.45,0,0,0,2.2-.1c.5-.1.8-.3.9-.7a.631.631,0,0,0-.1-.7c-.1-.1-.1-.2-.2-.3s-.1-.2-.2-.2a6.035,6.035,0,0,0-.8-.8c-.3-.2-.5-.4-.7-.5-.1-.1-.3-.2-.3-.4a.454.454,0,0,1,0-.5h-.2a.6.6,0,0,1-.4-.1c-.1-.1-.2-.2-.2-.3-.1-.2,0-.3,0-.5.1-.2.2-.3.4-.3a12.3,12.3,0,0,0,2.2-.9,7.705,7.705,0,0,0,2.1-1.4.764.764,0,0,1,.5-.2C565.4,187.3,565.6,187.3,565.7,187.5Z"/><path class="c" d="M251.7,457.8l-33.2-83.3a10.858,10.858,0,0,1,6-14.2,11.5,11.5,0,0,1,4.1-.8H332a10.875,10.875,0,0,1,10.3,7.4l28.5,84,33.3.2c2.7,0,4.9,4,4.9,6.7h0l-36.6-.4Z"/><path class="f" d="M252.6,378.8a11.293,11.293,0,0,0-6.7,1.8,6.549,6.549,0,0,0-1.8,1.5c-1.8,2-4.9,5.9-3.7,11.9s5.1,6.9,7,7.1,14.5-3.4,14.5-3.4,4.6-3.9,3-9C263.4,384.1,259.4,379,252.6,378.8Z"/><path class="e" d="M246.5,399.2s.5,3.2,2.1,4,4.6.7,7,.1,5.8-1.9,6.2-3.7a7.481,7.481,0,0,0-.2-4.2,10.541,10.541,0,0,0-8.5-.8A10.876,10.876,0,0,0,246.5,399.2Z"/><g class="n"><path class="m" d="M256.8,383.8a6.088,6.088,0,1,1-7.4-4.4A6.046,6.046,0,0,1,256.8,383.8Z"/></g><g class="n"><path class="m" d="M241.4,397a7.591,7.591,0,0,0,1.7-5.2,6.865,6.865,0,0,0-2.3-4.8,15.958,15.958,0,0,0-.7,6.1A16.256,16.256,0,0,0,241.4,397Z"/></g><g class="n"><path class="m" d="M265.2,391a7.986,7.986,0,0,1-4-3.7,6.935,6.935,0,0,1-.4-5.1,17.456,17.456,0,0,1,3.5,4.9C265.5,389.9,265.2,391,265.2,391Z"/></g><path class="e" d="M299.5,412.1a6.7,6.7,0,1,1-6.7-6.7h0A6.7,6.7,0,0,1,299.5,412.1Z"/><path class="c" d="M694.3,457.3c0,.1-137.5.3-307,.3s-307-.1-307-.3,137.4-.3,307-.3S694.3,457.2,694.3,457.3Z"/><path class="l" d="M171.7,423c-9.8-5.7-15-18.9-15.4-29.7s4.1-22,13-28.2c9.3-6.5,22.6-6.4,32.2-.3s15.2,17.7,14.8,29.1-6.6,22.2-15.8,29"/><path class="m" d="M187.3,424a19.48,19.48,0,0,1-.2-2.5c-.1-1.8-.1-4-.2-6.7-.1-5.7-.4-13.5-.8-22.2s-.9-16.5-1.2-22.2c-.2-2.7-.3-5-.4-6.7a10.444,10.444,0,0,1,0-2.5,20.022,20.022,0,0,1,.4,2.4c.2,1.6.4,3.9.7,6.7.5,5.7,1.1,13.5,1.5,22.2s.5,16.5.5,22.2c0,2.8,0,5.1-.1,6.7A19.666,19.666,0,0,1,187.3,424Z"/><path class="c" d="M159.1,390.9c0,.3-1.6.3-3.5.2s-3.4-.5-3.4-.7,1.6-.3,3.5-.2S159.2,390.6,159.1,390.9Z"/><path class="c" d="M159.7,381.2c-.1.2-1.4-.1-3-.8s-2.7-1.4-2.6-1.7,1.4.1,3,.8S159.8,381,159.7,381.2Z"/><path class="c" d="M164.7,374c-.1.2-1.6-.5-3.2-1.8s-2.6-2.7-2.4-2.8,1.4.9,3,2.1S164.8,373.8,164.7,374Z"/><path class="c" d="M169.7,367.2c-.2.1-1-1-1.6-2.5s-1-2.8-.8-2.9,1,1,1.6,2.5S169.9,367.1,169.7,367.2Z"/><path class="c" d="M177.6,362.4c-.2.1-1-1.1-1.5-2.8s-.6-3.1-.3-3.1.7,1.3,1.2,2.9S177.8,362.3,177.6,362.4Z"/><path class="c" d="M190.7,357c.2.1.1,1.1-.3,2.3s-1,2.1-1.2,2-.1-1.1.3-2.3S190.4,356.9,190.7,357Z"/><path class="c" d="M200.4,361.2c.2.2-.4,1-1.4,1.9s-1.9,1.4-2,1.3.4-1,1.4-1.9S200.2,361,200.4,361.2Z"/><path class="c" d="M209,366.7c.1.2-.6,1-1.7,1.7s-2.1,1.1-2.2.9.6-1,1.7-1.7S208.8,366.5,209,366.7Z"/><path class="c" d="M215.1,374.9c.1.2-1.1,1-2.7,1.6s-2.9,1-3,.8,1.1-1,2.7-1.6S215,374.7,215.1,374.9Z"/><path class="c" d="M217.4,383.9c0,.3-1.2.6-2.7.8s-2.8.1-2.8-.1,1.2-.6,2.7-.8S217.4,383.7,217.4,383.9Z"/><path class="c" d="M218.7,395c-.1.2-1.4-.1-2.9-.8s-2.6-1.4-2.5-1.6,1.4.1,2.9.8S218.8,394.8,218.7,395Z"/><path class="c" d="M217.6,404.5c-.1.2-1.7-.2-3.4-1.3a6.814,6.814,0,0,1-2.6-2.6,19.636,19.636,0,0,1,3.1,1.9C216.4,403.6,217.7,404.3,217.6,404.5Z"/><path class="c" d="M212.6,413.2c-.1.2-1.5-.6-2.7-1.9s-1.9-2.7-1.7-2.9,1.2.9,2.4,2.2S212.8,413,212.6,413.2Z"/><path class="c" d="M165.7,414.2c.1.2-1.3,1.2-3.1,2.1s-3.4,1.5-3.5,1.3,1.3-1.2,3.1-2.1S165.5,414,165.7,414.2Z"/><path class="c" d="M161.4,406.4c.1.2-1,1-2.5,1.6s-2.7,1-2.8.8,1-1,2.5-1.6S161.3,406.1,161.4,406.4Z"/><path class="c" d="M158.2,399.4c0,.3-1.3.6-3,.9s-3.1.2-3.2,0,1.3-.6,3-.9S158.2,399.2,158.2,399.4Z"/><path class="c" d="M168.6,395.6c.1.2-1.3.9-3,1s-3.2-.1-3.2-.4,1.4-.4,3.1-.6S168.5,395.4,168.6,395.6Z"/><path class="c" d="M177.2,387.1c.1.2-1,.8-2.4.9s-2.6-.2-2.5-.4a5.2,5.2,0,0,1,2.4-.5C176,387,177.1,386.8,177.2,387.1Z"/><path class="c" d="M178.8,380.2c-.1.2-1.2.1-2.6-.4s-2.3-1-2.2-1.3,1.2-.1,2.5.4S178.9,380,178.8,380.2Z"/><path class="c" d="M182,373.3c-.2.2-1-.3-1.5-1.3s-.6-1.9-.4-2,.7.6,1.2,1.5S182.1,373.1,182,373.3Z"/><path class="c" d="M178.1,401.6c.1.3-.9.7-2.2,1a10.79,10.79,0,0,1-1.9.3l-.2-.5c.3-.1.6,0,.6.1s-.1.3-.4.5l-.2-.5a6.357,6.357,0,0,1,1.8-.6C177,401.5,178.1,401.4,178.1,401.6Z"/><path class="c" d="M179.9,413.8c.1.2-1.2,1-2.8,1.6s-3.1,1-3.1.7,1.2-1,2.8-1.6S179.8,413.6,179.9,413.8Z"/><path class="c" d="M170.2,408.4c.1.2-.8.7-1.9,1.1s-2.1.5-2.2.3.8-.7,1.9-1.1S170.1,408.2,170.2,408.4Z"/><path class="c" d="M171,383.7c-.1.2-1.5.1-3.2-.5s-2.9-1.4-2.8-1.6,1.5.2,3.1.8S171,383.4,171,383.7Z"/><path class="c" d="M194.5,381c.1.2-.7,1-1.8,1.8s-2.2,1.2-2.3,1,.7-1,1.8-1.8S194.3,380.8,194.5,381Z"/><path class="c" d="M195.7,393.2c.1.3-.8.6-1.9.9s-2.1.2-2.1,0,.8-.6,1.9-.9S195.7,392.9,195.7,393.2Z"/><path class="c" d="M197.2,406.9c-.1.2-1.4-.1-2.8-.8s-2.5-1.4-2.4-1.6,1.4.1,2.8.8S197.3,406.7,197.2,406.9Z"/><path class="c" d="M194.1,420.3c-.2.2-1-.5-1.8-1.5s-1.3-1.9-1.1-2.1,1,.5,1.8,1.5S194.3,420.1,194.1,420.3Z"/><path class="c" d="M193.4,372c.2.2-.4.9-1.3,1.3s-1.8.5-1.8.3.6-.6,1.4-1.1S193.3,371.8,193.4,372Z"/><path class="c" d="M205,384.3c.1.2-1,.8-2.4,1s-2.6-.1-2.6-.3,1.1-.4,2.5-.6S204.9,384.1,205,384.3Z"/><path class="c" d="M202.7,373.3c.1.2-.9,1-2.4,1.5s-2.8.5-2.8.2,1.1-.6,2.6-1.1S202.5,373,202.7,373.3Z"/><path class="c" d="M207.5,401.4c0,.3-1.8.4-4,0s-3.8-1.2-3.7-1.4,1.8.1,3.9.5S207.5,401.1,207.5,401.4Z"/><path class="c" d="M203.2,417.5c-.1.2-1.5-.6-2.8-1.9s-2.1-2.7-1.9-2.8,1.3.9,2.6,2.2S203.3,417.3,203.2,417.5Z"/><path class="m" d="M184.4,360.2c.1.2-3.7,1.7-8,6.4a39.066,39.066,0,0,0-10,22.1,50.813,50.813,0,0,0,.6,13.5c.7,3.7,1.5,7.3,2.5,10.9.9,3.1,1.7,5.5,2.2,7.2a27.582,27.582,0,0,1,.8,2.7,27.184,27.184,0,0,1-1.1-2.5c-.6-1.7-1.6-4.1-2.5-7.1a102.469,102.469,0,0,1-2.8-10.9,49.073,49.073,0,0,1-.7-13.8,38.869,38.869,0,0,1,10.4-22.5,30.363,30.363,0,0,1,6-4.7,16.178,16.178,0,0,1,1.8-1C184.1,360.3,184.4,360.2,184.4,360.2Z"/><path class="m" d="M196.9,423.6c-.2-.1,2.1-3.6,4.1-9.9a55.69,55.69,0,0,0,2.5-25.3,45.479,45.479,0,0,0-3.9-13.5,32.128,32.128,0,0,0-6.6-9.3,23.083,23.083,0,0,0-6.5-4.1c-1.7-.7-2.7-.9-2.7-1h.8a8.3,8.3,0,0,1,2.1.6,22.176,22.176,0,0,1,6.8,4,30.806,30.806,0,0,1,7,9.4,46.905,46.905,0,0,1,4,13.7,53.061,53.061,0,0,1-2.8,25.6c-.5,1.6-1.2,2.9-1.7,4.2a27.637,27.637,0,0,1-1.5,3C197.9,422,197.4,422.8,196.9,423.6Z"/><path class="c" d="M161.4,421.4h50.5l.3,10.1H161.4Z"/><path class="c" d="M165.7,426.5l2.9,30.8h36.9l3-30.5Z"/><path class="b" d="M212.2,431.6c0,.3-11.4.5-25.4.5s-25.4-.2-25.4-.5,11.4-.5,25.4-.5S212.2,431.4,212.2,431.6Z"/><path class="b" d="M207.1,441a7.814,7.814,0,0,1-1.1,2,28.75,28.75,0,0,1-3.9,4.6l-.2.2-.2-.2a68.536,68.536,0,0,0-9.9-8.7h.6l-4.4,3.9-5.2,4.5-.3.3-.3-.3-8.4-7.1h.5l-4.4,5.3a15.371,15.371,0,0,1-1.7,1.9,15.336,15.336,0,0,1,1.4-2.1l4.1-5.5.2-.3.3.2,8.6,6.9h-.6l5.2-4.5,4.4-3.8.3-.2.3.2a64.265,64.265,0,0,1,9.9,8.9h-.5C203.6,445.3,205.4,443.2,207.1,441Z"/><path class="b" d="M451.1,154.2a20.736,20.736,0,0,1,15.4,7.6c9,11.4,7.4,32.2,4.8,49.8a.637.637,0,0,1,.6,0,5.718,5.718,0,0,0,.8.7c2.8-18,4.4-39.6-5-51.5a22.261,22.261,0,0,0-16.5-8.2.773.773,0,0,0-.8.7A.7.7,0,0,0,451.1,154.2Z"/><path class="c" d="M468.3,208.8h0a8.6,8.6,0,0,1-.1,1.6,31.458,31.458,0,0,1-11.3,22,32.99,32.99,0,0,1-24.3,7.7.773.773,0,0,0-.8.7h0a.773.773,0,0,0,.7.8,35.3,35.3,0,0,0,13.7-1.5,32.687,32.687,0,0,0,11.6-6.6,33.567,33.567,0,0,0,11.9-23.1v-.6C469.3,209.5,468.8,209.2,468.3,208.8Z"/><path class="c" d="M423.5,239l7.9-1a2.437,2.437,0,0,1,2.8,2.2l.1.5a2.437,2.437,0,0,1-2.2,2.8l-7.9,1a2.437,2.437,0,0,1-2.8-2.2l-.1-.5A2.544,2.544,0,0,1,423.5,239Z"/><ellipse class="b" cx="14.6" cy="9.5" rx="14.6" ry="9.5" transform="matrix(0.104, -0.994, 0.994, 0.104, 462.691, 220.242)"/><path class="f" d="M482.4,207.8c-.7,6.2-3.9,11.1-7.3,10.8s-5.6-5.8-4.9-12.1,3.9-11.1,7.3-10.8C480.8,196.1,483,201.5,482.4,207.8Z"/></g></svg>