<svg xmlns="http://www.w3.org/2000/svg" width="667" height="402.4" viewBox="0 0 667 402.4"><defs><style>.a{fill:#ff3600;}.b,.n{opacity:0.2;}.c{fill:#263238;}.d{opacity:0.3;}.e{fill:#fff;}.f{fill:#06826a;}.g{fill:#fafafa;}.h{fill:#ffbe9d;}.i{fill:#eb996e;}.j{opacity:0.78;}.k{fill:#455a64;}.l{opacity:0.6;}.m{fill:#e0e0e0;}.o{fill:#f5f5f5;}</style></defs><g transform="translate(-41.5 -46.7)"><path class="a" d="M175.3,406.5c-1.9,2.8-5.7,1.9-7.5.2s-2.5-4.1-3.2-6.5c-1.5-5.3-3.1-10.9-1.9-16.4a9.809,9.809,0,0,1,2.1-4.5,4.712,4.712,0,0,1,4.5-1.5c1.9.5,3.1,2.4,3.9,4.1a40.1,40.1,0,0,1,3.9,16.7c0,2.9-.3,5.7-1.8,7.9"/><g class="b"><path d="M175.3,406.5c-1.9,2.8-5.7,1.9-7.5.2s-2.5-4.1-3.2-6.5c-1.5-5.3-3.1-10.9-1.9-16.4a9.809,9.809,0,0,1,2.1-4.5,4.712,4.712,0,0,1,4.5-1.5c1.9.5,3.1,2.4,3.9,4.1a40.1,40.1,0,0,1,3.9,16.7c0,2.9-.3,5.7-1.8,7.9"/></g><path class="a" d="M168.1,420.6a17,17,0,0,0-10.4-1.3,8.861,8.861,0,0,0-5.1,2.3c-1.3,1.4-1.5,3.9-.1,5.1a5.42,5.42,0,0,0,3.3.8c2.8,0,5.8-.5,8,1.1,1.3,1,2.1,2.5,3.6,3a3.627,3.627,0,0,0,3.9-1.7,5.876,5.876,0,0,0,.4-4.5A7.3,7.3,0,0,0,168.1,420.6Z"/><path class="a" d="M180.6,410.5a10.279,10.279,0,0,1-1.6-9.3,18.586,18.586,0,0,1,5.5-8,29.576,29.576,0,0,1,9.8-5.8,11.075,11.075,0,0,1,4.4-.8,4.707,4.707,0,0,1,3.7,2.2c1,2,0,4.4-1,6.3a69.353,69.353,0,0,1-6.5,9.8c-1.9,2.5-4.2,5-7.1,6.1s-6,1-7.6-1"/><path class="c" d="M175.4,448.3a5.066,5.066,0,0,1-.2-1.3c-.1-.9-.2-2.1-.3-3.4a43.31,43.31,0,0,0-.8-5,57.567,57.567,0,0,0-1.8-5.9,20.575,20.575,0,0,0-3-5.4,10.519,10.519,0,0,0-7.1-4.2,6.882,6.882,0,0,1-1.3-.2h1.3a10.079,10.079,0,0,1,3.4.9,12.576,12.576,0,0,1,4,3.2,19.957,19.957,0,0,1,3.1,5.5,34.206,34.206,0,0,1,1.8,6c.3,1.7.5,3.4.7,5.1.1,1.5.2,2.6.2,3.5A2.437,2.437,0,0,1,175.4,448.3Z"/><path class="c" d="M175.2,445.7v-2.3c0-1.5,0-3.5-.1-6.1-.1-5.2-.6-12.3-1.4-20.2a186.458,186.458,0,0,0-3.1-20c-.3-1.3-.5-2.4-.7-3.4s-.4-1.9-.6-2.6-.3-1.2-.4-1.6a1.268,1.268,0,0,1-.1-.6,1.689,1.689,0,0,1,.2.5l.5,1.6c.2.7.4,1.6.7,2.6s.5,2.1.8,3.4a193.549,193.549,0,0,1,3.2,20,186.63,186.63,0,0,1,1.3,20.2c0,2.6,0,4.7-.1,6.1,0,.7-.1,1.2-.1,1.7A1.482,1.482,0,0,1,175.2,445.7Z"/><path class="c" d="M175.2,431.8v-1.7c.1-1.1.2-2.7.5-4.7q.6-3.45,1.5-6.9a55.653,55.653,0,0,1,2.9-8.1,43.9,43.9,0,0,1,8.5-13.2,17.97,17.97,0,0,1,2-1.9c.3-.3.6-.5.8-.7l.8-.5a11.9,11.9,0,0,1,1.5-.9,49.069,49.069,0,0,0-4.8,4.3,43.76,43.76,0,0,0-8.2,13.1,70.581,70.581,0,0,0-2.9,8.1,46.376,46.376,0,0,0-1.6,6.8c-.3,1.9-.6,3.6-.7,4.7C175.4,430.7,175.3,431.3,175.2,431.8Z"/><path class="a" d="M370,352.5,215.2,188.8a4.291,4.291,0,0,1,.2-6.1L317,86.7a4.291,4.291,0,0,1,6.1.2h0L477.9,250.6a4.291,4.291,0,0,1-.2,6.1l-101.6,96a4.291,4.291,0,0,1-6.1-.2Z"/><g class="d"><path d="M370,352.5,215.2,188.8a4.291,4.291,0,0,1,.2-6.1L317,86.7a4.291,4.291,0,0,1,6.1.2h0L477.9,250.6a4.291,4.291,0,0,1-.2,6.1l-101.6,96a4.291,4.291,0,0,1-6.1-.2Z"/></g><path class="a" d="M476.7,249.4,324.2,88.1a5.978,5.978,0,0,0-8.4-.3h0l-28.9,27.3a2.294,2.294,0,0,0-.7,2.1c2.9,16.1,14.4,30.6,28.2,40.1,16.6,11.6,36.3,17.6,55,25.4s37.5,17.9,48.7,34.7c10.6,15.9,13.1,35.6,18.5,54a106.785,106.785,0,0,0,5.5,14.6,2.5,2.5,0,0,0,3.2,1.2,2.092,2.092,0,0,0,.6-.4l30.6-28.9a6.007,6.007,0,0,0,.2-8.5Z"/><path class="e" d="M317.2,200.3l.6-3.9-4,.4-.8-.8,4.9-.5.7-4.6.8.8-.6,3.7,3.7-.4.8.8-4.6.5-.8,4.9Z"/><path class="e" d="M322.5,205.9l.6-3.9-4,.4-.8-.8,4.9-.5.7-4.6.8.8-.6,3.7,3.7-.4.8.8-4.6.5-.8,4.9Z"/><path class="e" d="M327.7,211.4l.6-3.9-4,.4-.8-.8,4.9-.5.7-4.6.8.8-.6,3.7,3.7-.4.8.8-4.6.5-.8,4.9Z"/><path class="e" d="M333,217l.6-3.9-4,.4-.8-.8,4.9-.5.7-4.6.8.8-.6,3.7,3.7-.4.8.8-4.6.5-.7,4.9Z"/><path class="e" d="M351.3,236.3l.6-3.9-4,.4-.8-.8,4.9-.5.7-4.6.8.8-.6,3.7,3.7-.4.8.8-4.6.5-.8,4.9Z"/><path class="e" d="M356.5,241.9l.6-3.9-4,.4-.8-.8,4.9-.5.7-4.6.8.8-.6,3.7,3.7-.4.8.8-4.6.5-.8,4.9Z"/><path class="e" d="M361.8,247.5l.7-3.9-4,.4-.8-.8,4.9-.5.7-4.6.8.8-.6,3.7,3.7-.4.8.8-4.6.5-.7,4.9Z"/><path class="e" d="M367.1,253.1l.6-3.9-4,.4-.8-.8,4.9-.5.7-4.6.8.8-.6,3.7,3.7-.4.8.8-4.6.5-.7,4.9Z"/><path class="e" d="M390.8,263.5l-7.3,6.9-.7-.8,6.7-6.3-1.6-1.7.7-.6Z"/><path class="e" d="M391.8,275c-1.2,1.2-3,1.2-4.7-.6a5.093,5.093,0,0,1-1.5-3.5l.9-.2a4.387,4.387,0,0,0,1.3,3.1c1.1,1.2,2.4,1.4,3.3.5s.9-2-.4-3.4l-.5-.5.5-.5,4.5-.4-3.5-3.7.7-.6,4.5,4.7-.5.5-4.6.4C393.1,272.4,393,273.9,391.8,275Z"/><path class="e" d="M398.5,282.5l-1.4-1.5-1.9,1.8-.7-.8,1.9-1.8-3.9-4.1.5-.5,8.5-.7.8.8-8.3.7,3,3.2,1.7-1.6.7.7-1.7,1.6,1.4,1.5Z"/><path class="e" d="M402.6,289.3l-.7.6-4.9-5.1.5-.5,5.9.2a3.355,3.355,0,0,0,2.7-.7c.9-.8.8-1.9-.3-3a3.571,3.571,0,0,0-2.7-1.2v-1a4.79,4.79,0,0,1,3.5,1.6c1.4,1.5,1.5,3.1.3,4.3-.7.7-1.5,1-3.4,1l-4.8-.2Z"/><path class="e" d="M349.8,288c2.2-2.1,4.6-2.1,6.2-.4s1.5,4.1-.8,6.2-4.6,2.1-6.2.4S347.6,290.1,349.8,288Zm4,4.3c1.5-1.4,1.7-2.6.9-3.4s-1.9-.7-3.4.7-1.7,2.6-.9,3.4,1.9.7,3.4-.7Z"/><path class="e" d="M360,301.3a3.139,3.139,0,0,1-4.6-.4c-1.8-1.9-1.7-4.1.5-6.2,2.3-2.2,5-2,6.9,0a4.784,4.784,0,0,1,1.3,2.3l-1.7.5a2.894,2.894,0,0,0-.9-1.6,2.511,2.511,0,0,0-3.5-.3l-.3.3a3.858,3.858,0,0,1,2.2,1.1,3.015,3.015,0,0,1,.1,4.3Zm-1.5-1.4a1.418,1.418,0,0,0,.1-2l-.1-.1a1.443,1.443,0,0,0-2-.3.1.1,0,0,0-.1.1,1.335,1.335,0,0,0,0,2l.1.1a1.429,1.429,0,0,0,2,.3c-.1-.1,0-.1,0-.1Z"/><path class="e" d="M369,298.8l1.3,1.3-12.1,5.4-1.3-1.3Z"/><path class="e" d="M368.1,311.6l-1.3,1.2-4.8-5.1,1-1,4.9.3a2.156,2.156,0,0,0,1.9-.5c.5-.5.5-1.2-.2-1.9a2.174,2.174,0,0,0-2-.8l-.3-1.8a4.355,4.355,0,0,1,3.8,1.5c1.4,1.5,1.6,3.2.4,4.4-.6.6-1.4,1-3.2.9l-2.9-.2Z"/><path class="e" d="M374.6,318.1l-1-1.1-1.4,1.3-1.4-1.5,1.4-1.3-3.4-3.6,1-1,7.3-.9,1.5,1.6-6.8.9,1.7,1.8,1.3-1.2,1.4,1.5-1.3,1.2,1,1.1Z"/><path class="a" d="M406.2,234.9c3.8-5.8,2.3-13.6-2.8-18.3a18.782,18.782,0,0,0-5.3-3.5c-4.9-2-11.3-.6-13.9,4.1-2.1,3.8-1.3,8.5.2,12.5,1.5,4.3,4,8.6,8.2,10.2a11.259,11.259,0,0,0,11.9-3A10.615,10.615,0,0,0,406.2,234.9Z"/><path class="e" d="M284,167.8c.2-.1.5-.2.7-.3a2.353,2.353,0,0,1,.8-.2c.3-.1.6-.1.9-.2.3,0,.5-.1.8-.1h.6l-.3-.6c0-.2-.1-.5,0-.7a1.854,1.854,0,0,1,.2-.7c.1-.2.3-.4.4-.6a2.075,2.075,0,0,1,1-.6,4.1,4.1,0,0,1,1.1-.1,2.279,2.279,0,0,1,1.1.3,3.114,3.114,0,0,1,.9.7,2.177,2.177,0,0,1,.5.8,10.376,10.376,0,0,1,.4,1l-1.5.3c0-.1-.1-.2-.1-.3-.1-.1-.1-.2-.2-.3l-.2-.2-.2-.2-.3-.3a.758.758,0,0,0-.4-.2c-.2,0-.3-.1-.5-.1a.52.52,0,0,0-.4.2.367.367,0,0,0-.1.3v.3c0,.1.1.2.2.3s.1.2.2.2l.4.4c.2.1.3.2.5.3s.3.2.5.3a2.186,2.186,0,0,1,.5.3l-.6,1.5a8.8,8.8,0,0,0-1.5-.5,7.844,7.844,0,0,0-1.4-.2,5.7,5.7,0,0,0-1.3.1c-.4.1-.7.1-1,.2a6.889,6.889,0,0,0-.8.3,1.689,1.689,0,0,1-.5.2l-.8-1.5C283.6,168,283.8,167.9,284,167.8Z"/><path class="e" d="M298.6,172.3c-.1.2-.3.3-.4.5-.3.2-.5.5-.9.6a1.929,1.929,0,0,1-1,.3,3.4,3.4,0,0,1-1-.1,1.8,1.8,0,0,1-.9-.6l-.2-.2-.2-.2a6.47,6.47,0,0,1-.8.9l-.9.9-.9.9a6.033,6.033,0,0,0-.8.8l-1.2-1.2c.5-.4.9-.9,1.4-1.3a16.6,16.6,0,0,0,1.3-1.4c.4-.5.8-.9,1.1-1.3a9.128,9.128,0,0,0,.8-1.3c.1-.2.1-.3.2-.4a.367.367,0,0,0,.1-.3c0-.1.1-.2.1-.3s.1-.2.1-.3l1.7.4c0,.1-.1.3-.1.4s-.1.2-.1.3-.1.2-.1.4a.52.52,0,0,1-.2.4c-.1.2-.1.3-.2.5,0,.1-.1.3-.1.4a.6.6,0,0,0,.1.4c0,.1.1.2.2.3a.758.758,0,0,0,.4.2.6.6,0,0,0,.4-.1c.1-.1.2-.1.4-.2l.3-.3.3-.3a1.38,1.38,0,0,0,.3-.4l1.4,1A3.4,3.4,0,0,0,298.6,172.3Z"/><path class="e" d="M296.1,179.3l1.1-1.1c.3-.4.7-.7,1-1.1s.6-.7.9-1.1a6.727,6.727,0,0,0,.7-1.1,5.359,5.359,0,0,0,.5-1.1l1.6.4c-.1.4-.2.7-.3,1a9.242,9.242,0,0,1-.5,1l-.6.9c-.2.3-.5.6-.7.9-.2.2-.4.5-.6.7-.2.3-.5.5-.7.8l-.8.8-.7.7-.5.5-1.2-1.2A3.14,3.14,0,0,1,296.1,179.3Z"/><path class="e" d="M304.4,183.1c-.3.3-.5.6-.8.9a6.072,6.072,0,0,0-.7,1,3.128,3.128,0,0,0-.5,1,6.9,6.9,0,0,1-.3.8l-1.7-.2c0-.2.1-.5.1-.7a2.118,2.118,0,0,1,.3-.7c.1-.2.3-.5.4-.7.2-.2.3-.5.5-.7s.3-.4.5-.6.3-.4.5-.5l-.3-.3-.3-.3c-.2-.2-.4-.5-.6-.7-.1-.3-.2-.5-.3-.8a1.949,1.949,0,0,1,.1-.8,3.473,3.473,0,0,1,.6-.9c.2-.1.3-.3.5-.4l.6-.3a6.37,6.37,0,0,1,.7-.2h.7a1.421,1.421,0,0,1,.6.2,1,1,0,0,1,.5.4,1.38,1.38,0,0,1,.3.4c.1.2.1.3.2.5v.7a2.92,2.92,0,0,1-.2.9l-.3.6c-.1.2-.3.4-.4.6s-.3.4-.4.6C304.7,182.8,304.5,183,304.4,183.1Zm-.9-2.5.1.1.2.2.2.2.1.1a.52.52,0,0,0,.2-.4c.1-.1.1-.3.2-.5,0-.2.1-.3.1-.5s0-.3-.1-.4-.1-.1-.3-.1h-.4c-.1,0-.3.1-.4.1-.1.1-.2.1-.3.2s-.1.1-.1.2a.367.367,0,0,0,.1.3c0,.1.1.2.2.3A.215.215,0,0,0,303.5,180.6Z"/><path class="e" d="M263.7,195.7a3.508,3.508,0,0,1,.8-.5l.9-.3a3.083,3.083,0,0,1,1-.1,3.4,3.4,0,0,1,1,.1,3.552,3.552,0,0,1,.9.4c.3.2.5.4.8.6a1.612,1.612,0,0,1,.4.7,6.884,6.884,0,0,1,.3.8l-1.6.6c-.1-.2-.1-.4-.2-.5a1.381,1.381,0,0,0-.3-.4,2.092,2.092,0,0,0-.6-.4,1.884,1.884,0,0,0-.8-.2h-.8a.908.908,0,0,0-.7.3c-.1.1-.1.1-.1.2a.367.367,0,0,0,.1.3c0,.1.1.2.2.4.1.1.1.3.2.4.1.3.3.5.4.8a1.854,1.854,0,0,1,.2.7v.7a1.531,1.531,0,0,1-.5.7,1.382,1.382,0,0,1-.9.5,3.4,3.4,0,0,1-1,.1,1.929,1.929,0,0,1-1-.3,4.672,4.672,0,0,1-1-.5,5.5,5.5,0,0,1-.9-.7,6.034,6.034,0,0,1-.8-.8,6.528,6.528,0,0,1-1-1.5,4.19,4.19,0,0,1-.4-1.5,4.013,4.013,0,0,1,.3-1.5,3.051,3.051,0,0,1,1-1.3l.2-.2c.1-.1.2-.1.2-.2a3.591,3.591,0,0,1,1-.7c.3-.2.6-.3.9-.5a4.877,4.877,0,0,0,.7-.3.774.774,0,0,1,.3-.1l.5,1.5c-.3.1-.5.2-.8.3-.2.1-.5.2-.7.3s-.5.3-.7.4a2.652,2.652,0,0,0-.6.5,2.1,2.1,0,0,0-.6.8,1.387,1.387,0,0,0,0,.9,3.553,3.553,0,0,0,.4.9,5.547,5.547,0,0,0,.6.8,2.836,2.836,0,0,0,1,.9,2.361,2.361,0,0,0,.9.6,1.6,1.6,0,0,0,.8.3h.5a5.74,5.74,0,0,0-.4-.7c-.1-.2-.3-.5-.4-.7s-.2-.5-.3-.7a1.952,1.952,0,0,1-.1-.7,1.854,1.854,0,0,1,.2-.7C263.2,196.1,263.4,195.9,263.7,195.7Z"/><path class="e" d="M264.5,202.5a9.129,9.129,0,0,0,1.3.8,6.117,6.117,0,0,0,1.2.5,4.4,4.4,0,0,0,1,.2,1.949,1.949,0,0,0,.8-.1c-.1-.1-.2-.3-.3-.4s-.2-.3-.3-.3a4.053,4.053,0,0,1-.5-.9,2.125,2.125,0,0,1,0-1.8,2.549,2.549,0,0,1,1.2-1.2,4.875,4.875,0,0,1,.7-.3,6.376,6.376,0,0,0,.7-.2h.7a2.544,2.544,0,0,1,.7.2,2.092,2.092,0,0,1,.6.4,1.612,1.612,0,0,1,.4.7,1.949,1.949,0,0,1,.1.8,2.2,2.2,0,0,1-.1.8c-.1.3-.2.5-.3.8s-.3.5-.4.8a4.233,4.233,0,0,1-.5.7l.2.2-1.3,1.2-.2-.3a4.284,4.284,0,0,1-1.6.5,4.193,4.193,0,0,1-1.6-.1,5.228,5.228,0,0,1-1.6-.6,13.03,13.03,0,0,1-1.5-1Zm6.3-2c0-.1-.1-.1-.2-.1h-.4a.6.6,0,0,0-.4.1c-.1.1-.3.1-.4.2s-.1.2-.2.3a1.969,1.969,0,0,0,.3.8c.1.1.2.3.3.4l.3.3.2.3c.1-.2.3-.4.4-.6a1.421,1.421,0,0,0,.2-.6,1.087,1.087,0,0,0,.1-.5A2.073,2.073,0,0,0,270.8,200.5Z"/><path class="e" d="M271.3,203.9l.3.3a1.381,1.381,0,0,0,.4.3.5.5,0,0,0,.6,0c.1-.1.3-.2.4-.3l.2-.2.5-.5.7-.7a6.035,6.035,0,0,1,.8-.8,5.01,5.01,0,0,0,.7-.8c.2-.3.5-.5.6-.7a1.755,1.755,0,0,0,.4-.5.31.31,0,0,0,.1-.2l1.5,1a.747.747,0,0,1-.3.3,5.93,5.93,0,0,1-.8.8l-1.4,1.4-2,2a3.591,3.591,0,0,1-1,.7,3.81,3.81,0,0,1-1,.3,3.553,3.553,0,0,1-1-.2,6.07,6.07,0,0,1-1-.7l-.3-.3Z"/><path class="e" d="M270.7,209.2a9.129,9.129,0,0,0,1.3.8,6.117,6.117,0,0,0,1.2.5,4.4,4.4,0,0,0,1,.2,1.949,1.949,0,0,0,.8-.1c-.1-.1-.2-.3-.3-.4s-.2-.3-.3-.3a4.053,4.053,0,0,1-.5-.9,2.125,2.125,0,0,1,0-1.8,2.549,2.549,0,0,1,1.2-1.2,4.875,4.875,0,0,1,.7-.3c.2-.1.5-.1.7-.2h.7a2.544,2.544,0,0,1,.7.2,2.092,2.092,0,0,1,.6.4,1.612,1.612,0,0,1,.4.7,1.949,1.949,0,0,1,.1.8,2.2,2.2,0,0,1-.1.8c-.1.3-.2.5-.3.8s-.3.5-.4.8a4.233,4.233,0,0,1-.5.7l.2.2-1.3,1.2-.2-.3a4.284,4.284,0,0,1-1.6.5,4.193,4.193,0,0,1-1.6-.1,5.228,5.228,0,0,1-1.6-.6,13.03,13.03,0,0,1-1.5-1Zm6.2-1.9c0-.1-.1-.1-.2-.1h-.4a.6.6,0,0,0-.4.1c-.1.1-.3.1-.4.2s-.1.2-.2.3a1.969,1.969,0,0,0,.3.8c.1.1.2.3.3.4l.3.3.2.3c.1-.2.3-.4.4-.6a1.421,1.421,0,0,0,.2-.6,1.087,1.087,0,0,0,.1-.5C277,207.6,277,207.4,276.9,207.3Z"/><path class="e" d="M279.4,215.5a2.092,2.092,0,0,1-.4-.6,4.872,4.872,0,0,1-.3-.7,1.854,1.854,0,0,1-.2-.7,1.268,1.268,0,0,1-.1-.6h-.6c-.2,0-.3-.1-.5-.2s-.3-.2-.5-.3l-.4-.4-.2-.2,1.3-1.2.2.2a1.755,1.755,0,0,0,.5.4,1.268,1.268,0,0,0,.6.1c.2,0,.4-.1.6-.1.2-.1.4-.1.6-.2s.5-.1.8-.2c.3,0,.5-.1.8-.1a2.354,2.354,0,0,1,.8.2,1.531,1.531,0,0,1,.7.5,2.044,2.044,0,0,1,.5.9,1.729,1.729,0,0,1-.1,1,4.671,4.671,0,0,1-.5,1,6.47,6.47,0,0,1-.8.9,2.178,2.178,0,0,1-.8.5,2.353,2.353,0,0,1-.8.2,1.7,1.7,0,0,1-.7-.1A2.185,2.185,0,0,1,279.4,215.5Zm2.2-3a.367.367,0,0,0-.3-.1h-.4a4.331,4.331,0,0,1-.5.1c-.2,0-.3.1-.4.1a4.331,4.331,0,0,1,.1.5c0,.2.1.3.2.5s.2.3.3.5a1.381,1.381,0,0,0,.3.4c.2-.1.3-.3.5-.5s.2-.4.3-.5a1.087,1.087,0,0,0,.1-.5A1.056,1.056,0,0,0,281.6,212.5Z"/><path class="e" d="M297,226.4a.758.758,0,0,1-.2.4l-.3.6-.3.6c-.1.2-.3.4-.4.6a1.205,1.205,0,0,1-.5.5l-.9.6a2.125,2.125,0,0,1-1.8,0,2.361,2.361,0,0,1-.9-.6c-.2-.3-.4-.5-.4-.7a.854.854,0,0,1,0-.7h-.4a.756.756,0,0,1-.4-.1c-.1-.1-.3-.1-.4-.2s-.3-.2-.4-.4l-.3-.3c-.1-.1-.1-.2-.2-.3a6.07,6.07,0,0,1-1,.7c-.4.1-.7.2-1.1.3a2.079,2.079,0,0,1-1.1-.1,3,3,0,0,1-1-.4c-.3-.2-.7-.4-1-.6a3.043,3.043,0,0,1-.8-.8,4.194,4.194,0,0,1-.9-1.4,4.012,4.012,0,0,1-.3-1.5,2.822,2.822,0,0,1,.4-1.5,4.125,4.125,0,0,1,1-1.3,7.019,7.019,0,0,1,.9-.6,9.291,9.291,0,0,1,1-.5c.3-.1.7-.2,1-.3a2.92,2.92,0,0,1,.9-.2l.1,1.6a2.354,2.354,0,0,0-.8.2c-.3.1-.5.2-.8.3a4.877,4.877,0,0,0-.7.3c-.2.1-.4.3-.6.4a1.794,1.794,0,0,0-.5.7,2.2,2.2,0,0,0-.1.8,2.92,2.92,0,0,0,.2.9,2.177,2.177,0,0,0,.5.8,5.008,5.008,0,0,0,.8.7c.3.2.5.3.8.5a2.353,2.353,0,0,0,.8.2,1.7,1.7,0,0,0,.7-.1h0a2.177,2.177,0,0,0,.8-.5,2.651,2.651,0,0,0,.5-.6c.1-.2.3-.5.4-.7.1-.3.2-.5.3-.8a6.89,6.89,0,0,1,.3-.8l1.7.6a6343317836174.111,6343317836174.111,0,0,0-.6,1.4,1.421,1.421,0,0,0-.2.6,4.331,4.331,0,0,1-.1.5v.5c0,.1.1.2.2.3a.758.758,0,0,0,.4.2.6.6,0,0,0,.4-.1c.1-.1.3-.1.4-.2s.3-.2.4-.3a1.38,1.38,0,0,0,.3-.4l.3-.3,1.2,1-.3.3c-.1.1-.2.3-.3.4s-.2.3-.3.4c-.1.2-.2.3-.3.5a.9.9,0,0,0-.1.5.6.6,0,0,0,.1.4c.1.1.2.2.3.2s.2.1.3.1a.367.367,0,0,0,.3-.1c.1-.1.2-.1.4-.2a1.38,1.38,0,0,0,.3-.4c.1-.2.2-.3.3-.5a4.872,4.872,0,0,0,.3-.7c.1-.2.2-.5.3-.7l1.6.5C297.1,226.2,297,226.3,297,226.4Zm-1.2-3.3-1.5-.1.1-1.5,1.5.1-.1,1.5h1.5l-.1,1.5-1.5-.1Zm1.9-.4-1.4-.1.1-1.4,1.4.1Z"/><path class="e" d="M291.9,232.7a9.129,9.129,0,0,0,1.3.8,6.117,6.117,0,0,0,1.2.5,4.4,4.4,0,0,0,1,.2,1.949,1.949,0,0,0,.8-.1,1.38,1.38,0,0,1-.3-.4c-.1-.1-.2-.3-.3-.3a4.053,4.053,0,0,1-.5-.9,2.125,2.125,0,0,1,0-1.8,2.549,2.549,0,0,1,1.2-1.2,4.875,4.875,0,0,1,.7-.3c.2-.1.5-.1.7-.2h.7a2.544,2.544,0,0,1,.7.2,2.092,2.092,0,0,1,.6.4,1.612,1.612,0,0,1,.4.7,1.949,1.949,0,0,1,.1.8,2.2,2.2,0,0,1-.1.8c-.1.3-.2.5-.3.8s-.3.5-.4.8a4.233,4.233,0,0,1-.5.7l.2.2-1.3,1.2-.2-.3a4.284,4.284,0,0,1-1.6.5,4.193,4.193,0,0,1-1.6-.1,5.228,5.228,0,0,1-1.6-.6,13.03,13.03,0,0,1-1.5-1Zm6.2-1.9c0-.1-.1-.1-.2-.1h-.4a.6.6,0,0,0-.4.1c-.1.1-.3.1-.4.2s-.1.2-.2.3a1.969,1.969,0,0,0,.3.8c.1.1.2.3.3.4l.3.3.2.3c.1-.2.3-.4.4-.6a1.421,1.421,0,0,0,.2-.6,1.087,1.087,0,0,0,.1-.5C298.2,231,298.2,230.9,298.1,230.8Z"/><path class="e" d="M298.6,234.1l.5.6.4.4a2.186,2.186,0,0,0,.5.3.9.9,0,0,0,.5.1.6.6,0,0,0,.4-.1c.1-.1.1-.2.2-.3a3.327,3.327,0,0,0,.3-.6c.1-.3.2-.4.3-.7.1-.2.2-.5.3-.7l1.7.7a2.507,2.507,0,0,1-.4.7c-.1.3-.3.5-.4.8a3.039,3.039,0,0,1-.5.7c-.2.2-.3.4-.5.6a2.664,2.664,0,0,1-1,.6,3.4,3.4,0,0,1-1,.1,4.18,4.18,0,0,1-1-.4,6.469,6.469,0,0,1-.9-.8l-.6-.7Zm4.6-1.7.1-1.8,1.8.1-.1,1.8Z"/><path class="e" d="M303.2,241.9a.769.769,0,0,1-.2-.3c-.1-.2-.2-.3-.2-.4a2.947,2.947,0,0,1-1.3.5,6.752,6.752,0,0,1-1.4.2,7.72,7.72,0,0,1-1.5-.2,8.8,8.8,0,0,1-1.5-.5l.4-1.7.9.3a2.92,2.92,0,0,0,.9.2,2.768,2.768,0,0,0,.9.1h.8a1.446,1.446,0,0,0,.7-.2l.6-.3.4-.4c.1-.2.3-.4.4-.6s.3-.5.4-.7a4.878,4.878,0,0,1,.3-.7l1.6.7a9.742,9.742,0,0,0-.5,1.1,6.9,6.9,0,0,1-.3.8c0,.2-.1.4,0,.5,0,.1.1.3.2.3l.1.1-1.7,1.2Z"/><path class="e" d="M304.5,240.6l.3.3a4.233,4.233,0,0,1,.7-.5c.3-.1.5-.3.8-.4l.9-.3a2.768,2.768,0,0,1,.9-.1,1.949,1.949,0,0,1,.8.1c.2.1.5.2.6.4a.908.908,0,0,1,.3.7v.8c-.1.3-.2.5-.3.8a1.344,1.344,0,0,1-.6.7,4.054,4.054,0,0,1-.9.5,3.6,3.6,0,0,1-1.1.2,4.1,4.1,0,0,1-1.1-.1c-.4-.1-.7-.2-1-.3,0,.1-.1.2-.1.3a4.331,4.331,0,0,0-.1.5.9.9,0,0,1-.1.5v.4c.2-.1.3-.3.6-.4a1.854,1.854,0,0,1,.7-.2c.2,0,.5-.1.7-.1a1.483,1.483,0,0,1,.7.1,1.421,1.421,0,0,1,.6.2,1,1,0,0,1,.5.4l.2.2-1.3,1.2-.2-.2c-.1-.1-.3-.2-.4-.3a.9.9,0,0,0-.5-.1.749.749,0,0,0-.5.1c-.2.1-.3.2-.5.3-.1.1-.1.1-.1.2s-.1.1-.1.2-.1.1-.1.2v.3l-1.6.1a7.844,7.844,0,0,1-.2-1.4,5.7,5.7,0,0,1,.1-1.3,4.51,4.51,0,0,1,.3-1.1c.1-.3.3-.6.4-.9l-.5-.5Zm3.3,1.5c.1-.1.2-.1.2-.2s.2-.2.2-.3.1-.2.1-.3V241H308a1.087,1.087,0,0,0-.5.1c-.2,0-.3.1-.5.1-.2.1-.4.1-.6.2s-.3.2-.5.2a1.38,1.38,0,0,0-.4.3,2.186,2.186,0,0,0,.5.3,1.268,1.268,0,0,0,.6.1h.6A1.072,1.072,0,0,0,307.8,242.1Z"/><path class="e" d="M310.4,249.8a2.092,2.092,0,0,1-.4-.6,4.872,4.872,0,0,1-.3-.7,1.854,1.854,0,0,1-.2-.7,1.268,1.268,0,0,1-.1-.6h-.6c-.2,0-.3-.1-.5-.2s-.3-.2-.5-.3l-.4-.4-.2-.2,1.3-1.2.2.2a1.755,1.755,0,0,0,.5.4,1.268,1.268,0,0,0,.6.1c.2,0,.4-.1.6-.1.2-.1.4-.1.6-.2s.5-.1.8-.2c.3,0,.5-.1.8-.1a2.354,2.354,0,0,1,.8.2,3.039,3.039,0,0,1,.7.5,2.044,2.044,0,0,1,.5.9,1.729,1.729,0,0,1-.1,1,4.671,4.671,0,0,1-.5,1,6.47,6.47,0,0,1-.8.9,2.178,2.178,0,0,1-.8.5,2.353,2.353,0,0,1-.8.2,1.483,1.483,0,0,1-.7-.1A2.186,2.186,0,0,1,310.4,249.8Zm2.2-3a.367.367,0,0,0-.3-.1h-.4a4.331,4.331,0,0,1-.5.1c-.2,0-.3.1-.4.1a4.331,4.331,0,0,1,.1.5c.1.2.1.3.2.5s.2.3.3.5a1.381,1.381,0,0,0,.3.4c.2-.1.3-.3.5-.5a2.187,2.187,0,0,1,.3-.5,1.087,1.087,0,0,0,.1-.5C312.7,247,312.7,246.9,312.6,246.8Z"/><path class="e" d="M317,127.1a6.731,6.731,0,0,1-1.1-1.4,2.822,2.822,0,0,1-.4-1.5,4.013,4.013,0,0,1,.3-1.5,3.316,3.316,0,0,1,1-1.4,8.276,8.276,0,0,1,1.5-1.1,10.663,10.663,0,0,1,1.9-.7l.2,1.5a4.331,4.331,0,0,1-.5.1c-.2.1-.5.2-.7.3-.3.1-.5.3-.8.4a4.235,4.235,0,0,0-.7.5,3.039,3.039,0,0,0-.5.7,2.768,2.768,0,0,0-.1.9,1.613,1.613,0,0,0,.3.9,1.555,1.555,0,0,0,.6.8,5.5,5.5,0,0,0,.9.7,4.179,4.179,0,0,0,1,.4,3.352,3.352,0,0,0,1,0,1.374,1.374,0,0,0,.8-.5c.1-.1.2-.3.3-.4l.3-.6.3-.6a1.421,1.421,0,0,0,.2-.6c.1-.2.1-.3.2-.5,0-.1.1-.2.1-.3l1.7.5a.31.31,0,0,1-.1.2c-.1.1-.1.3-.2.5a4.872,4.872,0,0,0-.3.7c-.1.3-.3.5-.4.8a4.233,4.233,0,0,1-.5.7c-.2.2-.3.4-.5.6a5.548,5.548,0,0,1-.8.6,4.548,4.548,0,0,1-1.9.6,4.484,4.484,0,0,1-1.1-.1,5.36,5.36,0,0,1-1.1-.5A4.432,4.432,0,0,1,317,127.1Zm4.9-4.8v-1.8h1.8v1.8Z"/><path class="e" d="M325.4,130.1a3.048,3.048,0,0,1-.7-1,2.125,2.125,0,0,1,0-1.8c.2-.3.4-.5.6-.8l.5-.5a4.349,4.349,0,0,1,.7-.6,6.034,6.034,0,0,0,.8-.8l.9-.9a6.469,6.469,0,0,0,.8-.9,3.278,3.278,0,0,0,.6-.8l1.6.8c-.1.2-.3.4-.5.7s-.5.5-.7.8l-.8.8-.7.7-.6.6c-.2.2-.5.4-.7.6l-.5.5c-.2.2-.3.3-.3.4a.349.349,0,0,1-.1.2c0,.1,0,.1.1.2,0,.1.1.1.1.2l.2.2.1.1-1.3,1.3Z"/><path class="e" d="M325.7,132.8h-1.5v-1.5h1.5v1.5h1.5v1.5h-1.5Zm4.5-.4-1.3,1.3-.1-.1c-.1-.1-.2-.3-.3-.4s-.2-.3-.3-.4-.1-.3-.2-.4c0-.1-.1-.3-.1-.4a2.544,2.544,0,0,1-.7-.2,2.092,2.092,0,0,1-.6-.4c-.2-.2-.4-.3-.6-.5l-.6-.6-.1-.1,1.3-1.3.1.1.5.5c.2.1.3.3.4.3a.758.758,0,0,0,.4.2h.4a.758.758,0,0,0,.4-.2l.3-.3c.1-.1.2-.3.3-.4a.758.758,0,0,0,.2-.4l1.5.8c-.1.2-.2.3-.2.4-.1.1-.2.2-.2.3-.1.1-.2.2-.2.3a1.38,1.38,0,0,0-.3.4c-.1.1-.1.2-.2.3a.367.367,0,0,0-.1.3v.3a.865.865,0,0,0,.3.6Z"/><path class="e" d="M330.1,132.3a.908.908,0,0,0,.7.3,2.485,2.485,0,0,0,.8-.1l.9-.3c.3-.2.6-.3.9-.5l.9,1.3a.758.758,0,0,1-.4.2c-.2.1-.3.2-.5.3s-.3.2-.5.3c-.1.1-.3.2-.3.3-.1.1-.1.2-.2.3,0,.1,0,.2.1.2a.52.52,0,0,0,.4.2h.5a.764.764,0,0,0,.5-.2,2.186,2.186,0,0,0,.5-.3c.2-.1.3-.2.5-.3a1.38,1.38,0,0,0,.4-.3l.8,1.2-.3.3c-.1.1-.3.2-.4.3s-.3.2-.4.4c-.1.1-.2.3-.3.4a.6.6,0,0,0-.1.4.758.758,0,0,0,.2.4c.1.1.2.1.3.2a.367.367,0,0,0,.3.1h.3c.1,0,.2-.1.3-.2a2.182,2.182,0,0,0,.4-.5,4.872,4.872,0,0,0,.3-.7c.1-.2.2-.5.3-.7s.1-.4.2-.5l1.5.4-.1.3a.758.758,0,0,1-.2.4l-.3.6-.3.6c-.1.2-.3.4-.4.6a1.205,1.205,0,0,1-.5.5,2.1,2.1,0,0,1-.8.6,2.125,2.125,0,0,1-1.8,0,2.757,2.757,0,0,1-.9-.7c-.1-.1-.3-.3-.3-.4a.758.758,0,0,1-.2-.4c0-.1-.1-.3-.1-.4v-.4h-.4a.6.6,0,0,1-.4-.1.758.758,0,0,1-.4-.2c-.1-.1-.3-.2-.4-.4-.1-.1-.2-.3-.3-.4s-.1-.3-.2-.4c0-.1-.1-.3-.1-.4v-.4h-.4a.6.6,0,0,1-.4-.1c-.1-.1-.3-.1-.4-.2a1.756,1.756,0,0,1-.5-.4l-.1-.1,1.3-1.1Z"/><path class="e" d="M340.2,140.3c-.1.3-.3.5-.4.8a1.794,1.794,0,0,1-.5.7c-.2.2-.3.4-.5.6-.3.2-.5.5-.8.6a2.994,2.994,0,0,1-1,.4,3.6,3.6,0,0,1-1.1.2h-1.1a5.02,5.02,0,0,1-1.2-.2l-1.2-.3.3-1.7.9.3c.3.1.6.1,1,.2.3,0,.6.1.9.1h.9a2.354,2.354,0,0,0,.8-.2,1.275,1.275,0,0,0,.6-.4,1.38,1.38,0,0,0,.3-.4c.1-.2.2-.3.3-.5a4.875,4.875,0,0,0,.3-.7,6.884,6.884,0,0,0,.3-.8l1.7.6A1.794,1.794,0,0,0,340.2,140.3Z"/><path class="e" d="M340.8,145.7a3.048,3.048,0,0,1-.7-1,2.125,2.125,0,0,1,0-1.8c.2-.3.4-.5.6-.8l.5-.5a4.35,4.35,0,0,1,.7-.6,6.034,6.034,0,0,0,.8-.8l.9-.9a6.47,6.47,0,0,0,.8-.9,3.279,3.279,0,0,0,.6-.8l1.6.8c-.1.2-.3.4-.5.7s-.5.5-.7.8a6.035,6.035,0,0,1-.8.8l-.7.7-.6.6c-.2.2-.5.4-.7.6l-.5.5c-.2.2-.3.3-.3.4a.349.349,0,0,1-.1.2c0,.1,0,.1.1.2,0,.1.1.1.1.2l.2.2.1.1-1.3,1.3Z"/><path class="e" d="M339.1,149h1.4v1.4h-1.4Zm1.9-.5h1.5V150H341v-1.5h-1.5V147H341Zm1-4.1,1,1,.4.4a1.332,1.332,0,0,0,.5.3.9.9,0,0,0,.5.1c.2,0,.3,0,.4-.2.1-.1.1-.2.2-.3l.3-.6c.1-.2.2-.5.3-.7s.2-.5.3-.7l1.7.6a6.884,6.884,0,0,0-.3.8,3,3,0,0,1-.4.8,4.348,4.348,0,0,1-.4.7c-.2.2-.3.4-.5.6a6.07,6.07,0,0,1-1,.7,4.1,4.1,0,0,1-1.1.1,3,3,0,0,1-1-.4,7.006,7.006,0,0,1-1-.8l-.9-1Z"/><path class="e" d="M356.2,161.3l-.2-.2a5.083,5.083,0,0,1-.9-1.3,2.514,2.514,0,0,1-.2-1.5.854.854,0,0,1-.7,0c-.2-.1-.5-.1-.7-.3a5.583,5.583,0,0,0-.8-.5,4.35,4.35,0,0,1-.7-.6c-.2-.2-.5-.4-.7-.6l-.6-.6a6.47,6.47,0,0,1-.8-.9,8.745,8.745,0,0,1-.8-1c-.2-.3-.4-.7-.6-1a3.553,3.553,0,0,1-.2-1,1.8,1.8,0,0,1,.2-1,3.047,3.047,0,0,1,.7-1c.1-.1.3-.2.4-.3.2-.1.3-.2.5-.3a1.689,1.689,0,0,1,.5-.2,1.087,1.087,0,0,1,.5-.1l.2,1.6a.367.367,0,0,0-.3.1c-.1,0-.2.1-.3.1s-.2.1-.3.1c-.1.1-.2.1-.3.2a.758.758,0,0,0-.2.4,1.268,1.268,0,0,0,.1.6,5.74,5.74,0,0,0,.4.7c.2.2.3.5.5.7a4.349,4.349,0,0,0,.6.7c.2.2.4.5.6.7l.5.5c.2.2.4.3.6.5s.4.3.6.5l.6.3a1.087,1.087,0,0,0,.5.1.52.52,0,0,0,.4-.2,2.185,2.185,0,0,0,.3-.5,1.483,1.483,0,0,0,.1-.7v-1.6a2.2,2.2,0,0,0-.1-.8c0-.2-.1-.5-.1-.6l1.2-1,5.2,2.2-.7,1.6-4.3-1.9c0,.3.1.7.1,1v1a2.768,2.768,0,0,1-.1.9c-.1.3-.1.6-.2.9a1.854,1.854,0,0,0-.2.7,1.952,1.952,0,0,0-.1.7,1.7,1.7,0,0,0,.1.7,2.507,2.507,0,0,0,.4.7l.2.2Z"/><path class="e" d="M357.3,159.9l.5.5a1.381,1.381,0,0,0,.4.3c.2.1.3.2.5.3a.9.9,0,0,0,.5.1.6.6,0,0,0,.4-.1c.1-.1.1-.2.2-.3l.3-.6a4.876,4.876,0,0,0,.3-.7c.1-.2.2-.5.3-.7l1.7.6a6.884,6.884,0,0,0-.3.8,3,3,0,0,1-.4.8,5.74,5.74,0,0,0-.4.7c-.2.2-.3.4-.5.6a6.07,6.07,0,0,1-1,.7,1.729,1.729,0,0,1-1,.1,2.112,2.112,0,0,1-1-.4,7.006,7.006,0,0,1-1-.8l-.6-.6Zm4.5-1.9v-1.8h1.8V158Z"/><path class="e" d="M361.4,166.6a3.048,3.048,0,0,1-.7-1,2.125,2.125,0,0,1,0-1.8c.2-.3.4-.5.6-.8l.5-.5a4.35,4.35,0,0,1,.7-.6,6.034,6.034,0,0,0,.8-.8l.9-.9a6.47,6.47,0,0,0,.8-.9,3.279,3.279,0,0,0,.6-.8l1.6.8c-.1.2-.3.4-.5.7s-.5.5-.7.8l-.8.8-.7.7-.6.6c-.2.2-.5.4-.7.6l-.5.5c-.1.1-.3.3-.3.4a.349.349,0,0,1-.1.2c0,.1,0,.1.1.2,0,.1.1.1.1.2l.2.2.1.1-1.3,1.3Z"/><path class="e" d="M360.4,170.1v-1.8h1.8v1.8Zm2.2-4.8.5.5a1.381,1.381,0,0,0,.4.3c.2.1.3.2.5.3a.9.9,0,0,0,.5.1.6.6,0,0,0,.4-.1c.1-.1.1-.2.2-.3l.3-.6a4.872,4.872,0,0,0,.3-.7c.1-.2.2-.5.3-.7l1.7.6a6.884,6.884,0,0,0-.3.8,3,3,0,0,1-.4.8,4.348,4.348,0,0,1-.4.7c-.2.2-.3.4-.5.6a6.07,6.07,0,0,1-1,.7,1.729,1.729,0,0,1-1,.1,2.112,2.112,0,0,1-1-.4,7.006,7.006,0,0,1-1-.8l-.6-.6Z"/><path class="f" d="M243.2,237.3H498.9a17.412,17.412,0,0,1,17.4,17.4v176a17.412,17.412,0,0,1-17.4,17.4H243.2a17.412,17.412,0,0,1-17.4-17.4v-176A17.413,17.413,0,0,1,243.2,237.3Z"/><path class="c" d="M516.4,254.7v-.6a12.248,12.248,0,0,0-.2-1.9,16.608,16.608,0,0,0-2.6-6.8,20,20,0,0,0-3.6-4.1,17.562,17.562,0,0,0-5.7-3.1c-.6-.2-1.1-.3-1.7-.5a10.8,10.8,0,0,0-1.9-.3l-1.9-.1H488l-104.3.1H245.3a23.265,23.265,0,0,0-5.3.3,17.046,17.046,0,0,0-9.3,5,16.714,16.714,0,0,0-3.1,4.4,18.484,18.484,0,0,0-1.6,5.2,50.555,50.555,0,0,0-.2,5.5V430.6a17.2,17.2,0,0,0,4.3,11.4,16.9,16.9,0,0,0,10.6,5.7c2,.2,4.1.2,6.2.2H497.3a37.083,37.083,0,0,0,4.7-.3,17.607,17.607,0,0,0,4.4-1.5,12.81,12.81,0,0,0,2-1.1,21.958,21.958,0,0,0,1.8-1.4,17.4,17.4,0,0,0,5.8-11.9c.1-12,0-23.5.1-34.5,0-44,.1-79.6.1-104.3V257.1c0-1.7.1-2.5.2-2.4v38.2c0,24.6,0,60.2.1,104.3,0,11,.1,22.5,0,34.6a17.215,17.215,0,0,1-2.8,8.6,16.824,16.824,0,0,1-3,3.5c-.6.5-1.2,1-1.9,1.5-.6.4-1.3.8-2,1.2a17.021,17.021,0,0,1-4.5,1.5,19.387,19.387,0,0,1-4.8.3H247a42.372,42.372,0,0,1-6.2-.2,17.409,17.409,0,0,1-10.9-5.9,17.879,17.879,0,0,1-4.4-11.7V257.8a34.967,34.967,0,0,1,.2-5.6,17.046,17.046,0,0,1,1.6-5.3,16.017,16.017,0,0,1,3.2-4.5,18.109,18.109,0,0,1,4.4-3.3,16.079,16.079,0,0,1,5.2-1.8l1.4-.2,1.4-.1a24.317,24.317,0,0,1,2.7,0H384l104.3.1H499l2,.1c.6.1,1.3.2,1.9.3a12.09,12.09,0,0,1,1.8.5,17.819,17.819,0,0,1,5.7,3.2,20,20,0,0,1,3.6,4.1,16.88,16.88,0,0,1,2.5,6.9,12.255,12.255,0,0,1,.2,1.9A1.2,1.2,0,0,0,516.4,254.7Z"/><path class="c" d="M506.2,250.3a20.112,20.112,0,0,1,6,0A20.112,20.112,0,0,1,506.2,250.3Z"/><path class="c" d="M481.7,250.3a82.8,82.8,0,0,1,12.2,0A82.8,82.8,0,0,1,481.7,250.3Z"/><path class="c" d="M457.2,250.3a82.8,82.8,0,0,1,12.2,0A82.8,82.8,0,0,1,457.2,250.3Z"/><path class="c" d="M432.8,250.3a82.8,82.8,0,0,1,12.2,0A82.8,82.8,0,0,1,432.8,250.3Z"/><path class="c" d="M408.3,250.3a82.8,82.8,0,0,1,12.2,0A82.8,82.8,0,0,1,408.3,250.3Z"/><path class="c" d="M383.8,250.3a82.8,82.8,0,0,1,12.2,0A82.8,82.8,0,0,1,383.8,250.3Z"/><path class="c" d="M359.3,250.3a82.8,82.8,0,0,1,12.2,0A82.8,82.8,0,0,1,359.3,250.3Z"/><path class="c" d="M334.9,250.3a82.8,82.8,0,0,1,12.2,0A82.8,82.8,0,0,1,334.9,250.3Z"/><path class="c" d="M310.4,250.3a82.8,82.8,0,0,1,12.2,0A82.8,82.8,0,0,1,310.4,250.3Z"/><path class="c" d="M285.9,250.3a41.55,41.55,0,0,1,6.1-.3,31.2,31.2,0,0,1,6.1.3,31.2,31.2,0,0,1-6.1.3C290,250.6,287.9,250.5,285.9,250.3Z"/><path class="c" d="M261.4,250.3a41.55,41.55,0,0,1,6.1-.3,31.2,31.2,0,0,1,6.1.3,31.2,31.2,0,0,1-6.1.3C265.5,250.6,263.5,250.5,261.4,250.3Z"/><path class="c" d="M243.2,256.3a30.188,30.188,0,0,1-.3-6l.3-.3h2.3l1.9.1a5.537,5.537,0,0,1,1.8.2,11.018,11.018,0,0,1-1.8.2l-1.9.1h-2.3l.3-.3A40.877,40.877,0,0,1,243.2,256.3Z"/><path class="c" d="M243.2,278.7a26.321,26.321,0,0,1-.3-5.6,26.32,26.32,0,0,1,.3-5.6,52.416,52.416,0,0,1,0,11.2Z"/><path class="c" d="M243.2,301.1a69.8,69.8,0,0,1,0-11.2A69.8,69.8,0,0,1,243.2,301.1Z"/><path class="c" d="M243.2,323.5a69.8,69.8,0,0,1,0-11.2A69.8,69.8,0,0,1,243.2,323.5Z"/><path class="c" d="M243.2,346a69.8,69.8,0,0,1,0-11.2A69.8,69.8,0,0,1,243.2,346Z"/><path class="c" d="M243.2,368.4a69.8,69.8,0,0,1,0-11.2A69.8,69.8,0,0,1,243.2,368.4Z"/><path class="c" d="M243.2,390.8a69.8,69.8,0,0,1,0-11.2A69.8,69.8,0,0,1,243.2,390.8Z"/><path class="c" d="M243.2,413.3a69.8,69.8,0,0,1,0-11.2A69.8,69.8,0,0,1,243.2,413.3Z"/><path class="c" d="M249.2,430.5a40.208,40.208,0,0,1-6,.3l-.3-.3h0v-4.2a5.537,5.537,0,0,1,.2-1.8,11.019,11.019,0,0,1,.2,1.8,12.1,12.1,0,0,0,.1,1.9v2.3h0l-.3-.3A31.2,31.2,0,0,1,249.2,430.5Z"/><path class="c" d="M273.3,430.5a40.208,40.208,0,0,1-6,.3,30.188,30.188,0,0,1-6-.3,40.208,40.208,0,0,1,6-.3A30.188,30.188,0,0,1,273.3,430.5Z"/><path class="c" d="M297.4,430.5a40.208,40.208,0,0,1-6,.3,30.188,30.188,0,0,1-6-.3,40.208,40.208,0,0,1,6-.3A29.814,29.814,0,0,1,297.4,430.5Z"/><path class="c" d="M321.6,430.5a81.452,81.452,0,0,1-12.1,0A61.153,61.153,0,0,1,321.6,430.5Z"/><path class="c" d="M345.7,430.5a81.452,81.452,0,0,1-12.1,0A61.155,61.155,0,0,1,345.7,430.5Z"/><path class="c" d="M369.8,430.5a81.452,81.452,0,0,1-12.1,0A61.153,61.153,0,0,1,369.8,430.5Z"/><path class="c" d="M393.9,430.5a81.452,81.452,0,0,1-12.1,0A61.153,61.153,0,0,1,393.9,430.5Z"/><path class="c" d="M418,430.5a81.452,81.452,0,0,1-12.1,0A61.153,61.153,0,0,1,418,430.5Z"/><path class="c" d="M442.2,430.5a81.452,81.452,0,0,1-12.1,0A61.153,61.153,0,0,1,442.2,430.5Z"/><path class="c" d="M466.3,430.5a81.452,81.452,0,0,1-12.1,0A61.155,61.155,0,0,1,466.3,430.5Z"/><path class="c" d="M490.4,430.5a81.452,81.452,0,0,1-12.1,0A61.153,61.153,0,0,1,490.4,430.5Z"/><path class="c" d="M508.5,430.5a20.113,20.113,0,0,1-6,0A15.15,15.15,0,0,1,508.5,430.5Z"/><g class="d"><path d="M326,354.2s.1,10-3,16-4,8.4-10.4,10.7-86.9,11.2-86.9,11.2V364.9Z"/></g><g class="d"><path d="M324.6,316.5s.9-10.2-24.7-14c-29.3-4.3-74.1-9.6-74.1-9.6v19.3Z"/></g><path class="f" d="M228.4,307.3h83.3A14.3,14.3,0,0,1,326,321.6v37.3a14.3,14.3,0,0,1-14.3,14.3H228.4a14.3,14.3,0,0,1-14.3-14.3V321.6A14.3,14.3,0,0,1,228.4,307.3Z"/><path class="c" d="M228.4,373.2h-.9a10.68,10.68,0,0,1-2.5-.3,13.684,13.684,0,0,1-3.8-1.5,14.6,14.6,0,0,1-4.2-3.6,14.939,14.939,0,0,1-2.9-6.4,17.9,17.9,0,0,1-.2-4V321.1a14.213,14.213,0,0,1,5.7-11.1,13.862,13.862,0,0,1,6.2-2.7,13.476,13.476,0,0,1,3.5-.2h82.4a14.469,14.469,0,0,1,11.3,5.4,14.639,14.639,0,0,1,3.2,7.8c.1,1.4.1,2.8.1,4.1v35.5a12.252,12.252,0,0,1-.2,1.9,12.089,12.089,0,0,1-.5,1.8A14.6,14.6,0,0,1,315,373l-1.8.3c-.6,0-1.2.1-1.8.1H276.8l-35.5-.1H229.2l-.8-.1c0,.1.3.1.9.1h12.1l35.5-.1h31.2c2.3-.1,4.6.2,6.9-.4a14.185,14.185,0,0,0,10.1-9.2c.9-2.3.7-4.8.7-7.4V324.5c0-1.4,0-2.8-.1-4.1a14.213,14.213,0,0,0-3.1-7.5,15.841,15.841,0,0,0-3-2.8,13.265,13.265,0,0,0-3.8-1.8,14.027,14.027,0,0,0-4.1-.6H229.3a19.4,19.4,0,0,0-3.4.2,14.657,14.657,0,0,0-6,2.6,13.986,13.986,0,0,0-5.6,10.8c-.1,4.1,0,8,0,11.8v24.5a18.194,18.194,0,0,0,.2,4A14.42,14.42,0,0,0,225.1,373a18.663,18.663,0,0,0,2.5.4Z"/><circle class="c" cx="24" cy="24" r="24" transform="translate(268.3 318.7)"/><path class="g" d="M298.5,362.3a31.015,31.015,0,0,0,5.7-3,20.7,20.7,0,0,0,4.8-5,18.885,18.885,0,0,0,2.6-16.3,21.75,21.75,0,0,0-3.1-6.3,24.508,24.508,0,0,0-4.5-4.6,1.1,1.1,0,0,0,.4.2,7.634,7.634,0,0,1,1.1.8,15.18,15.18,0,0,1,3.3,3.4,20.82,20.82,0,0,1,3.2,6.3,18.753,18.753,0,0,1-2.7,16.7,23.7,23.7,0,0,1-5,5,16.843,16.843,0,0,1-4.2,2.2,5.637,5.637,0,0,1-1.2.4A.758.758,0,0,1,298.5,362.3Z"/><path class="f" d="M667.4,189.1a44.29,44.29,0,1,1-48.2-40h.2A44.323,44.323,0,0,1,667.4,189.1Z"/><g class="d"><path d="M656.8,189c-.2,0-.5-1.4-1.2-4a36.3,36.3,0,0,0-4.8-9.9,34.053,34.053,0,0,0-5-5.7,32.435,32.435,0,0,0-7.1-5,33.026,33.026,0,0,0-4.3-1.9,36.164,36.164,0,0,0-4.7-1.3,40.194,40.194,0,0,0-5-.6,30.167,30.167,0,0,0-5.2.2,30.634,30.634,0,0,0-5.1,1,37.985,37.985,0,0,0-4.7,1.8A33.232,33.232,0,0,0,596,175.3a35.649,35.649,0,0,0-3.5,6.7,36.579,36.579,0,0,0-2.3,10.8c-.2,2.6-.1,4.1-.3,4.1s-.6-1.4-.7-4.1a29.475,29.475,0,0,1,1.6-11.4,33.557,33.557,0,0,1,9.3-14.4,32.48,32.48,0,0,1,8.5-5.7,31.3,31.3,0,0,1,5.1-1.9,33.478,33.478,0,0,1,5.5-1.1,34.967,34.967,0,0,1,5.6-.2,33.277,33.277,0,0,1,5.4.7,35.6,35.6,0,0,1,9.6,3.5,33.691,33.691,0,0,1,12.5,11.8,29.92,29.92,0,0,1,4.2,10.7C657,187.5,657,189,656.8,189Z"/></g><g class="d"><path d="M628.9,212.8l.6,5.8-5.2.6-.6-5.7c-5.2.2-10.3-.9-13.4-2.8l2.2-6.7a21.327,21.327,0,0,0,10.5,2.7l-.9-8.7c-5.9-.8-12.6-2.1-13.4-9.5-.6-5.5,3-10.7,11.1-12.5l-.6-5.8,5.2-.5.6,5.7a22.63,22.63,0,0,1,10.9,2.1L634,184a21.427,21.427,0,0,0-8.3-1.9l.9,8.9c5.9.8,12.5,2,13.3,9.4C640.5,205.8,637,210.9,628.9,212.8Zm-7.6-22.5-.8-7.4c-2.7.9-3.6,2.5-3.5,4.3S618.9,189.8,621.3,190.3Zm10.3,11.6c-.2-1.8-1.8-2.7-4.1-3.2l.8,7.2C630.8,205.1,631.8,203.6,631.6,201.9Z"/></g><path class="c" d="M589.7,196.2c0,.1.1.2.1.3,0,.2.1.5.1.8a8.313,8.313,0,0,0,.2,1.3c.1.6.2,1.2.3,1.7a34.593,34.593,0,0,0,9.1,16.5l1.6,1.4c.3.2.5.5.8.7l.9.7c.6.4,1.2.9,1.8,1.3l2,1.2a36.69,36.69,0,0,0,9.2,3.6,33.429,33.429,0,0,0,20.7-1.9,31.294,31.294,0,0,0,8.3-5.2l1.7-1.6c.6-.5,1-1.1,1.5-1.6l.8-.8a5.5,5.5,0,0,0,.7-.9c.4-.6.9-1.1,1.3-1.7a28.292,28.292,0,0,0,3.6-6.9,31.808,31.808,0,0,0,2.3-11v-3.9a2.486,2.486,0,0,0,.1.8c.1.3,0,.8.1,1.3v1.8a32.257,32.257,0,0,1-2.2,11.1,30.917,30.917,0,0,1-3.6,7L650,214a5.5,5.5,0,0,1-.7.9l-.8.8c-.5.6-1,1.1-1.6,1.7l-1.8,1.6a35.631,35.631,0,0,1-8.5,5.3,32.963,32.963,0,0,1-21,1.9,37.393,37.393,0,0,1-9.3-3.6l-2-1.2a12.375,12.375,0,0,1-1.8-1.4l-.9-.7c-.3-.2-.5-.5-.8-.7l-1.6-1.5a35.5,35.5,0,0,1-4.8-6.2,33.039,33.039,0,0,1-4.2-10.5l-.3-1.8c-.1-.5-.1-.9-.2-1.3a2.813,2.813,0,0,1-.1-.8C589.7,196.3,589.7,196.3,589.7,196.2Z"/><path class="a" d="M605,319.6a25.719,25.719,0,1,1-12.1-34.3h.1a25.685,25.685,0,0,1,12,34.3Z"/><g class="d"><path d="M599.8,316.4a10.547,10.547,0,0,1,.6-2.4,22.813,22.813,0,0,0,.6-6.4,20.416,20.416,0,0,0-.8-4.3,19.156,19.156,0,0,0-2.1-4.6,17.688,17.688,0,0,0-1.6-2.2,19.151,19.151,0,0,0-7-5.3c-.9-.4-1.9-.7-2.8-1a25,25,0,0,0-2.9-.5,26.2,26.2,0,0,0-2.8-.1,12.414,12.414,0,0,0-2.7.3,19.176,19.176,0,0,0-4.8,1.5,21.379,21.379,0,0,0-3.8,2.3,17.483,17.483,0,0,0-4.3,4.7,9.022,9.022,0,0,1-1.4,2,5.047,5.047,0,0,1,.9-2.3,19.669,19.669,0,0,1,4.2-5.3,20.379,20.379,0,0,1,3.9-2.6,22.053,22.053,0,0,1,5.1-1.8,20.187,20.187,0,0,1,6-.3,15.468,15.468,0,0,1,3.1.6,20.25,20.25,0,0,1,6,2.7,23.481,23.481,0,0,1,2.5,1.9,14.462,14.462,0,0,1,2.1,2.2c.6.8,1.2,1.6,1.7,2.4a22.051,22.051,0,0,1,2.1,5,24.388,24.388,0,0,1,.7,4.6,16.383,16.383,0,0,1-1.1,6.6A11.555,11.555,0,0,1,599.8,316.4Z"/></g><g class="d"><path d="M578.8,320l-1.4,3.1-2.8-1.3,1.4-3a15.291,15.291,0,0,1-5.9-5.4l3.1-2.7a12.926,12.926,0,0,0,4.5,4.5l2.2-4.6c-2.7-2.2-5.7-4.8-3.8-8.7,1.4-2.9,4.7-4.5,9.3-2.9l1.4-3.1,2.8,1.3-1.4,3a13.223,13.223,0,0,1,4.8,4.3l-3,2.8a12.927,12.927,0,0,0-3.6-3.4l-2.2,4.7c2.7,2.1,5.6,4.7,3.8,8.6C586.6,320,583.4,321.5,578.8,320Zm2.9-13.5,1.8-3.9c-1.6-.4-2.6.2-3,1.1s.2,1.8,1.2,2.8Zm1.7,8.9c.4-1-.1-1.9-1.1-2.8l-1.8,3.8c1.5.3,2.5-.2,2.9-1Z"/></g><path class="c" d="M564.2,300s-.3.8-.8,2.3a17.721,17.721,0,0,0-.9,6.4,17.4,17.4,0,0,0,.6,4.5A20.02,20.02,0,0,0,565,318a18.822,18.822,0,0,0,3.5,4.5,19.58,19.58,0,0,0,10.8,5.2,21.762,21.762,0,0,0,5.7-.1,19.267,19.267,0,0,0,8.8-3.8,20.674,20.674,0,0,0,4.5-4.8c.8-1.3,1.2-2.1,1.3-2-.1.2-.1.4-.3.6-.3.5-.5,1.1-.8,1.6a19.488,19.488,0,0,1-19.1,9,20.809,20.809,0,0,1-6-1.8,18.155,18.155,0,0,1-5.1-3.6,22.844,22.844,0,0,1-3.6-4.6,21.02,21.02,0,0,1-2-4.9,17.261,17.261,0,0,1-.5-4.5,18.136,18.136,0,0,1,1.1-6.5,7.742,7.742,0,0,1,.7-1.6A.618.618,0,0,1,564.2,300Z"/><path class="f" d="M180.4,316a42,42,0,1,1-47.7-35.4h.1A41.857,41.857,0,0,1,180.4,316Z"/><g class="d"><path d="M170.4,316.4c-.2,0-.5-1.3-1.4-3.7a33.229,33.229,0,0,0-5.1-9.2,34.493,34.493,0,0,0-5-5.1,31.352,31.352,0,0,0-7-4.3,25.973,25.973,0,0,0-4.2-1.5,24.24,24.24,0,0,0-4.5-1,38.66,38.66,0,0,0-4.8-.3,27.152,27.152,0,0,0-4.9.5,42.087,42.087,0,0,0-4.8,1.2,34.34,34.34,0,0,0-4.4,1.9,19.911,19.911,0,0,0-3.9,2.5,30.7,30.7,0,0,0-3.4,2.9,31.91,31.91,0,0,0-8,13,32.789,32.789,0,0,0-1.6,10.4c0,2.5.2,3.9,0,3.9s-.6-1.3-.9-3.9a28.673,28.673,0,0,1,.9-10.9,36.157,36.157,0,0,1,2.8-7.1,32.65,32.65,0,0,1,5.2-7,37.281,37.281,0,0,1,3.6-3.2,30.118,30.118,0,0,1,4.2-2.7,39.586,39.586,0,0,1,4.7-2.1,34.156,34.156,0,0,1,10.5-1.9,45.333,45.333,0,0,1,5.2.3,26.779,26.779,0,0,1,4.9,1.1,33.358,33.358,0,0,1,4.4,1.7,32.638,32.638,0,0,1,12.5,10.5,30.824,30.824,0,0,1,4.6,9.9C170.5,315,170.5,316.4,170.4,316.4Z"/></g><g class="d"><path d="M145.2,340.4l.9,5.5-4.9.8-.9-5.4c-4.9.5-9.8-.3-12.9-2l1.7-6.4a20.573,20.573,0,0,0,10.1,2l-1.3-8.2c-5.7-.5-12.1-1.3-13.2-8.3-.8-5.2,2.2-10.3,9.9-12.4l-.9-5.5,4.9-.8.9,5.4a22.341,22.341,0,0,1,10.5,1.4l-1.5,6.4a21.236,21.236,0,0,0-7.9-1.4l1.3,8.4c5.7.4,11.9,1.3,13.1,8.2C155.8,333.2,152.8,338.2,145.2,340.4Zm-8.4-20.9-1.1-7c-2.5,1-3.3,2.6-3.1,4.2S134.6,319.1,136.8,319.5Zm10.4,10.4c-.3-1.7-1.9-2.4-4.1-2.8l1.1,6.8c2.4-.9,3.2-2.4,3-4Z"/></g><path class="c" d="M107.3,326.7c0,.1.1.2.1.3a6.373,6.373,0,0,1,.2.7l.3,1.2a7.491,7.491,0,0,0,.4,1.6,34,34,0,0,0,4.6,9.6,32.132,32.132,0,0,0,4.9,5.5l1.6,1.3c.3.2.5.4.8.6l.9.6,1.8,1.2,1.9,1a31.364,31.364,0,0,0,8.8,2.9,33.526,33.526,0,0,0,10,.1,31.887,31.887,0,0,0,9.5-3,31.365,31.365,0,0,0,7.6-5.3l1.6-1.6c.5-.5.9-1.1,1.4-1.6l.7-.8.6-.9a16.289,16.289,0,0,0,1.1-1.7,32.022,32.022,0,0,0,4.7-17.2,9.7,9.7,0,0,0-.1-1.7c0-.5-.1-.9-.1-1.2a2.2,2.2,0,0,0-.1-.8v-.3a.367.367,0,0,0,.1.3c0,.2.1.5.1.8s.1.8.1,1.2a9.7,9.7,0,0,1,.1,1.7,31.64,31.64,0,0,1-1.5,10.6,32.238,32.238,0,0,1-3.1,6.8l-1.1,1.7-.6.9-.7.8c-.5.5-.9,1.1-1.4,1.7a12.094,12.094,0,0,1-1.6,1.6,31.955,31.955,0,0,1-27.5,8.3,35.3,35.3,0,0,1-9-3l-2-1.1-1.8-1.2-.9-.6c-.3-.2-.5-.5-.8-.7l-1.6-1.3a37.112,37.112,0,0,1-4.9-5.6,30.08,30.08,0,0,1-4.5-9.8,9.363,9.363,0,0,1-.4-1.6,7.385,7.385,0,0,1-.2-1.2l-.1-.8C107.2,326.8,107.2,326.8,107.3,326.7Z"/><path class="c" d="M708.5,448.2c0,.1-149.3.3-333.5.3s-333.5-.1-333.5-.3,149.3-.3,333.5-.3S708.5,448.1,708.5,448.2Z"/><path class="h" d="M553,260.3s-.1-6.6-.4-6.7L539,256.7c-.2.9-1.9,11.8-1.6,12.8l15.4,4.3S553,260.7,553,260.3Z"/><path class="h" d="M553,272.8c0-.1.1-.2.1-.3.2-1.5.1-8-.7-8.3s-3.1.2-3.3,1,.4,8.2.4,8.2.2,1.1,2.1,1.4C552.8,275,553,272.8,553,272.8Z"/><path class="h" d="M549.1,275.1c0-.1.1-.2.1-.3.2-1.5.1-8-.7-8.3s-3.1.2-3.3,1.1.4,8.2.4,8.2.2,1.1,2.1,1.4C548.8,277.4,549.1,275.1,549.1,275.1Z"/><path class="h" d="M545.3,276.3a.774.774,0,0,1,.1-.3c.2-1.5.1-8-.7-8.3s-3.1.2-3.3,1.1.4,8.2.4,8.2.2,1.2,2.1,1.4C545,278.5,545.3,276.3,545.3,276.3Z"/><path class="h" d="M541.5,277.4a.774.774,0,0,1,.1-.3c.2-1.5.1-8-.7-8.3s-3.1.2-3.3,1,.4,8.2.4,8.2.2,1.1,2.1,1.4C541.2,279.6,541.5,277.4,541.5,277.4Z"/><path class="i" d="M549.1,267.2a16.55,16.55,0,0,1,.3,3.2,10.753,10.753,0,0,1-.1,3.1,16.55,16.55,0,0,1-.3-3.2A10.635,10.635,0,0,1,549.1,267.2Z"/><path class="i" d="M545.2,267.1a22.824,22.824,0,0,1,.4,4.5,33.8,33.8,0,0,1,0,4.5,22.824,22.824,0,0,1-.4-4.5A33.766,33.766,0,0,1,545.2,267.1Z"/><g class="j"><path class="i" d="M541.3,267.5a22.824,22.824,0,0,1,.4,4.5,33.8,33.8,0,0,1,0,4.5,22.824,22.824,0,0,1-.4-4.5A33.8,33.8,0,0,1,541.3,267.5Z"/></g><path class="h" d="M538.9,257s-5.4,12.3-4.6,13.1a15.654,15.654,0,0,0,3.3,1.9Z"/><path class="h" d="M509,92.1l-4,46-23-1.8c-.1-2.7,0-13.1,0-13.1s-9.6-1.5-9.7-11.1c0-4.7.6-14.3,1.3-22.9a17.824,17.824,0,0,1,18.7-16.3h0A17.822,17.822,0,0,1,509,91.6Z"/><path class="i" d="M482,123a22.213,22.213,0,0,0,12.5-3.6s-3,6.9-12.5,6Z"/><path class="c" d="M476.1,95.8a1.493,1.493,0,0,0,1.3,1.4,1.322,1.322,0,0,0,1.4-1.2h0a1.355,1.355,0,0,0-2.7-.2Z"/><path class="c" d="M475.6,94c.2.2,1.2-.6,2.7-.6a12.18,12.18,0,0,1,2.7.6c.2-.1-.1-.4-.6-.8a4.1,4.1,0,0,0-2.2-.7,3.139,3.139,0,0,0-2.1.7A1.464,1.464,0,0,0,475.6,94Z"/><path class="c" d="M490.6,95.8a1.367,1.367,0,0,0,1.4,1.4,1.4,1.4,0,0,0,1.4-1.2h0a1.415,1.415,0,0,0-1.3-1.4,1.433,1.433,0,0,0-1.5,1.2Z"/><path class="c" d="M490.1,94.2c.2.2,1.2-.6,2.7-.6a10.671,10.671,0,0,1,2.7.6c.1-.1-.1-.4-.6-.7a4.1,4.1,0,0,0-2.2-.7,3.139,3.139,0,0,0-2.1.7C490.2,93.8,490,94.2,490.1,94.2Z"/><path class="c" d="M484.8,105.2a10.039,10.039,0,0,0-2.4-.4c-.4,0-.7-.1-.8-.4a2.016,2.016,0,0,1,.3-1.1l1.1-2.9c1.5-4.1,2.7-7.4,2.5-7.5s-1.5,3.2-3.1,7.3c-.4,1-.7,2-1.1,2.9a2.622,2.622,0,0,0-.2,1.5.9.9,0,0,0,.6.6,1.268,1.268,0,0,0,.6.1A20.08,20.08,0,0,0,484.8,105.2Z"/><path class="c" d="M489.1,106.2c-.2,0-.2,1.6-1.6,2.7s-3.1,1-3.1,1.2.4.3,1.1.3a4.317,4.317,0,0,0,2.6-.9,3.6,3.6,0,0,0,1.3-2.3C489.4,106.6,489.2,106.2,489.1,106.2Z"/><path class="c" d="M489.7,88.5c.1.4,1.6.2,3.4.4s3.1.7,3.4.3c.1-.2-.1-.6-.7-.9a5.754,5.754,0,0,0-5.1-.6C490,88,489.7,88.3,489.7,88.5Z"/><path class="c" d="M476.2,89.7c.3.3,1.3,0,2.5,0s2.3.2,2.5-.1c.1-.2-.1-.5-.5-.8a3.636,3.636,0,0,0-4,.1C476.2,89.2,476.1,89.5,476.2,89.7Z"/><path class="c" d="M511,86.2c-.5,4.7-1.8,10.5-2.2,15.3a3.08,3.08,0,0,1-.3,1.3c-.7.9-2.3,2.9-3.1,2.1-2-1.9-2.8-7.1-3.2-9.9s-.3-5.5-.7-8.3v-.2a7.9,7.9,0,0,0-2.8-4.9,10.907,10.907,0,0,0-1.1-.6c-2.8-1-7.5.8-10.3,1.9-1.4.5-2.9,1.2-4.3,1.8a10.02,10.02,0,0,1-9.9-.8c-1.7-1.2-1.9-5.2-1.1-7.6,2-6.7,10.4-9,21.2-6.4S512.1,76.6,511,86.2Z"/><path class="h" d="M505.7,96.4c.2-.1,6.6-2,6.4,4.6s-6.7,5-6.8,4.8S505.7,96.4,505.7,96.4Z"/><path class="i" d="M507.4,103.4a1.238,1.238,0,0,0,.3.2,1.388,1.388,0,0,0,.9,0,2.851,2.851,0,0,0,1.4-2.5,5.08,5.08,0,0,0-.3-1.7,1.22,1.22,0,0,0-.8-.9.517.517,0,0,0-.7.3.774.774,0,0,0-.1.3.584.584,0,0,1-.1-.4c0-.2.1-.3.3-.4a1.421,1.421,0,0,1,.6-.2,1.649,1.649,0,0,1,1.2,1.1,2.885,2.885,0,0,1,.3,1.8,3.077,3.077,0,0,1-1.8,2.8,1.232,1.232,0,0,1-1-.2A.2.2,0,0,1,507.4,103.4Z"/><path class="k" d="M510.9,86.6a10.082,10.082,0,0,1-9.4.2,37.756,37.756,0,0,0,4.7.6A35.45,35.45,0,0,0,510.9,86.6Z"/><path class="k" d="M510.7,88.5a7.893,7.893,0,0,1-4.5,1.3,7.742,7.742,0,0,1-4.5-1.1,34.69,34.69,0,0,0,4.5.6C507.7,89.1,509.2,88.8,510.7,88.5Z"/><path class="c" d="M465.1,414.9l4.3,19.6s-18.5,10.9-18.1,14.6l38.3-6.9-5.4-30.8Z"/><path class="k" d="M489.6,442.2l-.7-3.1-36.5,7.8s-1.6,1-1.2,2.2Z"/><path class="c" d="M508.6,417l.6,20s-20.2,7.4-20.4,11.1l38.9.2L528,417Z"/><g class="l"><path class="k" d="M527.8,448.3l-.1-3.1-37.3,1s-1.7.7-1.5,2Z"/></g><path class="c" d="M463,431.7s-20-97.9-20-99.8l35.7-18.8L492.5,428Z"/><path class="c" d="M507.9,435,480.4,265.3V228.7l37.6,3.5c.5,1.4,12.8,202.9,12.8,202.9l-3.9-.2-19,.1"/><path class="c" d="M458.6,226.1,443,331.8l35-8.4,14.2-93.8Z"/><path class="k" d="M491,235.1v.5a12.542,12.542,0,0,0,.2,1.5c.2,1.4.4,3.3.7,5.8.6,5.1,1.5,12.4,2.7,21.4,2.3,18,5.9,43,9.7,70.5,1.9,13.8,3.6,26.9,5.1,38.8.4,3,.7,5.9,1.1,8.7s.9,5.6,1.3,8.2c.8,5.3,1.5,10.2,2.2,14.7,1.3,9,2.4,16.3,3.1,21.3.3,2.5.6,4.5.8,5.8a13.875,13.875,0,0,0,.2,1.5v.4c0,.1-.1,0-.1,0h.1v-.4a9.236,9.236,0,0,0-.1-1.5c-.1-1.3-.3-3.3-.7-5.8-.7-5-1.7-12.4-3-21.4-.7-4.5-1.4-9.4-2.2-14.7-.4-2.6-.8-5.4-1.2-8.2s-.7-5.7-1.1-8.7c-1.5-12-3.2-25.1-5.1-38.8-3.8-27.5-7.4-52.4-9.8-70.4L492,243c-.3-2.5-.6-4.5-.8-5.8l-.2-1.5Z"/><path class="k" d="M470,430.8a1.75,1.75,0,0,0-.1-.5,13.891,13.891,0,0,1-.2-1.5c-.2-1.3-.5-3.2-1-5.6l-3.6-20.7L453,334.3a13.938,13.938,0,0,1-.3-5c.2-1.6.5-3.3.7-4.9q.75-4.95,1.5-9.6c1-6.3,2-12.4,2.9-18.2,1.9-11.6,3.8-22,5.4-30.7s3.1-15.7,4.2-20.6c.5-2.4,1-4.3,1.3-5.6.1-.6.3-1.1.3-1.4a1.213,1.213,0,0,1,.1-.5,1.75,1.75,0,0,1-.1.5c-.1.3-.2.8-.4,1.4-.3,1.3-.8,3.1-1.4,5.5-1.2,4.8-2.7,11.8-4.4,20.5s-3.6,19.1-5.5,30.7c-1,5.8-2,11.9-3,18.2l-1.5,9.6c-.3,1.6-.5,3.3-.7,4.9a14.637,14.637,0,0,0,.3,5.1c4.8,26.6,9.1,50.7,12.3,68.2,1.6,8.7,2.9,15.8,3.8,20.7.5,2.4.8,4.3,1,5.6q.15.9.3,1.5A3.218,3.218,0,0,0,470,430.8Z"/><path class="k" d="M480.3,264.1c-.1,0,1.5,11,3.6,24.5s4,24.4,4.1,24.4-1.5-11-3.6-24.5S480.4,264.1,480.3,264.1Z"/><path class="k" d="M507.5,434.6a2.92,2.92,0,0,0,.9.2c.6.1,1.4.1,2.5.2,2.1.2,5,.3,8.2.4s6.1,0,8.2-.1c1,0,1.9-.1,2.5-.1a2.769,2.769,0,0,0,.9-.1c-1.1-.1-2.3-.1-3.4-.1h-8.2c-3.2,0-6.1-.1-8.2-.2A18.846,18.846,0,0,0,507.5,434.6Z"/><path class="k" d="M463,431.7a4.869,4.869,0,0,0,1.2-.1l3.2-.3c2.7-.3,6.4-.8,10.4-1.3s7.8-1,10.4-1.4l3.1-.5a3.6,3.6,0,0,0,1.1-.2h-1.2c-.8.1-1.8.2-3.2.3-2.7.3-6.4.8-10.4,1.3s-7.8,1-10.4,1.4l-3.1.5A2.607,2.607,0,0,0,463,431.7Z"/><path class="f" d="M410.5,163.7,433,180.8s20.9-35.7,22.8-37.9,6.5-4.6,6.5-4.6L459.7,184s-11.3,28.9-26.8,27.3c-11.9-1.2-32.4-32.6-32.4-32.6Z"/><g class="b"><path d="M432.6,180.2a19.807,19.807,0,0,0-2.3,16.4,1.945,1.945,0,0,0,.9,1.4,1.834,1.834,0,0,0,2.3-.8,5.734,5.734,0,0,0,.6-2.5,5.951,5.951,0,0,0,1.7,2.2,1.96,1.96,0,0,0,2.5-.1c.7-.8.3-2.1-.1-3.1-1.9-4.3-3.8-8.7-5.7-13"/></g><path class="c" d="M416.2,168.8c.1.1-2.2,3.9-5.1,8.6a76.154,76.154,0,0,1-5.6,8.3,97.8,97.8,0,0,1,5.1-8.6C413.5,172.5,416,168.7,416.2,168.8Z"/><path class="c" d="M410.5,168.2c-.1,0,.2-.4.7-.1a1.057,1.057,0,0,1,.6.7,1.012,1.012,0,0,1-.8,1.2.806.806,0,0,1-.9-.3.959.959,0,0,1-.2-.9c.1-.6.5-.7.6-.6,0,.1-.2.3-.2.6s.3.7.7.4a.481.481,0,0,0,.2-.6.215.215,0,0,0-.2-.2C410.8,168.2,410.5,168.3,410.5,168.2Z"/><path class="c" d="M433,191.6a12.368,12.368,0,0,1-1-5.4c0-3.1.7-5.5.9-5.4s-.3,2.4-.3,5.4S433.2,191.6,433,191.6Z"/><path class="c" d="M437.4,191.4a19.441,19.441,0,0,1-2.9-5.1,18.177,18.177,0,0,1-1.7-5.6c.2-.1,1,2.4,2.3,5.3S437.5,191.4,437.4,191.4Z"/><path class="f" d="M509.3,134l-3.4-6.7H481.3l-3.9,7.6-15.2,3.4-6.5,97.9a7.683,7.683,0,0,0,.9,3.6h0l59.7,2.2,2.4,1c2.1-1.3.8-6.8.8-9.3l.8-48.5,11.8-38.7Z"/><g class="b"><path d="M483.9,137.4l4.3-4.4c1.6,3.9,3.3,7.9,4.9,11.8a117.78,117.78,0,0,0,16-11.2l-16.5,5.3-4.2-11.1a41.14,41.14,0,0,1-4.2,9.6"/></g><path class="f" d="M553.1,256.7l-16.1.8V211.3l-16.6-26.1,11.8-38.7c2.4,1,20.8,47,25.4,59.5a13.46,13.46,0,0,1,.9,5.6Z"/><path class="c" d="M462.3,158.5c.2,0-.6,9.5-1.8,21.1s-2.2,21.1-2.4,21.1.6-9.5,1.8-21.1S462.1,158.5,462.3,158.5Z"/><path class="c" d="M488.3,127.8a74.739,74.739,0,0,1-2.9,7.9l-.3.8a2.177,2.177,0,0,1-.5.8,1.376,1.376,0,0,1-1.1.1c-.2-.1-.5-.3-.7-.4l-2.2-1.5a9.509,9.509,0,0,1-2-1.5,15.054,15.054,0,0,1,2.2,1.1l2.3,1.4c.4.3.9.6,1.1.4a6.11,6.11,0,0,0,.7-1.4A72.116,72.116,0,0,1,488.3,127.8Z"/><path class="c" d="M507.9,133.8a25.017,25.017,0,0,1-3.8,1.5c-2.4.9-5.6,2-9.2,3.2l-2,.7-.3.1-.1-.3c-1.3-3.1-2.4-5.8-3.1-7.7a17.262,17.262,0,0,1-1.1-3.2,20.987,20.987,0,0,1,1.5,3c.9,1.9,2,4.6,3.3,7.7l-.4-.2,2-.7,9.3-3.1A36.865,36.865,0,0,1,507.9,133.8Z"/><path class="c" d="M529.6,147.9c0,.2-3.4,1.1-7.4,2.9s-7,3.7-7.1,3.6A6.222,6.222,0,0,1,517,153a38.808,38.808,0,0,1,10.4-4.6A4.193,4.193,0,0,1,529.6,147.9Z"/><path class="c" d="M488.3,127.8V129c0,.8.1,1.9.1,3.3,0,2.9,0,7-.2,12.2-.4,10.3-1.6,24.4-3.7,39.9-1,7.8-2.1,15.2-2.8,21.9a155.128,155.128,0,0,0-1,18,98.7,98.7,0,0,0,1,12.1c.2,1.4.4,2.5.5,3.3,0,.4.1.6.1.9v.3c0-.1-.1-.2-.1-.3a3.091,3.091,0,0,0-.2-.8c-.1-.7-.4-1.8-.6-3.3a70.714,70.714,0,0,1-1.1-12.1,154.878,154.878,0,0,1,.8-18c.7-6.8,1.8-14.1,2.8-21.9,2-15.5,3.4-29.6,3.9-39.9.3-5.1.3-9.3.4-12.1v-4.2C488.2,128,488.2,127.9,488.3,127.8Z"/><path class="c" d="M554,249.6c0,.2-3.8.1-8.5-.1a70.4,70.4,0,0,1-8.5-.7,120.968,120.968,0,0,1,17,.8Z"/><path class="c" d="M539.7,251.4v.4c0,.2.3.3.5.2s.1-.4-.1-.5-.3,0-.4-.1.1-.4.5-.3a.634.634,0,0,1,.6.5.807.807,0,0,1-.3.9.769.769,0,0,1-1,.1.908.908,0,0,1-.3-.7A.979.979,0,0,1,539.7,251.4Z"/><g class="b"><path d="M520.6,185.1l-5.2-9.5a129.168,129.168,0,0,0,3.5,49.9l1.6-40.3"/></g><path class="c" d="M494,167.7a3.4,3.4,0,0,1,1-.1l2.8-.1c2.4-.1,5.9-.1,10.2-.1h.3v.3c-.3,3.7-.6,8-.9,12.5v.2l-.1.1-.6.3-6.8,3.6-.2.1-.1-.1-6.4-5.2-.1-.1V179c.3-3.4.5-6.2.7-8.3a21.5,21.5,0,0,0,.2-2.3.854.854,0,0,1,0-.7v.9c0,.6-.1,1.4-.1,2.3-.1,2-.3,4.8-.5,8.2l-.1-.2,6.4,5.1h-.3l6.8-3.6.6-.3-.2.2c.4-4.6.7-8.8,1-12.5l.3.3c-4.1,0-7.5-.1-10-.1l-2.9-.1A3.553,3.553,0,0,0,494,167.7Z"/><path class="c" d="M464.5,240.2c0,.2-1.3-.1-2.1-1.3s-.6-2.4-.4-2.4.2,1,.9,2A14.731,14.731,0,0,0,464.5,240.2Z"/><path class="c" d="M466,239.6a5.441,5.441,0,0,1-1.5-6c.2,0,0,1.4.4,3.1A26.855,26.855,0,0,0,466,239.6Z"/><path class="c" d="M511.1,232.9a8.574,8.574,0,0,1-.9,4.9,9.1,9.1,0,0,1-3.2,3.9,30.3,30.3,0,0,0,2.6-4.1C510.7,235.2,510.9,232.8,511.1,232.9Z"/><path class="h" d="M409.3,165.6s-18.2-13.8-20.7-14.7c-4.2-1.5-5.3-1.1-5.3-1.1l10,10.7s-10.5,3.6-11.3,4-1.1,2.7,1.4,2.7c2.1,0,12.2.2,12.2.2l8.3,6.1Z"/><path class="c" d="M570.1,46.9h3.7l1.5.2,1.8.3,2,.5a34.932,34.932,0,0,1,25.8,30.4,38.46,38.46,0,0,1,.1,4.8,19.412,19.412,0,0,1-.2,2.4,20.029,20.029,0,0,0-.4,2.4,33.735,33.735,0,0,1-3.3,9.7,38.653,38.653,0,0,1-6.3,8.7,36.806,36.806,0,0,1-9.1,6.5,33.283,33.283,0,0,1-11.1,3.4c-1,.2-2,.2-3,.3a15.038,15.038,0,0,1-3,0,30.876,30.876,0,0,1-6-.8,34.685,34.685,0,0,1-11.9-5h.4l-12.2,4.9-.7.3.2-.8c1.2-4.5,2.4-8.8,3.6-13l.1.3a35.756,35.756,0,0,1-6.5-14.8,32.411,32.411,0,0,1-.5-7.6,23.078,23.078,0,0,1,.3-3.7l.3-1.8c.1-.6.3-1.2.4-1.7A34.733,34.733,0,0,1,549.6,53a38.848,38.848,0,0,1,8.1-4.2c.6-.2,1.2-.5,1.8-.7l1.7-.4,1.6-.4a7.719,7.719,0,0,1,1.5-.2c.9-.1,1.7-.3,2.4-.3l1.8-.1h1.1c.3.2.4.2.5.2-.1,0-.2.1-.4.1l-1.1.1-1.8.1c-.7.1-1.5.2-2.4.4a34.442,34.442,0,0,0-27.6,25.6c-.1.6-.3,1.1-.4,1.7l-.3,1.8a21.861,21.861,0,0,0-.3,3.6,30.4,30.4,0,0,0,.5,7.4,35.1,35.1,0,0,0,6.4,14.5l.1.2v.2c-1.1,4.2-2.3,8.5-3.5,13l-.5-.4,12.1-4.9.2-.1.2.1a34.634,34.634,0,0,0,11.7,4.9,28.722,28.722,0,0,0,5.8.7,27.151,27.151,0,0,0,2.9-.1,28.253,28.253,0,0,0,2.9-.2,33.1,33.1,0,0,0,10.8-3.3,35.371,35.371,0,0,0,8.9-6.4,34.345,34.345,0,0,0,6.2-8.5,35.717,35.717,0,0,0,3.3-9.5c.1-.8.3-1.6.4-2.4s.1-1.6.2-2.4a24.623,24.623,0,0,0-.1-4.7,34.573,34.573,0,0,0-15.5-25.8,34.058,34.058,0,0,0-9.7-4.4l-2-.5-1.8-.3-1.5-.3c-.5,0-.9-.1-1.3-.1l-1.8-.1A.638.638,0,0,1,570.1,46.9Z"/><path class="a" d="M581.5,90H580l-4.4.1-14.7.1h-.1v-.1a20.016,20.016,0,0,0-.4-2.4c-1-7.1-1.9-13.5-2.5-17.6l.1.1h-3.9L558,70h.1v.1c.6,4.2,1.6,10.5,2.6,17.6l.3,2.4-.1-.1h20.6Z"/><path class="a" d="M561.2,90.4h-.5l-.1-.5h0v-.1l-.3-2-2.5-17.5H553c-.4,0-.5,0-.5-.1v-.1h0l.5-.1h1l3.7-.1v-.1l.1.1h.3v.4l.1.1h-.1c.6,4.2,1.5,10.4,2.6,17.3L561,90h20c.5,0,.5,0,.5.2s0,.1-.5.2h-1.2l-4.4.1-14.4.1Zm0-.3ZM559.9,83l1,6.8h0l-.3-2.2C560.3,86.1,560.1,84.5,559.9,83Z"/><path class="a" d="M560.3,85.8h1.6l4.4-.1,15.2-.1-.1.1c.4-2.6.9-5.3,1.4-8.2.3-1.5.5-2.9.7-4.3l.1.2-18,.1h-5.2l5.3-.1,18-.2h.2v.2c-.2,1.4-.5,2.8-.7,4.3-.5,2.9-1,5.6-1.4,8.2V86H560.4Z"/><path class="a" d="M566.3,86h-5.9c-.1,0-.2,0-.2-.1s.1-.1.2-.1h1.5l4.4-.1,15-.1,1.4-8c.2-1.4.5-2.7.7-4l-17.6.1h-7.1c-.1,0-.3,0-.3-.1s.1-.1.3-.1h1.8l5.3-.1,17.7-.2h.6l-.1.5h0l-2,12h0l-.1.5h-.5Zm15-.3h0Zm2.3-12.3c-.2,1.3-.5,2.7-.7,4l-1.3,8h0l2-12Zm-.2-.2h0Z"/><path class="a" d="M566.1,95.7a1.751,1.751,0,0,0-.1-.5,2.1,2.1,0,0,0-.8-1.1,1.679,1.679,0,0,0-1.8-.2,1.905,1.905,0,1,0,1.8,3.3,2.258,2.258,0,0,0,.8-1.1,1,1,0,0,0,.1-.4v.5a2.4,2.4,0,0,1-.7,1.2,2.2,2.2,0,0,1-2.8-3.4,2.093,2.093,0,0,1,.6-.4,2.254,2.254,0,0,1,2.1.3,2.55,2.55,0,0,1,.8,1.2A.93.93,0,0,1,566.1,95.7Z"/><path class="a" d="M564,98a1.483,1.483,0,0,1-.7-.1,2.378,2.378,0,0,1-1.6-2.2,2.263,2.263,0,0,1,2.3-2.3,2.389,2.389,0,0,1,1.4.5,2.223,2.223,0,0,1,.8,1.3v1a2.223,2.223,0,0,1-.8,1.3A2.389,2.389,0,0,1,564,98Zm-.4-4.3-.3.1a2,2,0,0,0-1.2,2.6,2.031,2.031,0,0,0,1.2,1.2l.3.1-.3-.1a2,2,0,0,1-1.2-2.6,2.031,2.031,0,0,1,1.2-1.2Zm.4.2a1.952,1.952,0,0,0-.7.1,1.839,1.839,0,0,0-1.2,1.7,1.793,1.793,0,0,0,1.8,1.8,1.5,1.5,0,0,0,1.1-.4,2.286,2.286,0,0,0,.7-1c0-.1.1-.2.1-.4v-.2a.756.756,0,0,0-.1-.4,1.834,1.834,0,0,0-.7-1,2.509,2.509,0,0,0-1-.2Z"/><path class="a" d="M579.4,95.6a1.751,1.751,0,0,0-.1-.5,2.1,2.1,0,0,0-.8-1.1,1.985,1.985,0,0,0-2.8.6,1.907,1.907,0,0,0,2.8,2.5,2.258,2.258,0,0,0,.8-1.1,1,1,0,0,0,.1-.4v.5a1.855,1.855,0,0,1-.7,1.2,2.21,2.21,0,1,1,0-3.5,2.55,2.55,0,0,1,.8,1.2A1.486,1.486,0,0,0,579.4,95.6Z"/><path class="a" d="M577.3,97.9a2.2,2.2,0,0,1-.8-.1,2.309,2.309,0,1,1,1.4-4.4,1.612,1.612,0,0,1,.7.4,2.223,2.223,0,0,1,.8,1.3v1a2.061,2.061,0,0,1-2.1,1.8Zm-.5-4.3-.2.1a2,2,0,0,0-1.2,2.6,2.031,2.031,0,0,0,1.2,1.2l.3.1-.3-.1a2.069,2.069,0,0,1-1.2-2.7,2.031,2.031,0,0,1,1.2-1.2Zm.5.2a1.952,1.952,0,0,0-.7.1,1.838,1.838,0,1,0,1.4,3.4c.2-.1.3-.1.4-.2a2.286,2.286,0,0,0,.7-1c0-.1.1-.2.1-.4v-.2a.756.756,0,0,0-.1-.4,1.834,1.834,0,0,0-.7-1,2.016,2.016,0,0,0-1.1-.3Z"/><rect class="c" width="52.7" height="11.4" transform="translate(604 414)"/><path class="m" d="M624.9,414l.9,11.4h7.4l.4-11.4Z"/><rect class="k" width="52.7" height="11.4" transform="translate(591.3 414)"/><path class="c" d="M643.8,415.8c0,.1-11.7.3-26.2.3s-26.2-.1-26.2-.3,11.7-.3,26.2-.3S643.8,415.6,643.8,415.8Z"/><path class="c" d="M643.7,418.4c0,.1-11.7.3-26.2.3s-26.2-.1-26.2-.3,11.7-.3,26.2-.3S643.7,418.2,643.7,418.4Z"/><path class="c" d="M643.7,421c0,.1-11.7.3-26.2.3s-26.2-.1-26.2-.3,11.7-.3,26.2-.3S643.7,420.8,643.7,421Z"/><path class="c" d="M643.7,423.6c0,.1-11.7.3-26.2.3s-26.2-.1-26.2-.3,11.7-.3,26.2-.3S643.7,423.5,643.7,423.6Z"/><path class="m" d="M612.2,414l.8,11.4h7.5l.4-11.4Z"/><rect class="c" width="52.7" height="11.4" transform="translate(610.4 402.7)"/><path class="m" d="M631.3,402.7l.9,11.4h7.4l.4-11.4Z"/><rect class="k" width="52.7" height="11.4" transform="translate(597.7 402.7)"/><path class="c" d="M650.1,404.5c0,.1-11.7.3-26.2.3s-26.2-.1-26.2-.3,11.7-.3,26.2-.3S650.1,404.3,650.1,404.5Z"/><path class="c" d="M650.1,407.1c0,.1-11.7.3-26.2.3s-26.2-.1-26.2-.3,11.7-.3,26.2-.3S650.1,407,650.1,407.1Z"/><path class="c" d="M650.1,409.7c0,.1-11.7.3-26.2.3s-26.2-.1-26.2-.3,11.7-.3,26.2-.3S650.1,409.6,650.1,409.7Z"/><path class="c" d="M650.1,412.3c0,.1-11.7.3-26.2.3s-26.2-.1-26.2-.3,11.7-.3,26.2-.3S650.1,412.2,650.1,412.3Z"/><path class="m" d="M618.6,402.7l.8,11.4h7.5l.3-11.4Z"/><rect class="c" width="52.7" height="11.4" transform="translate(606.9 436.7)"/><path class="m" d="M627.8,436.6l.8,11.4h7.5l.3-11.4Z"/><rect class="k" width="52.7" height="11.4" transform="translate(594.1 436.6)"/><path class="c" d="M646.6,438.4c0,.1-11.7.3-26.2.3s-26.2-.1-26.2-.3,11.7-.3,26.2-.3S646.6,438.3,646.6,438.4Z"/><path class="c" d="M646.6,441c0,.1-11.7.3-26.2.3s-26.2-.1-26.2-.3,11.7-.3,26.2-.3S646.6,440.9,646.6,441Z"/><path class="c" d="M646.6,443.6c0,.1-11.7.3-26.2.3s-26.2-.1-26.2-.3,11.7-.3,26.2-.3S646.6,443.5,646.6,443.6Z"/><path class="c" d="M646.6,446.3c0,.1-11.7.3-26.2.3s-26.2-.1-26.2-.3,11.7-.3,26.2-.3S646.6,446.1,646.6,446.3Z"/><path class="m" d="M615,436.6l.9,11.4h7.4l.4-11.4Z"/><rect class="c" width="52.7" height="11.4" transform="translate(613.2 425.4)"/><path class="m" d="M634.1,425.4l.9,11.4h7.5l.3-11.4Z"/><rect class="k" width="52.7" height="11.4" transform="translate(600.5 425.4)"/><path class="c" d="M652.9,427.2c0,.1-11.7.3-26.2.3s-26.2-.1-26.2-.3,11.7-.3,26.2-.3S652.9,427,652.9,427.2Z"/><path class="c" d="M652.9,429.8c0,.1-11.7.3-26.2.3s-26.2-.1-26.2-.3,11.7-.3,26.2-.3S652.9,429.6,652.9,429.8Z"/><path class="c" d="M652.9,432.4c0,.1-11.7.3-26.2.3s-26.2-.1-26.2-.3,11.7-.3,26.2-.3S652.9,432.2,652.9,432.4Z"/><path class="c" d="M652.9,435c0,.1-11.7.3-26.2.3s-26.2-.1-26.2-.3,11.7-.3,26.2-.3S652.9,434.8,652.9,435Z"/><path class="m" d="M621.4,425.4l.8,11.4h7.5l.4-11.4Z"/><rect class="a" width="52.7" height="11.4" transform="translate(571.4 425.3)"/><rect class="n" width="52.7" height="11.4" transform="translate(571.4 425.3)"/><path class="m" d="M592.3,425.3l.9,11.4h7.4l.4-11.4Z"/><rect class="a" width="52.7" height="11.4" transform="translate(565.6 436.7)"/><rect class="n" width="52.7" height="11.4" transform="translate(565.6 436.7)"/><path class="m" d="M586.6,436.6l.8,11.4h7.5l.3-11.4Z"/><rect class="a" width="52.7" height="11.4" transform="translate(552.9 436.7)"/><g class="b"><path d="M605.4,438.4c0,.1-11.7.3-26.2.3s-26.2-.1-26.2-.3,11.7-.3,26.2-.3S605.4,438.3,605.4,438.4Z"/></g><g class="b"><path d="M605.3,441c0,.1-11.7.3-26.2.3s-26.1-.1-26.1-.3,11.7-.3,26.2-.3S605.3,440.9,605.3,441Z"/></g><g class="b"><path d="M605.3,443.6c0,.1-11.7.3-26.2.3s-26.2-.1-26.2-.3,11.7-.3,26.2-.3S605.3,443.5,605.3,443.6Z"/></g><g class="b"><path d="M605.3,446.3c0,.1-11.7.3-26.2.3s-26.2-.1-26.2-.3,11.7-.3,26.2-.3S605.3,446.1,605.3,446.3Z"/></g><path class="m" d="M573.8,436.6l.8,11.4h7.5l.4-11.4Z"/><rect class="a" width="52.7" height="11.4" transform="translate(560.5 425.3)"/><g class="b"><path d="M613,427c0,.1-11.7.3-26.2.3s-26.2-.1-26.2-.3,11.7-.3,26.2-.3S613,426.9,613,427Z"/></g><g class="b"><path d="M612.9,429.7c0,.1-11.7.3-26.2.3s-26.2-.1-26.2-.3,11.7-.3,26.2-.3S612.9,429.5,612.9,429.7Z"/></g><g class="b"><path d="M612.9,432.3c0,.1-11.7.3-26.2.3s-26.2-.1-26.2-.3,11.7-.3,26.2-.3S612.9,432.1,612.9,432.3Z"/></g><g class="b"><path d="M612.9,434.9c0,.1-11.7.3-26.2.3s-26.2-.1-26.2-.3,11.7-.3,26.2-.3S612.9,434.7,612.9,434.9Z"/></g><path class="m" d="M581.4,425.3l.8,11.4h7.5l.4-11.4Z"/><rect class="c" width="52.7" height="11.4" transform="translate(622.8 390.8)"/><path class="m" d="M643.7,390.8l.9,11.4h7.5l.3-11.4Z"/><rect class="k" width="52.7" height="11.4" transform="translate(610.1 390.8)"/><path class="c" d="M662.6,392.5c0,.1-11.7.3-26.2.3s-26.2-.1-26.2-.3,11.7-.3,26.2-.3C650.8,392.3,662.6,392.4,662.6,392.5Z"/><path class="c" d="M662.5,395.2c0,.1-11.7.3-26.2.3s-26.2-.1-26.2-.3,11.7-.3,26.2-.3S662.5,395,662.5,395.2Z"/><path class="c" d="M662.5,397.8c0,.1-11.7.3-26.2.3s-26.2-.1-26.2-.3,11.7-.3,26.2-.3S662.5,397.6,662.5,397.8Z"/><path class="c" d="M662.5,400.4c0,.1-11.7.3-26.2.3s-26.2-.1-26.2-.3,11.7-.3,26.2-.3S662.5,400.2,662.5,400.4Z"/><path class="o" d="M631,390.8l.8,11.4h7.5l.4-11.4Z"/><rect class="c" width="52.7" height="11.4" transform="translate(616.4 379.5)"/><path class="m" d="M637.3,379.5l.9,11.4h7.4l.4-11.4Z"/><rect class="k" width="52.7" height="11.4" transform="translate(603.7 379.5)"/><path class="c" d="M656.2,381.3c0,.2-11.7.3-26.2.3s-26.2-.1-26.2-.3c0-.1,11.7-.3,26.2-.3S656.2,381.1,656.2,381.3Z"/><path class="c" d="M656.1,383.9c0,.1-11.7.3-26.2.3s-26.2-.1-26.2-.3,11.7-.3,26.2-.3S656.1,383.8,656.1,383.9Z"/><path class="c" d="M656.1,386.5c0,.1-11.7.3-26.2.3s-26.2-.1-26.2-.3,11.7-.3,26.2-.3S656.1,386.3,656.1,386.5Z"/><path class="c" d="M656.1,389.1c0,.2-11.7.3-26.2.3s-26.2-.1-26.2-.3c0-.1,11.7-.3,26.2-.3S656.1,389,656.1,389.1Z"/><path class="o" d="M624.6,379.5l.8,11.4h7.5l.4-11.4Z"/></g></svg>