<svg xmlns="http://www.w3.org/2000/svg" width="684.9" height="386.302" viewBox="0 0 684.9 386.302"><defs><style>.a{fill:#e0e0e0;}.b{fill:#263238;}.c{fill:#fff;}.d{fill:#455a64;}.e{fill:#fafafa;}.f{fill:#06826a;}.g{opacity:0.3;}.h{fill:#ff725e;}.i{fill:#ff3600;}.j{fill:#ffbe9d;}.k{fill:#eb996e;}.l{opacity:0.6;}.m{fill:#414547;}.n{opacity:0.5;}</style></defs><g transform="translate(-30.5 -47.5)"><path class="a" d="M592.3,197.1a7.8,7.8,0,0,1,2.2-.3h.7l-.2.2c0-.8.1-1.4.2-1.4s.2.6.2,1.4v.2h-1A3.044,3.044,0,0,1,592.3,197.1Z"/><path class="a" d="M586.6,197.1a2.233,2.233,0,0,1,1.4-.3c.8,0,1.4.1,1.4.3s-.6.3-1.4.3S586.6,197.3,586.6,197.1Z"/><path class="a" d="M580.9,197.1a2.233,2.233,0,0,1,1.4-.3c.8,0,1.4.1,1.4.3s-.6.3-1.4.3S580.9,197.3,580.9,197.1Z"/><path class="a" d="M575.1,197.1a2.233,2.233,0,0,1,1.4-.3c.8,0,1.4.1,1.4.3s-.6.3-1.4.3S575.1,197.3,575.1,197.1Z"/><path class="a" d="M569.4,197.1a2.233,2.233,0,0,1,1.4-.3c.8,0,1.4.1,1.4.3s-.6.3-1.4.3S569.4,197.3,569.4,197.1Z"/><path class="a" d="M563.7,197.1a2.516,2.516,0,0,1,1.4-.3c.7,0,1.4.1,1.4.3s-.6.3-1.4.3S563.7,197.3,563.7,197.1Z"/><path class="a" d="M557.9,197.1a2.233,2.233,0,0,1,1.4-.3c.8,0,1.4.1,1.4.3s-.7.3-1.4.3S557.9,197.3,557.9,197.1Z"/><path class="a" d="M552.2,197.1a2.233,2.233,0,0,1,1.4-.3c.8,0,1.4.1,1.4.3s-.6.3-1.4.3S552.2,197.3,552.2,197.1Z"/><path class="a" d="M546.5,197.1a2.233,2.233,0,0,1,1.4-.3c.8,0,1.4.1,1.4.3s-.6.3-1.4.3S546.5,197.3,546.5,197.1Z"/><path class="a" d="M540.7,197.1a2.233,2.233,0,0,1,1.4-.3c.8,0,1.4.1,1.4.3s-.6.3-1.4.3S540.7,197.3,540.7,197.1Z"/><path class="a" d="M535,197.1a2.233,2.233,0,0,1,1.4-.3c.8,0,1.4.1,1.4.3s-.6.3-1.4.3S535,197.3,535,197.1Z"/><path class="a" d="M529.2,197.1a2.233,2.233,0,0,1,1.4-.3c.8,0,1.4.1,1.4.3s-.6.3-1.4.3S529.2,197.3,529.2,197.1Z"/><path class="a" d="M523.5,197.1a2.516,2.516,0,0,1,1.4-.3c.7,0,1.4.1,1.4.3s-.6.3-1.4.3S523.5,197.3,523.5,197.1Z"/><path class="a" d="M517.8,197.1a2.233,2.233,0,0,1,1.4-.3c.8,0,1.4.1,1.4.3s-.7.3-1.4.3S517.8,197.3,517.8,197.1Z"/><path class="a" d="M512,197.1a2.516,2.516,0,0,1,1.4-.3c.7,0,1.4.1,1.4.3s-.6.3-1.4.3S512,197.3,512,197.1Z"/><path class="a" d="M506.3,197.1a2.233,2.233,0,0,1,1.4-.3c.8,0,1.4.1,1.4.3s-.6.3-1.4.3S506.3,197.3,506.3,197.1Z"/><path class="a" d="M500.6,197.1a2.233,2.233,0,0,1,1.4-.3c.8,0,1.4.1,1.4.3s-.6.3-1.4.3S500.6,197.3,500.6,197.1Z"/><path class="a" d="M494.8,197.1a2.233,2.233,0,0,1,1.4-.3c.8,0,1.4.1,1.4.3s-.6.3-1.4.3S494.8,197.3,494.8,197.1Z"/><path class="a" d="M493,193.2a2.233,2.233,0,0,1,.3,1.4c0,.8-.1,1.4-.3,1.4s-.3-.6-.3-1.4A2.233,2.233,0,0,1,493,193.2Z"/><path class="a" d="M493,187.5a2.233,2.233,0,0,1,.3,1.4c0,.8-.1,1.4-.3,1.4s-.3-.6-.3-1.4A2.233,2.233,0,0,1,493,187.5Z"/><path class="a" d="M493,181.7a2.233,2.233,0,0,1,.3,1.4c0,.8-.1,1.4-.3,1.4s-.3-.6-.3-1.4A2.233,2.233,0,0,1,493,181.7Z"/><path class="a" d="M493,176a2.233,2.233,0,0,1,.3,1.4c0,.8-.1,1.4-.3,1.4s-.3-.6-.3-1.4A2.233,2.233,0,0,1,493,176Z"/><path class="a" d="M493,170.3a2.233,2.233,0,0,1,.3,1.4c0,.8-.1,1.4-.3,1.4s-.3-.6-.3-1.4A2.233,2.233,0,0,1,493,170.3Z"/><path class="a" d="M493,164.5a2.233,2.233,0,0,1,.3,1.4c0,.8-.1,1.4-.3,1.4s-.3-.6-.3-1.4A2.233,2.233,0,0,1,493,164.5Z"/><path class="a" d="M493,158.8a2.233,2.233,0,0,1,.3,1.4c0,.8-.1,1.4-.3,1.4s-.3-.6-.3-1.4A2.233,2.233,0,0,1,493,158.8Z"/><path class="a" d="M493,153.1a2.233,2.233,0,0,1,.3,1.4c0,.8-.1,1.4-.3,1.4s-.3-.6-.3-1.4A2.233,2.233,0,0,1,493,153.1Z"/><path class="a" d="M493,147.3a2.233,2.233,0,0,1,.3,1.4c0,.8-.1,1.4-.3,1.4s-.3-.6-.3-1.4A2.233,2.233,0,0,1,493,147.3Z"/><path class="a" d="M493,141.6a2.233,2.233,0,0,1,.3,1.4c0,.8-.1,1.4-.3,1.4s-.3-.6-.3-1.4A2.233,2.233,0,0,1,493,141.6Z"/><path class="a" d="M493,135.9a2.233,2.233,0,0,1,.3,1.4c0,.8-.1,1.4-.3,1.4s-.3-.6-.3-1.4A2.233,2.233,0,0,1,493,135.9Z"/><path class="a" d="M493,130.1a2.233,2.233,0,0,1,.3,1.4c0,.8-.1,1.5-.3,1.5s-.3-.6-.3-1.4A2.692,2.692,0,0,1,493,130.1Z"/><path class="a" d="M493,124.4a2.233,2.233,0,0,1,.3,1.4c0,.8-.1,1.4-.3,1.4s-.3-.6-.3-1.4A2.233,2.233,0,0,1,493,124.4Z"/><path class="a" d="M493,118.6a2.516,2.516,0,0,1,.3,1.4c0,.7-.1,1.4-.3,1.4s-.3-.6-.3-1.4A2.233,2.233,0,0,1,493,118.6Z"/><path class="a" d="M493,112.9a2.233,2.233,0,0,1,.3,1.4c0,.8-.1,1.4-.3,1.4s-.3-.7-.3-1.4A2.516,2.516,0,0,1,493,112.9Z"/><path class="a" d="M493,107.2a2.516,2.516,0,0,1,.3,1.4c0,.7-.1,1.4-.3,1.4s-.3-.6-.3-1.4A2.233,2.233,0,0,1,493,107.2Z"/><path class="a" d="M493,101.4a2.233,2.233,0,0,1,.3,1.4c0,.8-.1,1.4-.3,1.4s-.3-.7-.3-1.4A2.516,2.516,0,0,1,493,101.4Z"/><path class="a" d="M493,95.7a2.233,2.233,0,0,1,.3,1.4c0,.8-.1,1.4-.3,1.4s-.3-.6-.3-1.4A2.233,2.233,0,0,1,493,95.7Z"/><path class="a" d="M498.1,95a2.233,2.233,0,0,1-1.4.3c-.8,0-1.4-.1-1.4-.3s.6-.3,1.4-.3S498.1,94.8,498.1,95Z"/><path class="a" d="M503.8,95a2.233,2.233,0,0,1-1.4.3c-.8,0-1.4-.1-1.4-.3s.6-.3,1.4-.3S503.8,94.8,503.8,95Z"/><path class="a" d="M509.5,95a2.233,2.233,0,0,1-1.4.3c-.8,0-1.4-.1-1.4-.3s.6-.3,1.4-.3S509.5,94.8,509.5,95Z"/><ellipse class="a" cx="1.4" cy="0.3" rx="1.4" ry="0.3" transform="translate(512.4 94.7)"/><path class="a" d="M521,95a2.233,2.233,0,0,1-1.4.3c-.8,0-1.4-.1-1.4-.3s.6-.3,1.4-.3S521,94.8,521,95Z"/><path class="a" d="M526.7,95a2.233,2.233,0,0,1-1.4.3c-.8,0-1.4-.1-1.4-.3s.6-.3,1.4-.3S526.7,94.8,526.7,95Z"/><path class="a" d="M532.5,95a2.233,2.233,0,0,1-1.4.3c-.8,0-1.4-.1-1.4-.3s.6-.3,1.4-.3S532.5,94.8,532.5,95Z"/><path class="a" d="M538.2,95a2.233,2.233,0,0,1-1.4.3c-.8,0-1.4-.1-1.4-.3s.6-.3,1.4-.3S538.2,94.8,538.2,95Z"/><path class="a" d="M544,95a2.516,2.516,0,0,1-1.4.3c-.7,0-1.4-.1-1.4-.3s.6-.3,1.4-.3S544,94.8,544,95Z"/><path class="a" d="M549.7,95a2.233,2.233,0,0,1-1.4.3c-.8,0-1.4-.1-1.4-.3s.6-.3,1.4-.3S549.7,94.8,549.7,95Z"/><path class="a" d="M555.4,95a2.516,2.516,0,0,1-1.4.3c-.7,0-1.4-.1-1.4-.3s.6-.3,1.4-.3S555.4,94.8,555.4,95Z"/><path class="a" d="M561.2,95a2.233,2.233,0,0,1-1.4.3c-.8,0-1.4-.1-1.4-.3s.7-.3,1.4-.3S561.2,94.8,561.2,95Z"/><path class="a" d="M566.9,95a2.233,2.233,0,0,1-1.4.3A2.692,2.692,0,0,1,564,95a2.233,2.233,0,0,1,1.4-.3C566.2,94.7,566.9,94.8,566.9,95Z"/><path class="a" d="M572.6,95a2.233,2.233,0,0,1-1.4.3c-.8,0-1.4-.1-1.4-.3s.6-.3,1.4-.3S572.6,94.8,572.6,95Z"/><path class="a" d="M578.4,95a2.233,2.233,0,0,1-1.4.3c-.8,0-1.4-.1-1.4-.3s.6-.3,1.4-.3S578.4,94.8,578.4,95Z"/><path class="a" d="M584.1,95a2.233,2.233,0,0,1-1.4.3c-.8,0-1.4-.1-1.4-.3s.6-.3,1.4-.3S584.1,94.8,584.1,95Z"/><path class="a" d="M589.8,95a3.417,3.417,0,0,1-2.8,0,2.233,2.233,0,0,1,1.4-.3C589.2,94.7,589.8,94.8,589.8,95Z"/><path class="a" d="M595.2,95.4c-.1,0-.1-.1-.2-.4l.2.2a4.1,4.1,0,0,1-1.1.1c-.8,0-1.4-.1-1.4-.3s.6-.3,1.4-.3a4.1,4.1,0,0,1,1.1.1h.2v.1C595.3,95.2,595.3,95.4,595.2,95.4Z"/><path class="a" d="M595.2,101.1a2.234,2.234,0,0,1-.3-1.4c0-.8.1-1.4.3-1.4s.3.7.3,1.4A2.516,2.516,0,0,1,595.2,101.1Z"/><path class="a" d="M595.2,106.8a2.234,2.234,0,0,1-.3-1.4c0-.8.1-1.4.3-1.4s.3.6.3,1.4A2.234,2.234,0,0,1,595.2,106.8Z"/><path class="a" d="M595.2,112.6a2.234,2.234,0,0,1-.3-1.4c0-.8.1-1.4.3-1.4s.3.6.3,1.4A2.234,2.234,0,0,1,595.2,112.6Z"/><path class="a" d="M595.2,118.3a2.234,2.234,0,0,1-.3-1.4c0-.8.1-1.4.3-1.4s.3.6.3,1.4A2.234,2.234,0,0,1,595.2,118.3Z"/><path class="a" d="M595.2,124a2.234,2.234,0,0,1-.3-1.4c0-.8.1-1.4.3-1.4s.3.6.3,1.4A2.234,2.234,0,0,1,595.2,124Z"/><path class="a" d="M595.2,129.8a2.234,2.234,0,0,1-.3-1.4c0-.8.1-1.4.3-1.4s.3.6.3,1.4A2.234,2.234,0,0,1,595.2,129.8Z"/><path class="a" d="M595.2,135.5a2.234,2.234,0,0,1-.3-1.4c0-.8.1-1.4.3-1.4s.3.6.3,1.4A2.234,2.234,0,0,1,595.2,135.5Z"/><path class="a" d="M595.2,141.2a2.234,2.234,0,0,1-.3-1.4c0-.8.1-1.4.3-1.4s.3.6.3,1.4A2.234,2.234,0,0,1,595.2,141.2Z"/><path class="a" d="M595.2,147a2.234,2.234,0,0,1-.3-1.4c0-.8.1-1.4.3-1.4s.3.6.3,1.4A2.234,2.234,0,0,1,595.2,147Z"/><path class="a" d="M595.2,152.7a2.234,2.234,0,0,1-.3-1.4c0-.8.1-1.4.3-1.4s.3.6.3,1.4A2.234,2.234,0,0,1,595.2,152.7Z"/><path class="a" d="M595.2,158.4a2.234,2.234,0,0,1-.3-1.4c0-.8.1-1.4.3-1.4s.3.6.3,1.4A2.234,2.234,0,0,1,595.2,158.4Z"/><path class="a" d="M595.2,164.2a2.234,2.234,0,0,1-.3-1.4c0-.8.1-1.4.3-1.4s.3.6.3,1.4A2.234,2.234,0,0,1,595.2,164.2Z"/><path class="a" d="M595.2,169.9a2.234,2.234,0,0,1-.3-1.4c0-.8.1-1.4.3-1.4s.3.6.3,1.4A2.234,2.234,0,0,1,595.2,169.9Z"/><path class="a" d="M595.2,175.6a2.234,2.234,0,0,1-.3-1.4c0-.8.1-1.4.3-1.4s.3.6.3,1.4A2.234,2.234,0,0,1,595.2,175.6Z"/><path class="a" d="M595.2,181.4a2.234,2.234,0,0,1-.3-1.4c0-.8.1-1.4.3-1.4s.3.6.3,1.4A2.234,2.234,0,0,1,595.2,181.4Z"/><path class="a" d="M595.2,187.1a2.234,2.234,0,0,1-.3-1.4c0-.8.1-1.4.3-1.4s.3.6.3,1.4A2.234,2.234,0,0,1,595.2,187.1Z"/><path class="a" d="M595.2,192.9a2.234,2.234,0,0,1-.3-1.4c0-.8.1-1.4.3-1.4s.3.6.3,1.4A2.234,2.234,0,0,1,595.2,192.9Z"/><rect class="a" width="7.6" height="7.6" transform="translate(591.4 192.3)"/><rect class="a" width="7.6" height="7.6" transform="translate(489.3 193.4)"/><rect class="a" width="7.6" height="7.6" transform="translate(591.4 90.5)"/><rect class="a" width="7.6" height="7.6" transform="translate(489.3 91.2)"/><path class="a" d="M184.6,154.1a7.613,7.613,0,0,1,2.1-.3h.7l-.2.2c0-.8.1-1.4.2-1.4s.2.6.2,1.4v.2h-1A2.805,2.805,0,0,1,184.6,154.1Z"/><path class="a" d="M178.9,154.1a2.233,2.233,0,0,1,1.4-.3c.8,0,1.4.1,1.4.3s-.6.3-1.4.3S178.9,154.3,178.9,154.1Z"/><path class="a" d="M173.2,154.1a2.233,2.233,0,0,1,1.4-.3c.8,0,1.4.1,1.4.3s-.6.3-1.4.3S173.2,154.3,173.2,154.1Z"/><path class="a" d="M167.4,154.1a2.233,2.233,0,0,1,1.4-.3c.8,0,1.4.1,1.4.3s-.6.3-1.4.3S167.4,154.3,167.4,154.1Z"/><path class="a" d="M161.7,154.1a2.233,2.233,0,0,1,1.4-.3c.8,0,1.4.1,1.4.3s-.6.3-1.4.3S161.7,154.3,161.7,154.1Z"/><path class="a" d="M156,154.1a2.233,2.233,0,0,1,1.4-.3c.8,0,1.4.1,1.4.3s-.6.3-1.4.3S156,154.3,156,154.1Z"/><path class="a" d="M150.2,154.1a2.233,2.233,0,0,1,1.4-.3c.8,0,1.4.1,1.4.3s-.6.3-1.4.3S150.2,154.3,150.2,154.1Z"/><path class="a" d="M144.5,154.1a2.233,2.233,0,0,1,1.4-.3c.8,0,1.4.1,1.4.3s-.6.3-1.4.3S144.5,154.3,144.5,154.1Z"/><path class="a" d="M138.8,154.1a2.233,2.233,0,0,1,1.4-.3c.8,0,1.4.1,1.4.3s-.6.3-1.4.3S138.8,154.3,138.8,154.1Z"/><path class="a" d="M133,154.1a2.233,2.233,0,0,1,1.4-.3c.8,0,1.4.1,1.4.3s-.6.3-1.4.3S133,154.3,133,154.1Z"/><path class="a" d="M127.3,154.1a2.233,2.233,0,0,1,1.4-.3c.8,0,1.4.1,1.4.3s-.6.3-1.4.3S127.3,154.3,127.3,154.1Z"/><path class="a" d="M121.6,154.1a2.233,2.233,0,0,1,1.4-.3c.8,0,1.4.1,1.4.3s-.6.3-1.4.3S121.6,154.3,121.6,154.1Z"/><path class="a" d="M115.8,154.1a2.233,2.233,0,0,1,1.4-.3c.8,0,1.4.1,1.4.3s-.6.3-1.4.3S115.8,154.3,115.8,154.1Z"/><path class="a" d="M110.1,154.1a2.233,2.233,0,0,1,1.4-.3c.8,0,1.4.1,1.4.3s-.6.3-1.4.3S110.1,154.3,110.1,154.1Z"/><path class="a" d="M104.4,154.1a2.233,2.233,0,0,1,1.4-.3c.8,0,1.4.1,1.4.3s-.6.3-1.4.3S104.4,154.3,104.4,154.1Z"/><path class="a" d="M98.6,154.1a2.233,2.233,0,0,1,1.4-.3c.8,0,1.4.1,1.4.3s-.6.3-1.4.3S98.6,154.3,98.6,154.1Z"/><path class="a" d="M92.9,154.1a2.516,2.516,0,0,1,1.4-.3c.7,0,1.4.1,1.4.3s-.6.3-1.4.3S92.9,154.3,92.9,154.1Z"/><path class="a" d="M87.2,154.1a2.233,2.233,0,0,1,1.4-.3c.8,0,1.4.1,1.4.3s-.7.3-1.4.3S87.2,154.3,87.2,154.1Z"/><path class="a" d="M85.4,150.2a2.233,2.233,0,0,1,.3,1.4c0,.8-.1,1.4-.3,1.4s-.3-.6-.3-1.4S85.2,150.2,85.4,150.2Z"/><path class="a" d="M85.4,144.4a2.233,2.233,0,0,1,.3,1.4c0,.8-.1,1.4-.3,1.4s-.3-.6-.3-1.4S85.2,144.4,85.4,144.4Z"/><path class="a" d="M85.4,138.7a2.233,2.233,0,0,1,.3,1.4c0,.8-.1,1.4-.3,1.4s-.3-.6-.3-1.4S85.2,138.7,85.4,138.7Z"/><path class="a" d="M85.4,133a2.233,2.233,0,0,1,.3,1.4c0,.8-.1,1.4-.3,1.4s-.3-.6-.3-1.4S85.2,133,85.4,133Z"/><path class="a" d="M85.4,127.3a2.233,2.233,0,0,1,.3,1.4c0,.8-.1,1.4-.3,1.4s-.3-.6-.3-1.4S85.2,127.3,85.4,127.3Z"/><path class="a" d="M85.4,121.5a2.233,2.233,0,0,1,.3,1.4c0,.8-.1,1.4-.3,1.4s-.3-.6-.3-1.4S85.2,121.5,85.4,121.5Z"/><path class="a" d="M85.4,115.8a2.233,2.233,0,0,1,.3,1.4c0,.8-.1,1.4-.3,1.4s-.3-.6-.3-1.4S85.2,115.8,85.4,115.8Z"/><path class="a" d="M85.4,110a2.233,2.233,0,0,1,.3,1.4c0,.8-.1,1.4-.3,1.4s-.3-.6-.3-1.4S85.2,110,85.4,110Z"/><path class="a" d="M85.4,104.3a2.233,2.233,0,0,1,.3,1.4c0,.8-.1,1.4-.3,1.4s-.3-.6-.3-1.4S85.2,104.3,85.4,104.3Z"/><path class="a" d="M85.4,98.6a2.233,2.233,0,0,1,.3,1.4c0,.8-.1,1.4-.3,1.4s-.3-.6-.3-1.4S85.2,98.6,85.4,98.6Z"/><path class="a" d="M85.4,92.8a2.516,2.516,0,0,1,.3,1.4c0,.7-.1,1.4-.3,1.4s-.3-.6-.3-1.4S85.2,92.8,85.4,92.8Z"/><path class="a" d="M85.4,87.1a2.233,2.233,0,0,1,.3,1.4,2.692,2.692,0,0,1-.3,1.5,2.516,2.516,0,0,1-.3-1.4C85.1,87.9,85.2,87.1,85.4,87.1Z"/><path class="a" d="M85.4,81.4a2.516,2.516,0,0,1,.3,1.4c0,.7-.1,1.4-.3,1.4s-.3-.6-.3-1.4S85.2,81.4,85.4,81.4Z"/><path class="a" d="M85.4,75.6a2.233,2.233,0,0,1,.3,1.4c0,.8-.1,1.4-.3,1.4s-.3-.7-.3-1.4S85.2,75.6,85.4,75.6Z"/><path class="a" d="M85.4,69.9a2.233,2.233,0,0,1,.3,1.4c0,.8-.1,1.4-.3,1.4s-.3-.6-.3-1.4S85.2,69.9,85.4,69.9Z"/><path class="a" d="M85.4,64.2a3.417,3.417,0,0,1,0,2.8,2.233,2.233,0,0,1-.3-1.4C85.1,64.8,85.2,64.2,85.4,64.2Z"/><path class="a" d="M85.4,58.4a2.233,2.233,0,0,1,.3,1.4c0,.8-.1,1.4-.3,1.4s-.3-.6-.3-1.4S85.2,58.4,85.4,58.4Z"/><path class="a" d="M85.4,52.7a2.233,2.233,0,0,1,.3,1.4c0,.8-.1,1.4-.3,1.4s-.3-.6-.3-1.4S85.2,52.7,85.4,52.7Z"/><path class="a" d="M90.4,52a2.233,2.233,0,0,1-1.4.3c-.8,0-1.4-.1-1.4-.3s.7-.3,1.4-.3S90.4,51.8,90.4,52Z"/><path class="a" d="M96.1,52a2.233,2.233,0,0,1-1.4.3c-.8,0-1.4-.1-1.4-.3s.6-.3,1.4-.3S96.1,51.8,96.1,52Z"/><path class="a" d="M101.8,52A3.417,3.417,0,0,1,99,52a2.233,2.233,0,0,1,1.4-.3C101.2,51.7,101.8,51.8,101.8,52Z"/><ellipse class="a" cx="1.4" cy="0.3" rx="1.4" ry="0.3" transform="translate(104.8 51.7)"/><path class="a" d="M113.3,52a2.233,2.233,0,0,1-1.4.3c-.8,0-1.4-.1-1.4-.3s.6-.3,1.4-.3S113.3,51.8,113.3,52Z"/><path class="a" d="M119.1,52a2.233,2.233,0,0,1-1.4.3c-.8,0-1.4-.1-1.4-.3s.6-.3,1.4-.3S119.1,51.8,119.1,52Z"/><path class="a" d="M124.8,52a2.516,2.516,0,0,1-1.4.3c-.7,0-1.4-.1-1.4-.3s.6-.3,1.4-.3S124.8,51.8,124.8,52Z"/><path class="a" d="M130.5,52a2.233,2.233,0,0,1-1.4.3c-.8,0-1.4-.1-1.4-.3s.6-.3,1.4-.3S130.5,51.8,130.5,52Z"/><path class="a" d="M136.3,52a2.233,2.233,0,0,1-1.4.3c-.8,0-1.4-.1-1.4-.3s.6-.3,1.4-.3S136.3,51.8,136.3,52Z"/><path class="a" d="M142,52a2.233,2.233,0,0,1-1.4.3c-.8,0-1.4-.1-1.4-.3s.6-.3,1.4-.3S142,51.8,142,52Z"/><path class="a" d="M147.7,52a2.233,2.233,0,0,1-1.4.3c-.8,0-1.4-.1-1.4-.3s.6-.3,1.4-.3S147.7,51.8,147.7,52Z"/><path class="a" d="M153.5,52a2.233,2.233,0,0,1-1.4.3c-.8,0-1.4-.1-1.4-.3s.6-.3,1.4-.3S153.5,51.8,153.5,52Z"/><path class="a" d="M159.2,52a2.233,2.233,0,0,1-1.4.3c-.8,0-1.4-.1-1.4-.3s.6-.3,1.4-.3S159.2,51.8,159.2,52Z"/><path class="a" d="M164.9,52a2.233,2.233,0,0,1-1.4.3c-.8,0-1.4-.1-1.4-.3s.6-.3,1.4-.3S164.9,51.8,164.9,52Z"/><path class="a" d="M170.7,52a2.233,2.233,0,0,1-1.4.3c-.8,0-1.4-.1-1.4-.3s.6-.3,1.4-.3S170.7,51.8,170.7,52Z"/><path class="a" d="M176.4,52a2.233,2.233,0,0,1-1.4.3c-.8,0-1.4-.1-1.4-.3s.6-.3,1.4-.3S176.4,51.8,176.4,52Z"/><path class="a" d="M182.1,52a2.233,2.233,0,0,1-1.4.3c-.8,0-1.4-.1-1.4-.3s.6-.3,1.4-.3S182.1,51.8,182.1,52Z"/><path class="a" d="M187.5,52.3c-.1,0-.1-.1-.2-.4l.2.2a4.1,4.1,0,0,1-1.1.1c-.8,0-1.4-.1-1.4-.3s.6-.3,1.4-.3a4.1,4.1,0,0,1,1.1.1h.2v.1C187.6,52.2,187.6,52.3,187.5,52.3Z"/><path class="a" d="M187.5,58.1a2.233,2.233,0,0,1-.3-1.4c0-.8.1-1.4.3-1.4s.3.6.3,1.4S187.7,58.1,187.5,58.1Z"/><path class="a" d="M187.5,63.8a2.233,2.233,0,0,1-.3-1.4c0-.8.1-1.4.3-1.4s.3.6.3,1.4S187.7,63.8,187.5,63.8Z"/><path class="a" d="M187.5,69.6a2.516,2.516,0,0,1-.3-1.4c0-.7.1-1.4.3-1.4s.3.6.3,1.4S187.7,69.6,187.5,69.6Z"/><path class="a" d="M187.5,75.3a2.233,2.233,0,0,1-.3-1.4c0-.8.1-1.4.3-1.4s.3.7.3,1.4S187.7,75.3,187.5,75.3Z"/><path class="a" d="M187.5,81a2.233,2.233,0,0,1-.3-1.4c0-.8.1-1.4.3-1.4s.3.6.3,1.4S187.7,81,187.5,81Z"/><path class="a" d="M187.5,86.8a2.233,2.233,0,0,1-.3-1.4c0-.8.1-1.4.3-1.4s.3.6.3,1.4S187.7,86.8,187.5,86.8Z"/><path class="a" d="M187.5,92.5a2.233,2.233,0,0,1-.3-1.4c0-.8.1-1.4.3-1.4s.3.6.3,1.4S187.7,92.5,187.5,92.5Z"/><path class="a" d="M187.5,98.2a2.233,2.233,0,0,1-.3-1.4c0-.8.1-1.4.3-1.4s.3.6.3,1.4S187.7,98.2,187.5,98.2Z"/><path class="a" d="M187.5,104a2.233,2.233,0,0,1-.3-1.4c0-.8.1-1.4.3-1.4s.3.6.3,1.4S187.7,104,187.5,104Z"/><path class="a" d="M187.5,109.7a2.516,2.516,0,0,1-.3-1.4c0-.7.1-1.4.3-1.4s.3.6.3,1.4S187.7,109.7,187.5,109.7Z"/><path class="a" d="M187.5,115.4a2.233,2.233,0,0,1-.3-1.4c0-.8.1-1.4.3-1.4s.3.6.3,1.4S187.7,115.4,187.5,115.4Z"/><path class="a" d="M187.5,121.2a2.516,2.516,0,0,1-.3-1.4c0-.7.1-1.4.3-1.4s.3.6.3,1.4S187.7,121.2,187.5,121.2Z"/><path class="a" d="M187.5,126.9a2.233,2.233,0,0,1-.3-1.4c0-.8.1-1.4.3-1.4s.3.7.3,1.4S187.7,126.9,187.5,126.9Z"/><path class="a" d="M187.5,132.6a2.233,2.233,0,0,1-.3-1.4c0-.8.1-1.4.3-1.4s.3.6.3,1.4S187.7,132.6,187.5,132.6Z"/><path class="a" d="M187.5,138.4a2.233,2.233,0,0,1-.3-1.4c0-.8.1-1.4.3-1.4s.3.6.3,1.4S187.7,138.4,187.5,138.4Z"/><path class="a" d="M187.5,144.1a2.233,2.233,0,0,1-.3-1.4c0-.8.1-1.4.3-1.4s.3.6.3,1.4S187.7,144.1,187.5,144.1Z"/><path class="a" d="M187.5,149.8a2.233,2.233,0,0,1-.3-1.4c0-.8.1-1.4.3-1.4s.3.6.3,1.4S187.7,149.8,187.5,149.8Z"/><rect class="a" width="7.6" height="7.6" transform="translate(183.7 149.3)"/><rect class="a" width="7.6" height="7.6" transform="translate(81.6 150.4)"/><rect class="a" width="7.6" height="7.6" transform="translate(183.7 47.5)"/><rect class="a" width="7.6" height="7.6" transform="translate(81.6 48.2)"/><path class="a" d="M710.3,278.3a3.21,3.21,0,0,1,1.7-.2h.6l-.2.2c0-.6.1-1.1.2-1.1s.2.5.2,1.1v.2H712A4.415,4.415,0,0,1,710.3,278.3Z"/><path class="a" d="M705.8,278.3c0-.1.5-.2,1.1-.2s1.1.1,1.1.2-.5.2-1.1.2S705.8,278.4,705.8,278.3Z"/><path class="a" d="M701.3,278.3c0-.1.5-.2,1.1-.2s1.1.1,1.1.2-.5.2-1.1.2S701.3,278.4,701.3,278.3Z"/><path class="a" d="M696.9,278.3c0-.1.5-.2,1.1-.2s1.1.1,1.1.2-.5.2-1.1.2S696.9,278.4,696.9,278.3Z"/><path class="a" d="M692.4,278.3c0-.1.5-.2,1.1-.2s1.1.1,1.1.2-.5.2-1.1.2S692.4,278.4,692.4,278.3Z"/><path class="a" d="M688,278.3c0-.1.5-.2,1.1-.2s1.1.1,1.1.2-.5.2-1.1.2S688,278.4,688,278.3Z"/><path class="a" d="M683.5,278.3c0-.1.5-.2,1.1-.2s1.1.1,1.1.2-.5.2-1.1.2S683.5,278.4,683.5,278.3Z"/><path class="a" d="M679,278.3c0-.1.5-.2,1.1-.2s1.1.1,1.1.2-.5.2-1.1.2S679,278.4,679,278.3Z"/><path class="a" d="M674.6,278.3c0-.1.5-.2,1.1-.2s1.1.1,1.1.2-.5.2-1.1.2S674.6,278.4,674.6,278.3Z"/><path class="a" d="M670.1,278.3c0-.1.5-.2,1.1-.2s1.1.1,1.1.2-.5.2-1.1.2S670.1,278.4,670.1,278.3Z"/><path class="a" d="M665.7,278.3c0-.1.5-.2,1.1-.2s1.1.1,1.1.2-.5.2-1.1.2S665.7,278.4,665.7,278.3Z"/><path class="a" d="M661.2,278.3c0-.1.5-.2,1.1-.2s1.1.1,1.1.2-.5.2-1.1.2S661.2,278.4,661.2,278.3Z"/><path class="a" d="M656.7,278.3c0-.1.5-.2,1.1-.2s1.1.1,1.1.2-.5.2-1.1.2S656.7,278.4,656.7,278.3Z"/><path class="a" d="M652.3,278.3c0-.1.5-.2,1.1-.2s1.1.1,1.1.2-.5.2-1.1.2S652.3,278.4,652.3,278.3Z"/><path class="a" d="M647.8,278.3c0-.1.5-.2,1.1-.2s1.1.1,1.1.2-.5.2-1.1.2S647.8,278.4,647.8,278.3Z"/><path class="a" d="M643.3,278.3c0-.1.5-.2,1.1-.2s1.1.1,1.1.2-.5.2-1.1.2S643.3,278.4,643.3,278.3Z"/><path class="a" d="M638.9,278.3c0-.1.5-.2,1.1-.2s1.1.1,1.1.2-.5.2-1.1.2S638.9,278.4,638.9,278.3Z"/><path class="a" d="M634.4,278.3c0-.1.5-.2,1.1-.2s1.1.1,1.1.2-.5.2-1.1.2S634.4,278.4,634.4,278.3Z"/><path class="a" d="M633,275.2c.1,0,.2.5.2,1.1s-.1,1.1-.2,1.1-.2-.5-.2-1.1S632.9,275.2,633,275.2Z"/><path class="a" d="M633,270.8c.1,0,.2.5.2,1.1s0,1.1-.2,1.1-.2-.5-.2-1.1S632.9,270.8,633,270.8Z"/><path class="a" d="M633,266.3c.1,0,.2.5.2,1.1s-.1,1.1-.2,1.1-.2-.5-.2-1.1S632.9,266.3,633,266.3Z"/><path class="a" d="M633,261.9c.1,0,.2.5.2,1.1s-.1,1.1-.2,1.1-.2-.5-.2-1.1S632.9,261.9,633,261.9Z"/><path class="a" d="M633,257.4c.1,0,.2.5.2,1.1s-.1,1.1-.2,1.1-.2-.5-.2-1.1S632.9,257.4,633,257.4Z"/><path class="a" d="M633,252.9c.1,0,.2.5.2,1.1s-.1,1.1-.2,1.1-.2-.5-.2-1.1S632.9,252.9,633,252.9Z"/><path class="a" d="M633,248.5c.1,0,.2.5.2,1.1s-.1,1.1-.2,1.1-.2-.5-.2-1.1S632.9,248.5,633,248.5Z"/><path class="a" d="M633,244c.1,0,.2.5.2,1.1s-.1,1.1-.2,1.1-.2-.5-.2-1.1S632.9,244,633,244Z"/><path class="a" d="M633,239.6c.1,0,.2.5.2,1.1s-.1,1.1-.2,1.1-.2-.5-.2-1.1S632.9,239.6,633,239.6Z"/><path class="a" d="M633,235.1c.1,0,.2.5.2,1.1s-.1,1.1-.2,1.1-.2-.5-.2-1.1S632.9,235.1,633,235.1Z"/><path class="a" d="M633,230.6c.1,0,.2.5.2,1.1s-.1,1.1-.2,1.1-.2-.5-.2-1.1S632.9,230.6,633,230.6Z"/><path class="a" d="M633,226.2c.1,0,.2.5.2,1.1s-.1,1.1-.2,1.1-.2-.5-.2-1.1S632.9,226.2,633,226.2Z"/><path class="a" d="M633,221.7c.1,0,.2.5.2,1.1s-.1,1.1-.2,1.1-.2-.5-.2-1.1S632.9,221.7,633,221.7Z"/><path class="a" d="M633,217.3c.1,0,.2.5.2,1.1s-.1,1.1-.2,1.1-.2-.5-.2-1.1S632.9,217.3,633,217.3Z"/><path class="a" d="M633,212.8c.1,0,.2.5.2,1.1s0,1.1-.2,1.1-.2-.5-.2-1.1S632.9,212.8,633,212.8Z"/><path class="a" d="M633,208.3c.1,0,.2.5.2,1.1s-.1,1.1-.2,1.1-.2-.5-.2-1.1S632.9,208.3,633,208.3Z"/><path class="a" d="M633,203.9c.1,0,.2.5.2,1.1s-.1,1.1-.2,1.1-.2-.5-.2-1.1S632.9,203.9,633,203.9Z"/><path class="a" d="M633,199.4c.1,0,.2.5.2,1.1s-.1,1.1-.2,1.1-.2-.5-.2-1.1S632.9,199.4,633,199.4Z"/><path class="a" d="M636.9,198.9c0,.1-.5.2-1.1.2s-1.1-.1-1.1-.2.5-.2,1.1-.2S636.9,198.8,636.9,198.9Z"/><path class="a" d="M641.4,198.9c0,.1-.5.2-1.1.2s-1.1-.1-1.1-.2.5-.2,1.1-.2S641.4,198.8,641.4,198.9Z"/><path class="a" d="M645.9,198.9c0,.1-.5.2-1.1.2s-1.1-.1-1.1-.2.5-.2,1.1-.2S645.9,198.8,645.9,198.9Z"/><path class="a" d="M650.3,198.9c0,.1-.5.2-1.1.2s-1.1-.1-1.1-.2.5-.2,1.1-.2S650.3,198.8,650.3,198.9Z"/><path class="a" d="M654.8,198.9c0,.1-.5.2-1.1.2s-1.1-.1-1.1-.2.5-.2,1.1-.2S654.8,198.8,654.8,198.9Z"/><path class="a" d="M659.2,198.9c0,.1-.5.2-1.1.2s-1.1-.1-1.1-.2.5-.2,1.1-.2S659.2,198.8,659.2,198.9Z"/><path class="a" d="M663.7,198.9c0,.1-.5.2-1.1.2s-1.1-.1-1.1-.2.5-.2,1.1-.2S663.7,198.8,663.7,198.9Z"/><path class="a" d="M668.2,198.9c0,.1-.5.2-1.1.2s-1.1-.1-1.1-.2.5-.2,1.1-.2S668.2,198.8,668.2,198.9Z"/><path class="a" d="M672.6,198.9c0,.1-.5.2-1.1.2s-1.1-.1-1.1-.2.5-.2,1.1-.2S672.6,198.8,672.6,198.9Z"/><path class="a" d="M677.1,198.9c0,.1-.5.2-1.1.2s-1.1-.1-1.1-.2.5-.2,1.1-.2S677.1,198.8,677.1,198.9Z"/><path class="a" d="M681.5,198.9c0,.1-.5.2-1.1.2s-1.1-.1-1.1-.2.5-.2,1.1-.2S681.5,198.8,681.5,198.9Z"/><path class="a" d="M686,198.9c0,.1-.5.2-1.1.2s-1.1-.1-1.1-.2.5-.2,1.1-.2S686,198.8,686,198.9Z"/><path class="a" d="M690.5,198.9c0,.1-.5.2-1.1.2s-1.1-.1-1.1-.2.5-.2,1.1-.2S690.5,198.8,690.5,198.9Z"/><path class="a" d="M694.9,198.9c0,.1-.5.2-1.1.2s-1.1-.1-1.1-.2.5-.2,1.1-.2S694.9,198.8,694.9,198.9Z"/><path class="a" d="M699.4,198.9c0,.1-.5.2-1.1.2s-1.1-.1-1.1-.2.5-.2,1.1-.2S699.4,198.8,699.4,198.9Z"/><path class="a" d="M703.8,198.9c0,.1-.5.2-1.1.2s-1.1-.1-1.1-.2.5-.2,1.1-.2S703.8,198.8,703.8,198.9Z"/><path class="a" d="M708.3,198.9c0,.1-.5.2-1.1.2s-1.1-.1-1.1-.2.5-.2,1.1-.2S708.3,198.8,708.3,198.9Z"/><path class="a" d="M712.5,199.1a.438.438,0,0,1-.1-.3l.1.1c-.3,0-.6.1-.8.1-.6,0-1.1-.1-1.1-.2s.5-.2,1.1-.2a1.949,1.949,0,0,1,.8.1h.1v.1A.438.438,0,0,1,712.5,199.1Z"/><ellipse class="a" cx="0.2" cy="1.1" rx="0.2" ry="1.1" transform="translate(712.3 201.4)"/><ellipse class="a" cx="0.2" cy="1.1" rx="0.2" ry="1.1" transform="translate(712.3 205.8)"/><ellipse class="a" cx="0.2" cy="1.1" rx="0.2" ry="1.1" transform="translate(712.3 210.3)"/><ellipse class="a" cx="0.2" cy="1.1" rx="0.2" ry="1.1" transform="translate(712.3 214.8)"/><path class="a" d="M712.5,221.4c-.1,0-.2-.5-.2-1.1s.1-1.1.2-1.1.2.5.2,1.1S712.6,221.4,712.5,221.4Z"/><path class="a" d="M712.5,225.9c-.1,0-.2-.5-.2-1.1s.1-1.1.2-1.1.2.5.2,1.1S712.6,225.9,712.5,225.9Z"/><path class="a" d="M712.5,230.4c-.1,0-.2-.5-.2-1.1s.1-1.1.2-1.1.2.5.2,1.1S712.6,230.4,712.5,230.4Z"/><path class="a" d="M712.5,234.8c-.1,0-.2-.5-.2-1.1s.1-1.1.2-1.1.2.5.2,1.1S712.6,234.8,712.5,234.8Z"/><ellipse class="a" cx="0.2" cy="1.1" rx="0.2" ry="1.1" transform="translate(712.3 237.1)"/><ellipse class="a" cx="0.2" cy="1.1" rx="0.2" ry="1.1" transform="translate(712.3 241.5)"/><ellipse class="a" cx="0.2" cy="1.1" rx="0.2" ry="1.1" transform="translate(712.3 246)"/><ellipse class="a" cx="0.2" cy="1.1" rx="0.2" ry="1.1" transform="translate(712.3 250.5)"/><ellipse class="a" cx="0.2" cy="1.1" rx="0.2" ry="1.1" transform="translate(712.3 254.9)"/><path class="a" d="M712.5,261.6c-.1,0-.2-.5-.2-1.1s.1-1.1.2-1.1.2.5.2,1.1S712.6,261.6,712.5,261.6Z"/><path class="a" d="M712.5,266c-.1,0-.2-.5-.2-1.1s.1-1.1.2-1.1.2.5.2,1.1S712.6,266,712.5,266Z"/><path class="a" d="M712.5,270.5c-.1,0-.2-.5-.2-1.1s.1-1.1.2-1.1.2.5.2,1.1S712.6,270.5,712.5,270.5Z"/><path class="a" d="M712.5,275c-.1,0-.2-.5-.2-1.1s.1-1.1.2-1.1.2.5.2,1.1S712.6,275,712.5,275Z"/><rect class="a" width="5.9" height="5.9" transform="translate(709.5 274.5)"/><rect class="a" width="5.9" height="5.9" transform="translate(630.1 275.4)"/><rect class="a" width="5.9" height="5.9" transform="translate(709.5 195.4)"/><rect class="a" width="5.9" height="5.9" transform="translate(630.1 195.9)"/><path class="b" d="M715.4,425c0,.1-153.3.3-342.4.3s-342.5-.1-342.5-.3,153.3-.3,342.5-.3S715.4,424.9,715.4,425Z"/><path class="b" d="M591.3,258.8h92.6a11.5,11.5,0,0,1,11.5,11.5V413.2a11.5,11.5,0,0,1-11.5,11.5H591.3a11.5,11.5,0,0,1-11.5-11.5V270.3A11.438,11.438,0,0,1,591.3,258.8Z"/><rect class="c" width="108.2" height="138.7" transform="translate(583.4 270.1)"/><path class="d" d="M642,416.4a4.375,4.375,0,0,1-4.4,4.4,4.4,4.4,0,1,1,4.4-4.4Z"/><path class="d" d="M621.1,263.5h33a.9.9,0,0,1,.9.9h0a.9.9,0,0,1-.9.9h-33a.9.9,0,0,1-.9-.9h0A.9.9,0,0,1,621.1,263.5Z"/><rect class="d" width="43.3" height="28.3" transform="translate(639.1 332.9)"/><path class="e" d="M645.3,338.5a1.7,1.7,0,1,1-1.7-1.7h0a1.628,1.628,0,0,1,1.7,1.7Z"/><path class="e" d="M680,340l-1.4-1.4-1.3,1.4v-4h2.8Zm-1.4-1.6h0l1.3,1.2V336h-2.5v3.6Z"/><path class="e" d="M669.1,337.6c0,.1-4.8.3-10.6.3s-10.6-.1-10.6-.3,4.8-.3,10.6-.3S669.1,337.4,669.1,337.6Z"/><path class="e" d="M656.1,340a37.47,37.47,0,0,1-8.2,0A37.467,37.467,0,0,1,656.1,340Z"/><path class="a" d="M593.4,274.5c-3.3.6-6.6,0-9.9.5h-.1v22.7c10.2,1,20.2,3.6,30.3,5.3,13.5,2.4,28,3.2,40.3-2.7,10-4.7,17.5-13.4,26.7-19.4a58.968,58.968,0,0,1,10.9-5.6v-5.2H599.2A7.426,7.426,0,0,1,593.4,274.5Zm29.6,3.9a7,7,0,1,1-7,7A6.957,6.957,0,0,1,623,278.4Z"/><path class="f" d="M654.1,300.3c-12.4,5.9-26.8,5.1-40.3,2.7-10.1-1.8-20.2-4.3-30.3-5.3v15.9H691.7V275.4a56.136,56.136,0,0,0-10.9,5.6C671.6,287,664,295.6,654.1,300.3Zm-20.1,9a.6.6,0,1,1,.6-.6.645.645,0,0,1-.6.6Zm3.8,0a.6.6,0,1,1,.6-.6.645.645,0,0,1-.6.6Zm3.8,0a.6.6,0,1,1,.6-.6A.645.645,0,0,1,641.6,309.3Z"/><g class="g"><path d="M654.1,300.3c-12.4,5.9-26.8,5.1-40.3,2.7-10.1-1.8-20.2-4.3-30.3-5.3v15.9H691.7V275.4a56.136,56.136,0,0,0-10.9,5.6C671.6,287,664,295.6,654.1,300.3Zm-20.1,9a.6.6,0,1,1,.6-.6.645.645,0,0,1-.6.6Zm3.8,0a.6.6,0,1,1,.6-.6.645.645,0,0,1-.6.6Zm3.8,0a.6.6,0,1,1,.6-.6A.645.645,0,0,1,641.6,309.3Z"/></g><path class="b" d="M634,308.1a.6.6,0,1,0,.6.6.645.645,0,0,0-.6-.6Z"/><path class="b" d="M637.8,308.1a.6.6,0,1,0,.6.6.645.645,0,0,0-.6-.6Z"/><path class="b" d="M641.6,308.1a.6.6,0,1,0,.6.6A.645.645,0,0,0,641.6,308.1Z"/><circle class="h" cx="7" cy="7" r="7" transform="translate(616 278.4)"/><circle class="i" cx="7" cy="7" r="7" transform="translate(616 278.4)"/><path class="i" d="M593.4,274.5c2.5-.5,5-2.2,5.8-4.4H583.4V275h.1C586.8,274.5,590.2,275.2,593.4,274.5Z"/><path class="b" d="M679.6,322.4c0,.1-18.8.3-42.1.3s-42.1-.1-42.1-.3,18.8-.3,42.1-.3S679.6,322.2,679.6,322.4Z"/><path class="b" d="M659.1,325.3c0,.1-10.1.3-22.5.3s-22.5-.1-22.5-.3,10.1-.3,22.5-.3S659.1,325.1,659.1,325.3Z"/><rect class="f" width="43.3" height="28.3" transform="translate(589.7 332.9)"/><path class="e" d="M596,338.5a1.7,1.7,0,1,1-1.7-1.7h0a1.685,1.685,0,0,1,1.7,1.7Z"/><path class="e" d="M630.7,340l-1.4-1.4-1.3,1.3v-4h2.8Zm-1.4-1.6h0l1.3,1.2V336h-2.5v3.6Z"/><path class="e" d="M619.8,337.6c0,.1-4.8.3-10.6.3s-10.6-.1-10.6-.3,4.8-.3,10.6-.3S619.8,337.4,619.8,337.6Z"/><path class="e" d="M606.7,340a37.47,37.47,0,0,1-8.2,0A37.467,37.467,0,0,1,606.7,340Z"/><path class="b" d="M633.1,365c0,.1-9.7.3-21.7.3s-21.7-.1-21.7-.3,9.7-.3,21.7-.3S633.1,364.9,633.1,365Z"/><path class="b" d="M633.1,367.6c0,.1-9.7.3-21.7.3s-21.7-.1-21.7-.3,9.7-.3,21.7-.3S633.1,367.5,633.1,367.6Z"/><path class="b" d="M612.3,370.2c0,.1-5.1.3-11.3.3s-11.3-.1-11.3-.3,5.1-.3,11.3-.3S612.3,370,612.3,370.2Z"/><rect class="f" width="43.3" height="28.3" transform="translate(589.7 375.1)"/><path class="e" d="M596,380.8a1.7,1.7,0,1,1-1.7-1.7h0A1.626,1.626,0,0,1,596,380.8Z"/><path class="e" d="M630.7,382.2l-1.4-1.4-1.3,1.4v-4h2.8Zm-1.4-1.6h0l1.3,1.2v-3.7h-2.5v3.6Z"/><path class="e" d="M619.8,379.8c0,.1-4.8.3-10.6.3s-10.6-.1-10.6-.3,4.8-.3,10.6-.3S619.8,379.7,619.8,379.8Z"/><path class="e" d="M606.7,382.2a37.47,37.47,0,0,1-8.2,0A37.463,37.463,0,0,1,606.7,382.2Z"/><path class="b" d="M633.1,407.3c0,.1-9.7.3-21.7.3s-21.7-.1-21.7-.3,9.7-.3,21.7-.3S633.1,407.1,633.1,407.3Z"/><rect class="d" width="43.3" height="28.3" transform="translate(640.2 375.1)"/><path class="e" d="M646.5,380.8a1.7,1.7,0,1,1-1.7-1.7h0A1.626,1.626,0,0,1,646.5,380.8Z"/><path class="e" d="M681.2,382.2l-1.4-1.4-1.3,1.4v-4h2.8Zm-1.4-1.6h0l1.3,1.2v-3.7h-2.5v3.6Z"/><path class="e" d="M670.3,379.8c0,.1-4.8.3-10.6.3s-10.7-.1-10.7-.3,4.8-.3,10.6-.3S670.3,379.7,670.3,379.8Z"/><path class="e" d="M657.2,382.2a37.47,37.47,0,0,1-8.2,0A37.463,37.463,0,0,1,657.2,382.2Z"/><path class="b" d="M683.6,407.3c0,.1-9.7.3-21.7.3s-21.7-.1-21.7-.3,9.7-.3,21.7-.3S683.6,407.1,683.6,407.3Z"/><path class="b" d="M683,365c0,.1-9.7.3-21.7.3s-21.7-.1-21.7-.3,9.7-.3,21.7-.3S683,364.9,683,365Z"/><path class="b" d="M683,367.6c0,.1-9.7.3-21.7.3s-21.7-.1-21.7-.3,9.7-.3,21.7-.3S683,367.5,683,367.6Z"/><path class="b" d="M662.2,370.2c0,.1-5.1.3-11.3.3s-11.3-.1-11.3-.3,5.1-.3,11.3-.3S662.2,370,662.2,370.2Z"/><g class="g"><path class="c" d="M593.4,274.5c2.5-.5,5-2.2,5.8-4.4H583.4V275h.1C586.8,274.5,590.2,275.2,593.4,274.5Z"/></g><path class="b" d="M559.5,144.8H242.3a9.859,9.859,0,0,0-9.9,9.9v224a9.859,9.859,0,0,0,9.9,9.9H364s7.8,24-16.3,36.3H461.6s-27.1-9.3-20.1-36.3h118a9.859,9.859,0,0,0,9.9-9.9h0v-224A9.923,9.923,0,0,0,559.5,144.8Z"/><path class="d" d="M405.1,365.1c4.3,6.2-2.4,12.9-8.6,8.6a1.2,1.2,0,0,1-.5-.5c-4.3-6.2,2.4-12.9,8.6-8.6A1.205,1.205,0,0,1,405.1,365.1Z"/><path class="e" d="M242.8,158.2H558.3a3.329,3.329,0,0,1,3.3,3.3V346a3.329,3.329,0,0,1-3.3,3.3H242.8a3.329,3.329,0,0,1-3.3-3.3V161.5A3.4,3.4,0,0,1,242.8,158.2Z"/><path class="c" d="M558.3,349.7H242.8a3.8,3.8,0,0,1-3.8-3.8V161.5a3.8,3.8,0,0,1,3.8-3.8H558.3a3.8,3.8,0,0,1,3.8,3.8h0V346A3.843,3.843,0,0,1,558.3,349.7Zm-315.5-191a2.8,2.8,0,0,0-2.8,2.8V346a2.8,2.8,0,0,0,2.8,2.8H558.3a2.8,2.8,0,0,0,2.8-2.8h0V161.5a2.8,2.8,0,0,0-2.8-2.8Z"/><path class="d" d="M266,165.6a2.6,2.6,0,1,1-2.6-2.6h0A2.647,2.647,0,0,1,266,165.6Z"/><path class="d" d="M250.4,165.6a2.55,2.55,0,0,1-5.1-.1,2.562,2.562,0,0,1,2.6-2.5,2.63,2.63,0,0,1,2.5,2.6Z"/><path class="d" d="M257.9,165.6a2.6,2.6,0,1,1-2.6-2.6,2.647,2.647,0,0,1,2.6,2.6Z"/><path class="b" d="M461.6,263.1c0,.1-26.7.3-59.7.3s-59.7-.1-59.7-.3,26.7-.3,59.7-.3S461.6,262.9,461.6,263.1Z"/><path class="b" d="M432.5,267.2c0,.1-14.3.3-32,.3s-32-.1-32-.3,14.3-.3,32-.3S432.5,267,432.5,267.2Z"/><rect class="f" width="76.2" height="49.7" transform="translate(271.3 284.9)"/><path class="e" d="M282.4,294.7a3.05,3.05,0,1,1-6.1.1,3.166,3.166,0,0,1,3-3.1h0a3.031,3.031,0,0,1,3.1,3Z"/><path class="e" d="M343.4,297.3l-2.5-2.5-2.3,2.4-.1-7.1h4.8Zm-2.5-2.8h0l2.3,2.2-.1-6.5h-4.4l.1,6.4Z"/><path class="e" d="M324.2,293.1c0,.1-8.4.3-18.7.3s-18.7-.1-18.7-.3,8.4-.3,18.7-.3S324.2,293,324.2,293.1Z"/><path class="e" d="M301.2,297.3a57.808,57.808,0,0,1-7.2.3,43.388,43.388,0,0,1-7.2-.3,57.808,57.808,0,0,1,7.2-.3Q297.6,297,301.2,297.3Z"/><rect class="d" width="76.2" height="49.7" transform="translate(363.8 284.9)"/><path class="b" d="M439,340.4c0,.1-16.5.3-36.8.3s-36.8-.1-36.8-.3,16.5-.3,36.8-.3S439,340.2,439,340.4Z"/><circle class="e" cx="3" cy="3" r="3" transform="translate(368.8 291.7)"/><path class="e" d="M435.8,297.3l-2.5-2.5-2.3,2.4-.1-7.1h4.8Zm-2.5-2.8h0l2.3,2.2-.1-6.5h-4.4l.1,6.4Z"/><path class="e" d="M416.6,293.1c0,.1-8.4.3-18.7.3s-18.7-.1-18.7-.3,8.4-.3,18.7-.3S416.6,293,416.6,293.1Z"/><path class="e" d="M393.7,297.3a115.317,115.317,0,0,1-14.4,0A115.317,115.317,0,0,1,393.7,297.3Z"/><rect class="f" width="76.2" height="49.7" transform="translate(456.2 284.9)"/><path class="b" d="M531.4,340.4c0,.1-16.5.3-36.8.3s-36.8-.1-36.8-.3,16.5-.3,36.8-.3S531.4,340.2,531.4,340.4Z"/><path class="e" d="M467.2,294.7a3.1,3.1,0,0,1-3,3.1,3.166,3.166,0,0,1-3.1-3,3.1,3.1,0,0,1,3-3.1h0a2.925,2.925,0,0,1,3,2.9Z"/><path class="e" d="M528.3,297.3l-2.5-2.5-2.3,2.4-.1-7.1h4.8Zm-2.5-2.8h0l2.3,2.2-.1-6.5h-4.4l.1,6.4Z"/><path class="e" d="M509.1,293.1c0,.1-8.4.3-18.7.3s-18.7-.1-18.7-.3,8.4-.3,18.7-.3S509.1,293,509.1,293.1Z"/><path class="e" d="M486.1,297.3a115.317,115.317,0,0,1-14.4,0A115.317,115.317,0,0,1,486.1,297.3Z"/><path class="a" d="M559,310.4a10.6,10.6,0,1,1-10.6-10.6A10.605,10.605,0,0,1,559,310.4Z"/><path class="b" d="M546.9,314.9a6.731,6.731,0,0,1,1.5-1.4c1-.8,2.3-1.9,3.8-3.1v.3l-.1-.1c-1.5-1.3-2.8-2.4-3.7-3.3a19.2,19.2,0,0,1-1.5-1.4c.6.4,1.1.8,1.6,1.2,1,.8,2.3,1.9,3.8,3.2l.1.1.2.1-.2.1c-1.5,1.2-2.8,2.3-3.8,3A6.425,6.425,0,0,1,546.9,314.9Z"/><path class="a" d="M243.1,310.4A10.55,10.55,0,1,1,253.6,321a10.52,10.52,0,0,1-10.5-10.6Z"/><path class="b" d="M255.3,305.9a6.73,6.73,0,0,1-1.5,1.4c-1,.8-2.3,1.9-3.8,3.1v-.3l.1.1c1.5,1.3,2.8,2.4,3.7,3.3a10.606,10.606,0,0,1,1.5,1.5c-.6-.4-1.1-.8-1.6-1.2-1-.8-2.3-1.9-3.8-3.2l-.1-.1-.2-.1.2-.1c1.5-1.2,2.8-2.3,3.8-3A10.483,10.483,0,0,1,255.3,305.9Z"/><path class="a" d="M259.2,169l-.4,12.5.4-12.5,96.2,3c.7,5.1-4.6,9.2-9.7,10s-10.3-.4-15.4.3c-10.2,1.3-18.1,9.4-27.6,13.4-15.6,6.6-35.3.4-43.9-14.2l-1.9,64.8.1-3.3c11-18.3,34.6-26.6,56-26.6s42.1,6.5,63,10.8,43.5,6.3,63-2.4c15.7-6.9,27.9-20,42.5-29,29.7-18.4,69.9-18,99.3.8l-1.7,59L257,246.4l322.6,9.5,2.2-77.4Zm131.9,42.1a10.9,10.9,0,1,1,11.2-10.6h0a10.805,10.805,0,0,1-11.2,10.6Z"/><path class="f" d="M581,196.6c-29.4-18.8-69.6-19.2-99.3-.8-14.6,9-26.8,22.1-42.5,29-19.5,8.6-42.1,6.7-63,2.4s-41.7-10.8-63-10.8-44.9,8.3-56,26.6l-.1,3.3,322.3,9.3Zm-171.3,45a1.251,1.251,0,1,1,1.3-1.2,1.135,1.135,0,0,1-1.3,1.2Zm8,.3a1.251,1.251,0,1,1,1.3-1.2,1.24,1.24,0,0,1-1.3,1.2Zm8,.2a1.251,1.251,0,1,1,.1-2.5,1.234,1.234,0,0,1,1.2,1.3h0a1.24,1.24,0,0,1-1.3,1.2Zm123.5-20.8a3.5,3.5,0,0,1-5-.1,3.592,3.592,0,0,1,.1-5,3.5,3.5,0,0,1,5,.1h0a3.5,3.5,0,0,1-.1,5Z"/><g class="g"><path d="M581,196.6c-29.4-18.8-69.6-19.2-99.3-.8-14.6,9-26.8,22.1-42.5,29-19.5,8.6-42.1,6.7-63,2.4s-41.7-10.8-63-10.8-44.9,8.3-56,26.6l-.1,3.3,322.3,9.3Zm-171.3,45a1.251,1.251,0,1,1,1.3-1.2,1.135,1.135,0,0,1-1.3,1.2Zm8,.3a1.251,1.251,0,1,1,1.3-1.2,1.24,1.24,0,0,1-1.3,1.2Zm8,.2a1.251,1.251,0,1,1,.1-2.5,1.234,1.234,0,0,1,1.2,1.3h0a1.24,1.24,0,0,1-1.3,1.2Zm123.5-20.8a3.5,3.5,0,0,1-5-.1,3.592,3.592,0,0,1,.1-5,3.5,3.5,0,0,1,5,.1h0a3.5,3.5,0,0,1-.1,5Z"/></g><path class="b" d="M409.8,239.1a1.251,1.251,0,1,0,1.2,1.3h0A1.389,1.389,0,0,0,409.8,239.1Z"/><path class="b" d="M417.8,239.4a1.251,1.251,0,1,0,1.2,1.3h0a1.24,1.24,0,0,0-1.2-1.3Z"/><path class="b" d="M425.8,239.6a1.251,1.251,0,1,0,1.2,1.3,1.181,1.181,0,0,0-1.2-1.3Z"/><path class="i" d="M302.7,195.7c9.5-4,17.4-12.2,27.6-13.4,5.1-.6,10.4.6,15.4-.3s10.4-4.9,9.7-10l-96.2-3-.4,12.5v.1h0C267.5,196.1,287.2,202.3,302.7,195.7Z"/><g class="g"><path class="c" d="M302.7,195.7c9.5-4,17.4-12.2,27.6-13.4,5.1-.6,10.4.6,15.4-.3s10.4-4.9,9.7-10l-96.2-3-.4,12.5v.1h0C267.5,196.1,287.2,202.3,302.7,195.7Z"/></g><path class="h" d="M391.8,189.3a10.9,10.9,0,1,0,10.6,11.2h0A11,11,0,0,0,391.8,189.3Z"/><path class="i" d="M391.8,189.3a10.9,10.9,0,1,0,10.6,11.2h0A11,11,0,0,0,391.8,189.3Z"/><path class="c" d="M544.3,216.1a3.538,3.538,0,1,0,5,.2h0A3.592,3.592,0,0,0,544.3,216.1Z"/><path class="b" d="M532.4,256.1c2.7-4.5,3.4-10.4,4.1-15.6.3-2.4.9-5.9-.8-7.4s-2-4.1-4.1-5.4a6.36,6.36,0,0,0-7,.1"/><path class="j" d="M525,271.9h0a7.175,7.175,0,0,1-7.7-6.6V265c-.2-3.9-.3-7.9-.3-7.9s-5.9-.5-6.4-6.4-.2-19.4-.2-19.4h0a20.739,20.739,0,0,1,20.7,1.3l-.4,20.7v11.1C530.6,268.1,528.7,271.6,525,271.9Z"/><path class="b" d="M516.5,243.5a3,3,0,0,1,4-.9,3.307,3.307,0,0,1,1.1,4.3,4.6,4.6,0,0,1-2.9,2.2,2.353,2.353,0,0,0-1.8,2.4c.2,1.5,2.6,2,3.7,3.3,1.7,1.9,5.5,2.7,8,3s2.2.3,3.7-1.7a7.524,7.524,0,0,0,1.4-4.8l.3-13a18.6,18.6,0,0,0-.3-4.7,6.355,6.355,0,0,0-2.5-3.9c-1.4-.9-3.2-1-4.9-1.6-2-.6-3.8-2-5.7-3s-4.2-1.6-6.1-.6c-1.4.7-2.3,2.1-3.6,2.8-1.9,1.1-4.5.8-5.4,3.6a5.113,5.113,0,0,0,0,3c1.3,3.8,6,5.3,9.4,3.7.1.6-.6,2.1.1,4.1.3.8.4,1.8,1.5,1.8"/><path class="k" d="M517.5,247.2c.1,0,.3.3.7.3a1.381,1.381,0,0,0,1-1.3,1.5,1.5,0,0,0-1-1.4c-.5-.2-.8-.1-.8-.2s.3-.3.9-.2a1.934,1.934,0,0,1,.9.5,1.9,1.9,0,0,1,.5,1.3,1.735,1.735,0,0,1-1.6,1.7.755.755,0,0,1-.7-.4A.775.775,0,0,0,517.5,247.2Z"/><path class="d" d="M523.6,229.5a2.935,2.935,0,0,1,2.3-1.2,5.333,5.333,0,0,1,2.8.4,5.823,5.823,0,0,1,2.6,2.3,12.724,12.724,0,0,1,1.8,6,11.328,11.328,0,0,1,.1,2.6,11.083,11.083,0,0,1-.5-2.5,14.254,14.254,0,0,0-1.9-5.7,6.358,6.358,0,0,0-2.4-2.2,4.678,4.678,0,0,0-2.6-.5A6.525,6.525,0,0,0,523.6,229.5Z"/><path class="d" d="M507.1,235.5a1.135,1.135,0,0,1-.8-.3,2.017,2.017,0,0,1-.9-2.1,2.068,2.068,0,0,1,1-1.4,4.058,4.058,0,0,1,1.9-.4,2.972,2.972,0,0,0,1.8-.4,19.2,19.2,0,0,0,1.4-1.5,6.922,6.922,0,0,1,3.7-2.1,8.222,8.222,0,0,1,3.5-.1,6.028,6.028,0,0,1,2.2.9,3.958,3.958,0,0,1,.7.5,9.979,9.979,0,0,0-2.9-1,7.393,7.393,0,0,0-3.3.2,6.585,6.585,0,0,0-3.4,2,11.369,11.369,0,0,1-1.5,1.6,3.128,3.128,0,0,1-1,.5,3.4,3.4,0,0,1-1,.1,2.223,2.223,0,0,0-1.6.3,1.787,1.787,0,0,0-.6,2.5,2.182,2.182,0,0,0,.4.5C506.7,235.2,506.9,235.4,507.1,235.5Z"/><path class="d" d="M522.8,251.9a5.583,5.583,0,0,1,.8-.5,5.479,5.479,0,0,0,1.6-1.8,5.021,5.021,0,0,0,.3-3.4,3.858,3.858,0,0,0-1.1-1.7,7.487,7.487,0,0,0-1.8-1.3c-.7-.4-1.4-.8-2-1.2a4.891,4.891,0,0,1-1.6-1.6,7.21,7.21,0,0,1-1.4-3.5,7.067,7.067,0,0,1,.2-2.5,3.551,3.551,0,0,1,.4-.9,9.2,9.2,0,0,0-.2,3.3,6.911,6.911,0,0,0,1.4,3.3,11.028,11.028,0,0,0,3.5,2.6,9.35,9.35,0,0,1,1.9,1.4,6.657,6.657,0,0,1,1.2,2,4.387,4.387,0,0,1-.4,3.7,4.455,4.455,0,0,1-1.8,1.8C523.4,251.7,523.1,251.8,522.8,251.9Z"/><path class="d" d="M533,243.2a7.344,7.344,0,0,1-.8.2,14.768,14.768,0,0,1-2.1.1,12.234,12.234,0,0,1-6.6-2.3,10.874,10.874,0,0,1-4.3-5.4,4.972,4.972,0,0,1-.1-2.1,1.493,1.493,0,0,1,.3-.7,5.33,5.33,0,0,0,.1,2.8,10.5,10.5,0,0,0,4.2,5.1,13.029,13.029,0,0,0,6.3,2.3C531.9,243.3,533,243.1,533,243.2Z"/><path class="h" d="M511.6,426.6l-2.9,6.2,13.1-.2.6-6.6Z"/><path class="b" d="M522,431.4a6.079,6.079,0,0,1-1.9.1h-4.6l-4.6-.1a12.1,12.1,0,0,1-1.9-.1,6.079,6.079,0,0,1,1.9-.1h4.6l4.6.1A4.012,4.012,0,0,1,522,431.4Z"/><path class="b" d="M516.4,425.8a8.676,8.676,0,0,1,.1,2.8,8.421,8.421,0,0,1-.4,2.7,8.676,8.676,0,0,1-.1-2.8A25.115,25.115,0,0,1,516.4,425.8Z"/><g class="l"><path class="c" d="M508.7,432.9l13.1-.4.1-1.3-12.5.1-.7,1.4"/></g><path class="j" d="M568.6,429.1,542.9,310.2l-33.9.9c-2.6,4.8,2.6,115.5,2.6,115.5l10.5-.3,4.8-98.5L558,429.3Z"/><path class="j" d="M456,252.1c-.1-2.1.8-6.2,1.3-6.6s1.1.3.9.9a7.612,7.612,0,0,0-.3,2.1,4.678,4.678,0,0,0,.2,1.7c.1.5.3.9.4,1.3l.2.7,22.4,20,14-.9,2.8,14.3-22.8-2L451.7,258h0c-2-1.4-4-3.2-5.3-4-2.3-1.5-1.6-1.9-1.4-2.1Z"/><path class="j" d="M581.7,240.2l-13.9,28.5-14,6-5.2-12.6,10.3-2.7,16-25.5v-2a4.671,4.671,0,0,0-.3-1.7,7.218,7.218,0,0,0-.9-2c-.4-.5,0-1.3.6-1.1s1.7,1.6,2.2,3.6,1.9-.9,2.4-2,2.3-4.4,2.8-4.5c.7-.1,1,.6.4,1.6s-2,4.4-1.4,4.7l1-.1.8,3.9A9.945,9.945,0,0,1,581.7,240.2Z"/><path class="h" d="M571.6,430.2v-1.3l-13.5.4.1,4.4h.8c3.7.1,18.9.2,21.4-.5C583.1,432.3,571.6,430.2,571.6,430.2Z"/><g class="l"><path class="c" d="M563,433.4a4.037,4.037,0,0,0-1.8-2.6,5.121,5.121,0,0,0-3.2-.8l.1,3.5Z"/></g><g class="l"><path class="c" d="M577.2,431.4s4,1,3.6,1.6-15.9,1-22.7.7v-.3l18-.3S576.4,431.5,577.2,431.4Z"/></g><path class="b" d="M557.9,433.4h3.4c2.1,0,4.9,0,8.1-.1s6-.2,8.1-.3l2.5-.2.7-.1H580l-2.4.1c-2.1.1-4.9.2-8.1.3s-6,.1-8.1.1H558Z"/><path class="b" d="M576.1,433.3a3.582,3.582,0,0,1,.4-1.1,6.471,6.471,0,0,1,.8-.9,2.539,2.539,0,0,0-1,.8A1.551,1.551,0,0,0,576.1,433.3Z"/><path class="b" d="M572,431.5a3.61,3.61,0,0,0,.4-.5,1.546,1.546,0,0,0,.3-.6c0-.1-.2.2-.4.5A2.828,2.828,0,0,0,572,431.5Z"/><path class="b" d="M570.9,431a5.2,5.2,0,0,0,.5-.3c.3-.2.4-.4.3-.4s-.2.1-.5.3S570.9,431,570.9,431Z"/><path class="b" d="M570.2,429.8a2.441,2.441,0,0,0,.7.1,1.7,1.7,0,0,0,.7-.1,3.305,3.305,0,0,0-1.4,0Z"/><path class="b" d="M569.9,429a1.884,1.884,0,0,0,.8.2,1.949,1.949,0,0,0,.8-.1h-.8A1.949,1.949,0,0,0,569.9,429Z"/><path class="b" d="M572.5,430.4a1.387,1.387,0,0,0,.9,0,2.92,2.92,0,0,0,.9-.2c.2-.1.4-.1.5-.2s.2-.1.2-.3c0-.1,0-.3-.1-.3a1.71,1.71,0,0,0-2,.5c-.1.2-.2.3-.3.5v.2a1.612,1.612,0,0,1,.4-.7,1.794,1.794,0,0,1,.7-.5,1.7,1.7,0,0,1,1,0c.1.1.1.2-.1.3s-.3.2-.5.2a2.919,2.919,0,0,1-.9.2A1.3,1.3,0,0,1,572.5,430.4Z"/><path class="b" d="M572.7,430.4a1.269,1.269,0,0,0,.1-.6.864.864,0,0,0-.3-.6,1.012,1.012,0,0,0-.7-.4c-.2,0-.3.2-.3.4h0a.758.758,0,0,0,.2.4c.1.2.3.3.4.5a1.627,1.627,0,0,0,.6.3c-.1,0-.3-.2-.5-.4a2.183,2.183,0,0,1-.4-.5c-.1-.2-.2-.5,0-.5s.4.2.6.3a2.186,2.186,0,0,1,.3.5C572.7,430.1,572.7,430.2,572.7,430.4Z"/><path class="b" d="M558.1,430h1a4.531,4.531,0,0,1,2.2.8,3.907,3.907,0,0,1,1.4,1.7,7.777,7.777,0,0,1,.3.9v-.3a1.853,1.853,0,0,0-.2-.7,4.2,4.2,0,0,0-1.4-1.8,4.89,4.89,0,0,0-2.3-.8h-.7Z"/><path class="b" d="M564.6,432.2a10.243,10.243,0,0,0,3.9-.1h-2A6.275,6.275,0,0,0,564.6,432.2Z"/><path class="b" d="M562,432.2l.2.4c.1.2.2.4.2.3s.1-.2,0-.4A.781.781,0,0,0,562,432.2Z"/><path class="b" d="M561,431.1a.919.919,0,1,0,.3.2A1.437,1.437,0,0,0,561,431.1Z"/><path class="b" d="M559.5,430.6a1,1,0,0,1,.4.1c.2.1.3.2.4.1s-.1-.2-.3-.3S559.5,430.6,559.5,430.6Z"/><path class="m" d="M544.4,314.6l25.2,110.2-16.6,2-26-97.1-1.1,93H510l-1.9-106Z"/><path class="b" d="M558.5,430.4a.349.349,0,0,0,.2.1h.2a.349.349,0,0,0-.2-.1Z"/><path class="i" d="M543.6,283.3c.5-2.7,9.9-7.8,10.3-7.8s-5.5-14-5.5-14l-13.9,2a26.016,26.016,0,0,0-3.9-.5l-13.2-.1s-5.9.7-7.8,2.1l-14.8,5.6,3.4,17.2,12.9-2.3c-.6,3.3-4.8,45.1-5.1,46.4l44.8-3.2Z"/><path class="e" d="M512.3,281a19.1,19.1,0,0,1-.6-3.3l.3.1-3.6,2.6-.4.3v-.5q-.15-1.65-.3-3.6l.4.2-.2.1-3.9,2.6-.3.2-.1-.3a9.738,9.738,0,0,1-.6-3.4l.3.2a4.539,4.539,0,0,0-1.9,1.5c-.2.2-.4.5-.6.7a2.01,2.01,0,0,1,.4-.8,6.136,6.136,0,0,1,1.9-1.7l.2-.1v.3a11.432,11.432,0,0,0,.7,3.2l-.4-.1,3.9-2.7.2-.1.4-.3v.4q.15,1.95.3,3.6l-.4-.2,3.6-2.5.3-.2v.3A8.788,8.788,0,0,1,512.3,281Z"/><path class="e" d="M531.3,274.5A27.253,27.253,0,0,1,529,272h.3l-1.6,4.2-.2.4-.3-.4-2.2-2.8h.4l-.1.2c-.7,1.5-1.3,3-1.9,4.3l-.1.3-.3-.2a10.864,10.864,0,0,1-2.3-2.5h.3a6.31,6.31,0,0,0-.8,2.3,6.175,6.175,0,0,0-.1.9,2.769,2.769,0,0,1-.1-.9,4.814,4.814,0,0,1,.7-2.4l.1-.2.2.2a17.526,17.526,0,0,0,2.3,2.4l-.4.1c.6-1.4,1.2-2.8,1.8-4.4l.1-.2.2-.4.3.4,2.2,2.9-.4.1,1.7-4.1.1-.3.2.2A6.288,6.288,0,0,1,531.3,274.5Z"/><path class="e" d="M515.2,285.1a19.658,19.658,0,0,1-1,3.2l-.2-.2,4.4-.8.4-.1-.2.4c-.4,1-.9,2.1-1.3,3.3l-.3-.4h.2l4.7-.6h.3v.3a13.853,13.853,0,0,1-1,3.3l-.2-.3a6.723,6.723,0,0,0,2.4-.4c.3-.1.5-.3.8-.4a5.548,5.548,0,0,1-.8.6,5.421,5.421,0,0,1-2.5.6h-.3l.1-.3a11.559,11.559,0,0,0,.8-3.2l.3.3-4.7.6h-.2l-.5.1.2-.4,1.4-3.3.3.3-4.4.6h-.3l.1-.3C514.2,287.2,514.6,286.1,515.2,285.1Z"/><path class="e" d="M511.6,318.3a19.661,19.661,0,0,1-1,3.2l-.2-.2,4.4-.8.4-.1-.2.4c-.4,1-.9,2.1-1.3,3.3l-.3-.4h.2l4.7-.6h.3v.3a13.853,13.853,0,0,1-1,3.3l-.2-.3a6.723,6.723,0,0,0,2.4-.4c.3-.1.5-.3.8-.4a5.548,5.548,0,0,1-.8.6,5.421,5.421,0,0,1-2.5.6H517l.1-.3a11.559,11.559,0,0,0,.8-3.2l.3.3-4.7.6h-.2l-.5.1.2-.4,1.4-3.3.3.3-4.4.6H510l.1-.3C510.6,320.4,511,319.3,511.6,318.3Z"/><path class="e" d="M537.5,266.1a19.658,19.658,0,0,1-1,3.2l-.2-.2,4.4-.8.4-.1-.2.4-1.3,3.3-.3-.4h.2l4.7-.6h.3v.3a13.853,13.853,0,0,1-1,3.3l-.2-.3a6.723,6.723,0,0,0,2.4-.4c.3-.1.5-.3.8-.4a2.3,2.3,0,0,1-.7.6,5.421,5.421,0,0,1-2.5.6H543l.1-.3a11.559,11.559,0,0,0,.8-3.2l.3.3-4.7.6h-.2l-.4.1.2-.4c.5-1.2.9-2.3,1.4-3.3l.3.3-4.4.6h-.3l.1-.3C536.6,268.1,537,267,537.5,266.1Z"/><path class="e" d="M510.1,266.5a19.444,19.444,0,0,1,1.3,3h-.3c.8-1,1.8-2.2,2.8-3.4l.3-.3.1.4,1.1,3.4-.4-.1.1-.1,3.2-3.5.2-.2.2.3a12.974,12.974,0,0,1,1.4,3.2l-.3-.1a5.5,5.5,0,0,0,1.5-1.9,2.01,2.01,0,0,1,.4-.8,2.919,2.919,0,0,1-.2.9,5.106,5.106,0,0,1-1.5,2.1l-.2.2-.1-.3a14.022,14.022,0,0,0-1.5-3h.4l-3.2,3.5-.1.1-.3.3-.1-.4-1.1-3.4.4.1-2.9,3.4-.2.2-.1-.3Z"/><path class="e" d="M530.2,283.3a25.6,25.6,0,0,1,2.6,2l-.3.1c.2-1.3.5-2.8.8-4.4l.1-.4.3.3c.8.8,1.7,1.6,2.6,2.4l-.4.1v-.2c.4-1.6.8-3.2,1.1-4.6l.1-.3.3.1a13.947,13.947,0,0,1,2.7,2.1l-.3.1a4.878,4.878,0,0,0,.4-2.4c0-.3-.1-.6-.1-.9a3.177,3.177,0,0,1,.3.9,5.242,5.242,0,0,1-.3,2.5l-.1.3-.2-.2a13.089,13.089,0,0,0-2.7-1.9l.3-.2c-.3,1.4-.7,3-1.1,4.6v.2l-.1.4-.3-.3-2.6-2.4.4-.1c-.3,1.6-.7,3.1-1,4.4l-.1.3-.2-.2C531.7,284.8,530.9,284.1,530.2,283.3Z"/><path class="e" d="M532.7,309.5a25.6,25.6,0,0,1,2.6,2l-.3.1c.2-1.3.5-2.8.8-4.4l.1-.4.3.3c.8.8,1.7,1.6,2.6,2.4l-.4.1v-.2c.4-1.6.8-3.2,1.1-4.6l.1-.3.3.1a13.947,13.947,0,0,1,2.7,2.1l-.3.1a4.878,4.878,0,0,0,.4-2.4c0-.3-.1-.6-.1-.9a3.177,3.177,0,0,1,.3.9,5.242,5.242,0,0,1-.3,2.5l-.1.3-.2-.2a13.089,13.089,0,0,0-2.7-1.9l.3-.2c-.3,1.4-.7,3-1.1,4.6v.2l-.1.4-.3-.3-2.6-2.4.4-.1c-.3,1.6-.7,3.1-1,4.4l-.1.3-.2-.2A23.372,23.372,0,0,0,532.7,309.5Z"/><path class="e" d="M532.2,291.7c-.9.6-1.9,1.2-2.8,1.7v-.3l3.8,2.4.4.2-.4.2-3.2,1.5V297l.2.1,3.9,2.7.3.2-.2.2a14.149,14.149,0,0,1-2.9,1.8v-.3a5.71,5.71,0,0,0,2.1,1.3l.9.3a2.769,2.769,0,0,1-.9-.1,5.667,5.667,0,0,1-2.3-1.2l-.2-.2.3-.1a16.654,16.654,0,0,0,2.8-1.8v.4l-3.9-2.7-.2-.1-.4-.3.4-.2,3.2-1.5v.4l-3.7-2.5-.3-.2.3-.1A9.163,9.163,0,0,1,532.2,291.7Z"/><path class="e" d="M533.6,321.5a18.724,18.724,0,0,1,.8,3.2l-.3-.1,3.4-2.9.3-.3.1.4.6,3.5-.4-.1.2-.1,3.7-2.9.2-.2.1.3a17.826,17.826,0,0,1,.9,3.3l-.3-.1a5.479,5.479,0,0,0,1.8-1.6c.2-.3.3-.5.5-.8a1.8,1.8,0,0,1-.4.9,5.171,5.171,0,0,1-1.8,1.8l-.2.1-.1-.3a16.811,16.811,0,0,0-.9-3.2l.4.1-3.7,3-.2.1-.4.3-.1-.4-.5-3.5.4.1-3.4,2.8-.2.2-.1-.3A16.566,16.566,0,0,1,533.6,321.5Z"/><path class="e" d="M529,312.3a18.186,18.186,0,0,1-3.3,0l.2-.3,2,4,.2.4h-.4l-3.5-.4.2-.4.1.2,1.9,4.4.1.3h-.3a19.3,19.3,0,0,1-3.4,0l.2-.3a6.5,6.5,0,0,0,1.1,2.2c.2.2.4.5.6.7a1.344,1.344,0,0,1-.7-.6,6.113,6.113,0,0,1-1.3-2.2l-.1-.3h.3a12.172,12.172,0,0,0,3.3-.1l-.2.3-1.9-4.3-.1-.2-.2-.4h.4l3.6.4-.2.4-1.8-4-.1-.3h.3A20.727,20.727,0,0,1,529,312.3Z"/><path class="e" d="M511.7,306.2a28.266,28.266,0,0,1,3.1,1.1l-.3.2c-.2-1.3-.4-2.8-.6-4.4l-.1-.4.4.2,3.3,1.5-.4.3v-.2c-.1-1.7-.3-3.3-.4-4.7v-.3l.3.1a12.13,12.13,0,0,1,3.2,1.1l-.3.1a6.606,6.606,0,0,0-.3-2.4l-.3-.9a2.177,2.177,0,0,1,.5.8,4.345,4.345,0,0,1,.5,2.5v.3l-.3-.1a11.909,11.909,0,0,0-3.2-1l.3-.3.4,4.7v.6l-.4-.2-3.2-1.5.3-.3c.2,1.6.3,3.1.5,4.4v.3l-.3-.1C513.6,307.2,512.6,306.7,511.7,306.2Z"/><path class="n" d="M510.5,265.2a1.7,1.7,0,0,1,1,0,6.3,6.3,0,0,1,2.7,1,7.864,7.864,0,0,1,2.8,3.2,11.163,11.163,0,0,1,1.1,5.1,13.008,13.008,0,0,1-3.5,8.6,13.677,13.677,0,0,1-2.2,1.9,4.053,4.053,0,0,1-.9.5,17.269,17.269,0,0,0,2.8-2.6,13.682,13.682,0,0,0,3.2-8.4,11.942,11.942,0,0,0-1-4.9,8.644,8.644,0,0,0-2.6-3.1A5.69,5.69,0,0,0,510.5,265.2Z"/><path class="b" d="M203.1,241.9l-52.9-.3a11.566,11.566,0,0,1-11.5-11.5h0L139.3,98a11.376,11.376,0,0,1,11.6-11.4h0l52.8.3a11.566,11.566,0,0,1,11.5,11.5h0l-.6,132.1A11.481,11.481,0,0,1,203.1,241.9Z"/><path class="c" d="M203.7,91.3H193.4a2.562,2.562,0,0,0-2.5,2.6h0v1.8a2.562,2.562,0,0,1-2.5,2.6h0l-20-.1a2.475,2.475,0,0,1-2.4-2.6h0V93.8a2.562,2.562,0,0,0-2.5-2.6H150.9a8.11,8.11,0,0,0-8.1,8h0l-.6,129a8.09,8.09,0,0,0,7.9,8.1h.1l52.7.2a8.11,8.11,0,0,0,8.1-8h0l.5-129a7.96,7.96,0,0,0-7.9-8.1Z"/><path class="b" d="M203,144.1c0,.1-11.5.3-25.6.3s-25.6-.1-25.6-.3,11.5-.3,25.6-.3S203,144,203,144.1Z"/><path class="b" d="M203,147.3c0,.1-11.5.3-25.6.3s-25.6-.1-25.6-.3,11.5-.3,25.6-.3S203,147.1,203,147.3Z"/><path class="b" d="M185.7,150.1c0,.1-4.6.3-10.3.3s-10.3-.1-10.3-.3a88.6,88.6,0,0,1,10.3-.3C178.8,149.8,182.3,149.9,185.7,150.1Z"/><rect class="f" width="54.2" height="34.7" transform="translate(148.8 157.1)"/><ellipse class="e" cx="2.2" cy="2.1" rx="2.2" ry="2.1" transform="translate(152.3 161.8)"/><path class="e" d="M200,165.7l-1.8-1.7-1.6,1.7-.1-5h3.4Zm-1.8-1.9h0l1.6,1.6v-4.5h-3.1l.1,4.4Z"/><path class="e" d="M186.4,162.8c0,.1-5.9.3-13.3.3s-13.3-.1-13.3-.3,5.9-.3,13.3-.3S186.4,162.7,186.4,162.8Z"/><path class="e" d="M170.1,165.7a29.106,29.106,0,0,1-5.1.3,21.862,21.862,0,0,1-5.1-.3,21.863,21.863,0,0,1,5.1-.3A44.921,44.921,0,0,1,170.1,165.7Z"/><path class="a" d="M163.5,91.1H150.9a8.11,8.11,0,0,0-8.1,8h0l-.1,24.4c2.7.6,5.4,1.1,8.1,1.6,14,2.4,28.9,3.3,41.7-2.8,7.1-3.4,13-8.6,19.1-13.6V99.4a8.09,8.09,0,0,0-7.9-8.1H193.3a2.562,2.562,0,0,0-2.5,2.6h0v1.8a2.562,2.562,0,0,1-2.5,2.6h0l-20-.1a2.564,2.564,0,0,1-2.4-2.7h0V93.7a2.475,2.475,0,0,0-2.4-2.6Zm4.2,15.8a7.2,7.2,0,1,1-7.2-7.2h0A7.108,7.108,0,0,1,167.7,106.9Z"/><path class="f" d="M150.8,125.1c-2.7-.5-5.4-1-8.1-1.6V136h68.9l.1-27.3c-6.1,5-12,10.3-19.1,13.6C179.8,128.4,164.8,127.5,150.8,125.1Zm21,6.5a.6.6,0,1,1,.6-.6h0c.1.3-.2.6-.6.6Zm4,0a.6.6,0,1,1,.6-.6h0a.645.645,0,0,1-.6.6Zm3.9,0a.6.6,0,1,1,.6-.6h0a.576.576,0,0,1-.6.6Z"/><path class="b" d="M171.8,130.4a.6.6,0,1,0,.6.6h0A.576.576,0,0,0,171.8,130.4Z"/><path class="b" d="M175.7,130.4a.6.6,0,1,0,.6.6h0C176.4,130.6,176.1,130.4,175.7,130.4Z"/><path class="b" d="M179.7,130.4a.6.6,0,1,0,.6.6h0A.576.576,0,0,0,179.7,130.4Z"/><path class="h" d="M160.5,99.6a7.2,7.2,0,1,0,7.2,7.2h0A7.234,7.234,0,0,0,160.5,99.6Z"/><path class="i" d="M160.5,99.6a7.2,7.2,0,1,0,7.2,7.2h0A7.234,7.234,0,0,0,160.5,99.6Z"/><path class="d" d="M148.8,236a7.568,7.568,0,0,0,1.5.1l51.7.2V209.1H148.8ZM199,212.8l.1,5.1-1.8-1.7-1.6,1.7-.1-5H199ZM154.4,214a2.1,2.1,0,1,1-2.1,2.1,2.112,2.112,0,0,1,2.1-2.1Z"/><path class="d" d="M197.3,215.9l.1.1,1.5,1.5V213h-3.1l.1,4.4Z"/><circle class="e" cx="2.1" cy="2.1" r="2.1" transform="translate(152.3 214)"/><path class="e" d="M197.3,216.2l1.8,1.7-.1-5.1h-3.4l.1,5Zm1.6-3.2.1,4.5-1.5-1.5-.1-.1-1.5,1.5-.1-4.4Z"/><g class="g"><path d="M150.8,125.1c-2.7-.5-5.4-1-8.1-1.6V136h68.9l.1-27.3c-6.1,5-12,10.3-19.1,13.6C179.8,128.4,164.8,127.5,150.8,125.1Zm21,6.5a.6.6,0,1,1,.6-.6h0c.1.3-.2.6-.6.6Zm4,0a.6.6,0,1,1,.6-.6h0a.645.645,0,0,1-.6.6Zm3.9,0a.6.6,0,1,1,.6-.6h0a.576.576,0,0,1-.6.6Z"/></g><path class="b" d="M201.5,195.2c0,.1-11.8.3-26.4.3s-26.4-.1-26.4-.3,11.8-.3,26.4-.3S201.5,195.1,201.5,195.2Z"/><path class="b" d="M201.5,197.9c0,.1-11.8.3-26.4.3s-26.4-.1-26.4-.3,11.8-.3,26.4-.3S201.5,197.8,201.5,197.9Z"/><path class="b" d="M201.5,200.9c0,.1-11.8.3-26.4.3s-26.4-.1-26.4-.3,11.8-.3,26.4-.3S201.5,200.8,201.5,200.9Z"/><path class="b" d="M176.3,203.6c0,.1-6.1.3-13.7.3s-13.8-.1-13.8-.3,6.2-.3,13.8-.3S176.3,203.4,176.3,203.6Z"/><path class="b" d="M65.8,252.7H308.5a6.7,6.7,0,0,1,6.7,6.7V408.2a14.617,14.617,0,0,1-14.6,14.6H72.6A14.617,14.617,0,0,1,58,408.2h0V260.4a7.923,7.923,0,0,1,7.8-7.7Z"/><path class="b" d="M47.3,410.2H325.9v1.2a13.657,13.657,0,0,1-13.7,13.7H61a13.657,13.657,0,0,1-13.7-13.7h0v-1.2Z"/><rect class="d" width="242.6" height="143.6" transform="translate(65 259.4)"/><path class="d" d="M161.3,410.2l3.5,5.5h48.6l3.2-5.5Z"/><rect class="c" width="223.4" height="134" transform="translate(73.1 269)"/><path class="b" d="M82.6,275.6a1.9,1.9,0,1,1-1.9-1.9h0a1.9,1.9,0,0,1,1.9,1.9Z"/><path class="b" d="M90.3,275.6a1.9,1.9,0,1,1-1.9-1.9h0a1.967,1.967,0,0,1,1.9,1.9Z"/><path class="b" d="M97.9,275.6a1.9,1.9,0,0,1-1.9,1.9,1.839,1.839,0,0,1-1.9-1.9,1.9,1.9,0,0,1,3.8,0Z"/><rect class="d" width="257.2" height="0.8" transform="translate(58.1 410.3)"/><path class="b" d="M238.4,345.6c0,.1-23.8.3-53.2.3s-53.2-.1-53.2-.3,23.8-.3,53.2-.3S238.4,345.5,238.4,345.6Z"/><path class="b" d="M212.5,349.3c0,.1-12.8.3-28.5.3s-28.5-.1-28.5-.3,12.8-.3,28.4-.3S212.5,349.1,212.5,349.3Z"/><rect class="f" width="59.6" height="38.9" transform="translate(89.3 361.7)"/><path class="e" d="M98,369.4a2.4,2.4,0,1,1-2.4-2.4,2.369,2.369,0,0,1,2.4,2.4Z"/><path class="e" d="M145.7,371.4l-2-1.9-1.8,1.9-.1-5.6h3.8Zm-2-2.2h0l1.8,1.8-.1-5.1H142v5Z"/><path class="e" d="M130.7,368.1c0,.1-6.6.3-14.6.3s-14.6-.1-14.6-.3,6.6-.3,14.6-.3S130.7,368,130.7,368.1Z"/><path class="e" d="M112.7,371.4a35.679,35.679,0,0,1-5.6.3,25.972,25.972,0,0,1-5.6-.3,26.67,26.67,0,0,1,5.6-.3A25.972,25.972,0,0,1,112.7,371.4Z"/><rect class="d" width="59.6" height="38.9" transform="translate(155.4 361.7)"/><path class="e" d="M164,369.4a2.4,2.4,0,1,1-2.4-2.4,2.433,2.433,0,0,1,2.4,2.4Z"/><path class="e" d="M211.8,371.4l-2-1.9-1.8,1.9-.1-5.6h3.8Zm-2-2.2h0l1.8,1.8-.1-5.1h-3.4v5Z"/><path class="e" d="M196.8,368.1c0,.1-6.6.3-14.6.3s-14.6-.1-14.6-.3,6.6-.3,14.6-.3S196.8,368,196.8,368.1Z"/><path class="e" d="M178.8,371.4a35.679,35.679,0,0,1-5.6.3,25.973,25.973,0,0,1-5.6-.3,35.679,35.679,0,0,1,5.6-.3A26.67,26.67,0,0,1,178.8,371.4Z"/><rect class="f" width="59.6" height="38.9" transform="translate(221.3 361.7)"/><path class="e" d="M230,369.4a2.4,2.4,0,1,1-2.4-2.4,2.433,2.433,0,0,1,2.4,2.4Z"/><path class="e" d="M277.7,371.4l-2-1.9-1.8,1.9-.1-5.6h3.8Zm-2-2.2h0l1.8,1.8-.1-5.1H274v5Z"/><path class="e" d="M262.7,368.1c0,.1-6.5.3-14.6.3s-14.6-.1-14.6-.3,6.5-.3,14.6-.3S262.7,368,262.7,368.1Z"/><path class="e" d="M244.7,371.4a35.052,35.052,0,0,1-5.6.3,25.973,25.973,0,0,1-5.6-.3,26.67,26.67,0,0,1,5.6-.3A25.973,25.973,0,0,1,244.7,371.4Z"/><path class="a" d="M125.9,287.4c-4.1.8-8.4-.1-12.5.6-8.3,1.3-14.4,8.1-22,11.5a29.456,29.456,0,0,1-18.3,1.7v21.7a64.215,64.215,0,0,1,27.2-6.7c17.3-.5,34.3,4.3,51.3,7.2s35.4,4,51-3.4c12.6-6,22.1-16.9,33.8-24.5,17.5-11.5,39.9-14.9,60.2-10v-3.7H133.2C132.2,284.6,129,286.8,125.9,287.4Zm37.4,4.9a8.8,8.8,0,1,1-8.8,8.8h0A8.749,8.749,0,0,1,163.3,292.3Z"/><path class="f" d="M236.3,295.4c-11.7,7.7-21.2,18.6-33.8,24.6-15.6,7.5-33.9,6.4-51,3.4s-34-7.8-51.3-7.2A64.58,64.58,0,0,0,73,322.9v13.8H296.4V285.5C276.2,280.6,253.8,283.9,236.3,295.4Zm-57.9,34.8a.9.9,0,1,1,.9-.9.9.9,0,0,1-.9.9Zm5.6,0a.9.9,0,1,1,.9-.9A.9.9,0,0,1,184,330.2Zm5.6,0a.9.9,0,1,1,.9-.9.9.9,0,0,1-.9.9Zm98-19.8a2.959,2.959,0,0,1,4.1,0,2.9,2.9,0,0,1-4.1,4.1h0a2.959,2.959,0,0,1,0-4.1Z"/><path class="b" d="M178.4,328.5a.9.9,0,0,0,0,1.8h0a.9.9,0,0,0,0-1.8Z"/><circle class="b" cx="0.9" cy="0.9" r="0.9" transform="translate(183.1 328.5)"/><circle class="b" cx="0.9" cy="0.9" r="0.9" transform="translate(188.7 328.5)"/><path class="i" d="M91.3,299.5c7.6-3.5,13.8-10.3,22-11.5,4.1-.6,8.4.2,12.5-.6,3.1-.6,6.3-2.8,7.3-5.6h-60v19.4A27.809,27.809,0,0,0,91.3,299.5Z"/><g class="g"><path class="c" d="M91.3,299.5c7.6-3.5,13.8-10.3,22-11.5,4.1-.6,8.4.2,12.5-.6,3.1-.6,6.3-2.8,7.3-5.6h-60v19.4A27.809,27.809,0,0,0,91.3,299.5Z"/></g><circle class="h" cx="8.8" cy="8.8" r="8.8" transform="translate(154.5 292.3)"/><circle class="i" cx="8.8" cy="8.8" r="8.8" transform="translate(154.5 292.3)"/><circle class="c" cx="2.9" cy="2.9" r="2.9" transform="translate(286.8 309.6)"/><g class="g"><path d="M236.3,295.4c-11.7,7.7-21.2,18.6-33.8,24.6-15.6,7.5-33.9,6.4-51,3.4s-34-7.8-51.3-7.2A64.58,64.58,0,0,0,73,322.9v13.8H296.4V285.5C276.2,280.6,253.8,283.9,236.3,295.4Zm-57.9,34.8a.9.9,0,1,1,.9-.9.9.9,0,0,1-.9.9Zm5.6,0a.9.9,0,1,1,.9-.9A.9.9,0,0,1,184,330.2Zm5.6,0a.9.9,0,1,1,.9-.9.9.9,0,0,1-.9.9Zm98-19.8a2.959,2.959,0,0,1,4.1,0,2.9,2.9,0,0,1-4.1,4.1h0a2.959,2.959,0,0,1,0-4.1Z"/></g><path class="b" d="M287.8,384.8l.8-.8a21.787,21.787,0,0,1,2.1-1.7v.2h0l-2-1.8a3.044,3.044,0,0,1-.8-.8,5.5,5.5,0,0,1,.9.7c.5.4,1.3,1.1,2.1,1.8h0l.1.1-.1.1c-.8.7-1.6,1.3-2.1,1.7A3.127,3.127,0,0,0,287.8,384.8Z"/><path class="b" d="M82.8,379.9l-.8.8a21.789,21.789,0,0,1-2.1,1.7v-.1h0c.8.7,1.5,1.4,2,1.8a3.044,3.044,0,0,1,.8.8,5.5,5.5,0,0,1-.9-.7c-.5-.4-1.3-1.1-2.1-1.8h0l-.1-.1.1-.1c.8-.7,1.6-1.3,2.1-1.7A3.329,3.329,0,0,1,82.8,379.9Z"/></g></svg>