<svg xmlns="http://www.w3.org/2000/svg" width="566.1" height="461.6" viewBox="0 0 566.1 461.6"><defs><style>.a{fill:#ebebeb;}.a,.b,.c,.i,.o,.q{fill-rule:evenodd;}.b{fill:#f0f0f0;}.c,.f{fill:#e0e0e0;}.d,.o{fill:#fc3600;}.e{fill:#263238;}.g{fill:#fafafa;}.h{fill:#455a64;}.i,.k{fill:#e1e1e1;}.j{fill:none;}.l{fill:#ff4f5b;}.m{opacity:0.8;}.n,.q{fill:#fff;}.p{opacity:0.6;}.r{fill:#0e806a;}.s{fill:#1a2e35;}.t{fill:#375a64;}.u{fill:#ffbf9d;}.v{fill:#ff9a6c;}.w{opacity:0.3;}.x{fill:#0f5648;}.y{fill:#f5f5f5;}</style></defs><g transform="translate(-96.5 -17.7)"><path class="a" d="M163.6,150.3a34.684,34.684,0,0,1,6.4,6.3l8.2-1.5,5.4,12.6-6.8,4.9a33.2,33.2,0,0,1,.1,8.9l6.8,4.7-5.1,12.7-8.2-1.4a31.842,31.842,0,0,1-6.3,6.4l1.5,8.2L153,217.5l-4.9-6.7a33.2,33.2,0,0,1-8.9.1l-4.7,6.8-12.7-5.1,1.3-8.2a34.684,34.684,0,0,1-6.4-6.3l-8.2,1.5L103.1,187l6.7-4.9a33.2,33.2,0,0,1-.1-8.9l-6.8-4.7,5.1-12.7,8.2,1.3a31.842,31.842,0,0,1,6.3-6.4l-1.5-8.2,12.6-5.4,4.9,6.7a33.2,33.2,0,0,1,8.9-.1l4.7-6.8,12.7,5.1-1.2,8.3ZM149.4,164a14.7,14.7,0,1,0,8.2,19.1h0a14.749,14.749,0,0,0-8.2-19.1Z"/><path class="b" d="M130.1,86.5a19.328,19.328,0,0,1,3.5,3.5l4.5-.8,3,7-3.7,2.7a20.909,20.909,0,0,1,0,5l3.8,2.6-2.8,7-4.5-.7a19.328,19.328,0,0,1-3.5,3.5l.8,4.5-7,3-2.7-3.7a20.084,20.084,0,0,1-4.9,0l-2.6,3.8-7-2.8.7-4.5a19.328,19.328,0,0,1-3.5-3.5l-4.5.8-3-7,3.7-2.7a20.1,20.1,0,0,1-.1-4.9l-3.8-2.6,2.8-7.1,4.5.7a19.328,19.328,0,0,1,3.5-3.5l-.8-4.5,7-3,2.7,3.7a20.921,20.921,0,0,1,5-.1l2.6-3.8,7,2.8-.7,4.6ZM122.3,94a8.143,8.143,0,1,0,4.5,10.6A8.183,8.183,0,0,0,122.3,94Z"/><path class="c" d="M222,30.9a45.676,45.676,0,0,1,10.9,5.8l10.2-5.2,12.1,14.6-7,9.1A43.623,43.623,0,0,1,251.8,67l10.9,3.6-1.8,18.8-11.3,1.5a45.675,45.675,0,0,1-5.8,10.9L249,112l-14.6,12-9.1-7a47.67,47.67,0,0,1-11.8,3.7l-3.6,10.9-18.8-1.8-1.4-11.3a45.676,45.676,0,0,1-10.9-5.8l-10.2,5.2-12.1-14.6,7-9.1a43.623,43.623,0,0,1-3.6-11.8L149,78.8,150.7,60,162,58.5a43.538,43.538,0,0,1,5.7-10.9l-5.2-10.2,14.6-12.1,9.1,7A47.67,47.67,0,0,1,198,28.6l3.6-10.9,18.8,1.8L222,30.9ZM208.6,54.5a20.289,20.289,0,1,0,18.3,22.1h0a20.426,20.426,0,0,0-18.3-22.1Z"/><path class="d" d="M160.3,450.7c12.5-8.2,15.6-23.8,15.5-38,0-2.4.3-4.8-.8-6.9s-3.7-3.6-5.9-2.6c-1.8.8-2.6,2.8-3.6,4.5a14,14,0,0,1-5.7,5.1c-1.5.7-3.4,1.2-4.9.3-2-1.2-2.2-4-2.1-6.3.1-4.4.3-8.7.4-13.1a23.642,23.642,0,0,0-.5-7,7.29,7.29,0,0,0-4.5-5c-2.3-.7-5.1.5-5.6,2.8a14.079,14.079,0,0,0-.1,2.9,2.526,2.526,0,0,1-1.5,2.3,2.882,2.882,0,0,1-2.6-1.1,30.806,30.806,0,0,1-5.5-8.6,38.793,38.793,0,0,0-5.1-8.8c-2.2-2.6-5.2-4.8-8.6-5s-7.1,1.7-8,5,.9,6.7,3,9.4A54.743,54.743,0,0,0,125,391.3a4.939,4.939,0,0,1,1.8,2c.5,1.6-1.1,3.1-2.6,3.6-1.8.5-3.7.3-5.6.5s-3.9.9-4.6,2.6c-1,2.4.9,4.9,2.9,6.6a44.926,44.926,0,0,0,13.3,8,14.215,14.215,0,0,1,4.9,2.5c1.4,1.2,2.2,3.4,1.3,5s-3.1,2.1-4.9,1.7a28.457,28.457,0,0,1-5.1-2c-3.2-1.3-7.5-1.2-9.6,1.6a7.194,7.194,0,0,0-1,6.5,15.435,15.435,0,0,0,3.5,5.9,45.39,45.39,0,0,0,19.2,14c7.5,2.8,14.5,3.6,22.1,1.1"/><path class="e" d="M114.6,368l.2.2.7.6c.6.6,1.5,1.4,2.6,2.5a91.58,91.58,0,0,1,8.8,9.9c1.7,2.2,3.5,4.7,5.3,7.4s3.8,5.7,5.8,8.8a101.08,101.08,0,0,1,5.6,10.2c.9,1.8,1.6,3.7,2.4,5.6s1.6,3.9,2.4,5.9a197.952,197.952,0,0,1,7.9,22.8,105.657,105.657,0,0,1,3.5,19.3,73.927,73.927,0,0,1-.1,13.3c-.2,1.5-.3,2.8-.4,3.6a3.444,3.444,0,0,0-.1.9v.3c0-.1.1-.2.1-.3a5.073,5.073,0,0,1,.2-.9c.2-.8.3-2,.5-3.6a65.7,65.7,0,0,0,.2-13.3,97.307,97.307,0,0,0-3.4-19.4,197.954,197.954,0,0,0-7.9-22.8c-.8-2-1.6-4-2.4-5.9l-2.4-5.7a101.958,101.958,0,0,0-5.7-10.2c-2-3.1-3.9-6.1-5.8-8.8s-3.7-5.2-5.4-7.4a75.792,75.792,0,0,0-9-9.8q-1.8-1.65-2.7-2.4l-.7-.6C114.6,368.1,114.6,368,114.6,368Z"/><path class="e" d="M143.9,407.4c.1-.3.2-.7.3-1,.1-.6.3-1.6.5-2.8.4-2.3.8-5.6,1.3-9.1s.9-6.8,1.4-9.1c.2-1.1.4-2.1.5-2.7.1-.3.1-.7.2-1a1.929,1.929,0,0,0-.3,1c-.2.6-.4,1.6-.7,2.7-.5,2.3-1,5.5-1.5,9.1s-.9,6.7-1.2,9.1c-.1,1.1-.3,2-.4,2.8C144,406.8,143.9,407.1,143.9,407.4Z"/><path class="e" d="M113.5,401.1a5.019,5.019,0,0,0,1.2.2c.8.1,1.9.2,3.3.4,2.8.4,6.6,1,10.8,1.9s8,1.9,10.7,2.6c1.4.4,2.4.7,3.2,1l1.2.3c-.4-.2-.7-.3-1.1-.5a28.047,28.047,0,0,0-3.2-1.1,106.414,106.414,0,0,0-10.7-2.8,99.076,99.076,0,0,0-10.9-1.8c-1.4-.2-2.6-.2-3.3-.3A4.867,4.867,0,0,0,113.5,401.1Z"/><path class="e" d="M156.4,441.3a.52.52,0,0,0,.2-.4l.6-1.1c.5-.9,1.1-2.3,1.9-4,1.6-3.4,3.6-8.2,5.7-13.5s4.1-10.1,5.6-13.6l1.8-4.1.5-1.1a1.577,1.577,0,0,0,.1-.4.52.52,0,0,0-.2.4l-.6,1.1c-.5.9-1.1,2.3-1.9,4-1.6,3.4-3.6,8.2-5.7,13.5s-4.1,10.1-5.6,13.6c-.7,1.7-1.3,3.1-1.8,4.1l-.5,1.1C156.5,441,156.4,441.1,156.4,441.3Z"/><path class="e" d="M116.1,427.4a1.094,1.094,0,0,0,.4.2l1.2.4,4.3,1.5c3.6,1.3,8.7,3.1,14.2,5.1s10.6,3.8,14.2,4.9c1.8.6,3.3,1.1,4.4,1.4l1.2.3a1.577,1.577,0,0,0,.4.1c-.1-.1-.3-.1-.4-.2l-1.2-.4-4.3-1.5c-3.6-1.3-8.6-3.1-14.2-5.1s-10.6-3.8-14.2-5c-1.8-.6-3.3-1.1-4.4-1.4l-1.2-.3Z"/><path class="e" d="M183.8,106.1H639.3a23.259,23.259,0,0,1,23.3,23.3V414.8a23.259,23.259,0,0,1-23.3,23.3H183.8a23.259,23.259,0,0,1-23.3-23.3V129.5A23.345,23.345,0,0,1,183.8,106.1Z"/><rect class="f" width="473.8" height="280.4" transform="translate(173.9 119.3)"/><rect class="g" width="436.2" height="261.6" transform="translate(189.7 138)"/><path class="h" d="M208.4,150.9a3.7,3.7,0,1,1-3.7-3.7h0A3.826,3.826,0,0,1,208.4,150.9Z"/><path class="h" d="M223.3,150.9a3.7,3.7,0,1,1-3.7-3.7h0A3.756,3.756,0,0,1,223.3,150.9Z"/><path class="h" d="M238.2,150.9a3.7,3.7,0,1,1-3.7-3.7h0a3.756,3.756,0,0,1,3.7,3.7Z"/><path class="h" d="M626,166.9c0,.2-97.7.4-218.1.4s-218.1-.2-218.1-.4,97.7-.4,218.1-.4S626,166.7,626,166.9Z"/><path class="i" d="M546,257.3a35.879,35.879,0,0,1,5.8,8.2h9.3l3.5,15-8.4,4.1a37.375,37.375,0,0,1-1.7,9.9l6.6,6.6-8.2,13.1-8.8-3.1a35.879,35.879,0,0,1-8.2,5.8v9.3l-15,3.5-4.1-8.4a37.377,37.377,0,0,1-9.9-1.7l-6.6,6.6L487.2,318l3.1-8.8a35.879,35.879,0,0,1-5.8-8.2h-9.3l-3.5-15,8.4-4.1a37.377,37.377,0,0,1,1.7-9.9l-6.6-6.6,8.2-13.1,8.8,3.1a35.878,35.878,0,0,1,8.2-5.8v-9.3l15-3.5,4.1,8.4a37.377,37.377,0,0,1,9.9,1.7l6.6-6.6,13.1,8.2-3.1,8.8Zm-18.4,12.3a16.552,16.552,0,1,0,5.3,22.8A16.55,16.55,0,0,0,527.6,269.6Z"/><path class="i" d="M555,194.1a19.511,19.511,0,0,1,3.2,4.5h5.2l1.9,8.3-4.6,2.2a26.3,26.3,0,0,1-.9,5.5l3.7,3.6-4.5,7.2-4.9-1.7a19.512,19.512,0,0,1-4.5,3.2v5.2l-8.3,1.9-2.2-4.7a26.3,26.3,0,0,1-5.5-.9l-3.6,3.7-7.2-4.5,1.7-4.9a19.511,19.511,0,0,1-3.2-4.5h-5.2L514,210l4.7-2.2a26.3,26.3,0,0,1,.9-5.5l-3.7-3.6,4.5-7.2,4.9,1.7a19.512,19.512,0,0,1,4.5-3.2v-5.2l8.3-1.9,2.2,4.7a26.3,26.3,0,0,1,5.5.9l3.6-3.7,7.2,4.5-1.6,4.8Zm-10.1,6.8a9.142,9.142,0,1,0,2.9,12.6A9.107,9.107,0,0,0,544.9,200.9Z"/><path class="j" d="M490.9,204a18.98,18.98,0,0,1,2.6,3.7h4.2l1.6,6.7-3.8,1.8a17.562,17.562,0,0,1-.7,4.5l3,2.9-3.7,5.9-3.9-1.4a18.98,18.98,0,0,1-3.7,2.6v4.2l-6.7,1.6-1.8-3.8a17.564,17.564,0,0,1-4.5-.7l-2.9,3-5.9-3.7,1.4-3.9a18.98,18.98,0,0,1-2.6-3.7h-4.2l-1.6-6.7,3.8-1.8a16.184,16.184,0,0,1,.7-4.4l-3-2.9,3.7-5.9,3.9,1.4a18.98,18.98,0,0,1,3.7-2.6v-4.2l6.7-1.6,1.8,3.8a17.564,17.564,0,0,1,4.5.7l2.9-3,5.9,3.7-1.4,3.8Zm-8.3,5.5a7.409,7.409,0,1,0,2.4,10.2A7.336,7.336,0,0,0,482.6,209.5Z"/><path class="k" d="M482.6,209.5l.4.2a6.19,6.19,0,0,1,1.1.9,7.46,7.46,0,0,1,1.6,8,6.815,6.815,0,0,1-2.4,3.2,7.241,7.241,0,0,1-1.9,1.1,5.852,5.852,0,0,1-2.2.5,8.262,8.262,0,0,1-4.6-1.1,7.223,7.223,0,0,1-3-3.7,5.852,5.852,0,0,1-.5-2.2,5.5,5.5,0,0,1,.2-2.2,7.833,7.833,0,0,1,1.9-3.6,7.282,7.282,0,0,1,2.9-1.9,7.77,7.77,0,0,1,5-.1,3.256,3.256,0,0,1,1.2.6l.3.3a17.791,17.791,0,0,0-1.7-.7,7.3,7.3,0,0,0-4.8.2,8.2,8.2,0,0,0-2.8,1.9,6.864,6.864,0,0,0-1.7,3.4,7.412,7.412,0,0,0-.1,2.1,5.375,5.375,0,0,0,.5,2.1,6.856,6.856,0,0,0,2.9,3.4,7.488,7.488,0,0,0,4.3,1.1,5.374,5.374,0,0,0,2.1-.5,7.677,7.677,0,0,0,1.8-1,7.35,7.35,0,0,0,2.3-3,6.519,6.519,0,0,0,.5-3.3,7.859,7.859,0,0,0-1.9-4.4A8.259,8.259,0,0,0,482.6,209.5Z"/><path class="k" d="M490.9,204a.774.774,0,0,1,.1-.3,4.537,4.537,0,0,0,.2-.8c.2-.7.6-1.7,1-3v.1c-1.5-.9-3.5-2.2-5.9-3.6h.1c-.9.9-1.9,1.9-2.9,3l-.1.1h-.1a15.024,15.024,0,0,0-4.4-.7h-.1v-.1c-.6-1.2-1.2-2.4-1.8-3.8l.2.1c-2.1.5-4.4,1-6.7,1.6l.1-.2v4.3l-.1.1a14.239,14.239,0,0,0-3.6,2.6l-.1.1h-.1c-1.2-.4-2.6-.9-3.9-1.4l.2-.1c-1.2,1.8-2.4,3.8-3.7,5.9v-.3c.9.9,1.9,1.9,3,2.9l.1.1v.1a15.024,15.024,0,0,0-.7,4.4v.1l-.1.1c-1.2.6-2.5,1.2-3.8,1.8l.1-.3c.5,2.1,1,4.4,1.6,6.7l-.2-.2h4.3l.1.1a14.974,14.974,0,0,0,2.6,3.6h0c0,.1,0-.2.1.2h0v.2l-.1.2-.2.5-.3,1c-.2.7-.5,1.3-.7,2l-.1-.3c2,1.2,3.9,2.5,5.9,3.7h-.3c1-1,2-2,2.9-3l.1-.1h.1a16.186,16.186,0,0,0,4.4.7h.1l.1.1c.6,1.3,1.2,2.5,1.8,3.8l-.3-.1c2.3-.5,4.6-1,6.7-1.5l-.2.2v-4.3l.1-.1a15.77,15.77,0,0,0,3.6-2.6l.1-.1h.1c1.4.5,2.7.9,3.9,1.4l-.2.1c1.3-2.1,2.5-4,3.7-5.9v.2l-3-3-.1-.1v-.1a17.8,17.8,0,0,0,.8-4.4v-.1h.1c1.4-.7,2.6-1.2,3.8-1.8l-.1.2c-.6-2.6-1.1-4.8-1.5-6.8l.1.1h-4.2a19.8,19.8,0,0,0-1.8-2.8,3.808,3.808,0,0,0-.5-.6l-.3.1.2.2.6.6a16.422,16.422,0,0,1,1.9,2.8h4.2v.1c.4,1.9,1,4.1,1.6,6.7v.1h-.1c-1.2.6-2.4,1.2-3.8,1.8l.1-.1a19,19,0,0,1-.7,4.5v-.2c.9.9,1.9,1.9,3,2.9l.1.1-.1.1c-1.2,1.9-2.4,3.8-3.7,5.9l-.1.1-.1-.1c-1.3-.4-2.6-.9-3.9-1.4h.2a20.72,20.72,0,0,1-3.7,2.7l.1-.2V235h-.2c-2.2.5-4.4,1-6.7,1.6h-.2l-.1-.2c-.6-1.2-1.2-2.5-1.8-3.8l.2.1a14.234,14.234,0,0,1-4.5-.8l.2-.1c-1,1-2,2-2.9,3l-.1.1-.2-.1c-1.9-1.2-3.9-2.4-5.9-3.7l-.2-.1.1-.2c.2-.7.5-1.3.7-2l.3-1,.2-.5.1-.2v-.2h0c.1.5,0,.1,0,.2h0a15.938,15.938,0,0,1-2.7-3.7l.2.1h-4.4v-.2c-.5-2.3-1.1-4.6-1.6-6.7v-.2l.2-.1c1.3-.6,2.6-1.2,3.8-1.8l-.1.2a16.311,16.311,0,0,1,.8-4.5l.1.2c-1-1-2-2-3-2.9l-.1-.1.1-.1c1.3-2,2.5-4,3.7-5.9l.1-.1.2.1c1.4.5,2.7,1,3.9,1.4h-.2a16.7,16.7,0,0,1,3.7-2.6l-.1.2v-4.3h.1c2.4-.5,4.6-1.1,6.7-1.5h.1l.1.1c.6,1.3,1.2,2.6,1.8,3.8l-.1-.1a16.311,16.311,0,0,1,4.5.8h-.1l3-3,.1-.1.1.1c2.4,1.5,4.3,2.8,5.8,3.7h.1v.1c-.5,1.3-.8,2.2-1.1,2.9a6.9,6.9,0,0,1-.3.8C490.9,203.9,490.9,204,490.9,204Z"/><path class="l" d="M417.7,214.9l-2.3-2.7,6.8-3.6L390.8,198l10.6,30.4,3.9-5.1s20.3,35.8,0,57.5c-20.2,21.6-44,16.9-44,16.9l4.6,15s37.4,2.7,57.5-31.2C443.4,247.7,417.7,214.9,417.7,214.9Z"/><path class="l" d="M323.5,289.9l2.3,2.7-6.8,3.6,31.4,10.6-10.6-30.4-3.9,5.1s-20.3-35.8,0-57.5c20.2-21.6,44-16.9,44-16.9l-4.6-15s-37.4-2.7-57.5,31.2C297.7,257.1,323.5,289.9,323.5,289.9Z"/><path class="d" d="M417.7,214.9l-2.3-2.7,6.8-3.6L390.8,198l10.6,30.4,3.9-5.1s20.3,35.8,0,57.5c-20.2,21.6-44,16.9-44,16.9l4.6,15s37.4,2.7,57.5-31.2C443.4,247.7,417.7,214.9,417.7,214.9Z"/><path class="d" d="M323.5,289.9l2.3,2.7-6.8,3.6,31.4,10.6-10.6-30.4-3.9,5.1s-20.3-35.8,0-57.5c20.2-21.6,44-16.9,44-16.9l-4.6-15s-37.4-2.7-57.5,31.2C297.7,257.1,323.5,289.9,323.5,289.9Z"/><g class="m"><path class="n" d="M417.7,214.9l-2.3-2.7,6.8-3.6L390.8,198l10.6,30.4,3.9-5.1s20.3,35.8,0,57.5c-20.2,21.6-44,16.9-44,16.9l4.6,15s37.4,2.7,57.5-31.2C443.4,247.7,417.7,214.9,417.7,214.9Z"/></g><g class="m"><path class="n" d="M323.5,289.9l2.3,2.7-6.8,3.6,31.4,10.6-10.6-30.4-3.9,5.1s-20.3-35.8,0-57.5c20.2-21.6,44-16.9,44-16.9l-4.6-15s-37.4-2.7-57.5,31.2C297.7,257.1,323.5,289.9,323.5,289.9Z"/></g><path class="o" d="M388.5,234.6a24.5,24.5,0,0,1,3.8,5.3h6l2.2,9.7-5.4,2.6a23.223,23.223,0,0,1-1.1,6.4l4.3,4.3-5.3,8.5-5.7-2a24.5,24.5,0,0,1-5.3,3.8v6l-9.7,2.2-2.6-5.4a23.223,23.223,0,0,1-6.4-1.1l-4.2,4.3-8.5-5.3,2-5.7a24.5,24.5,0,0,1-3.8-5.3h-6l-2.2-9.7,5.4-2.6a23.223,23.223,0,0,1,1.1-6.4l-4.3-4.2,5.3-8.5,5.7,2a24.5,24.5,0,0,1,5.3-3.8v-6l9.7-2.2,2.6,5.4a23.223,23.223,0,0,1,6.4,1.1l4.2-4.3,8.5,5.3-2,5.6Zm-11.9,8a10.738,10.738,0,1,0,3.4,14.8A10.82,10.82,0,0,0,376.6,242.6Z"/><g class="p"><path class="q" d="M376.6,242.6a10.738,10.738,0,1,0,3.4,14.8A10.82,10.82,0,0,0,376.6,242.6Z"/></g><path class="r" d="M553.3,381.8H481.8a16.516,16.516,0,0,1-16.5-16.5h0a16.516,16.516,0,0,1,16.5-16.5h71.5a16.516,16.516,0,0,1,16.5,16.5h0A16.516,16.516,0,0,1,553.3,381.8Z"/><path class="n" d="M508.5,370.7a4.1,4.1,0,0,1-1.1-.1c-.4-.1-.7-.2-1-.3a2.361,2.361,0,0,1-.9-.6,5.011,5.011,0,0,1-.7-.8c-.2-.3-.3-.6-.5-.9a3.6,3.6,0,0,1-.2-1.1,5.019,5.019,0,0,1,.2-1.2,3.128,3.128,0,0,1,.5-1,3.044,3.044,0,0,1,.8-.8,5.3,5.3,0,0,1,1-.6l-.3-.3a.52.52,0,0,1-.2-.4c0-.2-.1-.3-.1-.5s-.1-.3-.1-.5a1.7,1.7,0,0,1,.1-.7l.3-.6a2.651,2.651,0,0,1,.5-.6,2.092,2.092,0,0,1,.6-.4,4.872,4.872,0,0,1,.7-.3,1.7,1.7,0,0,1,.7-.1h.2a1.268,1.268,0,0,1,.6.1,1.421,1.421,0,0,1,.6.2l.6.3a2.092,2.092,0,0,1,.6.4l-.8,1.6c-.1-.1-.2-.1-.3-.2a.367.367,0,0,0-.3-.1c-.1,0-.2-.1-.3-.1h-.4a.6.6,0,0,0-.4.1.52.52,0,0,0-.4.2l-.3.3c-.1.1-.1.2-.1.4,0,.1,0,.2.1.2s.2.1.3.2a.6.6,0,0,0,.4.1h1.8a3.444,3.444,0,0,0,.9-.1l-.2,2.1c-.4,0-.7.1-1,.1s-.6.1-.8.1a2.353,2.353,0,0,0-.8.2,6.886,6.886,0,0,1-.8.3c-.1,0-.2.1-.3.1s-.2.1-.3.2a1.38,1.38,0,0,1-.4.3,1.38,1.38,0,0,0-.3.4.758.758,0,0,0-.2.4.9.9,0,0,0-.1.5,1.445,1.445,0,0,0,.2.7,1.024,1.024,0,0,0,.6.5,1.909,1.909,0,0,0,.8.3,2.768,2.768,0,0,0,.9.1h.6c.2,0,.4-.1.6-.1s.4-.2.7-.3a2.507,2.507,0,0,0,.7-.4l1,1.6-.9.6a2.994,2.994,0,0,1-1,.4,2.92,2.92,0,0,1-.9.2A2.7,2.7,0,0,0,508.5,370.7Z"/><path class="n" d="M512.3,368.6l1.2-.3a10.371,10.371,0,0,0,1-.4,1.794,1.794,0,0,0,.7-.5c.2-.2.4-.3.5-.5H515a2.958,2.958,0,0,1-1-.2,2.177,2.177,0,0,1-.8-.5,1.793,1.793,0,0,1-.5-.7,2.959,2.959,0,0,1-.2-1,1.7,1.7,0,0,1,.1-.7c.1-.2.1-.5.2-.7a2.093,2.093,0,0,1,.4-.6,1.2,1.2,0,0,1,.5-.5,2.093,2.093,0,0,1,.6-.4,1.268,1.268,0,0,1,.6-.1,1.884,1.884,0,0,1,.8.2,3.039,3.039,0,0,1,.7.5c.2.2.4.5.6.7a3.553,3.553,0,0,1,.4.9,2.919,2.919,0,0,1,.2.9c0,.3.1.6.1.9a5.065,5.065,0,0,1-.2,1.3,3.7,3.7,0,0,1-.5,1.1,6.471,6.471,0,0,1-.8.9,3.592,3.592,0,0,1-1,.7,6.117,6.117,0,0,1-1.2.5,4.951,4.951,0,0,1-1.3.4Zm2.6-5.2a.367.367,0,0,0-.3.1c-.1.1-.2.1-.2.2-.1.1-.1.2-.2.3,0,.1-.1.2-.1.3s0,.1.1.2c.1,0,.1.1.2.1s.2.1.3.1h1.1c0-.2-.1-.3-.1-.5-.1-.2-.1-.3-.2-.5s-.2-.3-.3-.3C515.2,363.5,515,363.4,514.9,363.4Z"/><path class="n" d="M521,362.8a7.6,7.6,0,0,1,.4,1.1,1.629,1.629,0,0,0,.3.6c.1.1.1.3.2.3.1.1.1.1.2.1h.1V367h-.3a.367.367,0,0,1-.3-.1,2.22,2.22,0,0,1-.5,1.1,3.916,3.916,0,0,1-.8,1,9.013,9.013,0,0,1-1,.9c-.4.3-.8.5-1.2.8L517,369a6.723,6.723,0,0,0,1.1-.7c.4-.3.6-.5.9-.7a5.01,5.01,0,0,0,.7-.8,1.613,1.613,0,0,0,.3-.9c-.1-.2-.1-.4-.2-.5s-.1-.3-.2-.5-.1-.4-.2-.6a4.875,4.875,0,0,1-.3-.7Z"/><path class="n" d="M522.1,364.9a1.421,1.421,0,0,0,.6-.2,1,1,0,0,0,.4-.5c.1-.2.2-.5.3-.7a2.921,2.921,0,0,0,.2-.9l1.8.3c0,.1-.1.3-.1.4,0,.2-.1.3-.1.5s-.1.3-.1.5v.7a.1.1,0,0,0,.1.1c.1,0,.2-.1.3-.1l.3-.3c.1-.1.1-.3.2-.4.1-.2.1-.3.2-.5a4.332,4.332,0,0,1,.1-.5c0-.1.1-.4.1-.5l1.6.3v.4a.9.9,0,0,1-.1.5v.9c0,.1.1.2.2.3a.367.367,0,0,0,.3.1c.2,0,.3,0,.4-.1s.2-.2.2-.3.1-.3.1-.4a1.088,1.088,0,0,0-.1-.5c-.1-.2-.1-.3-.2-.5s-.1-.3-.2-.5-.1-.3-.2-.4a.367.367,0,0,1-.1-.3l1.5-.9a4.875,4.875,0,0,1,.3.7c.1.3.2.5.3.8a2.921,2.921,0,0,1,.2.9c0,.3.1.6.1.9a2.958,2.958,0,0,1-.2,1,2.1,2.1,0,0,1-1.3,1.3,3.6,3.6,0,0,1-1.1.2.9.9,0,0,1-.5-.1c-.2-.1-.3-.1-.4-.2l-.3-.3c-.1-.1-.2-.2-.2-.3-.1.1-.1.2-.2.3l-.3.3c-.1.1-.3.1-.4.2a.749.749,0,0,1-.5.1.9.9,0,0,1-.5-.1.758.758,0,0,1-.4-.2l-.3-.3c-.1-.1-.2-.2-.2-.3-.1.1-.1.2-.2.3a.52.52,0,0,1-.4.2c-.1.1-.3.1-.5.2-.2,0-.4.1-.6.1H522V365h.1Zm4.8-4.7-1,1-1-1,1-1,1,1,1-1,1,1-1,1Zm1-1.6-.9.9-.9-.9.9-.9Z"/><path class="e" d="M330.9,337.4a7.568,7.568,0,0,1-1.5-.1c-.5-.1-.9-.2-1.3-.3a10.911,10.911,0,0,1-1.1-.6,3.819,3.819,0,0,1-.9-.9,4.5,4.5,0,0,1-.6-1.2,3.887,3.887,0,0,1-.2-1.5,3.749,3.749,0,0,1,.1-1.1,4.253,4.253,0,0,1,.2-1.1c.1-.4.2-.8.3-1.1a11.214,11.214,0,0,1,.5-1.3l2.2.9a4.179,4.179,0,0,0-.4,1c-.1.3-.2.7-.3,1s-.1.6-.2.9c0,.3-.1.6-.1.8a2.2,2.2,0,0,0,.1.8,1.838,1.838,0,0,0,1,1,1.445,1.445,0,0,0,.7.2,1.7,1.7,0,0,0,.7.1h1.2a1.952,1.952,0,0,0,.7-.1,2.2,2.2,0,0,1,.8-.1,1.445,1.445,0,0,0,.7-.2c.2-.1.4-.1.6-.2s.3-.2.3-.3a6.446,6.446,0,0,0-1.4-.6,11.211,11.211,0,0,0-2.1-.4l.3-2.5h5.7v2.6h-.8c.1.1.1.2.1.4v.4a2.663,2.663,0,0,1-.3,1.2,3.114,3.114,0,0,1-.7.9,8.656,8.656,0,0,1-1,.7,9.741,9.741,0,0,1-1.1.5l-1.2.3C331.5,337.6,331.2,337.4,330.9,337.4Z"/><path class="e" d="M336.6,330.4h1.3c.2,0,.4-.1.6-.1.2-.1.3-.1.4-.2s.2-.2.2-.3a.756.756,0,0,0-.1-.4l-.3-.6a5.9,5.9,0,0,0-.4-.8,5.9,5.9,0,0,1-.4-.8l2.4-1.2a10.374,10.374,0,0,1,.4,1c.1.3.2.7.3,1a3.554,3.554,0,0,1,.2,1,2.768,2.768,0,0,1,.1.9,3.34,3.34,0,0,1-.3,1.5,2.723,2.723,0,0,1-.8,1,2.281,2.281,0,0,1-1.2.6,7.772,7.772,0,0,1-1.6.2h-.9v-2.8Zm2.1-5.1-1.5-1.5,1.5-1.5,1.5,1.5Z"/><path class="e" d="M345.7,333a6.052,6.052,0,0,1-1.5-.2,2.553,2.553,0,0,1-1-.7,2.075,2.075,0,0,1-.6-1,5.066,5.066,0,0,1-.2-1.3v-3.6a10.868,10.868,0,0,0-.1-1.8c-.1-.6-.1-1.2-.2-1.9l2.5-.8a11.019,11.019,0,0,1,.2,1.8c0,.6.1,1.3.1,1.9v4.2c0,.2,0,.3.1.4s.1.2.2.2a.749.749,0,0,0,.5.1h.2v2.6h-.2Z"/><path class="e" d="M345.8,330.4a1.445,1.445,0,0,0,.7-.2,2.651,2.651,0,0,0,.5-.6c.1-.3.3-.6.4-.9s.2-.7.3-1.1l2.2.4c0,.2-.1.3-.1.5s-.1.4-.1.6-.1.4-.1.6v.5a.6.6,0,0,0,.1.4c.1.1.1.1.2.1a.52.52,0,0,0,.4-.2,1.38,1.38,0,0,0,.3-.4l.3-.6a6.373,6.373,0,0,0,.2-.7,1.952,1.952,0,0,0,.1-.7c0-.2.1-.4.1-.6l2,.3a1.087,1.087,0,0,1-.1.5,1.268,1.268,0,0,1-.1.6v.6a1.268,1.268,0,0,0,.1.6c.1.2.1.3.2.4a.52.52,0,0,0,.4.2.749.749,0,0,0,.5-.1,1.38,1.38,0,0,0,.3-.4.9.9,0,0,0,.1-.5,1.268,1.268,0,0,0-.1-.6,1.421,1.421,0,0,0-.2-.6,1.421,1.421,0,0,1-.2-.6,1.69,1.69,0,0,1-.2-.5c-.1-.2-.1-.3-.2-.4l2-1.1a3.553,3.553,0,0,0,.4.9c.1.3.3.7.4,1s.2.7.3,1.1a4.1,4.1,0,0,1,.1,1.1,5.066,5.066,0,0,1-.2,1.3,2.4,2.4,0,0,1-1.6,1.6,5.9,5.9,0,0,1-1.4.2,1.268,1.268,0,0,1-.6-.1,2.187,2.187,0,0,1-.5-.3,1.768,1.768,0,0,1-.7-.7c-.1.1-.2.3-.3.4s-.3.2-.4.3c-.2.1-.3.2-.5.2s-.4.1-.7.1a1.268,1.268,0,0,1-.6-.1c-.2-.1-.4-.1-.5-.2a1.381,1.381,0,0,1-.4-.3c-.1-.1-.2-.3-.3-.4-.1.1-.2.3-.3.4s-.3.2-.4.3c-.2.1-.4.1-.6.2a1.7,1.7,0,0,1-.7.1h-.2v-2.6h-.3Z"/><path class="e" d="M360.9,327.7c.1.3.2.6.3,1,.1.3.2.7.3,1a3.554,3.554,0,0,1,.2,1,3.4,3.4,0,0,1,.1,1,5.663,5.663,0,0,1-.3,1.8,5.072,5.072,0,0,1-.9,1.6,9.265,9.265,0,0,1-1.4,1.4,7.846,7.846,0,0,1-1.8,1.1l-1.6-2.1c.5-.3.9-.5,1.4-.8a10.594,10.594,0,0,0,1.2-1,7.006,7.006,0,0,0,.8-1,6.894,6.894,0,0,0,.4-1,2.353,2.353,0,0,1-.2-.8c-.1-.3-.2-.5-.3-.8-.1-.2-.2-.5-.3-.7s-.2-.5-.3-.7Z"/><path class="e" d="M370.6,327.7c.1.3.2.6.3,1,.1.3.2.7.3,1a3.554,3.554,0,0,1,.2,1,3.4,3.4,0,0,1,.1,1,5.663,5.663,0,0,1-.3,1.8,5.072,5.072,0,0,1-.9,1.6,9.265,9.265,0,0,1-1.4,1.4,7.846,7.846,0,0,1-1.8,1.1l-1.6-2.1c.5-.3.9-.5,1.4-.8a10.594,10.594,0,0,0,1.2-1,7.006,7.006,0,0,0,.8-1,6.894,6.894,0,0,0,.4-1,2.353,2.353,0,0,1-.2-.8c-.1-.3-.2-.5-.3-.8-.1-.2-.2-.5-.3-.7s-.2-.5-.3-.7Zm-1.3-1.1-1.5-1.5,1.5-1.5,1.5,1.5Z"/><path class="e" d="M371.8,335.1a8.333,8.333,0,0,0,1.5-.4,7.256,7.256,0,0,0,1.2-.5,3.49,3.49,0,0,0,.9-.6c.2-.2.5-.4.6-.6h-.8a2.768,2.768,0,0,1-1.3-.3,2.075,2.075,0,0,1-1-.6,2.362,2.362,0,0,1-.6-.9,2.537,2.537,0,0,1-.2-1.2,2.768,2.768,0,0,1,.1-.9l.3-.9a2.177,2.177,0,0,1,.5-.8,4.351,4.351,0,0,1,.6-.7c.2-.2.5-.3.7-.5a1.884,1.884,0,0,1,.8-.2,2.958,2.958,0,0,1,1,.2l.9.6a5.5,5.5,0,0,1,.7.9,3.7,3.7,0,0,1,.5,1.1l.3,1.2a4.868,4.868,0,0,1,.1,1.2,7.772,7.772,0,0,1-.2,1.6,5.91,5.91,0,0,1-.6,1.4,10.594,10.594,0,0,1-1,1.2,6.014,6.014,0,0,1-1.3.9c-.5.2-1,.5-1.5.7a9.829,9.829,0,0,1-1.6.5Zm3.3-6.6a.756.756,0,0,0-.4.1l-.3.3c-.1.1-.1.3-.2.4a.6.6,0,0,0-.1.4c0,.1,0,.2.1.2.1.1.2.1.3.2.1,0,.3.1.4.1a.9.9,0,0,1,.5.1h.9c0-.2-.1-.4-.1-.6l-.3-.6c-.1-.2-.3-.3-.4-.4A.52.52,0,0,0,375.1,328.5Z"/><path class="e" d="M382.9,327.7c.1.3.2.6.3,1,.1.3.2.7.3,1a3.553,3.553,0,0,1,.2,1,3.4,3.4,0,0,1,.1,1,5.663,5.663,0,0,1-.3,1.8,5.072,5.072,0,0,1-.9,1.6,9.265,9.265,0,0,1-1.4,1.4,7.846,7.846,0,0,1-1.8,1.1l-1.6-2.1c.5-.3.9-.5,1.4-.8a10.594,10.594,0,0,0,1.2-1,7.006,7.006,0,0,0,.8-1,6.894,6.894,0,0,0,.4-1,2.353,2.353,0,0,1-.2-.8c-.1-.3-.2-.5-.3-.8a4.877,4.877,0,0,0-.3-.7c-.1-.2-.2-.5-.3-.7Z"/><path class="e" d="M392.2,332.1a5.282,5.282,0,0,1-1.3-.1,2.22,2.22,0,0,1-1.1-.5,2.7,2.7,0,0,1-.7-.8,2.133,2.133,0,0,1-.3-1.2,2.92,2.92,0,0,1,.2-.9,3,3,0,0,1,.4-.8c.2-.2.4-.5.6-.7s.5-.4.7-.6a2.506,2.506,0,0,1,.7-.4l.6-.3-.1-.8,2.6-.6c.1.9.2,1.6.3,2.3a14.051,14.051,0,0,1,.2,1.8,3.087,3.087,0,0,0,.2,1.1.584.584,0,0,0,.1.4c0,.1.1.1.2.2s.2,0,.4,0h.1v2.6h-.2a5.9,5.9,0,0,1-1.4-.2,2.54,2.54,0,0,1-1-.8h-.6A.6.6,0,0,1,392.2,332.1Zm-1.4-2.7a.349.349,0,0,0,.2.1c.1,0,.3.1.4.1h.6a.749.749,0,0,0,.5-.1l-.2-1.6a4.557,4.557,0,0,0-1,.7l-.4.4A.756.756,0,0,0,390.8,329.4Z"/><path class="e" d="M395.7,330.4H397c.2,0,.4-.1.6-.1.2-.1.3-.1.4-.2s.2-.2.2-.3a.756.756,0,0,0-.1-.4l-.3-.6a5.9,5.9,0,0,0-.4-.8,5.937,5.937,0,0,0-.4-.8l2.4-1.2a10.374,10.374,0,0,1,.4,1c.1.4.2.7.3,1a3.553,3.553,0,0,1,.2,1c0,.3.1.6.1.9a3.34,3.34,0,0,1-.3,1.5,2.723,2.723,0,0,1-.8,1,2.281,2.281,0,0,1-1.2.6,7.772,7.772,0,0,1-1.6.2h-.9v-2.8Zm2.1,5.9-1.5-1.5,1.5-1.5,1.5,1.5Z"/><path class="s" d="M439.2,370.3c0,.1-30.7.3-68.6.3s-68.6-.1-68.6-.3c0-.1,30.7-.3,68.6-.3S439.2,370.2,439.2,370.3Z"/><path class="s" d="M411.9,378.7c0,.1-18.5.3-41.3.3s-41.3-.1-41.3-.3c0-.1,18.5-.3,41.3-.3C393.4,378.5,411.9,378.6,411.9,378.7Z"/><path class="l" d="M222,454.6l-6.1,22.5,19.8,1.8,4.1-21.4Z"/><path class="s" d="M236.2,477.1a15.964,15.964,0,0,1-2.9-.1c-1.8-.1-4.2-.4-6.9-.8-2.6-.3-5-.7-6.9-.9a8.684,8.684,0,0,1-2.8-.5,15.964,15.964,0,0,1,2.9.1c1.8.1,4.2.4,6.9.8,2.6.3,4.9.7,6.9.9A10.835,10.835,0,0,1,236.2,477.1Z"/><g class="p"><path class="n" d="M215.9,477.1l19.8,1.8.3-1.7-19.5-2.4-.6,2.1"/></g><path class="s" d="M225.7,476.1a83.874,83.874,0,0,1,1.9-8.6c1.2-4.7,2.2-8.5,2.3-8.5a83.874,83.874,0,0,1-1.9,8.6A82.143,82.143,0,0,1,225.7,476.1Z"/><path class="s" d="M235.1,476.9a9.37,9.37,0,0,0,0-4.2,8.628,8.628,0,0,0-2.2-3.9,8.35,8.35,0,0,0-10.2-1.1,9.666,9.666,0,0,0-3.1,3.3,9.548,9.548,0,0,0-1.2,4v-1.2a9.6,9.6,0,0,1,.9-3,9.143,9.143,0,0,1,3.1-3.5A8.676,8.676,0,0,1,228,466a8.437,8.437,0,0,1,5.2,2.4,8.309,8.309,0,0,1,2.2,4.1,6.829,6.829,0,0,1,0,3.2,4.5,4.5,0,0,0-.2.8C235.2,476.8,235.2,476.9,235.1,476.9Z"/><path class="l" d="M303.5,448.6l-1.3,20s19.9,6.6,20,10.3l-38.8.3.8-31.2Z"/><g class="p"><path class="n" d="M290.3,466.5a1.491,1.491,0,0,0-1.1,1.8,1.6,1.6,0,0,0,1.7,1.2,1.662,1.662,0,0,0,1.2-1.9,1.7,1.7,0,0,0-2-1"/></g><g class="p"><path class="n" d="M283.4,479.1l.1-3.1,37.5,1a2.6,2.6,0,0,1,1.4,2.1Z"/></g><path class="s" d="M302.8,468.4c0,.2-1,.2-1.9.8-1,.6-1.5,1.4-1.6,1.3-.2,0,.1-1.2,1.3-1.8C301.7,467.9,302.9,468.2,302.8,468.4Z"/><path class="s" d="M306.8,470.2c0,.2-.8.5-1.5,1.3s-.9,1.6-1.1,1.6-.3-1.1.6-2C305.7,470,306.8,470,306.8,470.2Z"/><path class="s" d="M309,475.1c-.2,0-.4-.9.1-1.9s1.4-1.4,1.5-1.2-.5.7-.9,1.5S309.2,475.1,309,475.1Z"/><path class="s" d="M302.6,463.8c-.1.2-.9-.1-2-.1s-1.9.4-2,.2c-.1-.1.7-.8,2-.8C301.9,463,302.7,463.6,302.6,463.8Z"/><path class="s" d="M302.8,459.8a2.938,2.938,0,0,1-1.9-.1,6,6,0,0,1-2-.7c-.4-.2-.7-.4-1.1-.6a1.333,1.333,0,0,1-.6-.5.9.9,0,0,1-.1-1,1.033,1.033,0,0,1,.8-.4c.3,0,.5.1.7.1a6.118,6.118,0,0,1,1.2.5,14.032,14.032,0,0,1,1.8,1.2c.9.9,1.2,1.6,1.1,1.6-.1.1-.5-.5-1.4-1.3a5.452,5.452,0,0,0-1.7-1c-.3-.1-.7-.3-1.1-.4a1.308,1.308,0,0,0-.9,0v.2a1.38,1.38,0,0,0,.4.3c.3.2.7.4,1,.6a9.725,9.725,0,0,0,1.9.8C302.1,459.6,302.8,459.7,302.8,459.8Z"/><path class="s" d="M302.6,460a3.471,3.471,0,0,1-.5-1.9,8.815,8.815,0,0,1,.3-2.1,6.118,6.118,0,0,1,.5-1.2,1.353,1.353,0,0,1,1.3-.9.871.871,0,0,1,.8.6,6.375,6.375,0,0,0,.2.7,5.633,5.633,0,0,1,0,1.3,4.106,4.106,0,0,1-.9,2c-.8,1-1.6,1.2-1.6,1.1-.1-.1.6-.4,1.2-1.4a4.842,4.842,0,0,0,.7-1.8,4.052,4.052,0,0,0,0-1.1c0-.4-.2-.8-.3-.7-.2,0-.5.3-.7.6a4.671,4.671,0,0,0-.5,1,4.979,4.979,0,0,0-.4,1.9C302.5,459.3,302.7,460,302.6,460Z"/><path class="s" d="M303.5,275.2l-59.1-.4L215.8,462.4l24.6,3.2,31.4-154.4,9.4,154.9v.5l26.6-.5Z"/><path class="t" d="M276.6,290.4a10.9,10.9,0,0,0,1.2-.1c.9,0,2.1-.1,3.6-.1,3.2-.1,7.6-.2,12.8-.4h.2v12.6l-.1.1c-.7.7-1.5,1.3-2.2,2q-3.45,3.15-6.6,6l-.2.2-.2-.2q-4.95-4.35-8.7-7.8l-.1-.1v-.1c0-3.7.1-6.8.1-9a16.27,16.27,0,0,1,.1-2.4,3.2,3.2,0,0,0,.1-.7v.9c0,.6,0,1.4.1,2.5,0,2.2.1,5.2.1,8.9l-.1-.2c2.5,2.2,5.5,4.9,8.8,7.7h-.3c2.1-1.9,4.3-3.9,6.5-6,.8-.7,1.5-1.4,2.2-2l-.1.2V290.1l.2.2c-5.2,0-9.5.1-12.6.1h-4.8Z"/><path class="t" d="M248.8,289.6a8.658,8.658,0,0,1,1.1.1c.8.1,1.9.2,3.2.3,2.8.3,6.8.6,11.5,1h.2v.2c-.4,3.6-.9,7.8-1.5,12.2v.1l-.1.1c-.8.6-1.7,1.3-2.5,2-2.2,1.7-4.3,3.4-6.3,5l-.2.2-.2-.2c-2.5-3.2-4.9-6.2-6.9-8.7l-.1-.1v-.1c.5-3.7.9-6.7,1.2-8.9.1-1,.3-1.8.3-2.4.2-.5.3-.8.3-.8a6.173,6.173,0,0,1-.1.9c-.1.6-.1,1.4-.2,2.5-.2,2.2-.6,5.2-1,8.8v-.2c2,2.5,4.4,5.4,6.9,8.6H254c2-1.6,4.1-3.3,6.3-5,.9-.7,1.7-1.4,2.6-2l-.1.2c.6-4.4,1.1-8.5,1.5-12.2l.2.3c-4.6-.5-8.5-1-11.3-1.3-1.3-.2-2.4-.3-3.2-.4A11.309,11.309,0,0,1,248.8,289.6Z"/><path class="t" d="M285,318.1a20.274,20.274,0,0,1-2.7-1.3c-1.6-.9-3.9-2-6.4-3.3-2.5-1.2-4.8-2.3-6.5-3.1a15.279,15.279,0,0,1-2.7-1.4,12.666,12.666,0,0,1,2.8,1c1.7.7,4,1.7,6.5,3s4.7,2.5,6.3,3.4A13.433,13.433,0,0,1,285,318.1Z"/><path class="t" d="M284.2,322.6a5.9,5.9,0,0,1-2-.8,17.517,17.517,0,0,1-7.3-7.3,10.905,10.905,0,0,1-.8-2c.2-.1,1.4,3,4.3,5.8A23.882,23.882,0,0,0,284.2,322.6Z"/><path class="t" d="M300.9,376.9a2.483,2.483,0,0,1-.3,1,13.422,13.422,0,0,1-1.2,2.5,14.873,14.873,0,0,1-15.9,6.7c-1.1-.3-2-.6-2.6-.8a9.24,9.24,0,0,1-.9-.5,27.074,27.074,0,0,0,3.6,1,15.841,15.841,0,0,0,8.8-1,16.379,16.379,0,0,0,6.8-5.6C300.4,378.2,300.8,376.8,300.9,376.9Z"/><path class="t" d="M297,375.3a7.222,7.222,0,0,1-2.3,1,21.784,21.784,0,0,1-5.9,1,33.92,33.92,0,0,1-5.9-.3,6.183,6.183,0,0,1-2.4-.6c0-.2,3.7.5,8.3.4a27.928,27.928,0,0,0,5.8-.8A10.3,10.3,0,0,1,297,375.3Z"/><path class="t" d="M253,376.4a16.881,16.881,0,0,1-2.1,1.9,24.382,24.382,0,0,1-5.9,3.2,23.717,23.717,0,0,1-6.6,1.4,8.057,8.057,0,0,1-2.8-.1,25.62,25.62,0,0,1,2.7-.3,28.315,28.315,0,0,0,6.4-1.6,31.977,31.977,0,0,0,5.9-3C252.2,377,253,376.3,253,376.4Z"/><path class="t" d="M247.9,376.2a13.261,13.261,0,0,1-5.4.4,13.616,13.616,0,0,1-5.3-1.3c0-.2,2.4.5,5.3.8C245.4,376.3,247.8,376,247.9,376.2Z"/><path class="t" d="M271.5,312.5a10.049,10.049,0,0,1-2.7,1.2,46.378,46.378,0,0,1-6.8,1.8,36.316,36.316,0,0,1-7,.4,12.108,12.108,0,0,1-2.9-.3c0-.1,1.1,0,2.9-.1a48.243,48.243,0,0,0,6.9-.6,49.381,49.381,0,0,0,6.8-1.6C270.4,312.8,271.4,312.5,271.5,312.5Z"/><path class="t" d="M269.8,306.5c.1,0,.3.5.3,1,0,.6-.1,1-.3,1-.1,0-.3-.5-.3-1C269.6,306.9,269.7,306.5,269.8,306.5Z"/><path class="t" d="M269.8,302.3c.1,0,.3.5.3,1,0,.6-.1,1-.3,1-.1,0-.3-.5-.3-1C269.6,302.8,269.7,302.3,269.8,302.3Z"/><path class="t" d="M269.9,298.2c.1,0,.3.5.2,1,0,.6-.1,1-.3,1-.1,0-.3-.5-.2-1C269.6,298.6,269.8,298.2,269.9,298.2Z"/><path class="t" d="M270.1,294c.1,0,.2.5.2,1.1s-.2,1-.3,1-.2-.5-.2-1.1C269.8,294.5,269.9,294,270.1,294Z"/><path class="t" d="M270.3,289.9c.1,0,.2.5.2,1.1s-.2,1-.3,1-.2-.5-.2-1.1S270.2,289.8,270.3,289.9Z"/><path class="t" d="M270.7,285.7c.1,0,.2.5.2,1.1s-.2,1-.4,1c-.1,0-.2-.5-.2-1.1C270.4,286.2,270.5,285.7,270.7,285.7Z"/><path class="t" d="M271,282.3c.1,0,.2.3.2.7s-.2.6-.3.6-.2-.3-.2-.7C270.7,282.6,270.8,282.3,271,282.3Z"/><path class="t" d="M237.6,461.4c.1,0,.2.5.1,1.1s-.3,1-.5,1c-.1,0-.2-.5-.1-1.1S237.4,461.4,237.6,461.4Z"/><path class="t" d="M238.4,457.4c.1,0,.2.5.1,1.1s-.3,1-.5,1c-.1,0-.2-.5-.1-1.1S238.2,457.3,238.4,457.4Z"/><path class="t" d="M239.2,453.3c.1,0,.2.5.1,1.1s-.3,1-.5,1c-.1,0-.2-.5-.1-1.1A1.416,1.416,0,0,1,239.2,453.3Z"/><path class="t" d="M240,449.2c.1,0,.2.5.1,1.1s-.3,1-.5,1c-.1,0-.2-.5-.1-1.1C239.7,449.6,239.9,449.2,240,449.2Z"/><path class="t" d="M240.8,445.1c.1,0,.2.5.1,1.1s-.3,1-.5,1c-.1,0-.2-.5-.1-1.1C240.5,445.5,240.7,445.1,240.8,445.1Z"/><path class="t" d="M241.6,441.1c.1,0,.2.5.1,1.1s-.3,1-.5,1c-.1,0-.2-.5-.1-1.1C241.3,441.5,241.5,441,241.6,441.1Z"/><path class="t" d="M242.5,437c.1,0,.2.5.1,1.1s-.3,1-.5,1c-.1,0-.2-.5-.1-1.1S242.3,436.9,242.5,437Z"/><path class="t" d="M243.3,432.9c.1,0,.2.5.1,1.1s-.3,1-.5,1c-.1,0-.2-.5-.1-1.1S243.1,432.9,243.3,432.9Z"/><path class="t" d="M244.1,428.8c.1,0,.2.5.1,1.1s-.3,1-.5,1c-.1,0-.2-.5-.1-1.1S243.9,428.8,244.1,428.8Z"/><path class="t" d="M244.9,424.7c.1,0,.2.5.1,1.1s-.3,1-.5,1c-.1,0-.2-.5-.1-1.1A1.746,1.746,0,0,1,244.9,424.7Z"/><path class="t" d="M245.7,420.7c.1,0,.2.5.1,1.1s-.3,1-.5,1c-.1,0-.2-.5-.1-1.1C245.4,421.1,245.6,420.6,245.7,420.7Z"/><path class="t" d="M246.5,416.6c.1,0,.2.5.1,1.1s-.3,1-.5,1c-.1,0-.2-.5-.1-1.1C246.2,417,246.4,416.6,246.5,416.6Z"/><path class="t" d="M247.4,412.5c.1,0,.2.5.1,1.1s-.3,1-.5,1c-.1,0-.2-.5-.1-1.1S247.2,412.5,247.4,412.5Z"/><path class="t" d="M248.2,408.4c.1,0,.2.5.1,1.1s-.3,1-.5,1c-.1,0-.2-.5-.1-1.1S248,408.4,248.2,408.4Z"/><path class="t" d="M249,404.4c.1,0,.2.5.1,1.1s-.3,1-.5,1c-.1,0-.2-.5-.1-1.1S248.8,404.3,249,404.4Z"/><path class="t" d="M249.8,400.3c.1,0,.2.5.1,1.1s-.3,1-.5,1c-.1,0-.2-.5-.1-1.1A1.416,1.416,0,0,1,249.8,400.3Z"/><path class="t" d="M250.6,396.2c.1,0,.2.5.1,1.1s-.3,1-.5,1c-.1,0-.2-.5-.1-1.1C250.3,396.6,250.5,396.2,250.6,396.2Z"/><path class="t" d="M251.4,392.1c.1,0,.2.5.1,1.1s-.3,1-.5,1c-.1,0-.2-.5-.1-1.1C251.1,392.5,251.3,392.1,251.4,392.1Z"/><path class="t" d="M252.2,388.1c.1,0,.2.5.1,1.1s-.3,1-.5,1c-.1,0-.2-.5-.1-1.1C251.9,388.5,252.1,388,252.2,388.1Z"/><path class="t" d="M253.1,384c.1,0,.2.5.1,1.1s-.3,1-.5,1-.2-.5-.1-1.1S252.9,384,253.1,384Z"/><path class="t" d="M253.9,379.9c.1,0,.2.5.1,1.1s-.3,1-.5,1c-.1,0-.2-.5-.1-1.1S253.7,379.9,253.9,379.9Z"/><path class="t" d="M254.7,375.8c.1,0,.2.5.1,1.1s-.3,1-.5,1c-.1,0-.2-.5-.1-1.1S254.5,375.8,254.7,375.8Z"/><path class="t" d="M255.5,371.8c.1,0,.2.5.1,1.1s-.3,1-.5,1c-.1,0-.2-.5-.1-1.1C255.2,372.2,255.4,371.7,255.5,371.8Z"/><path class="t" d="M256.3,367.7c.1,0,.2.5.1,1.1s-.3,1-.5,1c-.1,0-.2-.5-.1-1.1C256,368.1,256.2,367.6,256.3,367.7Z"/><path class="t" d="M257.1,363.6c.1,0,.2.5.1,1.1s-.3,1-.5,1c-.1,0-.2-.5-.1-1.1C256.8,364,257,363.6,257.1,363.6Z"/><path class="t" d="M258,359.5c.1,0,.2.5.1,1.1s-.3,1-.5,1c-.1,0-.2-.5-.1-1.1S257.8,359.5,258,359.5Z"/><path class="t" d="M258.8,355.4c.1,0,.2.5.1,1.1s-.3,1-.5,1c-.1,0-.2-.5-.1-1.1C258.4,355.9,258.6,355.4,258.8,355.4Z"/><path class="t" d="M259.6,351.4c.1,0,.2.5.1,1.1s-.3,1-.5,1c-.1,0-.2-.5-.1-1.1S259.4,351.3,259.6,351.4Z"/><path class="t" d="M260.4,347.3c.1,0,.2.5.1,1.1s-.3,1-.5,1c-.1,0-.2-.5-.1-1.1A1.416,1.416,0,0,1,260.4,347.3Z"/><path class="t" d="M261.2,343.2c.1,0,.2.5.1,1.1s-.3,1-.5,1c-.1,0-.2-.5-.1-1.1C260.9,343.6,261.1,343.2,261.2,343.2Z"/><path class="t" d="M262,339.1c.1,0,.2.5.1,1.1s-.3,1-.5,1c-.1,0-.2-.5-.1-1.1C261.7,339.5,261.9,339.1,262,339.1Z"/><path class="t" d="M262.8,335.1c.1,0,.2.5.1,1.1s-.3,1-.5,1c-.1,0-.2-.5-.1-1.1C262.5,335.5,262.7,335,262.8,335.1Z"/><path class="t" d="M263.7,331c.1,0,.2.5.1,1.1s-.3,1-.5,1c-.1,0-.2-.5-.1-1.1S263.5,331,263.7,331Z"/><path class="t" d="M264.5,326.9c.1,0,.2.5.1,1.1s-.3,1-.5,1c-.1,0-.2-.5-.1-1.1S264.3,326.9,264.5,326.9Z"/><path class="t" d="M265.3,322.8c.1,0,.2.5.1,1.1s-.3,1-.5,1-.2-.5-.1-1.1S265.1,322.8,265.3,322.8Z"/><path class="t" d="M266.1,318.8c.1,0,.2.5.1,1.1s-.3,1-.5,1c-.1,0-.2-.5-.1-1.1C265.8,319.2,266,318.7,266.1,318.8Z"/><path class="t" d="M266.9,314.7c.1,0,.2.5.1,1.1s-.3,1-.5,1c-.1,0-.2-.5-.1-1.1C266.6,315.1,266.8,314.7,266.9,314.7Z"/><path class="u" d="M355.2,227.8s12.2-2.6,12.4-2.5h0s11.8-3.2,13.3-1.7-.5,2.5-4.7,3.6a13.047,13.047,0,0,0-5.2,2.4l1.5,5.8s3.4,1.4,1.2,3.8a21.521,21.521,0,0,1-3.5,2.7c-.9.7-2.2,1.2-2.6.1a1.588,1.588,0,0,1,.2-1.6c1.3-1.4,2-1.6,1.8-1.8s-9.6,4.5-9.6,4.5Z"/><path class="u" d="M370.9,231.8a12.861,12.861,0,0,1,1.9.4,2.827,2.827,0,0,1,1.5,1.1,2.1,2.1,0,0,1,.4,1.1,2.122,2.122,0,0,1-1,1.3,4.192,4.192,0,0,1-1.6.4"/><path class="u" d="M370.7,228.6a11.627,11.627,0,0,1,1.8.4,3.956,3.956,0,0,1,1.5,1,1.431,1.431,0,0,1,.3,1.1,1.4,1.4,0,0,1-.9,1.2,23.355,23.355,0,0,1-2.6.4"/><path class="u" d="M361.1,225.3,339,233.6v15.8l15.2-7.4s1.8,2.6,4.1,2c2.6-.7,8.5-4.1,8.5-4.1Z"/><path class="v" d="M366.6,229.9a5.542,5.542,0,0,1,2.9-1.3,5.659,5.659,0,0,1,2.3.1c.6.2.9.3.9.4,0,.2-1.4-.3-3.1,0S366.7,230.1,366.6,229.9Z"/><path class="v" d="M374.5,237.7c-.1,0-.2-.4-.5-.8a3.149,3.149,0,0,0-1.8-1.3,5.909,5.909,0,0,0-2.3,0c-.6.1-1,.2-1,.1s.3-.3.9-.5a4.893,4.893,0,0,1,2.5-.2,3.349,3.349,0,0,1,2,1.6A4.47,4.47,0,0,1,374.5,237.7Z"/><path class="v" d="M373.9,233a12.027,12.027,0,0,0-2.6-.7c-1.5-.1-2.7.4-2.8.2a4.026,4.026,0,0,1,2.8-.8,3.941,3.941,0,0,1,2,.6A1.49,1.49,0,0,1,373.9,233Z"/><path class="v" d="M372.4,238c.1.1-.3.8-1.2,1.1-1,.2-1.7-.3-1.6-.4s.7.1,1.4-.1C371.8,238.3,372.3,237.9,372.4,238Z"/><path class="u" d="M355.6,227.5s4.2-4.8,6.3-4.8,4.2,4.2,4.2,4.2"/><path class="v" d="M368.7,225.3a36.664,36.664,0,0,1-8.5,1.5,19.5,19.5,0,0,1,4.2-1C366.7,225.3,368.7,225.1,368.7,225.3Z"/><path class="u" d="M280.8,124.8l-21.1,52.5,22,2.5,5.1-11s6.5,4.2,10.9-1.6c2.8-3.7,15.4-36.1,15.4-36.1Z"/><path class="s" d="M314.4,135.4c-3.5-.4-6.2,4.5-6.2,4.5l-9.2,8.9c-1.7-3-5.1-4.2-7.5,0-1.7,3,2,5.2,2,5.2-3.9,3-6.7,5.5-11.5,7.9-5.2,2.6-7.4,2.2-11.4.7l-4.3-1.7s.6-7.7,3.6-26.5c3.3-20.8,24.8-9.4,30.9-12.6C310.7,116.5,325.4,136.5,314.4,135.4Z"/><path class="s" d="M269.5,136.3c-2.7-3.9-.3-10.9,3.5-14.2a14.17,14.17,0,0,1,14.1-2.5,6.686,6.686,0,0,0,1.9.5,5.363,5.363,0,0,0,2.7-1.1c5-2.9,9.8-5.8,15.9-3.4a6.78,6.78,0,0,1,3.4,2.5,6.233,6.233,0,0,1,1.1,4,14.1,14.1,0,0,1,4.1.1,4.757,4.757,0,0,1,3.2,2.3,2.894,2.894,0,0,1-.8,3.6,4.674,4.674,0,0,1,2.9,5.3c-.5,2.2-4,2.4-4.3,2.5,0,0,.3,4-4.3,4.5a4.564,4.564,0,0,1-3.6-1.8"/><path class="t" d="M282.2,146.5a8.268,8.268,0,0,1-1.5,3.5,7.25,7.25,0,0,1-2.7,2.7c-.1-.1,1.1-1.3,2.2-3C281.4,148,282.1,146.4,282.2,146.5Z"/><path class="t" d="M285.5,145.2a8.627,8.627,0,0,1-1.5,3.3,9.854,9.854,0,0,1-2.3,2.8,19.635,19.635,0,0,1,1.9-3.1A17.079,17.079,0,0,1,285.5,145.2Z"/><path class="t" d="M295.4,140.3a12.8,12.8,0,0,1-1.8.8,13.572,13.572,0,0,0-3.6,2.8,23.957,23.957,0,0,0-2.8,3.7,9.042,9.042,0,0,1-1.2,1.6,7.751,7.751,0,0,1,.9-1.8,19.126,19.126,0,0,1,2.8-3.8,12.224,12.224,0,0,1,3.8-2.8C294.7,140.3,295.4,140.2,295.4,140.3Z"/><path class="t" d="M300.3,136.2c.1,0,.1.6-.1,1.4a8.318,8.318,0,0,1-1.4,3.1,7.484,7.484,0,0,1-2.5,2.3,3.465,3.465,0,0,1-1.3.6,15.17,15.17,0,0,0,3.3-3.2C299.8,138.3,300.1,136.1,300.3,136.2Z"/><path class="t" d="M272,138.3c-.1.1-.6-.4-1.2-1-.5-.7-.9-1.3-.7-1.4.1-.1.6.4,1.2,1C271.8,137.6,272.1,138.2,272,138.3Z"/><path class="t" d="M283.6,137.2c.1.1-.3,1-1.4,1.8-1,.8-2.1,1-2.1.8-.1-.1.8-.6,1.8-1.3C282.8,137.8,283.4,137.1,283.6,137.2Z"/><path class="t" d="M287.1,136.8a4.737,4.737,0,0,1-1.8,2.1,4.46,4.46,0,0,1-2.6,1c0-.1,1.1-.6,2.3-1.4A23.754,23.754,0,0,1,287.1,136.8Z"/><path class="t" d="M309.5,123.2c-.1,0-.3-.4-.8-1.1a7.511,7.511,0,0,0-3-2.2,9.441,9.441,0,0,0-5.4-.6,13.1,13.1,0,0,0-6,3,19.654,19.654,0,0,0-3.4,3.7l-.2.3-.2-.2a10.756,10.756,0,0,0-4-2.9,12.183,12.183,0,0,0-3.8-.9,17.153,17.153,0,0,0-3.5.3,2.477,2.477,0,0,1,.9-.3,8.805,8.805,0,0,1,2.6-.3,10.879,10.879,0,0,1,4,.8,9.948,9.948,0,0,1,4.2,3h-.4A24.627,24.627,0,0,1,294,122a12.692,12.692,0,0,1,6.3-3,9.808,9.808,0,0,1,5.6.8,7.815,7.815,0,0,1,3,2.4,4.385,4.385,0,0,1,.5.9A.1.1,0,0,1,309.5,123.2Z"/><path class="t" d="M318.9,129.9s.6.1.9,1a2.265,2.265,0,0,1-.1,1.6,2.375,2.375,0,0,1-1.8,1.2,3.744,3.744,0,0,1-2.5-.6,7.132,7.132,0,0,1-2-2.2,23.986,23.986,0,0,0-1.8-2.6,10.673,10.673,0,0,0-2.5-2.2,14.616,14.616,0,0,0-6.1-2,17.374,17.374,0,0,0-5.3.5,30.7,30.7,0,0,0-4.7,1.6,8.594,8.594,0,0,1,1.2-.7,16.357,16.357,0,0,1,3.5-1.3,17.859,17.859,0,0,1,5.4-.6,12.962,12.962,0,0,1,6.4,2,9.564,9.564,0,0,1,2.6,2.3c.7.9,1.2,1.9,1.8,2.7a6.251,6.251,0,0,0,1.8,2.1,3.1,3.1,0,0,0,2.2.6,2.251,2.251,0,0,0,1.6-1,1.807,1.807,0,0,0,.2-1.4C319.5,130.1,318.9,130,318.9,129.9Z"/><path class="r" d="M245,184.4l-19.1,32c-2.1,3.7-4.1,7.7-6,11.9a13.423,13.423,0,0,0,2,12.4l-.5-.8a11.154,11.154,0,0,0,8.7,4.1h.5a11.137,11.137,0,0,0,10.2-6.7l6.1-9.3Z"/><path class="r" d="M302.6,178.2c-5.1-2.6-10.2-3.2-15.7-3.4-6.4-.2-15.5-1.1-22.4-.3,0,0-19.7,1.5-21.1,15L246,253l-4.5,26.9,63.2,1.9-.5-31.7c.8-16.5-.9-39.9-.9-39.9,1-8.9,5.8-12.9,6.5-18.6C310.5,186.4,307.1,180.6,302.6,178.2Z"/><path class="s" d="M284.7,253.9a6.052,6.052,0,0,1-.9.9,26.833,26.833,0,0,1-2.9,2,22.211,22.211,0,0,1-11.1,3,23.082,23.082,0,0,1-11.2-2.7,18.147,18.147,0,0,1-2.9-1.9,8.73,8.73,0,0,1-1-.8c.1-.1,1.5,1.1,4.1,2.4a25.169,25.169,0,0,0,11,2.5,26.284,26.284,0,0,0,10.9-2.8A37.1,37.1,0,0,0,284.7,253.9Z"/><path class="s" d="M243.3,190.2a2.8,2.8,0,0,0,.1.6c0,.5.1,1.1.1,1.8.1,1.6.2,3.8.3,6.5.2,5.6.6,13.2.9,21.5.4,8.4.7,16,1,21.5.1,2.7.3,4.9.3,6.5,0,.7.1,1.3.1,1.8v.6a1.451,1.451,0,0,1-.1-.6,16.245,16.245,0,0,0-.2-1.8c-.1-1.5-.3-3.8-.5-6.5-.4-5.5-.8-13.1-1.1-21.5-.4-8.4-.6-16-.7-21.6-.1-2.7-.1-4.9-.1-6.5v-1.8C243.2,190.5,243.2,190.2,243.3,190.2Z"/><path class="s" d="M239.3,193.6a4.2,4.2,0,0,0-.2.5l-.7,1.4c-.6,1.2-1.6,2.9-2.8,4.9-2.4,4.1-6,9.7-9.7,16-1.8,3.2-3.4,6.3-4.7,9.1a16.483,16.483,0,0,0-1.8,8,11.611,11.611,0,0,0,1.5,5.4,19.325,19.325,0,0,0,1.1,1.8l-.4-.4a9.233,9.233,0,0,1-.9-1.3,12.231,12.231,0,0,1-1.7-5.4,16.327,16.327,0,0,1,1.8-8.2c1.3-2.9,2.9-6,4.7-9.2,3.7-6.3,7.3-11.9,9.8-15.9,1.2-2,2.2-3.6,2.9-4.8.3-.5.6-1,.8-1.3A2.164,2.164,0,0,1,239.3,193.6Z"/><path class="r" d="M352.3,244.9l-5.6-15.3-19.5-.8s-5.6-21.2-7.3-33c-1.6-10.9-12-14.4-14.8-16.3a1.469,1.469,0,0,0-2.2.9l-2.8,32.8c0,1.9,4.3,20,7.1,29.3,4.6,15.5,18.3,9.3,28,7.6C341.7,248.8,352.3,244.9,352.3,244.9Z"/><path class="s" d="M325.9,244.2a9.826,9.826,0,0,1,.6-2.2,37.362,37.362,0,0,0,1.3-5.3,19.885,19.885,0,0,0,.1-5.4c-.2-1.4-.5-2.2-.4-2.2a5.133,5.133,0,0,1,.8,2.2,16.953,16.953,0,0,1,.1,5.6,25.576,25.576,0,0,1-1.5,5.4C326.3,243.4,325.9,244.2,325.9,244.2Z"/><path class="s" d="M332.4,239.1a12.851,12.851,0,0,1,.2-1.9,9.973,9.973,0,0,0-.8-4.5,6.28,6.28,0,0,0-2.9-3.4,5.844,5.844,0,0,0-1.8-.4,2.77,2.77,0,0,1,2,0,6.2,6.2,0,0,1,3.2,3.5,9.419,9.419,0,0,1,.7,4.7A4.216,4.216,0,0,1,332.4,239.1Z"/><path class="s" d="M307.5,181.8a5.2,5.2,0,0,0-.5.3l-.6.3a5.937,5.937,0,0,1-.8.4,14.585,14.585,0,0,0-4.1,3.7,18.148,18.148,0,0,0-3.4,7.4,18.615,18.615,0,0,0-.5,4.8,48.019,48.019,0,0,0,.5,5.2c1.1,7.2,2.6,13.6,3.7,18.2.6,2.2,1,4.1,1.4,5.5.3,1.3.5,2,.5,2a4.2,4.2,0,0,1-.2-.5c-.1-.3-.3-.8-.5-1.5q-.6-1.95-1.5-5.4c-1.2-4.6-2.7-11-3.9-18.2a49.81,49.81,0,0,1-.5-5.3,19.716,19.716,0,0,1,4.1-12.6,12.929,12.929,0,0,1,4.3-3.6,5.939,5.939,0,0,0,.8-.4,1.421,1.421,0,0,1,.6-.2A2.8,2.8,0,0,1,307.5,181.8Z"/><path class="s" d="M296.6,272.6a1.1,1.1,0,0,1-.4.2,11.214,11.214,0,0,0-1.3.5q-.9.3-2.1.6c-.8.2-1.8.5-2.8.7-2.1.5-4.6,1-7.5,1.4a67.1,67.1,0,0,1-9.3.6,68.149,68.149,0,0,1-9.3-.6c-2.8-.4-5.4-.8-7.5-1.3-1.1-.2-2-.5-2.8-.7s-1.5-.4-2.1-.6c-.5-.2-1-.3-1.3-.4s-.5-.2-.4-.2a1.75,1.75,0,0,1,.5.1c.4.1.8.2,1.3.3a10.805,10.805,0,0,0,2.1.5c.8.2,1.8.4,2.8.6a59.106,59.106,0,0,0,7.5,1.2,86.546,86.546,0,0,0,9.2.5,65.619,65.619,0,0,0,9.2-.6c2.8-.4,5.3-.8,7.4-1.2,1.1-.2,2-.5,2.8-.7s1.5-.4,2.1-.6a10.378,10.378,0,0,0,1.3-.4C296.4,272.6,296.6,272.5,296.6,272.6Z"/><g class="w"><path d="M242.1,235.3l2.9-4.4L243.5,196Z"/></g><g class="w"><path d="M298.1,192.1s-4.5,11.9-3.5,17.7c.9,5.8,9.5,36.2,9.7,35.6s0-12.7,0-12.7S295.6,198.7,298.1,192.1Z"/></g><path class="n" d="M239.6,236.3a2.477,2.477,0,0,1-.9.3,6.619,6.619,0,0,1-2.6-.3,9.789,9.789,0,0,1-3.2-2.1,19.178,19.178,0,0,1-2.7-3.9,38.472,38.472,0,0,0-2.4-4,10.667,10.667,0,0,0-2.6-2.6,7.874,7.874,0,0,0-3.2-1.2,2.056,2.056,0,0,1,.9,0,6,6,0,0,1,2.4.9,13.293,13.293,0,0,1,2.8,2.6,38.469,38.469,0,0,1,2.4,4,18.127,18.127,0,0,0,2.6,3.8,9.142,9.142,0,0,0,3,2.1A6,6,0,0,0,239.6,236.3Z"/><path class="n" d="M243.5,214.4c-.1,0-.3-.8-.9-1.9a11.752,11.752,0,0,0-3.2-3.7,11.951,11.951,0,0,0-4.5-2.1c-1.2-.3-2.1-.3-2.1-.4s.8-.2,2.1,0a10.884,10.884,0,0,1,4.7,2,10.244,10.244,0,0,1,3.2,4A7.977,7.977,0,0,1,243.5,214.4Z"/><path class="n" d="M291.7,195.7a12.852,12.852,0,0,1-1.9-.2,14.731,14.731,0,0,0-5.2.5,31.493,31.493,0,0,0-7.3,2.9c-2.6,1.4-5.4,3.1-8.5,4.5a25.612,25.612,0,0,1-9.4,2.4,27.318,27.318,0,0,1-7.9-.7,24.8,24.8,0,0,1-5-1.8,13.087,13.087,0,0,1-1.3-.7,2.957,2.957,0,0,1-.4-.3s.6.3,1.8.8a25.75,25.75,0,0,0,5,1.7,26.874,26.874,0,0,0,7.8.6,25.142,25.142,0,0,0,9.2-2.4c3.1-1.4,5.9-3.1,8.5-4.5a26.315,26.315,0,0,1,7.4-2.8,14.434,14.434,0,0,1,5.3-.3,10.626,10.626,0,0,1,1.4.3A.693.693,0,0,1,291.7,195.7Z"/><path class="n" d="M303.9,230.3a3.224,3.224,0,0,1-.6.2,10.8,10.8,0,0,1-1.7.4,27.484,27.484,0,0,1-6.4.5,51.273,51.273,0,0,1-9.4-1.3c-3.5-.8-7.3-1.9-11.2-3.1a64.311,64.311,0,0,0-11.3-2.5,37.214,37.214,0,0,0-9.4-.1,24.286,24.286,0,0,0-6.1,1.7,22.767,22.767,0,0,0-2.1,1,5.2,5.2,0,0,0,.5-.3c.4-.2.8-.5,1.5-.8a24.541,24.541,0,0,1,6.1-1.9,30.152,30.152,0,0,1,9.5,0,65.3,65.3,0,0,1,11.4,2.5c4,1.2,7.7,2.3,11.2,3.1a51.29,51.29,0,0,0,9.3,1.4,35.9,35.9,0,0,0,6.3-.3C303.1,230.5,303.9,230.3,303.9,230.3Z"/><path class="n" d="M304.3,250.1a28.533,28.533,0,0,0-8.3-2.2,43.674,43.674,0,0,0-9.4.3c-3.5.5-7.3,1.3-11.4,2a105.175,105.175,0,0,1-11.4,1.7,42.332,42.332,0,0,1-9.5-.1,22.378,22.378,0,0,1-6.2-1.5,8.361,8.361,0,0,1-1.6-.7,2.23,2.23,0,0,1-.5-.3s.8.3,2.2.8a28.4,28.4,0,0,0,6.2,1.3,49,49,0,0,0,9.4,0,106.687,106.687,0,0,0,11.4-1.8c4-.8,7.9-1.5,11.4-2a38.427,38.427,0,0,1,9.5-.2,21.9,21.9,0,0,1,6.2,1.6,15.777,15.777,0,0,0,1.6.7A1.2,1.2,0,0,0,304.3,250.1Z"/><path class="n" d="M271.8,275.6a10.394,10.394,0,0,1-1-.6c-.6-.4-1.5-1.1-2.6-1.8a83.626,83.626,0,0,0-9.1-5.2,88.688,88.688,0,0,0-9.8-4c-1.3-.4-2.3-.8-3-1a7,7,0,0,1-1.1-.4,5.6,5.6,0,0,1,1.2.2c.7.2,1.8.4,3.1.8a73.716,73.716,0,0,1,9.9,3.8,62.388,62.388,0,0,1,9.1,5.4c1.1.8,2,1.5,2.6,1.9A6.41,6.41,0,0,0,271.8,275.6Z"/><path class="n" d="M302.6,275.2a7.157,7.157,0,0,1-2.1,1.1,17.245,17.245,0,0,1-5.6.9,15.492,15.492,0,0,1-5.5-1.2c-1.3-.6-2.1-1.1-2-1.2,0-.1.8.4,2.2.8a15.754,15.754,0,0,0,5.4,1,17.109,17.109,0,0,0,5.5-.7C301.7,275.5,302.5,275.2,302.6,275.2Z"/><path class="n" d="M320.6,209.7a6.173,6.173,0,0,1-.1.9,4.608,4.608,0,0,1-1.2,2.1,11.116,11.116,0,0,1-2.8,2.3,37.029,37.029,0,0,1-4,1.8,16.953,16.953,0,0,0-3.8,2,9.168,9.168,0,0,0-2.3,2.6,6.064,6.064,0,0,0-.6,3.1,1.721,1.721,0,0,1-.2-.9,6.387,6.387,0,0,1,.5-2.4,7.315,7.315,0,0,1,2.3-2.8,16.164,16.164,0,0,1,3.9-2.1c1.4-.6,2.8-1.1,4-1.7a10.76,10.76,0,0,0,2.8-2.1A8.792,8.792,0,0,0,320.6,209.7Z"/><path class="n" d="M314.8,187.6a3.234,3.234,0,0,1-.2.9c-.1.3-.2.6-.3,1a6.943,6.943,0,0,1-.5,1.3,18.392,18.392,0,0,1-1.8,3.3,19.259,19.259,0,0,1-3,3.5,30.019,30.019,0,0,1-3.7,2.8,25.207,25.207,0,0,1-3.4,1.6,10.26,10.26,0,0,1-1.4.4,5.159,5.159,0,0,1-1.1.2,6.173,6.173,0,0,1-.9.1c0-.1,1.3-.3,3.2-1.1a17.355,17.355,0,0,0,3.3-1.7,21.121,21.121,0,0,0,3.6-2.7,21.888,21.888,0,0,0,2.9-3.4,22.3,22.3,0,0,0,1.9-3.2C314.4,188.8,314.7,187.5,314.8,187.6Z"/><path class="n" d="M292.9,174.9a11.547,11.547,0,0,1-1.5.7,31.182,31.182,0,0,1-4.1,1.4,55.2,55.2,0,0,1-6.2,1.6c-2.4.5-5,.8-7.8,1.1a70.507,70.507,0,0,1-7.9.1,52.142,52.142,0,0,1-6.4-.7c-1.8-.3-3.3-.6-4.3-.8a9.476,9.476,0,0,1-1.5-.4s.6.1,1.6.2c1,.2,2.5.4,4.3.7,1.8.2,4,.4,6.4.5a68.488,68.488,0,0,0,7.8-.1c2.8-.2,5.4-.6,7.8-1,2.4-.5,4.5-1,6.2-1.5a34.1,34.1,0,0,0,4.1-1.3C292.4,175,292.9,174.8,292.9,174.9Z"/><path class="n" d="M323.8,222.8a3.9,3.9,0,0,1,.4,1,10.618,10.618,0,0,1,.4,2.9,40.029,40.029,0,0,1-1,9.6,20.118,20.118,0,0,1-1.4,5.1,13.031,13.031,0,0,1-2.3,3.7,7.652,7.652,0,0,1-2.4,1.7,2.483,2.483,0,0,1-1,.3,11.189,11.189,0,0,0,3.1-2.3,10.374,10.374,0,0,0,2.1-3.6,23.73,23.73,0,0,0,1.3-5.1,46.08,46.08,0,0,0,1.1-9.5A21.357,21.357,0,0,0,323.8,222.8Z"/><path class="n" d="M345.5,245.8c-.1,0-.1-1.2-.4-3a20.719,20.719,0,0,0-2.5-6.7,19.968,19.968,0,0,0-4.7-5.4c-1.4-1.2-2.5-1.7-2.4-1.8,0,0,.3.1.8.3a9.262,9.262,0,0,1,1.9,1.2,15.736,15.736,0,0,1,2.5,2.2,20.538,20.538,0,0,1,2.4,3.2,20.315,20.315,0,0,1,1.7,3.7,15.561,15.561,0,0,1,.7,3.2,8.763,8.763,0,0,1,.1,2.2A3.139,3.139,0,0,1,345.5,245.8Z"/><g class="w"><path d="M293.5,273.4a1.828,1.828,0,0,0,.7-2.7,3.7,3.7,0,0,0-2.9-1c-5.2.1-9.7,3.6-14.8,4.5-3.9.7-7.9-.1-11.6-1.2-3.8-1.1-7.4-2.6-11.3-3.4a4.887,4.887,0,0,0-2.4-.1,2.021,2.021,0,0,0-1.6,1.7c-.1.8.1,1.4,1.3,1.8,0,0,12.8,3.6,22,3.4A103.12,103.12,0,0,0,293.5,273.4Z"/></g><path class="s" d="M659.5,478.8c0,.1-174.6.3-291.2.3-116.7,0-211.2-.1-211.2-.3s94.6-.3,211.2-.3S659.5,478.6,659.5,478.8Z"/><rect class="x" width="52.7" height="11.4" transform="translate(500.8 467.4)"/><path class="f" d="M521.7,467.4l.8,11.4H530l.3-11.4Z"/><rect class="r" width="52.7" height="11.4" transform="translate(488 467.4)"/><path class="e" d="M540.5,469.2c0,.1-11.7.3-26.2.3s-26.2-.1-26.2-.3,11.7-.3,26.2-.3S540.5,469.1,540.5,469.2Z"/><path class="e" d="M540.4,471.8c0,.1-11.7.3-26.2.3s-26.2-.1-26.2-.3,11.7-.3,26.2-.3S540.4,471.6,540.4,471.8Z"/><path class="e" d="M540.4,474.4c0,.1-11.7.3-26.2.3s-26.2-.1-26.2-.3,11.7-.3,26.2-.3S540.4,474.3,540.4,474.4Z"/><path class="e" d="M540.4,477c0,.1-11.7.3-26.2.3s-26.2-.1-26.2-.3,11.7-.3,26.2-.3S540.4,476.9,540.4,477Z"/><path class="y" d="M508.9,467.4l.8,11.4h7.5l.4-11.4Z"/><rect class="x" width="52.7" height="11.4" transform="translate(494.3 456.1)"/><path class="f" d="M515.3,456.1l.8,11.4h7.5l.3-11.4Z"/><rect class="r" width="52.7" height="11.4" transform="translate(481.6 456.1)"/><path class="e" d="M534.1,457.9c0,.1-11.7.3-26.2.3-14.4,0-26.2-.1-26.2-.3s11.7-.3,26.2-.3C522.3,457.7,534.1,457.8,534.1,457.9Z"/><path class="e" d="M534,460.5c0,.1-11.7.3-26.2.3s-26.2-.1-26.2-.3,11.7-.3,26.2-.3C522.3,460.3,534,460.4,534,460.5Z"/><path class="e" d="M534,463.1c0,.1-11.7.3-26.2.3s-26.2-.1-26.2-.3,11.7-.3,26.2-.3C522.3,462.9,534,463,534,463.1Z"/><path class="e" d="M534,465.7c0,.1-11.7.3-26.2.3s-26.2-.1-26.2-.3,11.7-.3,26.2-.3C522.3,465.5,534,465.6,534,465.7Z"/><path class="y" d="M502.5,456.1l.8,11.4h7.5l.4-11.4Z"/></g></svg>