<svg xmlns="http://www.w3.org/2000/svg" width="45" height="41" viewBox="0 0 45 41"><g><g opacity=".1"><path fill="#ffba00" d="M39.942.692c3.904 2.005 4.907 8.935 4.764 15.062-.143 6.09-1.397 11.378-4.191 15.244-2.759 3.902-7.093 6.382-11.607 7.804-4.478 1.422-9.17 1.787-14.508 1.094-5.338-.693-11.356-2.48-13.434-6.455-2.077-3.939-.25-10.066 1.254-15.828C3.76 11.888 4.907 6.49 8.203 4.375c3.295-2.115 8.669-.984 14.83-1.896C29.16 1.603 36.037-1.314 39.942.692z"/></g><g><path fill="#ff3600" d="M28.13 14.818a2.471 2.471 0 0 1-2.47 2.468 2.459 2.459 0 0 1-1.646-.63 2.46 2.46 0 0 1-1.645.63 2.471 2.471 0 0 1-2.47-2.468 2.471 2.471 0 0 1 2.47-2.468 2.471 2.471 0 0 1 2.468 2.468v.013a.823.823 0 0 0 1.646-.013 4.119 4.119 0 0 0-4.114-4.113 4.119 4.119 0 0 0-4.115 4.113c0 1.408.711 2.704 1.902 3.466 1.22.782 2.735.856 4.153.204a.823.823 0 0 1 .688 1.494c-1.94.893-4.028.777-5.729-.312a5.74 5.74 0 0 1-2.66-4.852 5.766 5.766 0 0 1 5.76-5.758 5.766 5.766 0 0 1 5.761 5.758zm-4.944-.094a.824.824 0 0 0-1.64.094.824.824 0 0 0 1.634.132.821.821 0 0 1 .006-.226zM34.713 31.38a2.47 2.47 0 0 1-2.47 2.468h-19.75a2.471 2.471 0 0 1-2.468-2.468V16.572c0-.204.078-.413.233-.572l.008-.009 3.05-3.05V6.593c0-.454.369-.822.823-.822h16.459c.454 0 .823.368.823.822v6.35l3.05 3.05c.156.154.241.367.242.58V31.38zM31.42 17.877l1.305-1.304-1.305-1.304zm-16.459 1.646l4.456 4.453h5.901l4.456-4.453V7.415H14.962v12.108zm-2.95-2.95l1.304 1.304V15.27zm5.901 8.226l-6.243-6.24v12.48zm13.99 7.403l-6.584-6.58h-5.901l-6.584 6.58zm1.164-13.643l-6.243 6.24 6.243 6.24z"/></g></g></svg>