<svg xmlns="http://www.w3.org/2000/svg" width="45" height="41" viewBox="0 0 45 41"><g><g opacity=".1"><path fill="#ffba00" d="M39.942.692c3.904 2.005 4.907 8.935 4.764 15.062-.143 6.09-1.397 11.378-4.191 15.244-2.759 3.902-7.093 6.382-11.607 7.804-4.478 1.422-9.17 1.787-14.508 1.094-5.338-.693-11.356-2.48-13.434-6.455-2.077-3.939-.25-10.066 1.254-15.828C3.76 11.888 4.907 6.49 8.203 4.375c3.295-2.115 8.669-.984 14.83-1.896C29.16 1.603 36.037-1.314 39.942.692z"/></g><g><path fill="#ff3600" d="M32.244 15.64a9.856 9.856 0 0 1-1.393 5.058l-7.64 12.75a.823.823 0 0 1-.699.4h-.006a.823.823 0 0 1-.7-.39l-7.839-12.627a9.847 9.847 0 0 1-1.474-5.19c0-5.443 4.43-9.871 9.876-9.871 5.445 0 9.875 4.428 9.875 9.87zm-1.64 0c0-4.535-3.698-8.236-8.235-8.236-4.538 0-8.24 3.7-8.24 8.237 0 1.532.434 3.028 1.237 4.324l7.127 11.48 6.945-11.592a8.216 8.216 0 0 0 1.165-4.212zm-3.298 0a4.927 4.927 0 0 1-4.937 4.936 4.93 4.93 0 0 1-4.938-4.935 4.942 4.942 0 0 1 4.938-4.936 4.942 4.942 0 0 1 4.937 4.936zm-1.64 0a3.309 3.309 0 0 0-3.297-3.3 3.314 3.314 0 0 0-3.303 3.3 3.305 3.305 0 0 0 3.303 3.302 3.298 3.298 0 0 0 3.297-3.301z"/></g></g></svg>