<svg xmlns="http://www.w3.org/2000/svg" width="45" height="41" viewBox="0 0 45 41"><g><g opacity=".1"><path fill="#ffba00" d="M39.942.692c3.904 2.005 4.907 8.935 4.764 15.062-.143 6.09-1.397 11.378-4.191 15.244-2.759 3.902-7.093 6.382-11.607 7.804-4.478 1.422-9.17 1.787-14.508 1.094-5.338-.693-11.356-2.48-13.434-6.455-2.077-3.939-.25-10.066 1.254-15.828C3.76 11.888 4.907 6.49 8.203 4.375c3.295-2.115 8.669-.984 14.83-1.896C29.16 1.603 36.037-1.314 39.942.692z"/></g><g><path fill="#ff3600" d="M32.244 8.237V31.38a2.471 2.471 0 0 1-2.469 2.468H14.962a2.471 2.471 0 0 1-2.469-2.468V8.237a2.471 2.471 0 0 1 2.47-2.467h14.812a2.471 2.471 0 0 1 2.469 2.467zm-1.646 20.675H14.139v2.468c0 .453.37.822.823.822h14.813a.824.824 0 0 0 .823-.822zm0-18.207H14.139v16.562h16.459zm0-2.468a.824.824 0 0 0-.823-.822H14.962a.824.824 0 0 0-.823.822v.823h16.459zM19.077 19.041c0 .907-.739 1.645-1.646 1.645a1.647 1.647 0 0 1-1.646-1.645c0-.907.738-1.645 1.646-1.645.907 0 1.646.738 1.646 1.645zm4.937 0c0 .907-.738 1.645-1.645 1.645a1.647 1.647 0 0 1-1.646-1.645c0-.907.738-1.645 1.646-1.645.907 0 1.645.738 1.645 1.645zm4.938 0c0 .907-.738 1.645-1.646 1.645a1.647 1.647 0 0 1-1.646-1.645c0-.907.739-1.645 1.646-1.645.908 0 1.646.738 1.646 1.645z"/></g></g></svg>