<svg xmlns="http://www.w3.org/2000/svg" width="45" height="41" viewBox="0 0 45 41"><g><g opacity=".1"><path fill="#ffba00" d="M39.942.692c3.904 2.005 4.907 8.935 4.764 15.062-.143 6.09-1.397 11.378-4.191 15.244-2.759 3.902-7.093 6.382-11.607 7.804-4.478 1.422-9.17 1.787-14.508 1.094-5.338-.693-11.356-2.48-13.434-6.455-2.077-3.939-.25-10.066 1.254-15.828C3.76 11.888 4.907 6.49 8.203 4.375c3.295-2.115 8.669-.984 14.83-1.896C29.16 1.603 36.037-1.314 39.942.692z"/></g><g><path fill="#ff3600" d="M35.67 30.563l-1.269 1.269a8.899 8.899 0 0 1-12.588 0L10.916 20.935c-3.47-3.469-3.47-9.113 0-12.582l1.272-1.26c.96-.96 2.526-.96 3.489.003l3.49 3.477c.972.972.958 2.532 0 3.49l-1.586 1.585c-.731.731-.731 1.913 0 2.644l6.877 6.88a1.873 1.873 0 0 0 2.644 0l1.587-1.587a2.472 2.472 0 0 1 3.49 0l3.492 3.49a2.469 2.469 0 0 1 0 3.488zm-22.9-21.73l4.652 4.648.582-.581a.822.822 0 0 0 0-1.163l-3.49-3.477a.824.824 0 0 0-1.165-.001zm19.97 22.29l-4.638-4.636a3.513 3.513 0 0 1-4.808-.153l-6.877-6.88a3.51 3.51 0 0 1-.153-4.804l-4.638-4.636a7.227 7.227 0 0 0 .454 9.758l10.897 10.897a7.223 7.223 0 0 0 9.762.454zm1.767-2.886l-3.49-3.489a.824.824 0 0 0-1.164 0l-.582.582 4.654 4.652.582-.582a.823.823 0 0 0 0-1.163z"/></g></g></svg>