<svg xmlns="http://www.w3.org/2000/svg" width="148" height="148" viewBox="0 0 148 148"><g><g><path fill="#fff" d="M72.751 3.01a1.761 1.761 0 1 1-2.49-2.491 1.761 1.761 0 0 1 2.49 2.49zm-7.75 7.748a1.761 1.761 0 1 1-2.49-2.49 1.761 1.761 0 0 1 2.49 2.49zm-7.749 7.749a1.762 1.762 0 1 1-2.49-2.491 1.762 1.762 0 0 1 2.49 2.491zm-7.75 7.749a1.762 1.762 0 1 1-2.49-2.492 1.762 1.762 0 0 1 2.49 2.492zm-7.75 7.748a1.762 1.762 0 1 1-2.49-2.492 1.762 1.762 0 0 1 2.49 2.492zm-7.749 7.749a1.762 1.762 0 1 1-2.49-2.492 1.762 1.762 0 0 1 2.49 2.492zm-7.75 7.748a1.762 1.762 0 1 1-2.49-2.491 1.762 1.762 0 0 1 2.49 2.491zm-7.75 7.749a1.762 1.762 0 1 1-2.49-2.492 1.762 1.762 0 0 1 2.49 2.492zm-7.749 7.748a1.762 1.762 0 1 1-2.49-2.491 1.762 1.762 0 0 1 2.49 2.491zm-7.75 7.749a1.762 1.762 0 1 1-2.49-2.492 1.762 1.762 0 0 1 2.49 2.492zm77.22-62.265a1.761 1.761 0 1 1-2.49-2.491 1.761 1.761 0 0 1 2.49 2.49zm-7.75 7.748a1.762 1.762 0 1 1-2.49-2.491 1.762 1.762 0 0 1 2.49 2.491zm-7.749 7.749a1.762 1.762 0 1 1-2.491-2.492 1.762 1.762 0 0 1 2.491 2.492zm-7.75 7.748a1.762 1.762 0 1 1-2.49-2.491 1.762 1.762 0 0 1 2.49 2.491zm-7.75 7.749a1.762 1.762 0 1 1-2.49-2.492 1.762 1.762 0 0 1 2.49 2.492zm-7.75 7.748a1.762 1.762 0 1 1-2.49-2.491 1.762 1.762 0 0 1 2.49 2.491zm-7.749 7.749a1.762 1.762 0 1 1-2.49-2.492 1.762 1.762 0 0 1 2.49 2.492zm-7.75 7.748a1.762 1.762 0 1 1-2.49-2.491 1.762 1.762 0 0 1 2.49 2.491zm-7.749 7.749a1.762 1.762 0 1 1-2.491-2.492 1.762 1.762 0 0 1 2.491 2.492zm-7.75 7.748a1.762 1.762 0 1 1-2.49-2.491 1.762 1.762 0 0 1 2.49 2.491zm77.22-62.264a1.762 1.762 0 1 1-2.49-2.492 1.762 1.762 0 0 1 2.49 2.492zm-7.75 7.748a1.762 1.762 0 1 1-2.49-2.491 1.762 1.762 0 0 1 2.49 2.491zm-7.75 7.749a1.762 1.762 0 1 1-2.49-2.492 1.762 1.762 0 0 1 2.49 2.492zm-7.749 7.748a1.762 1.762 0 1 1-2.49-2.492 1.762 1.762 0 0 1 2.49 2.492zm-7.75 7.749a1.762 1.762 0 1 1-2.49-2.492 1.762 1.762 0 0 1 2.49 2.492zm-7.75 7.748a1.762 1.762 0 1 1-2.49-2.491 1.762 1.762 0 0 1 2.49 2.491zM41.2 64.445a1.762 1.762 0 1 1-2.49-2.492 1.762 1.762 0 0 1 2.49 2.492zm-7.75 7.748a1.762 1.762 0 1 1-2.49-2.491 1.762 1.762 0 0 1 2.49 2.491zm-7.75 7.749a1.762 1.762 0 1 1-2.49-2.492 1.762 1.762 0 0 1 2.49 2.492zM17.95 87.69a1.762 1.762 0 1 1-2.49-2.491 1.762 1.762 0 0 1 2.49 2.491zm77.22-62.265a1.762 1.762 0 1 1-2.49-2.491 1.762 1.762 0 0 1 2.49 2.491zm-7.75 7.749a1.762 1.762 0 1 1-2.49-2.492 1.762 1.762 0 0 1 2.49 2.492zm-7.75 7.748a1.762 1.762 0 1 1-2.49-2.491 1.762 1.762 0 0 1 2.49 2.491zm-7.749 7.749a1.762 1.762 0 1 1-2.49-2.492 1.762 1.762 0 0 1 2.49 2.492zm-7.75 7.748a1.762 1.762 0 1 1-2.49-2.491 1.762 1.762 0 0 1 2.49 2.491zm-7.75 7.749a1.762 1.762 0 1 1-2.49-2.492 1.762 1.762 0 0 1 2.49 2.492zm-7.749 7.748a1.762 1.762 0 1 1-2.49-2.491 1.762 1.762 0 0 1 2.49 2.491zm-7.75 7.749a1.762 1.762 0 1 1-2.49-2.492 1.762 1.762 0 0 1 2.49 2.492zm-7.75 7.749a1.761 1.761 0 1 1-2.49-2.492 1.761 1.761 0 0 1 2.49 2.492zm-7.749 7.748a1.762 1.762 0 1 1-2.49-2.491 1.762 1.762 0 0 1 2.49 2.491zm77.22-62.265a1.762 1.762 0 1 1-2.49-2.492 1.762 1.762 0 0 1 2.49 2.492zm-7.75 7.749a1.762 1.762 0 1 1-2.49-2.492 1.762 1.762 0 0 1 2.49 2.492zm-7.75 7.748a1.762 1.762 0 1 1-2.49-2.491 1.762 1.762 0 0 1 2.49 2.491zm-7.749 7.749a1.762 1.762 0 1 1-2.491-2.492 1.762 1.762 0 0 1 2.491 2.492zm-7.75 7.748a1.762 1.762 0 1 1-2.49-2.491 1.762 1.762 0 0 1 2.49 2.491zm-7.75 7.749a1.762 1.762 0 1 1-2.49-2.492 1.762 1.762 0 0 1 2.49 2.492zm-7.749 7.748a1.762 1.762 0 1 1-2.49-2.491 1.762 1.762 0 0 1 2.49 2.491zm-7.75 7.749a1.762 1.762 0 1 1-2.49-2.492 1.762 1.762 0 0 1 2.49 2.492zm-7.75 7.748a1.761 1.761 0 1 1-2.49-2.49 1.761 1.761 0 0 1 2.49 2.49zm-7.75 7.749a1.761 1.761 0 1 1-2.49-2.491 1.761 1.761 0 0 1 2.49 2.49zm77.221-62.265a1.762 1.762 0 1 1-2.491-2.492 1.762 1.762 0 0 1 2.491 2.492zm-7.75 7.748a1.762 1.762 0 1 1-2.49-2.491 1.762 1.762 0 0 1 2.49 2.491zm-7.75 7.749a1.762 1.762 0 1 1-2.49-2.491 1.762 1.762 0 0 1 2.49 2.49zm-7.749 7.748a1.762 1.762 0 1 1-2.491-2.49 1.762 1.762 0 0 1 2.491 2.49zm-7.75 7.749a1.762 1.762 0 1 1-2.49-2.491 1.762 1.762 0 0 1 2.49 2.491zm-7.75 7.749a1.762 1.762 0 1 1-2.49-2.492 1.762 1.762 0 0 1 2.49 2.492zm-7.75 7.748a1.762 1.762 0 1 1-2.49-2.491 1.762 1.762 0 0 1 2.49 2.491zm-7.749 7.749a1.762 1.762 0 1 1-2.49-2.492 1.762 1.762 0 0 1 2.49 2.492zm-7.75 7.748a1.761 1.761 0 1 1-2.49-2.491 1.761 1.761 0 0 1 2.49 2.491zm-7.75 7.749a1.762 1.762 0 1 1-2.49-2.492 1.762 1.762 0 0 1 2.49 2.492zm77.22-62.265a1.762 1.762 0 1 1-2.49-2.492 1.762 1.762 0 0 1 2.49 2.492zm-7.749 7.748a1.762 1.762 0 1 1-2.49-2.491 1.762 1.762 0 0 1 2.49 2.491zm-7.75 7.749a1.761 1.761 0 1 1-2.49-2.491 1.761 1.761 0 0 1 2.49 2.49zm-7.75 7.748a1.762 1.762 0 1 1-2.49-2.491 1.762 1.762 0 0 1 2.49 2.491zm-7.749 7.749a1.762 1.762 0 1 1-2.49-2.492 1.762 1.762 0 0 1 2.49 2.492zm-7.75 7.748a1.762 1.762 0 1 1-2.49-2.491 1.762 1.762 0 0 1 2.49 2.491zm-7.75 7.749a1.762 1.762 0 1 1-2.49-2.492 1.762 1.762 0 0 1 2.49 2.492zm-7.749 7.748a1.761 1.761 0 1 1-2.49-2.49 1.761 1.761 0 0 1 2.49 2.49zm-7.75 7.749a1.762 1.762 0 1 1-2.49-2.492 1.762 1.762 0 0 1 2.49 2.492zm-7.75 7.748a1.762 1.762 0 1 1-2.49-2.491 1.762 1.762 0 0 1 2.49 2.491zm77.22-62.264a1.762 1.762 0 1 1-2.49-2.492 1.762 1.762 0 0 1 2.49 2.492zm-7.749 7.748a1.761 1.761 0 1 1-2.49-2.491 1.761 1.761 0 0 1 2.49 2.491zm-7.75 7.749a1.762 1.762 0 1 1-2.49-2.492 1.762 1.762 0 0 1 2.49 2.492zm-7.75 7.748a1.762 1.762 0 1 1-2.49-2.491 1.762 1.762 0 0 1 2.49 2.491zm-7.749 7.749a1.762 1.762 0 1 1-2.49-2.492 1.762 1.762 0 0 1 2.49 2.492zm-7.75 7.748a1.762 1.762 0 1 1-2.49-2.491 1.762 1.762 0 0 1 2.49 2.491zm-7.75 7.749a1.762 1.762 0 1 1-2.49-2.492 1.762 1.762 0 0 1 2.49 2.492zm-7.749 7.748a1.762 1.762 0 1 1-2.491-2.491 1.762 1.762 0 0 1 2.491 2.491zm-7.75 7.749a1.762 1.762 0 1 1-2.49-2.492 1.762 1.762 0 0 1 2.49 2.492zm-7.75 7.748a1.762 1.762 0 1 1-2.49-2.491 1.762 1.762 0 0 1 2.49 2.491zm77.22-62.265a1.761 1.761 0 1 1-2.49-2.49 1.761 1.761 0 0 1 2.49 2.49zm-7.749 7.749a1.762 1.762 0 1 1-2.49-2.492 1.762 1.762 0 0 1 2.49 2.492zm-7.75 7.748a1.762 1.762 0 1 1-2.49-2.491 1.762 1.762 0 0 1 2.49 2.491zm-7.75 7.749a1.762 1.762 0 1 1-2.49-2.492 1.762 1.762 0 0 1 2.49 2.492zm-7.749 7.748a1.762 1.762 0 1 1-2.491-2.491 1.762 1.762 0 0 1 2.491 2.491zm-7.75 7.749a1.762 1.762 0 1 1-2.49-2.491 1.762 1.762 0 0 1 2.49 2.49zm-7.75 7.748a1.762 1.762 0 1 1-2.49-2.491 1.762 1.762 0 0 1 2.49 2.491zm-7.75 7.749a1.762 1.762 0 1 1-2.49-2.492 1.762 1.762 0 0 1 2.49 2.492zm-7.749 7.748a1.762 1.762 0 1 1-2.49-2.491 1.762 1.762 0 0 1 2.49 2.491zm-7.75 7.749a1.762 1.762 0 1 1-2.49-2.492 1.762 1.762 0 0 1 2.49 2.492zm77.22-62.265a1.762 1.762 0 1 1-2.49-2.492 1.762 1.762 0 0 1 2.49 2.492zm-7.75 7.749a1.762 1.762 0 1 1-2.49-2.492 1.762 1.762 0 0 1 2.49 2.492zm-7.749 7.748a1.762 1.762 0 1 1-2.49-2.492 1.762 1.762 0 0 1 2.49 2.492zm-7.75 7.749a1.762 1.762 0 1 1-2.49-2.492 1.762 1.762 0 0 1 2.49 2.492zm-7.75 7.748a1.762 1.762 0 1 1-2.49-2.491 1.762 1.762 0 0 1 2.49 2.491zM101.26 109a1.762 1.762 0 1 1-2.49-2.492 1.762 1.762 0 0 1 2.49 2.492zm-7.75 7.748a1.762 1.762 0 1 1-2.49-2.491 1.762 1.762 0 0 1 2.49 2.491zm-7.75 7.749a1.762 1.762 0 1 1-2.49-2.492 1.762 1.762 0 0 1 2.49 2.492zm-7.749 7.748a1.762 1.762 0 1 1-2.49-2.491 1.762 1.762 0 0 1 2.49 2.491zm-7.75 7.749a1.762 1.762 0 1 1-2.49-2.492 1.762 1.762 0 0 1 2.49 2.492zm77.22-62.265a1.762 1.762 0 1 1-2.49-2.492 1.762 1.762 0 0 1 2.49 2.492zm-7.75 7.748a1.762 1.762 0 1 1-2.49-2.491 1.762 1.762 0 0 1 2.49 2.491zm-7.749 7.749a1.762 1.762 0 1 1-2.49-2.492 1.762 1.762 0 0 1 2.49 2.492zm-7.75 7.749a1.762 1.762 0 1 1-2.49-2.492 1.762 1.762 0 0 1 2.49 2.492zm-7.75 7.748a1.762 1.762 0 1 1-2.49-2.491 1.762 1.762 0 0 1 2.49 2.491zm-7.749 7.749a1.762 1.762 0 1 1-2.49-2.492 1.762 1.762 0 0 1 2.49 2.492zm-7.75 7.748a1.762 1.762 0 1 1-2.49-2.492 1.762 1.762 0 0 1 2.49 2.492zm-7.75 7.749a1.762 1.762 0 1 1-2.49-2.492 1.762 1.762 0 0 1 2.49 2.492zm-7.749 7.748a1.761 1.761 0 1 1-2.49-2.491 1.761 1.761 0 0 1 2.49 2.491zm-7.75 7.749a1.762 1.762 0 1 1-2.49-2.492 1.762 1.762 0 0 1 2.49 2.492z"/></g></g></svg>