<?xml version="1.0" encoding="utf-8"?>
<!-- Generator: Adobe Illustrator 23.0.3, SVG Export Plug-In . SVG Version: 6.00 Build 0)  -->
<svg version="1.1" id="Layer_1" xmlns="http://www.w3.org/2000/svg" xmlns:xlink="http://www.w3.org/1999/xlink" x="0px" y="0px"
	 viewBox="0 0 175 136" style="enable-background:new 0 0 175 136;" xml:space="preserve">
<style type="text/css">
	.st0{fill:#FFFFFF;}
</style>
<g>
	<g>
		<path class="st0" d="M175,124.9H99.4c-6.3,0-11.3-5.1-11.3-11.4s5.1-11.4,11.3-11.4h50.5c6.3,0,11.3-5.1,11.3-11.4
			c0-6.3-5.1-11.4-11.3-11.4H11.3C5.1,79.4,0,74.3,0,68c0-6.3,5.1-11.4,11.3-11.4h104.9c6.3,0,11.3-5.1,11.3-11.4
			c0-6.3-5.1-11.4-11.3-11.4h-55c-6.3,0-11.3-5.1-11.3-11.4c0-6.3,5.1-11.4,11.3-11.4H175V124.9z M64.3,113.6
			c0,6.3-5.1,11.4-11.3,11.4c-6.3,0-11.3-5.1-11.3-11.4s5.1-11.4,11.3-11.4C59.2,102.2,64.3,107.3,64.3,113.6z M175,124.9V136h0
			c-0.3-6.1-5.4-10.9-11.6-11L175,124.9z M163.3,11c6.2-0.2,11.3-5,11.6-11h0v11.1L163.3,11z"/>
	</g>
</g>
</svg>
