<svg xmlns="http://www.w3.org/2000/svg" width="377" height="113" viewBox="0 0 377 113"><g><g opacity=".1"><path d="M-43.666 67.8C-49.926 67.8-55 62.74-55 56.5c0-6.24 5.075-11.3 11.334-11.3H61.258c6.26 0 11.334-5.06 11.334-11.3 0-6.24-5.074-11.3-11.334-11.3H6.205c-6.26 0-11.334-5.06-11.334-11.3C-5.129 5.06-.054 0 6.205 0h183.94c6.26 0 11.335 5.06 11.335 11.3 0 6.24-5.075 11.3-11.335 11.3h-50.518c-6.26 0-11.335 5.06-11.335 11.3 0 6.24 5.075 11.3 11.335 11.3h192.36c6.26 0 11.334 5.06 11.334 11.3 0 6.24-5.075 11.3-11.335 11.3H227.063c-6.26 0-11.334 5.06-11.334 11.3 0 6.24 5.074 11.3 11.334 11.3h55.052c6.26 0 11.335 5.06 11.335 11.3 0 6.24-5.075 11.3-11.335 11.3H98.175c-6.26 0-11.334-5.06-11.334-11.3 0-6.24 5.075-11.3 11.334-11.3h50.52c6.259 0 11.333-5.06 11.333-11.3 0-6.24-5.074-11.3-11.334-11.3zM377 56.5c0 6.24-5.075 11.3-11.334 11.3-6.26 0-11.335-5.06-11.335-11.3 0-6.24 5.075-11.3 11.335-11.3 6.26 0 11.334 5.06 11.334 11.3zM64.172 101.7c0 6.24-5.074 11.3-11.334 11.3s-11.334-5.06-11.334-11.3c0-6.24 5.074-11.3 11.334-11.3s11.334 5.06 11.334 11.3z"/></g></g></svg>