<svg xmlns="http://www.w3.org/2000/svg" width="485" height="310" viewBox="0 0 485 310"><defs><linearGradient id="7vjta" x1="260.15" x2="343.15" y1="166.46" y2="247.36" gradientUnits="userSpaceOnUse"><stop offset="0" stop-color="#fff"/><stop offset="1" stop-color="#fff" stop-opacity="0"/></linearGradient><linearGradient id="7vjtb" x1="80.99" x2="140.99" y1="250.48" y2="308.75" gradientUnits="userSpaceOnUse"><stop offset="0" stop-color="#fff"/><stop offset="1" stop-color="#fff" stop-opacity="0"/></linearGradient><clipPath id="7vjtc"><path fill="#fff" d="M391.286 179.647c6.453 0 11.684 5.231 11.684 11.684 0 6.454-5.231 11.685-11.684 11.685-6.453 0-11.685-5.231-11.685-11.685 0-6.453 5.232-11.684 11.685-11.684z"/></clipPath><clipPath id="7vjtd"><path fill="#fff" d="M122.54 167.962c6.453 0 11.684 5.232 11.684 11.685s-5.231 11.684-11.685 11.684c-6.453 0-11.684-5.23-11.684-11.684 0-6.453 5.231-11.685 11.684-11.685z"/></clipPath><linearGradient id="7vjte" x1="386.88" x2="455.88" y1="20.33" y2="19.83" gradientUnits="userSpaceOnUse"><stop offset="0" stop-color="#fff"/><stop offset="1" stop-color="#fff" stop-opacity="0"/></linearGradient><linearGradient id="7vjtf" x1="394.19" x2="437.19" y1="168.28" y2="168.41" gradientUnits="userSpaceOnUse"><stop offset="0" stop-color="#fff"/><stop offset="1" stop-color="#fff" stop-opacity="0"/></linearGradient><clipPath id="7vjtg"><path fill="#fff" d="M432.262 87.601c26.978-9.737 50.23-13.804 51.933-9.083 1.704 4.722-18.784 16.442-45.762 26.18-26.977 9.737-50.228 13.803-51.932 9.082-1.704-4.72 18.784-16.442 45.762-26.18z"/></clipPath></defs><g><g><g opacity=".1"><path fill="#fff" d="M264.237 171.54a2.097 2.097 0 1 1 1.478-.61 2.09 2.09 0 0 1-1.478.61c-.534 0 0 0 0 0zm-.185-6.176c-1 0-1.998.38-2.762 1.139a3.92 3.92 0 0 0 0 5.525s78.821 76.428 81.862 76.428c.03 0 .053-.007.068-.022 1.537-1.538-76.407-81.931-76.407-81.931a3.905 3.905 0 0 0-2.762-1.139c-.998 0 0 0 0 0z"/><path fill="url(#7vjta)" d="M264.237 171.54a2.097 2.097 0 1 1 1.478-.61 2.09 2.09 0 0 1-1.478.61c-.534 0 0 0 0 0zm-.185-6.176c-1 0-1.998.38-2.762 1.139a3.92 3.92 0 0 0 0 5.525s78.821 76.428 81.862 76.428c.03 0 .053-.007.068-.022 1.537-1.538-76.407-81.931-76.407-81.931a3.905 3.905 0 0 0-2.762-1.139c-.998 0 0 0 0 0z"/></g><g opacity=".1"><path fill="#fff" d="M83.927 254.192a1.506 1.506 0 1 1 1.063-.438 1.503 1.503 0 0 1-1.063.438c-.384 0 0 0 0 0zm-.133-4.439a2.81 2.81 0 0 0-1.986.819 2.817 2.817 0 0 0 0 3.971s56.68 54.933 58.867 54.933c.022 0 .038-.005.049-.016 1.105-1.106-54.944-58.888-54.944-58.888a2.81 2.81 0 0 0-1.986-.819c-.719 0 0 0 0 0z"/><path fill="url(#7vjtb)" d="M83.927 254.192a1.506 1.506 0 1 1 1.063-.438 1.503 1.503 0 0 1-1.063.438c-.384 0 0 0 0 0zm-.133-4.439a2.81 2.81 0 0 0-1.986.819 2.817 2.817 0 0 0 0 3.971s56.68 54.933 58.867 54.933c.022 0 .038-.005.049-.016 1.105-1.106-54.944-58.888-54.944-58.888a2.81 2.81 0 0 0-1.986-.819c-.719 0 0 0 0 0z"/></g><g opacity=".1"><path fill="none" stroke="#fff" stroke-miterlimit="20" stroke-width="2" d="M391.286 179.647c6.453 0 11.684 5.231 11.684 11.684 0 6.454-5.231 11.685-11.684 11.685-6.453 0-11.685-5.231-11.685-11.685 0-6.453 5.232-11.684 11.685-11.684z" clip-path="url(&quot;#7vjtc&quot;)"/></g><g opacity=".2"><path fill="#fff" d="M391.286 188.735a2.597 2.597 0 1 1 0 5.193 2.597 2.597 0 0 1 0-5.193z"/></g><g opacity=".1"><path fill="none" stroke="#fff" stroke-miterlimit="20" stroke-width="2" d="M122.54 167.962c6.453 0 11.684 5.232 11.684 11.685s-5.231 11.684-11.685 11.684c-6.453 0-11.684-5.23-11.684-11.684 0-6.453 5.231-11.685 11.684-11.685z" clip-path="url(&quot;#7vjtd&quot;)"/></g><g opacity=".2"><path fill="#fff" d="M122.54 177.05a2.597 2.597 0 1 1 0 5.193 2.597 2.597 0 0 1 0-5.193z"/></g><g opacity=".1"><path fill="#fff" d="M246.91 266.366a1.843 1.843 0 0 1-2.15 1.814l-3.515-.612a.753.753 0 0 0-.643.211l-2.494 2.571a1.824 1.824 0 0 1-2.586.043 1.84 1.84 0 0 1-.54-1.067l-.51-3.55a.745.745 0 0 0-.399-.545l-3.203-1.58a1.85 1.85 0 0 1 0-3.338l3.203-1.58a.746.746 0 0 0 .4-.557l.543-3.538a1.825 1.825 0 1 1 3.126-1.024l2.416 2.604c.168.17.409.244.643.2l3.514-.6a1.83 1.83 0 0 1 2.115 1.493c.07.402.004.816-.186 1.177l-1.663 3.171a.703.703 0 0 0 0 .679l1.651 3.171c.163.258.258.553.278.857zm-15.951-4.373c-.01.28.147.537.399.657l3.203 1.59c.543.266.92.782 1.009 1.38l.51 3.55a.72.72 0 0 0 1.23.4l2.494-2.57a1.836 1.836 0 0 1 1.63-.522l3.514.6a.72.72 0 0 0 .764-1.046l-1.662-3.182a1.843 1.843 0 0 1 0-1.703l1.662-3.182a.725.725 0 0 0-.72-1.102l-3.514.601a1.87 1.87 0 0 1-1.63-.523l-2.493-2.57a.708.708 0 0 0-.743-.19.723.723 0 0 0-.488.59l-.51 3.55a1.835 1.835 0 0 1-1.008 1.38l-3.248 1.613a.701.701 0 0 0-.4.68zm-16.461-59.266l6.84-.323a2.425 2.425 0 0 0 1.961-1.112l3.614-5.831a2.444 2.444 0 0 1 4.367.433l2.417 6.421a2.42 2.42 0 0 0 1.696 1.514l6.65 1.646a2.46 2.46 0 0 1 .954 4.307l-5.343 4.295a2.408 2.408 0 0 0-.91 2.092l.489 6.844a2.456 2.456 0 0 1-2.281 2.617 2.443 2.443 0 0 1-1.5-.392l-5.719-3.772a2.409 2.409 0 0 0-2.217-.223l-6.34 2.582a2.446 2.446 0 0 1-3.216-1.293 2.469 2.469 0 0 1-.11-1.622l1.807-6.621a2.467 2.467 0 0 0-.488-2.226l-4.434-5.252a2.466 2.466 0 0 1 .219-3.471 2.444 2.444 0 0 1 1.544-.613zM329.433 90.18a3.042 3.042 0 0 1-3.214 3.005l-6.828-.467a1.881 1.881 0 0 0-1.608.712l-4.256 5.374a2.996 2.996 0 0 1-4.22.498 3.015 3.015 0 0 1-1.045-1.61l-1.663-6.677a1.844 1.844 0 0 0-1.175-1.313l-6.407-2.403a3.02 3.02 0 0 1-.543-5.375l5.797-3.65c.53-.329.862-.9.887-1.525l.3-6.866a3.009 3.009 0 0 1 3.096-2.92c.668.022 1.31.266 1.825.695l5.243 4.451a1.89 1.89 0 0 0 1.751.412l6.596-1.836a2.974 2.974 0 0 1 3.037.89c.763.856.977 2.071.554 3.138L325 81.08a1.909 1.909 0 0 0 .177 1.758l3.78 5.72c.308.485.473 1.049.476 1.625zm-31.258-5.53a1.857 1.857 0 0 0 1.219 1.591l6.407 2.404c.93.34 1.629 1.126 1.862 2.092l1.663 6.676a1.895 1.895 0 0 0 3.325.724l4.257-5.375a2.976 2.976 0 0 1 2.55-1.113l6.827.467a1.85 1.85 0 0 0 1.763-.934c.38-.613.38-1.39 0-2.003l-3.78-5.73a3.026 3.026 0 0 1-.288-2.783l2.56-6.376a1.905 1.905 0 0 0-1.08-2.463 1.89 1.89 0 0 0-1.137-.074l-6.595 1.836c-.95.267-1.97.046-2.727-.59l-5.243-4.45a1.902 1.902 0 0 0-2.683.262c-.26.317-.41.708-.432 1.117l-.288 6.855a3.029 3.029 0 0 1-1.408 2.425l-5.797 3.64a1.87 1.87 0 0 0-.975 1.602zm79.346-28.965l3.414.912c.39.099.804-.001 1.108-.267l2.683-2.303a1.26 1.26 0 0 1 1.781.138c.182.214.289.482.303.763l.188 3.538c.028.417.255.795.61 1.013l3.015 1.847a1.283 1.283 0 0 1-.21 2.226l-3.326 1.269a1.3 1.3 0 0 0-.776.89l-.82 3.45a1.263 1.263 0 0 1-2.217.511l-2.217-2.76c-.27-.329-.687-.5-1.109-.456l-3.525.278a1.266 1.266 0 0 1-1.304-1.226c-.009-.255.06-.506.196-.721l1.917-2.982c.224-.353.265-.792.111-1.18l-1.363-3.271a1.28 1.28 0 0 1 .763-1.64c.25-.09.522-.101.778-.03zm4.467 207.642l2.316.623c.273.068.56.002.776-.178l1.796-1.569a.863.863 0 0 1 1.419.612l.133 2.404a.835.835 0 0 0 .41.679l2.04 1.257a.859.859 0 0 1-.133 1.536l-2.217.868a.856.856 0 0 0-.532.6l-.555 2.338a.854.854 0 0 1-1.496.345l-1.508-1.859a.852.852 0 0 0-.731-.322l-2.395.2a.865.865 0 0 1-.787-1.335l1.297-2.014a.86.86 0 0 0 .078-.802l-.92-2.225a.858.858 0 0 1 .46-1.121.85.85 0 0 1 .549-.037z"/></g><g opacity=".2"><path fill="#fff" d="M179.664 188.735a2.597 2.597 0 1 1 0 5.193 2.597 2.597 0 0 1 0-5.193z"/></g><g opacity=".1"><path fill="#fff" d="M35.288 266.366a1.843 1.843 0 0 1-2.15 1.814l-3.514-.612a.753.753 0 0 0-.643.211l-2.494 2.571a1.824 1.824 0 0 1-2.586.043 1.839 1.839 0 0 1-.54-1.067l-.51-3.55a.745.745 0 0 0-.4-.545l-3.203-1.58a1.85 1.85 0 0 1 0-3.338l3.204-1.58a.746.746 0 0 0 .399-.557l.543-3.538a1.825 1.825 0 1 1 3.126-1.024l2.416 2.604c.169.17.41.244.643.2l3.514-.6a1.83 1.83 0 0 1 2.116 1.493c.07.402.004.816-.187 1.177l-1.663 3.171a.704.704 0 0 0 0 .679l1.652 3.171c.162.258.257.553.277.857zm-15.95-4.373a.702.702 0 0 0 .398.657l3.204 1.59c.542.266.92.782 1.008 1.38l.51 3.55a.72.72 0 0 0 1.23.4l2.495-2.57a1.836 1.836 0 0 1 1.63-.522l3.513.6a.72.72 0 0 0 .765-1.046l-1.663-3.182a1.843 1.843 0 0 1 0-1.703l1.663-3.182a.725.725 0 0 0-.72-1.102l-3.515.601a1.87 1.87 0 0 1-1.629-.523l-2.494-2.57a.707.707 0 0 0-.743-.19.722.722 0 0 0-.487.59l-.51 3.55a1.835 1.835 0 0 1-1.01 1.38l-3.247 1.613a.701.701 0 0 0-.399.68zM2.875 202.727l6.84-.323a2.426 2.426 0 0 0 1.962-1.112l3.613-5.831a2.444 2.444 0 0 1 4.368.433l2.416 6.421a2.42 2.42 0 0 0 1.696 1.514l6.65 1.646a2.46 2.46 0 0 1 1.8 2.973 2.462 2.462 0 0 1-.846 1.334l-5.343 4.295a2.408 2.408 0 0 0-.909 2.092l.488 6.844a2.456 2.456 0 0 1-2.28 2.617 2.443 2.443 0 0 1-1.5-.392l-5.72-3.772a2.408 2.408 0 0 0-2.216-.223l-6.34 2.582a2.446 2.446 0 0 1-3.217-1.293 2.467 2.467 0 0 1-.11-1.622l1.808-6.621a2.467 2.467 0 0 0-.488-2.226l-4.434-5.252a2.466 2.466 0 0 1 .218-3.471 2.444 2.444 0 0 1 1.544-.613zM117.812 90.18a3.042 3.042 0 0 1-3.215 3.005l-6.828-.467a1.882 1.882 0 0 0-1.607.712l-4.257 5.374a2.996 2.996 0 0 1-4.219.498 3.016 3.016 0 0 1-1.046-1.61l-1.663-6.677a1.844 1.844 0 0 0-1.175-1.313L87.395 87.3a3.02 3.02 0 0 1-.543-5.375l5.798-3.65c.53-.329.862-.9.886-1.525l.3-6.866a3.009 3.009 0 0 1 3.096-2.92c.669.022 1.31.266 1.825.695L104 72.11a1.89 1.89 0 0 0 1.752.412l6.595-1.836a2.974 2.974 0 0 1 3.037.89c.763.856.978 2.071.555 3.138l-2.56 6.365a1.909 1.909 0 0 0 .176 1.758l3.78 5.72c.308.485.473 1.049.477 1.625zm-31.259-5.53a1.857 1.857 0 0 0 1.22 1.591l6.406 2.404c.93.34 1.63 1.126 1.862 2.092l1.663 6.676a1.895 1.895 0 0 0 3.326.724l4.256-5.375a2.976 2.976 0 0 1 2.55-1.113l6.828.467a1.849 1.849 0 0 0 1.762-.934 1.898 1.898 0 0 0 0-2.003l-3.78-5.73a3.026 3.026 0 0 1-.288-2.783l2.56-6.376a1.905 1.905 0 0 0-1.08-2.463 1.89 1.89 0 0 0-1.136-.074l-6.596 1.836c-.95.267-1.97.046-2.726-.59l-5.243-4.45a1.902 1.902 0 0 0-2.684.262c-.26.317-.41.708-.431 1.117l-.289 6.855a3.028 3.028 0 0 1-1.407 2.425l-5.797 3.64a1.87 1.87 0 0 0-.976 1.602zm79.346-28.965l3.414.912c.39.099.805-.001 1.109-.267l2.682-2.303a1.26 1.26 0 0 1 1.782.138c.182.214.288.482.302.763l.188 3.538c.028.417.256.795.61 1.013l3.015 1.847a1.283 1.283 0 0 1-.21 2.226l-3.326 1.269a1.3 1.3 0 0 0-.776.89l-.82 3.45a1.263 1.263 0 0 1-2.217.511l-2.217-2.76c-.27-.329-.686-.5-1.108-.456l-3.525.278a1.266 1.266 0 0 1-1.305-1.226c-.008-.255.06-.506.196-.721l1.918-2.982c.223-.353.264-.792.11-1.18l-1.363-3.271a1.28 1.28 0 0 1 .764-1.64c.25-.09.521-.101.777-.03zm4.467 207.642l2.317.623c.272.068.56.002.776-.178l1.795-1.569a.863.863 0 0 1 1.42.612l.132 2.404a.835.835 0 0 0 .41.679l2.04 1.257a.859.859 0 0 1-.133 1.536l-2.217.868a.856.856 0 0 0-.532.6l-.554 2.338a.854.854 0 0 1-1.497.345l-1.507-1.859a.852.852 0 0 0-.732-.322l-2.394.2a.865.865 0 0 1-.787-1.335l1.297-2.014a.86.86 0 0 0 .077-.802l-.92-2.225a.858.858 0 0 1 .46-1.121.85.85 0 0 1 .55-.037z"/></g><g opacity=".1"><path fill="#fff" d="M361.425 219.894a3.895 3.895 0 1 1 0 7.79 3.895 3.895 0 0 1 0-7.79z"/></g><g opacity=".3"><path fill="#fff" d="M370.513 221.192a1.298 1.298 0 1 1 0 2.597 1.298 1.298 0 0 1 0-2.597z"/></g><g opacity=".2"><path fill="#fff" d="M356.881 221.192a1.947 1.947 0 1 1 0 3.895 1.947 1.947 0 0 1 0-3.895z"/></g><g opacity=".2"><path fill="#fff" d="M331.552 166.138c.008 1.211-1.016 2.199-2.287 2.205h-.014c-1.264 0-2.292-.974-2.3-2.181-.007-1.212 1.017-2.2 2.288-2.206h.012zm-6.85 5.845v.128c.008.726-.603 1.319-1.364 1.326h-.014c-.754 0-1.37-.58-1.376-1.301-.008-.726.603-1.32 1.364-1.327h.026l.067-.001zm-3.885-8.027c.028.582-.443 1.074-1.053 1.101l-.053.001c-.587 0-1.075-.44-1.102-1.005-.029-.58.443-1.073 1.053-1.101h.088z"/></g><g opacity=".2"><path fill="#fff" d="M436.694-46.705c.02 3.306-2.754 6-6.195 6.017h-.038c-3.424 0-6.21-2.658-6.23-5.951-.02-3.306 2.754-6.001 6.195-6.02h.035zm-18.554 15.95v.348c.02 1.981-1.633 3.6-3.696 3.619h-.038c-2.042 0-3.71-1.584-3.727-3.55-.02-1.982 1.633-3.6 3.696-3.62h.069c.061-.002.123-.004.183-.004zM407.616-52.66c.076 1.589-1.2 2.933-2.85 3.006a3.213 3.213 0 0 1-.145.003c-1.59 0-2.91-1.2-2.983-2.741-.08-1.586 1.2-2.93 2.85-3.006h.24z"/></g><g opacity=".15"><path fill="#fff" d="M285.348 261.248c-11.578-3.103-13.13-8.892-4.653-17.368 8.476-8.476 14.265-6.925 17.367 4.654 3.103 11.578-1.135 15.816-12.714 12.714z"/></g><g opacity=".1"><path fill="#fff" d="M388.974-6.896l66.537 51.907a1.298 1.298 0 1 1-1.597 2.047L387.377-4.848a1.298 1.298 0 1 1 1.597-2.048z"/><path fill="url(#7vjte)" d="M388.974-6.896l66.537 51.907a1.298 1.298 0 1 1-1.597 2.047L387.377-4.848a1.298 1.298 0 1 1 1.597-2.048z"/></g><g opacity=".1"><path fill="#fff" d="M395.496 151.584l41.339 32.25a.806.806 0 1 1-.992 1.271l-41.34-32.249a.807.807 0 1 1 .993-1.272z"/><path fill="url(#7vjtf)" d="M395.496 151.584l41.339 32.25a.806.806 0 1 1-.992 1.271l-41.34-32.249a.807.807 0 1 1 .993-1.272z"/></g><g><g opacity=".1"><path fill="#fff" d="M423.176 60.515c19.222-6.938 40.428 3.02 47.366 22.241 6.938 19.222-3.02 40.428-22.242 47.366-19.221 6.938-40.428-3.02-47.366-22.242-6.937-19.221 3.02-40.428 22.242-47.365z"/></g><g opacity=".2"><path fill="none" stroke="#fff" stroke-miterlimit="20" stroke-width="4" d="M432.262 87.601c26.978-9.737 50.23-13.804 51.933-9.083 1.704 4.722-18.784 16.442-45.762 26.18-26.977 9.737-50.228 13.803-51.932 9.082-1.704-4.72 18.784-16.442 45.762-26.18z" clip-path="url(&quot;#7vjtg&quot;)"/></g><g><path fill="#a046dd" d="M398.07 99.943l58.616-21.158 2.645 7.328-58.617 21.157z"/></g></g></g></g></svg>