<svg xmlns="http://www.w3.org/2000/svg" width="1280" height="195" viewBox="0 0 1280 195"><defs><linearGradient id="ntqba" x1="-6" x2="1284" y1="97.01" y2="98" gradientUnits="userSpaceOnUse"><stop offset="0" stop-color="#632e94"/><stop offset="1" stop-color="#9c32e3"/></linearGradient><linearGradient id="ntqbb" x1="-5" x2="1285" y1="85" y2="85" gradientUnits="userSpaceOnUse"><stop offset="0" stop-color="#632e94"/><stop offset="1" stop-color="#9c32e3"/></linearGradient></defs><g><g opacity=".2"><path fill="#7312b6" d="M-6-.002v30.694l253.574 157.036c9.93 6.15 20.888 8.467 31.702 6.705L1284 30.692V-.002z"/><path fill="url(#ntqba)" d="M-6-.002v30.694l253.574 157.036c9.93 6.15 20.888 8.467 31.702 6.705L1284 30.692V-.002z"/></g><g><path fill="#7312b6" d="M-5 5.998v24.87l253.574 127.24c9.93 4.982 20.888 6.86 31.702 5.432L1285 30.868V5.998z"/><path fill="url(#ntqbb)" d="M-5 5.998v24.87l253.574 127.24c9.93 4.982 20.888 6.86 31.702 5.432L1285 30.868V5.998z"/></g></g></svg>