<?xml version="1.0" encoding="utf-8"?>
<!-- Generator: Adobe Illustrator 24.0.1, SVG Export Plug-In . SVG Version: 6.00 Build 0)  -->
<svg version="1.1" id="Layer_1" xmlns="http://www.w3.org/2000/svg" xmlns:xlink="http://www.w3.org/1999/xlink" x="0px" y="0px"
	 viewBox="0 0 500 500" style="enable-background:new 0 0 500 500;" xml:space="preserve">
<style type="text/css">
	.st0{fill:#251c29;}
	.st1{opacity:0.3;fill:#FFFFFF;enable-background:new    ;}
	.st2{opacity:0.2;fill:#FFFFFF;enable-background:new    ;}
	.st3{opacity:0.1;fill:#FFFFFF;enable-background:new    ;}
	.st4{fill:#BA68C8;}
	.st5{opacity:0.7;fill:#FFFFFF;enable-background:new    ;}
	.st6{opacity:0.2;}
	.st7{fill:#FFFFFF;}
	.st8{opacity:0.1;enable-background:new    ;}
	.st9{opacity:0.6;fill:#FFFFFF;enable-background:new    ;}
	.st10{fill:#FFFFFF;fill-opacity:0;}
	.st11{opacity:0.1167;fill:#FFFFFF;enable-background:new    ;}
	.st12{opacity:0.2333;fill:#FFFFFF;enable-background:new    ;}
	.st13{opacity:0.35;fill:#FFFFFF;enable-background:new    ;}
	.st14{opacity:0.4667;fill:#FFFFFF;enable-background:new    ;}
	.st15{opacity:0.5833;fill:#FFFFFF;enable-background:new    ;}
	.st16{opacity:5.000000e-02;fill:#455A64;enable-background:new    ;}
	.st17{opacity:0.1;fill:#455A64;enable-background:new    ;}
	.st18{opacity:0.5;fill:#FFFFFF;enable-background:new    ;}
	.st19{opacity:0.1;}
	.st20{opacity:0.3;}
	.st21{fill:url(#SVGID_1_);}
	.st22{fill:#F5F5F5;}
	.st23{fill:#E0E0E0;}
	.st24{opacity:0.3;fill:#455A64;enable-background:new    ;}
	.st25{opacity:0.9;fill:#FFFFFF;enable-background:new    ;}
	.st26{fill:#455A64;}
	.st27{opacity:5.000000e-02;fill:#FFFFFF;enable-background:new    ;}
	.st28{opacity:0.15;fill:#BA68C8;enable-background:new    ;}
	.st29{opacity:0.6;fill:#455A64;enable-background:new    ;}
	.st30{opacity:0.5;fill:#455A64;enable-background:new    ;}
	.st31{opacity:0.8;fill:#BA68C8;enable-background:new    ;}
	.st32{opacity:0.8;fill:#FFFFFF;enable-background:new    ;}
	.st33{opacity:0.5;fill:#BA68C8;enable-background:new    ;}
	.st34{fill:#F0F0F0;}
	.st35{fill:#FAFAFA;}
	.st36{opacity:0.5;}
	.st37{fill:url(#SVGID_2_);}
	.st38{fill:none;}
</style>
<g id="freepik--Space--inject-47">
	<g id="freepik--space--inject-47_1_">
		<path id="freepik--space--inject-47" class="st0" d="M279.6,152.5c-13.3-9.3-24.6-24-34.7-36.1c-46-55-124.9-49-181.9-10.2
			c-21.5,14.6-36.6,30.5-44.8,56c-6.1,18.9-3.2,41.7,11.7,54.7c9.6,8.4,22.6,11.5,34.1,17c48.8,23.5,1.4,65.8-20.6,89.6
			c-16.9,18.2-24,36.4-18.7,61.6c8.3,38.7,51.7,63.8,86.4,73.5c51.7,14.3,102.6,4.2,122.2-2.7c39.5-13.9,75.3-37.6,105.8-66.1
			c21.5-20.1,40.9-42.7,64.5-60.3c14.4-10.7,30.1-19.4,44.5-30.1s27.7-23.7,34.7-40.2c10.1-23.8,2-52.8-17.4-69.4
			s-47.1-23.4-71.8-24.1C351.7,164.3,313.3,175.9,279.6,152.5z"/>
		<path class="st0" d="M288,138.4c27.6,20.2,65.4,15,98,13.9c8.5-0.3,19-3.6,24.3-10.3c6.7-8.5,2.9-17.6-3.6-26.2
			C395,100,377.6,89.2,359.8,81c-21.9-10-38.5-17.5-85-20.7c-19-1.3-33.3,2.3-36.5,7c-5.9,8.7,1.6,16.9,7.5,25.3
			c10.8,15.7,23.6,29.9,38,42.3C285.2,136.2,286.6,137.3,288,138.4z"/>
	</g>
</g>
<g id="freepik--Planets--inject-47">
	<g id="freepik--Planet--inject-47">
		<g id="freepik--Rings--inject-47">
			<path class="st1" d="M127.9,211.1c-23.7,0-43-19.3-43-43s19.3-43,43-43s43,19.3,43,43l0,0C170.9,191.8,151.6,211.1,127.9,211.1z
				 M127.9,126.2c-23.2,0-42,18.8-42,42s18.8,42,42,42s42-18.8,42-42l0,0C169.9,145,151.1,126.2,127.9,126.2z"/>
			<path class="st2" d="M127.9,214.2c-25.4,0-46.1-20.6-46.1-46.1s20.6-46.1,46.1-46.1s46.1,20.6,46.1,46.1l0,0
				C173.9,193.6,153.3,214.2,127.9,214.2z M127.9,123.1c-24.9,0-45.1,20.2-45.1,45.1s20.2,45.1,45.1,45.1s45.1-20.2,45.1-45.1
				C172.9,143.2,152.8,123.1,127.9,123.1z"/>
			<path class="st3" d="M127.9,218c-27.6,0-49.9-22.3-49.9-49.9s22.3-49.9,49.9-49.9s49.9,22.3,49.9,49.9
				C177.7,195.6,155.4,218,127.9,218z M127.9,119.2c-27,0-48.9,21.9-48.9,48.9s21.9,48.9,48.9,48.9s48.9-21.9,48.9-48.9l0,0
				C176.7,141.1,154.8,119.3,127.9,119.2L127.9,119.2z"/>
			<path class="st3" d="M127.9,222.8c-30.2,0-54.7-24.5-54.7-54.7s24.5-54.7,54.7-54.7s54.7,24.5,54.7,54.7l0,0
				C182.5,198.3,158.1,222.8,127.9,222.8z M127.9,114.4c-29.7,0-53.7,24-53.7,53.7s24,53.7,53.7,53.7s53.7-24,53.7-53.7l0,0
				C181.5,138.5,157.5,114.5,127.9,114.4z"/>
		</g>
		<g id="freepik--planet--inject-47">
			<circle class="st4" cx="127.9" cy="168.1" r="39.4"/>
			<circle class="st5" cx="127.9" cy="168.1" r="39.4"/>
			<path class="st4" d="M123.5,144.5c-0.3-0.7-0.6-1.3-0.9-2c-0.6-1.1-6.6-12-7-11.8c-2.4,0.8-4.7,1.8-6.9,3c2.4,3.6,5.4,7,7.5,10.7
				c1.4,2.8,2.6,5.7,3.5,8.7c0.4,1.3,0.9,2.5,1.7,3.6c0.7,1.1,1.9,1.9,3.3,2.1c0.2,0,0.4,0,0.6-0.1c0.5-0.2,0.6-0.8,0.6-1.3
				C126.1,153,125.3,148.5,123.5,144.5z"/>
			<path class="st4" d="M156.8,195c-6.7-6.5-19.1-18.6-24.4-24.1c-4-4.1-9.4-6-13.4-10c-2.7-2.7-3.8-6.7-4.9-10.4
				c-0.6-2.1-1.7-8.7-4.9-7.9c-0.1,1.1,0.6,3.6-0.6,4.3s-2-1.4-2.4-2.1s-4-6.5-3.9-6.6c-1.1,1-2.2,2-3.2,3.1
				c3.5,6.4,9,16.7,10.3,18.8c1.9,3.1,0,6.6-2.3,3.2c-1.4-2.1-7.9-10.3-12.5-16.1c-1.5,2.4-2.8,5-3.8,7.7c3.7,5.4,7.8,12,13.8,15
				c2,1.1,4.4,1.3,6.4,0.4c1.3-0.7,2.4-1.9,3.9-2.3c1.8-0.4,3.7,0.7,5.2,1.8c3.2,2.3,6.3,4.7,9.2,7.3c1.5,1.1,2.9,2.4,4.1,3.9
				c0.6,0.9,0.7,2.8-0.3,3.5c0,0.4-1.4,0.3-1.6,0.3c-0.5-0.2-1-0.5-1.4-0.9c-1.3-0.9-2.7-1.6-4.1-2.5c-1-0.6-2.4-1.3-3.4-0.6
				c0,1.1,0.5,2.1,1.3,2.9c2.6,2.9,5.6,5.5,8.7,7.8c0.6,0.5,1.2,0.8,1.9,1.1s1.5,0.2,2.1-0.3s0.9-1.3,1.6-1.7
				c0.7-0.3,1.4-0.3,2.1,0.1c1.4,0.8,2.5,2.4,3.9,3.3c2.3,1.9,4.5,4,6.5,6.3C152.9,198.7,154.9,197,156.8,195z"/>
			<path class="st4" d="M127.9,207.6c4.9,0,9.8-0.9,14.4-2.7c-6.5-5.8-16.8-15-19.9-17c-2.8-1.8-4.7,1-6.3,2.9
				c-0.8,0.9-1.7,2.1-3,2.3c-1.8,0.4-3.6-1.5-3.7-3.3c0.1-1.4,0.6-2.7,1.6-3.8c0.9-1.1,2.1-2,2.6-3.3c0.7-2.1-0.5-4.3-1.6-6.2
				c-0.4-0.8-1.1-1.4-1.9-1.8c-1.2-0.3-2.2,0.8-3.1,1.6c-1,1-2.2,2-3.4,2.7c-0.7,0.6-1.6,0.9-2.6,0.9c-1-0.1-2-0.6-2.7-1.2
				c-2-1.4-3.7-3-5.2-4.9c-0.8-1-1.6-2.1-2.4-3.1c-0.4-0.6-2.2-2.3-2.2-3c0,0.1,0,0.3,0,0.4C88.4,189.9,106.1,207.6,127.9,207.6
				L127.9,207.6z"/>
			<path class="st4" d="M144,132.1c-0.2,2.1,0.7,4.6,3.8,8.7c1.6,2.1,3.3,4.2,4.9,6.2c1.3,1.6,3.7,3.5,3.6,5.7
				c0,1.5-1.1,2.7-2.3,3.7c-1,0.8-2.1,1.5-3.2,2.1c-0.9,0.5-2,1.1-2.1,2.2s0.9,1.6,1.8,2.1c3.2,1.9,6.4,3.6,9.7,5.3
				c1.4,0.7,3.3,1.3,4.5,2.4c0.8,0.8,1.3,1.8,2.2,2.6c0.3-1.6,0.4-3.3,0.4-5C167.3,152.6,158.2,138.5,144,132.1z"/>
			<path class="st4" d="M143.8,155.7c0.5-0.4,1-0.7,1.6-1c1.2-0.6,2.5-1.3,2.8-2.6c0.4-1.7-1.3-3.2-2.9-4.1l-4.8-2.9
				c-0.8-0.4-1.5-1-2.1-1.6c-0.6-0.7-1.1-1.6-1.4-2.5c-1-2.3-1.8-4.7-2.4-7.1c-0.3-0.9-0.7-4.9-2.1-5c-3.1-0.4-6.3-0.3-9.4,0.1
				c0.8-0.1,2.6,4.8,2.9,5.5c1.2,3.1,2.2,6.4,2.9,9.6c0.6,3.2,4.6,4.8,7.1,6.6c0.4,0.2,0.7,0.5,0.9,0.9c0.1,0.5,0.1,1.1-0.2,1.5
				c-0.8,1.4-1.7,2.8-2.7,4.2s-1.4,3-1.1,4.7c0.5,1.5,1.4,2.7,2.6,3.7c8.4,8.1,17.3,15.8,25.3,24.3c1.7-2.6,3.1-5.3,4.2-8.2
				c0.3-0.8-4.3-4.5-4.9-5c-2.7-2.1-5.8-3.9-8.5-6.1l-7.6-6.1c-1.2-0.8-2.2-2-2.7-3.3c-0.3-1.4,0-2.8,0.9-3.9
				C142.6,156.7,143.1,156.2,143.8,155.7z"/>
			<g class="st6">
				<path class="st7" d="M132.3,191.8c0.3,0.7,0.6,1.3,0.9,2c0.6,1.1,6.6,12,7,11.8c2.4-0.8,4.7-1.8,6.9-3c-2.4-3.6-5.4-7-7.5-10.7
					c-1.5-2.8-2.6-5.7-3.5-8.7c-0.4-1.3-0.9-2.5-1.7-3.6c-0.7-1.1-1.9-1.9-3.2-2.1c-0.2-0.1-0.4-0.1-0.6,0c-0.5,0.2-0.6,0.8-0.6,1.3
					C129.6,183.3,130.5,187.7,132.3,191.8z"/>
				<path class="st7" d="M99,141.3c6.7,6.5,19.1,18.6,24.3,24.1c4,4.2,9.4,6,13.4,10c2.7,2.7,3.8,6.7,4.9,10.4
					c0.6,2.1,1.7,8.7,4.9,7.9c0.1-1.1-0.6-3.6,0.6-4.3s2,1.4,2.4,2.1s4,6.5,3.9,6.6c1.1-1,2.2-2,3.2-3.1
					c-3.5-6.4-9.1-16.7-10.3-18.8c-1.9-3.1,0-6.6,2.3-3.2c1.4,2.1,7.9,10.3,12.5,16.1c1.5-2.4,2.8-5,3.8-7.7
					c-3.7-5.4-7.8-12-13.8-15c-2-1.1-4.4-1.3-6.4-0.4c-1.4,0.7-2.4,1.9-3.9,2.3c-1.8,0.4-3.6-0.7-5.2-1.8c-3.2-2.3-6.3-4.7-9.2-7.3
					c-1.3-1.2-3.2-2.4-4.2-3.9c-0.6-0.9-0.7-2.8,0.3-3.5c0-0.4,1.4-0.3,1.6-0.3c0.5,0.2,1,0.5,1.4,0.9c1.3,0.9,2.7,1.7,4.1,2.5
					c1,0.6,2.4,1.3,3.4,0.6c0-1.1-0.5-2.1-1.4-2.9c-2.6-2.9-5.5-5.5-8.7-7.8c-0.6-0.5-1.2-0.8-1.9-1.1c-0.7-0.2-1.5-0.2-2.2,0.3
					c-0.6,0.5-0.9,1.3-1.6,1.7c-0.7,0.3-1.4,0.3-2.1-0.1c-1.4-0.8-2.5-2.4-3.9-3.3c-2.3-1.9-4.5-4-6.5-6.3
					C102.8,137.6,100.8,139.3,99,141.3z"/>
				<path class="st7" d="M127.9,128.7c-4.9,0-9.8,0.9-14.4,2.7c6.5,5.9,16.8,15,19.9,17c2.8,1.8,4.6-1,6.3-2.9
					c0.8-0.9,1.7-2.1,3-2.3c1.8-0.4,3.6,1.5,3.7,3.3c-0.1,1.4-0.6,2.7-1.6,3.7c-0.9,1.1-2.1,2-2.6,3.3c-0.7,2.1,0.5,4.3,1.6,6.2
					c0.4,0.8,1.1,1.4,1.9,1.8c1.2,0.3,2.2-0.8,3.1-1.6c1-1,2.2-1.9,3.4-2.7c0.7-0.6,1.6-0.9,2.6-0.9c1,0.1,2,0.6,2.7,1.2
					c2,1.4,3.7,3,5.2,4.9c0.8,1,1.6,2.1,2.4,3.1c0.4,0.6,2.2,2.3,2.2,3c0-0.1,0-0.3,0-0.4C167.3,146.3,149.7,128.7,127.9,128.7
					L127.9,128.7z"/>
				<path class="st7" d="M111.8,204.1c0.2-2.1-0.7-4.7-3.8-8.7c-1.6-2.1-3.3-4.2-4.9-6.2c-1.3-1.6-3.7-3.5-3.7-5.7
					c0-1.5,1.1-2.7,2.3-3.7c1-0.8,2.1-1.5,3.2-2.1c0.9-0.5,2-1.1,2-2.2s-0.9-1.6-1.8-2.1c-3.2-1.9-6.4-3.6-9.7-5.3
					c-1.4-0.7-3.3-1.3-4.5-2.4c-0.8-0.8-1.3-1.8-2.2-2.6c-0.3,1.7-0.4,3.3-0.4,5C88.4,183.7,97.6,197.8,111.8,204.1z"/>
				<path class="st7" d="M112,180.5c-0.5,0.4-1,0.7-1.6,1c-1.2,0.6-2.5,1.3-2.8,2.6c-0.4,1.7,1.3,3.2,2.9,4.1l4.8,2.9
					c0.8,0.4,1.5,1,2.2,1.6c0.6,0.7,1.1,1.6,1.4,2.5c1,2.3,1.8,4.7,2.4,7.1c0.2,0.9,0.7,4.9,2.1,5c1.5,0.2,3,0.3,4.5,0.3
					c1.6,0,3.3-0.1,4.9-0.3c-0.8,0.1-2.6-4.8-2.9-5.5c-1.2-3.1-2.2-6.4-2.9-9.6c-0.6-3.2-4.6-4.8-7.1-6.6c-0.4-0.2-0.7-0.5-0.9-0.9
					c-0.1-0.5-0.1-1.1,0.2-1.5c0.8-1.4,1.7-2.8,2.7-4.2s1.4-3,1.1-4.7c-0.5-1.5-1.4-2.7-2.6-3.7c-8.4-8.1-17.3-15.9-25.3-24.3
					c-1.7,2.6-3.1,5.3-4.2,8.2c-0.3,0.8,4.3,4.5,4.9,5c2.7,2.2,5.8,3.9,8.5,6.1l7.6,6.1c1.2,0.8,2.2,2,2.7,3.3
					c0.3,1.4,0,2.8-0.9,3.9C113.2,179.6,112.6,180.1,112,180.5z"/>
			</g>
			<path class="st8" d="M166.9,174.1c-2.9,14.6-29.2,27.9-50.3,18.9c-22.4-9.6-26.6-39.9-15.7-53.6l0,0
				C85,154.3,84.2,179.2,99,195.1s39.8,16.7,55.7,1.9C161.3,190.9,165.5,182.9,166.9,174.1L166.9,174.1z"/>
			<circle class="st9" cx="134.9" cy="149.6" r="16.6"/>
			<circle class="st9" cx="155.7" cy="167.5" r="7.6"/>
			<path class="st8" d="M88.4,168.1c0,21.8,17.7,39.4,39.5,39.4c13.7,0,26.3-7.1,33.5-18.7c-0.9,1.4-12.1,18.9-39.6,13.9
				c-28.7-5.3-33.4-34.6-32.9-40.8C88.6,164,88.4,166.1,88.4,168.1z"/>
		</g>
	</g>
	<circle class="st4" cx="376.8" cy="255.2" r="41.8"/>
	<circle class="st10" cx="376.8" cy="255.2" r="41.8"/>
	<circle class="st11" cx="373.9" cy="253.1" r="37"/>
	<circle class="st12" cx="371.1" cy="251.1" r="32.2"/>

		<ellipse transform="matrix(0.3801 -0.9249 0.9249 0.3801 -2.1132 494.9409)" class="st13" cx="368.2" cy="249" rx="27.5" ry="27.4"/>
	<ellipse class="st14" cx="365.2" cy="247" rx="22.7" ry="22.7"/>
	<ellipse class="st15" cx="362.4" cy="245" rx="17.9" ry="17.9"/>
	<circle class="st5" cx="359.5" cy="243" r="13.1"/>
	<path class="st16" d="M415.6,270.7c-8.6,21.4-32.9,31.8-54.3,23.3l0,0c-0.7-0.3-1.3-0.6-2-0.9c23.1,0.1,41.9-18.5,42-41.5
		c0.1-16.4-9.4-31.3-24.2-38.2c23.1,0.2,41.7,19,41.5,42.1C418.5,260.7,417.5,265.9,415.6,270.7L415.6,270.7z"/>
	<path class="st17" d="M402,225.7c16.1,14.1,17.7,38.7,3.6,54.8c-8.3,9.4-20.6,14.3-33.2,13c22.5-3.4,37.9-24.4,34.5-46.9
		c-1.5-9.6-6.2-18.4-13.5-24.8c-1.7-1.5-3.5-2.8-5.4-4C393.2,219.5,397.9,222.1,402,225.7z"/>
	<circle class="st18" cx="359.3" cy="270.6" r="13.1"/>
	<circle class="st18" cx="365.7" cy="233.1" r="13.1"/>
	<path class="st18" d="M342.9,254.3c-3.3-1.3-4.9-5.1-3.6-8.4c1.3-3.3,5.1-4.9,8.4-3.6c3.3,1.3,4.9,5.1,3.6,8.4l0,0
		C349.9,254.1,346.2,255.7,342.9,254.3z"/>
	<g class="st19">
		<path class="st7" d="M460.2,215.1c-1.4-2.4-4.9-6.5-13-6.5c-8.4,0-22.2,4.3-41,12.7l-2.3,1l-0.9,0.4c0.3,0.2,0.6,0.5,0.9,0.7
			l0.4-0.2l2.3-1c18.6-8.4,32.3-12.6,40.6-12.6c7.6,0,10.9,3.8,12.1,6c5.6,9.9-5.2,23.1-36,44.1c-1.8,1.2-3.7,2.5-5.5,3.7
			c-8.2,5.4-17.1,10.8-26.5,16.1c-9.6,5.5-19.4,10.6-28.5,15c-2,1-4.1,1.9-6,2.8c-19.9,9.1-34.4,13.7-43.1,13.7
			c-7.6,0-10.9-3.8-12.1-6c-5.4-9.5,3.8-21.5,31.7-41.1l2-1.4l0.4-0.3c-0.1-0.4-0.1-0.7-0.2-1.1l-0.8,0.5l-2,1.4
			c-28.5,20-37.8,32.3-32,42.4c1.4,2.4,4.9,6.5,13,6.5c8.8,0,23.5-4.6,43.5-13.8c2.3-1,4.6-2.1,7-3.3c8.9-4.3,18.4-9.3,27.7-14.5
			c9.1-5.1,17.7-10.4,25.7-15.6c2.2-1.4,4.3-2.9,6.4-4.3C455.3,239.1,466.1,225.6,460.2,215.1z"/>
	</g>
	<g class="st19">
		<path class="st7" d="M421.6,257.3c-1.1,0.7-2.1,1.5-3.2,2.2c-8.8,5.9-18.4,11.8-28.6,17.6c-10.4,5.9-21,11.4-30.8,16
			c-1.2,0.6-2.4,1.1-3.6,1.7c-13.4,6.1-31.6,13.5-41.9,13.5c-5.8,0-8.4-2.4-9.5-4.5c-4.3-7.6,5.2-19.1,30.9-37.2l1.4-1
			c0.1,0.3,0.2,0.7,0.3,1l-1.1,0.8c-25.2,17.7-34.6,28.8-30.6,35.9c1,1.8,3.4,4,8.6,4c10.1,0,28.1-7.3,41.5-13.4l2.8-1.3
			c10-4.7,20.8-10.3,31.5-16.3c10.4-5.9,20.2-11.9,29.2-17.9l0,0c0.9-0.6,1.7-1.1,2.6-1.7c36.7-25,37.5-34.1,34.8-38.8
			c-1-1.8-3.4-4-8.6-4c-9.6,0-26.5,6.6-38.9,12.2l-1.2,0.5c-0.3-0.3-0.5-0.5-0.8-0.8l1.5-0.7c12.5-5.6,29.6-12.3,39.3-12.3
			c5.8,0,8.4,2.4,9.5,4.5C459.6,222.1,459,231.7,421.6,257.3z"/>
	</g>
	<g class="st6">
		<path class="st7" d="M419.9,254.8l-1.3,0.9c-9.2,6.2-19.4,12.5-30.3,18.7c-11.1,6.3-22.3,12.1-32.7,16.9l-1.5,0.7
			c-18.6,8.5-33,13.2-40.6,13.2c-3.5,0-5.8-1-6.9-3c-3.3-5.8,6.5-16.7,30-33.3l0.5-0.4c0.1,0.3,0.2,0.6,0.4,1l0,0l-0.3,0.2
			c-28.2,19.9-31.7,28.3-29.7,32c0.9,1.6,3,2.5,6,2.5c7.5,0,21.7-4.6,40.2-13.1l0.9-0.4c10.5-4.8,21.9-10.7,33.2-17.1
			c11-6.3,21.4-12.6,30.8-19l0.8-0.5c25-17,37-29.4,33.9-34.9c-0.9-1.6-3-2.5-6-2.5c-7.1,0-20.5,4.3-37.7,12l-0.3,0.1l-0.7-0.8
			l0.6-0.3c17.4-7.8,30.9-12.1,38.1-12.1c3.5,0,5.8,1,6.9,3C457.6,224.7,446.1,236.9,419.9,254.8z"/>
	</g>
	<g class="st20">
		<path class="st7" d="M428.6,231.4l-0.2,0.6c-0.4,1.1-2.3,4.4-11.5,11.5l-0.5,0.4c-10.6,7.9-21.6,15.1-33.2,21.5
			c-13.4,7.6-26.4,13.9-36.6,17.8l-0.6,0.2c-6.2,2.3-11,3.6-13.6,3.6c-0.3,0-0.7,0-1-0.1l-0.6-0.1l0.2-0.5c0.4-1,2-3.9,9.7-10.1
			c0.2,0.3,0.3,0.6,0.5,0.9c-6.2,5-8.3,7.8-9,9h0.1c2.5,0,7.1-1.2,12.9-3.4l1-0.4c10.2-3.9,23.1-10.2,36.5-17.8
			c11.5-6.4,22.5-13.6,33-21.5l0.8-0.6c7.4-5.8,9.8-8.9,10.6-10.2H427c-2.5,0-7.2,1.3-13.3,3.5c-0.1-0.3-0.3-0.6-0.5-0.9
			c6.2-2.3,11.1-3.6,13.8-3.6c0.3,0,0.7,0,1,0.1L428.6,231.4z"/>
	</g>
	<path class="st10" d="M418.6,254.5c0,0.4,0,0.8,0,1.2c0,0.8,0,1.6-0.1,2.5l0,0c0,0.4-0.1,0.8-0.1,1.3c-0.1,1.3-0.3,2.7-0.6,4
		c-0.1,0.5-0.2,0.9-0.3,1.4c-0.5,2-1.1,4-1.9,5.9c-8.1,20.4-30.6,31-51.5,24.3l-1.4-0.5c-0.5-0.2-1-0.4-1.5-0.6
		c-0.8-0.3-1.5-0.6-2.3-1c-0.4-0.2-0.8-0.4-1.1-0.6c-0.8-0.4-1.5-0.8-2.2-1.2l-1-0.6c-3.2-2-6.1-4.4-8.6-7.2
		c-0.2-0.3-0.5-0.5-0.7-0.8l1-0.4c10.2-3.9,23.1-10.2,36.5-17.8c11.5-6.4,22.5-13.6,33-21.5l0.8-0.6c0.1,0.3,0.2,0.7,0.3,1
		C418,247,418.5,250.7,418.6,254.5z"/>

		<linearGradient id="SVGID_1_" gradientUnits="userSpaceOnUse" x1="1590.1868" y1="-1663.8781" x2="1627.8167" y2="-1703.9779" gradientTransform="matrix(0.3719 -0.9283 0.9283 0.3719 1347.4923 2384.9365)">
		<stop  offset="0" style="stop-color:#455A64;stop-opacity:0"/>
		<stop  offset="0.3" style="stop-color:#3D7F7E;stop-opacity:0.28"/>
		<stop  offset="0.99" style="stop-color:#27DCBE;stop-opacity:0.99"/>
		<stop  offset="1" style="stop-color:#BA68C8"/>
	</linearGradient>
	<path class="st21" d="M452,219.8c2.6,4.6-11.2,17.7-33.4,32.9c-9.2,6.3-19.9,12.9-31.4,19.5c-12,6.8-23.5,12.7-33.9,17.4
		c-23.9,11-41.7,15.8-44.3,11.3c-2.4-4.3,9.5-16,29.3-30c0.5,1.3,1.2,2.6,1.8,3.9c-7.5,6-11.5,10.7-10.4,12.7s7.8,0.8,17.6-2.9
		c12.7-5.1,25-11.1,36.8-17.9c11.6-6.5,22.7-13.7,33.3-21.6c8.8-6.8,13.7-12.2,12.5-14.3s-7.7-0.8-17.3,2.8
		c-0.7-1.2-1.5-2.4-2.4-3.5C432.8,219.8,449.5,215.4,452,219.8z"/>
</g>
<g id="freepik--Rocket--inject-47">
	<g id="freepik--rocket--inject-47">
		<path class="st22" d="M141.1,342.8L141.1,342.8l19.5-8.4L150.4,318l-16.1,13.9l0,0c-0.6,0.8-1.1,1.8-0.9,2.8
			c0.2,3.2,2.1,6.1,4.8,7.8C139.1,343,140.1,343.1,141.1,342.8z"/>
		<path class="st4" d="M135.6,330.6l-1.3,1.2c-0.6,0.8-1.1,1.8-0.9,2.8c0.2,3.2,2.1,6.1,4.8,7.8c0.8,0.6,1.9,0.7,2.9,0.4l1.6-0.6
			l1.9-0.8c-0.9,0.3-2.1,0.1-2.9-0.4c-3.1-1.9-5-5.1-5.4-8.6c0-1,0.3-2.1,1-2.9L135.6,330.6z"/>
		<path class="st17" d="M138.2,342.4c0.8,0.6,1.9,0.7,2.9,0.4l0,0l19.5-8.4l-3.9-6.3l-20.5,12.8
			C136.8,341.6,137.5,342.1,138.2,342.4z"/>
		<path class="st23" d="M155.8,318c4.1,2.5,6.9,6.8,7.3,11.7c0.1,4.3-2.9,6.3-6.8,4.2c-4.1-2.5-6.9-6.8-7.3-11.7
			C148.8,317.8,151.8,315.9,155.8,318z"/>
		<path class="st22" d="M127.6,328.5L127.6,328.5l19.5-8.3l-10.2-16.4l-16.1,13.9l0,0c-0.7,0.7-1.2,1.8-1,2.7
			c0.2,3.2,2.1,6.1,4.8,7.8C125.5,328.7,126.5,328.9,127.6,328.5z"/>
		<path class="st4" d="M122.1,316.3l-1.3,1.2c-0.7,0.7-1.2,1.8-1,2.7c0.2,3.2,2.1,6.1,4.8,7.8c0.8,0.6,1.9,0.7,2.9,0.4l1.6-0.6
			l1.9-0.8c-0.9,0.3-2.1,0.1-2.9-0.4c-3.1-1.9-5.1-5.1-5.4-8.6c-0.1-0.9,0.3-2,0.9-2.8L122.1,316.3z"/>
		<path class="st17" d="M124.7,328.2c0.8,0.6,1.9,0.7,2.9,0.4l0,0l19.5-8.4l-3.9-6.3l-20.5,12.8
			C123.2,327.2,123.8,327.8,124.7,328.2z"/>

			<ellipse transform="matrix(0.8484 -0.5293 0.5293 0.8484 -143.3965 122.5999)" class="st23" cx="142.4" cy="311.7" rx="5.6" ry="9.7"/>
		<polygon class="st4" points="152.3,300.7 150.5,248.9 161.5,242.1 201.2,256.9 234.6,249.3 		"/>
		<polygon class="st9" points="152.3,300.7 150.5,248.9 161.5,242.1 201.2,256.9 234.6,249.3 		"/>
		<polygon class="st4" points="152.3,300.7 163.3,293.8 161.5,242.1 150.5,248.9 		"/>
		<polygon class="st24" points="152.3,300.7 163.3,293.8 161.5,242.1 150.5,248.9 		"/>
		<path class="st4" d="M149.4,338.7c0.8,0.4,1.5,0.8,2.3,1.1c4,1.6,7.6,1.4,10.2-0.1l74.1-46.2c8.9-5.6,16.6-12.7,23-21.1l20.3-26.9
			L276,239l-39.2,3.6c-12.6,1.2-25,5.4-35.8,12.1l-66,41.1l-0.4,0.3c-0.5,0.4-1.1,0.9-1.7,1.5c-2,2.2-3.2,5.8-3,10.3
			C130.5,319.4,139.1,333.3,149.4,338.7z"/>
		<path class="st25" d="M149.4,338.7c0.8,0.4,1.5,0.8,2.3,1.1c4,1.6,7.6,1.4,10.2-0.1l74.1-46.2c8.9-5.6,16.6-12.7,23-21.1
			l20.3-26.9L276,239l-39.2,3.6c-12.6,1.2-25,5.4-35.8,12.1l-66,41.1l-0.4,0.3c-0.5,0.4-1.1,0.9-1.7,1.5c-2,2.2-3.2,5.8-3,10.3
			C130.5,319.4,139.1,333.3,149.4,338.7z"/>
		<path class="st4" d="M162.1,339.6c-2.6,1.5-6.2,1.7-10.2,0.1c-0.7-0.4-1.5-0.7-2.3-1.1c-10.2-5.5-18.8-19.3-19.2-30.9
			c-0.2-4.5,1-8,3-10.3c0.4-0.6,1-1,1.7-1.5l8.5-5.2c-0.6,0.3-1.1,0.9-1.7,1.5c-2,2.3-3.2,5.8-3,10.3c0.4,11.6,9,25.4,19.2,30.9
			c0.8,0.4,1.5,0.8,2.3,1.1c4,1.6,7.6,1.4,10.2-0.1L162.1,339.6z"/>
		<path class="st4" d="M273,250.4c0.2,0.1,0.4,0.2,0.6,0.3c0.5,0.3,1.2,0.3,1.8,0.3l2.3-3.1l1.8-2.2l0,0c0.1-0.3,0.4-0.6,0.6-0.8
			c0.3-0.8,0.5-1.6,0.4-2.3c-0.2-2.2-2.1-3.9-4.3-3.6l0,0l-3.4,0.4l-4.4,0.4c-0.5,0.7-0.7,1.5-0.6,2.4
			C268.1,245.5,270,248.6,273,250.4z"/>
		<path class="st9" d="M245.9,252.2c12.8-4.3,31.4-14.5,34.3-10.7c-0.3-0.9-0.9-1.6-1.8-2.1c-0.7-0.4-1.5-0.4-2.3-0.4l0,0l-1.4,0.1
			l-37.8,3.5c-12.6,1.2-25,5.4-35.8,12.1l-66,41.1l-0.4,0.3c-0.5,0.4-1.1,0.9-1.7,1.5c-2,2.2-3.2,5.8-3,10.3c0.2,3,0.7,6.1,1.7,8.9
			c27.5-17.2,74-46.2,83.7-52.2C221.1,261.1,233.1,256.4,245.9,252.2z"/>
		<path class="st4" d="M240.7,267.3l15.2-10.8l-0.8-1.1c-1.9-2.8-3-6-3.3-9.3c-0.1-1.3,0.2-2.6,0.8-3.8c0-0.1,0.1-0.3,0.2-0.4
			l0.6-0.9l-16.3,1.5c-0.7,0.1-1.3,0.2-2.1,0.3c-1,2.2-1.6,4.6-1.3,7c0.2,5.3,2.4,11.4,6.2,16.6L240.7,267.3z"/>
		<path class="st26" d="M240.9,265.5l13-9.3c-2.1-2.9-3.3-6.4-3.5-10c-0.1-1.7,0.3-3.5,1.2-4.9l-14.9,1.4c-1.3,2.2-1.8,4.6-1.6,7.1
			C235.1,254.9,237.5,260.7,240.9,265.5z"/>
		<path class="st3" d="M240.9,265.6l2.6-1.9c-0.6-0.6-1.1-1.3-1.6-2c-0.6-0.8-1.3-1.7-1.1-2.8c0.4-1,1.2-1.8,2.2-2.1
			c1-0.2,2-0.8,2.8-1.4c0.8-0.8,1.2-2,1-3.2c-0.2-2.2-1.4-4.7-0.7-7c0.5-1.9,2.9-2,4.5-2.3c0.2-0.6,0.5-1.1,0.8-1.6l-14.9,1.4
			c-1.3,2.2-1.8,4.6-1.6,7.1C235.1,254.9,237.5,260.7,240.9,265.6z"/>
		<path class="st27" d="M245.2,241.8l-8.7,0.8c-1.3,2.2-1.8,4.6-1.6,7.1c0.2,4.2,1.5,8.4,3.6,12.1c-1.4-2.9-1.4-6.4,0.1-9.3
			c0.2-0.4,0.4-0.6,0.7-0.7c0.8-0.5,1.8,0.3,2.6-0.1c0.9-0.3,1-1.5,1-2.4c0-1.1,0-2.1-0.1-3.4l0,0
			C242.8,243.8,243.4,242.7,245.2,241.8z"/>
		<path class="st28" d="M162.1,339.7l74.1-46.2c8.9-5.6,16.6-12.7,23-21.1l20.3-26.9l0,0c0.1-0.3,0.4-0.6,0.6-0.8
			c0.2-0.7,0.4-1.5,0.4-2.2c-0.2-2.2-2.1-3.9-4.3-3.6l0,0l0,0c2.1,1.1,3.1,2.5,2.1,4.2c-4.3,7.1-29.4,30.6-42.5,38.5
			c-10.4,6.3-66.2,41.1-89,55.5c0.8,0.6,1.8,1.2,2.6,1.6c0.8,0.4,1.5,0.8,2.3,1.1C155.8,341.4,159.4,341.2,162.1,339.7z"/>
		<path class="st29" d="M279.4,245.6c0.3-0.3,0.5-0.5,0.7-1c0.2-0.7,0.4-1.5,0.4-2.2c-0.2-2.2-2.2-3.8-4.3-3.6l0,0l0,0
			c2.1,1.1,3.1,2.5,2.1,4.2c-1.7,2.5-3.6,4.9-5.8,7c0.2,0.1,0.4,0.2,0.5,0.3s0.4,0.2,0.6,0.3c0.5,0.3,1.2,0.3,1.8,0.3l2.3-3.1
			L279.4,245.6L279.4,245.6L279.4,245.6z"/>
		<polygon class="st4" points="158.1,386.2 169,379.3 206.1,316.6 235.8,281.7 235.8,281.7 153.5,333 155.2,384.7 		"/>
		<polygon class="st9" points="158.1,386.2 169,379.3 206.1,316.6 235.8,281.7 235.8,281.7 153.5,333 155.2,384.7 		"/>
		<polygon class="st4" points="235.8,281.7 235.8,281.7 203.2,315.1 206.1,316.6 		"/>
		<polygon class="st4" points="206.1,316.6 169,379.3 166.2,377.8 203.2,315.1 		"/>
		<polygon class="st1" points="206.1,316.6 169,379.3 166.2,377.8 203.2,315.1 		"/>
		<polygon class="st4" points="153.5,333 155.2,384.7 166.2,377.8 164.4,326.1 		"/>
		<polygon class="st24" points="153.5,333 155.2,384.7 166.2,377.8 164.4,326.1 		"/>
		<polygon class="st4" points="158.1,386.2 169,379.3 166.2,377.8 155.2,384.7 		"/>
		<polygon class="st30" points="158.1,386.2 169,379.3 166.2,377.8 155.2,384.7 		"/>
		<polygon class="st4" points="90.6,299.5 130.1,307.9 152,294.2 152,291 96,292.9 90.5,296.3 		"/>
		<polygon class="st4" points="96.1,296.1 90.6,299.5 130.1,307.9 152,294.2 		"/>
		<polygon class="st18" points="90.5,296.3 90.6,299.5 96.1,296.1 96,292.9 		"/>
		<polygon class="st29" points="90.6,299.5 130.1,307.9 152,294.2 96.1,296.1 		"/>
		<path class="st31" d="M120.9,340.1c-5.2,3.7-12.9,4.4-12.9,4.4c1.5-0.9,2.5-2.5,2.6-4.3c0,0-5.9,4.5-10.7,5.4
			c-4.8,0.9-7.4-0.9-7.4-0.9c4.3-0.6,11-5.8,9.6-7.2c-1.4-1.4-5.4,1.4-5.4,1.4c0.2-6,9.1-9.4,9.1-9.4c-1.6-1-4.6,0.3-4.6,0.3
			s0.3-5.9,7.3-9.6c7-3.8,12.7,0.6,15.1,4.4C127,329.7,125.8,336.4,120.9,340.1z"/>
		<path class="st32" d="M117.3,334.5c-4.1,2.6-10.1,1.9-10.1,1.9c1.5-0.7,7.6-4.7,6.5-6.4c-1.1-1.7-4.5,0.1-4.5,0.1
			c2.6-6.4,8.9-7,11.1-3.5C122.5,329.9,120.4,332.6,117.3,334.5z"/>
		<path class="st31" d="M121.6,333.7c-3.6,2.1-6.7,5.1-8.7,8.7c1.8-0.5,3.8-0.3,5.3,0.8c0,0-7.6,3-10.6,6.9c-3,3.9-2.5,7-2.5,7
			c2.5-3.6,10-7.3,10.7-5.5c0.7,1.9-3.6,4.2-3.6,4.2c5.4,2.4,12.4-4.1,12.4-4.1c0.1,1.9-2.3,4-2.3,4s5.3,2.2,11.8-2.3
			s5.1-11.7,2.7-15.5C133.6,332.8,127,330.9,121.6,333.7z"/>
		<path class="st32" d="M125,339.4c-4.2,2.5-6.2,8.2-6.2,8.2c1.3-1.1,7.6-4.8,8.6-3c1.1,1.8-2,4-2,4c6.9,0.4,10.2-5,8-8.5
			C131.5,336.8,128.1,337.5,125,339.4z"/>
	</g>
</g>
<g id="freepik--Stars--inject-47">
	<path class="st33" d="M349.8,341.8c-4.6,0-8.4-3.8-8.4-8.4s3.8-8.4,8.4-8.4s8.4,3.8,8.4,8.4S354.4,341.8,349.8,341.8L349.8,341.8z
		 M349.8,325.7c-4.3,0-7.7,3.5-7.7,7.7c0,4.3,3.5,7.7,7.7,7.7c4.3,0,7.7-3.5,7.7-7.7l0,0C357.5,329.1,354,325.7,349.8,325.7z"/>
	<path class="st7" d="M352.1,333.4c0,1.3-1.1,2.4-2.4,2.4s-2.4-1.1-2.4-2.4s1.1-2.4,2.4-2.4l0,0C351.1,331,352.1,332.1,352.1,333.4z
		"/>
	<path class="st33" d="M243.4,191c-7.3,0-13.2-5.9-13.2-13.2s5.9-13.2,13.2-13.2s13.2,5.9,13.2,13.2l0,0
		C256.7,185.1,250.7,191,243.4,191z M243.4,165.3c-6.9,0-12.5,5.6-12.5,12.6c0,6.9,5.6,12.5,12.6,12.5c6.9,0,12.5-5.6,12.5-12.6l0,0
		C256,170.8,250.4,165.2,243.4,165.3L243.4,165.3z"/>
	<path class="st7" d="M247.2,177.8c0,2.1-1.7,3.8-3.8,3.8s-3.8-1.7-3.8-3.8s1.7-3.8,3.8-3.8l0,0C245.5,174,247.2,175.6,247.2,177.8
		C247.2,177.7,247.2,177.7,247.2,177.8z"/>
	<path class="st33" d="M349.2,139.8c-4.6,0-8.4-3.8-8.4-8.4c0-4.6,3.8-8.4,8.4-8.4s8.4,3.8,8.4,8.4
		C357.6,136,353.8,139.8,349.2,139.8z M349.2,123.7c-4.3,0-7.7,3.5-7.7,7.7c0,4.3,3.5,7.7,7.7,7.7c4.3,0,7.7-3.5,7.7-7.7l0,0
		C356.9,127.1,353.5,123.7,349.2,123.7z"/>
	<path class="st7" d="M351.6,131.4c0,1.3-1.1,2.4-2.4,2.4s-2.4-1.1-2.4-2.4c0-1.3,1.1-2.4,2.4-2.4l0,0
		C350.5,129,351.6,130.1,351.6,131.4L351.6,131.4z"/>
	<path class="st33" d="M45.7,197.7c-4.6,0-8.4-3.8-8.4-8.4c0-4.6,3.8-8.4,8.4-8.4s8.4,3.8,8.4,8.4l0,0
		C54.1,194,50.3,197.7,45.7,197.7z M45.7,181.6c-4.3,0-7.7,3.5-7.7,7.7c0,4.3,3.5,7.7,7.7,7.7s7.7-3.5,7.7-7.7
		S49.9,181.6,45.7,181.6L45.7,181.6z"/>
	<path class="st7" d="M48,189.3c0,1.3-1,2.4-2.3,2.4s-2.4-1-2.4-2.3s1-2.4,2.3-2.4c0,0,0,0,0.1,0C47,187,48,188.1,48,189.3z"/>
	<g id="freepik--stars--inject-47">
		<path class="st34" d="M386.5,120.5c-0.6-0.5-0.7-1.3-0.2-1.9s1.3-0.7,1.9-0.2s0.7,1.3,0.2,1.9l0,0
			C387.9,120.9,387.1,121,386.5,120.5z"/>
		<path class="st35" d="M382.5,124.3c-0.3-0.3-0.4-0.7-0.1-1.1l0,0c0.3-0.3,0.8-0.4,1.1-0.1c0.3,0.3,0.4,0.8,0.1,1.1
			C383.4,124.6,382.9,124.6,382.5,124.3L382.5,124.3z"/>
		<path class="st35" d="M274.5,330.1c0.4,0.4,0.4,1.1,0,1.5s-1.1,0.4-1.5,0s-0.4-1.1,0-1.5S274,329.7,274.5,330.1z"/>
		<path class="st35" d="M284.5,334.8c0.7,0.7,0.7,1.8,0.1,2.5l0,0c-0.7,0.7-1.8,0.7-2.5,0s-0.7-1.8,0-2.5
			C282.6,334.2,283.7,334.2,284.5,334.8z"/>
		<g class="st36">
			<path class="st35" d="M314.4,205.4c0.6-0.2,1.2,0,1.4,0.6c0.2,0.6,0,1.2-0.6,1.4s-1.2,0-1.4-0.6
				C313.5,206.3,313.8,205.6,314.4,205.4z"/>
			<path class="st35" d="M322.7,198.2c0.9-0.4,1.9,0.1,2.3,1s-0.1,1.9-1,2.3c-0.9,0.4-1.9-0.1-2.3-1
				C321.4,199.6,321.8,198.6,322.7,198.2z"/>
		</g>
		<g class="st36">
			<path class="st35" d="M330.1,370.6c0,1-0.8,1.8-1.8,1.8s-1.8-0.8-1.8-1.8s0.8-1.8,1.8-1.8l0,0
				C329.3,368.8,330.1,369.6,330.1,370.6z"/>
			<path class="st35" d="M324.8,375.4c0,0.6-0.5,1.1-1,1.1s-1.1-0.5-1.1-1s0.5-1.1,1-1.1l0,0c0.6,0,1,0.4,1,0.9
				C324.8,375.3,324.8,375.4,324.8,375.4z"/>
			<path class="st35" d="M321.8,368.8c0,0.5-0.3,0.9-0.8,0.9s-0.9-0.3-0.9-0.8s0.3-0.9,0.8-0.9c0,0,0,0,0.1,0
				C321.4,368,321.8,368.4,321.8,368.8z"/>
		</g>
		<g class="st36">
			<path class="st35" d="M63.7,365c0,1-0.8,1.8-1.8,1.8s-1.8-0.8-1.8-1.8s0.8-1.8,1.8-1.8S63.7,364,63.7,365L63.7,365z"/>
			<path class="st35" d="M58.4,369.9c0,0.6-0.5,1-1,0.9c-0.6,0-1-0.5-0.9-1c0-0.5,0.5-0.9,1-1C58,368.8,58.4,369.3,58.4,369.9
				C58.4,369.8,58.4,369.8,58.4,369.9z"/>
			<path class="st35" d="M55.4,363.3c0,0.5-0.4,0.9-0.9,0.9s-0.8-0.4-0.8-0.9s0.4-0.9,0.9-0.9S55.4,362.8,55.4,363.3L55.4,363.3z"/>
		</g>
		<path class="st35" d="M192.8,121.8c0,0.6-0.5,1.1-1.1,1.1s-1.1-0.5-1.1-1.1s0.5-1.1,1.1-1.1S192.8,121.2,192.8,121.8L192.8,121.8z
			"/>
		<path class="st35" d="M197.9,107.6l2.4,2.4l3.4-0.7c0.2,0,0.4,0.1,0.5,0.3c0,0.1,0,0.2,0,0.2l-1.5,3.1l1.6,3
			c0.1,0.2,0,0.4-0.1,0.5c-0.1,0-0.2,0.1-0.3,0l-3.4-0.5l-2.4,2.5c-0.1,0.2-0.4,0.2-0.6,0c-0.1-0.1-0.1-0.1-0.1-0.2l-0.6-3.4
			l-3.1-1.4c-0.2-0.1-0.3-0.3-0.2-0.5c0-0.1,0.1-0.1,0.2-0.2l3-1.6l0.4-3.4c0-0.2,0.2-0.4,0.4-0.4
			C197.7,107.5,197.8,107.5,197.9,107.6z"/>
		<path class="st35" d="M113,263.7l0.4,2.6l2.4,1.2c0.1,0.1,0.2,0.3,0.1,0.4c0,0.1-0.1,0.1-0.1,0.1l-2.4,1.2l-0.4,2.6
			c0,0.2-0.2,0.3-0.3,0.2c-0.1,0-0.1,0-0.2-0.1l-1.8-1.9l-2.6,0.5c-0.2,0-0.3-0.1-0.4-0.2c0-0.1,0-0.1,0-0.2l1.2-2.3l-1.2-2.4
			c-0.1-0.2,0-0.3,0.2-0.4h0.1l2.6,0.5l1.8-1.9c0.1-0.1,0.3-0.1,0.4,0C113,263.6,113,263.6,113,263.7z"/>
		<path class="st35" d="M348,94.4l2.6-0.5l1.1-2.4c0.1-0.1,0.3-0.2,0.4-0.1c0.1,0,0.1,0.1,0.1,0.1l1.3,2.3l2.6,0.3
			c0.2,0,0.3,0.2,0.3,0.3c0,0.1,0,0.1-0.1,0.2l-1.8,1.9l0.5,2.6c0,0.2-0.1,0.3-0.2,0.4c-0.1,0-0.1,0-0.2,0l-2.4-1.2l-2.3,1.3
			c-0.1,0.1-0.3,0-0.4-0.1c0-0.1,0-0.1,0-0.2l0.4-2.6l-2-1.8c-0.1-0.1-0.1-0.3,0-0.4C347.9,94.5,348,94.4,348,94.4z"/>
		<path class="st34" d="M189.9,373.3c0.6,0.4,0.8,1.2,0.5,1.8c-0.4,0.6-1.2,0.8-1.8,0.5c-0.6-0.4-0.8-1.2-0.5-1.8
			C188.4,373.1,189.2,372.9,189.9,373.3L189.9,373.3z"/>
		<path class="st35" d="M193.2,368.9c0.4,0.2,0.5,0.7,0.3,1.1s-0.7,0.5-1.1,0.3l0,0c-0.4-0.2-0.5-0.7-0.3-1.1
			C192.3,368.8,192.8,368.7,193.2,368.9z"/>
		<path class="st35" d="M231.9,393.2l-2.5,0.9l-0.7,2.5c0,0.2-0.2,0.3-0.4,0.2c-0.1,0-0.1-0.1-0.2-0.1l-1.6-2.1l-2.6,0.1
			c-0.2,0-0.3-0.1-0.3-0.3c0-0.1,0-0.1,0.1-0.2l1.5-2.2l-0.9-2.5c-0.1-0.2,0-0.3,0.2-0.4c0.1,0,0.1,0,0.2,0l2.5,0.8l2.1-1.6
			c0.1-0.1,0.3-0.1,0.4,0c0,0.1,0.1,0.1,0.1,0.2v2.6l2.2,1.5c0.1,0.1,0.2,0.3,0.1,0.4C232,393.1,231.9,393.1,231.9,393.2z"/>
		<path class="st35" d="M403.9,205.9c0.9-0.4,1.9,0.1,2.3,1s-0.1,1.9-1,2.3c-0.9,0.4-1.9-0.1-2.3-1S402.9,206.2,403.9,205.9
			L403.9,205.9z"/>
	</g>
</g>
<g id="freepik--Meteorites--inject-47">

		<linearGradient id="SVGID_2_" gradientUnits="userSpaceOnUse" x1="116.085" y1="727.3748" x2="163.055" y2="774.3448" gradientTransform="matrix(1 0 0 1 0 -339.8898)">
		<stop  offset="0" style="stop-color:#BA68C8"/>
		<stop  offset="0.8" style="stop-color:#455A64"/>
		<stop  offset="1" style="stop-color:#455A64;stop-opacity:0"/>
	</linearGradient>
	<path class="st37" d="M114.4,389.1c-0.9-0.9-0.9-2.4,0-3.3l0,0c0.9-0.9,2.4-0.9,3.3,0c0,0,46.1,47.6,45.2,48.5
		S114.4,389.1,114.4,389.1z"/>
	<path class="st35" d="M115.3,386.7c0.5-0.5,1.3-0.5,1.8,0s0.5,1.3,0,1.8l0,0c-0.5,0.5-1.3,0.5-1.8,0S114.8,387.2,115.3,386.7z"/>
	<path class="st38" d="M114.1,398.1c-0.5-0.5-0.5-1.3,0-1.9l0,0c0.5-0.5,1.3-0.5,1.8,0l0,0c0,0,18.9,19.8,18.4,20.3
		S114.1,398.1,114.1,398.1z"/>
	<path class="st38" d="M271.8,83.4c-0.9-0.9-0.9-2.4,0-3.3l0,0c0.9-0.9,2.3-0.9,3.3,0l0,0c0,0,46.1,47.6,45.2,48.5
		C319.4,129.6,271.8,83.4,271.8,83.4z"/>
	<path class="st35" d="M272.7,81c0.5-0.5,1.3-0.5,1.8,0s0.5,1.3,0,1.8s-1.3,0.5-1.8,0l0,0C272.2,82.3,272.2,81.5,272.7,81z"/>
	<path class="st38" d="M301,98.8c-0.5-0.5-0.5-1.3,0-1.8l0,0c0.5-0.5,1.3-0.5,1.9,0c0,0,18.9,19.8,18.4,20.3S301,98.8,301,98.8z"/>
	<path class="st38" d="M271.5,92.5c-0.5-0.5-0.5-1.3,0-1.8l0,0c0.5-0.5,1.3-0.5,1.8,0l0,0c0,0,18.9,19.8,18.4,20.3
		S271.5,92.5,271.5,92.5z"/>
</g>
</svg>
