<svg xmlns="http://www.w3.org/2000/svg" width="1280" height="390" viewBox="0 0 1280 390"><defs><mask id="1823b" width="2" height="2" x="-1" y="-1"><path fill="#fff" d="M0 11h1280v208H0z"/><path d="M0 11v95.812l71.111 26.648c71.111 26.249 213.333 80.144 355.556 85.134 142.222 4.99 284.444-36.928 426.666-58.585 142.222-21.259 284.445-21.259 355.556-21.259h71.11V11z"/></mask><filter id="1823a" width="1612.2" height="564.3" x="-138" y="-127" filterUnits="userSpaceOnUse"><feOffset dx="56.2" dy="80.3" in="SourceGraphic" result="FeOffset1472Out"/><feGaussianBlur in="FeOffset1472Out" result="FeGaussianBlur1473Out" stdDeviation="51.2 51.2"/></filter></defs><g><g><g filter="url(#1823a)"><path fill="none" d="M0 11v95.812l71.111 26.648c71.111 26.249 213.333 80.144 355.556 85.134 142.222 4.99 284.444-36.928 426.666-58.585 142.222-21.259 284.445-21.259 355.556-21.259h71.11V11z" mask="url(&quot;#1823b&quot;)"/><path fill-opacity=".08" d="M0 11v95.812l71.111 26.648c71.111 26.249 213.333 80.144 355.556 85.134 142.222 4.99 284.444-36.928 426.666-58.585 142.222-21.259 284.445-21.259 355.556-21.259h71.11V11z"/></g><path fill="#fff" d="M0 11v95.812l71.111 26.648c71.111 26.249 213.333 80.144 355.556 85.134 142.222 4.99 284.444-36.928 426.666-58.585 142.222-21.259 284.445-21.259 355.556-21.259h71.11V11z"/></g></g></svg>