<svg xmlns="http://www.w3.org/2000/svg" width="1275" height="138" viewBox="0 0 1275 138"><defs><clipPath id="jhtoa"><path fill="#fff" d="M3 54c72.683 40.652 141.794 116.313 399 61 198.85-42.764 383.392 5.555 475 6 178.72.867 210.915-59.22 402-67"/></clipPath><clipPath id="jhtob"><path fill="#fff" d="M-34-24S66.252 59.976 216 111c182.642 62.231 508.566-7.528 762-30 140.49-12.457 263.674 4.82 316 31"/></clipPath></defs><g><g opacity=".22"><path fill="none" stroke="#fff" stroke-dasharray="20 20" stroke-miterlimit="20" stroke-width="4" d="M3 54c72.683 40.652 141.794 116.313 399 61 198.85-42.764 383.392 5.555 475 6 178.72.867 210.915-59.22 402-67" clip-path="url(&quot;#jhtoa&quot;)"/></g><g opacity=".22"><path fill="none" stroke="#fff" stroke-dasharray="20 20" stroke-miterlimit="20" stroke-width="4" d="M-34-24v0S66.252 59.976 216 111c182.642 62.231 508.566-7.528 762-30 140.49-12.457 263.674 4.82 316 31" clip-path="url(&quot;#jhtob&quot;)"/></g></g></svg>