<svg xmlns="http://www.w3.org/2000/svg" width="332" height="281" viewBox="0 0 332 281"><defs><linearGradient id="9j0ga" x1="199.99" x2="263.99" y1="171" y2="233" gradientUnits="userSpaceOnUse"><stop offset="0" stop-color="#fff"/><stop offset="1" stop-color="#fff" stop-opacity="0"/></linearGradient><linearGradient id="9j0gb" x1="62" x2="108" y1="236" y2="280" gradientUnits="userSpaceOnUse"><stop offset="0" stop-color="#fff"/><stop offset="1" stop-color="#fff" stop-opacity="0"/></linearGradient><clipPath id="9j0gc"><path fill="#fff" d="M301 181a9 9 0 1 1 0 18 9 9 0 0 1 0-18z"/></clipPath><clipPath id="9j0gd"><path fill="#fff" d="M94 172a9 9 0 1 1 0 18 9 9 0 0 1 0-18z"/></clipPath><linearGradient id="9j0ge" x1="297.6" x2="350.6" y1="58.09" y2="58.1" gradientUnits="userSpaceOnUse"><stop offset="0" stop-color="#fff"/><stop offset="1" stop-color="#fff" stop-opacity="0"/></linearGradient><linearGradient id="9j0gf" x1="303.24" x2="336.24" y1="172.34" y2="172.25" gradientUnits="userSpaceOnUse"><stop offset="0" stop-color="#fff"/><stop offset="1" stop-color="#fff" stop-opacity="0"/></linearGradient><clipPath id="9j0gg"><path fill="#fff" d="M332.562 110.102c20.78-7.5 38.688-10.632 40-6.996 1.313 3.637-14.468 12.665-35.247 20.165-20.78 7.5-38.688 10.632-40 6.995-1.313-3.636 14.468-12.664 35.247-20.164z"/></clipPath></defs><g><g><g opacity=".1"><path fill="#fff" d="M203.142 174.755a1.615 1.615 0 1 1 1.139-.47 1.61 1.61 0 0 1-1.14.47c-.41 0 0 0 0 0zm-.143-4.757c-.77 0-1.54.293-2.128.878a3.02 3.02 0 0 0 0 4.255S261.583 234 263.926 234c.023 0 .04-.005.052-.017 1.184-1.184-58.852-63.106-58.852-63.106a3.008 3.008 0 0 0-2.127-.878c-.77 0 0 0 0 0z"/><path fill="url(#9j0ga)" d="M203.142 174.755a1.615 1.615 0 1 1 1.139-.47 1.61 1.61 0 0 1-1.14.47c-.41 0 0 0 0 0zm-.143-4.757c-.77 0-1.54.293-2.128.878a3.02 3.02 0 0 0 0 4.255S261.583 234 263.926 234c.023 0 .04-.005.052-.017 1.184-1.184-58.852-63.106-58.852-63.106a3.008 3.008 0 0 0-2.127-.878c-.77 0 0 0 0 0z"/></g><g opacity=".1"><path fill="#fff" d="M64.26 238.418a1.16 1.16 0 1 1 .819-.338 1.158 1.158 0 0 1-.82.338c-.296 0 0 0 0 0zm-.104-3.42c-.553 0-1.106.211-1.53.631a2.17 2.17 0 0 0 0 3.06s43.659 42.31 45.343 42.31c.017 0 .029-.004.037-.012.852-.851-42.32-45.358-42.32-45.358a2.165 2.165 0 0 0-1.53-.63c-.553 0 0 0 0 0z"/><path fill="url(#9j0gb)" d="M64.26 238.418a1.16 1.16 0 1 1 .819-.338 1.158 1.158 0 0 1-.82.338c-.296 0 0 0 0 0zm-.104-3.42c-.553 0-1.106.211-1.53.631a2.17 2.17 0 0 0 0 3.06s43.659 42.31 45.343 42.31c.017 0 .029-.004.037-.012.852-.851-42.32-45.358-42.32-45.358a2.165 2.165 0 0 0-1.53-.63c-.553 0 0 0 0 0z"/></g><g opacity=".1"><path fill="none" stroke="#fff" stroke-miterlimit="20" stroke-width="2" d="M301 181a9 9 0 1 1 0 18 9 9 0 0 1 0-18z" clip-path="url(&quot;#9j0gc&quot;)"/></g><g opacity=".2"><path fill="#fff" d="M301 188a2 2 0 1 1 0 4 2 2 0 0 1 0-4z"/></g><g opacity=".1"><path fill="none" stroke="#fff" stroke-miterlimit="20" stroke-width="2" d="M94 172a9 9 0 1 1 0 18 9 9 0 0 1 0-18z" clip-path="url(&quot;#9j0gd&quot;)"/></g><g opacity=".2"><path fill="#fff" d="M94 179a2 2 0 1 1 0 4 2 2 0 0 1 0-4z"/></g><g opacity=".1"><path fill="#fff" d="M189.795 247.795a1.42 1.42 0 0 1-1.656 1.397l-2.707-.472a.58.58 0 0 0-.495.163l-1.92 1.98a1.405 1.405 0 0 1-1.993.033 1.417 1.417 0 0 1-.416-.821l-.392-2.735a.573.573 0 0 0-.308-.42l-2.467-1.217a1.425 1.425 0 0 1 0-2.571l2.467-1.217a.575.575 0 0 0 .308-.429l.418-2.725a1.41 1.41 0 0 1 2.408-.789l1.861 2.006c.13.13.315.188.495.154l2.707-.463a1.41 1.41 0 0 1 1.63 1.15c.053.311.002.63-.145.907l-1.28 2.443a.541.541 0 0 0 0 .523l1.272 2.443c.125.198.198.425.213.66zm-12.286-3.369a.54.54 0 0 0 .308.506l2.467 1.226c.418.204.708.601.777 1.062l.393 2.735a.555.555 0 0 0 .947.308l1.921-1.98a1.414 1.414 0 0 1 1.256-.403l2.706.463a.555.555 0 0 0 .59-.805l-1.282-2.452a1.42 1.42 0 0 1 0-1.311l1.281-2.451a.558.558 0 0 0-.555-.849l-2.706.463a1.44 1.44 0 0 1-1.255-.403l-1.921-1.98a.545.545 0 0 0-.572-.145.557.557 0 0 0-.376.454l-.393 2.734c-.068.461-.36.859-.777 1.063l-2.501 1.243a.54.54 0 0 0-.308.522zm-12.679-45.649l5.268-.248a1.868 1.868 0 0 0 1.511-.858l2.784-4.49a1.882 1.882 0 0 1 3.364.333l1.861 4.946c.215.582.705 1.02 1.306 1.166l5.123 1.268a1.895 1.895 0 0 1 .734 3.317l-4.115 3.308c-.489.385-.752.99-.7 1.612l.376 5.271a1.892 1.892 0 0 1-1.757 2.016 1.881 1.881 0 0 1-1.155-.302l-4.405-2.905a1.855 1.855 0 0 0-1.708-.172l-4.884 1.989a1.884 1.884 0 0 1-2.477-.996 1.901 1.901 0 0 1-.084-1.25l1.392-5.1a1.9 1.9 0 0 0-.376-1.714l-3.415-4.046a1.9 1.9 0 0 1 .168-2.673c.33-.292.75-.458 1.19-.472zm88.529-86.687a2.343 2.343 0 0 1-2.476 2.314l-5.26-.36a1.449 1.449 0 0 0-1.238.548l-3.278 4.14a2.308 2.308 0 0 1-3.25.383 2.322 2.322 0 0 1-.806-1.24l-1.28-5.142a1.42 1.42 0 0 0-.905-1.012l-4.935-1.851a2.326 2.326 0 0 1-.419-4.14l4.466-2.811a1.45 1.45 0 0 0 .683-1.174l.23-5.289a2.318 2.318 0 0 1 2.385-2.249c.515.016 1.01.205 1.406.535l4.038 3.428c.368.327.875.446 1.35.318l5.08-1.415a2.29 2.29 0 0 1 2.339.686c.587.66.753 1.595.427 2.417l-1.973 4.903a1.47 1.47 0 0 0 .137 1.354l2.912 4.405c.237.374.364.808.367 1.252zm-24.077-4.26a1.43 1.43 0 0 0 .939 1.226l4.935 1.85a2.285 2.285 0 0 1 1.434 1.612l1.28 5.143a1.46 1.46 0 0 0 2.562.557l3.279-4.14a2.292 2.292 0 0 1 1.964-.857l5.259.36a1.424 1.424 0 0 0 1.357-.72 1.462 1.462 0 0 0 0-1.543l-2.911-4.414a2.33 2.33 0 0 1-.222-2.142l1.972-4.912a1.468 1.468 0 0 0-.832-1.897 1.455 1.455 0 0 0-.875-.057l-5.08 1.414a2.298 2.298 0 0 1-2.1-.454l-4.04-3.429a1.465 1.465 0 0 0-2.066.203c-.2.244-.316.545-.332.86l-.222 5.28a2.333 2.333 0 0 1-1.085 1.869l-4.465 2.802a1.44 1.44 0 0 0-.751 1.235zm61.115-22.31l2.63.702a.945.945 0 0 0 .854-.205l2.066-1.775a.97.97 0 0 1 1.605.695l.145 2.725a.995.995 0 0 0 .47.78l2.322 1.423a.988.988 0 0 1-.162 1.714l-2.561.977c-.297.12-.52.375-.598.686l-.632 2.657a.973.973 0 0 1-1.707.394l-1.708-2.125a.972.972 0 0 0-.854-.352l-2.715.214a.975.975 0 0 1-.854-1.5l1.477-2.296c.172-.272.204-.61.086-.91l-1.05-2.519a.987.987 0 0 1 1.186-1.286zm3.441 159.935l1.785.48a.68.68 0 0 0 .597-.137l1.383-1.209a.664.664 0 0 1 1.093.472l.103 1.85c.01.218.13.414.316.524l1.57.968a.661.661 0 0 1-.102 1.183l-1.707.669a.66.66 0 0 0-.41.463l-.427 1.8a.657.657 0 0 1-1.153.265l-1.161-1.431a.656.656 0 0 0-.563-.249l-1.845.154a.667.667 0 0 1-.606-1.028l1-1.551a.663.663 0 0 0 .059-.618l-.709-1.714a.661.661 0 0 1 .777-.891z"/></g><g opacity=".2"><path fill="#fff" d="M138 188a2 2 0 1 1 0 4 2 2 0 0 1 0-4z"/></g><g opacity=".1"><path fill="#fff" d="M26.795 247.795a1.42 1.42 0 0 1-1.656 1.397l-2.707-.472a.58.58 0 0 0-.495.163l-1.92 1.98a1.405 1.405 0 0 1-1.993.033 1.416 1.416 0 0 1-.416-.821l-.392-2.735a.574.574 0 0 0-.308-.42l-2.467-1.217a1.425 1.425 0 0 1 0-2.571l2.467-1.217a.574.574 0 0 0 .308-.429l.418-2.725a1.41 1.41 0 0 1 2.408-.789l1.861 2.006c.13.13.315.188.495.154l2.707-.463a1.41 1.41 0 0 1 1.63 1.15c.053.311.002.63-.145.907l-1.28 2.443a.542.542 0 0 0 0 .523l1.272 2.443c.125.198.198.425.213.66zm-12.286-3.369a.54.54 0 0 0 .308.506l2.467 1.226c.418.204.708.601.777 1.062l.393 2.735a.555.555 0 0 0 .947.308l1.921-1.98a1.414 1.414 0 0 1 1.256-.403l2.706.463a.555.555 0 0 0 .59-.805l-1.282-2.452a1.42 1.42 0 0 1 0-1.311l1.281-2.451a.558.558 0 0 0-.555-.849l-2.706.463a1.44 1.44 0 0 1-1.255-.403l-1.921-1.98a.545.545 0 0 0-.573-.145.556.556 0 0 0-.375.454l-.393 2.734c-.068.461-.36.859-.777 1.063l-2.501 1.243a.54.54 0 0 0-.308.522zM1.83 198.777l5.268-.248a1.868 1.868 0 0 0 1.511-.858l2.784-4.49a1.882 1.882 0 0 1 3.364.333l1.861 4.946c.215.582.705 1.02 1.306 1.166l5.123 1.268a1.895 1.895 0 0 1 .734 3.317l-4.115 3.308c-.489.385-.752.99-.7 1.612l.376 5.271a1.892 1.892 0 0 1-1.757 2.016 1.881 1.881 0 0 1-1.155-.302l-4.405-2.905a1.855 1.855 0 0 0-1.708-.172l-4.884 1.989a1.884 1.884 0 0 1-2.477-.996 1.9 1.9 0 0 1-.084-1.25l1.392-5.1a1.9 1.9 0 0 0-.376-1.714l-3.415-4.046a1.9 1.9 0 0 1 .168-2.673c.33-.292.75-.458 1.19-.472zM90.36 112.09a2.343 2.343 0 0 1-2.476 2.314l-5.26-.36a1.449 1.449 0 0 0-1.238.548l-3.278 4.14a2.308 2.308 0 0 1-3.25.383 2.323 2.323 0 0 1-.806-1.24l-1.28-5.142a1.42 1.42 0 0 0-.905-1.012l-4.935-1.851a2.326 2.326 0 0 1-.419-4.14l4.466-2.811a1.45 1.45 0 0 0 .683-1.174l.23-5.289a2.318 2.318 0 0 1 2.385-2.249c.515.016 1.01.205 1.406.535l4.038 3.428c.368.327.875.446 1.35.318l5.08-1.415a2.29 2.29 0 0 1 2.339.686c.587.66.753 1.595.427 2.417l-1.972 4.903a1.47 1.47 0 0 0 .136 1.354l2.912 4.405c.237.374.364.808.367 1.252zm-24.077-4.26a1.43 1.43 0 0 0 .939 1.226l4.935 1.85a2.285 2.285 0 0 1 1.434 1.612l1.28 5.143a1.46 1.46 0 0 0 2.562.557l3.279-4.14a2.292 2.292 0 0 1 1.964-.857l5.259.36a1.424 1.424 0 0 0 1.357-.72 1.462 1.462 0 0 0 0-1.543l-2.911-4.414a2.33 2.33 0 0 1-.222-2.142l1.972-4.912a1.468 1.468 0 0 0-.832-1.897 1.455 1.455 0 0 0-.875-.057l-5.08 1.414a2.298 2.298 0 0 1-2.1-.454l-4.04-3.429a1.465 1.465 0 0 0-2.066.203c-.2.244-.316.545-.332.86l-.222 5.28a2.333 2.333 0 0 1-1.085 1.869l-4.465 2.802a1.44 1.44 0 0 0-.751 1.235zm61.115-22.31l2.63.702a.945.945 0 0 0 .854-.205l2.066-1.775a.97.97 0 0 1 1.605.695l.145 2.725a.995.995 0 0 0 .47.78l2.322 1.423a.988.988 0 0 1-.162 1.714l-2.561.977c-.297.12-.52.375-.598.686l-.632 2.657a.973.973 0 0 1-1.707.394l-1.708-2.125a.972.972 0 0 0-.854-.352l-2.715.214a.975.975 0 0 1-.854-1.5l1.477-2.296c.172-.272.204-.61.086-.91l-1.05-2.519a.986.986 0 0 1 1.186-1.286zm3.441 159.935l1.785.48a.68.68 0 0 0 .597-.137l1.383-1.209a.664.664 0 0 1 1.093.472l.103 1.85c.01.218.13.414.316.524l1.57.968a.661.661 0 0 1-.102 1.183l-1.707.669a.66.66 0 0 0-.41.463l-.427 1.8a.657.657 0 0 1-1.153.265l-1.16-1.431a.656.656 0 0 0-.564-.249l-1.845.154a.667.667 0 0 1-.606-1.028l1-1.551a.662.662 0 0 0 .059-.618l-.709-1.714a.661.661 0 0 1 .777-.891z"/></g><g opacity=".1"><path fill="#fff" d="M278 212a3 3 0 1 1 0 6 3 3 0 0 1 0-6z"/></g><g opacity=".3"><path fill="#fff" d="M285 213a1 1 0 1 1 0 2 1 1 0 0 1 0-2z"/></g><g opacity=".2"><path fill="#fff" d="M274.5 213a1.5 1.5 0 1 1 0 3 1.5 1.5 0 0 1 0-3z"/></g><g opacity=".2"><path fill="#fff" d="M254.99 170.594c.007.934-.782 1.694-1.761 1.699h-.01c-.974 0-1.766-.75-1.772-1.68-.006-.933.783-1.694 1.762-1.7h.01zm-5.276 4.503v.098c.006.56-.464 1.016-1.05 1.022h-.011c-.581 0-1.055-.448-1.06-1.003-.006-.559.464-1.016 1.05-1.021h.02l.052-.001zm-2.992-6.183c.021.448-.342.828-.81.848h-.042c-.452 0-.828-.338-.848-.773-.023-.447.34-.827.81-.848h.068z"/></g><g opacity=".2"><path fill="#fff" d="M335.975 6.654c.016 2.546-2.12 4.621-4.772 4.634h-.029c-2.637 0-4.782-2.047-4.798-4.584-.016-2.546 2.121-4.622 4.772-4.637h.026zM321.684 18.94v.267c.016 1.526-1.258 2.773-2.847 2.788h-.029c-1.573 0-2.857-1.22-2.87-2.735-.016-1.526 1.258-2.772 2.846-2.787h.053a2.97 2.97 0 0 1 .142-.004zm-8.106-16.873c.059 1.224-.924 2.26-2.195 2.315a2.472 2.472 0 0 1-.112.003c-1.224 0-2.24-.924-2.297-2.112-.061-1.22.924-2.256 2.195-2.315h.185z"/></g><g opacity=".15"><path fill="#fff" d="M219.403 243.852c-8.919-2.39-10.113-6.849-3.585-13.377 6.529-6.528 10.988-5.334 13.377 3.584 2.39 8.919-.874 12.183-9.792 9.793z"/></g><g opacity=".1"><path fill="#fff" d="M299.22 37.317l51.25 39.98a1 1 0 0 1-1.231 1.577l-51.25-39.98a1 1 0 1 1 1.23-1.577z"/><path fill="url(#9j0ge)" d="M299.22 37.317l51.25 39.98a1 1 0 0 1-1.231 1.577l-51.25-39.98a1 1 0 1 1 1.23-1.577z"/></g><g opacity=".1"><path fill="#fff" d="M304.243 159.385l31.84 24.84a.621.621 0 1 1-.763.98l-31.841-24.84a.621.621 0 1 1 .764-.98z"/><path fill="url(#9j0gf)" d="M304.243 159.385l31.84 24.84a.621.621 0 1 1-.763.98l-31.841-24.84a.621.621 0 1 1 .764-.98z"/></g><g><g opacity=".1"><path fill="#fff" d="M325.563 89.24c14.805-5.345 31.14 2.325 36.483 17.13 5.344 14.806-2.326 31.14-17.131 36.484-14.805 5.343-31.14-2.327-36.483-17.132-5.344-14.805 2.326-31.14 17.131-36.483z"/></g><g opacity=".2"><path fill="none" stroke="#fff" stroke-miterlimit="20" stroke-width="4" d="M332.562 110.102c20.78-7.5 38.688-10.632 40-6.996 1.313 3.637-14.468 12.665-35.247 20.165-20.78 7.5-38.688 10.632-40 6.995-1.313-3.636 14.468-12.664 35.247-20.164z" clip-path="url(&quot;#9j0gg&quot;)"/></g><g><path fill="#a046dd" d="M306.225 119.608l45.15-16.296 2.036 5.644-45.149 16.296z"/></g></g></g></g></svg>