<svg xmlns="http://www.w3.org/2000/svg" width="248" height="380" viewBox="0 0 248 380"><defs><linearGradient id="8cvua" x1="-129.09" x2="71.15" y1="434.07" y2="-37.69" gradientUnits="userSpaceOnUse"><stop offset=".34" stop-color="#732faa" stop-opacity="0"/><stop offset=".57" stop-color="#732faa" stop-opacity=".03"/><stop offset="1" stop-color="#732faa" stop-opacity=".08"/></linearGradient><linearGradient id="8cvub" x1="-182.95" x2="30.94" y1="443.83" y2="-59.83" gradientUnits="userSpaceOnUse"><stop offset=".34" stop-color="#732faa" stop-opacity="0"/><stop offset=".57" stop-color="#732faa" stop-opacity=".03"/><stop offset="1" stop-color="#732faa" stop-opacity=".08"/></linearGradient></defs><g><g><path fill="url(#8cvua)" d="M4.884 432.837l-259.647-162.37c-4.717-2.95-5.46-10.266-1.662-16.342L-78.249-30.797c3.8-6.075 10.703-8.61 15.42-5.66l259.647 162.37c4.717 2.95 5.461 10.266 1.662 16.342L20.304 427.177c-3.799 6.076-10.703 8.61-15.42 5.66z"/></g><g><path fill="url(#8cvub)" d="M-32.42 442.423l-362.032-178.577c-6.577-3.244-7.498-11.046-2.057-17.425L-141.35-52.74c5.44-6.379 15.183-8.92 21.76-5.676L242.442 120.16c6.577 3.244 7.498 11.045 2.057 17.424L-10.66 436.746c-5.441 6.38-15.184 8.92-21.76 5.677z"/></g></g></svg>