<svg xmlns="http://www.w3.org/2000/svg" width="385" height="361" viewBox="0 0 385 361"><defs><linearGradient id="8m9va" x1="616" x2="0" y1="236" y2="117" gradientUnits="userSpaceOnUse"><stop offset=".43" stop-color="#fff" stop-opacity="0"/><stop offset="1" stop-color="#fff"/></linearGradient></defs><g><g opacity=".1"><path fill="url(#8m9va)" d="M44.442 270.11c-12.535-16.355-23.88-34.031-31.987-52.148zm56.617 61.138a576.442 576.442 0 0 1-15.624-14.944L.8 178.254a103.229 103.229 0 0 1-.8-11.861zM1.649 148.386c.5-2.523 1.11-5.035 1.85-7.527l130.117 212.22a100.181 100.181 0 0 1-9.207-4.484zm6.747-20.22a91.234 91.234 0 0 1 2.999-5.675l145.491 237.324c-2.486-.4-4.941-.89-7.367-1.471zm9.596-15.594c1.16-1.561 2.39-3.053 3.669-4.564l155.077 252.918c-2.139.07-4.288.07-6.427.07zM29.348 99.91a135.408 135.408 0 0 1 4.138-3.813l160.895 262.367c-1.84.43-3.748.831-5.748 1.171zm12.605-10.74a223.247 223.247 0 0 1 4.478-3.243l163.574 266.832a55.028 55.028 0 0 1-4.998 2.342zm13.534-9.169c1.54-.94 3.129-1.881 4.748-2.802l162.924 265.72a48.309 48.309 0 0 1-4.098 3.854zm14.234-7.967c1.65-.831 3.31-1.642 4.998-2.452l158.446 258.443a62.738 62.738 0 0 1-2.998 5.626zm14.914-6.967c1.68-.734 3.392-1.461 5.138-2.182l150.26 245.001a166.944 166.944 0 0 1-2 7.347zm15.374-6.175c1.73-.651 3.499-1.292 5.288-1.922l139.084 226.874a337.56 337.56 0 0 1-1.3 8.437zm15.804-5.466c1.78-.574 3.585-1.14 5.418-1.701l126.568 206.424c-.39 2.933-.77 5.836-1.14 8.689zm16.173-4.864c1.82-.51 3.669-1.021 5.538-1.512l114.024 185.956a830.847 830.847 0 0 0-1.36 8.347zm16.504-4.314c.74-.17 1.459-.36 2.199-.54l3.438-.822 102.139 166.588c-.61 2.602-1.19 5.174-1.73 7.737zm16.703-3.994l5.658-1.331 91.303 148.91a257.905 257.905 0 0 0-2.12 7.097zm16.733-3.914l5.688-1.301L269.2 168.085c-.87 2.172-1.7 4.324-2.5 6.476zm16.823-3.844l5.678-1.28 72.85 118.811a146.366 146.366 0 0 0-2.838 5.916zm16.843-3.763l5.708-1.241 64.974 105.97a216.727 216.727 0 0 0-3.129 5.445zm16.914-3.704l5.717-1.18 57.927 94.479a106.448 106.448 0 0 0-3.469 4.894zm16.963-3.533l5.747-1.18 52.42 85.51a76.652 76.652 0 0 0-4.1 3.863zm17.033-3.473l5.768-1.131 49.05 79.995a53.302 53.302 0 0 0-4.898 2.563zm17.143-3.343l5.798-1.101 48.47 79.074a49.89 49.89 0 0 0-5.998.831zm17.143-3.243l5.828-1.001 51.619 84.23a73.534 73.534 0 0 0-7.377-1.492zm17.273-3.013l5.858-1.001 59.705 97.372a150.94 150.94 0 0 0-9.196-4.444zm17.373-2.913l5.898-.94 73.34 119.622a393.092 393.092 0 0 0-11.086-7.537zm17.483-2.722l5.937-.871 90.644 147.82a1584.734 1584.734 0 0 1-11.895-8.84zM370.52.276l5.997-.8 106.377 173.503a324.232 324.232 0 0 1-10.795-7.067zm17.813-2.282l5.997-.7 116.693 190.319a137.843 137.843 0 0 1-8.846-3.884zm17.882-1.992l6.098-.61 121.28 197.796a64.721 64.721 0 0 1-7.066-1zm18.133-1.681l6.167-.48 121.231 197.706c-1.88.526-3.789.94-5.717 1.24zm18.363-1.322l6.257-.3L566.55 184.46a54.718 54.718 0 0 1-4.688 2.913zm18.652-.78c2.14-.1 4.265-.15 6.377-.15l111.115 181.21a79.232 79.232 0 0 1-3.918 4.174zm19.022-.22c2.2 0 4.419.05 6.528.09L589.21 158.935c-1.09 1.791-2.199 3.513-3.308 5.155zm19.502.58c2.27.12 4.519.26 6.728.42l91.423 149.09c-.93 2.053-1.88 4.025-2.83 5.937zM520.09-5.76c2.366.267 4.698.568 6.997.901l78.609 128.201a246.156 246.156 0 0 1-2.48 6.516zm21.172 3.354c2.519.53 5.078 1.09 7.517 1.701l63.344 103.258c-.6 2.402-1.266 4.844-2 7.326zm23.12 6.426a124.144 124.144 0 0 1 8.637 3.533L616 77.68a112.4 112.4 0 0 1-.86 9.149zm29.149 16.315a61.85 61.85 0 0 1 20.561 33.532z"/></g></g></svg>