<svg xmlns="http://www.w3.org/2000/svg" width="172" height="194" viewBox="0 0 172 194"><defs><linearGradient id="d2iba" x1="40.48" x2="93.21" y1="194.27" y2="48.84" gradientUnits="userSpaceOnUse"><stop offset="0" stop-color="#fff" stop-opacity="0"/><stop offset=".1" stop-color="#fff" stop-opacity="0"/><stop offset="1" stop-color="#fff"/></linearGradient><linearGradient id="d2ibb" x1="123.41" x2="134.43" y1="64.82" y2="32.5" gradientUnits="userSpaceOnUse"><stop offset="0" stop-color="#fff" stop-opacity="0"/><stop offset=".1" stop-color="#fff" stop-opacity="0"/><stop offset="1" stop-color="#fff"/></linearGradient><linearGradient id="d2ibc" x1="82.97" x2="97.96" y1="43.64" y2=".13" gradientUnits="userSpaceOnUse"><stop offset="0" stop-color="#fff" stop-opacity="0"/><stop offset=".1" stop-color="#fff" stop-opacity="0"/><stop offset="1" stop-color="#fff"/></linearGradient><linearGradient id="d2ibd" x1="133.52" x2="139.92" y1="18.01" y2=".16" gradientUnits="userSpaceOnUse"><stop offset="0" stop-color="#fff" stop-opacity="0"/><stop offset=".1" stop-color="#fff" stop-opacity="0"/><stop offset="1" stop-color="#fff"/></linearGradient><linearGradient id="d2ibe" x1="153.13" x2="157.09" y1="33.56" y2="22.46" gradientUnits="userSpaceOnUse"><stop offset="0" stop-color="#fff" stop-opacity="0"/><stop offset=".1" stop-color="#fff" stop-opacity="0"/><stop offset="1" stop-color="#fff"/></linearGradient><linearGradient id="d2ibf" x1="168.27" x2="169.81" y1="48.08" y2="43.5" gradientUnits="userSpaceOnUse"><stop offset="0" stop-color="#fff" stop-opacity="0"/><stop offset=".1" stop-color="#fff" stop-opacity="0"/><stop offset="1" stop-color="#fff"/></linearGradient></defs><g><g><g opacity=".1"><path fill="url(#d2iba)" d="M54.154 52.3L13.217 75.937C5.257 80.532.339 89.004.319 98.16l-.107 47.086a25.48 25.48 0 0 0 12.798 22.166l40.83 23.451c7.94 4.56 17.736 4.538 25.697-.058l40.937-23.635c7.96-4.596 12.877-13.069 12.898-22.225l.107-47.085a25.481 25.481 0 0 0-12.798-22.167l-40.83-23.45c-7.94-4.56-17.736-4.538-25.697.058z"/></g><g opacity=".1"><path fill="url(#d2ibb)" d="M126.157 33.271l-8.903 5.252a5.747 5.747 0 0 0-2.804 4.94l-.024 10.463c-.004 2.035 1.057 3.912 2.783 4.926l8.88 5.21a5.498 5.498 0 0 0 5.587-.012l8.902-5.252a5.747 5.747 0 0 0 2.805-4.94l.024-10.463c.004-2.035-1.057-3.912-2.784-4.926l-8.879-5.21a5.498 5.498 0 0 0-5.587.012z"/></g><g opacity=".1"><path fill="url(#d2ibc)" d="M86.747 1.167l-11.984 7.07c-2.33 1.376-3.77 3.91-3.776 6.65l-.03 14.087c-.007 2.739 1.421 5.267 3.746 6.631l11.952 7.016a7.4 7.4 0 0 0 7.522-.017l11.984-7.071c2.33-1.375 3.77-3.91 3.776-6.65l.03-14.086c.007-2.74-1.421-5.267-3.746-6.632L94.27 1.15a7.398 7.398 0 0 0-7.522.018z"/></g><g opacity=".1"><path fill="url(#d2ibd)" d="M135.233.584l-4.794 2.9c-.932.565-1.508 1.604-1.51 2.728l-.012 5.78c-.003 1.123.568 2.16 1.498 2.72l4.781 2.879c.93.559 2.077.557 3.009-.008l4.793-2.9c.933-.565 1.508-1.605 1.51-2.728l.013-5.78c.003-1.123-.569-2.16-1.498-2.72L138.242.576a2.896 2.896 0 0 0-3.01.008z"/></g><g opacity=".1"><path fill="url(#d2ibe)" d="M154.155 22.723l-3.082 1.805c-.599.351-.97.998-.97 1.697l-.009 3.596a1.95 1.95 0 0 0 .964 1.692l3.073 1.792a1.914 1.914 0 0 0 1.934-.005l3.082-1.805c.6-.351.97-.998.97-1.697l.009-3.596a1.95 1.95 0 0 0-.963-1.693l-3.074-1.79a1.914 1.914 0 0 0-1.934.004z"/></g><g opacity=".1"><path fill="url(#d2ibf)" d="M168.618 43.608l-1.37.746a.805.805 0 0 0-.43.7l-.004 1.485c-.001.289.162.555.428.699l1.366.74a.906.906 0 0 0 .86-.002l1.369-.746a.804.804 0 0 0 .432-.7l.003-1.485a.796.796 0 0 0-.428-.699l-1.366-.74a.91.91 0 0 0-.86.002z"/></g></g></g></svg>