<svg xmlns="http://www.w3.org/2000/svg" width="1280" height="937" viewBox="0 0 1280 937"><defs><linearGradient id="68n0a" x1="1121.94" x2="151" y1="0" y2="937.07" gradientUnits="userSpaceOnUse"><stop offset="0" stop-color="#21043d"/><stop offset=".51" stop-color="#57008e"/><stop offset="1" stop-color="#5824f4"/></linearGradient><linearGradient id="68n0b" x1="1073" x2="203" y1="90" y2="931.02" gradientUnits="userSpaceOnUse"><stop offset="0" stop-color="#21043d"/><stop offset=".51" stop-color="#57008e"/><stop offset="1" stop-color="#5824f4"/></linearGradient><linearGradient id="68n0c" x1="1093" x2="180" y1="52" y2="933.82" gradientUnits="userSpaceOnUse"><stop offset="0" stop-color="#21043d"/><stop offset=".51" stop-color="#57008e"/><stop offset="1" stop-color="#5824f4"/></linearGradient></defs><g><g opacity=".2"><path fill="#0090ff" d="M-4 276s72.95 1.399 295-18C822.86 211.536 1281 0 1281 0v926s-156.701 9.709-508 11C86.372 939.524-10.919 875.773-8 886z"/><path fill="url(#68n0a)" d="M-4 276s72.95 1.399 295-18C822.86 211.536 1281 0 1281 0v926s-156.701 9.709-508 11C86.372 939.524-10.919 875.773-8 886z"/></g><g><path fill="#0090ff" d="M-7 276s162.01 4.777 556-41c118.286-13.743 262.273-36.342 383-61 198.292-40.501 351-84 351-84l1 837s-432.694 22.005-836-37C167.875 849.017-8 726-8 726z"/><path fill="url(#68n0b)" d="M-7 276s162.01 4.777 556-41c118.286-13.743 262.273-36.342 383-61 198.292-40.501 351-84 351-84l1 837s-432.694 22.005-836-37C167.875 849.017-8 726-8 726z"/></g><g opacity=".5"><path fill="#0090ff" d="M-8 278s72.95 1.399 295-18c531.86-46.464 994-208 994-208l-1 875s-208.348 12.162-442 4C189.928 908.36-4 820-4 820z"/><path fill="url(#68n0c)" d="M-8 278s72.95 1.399 295-18c531.86-46.464 994-208 994-208l-1 875s-208.348 12.162-442 4C189.928 908.36-4 820-4 820z"/></g></g></svg>