<?xml version="1.0" encoding="utf-8"?>
<!-- Generator: Adobe Illustrator 24.0.1, SVG Export Plug-In . SVG Version: 6.00 Build 0)  -->
<svg version="1.1" id="Layer_1" xmlns="http://www.w3.org/2000/svg" xmlns:xlink="http://www.w3.org/1999/xlink" x="0px" y="0px"
	 viewBox="0 0 500 500" style="enable-background:new 0 0 500 500;" xml:space="preserve">
<style type="text/css">
	.st0{fill:#F5F5F5;}
	.st1{fill:#263238;}
	.st2{fill:#455A64;}
	.st3{fill:#37474F;}
	.st4{fill:#E0E0E0;}
	.st5{fill:#FFFFFF;}
	.st6{fill:#2C04B4;}
	.st7{fill:#EBEBEB;}
	.st8{fill:#FAFAFA;}
	.st9{fill:#9105ED;}
	.st10{opacity:0.1;enable-background:new    ;}
	.st11{opacity:0.4;fill:#FFFFFF;enable-background:new    ;}
	.st12{opacity:0.1;}
	.st13{opacity:0.15;enable-background:new    ;}
	.st14{opacity:0.7;fill:#FFFFFF;enable-background:new    ;}
</style>
<g id="freepik--Floor--inject-262">
	<path class="st0" d="M107.6,426.6c81.3,39.9,213,39.9,294.3,0s81.3-104.5,0-144.4s-213-39.9-294.3,0S26.3,386.7,107.6,426.6z"/>
</g>
<g id="freepik--Device--inject-262">
	<g id="freepik--device--inject-262">
		<path class="st1" d="M253.5,247.3L216,268.9c-1.5,1-2.6,2.5-3,4.3l-9.3,53.8c-0.2,1.7,0.6,3.4,2,4.3l24.2,14c1.6,0.8,3.4,0.8,5,0
			l51.7-29.8c2.3-1.2,3.2-4.1,2-6.4c-0.4-0.8-1.1-1.5-2-2L268,296.4c-1.5-1-2.5-2.6-2.8-4.4l-4.2-40.6c-0.3-1.7-1.2-3.3-2.7-4.3
			C256.8,246.4,255,246.5,253.5,247.3z"/>
		<path class="st2" d="M232.4,335.9v10.1c0.9,0,1.7-0.2,2.5-0.6l51.7-29.8c1.5-0.9,2.4-2.5,2.5-4.2c-0.1-1-0.4-1.9-1-2.7h-8.5
			L232.4,335.9z"/>
		<path class="st1" d="M258.2,250l-37.5,21.7c-1.5,1-2.6,2.5-3,4.3l-8.5,48.8c-0.2,1.7,0.6,3.4,2,4.3l18.6,10.7c1.6,0.8,3.4,0.8,5,0
			l51.7-29.9c1.4-0.8,1.4-2.1,0-2.9L268,296.4c-1.5-1-2.5-2.6-2.8-4.4l-4.2-40.6c0-1-0.8-1.8-1.7-1.8
			C258.9,249.7,258.5,249.8,258.2,250z"/>
		<path class="st3" d="M286.6,307.1L268,296.4c-0.7-0.5-1.4-1.1-1.9-1.9l-56.6,32.7c0.3,0.8,0.9,1.5,1.7,2l18.6,10.7
			c1.6,0.8,3.4,0.8,5,0l51.7-29.9C288,309.2,288,307.9,286.6,307.1z"/>
		<path class="st2" d="M134.3,354.3l-2.4-1.4c-2.1-1.4-3.4-3.6-3.5-6.1v-161c0.1-2.5,1.4-4.7,3.5-6.1l196.8-113
			c2.2-1.1,4.8-1.1,7.1,0l1.8,1c2.1,1.4,3.4,3.6,3.5,6.1v161.1c-0.1,2.5-1.4,4.8-3.5,6.1L141.4,354.3
			C139.1,355.4,136.5,355.4,134.3,354.3z"/>
		<path class="st1" d="M142.6,189.9l-13.1-7.6c-0.6,1.1-1,2.3-1,3.5v161c0.1,2.5,1.4,4.8,3.5,6.1l2.4,1.4c2.2,1.1,4.8,1.1,7.1,0
			l1.2-0.7L142.6,189.9z"/>
		<path class="st3" d="M137.8,352.3v-161c0.1-2.5,1.4-4.8,3.5-6.1L337.6,71.8c2-1.1,3.5-0.2,3.5,2v161.1c-0.1,2.5-1.4,4.8-3.5,6.1
			L141.4,354.3C139.4,355.4,137.8,354.5,137.8,352.3z"/>
		<path class="st4" d="M230,292.2l18.6-10.7c1.4-0.8,2.5-0.2,2.5,1.3c-0.1,1.7-1.1,3.3-2.5,4.2L230,297.7c-1.4,0.8-2.5,0.2-2.5-1.3
			C227.6,294.7,228.5,293.1,230,292.2z"/>
		<path class="st5" d="M146.9,190L331.6,83c1.1-0.6,2-0.1,2,1.2v140.4c-0.1,1.4-0.8,2.7-2,3.5L146.9,334.7c-1.1,0.6-2,0.1-2-1.2
			v-140C144.9,192.1,145.7,190.8,146.9,190z"/>
	</g>
</g>
<g id="freepik--Window--inject-262">
	<g id="freepik--Tab--inject-262">
		<path class="st4" d="M160.2,193.5l193.9-112c3.1-1.8,5.6-0.3,5.6,3.2v126.6c-0.1,1.8-1.1,3.5-2.6,4.5L159.2,330.1
			c-1.4,0.8-2.6,0.1-2.6-1.5V199.8C156.7,197.2,158.1,194.9,160.2,193.5z"/>
		<path class="st6" d="M359.7,87.7v-2.9c0-3.6-2.5-5-5.6-3.2l-193.9,112c-2.1,1.4-3.5,3.7-3.6,6.2v5.2L359.7,87.7z"/>
		<path class="st5" d="M336.2,94.4c-1.1,0.7-1.8,2-1.9,3.3c0,1.2,0.9,1.7,1.9,1.1c1.1-0.7,1.9-2,1.9-3.3
			C338.2,94.2,337.3,93.7,336.2,94.4z"/>
		<path class="st5" d="M343.9,90c-1.1,0.7-1.8,2-1.9,3.3c0,1.2,0.9,1.7,1.9,1.1c1.1-0.7,1.9-2,1.9-3.3C345.8,89.8,345,89.3,343.9,90
			z"/>
		<path class="st5" d="M351.5,85.5c-1.1,0.7-1.9,2-1.9,3.3c0,1.2,0.9,1.7,1.9,1.1c1.1-0.7,1.8-2,1.9-3.3
			C353.5,85.4,352.6,84.9,351.5,85.5z"/>
	</g>
</g>
<g id="freepik--Charts--inject-262">
	<g id="freepik--Graphics--inject-262">
		<path class="st7" d="M347.5,109.9c-0.2-0.5-0.7-0.7-1.3-0.4l-123.3,71.2c-0.4,0.2-0.7,0.6-0.9,1l-4.1-2.4c0.2-0.4,0.5-0.8,0.9-1
			l123.3-71.2c0.8-0.4,1.8-0.4,2.6,0l1.5,0.8C346.9,108.5,347.3,109.2,347.5,109.9z"/>
		<path class="st8" d="M347.5,110.3v53.3c0,0.9-0.5,1.8-1.3,2.3l-123.3,71.2l-0.2,0.1c-0.1,0-0.2,0.1-0.2,0.1l0,0
			c-0.5,0.1-0.8-0.3-0.8-0.9V183c0-0.5,0.1-0.9,0.4-1.3c0.2-0.4,0.5-0.8,0.9-1l123.3-71.2c0.6-0.3,1.1-0.2,1.3,0.4c0,0,0,0.1,0,0.1
			C347.5,110.1,347.5,110.2,347.5,110.3z"/>
		<path class="st4" d="M222.4,237.2c-0.4,0.1-0.8,0.2-1.2,0.1c-0.3,0-0.6-0.1-0.9-0.3l-1.5-0.8c-0.8-0.5-1.2-1.3-1.3-2.3v-53.3
			c0-0.5,0.1-0.9,0.4-1.3l4.1,2.4c-0.2,0.4-0.4,0.8-0.4,1.3v53.3C221.6,237,221.9,237.3,222.4,237.2z"/>
		<path class="st9" d="M343.8,144.2c-0.2-0.1-0.5,0-0.7,0.2c0,0,0,0,0,0l-4.4,8.6c-0.1-0.2-0.3-0.3-0.5-0.4
			c-0.6-0.3-1.4-0.3-1.9,0.1c-1.2,0.8-2,2-2.2,3.4l-8.4-1.4c0-0.5-0.3-1-0.8-1.3c-0.6-0.3-1.4-0.3-1.9,0.1c-0.5,0.3-0.9,0.7-1.3,1.2
			l-10.6-9.7c0.3-0.6,0.5-1.2,0.5-1.9c0.1-0.9-0.5-1.8-1.5-2c-0.5-0.1-0.9,0.1-1.3,0.4c-1.4,0.9-2.2,2.3-2.3,3.9
			c-0.1,0.7,0.3,1.3,0.8,1.7l-7.5,22.7c-0.5-0.1-1.1,0-1.6,0.3c-0.8,0.5-1.4,1.2-1.8,2l-9.1-6.6c0,0,0-0.1,0-0.1
			c0.1-0.9-0.5-1.8-1.5-2c-0.5-0.1-0.9,0.1-1.3,0.4c-1.4,0.9-2.2,2.4-2.3,4c0,0.4,0.1,0.9,0.4,1.3l-7.4,21.5c-0.4,0-0.7,0.2-1,0.3
			c-1.3,0.8-2.1,2.1-2.3,3.6l-11.4,6.5c-0.1-0.4-0.4-0.8-0.7-1c-0.6-0.3-1.4-0.3-1.9,0.1c-1,0.7-1.8,1.7-2.1,2.8l-7.4-3
			c0-0.2,0-0.4,0.1-0.6c0.1-0.9-0.5-1.8-1.5-2c-0.5-0.1-0.9,0.1-1.3,0.4c-1.4,0.9-2.2,2.3-2.3,3.9c0,0.3,0,0.6,0.1,0.9l-8.4,16.1
			c-0.6-0.2-1.2-0.1-1.7,0.3c-1.3,0.8-2.1,2.2-2.3,3.6l-5.9,3.5c-0.2,0.1-0.3,0.4-0.2,0.7c0.1,0.2,0.3,0.2,0.4,0.3
			c0.1,0,0.2,0,0.3-0.1l5.5-3.2c0.1,0.4,0.4,0.8,0.7,1c0.2,0.1,0.5,0.2,0.8,0.2c0.4,0,0.8-0.1,1.2-0.3c1.4-0.9,2.2-2.4,2.3-4
			c0-0.4-0.1-0.8-0.3-1.2l8.3-15.8l0,0c0.2,0.1,0.5,0.2,0.8,0.2c0.4,0,0.8-0.1,1.2-0.3c0.9-0.6,1.6-1.4,1.9-2.4l7.5,3
			c0,0,0,0.1,0,0.1c-0.1,0.7,0.3,1.4,0.8,1.8c0.2,0.1,0.5,0.2,0.8,0.2c0.4,0,0.8-0.1,1.2-0.4c1.3-0.8,2.1-2.1,2.3-3.6l11.3-6.5
			c0.1,0.4,0.4,0.8,0.7,1c0.2,0.1,0.5,0.2,0.8,0.2c0.4,0,0.8-0.1,1.2-0.4c1.4-0.9,2.2-2.3,2.3-3.9c0-0.7-0.2-1.3-0.8-1.7l7.2-21.2
			c0.1,0,0.3,0.1,0.4,0.1c0.4,0,0.8-0.1,1.2-0.4c1-0.6,1.7-1.6,2.1-2.7l8.9,6.4c-0.1,0.3-0.1,0.7-0.1,1c-0.1,0.7,0.3,1.4,0.8,1.8
			c0.2,0.1,0.5,0.2,0.8,0.2c0.4,0,0.8-0.1,1.2-0.4c1.4-0.9,2.2-2.4,2.3-4c0-0.5-0.1-0.9-0.4-1.3l7.7-23.2c0.4,0,0.7-0.1,1-0.3
			c0.5-0.3,0.9-0.7,1.3-1.2l10.6,9.7c-0.3,0.6-0.5,1.2-0.5,1.9c-0.1,0.7,0.3,1.4,0.8,1.8c0.2,0.1,0.5,0.2,0.8,0.2
			c0.4,0,0.8-0.1,1.2-0.3c1.2-0.8,2-2,2.2-3.4l8.4,1.4c0,0.5,0.3,1,0.8,1.3c0.2,0.1,0.5,0.2,0.8,0.2c0.4,0,0.8-0.1,1.2-0.4
			c1.3-0.8,2.1-2.3,2.3-3.8l4.9-9.6C344.2,144.6,344.1,144.3,343.8,144.2C343.9,144.2,343.9,144.2,343.8,144.2z M233.7,223.9
			c-0.3,0.2-0.6,0.3-0.9,0.1c-0.3-0.2-0.4-0.5-0.4-0.9c0.1-1.2,0.7-2.4,1.8-3.1c0.2-0.1,0.4-0.2,0.6-0.2c0.1,0,0.2,0,0.3,0.1
			c0.3,0.2,0.4,0.5,0.4,0.9C235.4,222.1,234.7,223.2,233.7,223.9z M245.9,202.8c-0.3,0.2-0.6,0.3-0.9,0.1c-0.3-0.2-0.4-0.5-0.4-0.9
			c0.1-1.2,0.7-2.4,1.8-3.1c0.2-0.1,0.4-0.2,0.7-0.2c0.1,0,0.2,0,0.3,0.1c0.3,0.2,0.4,0.6,0.3,0.9
			C247.6,201,246.9,202.1,245.9,202.8L245.9,202.8z M258.1,205.2c-0.3,0.2-0.6,0.3-0.9,0.1c-0.3-0.2-0.4-0.5-0.3-0.9
			c0.1-1.3,0.7-2.4,1.8-3.1c0.2-0.1,0.4-0.2,0.7-0.2c0.1,0,0.2,0,0.3,0.1c0.3,0.2,0.4,0.5,0.3,0.9
			C259.8,203.3,259.1,204.5,258.1,205.2L258.1,205.2z M274.3,195.8c-0.3,0.2-0.6,0.3-0.9,0.1c-0.3-0.2-0.4-0.5-0.4-0.9
			c0.1-1.3,0.7-2.4,1.8-3.1c0.2-0.1,0.4-0.2,0.6-0.2c0.1,0,0.2,0,0.3,0.1c0.3,0.2,0.4,0.5,0.4,0.9
			C276,193.9,275.4,195.1,274.3,195.8z M284.6,168.7c-0.3,0.2-0.6,0.3-0.9,0.1l-0.1-0.1l0,0c-0.2-0.2-0.3-0.5-0.2-0.8
			c0.1-1.3,0.7-2.4,1.8-3.1c0.2-0.1,0.4-0.2,0.6-0.2c0.1,0,0.2,0,0.3,0.1c0.3,0.2,0.4,0.5,0.4,0.9
			C286.3,166.9,285.7,168,284.6,168.7z M298.3,175c-0.3,0.2-0.6,0.3-0.9,0.1c-0.3-0.2-0.4-0.5-0.3-0.9c0.1-1.3,0.7-2.4,1.8-3.1
			c0.2-0.1,0.4-0.2,0.7-0.2c0.1,0,0.2,0,0.3,0.1c0,0,0.1,0.1,0.1,0.1l0,0c0.2,0.2,0.3,0.5,0.3,0.8C300,173.1,299.3,174.3,298.3,175z
			 M308.8,146.3c-0.3,0.2-0.6,0.3-0.9,0.1c-0.3-0.2-0.4-0.5-0.4-0.9c0.1-1.3,0.7-2.4,1.8-3.1c0.2-0.1,0.4-0.2,0.7-0.2
			c0.1,0,0.2,0,0.3,0.1c0.3,0.2,0.4,0.5,0.3,0.9C310.5,144.5,309.9,145.6,308.8,146.3z M323.1,158.3c-0.3,0.2-0.6,0.3-0.9,0.1
			c-0.3-0.2-0.4-0.5-0.3-0.9c0.1-1.2,0.7-2.4,1.8-3.1c0.2-0.1,0.4-0.2,0.7-0.2c0.1,0,0.2,0,0.3,0.1c0.2,0.1,0.3,0.4,0.3,0.9
			C324.8,156.5,324.1,157.6,323.1,158.3z M336.4,157.5c-0.3,0.2-0.6,0.3-0.9,0.1c-0.3-0.2-0.4-0.6-0.4-0.9c0.1-1.3,0.7-2.4,1.8-3.1
			c0.2-0.1,0.4-0.2,0.6-0.2c0.1,0,0.2,0,0.3,0.1c0.3,0.2,0.4,0.5,0.4,0.9C338.1,155.6,337.4,156.7,336.4,157.5L336.4,157.5z"/>
		<path class="st7" d="M274.4,217.8c-0.2-0.5-0.7-0.7-1.3-0.4l-50.2,29c-0.4,0.2-0.7,0.6-0.9,1l-4.1-2.4c0.2-0.4,0.5-0.8,0.9-1
			l50.2-29c0.8-0.4,1.8-0.4,2.6,0l1.5,0.8C273.8,216.4,274.2,217,274.4,217.8z"/>
		<path class="st8" d="M274.4,218.2v39.2c-0.1,0.9-0.5,1.7-1.3,2.3l-47.4,27.4l-2.8,1.6l-0.2,0.1l0,0c-0.6,0.2-1.1-0.1-1.1-0.9
			v-39.2c0-0.4,0.1-0.8,0.4-1.2c0.2-0.4,0.6-0.8,0.9-1l50.2-29c0.6-0.3,1.1-0.2,1.3,0.4c0,0,0,0.1,0,0.1
			C274.4,218,274.4,218.1,274.4,218.2z"/>
		<path class="st4" d="M222.7,288.8l-0.2,0.1c-0.1,0-0.1,0-0.2,0.1c-0.1,0-0.2,0.1-0.3,0.1h-0.3c-0.2,0-0.5,0-0.7-0.1
			c-0.2,0-0.4-0.1-0.6-0.2l-1.5-0.9c-0.8-0.5-1.3-1.3-1.3-2.3v-39.2c0-0.4,0.1-0.9,0.4-1.3l4.1,2.4c-0.2,0.4-0.3,0.8-0.4,1.2v39.2
			C221.6,288.6,222,289,222.7,288.8z"/>
		<path class="st6" d="M225.6,281.4v-26.1c0-0.6,0.4-1.2,0.9-1.5l2.3-1.4c0.5-0.3,0.9,0,0.9,0.5V279c0,0.6-0.4,1.2-0.9,1.5l-2.3,1.3
			C226,282.2,225.6,281.9,225.6,281.4z"/>
		<path class="st9" d="M233.8,276.7v-30.8c0-0.6,0.3-1.2,0.9-1.5l2.4-1.4c0.5-0.3,0.9,0,0.9,0.5v30.8c0,0.6-0.4,1.2-0.9,1.5
			l-2.3,1.4C234.2,277.5,233.8,277.2,233.8,276.7z"/>
		<path class="st6" d="M241.9,272v-14.8c0-0.6,0.4-1.2,0.9-1.5l2.3-1.3c0.5-0.3,0.9-0.1,0.9,0.5v14.8c0,0.6-0.3,1.2-0.9,1.5
			l-2.3,1.4C242.3,272.8,241.9,272.5,241.9,272z"/>
		<path class="st6" d="M250,267.3v-19.2c0-0.6,0.4-1.2,0.9-1.5l2.3-1.4c0.5-0.3,0.9-0.1,0.9,0.5V265c0,0.6-0.4,1.2-0.9,1.5l-2.3,1.4
			C250.4,268.1,250,267.9,250,267.3z"/>
		<path class="st9" d="M258.1,262.6v-6.5c0-0.6,0.4-1.2,0.9-1.5l2.3-1.4c0.5-0.3,0.9-0.1,0.9,0.5v6.5c0,0.6-0.4,1.2-0.9,1.5
			l-2.3,1.4C258.5,263.4,258.1,263.2,258.1,262.6z"/>
		<path class="st6" d="M266.3,257.9v-21.5c0-0.6,0.4-1.2,0.9-1.5l2.3-1.3c0.5-0.3,0.9,0,0.9,0.5v21.4c0,0.6-0.4,1.2-0.9,1.5
			l-2.3,1.4C266.7,258.7,266.3,258.5,266.3,257.9z"/>
		<path class="st7" d="M347.5,175.6c-0.2-0.5-0.7-0.7-1.3-0.4l-62.4,36c-0.4,0.2-0.7,0.6-1,1l-4-2.4c0.2-0.4,0.5-0.8,0.9-1l62.4-36
			c0.8-0.4,1.8-0.4,2.6,0l1.5,0.8C346.9,174.1,347.3,174.8,347.5,175.6z"/>
		<path class="st8" d="M347.5,176v39.2c-0.1,0.9-0.5,1.7-1.3,2.3l-59.6,34.4l-2.8,1.6l-0.2,0.1l0,0c-0.6,0.2-1.1-0.1-1.1-0.9v-39.2
			c0-0.4,0.1-0.8,0.4-1.2c0.2-0.4,0.6-0.8,1-1l62.4-36c0.6-0.3,1.1-0.2,1.3,0.4c0,0,0,0.1,0,0.1C347.5,175.8,347.5,175.9,347.5,176z
			"/>
		<path class="st4" d="M283.6,253.6l-0.2,0.1c-0.1,0-0.1,0-0.2,0.1c-0.1,0-0.2,0.1-0.3,0.1h-0.3c-0.2,0-0.5,0-0.7-0.1
			c-0.2,0-0.4-0.1-0.6-0.2l-1.5-0.9c-0.8-0.5-1.3-1.3-1.3-2.3v-39.2c0-0.4,0.1-0.9,0.4-1.3l4,2.4c-0.2,0.4-0.3,0.8-0.4,1.2v39.2
			C282.5,253.5,283,253.8,283.6,253.6z"/>
		<path class="st9" d="M305.6,207.9l-3.2,12c-0.3,1-0.8,1.9-1.4,2.7l-10.4,12.5c-1.4-1-2.3-2.4-2.5-4.1c-0.7-4,1.3-9.5,5.4-14.4
			c0.7-0.8,1.4-1.6,2.1-2.3C298.3,211.4,301.8,209.2,305.6,207.9z"/>
		<path class="st6" d="M314.3,223.1c-4.6,7.8-13.4,13.7-20,13.3c-0.9,0-1.8-0.2-2.6-0.6l10.3-12.4c0.6-0.6,1.3-1,2.1-1h0.1
			L314.3,223.1z"/>
		<path class="st6" d="M313.4,207.7l-9.6,11.5l3.2-11.7C309.1,206.8,311.4,206.9,313.4,207.7z"/>
		<path class="st6" d="M315,221.9l-10.7-0.7c-0.1,0-0.2,0-0.4-0.1c0-0.1,0-0.1,0.1-0.2c0,0,0.1-0.1,0.1-0.1l10.4-12.5
			C317.9,210.6,318.1,215.9,315,221.9z"/>
		<path class="st6" d="M321.4,199.5c0,0.7,0.6,1,1.3,0.6l19.5-11.3c0.7-0.4,1.2-1.2,1.3-2c0-0.7-0.6-1-1.3-0.6l-19.5,11.3
			C321.9,197.9,321.5,198.7,321.4,199.5z"/>
		<path class="st4" d="M321.4,207.3c0,0.7,0.6,1,1.3,0.6l19.5-11.3c0.7-0.4,1.2-1.2,1.3-2.1c0-0.7-0.6-1-1.3-0.6l-19.5,11.3
			C321.9,205.7,321.4,206.5,321.4,207.3z"/>
		<path class="st4" d="M321.4,212.2c0,0.7,0.6,1,1.3,0.6l19.5-11.3c0.7-0.4,1.2-1.2,1.3-2.1c0-0.7-0.6-1-1.3-0.6l-19.5,11.3
			C321.9,210.6,321.4,211.3,321.4,212.2z"/>
		<path class="st4" d="M321.4,217c0,0.7,0.6,1,1.3,0.6l19.5-11.3c0.7-0.4,1.2-1.2,1.3-2.1c0-0.7-0.6-1-1.3-0.6L322.6,215
			C321.9,215.4,321.5,216.2,321.4,217z"/>
		<path class="st4" d="M321.4,221.9c0,0.7,0.6,1,1.3,0.6l19.5-11.3c0.7-0.4,1.2-1.2,1.3-2.1c0-0.7-0.6-1-1.3-0.6l-19.5,11.3
			C321.9,220.2,321.4,221,321.4,221.9z"/>
		<path class="st7" d="M205.3,213.1c-0.2-0.5-0.7-0.7-1.3-0.4l-34,19.6c-0.4,0.3-0.7,0.6-0.9,1l-4-2.4c0.2-0.4,0.5-0.8,0.9-1
			l34-19.6c0.8-0.4,1.8-0.4,2.6,0l1.5,0.9C204.7,211.7,205.2,212.4,205.3,213.1z"/>
		<path class="st8" d="M205.3,213.5v11.1c0,0.9-0.5,1.8-1.3,2.3l-34,19.6l-0.2,0.1h-0.1c-0.6,0.2-1-0.2-1-0.9v-11.1
			c0-0.5,0.1-0.9,0.4-1.3c0.2-0.4,0.5-0.7,0.9-1l34-19.6c0.6-0.4,1.1-0.2,1.3,0.4c0,0,0,0.1,0,0.1
			C205.3,213.3,205.3,213.4,205.3,213.5z"/>
		<path class="st4" d="M169.8,246.6c-0.2,0.1-0.3,0.1-0.5,0.1c-0.5,0.1-1,0-1.5-0.1l-0.3-0.1l-1.5-0.8c-0.8-0.5-1.3-1.3-1.3-2.3
			v-11.1c0-0.5,0.1-0.9,0.4-1.3l4.1,2.3c-0.2,0.4-0.4,0.8-0.4,1.3v11.1C168.8,246.4,169.2,246.8,169.8,246.6z"/>
		<path class="st7" d="M205.3,234.2c-0.2-0.5-0.7-0.7-1.3-0.4l-34,19.6c-0.4,0.3-0.7,0.6-0.9,1l-4.1-2.3c0.2-0.4,0.5-0.8,0.9-1
			l34-19.6c0.8-0.4,1.8-0.4,2.6,0l1.5,0.9C204.7,232.8,205.1,233.5,205.3,234.2z"/>
		<path class="st8" d="M205.3,234.6v11.1c0,0.9-0.5,1.8-1.3,2.3l-34,19.6l-0.2,0.1h-0.1c-0.6,0.2-1-0.2-1-0.9v-11.1
			c0-0.5,0.1-0.9,0.4-1.3c0.2-0.4,0.5-0.7,0.9-1l34-19.6c0.6-0.4,1.1-0.2,1.3,0.4c0,0,0,0.1,0,0.1
			C205.3,234.4,205.3,234.5,205.3,234.6z"/>
		<path class="st4" d="M169.8,267.7c-0.2,0.1-0.3,0.1-0.5,0.1c-0.5,0.1-1,0-1.5-0.1l-0.3-0.1l-1.5-0.8c-0.8-0.5-1.3-1.3-1.3-2.3
			v-11.1c0-0.5,0.1-0.9,0.4-1.3l4.1,2.3c-0.2,0.4-0.4,0.8-0.4,1.3v11.1C168.8,267.5,169.2,267.9,169.8,267.7z"/>
		<path class="st7" d="M205.3,255.4c-0.2-0.5-0.7-0.7-1.3-0.4l-34,19.6c-0.4,0.3-0.7,0.6-0.9,1l-4.1-2.3c0.2-0.4,0.5-0.8,0.9-1
			l34-19.6c0.8-0.4,1.8-0.4,2.6,0l1.5,0.9C204.7,253.9,205.1,254.6,205.3,255.4z"/>
		<path class="st8" d="M205.3,255.7v11.1c0,0.9-0.5,1.8-1.3,2.3l-34,19.6l-0.2,0.1h-0.1c-0.6,0.2-1-0.2-1-0.9v-11
			c0-0.5,0.1-0.9,0.4-1.3c0.2-0.4,0.5-0.7,0.9-1l34-19.6c0.6-0.4,1.1-0.2,1.3,0.4c0,0,0,0.1,0,0.1
			C205.3,255.6,205.3,255.6,205.3,255.7z"/>
		<path class="st4" d="M169.8,288.8c-0.2,0.1-0.3,0.1-0.5,0.1c-0.5,0.1-1,0-1.5-0.1l-0.3-0.1l-1.5-0.8c-0.8-0.5-1.3-1.3-1.3-2.3
			v-11.1c0-0.5,0.1-0.9,0.4-1.3l4.1,2.3c-0.2,0.4-0.4,0.8-0.4,1.3v11.1C168.8,288.6,169.2,289,169.8,288.8z"/>
		<path class="st7" d="M205.3,276.5c-0.2-0.5-0.7-0.7-1.3-0.4l-34,19.6c-0.4,0.3-0.7,0.6-0.9,1l-4.1-2.3c0.2-0.4,0.5-0.8,0.9-1
			l34-19.6c0.8-0.4,1.8-0.4,2.6,0l1.5,0.9C204.7,275,205.1,275.7,205.3,276.5z"/>
		<path class="st8" d="M205.3,276.9v11.1c0,0.9-0.5,1.8-1.3,2.3l-34,19.6l-0.2,0.1h-0.1c-0.6,0.2-1-0.2-1-0.9v-11
			c0-0.5,0.1-0.9,0.4-1.3c0.2-0.4,0.5-0.7,0.9-1l34-19.6c0.6-0.4,1.1-0.2,1.3,0.4c0,0,0,0.1,0,0.1
			C205.3,276.7,205.3,276.8,205.3,276.9z"/>
		<path class="st4" d="M169.8,309.9c-0.2,0.1-0.3,0.1-0.5,0.1c-0.5,0.1-1,0-1.5-0.1l-0.3-0.1l-1.5-0.8c-0.8-0.5-1.3-1.3-1.3-2.3
			v-11.1c0-0.5,0.1-0.9,0.4-1.3l4.1,2.3c-0.2,0.4-0.4,0.8-0.4,1.3V309C168.8,309.7,169.2,310.1,169.8,309.9z"/>
		<path class="st6" d="M208.9,195.6c0,0,0.1,0,0.1,0l-3.6-2.1v-1.1c0-0.1,0-0.2,0-0.3c0,0,0-0.1,0-0.1c-0.1-0.8-0.6-1.4-1.3-1.9
			l-1.5-0.9c-0.8-0.4-1.8-0.4-2.6,0l-34,19.6c-0.8,0.5-1.3,1.3-1.3,2.3v11.1c0,0.9,0.5,1.8,1.3,2.3l1.5,0.8l0.3,0.1
			c0.5,0.2,1,0.2,1.5,0.1c0.2,0,0.3-0.1,0.5-0.1h0.1l0.2-0.1l34-19.6c0.8-0.5,1.3-1.3,1.3-2.3v-3.2l3.7-4.3c0.1-0.1,0.1-0.3,0-0.4
			C209,195.6,208.9,195.6,208.9,195.6z"/>
		<path class="st10" d="M169.8,225.5c-0.2,0.1-0.3,0.1-0.5,0.1c-0.5,0.1-1,0-1.5-0.1l-0.3-0.1l-1.5-0.8c-0.8-0.5-1.3-1.3-1.3-2.3
			v-11.1c0-0.5,0.1-0.9,0.4-1.3l4.1,2.3c-0.2,0.4-0.4,0.8-0.4,1.3v11.1C168.8,225.3,169.2,225.6,169.8,225.5z"/>
		<path class="st11" d="M205.3,192c-0.2-0.5-0.7-0.7-1.3-0.4l-34,19.6c-0.4,0.3-0.7,0.6-0.9,1l-4.1-2.3c0.2-0.4,0.5-0.8,0.9-1
			l34-19.6c0.8-0.4,1.8-0.4,2.6,0l1.5,0.9C204.7,190.6,205.1,191.2,205.3,192z"/>
		<path class="st11" d="M208.9,195.6h-3.5v-2.1l3.6,2.1C209,195.6,208.9,195.6,208.9,195.6z"/>
	</g>
</g>
<g id="freepik--Plants--inject-262">
	<g id="freepik--plants--inject-262">
		<path class="st6" d="M99.4,374.3l7-4c0,0,3.4-18.5,0.8-34.5c-3.5-22.4-18.8-30.1-24.3-27.9s-6.8,8.9,3.2,21.8
			C92,337.4,99.6,353.5,99.4,374.3z"/>
		<g class="st12">
			<path d="M99.4,374.3l7-4c0,0,3.4-18.5,0.8-34.5c-3.5-22.4-18.8-30.1-24.3-27.9s-6.8,8.9,3.2,21.8C92,337.4,99.6,353.5,99.4,374.3
				z"/>
		</g>
		<path class="st5" d="M101.9,365.4L101.9,365.4c-0.3,0-0.5-0.3-0.5-0.6c2.9-21-5.5-44-15-53.2c-0.2-0.2-0.2-0.5,0-0.7c0,0,0,0,0,0
			c0.2-0.2,0.5-0.2,0.7,0c0,0,0,0,0,0c9.7,9.4,18.3,32.8,15.3,54.1C102.4,365.3,102.2,365.4,101.9,365.4z"/>
		<path class="st9" d="M79.9,385.6c-1.1,0.6-3.4-0.8-4.3-1.4c-1.5-1-2.7-2.4-3.5-4c-0.9-1.9-1.2-4-0.9-6c0.2-1.1,0.4-2.1,0.8-3.2
			c0.3-1,0.6-2,0.9-3.1c0.4-1,0.5-2,0.4-3.1c-0.3-2.1-2.1-3.6-3.8-4.8c-1.9-1.4-3.8-3.3-3.8-5.8c0.1-2,0.9-3.8,2.2-5.3
			c1.2-1.5,2.6-2.9,3.7-4.5c0.9-1.1,1.3-2.5,1.3-3.9c-0.1-0.9-0.4-1.7-0.9-2.5c-1-1.6-1.9-3.2-2.7-4.9c-0.6-1.8-0.5-4,0.9-5.2
			c1.2-0.9,2.8-1.3,4.3-1.1c1.4,0.2,2.8,0.7,4,1.4c4,2.2,6.3,7,10.6,8.7c1.7,0.5,3.4,1,5.2,1.3c1.8,0.3,3.3,1.4,4.3,2.9
			c1.6,3.1-1.3,7-0.2,10.3c1,2.9,3.8,4.1,5.4,6.7c0.7,1.2,0.9,2.5,0.8,3.8c-0.1,2.2-0.7,4.5-1.6,6.5c-1,2-2.2,4-3.6,5.8
			C99.3,374.4,80.1,385.5,79.9,385.6z"/>
		<path class="st5" d="M91.3,379.5L91.3,379.5c-0.3,0-0.5-0.2-0.5-0.5c0,0,0,0,0,0c0.8-19.9-8.5-41.8-15.3-48.1
			c-0.2-0.2-0.2-0.5,0-0.7c0.2-0.2,0.5-0.2,0.7,0c6.9,6.5,16.5,28.8,15.7,48.9C91.8,379.3,91.6,379.5,91.3,379.5
			C91.3,379.5,91.3,379.5,91.3,379.5z"/>
		<path class="st5" d="M88.3,356c0,0-0.1,0-0.1,0c-4.7-1.3-9.5-2.1-14.4-2.3c-0.3,0-0.5-0.2-0.5-0.5c0,0,0,0,0,0
			c0-0.3,0.2-0.5,0.5-0.5c0,0,0,0,0,0c5,0.3,9.9,1.1,14.7,2.4c0.3,0,0.5,0.3,0.4,0.6C88.9,356,88.6,356.1,88.3,356L88.3,356z"/>
	</g>
</g>
<g id="freepik--magnifying-glass--inject-262">
	<g id="freepik--Lens--inject-262">
		<path class="st6" d="M304,351.3L304,351.3c-1,0.8-1.4,2-1.2,3.2c0.3,3.3,2.3,6.3,5.2,8c1,0.7,2.3,0.7,3.4,0.2l0,0l60.1-35.8l0,0
			c1.3-0.7,2-2.3,1.9-4.5c-0.5-4.7-3.2-8.8-7.2-11.1c-2-1-3.7-1-4.8-0.1l0,0L304,351.3z"/>
		<path class="st13" d="M308,362.4c2.7,1.4,4.8,0,4.6-3c-0.3-3.3-2.3-6.3-5.2-8c-2.7-1.4-4.8,0-4.6,3
			C303.2,357.8,305.1,360.7,308,362.4z"/>
		<path class="st1" d="M287.4,366.6c0.2,2,1.4,3.8,3.1,4.8c0.6,0.4,1.4,0.4,2,0.1l0,0l17.3-11.2l0,0c0.6-0.4,0.9-1.2,0.7-1.9
			c-0.2-2-1.4-3.8-3.1-4.8c-0.6-0.4-1.4-0.4-2-0.1l-17.3,11.2l0,0C287.6,365.2,287.3,365.9,287.4,366.6z"/>
		<path class="st6" d="M222,358.6c-0.3,0.2-0.7,0.4-1,0.7c-0.3,0.3-0.6,0.5-0.9,0.7c-0.3,0.2-0.4,0.3-0.6,0.5
			c-0.5,0.4-1,0.9-1.5,1.3c-0.2,0.2-0.4,0.4-0.7,0.6c-0.2,0.2-0.4,0.4-0.6,0.6c-0.5,0.5-1,1.1-1.5,1.6c-0.2,0.3-0.4,0.5-0.7,0.8
			c0,0-0.1,0.1-0.1,0.1c-0.2,0.3-0.4,0.5-0.6,0.8c-0.2,0.3-0.4,0.6-0.6,0.9s-0.3,0.5-0.4,0.7c-0.1,0.2-0.2,0.3-0.3,0.5
			c-0.1,0.2-0.2,0.4-0.3,0.6c0,0-0.1,0.1-0.1,0.1c0,0-0.2,0.4-0.3,0.6c-0.1,0.2-0.1,0.3-0.2,0.4c-0.4,0.9-0.7,1.8-1,2.7l-0.1,0.5
			l-0.1,0.4l-0.1,0.5c-0.1,0.4-0.2,0.9-0.2,1.3c0,0.2-0.1,0.5-0.1,0.7l0,0.7c0,0.4,0,0.7,0,1.1l0,0.3l0,0l0,0l0.8,16.3l0,0l0,0.1
			c0.2,3.1,1.2,6.1,3,8.7c2.5,3.9,6.7,7.5,12.4,10.4c19.6,10,50.5,8.4,69-3.6c9.2-6,13.6-13.4,13.3-20.5l0-0.1l0,0l-0.9-16.3l0,0
			l0-0.1l0,0l0-0.2c0-0.3,0-0.6-0.1-0.9c0-0.4-0.1-0.8-0.2-1.1c-0.1-0.3-0.1-0.7-0.3-1l-0.2-0.5c0-0.2-0.1-0.4-0.2-0.5
			c-0.1-0.2-0.1-0.4-0.2-0.5c0-0.1-0.1-0.3-0.1-0.4c-0.1-0.2-0.2-0.5-0.3-0.7c0-0.1-0.1-0.1-0.1-0.1l-0.4-0.8
			c-2.3-4.6-6.8-8.8-13.4-12.2c-19.6-10-50.5-8.4-69,3.6C222.9,358,222.4,358.3,222,358.6z M221.5,386.5c1.9-2.1,4.1-4,6.5-5.5
			c16.3-10.6,44.6-12,62-3.2c2.6,1.3,4.9,2.9,7,4.8c-1.9,2.1-4.1,4-6.5,5.5c-16.3,10.6-44.6,12-62,3.2
			C226,390.1,223.6,388.4,221.5,386.5L221.5,386.5z"/>
		<path class="st10" d="M307.6,373.9l0.9,15.9c0.3,7.2-4.1,14.6-13.3,20.5c-8.2,5.3-18.9,8.6-30,9.7l-0.9-16.3
			c11.1-1.1,21.8-4.4,30-9.7C303.3,388.2,307.7,380.9,307.6,373.9z"/>
		<path class="st11" d="M222,358.6c-0.3,0.2-0.7,0.4-1,0.7c-0.3,0.3-0.6,0.5-0.9,0.7c-0.3,0.2-0.4,0.3-0.6,0.5
			c-0.5,0.4-1,0.9-1.5,1.3c-0.2,0.2-0.4,0.4-0.7,0.6c-0.2,0.2-0.4,0.4-0.6,0.6c-0.5,0.5-1,1.1-1.5,1.6c-0.2,0.3-0.4,0.5-0.7,0.8
			c0,0-0.1,0.1-0.1,0.1c-0.2,0.3-0.4,0.5-0.6,0.8c-0.2,0.3-0.4,0.6-0.6,0.9s-0.3,0.5-0.4,0.7c-0.1,0.2-0.2,0.3-0.3,0.5
			c-0.1,0.2-0.2,0.4-0.3,0.6c0,0-0.1,0.1-0.1,0.1c0,0-0.2,0.4-0.3,0.6c-0.1,0.2-0.1,0.3-0.2,0.4c-0.4,0.9-0.7,1.8-1,2.7l-0.1,0.5
			l-0.1,0.4l-0.1,0.5c-0.1,0.4-0.2,0.9-0.2,1.3c0,0.2-0.1,0.5-0.1,0.7l0,0.7c0,0.4,0,0.7,0,1.1c0.2,7.3,5.3,14.4,15.3,19.5
			c19.6,10,50.5,8.4,69-3.6c9.4-6.1,13.7-13.7,13.2-20.9c0-0.3,0-0.6-0.1-0.9c0-0.4-0.1-0.8-0.2-1.1c-0.1-0.3-0.1-0.7-0.3-1
			l-0.2-0.5c0-0.2-0.1-0.4-0.2-0.5c-0.1-0.2-0.1-0.4-0.2-0.5c0-0.1-0.1-0.3-0.1-0.4c-0.1-0.2-0.2-0.5-0.3-0.7c0-0.1-0.1-0.1-0.1-0.1
			l-0.4-0.8c-2.3-4.6-6.8-8.8-13.4-12.2c-19.6-10-50.5-8.4-69,3.6C222.9,358,222.4,358.3,222,358.6z M289.1,360.4
			c4.4,2.2,7.7,5,9.6,7.9c3.6,5.5,1.5,10.6-1.8,14.3c-1.9,2.1-4.1,4-6.5,5.5c-16.3,10.6-44.6,12-62,3.2c-2.6-1.3-4.9-2.9-7-4.8
			c-1-0.9-1.9-2-2.6-3.1c-5.9-9.2,3.8-16.9,8.2-19.8C243.4,353.1,271.8,351.6,289.1,360.4z"/>
		<path class="st10" d="M227.2,363.6c16.3-10.6,44.6-12,62-3.2c4.4,2.2,7.7,5,9.6,7.9c3.6,5.5,1.5,10.6-1.8,14.3
			c-2.1-1.9-4.5-3.6-7-4.8c-17.3-8.8-45.7-7.3-62,3.2c-2.4,1.5-4.6,3.4-6.5,5.5c-1-0.9-1.9-2-2.6-3.1
			C213,374.2,222.7,366.5,227.2,363.6z"/>
		<path class="st14" d="M227.6,370.5c16.3-10.6,44.6-12,62-3.2c4.4,2.2,7.7,5,9.6,7.9c0.4,0.6,0.7,1.2,1,1.8c-0.7,2-1.8,3.9-3.2,5.5
			c-1.9,2.1-4.1,4-6.5,5.5c-16.3,10.6-44.6,12-62,3.2c-2.6-1.3-4.9-2.9-7-4.8c-1-0.9-1.9-2-2.6-3.1c-0.4-0.6-0.7-1.2-1-1.9
			C219.4,376.4,224.6,372.4,227.6,370.5z"/>
		<path class="st10" d="M311.9,356.6l60.8-37.3c0.3,1,0.5,2,0.6,3c0.1,2.2-0.6,3.8-1.9,4.5l0,0l-60.1,35.8c0.9-0.8,1.4-2,1.2-3.2
			C312.5,358.4,312.2,357.4,311.9,356.6z"/>
	</g>
</g>
<g>
	<path class="st5" d="M177.3,216.8l1.6-1.3c0.1,0.4,0.2,0.6,0.5,0.7c0.2,0.1,0.5,0,0.9-0.2c0.4-0.2,0.7-0.5,0.9-0.9
		c0.1-0.2,0.2-0.4,0.2-0.7c0-0.2,0-0.3-0.1-0.3c-0.1,0-0.3,0-0.6,0.1c-1.3,0.4-2.2,0.6-2.5,0.5c-0.5-0.1-0.8-0.6-0.8-1.3
		c0-0.7,0.2-1.4,0.6-2.1c0.4-0.7,1.1-1.3,1.9-1.8c0.8-0.5,1.5-0.7,1.9-0.6c0.4,0.1,0.7,0.4,0.9,1l-1.5,1.3c-0.1-0.3-0.2-0.4-0.4-0.5
		c-0.2-0.1-0.5,0-0.8,0.2c-0.4,0.3-0.7,0.5-0.9,0.8c-0.1,0.2-0.2,0.4-0.2,0.5c0,0.1,0.1,0.2,0.2,0.3c0.2,0.1,0.7-0.1,1.5-0.3
		c0.9-0.3,1.5-0.3,1.9-0.2c0.4,0.2,0.5,0.6,0.6,1.2c0,0.7-0.2,1.5-0.6,2.2c-0.5,0.8-1.1,1.5-2.1,2c-0.8,0.5-1.5,0.7-2,0.5
		C177.8,217.9,177.5,217.5,177.3,216.8z"/>
	<path class="st5" d="M188.1,210.2l1.6-0.6c-0.2,0.9-0.5,1.6-0.9,2.3c-0.4,0.7-1,1.2-1.7,1.6c-1.1,0.6-1.9,0.7-2.4,0.1
		c-0.4-0.5-0.7-1.2-0.7-2.3c0-1.3,0.2-2.4,0.7-3.5c0.5-1,1.2-1.8,2-2.3c0.9-0.5,1.7-0.6,2.2-0.1c0.6,0.4,0.9,1.5,0.9,3l-4.1,2.4
		c0,0.6,0.2,1,0.4,1.2c0.3,0.2,0.6,0.2,1,0c0.3-0.2,0.5-0.4,0.6-0.6C187.9,211,188,210.6,188.1,210.2z M188.1,208.1
		c0-0.6-0.2-1-0.4-1.1c-0.2-0.2-0.5-0.2-0.9,0c-0.4,0.2-0.6,0.5-0.9,1c-0.2,0.5-0.3,1-0.3,1.5L188.1,208.1z"/>
	<path class="st5" d="M190.7,207.1c0-0.7,0.1-1.4,0.3-2.2c0.2-0.8,0.6-1.5,1.1-2.1c0.5-0.6,1-1.1,1.6-1.5c0.9-0.6,1.7-0.6,2.3-0.2
		c0.6,0.4,1,1.2,1,2.4c0,1.2-0.2,2.3-0.8,3.4c-0.6,1.1-1.3,2-2.2,2.5c-0.6,0.3-1.1,0.5-1.6,0.5c-0.5,0-0.9-0.3-1.2-0.7
		C190.9,208.7,190.7,208,190.7,207.1z M192.4,206.2c0,0.8,0.2,1.3,0.5,1.5c0.3,0.2,0.7,0.2,1.1,0c0.4-0.3,0.8-0.7,1.1-1.2
		c0.3-0.6,0.4-1.3,0.4-2c0-0.8-0.2-1.3-0.5-1.5c-0.3-0.2-0.7-0.2-1.1,0c-0.4,0.3-0.8,0.7-1.1,1.2
		C192.5,204.8,192.3,205.5,192.4,206.2z"/>
</g>
<g>
	<path class="st9" d="M320.4,135.1c0,0.8-0.2,1.5-0.6,2.1c-0.1,0.2-0.3,0.3-0.4,0.5c-0.1,0.1-0.3,0.3-0.4,0.3l-0.9,0.5
		c-0.4,0.2-0.8,0.2-1.1,0c-0.3-0.2-0.4-0.6-0.5-1.2l-0.1-1.7l0.7-0.4l0.1,1.7c0,0.1,0,0.2,0.1,0.3c0.1,0.1,0.1,0.2,0.2,0.2l0,0
		c0.1,0,0.2,0,0.3,0c0.1,0,0.2-0.1,0.3-0.1l0.7-0.4c0.1-0.1,0.2-0.1,0.3-0.2c0.1-0.1,0.2-0.2,0.3-0.3l0,0c0.1-0.1,0.1-0.3,0.2-0.4
		c0-0.1,0.1-0.2,0.1-0.3c0-0.1-0.1-0.2-0.3-0.1l0,0c0,0-0.1,0-0.1,0c0,0,0,0-0.1,0l-0.9,0.5l-0.1-1.4c0-0.4,0.1-0.8,0.3-1.2
		c0.2-0.4,0.5-0.7,0.8-0.9l0.8-0.5l0.1,1l-0.8,0.5c-0.2,0.1-0.3,0.3-0.4,0.5v0c0,0,0,0.1,0,0.2c0,0.1,0,0.2,0,0.4
		c0.2-0.1,0.4-0.2,0.5-0.3c0.2-0.1,0.3-0.1,0.4-0.1c0.2,0,0.3,0,0.4,0.2C320.3,134.6,320.4,134.8,320.4,135.1z"/>
	<path class="st9" d="M322.7,133c0,0.6-0.1,1.2-0.4,1.7c-0.3,0.6-0.6,1-1.1,1.3l-0.8,0.5l-0.2-1l0.7-0.4c0.1-0.1,0.3-0.2,0.4-0.3
		c0.1-0.1,0.2-0.2,0.3-0.3c0.1-0.1,0.2-0.3,0.2-0.4c0.1-0.1,0.1-0.3,0.1-0.4l-0.1-2.5l0.7-0.4L322.7,133z M322.6,128.8
		c0,0.1,0,0.2,0,0.3c0,0.1,0,0.2-0.1,0.2c0,0.1-0.1,0.1-0.1,0.2c-0.1,0.1-0.1,0.1-0.2,0.1c-0.2,0.1-0.3,0.1-0.4,0.1
		c-0.1,0-0.1-0.2-0.1-0.4c0-0.3,0.1-0.6,0.5-0.8C322.4,128.4,322.5,128.5,322.6,128.8z"/>
	<path class="st9" d="M325,132c-0.5,0.3-0.9,0.4-1.2,0.3c-0.1-0.1-0.2-0.3-0.2-0.7l-0.1-3.6l0.7-0.4l0.1,3.3c0,0.3,0,0.4,0.1,0.4
		c0,0,0.1,0,0.2-0.1c0.1,0,0.2-0.1,0.4-0.2L325,132z"/>
	<path class="st9" d="M329.6,128c0,0.2,0,0.4,0,0.6c0,0.2-0.1,0.4-0.1,0.5c-0.2,0.4-0.4,0.6-0.7,0.8c-0.1,0.1-0.3,0.1-0.4,0.1
		c-0.1,0-0.3,0-0.4-0.1c-0.1,0.2-0.2,0.4-0.3,0.5c-0.1,0.1-0.2,0.2-0.4,0.3c-0.1,0-0.1,0.1-0.2,0.1c-0.1,0-0.1,0-0.2,0
		c-0.1,0-0.1,0-0.2-0.1c-0.1,0-0.1-0.1-0.2-0.1c-0.1,0.2-0.2,0.4-0.4,0.6c-0.1,0.2-0.3,0.3-0.4,0.3l-0.8,0.5l0-1.1l0.8-0.4
		c0.2-0.1,0.3-0.3,0.3-0.6l0-1.2l0.7-0.4l0,1.2c0,0.1,0,0.2,0.1,0.2v0c0.1,0,0.2,0,0.3-0.1c0.2-0.1,0.3-0.3,0.3-0.5l0-1.4l0.7-0.4
		l0,1.2c0,0.1,0,0.2,0.1,0.2v0c0.1,0,0.2,0,0.3-0.1c0.2-0.1,0.3-0.3,0.3-0.5l0-1.4l0.7-0.4L329.6,128z"/>
	<path class="st9" d="M335.2,126c-0.3,0.2-0.5,0.3-0.7,0.2c0,0-0.1,0-0.2-0.1c-0.1,0-0.2-0.1-0.4-0.2c-0.1,0.4-0.3,0.7-0.4,0.9
		c-0.2,0.2-0.4,0.4-0.6,0.6c-0.3,0.2-0.6,0.2-0.9,0.1c-0.2-0.1-0.4-0.5-0.4-0.9c0-0.1,0-0.2,0-0.4c0-0.1,0.1-0.3,0.1-0.4
		c0-0.2,0.1-0.3,0.2-0.5c0.1-0.2,0.1-0.3,0.2-0.5c0,0,0,0,0,0c0,0,0,0,0,0l-0.1-0.1l0.5-1l1.9,1.3c0.1,0.1,0.1,0.1,0.2,0.1
		c0,0,0.1,0,0.1,0.1l0,0c0.1,0,0.2,0,0.4-0.2L335.2,126z M333.4,125.6c0-0.1,0-0.1,0-0.1c0,0,0-0.1-0.1-0.1c-0.1,0-0.1-0.1-0.2-0.1
		c-0.1,0-0.1-0.1-0.2-0.1c0,0,0,0,0,0c0,0,0,0,0,0c-0.1,0.1-0.1,0.2-0.1,0.3c0,0.1-0.1,0.1-0.1,0.2c0,0.1-0.1,0.2-0.1,0.3
		c0,0.1,0,0.2,0,0.2c0,0.1,0.1,0.2,0.1,0.3v0c0.1,0,0.2,0,0.3-0.1c0.1-0.1,0.2-0.2,0.3-0.3c0-0.1,0.1-0.2,0.1-0.2
		C333.3,125.7,333.4,125.7,333.4,125.6z"/>
	<path class="st9" d="M337.5,124.6l-0.3,0.1c-0.3,0.2-0.6,0.2-0.8,0.2c-0.1,0.1-0.2,0.3-0.3,0.4c-0.1,0.1-0.2,0.2-0.3,0.2l-1,0.6
		l0-1.1c0.3-0.2,0.6-0.3,0.7-0.4c0.2-0.1,0.3-0.2,0.3-0.2c0.1-0.1,0.1-0.3,0.1-0.6c0,0,0-0.1,0-0.1c0,0,0-0.1,0-0.1l0-0.1
		c0,0,0,0,0,0c0,0,0,0,0,0c0,0,0-0.1,0-0.2c0-0.1,0-0.1,0-0.2c0-0.1,0-0.1,0-0.2c0,0,0-0.1,0-0.1l0.7-0.4l0,1.2
		c0,0.2,0.1,0.2,0.2,0.2c0,0,0.1,0,0.2-0.1c0.1,0,0.2-0.1,0.3-0.2L337.5,124.6z M336.2,121.6c0,0.1,0,0.2,0,0.2
		c0,0.1-0.1,0.2-0.1,0.3c-0.1,0.2-0.2,0.3-0.3,0.4c-0.3,0.2-0.5,0.1-0.5-0.3c0-0.3,0.1-0.6,0.4-0.8
		C336.1,121.3,336.2,121.3,336.2,121.6z"/>
	<path class="st9" d="M340.2,123l-0.1,0.1c-0.1,0.1-0.2,0.1-0.3,0.2c-0.1,0-0.1,0.1-0.2,0.1c0,0-0.1,0-0.1,0c0,0-0.1,0-0.2-0.1
		c-0.1,0.2-0.2,0.3-0.3,0.4s-0.2,0.2-0.3,0.2l-1.3,0.8l0-1.1l1.1-0.7c0.1-0.1,0.2-0.2,0.3-0.3c0-0.1,0.1-0.2,0.1-0.3l0-1.2l0.7-0.4
		l0,1.2c0,0.2,0,0.3,0.1,0.3c0,0,0.1,0,0.2,0c0.1,0,0.2-0.1,0.3-0.2L340.2,123z M338.3,125.3c0,0.3-0.1,0.5-0.4,0.7
		c-0.3,0.2-0.5,0.1-0.5-0.2c0-0.1,0-0.1,0-0.2c0-0.1,0-0.1,0.1-0.2c0-0.1,0.1-0.1,0.1-0.2s0.1-0.1,0.2-0.1
		C338.1,124.9,338.3,124.9,338.3,125.3z M339.5,124.6c0,0.3-0.1,0.5-0.4,0.7c-0.3,0.2-0.5,0.1-0.5-0.2c0-0.1,0-0.3,0.1-0.4
		c0.1-0.1,0.2-0.2,0.3-0.3C339.3,124.2,339.5,124.3,339.5,124.6z"/>
	<path class="st9" d="M341.6,122L341.6,122c-0.2,0.3-0.4,0.5-0.6,0.6l-0.8,0.5l0-1.1l0.6-0.3c0.2-0.1,0.4-0.3,0.5-0.6
		c0.1-0.1,0.1-0.3,0.1-0.6l0.1-1.1l0.7-0.3l-0.1,1.6v0c0,0.1,0,0.2,0,0.2c0,0.1,0,0.1,0,0.2l0,0c0.2-0.3,0.4-0.5,0.6-0.6l0.8-0.5
		l0,1.1l-0.6,0.3c-0.2,0.1-0.4,0.3-0.5,0.6c-0.1,0.1-0.1,0.3-0.1,0.6l-0.1,1.1l-0.7,0.3l0.1-1.6v0c0-0.1,0-0.2,0-0.3
		C341.5,122.1,341.5,122.1,341.6,122z"/>
	<path class="st9" d="M344.9,118.9c0,0.2,0,0.4,0,0.5c0,0.2-0.1,0.4-0.2,0.5c-0.1,0.2-0.2,0.3-0.3,0.5c-0.1,0.1-0.2,0.3-0.4,0.3
		l-1,0.6l0-1.1c0.7-0.4,1-0.6,1.1-0.7c0.1-0.1,0.1-0.3,0.1-0.6c0,0,0-0.1,0-0.1c0,0,0-0.1,0-0.1l0-0.1c0,0,0,0,0,0c0,0,0,0,0,0
		c0,0,0-0.1,0-0.2s0-0.1,0-0.2s0-0.1,0-0.2s0-0.1,0-0.1l0.7-0.4L344.9,118.9z M344.5,121.6c0,0.2,0,0.3-0.1,0.5
		c0,0.1-0.1,0.1-0.1,0.2c-0.1,0.1-0.1,0.1-0.2,0.2c-0.3,0.2-0.5,0.1-0.5-0.3c0-0.3,0.1-0.6,0.4-0.8
		C344.3,121.2,344.5,121.3,344.5,121.6z"/>
</g>
</svg>
