<svg xmlns="http://www.w3.org/2000/svg" width="120" height="34" viewBox="0 0 120 34"><g><g><g><path fill="#fff" d="M97.982 19.727h21.473a4.557 4.557 0 0 1-4.561 4.572H95.246c-2.386 0-4.28-1.97-4.28-4.29V5.024a4.558 4.558 0 0 1 4.56-4.572v16.882c0 1.336 1.053 2.392 2.456 2.392zm-9.473-4.01v2.603a5.967 5.967 0 0 1-5.964 5.98h-3.509a5.938 5.938 0 0 1-4.167-1.699 7.111 7.111 0 0 1-4.464 1.558H55.178v-4.502h15.437c1.334 0 2.456-1.126 2.456-2.463v-5.697h4.491v5.416a2.818 2.818 0 0 0 2.807 2.814h.842a2.818 2.818 0 0 0 2.807-2.814v-5.346h.421c2.246 0 4.07 1.829 4.07 4.15zM78.615 26.34a2.81 2.81 0 0 1 2.807 2.814 2.81 2.81 0 0 1-2.807 2.813 2.81 2.81 0 0 1-2.807-2.813 2.81 2.81 0 0 1 2.807-2.814zm5.684 0a2.81 2.81 0 0 1 2.807 2.814 2.81 2.81 0 0 1-2.807 2.813 2.81 2.81 0 0 1-2.807-2.813 2.81 2.81 0 0 1 2.807-2.814zM46.617 13.045a2.81 2.81 0 0 1 2.807 2.813 2.81 2.81 0 0 1-2.807 2.813 2.81 2.81 0 0 1-2.807-2.813 2.81 2.81 0 0 1 2.807-2.813zm5.684 0a2.81 2.81 0 0 1 2.806 2.813 2.81 2.81 0 0 1-2.806 2.813 2.81 2.81 0 0 1-2.807-2.813 2.81 2.81 0 0 1 2.807-2.813z"/></g><g><path fill="#fff" d="M39.052 17.128c0 1.343 1.119 2.475 2.448 2.475h12.85c1.88-.357 3.305-2.027 3.305-4.03 0-2.263-1.819-4.101-4.057-4.101h-9.72c.07-3.394 1.818-4.525 5.245-4.525h5.664c4.196 0 7.553 3.465 7.483 7.706v1.98c0 3.48-2.258 6.387-5.385 7.32v.174h-.703a7.62 7.62 0 0 1-1.465.141h-4.965a6.54 6.54 0 0 1-1.41-.14H41.71a7.056 7.056 0 0 1-4.93-1.992 7.056 7.056 0 0 1-4.931 1.991H24.35a14.838 14.838 0 0 1-1.804 4.242c-5.245 8.484-16.994 6.363-20.28.99-3.288-5.373-.91-11.807-.91-11.807l4.126.92s-1.399 5.868 1.679 8.553c3.356 2.9 11.12 2.687 12.658-4.03 1.119-4.806-1.818-8.766-1.818-8.766l4.126-2.615s2.3 3.358 2.612 7.989h7.318c1.33 0 2.448-1.132 2.448-2.475v-5.727h4.546zM4.504 11.614c1.545 0 2.797 1.266 2.797 2.827 0 1.562-1.252 2.829-2.797 2.829-1.545 0-2.797-1.267-2.797-2.829 0-1.561 1.252-2.827 2.797-2.827zm23.988 14.704c1.545 0 2.797 1.267 2.797 2.829 0 1.562-1.252 2.828-2.797 2.828-1.545 0-2.798-1.266-2.798-2.828 0-1.562 1.253-2.828 2.798-2.828zm5.664 0c1.545 0 2.798 1.267 2.798 2.829 0 1.562-1.253 2.828-2.798 2.828-1.544 0-2.797-1.266-2.797-2.828 0-1.562 1.253-2.828 2.797-2.828zm12.379 0c1.545 0 2.797 1.267 2.797 2.829 0 1.562-1.252 2.828-2.797 2.828-1.545 0-2.797-1.266-2.797-2.828 0-1.562 1.252-2.828 2.797-2.828zm5.665 0c1.545 0 2.797 1.267 2.797 2.829 0 1.562-1.252 2.828-2.797 2.828-1.545 0-2.798-1.266-2.798-2.828 0-1.562 1.253-2.828 2.798-2.828zm5.594 0c1.545 0 2.798 1.267 2.798 2.829 0 1.562-1.253 2.828-2.798 2.828-1.544 0-2.797-1.266-2.797-2.828 0-1.562 1.253-2.828 2.797-2.828zM2.686 5.11c-.35 0-.7 0-1.05-.07-.279-.071-.559-.142-.699-.213l.14-.99c.14.142.35.213.63.354.28.07.63.141.979.141.63 0 .909-.14.909-.494 0-.071 0-.212-.07-.283-.07-.071-.14-.141-.21-.141-.07-.071-.14-.142-.28-.142-.07-.07-.14-.07-.28-.142l-.699-.211-.28-.071c-.28-.142-.559-.283-.699-.424-.14-.142-.21-.354-.21-.637 0-.141.07-.353.14-.494.07-.142.14-.284.35-.424.14-.142.35-.214.56-.284.21-.07.489-.14.839-.14h.49c.14 0 .349.07.489.07s.28.07.42.14c.14.072.21.072.28.142l-.14.849c-.56-.283-1.05-.424-1.54-.424h-.349c-.14 0-.21.07-.28.07l-.21.213c-.07.07-.07.14-.07.212 0 .14 0 .212.07.282.07 0 .14.07.28.142.14 0 .28.07.49.14l.63.213.419.142c.07 0 .21.07.35.141.14.071.21.142.35.212.07.071.209.212.209.354.07.14.07.283.07.424 0 .141 0 .283-.07.424-.07.142-.14.283-.28.424a1.35 1.35 0 0 1-.63.354 4.17 4.17 0 0 1-1.048.141zm10.42-.141h-.979V.584h.98zm11.26-3.606h-1.47v3.677h-.978V1.362h-1.469V.584h3.917zm10.7 3.606h-3.427V.584h3.357v.778h-2.378v.919h1.818v.778h-1.818V4.19h2.448zm18.113.141c-.35 0-.7-.07-1.05-.141-.279-.142-.559-.283-.838-.495-.28-.212-.42-.424-.56-.707a1.975 1.975 0 0 1-.21-.919c0-.354.07-.637.21-.92.14-.282.28-.494.56-.706.21-.213.49-.353.839-.495.28-.142.63-.142 1.049-.142.56 0 1.049.07 1.468.284l-.07.777c-.489-.141-.979-.283-1.398-.283-.28 0-.49.07-.63.142-.21.07-.35.212-.49.282-.139.07-.209.283-.279.495-.07.212-.14.283-.14.495 0 .212 0 .424.07.637.07.212.14.353.28.494.14.142.28.212.49.283.21.07.42.142.629.142.42 0 .909-.071 1.399-.283l.07.777c-.35.213-.84.283-1.4.283zm12.308-.141V3.059H63.04v1.909h-.91V.584h.98v1.768h2.447V.584h.98v4.384zm9.791 0H74.3V.584h.98zm11.12 0l-2.378-3.04v3.04h-.909V.584h.91l2.237 2.899V.584h.98v4.384z"/></g></g></g></svg>