<svg xmlns="http://www.w3.org/2000/svg" width="156" height="143" viewBox="0 0 156 143"><g><g opacity=".1"><path fill="#0b2e36" d="M6.59 8.253H1.66A1.66 1.66 0 0 1 0 6.593V1.66C0 .743.743 0 1.66 0h4.93c.918 0 1.66.743 1.66 1.66v4.932a1.66 1.66 0 0 1-1.66 1.661zm36.938 0h-4.93a1.66 1.66 0 0 1-1.66-1.66V1.66c0-.917.743-1.66 1.66-1.66h4.93c.917 0 1.66.743 1.66 1.66v4.932a1.66 1.66 0 0 1-1.66 1.661zm36.937 0h-4.93a1.66 1.66 0 0 1-1.66-1.66V1.66c0-.917.743-1.66 1.66-1.66h4.93c.917 0 1.66.743 1.66 1.66v4.932a1.66 1.66 0 0 1-1.66 1.661zm36.938 0h-4.931a1.66 1.66 0 0 1-1.66-1.66V1.66c0-.917.743-1.66 1.66-1.66h4.93c.917 0 1.66.743 1.66 1.66v4.932a1.66 1.66 0 0 1-1.66 1.661zm36.937 0h-4.931a1.66 1.66 0 0 1-1.66-1.66V1.66c0-.917.743-1.66 1.66-1.66h4.93c.918 0 1.66.743 1.66 1.66v4.932a1.66 1.66 0 0 1-1.66 1.661zM6.59 53.17H1.66A1.66 1.66 0 0 1 0 51.508v-4.933c0-.917.743-1.66 1.66-1.66h4.93c.918 0 1.66.743 1.66 1.66v4.933a1.66 1.66 0 0 1-1.66 1.66zm36.938 0h-4.93a1.66 1.66 0 0 1-1.66-1.661v-4.933c0-.917.743-1.66 1.66-1.66h4.93c.917 0 1.66.743 1.66 1.66v4.933a1.66 1.66 0 0 1-1.66 1.66zm36.937 0h-4.93a1.66 1.66 0 0 1-1.66-1.661v-4.933c0-.917.743-1.66 1.66-1.66h4.93c.917 0 1.66.743 1.66 1.66v4.933a1.66 1.66 0 0 1-1.66 1.66zm36.938 0h-4.931a1.66 1.66 0 0 1-1.66-1.661v-4.933c0-.917.743-1.66 1.66-1.66h4.93c.917 0 1.66.743 1.66 1.66v4.933a1.66 1.66 0 0 1-1.66 1.66zm36.937 0h-4.931a1.66 1.66 0 0 1-1.66-1.661v-4.933c0-.917.743-1.66 1.66-1.66h4.93c.918 0 1.66.743 1.66 1.66v4.933a1.66 1.66 0 0 1-1.66 1.66zM6.59 98.083H1.66A1.66 1.66 0 0 1 0 96.423V91.49c0-.917.743-1.661 1.66-1.661h4.93c.918 0 1.66.744 1.66 1.66v4.933a1.66 1.66 0 0 1-1.66 1.66zm36.938 0h-4.93a1.66 1.66 0 0 1-1.66-1.66V91.49c0-.917.743-1.661 1.66-1.661h4.93c.917 0 1.66.744 1.66 1.66v4.933a1.66 1.66 0 0 1-1.66 1.66zm36.937 0h-4.93a1.66 1.66 0 0 1-1.66-1.66V91.49c0-.917.743-1.661 1.66-1.661h4.93c.917 0 1.66.744 1.66 1.66v4.933a1.66 1.66 0 0 1-1.66 1.66zm36.938 0h-4.931a1.66 1.66 0 0 1-1.66-1.66V91.49c0-.917.743-1.661 1.66-1.661h4.93c.917 0 1.66.744 1.66 1.66v4.933a1.66 1.66 0 0 1-1.66 1.66zm36.937 0h-4.931a1.66 1.66 0 0 1-1.66-1.66V91.49c0-.917.743-1.661 1.66-1.661h4.93c.918 0 1.66.744 1.66 1.66v4.933a1.66 1.66 0 0 1-1.66 1.66zM6.59 143H1.66A1.66 1.66 0 0 1 0 141.34v-4.933a1.66 1.66 0 0 1 1.66-1.661h4.93c.918 0 1.66.744 1.66 1.661v4.933a1.66 1.66 0 0 1-1.66 1.66zm36.938 0h-4.93a1.66 1.66 0 0 1-1.66-1.66v-4.933a1.66 1.66 0 0 1 1.66-1.661h4.93c.917 0 1.66.744 1.66 1.661v4.933a1.66 1.66 0 0 1-1.66 1.66zm36.937 0h-4.93a1.66 1.66 0 0 1-1.66-1.66v-4.933a1.66 1.66 0 0 1 1.66-1.661h4.93c.917 0 1.66.744 1.66 1.661v4.933a1.66 1.66 0 0 1-1.66 1.66zm36.938 0h-4.931a1.66 1.66 0 0 1-1.66-1.66v-4.933a1.66 1.66 0 0 1 1.66-1.661h4.93c.917 0 1.66.744 1.66 1.661v4.933a1.66 1.66 0 0 1-1.66 1.66zm36.937 0h-4.931a1.66 1.66 0 0 1-1.66-1.66v-4.933a1.66 1.66 0 0 1 1.66-1.661h4.93c.918 0 1.66.744 1.66 1.661v4.933a1.66 1.66 0 0 1-1.66 1.66z"/></g></g></svg>