<svg xmlns="http://www.w3.org/2000/svg" width="435.088" height="361.194" viewBox="0 0 435.088 361.194"><defs><style>.a{fill:#f5f5f5;}.b{fill:#06826a;}.c,.n{fill:#fff;}.d{fill:#ff3600;}.e,.r{opacity:0.2;}.f{fill:#ebebeb;}.g{fill:#e0e0e0;}.h{fill:#f0f0f0;}.i{fill:#455a64;}.j{fill:#263238;}.k{fill:#37474f;}.l,.q{opacity:0.1;}.m{fill:#fafafa;}.n{opacity:0.3;}.o{fill:#ffa8a7;}.p{fill:#f28f8f;}</style></defs><g transform="translate(-32.825 -62.906)"><path class="a" d="M96.5,390.8c85,44.4,222.8,44.4,307.7,0s85-116.4,0-160.8-222.8-44.4-307.7,0S11.6,346.4,96.5,390.8Z"/><path class="b" d="M71.3,320h3.6a87.414,87.414,0,0,0,3.2-16.8c.8-10.5-4.3-26.7-13.7-32.1s-14.4,1.3-11.3,7,13.7,22,13.9,36Z"/><path class="c" d="M70.5,320h1a72.482,72.482,0,0,0,0-20.8c-1.6-13.7-6.1-20-10.3-24.5a.495.495,0,1,0-.7.7h0c4.1,4.3,8.4,10.5,10,23.9A79.687,79.687,0,0,1,70.5,320Z"/><path class="d" d="M71.6,320c-1.8-8.7-10.2-19-18.1-20.8-9.1-2-13.6,2.8-12.3,7s8.5,6.1,15.6,9.4a23.539,23.539,0,0,1,6.4,4.4Z"/><path class="c" d="M68.3,320h1.1c-3.9-9.7-12.7-16.7-19.9-17.3a.458.458,0,0,0-.5.4h0a.458.458,0,0,0,.4.5h0C56.2,304.3,64.5,310.8,68.3,320Z"/><path class="b" d="M394.4,228.5l7.5,3.9.6-4.7c-3.7-10.5-.7-22.3,3.4-27.3s3.2-8.6,1.8-10.2-7-2.9-12.4,3.5-6.7,14.1-5.8,21.9A34.107,34.107,0,0,0,394.4,228.5Z"/><path class="e" d="M394.4,228.5l7.5,3.9.6-4.7c-3.7-10.5-.7-22.3,3.4-27.3s3.2-8.6,1.8-10.2-7-2.9-12.4,3.5-6.7,14.1-5.8,21.9A34.107,34.107,0,0,0,394.4,228.5Z"/><path class="c" d="M397.5,230.1l1.5.8v-.1c-2.1-2.5-4.9-14.9-3.7-22.1,1.4-8.9,6-14.8,9.9-17.2a.377.377,0,0,0,.1-.6h0a.377.377,0,0,0-.6-.1c-4,2.6-8.8,8.6-10.3,17.8C393.3,215.3,395.4,226,397.5,230.1Z"/><path class="d" d="M402.1,210.7c2.2,5.4,2.2,8-1.4,8.6-3.2.5-7.1,4.4-3.5,10.7l21.2,11.1a8.769,8.769,0,0,1,3-6.2c3.5-3.5,6.7-6.1,6.2-10s-3.9-7.6-4.4-11,1.2-5.3,4.8-9.1,7-9.7,2.1-12.4-10.5,1.9-12.9,5-4.5,4.4-9.1,4.2S399.9,205.3,402.1,210.7Z"/><path class="c" d="M408.1,235.7c-.1-16.5,11.7-35.8,18.3-39.7a.43.43,0,1,0-.5-.7c-6.7,4-18.6,23.3-18.7,40Z"/><path class="c" d="M411.2,218.5c-.2,0-.4,0-.5-.2a77.486,77.486,0,0,1-4.8-11.1.412.412,0,1,1,.8-.2,81.371,81.371,0,0,0,4.7,10.9.481.481,0,0,1-.2.6Z"/><path class="c" d="M408.4,228.6c-.2,0-.3,0-.4-.2s-.1-.5.1-.6a22.776,22.776,0,0,1,14.8-4,.453.453,0,1,1-.1.9h0a22.458,22.458,0,0,0-14.2,3.8C408.5,228.6,408.5,228.6,408.4,228.6Z"/><path class="a" d="M282.9,128l-24.4-14.1L234.2,128l24.3,14Z"/><path class="f" d="M258.5,170.2l24.4-14.1V128l-24.4,14Z"/><path class="c" d="M263.2,160.9a.6.6,0,0,1-.4-.1,1.231,1.231,0,0,1-.5-1v-3h0v-.2h.1l2.3-1.4v3.3a2.656,2.656,0,0,1-1.1,2.2C263.6,160.8,263.4,160.8,263.2,160.9Zm-.4-3.9v2.8a.908.908,0,0,0,.3.7c.2.1.4.1.5-.1a2.276,2.276,0,0,0,1-1.9v-.2h-.9l-.2-1.2Zm1.2.9h.5v-2.1l-1.4.8.7.1Z"/><path class="c" d="M263.6,163.2a.215.215,0,0,1-.2-.2h0v-2.5a.215.215,0,0,1,.2-.2h0a.215.215,0,0,1,.2.2h0V163c0,.1,0,.2-.2.2Z"/><path class="c" d="M262.5,163.9c-.1,0-.1,0-.2-.1a.138.138,0,0,1,0-.2h0l2.2-1.3c.1-.1.2,0,.3.1h0a.367.367,0,0,1-.1.3l-2.2,1.2Z"/><path class="c" d="M270.3,159.5h-.2a.758.758,0,0,1-.2-.4v-.5a.215.215,0,0,1,.2-.2h0a.215.215,0,0,1,.2.2h0v.5h.1a1.234,1.234,0,0,0,.4-.8V155a.215.215,0,0,1,.2-.2h0a.215.215,0,0,1,.2.2v3.3a1.656,1.656,0,0,1-.5,1.2Z"/><path class="c" d="M268.3,156.6v-.3a5.561,5.561,0,0,1,2.4-4.2,1.485,1.485,0,0,1,2.2.2,1.517,1.517,0,0,1,.3,1.3v.1Zm3.5-4.4a1.4,1.4,0,0,0-.9.3,5.1,5.1,0,0,0-2.2,3.5l4.2-2.4a1.426,1.426,0,0,0-.6-1.2c-.1-.2-.3-.2-.5-.2Z"/><path class="c" d="M277,155.7a.215.215,0,0,1-.2-.2v-6.4a.2.2,0,0,1,.4,0v6.4A.215.215,0,0,1,277,155.7Z"/><path class="c" d="M276.5,150.6h0a.2.2,0,0,1-.2-.2h0l.7-1.5.7.9a.212.212,0,0,1-.3.3h0l-.4-.4-.4,1C276.6,150.6,276.6,150.6,276.5,150.6Z"/><path class="c" d="M278.8,154.7a.215.215,0,0,1-.2-.2v-6.4c0-.1,0-.2.1-.2s.2,0,.2.1v6.5c.1.1,0,.2-.1.2Z"/><path class="c" d="M278.2,149.6h0a.2.2,0,0,1-.2-.2h0l.7-1.5.7.9a.212.212,0,0,1-.3.3l-.4-.4-.4,1C278.4,149.6,278.3,149.6,278.2,149.6Z"/><path class="g" d="M258.5,170.2l-24.4-14.1.1-28.1,24.3,14Z"/><path class="c" d="M247.7,135.8,272,121.7l-2.7-1.6-24.4,14.1Z"/><path class="d" d="M237.9,144.1l8.7,5a3.759,3.759,0,0,1,1.7,3v5.4c0,1.1-.8,1.6-1.7,1l-8.7-5a3.759,3.759,0,0,1-1.7-3v-5.4C236.1,144,236.9,143.6,237.9,144.1Z"/><path class="d" d="M237.2,145.4l.3.2v6l-.3-.2Z"/><path class="d" d="M238.5,146.2l.6.4v5.9l-.6-.3Z"/><path class="d" d="M239.9,147l.3.2v6l-.3-.2Z"/><path class="d" d="M240.9,147.6l.7.4v6l-.7-.4Z"/><path class="d" d="M242.6,148.6l.3.2v5.9l-.3-.2Z"/><path class="d" d="M243.6,149.1l.7.4v6l-.8-.4Z"/><path class="d" d="M245.3,150.1l.3.2v6l-.3-.2Z"/><path class="d" d="M246,150.6l.2.1v5.9l-.2-.1Z"/><path class="d" d="M244.7,149.8l.1.1v6l-.1-.1Z"/><path class="d" d="M241.9,148.2l.2.1v6l-.2-.1Z"/><path class="d" d="M240.4,147.4h.2v6l-.2-.1Z"/><path class="d" d="M239.4,146.8l.2.1v5.9l-.2-.1Z"/><path class="d" d="M237.9,145.9l.2.1v6l-.2-.1Z"/><path class="d" d="M246.6,150.9l.3.2v6l-.3-.2Z"/><path class="a" d="M250.4,123.3,222,106.9l-28.5,16.4L222,139.7Z"/><path class="c" d="M209.8,132.7l28.4-16.4-2.8-1.6L207,131.1Z"/><path class="f" d="M222,191.3l28.4-16.4V123.3L222,139.7Z"/><path class="c" d="M226.7,182a.6.6,0,0,1-.4-.1,1.231,1.231,0,0,1-.5-1v-3h0v-.2h.2l2.3-1.4v3.3a2.656,2.656,0,0,1-1.1,2.2A1.69,1.69,0,0,1,226.7,182Zm-.5-3.9v2.8a.908.908,0,0,0,.3.7c.2.1.4.1.5-.1a2.276,2.276,0,0,0,1-1.9v-.2h-.9l-.2-1.2Zm1.2,1h.6V177l-1.4.8.7.1Z"/><path class="c" d="M227.1,184.3a.215.215,0,0,1-.2-.2h0v-2.5a.215.215,0,0,1,.2-.2h0a.215.215,0,0,1,.2.2v2.5C227.3,184.3,227.2,184.3,227.1,184.3Z"/><path class="c" d="M226,185c-.1,0-.1,0-.2-.1a.367.367,0,0,1,.1-.3l2.2-1.3c.1-.1.2,0,.3.1h0c.1.1,0,.2-.1.2h0L226,185Z"/><path class="c" d="M233.8,180.6c-.1,0-.1,0-.2-.1a.758.758,0,0,1-.2-.4v-.5a.215.215,0,0,1,.2-.2h0a.215.215,0,0,1,.2.2v.6h.1a1.268,1.268,0,0,0,.4-.9V176a.215.215,0,0,1,.2-.2h0a.215.215,0,0,1,.2.2v3.3a1.656,1.656,0,0,1-.5,1.2A1.577,1.577,0,0,1,233.8,180.6Z"/><path class="c" d="M231.8,177.7v-.3a5.216,5.216,0,0,1,2.4-4.1,1.485,1.485,0,0,1,2.2.2,1.517,1.517,0,0,1,.3,1.3v.1Zm3.5-4.4a1.4,1.4,0,0,0-.9.3,5.1,5.1,0,0,0-2.2,3.5l4.2-2.4a1.425,1.425,0,0,0-.6-1.2.551.551,0,0,0-.5-.2Z"/><path class="c" d="M240.5,176.8a.215.215,0,0,1-.2-.2h0v-6.4a.2.2,0,1,1,.4,0v6.4a.215.215,0,0,1-.2.2Z"/><path class="c" d="M239.9,171.7h0c-.2,0-.2-.1-.2-.2h0l.7-1.5.7.9a.212.212,0,0,1-.3.3l-.4-.4-.4,1C240.1,171.7,240,171.7,239.9,171.7Z"/><path class="c" d="M242.2,175.8a.215.215,0,0,1-.2-.2v-6.4a.215.215,0,0,1,.2-.2h0a.215.215,0,0,1,.2.2h0v6.4a.215.215,0,0,1-.2.2Z"/><path class="c" d="M241.7,170.7h0c-.2,0-.2-.2-.2-.3l.7-1.5.8.9a.212.212,0,1,1-.3.3h0l-.4-.4-.4,1Z"/><path class="g" d="M222,191.3l-28.5-16.4V123.3L222,139.7Z"/><path class="a" d="M199.3,164.1l8.7,5a3.759,3.759,0,0,1,1.7,3v5.4c0,1.1-.8,1.6-1.7,1l-8.7-5a3.759,3.759,0,0,1-1.7-3v-5.4C197.6,164,198.4,163.6,199.3,164.1Z"/><path class="g" d="M198.6,165.5l.4.2v6l-.4-.2Z"/><path class="g" d="M200,166.3l.6.3v6l-.6-.3Z"/><path class="g" d="M201.3,167.1l.4.1v6l-.4-.2Z"/><path class="g" d="M202.4,167.6l.6.4v6l-.6-.4Z"/><path class="g" d="M204,168.6l.4.2v6l-.4-.2Z"/><path class="g" d="M205,169.2l.7.4v6l-.7-.5Z"/><path class="g" d="M206.7,170.2l.4.2v5.9l-.4-.2Z"/><path class="g" d="M207.5,170.6l.2.1v6l-.2-.1Z"/><path class="g" d="M206.1,169.8l.2.1v6l-.2-.1Z"/><path class="g" d="M203.4,168.3h.2v6l-.2-.1Z"/><path class="g" d="M201.9,167.4l.2.1v6l-.2-.1Z"/><path class="g" d="M200.8,166.8l.2.1v6l-.2-.1Z"/><path class="g" d="M199.4,165.9l.2.1v6l-.2-.1Z"/><path class="g" d="M208.1,170.9l.3.2v6l-.3-.2Z"/><path class="h" d="M207,137.7l2.8,1.6v-6.6l-2.8-1.6Z"/><path class="a" d="M165.1,177.2l-20.3-11.7-28.5,16.4,20.4,11.7Z"/><path class="f" d="M136.7,240.5l28.4-16.4V177.2l-28.4,16.4Z"/><path class="c" d="M141.4,231.2a.6.6,0,0,1-.4-.1,1.231,1.231,0,0,1-.5-1v-3h0v-.2h.1l2.3-1.4v3.3a2.656,2.656,0,0,1-1.1,2.2A.758.758,0,0,1,141.4,231.2Zm-.5-3.9v2.8a.908.908,0,0,0,.3.7.44.44,0,0,0,.5-.1,2.276,2.276,0,0,0,1-1.9v-.2h-.9l-.2-1.2Zm1.2,1h.5v-2.1l-1.4.8.7.1Z"/><path class="c" d="M141.8,233.6a.215.215,0,0,1-.2-.2h0v-2.5a.215.215,0,0,1,.2-.2h0a.215.215,0,0,1,.2.2v2.5A.215.215,0,0,1,141.8,233.6Z"/><path class="c" d="M140.7,234.2c-.1,0-.1,0-.2-.1s0-.2,0-.3h0l2.2-1.3c.1-.1.2,0,.3.1h0c.1.1,0,.2-.1.2h0l-2.2,1.4Z"/><path class="c" d="M148.4,229.9c-.1,0-.1,0-.2-.1a.758.758,0,0,1-.2-.4v-.5a.2.2,0,1,1,.4,0h0v.6h.1a1.268,1.268,0,0,0,.4-.9v-3.3c0-.1,0-.2.1-.2s.2,0,.2.1v3.4a1.656,1.656,0,0,1-.5,1.2A.367.367,0,0,1,148.4,229.9Z"/><path class="c" d="M146.5,227v-.3a5.216,5.216,0,0,1,2.4-4.1,1.485,1.485,0,0,1,2.2.2,2.01,2.01,0,0,1,.4,1.3v.1Zm3.5-4.4a1.4,1.4,0,0,0-.9.3,5.1,5.1,0,0,0-2.2,3.5l4.2-2.4a1.425,1.425,0,0,0-.6-1.2c-.2-.2-.3-.3-.5-.2Z"/><path class="c" d="M155.2,226.1a.215.215,0,0,1-.2-.2h0v-6.4a.2.2,0,0,1,.4,0v6.4a.215.215,0,0,1-.2.2Z"/><path class="c" d="M154.6,221h0c-.2,0-.2-.1-.2-.2h0l.7-1.5.7.9a.212.212,0,0,1-.3.3l-.4-.4-.4,1C154.8,221,154.7,221,154.6,221Z"/><path class="c" d="M156.9,225.1a.215.215,0,0,1-.2-.2v-6.4a.215.215,0,0,1,.2-.2h0a.215.215,0,0,1,.2.2h0v6.4a.215.215,0,0,1-.2.2Z"/><path class="c" d="M156.4,220h0c-.2,0-.2-.1-.2-.2h0l.7-1.5.7.9a.212.212,0,1,1-.3.3h0l-.4-.4-.4,1A.1.1,0,0,0,156.4,220Z"/><path class="g" d="M136.7,240.5l-20.4-11.7V181.9l20.4,11.7Z"/><path class="a" d="M125.8,194l2.7,1.6v-6.7l-2.7-1.5Z"/><path class="c" d="M128.5,188.9,157,172.5l-2.8-1.6-28.4,16.5Z"/><path class="a" d="M128.5,217.1,92,196,55.4,217.1,92,238.2Z"/><path class="f" d="M92,266.3l36.5-21.1V217.1L92,238.2Z"/><path class="c" d="M96.7,257a.6.6,0,0,1-.4-.1,1.231,1.231,0,0,1-.5-1v-3h0v-.2H96l2.3-1.4v3.3a2.509,2.509,0,0,1-1.2,2.2A.52.52,0,0,1,96.7,257Zm-.5-3.9v2.8a.908.908,0,0,0,.3.7.446.446,0,0,0,.5,0,2.276,2.276,0,0,0,1-1.9v-.3h-.9l-.2-1.2Zm1.2,1H98V252l-1.4.8.7.1Z"/><path class="c" d="M97.1,259.4a.215.215,0,0,1-.2-.2v-2.5c0-.1,0-.2.1-.2s.2,0,.2.1v2.6c.1.1,0,.2-.1.2Z"/><path class="c" d="M96,260a.215.215,0,0,1-.2-.2c0-.1,0-.1.1-.1l2.2-1.3a.138.138,0,0,1,.2,0h0c.1.1,0,.2,0,.3h0L96,260Z"/><path class="c" d="M103.8,255.7h-.2c-.2-.1-.2-.3-.2-.5v-.5a.2.2,0,0,1,.4,0v.6h.1a.923.923,0,0,0,.3-.9v-3.3a.2.2,0,1,1,.4,0h0v3.3a1.656,1.656,0,0,1-.5,1.2A.774.774,0,0,1,103.8,255.7Z"/><path class="c" d="M101.8,252.8v-.3a5.216,5.216,0,0,1,2.4-4.1,1.485,1.485,0,0,1,2.2.2,2.01,2.01,0,0,1,.4,1.3v.1Zm3.5-4.5a1.4,1.4,0,0,0-.9.3,5.1,5.1,0,0,0-2.2,3.5l4.2-2.4a1.425,1.425,0,0,0-.6-1.2A.764.764,0,0,0,105.3,248.3Z"/><path class="c" d="M110.5,251.9a.215.215,0,0,1-.2-.2h0v-6.4c0-.1,0-.2.1-.2s.2,0,.2.1v6.5c.1.1,0,.2-.1.2Z"/><path class="c" d="M110,246.8h0c-.2,0-.2-.1-.2-.2h0l.7-1.5.8.9a.212.212,0,1,1-.3.3l-.3-.4-.4,1C110.1,246.7,110.1,246.8,110,246.8Z"/><path class="c" d="M112.2,250.9a.215.215,0,0,1-.2-.2h0v-6.4a.2.2,0,0,1,.4,0v6.4A.215.215,0,0,1,112.2,250.9Z"/><path class="c" d="M111.7,245.8h0c-.2,0-.2-.1-.2-.2h0l.7-1.6.7.9a.188.188,0,0,1,0,.3h0a.187.187,0,0,1-.3,0h0l-.4-.4-.4,1Z"/><path class="g" d="M92,266.3,55.4,245.2V217.1L92,238.2Z"/><path class="a" d="M72.3,233.5l2.8,1.6v-6.7l-2.8-1.5Z"/><path class="c" d="M75.1,228.4l36.5-21.1-2.7-1.6L72.3,226.9Z"/><path class="a" d="M61.2,234.5l8.7,5a3.759,3.759,0,0,1,1.7,3v5.4c0,1.1-.8,1.6-1.7,1l-8.7-5a3.759,3.759,0,0,1-1.7-3v-5.4C59.5,234.4,60.3,234,61.2,234.5Z"/><path class="g" d="M60.5,235.9l.4.1v6l-.4-.2Z"/><path class="g" d="M61.9,236.6l.6.4v5.9l-.6-.3Z"/><path class="g" d="M63.2,237.4l.4.2v6l-.4-.2Z"/><path class="g" d="M64.3,238l.6.4v6l-.6-.4Z"/><path class="g" d="M65.9,239l.4.2v5.9l-.4-.2Z"/><path class="g" d="M66.9,239.5l.7.4v6l-.7-.4Z"/><path class="g" d="M68.6,240.5l.4.2v6l-.4-.2Z"/><path class="g" d="M69.4,241l.2.1V247l-.2-.1Z"/><path class="g" d="M68,240.2l.2.1v6l-.2-.1Z"/><path class="g" d="M65.3,238.6l.2.1v6l-.2-.1Z"/><path class="g" d="M63.8,237.8l.2.1v5.9l-.2-.1Z"/><path class="g" d="M62.7,237.2l.2.1v5.9l-.2-.1Z"/><path class="g" d="M61.3,236.3l.2.1v6l-.2-.1Z"/><path class="g" d="M70,241.3l.3.2v6l-.3-.2Z"/><path class="a" d="M120.4,160.8,92,144.4,63.5,160.8,92,177.2Z"/><path class="f" d="M92,233.5l28.4-16.4V160.8L92,177.2Z"/><path class="c" d="M96.7,224.2a.756.756,0,0,1-.4-.1,1.231,1.231,0,0,1-.5-1v-3h0v-.2H96l2.3-1.4v3.3a2.656,2.656,0,0,1-1.1,2.2C97,224.1,96.9,224.2,96.7,224.2Zm-.5-3.9v2.8a.908.908,0,0,0,.3.7c.2.1.4.1.5-.1a2.276,2.276,0,0,0,1-1.9v-.2h-.9l-.2-1.2Zm1.2.9H98v-2.1l-1.4.8.7.1Z"/><path class="c" d="M97.1,226.6a.215.215,0,0,1-.2-.2h0v-2.5a.215.215,0,0,1,.2-.2h0a.215.215,0,0,1,.2.2h0v2.5c0,.1-.1.1-.2.2Z"/><path class="c" d="M96,227.2a.215.215,0,0,1-.2-.2c0-.1,0-.1.1-.1l2.2-1.3c.1-.1.2,0,.3.1s0,.2-.1.3l-2.2,1.3A.1.1,0,0,0,96,227.2Z"/><path class="c" d="M103.8,222.9c-.1,0-.1,0-.2-.1a.4.4,0,0,1-.2-.4v-.5a.2.2,0,1,1,.4,0v.6h.1a.829.829,0,0,0,.3-.8v-3.3a.215.215,0,0,1,.2-.2h0a.215.215,0,0,1,.2.2h0v3.3a1.656,1.656,0,0,1-.5,1.2Z"/><path class="c" d="M101.8,220v-.3a5.561,5.561,0,0,1,2.4-4.2,1.485,1.485,0,0,1,2.2.2,1.517,1.517,0,0,1,.3,1.3v.1Zm3.5-4.4a1.4,1.4,0,0,0-.9.3,5.1,5.1,0,0,0-2.2,3.5l4.2-2.4a1.425,1.425,0,0,0-.6-1.2.365.365,0,0,0-.5-.2Z"/><path class="c" d="M110.5,219a.215.215,0,0,1-.2-.2h0v-6.4c0-.1,0-.2.1-.2s.2,0,.2.1v6.5C110.7,218.9,110.6,219,110.5,219Z"/><path class="c" d="M110,213.9h0c-.2,0-.2-.1-.2-.2h0l.7-1.5.8.9a.212.212,0,1,1-.3.3l-.3-.4-.4,1C110.1,213.9,110.1,213.9,110,213.9Z"/><path class="c" d="M112.2,218a.215.215,0,0,1-.2-.2v-6.4a.2.2,0,1,1,.4,0v6.4A.215.215,0,0,1,112.2,218Z"/><path class="c" d="M111.7,212.9h0a.2.2,0,0,1-.2-.2h0l.7-1.5.7.9a.188.188,0,0,1,0,.3h0a.187.187,0,0,1-.3,0l-.4-.4-.4,1C111.8,212.9,111.8,212.9,111.7,212.9Z"/><path class="g" d="M92,233.5,63.5,217.1V160.8L92,177.2Z"/><path class="a" d="M77,175.3l2.8,1.5v-6.6L77,168.6Z"/><path class="c" d="M79.8,170.2l28.4-16.4-2.7-1.6L77,168.6Z"/><path class="a" d="M69.3,206.4l8.7,5a3.759,3.759,0,0,1,1.7,3v5.4c0,1.1-.8,1.6-1.7,1l-8.7-5a3.759,3.759,0,0,1-1.7-3v-5.4C67.6,206.3,68.4,205.8,69.3,206.4Z"/><path class="g" d="M68.7,207.7l.3.2v6l-.3-.2Z"/><path class="g" d="M70,208.5l.6.3v6l-.6-.3Z"/><path class="g" d="M71.3,209.3l.4.2v5.9l-.4-.2Z"/><path class="g" d="M72.4,209.8l.6.4v6l-.6-.4Z"/><path class="g" d="M74.1,210.8l.3.2v6l-.3-.2Z"/><path class="g" d="M75,211.4l.7.4v6l-.7-.4Z"/><path class="g" d="M76.8,212.4l.3.2v6l-.3-.2Z"/><path class="g" d="M77.5,212.8l.2.1v6l-.2-.1Z"/><path class="g" d="M76.1,212.1h.2v6l-.2-.1Z"/><path class="g" d="M73.4,210.5l.2.1v5.9l-.2-.1Z"/><path class="g" d="M71.9,209.6l.2.1v6l-.2-.1Z"/><path class="g" d="M70.9,209l.1.1v6l-.1-.1Z"/><path class="g" d="M69.4,208.1l.2.1v6l-.2-.1Z"/><path class="g" d="M78.1,213.2l.3.2v5.9l-.3-.2Z"/><path class="i" d="M63.8,315.8l109.1,63a9.535,9.535,0,0,0,8.7,0l239.1-138c2.4-1.4,2.4-3.6,0-5l-109.1-63a9.535,9.535,0,0,0-8.7,0L63.8,310.8C61.4,312.1,61.4,314.4,63.8,315.8Z"/><path class="j" d="M122.8,345a13.344,13.344,0,0,0,12,0c3.3-1.9,3.3-5,0-7a13.344,13.344,0,0,0-12,0C119.5,340,119.5,343.1,122.8,345Z"/><path class="k" d="M175,378.8l-109.1-63c-2.1-1.2-2.4-3.2-.7-4.5a9.767,9.767,0,0,0-3.7,7v4.1a9.925,9.925,0,0,0,4.3,7.5l109.1,63a9.071,9.071,0,0,0,4.3,1v-14A10.485,10.485,0,0,1,175,378.8Z"/><path class="j" d="M420.7,254.8a9.376,9.376,0,0,0,4.3-7.5v-4.1a9.584,9.584,0,0,0-3.7-7c1.7,1.4,1.5,3.3-.7,4.5l-239.1,138a9.071,9.071,0,0,1-4.3,1v14.1a9.071,9.071,0,0,0,4.3-1Z"/><path class="c" d="M190.9,365.7,86.5,305.4a1.6,1.6,0,0,1,0-3L288.4,185.8a5.933,5.933,0,0,1,5.2,0l104.5,60.3a1.6,1.6,0,0,1,0,3l-202,116.6A5.932,5.932,0,0,1,190.9,365.7Z"/><path class="d" d="M148.8,332l12.2-7-4-2.4-12.2,7.1Z"/><path class="d" d="M295.1,247.6l12.2-7.1-4.1-2.3-12.2,7Z"/><path class="d" d="M319.5,233.5l12.1-7-4-2.4-12.2,7.1Z"/><path class="j" d="M358.6,208.9a3.186,3.186,0,0,0,3,0,1.02,1.02,0,0,0,.6-1.2.9.9,0,0,0-.6-.6,3.186,3.186,0,0,0-3,0,1.02,1.02,0,0,0-.6,1.2A.9.9,0,0,0,358.6,208.9Z"/><path class="j" d="M363.4,222.7a6.577,6.577,0,0,0,6.1,0c1.7-1,1.7-2.6,0-3.5a6.577,6.577,0,0,0-6.1,0C361.8,220.1,361.8,221.7,363.4,222.7Z"/><path class="j" d="M359.1,216.6c1.1-.6,1.1-1.7-.1-2.4l-20-11.6a4.771,4.771,0,0,0-4.2-.1c-1.1.6-1.1,1.7.1,2.4L355,216.5A4.9,4.9,0,0,0,359.1,216.6Z"/><path class="d" d="M325,169.6l.7-.4a18.61,18.61,0,0,0-.7,5.2v2.4c0,8.8,10.5,31.1,14.4,39.1.4.8-4.9,6.5-4.9,6.5l6.3-3.6s15.8-13,15.8-23.7v-2.4c0-10.7-7.1-23.5-15.8-28.5-4.4-2.5-8.4-2.6-11.2-.7h0l-6,3.4Zm7.9,8.2c0-5,3.5-7.1,7.9-4.6-.4,3.2,5.5,13.3,7.9,13.7,0,5-3.5,7.1-7.9,4.6a17.423,17.423,0,0,1-7.9-13.7Z"/><path class="d" d="M318.5,180.8c.2,10.7,16.5,41.6,16.5,41.6s15.6-13.2,15.4-23.9v-2.4c-.2-10.7-7.5-23.4-16.3-28.3s-15.8-.2-15.6,10.6Zm7.9.8c-.1-5,3.4-7.1,7.8-4.7a17.545,17.545,0,0,1,8.1,13.5c.1,5-3.4,7.1-7.8,4.7A17.384,17.384,0,0,1,326.4,181.6Z"/><path class="l" d="M318.5,180.8c.2,10.7,16.5,41.6,16.5,41.6s15.6-13.2,15.4-23.9v-2.4c-.2-10.7-7.5-23.4-16.3-28.3s-15.8-.2-15.6,10.6Zm7.9.8c-.1-5,3.4-7.1,7.8-4.7a17.545,17.545,0,0,1,8.1,13.5c.1,5-3.4,7.1-7.8,4.7A17.384,17.384,0,0,1,326.4,181.6Z"/><path class="h" d="M166,323.8c10.1,5.8,33.8,1.6,52.9-9.5L271.4,284c19.1-11,26.4-24.7,16.3-30.5s-33.9-1.6-53,9.5l-52.4,30.3C163.2,304.3,155.9,318,166,323.8Z"/><path class="k" d="M319,69.5h0l8.7-5h.1c5.5-2.8,12.7-2,20.6,3.1,15.8,10.1,27.8,33.5,26.9,52.3-.5,9.3-4,15.7-9.5,18.6h0l-8.7,5H357c-5.5,2.8-12.7,2-20.6-3.1-15.8-10.1-27.8-33.5-26.9-52.3C310,78.7,313.6,72.3,319,69.5Z"/><path class="j" d="M357.5,143.2l8.3-4.8h.1c5.4-2.8,9-9.2,9.5-18.6.4-8.3-1.8-17.6-5.7-26.2l-8.7,5c3.9,8.6,6.1,17.9,5.7,26.2C366.2,133.9,362.7,140.3,357.5,143.2Z"/><path class="i" d="M336.4,140.3c-15.8-10.1-27.8-33.5-26.9-52.3s14.4-25.7,30.2-15.5,27.8,33.5,26.9,52.3S352.2,150.5,336.4,140.3Z"/><path class="m" d="M349.6,139c9.3.4,10.8-10,11-14.5.8-16.5-10.3-38-24.1-46.9a21.362,21.362,0,0,0-10-3.7c-9.3-.4-10.8,10-11,14.5-.8,16.5,10.3,38,24.1,47a21.225,21.225,0,0,0,10,3.6Z"/><path class="k" d="M336.3,109.5a.367.367,0,0,0,.3-.1.993.993,0,0,0,.7-1V84.6a1,1,0,0,0-2,0v20.9L324.2,91.2a1,1,0,0,0-1.6,1.2l13,16.6A.64.64,0,0,0,336.3,109.5Z"/><path class="d" d="M342,127.2h.1a.55.55,0,0,0,.3-.5l-5.6-18.9c-.1-.2-.3-.4-.5-.3s-.4.3-.3.5l5.6,18.9C341.7,127,341.8,127.2,342,127.2Z"/><path class="d" d="M336.6,103.7c-1.9-1.2-3.5-.4-3.5,1.8a7.494,7.494,0,0,0,3.2,6.1c1.9,1.2,3.4.4,3.5-1.8A8.414,8.414,0,0,0,336.6,103.7Z"/><path class="b" d="M173.2,317.9l12.2-7-4.1-2.3-12.1,7Z"/><path class="b" d="M197.6,303.9l12.2-7.1-4.1-2.3-12.2,7Z"/><path class="j" d="M192.6,301c0,5.9-4.1,13-9.2,16-2.7,1.6-5.1,1.6-6.8.4h0a6.013,6.013,0,0,1-2.3-4.4c.3-.2.7-.3,1-.5,5.1-2.9,9.2-10.1,9.2-16a5.7,5.7,0,0,0-.1-1.3,6.677,6.677,0,0,1,5-.4C191.4,295.6,192.6,297.8,192.6,301Z"/><path class="k" d="M193.4,288.9l-.2-.1c-2.6-1.4-6-1.1-9.9,1.1-7.9,4.5-14.2,15.5-14.2,24.6,0,4.6,1.6,7.8,4.2,9.2s6.1,1.2,10-1c7.9-4.5,14.2-15.6,14.2-24.6C197.6,293.6,196,290.4,193.4,288.9Zm-10,28.1c-2.7,1.6-5.2,1.6-6.8.4-1.5-1-2.4-3-2.4-5.8,0-5.9,4.1-13,9.2-16,2.3-1.3,4.4-1.6,6-.9,1.9.8,3.2,3,3.2,6.2,0,6-4.1,13.1-9.2,16.1Z"/><path class="b" d="M189.9,295l-.1-.1c-1.7-.9-3.9-.7-6.4.7-5.1,2.9-9.2,10.1-9.2,16,0,3,1,5,2.7,6s4,.8,6.5-.7c5.1-2.9,9.2-10.1,9.2-16C192.6,298.1,191.6,296,189.9,295Zm-6.5,19.9c-2.2,1.3-4.1,1.3-5.5.3-1.2-.8-1.9-2.4-1.9-4.6a16.229,16.229,0,0,1,7.4-12.8,5.326,5.326,0,0,1,4.9-.7c1.6.7,2.5,2.4,2.5,5a16.5,16.5,0,0,1-7.4,12.8Z"/><path class="b" d="M222,289.8l12.1-7-4-2.4-12.2,7.1Z"/><path class="b" d="M246.3,275.7l12.2-7-4-2.4-12.2,7.1Z"/><path class="b" d="M270.7,261.6l12.2-7-4.1-2.3-12.2,7Z"/><path class="b" d="M210.1,196.2a1.075,1.075,0,0,1,1.4-.2.909.909,0,0,1,.4.8,3.3,3.3,0,0,1-1.1,3.1c-.8.7-1.6.4-1.8-.6A3.384,3.384,0,0,1,210.1,196.2Z"/><path class="b" d="M219.4,200.6l-8.1-4.7-1.8,4.3,8.2,4.8Z"/><path class="b" d="M218.2,200.9c.8-.7,1.6-.4,1.8.6a3.856,3.856,0,0,1-1.1,3.1c-.8.7-1.6.4-1.8-.6A3.654,3.654,0,0,1,218.2,200.9Z"/><path class="i" d="M280.8,240.4v1.8c-1.6-.7-3.7-.5-6,.9-5.1,2.9-9.2,10.1-9.2,16,0,2.7.9,4.7,2.4,5.8a5.669,5.669,0,0,1-1.3.8l-.5.2-1.4,5.3-8.2-4.5c-2.6-1.5-4.2-4.7-4.2-9.2,0-9.1,6.4-20.1,14.2-24.6,3.9-2.2,7.4-2.5,10-1h0l8,4.5.2.1Z"/><path class="k" d="M284.8,236.3l-.2-.1c-2.6-1.4-6-1.1-9.9,1.1-7.9,4.5-14.2,15.6-14.2,24.6,0,4.6,1.6,7.8,4.2,9.2s6.1,1.2,10-1c7.9-4.5,14.2-15.6,14.2-24.6C289,240.9,287.4,237.7,284.8,236.3Zm-10,28c-2.7,1.6-5.2,1.6-6.8.4-1.5-1-2.4-3-2.4-5.8,0-5.9,4.1-13,9.2-16,2.3-1.3,4.4-1.6,6-.9,1.9.8,3.2,3,3.2,6.2,0,6-4.1,13.2-9.2,16.1Z"/><path class="j" d="M284,248.4c0,5.9-4.1,13-9.2,16-2.7,1.6-5.1,1.6-6.8.4h0a6.013,6.013,0,0,1-2.3-4.4c.3-.2.7-.3,1-.5,5.1-2.9,9.2-10.1,9.2-16a5.7,5.7,0,0,0-.1-1.3,6.677,6.677,0,0,1,5-.4C282.8,243,284,245.1,284,248.4Z"/><path class="b" d="M281.3,242.4l-.1-.1c-1.7-.9-3.9-.7-6.4.7-5.1,2.9-9.2,10.1-9.2,16,0,3,1,5,2.7,6s4,.8,6.5-.7c5.1-2.9,9.2-10.1,9.2-16C284,245.4,283,243.3,281.3,242.4Zm-6.5,19.8c-2.2,1.3-4.1,1.3-5.5.4-1.2-.8-1.9-2.4-1.9-4.6a16.229,16.229,0,0,1,7.4-12.8c1.9-1.1,3.6-1.3,4.9-.7,1.6.7,2.5,2.4,2.5,5A16.473,16.473,0,0,1,274.8,262.2Z"/><path class="b" d="M266.6,251.3l23-13.3c2.7-1.6-6-10.6-12.5-11.2a25.272,25.272,0,0,0-10.6,1s4.9,6.3,4.1,9.9S266.6,251.3,266.6,251.3Z"/><path class="b" d="M234.1,213.8s33.3,16.8,34.8,17.8,0,12.7-2.3,19.7-5.8,17.7-7.2,20.7-3.3,4.1-6.6,6.1l-24,13.9-32.5,4-12.9-7,3.4-21.1s34.5-18.4,39.3-21.1S244.7,231.1,234.1,213.8Z"/><path class="e" d="M234.1,213.8s33.3,16.8,34.8,17.8,0,12.7-2.3,19.7-5.8,17.7-7.2,20.7-3.3,4.1-6.6,6.1l-24,13.9-32.5,4-12.9-7,3.4-21.1s34.5-18.4,39.3-21.1S244.7,231.1,234.1,213.8Z"/><path class="b" d="M269.6,247.3c3-8.1,5.2-14.7,4.9-19.3-.5-5.4-2.5-9.7-11.3-11.9S242,214,242,214l-3.8,2.2s25.4,14.7,28.2,16.3c1.8,1,3.6,5.4.2,18.9l.6.3C267.6,251.9,268.6,249.9,269.6,247.3Z"/><path class="n" d="M269.6,247.3c3-8.1,5.2-14.7,4.9-19.3-.5-5.4-2.5-9.7-11.3-11.9S242,214,242,214l-3.8,2.2s25.4,14.7,28.2,16.3c1.8,1,3.6,5.4.2,18.9l.6.3C267.6,251.9,268.6,249.9,269.6,247.3Z"/><path class="b" d="M250.4,223.2l4.1-2.3s-.2-14.2-6.2-17.7-26.3-1.1-26.3-1.1l-4.1,2.3Z"/><path class="h" d="M237.1,206.4c-1.9,1.1-1.9,2.9,0,4.1a8.05,8.05,0,0,0,7.1,0c1.9-1.1,1.9-2.9,0-4.1A8.05,8.05,0,0,0,237.1,206.4Z"/><path class="h" d="M243.3,213.2c-1.4.8-1.4,2.1,0,2.9a5.508,5.508,0,0,0,5,0c1.4-.8,1.4-2.1,0-2.9A5.508,5.508,0,0,0,243.3,213.2Z"/><path class="h" d="M227.6,204.6c-1.4.8-1.4,2.1,0,2.9a5.508,5.508,0,0,0,5,0c1.4-.8,1.4-2.1,0-2.9A5.508,5.508,0,0,0,227.6,204.6Z"/><path class="b" d="M251,219.1c.8-.7,1.6-.4,1.8.6a3.856,3.856,0,0,1-1.1,3.1,1.075,1.075,0,0,1-1.4.2.909.909,0,0,1-.4-.8A3.553,3.553,0,0,1,251,219.1Z"/><path class="b" d="M260.3,223.5l-8.1-4.7-1.8,4.3,8.2,4.7Z"/><path class="b" d="M259.1,223.8a1.075,1.075,0,0,1,1.4-.2.91.91,0,0,1,.4.8,3.553,3.553,0,0,1-1.1,3.1c-.8.7-1.6.4-1.8-.6A3.3,3.3,0,0,1,259.1,223.8Z"/><path d="M259.1,223.8a1.075,1.075,0,0,1,1.4-.2.91.91,0,0,1,.4.8,3.553,3.553,0,0,1-1.1,3.1c-.8.7-1.6.4-1.8-.6A3.3,3.3,0,0,1,259.1,223.8Z"/><path class="i" d="M189.4,293v1.8c-1.6-.7-3.7-.5-6,.9-5.1,2.9-9.2,10.1-9.2,16,0,2.7.9,4.7,2.4,5.8a5.669,5.669,0,0,1-1.3.8l-.5.2-1.4,5.3-8.2-4.5c-2.6-1.5-4.2-4.7-4.2-9.2,0-9.1,6.4-20.1,14.2-24.6,3.9-2.2,7.4-2.5,10-1h0l8,4.5.2.1Z"/><path class="b" d="M165.1,277.1,159,298.2l12.2,7.1,6.3-21Z"/><path class="e" d="M165.1,277.1,159,298.2l12.2,7.1,6.3-21Z"/><path class="b" d="M165.1,277.1s6.9,5.9,12.4,7.2c7.2,1.8,18.7,1.9,22.8,2.2,6.2.4,10.9.4,13.1-.4,2.9-1,10.5-5.5,12.6-6.7,4.1-2.3,5.8-11.5-5.4-14.1a111.587,111.587,0,0,0-23-2.4Z"/><path class="k" d="M234,274.4a13.428,13.428,0,0,0-.7,2.7,6.133,6.133,0,0,0-.2,3,5.859,5.859,0,0,0,3.4,2.6,7.6,7.6,0,0,0,5.9-1.1c2.1-1.2,3.6-2.7,6.6-3.6a13.858,13.858,0,0,0,5.8-2.6c1.6-1.3,3.8-4.9.7-5.8s-9.9,2.1-16.1,2.4Z"/><path class="o" d="M234,270.6v4.6a3.068,3.068,0,0,0,2.4,2,2.622,2.622,0,0,0,1.5-.2,4.014,4.014,0,0,0,2.6-3.7l.2-2.8H234Z"/><path class="k" d="M242.8,242c0,5.8-1.6,30.6-1.6,30.6s-2.4,3-7.5,0L232,244.8Z"/><path class="b" d="M216,266.5l16-9.2a4,4,0,0,0,1.7-5.5,4.621,4.621,0,0,0-1.7-1.7l-11.9-6.9a4.664,4.664,0,0,0-4.3,0l-16,9.2a4.114,4.114,0,0,0-1.7,5.5,4.621,4.621,0,0,0,1.7,1.7l11.9,6.9A4.664,4.664,0,0,0,216,266.5Z"/><path class="c" d="M216,266.5l16-9.2a4,4,0,0,0,1.7-5.5,4.621,4.621,0,0,0-1.7-1.7l-11.9-6.9a4.664,4.664,0,0,0-4.3,0l-16,9.2a4.114,4.114,0,0,0-1.7,5.5,4.621,4.621,0,0,0,1.7,1.7l11.9,6.9A4.664,4.664,0,0,0,216,266.5Z"/><path class="b" d="M199.8,254.9l11.9,6.9a4.664,4.664,0,0,0,4.3,0l16-9.2a1.262,1.262,0,0,0,.8-1.7,1.085,1.085,0,0,0-.8-.8l-11.9-6.9a4.664,4.664,0,0,0-4.3,0l-16,9.2a1.262,1.262,0,0,0-.8,1.7A1.085,1.085,0,0,0,199.8,254.9Z"/><path class="o" d="M209.5,193.7l-2,8.4-8.7.5,1.8-11.6Z"/><path class="p" d="M218,187.4s1,3.5.6,3.7a6.054,6.054,0,0,1-1.9,0Z"/><path class="o" d="M216.3,176.1c1.4,1.6,2.7,4.4,1.7,11-1.1,7.3-2.4,8.1-3.5,8.8-1.4.9-7.1.4-8.6-.7-1.9-1.4-4.9-5.8-5.6-10.1-.8-5.1.9-10.8,4.6-11.8C210.3,171.9,215.1,174.7,216.3,176.1Z"/><path class="i" d="M199.8,193.4c1.4,1.4,4.1,1.8,5.9,2.1s7.1.7,8.7-3.1.5-6.6,2.4-7.5,3.9-1.5,4.4-2,.5-6.8-4.7-10-13.2-4-18.4,2.6C194,180.6,195.6,189.1,199.8,193.4Z"/><path class="k" d="M205,195.5c1.4.1,5.6-.6,6.9-2.3s1.8-4.9,2-6.6a2.782,2.782,0,0,1,2.3-2.7,40.593,40.593,0,0,0,4.1-1.8v-.8a13.094,13.094,0,0,1,2.8,0c.6.1.3,1-1.3,1.8s-5.7,2.3-6.3,2.8-.9,2.7-1.4,4.9S212,196.5,205,195.5Z"/><path class="p" d="M217,205l5-2.9c.5-1.4-.3-2.2-1.6-2.1s-.9-1.2-1.8-1.6c-1.1-.5-1.7-.2-2.2-.4s-.7-.8-1.3-.9c-2.9-.3-4.8,3.8-4.8,3.8Z"/><path class="k" d="M183.1,241.7S205.2,230.8,209,229s9.9-4.3,13.1-4.3a5.257,5.257,0,0,1,4.8,4.9,56.33,56.33,0,0,1-.3,5.8,133.3,133.3,0,0,1-18.6,4.7C198.8,241.6,183.1,241.7,183.1,241.7Z"/><path class="i" d="M185.5,235.4c0,4.5-.4,9.3,1.5,12.6s12.1,11,21.8,9.4c6.3-1.1,25-9.7,25-9.7s9.1-3.3,9.1-5.7c.1-3.5-.2-8.4-8.1-8.2-7.2.2-28.5,4.6-28.5,4.6Z"/><path class="i" d="M191.6,199.4c3.4-3.6,5.7-3.9,7.4-3.4a54.083,54.083,0,0,1,10.9,4.4h0s-1.3,12.8,4.9,16.5v19.9s-.2,2.2-2.9,4.3c-2.4,1.9-7.8,3.8-14.3,3.3-7.7-.6-12.1-8.9-12.1-8.9s-.2-16.3.9-22.8C187.6,205.1,190.4,200.7,191.6,199.4Z"/><path class="k" d="M214.8,217.8s-3.8-3-4.9-6.9c0,0,.4,6.1,4.9,9.2Z"/><path class="o" d="M249.8,227.2a7.5,7.5,0,0,0,5-1.6s1.7-3.4,3.9-3.1c0,0,.4-1.4-.5-1.9s-1.3-.3-1.6-.8-.4-1.4-2-1.4c-.7,0-.6-.5-2.2-.7s-3.2,3.5-4.4,3.5Z"/><path class="i" d="M209.9,200.4c5.5.9,7.5,2.5,9.5,4.3s14.2,14.1,14.2,14.1l14.8,2.1a4.289,4.289,0,0,1,1.6,2.4c.6,1.7.1,3.6-.5,4.1,0,0-14.7.9-17.6.3s-17.2-10.1-17.2-10.1a12.6,12.6,0,0,1-5-8.6C208.8,203.1,209.9,200.4,209.9,200.4Z"/><path class="b" d="M196.7,253.2,174,280.9h-.8a5.835,5.835,0,0,1-2.6-.6l-19.2-11.1-1.3-.8c-.7-.4-1.3-2.1-1.3-3.8v-4.7a27.3,27.3,0,0,1,13.7-23.7L185.4,223l24.4,14.1Z"/><g class="q"><path d="M196.7,253.2,174,280.9h-.8a5.835,5.835,0,0,1-2.6-.6l-19.2-11.1-1.3-.8c-.7-.4-1.3-2.1-1.3-3.8v-4.7a27.3,27.3,0,0,1,13.7-23.7L185.4,223l24.4,14.1Z"/></g><path class="b" d="M188.9,262.7l20.9-25.5-24.4-14.1-22.9,13.2a27.251,27.251,0,0,0-7.7,6.6Z"/><path class="b" d="M209.8,257.7c0,1.7-.6,3.3-1.3,3.8l-1.3.8-31.4,18.1a6.357,6.357,0,0,1-1.8.6h-.8v-6.8a27.3,27.3,0,0,1,13.7-23.7l2.6-1.5,20.3-11.7Z"/><g class="r"><path d="M209.8,257.7c0,1.7-.6,3.3-1.3,3.8l-1.3.8-31.4,18.1a6.357,6.357,0,0,1-1.8.6h-.8v-6.8a27.3,27.3,0,0,1,13.7-23.7l2.6-1.5,20.3-11.7Z"/></g><path class="g" d="M216.5,292h12.3l17.5-10.2h0l-17.2,12.5-12.9.1Z"/><path class="g" d="M186.7,309.5s22.1-8.3,24-9.3a56.373,56.373,0,0,0,6.3-4.6,2.752,2.752,0,0,0-.3-3.6s-9-.4-11.3.3c-1.3.4-22.1,7.1-22.1,7.1Z"/><path class="i" d="M185.7,300.1c-1.8-1.6-3.7-.9-4.1,1.4a8.507,8.507,0,0,0,2.5,7.1c1.8,1.6,3.7.9,4.1-1.4A8.313,8.313,0,0,0,185.7,300.1Z"/></g></svg>