<svg xmlns="http://www.w3.org/2000/svg" width="397.263" height="364.72" viewBox="0 0 397.263 364.72"><defs><style>.a{fill:#fafafa;}.b{fill:#e6e6e6;}.c,.l,.n{opacity:0.5;}.aa,.d,.o{opacity:0.3;}.e{opacity:0.6;}.f{opacity:0.7;}.g{fill:#d4d4d4;}.h{fill:#06826a;}.ab,.i,.k{fill:#fff;}.i{opacity:0.75;}.ac,.j,.l{fill:#455a64;}.m{fill:#e0e0e0;}.o,.p{fill:#263238;}.ab,.ac,.q{opacity:0.4;}.aa,.r{fill:#37474f;}.s{opacity:0.45;}.t{fill:#ffa8a7;}.u,.w{opacity:0.1;}.v{fill:#f28f8f;}.x{fill:#ebebeb;}.y{fill:#f5f5f5;}.z{fill:#ff3600;}</style></defs><g transform="translate(-53.438 -114.28)"><path class="a" d="M111.6,449.9c77.5,38.8,203.3,38.8,280.9,0s77.6-101.8,0-140.6-203.3-38.8-280.9,0S34.1,411.1,111.6,449.9Z"/><path class="b" d="M105.5,353.6l126.1-79.4a7.539,7.539,0,0,1,6.7-.3l74.9,39.5a5.932,5.932,0,0,1,2.7,2.5,6.245,6.245,0,0,1-2.3,8.6L187.5,403.9a7.539,7.539,0,0,1-6.7.3l-74.9-39.5a6.236,6.236,0,0,1-.4-11.1Z"/><path class="c" d="M313.8,313.7c1.3,1,1.1,2.5-.5,3.5L187.2,396.6a6.557,6.557,0,0,1-3.3.9l.3,7.3a6.294,6.294,0,0,0,3.3-.9l126.1-79.5a6.939,6.939,0,0,0,3.1-5.7A7.42,7.42,0,0,0,313.8,313.7Z"/><path class="d" d="M105.5,353.6l126.1-79.4a7.539,7.539,0,0,1,6.7-.3l74.9,39.5c1.9,1,2,2.7.1,3.9L187.2,396.7a7.233,7.233,0,0,1-6.7.3l-74.9-39.5C103.8,356.4,103.7,354.7,105.5,353.6Z"/><path class="e" d="M180.5,397l-74.9-39.5c-1.8-.9-2-2.5-.5-3.6a5.9,5.9,0,0,0-2.2,2.5,6.273,6.273,0,0,0,3,8.4l74.9,39.4a7.973,7.973,0,0,0,3.4.7l-.3-7.3A6.832,6.832,0,0,1,180.5,397Z"/><path class="d" d="M105.5,353.6l126.1-79.4a7.484,7.484,0,0,0,3.1-6L230.8,167c-.1-2.1-.1-3.8-1.8-4.8a7.119,7.119,0,0,0-6.5.4L96.4,242a7.484,7.484,0,0,0-3.1,6l3.9,101.1c.1,2.2.1,3.9,1.8,4.8A7.423,7.423,0,0,0,105.5,353.6Z"/><path class="d" d="M228.9,162.2a7.119,7.119,0,0,0-6.5.4L96.4,242a7.11,7.11,0,0,0-2.3,2.6h0l4.9,2.6a7.111,7.111,0,0,1,2.3-2.6l126.1-79.4c1.8-1.1,3.4-.3,3.4,1.8C230.7,164.9,230.8,163.2,228.9,162.2Z"/><path class="c" d="M101.3,244.7l126.1-79.4c1.8-1.2,3.4-.4,3.4,1.8l3.9,101.2a7.484,7.484,0,0,1-3.1,6L105.5,353.7c-1.8,1.1-3.4.3-3.4-1.8L98.2,250.8A7.258,7.258,0,0,1,101.3,244.7Z"/><path class="f" d="M102.1,351.8,98.2,250.7a6.921,6.921,0,0,1,.9-3.4h0l-4.9-2.6a6.65,6.65,0,0,0-.9,3.4l3.9,101.1c.1,2.2.1,3.9,1.8,4.8a6.884,6.884,0,0,0,6.1-.2C103.5,354.6,102.1,353.7,102.1,351.8Z"/><path class="a" d="M101.4,252l3.4,88.3c0,1.3,1,1.8,2.1,1.1l121.6-76.6a4.369,4.369,0,0,0,1.9-3.6L227,172.9c-.1-1.3-1-1.8-2.1-1.1L103.3,248.3A4.842,4.842,0,0,0,101.4,252Z"/><path class="g" d="M222.5,181.4l3,77.4a4.411,4.411,0,0,1-1.6,3.7l-113,71.2c-.9.6-1.7-.1-1.8-1.6l-3-77.4a4.411,4.411,0,0,1,1.6-3.7l113-71.2C221.7,179.3,222.5,180,222.5,181.4Z"/><path class="a" d="M216.8,209,112.4,274.8a3.838,3.838,0,0,0-1.6,3.1l.2,5.4c0,1.1.8,1.5,1.8.9l104.4-65.8a3.838,3.838,0,0,0,1.6-3.1l-.2-5.4C218.6,208.8,217.8,208.3,216.8,209Z"/><path class="h" d="M218.9,222l.6,16a3.4,3.4,0,0,1-1.3,3l-10.1,6.4c-.8.5-1.4-.1-1.5-1.3l-.6-16a3.4,3.4,0,0,1,1.3-3l10.1-6.4C218.2,220.2,218.8,220.8,218.9,222Z"/><path class="i" d="M218.9,222l.6,16a3.4,3.4,0,0,1-1.3,3l-10.1,6.4c-.8.5-1.4-.1-1.5-1.3l-.6-16a3.4,3.4,0,0,1,1.3-3l10.1-6.4C218.2,220.2,218.8,220.8,218.9,222Z"/><path class="j" d="M206.5,242.7l.1,3.4c0,1.2.7,1.8,1.5,1.3l10.1-6.4a3.946,3.946,0,0,0,1.3-3l-.2-4.2-4-5.2c-.2-.2-.6.3-.8,1l-4.4,12.9,1.2-5.1-1.8-1.6c-.2-.1-.6.3-.8,1Z"/><path class="h" d="M209.2,231.5c0,1.1.6,1.7,1.4,1.2a3.448,3.448,0,0,0,1.2-2.8c0-1.1-.6-1.7-1.4-1.2A3.211,3.211,0,0,0,209.2,231.5Z"/><path class="h" d="M219.7,244.1l.6,15.9a3.4,3.4,0,0,1-1.3,3l-10.1,6.4c-.8.5-1.4-.1-1.5-1.3l-.6-16a3.4,3.4,0,0,1,1.3-3l10.1-6.4C219,242.4,219.7,242.9,219.7,244.1Z"/><path class="i" d="M219.7,244.1l.6,15.9a3.4,3.4,0,0,1-1.3,3l-10.1,6.4c-.8.5-1.4-.1-1.5-1.3l-.6-16a3.4,3.4,0,0,1,1.3-3l10.1-6.4C219,242.4,219.7,242.9,219.7,244.1Z"/><path class="j" d="M207.3,264.8l.1,3.4c0,1.2.7,1.8,1.5,1.3l10.1-6.4a3.946,3.946,0,0,0,1.3-3l-.2-4.2-4-5.2c-.2-.2-.6.3-.8,1l-4.4,12.9,1.2-5.1-1.8-1.6c-.2-.1-.6.3-.8,1Z"/><path class="h" d="M210,253.6c0,1.1.6,1.7,1.4,1.2a3.448,3.448,0,0,0,1.2-2.8c0-1.1-.6-1.7-1.4-1.2A3.631,3.631,0,0,0,210,253.6Z"/><path class="a" d="M203.1,232.5a2.276,2.276,0,0,1-1,1.9l-89.7,56.5c-.6.4-1.1.1-1.1-.5a2.276,2.276,0,0,1,1-1.9L202,232C202.6,231.6,203.1,231.8,203.1,232.5Z"/><path class="a" d="M203.3,237.2a2.276,2.276,0,0,1-1,1.9l-89.7,56.5c-.6.4-1.1.1-1.1-.5a2.417,2.417,0,0,1,1-1.9l89.7-56.5C202.8,236.3,203.3,236.6,203.3,237.2Z"/><path class="a" d="M203.5,242a2.276,2.276,0,0,1-1,1.9l-89.7,56.5c-.6.4-1.1.1-1.1-.5a2.276,2.276,0,0,1,1-1.9l89.7-56.5C203,241,203.5,241.3,203.5,242Z"/><path class="a" d="M203.7,246.7a2.276,2.276,0,0,1-1,1.9L113,305.1c-.6.4-1.1.1-1.1-.6a2.417,2.417,0,0,1,1-1.9l89.7-56.5C203.2,245.8,203.7,246,203.7,246.7Z"/><path class="a" d="M204,254.5a2.276,2.276,0,0,1-1,1.9l-89.7,56.5c-.6.4-1.1.1-1.1-.5a2.276,2.276,0,0,1,1-1.9L202.9,254C203.5,253.6,204,253.9,204,254.5Z"/><path class="a" d="M204.2,259.3a2.276,2.276,0,0,1-1,1.9l-89.7,56.5c-.6.4-1.1.1-1.1-.6a2.417,2.417,0,0,1,1-1.9l89.7-56.5C203.6,258.4,204.1,258.6,204.2,259.3Z"/><path class="a" d="M204.3,264a2.276,2.276,0,0,1-1,1.9l-89.7,56.5c-.6.4-1.1.1-1.1-.5a2.417,2.417,0,0,1,1-1.9l89.7-56.5C203.8,263.1,204.3,263.3,204.3,264Z"/><path class="a" d="M204.5,268.7a2.276,2.276,0,0,1-1,1.9l-89.7,56.5c-.6.4-1.1.1-1.1-.5a2.276,2.276,0,0,1,1-1.9l89.7-56.5C204,267.8,204.5,268.1,204.5,268.7Z"/><path class="j" d="M107.3,251.2l114-71.8c.7-.4,1.2.1,1.3,1.2l.3,8.9L106.5,262.8l-.3-8.9A3.17,3.17,0,0,1,107.3,251.2Z"/><path class="b" d="M184,213.9c.7-.4.8-1.2,1.2-2.7l.9-4.1c.4-1.9,1-2.6,1.6-3l29.1-18.3c.7-.4,1,.1,1.3,1.1l1,2.8c.4,1.1.6,1.6,1.3,1.2l2.5-1.6.4,10.8L106.9,273.4l-.4-10.8Z"/><path class="k" d="M112.3,253.6a3.646,3.646,0,0,1-1.2,2.9c-.7.4-1.3-.1-1.4-1.2a3.519,3.519,0,0,1,1.2-2.9C111.6,251.9,112.2,252.5,112.3,253.6Z"/><path class="k" d="M116.9,250.6a3.646,3.646,0,0,1-1.2,2.9c-.7.4-1.3-.1-1.4-1.2a3.519,3.519,0,0,1,1.2-2.9C116.3,249,116.8,249.5,116.9,250.6Z"/><path class="k" d="M121.6,247.7a3.519,3.519,0,0,1-1.2,2.9c-.7.4-1.3-.1-1.4-1.2a3.519,3.519,0,0,1,1.2-2.9C121,246,121.6,246.6,121.6,247.7Z"/><path class="l" d="M217.3,198.6c0,.2.1.3.2.2l1.9-1.2-.7,1.8c-.1.2,0,.3,0,.5h.1l.1-.1,1-2.6h0v-.1h0v-.2h0v-.1h0l-1.1-1.3c-.1-.1-.2,0-.2.2a.3.3,0,0,0,0,.4l.8.9-1.9,1.2A.52.52,0,0,0,217.3,198.6Z"/><path class="l" d="M216,199.3c0,.2,0,.3-.1.4l-1.9,1.2.8.9a.446.446,0,0,1,0,.5c0,.1-.1.1-.1.2h-.1l-1.1-1.2h0v-.1h0V201h0v-.1h0l1-2.6c.1-.2.2-.2.2-.1a.446.446,0,0,1,0,.5l-.7,1.8,1.9-1.2C216,199.1,216,199.2,216,199.3Z"/><path class="l" d="M209.5,202.2c0,.2,0,.2.1.2l.8-.4c.1,0,.1-.3.1-.4l-.2-.4c.3-.4.7-.5.9-.1a3.591,3.591,0,0,1,.1,2.7c-.3,1-.9,1.3-1.3.8-.1-.1-.2,0-.2.1a.446.446,0,0,0,0,.5v.1a.529.529,0,0,0,.8.1,2.223,2.223,0,0,0,.8-1.3,4.959,4.959,0,0,0-.1-3.6c-.4-.5-.9-.4-1.4.3l-.3-.5c-.1-.1-.2,0-.2.2Z"/><path class="l" d="M188.1,209.9a.637.637,0,0,0,0,.6h.2c.1-.1.1-.1.1-.2l.6-1.9.8,1.1h.2c.1-.1.1-.1.1-.2a.637.637,0,0,0,0-.6l-.8-1.1.6-1.9a.637.637,0,0,0,0-.6c-.1-.1-.2,0-.3.2l-.6,1.9-.8-1.1c-.1-.1-.2,0-.3.2a.637.637,0,0,0,0,.6l.8,1.1Z"/><path class="a" d="M206,209.3l-91.1,57.4c-.7.4-1.2-.1-1.3-1.2l-.1-3.4a3.478,3.478,0,0,1,1.1-2.7l91.1-57.5c.7-.4,1.3.1,1.3,1.2l.1,3.4A3.25,3.25,0,0,1,206,209.3Z"/><path class="m" d="M114.7,265.8a.622.622,0,0,1-.4-.6l.1-1.3-.5-.5a.764.764,0,0,1-.2-.5,1.421,1.421,0,0,1,.2-.6l.7-.6.3-1.4a.634.634,0,0,1,.5-.6.55.55,0,0,1,.5.3l.3.7.4-.1.3-.1.2.2a.755.755,0,0,1,.1.8l-.5,1.3.2,1.2a.908.908,0,0,1-.3.7l-.3.2-.6-.2-.5.8a.536.536,0,0,1-.4.3Zm1-2h.2l.3.1-.1-1.1v-.4l.3-.9-.2.1a.486.486,0,0,1-.6-.3h0l-.1.5a.52.52,0,0,1-.2.4l-.7.6.5.5a.44.44,0,0,1,.1.5v.3h0a.55.55,0,0,1,.5-.3Z"/><g class="n"><path class="j" d="M111.7,263.3l-3.2,2c-.1.1-.3-.1-.2-.5a1.905,1.905,0,0,1,.5-1l3.2-2c.1-.1.3.1.2.5-.1.3-.2.5-.3.8C111.9,263.2,111.8,263.2,111.7,263.3Z"/><path class="j" d="M111.8,265.8l-3.2,2c-.1.1-.3-.1-.2-.5a1.905,1.905,0,0,1,.5-1l3.2-2c.1-.1.3.1.2.5-.1.3-.2.5-.3.8A.215.215,0,0,1,111.8,265.8Z"/><path class="j" d="M111.9,268.4l-3.2,2c-.1.1-.3-.1-.2-.5a1.905,1.905,0,0,1,.5-1l3.2-2c.1-.1.3.1.2.5a4.876,4.876,0,0,1-.3.7C112.1,268.2,112,268.3,111.9,268.4Z"/></g><path class="d" d="M114.3,353.9a1.066,1.066,0,0,0,.6,1.4l2,1a3.714,3.714,0,0,0,3.4-.1l117-73.8a1.205,1.205,0,0,0,.5-.5,1.066,1.066,0,0,0-.6-1.4l-2-1a3.714,3.714,0,0,0-3.4.1l-117,73.8A1.205,1.205,0,0,0,114.3,353.9Z"/><path class="o" d="M244.5,284.6l31.7,16.9c.8.4.7,1.2-.2,1.8L159.1,377a3.406,3.406,0,0,1-3.1.3l-31.8-16.8c-.8-.4-.7-1.2.2-1.8l117-73.8A3.433,3.433,0,0,1,244.5,284.6Z"/><path class="p" d="M174.3,347.1l-3.7-1.9a.446.446,0,0,0-.5,0l-3.7,2.3a.187.187,0,0,0,0,.3l3.7,1.9a.446.446,0,0,0,.5,0l3.7-2.3C174.5,347.4,174.5,347.2,174.3,347.1Zm-13-2L165,347a.637.637,0,0,0,.6,0l3.7-2.3a.187.187,0,0,0,0-.3l-3.7-1.9a.637.637,0,0,0-.6,0l-3.7,2.3Q161,344.95,161.3,345.1Zm11.8-7.5,3.7,1.9a.446.446,0,0,0,.5,0l6.2-3.9a.187.187,0,0,0,0-.3l-3.7-1.9a.637.637,0,0,0-.6,0l-6.2,3.9C172.9,337.4,172.9,337.6,173.1,337.6Zm-6.5,3.8c-.1.1-.2.2,0,.3l3.7,1.9a.637.637,0,0,0,.6,0l3.7-2.3a.187.187,0,0,0,0-.3l-3.7-1.9a.637.637,0,0,0-.6,0l-3.7,2.3Zm14.4-9c-.1.1-.2.2,0,.3l3.7,1.9a.637.637,0,0,0,.6,0l3.7-2.3a.187.187,0,0,0,0-.3l-3.7-1.9a.637.637,0,0,0-.6,0l-3.7,2.3Zm5.3-3.4c-.1.1-.2.2,0,.3l3.7,1.9a.637.637,0,0,0,.6,0l3.7-2.3a.187.187,0,0,0,0-.3l-3.7-1.9a.637.637,0,0,0-.6,0l-3.7,2.3Zm15,7.5q.3-.15,0-.3l-3.7-2a.637.637,0,0,0-.6,0l-3.7,2.3a.187.187,0,0,0,0,.3l3.7,1.9a.446.446,0,0,0,.5,0l3.8-2.2Zm5.3-3.7-3.7-1.9a.446.446,0,0,0-.5,0l-3.7,2.3a.187.187,0,0,0,0,.3l3.7,1.9a.446.446,0,0,0,.5,0l3.7-2.3C206.8,333.1,206.8,332.9,206.6,332.8Zm5.3-3.3-3.7-1.9a.446.446,0,0,0-.5,0l-3.7,2.3a.187.187,0,0,0,0,.3l3.7,1.9a.446.446,0,0,0,.5,0l3.7-2.3Q212.2,329.65,211.9,329.5Zm5.4-3.1c.2-.1.2-.2-.1-.3l-3.7-1.9a.446.446,0,0,0-.5,0l-3.7,2.3a.187.187,0,0,0,0,.3l3.7,1.9a.446.446,0,0,0,.5,0l3.8-2.3Zm-37.6,17.7c.1-.1.2-.2-.1-.3l-3.7-1.9a.637.637,0,0,0-.6,0l-3.7,2.3a.187.187,0,0,0,0,.3l3.7,1.9a.446.446,0,0,0,.5,0l3.9-2.3Zm16.2-4.2c.2-.1.2-.3,0-.3l-3.7-1.9a.637.637,0,0,0-.6,0l-3.4,2.2a.446.446,0,0,1-.5,0l-4.7-2.5a.446.446,0,0,0-.5,0l-4.2,2.7a.187.187,0,0,0,0,.3l8.9,4.7a.637.637,0,0,0,.6,0l8.1-5.2Zm-4.2-14.3c-.1.2-.2.2,0,.3l3.7,1.9a.637.637,0,0,0,.6,0l3.7-2.3a.187.187,0,0,0,0-.3l-3.7-1.9a.637.637,0,0,0-.6,0l-3.7,2.3Zm5.3-3.4c-.1.1-.2.2,0,.3l3.7,1.9a.446.446,0,0,0,.5,0l3.7-2.3a.187.187,0,0,0,0-.3l-3.7-1.9a.637.637,0,0,0-.6,0l-3.6,2.3Zm54.1-21.6a.446.446,0,0,0-.5,0l-3.7,2.3a.187.187,0,0,0,0,.3l3.7,1.9a.446.446,0,0,0,.5,0l3.7-2.3a.187.187,0,0,0,0-.3Zm-11.2-5.3q-.3.15,0,.3l3.7,1.9a.446.446,0,0,0,.5,0l3.7-2.3a.187.187,0,0,0,0-.3l-3.7-1.9a.446.446,0,0,0-.5,0l-3.7,2.3Zm7.4,1.6a.637.637,0,0,0-.6,0l-3.7,2.3a.187.187,0,0,0,0,.3l3.7,1.9a.637.637,0,0,0,.6,0l3.7-2.3a.187.187,0,0,0,0-.3Zm9.9,10.4q.3-.15,0-.3l-3.8-1.9a.446.446,0,0,0-.5,0l-3.7,2.3a.187.187,0,0,0,0,.3l3.7,1.9a.446.446,0,0,0,.5,0l3.8-2.3Zm1.7-5.6a.446.446,0,0,0-.5,0l-3.7,2.3a.187.187,0,0,0,0,.3l3.7,1.9a.446.446,0,0,0,.5,0l3.7-2.3a.187.187,0,0,0,0-.3Zm-24.4-2.8,3.7,1.9a.446.446,0,0,0,.5,0l3.7-2.3a.187.187,0,0,0,0-.3l-3.7-1.9a.446.446,0,0,0-.5,0l-3.7,2.3C234.4,298.7,234.4,298.9,234.5,298.9Zm-26.7,16.9,3.7,1.9a.446.446,0,0,0,.5,0l3.7-2.3a.187.187,0,0,0,0-.3l-3.7-1.9a.446.446,0,0,0-.5,0l-3.7,2.3Q207.5,315.65,207.8,315.8Zm21.4-13.5,3.7,1.9a.446.446,0,0,0,.5,0l3.7-2.3a.187.187,0,0,0,0-.3l-3.7-1.9a.446.446,0,0,0-.5,0l-3.7,2.3Q228.9,302.15,229.2,302.3Zm-26.9,16.9,3.7,1.9a.446.446,0,0,0,.5,0l3.7-2.3a.187.187,0,0,0,0-.3l-3.7-1.9a.446.446,0,0,0-.5,0l-3.6,2.3C202.2,319,202.2,319.1,202.3,319.2Zm10.8-7.1q-.3.15,0,.3l3.7,1.9a.446.446,0,0,0,.5,0L221,312a.187.187,0,0,0,0-.3l-3.7-1.9a.446.446,0,0,0-.5,0l-3.7,2.3Zm5.4-3.4q-.3.15,0,.3l3.7,1.9a.446.446,0,0,0,.5,0l3.7-2.3a.187.187,0,0,0,0-.3l-3.7-1.9a.446.446,0,0,0-.5,0l-3.7,2.3Zm5.3-3.3q-.3.15,0,.3l3.7,1.9a.446.446,0,0,0,.5,0l3.7-2.3a.187.187,0,0,0,0-.3l-3.7-2a.446.446,0,0,0-.5,0l-3.7,2.4Zm4.2,14.3q.3-.15,0-.3l-3.7-1.9a.446.446,0,0,0-.5,0l-3.7,2.3a.187.187,0,0,0,0,.3l3.7,1.9a.446.446,0,0,0,.5,0l3.7-2.3Zm-78.6,32.9,3.7,1.9a.446.446,0,0,0,.5,0l3.7-2.3a.187.187,0,0,0,0-.3l-3.7-1.9a.446.446,0,0,0-.5,0l-3.7,2.3C149.2,352.3,149.2,352.5,149.4,352.6Zm6.5-4.4q-.3.15,0,.3l3.7,1.9a.637.637,0,0,0,.6,0l3.7-2.3a.187.187,0,0,0,0-.3l-3.7-1.9a.637.637,0,0,0-.6,0l-3.7,2.3ZM144,355.6q-.3.15,0,.3l3.7,1.9a.446.446,0,0,0,.5,0l3.7-2.3a.187.187,0,0,0,0-.3l-3.7-1.9a.446.446,0,0,0-.5,0l-3.7,2.3Zm48.1-19.3c.1-.1.2-.2,0-.3l-3.7-1.9a.446.446,0,0,0-.5,0l-3.7,2.3a.187.187,0,0,0,0,.3l3.7,1.9a.446.446,0,0,0,.5,0l3.7-2.3Zm-49.8,25a.446.446,0,0,0,.5,0l3.7-2.3a.187.187,0,0,0,0-.3l-3.7-1.9a.446.446,0,0,0-.5,0l-3.7,2.3a.187.187,0,0,0,0,.3ZM222.7,323q.3-.15,0-.3l-3.7-1.9a.446.446,0,0,0-.5,0l-3.7,2.3a.187.187,0,0,0,0,.3l3.7,1.9a.446.446,0,0,0,.5,0l3.7-2.3ZM157,364.1l-3.7-1.9a.446.446,0,0,0-.5,0l-3.7,2.3a.187.187,0,0,0,0,.3l3.7,1.9a.446.446,0,0,0,.5,0l3.7-2.3Q157.3,364.25,157,364.1Zm.1-5.8q.3-.15,0-.3l-3.7-1.9a.446.446,0,0,0-.5,0l-3.7,2.3a.187.187,0,0,0,0,.3l3.7,1.9a.446.446,0,0,0,.5,0l3.7-2.3Zm-9.5,5.7a.446.446,0,0,0,.5,0l3.7-2.3a.187.187,0,0,0,0-.3l-3.7-1.9a.446.446,0,0,0-.5,0l-3.7,2.3a.187.187,0,0,0,0,.3Zm-4.8-1.2a.446.446,0,0,0-.5,0l-3.7,2.3a.187.187,0,0,0,0,.3l8.9,4.7a.446.446,0,0,0,.5,0l3.7-2.3a.187.187,0,0,0,0-.3l-8.9-4.7Zm11.8-7.8q-.3.15,0,.3l3.7,1.9a.446.446,0,0,0,.5,0l3.7-2.3a.187.187,0,0,0,0-.3l-3.7-1.9a.446.446,0,0,0-.5,0l-3.7,2.3Zm40.3-25.4q-.3.15,0,.3l3.7,1.9a.637.637,0,0,0,.6,0l3.7-2.3a.187.187,0,0,0,0-.3l-3.7-1.9a.637.637,0,0,0-.6,0l-3.7,2.3Zm-36.2,29.2a.446.446,0,0,0-.5,0l-3.7,2.3a.187.187,0,0,0,0,.3l3.7,1.9a.446.446,0,0,0,.5,0l3.7-2.3a.187.187,0,0,0,0-.3Zm30.9-25.5,3.7,1.9a.637.637,0,0,0,.6,0l3.7-2.3a.187.187,0,0,0,0-.3l-3.7-1.9a.637.637,0,0,0-.6,0l-3.7,2.3Q189.3,333.15,189.6,333.3Zm56.2-29.4a.446.446,0,0,0-.5,0l-3.7,2.3a.187.187,0,0,0,0,.3l3.7,1.9a.446.446,0,0,0,.5,0l3.7-2.3a.187.187,0,0,0,0-.3Zm-8-1.3c-.1.1-.2.2,0,.3l3.7,1.9a.637.637,0,0,0,.6,0l3.7-2.3a.187.187,0,0,0,0-.3l-3.7-1.9a.637.637,0,0,0-.6,0l-3.7,2.3Zm6.3,6.6-3.7-1.9a.446.446,0,0,0-.5,0l-3.7,2.3a.187.187,0,0,0,0,.3l3.7,1.9a.446.446,0,0,0,.5,0l3.7-2.3C244.3,309.5,244.3,309.3,244.1,309.2Zm-5.4,3.4-3.7-1.9a.446.446,0,0,0-.5,0l-3.7,2.3a.187.187,0,0,0,0,.3l3.7,1.9a.446.446,0,0,0,.5,0l3.7-2.3Q239,312.75,238.7,312.6Zm-5.3,3.7q.3-.15,0-.3l-3.7-1.9a.446.446,0,0,0-.5,0l-3.7,2.3a.187.187,0,0,0,0,.3l3.7,1.9a.446.446,0,0,0,.5,0l3.7-2.3Zm-1-10.3c-.1.1-.2.2,0,.3l3.7,1.9a.637.637,0,0,0,.6,0l3.7-2.3a.187.187,0,0,0,0-.3l-3.7-1.9a.637.637,0,0,0-.6,0l-3.7,2.3Zm-5.3,3.4c-.1.1-.2.2,0,.3l3.7,1.9a.637.637,0,0,0,.6,0l3.7-2.3a.187.187,0,0,0,0-.3l-3.6-1.9a.637.637,0,0,0-.6,0l-3.8,2.3Zm-21.4,13.5q-.3.15,0,.3l3.7,1.9a.637.637,0,0,0,.6,0l3.7-2.3a.187.187,0,0,0,0-.3l-3.7-1.9a.637.637,0,0,0-.6,0l-3.7,2.3Zm5.3-3.1,3.7,1.9a.637.637,0,0,0,.6,0l3.7-2.3a.187.187,0,0,0,0-.3l-3.7-1.9a.637.637,0,0,0-.6,0l-3.7,2.3C210.9,319.6,210.8,319.7,211,319.8Zm-10.7,6.4c-.2.1-.2.3,0,.3l3.7,1.9a.637.637,0,0,0,.6,0l3.7-2.3a.187.187,0,0,0,0-.3l-3.7-1.9a.637.637,0,0,0-.6,0l-3.7,2.3ZM221.7,313l3.7,1.9a.637.637,0,0,0,.6,0l3.7-2.3a.187.187,0,0,0,0-.3l-3.7-1.9a.637.637,0,0,0-.6,0l-3.7,2.3C221.6,312.8,221.6,313,221.7,313Zm-5.3,3.2c-.1.1-.2.2,0,.2l3.7,1.9a.637.637,0,0,0,.6,0l3.7-2.3a.187.187,0,0,0,0-.3l-3.7-1.9a.637.637,0,0,0-.6,0l-3.7,2.4Zm35.5-5.5a.208.208,0,0,0,0-.4l-3.7-1.9a.446.446,0,0,0-.5,0l-3.7,2.3a.187.187,0,0,0,0,.3l3.7,1.9a.446.446,0,0,0,.5,0l3.7-2.2Zm-3-16.6a.44.44,0,0,0,.5-.1l3.7-2.3a.187.187,0,0,0,0-.3l-3.7-1.9a.446.446,0,0,0-.5,0l-3.7,2.3a.187.187,0,0,0,0,.3l3.7,2Zm3.2,4a.637.637,0,0,0,.6,0l5.6-3.6a.187.187,0,0,0,0-.3l-3.7-1.9a.446.446,0,0,0-.5,0l-5.6,3.6a.187.187,0,0,0,0,.3l3.6,1.9Zm-10.4-6.8a.44.44,0,0,0,.5-.1l4.5-2.8a.187.187,0,0,0,0-.3l-3.7-1.9a.637.637,0,0,0-.6,0L238,289a.187.187,0,0,0,0,.3l3.7,2Zm-7.2.2a.446.446,0,0,0-.5,0l-3.7,2.3a.187.187,0,0,0,0,.3L234,296a.446.446,0,0,0,.5,0l3.7-2.3a.187.187,0,0,0,0-.3ZM256,301.8a.637.637,0,0,0,.6,0l7-4.4a.187.187,0,0,0,0-.3l-3.7-2a.446.446,0,0,0-.5,0l-7,4.4a.187.187,0,0,0,0,.3l3.6,2Zm7.7,1.1a.44.44,0,0,0,.5-.1l4.5-2.8a.187.187,0,0,0,0-.3l-3.7-1.9a.446.446,0,0,0-.5,0l-4.5,2.8a.187.187,0,0,0,0,.3l3.7,2Zm-69,13.7a.637.637,0,0,0-.6,0l-3.7,2.3a.187.187,0,0,0,0,.3l3.7,1.9a.446.446,0,0,0,.5,0l3.7-2.3a.187.187,0,0,0,0-.3Zm10.7-6.7a.637.637,0,0,0-.6,0l-3.7,2.3a.187.187,0,0,0,0,.3l3.7,1.9a.637.637,0,0,0,.6,0l3.7-2.3a.187.187,0,0,0,0-.3Zm23.7-15a.446.446,0,0,0-.5,0l-3.7,2.3a.187.187,0,0,0,0,.3l3.7,1.9a.446.446,0,0,0,.5,0l3.7-2.3a.187.187,0,0,0,0-.3Zm-29,18.4a.637.637,0,0,0-.6,0l-3.7,2.3a.187.187,0,0,0,0,.3l3.7,1.9a.637.637,0,0,0,.6,0l3.7-2.3a.187.187,0,0,0,0-.3Zm10.7-6.8a.637.637,0,0,0-.6,0l-3.7,2.3a.187.187,0,0,0,0,.3l3.7,1.9a.637.637,0,0,0,.6,0l3.7-2.3a.187.187,0,0,0,0-.3Zm57.1-.1a.637.637,0,0,0,.6,0l5.6-3.6a.187.187,0,0,0,0-.3l-3.7-1.9a.446.446,0,0,0-.5,0l-5.6,3.6a.187.187,0,0,0,0,.3Zm-49.4-4.7a.446.446,0,0,0-.5,0l-3.7,2.3a.187.187,0,0,0,0,.3l3.7,1.9a.446.446,0,0,0,.5,0l3.7-2.3a.187.187,0,0,0,0-.3Zm5.4-3.4a.446.446,0,0,0-.5,0l-3.7,2.3a.187.187,0,0,0,0,.3l3.7,1.9a.446.446,0,0,0,.5,0l3.7-2.3a.187.187,0,0,0,0-.3Zm-55.3,70.6a.446.446,0,0,0,.5,0l9-5.6a.187.187,0,0,0,0-.3l-3.7-1.9a.446.446,0,0,0-.5,0l-9,5.7a.187.187,0,0,0,0,.3Zm11.9-7.5a.446.446,0,0,0,.5,0l3.7-2.3a.187.187,0,0,0,0-.3l-3.7-1.9a.446.446,0,0,0-.5,0l-3.7,2.3a.187.187,0,0,0,0,.3Zm66-47.3q.3-.15,0-.3l-3.7-1.9a.446.446,0,0,0-.5,0l-3.7,2.3a.187.187,0,0,0,0,.3l3.7,1.9a.637.637,0,0,0,.6,0l3.6-2.3Zm-55.3,40.6a.446.446,0,0,0,.5,0l3.7-2.3a.187.187,0,0,0,0-.3l-3.7-1.9a.446.446,0,0,0-.5,0l-3.7,2.3a.187.187,0,0,0,0,.3Zm-27.9,17.6a.637.637,0,0,0,.6,0l3.7-2.3a.187.187,0,0,0,0-.3l-3.7-1.9a.446.446,0,0,0-.5,0l-3.7,2.3a.187.187,0,0,0,0,.3Zm-5.4,3.4a.637.637,0,0,0,.6,0l3.7-2.3a.187.187,0,0,0,0-.3l-8.9-4.7a.446.446,0,0,0-.5,0l-3.7,2.3a.187.187,0,0,0,0,.3l8.8,4.7Zm53.3-33.6a.637.637,0,0,0,.6,0l4.5-2.8a.187.187,0,0,0,0-.3l-3.7-1.9a.637.637,0,0,0-.6,0l-4.5,2.8a.187.187,0,0,0,0,.3Zm-13.5,8.6a.637.637,0,0,0,.6,0l5.6-3.6a.187.187,0,0,0,0-.3l-3.7-1.9a.637.637,0,0,0-.6,0l-5.6,3.6a.187.187,0,0,0,0,.3Zm25.9-16.4a.637.637,0,0,0,.6,0l30.2-19a.187.187,0,0,0,0-.3l-3.7-1.9a.637.637,0,0,0-.6,0l-30.2,19a.187.187,0,0,0,0,.3Zm31.8-20.1a.637.637,0,0,0,.6,0l4.5-2.8a.187.187,0,0,0,0-.3l-3.7-1.9a.637.637,0,0,0-.6,0l-4.5,2.8a.187.187,0,0,0,0,.3Zm-38,24a.637.637,0,0,0,.6,0l4.5-2.8a.187.187,0,0,0,0-.3l-3.7-1.9a.637.637,0,0,0-.6,0l-4.5,2.8a.187.187,0,0,0,0,.3Zm44.2-27.9a.637.637,0,0,0,.6,0l4.5-2.8a.187.187,0,0,0,0-.3l-3.7-1.9a.637.637,0,0,0-.6,0l-4.5,2.8a.187.187,0,0,0,0,.3ZM205,346a.637.637,0,0,0,.6,0l4.5-2.8a.187.187,0,0,0,0-.3l-3.7-1.9a.637.637,0,0,0-.6,0l-4.5,2.9a.187.187,0,0,0,0,.3Zm-19.2,12.1a.446.446,0,0,0,.5,0l3.7-2.3a.187.187,0,0,0,0-.3l-3.7-1.9a.446.446,0,0,0-.5,0l-3.7,2.3a.187.187,0,0,0,0,.3Zm-18.2,5.7q.3-.15,0-.3l-3.7-1.9a.446.446,0,0,0-.5,0l-3.7,2.3a.187.187,0,0,0,0,.3l3.7,1.9a.446.446,0,0,0,.5,0l3.7-2.3Zm1.4-13q.3-.15,0-.3l-3.7-1.9a.446.446,0,0,0-.5,0l-3.7,2.3a.187.187,0,0,0,0,.3l3.7,1.9a.446.446,0,0,0,.5,0l3.7-2.3Zm34.7-10-3.7-1.9a.637.637,0,0,0-.6,0l-10.7,6.7a.187.187,0,0,0,0,.3l3.7,1.9a.637.637,0,0,0,.6,0l10.7-6.7C203.8,341,203.9,340.8,203.7,340.8Zm-34.4,17.4a.446.446,0,0,0-.5,0l-3.7,2.3a.187.187,0,0,0,0,.3l3.7,1.9a.446.446,0,0,0,.5,0l3.7-2.3a.187.187,0,0,0,0-.3Zm-1.6-.5q.3-.15,0-.3l-3.7-1.9a.446.446,0,0,0-.5,0l-3.7,2.3a.187.187,0,0,0,0,.3l3.7,1.9a.446.446,0,0,0,.5,0l3.7-2.3Zm41.3-20c.1-.1.2-.2,0-.3l-3.7-1.9a.637.637,0,0,0-.6,0l-3.7,2.3a.187.187,0,0,0,0,.3l3.7,1.9a.637.637,0,0,0,.6,0l3.7-2.3Zm-27.8,13a.446.446,0,0,0-.5,0L177,353a.187.187,0,0,0,0,.3l3.7,1.9a.446.446,0,0,0,.5,0l3.7-2.3a.187.187,0,0,0,0-.3Zm54.6-30.2-3.7-1.9a.637.637,0,0,0-.6,0l-3.7,2.3a.187.187,0,0,0,0,.3l3.7,1.9a.637.637,0,0,0,.6,0l3.7-2.3Q236.1,320.65,235.8,320.5Zm-5.3,3.7c.2-.1.2-.2-.1-.3l-3.7-1.9a.637.637,0,0,0-.6,0l-3.7,2.3a.187.187,0,0,0,0,.3l3.7,1.9a.637.637,0,0,0,.6,0l3.8-2.3Zm10.7-6.7q.3-.15,0-.3l-3.7-1.9a.637.637,0,0,0-.6,0l-3.7,2.3a.187.187,0,0,0,0,.3l3.7,1.9a.637.637,0,0,0,.6,0l3.7-2.3Zm-21.4,13.4c.1-.1.2-.2,0-.3l-3.7-1.9a.637.637,0,0,0-.6,0l-3.7,2.3a.187.187,0,0,0,0,.3l3.7,1.9a.637.637,0,0,0,.6,0l3.7-2.3Zm5.3-3.3q.3-.15,0-.3l-3.7-1.9a.637.637,0,0,0-.6,0l-3.7,2.3a.187.187,0,0,0,0,.3l3.6,1.9a.637.637,0,0,0,.6,0l3.8-2.3Zm-10.7,6.7c.1-.1.2-.2,0-.3l-3.7-1.9a.637.637,0,0,0-.6,0l-3.7,2.3a.187.187,0,0,0,0,.3l3.7,1.9a.637.637,0,0,0,.6,0l3.7-2.3ZM137.9,354a.637.637,0,0,0-.6,0l-3.7,2.3a.187.187,0,0,0,0,.3l1,.5a.446.446,0,0,0,.5,0l3.7-2.3a.187.187,0,0,0,0-.3Zm26.5-18.3a.446.446,0,0,0-.5,0l-3.7,2.3a.187.187,0,0,0,0,.3l3.7,1.9a.446.446,0,0,0,.5,0l3.7-2.3a.187.187,0,0,0,0-.3Zm-10.7,6.8a.446.446,0,0,0-.5,0l-3.7,2.3a.187.187,0,0,0,0,.3l3.7,1.9a.637.637,0,0,0,.6,0l3.7-2.3a.187.187,0,0,0,0-.3ZM171,331.7a.446.446,0,0,0-.5,0l-3.7,2.3a.187.187,0,0,0,0,.3l3.7,1.9a.446.446,0,0,0,.5,0l3.7-2.3a.187.187,0,0,0,0-.3Zm-11.9,7.4a.446.446,0,0,0-.5,0l-3.7,2.3a.187.187,0,0,0,0,.3l3.7,1.9a.446.446,0,0,0,.5,0l3.7-2.3a.187.187,0,0,0,0-.3Zm22.6-14.2a.446.446,0,0,0-.5,0l-3.7,2.3a.187.187,0,0,0,0,.3l3.7,1.9a.446.446,0,0,0,.5,0l3.7-2.3a.187.187,0,0,0,0-.3Zm-5.4,3.3a.446.446,0,0,0-.5,0l-3.7,2.3a.187.187,0,0,0,0,.3l3.7,1.9a.446.446,0,0,0,.5,0l3.7-2.3a.187.187,0,0,0,0-.3Zm-27.7,19.1a.637.637,0,0,0-.6,0l-3.7,2.3a.187.187,0,0,0,0,.3l1,.5a.446.446,0,0,0,.5,0l3.7-2.3a.187.187,0,0,0,0-.3Zm-16.1,10.1a.637.637,0,0,0-.6,0l-3.7,2.3a.187.187,0,0,0,0,.3l1,.5a.446.446,0,0,0,.5,0l3.7-2.3a.187.187,0,0,0,0-.3Zm5.1,2.6a.446.446,0,0,0-.5,0l-3.7,2.3a.187.187,0,0,0,0,.3l3.7,1.9a.446.446,0,0,0,.5,0l3.7-2.3a.187.187,0,0,0,0-.3Zm24.6,7.2c.2-.1.2-.2.1-.3l-3.7-1.9a.446.446,0,0,0-.5,0l-3.7,2.3a.187.187,0,0,0,0,.3l3.7,1.9a.446.446,0,0,0,.5,0l3.6-2.3Zm-18.9-16.6a.637.637,0,0,0-.6,0l-3.7,2.3a.187.187,0,0,0,0,.3l1,.5a.446.446,0,0,0,.5,0l3.7-2.3a.187.187,0,0,0,0-.3Zm43.8-29.2a.446.446,0,0,0-.5,0l-3.7,2.3a.187.187,0,0,0,0,.3l3.7,1.9a.446.446,0,0,0,.5,0l3.7-2.3a.187.187,0,0,0,0-.3Z"/><path class="q" d="M240,330.9l21.7,11.4-.8.5-35.4,22.3-20.9-11-.8-.4Z"/><path class="r" d="M240.1,331.8l20.8,11-35.4,22.3-20.9-11Z"/><path class="s" d="M240.1,331.8l20.8,11-35.4,22.3-20.9-11Z"/><path class="h" d="M104.9,354Z"/><ellipse class="b" cx="39.6" cy="21.5" rx="39.6" ry="21.5" transform="translate(359.1 357)"/><path class="t" d="M349,233.6c1.2,1,2.6,1.5,4.1,3a10.786,10.786,0,0,0,3.7,2.6c1.8.7,3.5.5,8.6-.3,6.2-1,8.8-2,11.5-4.3,3.1-2.7,10.1-10.6,13.4-13.8,3.5-3.3,8.4-2,8.4-2a50.412,50.412,0,0,1-6.7,13.8c-2.7,3.8-7.7,7.5-10,9.4-3.6,3-5.6,4.2-13.6,4.8a92.387,92.387,0,0,1-11.8.5c-1.8-.1-2.9-.1-5.8-.3a25.009,25.009,0,0,1-3.8-.6,11.1,11.1,0,0,1-3.9-1.6,10.024,10.024,0,0,1-3.7-4.2,6.3,6.3,0,0,1-.7-3,4.357,4.357,0,0,1,1.1-2.9,1,1,0,0,1,.5-.4,1.389,1.389,0,0,1,1.1.2c1.9,1.1,3.8,2.1,5.8,3.1,1.7.6,2.9.9,2.8.5s-1.1-.6-2.2-1.8-1.3-2.8-.6-3.3S347.8,232.6,349,233.6Z"/><circle class="j" cx="17" cy="17" r="17" transform="translate(343.1 223.9)"/><path class="r" d="M355.3,247c-8.1-5.9-8.8-17.4-2.4-21.6h0a17.024,17.024,0,1,0,24.2,15.4C376.5,249.1,363.4,252.9,355.3,247Z"/><path class="h" d="M400.1,218.7a9.224,9.224,0,0,0-6.1-.7c-3.1.9-5.6,2.9-8.6,6.1s-8,8.3-8,8.3,2.5,6.2,8,8.5L397,230.1Z"/><path class="u" d="M400.1,218.7a9.224,9.224,0,0,0-6.1-.7c-3.1.9-5.6,2.9-8.6,6.1s-8,8.3-8,8.3,2.5,6.2,8,8.5L397,230.1Z"/><rect class="t" width="7" height="12" transform="translate(410.1 361.3)"/><path class="t" d="M397.7,364.3l-7,.2-.4-12.7,7.4-.3Z"/><path class="r" d="M420.2,271.3c0,6.7-1.2,45.8-1.2,45.8.2,1.9,2,5.4,2.2,12.3.2,10.1-3.7,37.9-3.7,37.9a9.257,9.257,0,0,1-7.8.2s-3.2-37.6-4.5-47.6c-1.1-8.7-3-32.4-3-32.4L398.9,316a42.071,42.071,0,0,1,.9,11.2c-.3,4.6-1.6,33.3-1.6,33.3a9.6,9.6,0,0,1-8.1.7s-5-40.8-5-45.1c-.1-4.8,1.8-54.2,1.8-54.2Z"/><path class="h" d="M415.5,221.8a6.823,6.823,0,0,1,3.4,3.5,15.651,15.651,0,0,1,1,6.1v13.8l.2,26c-10.1,5.3-23,5.7-33.7-2.2,0,0,.6-33.5.6-39v-.8a12.446,12.446,0,0,1,13.3-11.6,20.025,20.025,0,0,1,2.4.4l6.4,1.6,6.4,2.2Z"/><path class="t" d="M366.6,247.7c1.3.8,2.8,1.1,4.5,2.4a8.911,8.911,0,0,0,4,2c1.9.5,16.8-4.6,19.6-6.7,5.6-4.3,10.5-12.5,13.2-15.6,2.2-2.6,4.8-6.4,7.5-6.4,4.5,1.4,3.5,8.1-.3,14.2a56.952,56.952,0,0,1-15.9,15.8c-3.3,2.1-18.4,6-23.4,6.4-1.5.1-2.6.4-5.5.9a14.523,14.523,0,0,1-3.6.2,16.412,16.412,0,0,1-4.3-1.3,11.544,11.544,0,0,1-4.3-3.6,6.057,6.057,0,0,1-1.1-2.9,4.622,4.622,0,0,1,.7-3,1,1,0,0,1,.5-.4,1.376,1.376,0,0,1,1.1.1c2,.8,4.1,1.6,6.1,2.2,1.8.4,3,.4,2.9.1s-1.2-.5-2.4-1.5-1.7-2.6-1.1-3.2S365.2,246.9,366.6,247.7Z"/><circle class="p" cx="9.7" cy="9.7" r="9.7" transform="translate(387.8 186.4)"/><path class="p" d="M414.2,203s-1.6,7.4-2.2,8.6a3.754,3.754,0,0,1-1.9,1.6l.1-5.2Z"/><path class="p" d="M412.2,192.5a3.767,3.767,0,0,1,3,1.1c1.3,1.3.6,5.4-1,9.5l-3,.3Z"/><path class="t" d="M410.4,203.4c.6.4,1.4-.8,2.2-1.6a2.455,2.455,0,0,1,3.6-.2,5.5,5.5,0,0,1,.7.9c1.2,2.6-1,5.9-2.9,6.5-3.2,1-3.7-1.1-3.7-1.1l-.2,12h0c-4,5.2-15.2,4.7-10.5-.7v-3.6a21.308,21.308,0,0,1-4.4.2c-2.4-.4-3.9-2.3-4.6-4.8-1.2-4.1-1.6-7.5-.6-15.6,1.1-8.9,11.4-9,17-5.5S410.4,203.4,410.4,203.4Z"/><path class="p" d="M410.4,204.4c.3,0,1.4-1.9,2.2-2.6,1-.9-.3-9.3-.3-9.3a4.249,4.249,0,0,0-1-4.3c-1.4-1.5-3.7-1.7-7.7-2.3-2.1-.3-5.3-.9-7.4-1.3-2.5-.5-4.6-1-6.3.6a4.448,4.448,0,0,0-1.2,5,4.347,4.347,0,0,0,2.5,2.3s1.1,1,4.9,1.4a52.66,52.66,0,0,0,10.5-.2c1.1-.1,1.3.9,1.9,3.8C408.9,200,409.4,204.4,410.4,204.4Z"/><path class="p" d="M412.2,193.1l3.6-1.9a2,2,0,0,0-2.7-.9h0A2.15,2.15,0,0,0,412.2,193.1Z"/><path class="v" d="M399.4,215.8s5.3-1.1,7.2-2.1a6.948,6.948,0,0,0,2.6-2.5,8.469,8.469,0,0,1-1.5,3c-1.4,1.7-8.3,3-8.3,3Z"/><path class="p" d="M399.7,202a1.1,1.1,0,0,0,1,1.1h0a1.193,1.193,0,0,0,1.2-1.1c.1-.7-.4-1.1-1.1-1.2a1.2,1.2,0,0,0-1.1,1.2Z"/><path class="p" d="M400.8,198l2.3,1.3a1.436,1.436,0,0,0-.5-1.8,1.234,1.234,0,0,0-1.8.5Z"/><path class="v" d="M399.9,209.4l-2.4.9a1.23,1.23,0,0,0,1.6.8h0A1.38,1.38,0,0,0,399.9,209.4Z"/><path class="p" d="M390.5,198.9l2.1-1.6a1.28,1.28,0,0,0-1.8-.3h0A1.417,1.417,0,0,0,390.5,198.9Z"/><path class="p" d="M391.1,201.7a1.051,1.051,0,1,0,2.1-.1,1.028,1.028,0,0,0-1.1-1,1.1,1.1,0,0,0-1,1.1Z"/><path class="v" d="M396.6,200.7l-.4,6.4-3.3-1.1Z"/><path class="p" d="M410.1,369.8v-1c-.7.3-2.2,6.3-5,8.8-2.2,2-5.3,4.4-6,6.6s4.2,3.6,6.3,3.3c2.4-.4,6.6-2.1,7.6-3.7s1.5-3.9,2.4-5,2.8-2.4,3.3-3.8a9.379,9.379,0,0,0-.4-3.7c-.3-1.2-.7-2.6-1.1-2.5v.8a5.5,5.5,0,0,1-3.5,1.2C412.6,370.8,410.1,370.6,410.1,369.8Z"/><path class="p" d="M390.6,362.4c-.4,0-.7.5-1.5,1.4a17.3,17.3,0,0,1-4.1,3c-2.6,1.3-7.8,3.4-10.1,4.4-1.5.6-1.4,2.4.1,3.4s5.1,1.7,9.5.7c2.4-.5,5.5-2.7,7.4-2.6s5.6.1,7-.9.9-3.1.5-4.9c-.4-2-1-5.1-1.7-4.9v.7c-.8,1.3-5.2,1.8-7.1.9Z"/><path class="p" d="M402.2,287.4a26.639,26.639,0,0,1-9.8-5.6s1.9,3.5,7.5,6.8l-.8,24.9Z"/><path class="h" d="M415.6,221.8c3.4,1.6,4.7,4.1,3.2,9.7-1.3,5-6.5,13.5-10.5,17.7,0,0-6.9-3.3-10.6-7.5,3.6-5.6,5.4-8.8,8.8-13.6S413.6,221.2,415.6,221.8Z"/><g class="w"><path d="M415.6,221.8c3.4,1.6,4.7,4.1,3.2,9.7-1.3,5-6.5,13.5-10.5,17.7,0,0-6.9-3.3-10.6-7.5,3.6-5.6,5.4-8.8,8.8-13.6S413.6,221.2,415.6,221.8Z"/></g><path class="x" d="M285.1,267.9c-6.7,0-12.1,3.1-12.1,7v16.8c0,3.8,5.4,7,12.1,7s12.1-3.1,12.1-7V274.9C297.2,271,291.8,267.9,285.1,267.9Z"/><path class="h" d="M285.1,267.9c-6.7,0-12.1,3.1-12.1,7v16.8c0,3.8,5.4,7,12.1,7s12.1-3.1,12.1-7V274.9C297.2,271,291.8,267.9,285.1,267.9Z"/><path class="u" d="M273.1,274.9v16.8c0,3.1,3.5,5.7,8.4,6.6v-30C276.6,269.1,273.1,271.8,273.1,274.9Z"/><path class="x" d="M299,276.5c.1-.1,33.4-53.8,33.4-53.8s-16.8,10.9-47.3,10.9a129.069,129.069,0,0,1-16.4-1.1c-20.1-2.8-31-9.8-31-9.8l33.4,53.8h0c2,3.3,7.5,5.6,13.9,5.6s12-2.3,14-5.6Z"/><path class="m" d="M260.9,236.6l-5.1-6.7c-11.8-3.2-18.1-7.2-18.1-7.2l33.4,53.8h0c1.6,2.6,5.5,4.7,10.3,5.4Z"/><path class="h" d="M327.3,180.9c-10.2-5.9-23.1-9.2-36.4-9.9h0c-17.1-.9-34.7,2.4-47.7,9.9-23.2,13.4-23.2,35.2,0,48.6a71.147,71.147,0,0,0,17.9,7.1,100.41,100.41,0,0,0,50.2-.5c2.2-.6,4.4-1.3,6.5-2.1.9-.3,1.7-.7,2.6-1h0a37.27,37.27,0,0,0,3.5-1.6,39.013,39.013,0,0,0,3.5-1.9C350.5,216.1,350.5,194.3,327.3,180.9Z"/><path class="u" d="M290.8,171c-17.1-.9-34.7,2.4-47.7,9.9-23.2,13.4-23.2,35.2,0,48.6a71.147,71.147,0,0,0,17.9,7.1h0c-2.2-3.1-3.7-10.5.6-10.9a63.624,63.624,0,0,1-15.8-6.3c-6.7-3.9-11.2-8.5-13.1-13.3a14,14,0,0,1,1.1-12.4c2.3-4,6.5-7.8,12-11,11.1-6.4,26.2-9.5,41.1-9.2C286.8,173.4,286.4,171.6,290.8,171Z"/><path class="y" d="M324.5,182.7c-10.3-5.9-23.9-9-37.7-9.2-14.9-.3-30,2.8-41.1,9.2-5.5,3.2-9.7,7-12,11a13.409,13.409,0,0,0-1.1,12.4c1.9,4.8,6.4,9.4,13.1,13.3a65.2,65.2,0,0,0,15.8,6.3c2.2.6,4.4,1.1,6.7,1.5a84.1,84.1,0,0,0,12.3,1.3c.8,0,1.7.1,2.5.1h4.2a98.716,98.716,0,0,0,14.3-1.3h.2a73.154,73.154,0,0,0,9-2.1,52.893,52.893,0,0,0,6-2.1c.8-.3,1.6-.7,2.4-1,.9-.4,1.9-.9,2.8-1.3s1.7-.9,2.6-1.4c5.5-3.2,9.7-7,12-11C341.6,199.5,337.1,189.9,324.5,182.7Z"/><path class="x" d="M285.1,211.3c-14,0-25.9,5-30.6,12.1a56.819,56.819,0,0,0,7,2.2c2.2.6,4.4,1.1,6.7,1.5a82.748,82.748,0,0,0,12.2,1.3c.8,0,1.7.1,2.5.1h4.2a98.716,98.716,0,0,0,14.3-1.3h.2a73.154,73.154,0,0,0,9-2.1c1.7-.5,3.4-1.1,5.1-1.7C311,216.4,299.1,211.3,285.1,211.3Z"/><circle class="z" cx="5.7" cy="5.7" r="5.7" transform="translate(293.7 206.1)"/><path class="u" d="M297.8,213.8c-2.7-2-2.9-5.8-.8-7.2h0a5.661,5.661,0,0,0,4.7,10.3,5.748,5.748,0,0,0,3.3-5.2C304.9,214.5,300.6,215.8,297.8,213.8Z"/><circle class="j" cx="9.5" cy="9.5" r="9.5" transform="translate(309.5 176.5)"/><path class="r" d="M316.3,189.4c-4.5-3.3-4.9-9.8-1.4-12.1h0a9.551,9.551,0,1,0,13.6,8.6C328.1,190.6,320.8,192.7,316.3,189.4Z"/><circle class="z" cx="7.5" cy="7.5" r="7.5" transform="translate(247.7 154.9)"/><path class="aa" d="M253.1,165.1c-3.6-2.6-3.9-7.7-1.1-9.5h0a7.449,7.449,0,1,0,6.3,13.5,7.529,7.529,0,0,0,4.3-6.8C262.4,166,256.7,167.7,253.1,165.1Z"/><path class="h" d="M245.4,198.2l3.9-8.6a3,3,0,0,1,2.1-1.5l8.7-1.2a2.99,2.99,0,0,1,2.3,1.1l5.5,7.7a2.5,2.5,0,0,1,.2,2.5l-3.9,8.6a3,3,0,0,1-2.1,1.5l-8.7,1.2a2.845,2.845,0,0,1-2.3-1.1l-5.5-7.7A2.486,2.486,0,0,1,245.4,198.2Z"/><path class="u" d="M251.1,208.5a2.99,2.99,0,0,0,2.3,1.1l8.7-1.2a2.969,2.969,0,0,0,2-1.3c-.4.5-.9.5-1.3-.1l-5.5-7.7a2.842,2.842,0,0,1-.4-1.2l-11.6,1.5a2.45,2.45,0,0,0,.4,1.2Z"/><path class="ab" d="M262.3,187.9c-.5-.5-1-.4-1.3.3l-4,8.6a2.22,2.22,0,0,0-.1,1.6.367.367,0,0,0-.1-.3l-11.6,1.5a2,2,0,0,1,.2-1.3l3.9-8.6a3,3,0,0,1,2.1-1.5l8.7-1.2A2.737,2.737,0,0,1,262.3,187.9Z"/><path class="h" d="M299.7,149.3l8-1a2.438,2.438,0,0,1,2,.8l4.8,5.7a2.581,2.581,0,0,1,.3,2.1l-3.1,7.4a2.256,2.256,0,0,1-1.7,1.3l-8,1a2.438,2.438,0,0,1-2-.8l-4.7-5.7a2.581,2.581,0,0,1-.3-2.1l3.1-7.4A1.835,1.835,0,0,1,299.7,149.3Z"/><path class="u" d="M294.9,158a2.012,2.012,0,0,0,.3,2.1l4.8,5.7a2.342,2.342,0,0,0,1.8.8c-.5,0-.8-.4-.5-1l3.1-7.4a3.114,3.114,0,0,1,.7-.9l-6.3-7.7a2.178,2.178,0,0,0-.7.9Z"/><path class="ab" d="M314.7,156.8a.636.636,0,0,0-.8-.8l-8,1a2.281,2.281,0,0,0-1.2.6l.2-.2-6.3-7.7a3.128,3.128,0,0,1,1-.5l7.9-1a2.438,2.438,0,0,1,2,.8l4.8,5.7A2.34,2.34,0,0,1,314.7,156.8Z"/><path class="r" d="M280.9,181.7l4.3.1a1.1,1.1,0,0,1,1,.6l2.1,3.4a1.275,1.275,0,0,1,0,1.2l-2.2,3.7a1.7,1.7,0,0,1-1,.6l-4.3-.1a1.326,1.326,0,0,1-1-.6l-2.1-3.4a1.275,1.275,0,0,1,0-1.2l2.2-3.7A1.1,1.1,0,0,1,280.9,181.7Z"/><path class="ac" d="M288.3,186.8c.1-.3,0-.5-.4-.5l-4.3-.1a1.446,1.446,0,0,0-.7.2l.1-.1-2.7-4.6a1.421,1.421,0,0,1,.6-.2l4.3.1a1.1,1.1,0,0,1,1,.6l2.1,3.4A2.4,2.4,0,0,1,288.3,186.8Z"/><path class="p" d="M277.7,185.9a1.275,1.275,0,0,0,0,1.2l2.1,3.4a1.456,1.456,0,0,0,.9.6c-.3-.1-.4-.3-.2-.6l2.2-3.7a1,1,0,0,1,.5-.4l-2.7-4.6a1.756,1.756,0,0,0-.5.4Z"/><circle class="z" cx="6.3" cy="6.3" r="6.3" transform="translate(274.2 308.6)"/><path class="u" d="M278.7,317.2c-3-2.2-3.2-6.5-.9-8h0a6.331,6.331,0,0,0,5.3,11.5,6.3,6.3,0,0,0,3.6-5.7C286.5,318,281.7,319.4,278.7,317.2Z"/><circle class="z" cx="3.7" cy="3.7" r="3.7" transform="translate(288.6 299.2)"/><path class="u" d="M291.2,304.3c-1.8-1.3-1.9-3.8-.5-4.7h0a3.758,3.758,0,1,0,5.4,3.4C295.9,304.8,293,305.6,291.2,304.3Z"/><path class="r" d="M261.8,134.7l1.7-12.6a3.634,3.634,0,0,1,2.1-2.7l10.7-4.9a3.732,3.732,0,0,1,3.4.5l10.1,7.8a3.894,3.894,0,0,1,1.3,3.2l-1.7,12.6a3.634,3.634,0,0,1-2.1,2.7l-10.7,4.9a3.732,3.732,0,0,1-3.4-.5l-10.1-7.8A3.776,3.776,0,0,1,261.8,134.7Z"/><path class="ac" d="M279.6,114.8c-.8-.4-1.4-.1-1.6.9l-1.7,12.6a3.424,3.424,0,0,0,.5,2.2c-.1-.1-.1-.3-.2-.4l-14.4,6.4a4.671,4.671,0,0,1-.3-1.7l1.7-12.6a3.634,3.634,0,0,1,2.1-2.7l10.8-4.9A3.135,3.135,0,0,1,279.6,114.8Z"/><path class="p" d="M273.2,145.7a3.776,3.776,0,0,0,3.4.5l10.7-4.9a3.7,3.7,0,0,0,2-2.4c-.3.8-1,1-1.8.4l-10.1-7.8a3.316,3.316,0,0,1-1-1.4L262,136.5a2.981,2.981,0,0,0,1,1.4Z"/></g></svg>