<svg xmlns="http://www.w3.org/2000/svg" xmlns:xlink="http://www.w3.org/1999/xlink" width="439.5" height="408.875" viewBox="0 0 439.5 408.875"><defs><style>.a{fill:#f5f5f5;}.b{fill:#263238;}.c{fill:#455a64;}.d{fill:#37474f;}.aa,.e{fill:#e0e0e0;}.f,.n,.v{fill:#fff;}.g{fill:#e6e6e6;}.h{fill:#ff3600;}.i{fill:#06826a;}.j{opacity:0.2;}.k,.l{fill:none;stroke:#fff;stroke-linecap:round;}.k{stroke-linejoin:round;}.l{stroke-miterlimit:10;}.m{opacity:0.8;}.n{opacity:0.1;}.o{opacity:0.25;}.p{fill:#ebebeb;}.q{fill:#fafafa;}.r{clip-path:url(#a);}.s{fill:#ffa8a7;}.t{opacity:0.6;}.u{opacity:0.4;}.aa,.v{opacity:0.5;}.w{fill:#f28f8f;}.x{fill:#d6d6d6;}.y{fill:#bab9b9;}.z{fill:#f0f0f0;}.ab{fill:#ddd;}</style><clipPath id="a"><path d="M198.7,214.4l-4,2.3,2.2.5-.7,12.1-10.3,5.9V211l14-8.1v10.8Z"/></clipPath></defs><g transform="translate(-31.75 -56.8)"><path class="a" d="M406.9,281.6c-85.8-42.1-225-42.1-310.8,0S10.3,392,96.1,434.1s225,42.1,310.8,0S492.7,323.7,406.9,281.6Z"/><path class="b" d="M171.7,248.4a6.42,6.42,0,0,1,2.8,4.5l4.4,42.9a6.657,6.657,0,0,0,3,4.6l19.6,11.3a5.3,5.3,0,0,1,2.1,2.1,5.01,5.01,0,0,1-2.1,6.8l-54.6,31.5a6.152,6.152,0,0,1-5.3,0l-25.5-14.7a4.7,4.7,0,0,1-2.1-4.6l9.8-56.8a7.529,7.529,0,0,1,3.2-4.6l39.6-22.9A5.422,5.422,0,0,1,171.7,248.4Z"/><path class="c" d="M194.2,313.3h8.9a5.692,5.692,0,0,1,1.1,2.9,5.406,5.406,0,0,1-2.7,4.4l-54.6,31.5a4.9,4.9,0,0,1-2.7.6V342.1Z"/><path class="b" d="M172.7,251a1.88,1.88,0,0,1,1.8,1.9l4.4,42.9a6.657,6.657,0,0,0,3,4.6l19.6,11.3c1.5.9,1.5,2.2,0,3.1l-54.6,31.5a6.152,6.152,0,0,1-5.3,0L122,335a4.7,4.7,0,0,1-2.1-4.6l9-51.6a7.529,7.529,0,0,1,3.2-4.6l39.6-22.9A1.493,1.493,0,0,1,172.7,251Z"/><path class="d" d="M201.5,314.8l-54.6,31.5a6.152,6.152,0,0,1-5.3,0L122,335a4.626,4.626,0,0,1-1.8-2.1l59.7-34.5a7.277,7.277,0,0,0,1.9,2l19.6,11.3C203,312.6,203,313.9,201.5,314.8Z"/><path class="c" d="M48.2,361.5,255.4,241.9a7.985,7.985,0,0,0,3.7-6.4V65.3a8.314,8.314,0,0,0-3.7-6.5l-1.9-1.1a8.262,8.262,0,0,0-7.5,0L38.2,177a7.985,7.985,0,0,0-3.7,6.4V353.5a8.314,8.314,0,0,0,3.7,6.5l2.5,1.5A8.262,8.262,0,0,0,48.2,361.5Z"/><path class="b" d="M49.4,360.8l-1.3.7a8.055,8.055,0,0,1-7.4,0l-2.5-1.4a8.017,8.017,0,0,1-3.7-6.5V183.5a6.959,6.959,0,0,1,1.1-3.7l13.9,8Z"/><path class="d" d="M48.2,361.5,255.4,241.9a7.985,7.985,0,0,0,3.7-6.4V65.4c0-2.4-1.7-3.3-3.7-2.2L48.2,182.8a7.985,7.985,0,0,0-3.7,6.4V359.3C44.4,361.7,46.1,362.7,48.2,361.5Z"/><path class="e" d="M139.1,300.4c0,1.6,1.2,2.2,2.7,1.3l19.6-11.3a6.106,6.106,0,0,0,2.7-4.4c0-1.6-1.2-2.2-2.7-1.4L141.7,296A5.546,5.546,0,0,0,139.1,300.4Z"/><path class="f" d="M51.9,191.7V339.6c0,1.4.9,1.9,2.1,1.2L249.1,228.1a4.6,4.6,0,0,0,2.1-3.7V76.3c0-1.4-.9-1.9-2.1-1.2L54,188A4.5,4.5,0,0,0,51.9,191.7Z"/><path class="g" d="M57.5,197.5V328.6c0,1.7,1.2,2.5,2.7,1.6L243.5,224.4a6.109,6.109,0,0,0,2.7-4.8V90.9c0-3.8-2.7-5.3-5.9-3.4L61.3,190.9A8.045,8.045,0,0,0,57.5,197.5Z"/><path class="h" d="M57.5,203v-5.5a8.447,8.447,0,0,1,3.8-6.6l179-103.4c3.3-1.9,5.9-.3,5.9,3.4V94Z"/><path class="f" d="M223.4,102.2a4.559,4.559,0,0,1-2,3.5c-1.1.7-2,.1-2-1.2a4.559,4.559,0,0,1,2-3.5C222.6,100.4,223.5,100.9,223.4,102.2Z"/><path class="f" d="M231.5,97.6a4.559,4.559,0,0,1-2,3.5c-1.1.7-2,.1-2-1.2a4.559,4.559,0,0,1,2-3.5C230.6,95.7,231.5,96.3,231.5,97.6Z"/><path class="f" d="M239.6,92.9a4.559,4.559,0,0,1-2,3.5c-1.1.7-2,.1-2-1.2a4.559,4.559,0,0,1,2-3.5C238.7,91.1,239.6,91.6,239.6,92.9Z"/><path class="i" d="M66.8,392.6a49.075,49.075,0,0,0-4-17.7c-4-9.6-12.2-14.6-16.5-15.3s-8.8,4.6-3.3,10.9,16.1,14.7,19.2,27.4l5,8.7Z"/><path class="j" d="M66.8,392.6a49.075,49.075,0,0,0-4-17.7c-4-9.6-12.2-14.6-16.5-15.3s-8.8,4.6-3.3,10.9,16.1,14.7,19.2,27.4l5,8.7Z"/><path class="k" d="M46.3,362.5c8.9,5.3,19.3,19.2,20.7,37.8"/><path class="i" d="M66.2,415.4c-1.2-4.9-4.5-9.7-10.9-14.6s-15-9-14.3-13.9,7.2-4.6,12-2.4,13.1,11.2,14.2,22Z"/><path class="k" d="M45.5,385.4c6.2,1.5,19.5,13.7,21.4,24.1"/><path class="i" d="M272,271.8c.3-4.3,3.7-11.6,8.6-16.8s12.8-7.7,17.6-5.6c4.5,2,3.5,8-2.4,11.6-6,3.6-14.8,8-17.8,14.7l-5.9,8.1v-12Z"/><path class="j" d="M272,271.8c.3-4.3,3.7-11.6,8.6-16.8s12.8-7.7,17.6-5.6c4.5,2,3.5,8-2.4,11.6-6,3.6-14.8,8-17.8,14.7l-5.9,8.1v-12Z"/><path class="l" d="M296.3,251.3c-5.6,1.1-22.1,11.7-24.3,27.7"/><path class="i" d="M272.7,291.1c.9-2.3,4.6-6.6,10-8.6,5.4-2.1,9.5-4,11.5-7.3,2-3.4-1.5-6.7-6.9-6.4-5.5.2-14.6,6-15.2,15.1Z"/><path class="l" d="M290,271.4c-4.7.5-16.2,7.4-17.8,15.2"/><path d="M227.2,292.3l25.8-15,25.9,15L253,307.2Z"/><path class="d" d="M253,277.3V251.8l-26.3,15.3,22,12.7Z"/><path class="b" d="M253,251.8v25.5l4.4,2.5,22-12.7Z"/><path class="b" d="M226.7,267.1V292L253,307.2V282.3Z"/><path class="d" d="M253,282.3v24.9L279.4,292V267.1Z"/><path class="c" d="M253,282.3l.6,23.9,19.1-10.4L253,307.2Z"/><g class="m"><path class="e" d="M260.1,300.6a.1.1,0,0,1-.1-.1v-3.1a.1.1,0,0,1,.2,0v3.2Z"/><path class="e" d="M259.7,298.4h0c-.1,0-.1-.1-.1-.2h0l.5-1.2.6.6c.1,0,.1.1,0,.2h0c-.1.1-.1.1-.2,0h0l-.3-.3-.3.8c0,.1-.1.2-.2.1Z"/><path class="e" d="M261.4,299.9a.1.1,0,0,1-.1-.1v-3.1a.1.1,0,1,1,.2,0v3.1C261.6,299.8,261.5,299.9,261.4,299.9Z"/><path class="e" d="M261,297.7h0c-.1,0-.2-.1-.1-.2l.5-1.2.6.6c.1,0,.1.1,0,.2h0c-.1.1-.1.1-.2,0h0l-.3-.3-.3.8C261.1,297.7,261.1,297.7,261,297.7Z"/></g><g class="m"><path class="e" d="M256.4,302.8h-.2c-.1-.1-.2-.2-.2-.3v-.4a.1.1,0,1,1,.2,0v.5h.1a.864.864,0,0,0,.3-.6v-1.6a.1.1,0,0,1,.2,0V302a1.086,1.086,0,0,1-.4.9C256.5,302.8,256.4,302.8,256.4,302.8Z"/><path class="e" d="M254.9,301.5v-.2a3.892,3.892,0,0,1,1.8-3.1,1.392,1.392,0,0,1,1.4-.1,1.563,1.563,0,0,1,.6,1.2v.1Zm2.6-3.4a1.445,1.445,0,0,0-.7.2,3.47,3.47,0,0,0-1.6,2.6l3.2-1.8a.975.975,0,0,0-.4-.9C257.8,298.2,257.7,298.1,257.5,298.1Z"/></g><path class="c" d="M253,251.8l-26.3,15.3L253,282.3l26.4-15.2Z"/><path class="n" d="M226.7,267.1,253,281.4l26.4-14.3L253,282.3Z"/><path class="h" d="M237.6,260.7,264,276l4.1-2.4-26.4-15.2Z"/><path class="h" d="M268.1,273.6v5.2l-.5-.3-.5.9-.6-.3-.5.9-.5-.3-.5.9-.5-.3-.5.8V276Z"/><path class="o" d="M268.1,273.6v5.2l-.5-.3-.5.9-.6-.3-.5.9-.5-.3-.5.9-.5-.3-.5.8V276Z"/><path d="M223.9,264.5l25.9-14.9,25.8,14.9-25.8,14.9Z"/><path class="d" d="M249.8,249.6V224.1l-26.4,15.2,22.1,12.8Z"/><path class="b" d="M249.8,224.1v25.5l4.3,2.5,22-12.8Z"/><path class="b" d="M223.4,239.3v24.9l26.4,15.2V254.6Z"/><path class="d" d="M249.8,254.6v24.8l26.3-15.2V239.3Z"/><path class="c" d="M249.8,254.6l.5,23.9,19.1-10.4-19.6,11.3Z"/><g class="m"><path class="e" d="M256.8,272.9a.1.1,0,0,1-.1-.1v-3.1a.1.1,0,0,1,.2,0v3.1C257,272.9,256.9,272.9,256.8,272.9Z"/><path class="e" d="M256.4,270.7h0c-.1,0-.1-.1-.1-.2l.5-1.2.5.6c.1.1,0,.1,0,.2-.1.1-.1,0-.2,0l-.3-.3-.3.8c.1.1,0,.1-.1.1Z"/><path class="e" d="M258.1,272.2a.1.1,0,0,1-.1-.1V269a.1.1,0,0,1,.2,0v3.1C258.3,272.1,258.2,272.2,258.1,272.2Z"/><path class="e" d="M257.7,270h0c-.1,0-.1-.1-.1-.2h0l.5-1.1.6.6c.1.1,0,.1,0,.2-.1.1-.1,0-.2,0l-.3-.3-.3.8Z"/></g><g class="m"><path class="e" d="M253.1,275.1h-.2c-.1-.1-.2-.2-.2-.3v-.4a.1.1,0,0,1,.1-.1l.1.1v.4h.1a.864.864,0,0,0,.3-.6v-1.6c0-.1.1-.1.2-.1a.1.1,0,0,1,.1.1v1.6a1.086,1.086,0,0,1-.4.9C253.2,275,253.2,275,253.1,275.1Z"/><path class="e" d="M251.6,273.8v-.2a3.892,3.892,0,0,1,1.8-3.1,1.392,1.392,0,0,1,1.4-.1,1.563,1.563,0,0,1,.6,1.2v.1Zm2.6-3.4a1.854,1.854,0,0,0-.7.2,3.47,3.47,0,0,0-1.6,2.6l3.2-1.8a.975.975,0,0,0-.4-.9C254.5,270.5,254.4,270.4,254.2,270.4Z"/></g><path class="c" d="M249.8,224.1l-26.4,15.2,26.4,15.3,26.3-15.3Z"/><path class="n" d="M223.4,239.3l26.4,14.3,26.3-14.3-26.3,15.3Z"/><path class="i" d="M234.3,233l26.4,15.2,4.1-2.3-26.4-15.2Z"/><path class="i" d="M264.8,245.9v5.2l-.5-.3-.5.9-.5-.3-.6.8-.5-.3-.5.9-.5-.3-.5.9v-5.2Z"/><path class="o" d="M264.8,245.9v5.2l-.5-.3-.5.9-.5-.3-.6.8-.5-.3-.5.9-.5-.3-.5.9v-5.2Z"/><path d="M230.1,243.4l25.8-14.9,25.9,14.9-25.9,14.9Z"/><path class="d" d="M255.9,228.5V203l-26.3,15.2,22,12.8Z"/><path class="b" d="M255.9,203v25.5l4.3,2.5,22.1-12.8Z"/><path class="b" d="M229.6,218.2v24.9l26.3,15.2V233.5Z"/><path class="d" d="M255.9,233.5v24.8l26.4-15.2V218.2Z"/><path class="c" d="M255.9,233.5l.5,23.9L275.6,247l-19.7,11.3Z"/><g class="m"><path class="e" d="M263,251.8a.1.1,0,0,1-.1-.1v-3.1a.1.1,0,1,1,.2,0v3.1A.1.1,0,0,1,263,251.8Z"/><path class="e" d="M262.6,249.6h0c-.1,0-.1-.1-.1-.2l.5-1.2.5.6c.1.1,0,.1,0,.2-.1.1-.1,0-.2,0l-.3-.3-.3.8c0,.1,0,.1-.1.1Z"/><path class="e" d="M264.3,251.1a.1.1,0,0,1-.1-.1v-3.1a.1.1,0,0,1,.2,0V251A.1.1,0,0,1,264.3,251.1Z"/><path class="e" d="M263.9,248.9h0c-.1,0-.1-.1-.1-.2h0l.5-1.1.6.6c.1.1,0,.1,0,.2-.1.1-.1,0-.2,0l-.3-.3-.3.8Z"/></g><g class="m"><path class="e" d="M259.3,253.9h-.2c-.1-.1-.2-.2-.2-.3v-.4a.1.1,0,0,1,.2,0v.4h.1a.864.864,0,0,0,.3-.6v-1.6a.1.1,0,0,1,.2,0V253a1.086,1.086,0,0,1-.4.9Z"/><path class="e" d="M257.8,252.6v-.2a3.892,3.892,0,0,1,1.8-3.1,1.392,1.392,0,0,1,1.4-.1,1.563,1.563,0,0,1,.6,1.2v.1Zm2.6-3.3a1.854,1.854,0,0,0-.7.2,3.47,3.47,0,0,0-1.6,2.6l3.2-1.8a.975.975,0,0,0-.4-.9A.9.9,0,0,0,260.4,249.3Z"/></g><path class="c" d="M255.9,203l-26.3,15.2,26.3,15.3,26.4-15.3Z"/><path class="n" d="M229.6,218.2l26.3,14.3,26.4-14.3-26.4,15.3Z"/><path class="h" d="M240.5,211.9l26.4,15.2,4-2.3-26.3-15.2Z"/><path class="h" d="M270.9,224.8v5.1l-.5-.2-.5.8-.5-.3-.5.9-.5-.3-.5.9-.5-.3-.5.9v-5.2Z"/><path class="o" d="M270.9,224.8v5.1l-.5-.2-.5.8-.5-.3-.5.9-.5-.3-.5.9-.5-.3-.5.9v-5.2Z"/><path d="M190.6,185.7l25.8-14.9,25.8,14.9-25.8,14.9Z"/><path class="d" d="M216.4,170.8V145.3l-26.3,15.2,22,12.8Z"/><path class="b" d="M216.4,145.3v25.5l4.3,2.5,22.1-12.8Z"/><path class="b" d="M190.1,160.5v24.9l26.3,15.2V175.8Z"/><path class="d" d="M216.4,175.8v24.8l26.4-15.2V160.5Z"/><path class="c" d="M216.4,175.8l.5,23.9,19.2-10.4-19.7,11.3Z"/><g class="m"><path class="e" d="M223.5,194.1c-.1,0-.1-.1-.2-.1v-3.1c0-.1.1-.1.2-.1a.1.1,0,0,1,.1.1V194A.1.1,0,0,1,223.5,194.1Z"/><path class="e" d="M223.1,191.9h0c-.1,0-.1-.1-.1-.2l.5-1.2.6.6c.1.1,0,.1,0,.2-.1.1-.1,0-.2,0l-.3-.3-.3.8a.31.31,0,0,1-.2.1Z"/><path class="e" d="M224.8,193.3a.1.1,0,0,1-.1-.1v-3.1a.1.1,0,0,1,.1-.1l.1.1v3.1C224.9,193.3,224.9,193.3,224.8,193.3Z"/><path class="e" d="M224.4,191.1h0c-.1,0-.1-.1-.1-.2h0l.5-1.1.6.6c.1.1,0,.1,0,.2-.1.1-.1,0-.2,0l-.3-.3-.3.8c-.1,0-.2.1-.2,0Z"/></g><g class="m"><path class="e" d="M219.7,196.2h-.2c-.1-.1-.2-.2-.2-.3v-.4a.1.1,0,0,1,.1-.1l.1.1v.4h.1a.864.864,0,0,0,.3-.6v-1.6c0-.1.1-.1.2-.1a.1.1,0,0,1,.1.1v1.6a1.086,1.086,0,0,1-.4.9Z"/><path class="e" d="M218.2,194.9v-.2a3.892,3.892,0,0,1,1.8-3.1,1.392,1.392,0,0,1,1.4-.1,1.563,1.563,0,0,1,.6,1.2v.1Zm2.7-3.3a1.854,1.854,0,0,0-.7.2,3.47,3.47,0,0,0-1.6,2.6l3.2-1.8a.975.975,0,0,0-.4-.9A1.087,1.087,0,0,0,220.9,191.6Z"/></g><path class="c" d="M216.4,145.3l-26.3,15.2,26.3,15.3,26.4-15.3Z"/><path class="n" d="M190.1,160.5l26.3,14.3,26.4-14.3-26.4,15.3Z"/><path class="i" d="M201,154.2l26.4,15.2,4-2.3-26.3-15.3Z"/><path class="i" d="M231.4,167.1v5.1l-.5-.3-.5.9-.5-.3-.5.9-.5-.3-.5.9-.5-.3-.5.9v-5.2Z"/><path class="o" d="M231.4,167.1v5.1l-.5-.3-.5.9-.5-.3-.5.9-.5-.3-.5.9-.5-.3-.5.9v-5.2Z"/><path class="b" d="M70.4,289.9a2.748,2.748,0,0,1-1.2-2.2v-78a2.748,2.748,0,0,1,1.2-2.2l27.9-16.1a2.285,2.285,0,0,1,3.2.7,3.259,3.259,0,0,1,.4,1.3v5.2c0,.8.5,1.1,1.2.7L138,179.2a2.285,2.285,0,0,1,3.2.7,3.258,3.258,0,0,1,.4,1.3V301.1l-25.7,14.8Z"/><path class="c" d="M140.4,179.3a2.548,2.548,0,0,0-2.4,0l-34.9,20.1c-.7.4-1.2.1-1.2-.7v-5.2a2.348,2.348,0,0,0-2.3-2.4,2.01,2.01,0,0,0-1.3.4L70.4,207.6a2.581,2.581,0,0,0-.9.9l16,9.2,56-32.4v-3.9A2.609,2.609,0,0,0,140.4,179.3Z"/><path class="d" d="M140.3,180.7l-37.2,21.5c-.7.4-1.2.1-1.2-.7v-7.9c0-.8-.5-1.1-1.2-.7L72.8,209a2.748,2.748,0,0,0-1.2,2.2v75.3a2.748,2.748,0,0,0,1.2,2.2l45.4,26.2,23.3-13.5v-120C141.6,180.6,141,180.3,140.3,180.7Z"/><path class="b" d="M71.9,287.6a1.962,1.962,0,0,0,.9.9l45.4,26.2,23.3-13.5V247.3Z"/><path class="a" d="M77.5,304.8l-.3-.2a2.062,2.062,0,0,1-1-1.7V229.7a2.062,2.062,0,0,1,1-1.7l75-43.3a2.335,2.335,0,0,1,2,0l.3.2a2.062,2.062,0,0,1,1,1.7v73.2a2.062,2.062,0,0,1-1,1.7l-75,43.3A2.332,2.332,0,0,1,77.5,304.8Z"/><path class="e" d="M80.9,231.2l-4.4-2.5a1.689,1.689,0,0,0-.3,1v73.2a2.062,2.062,0,0,0,1,1.7l.3.2a2.335,2.335,0,0,0,2,0l1.3-.8V231.2Z"/><path class="p" d="M78.5,304.2V231a2.062,2.062,0,0,1,1-1.7l75-43.3c.5-.3,1-.1,1,.6v73.2a2.062,2.062,0,0,1-1,1.7l-75,43.3A.633.633,0,0,1,78.5,304.2Z"/><path class="f" d="M84.4,231.8l65.2-37.6c.7-.4,1.2-.1,1.2.7v56.4a2.748,2.748,0,0,1-1.2,2.2L84.4,291.1c-.7.4-1.2.1-1.2-.7V234A2.748,2.748,0,0,1,84.4,231.8Z"/><path class="i" d="M95.2,229c4.1-2.3,7.4-.4,7.4,4.2a16.05,16.05,0,0,1-7.4,12.7c-4.1,2.3-7.4.4-7.4-4.2A16.924,16.924,0,0,1,95.2,229Z"/><path class="i" d="M102,246a3.43,3.43,0,0,1,4.5-1.4,5.546,5.546,0,0,1,.8.6l8.5,8.8,16.1-39.5a3.35,3.35,0,0,1,4.4-1.8,3.168,3.168,0,0,1,1.6,1.4l12.9,22.4v14.7a2.748,2.748,0,0,1-1.2,2.2L84.4,291c-.7.4-1.2.1-1.2-.7V281Z"/><path class="a" d="M91.6,312.9l-.3-.2a2.062,2.062,0,0,1-1-1.7V237.8a2.062,2.062,0,0,1,1-1.7l75-43.3a2.335,2.335,0,0,1,2,0l.3.2a2.062,2.062,0,0,1,1,1.7v73.2a2.062,2.062,0,0,1-1,1.7L93.5,313A2.51,2.51,0,0,1,91.6,312.9Z"/><path class="e" d="M94.9,239.3l-4.4-2.5a1.689,1.689,0,0,0-.3,1V311a2.062,2.062,0,0,0,1,1.7l.3.2a2.335,2.335,0,0,0,2,0l1.3-.8V239.3Z"/><path class="p" d="M92.5,312.3V239.1a2.062,2.062,0,0,1,1-1.7l75-43.3c.5-.3,1-.1,1,.6v73.2a2.062,2.062,0,0,1-1,1.7L93.5,313A.7.7,0,0,1,92.5,312.3Z"/><path class="f" d="M98.5,239.9l65.2-37.7c.7-.4,1.2-.1,1.2.7v56.4a2.748,2.748,0,0,1-1.2,2.2L98.5,299.2c-.7.4-1.2.1-1.2-.7V242.1A2.509,2.509,0,0,1,98.5,239.9Z"/><path class="i" d="M109.2,237.1c4.1-2.3,7.4-.4,7.4,4.2s-3.3,10.4-7.4,12.7-7.4.4-7.4-4.2C101.9,245.1,105.2,239.4,109.2,237.1Z"/><path class="i" d="M116,254.1a3.43,3.43,0,0,1,4.5-1.4,5.546,5.546,0,0,1,.8.6l8.5,8.8,16.1-39.5a3.35,3.35,0,0,1,4.4-1.8,3.168,3.168,0,0,1,1.6,1.4l12.9,22.4v14.7a2.748,2.748,0,0,1-1.2,2.2L98.4,299.2c-.7.4-1.2.1-1.2-.7v-9.3Z"/><path class="a" d="M105.5,320.9l-.3-.2a2.062,2.062,0,0,1-1-1.7V245.8a2.062,2.062,0,0,1,1-1.7l75-43.3a2.335,2.335,0,0,1,2,0l.3.2a2.062,2.062,0,0,1,1,1.7v73.2a2.062,2.062,0,0,1-1,1.7l-75,43.3A2.332,2.332,0,0,1,105.5,320.9Z"/><path class="e" d="M108.9,247.4l-4.4-2.5a1.689,1.689,0,0,0-.3,1V319a2.062,2.062,0,0,0,1,1.7l.3.2a2.335,2.335,0,0,0,2,0l1.3-.8Z"/><path class="p" d="M106.5,320.3V247.1a2.062,2.062,0,0,1,1-1.7l75-43.3c.5-.3,1-.1,1,.6v73.2a2.062,2.062,0,0,1-1,1.7l-75,43.3C107,321.2,106.5,321,106.5,320.3Z"/><path class="f" d="M112.5,248l65.2-37.6c.7-.4,1.2-.1,1.2.7v56.4a2.748,2.748,0,0,1-1.2,2.2l-65.2,37.7c-.7.4-1.2.1-1.2-.7V250.3A2.561,2.561,0,0,1,112.5,248Z"/><path class="i" d="M123.2,245.2c4.1-2.3,7.4-.4,7.4,4.2s-3.3,10.4-7.4,12.7-7.4.5-7.4-4.2S119.2,247.5,123.2,245.2Z"/><path class="i" d="M130,262.2a3.43,3.43,0,0,1,4.5-1.4,5.547,5.547,0,0,1,.8.6l8.5,8.8,16.1-39.5a3.35,3.35,0,0,1,4.4-1.8,3.168,3.168,0,0,1,1.6,1.4l12.9,22.4v14.7a2.748,2.748,0,0,1-1.2,2.2l-65.2,37.7c-.7.4-1.2.1-1.2-.7v-9.3Z"/><path class="b" d="M118.2,314.8l7-4.1v8.1Z"/><path class="b" d="M125.2,258.2v59.1c0,.8-.5,1.1-1.2.7l-5.8-3.3-2.4,1.4,10.4,6a2.754,2.754,0,0,0,2.5,0l72.2-41.7a2.748,2.748,0,0,0,1.2-2.2V216.4a2.348,2.348,0,0,0-2.3-2.4,2.01,2.01,0,0,0-1.3.4l-72.2,41.7A3.327,3.327,0,0,0,125.2,258.2Z"/><path class="c" d="M129.9,259.5l72.4-41.8v-1.3A2.348,2.348,0,0,0,200,214a2.01,2.01,0,0,0-1.3.4l-72.3,41.7a1.962,1.962,0,0,0-.9.9Z"/><path class="d" d="M201,215.7l-72.2,41.7a2.748,2.748,0,0,0-1.2,2.2v61.8c0,.8.5,1.1,1.2.7L201,280.4a2.748,2.748,0,0,0,1.2-2.2V216.4C202.3,215.7,201.7,215.3,201,215.7Z"/><path class="q" d="M146.8,295.7a.6.6,0,0,1-.4-.1.807.807,0,0,1-.4-.9v-30a2.716,2.716,0,0,1,1.1-2l35.4-20.4a.91.91,0,0,1,1.2.1,1.445,1.445,0,0,1,.2.7v30a2.716,2.716,0,0,1-1.1,2l-35.4,20.4A.735.735,0,0,1,146.8,295.7Zm36.2-53a.367.367,0,0,0-.3.1l-35.4,20.4h0a2.143,2.143,0,0,0-.9,1.5v30c0,.2,0,.3.2.4.1.1.3,0,.4-.1l35.4-20.4a2.143,2.143,0,0,0,.9-1.5v-30c0-.2,0-.3-.2-.4ZM147.2,263Z"/><path class="q" d="M152.5,269.8a2.92,2.92,0,0,1-.9-.2,2.277,2.277,0,0,1-1-2.1,6.61,6.61,0,0,1,3-5.2,1.942,1.942,0,0,1,2.8.3,1.8,1.8,0,0,1,.4,1.6,6.61,6.61,0,0,1-3,5.2A1.844,1.844,0,0,1,152.5,269.8Zm2.5-7.3a1.5,1.5,0,0,0-1.1.4,6.082,6.082,0,0,0-2.7,4.7,1.491,1.491,0,0,0,1.1,1.8,1.249,1.249,0,0,0,1.3-.4,6.082,6.082,0,0,0,2.7-4.7,1.731,1.731,0,0,0-.7-1.6c-.1-.2-.4-.2-.6-.2Z"/><path class="q" d="M146.2,293.5h-.1c-.1-.1-.2-.2-.1-.4h0l10.5-20.6a2.3,2.3,0,0,1,3-1,1,1,0,0,1,.5.4l10.4,10a.3.3,0,0,1,0,.4h0a.3.3,0,0,1-.4,0h0l-10.4-9.9a1.724,1.724,0,0,0-2.4.1c-.1.1-.2.3-.3.4l-10.5,20.6C146.4,293.4,146.3,293.5,146.2,293.5Z"/><path class="q" d="M164.9,277.3h-.1c-.1-.1-.2-.2-.1-.4l8.1-18.7a2.086,2.086,0,0,1,2.8-1.1,1.555,1.555,0,0,1,.8.6l7.4,8.9a.3.3,0,0,1,0,.4h0a.187.187,0,0,1-.3,0l-7.5-9a1.607,1.607,0,0,0-2.3-.2,2.652,2.652,0,0,0-.5.6l-8.1,18.7C165.1,277.3,165,277.3,164.9,277.3Z"/><g class="r"><path class="i" d="M191.4,229.4a2.5,2.5,0,0,1-2.8-2.5l.1-9.4c0-2.6,0-6.4,2.9-8.1a3.895,3.895,0,0,1,6,3.3,26.23,26.23,0,0,1-.1,2.7.86.86,0,0,1-.8.8h0a.86.86,0,0,1-.8-.8h0c0-1,.1-1.9.1-2.7a2.242,2.242,0,0,0-2.2-2.3,2.01,2.01,0,0,0-1.3.4c-1.9,1.1-2,3.8-2,6.7l-.1,9.4c0,.7.6.9,1.2.9a3.351,3.351,0,0,0,3.3-3.4l-.1-3.7a.8.8,0,1,1,1.6,0l.1,3.7A5.1,5.1,0,0,1,191.4,229.4Z"/></g><path class="c" d="M249.9,333.2l-56.4,32.5a2.062,2.062,0,0,0-1,1.7v.4a2.062,2.062,0,0,0,1,1.7l47,27.2a2.335,2.335,0,0,0,2,0l56.4-32.5a2.062,2.062,0,0,0,1-1.7v-.4a2.062,2.062,0,0,0-1-1.7l-47-27.2A2.332,2.332,0,0,0,249.9,333.2Z"/><path class="b" d="M192.5,367.5v.4a2.062,2.062,0,0,0,1,1.7l47,27.2a1.644,1.644,0,0,0,1,.2v-5l-46.7-27-1.3.8A2.062,2.062,0,0,0,192.5,367.5Z"/><path class="d" d="M193.5,365.8l56.4-32.5a2.335,2.335,0,0,1,2,0l47,27.2a.632.632,0,0,1,.4.8.781.781,0,0,1-.4.4l-56.4,32.5a2.335,2.335,0,0,1-2,0l-47-27.2a.632.632,0,0,1-.4-.8A.781.781,0,0,1,193.5,365.8Z"/><path class="f" d="M200.5,366.9,237,388a2.335,2.335,0,0,0,2,0l49.4-28.5a.632.632,0,0,0,.4-.8.781.781,0,0,0-.4-.4l-36.5-21.1a2.335,2.335,0,0,0-2,0l-49.4,28.5a.632.632,0,0,0-.4.8C200.2,366.7,200.3,366.9,200.5,366.9Z"/><path class="i" d="M211.8,362.5a10.172,10.172,0,0,1,9.3,0c2.5,1.5,2.6,3.9,0,5.4a10.172,10.172,0,0,1-9.3,0C209.3,366.4,209.2,364,211.8,362.5Z"/><path class="i" d="M288.4,358.4l-10.7-6.2-32.4-3a2.273,2.273,0,0,0-2.5,2.1,2.153,2.153,0,0,0,.2,1.1l5.6,14-17.8-1a2.208,2.208,0,0,0-2.4,2.2v.5l2.7,16.5h0l6,3.5a2.335,2.335,0,0,0,2,0l49.4-28.5a.569.569,0,0,0,.4-.7C288.8,358.6,288.6,358.4,288.4,358.4Z"/><path class="s" d="M315.4,146.1c-4.6,1.5-5.8,1.9-9,6.9-3.1,4.8-6.3,13.7-9,20.8-5.1-1.5-15.9-4-19.5-6-3.6-2.1-3.2-3.5-4.7-4.8-1.7-1.5-3.4-5.2-4.8-3.2-.9,1.4,1,2.3.9,4s-5.4-2.4-7.6-3.9c-1.5-1-4.8,2.2-3.5,5.6,1.2,3.1,3.1,5,6.6,6.5,3.6,1.5,5.5,2.3,10.1,4.4,4.8,2.1,24.5,10.9,26.4,9.6,4.4-2.2,8.5-15.9,11.2-21.8C315.2,158.2,313.4,152,315.4,146.1Z"/><path class="i" d="M316.5,145.5c-2,2.6-1.2,1.6-1.8,5.6-.5,3.3-7.3,34.6-13.5,35.9-2.7.6-22.3-8.4-27.1-11a24.18,24.18,0,0,0,3.8-8.3c5.7,2.2,15.5,4.4,19,5.5,1.6-4.5,3.6-9.2,5.5-13.8C306,150.7,308.3,146.7,316.5,145.5Z"/><path class="j" d="M316.5,145.5c-2,2.6-1.2,1.6-1.8,5.6-.5,3.3-7.3,34.6-13.5,35.9-2.7.6-22.3-8.4-27.1-11a24.18,24.18,0,0,0,3.8-8.3c5.7,2.2,15.5,4.4,19,5.5,1.6-4.5,3.6-9.2,5.5-13.8C306,150.7,308.3,146.7,316.5,145.5Z"/><rect class="s" width="7.6" height="13.1" transform="translate(335.5 287.4)"/><path class="s" d="M314.7,292.4l-8.3.3-.4-15.1,9.4-.3Z"/><path class="d" d="M342.2,198.5c0,6.9.5,47.3.5,47.3.2,2,2.1,5.6,2.2,12.8.2,10.4-1.4,35.1-1.4,35.1a9.562,9.562,0,0,1-8.1.2s-5.7-34.8-7-45.1c-1.1-9-4.4-32.6-4.4-32.6l-4.9,30.7a51.586,51.586,0,0,1,.4,11.1c-.3,4.8-4,28.6-4,28.6a16.051,16.051,0,0,1-9.7.1s-.8-37-.8-41.4c-.1-5,2.1-48,2.1-48Z"/><path class="i" d="M335.5,296.7v-1.1c-.4,0-.6.4-.8,1.4-.1.7-.3,1.4-.4,2.2a29.72,29.72,0,0,1-1.3,3.9c-1.1,2.7-2,3.7-4.5,6.8a30.837,30.837,0,0,0-2.4,2.7c-.4.8-.6,3.1.2,3.6,2.9,1.9,7.3,2,10.4,1.1a6.236,6.236,0,0,0,4.5-5.1c.1-.7.1-1.4.2-2.1a10.2,10.2,0,0,1,1.9-4.4,12.036,12.036,0,0,0,1.5-2.4c.6-1.6.1-3.3-.3-4.9-.4-1.4-.7-2.8-1.2-2.7v.8a6.474,6.474,0,0,1-3.8,1.3C338.2,297.8,335.4,297.6,335.5,296.7Z"/><path class="t" d="M335.5,296.7v-1.1c-.4,0-.6.4-.8,1.4-.1.7-.3,1.4-.4,2.2a29.72,29.72,0,0,1-1.3,3.9c-1.1,2.7-2,3.7-4.5,6.8a30.837,30.837,0,0,0-2.4,2.7c-.4.8-.6,3.1.2,3.6,2.9,1.9,7.3,2,10.4,1.1a6.236,6.236,0,0,0,4.5-5.1c.1-.7.1-1.4.2-2.1a10.2,10.2,0,0,1,1.9-4.4,12.036,12.036,0,0,0,1.5-2.4c.6-1.6.1-3.3-.3-4.9-.4-1.4-.7-2.8-1.2-2.7v.8a6.474,6.474,0,0,1-3.8,1.3C338.2,297.8,335.4,297.6,335.5,296.7Z"/><path class="i" d="M306.3,290.1c-.4,0-.8.6-1.7,1.7a19.024,19.024,0,0,1-4.9,3.5c-3.1,1.6-9.2,4-11.9,5.2-1.7.8-1.6,2.8.1,4s6.1,2,11.2.9c2.8-.6,6.4-3.2,8.8-3.1,2.3.1,6.6.1,8.3-1.1s1-3.7.5-5.8c-.5-2.4-1-6-1.8-5.9v.9c-1,1.5-6.3,2.1-8.5,1Z"/><path class="t" d="M306.3,290.1c-.4,0-.8.6-1.7,1.7a19.024,19.024,0,0,1-4.9,3.5c-3.1,1.6-9.2,4-11.9,5.2-1.7.8-1.6,2.8.1,4s6.1,2,11.2.9c2.8-.6,6.4-3.2,8.8-3.1,2.3.1,6.6.1,8.3-1.1s1-3.7.5-5.8c-.5-2.4-1-6-1.8-5.9v.9c-1,1.5-6.3,2.1-8.5,1Z"/><path class="b" d="M324,216.1s-6.5-2.1-10.8-6.3c0,0,2,3.7,7.8,7.1l-1.4,26.9Z"/><path class="i" d="M329.5,145.2a71.473,71.473,0,0,1,7.9,2.3c2,.7,3,2.6,3.5,4.4,1.3,5.9,1.6,18.4,1.6,18.4l.1,28.9c-5,3.7-25.6,5.5-36.2-2.2,0,0,1.3-34.5,1.3-39.8,0-5.4,3-11.8,11.2-12.3Z"/><path class="u" d="M329.5,145.2a71.473,71.473,0,0,1,7.9,2.3c2,.7,3,2.6,3.5,4.4,1.3,5.9,1.6,18.4,1.6,18.4l.1,28.9c-5,3.7-25.6,5.5-36.2-2.2,0,0,1.3-34.5,1.3-39.8,0-5.4,3-11.8,11.2-12.3Z"/><path class="i" d="M369.5,179a.764.764,0,0,0-.2-.5h-.1l-1.2-.7h0a.471.471,0,0,0-.6.1l-23.2,13.4-.6-2.7a1.381,1.381,0,0,0-.3-.4h0l-1.2-.7h0a.854.854,0,0,0-.7,0l-9.9,5.7a1.6,1.6,0,0,0-.8,1.4v32.9a.764.764,0,0,0,.2.5h0l1.2.7h0a.661.661,0,0,0,.6-.1l36-20.8a1.6,1.6,0,0,0,.8-1.4Z"/><path class="v" d="M343.3,188.1a.854.854,0,0,0-.7,0l-9.9,5.7-.6.6-1.2-.7a1.167,1.167,0,0,1,.6-.6l9.9-5.7a.854.854,0,0,1,.7,0h0Z"/><path class="v" d="M369.3,178.5a.749.749,0,0,0-.5.1L345.5,192a.775.775,0,0,1-1-.2c0-.1-.1-.1-.1-.2l-.1-.3,23.2-13.4c.1-.1.2-.1.4-.1.1,0,.1,0,.2.1h0Z"/><path class="i" d="M369.5,179v27.3a1.6,1.6,0,0,1-.8,1.4l-36.1,20.9a.4.4,0,0,1-.6-.2.349.349,0,0,0-.1-.2V195.1a2.353,2.353,0,0,1,.2-.8,1.7,1.7,0,0,1,.6-.6l9.9-5.7a.854.854,0,0,1,.7,0h0a.536.536,0,0,1,.3.4l.7,2.7.1.3a.657.657,0,0,0,.8.5.349.349,0,0,0,.2-.1l23.2-13.4a.9.9,0,0,1,.5-.1h0C369.5,178.6,369.6,178.8,369.5,179Z"/><path class="c" d="M362.4,183.6v-4.4l2.6-1.5v4.4Z"/><path class="j" d="M332.2,228.7h0l-1.3-.7c-.2-.1-.2-.3-.2-.5V194.6a2.353,2.353,0,0,1,.2-.8l1.2.7h0a1.884,1.884,0,0,0-.2.8v33A.536.536,0,0,0,332.2,228.7Z"/><path class="s" d="M356.7,183.9c-6.6-27.2-10.1-35.5-18.2-35.4-2.4,2.8.1,11.6,1.7,15.9,0,0,7.1,17.4,8.5,23.7,1.2,5.5,2.5,12.4,2.4,17.1a3.6,3.6,0,0,1-.9,2.2c-1.5,1.6-1.5,3-2.5,4.8-.8,1.4-1.6,2-1.4,2.3a1.853,1.853,0,0,0,2.5.2,8.129,8.129,0,0,0,1.9-1.8,21.64,21.64,0,0,1-1.5,6.2l-1.7,1s.5,1.8,4.6.6c4.6-1.3,6.3-1.9,6.8-9.7a63.163,63.163,0,0,0,.1-8.7C358.3,194.8,357.7,188.3,356.7,183.9Z"/><path class="i" d="M337.4,147.5s6.2-.1,8.1,2.9c2.3,3.4,5.2,8.8,9,22.3s5,23.3,5.1,30.9c0,0-4.7,2.2-9.1-.3,0,0-1.9-11.7-3.7-18s-7.2-19.8-7.2-19.8S334.4,156.9,337.4,147.5Z"/><path class="j" d="M337.4,147.5s6.2-.1,8.1,2.9c2.3,3.4,5.2,8.8,9,22.3s5,23.3,5.1,30.9c0,0-4.7,2.2-9.1-.3,0,0-1.9-11.7-3.7-18s-7.2-19.8-7.2-19.8S334.4,156.9,337.4,147.5Z"/><path class="b" d="M327.8,122.3a9.7,9.7,0,1,1-9.7-9.7,9.709,9.709,0,0,1,9.7,9.7Z"/><path class="b" d="M334.9,129.2s-1.6,7.4-2.2,8.6a3.171,3.171,0,0,1-1.9,1.5l.1-5.2Z"/><path class="b" d="M332.9,118.6a3.767,3.767,0,0,1,3,1.1c1.3,1.3.6,5.4-1,9.5l-2.9.3Z"/><path class="s" d="M331,129.5c.6.4,1.4-.8,2.2-1.5a2.554,2.554,0,0,1,4.3.7c1.2,2.5-1,5.9-2.9,6.5-3.2,1-3.7-1.1-3.7-1.1l-.2,12h0c-2.2,2.9-7.2,6.2-9.9,5.8-2.2-.4-2.6-4-.6-6.4V142a21.308,21.308,0,0,1-4.4.2c-2.4-.4-3.8-2.2-4.6-4.8-1.2-4.1-1.6-7.5-.6-15.6,1.1-8.9,11.4-9,17-5.5C333.1,119.8,331,129.5,331,129.5Z"/><path class="b" d="M310.7,117.8c2,1.6,3.2,2.4,7,2.6a16.265,16.265,0,0,0,7.5-1.5,4.116,4.116,0,0,0,1.1,2.4,6.765,6.765,0,0,0,2.6,1.8c.2,1.6.2,3.7.3,5.3,0,.5,0,3.4,1.3,2.6a6.886,6.886,0,0,0,1.1-1.3c.5-.6,1-1.1,1.5-1.7,1-.9-.3-9.3-.3-9.3a4.131,4.131,0,0,0-.7-4.5c-1.4-1.5-3.3-3.4-9.7-2.7-4.5.5-9.4,1.9-13.4,0C308.6,113.7,309.3,116.6,310.7,117.8Z"/><path class="b" d="M332.9,119.3l3.6-1.9a1.892,1.892,0,0,0-2.6-.9h-.1A2.12,2.12,0,0,0,332.9,119.3Z"/><path class="w" d="M320.1,141.9s5.3-1.1,7.2-2.1a6.506,6.506,0,0,0,2.6-2.6,8.469,8.469,0,0,1-1.5,3c-1.4,1.7-8.3,3-8.3,3Z"/><path class="b" d="M320.7,127.6a1.151,1.151,0,0,0,2.3-.1,1.11,1.11,0,0,0-1.1-1.1A1.287,1.287,0,0,0,320.7,127.6Z"/><path class="b" d="M321.8,123.8l2.3,1.3a1.429,1.429,0,0,0-.5-1.9,1.282,1.282,0,0,0-1.7.5C321.8,123.7,321.8,123.7,321.8,123.8Z"/><path class="w" d="M320.6,135.4l-2.6,1a1.391,1.391,0,0,0,1.7.9h.1A1.674,1.674,0,0,0,320.6,135.4Z"/><path class="b" d="M311.3,124.7l2.1-1.7a1.28,1.28,0,0,0-1.8-.3.1.1,0,0,0-.1.1A1.4,1.4,0,0,0,311.3,124.7Z"/><path class="b" d="M311.8,127.4a1.1,1.1,0,1,0,1.1-1.1A1.049,1.049,0,0,0,311.8,127.4Z"/><path class="w" d="M317.7,126.5l-.4,6.9-3.6-1.2Z"/><path class="b" d="M316.3,151.1c.7,1.6,1.9,2.3,4.2,2.5a7.961,7.961,0,0,0,6.2-2.2l-2.8-2.8-3.6,2.7-.3-3Z"/><path class="d" d="M318.1,150.2a7.774,7.774,0,0,0-.4,3,4.589,4.589,0,0,0,1,2.5,2.57,2.57,0,0,0,2.4.3,6.56,6.56,0,0,0,2.3-5l-3.1.4Z"/><path class="d" d="M318.7,155.7s-3.6,20.2-3.8,21.8,2.1,7.4,3.5,7.5,4.1-5.2,4.2-6.7-1.4-22.3-1.4-22.3Z"/><path class="b" d="M321.2,156a2.129,2.129,0,0,1-2.4-.3l-.1.3a2.57,2.57,0,0,0,2.5.5Z"/><path class="i" d="M320.4,151.3l10.3-7.8v-2.1s2.4.6,2.9,4.9a18.112,18.112,0,0,1-8,8.5l-2.2-3.8Z"/><path class="j" d="M320.4,151.3l10.3-7.8v-2.1s2.4.6,2.9,4.9a18.112,18.112,0,0,1-8,8.5l-2.2-3.8Z"/><path class="i" d="M320.1,142.4a8.761,8.761,0,0,0-3.4,2.8c-1,1.7-1,7.2-1,7.2l2.5-2.2,2.3,1.1c-.2-2.2-.3-5.9-.3-5.9Z"/><path class="j" d="M320.1,142.4a8.761,8.761,0,0,0-3.4,2.8c-1,1.7-1,7.2-1,7.2l2.5-2.2,2.3,1.1c-.2-2.2-.3-5.9-.3-5.9Z"/><path class="x" d="M106.1,440.1V413.8l34.2-19.7v26.2Z"/><path class="y" d="M106.1,413.8,63.5,389.1v26.3l42.6,24.7Z"/><path class="z" d="M106.1,413.8l35.2-20.3L97.6,368.3,62.5,388.6Z"/><path class="p" d="M106.1,413.8v6.5l35.2-20.2v-6.6Z"/><path class="g" d="M106.1,420.3l34.2-19.7v1.5l-34.2,19.7Z"/><path class="p" d="M62.5,388.6l43.6,25.2v6.5L62.5,395.1Z"/><path class="aa" d="M106.1,420.3,63.5,395.7v1.5l42.6,24.6Z"/><path class="e" d="M117.4,417.8,129,411c.5-.3.9-.1.9.5v6.9a2.2,2.2,0,0,1-.9,1.6l-11.7,6.7c-.5.3-.9.1-.9-.5v-6.9A1.969,1.969,0,0,1,117.4,417.8Z"/><path class="f" d="M118.1,418.6l10.2-5.9a.367.367,0,0,1,.6.3v5.2a1.382,1.382,0,0,1-.6,1.1l-10.2,5.9c-.3.2-.6,0-.6-.4v-5.2A1.326,1.326,0,0,1,118.1,418.6Z"/><path class="x" d="M106.1,410.5V384.2l34.2-19.7v26.3Z"/><path class="y" d="M106.1,384.2,63.5,359.6v26.2l42.6,24.7Z"/><path class="ab" d="M106.1,384.2l35.2-20.3L97.6,338.7,62.5,359Z"/><path class="p" d="M106.1,384.2v6.6l35.2-20.3v-6.6Z"/><path class="g" d="M106.1,390.8l34.2-19.7v1.4l-34.2,19.7Z"/><path class="p" d="M62.5,359l43.6,25.2v6.6L62.5,365.6Z"/><path class="aa" d="M106.1,390.8,63.5,366.1v1.5l42.6,24.6Z"/><path class="e" d="M117.4,388.2l11.7-6.7c.5-.3.9-.1.9.5v6.9a2.2,2.2,0,0,1-.9,1.6l-11.7,6.7c-.5.3-.9.1-.9-.5v-6.9A1.7,1.7,0,0,1,117.4,388.2Z"/><path class="f" d="M118.1,389l10.2-5.9a.367.367,0,0,1,.6.3v5.1a1.738,1.738,0,0,1-.6,1.1l-10.2,5.9a.367.367,0,0,1-.6-.3V390A1.326,1.326,0,0,1,118.1,389Z"/><path class="e" d="M138.4,391.8l-32.3,18.7L65.3,386.9l-1,.6,41.8,24.1,33.3-19.2Z"/><path class="i" d="M185.6,151c-.2.1-.4.3-.6.4l-.6.3a1.268,1.268,0,0,1-.6.1.9.9,0,0,1-.5-.1c-.2-.1-.2-.2-.3-.4a1.483,1.483,0,0,1-.1-.7v-.5c0-.2.1-.3.1-.5s.1-.3.1-.5.1-.3.1-.5l.5.3c0,.1-.1.2-.1.3s-.1.3-.1.4-.1.3-.1.4v.3c0,.1.1.1.2.2a.6.6,0,0,0,.4-.1c.2-.1.4-.1.6-.3.2-.1.5-.3.7-.4a2.186,2.186,0,0,1,.5-.3,2.652,2.652,0,0,0,.6-.5c.2-.2.4-.3.6-.5a2.651,2.651,0,0,0,.5-.6c0-.1-.1-.3-.1-.4s-.1-.2-.1-.3-.1-.2-.2-.3-.1-.2-.2-.3l.6-1,.1.1c0,.1.1.1.1.2s.1.2.1.3.1.3.1.4.1.3.1.4v.4a.9.9,0,0,1-.1.5c-.1.2-.1.3-.2.5s-.2.3-.3.5-.3.3-.4.5-.3.3-.5.5c-.2.1-.3.3-.5.4-.1.1-.3.2-.4.3.2.4.1.4,0,.5Zm0-4.1-.5,1-.5-.4.5-1Zm1-.7-.5,1-.5-.4.5-1Z"/><path class="i" d="M192,144.2v.7c0,.2-.1.4-.1.6-.1.2-.1.4-.2.6a1.69,1.69,0,0,0-.2.5,3.509,3.509,0,0,1-.5.8l-.6.6a2.651,2.651,0,0,1-.6.5h-.1a2.186,2.186,0,0,0-.5.3l.1-1.1a.367.367,0,0,1,.3-.1c.1,0,.1-.1.2-.1a.1.1,0,0,0,.1-.1l.1-.1.2-.2a1.268,1.268,0,0,0-.1-.6,1.422,1.422,0,0,0-.2-.6c-.1-.2-.1-.4-.2-.5a2.187,2.187,0,0,1-.3-.5c-.1-.1-.2-.3-.3-.4s-.2-.2-.2-.3l-.2-.2-.1-.1.5-1.1.6.9c.2.3.3.7.5,1a3.179,3.179,0,0,1,.3.9,6.376,6.376,0,0,0,.2.7c.1-.1.1-.2.2-.3s.1-.3.2-.5a.9.9,0,0,0,.1-.5v-.5l-.4-3.2.7-.7Z"/><path class="i" d="M192.3,148.3l.8-.8a5.545,5.545,0,0,1,.6-.8,2.994,2.994,0,0,0,.4-.8,2.544,2.544,0,0,0,.2-.7c-.2.1-.3.2-.5.3a.758.758,0,0,1-.4.2c-.1,0-.3.1-.4.1a.367.367,0,0,1-.3-.1c-.1-.1-.1-.2-.2-.3a3.536,3.536,0,0,1-.1-.6v-.5a4.331,4.331,0,0,1,.1-.5.764.764,0,0,1,.2-.5c.1-.2.1-.4.2-.5a1.38,1.38,0,0,1,.3-.4l.3-.3a.6.6,0,0,1,.8,0c.1.1.2.2.2.3.1.1.1.2.2.4a4.331,4.331,0,0,1,.1.5,1.268,1.268,0,0,0,.1.6l.2-.1v1l-.3.2c-.1.4-.2.9-.3,1.3a6.72,6.72,0,0,1-.6,1.2c-.2.4-.5.7-.7,1.1-.3.3-.5.6-.8.9Zm1.3-5.3c-.1,0-.1.1-.2.2s-.1.2-.2.3c0,.1-.1.3-.1.4v.4c0,.1,0,.2.1.2a.1.1,0,0,1,.1.1h.2c.1,0,.1-.1.2-.1a.1.1,0,0,0,.1-.1l.1-.1c.1,0,.1-.1.2-.1l.1-.1v-.3c0-.1-.1-.2-.1-.3s-.1-.2-.1-.3-.1-.1-.1-.2c-.1-.1-.1-.1-.2-.1Z"/><path class="i" d="M195.1,143.6h0c.2-.1.3-.3.4-.4a.758.758,0,0,0,.2-.4c.1-.1.1-.3.2-.5,0-.2.1-.3.1-.5s.1-.3.1-.5.1-.3.1-.5l.7-.1c0,.1,0,.2-.1.2v.9a.1.1,0,0,0,.1.1c0-.1.1-.2.1-.4s.1-.3.2-.5.1-.3.2-.5l.3-.6.3-.6a1,1,0,0,1,.4-.5,1,1,0,0,0,.4-.5c.1-.1.3-.3.4-.3a1.689,1.689,0,0,1,.5-.2c.2,0,.3,0,.4.1a1.381,1.381,0,0,1,.3.4,1.083,1.083,0,0,1,.1.6v.1a3.6,3.6,0,0,1-.2,1.1l.5-.4v1l-.8.5a2.186,2.186,0,0,0-.5.3.367.367,0,0,1-.3.1l-.6.6a2.092,2.092,0,0,1-.6.4,5.736,5.736,0,0,1-.7.4c-.2.1-.3.1-.5.2s-.2,0-.3,0a.215.215,0,0,1-.2-.2,2.177,2.177,0,0,1-.5.8l-.6.6-.1.1v-.9Zm2.3-1.6a2.186,2.186,0,0,1,.5-.3c.1,0,.1-.1.2-.1.1-.1.3-.2.4-.3a2.181,2.181,0,0,1,.5-.4,1.755,1.755,0,0,0,.4-.5,2.186,2.186,0,0,1,.3-.5c.1-.2.1-.4.2-.6,0-.1-.1-.2-.1-.3-.1-.1-.1-.1-.2-.1a.367.367,0,0,0-.3.1l-.1.1-.1.1a2.651,2.651,0,0,0-.5.6,1.612,1.612,0,0,0-.4.7,2.507,2.507,0,0,1-.4.7A2.01,2.01,0,0,0,197.4,142Z"/><path class="i" d="M200.6,139.9l.6-.4c.2-.2.5-.3.7-.6a4.62,4.62,0,0,1,.7-.7c.2-.3.5-.5.7-.8a5.545,5.545,0,0,1,.6-.8.349.349,0,0,0-.2.1h-.9a.367.367,0,0,0-.3.1c-.1,0-.2.1-.3.1s-.1.1-.2.2-.1.2-.2.3-.1.2-.2.3c0,.1-.1.2-.1.3s-.1.1-.1.2v.1l-.6-.1c.1-.2.2-.5.3-.7s.2-.5.3-.7a1,1,0,0,1,.4-.5.781.781,0,0,1,.4-.4c.1-.1.2-.1.3-.2.1,0,.2-.1.3-.1h1a.6.6,0,0,0,.4-.1c.1,0,.3-.1.4-.1.1-.1.3-.1.4-.2l-.1,1.1c-.1.1-.1.2-.2.3s-.1.2-.2.3c0,.1.1.1.2.2h.2a.349.349,0,0,0,.2-.1c.1,0,.1-.1.2-.1l.1-.1v1l-.1.1a1.616,1.616,0,0,1-1,.4c-.3,0-.4-.1-.6-.4-.2.3-.4.5-.6.8s-.4.5-.6.8l-.7.7a5.548,5.548,0,0,1-.8.6l-.6.4v-1.3Z"/><path class="i" d="M205.5,136.6c.1-.1.3-.2.4-.4a2.186,2.186,0,0,0,.3-.5c.1-.2.1-.4.2-.5.1-.2.1-.4.2-.6s.1-.4.2-.6.1-.4.2-.6.2-.3.3-.5c.1-.1.2-.3.4-.4a.367.367,0,0,1,.3-.1h.3a.215.215,0,0,1,.2.2c0,.1.1.2.2.3,0,.1.1.2.1.4v.8a.6.6,0,0,1-.1.4c0,.2-.1.3-.1.4-.1.1-.1.3-.2.4s-.2.2-.2.3c-.1.1-.2.2-.3.2a.367.367,0,0,1-.3.1c-.1,0-.2.1-.3.1h-.6a5.582,5.582,0,0,1-.5.8l-.6.6h-.1v-.8Zm1.5-1.5h.4a.494.494,0,0,0,.3-.1,995225063841.939,995225063841.939,0,0,0,.2-.2l.1-.1a.31.31,0,0,1,.1-.2v-.4h0v-.3a.349.349,0,0,0-.1-.2c-.1-.1-.1-.1-.2-.1a.31.31,0,0,0-.2.1.1.1,0,0,0-.1.1l-.1.1a.349.349,0,0,0-.1.2c0,.1-.1.2-.1.4A6.377,6.377,0,0,0,207,135.1Z"/><path class="i" d="M218,125.3a.1.1,0,0,0,.1.1c0,.1.1.1.1.2s.1.2.1.3.1.2.1.4.1.3.1.4v.5a2.2,2.2,0,0,1-.1.8,6.376,6.376,0,0,1-.2.7,2.092,2.092,0,0,1-.4.6c-.1.2-.3.3-.5.5a.31.31,0,0,1-.2.1h-.2c-.1,0-.1,0-.2-.1l-.1-.1c0,.1-.1.2-.1.3s-.1.2-.2.3-.1.2-.2.3-.2.2-.3.2a.367.367,0,0,1-.3.1h-.2v.2a2.2,2.2,0,0,1-.1.8c-.1.3-.1.6-.2.8a2.994,2.994,0,0,1-.4.8,4.233,4.233,0,0,1-.5.7,2.651,2.651,0,0,0-.5.6c-.2.2-.4.3-.6.5a1.33,1.33,0,0,1-.8.3,1.268,1.268,0,0,1-.6-.1.918.918,0,0,1-.4-.6,3.083,3.083,0,0,1-.1-1,2.485,2.485,0,0,1,.1-.8c0-.3.1-.5.1-.8.1-.3.1-.5.2-.8a6.376,6.376,0,0,1,.2-.7l.6.2c-.1.2-.1.4-.2.6s-.1.4-.2.6c0,.2-.1.4-.1.6v.7a.749.749,0,0,0,.1.5c.1.1.1.3.2.3.1.1.2.1.4.1s.3-.1.5-.2a2.652,2.652,0,0,0,.6-.5,1.755,1.755,0,0,0,.4-.5l.3-.6c.1-.2.1-.4.2-.6a2.2,2.2,0,0,0,.1-.8V131a1.087,1.087,0,0,0-.1-.5,1.422,1.422,0,0,0-.2-.6,1.421,1.421,0,0,1-.2-.6l.6-1c0,.1.1.2.1.3s.1.2.1.4c0,.1.1.2.2.3s.1.2.2.3.1.1.2.1h.2l.1-.1c.1-.1.2-.2.2-.3s.1-.2.1-.3a.6.6,0,0,1,.1-.4v-1.1l.7-.6v1a.367.367,0,0,0,.1.3.349.349,0,0,0,.1.2.1.1,0,0,0,.1.1h.2c.1-.1.3-.2.3-.4a1.483,1.483,0,0,0,.1-.7v-.3c0-.1-.1-.2-.1-.3s-.1-.2-.1-.3c-.1-.1-.1-.2-.2-.3Zm-1.7.1-.5,1-.5-.4.5-1Zm-.4-.9.4-.9.5.3-.4.9Zm1.5.2-.5,1-.5-.4.5-1Z"/><path class="i" d="M218.8,130.5l.8-.8c.3-.3.4-.6.6-.8a2.994,2.994,0,0,0,.4-.8,2.544,2.544,0,0,0,.2-.7c-.2.1-.3.2-.5.3a.758.758,0,0,1-.4.2c-.1,0-.3.1-.4.1a.367.367,0,0,1-.3-.1c-.1-.1-.1-.2-.2-.3a3.536,3.536,0,0,1-.1-.6v-.5a4.331,4.331,0,0,1,.1-.5,1.056,1.056,0,0,1,.2-.5c.1-.2.1-.4.2-.5a1.38,1.38,0,0,1,.3-.4l.3-.3a.6.6,0,0,1,.8,0c.1.1.2.2.2.3.1.1.1.3.2.4,0,.2.1.3.1.5v.6a3.4,3.4,0,0,1-.1,1,3.81,3.81,0,0,1-.3,1,6.9,6.9,0,0,1-.4,1c-.2.3-.3.6-.5.9s-.4.5-.6.8a4.62,4.62,0,0,1-.7.7Zm1.3-5.3c-.1,0-.1.1-.2.2s-.1.2-.2.3c0,.1-.1.3-.1.4v.4c0,.1,0,.2.1.2l.1.1h.2c.1,0,.1-.1.2-.1l.1-.1.1-.1c.1,0,.1-.1.2-.1a.1.1,0,0,0,.1-.1V126c0-.1-.1-.2-.1-.3s-.1-.2-.1-.3-.1-.1-.1-.2-.1-.1-.2-.1Z"/><path class="i" d="M224.1,125.1h0c-.1.1-.2.1-.3.2h-.2a4.253,4.253,0,0,1-.2,1.1,6.117,6.117,0,0,1-.5,1.2l-.6,1.2c-.2.4-.5.7-.7,1.1l-.3-.7c.1-.2.3-.4.4-.6s.3-.4.4-.6l.3-.6.3-.6c.1-.2.1-.4.2-.6a4.331,4.331,0,0,1,.1-.5v-.4c0-.2-.1-.3-.1-.4s-.1-.3-.1-.4-.1-.3-.1-.4l.7-.9c.1.3.1.5.2.6.1.2.1.3.2.4s.1.1.2.1.1,0,.2-.1l.1-.1Z"/><path class="i" d="M224,124.1c.2-.1.4-.3.6-.4a2.182,2.182,0,0,0,.5-.4c.2-.1.3-.3.4-.4l.3-.3-.3.2c-.2.1-.3.2-.5.2h-.4q-.15,0-.3-.3c-.1-.1-.1-.3-.1-.6v-.5c0-.2.1-.3.1-.5s.1-.3.2-.5.1-.3.2-.5c.1-.1.2-.3.3-.4l.3-.3a.6.6,0,0,1,.4-.1.367.367,0,0,1,.3.1l.3.3c.1.1.1.3.2.4,0,.2.1.3.1.5v.5a2.768,2.768,0,0,1-.1.9,2.614,2.614,0,0,1-.3.8,2.507,2.507,0,0,1-.4.7c-.2.2-.3.4-.5.6a2.651,2.651,0,0,1-.6.5c-.2.2-.4.3-.6.5l-.1.1v-1.1Zm1.8-6.2-.6,1.1-.5-.4.5-1.1Zm-.5,2.7h0c-.1,0-.1.1-.2.2a.367.367,0,0,0-.1.3c0,.1-.1.2-.1.4v.3h0v.2l.1.1c.1,0,.1,0,.2-.1.1,0,.1-.1.2-.1s.1-.1.2-.1a.1.1,0,0,0,.1-.1c.1,0,.1-.1.2-.1a.367.367,0,0,0-.1-.3c0-.1-.1-.2-.1-.3a.215.215,0,0,0-.2-.2C225.4,120.5,225.3,120.5,225.3,120.6Z"/><path class="i" d="M229.9,119.8l-.3.9a2.768,2.768,0,0,0-.1.9.749.749,0,0,0,.1.5l.3.3c.1,0,.2.1.4,0a.758.758,0,0,0,.4-.2c.1-.1.3-.2.4-.4s.3-.3.4-.6c.1-.2.2-.5.3-.7a2.768,2.768,0,0,0,.1-.9v-6l.8-.7v4.5a.367.367,0,0,0,.1.3c0,.1.1.1.1.2a.349.349,0,0,0,.2.1c.1,0,.1,0,.2-.1h.1v1h-.1c-.1.1-.2.1-.3.2a.349.349,0,0,0-.2.1v.1a3.4,3.4,0,0,1-.1,1c-.1.3-.1.6-.2.9a4.875,4.875,0,0,1-.3.7c-.1.2-.3.4-.4.6s-.3.3-.4.5c-.1.1-.3.3-.4.3a.758.758,0,0,1-.4.2.85.85,0,0,1-.8,0c-.1,0-.2-.1-.3-.2a.764.764,0,0,1-.2-.5,1.483,1.483,0,0,1-.1-.7h0v-.5a1.268,1.268,0,0,1,.1-.6c0-.2.1-.4.1-.6a1.421,1.421,0,0,1,.2-.6Z"/><path class="i" d="M235.2,116.6v1h-.1c-.2.1-.3.2-.5.2a.367.367,0,0,1-.3-.1,3.039,3.039,0,0,1-.5.7,4.349,4.349,0,0,1-.7.6l-.1.1v-1l.1-.1a2.336,2.336,0,0,0,.7-.7,1.884,1.884,0,0,0,.2-.8v-.4a4.331,4.331,0,0,1-.1-.5l.7-.8a.367.367,0,0,0,.1.3v1.3c0,.1,0,.2.1.2a.1.1,0,0,1,.1.1.367.367,0,0,0,.3-.1Zm-.6-3-.6,1.1-.5-.4.5-1.1Z"/><path class="i" d="M235.1,116.7l.6-.4c.1-.1.2-.1.3-.2l.3-.3a.52.52,0,0,0,.2-.4c0-.2.1-.3.1-.4v-.3a.756.756,0,0,0-.1-.4c0-.1-.1-.3-.1-.4s-.1-.3-.1-.4l.7-.9c0,.1.1.3.1.4s.1.3.1.4c0,.2.1.3.1.5v.5a2.768,2.768,0,0,1-.1.9c-.1.3-.2.5-.3.8a4.313,4.313,0,0,1-1.1,1.1l-.6.4v-.9Zm.1,2.3.5-1,.5.4-.5,1Zm1.5.2-.4.9-.5-.3.5-.9Zm-.4-.9.5-1,.5.4-.5,1Z"/></g></svg>