<svg xmlns="http://www.w3.org/2000/svg" width="439.5" height="412.375" viewBox="0 0 439.5 412.375"><defs><style>.a{fill:#f5f5f5;}.b{fill:#e0e0e0;}.c{fill:#263238;}.d,.o{fill:#455a64;}.e{fill:#37474f;}.f,.s{fill:#fff;}.g{fill:#e6e6e6;}.h{fill:#f0f0f0;}.i{fill:#ff3600;}.j{fill:#fafafa;}.k{fill:#ffa8a7;}.l{fill:#06826a;}.m{opacity:0.1;}.n{fill:#f28f8f;}.o{opacity:0.3;}.p{fill:#f77759;}.q{fill:#d62c05;}.r{fill:#c12805;}.s{opacity:0.4;}.t{opacity:0.15;}</style></defs><g transform="translate(-31.75 -53.3)"><path class="a" d="M406.9,281.6c-85.8-42.1-225-42.1-310.8,0S10.3,392,96.1,434.1s225,42.1,310.8,0S492.7,323.7,406.9,281.6Z"/><ellipse class="b" cx="46.7" cy="22.3" rx="46.7" ry="22.3" transform="translate(312.2 384)"/><ellipse class="b" cx="46.7" cy="22.3" rx="46.7" ry="22.3" transform="translate(77.3 318.5)"/><path class="c" d="M296.1,244.9a6.42,6.42,0,0,0-2.8,4.5l-4.4,42.9a6.657,6.657,0,0,1-3,4.6l-19.6,11.3a5.3,5.3,0,0,0-2.1,2.1,5.01,5.01,0,0,0,2.1,6.8l54.6,31.5a6.152,6.152,0,0,0,5.3,0l25.5-14.7a4.7,4.7,0,0,0,2.1-4.6L344,272.5a7.529,7.529,0,0,0-3.2-4.6L301.2,245A5.722,5.722,0,0,0,296.1,244.9Z"/><path class="d" d="M273.6,309.8h-8.9a4.839,4.839,0,0,0-1,2.9,5.406,5.406,0,0,0,2.7,4.4L321,348.6a4.9,4.9,0,0,0,2.7.6V338.6Z"/><path class="c" d="M295.1,247.5a1.88,1.88,0,0,0-1.8,1.9l-4.4,42.9a6.657,6.657,0,0,1-3,4.6l-19.6,11.3c-1.5.9-1.5,2.2,0,3.1l54.6,31.5a6.152,6.152,0,0,0,5.3,0l19.6-11.3a4.7,4.7,0,0,0,2.1-4.6l-9-51.6a7.529,7.529,0,0,0-3.2-4.6l-39.6-22.9A2.368,2.368,0,0,0,295.1,247.5Z"/><path class="e" d="M266.3,311.3l54.6,31.5a6.152,6.152,0,0,0,5.3,0l19.6-11.3a4.626,4.626,0,0,0,1.8-2.1l-59.7-34.5a7.277,7.277,0,0,1-1.9,2l-19.6,11.3C264.8,309.1,264.8,310.5,266.3,311.3Z"/><path class="d" d="M419.6,358,212.4,238.4a7.985,7.985,0,0,1-3.7-6.4V61.8a8.314,8.314,0,0,1,3.7-6.5l1.9-1.1a8.262,8.262,0,0,1,7.5,0L429.6,173.5a7.985,7.985,0,0,1,3.7,6.4V350a8.314,8.314,0,0,1-3.7,6.5l-2.5,1.5A8.262,8.262,0,0,1,419.6,358Z"/><path class="c" d="M418.4,357.3l1.3.7a8.055,8.055,0,0,0,7.4,0l2.5-1.4a8.017,8.017,0,0,0,3.7-6.5v-170a6.959,6.959,0,0,0-1.1-3.7l-13.9,8Z"/><path class="e" d="M419.6,358,212.4,238.4a7.985,7.985,0,0,1-3.7-6.4V61.9c0-2.4,1.7-3.3,3.7-2.2L419.6,179.3a7.985,7.985,0,0,1,3.7,6.4V355.8C423.3,358.3,421.7,359.2,419.6,358Z"/><path class="b" d="M328.7,296.9c0,1.6-1.2,2.2-2.7,1.3l-19.6-11.3a6.106,6.106,0,0,1-2.7-4.4c0-1.6,1.2-2.2,2.7-1.4L326,292.4A5.882,5.882,0,0,1,328.7,296.9Z"/><path class="f" d="M415.9,188.2V336.1c0,1.4-.9,1.9-2.1,1.2L218.7,224.7a4.6,4.6,0,0,1-2.1-3.7V72.8c0-1.4.9-1.9,2.1-1.2l195.1,113A4.428,4.428,0,0,1,415.9,188.2Z"/><path class="g" d="M410.3,194V325.1c0,1.7-1.2,2.5-2.7,1.6L224.3,220.9a6.109,6.109,0,0,1-2.7-4.8V87.4c0-3.8,2.7-5.3,5.9-3.4l179,103.4A8.186,8.186,0,0,1,410.3,194Z"/><path class="a" d="M333.1,184.7l-98.7-56.9V107.9l98.7,57Z"/><path class="h" d="M333.1,242.2l-98.7-57V135.6l98.7,57Z"/><path class="i" d="M410.3,199.5V194a8.447,8.447,0,0,0-3.8-6.6L227.5,84c-3.3-1.9-5.9-.3-5.9,3.4v3.1Z"/><path class="f" d="M244.4,98.7a4.559,4.559,0,0,0,2,3.5c1.1.7,2,.1,2-1.2a4.559,4.559,0,0,0-2-3.5C245.2,96.9,244.3,97.4,244.4,98.7Z"/><path class="f" d="M236.3,94.1a4.559,4.559,0,0,0,2,3.5c1.1.7,2,.1,2-1.2a4.559,4.559,0,0,0-2-3.5C237.2,92.2,236.2,92.8,236.3,94.1Z"/><path class="f" d="M228.2,89.4a4.559,4.559,0,0,0,2,3.5c1.1.7,2,.1,2-1.2a4.559,4.559,0,0,0-2-3.5C229.1,87.6,228.2,88.1,228.2,89.4Z"/><path class="j" d="M401.2,269.9l-55.7-32.2a1.05,1.05,0,0,1-.5-.9V172.4a1.05,1.05,0,0,1,.5-.9,1.079,1.079,0,0,1,1.1,0l55.7,32.3a1.05,1.05,0,0,1,.5.9v64.4a1.05,1.05,0,0,1-.5.9.9.9,0,0,1-.5.1C401.6,270,401.4,270,401.2,269.9Zm-54.1-95.7v62l53.6,31v-62Z"/><path class="j" d="M373.4,244c-11-6.4-19.9-21.8-19.9-34.5,0-6.4,2.2-11.2,6.2-13.5s9.2-1.8,14.8,1.4c11,6.3,19.9,21.8,19.9,34.5,0,6.4-2.2,11.2-6.2,13.5a9.957,9.957,0,0,1-5.6,1.4A19.8,19.8,0,0,1,373.4,244Zm-12.6-46.2c-3.3,1.9-5.2,6-5.2,11.6,0,12,8.5,26.7,18.9,32.7,4.8,2.8,9.3,3.3,12.6,1.4s5.1-6,5.1-11.6c0-12-8.4-26.7-18.8-32.7a16.406,16.406,0,0,0-8.1-2.5A7.742,7.742,0,0,0,360.8,197.8Z"/><circle class="c" cx="10.5" cy="10.5" r="10.5" transform="translate(346.6 205.5)"/><rect class="k" width="7.4" height="12.6" transform="translate(374.8 393.4)"/><path class="k" d="M356.6,379.4l-7.7.2.3,13.4,7.4-.2Z"/><path class="e" d="M347.2,285.1s-2.6,51.8-2.5,56.9c.1,4.5,3.8,47.3,3.8,47.3a10.121,10.121,0,0,0,8.5-.6s2.9-30.1,3.2-34.9a41.768,41.768,0,0,0-.9-11.7l4-29.9s2,24.9,3.1,34c1.3,10.5,7.8,53.8,7.8,53.8a9.442,9.442,0,0,0,8.2-.2s1.2-32.6,1.8-43.2c.4-7.8-1.5-11.6-1.7-13.6,0,0-.9-50.9-.9-57.9Z"/><path class="l" d="M356,238.8l-7.8,20.8L336,252.9s7.8-7.2,12.1-10.8C352.9,238.2,356,238.8,356,238.8Z"/><path class="m" d="M356,238.8l-7.8,20.8L336,252.9s7.8-7.2,12.1-10.8C352.9,238.2,356,238.8,356,238.8Z"/><path class="l" d="M370.8,240.9l-11.4-2.6c-8.8.5-12,8-12,13.7s-.5,40.9-.5,40.9c11.3,8.3,24.7,7.9,35.3,2.4L382,268V253.5c0-6.7-2.8-9.5-2.8-9.5Z"/><path class="c" d="M370.9,228.8l-.1,5.6a3.92,3.92,0,0,0,2.1-1.7c.7-1.3,2.4-9.3,2.4-9.3Z"/><path class="c" d="M372,223.8l3.2-.4c1.7-4.4,2.5-8.9,1.1-10.3A3.58,3.58,0,0,0,373,212Z"/><path class="k" d="M367.3,209.5c-6.1-3.8-17.3-3.7-18.5,5.9-1.1,8.8-.6,12.4.7,16.9.8,2.8,2.4,4.8,5,5.2a24.319,24.319,0,0,0,4.7-.2v3.9c-4.3,3.3-3.4,7.1.6,6.5,7.8-1.2,10.8-6.2,10.8-6.2l.3-12.6s.5,2.2,4,1.1c2-.6,4.5-4.3,3.2-7.1s-3.9-1.6-4.7-.8-1.7,2.1-2.4,1.7C371.1,223.9,373.4,213.3,367.3,209.5Z"/><path class="c" d="M368.9,217.4c-.6-3.1-.9-4.3-2.1-4.1a62.046,62.046,0,0,1-11.4.2c-4.1-.5-5.3-1.6-5.3-1.6a4.312,4.312,0,0,1-1.9-1.3,4.44,4.44,0,0,1-.8-1.1,4.981,4.981,0,0,1,1.3-5.4c1.9-1.6,4.2-1.1,6.9-.6,2.3.4,5.7,1.1,8,1.4,4.3.7,6.9.9,8.4,2.5a4.39,4.39,0,0,1,1.1,4.6s1.4,9.1.3,10.1c-.8.8-2,2.8-2.4,2.8C370,224.9,369.5,220.2,368.9,217.4Z"/><path class="c" d="M374,209.7a.1.1,0,0,0,.1-.1,2.086,2.086,0,0,1,2.8,1.1l-3.8,2.1A2.292,2.292,0,0,1,374,209.7Z"/><path class="n" d="M359.2,238.8s7.5-1.4,9-3.3a10.673,10.673,0,0,0,1.6-3.2,6.864,6.864,0,0,1-2.8,2.8c-2,1.1-7.8,2.2-7.8,2.2Z"/><path class="c" d="M360.6,222.4a1.216,1.216,0,0,1,1.2-1.2,1.278,1.278,0,0,1,1.2,1.1,1.2,1.2,0,0,1-1.1,1.2,1.109,1.109,0,0,1-1.3-1.1Z"/><path class="c" d="M361.9,218a1.463,1.463,0,0,1,1.9-.6h0a1.489,1.489,0,0,1,.6,2l-2.5-1.4Z"/><path class="n" d="M358.9,232.3h0a1.344,1.344,0,0,1-1.8-.9l2.6-1A1.517,1.517,0,0,1,358.9,232.3Z"/><path class="c" d="M350.6,217l.1-.1a1.424,1.424,0,0,1,1.9.4l-2.3,1.7A1.546,1.546,0,0,1,350.6,217Z"/><path class="c" d="M352.2,220.9a1.278,1.278,0,0,1,1.2,1.1,1.151,1.151,0,0,1-2.3.1A1.03,1.03,0,0,1,352.2,220.9Z"/><path class="n" d="M352.9,226.7l3.6,1.2.4-6.9Z"/><path class="c" d="M378.5,403.4a5.77,5.77,0,0,0,3.7-1.3v-.8c.5-.1.8,1.3,1.2,2.6a8.553,8.553,0,0,1,.4,3.9c-.4,1.4-2.5,2.8-3.4,4s-1.4,3.6-2.5,5.3-5.5,3.4-8,3.9c-2.2.4-7.4-1.1-6.6-3.4.8-2.4,4-4.8,6.3-7,2.9-2.7,4.6-8.9,5.3-9.2v1C374.8,403.3,377.4,403.5,378.5,403.4Z"/><path class="c" d="M349.2,391.9c2,1,6.5.4,7.4-.9v-.7c.7-.1,1.3,3.1,1.7,5.2.4,1.9,1,4.1-.5,5.2s-5.3,1.1-7.4,1-5.3,2.2-7.8,2.7c-4.6,1-8.4.3-9.9-.8-1.6-1-1.6-2.9-.1-3.6,2.4-1.1,7.8-3.2,10.6-4.6a16.713,16.713,0,0,0,4.4-3.1c.8-.9,1.1-1.5,1.5-1.5Z"/><path class="c" d="M359.7,339.4l1.3-26.1c-5.9-3.5-7.9-7.2-7.9-7.2a27.958,27.958,0,0,0,10.3,5.9Z"/><path class="a" d="M335.7,283.4l-49.2-14a2.29,2.29,0,0,1-1.5-2.2l1.7-53.4a4.426,4.426,0,0,1,1.7-3l.6-.4a4.308,4.308,0,0,1,3.2-.8l49.2,14a2.29,2.29,0,0,1,1.5,2.2l-1.7,53.4a4.426,4.426,0,0,1-1.7,3l-.6.4A3.91,3.91,0,0,1,335.7,283.4Z"/><path class="o" d="M328.6,246.9c-.3,9.2-7.5,14.8-16,12.3-8.5-2.4-15.2-11.9-14.9-21.1s7.5-14.8,16-12.3C322.2,228.2,328.9,237.6,328.6,246.9Z"/><path class="i" d="M318.4,239.9c-.1,3-2.4,4.8-5.2,4a7.029,7.029,0,0,1-4.8-6.9c.1-3,2.4-4.8,5.2-4A7.289,7.289,0,0,1,318.4,239.9Z"/><path class="i" d="M303,252.7a20.517,20.517,0,0,0,9.6,6.6,12.749,12.749,0,0,0,9.7-.9v-1.3c.2-4.9-3.4-10-7.9-11.3l-2.8-.8c-4.6-1.3-8.4,1.6-8.5,6.6Z"/><path class="j" d="M288.4,210.8l.6-.4a4.308,4.308,0,0,1,3.2-.8l49.2,14a1.879,1.879,0,0,1,1.1.8l-3.9,3a1.779,1.779,0,0,0-1.1-.8l-49.2-14a1.2,1.2,0,0,0-1.6,1A5.216,5.216,0,0,1,288.4,210.8Z"/><path class="b" d="M337.4,282.2l1.7-53.4a3.255,3.255,0,0,0-.4-1.4l3.9-3a2.116,2.116,0,0,1,.4,1.4l-1.7,53.4a4.426,4.426,0,0,1-1.7,3l-.6.4a4.258,4.258,0,0,1-3,.9A1.336,1.336,0,0,0,337.4,282.2Z"/><path class="i" d="M326.9,268.4,298,260.2a1.962,1.962,0,0,0-2.6,2h0a3.812,3.812,0,0,0,2.4,3.5l28.9,8.2a1.962,1.962,0,0,0,2.6-2h0A3.711,3.711,0,0,0,326.9,268.4Z"/><path class="a" d="M343.3,341.2l-44.5-21.4a2.529,2.529,0,0,1-1.1-2.5l9.8-54.9a5,5,0,0,1,2.1-2.9l.6-.4a4.136,4.136,0,0,1,3.2-.4l44.5,21.4a2.529,2.529,0,0,1,1.1,2.5l-9.8,54.9a5,5,0,0,1-2.1,2.9l-.6.4A4.137,4.137,0,0,1,343.3,341.2Z"/><path class="o" d="M342.1,302.4c-1.7,9.5-9.3,14.2-17,10.5s-12.6-14.4-10.9-23.9,9.3-14.2,17-10.5S343.8,292.9,342.1,302.4Z"/><path class="l" d="M333.5,293.7c-.6,3.1-3,4.6-5.5,3.4-2.6-1.5-3.9-4.4-3.5-7.8.6-3.1,3-4.6,5.5-3.4A7.57,7.57,0,0,1,333.5,293.7Z"/><path class="l" d="M316.9,304.8a18.644,18.644,0,0,0,8.1,8.1,11.306,11.306,0,0,0,9.3.5l.2-1.4c.9-5.1-1.7-10.8-5.8-12.8l-2.6-1.2c-4.1-2-8.2.5-9.1,5.6Z"/><path class="j" d="M309.6,259.5l.6-.4a3.746,3.746,0,0,1,3.2-.4l44.5,21.4a2.189,2.189,0,0,1,.9,1l-4.1,2.5a2.189,2.189,0,0,0-.9-1l-44.5-21.4a1.227,1.227,0,0,0-1.7.8A5.193,5.193,0,0,1,309.6,259.5Z"/><path class="b" d="M345,340.1l9.8-54.9a2.622,2.622,0,0,0-.2-1.5l4.1-2.5a2.4,2.4,0,0,1,.2,1.5l-9.8,54.9a5,5,0,0,1-2.1,2.9l-.6.4a4.123,4.123,0,0,1-3,.5A1.391,1.391,0,0,0,345,340.1Z"/><path class="l" d="M337.2,324.4l-26.1-12.6c-1.3-.6-2.5.2-2.8,1.7h0a3.78,3.78,0,0,0,1.8,3.9l26.1,12.5c1.3.6,2.5-.2,2.8-1.7h0A3.788,3.788,0,0,0,337.2,324.4Z"/><path class="k" d="M371.2,296.7a70,70,0,0,1-10,2.6c-9.3,1.6-13,.4-14.9-3.1-3.1-5.7-.9-6.7,4.1-5.8a24.747,24.747,0,0,0,7.2.2l.5-3.7c2.4.7,2.5.4,4.8,1.7a7.383,7.383,0,0,0,3.9.4,50.564,50.564,0,0,0,17.3-8l-7.7-25,2.9-12c3.6,1.5,6.1,1.7,14.4,32.2,1.2,4.4,1.3,8.4-2.5,11A89.356,89.356,0,0,1,371.2,296.7Z"/><path class="l" d="M385.8,250.4c1,3.1,6,17.1,6,17.1-3.6,4.3-12.3,5.1-12.3,5.1s-5.4-15.2-4.6-20.8,4.3-7.8,4.3-7.8A8.933,8.933,0,0,1,385.8,250.4Z"/><path class="m" d="M385.8,250.4c1,3.1,6,17.1,6,17.1-3.6,4.3-12.3,5.1-12.3,5.1s-5.4-15.2-4.6-20.8,4.3-7.8,4.3-7.8A8.933,8.933,0,0,1,385.8,250.4Z"/><path class="k" d="M282.3,257.4c.4,2.2,4.8,6.2,8,5.4s3.3-6.2.6-7.5c-2.6-1.4-5-5-5-5v-4.4C282.7,245.6,281.9,255.2,282.3,257.4Z"/><path class="p" d="M221.6,328.1h4.6l15.8-2.2h-4.5Z"/><path class="p" d="M230,289.3h4.6L217,282.9l-4.6-.1Z"/><path class="p" d="M253.1,345.7h4.5l-2.7-25h-4.6Z"/><path class="p" d="M245.7,298.1h4.6l-7.6-25.6h-4.6Z"/><path class="p" d="M263.3,311.3l4.5.1-17.5-13.3h-4.6Z"/><path class="q" d="M250.3,320.7h4.6l12.9-9.3-4.5-.1Z"/><path class="i" d="M238.1,272.5,230,289.3l-17.6-6.5,12.5,23.6-3.3,21.7,15.9-2.2,15.6,19.8-2.8-25,13-9.4-17.6-13.2Z"/><path class="p" d="M261.8,398.6h3.3l11.4-1.8h-3.3Z"/><path class="p" d="M267.9,369.3h3.2l-12.6-4.7h-3.2Z"/><path class="p" d="M284.4,411.5h3.2l-1.9-18.8h-3.3Z"/><path class="p" d="M279.1,375.8h3.3L277,356.6h-3.3Z"/><path class="p" d="M291.7,385.5l3.3.1-12.6-9.8h-3.3Z"/><path class="q" d="M282.4,392.7h3.3l9.3-7.1-3.3-.1Z"/><path class="i" d="M273.7,356.6l-5.8,12.7-12.6-4.7,8.9,17.7-2.4,16.3,11.4-1.8,11.2,14.7-2-18.8,9.3-7.2-12.6-9.7Z"/><path class="p" d="M187.2,364.3h3.3l11.4-1.8h-3.3Z"/><path class="p" d="M193.3,335.1h3.2l-12.6-4.7h-3.3Z"/><path class="p" d="M209.8,377.2l3.2.1-1.9-18.8h-3.3Z"/><path class="p" d="M204.5,341.5h3.3l-5.4-19.1-3.3-.1Z"/><path class="p" d="M217.1,351.3h3.3l-12.6-9.8h-3.3Z"/><path class="q" d="M207.8,358.5h3.3l9.3-7.2h-3.3Z"/><path class="i" d="M199.1,322.3l-5.8,12.8-12.7-4.7,9,17.6-2.4,16.3,11.4-1.8,11.2,14.7-2-18.7,9.3-7.2-12.6-9.8Z"/><path class="c" d="M143.5,153.5a16.3,16.3,0,0,0-16.3-16.3h0c-9,0-15.5,7.5-15.2,16.5.4,10.3,8.3,18.9,8.3,18.9l12.2-9.6Z"/><path class="r" d="M136.7,186.4l21.4-1.3a3.749,3.749,0,0,0,3-1.4c1.2-1.3,13.8-14.8,13.7-15.3s-12.8,1.2-12.8,1.2-4.6,5.5-5.4,6.2l-23.4-.9Z"/><path class="l" d="M249.6,280.2,157.4,227a4.559,4.559,0,0,1-2-3.5V151.7a4.559,4.559,0,0,1,2-3.5l.7-.4a4.669,4.669,0,0,1,4,0L254.3,201a4.559,4.559,0,0,1,2,3.5v71.8a4.559,4.559,0,0,1-2,3.5l-.7.4A4.668,4.668,0,0,1,249.6,280.2Z"/><path class="s" d="M157.4,148.1l.7-.4a4.669,4.669,0,0,1,4,0l92.2,53.2a4.009,4.009,0,0,1,1.4,1.5l-4.7,2.7a4.009,4.009,0,0,0-1.4-1.5l-92.2-53.3c-1-.6-1.9-.2-2,.9A4.608,4.608,0,0,1,157.4,148.1Z"/><path class="m" d="M251.6,279V207.2a3.606,3.606,0,0,0-.6-2l4.7-2.7a3.606,3.606,0,0,1,.6,2v71.8a4.559,4.559,0,0,1-2,3.5l-.7.4a4.747,4.747,0,0,1-3.7.2C250.9,280.7,251.6,280.1,251.6,279Z"/><path class="j" d="M243.2,209.3V217a.552.552,0,0,1-.9.5l-6.9-3.9a1.893,1.893,0,0,1-.9-1.6v-7.8c0-.6.4-.8.9-.5l6.9,4A1.893,1.893,0,0,1,243.2,209.3Z"/><path class="i" d="M236.2,212.4a1.344,1.344,0,0,1-.6-.7l-4.7-10.2c-.3-.5-.2-1.1.2-1.2s.8.3,1.1.8l4.1,8.9,1.5-1.1c.3-.2.8,0,1.1.6s.4,1.1.1,1.3l-2.1,1.6a.483.483,0,0,1-.7,0Z"/><path class="j" d="M243.2,226.3V234a.552.552,0,0,1-.9.5l-6.9-3.9a1.893,1.893,0,0,1-.9-1.6v-7.8a.552.552,0,0,1,.9-.5l6.9,4A1.893,1.893,0,0,1,243.2,226.3Z"/><path class="i" d="M236.2,229.4a1.344,1.344,0,0,1-.6-.7l-4.7-10.2c-.3-.6-.2-1.1.2-1.2s.8.3,1.1.8l4.1,8.9,1.5-1.1c.3-.2.8,0,1.1.6s.4,1.1.1,1.3l-2.1,1.6a.854.854,0,0,1-.7,0Z"/><path class="j" d="M243.2,243.3V251c0,.6-.4.8-.9.5l-6.9-3.9a1.893,1.893,0,0,1-.9-1.6v-7.8c0-.6.4-.8.9-.5l6.9,4A1.893,1.893,0,0,1,243.2,243.3Z"/><path class="i" d="M236.2,246.4a1.344,1.344,0,0,1-.6-.7l-4.7-10.2c-.3-.6-.2-1.1.2-1.2s.8.3,1.1.8l4.1,8.9,1.5-1.1c.3-.2.8,0,1.1.6s.4,1.1.1,1.3l-2.1,1.6a.483.483,0,0,1-.7,0Z"/><path class="j" d="M243.2,260.3V268c0,.6-.4.8-.9.5l-6.9-3.9a1.893,1.893,0,0,1-.9-1.6v-7.8a.552.552,0,0,1,.9-.5l6.9,4A1.893,1.893,0,0,1,243.2,260.3Z"/><path class="i" d="M236.2,263.4a1.344,1.344,0,0,1-.6-.7l-4.7-10.2c-.3-.6-.2-1.1.2-1.2s.8.3,1.1.8l4.1,8.9,1.5-1.1c.3-.2.8,0,1.1.5s.4,1.1.1,1.3l-2.1,1.6a.428.428,0,0,1-.7.1Z"/><path class="d" d="M224,197.6l-26.4-15.2c-1-.6-1.8-.3-1.8.6a3.618,3.618,0,0,0,1.8,2.8L224,201c1,.6,1.8.3,1.8-.6A3.618,3.618,0,0,0,224,197.6Z"/><path class="h" d="M224,203.3l-56.4-32.5c-1-.6-1.8-.3-1.8.6a3.618,3.618,0,0,0,1.8,2.8L224,206.7c1,.6,1.8.3,1.8-.7A3.612,3.612,0,0,0,224,203.3Z"/><path class="d" d="M224,214.2,197.7,199c-1-.6-1.8-.3-1.8.6a3.618,3.618,0,0,0,1.8,2.8l26.4,15.2c1,.6,1.8.3,1.8-.6A3.731,3.731,0,0,0,224,214.2Z"/><path class="h" d="M224,219.9l-56.4-32.5c-1-.6-1.8-.3-1.8.6a3.618,3.618,0,0,0,1.8,2.8L224,223.3c1,.6,1.8.3,1.8-.6A3.618,3.618,0,0,0,224,219.9Z"/><path class="d" d="M224,231.9l-26.4-15.2c-1-.6-1.8-.3-1.8.6a3.618,3.618,0,0,0,1.8,2.8L224,235.3c1,.6,1.8.4,1.8-.6A3.618,3.618,0,0,0,224,231.9Z"/><path class="h" d="M224,237.6l-56.4-32.5c-1-.6-1.8-.3-1.8.6a3.618,3.618,0,0,0,1.8,2.8L224,241c1,.6,1.8.3,1.8-.6A3.618,3.618,0,0,0,224,237.6Z"/><path class="d" d="M224,249.6l-26.4-15.2c-1-.6-1.8-.3-1.8.7a3.618,3.618,0,0,0,1.8,2.8L224,253c1,.6,1.8.3,1.8-.7A3.448,3.448,0,0,0,224,249.6Z"/><path class="h" d="M224,255.3l-56.4-32.5c-1-.6-1.8-.3-1.8.6a3.618,3.618,0,0,0,1.8,2.8L224,258.7c1,.6,1.8.3,1.8-.6A3.618,3.618,0,0,0,224,255.3Z"/><path class="k" d="M147,338.8c-.9.6-2.3.6-4.4-.5s-4.9-5.7-7.2-7.6-3.5-3.3-3.4-4.9h0l.8-6.8,6.9.5s-.4,3.6-.5,5a5.759,5.759,0,0,0,1,3.8,61.78,61.78,0,0,0,3.6,5.3,17.044,17.044,0,0,0,1.9,1.9h0C148,337.8,147.8,338.2,147,338.8Z"/><path class="k" d="M117.6,346.8c-2.9-.4-5.3-2.6-6.6-4.4-1.9-2.6-5.3-6.7-5.6-8.2h0V334h0v-6.8h7.3v4.2a9.954,9.954,0,0,0,.8,3.8c.9,2.1,2.5,5.3,4.5,7.1.6.6,1.4,1.2,2.1,1.9C121.7,346.2,120.5,347.1,117.6,346.8Z"/><path class="e" d="M142.3,226.6s1.9,46.8,2,51.2c.1,8.2-4.9,46.8-4.9,46.8-4.8.7-7.3-.8-7.3-.8s-2.4-30.2-2.5-36.4c.1-3-5.3-39.3-5.3-39.3s-2.2,21.3-3.3,30.3c-1.3,10.4-8.4,53.5-8.4,53.5a8.062,8.062,0,0,1-7.4-.3s-2.4-29.9-1.4-40.3c.9-8.8-2.6-58.3,3.1-70.6Z"/><g class="t"><path class="c" d="M129.8,274.2l-3.7-26,2.1-8.8a19.917,19.917,0,0,0,9.2-6.1c-3.5,3.3-11.3,4.9-11.3,4.9l-1.8,10.1Z"/></g><path class="c" d="M125.5,135.8v-.1a2.215,2.215,0,0,0-2.4-1.8l.4,4.3A2.292,2.292,0,0,0,125.5,135.8Z"/><path class="c" d="M122.9,135.5l-.1-.1a2.083,2.083,0,0,0-2.9.6l3.5,2.5A2.339,2.339,0,0,0,122.9,135.5Z"/><path class="i" d="M130.3,174.8h3c3.2,2.1,5.2,8.3,6,13.9.4,2.9,2.3,27.5,3,37.8-8.7,5.5-32.3,4.5-36.5-2.9,1.4-5.6,1.3-38,1.3-38s9.1-2.7,3.1-9.3c1.2-.5,9.5-1.3,9.5-1.3Z"/><path class="k" d="M124.4,146c-.8,3.4-1.8,3.9-1.9,12.2,0,1.6-1.5,1.6-2.2.2a7.017,7.017,0,0,0-.6-.9,3.474,3.474,0,0,0-4.9-.2c-1.5,1.6-.9,4.5,1.1,6.2,2.4,2.1,3.8.7,3.8.7l-.1,10.9a8.872,8.872,0,0,0,2.2,2.6c1.2,1.1,7,1.8,8.1-.3,1-1.9.2-2.7.2-2.7l-.1-3.6c2.4.4,4.9.4,6.1-.2s4-3.3,4.2-11.1c.2-9.3-2-13.7-3.7-14.7C133,145,129.4,144.4,124.4,146Z"/><path class="c" d="M130.5,156.9a1.028,1.028,0,0,0-1,1.1.865.865,0,0,0,1,.9,1.028,1.028,0,0,0,1-1.1C131.5,157.2,131.1,156.9,130.5,156.9Z"/><path class="n" d="M132.7,166.1h0a1.2,1.2,0,0,0,1.5-.8l-2.3-.7A1.164,1.164,0,0,0,132.7,166.1Z"/><path class="c" d="M139.2,153.5h0a1.188,1.188,0,0,0-1.7.4l2,1.4A1.294,1.294,0,0,0,139.2,153.5Z"/><path class="c" d="M129.1,153.9h0a1.251,1.251,0,0,1,1.7.3l-2,1.4A1.165,1.165,0,0,1,129.1,153.9Z"/><path class="c" d="M138.2,156.2a1,1,0,1,0,1,1A.945.945,0,0,0,138.2,156.2Z"/><path class="n" d="M137.9,161.6l-3.2,1-.1-6Z"/><path class="n" d="M130.2,172.6s-5.2-1.5-6.7-2.8a5.142,5.142,0,0,1-1.8-2.6c.8,2.1,6,3.6,8.5,3.9Z"/><path class="c" d="M119.9,144.1l.7,9.7h.6a5.966,5.966,0,0,0,5.9-5.4h0l.1.9c1.8,4.1,6.4,3.9,6.2,3.7-1.4-1.2-1-4.6-1-4.6h0a6.252,6.252,0,0,0,6.2,5.4h6.7V152h0a13.657,13.657,0,0,0-13.7-13.7h0Z"/><path class="k" d="M185,158a8.769,8.769,0,0,1,4.5,3.1,2.9,2.9,0,0,1,.5,2.7,2.792,2.792,0,0,0-1.8-.6,19.093,19.093,0,0,0-3.3.6,31.137,31.137,0,0,0-6.2,2.8,4.4,4.4,0,0,1-4.8-.1,3.126,3.126,0,0,1-1.1-.9,1.854,1.854,0,0,1-.2-.7,4.923,4.923,0,0,1,.6-2.9,9.058,9.058,0,0,1,4.8-3.8,10.548,10.548,0,0,1,2.4-.6A10.32,10.32,0,0,1,185,158Z"/><path class="c" d="M109,335.3a5.782,5.782,0,0,1-3.6-1.2v-.8c-.4-.1-.8,1.3-1.1,2.6a8.129,8.129,0,0,0-.4,3.8c.5,1.4,2.5,2.7,3.4,3.9s1.7,3,2.9,4.5a13.466,13.466,0,0,0,7.5,4c2.1.4,7.3-.5,6.5-2.9s-3.9-4.8-6.2-6.9c-2.9-2.6-4.8-7.9-5.2-9.1v1C112.6,335,110,335.2,109,335.3Z"/><path class="c" d="M139.2,326.7c-1.9.9-6.3.5-7.2-.8l.1-.9c-.7-.2-.9,1.4-1.4,3.4-.5,1.9-.7,3.4.2,4.5,1.3,1.6,3.3,2,4.9,3.2,2.1,1.7,2.3,4.6,4.5,6.1a10.159,10.159,0,0,0,8.5.8c2.8-1,2.3-2.5,2-3.1a1.962,1.962,0,0,0-.9-.9,39.287,39.287,0,0,1-6.1-5.4C142.2,331.4,140.6,329,139.2,326.7Z"/><path class="r" d="M110,176.4c1.9-.6,3.8.9,5.6,3.6,1.9,2.8,12.5,26,12.5,26s12.4-.8,20-1.5v7.4a1.7,1.7,0,0,0-.7.1c-3.1.4-6.9,1.2-9.8,1.8a88.428,88.428,0,0,1-11.4,1.3c-2.1.1-3.7-.3-5.5-2.9s-12-23.5-12-23.5C104.5,182.6,106.9,177.5,110,176.4Z"/><path class="k" d="M150.9,204.2c2.1-.2,1.7-2.5,2.5-4.8s1.9-1.8,1.9-1.8v3c-.1,2,3.3,3.1,4.7,3.7,2.4.9,5,1.5,7.4,2.3a3.842,3.842,0,0,1,2.2,1.3,2.161,2.161,0,0,1-.1,2.2,6.9,6.9,0,0,1-5.5,3.3c-2.7.3-5.4-.4-8-.9a30.577,30.577,0,0,0-7.9-.7v-7.4A21.579,21.579,0,0,0,150.9,204.2Z"/></g></svg>