<svg xmlns="http://www.w3.org/2000/svg" width="439.5" height="408.875" viewBox="0 0 439.5 408.875"><defs><style>.a{fill:#ffc9b6;}.b{fill:#f5f5f5;}.c{fill:#263238;}.d{fill:#455a64;}.e{fill:#37474f;}.f{fill:#e0e0e0;}.g{fill:#fff;}.h{fill:#e6e6e6;}.i{fill:#ff3600;}.j{fill:#604a57;}.k{fill:#3a2934;}.l{fill:#ffdef1;opacity:0.5;}.m{fill:#06826a;}.n,.q{opacity:0.1;}.o{fill:#ffa8a7;}.p{fill:#f28f8f;}.r{fill:#055e4d;}.s{fill:#b52302;}.t{fill:#fec76e;}.u{fill:#98b1b7;}.v{fill:#5e757c;}.w{fill:#475960;}</style></defs><g transform="translate(-31.75 -56.8)"><path class="a" d="M303.8,138.4c-3.4,3.1-10.3,11.1-13.4,13.8-2.7,2.3-5.3,3.3-11.5,4.3-5,.8-16.5.4-16.6.3l-3.2,3.1c.1,0,15.2,2.9,19.1,3,7.7.1,13.7-.3,17.3-3.3,2.3-1.9,7.3-5.6,10-9.4a50.412,50.412,0,0,0,6.7-13.8S307.3,135.1,303.8,138.4Z"/><path class="b" d="M406.9,281.6c-85.8-42.1-225-42.1-310.8,0S10.3,392,96.1,434.1s225,42.1,310.8,0S492.7,323.7,406.9,281.6Z"/><path class="c" d="M171.7,248.4a6.42,6.42,0,0,1,2.8,4.5l4.4,42.9a6.657,6.657,0,0,0,3,4.6l19.6,11.3a5.3,5.3,0,0,1,2.1,2.1,5.01,5.01,0,0,1-2.1,6.8l-54.6,31.5a6.152,6.152,0,0,1-5.3,0l-25.5-14.7a4.7,4.7,0,0,1-2.1-4.6l9.8-56.8a7.529,7.529,0,0,1,3.2-4.6l39.6-22.9A5.422,5.422,0,0,1,171.7,248.4Z"/><path class="d" d="M194.2,313.3h8.9a5.692,5.692,0,0,1,1.1,2.9,5.406,5.406,0,0,1-2.7,4.4l-54.6,31.5a4.9,4.9,0,0,1-2.7.6V342.1Z"/><path class="c" d="M172.7,251a1.88,1.88,0,0,1,1.8,1.9l4.4,42.9a6.657,6.657,0,0,0,3,4.6l19.6,11.3c1.5.9,1.5,2.2,0,3.1l-54.6,31.5a6.152,6.152,0,0,1-5.3,0L122,335a4.7,4.7,0,0,1-2.1-4.6l9-51.6a7.529,7.529,0,0,1,3.2-4.6l39.6-22.9A1.493,1.493,0,0,1,172.7,251Z"/><path class="e" d="M201.5,314.8l-54.6,31.5a6.152,6.152,0,0,1-5.3,0L122,335a4.626,4.626,0,0,1-1.8-2.1l59.7-34.5a7.277,7.277,0,0,0,1.9,2l19.6,11.3C203,312.6,203,313.9,201.5,314.8Z"/><path class="d" d="M48.2,361.5,255.4,241.9a7.985,7.985,0,0,0,3.7-6.4V65.3a8.314,8.314,0,0,0-3.7-6.5l-1.9-1.1a8.262,8.262,0,0,0-7.5,0L38.2,177a7.985,7.985,0,0,0-3.7,6.4V353.5a8.314,8.314,0,0,0,3.7,6.5l2.5,1.5A8.262,8.262,0,0,0,48.2,361.5Z"/><path class="c" d="M49.4,360.8l-1.3.7a8.055,8.055,0,0,1-7.4,0l-2.5-1.4a8.017,8.017,0,0,1-3.7-6.5V183.5a6.959,6.959,0,0,1,1.1-3.7l13.9,8Z"/><path class="e" d="M48.2,361.5,255.4,241.9a7.985,7.985,0,0,0,3.7-6.4V65.4c0-2.4-1.7-3.3-3.7-2.2L48.2,182.8a7.985,7.985,0,0,0-3.7,6.4V359.3C44.4,361.7,46.1,362.7,48.2,361.5Z"/><path class="f" d="M139.1,300.4c0,1.6,1.2,2.2,2.7,1.3l19.6-11.3a6.106,6.106,0,0,0,2.7-4.4c0-1.6-1.2-2.2-2.7-1.4L141.7,296A5.546,5.546,0,0,0,139.1,300.4Z"/><path class="g" d="M51.9,191.7V339.6c0,1.4.9,1.9,2.1,1.2L249.1,228.1a4.6,4.6,0,0,0,2.1-3.7V76.3c0-1.4-.9-1.9-2.1-1.2L54,188A4.5,4.5,0,0,0,51.9,191.7Z"/><path class="h" d="M57.5,197.5V328.6c0,1.7,1.2,2.5,2.7,1.6L243.5,224.4a6.109,6.109,0,0,0,2.7-4.8V90.9c0-3.8-2.7-5.3-5.9-3.4L61.3,190.9A8.045,8.045,0,0,0,57.5,197.5Z"/><path class="i" d="M57.5,203v-5.5a8.447,8.447,0,0,1,3.8-6.6l179-103.4c3.3-1.9,5.9-.3,5.9,3.4V94Z"/><path class="g" d="M223.4,102.2a4.559,4.559,0,0,1-2,3.5c-1.1.7-2,.1-2-1.2a4.559,4.559,0,0,1,2-3.5C222.6,100.4,223.5,100.9,223.4,102.2Z"/><path class="g" d="M231.5,97.6a4.559,4.559,0,0,1-2,3.5c-1.1.7-2,.1-2-1.2a4.559,4.559,0,0,1,2-3.5C230.6,95.7,231.5,96.3,231.5,97.6Z"/><path class="g" d="M239.6,92.9a4.559,4.559,0,0,1-2,3.5c-1.1.7-2,.1-2-1.2a4.559,4.559,0,0,1,2-3.5C238.7,91.1,239.6,91.6,239.6,92.9Z"/><path class="j" d="M243.4,150l-69,39.9V173.4l69-39.9Z"/><path class="j" d="M243.4,215.4l-69,39.8V214.3l69-39.8Z"/><path class="j" d="M243.4,129.5l-69,39.8V141.4l69-39.8Z"/><path class="j" d="M243.4,159.4l-69,39.8v-5.5l69-39.8Z"/><path class="j" d="M243.4,169.2l-69,39.8v-5.5l69-39.8Z"/><path class="g" d="M245.7,183.2l-69,39.9v-5.6l69-39.8Z"/><path class="g" d="M245.7,192.4l-69,39.9v-5.6l69-39.8Z"/><path class="g" d="M245.7,201.8l-69,39.9v-5.6l69-39.8Z"/><path class="g" d="M241.2,213.5l-64.5,37.2v-5.5l64.5-37.3Z"/><path class="k" d="M236.8,149.1l-55.9,32.3c-1.4.8-2.6-.1-2.6-2h0a6.369,6.369,0,0,1,2.6-5l55.9-32.3c1.4-.8,2.6.1,2.6,2h0A5.979,5.979,0,0,1,236.8,149.1Z"/><path class="l" d="M163.7,168.5,60.6,228.1v97.8l103.1-59.5Z"/><path class="m" d="M163.7,147,60.6,206.6v21.5l103.1-59.6Z"/><path class="g" d="M136.5,176.7a5.736,5.736,0,0,1-.7.4,1.268,1.268,0,0,1-.6.1c-.2,0-.3-.1-.5-.2-.1-.1-.3-.2-.4-.4a11.671,11.671,0,0,1-3.7,4,6.983,6.983,0,0,1-2.4,1.1,1.23,1.23,0,0,1-1.4-.5c-.1-.2-.2-.5-.3-.7,0-.2-.1-.4-.1-.7v-.5a2.485,2.485,0,0,1,.1-.8c.1-.4.2-.7.3-1.1l.9.1a1.854,1.854,0,0,0-.2.7,1.268,1.268,0,0,0-.1.6v.6a.758.758,0,0,0,.2.4.52.52,0,0,0,.4.2,1.268,1.268,0,0,0,.6-.1,2.994,2.994,0,0,0,.8-.4,8.8,8.8,0,0,1,1-.6,5.5,5.5,0,0,0,.9-.7,5.716,5.716,0,0,0,.8-.7,4.62,4.62,0,0,0,.7-.7,3.039,3.039,0,0,0,.5-.7,4.875,4.875,0,0,0,.3-.7c.1-.2.1-.5.2-.7a1.7,1.7,0,0,0,.1-.7c0-.2.1-.4.1-.7l1.1-.3a1.7,1.7,0,0,0-.1.7v.8a.756.756,0,0,0,.1.4c0,.1.1.3.2.3.1.1.2.1.4.1s.3-.1.6-.3l.2-.1v1.8Zm-5.7-2.4-.8,1.5-.8-.5.8-1.5Zm1.8-1.1-.8,1.5-.8-.5.8-1.5Z"/><path class="g" d="M136.4,175.2l1-.7a4.7,4.7,0,0,0,1.2-.9c.4-.4.8-.7,1.2-1.1a6.885,6.885,0,0,0,1.1-1.3,11.318,11.318,0,0,0,1-1.3,2.544,2.544,0,0,1-.7.2,24743688770608.69,24743688770608.69,0,0,0-1.2.2,1.422,1.422,0,0,0-.6.2l-.3.3a1.381,1.381,0,0,0-.3.4c-.1.1-.1.3-.2.4s-.1.3-.2.4c0,.1-.1.2-.1.3s0,.1-.1.2l-1-.2a3.552,3.552,0,0,1,.4-.9,4.053,4.053,0,0,1,.5-.9,5.545,5.545,0,0,1,.6-.8l.6-.6a1.08,1.08,0,0,1,.7-.3c.2,0,.5-.1.7-.1a31094804537405.23,31094804537405.23,0,0,0,1.4-.2,1.854,1.854,0,0,0,.7-.2c.2-.1.5-.2.7-.3l-.1,1.6c-.4.5-.9,1.1-1.3,1.7-.5.6-.9,1.2-1.4,1.8s-1,1.1-1.6,1.7a11.511,11.511,0,0,1-1.7,1.4l-1,.7Zm3.7-8.6-.9,1.7-.9-.6.8-1.7Z"/><path class="g" d="M145.4,161.3a15.028,15.028,0,0,1,.2,2c0,.7.1,1.3.1,2v4.9l-1.2,1v-4.6c0-.8-.1-1.5-.1-2.2a11.077,11.077,0,0,0-.2-1.9Z"/><path class="g" d="M147,167.4h.4a.9.9,0,0,0,.5-.1,4.331,4.331,0,0,0,.5-.1c.2-.1.3-.1.4-.2.1,0,.1-.1.2-.1.1-.1.2-.1.2-.2.1-.1.2-.1.3-.2s.2-.2.2-.3c.1-.1.1-.2.2-.3,0-.1.1-.2.1-.3h0a.9.9,0,0,0-.1-.5,1.38,1.38,0,0,0-.3-.4l-.4-.4c-.2-.1-.3-.2-.5-.3s-.3-.2-.5-.2a.9.9,0,0,0-.5-.1l.7-1.7.9.3a3.509,3.509,0,0,1,.8.5,4.35,4.35,0,0,1,.6.7,3.552,3.552,0,0,1,.4.9c0,.2.1.4.1.6a2.814,2.814,0,0,1-.1.8,2.967,2.967,0,0,1-.4,1.1,4.129,4.129,0,0,1-.7,1.1,3.114,3.114,0,0,1-.9.7c-.1,0-.1.1-.2.1l-.6.3a1.421,1.421,0,0,1-.6.2c-.2,0-.4.1-.6.1h-.5Z"/><path class="g" d="M155.3,164.3l-.1.1c-.1.1-.2.1-.3.2a.3.3,0,0,1-.4,0,4.529,4.529,0,0,1-.3,1.6,8.65,8.65,0,0,1-.7,1.7,9.5,9.5,0,0,1-1,1.7c-.4.6-.7,1.1-1.1,1.6l-.5-1,.6-.9.6-.9a4.054,4.054,0,0,0,.5-.9,3.552,3.552,0,0,0,.4-.9l.3-.9a2.2,2.2,0,0,0,.1-.8.749.749,0,0,0-.1-.5,1.422,1.422,0,0,0-.2-.6c-.1-.2-.1-.4-.2-.6s-.1-.4-.2-.6l1.1-1.3a1.884,1.884,0,0,0,.4.9,2.186,2.186,0,0,0,.3.5c.1.1.2.2.3.2a.756.756,0,0,0,.4-.1l.1-.1Z"/><path class="g" d="M155.1,163l1-.6a2.186,2.186,0,0,1,.5-.3c.2-.1.3-.3.5-.4.1-.2.3-.3.3-.5a1.268,1.268,0,0,0,.1-.6.756.756,0,0,0-.1-.4c0-.2-.1-.3-.1-.5-.1-.2-.1-.4-.2-.6a2.186,2.186,0,0,0-.3-.5l1-1.4a1.421,1.421,0,0,1,.2.6,1.421,1.421,0,0,1,.2.6c.1.2.1.5.2.7,0,.2.1.5.1.7a2.745,2.745,0,0,1-.2,1.3,3.7,3.7,0,0,1-.5,1.1,7.006,7.006,0,0,1-.8,1,8.745,8.745,0,0,1-1,.8l-1,.6Zm.2,3.3.8-1.5.8.5-.8,1.5Zm2.4.2-.7,1.4-.7-.4.7-1.4Zm-.6-1.3.8-1.5.8.5-.8,1.5Z"/><path class="g" d="M182.2,152.3a5.936,5.936,0,0,1-.8.4,4.875,4.875,0,0,0-.7.3c-.2.1-.5.1-.7.2a.749.749,0,0,1-.5-.1c-.1-.1-.3-.2-.4-.4a1.483,1.483,0,0,1-.1-.7v-.5c0-.2.1-.3.1-.5s.1-.3.2-.5.1-.3.2-.5l.6.3c0,.1-.1.2-.1.3a.6.6,0,0,0-.1.4c0,.1-.1.3-.1.4v.3c0,.1.1.1.3.2a1.087,1.087,0,0,0,.5-.1c.2-.1.5-.2.7-.3a4.053,4.053,0,0,0,.9-.5,2.092,2.092,0,0,0,.6-.4,4.234,4.234,0,0,1,.7-.5c.2-.2.5-.4.7-.6l.6-.6c0-.1-.1-.3-.1-.4s-.1-.2-.2-.3-.1-.2-.2-.3-.1-.2-.2-.3l.7-1,.1.1c0,.1.1.1.1.2s.1.2.2.4c.1.1.1.3.2.4,0,.1.1.3.1.4v.4a.9.9,0,0,1-.1.5c-.1.2-.2.3-.3.5a2.182,2.182,0,0,1-.4.5l-.5.5c-.2.2-.4.3-.5.5s-.4.3-.5.4c-.2.1-.3.2-.5.3-.2.4-.3.5-.5.6Zm.6,1-.7,1.2-.7-.4.7-1.2Z"/><path class="g" d="M187.9,148.9l-.1.1a1.2,1.2,0,0,1-1.1.2c-.2-.1-.4-.5-.4-1.1v-4a.6.6,0,0,0-.1-.4l.9-.8a1.087,1.087,0,0,0,.1.5v4.7c0,.1,0,.1.1.1h.2c.1,0,.1-.1.2-.1l.2-.1Z"/><path class="g" d="M190.8,146.2v1.1h-.1a1.421,1.421,0,0,1-.6.2c-.2,0-.3,0-.4-.1-.1.2-.2.3-.3.5a1,1,0,0,1-.5.4c-.2.1-.4.3-.6.4a2.186,2.186,0,0,0-.5.3l-.1.1V148l.1-.1a4.233,4.233,0,0,0,.7-.5c.2-.1.3-.3.4-.4a.758.758,0,0,0,.2-.4.6.6,0,0,0,.1-.4v-.3a4.331,4.331,0,0,1-.1-.5l.8-.8c0,.1.1.2.1.3v1.3a.354.354,0,0,0,.3.3c.3-.2.4-.2.5-.3Zm-1.4-2.8-.6,1-.6-.4.6-1Zm1.3-.8-.6,1-.6-.4.6-1Z"/><path class="g" d="M190.8,146.2l.3-.3c.1-.1.2-.3.3-.4.1-.2.1-.3.2-.5s.1-.3.2-.5c0-.2.1-.3.1-.5s.1-.3.1-.4l.9-.3a.367.367,0,0,1-.1.3c0,.1-.1.3-.1.4,0,.2-.1.3-.1.4v.4c0,.1,0,.1.1.2h.2c.1-.1.2-.1.3-.3a.758.758,0,0,0,.2-.4c.1-.2.1-.3.2-.5a.9.9,0,0,0,.1-.5c0-.2.1-.3.1-.5s0-.3.1-.4l.8-.3v1.7c0,.1,0,.1.1.2l.1.1c.1,0,.1,0,.2-.1a.781.781,0,0,0,.4-.4c.1-.2.2-.3.2-.5v-.5c0-.2-.1-.3-.1-.4s-.1-.3-.1-.4a.367.367,0,0,1-.1-.3l.7-.9a.1.1,0,0,0,.1.1c0,.1.1.1.1.2s.1.2.1.3.1.3.1.4.1.3.1.4v.5a2.2,2.2,0,0,1-.1.8c-.1.2-.2.5-.3.7a2.652,2.652,0,0,1-.5.6c-.2.2-.4.3-.6.5h0a.367.367,0,0,1-.3.1h-.2c-.1,0-.1-.1-.2-.1s-.1-.1-.2-.2c-.1.1-.1.2-.2.4-.1.1-.1.2-.2.3l-.3.3a1.381,1.381,0,0,1-.4.3h0a.367.367,0,0,1-.3.1h-.2c-.1,0-.1,0-.2-.1-.1,0-.1-.1-.2-.2,0,.1-.1.2-.2.3s-.1.2-.2.3l-.3.3c-.1.1-.3.2-.4.3l-.1.1v-1.1Zm3.1-5.7-.6,1-.6-.4.6-1Zm-.5-1,.5-1,.5.3-.5,1Zm1.8.2-.6,1-.6-.4.6-1Z"/><path class="g" d="M199.1,144.3l.9-.9a5.5,5.5,0,0,0,.7-.9,9.226,9.226,0,0,0,.5-.8,4.875,4.875,0,0,1,.3-.7,2.186,2.186,0,0,0-.5.3c-.2.1-.3.2-.5.2a.756.756,0,0,1-.4.1.367.367,0,0,1-.3-.1c-.1-.1-.2-.2-.2-.3-.1-.1-.1-.3-.1-.6v-.5c0-.2.1-.4.1-.6.1-.2.1-.4.2-.6a2.186,2.186,0,0,1,.3-.5,1.768,1.768,0,0,1,.7-.7.9.9,0,0,1,1,0l.3.3c.1.1.1.2.2.4a.749.749,0,0,1,.1.5c0,.2.1.4.1.6l.2-.1v1.1l-.3.2a4.951,4.951,0,0,1-.4,1.3,4.728,4.728,0,0,1-.7,1.2,10.63,10.63,0,0,1-.9,1.1c-.3.3-.7.6-1,.9Zm1.6-5.5c-.1,0-.1.1-.2.2s-.1.2-.2.3a.6.6,0,0,0-.1.4c0,.1-.1.3-.1.4a.367.367,0,0,0,.1.3c.1.1.1.1.2.1h.2c.1,0,.2-.1.3-.1a.349.349,0,0,1,.2-.1c.1,0,.1-.1.2-.1s.1-.1.2-.1.1-.1.2-.1v-.3c0-.1-.1-.2-.1-.3s-.1-.2-.1-.3l-.2-.2c-.1-.1-.1-.1-.2-.1Z"/><path class="g" d="M202.4,139.4h0a2.736,2.736,0,0,0,.5-.4c.1-.1.2-.3.3-.4s.1-.3.2-.5c0-.2.1-.3.1-.5s.1-.3.1-.5.1-.3.1-.5l.8-.1c0,.1,0,.2-.1.2v.9a.1.1,0,0,0,.1.1.758.758,0,0,1,.2-.4c.1-.2.1-.3.2-.5a2.186,2.186,0,0,1,.3-.5,3.329,3.329,0,0,0,.3-.6c.1-.2.3-.4.4-.6s.3-.4.4-.6l.5-.5c.2-.1.3-.3.5-.4a1.421,1.421,0,0,1,.6-.2.749.749,0,0,1,.5.1c.1.1.3.2.3.4a1.268,1.268,0,0,1,.1.6v.1a2.663,2.663,0,0,1-.3,1.2l.6-.4v1.1l-.9.5c-.2.1-.4.3-.6.3a.756.756,0,0,1-.4.1c-.2.2-.5.4-.7.6a2.506,2.506,0,0,1-.7.4,5.9,5.9,0,0,1-.8.4,1.689,1.689,0,0,1-.5.2h-.4c-.1,0-.2-.1-.3-.2l-.6.9a5.548,5.548,0,0,1-.8.6l-.1.1Zm2.8-1.6.6-.3c.1,0,.1-.1.2-.1a2.186,2.186,0,0,1,.5-.3c.2-.1.4-.3.6-.4.2-.2.4-.3.5-.5a2.092,2.092,0,0,0,.4-.6,1.421,1.421,0,0,0,.2-.6c0-.1-.1-.2-.1-.3a.5.5,0,0,0-.6,0c-.1,0-.1.1-.2.1l-.1.1-.6.6a1.794,1.794,0,0,0-.5.7,2.01,2.01,0,0,0-.4.8A1.769,1.769,0,0,0,205.2,137.8Zm2.8-5.9-.7,1.2-.7-.4.7-1.2Z"/><path class="g" d="M212.2,132.4a.367.367,0,0,0-.3-.1h-.3c-.1,0-.3.1-.4.1-.1.1-.2.1-.3.2s-.2.2-.2.3a.367.367,0,0,0-.1.3c0,.1-.1.2-.1.3v.1a.367.367,0,0,0,.1.3c.1.1.1.2.2.2h.4c.1,0,.2-.1.3-.1h.1c.1-.1.3-.2.4-.3s.3-.2.4-.3l.4-.3.1,1a2.181,2.181,0,0,1-.5.4,2.652,2.652,0,0,0-.6.5,2.177,2.177,0,0,1-.8.5,8.8,8.8,0,0,1-1,.6l-.8.5v-1.1l.2-.1.7-.4a.52.52,0,0,1-.2-.4c0-.2-.1-.3-.1-.6a2.2,2.2,0,0,1,.1-.8c.1-.3.2-.5.3-.8a1.794,1.794,0,0,1,.5-.7,2.651,2.651,0,0,1,.6-.5c.1-.1.2-.1.3-.2.1,0,.2-.1.3-.1h.5c.1,0,.2,0,.2.1.1,0,.1.1.2.1Z"/><path class="g" d="M220.2,126.4c.1-.1.2-.2.3-.2a.1.1,0,0,0,.1-.1.349.349,0,0,0,.2-.1c.1,0,.2-.1.3-.1h.3l-.3,1.2a.756.756,0,0,0-.4.1c-.1,0-.1.1-.2.1a.215.215,0,0,0-.2.2c-.1.1-.2.1-.3.2l-.3.3c-.1.1-.2.3-.3.4a.758.758,0,0,0-.2.4c-.1.1-.1.3-.2.4,0,.1-.1.3-.1.4s0,.2.1.2a.349.349,0,0,0,.2.1.367.367,0,0,0,.3-.1c.1,0,.2-.1.3-.1s.3-.1.4-.1h.4c.1,0,.2.1.3.2s.1.2.1.4v.1a2.92,2.92,0,0,1-.2.9,2.994,2.994,0,0,1-.4.8,4.233,4.233,0,0,1-.5.7l-.6.6a1.794,1.794,0,0,1-.7.5,2.092,2.092,0,0,1-.6.4,2.967,2.967,0,0,1-1.1.4,1.062,1.062,0,0,1-.8-.1.99.99,0,0,1-.5-.7,1.949,1.949,0,0,1-.1-.8v-.5a1.268,1.268,0,0,1,.1-.6c0-.2.1-.4.1-.6s.1-.4.1-.6.1-.3.1-.5a1.007,1.007,0,0,1,.1-.3v-.2l.8-.1c-.1.2-.1.5-.2.7,0,.2-.1.4-.1.6s-.1.4-.1.6-.1.4-.1.6v.3a.749.749,0,0,0,.1.5q.15.3.3.3a.629.629,0,0,0,.6,0c.2-.1.5-.2.7-.3l.9-.6a4.348,4.348,0,0,0,.7-.6,2.651,2.651,0,0,0,.5-.6c.1-.2.2-.3.2-.5H220c-.1,0-.1,0-.2.1-.1,0-.1,0-.2.1a1.087,1.087,0,0,1-.5.1h-.4q-.15,0-.3-.3c-.1-.1-.1-.4-.1-.6a4.4,4.4,0,0,1,.2-1,4.18,4.18,0,0,1,.4-1l.6-.9Z"/><path class="g" d="M223.8,128l-.1.1a1.2,1.2,0,0,1-1.1.2c-.2-.1-.4-.5-.4-1.1v-4c0-.2,0-.3-.1-.4l.9-.8a1.087,1.087,0,0,0,.1.5v4.7c0,.1,0,.1.1.1h.2c.1,0,.1-.1.2-.1l.2-.1Z"/><path class="g" d="M223.6,127.1l.5-.3a1.268,1.268,0,0,1,.1-.6c0-.2.1-.5.1-.7.1-.3.1-.5.2-.8a4.875,4.875,0,0,1,.3-.7,2.092,2.092,0,0,1,.4-.6c.1-.2.3-.3.4-.4h0a.5.5,0,0,1,.6,0c.1.1.2.1.2.2a.367.367,0,0,1,.1.3c0,.1.1.3.1.4v.4a1.854,1.854,0,0,1-.2.7c-.1.3-.2.5-.3.8a4.349,4.349,0,0,1-.4.7c-.2.2-.3.4-.5.6,0,.1.1.1.1.2s.1.1.2.2l.2.2.1.1v-.1a1.087,1.087,0,0,1,.1-.5,1.421,1.421,0,0,1,.2-.6l.3-.6a2.186,2.186,0,0,1,.3-.5c.1-.1.2-.3.4-.4.1-.1.3-.2.4-.3h.1v1.1h-.1l-.3.3c-.1.1-.2.3-.3.4-.1.2-.2.3-.2.5s-.1.3-.1.5v.3a.1.1,0,0,0,.1.1l.1.1-.6,1.1a1.422,1.422,0,0,1-.6-.2c-.2-.1-.3-.2-.5-.3a2.181,2.181,0,0,1-.4-.5l-.3-.6-.6.4Zm2.3-2.5h0v-.3c0-.1,0-.1-.1-.2a.1.1,0,0,0-.1-.1l-.1-.1c-.1,0-.1.1-.2.2s-.1.2-.2.4-.1.3-.2.5c0,.2-.1.3-.1.5s-.1.3-.1.5v.4h0a1.381,1.381,0,0,1,.4-.3,2.186,2.186,0,0,0,.3-.5c.1-.2.2-.3.2-.5A.646.646,0,0,0,225.9,124.6Z"/><path class="g" d="M227.2,125l.7-.4c.1-.1.2-.1.3-.2l.3-.3a1.38,1.38,0,0,0,.3-.4.6.6,0,0,0,.1-.4V123c0-.1-.1-.2-.1-.4,0-.1-.1-.3-.1-.4-.1-.1-.1-.3-.2-.4l.8-.9c.1.1.1.3.2.4a.749.749,0,0,1,.1.5c0,.2.1.3.1.5v.5a2.92,2.92,0,0,1-.2.9,2.994,2.994,0,0,1-.4.8c-.2.2-.4.5-.6.7a3.039,3.039,0,0,1-.7.5l-.7.4Zm1.6-5.2-.6,1-.6-.4.6-1Zm1.3-.8-.6,1-.6-.4.6-1Z"/><path class="g" d="M232.1,120.4a4.331,4.331,0,0,1,.1.5c0,.2.1.3.1.5s.1.3.1.5v.5a2.485,2.485,0,0,1-.1.8,6.89,6.89,0,0,1-.3.8,6.315,6.315,0,0,1-.4.9c-.2.3-.3.6-.5.9a5.546,5.546,0,0,1-.6.8c-.2.3-.4.5-.6.8l-.4-.7c.2-.2.3-.4.5-.6s.3-.4.5-.6a4.347,4.347,0,0,0,.4-.7l.3-.6a1.421,1.421,0,0,0,.2-.6,1.087,1.087,0,0,0,.1-.5v-.5c0-.2-.1-.3-.1-.5,0-.1-.1-.3-.1-.4s-.1-.2-.1-.4Z"/><path class="g" d="M234.9,121.5l-.1.1a1.2,1.2,0,0,1-1.1.2c-.2-.1-.4-.5-.4-1.1v-4a.6.6,0,0,0-.1-.4l.9-.8a1.087,1.087,0,0,0,.1.5v4.7c0,.1,0,.1.1.1h.2c.1,0,.1-.1.2-.1l.2-.1Z"/><path class="g" d="M234.8,120.6l.4-.3c.1-.1.2-.1.3-.2s.2-.2.3-.2.2-.2.3-.3l.3-.3c.1-.1.1-.2.2-.4,0-.1.1-.3.1-.4a.749.749,0,0,0-.1-.5,1.38,1.38,0,0,0-.3-.4,2.182,2.182,0,0,0-.5-.4,2.092,2.092,0,0,1-.6-.4l.1-1,2.8-3.1.3.8-2.3,2.5c.1,0,.2.1.3.2s.2.1.3.2c.2.1.3.3.4.4a2.186,2.186,0,0,1,.3.5.9.9,0,0,1,.1.5v.5a2.768,2.768,0,0,1-.1.9,2.01,2.01,0,0,1-.4.8,4.233,4.233,0,0,1-.5.7,2.651,2.651,0,0,1-.6.5l-1.1.7Z"/><path class="g" d="M72.2,238.9h0c-1.5.8-2.7-.1-2.7-2h0a6.224,6.224,0,0,1,2.7-5.1h0c1.5-.8,2.7.1,2.7,2h0A6.224,6.224,0,0,1,72.2,238.9Z"/><path class="g" d="M112.5,215.8,84.6,231.9c-1.5.9-2.7-.1-2.7-2.1h0c0-2,1.2-4.4,2.7-5.2l27.9-16.1c1.5-.9,2.7.1,2.7,2.1h0A6.718,6.718,0,0,1,112.5,215.8Z"/><path class="g" d="M152,193l-20.8,12c-1.5.9-2.7-.1-2.7-2.1h0c0-2,1.2-4.4,2.7-5.2l20.8-12c1.5-.9,2.7.1,2.7,2.1h0A6.718,6.718,0,0,1,152,193Z"/><path class="g" d="M72.2,252.9h0c-1.5.8-2.7-.1-2.7-2h0a6.224,6.224,0,0,1,2.7-5.1h0c1.5-.8,2.7.1,2.7,2h0A6.522,6.522,0,0,1,72.2,252.9Z"/><path class="g" d="M104.6,234.3,84.5,245.9c-1.5.9-2.7-.1-2.7-2.1h0c0-2,1.2-4.4,2.7-5.2L104.6,227c1.5-.9,2.7.1,2.7,2.1h0A6.435,6.435,0,0,1,104.6,234.3Z"/><path class="g" d="M152,206.9l-20.8,12c-1.5.9-2.7-.1-2.7-2.1h0c0-2,1.2-4.4,2.7-5.2l20.8-12c1.5-.9,2.7.1,2.7,2.1h0A6.563,6.563,0,0,1,152,206.9Z"/><path class="g" d="M72.2,266.9h0c-1.5.8-2.7-.1-2.7-2h0a6.224,6.224,0,0,1,2.7-5.1h0c1.5-.8,2.7.1,2.7,2h0A6.224,6.224,0,0,1,72.2,266.9Z"/><path class="g" d="M112.5,243.8,84.6,259.9c-1.5.9-2.7-.1-2.7-2.1h0c0-2,1.2-4.4,2.7-5.2l27.9-16.1c1.5-.9,2.7.1,2.7,2.1h0A6.563,6.563,0,0,1,112.5,243.8Z"/><path class="g" d="M152,221l-20.8,12c-1.5.9-2.7-.1-2.7-2.1h0c0-2,1.2-4.4,2.7-5.2l20.8-12c1.5-.9,2.7.1,2.7,2.1h0A6.718,6.718,0,0,1,152,221Z"/><path class="g" d="M72.2,280.9h0c-1.5.8-2.7-.1-2.7-2h0a6.224,6.224,0,0,1,2.7-5.1h0c1.5-.8,2.7.1,2.7,2h0A6.522,6.522,0,0,1,72.2,280.9Z"/><path class="g" d="M104.6,262.3,84.5,273.9c-1.5.9-2.7-.1-2.7-2.1h0c0-2,1.2-4.4,2.7-5.2L104.6,255c1.5-.9,2.7.1,2.7,2.1h0A6.435,6.435,0,0,1,104.6,262.3Z"/><path class="g" d="M152,234.9l-20.8,12c-1.5.9-2.7-.1-2.7-2.1h0c0-2,1.2-4.4,2.7-5.2l20.8-12c1.5-.9,2.7.1,2.7,2.1h0C154.7,231.7,153.5,234.1,152,234.9Z"/><path class="g" d="M72.2,295.1h0c-1.5.8-2.7-.1-2.7-2h0a6.224,6.224,0,0,1,2.7-5.1h0c1.5-.8,2.7.1,2.7,2h0A6.522,6.522,0,0,1,72.2,295.1Z"/><path class="g" d="M108.8,274.1l-24.2,14c-1.5.9-2.7-.1-2.7-2.1h0c0-2,1.2-4.4,2.7-5.2l24.2-14c1.5-.9,2.7.1,2.7,2.1h0A6.563,6.563,0,0,1,108.8,274.1Z"/><path class="g" d="M152,249.1l-20.8,12c-1.5.9-2.7-.1-2.7-2.1h0c0-2,1.2-4.4,2.7-5.2l20.8-12c1.5-.9,2.7.1,2.7,2.1h0A6.563,6.563,0,0,1,152,249.1Z"/><path class="g" d="M72.2,309h0c-1.5.8-2.7-.1-2.7-2h0a6.224,6.224,0,0,1,2.7-5.1h0c1.5-.8,2.7.1,2.7,2h0A6.224,6.224,0,0,1,72.2,309Z"/><path class="g" d="M117.1,283.2,84.5,302c-1.5.9-2.7-.1-2.7-2.1h0c0-2,1.2-4.4,2.7-5.2L117,275.9c1.5-.9,2.7.1,2.7,2.1h0A6.084,6.084,0,0,1,117.1,283.2Z"/><path class="g" d="M152,263.1l-20.8,12c-1.5.9-2.7-.1-2.7-2.1h0c0-2,1.2-4.4,2.7-5.2l20.8-12c1.5-.9,2.7.1,2.7,2.1h0A6.718,6.718,0,0,1,152,263.1Z"/><path class="h" d="M313.6,136.4a9.224,9.224,0,0,0-6.1-.7c-3.1.9-5.6,2.9-8.6,6.1s-8,8.3-8,8.3,2.5,6.2,8,8.5l11.6-10.8Z"/><path class="n" d="M313.6,136.4a9.224,9.224,0,0,0-6.1-.7c-3.1.9-5.6,2.9-8.6,6.1s-8,8.3-8,8.3,2.5,6.2,8,8.5l11.6-10.8Z"/><rect class="o" width="7" height="12" transform="translate(326.8 278.1)"/><path class="o" d="M314.5,281.2l-7,.2-.4-12.7,7.4-.3Z"/><path class="e" d="M337,187.8c0,6.7-1.2,45.8-1.2,45.8.2,1.9,2,5.4,2.2,12.3.2,10.1-3.7,37.9-3.7,37.9a9.257,9.257,0,0,1-7.8.2s-3.2-37.6-4.5-47.6c-1.1-8.7-3-32.4-3-32.4l-3.3,28.5a42.071,42.071,0,0,1,.9,11.2c-.3,4.6-1.6,33.3-1.6,33.3a9.6,9.6,0,0,1-8.1.7s-5-40.8-5-45.1c-.1-4.8,1.8-54.2,1.8-54.2Z"/><path class="h" d="M332.6,138.6a6.823,6.823,0,0,1,3.4,3.5,15.651,15.651,0,0,1,1,6.1V162l.2,26c-10.1,5.3-23,5.7-33.7-2.2,0,0,.6-33.5.6-39V146a12.446,12.446,0,0,1,13.3-11.6,20.025,20.025,0,0,1,2.4.4l6.4,1.6,6.4,2.2Z"/><circle class="c" cx="9.7" cy="9.7" r="9.7" transform="translate(304.8 103.3)"/><path class="c" d="M331.3,119.8s-1.6,7.4-2.2,8.6a3.754,3.754,0,0,1-1.9,1.6l.1-5.2Z"/><path class="c" d="M329.3,109.3a3.767,3.767,0,0,1,3,1.1c1.3,1.3.6,5.4-1,9.5l-3,.3Z"/><path class="o" d="M327.4,120.2c.6.4,1.4-.8,2.2-1.6a2.455,2.455,0,0,1,3.6-.2,5.5,5.5,0,0,1,.7.9c1.2,2.6-1,5.9-2.9,6.5-3.2,1-3.7-1.1-3.7-1.1l-.2,12h0c-4,5.2-15.2,4.7-10.5-.7v-3.6a21.308,21.308,0,0,1-4.4.2c-2.4-.4-3.9-2.3-4.6-4.8-1.2-4.1-1.6-7.5-.6-15.6,1.1-8.9,11.4-9,17-5.5S327.4,120.2,327.4,120.2Z"/><path class="c" d="M327.4,121.2c.3,0,1.4-1.9,2.2-2.6,1-.9-.3-9.3-.3-9.3a4.249,4.249,0,0,0-1-4.3c-1.4-1.5-3.7-1.7-7.7-2.3-2.1-.3-5.3-.9-7.4-1.3-2.5-.5-4.6-1-6.3.6a4.448,4.448,0,0,0-1.2,5,4.347,4.347,0,0,0,2.5,2.3s1.1,1,4.9,1.4a52.66,52.66,0,0,0,10.5-.2c1.1-.1,1.3.9,1.9,3.8C326,116.8,326.4,121.2,327.4,121.2Z"/><path class="c" d="M329.3,110l3.6-1.9a2,2,0,0,0-2.7-.9h0A2.09,2.09,0,0,0,329.3,110Z"/><path class="p" d="M316.5,132.6s5.3-1.1,7.2-2.1a6.948,6.948,0,0,0,2.6-2.5,8.469,8.469,0,0,1-1.5,3c-1.4,1.7-8.3,3-8.3,3Z"/><path class="c" d="M316.7,118.8a1.1,1.1,0,0,0,1,1.1h0a1.193,1.193,0,0,0,1.2-1.1c.1-.7-.4-1.1-1.1-1.2a1.512,1.512,0,0,0-1.1,1.2Z"/><path class="c" d="M317.9,114.8l2.3,1.3a1.436,1.436,0,0,0-.5-1.8,1.286,1.286,0,0,0-1.8.5Z"/><path class="p" d="M317,126.2l-6.3,2.1c.2.7,4.8-.1,5.5-.3h0A1.5,1.5,0,0,0,317,126.2Z"/><path class="c" d="M307.6,115.7l2.1-1.6a1.28,1.28,0,0,0-1.8-.3h0A1.325,1.325,0,0,0,307.6,115.7Z"/><path class="c" d="M308.2,118.6a1.051,1.051,0,0,0,2.1-.1,1.028,1.028,0,0,0-1.1-1,1.1,1.1,0,0,0-1,1.1Z"/><path class="p" d="M313.6,117.6l-.3,6.4-3.4-1.2Z"/><path class="c" d="M326.8,286.6v-1c-.7.3-2.2,6.3-5,8.8-2.2,2-5.3,4.4-6,6.6s4.2,3.6,6.3,3.3c2.4-.4,6.6-2.1,7.6-3.7s1.5-3.9,2.4-5,2.8-2.4,3.3-3.8a9.379,9.379,0,0,0-.4-3.7c-.3-1.2-.7-2.6-1.1-2.5v.8a5.5,5.5,0,0,1-3.5,1.2C329.3,287.6,326.8,287.4,326.8,286.6Z"/><path class="c" d="M307.4,279.2c-.4,0-.7.5-1.5,1.4a17.3,17.3,0,0,1-4.1,3c-2.6,1.3-7.8,3.4-10.1,4.4-1.5.6-1.4,2.4.1,3.4s5.1,1.7,9.5.7c2.4-.5,5.5-2.7,7.4-2.6s5.6.1,7-.9.9-3.1.5-4.9c-.4-2-1-5.1-1.7-4.9v.7c-.8,1.3-5.2,1.8-7.1.9Z"/><path class="c" d="M319,203.9a26.639,26.639,0,0,1-9.8-5.6s1.9,3.5,7.5,6.8L316,230Z"/><path class="a" d="M334.9,139.9c-2.7,0-5.3,3.9-7.5,6.4-2.7,3.1-7.6,11.3-13.2,15.6-2.4,1.8-11.1,9.4-15.5,10.2l.4,4.4c5.6-.6,16.5-4.6,19.6-6.7A56.952,56.952,0,0,0,334.6,154C338.4,148,339.4,141.3,334.9,139.9Z"/><path class="h" d="M334.2,139.1c3.4,1.6,4.7,4.1,3.2,9.7-1.3,5-6.5,13.5-10.5,17.7,0,0-6.9-3.3-10.6-7.5,3.6-5.6,5.4-8.8,8.8-13.6S332.1,138.5,334.2,139.1Z"/><g class="q"><path d="M334.2,139.1c3.4,1.6,4.7,4.1,3.2,9.7-1.3,5-6.5,13.5-10.5,17.7,0,0-6.9-3.3-10.6-7.5,3.6-5.6,5.4-8.8,8.8-13.6S332.1,138.5,334.2,139.1Z"/></g><path class="r" d="M186.4,171.3s1.7,0,3.3.1l43.6-25.2a7.675,7.675,0,0,1,6.9-.3l31.1,17.9c-1.3,10-9.1,20.2-23.2,28.3a92.361,92.361,0,0,1-19,8.2l-41.6-24a2.138,2.138,0,0,1-1.2-1.8h0v-3.2Z"/><path class="s" d="M234.6,197.8l-.3.9a88.514,88.514,0,0,0,13.9-6.5c14.1-8.1,21.9-18.4,23.2-28.3L302.8,182l3.4-.3v3.4h0a2.739,2.739,0,0,1-1.7,2.2l-45.3,26.1a7.675,7.675,0,0,1-6.9.3l-23.1-13.3v-3.3Z"/><path class="i" d="M271.4,160.6,305,180c1.8,1,1.5,2.8-.5,4l-45.3,26.1a7.675,7.675,0,0,1-6.9.3l-23.1-13.3a90.067,90.067,0,0,0,19-8.2C262.3,180.7,270.1,170.5,271.4,160.6Z"/><path class="m" d="M188.1,169l45.3-26.1a7.675,7.675,0,0,1,6.9-.3l31.1,17.9c-1.3,10-9.1,20.2-23.2,28.3a92.361,92.361,0,0,1-19,8.2l-41.6-24C185.8,172,186,170.2,188.1,169Z"/><path class="g" d="M257.1,192.8l11.8,6.8,3.7-2-11.9-6.9Z"/><path class="g" d="M230.2,183.2l33.6,19.4,1.8-1.1-33.5-19.4Z"/><path class="g" d="M239.8,190.8,262,203.6l-1.8,1.1L238,191.9Z"/><path class="g" d="M241.8,184l11.8,6.8,3.7-2.1-11.9-6.8Z"/><path class="g" d="M226.5,175.1l11.9,6.9,3.6-2.1-11.9-6.8Z"/><path class="g" d="M211.2,166.3l11.9,6.9,3.6-2.1-11.9-6.9Z"/><path class="t" d="M276.1,181.2l10.7,6.1c1.1.6.9,1.7-.3,2.4l-5.5,3.2a4.591,4.591,0,0,1-4.1.2L266.2,187c-1.1-.6-.9-1.7.3-2.4l5.5-3.2A4.569,4.569,0,0,1,276.1,181.2Z"/><path class="t" d="M230.5,147.9c-3.1,1.8-3.4,4.5-.7,6s7.3,1.3,10.4-.4c3.1-1.8,3.4-4.5.7-6C238.2,145.9,233.6,146.1,230.5,147.9Z"/><path class="i" d="M237.9,152.2c-3.1,1.8-3.4,4.5-.7,6s7.3,1.3,10.4-.4c3.1-1.8,3.4-4.5.7-6C245.6,150.2,241,150.4,237.9,152.2Z"/><path class="a" d="M269.1,155.8c-.3-.8-4.6-5-9.2-4-3.4.7-3.8,3-1.1,4.1,1.1.5,4.4-.1,4.4-.1l4.5,2.6A1.783,1.783,0,0,0,269.1,155.8Z"/><path class="a" d="M300,173.9c-.3-.8-4.1-5-8.7-4.1-3.4.7-3.8,3-1.1,4.1,1.1.5,4.4,0,4.4,0l4.5,2.6C299.1,176.6,300.8,176.2,300,173.9Z"/><path class="u" d="M296.4,378s-2.1.1-4.2.1L238,346.8a9.7,9.7,0,0,0-8.6-.4l-38.7,22.3c1.6,12.4,11.3,25.1,28.9,35.2a114.491,114.491,0,0,0,23.7,10.2l51.8-29.9a2.666,2.666,0,0,0,1.5-2.2h0v-4Z"/><path class="v" d="M236.5,411l.3,1.1a118.9,118.9,0,0,1-17.3-8c-17.5-10.1-27.3-22.8-28.9-35.2l-39.1,22.6-4.2-.4v4.2h0c0,1,.7,2,2.1,2.8l56.4,32.5a9.7,9.7,0,0,0,8.6.4l28.7-16.6v-4.1Z"/><path class="u" d="M190.6,364.7l-41.8,24.1c-2.2,1.3-1.9,3.5.6,5l56.4,32.5a9.7,9.7,0,0,0,8.6.4l28.7-16.6a116.86,116.86,0,0,1-23.7-10.2C202,389.8,192.2,377.1,190.6,364.7Z"/><path class="v" d="M294.3,375.2,238,342.7a9.7,9.7,0,0,0-8.6-.4l-38.7,22.3c1.6,12.4,11.3,25.1,28.9,35.2A114.491,114.491,0,0,0,243.3,410l51.8-29.9C297.2,379,296.9,376.7,294.3,375.2Z"/><path class="g" d="M208.5,404.8l-14.8,8.5-4.5-2.6,14.8-8.5Z"/><path class="g" d="M241.9,392.8,200.1,417l-2.3-1.3,41.8-24.2Z"/><path class="g" d="M230,402.4l-27.7,15.9,2.3,1.3,27.6-15.9Z"/><path class="g" d="M227.5,393.8l-14.8,8.5-4.5-2.6,14.8-8.5Z"/><path class="g" d="M246.5,382.8l-14.7,8.6-4.5-2.7,14.7-8.5Z"/><path class="g" d="M265.6,371.8l-14.8,8.6-4.5-2.6,14.8-8.6Z"/><path class="g" d="M184.8,390.4l-13.3,7.7c-1.3.8-1.1,2.1.4,3l6.9,4a5.641,5.641,0,0,0,5.2.2l13.3-7.7c1.3-.8,1.1-2.1-.4-3l-6.9-4A6.325,6.325,0,0,0,184.8,390.4Z"/><path class="g" d="M241.5,348.9c3.8,2.2,4.2,5.5.9,7.5-3.3,1.9-9.1,1.7-12.9-.5s-4.2-5.5-.9-7.5C231.9,346.5,237.7,346.7,241.5,348.9Z"/><path class="g" d="M232.3,354.2c3.8,2.2,4.2,5.5.9,7.5-3.3,1.9-9.1,1.7-12.9-.5s-4.2-5.5-.9-7.5C222.7,351.8,228.5,352,232.3,354.2Z"/><path class="w" d="M236.9,366.3s2.1.1,4.2.1l54.3-31.3a9.7,9.7,0,0,1,8.6-.4L342.7,357c-1.6,12.4-11.3,25.1-28.9,35.2a114.491,114.491,0,0,1-23.7,10.2l-51.8-29.9a2.666,2.666,0,0,1-1.5-2.2h0v-4Z"/><path class="e" d="M296.9,399.2l-.3,1.1a118.9,118.9,0,0,0,17.3-8c17.5-10.1,27.3-22.8,28.9-35.2l39.1,22.6,4.2-.4v4.2h0c0,1-.7,2-2.1,2.8l-56.4,32.5a9.7,9.7,0,0,1-8.6.4l-28.7-16.6v-4.1Z"/><path class="w" d="M342.7,352.9,384.5,377c2.2,1.3,1.9,3.5-.6,5l-56.4,32.5a9.7,9.7,0,0,1-8.6.4l-28.7-16.6a116.861,116.861,0,0,0,23.7-10.2C331.4,378,341.1,365.3,342.7,352.9Z"/><path class="e" d="M239,363.5,295.4,331a9.7,9.7,0,0,1,8.6-.4l38.7,22.3c-1.6,12.4-11.3,25.1-28.9,35.2a114.491,114.491,0,0,1-23.7,10.2l-51.8-29.9C236.2,367.2,236.5,364.9,239,363.5Z"/><path class="g" d="M324.9,393l14.7,8.5,4.5-2.6-14.7-8.5Z"/><path class="g" d="M291.5,381.1l41.8,24.1,2.2-1.3-41.8-24.1Z"/><path class="g" d="M303.4,390.6,331,406.5l-2.2,1.3-27.7-15.9Z"/><path class="g" d="M305.8,382l14.8,8.6,4.5-2.6-14.7-8.6Z"/><path class="g" d="M286.8,371l14.8,8.6,4.5-2.6-14.8-8.6Z"/><path class="g" d="M267.8,360.1l14.8,8.5,4.5-2.6-14.8-8.5Z"/><path class="g" d="M348.5,378.6l13.3,7.7c1.3.8,1.1,2.1-.4,3l-6.9,4a5.641,5.641,0,0,1-5.2.2L336,385.8c-1.3-.8-1.1-2.1.4-3l6.9-4A6.333,6.333,0,0,1,348.5,378.6Z"/><path class="g" d="M291.8,337.1c-3.8,2.2-4.2,5.5-.9,7.5,3.3,1.9,9.1,1.7,12.9-.5s4.2-5.5.9-7.5C301.4,334.7,295.6,334.9,291.8,337.1Z"/><path class="g" d="M301,342.5c-3.8,2.2-4.2,5.5-.9,7.5,3.3,1.9,9.1,1.7,12.9-.5s4.2-5.5.9-7.5C310.7,340,304.9,340.3,301,342.5Z"/></g></svg>