<svg xmlns="http://www.w3.org/2000/svg" width="463" height="417.744" viewBox="0 0 463 417.744"><defs><style>.a{fill:#f0f0f0;}.ae,.b{fill:#06826a;}.c{fill:#ff3600;}.ad,.ag,.d,.e,.u{fill:#fff;}.ac,.ae,.e{opacity:0.2;}.am,.f{opacity:0.1;}.g{opacity:0.7;}.h{opacity:0.55;}.i{fill:#e6e6e6;}.j,.u,.x,.y{opacity:0.5;}.ag,.k,.p{opacity:0.3;}.al,.l{opacity:0.6;}.m{fill:#636161;}.n{fill:#2b2a2a;}.o{fill:#fafafa;}.p,.q{fill:#263238;}.r{opacity:0.4;}.s{fill:#37474f;}.t{opacity:0.45;}.ai,.v{opacity:0.15;}.w{fill:#e0e0e0;}.x,.z{fill:#455a64;}.aa{fill:#b7b6b6;}.ab{fill:#d12c07;}.ad{opacity:0.9;}.af{opacity:0.05;}.ah{fill:#f5f5f5;}.aj{opacity:0.35;}.ak{fill:#b16668;}.an{fill:#9a4a4d;}</style></defs><g transform="translate(-23.8 -61.156)"><ellipse class="a" cx="231.5" cy="133.7" rx="231.5" ry="133.7" transform="translate(23.8 211.5)"/><path class="b" d="M433.4,314.3c2.9-19.2,16.2-26.9,23.3-33.4,7.1-6.4-.4-12.1-7.8-10s-14.3,9.5-18.3,19.9-2.9,22.5-2.9,22.5Z"/><path class="c" d="M433.4,314.3c2.9-19.2,16.2-26.9,23.3-33.4,7.1-6.4-.4-12.1-7.8-10s-14.3,9.5-18.3,19.9-2.9,22.5-2.9,22.5Z"/><path class="d" d="M429.7,309.6c3.9-20.9,17-32,23.4-34.9h.1a.43.43,0,1,0-.5-.7c-6.5,3-20,14.3-23.9,35.5a.55.55,0,0,0,.3.5h.1A1.082,1.082,0,0,0,429.7,309.6Z"/><path class="b" d="M426.9,339.3c.1,2.8-.5,5,2.4,6.4,3.5,1.7,8.3.5,11.4-1.7a13.788,13.788,0,0,0,5.5-8.4,21.119,21.119,0,0,1,1-5c1.7-4.2,6.9-2.9,10.3-4.6,3.2-1.6,3.8-4.5,2.7-7.7-.4-1.2-1.3-2.2-1.8-3.4a5.207,5.207,0,0,1,.7-4.8,40.8,40.8,0,0,0,2.8-4.4c.1-.2.2-.5.3-.7a7.141,7.141,0,0,0-4.8-8.9c-3-.9-6.1.2-8.9,1.7-2.7,1.5-5.3,3.3-8.3,4-2.3.5-4.8.4-7.1,1-1.7.5-3.8,1.6-4.4,3.5s.7,4,0,6c-.5,1.6-2,2.8-3,4.2a6.758,6.758,0,0,0-1.2,5.1c.4,1.6,1.5,2.9,2,4.5a20.8,20.8,0,0,1,.7,5v1.8C427,335.2,426.9,337.2,426.9,339.3Z"/><path class="d" d="M451.8,318.8a.365.365,0,0,0-.2-.5,21.445,21.445,0,0,0-18.1,1.3h0c-.2.1-.2.3-.1.5h0a.365.365,0,0,0,.5.2,20.741,20.741,0,0,1,17.4-1.3h.2C451.6,318.9,451.7,318.9,451.8,318.8Z"/><path class="d" d="M426.5,339.4h0c-.2,0-.4-.2-.3-.4.7-16.5,17.2-33.9,28.2-38.6h.1c.2-.1.4.1.4.3.1.2-.1.4-.3.4-10.9,4.7-27.1,21.8-27.8,37.9.1.2-.1.4-.3.4Z"/><path class="b" d="M361.3,91.7l4.4,5.3a2.61,2.61,0,0,0,1,2l12,5a2.61,2.61,0,0,1,1,2,37.034,37.034,0,0,0,.9,9.4,1.918,1.918,0,0,1-.6,2l-3.4,3a1.533,1.533,0,0,0-.3,1.9l7.5,13a1.615,1.615,0,0,0,1.8.7l4-1.4a2.083,2.083,0,0,1,2,.5,23.237,23.237,0,0,0,7.9,5.6,2.256,2.256,0,0,1,1.3,1.7l-1.6,12.8a2.763,2.763,0,0,0,1.2,1.9l6,8.8,7.7-4.4h0a1.012,1.012,0,0,0,.4-.7l1-9.9v-.3a1.015,1.015,0,0,1,1.3-.7,20.4,20.4,0,0,0,4.9.5,2.61,2.61,0,0,1,2,1l4.9,12.8a1.3,1.3,0,0,0,1.8.4l9.2-5.3a1.405,1.405,0,0,0,.5-1.8l-6-12.2a2.443,2.443,0,0,1,.1-2.2,13.967,13.967,0,0,0,.9-1.7l4.8,5,7.7-4.4h0a.91.91,0,0,0,.4-.8V129.5a2.61,2.61,0,0,0-1-2l-9.3-6.6a3.9,3.9,0,0,1-1.3-2A55.259,55.259,0,0,0,434,111a2.083,2.083,0,0,1,.5-2l5.3-4.5a1.533,1.533,0,0,0,.3-1.9l-7.5-13a1.615,1.615,0,0,0-1.8-.7l-6.5,2.3a1.919,1.919,0,0,1-2-.6,64.327,64.327,0,0,0-5.7-6,3.456,3.456,0,0,1-1-2.1l-1-11.3a2.763,2.763,0,0,0-1.2-1.9l-10.2-5.9a.783.783,0,0,0-.8-.1h0l-7.7,4.4,2.6,6.8a23.484,23.484,0,0,0-2.6-.1,2.61,2.61,0,0,1-2-1l-7.5-11.3a1.3,1.3,0,0,0-1.8-.4L374.2,67a1.283,1.283,0,0,0-.4,1.8l6,12.2a2.809,2.809,0,0,1-.1,2.2c-.8,1.3,1.2,1.3.6,3,0,.1,0,.1-.1.2a1.05,1.05,0,0,1-1.4.5l-9.1-4.1a1.1,1.1,0,0,0-.8,0h0l-7.7,4.4ZM405.6,134c-9.5-5.5-17.2-18.8-17.2-29.8s5.8-15,15.3-9.5,17.4,18.9,17.4,29.9-5.9,14.9-15.5,9.4Z"/><path class="e" d="M361.3,91.7l4.4,5.3a2.61,2.61,0,0,0,1,2l12,5a2.61,2.61,0,0,1,1,2,37.034,37.034,0,0,0,.9,9.4,1.918,1.918,0,0,1-.6,2l-3.4,3a1.533,1.533,0,0,0-.3,1.9l7.5,13a1.615,1.615,0,0,0,1.8.7l4-1.4a2.083,2.083,0,0,1,2,.5,23.237,23.237,0,0,0,7.9,5.6,2.256,2.256,0,0,1,1.3,1.7l-1.6,12.8a2.763,2.763,0,0,0,1.2,1.9l6,8.8,7.7-4.4h0a1.012,1.012,0,0,0,.4-.7l1-9.9v-.3a1.015,1.015,0,0,1,1.3-.7,20.4,20.4,0,0,0,4.9.5,2.61,2.61,0,0,1,2,1l4.9,12.8a1.3,1.3,0,0,0,1.8.4l9.2-5.3a1.405,1.405,0,0,0,.5-1.8l-6-12.2a2.443,2.443,0,0,1,.1-2.2,13.967,13.967,0,0,0,.9-1.7l4.8,5,7.7-4.4h0a.91.91,0,0,0,.4-.8V129.5a2.61,2.61,0,0,0-1-2l-9.3-6.6a3.9,3.9,0,0,1-1.3-2A55.259,55.259,0,0,0,434,111a2.083,2.083,0,0,1,.5-2l5.3-4.5a1.533,1.533,0,0,0,.3-1.9l-7.5-13a1.615,1.615,0,0,0-1.8-.7l-6.5,2.3a1.919,1.919,0,0,1-2-.6,64.327,64.327,0,0,0-5.7-6,3.456,3.456,0,0,1-1-2.1l-1-11.3a2.763,2.763,0,0,0-1.2-1.9l-10.2-5.9a.783.783,0,0,0-.8-.1h0l-7.7,4.4,2.6,6.8a23.484,23.484,0,0,0-2.6-.1,2.61,2.61,0,0,1-2-1l-7.5-11.3a1.3,1.3,0,0,0-1.8-.4L374.2,67a1.283,1.283,0,0,0-.4,1.8l6,12.2a2.809,2.809,0,0,1-.1,2.2c-.8,1.3,1.2,1.3.6,3,0,.1,0,.1-.1.2a1.05,1.05,0,0,1-1.4.5l-9.1-4.1a1.1,1.1,0,0,0-.8,0h0l-7.7,4.4ZM405.6,134c-9.5-5.5-17.2-18.8-17.2-29.8s5.8-15,15.3-9.5,17.4,18.9,17.4,29.9-5.9,14.9-15.5,9.4Z"/><path class="f" d="M403.6,161.8l2.8,4.2,7.7-4.4h0a1.012,1.012,0,0,0,.4-.7l1-9.9v-.3a1.015,1.015,0,0,1,1.3-.7,20.4,20.4,0,0,0,4.9.5,2.61,2.61,0,0,1,2,1l4.9,12.8a1.3,1.3,0,0,0,1.8.4l9.2-5.3a1.405,1.405,0,0,0,.5-1.8l-6-12.2a2.443,2.443,0,0,1,.1-2.2,13.967,13.967,0,0,0,.9-1.7l2.6,4-5.4-9.5-12.7,6.5-14.8,6.2Z"/><path class="f" d="M400.6,140.9c6.4,2.7,20.4-1.6,20.4-1.6l-2.9-4.8c-2.6,2.8-7,2.8-12.5-.4-9.5-5.5-17.2-18.8-17.2-29.8,0-6.2,1.8-10.1,5.1-11.4l-3.9-6.7-8.3,7v19.7C381.3,112.8,394.2,138.2,400.6,140.9Z"/><path class="b" d="M382.2,80.5l11.1-6.4a1.205,1.205,0,0,1-.5-.5l-7.5-11.3a1.3,1.3,0,0,0-1.8-.4l-9.2,5.3a1.436,1.436,0,0,0-.5,1.8l2,4Z"/><path class="b" d="M427,126.2l12.4,7,8.3-4.8a4.349,4.349,0,0,0-.6-.7l-9.3-6.6a2.7,2.7,0,0,1-.7-.8Z"/><path class="b" d="M421,95.1,431.3,109l9.1-5.2a1.344,1.344,0,0,0-.2-.9l-7.5-13a1.826,1.826,0,0,0-1.3-.8Z"/><path class="b" d="M413.4,69.5l-10.2-5.9a.783.783,0,0,0-.8-.1h0l-7.7,4.4v3.7l9.1,5.2,10.6-6.1A2.94,2.94,0,0,0,413.4,69.5Z"/><path class="b" d="M368.8,82.9h0a1.1,1.1,0,0,1,.8,0l5.2,2.4c.2,1.2-2,4.3-2.3,5.4,0,.1,0,.1-.1.2a1.05,1.05,0,0,1-1.4.5l-9.1-4.1a1.1,1.1,0,0,0-.8,0h0Z"/><g class="g"><path class="d" d="M382.2,80.5l11.1-6.4a1.205,1.205,0,0,1-.5-.5l-7.5-11.3a1.3,1.3,0,0,0-1.8-.4l-9.2,5.3a1.436,1.436,0,0,0-.5,1.8l2,4Z"/><path class="d" d="M375.2,73.3l-2.1-4.1a1.944,1.944,0,0,1,.8-2.5l9.2-5.3a1.925,1.925,0,0,1,2.5.6l7.5,11.3c.1.1.2.3.4.4l.6.4-12.1,7Zm17.1.6-7.6-11.3a.829.829,0,0,0-1.1-.3l-9.2,5.3a.8.8,0,0,0-.3,1.1l2,4,6.2,7.2,10.1-5.8Z"/><path class="d" d="M427,126.2l12.4,7,8.3-4.8a4.349,4.349,0,0,0-.6-.7l-9.3-6.6a2.7,2.7,0,0,1-.7-.8Z"/><path class="d" d="M426,126.2l11.2-6.4.3.4c.2.2.4.5.6.6l9.3,6.6a3.043,3.043,0,0,1,.8.8l.3.4-9,5.2Zm20.8,1.9-9.3-6.6a2.651,2.651,0,0,1-.6-.5l-8.9,5.1,11.4,6.5,7.6-4.4C446.9,128.2,446.9,128.2,446.8,128.1Z"/><path class="d" d="M421,95.1,431.3,109l9.1-5.2a1.344,1.344,0,0,0-.2-.9l-7.5-13a1.826,1.826,0,0,0-1.3-.8Z"/><path class="d" d="M420.3,95l11-6.4h.2a1.936,1.936,0,0,1,1.7,1l7.5,13a1.907,1.907,0,0,1,.2,1.3v.3l-9.7,5.6Zm19.6,8.5a.6.6,0,0,0-.1-.4l-7.5-13a1.374,1.374,0,0,0-.8-.5l-9.8,5.7,9.7,13.1,8.5-4.9Z"/><path class="d" d="M413.4,69.5l-10.2-5.9a.783.783,0,0,0-.8-.1h0l-7.7,4.4v3.7l9.1,5.2,10.6-6.1A2.94,2.94,0,0,0,413.4,69.5Z"/><path class="d" d="M394.1,71.9V67.7l8-4.6a1.23,1.23,0,0,1,1.3.1l10.2,5.9a3.491,3.491,0,0,1,1.2,1.5l.2.4-11.3,6.5Zm19.6-1.4a1.7,1.7,0,0,0-.6-.6L402.9,64a.367.367,0,0,0-.3-.1l-7.4,4.3v3l8.6,5,9.9-5.7Z"/><path class="d" d="M368.8,82.9h0a1.1,1.1,0,0,1,.8,0l5.2,2.4c.2,1.1-2,4.3-2.3,5.4,0,.1,0,.1-.1.2a1.05,1.05,0,0,1-1.4.5l-9.1-4.1a1.1,1.1,0,0,0-.8,0h0Z"/><path class="d" d="M370.8,91.9l-9-4.1h-.3l-.8.5V87l7.9-4.6.8-.4v.3c.2,0,.3.1.5.1l5.5,2.5v.3c.2.8-.5,2.1-1.5,3.9-.3.6-.6,1.1-.9,1.8a1.757,1.757,0,0,1-.9,1,1.445,1.445,0,0,1-.7.2C371.3,92,371,92,370.8,91.9Zm-1.4-8.5h-.3l-.8.4h0l-5.7,3.3,8.6,3.9a.454.454,0,0,0,.5,0c.2-.1.3-.2.3-.4.3-.7.6-1.3.9-1.9a13.787,13.787,0,0,0,1.4-3Z"/></g><path class="b" d="M361.8,101.8l9.3,6.6a3.9,3.9,0,0,1,1.3,2,55.259,55.259,0,0,0,2.4,7.9,2.083,2.083,0,0,1-.5,2l-5.3,4.5a1.533,1.533,0,0,0-.3,1.9l7.5,13a1.615,1.615,0,0,0,1.8.7l6.5-2.3a1.918,1.918,0,0,1,2,.6,64.325,64.325,0,0,0,5.7,6,4.274,4.274,0,0,1,1.1,2.1l1,11.3a2.763,2.763,0,0,0,1.2,1.9l10.2,5.9a.764.764,0,0,0,.5.2.773.773,0,0,0,.7-.8l1-9.9v-.2a1.115,1.115,0,0,1,1.3-.8,20.4,20.4,0,0,0,4.9.5,2.61,2.61,0,0,1,2,1l7.5,11.3a1.3,1.3,0,0,0,1.8.4l6.6-3.8a1.405,1.405,0,0,0,.5-1.8l-6-12.2a2.809,2.809,0,0,1,.1-2.2,18.177,18.177,0,0,0,2-4.5c0-.1,0-.1.1-.2a1.05,1.05,0,0,1,1.4-.5l9.1,4.1a.9.9,0,0,0,.5.1.73.73,0,0,0,.6-.9V133.9a2.61,2.61,0,0,0-1-2l-9.3-6.6a3.9,3.9,0,0,1-1.3-2,55.259,55.259,0,0,0-2.4-7.9,2.083,2.083,0,0,1,.5-2l5.3-4.5a1.533,1.533,0,0,0,.3-1.9l-7.5-13a1.615,1.615,0,0,0-1.8-.7l-6.5,2.3a1.919,1.919,0,0,1-2-.6,64.327,64.327,0,0,0-5.7-6,4.274,4.274,0,0,1-1.1-2.1l-1-11.3a2.763,2.763,0,0,0-1.2-1.9l-10-5.7a.764.764,0,0,0-.5-.2.773.773,0,0,0-.7.8l-1,9.9v.2a1.015,1.015,0,0,1-1.3.7,20.4,20.4,0,0,0-4.9-.5,2.61,2.61,0,0,1-2-1l-7.5-11.3a1.3,1.3,0,0,0-1.8-.4L369.3,70a1.405,1.405,0,0,0-.5,1.8l6,12.2a2.443,2.443,0,0,1-.1,2.2,22.812,22.812,0,0,0-2,4.5c0,.1,0,.1-.1.2a1.05,1.05,0,0,1-1.4.5l-9.1-4.1a.9.9,0,0,0-.5-.1.73.73,0,0,0-.6.9V99.9A1.888,1.888,0,0,0,361.8,101.8Zm21.6,5.3c0-10.9,7.7-15.4,17.2-9.9s17.2,18.9,17.2,29.8-7.7,15.4-17.2,9.9C391.2,131.4,383.4,118,383.4,107.1Z"/><g class="h"><path class="d" d="M361.8,101.8l9.3,6.6a3.9,3.9,0,0,1,1.3,2,55.259,55.259,0,0,0,2.4,7.9,2.083,2.083,0,0,1-.5,2l-5.3,4.5a1.533,1.533,0,0,0-.3,1.9l7.5,13a1.615,1.615,0,0,0,1.8.7l6.5-2.3a1.918,1.918,0,0,1,2,.6,64.325,64.325,0,0,0,5.7,6,4.274,4.274,0,0,1,1.1,2.1l1,11.3a2.763,2.763,0,0,0,1.2,1.9l10.2,5.9a.764.764,0,0,0,.5.2.773.773,0,0,0,.7-.8l1-9.9v-.2a1.115,1.115,0,0,1,1.3-.8,20.4,20.4,0,0,0,4.9.5,2.61,2.61,0,0,1,2,1l7.5,11.3a1.3,1.3,0,0,0,1.8.4l6.6-3.8a1.405,1.405,0,0,0,.5-1.8l-6-12.2a2.809,2.809,0,0,1,.1-2.2,18.177,18.177,0,0,0,2-4.5c0-.1,0-.1.1-.2a1.05,1.05,0,0,1,1.4-.5l9.1,4.1a.9.9,0,0,0,.5.1.73.73,0,0,0,.6-.9V133.9a2.61,2.61,0,0,0-1-2l-9.3-6.6a3.9,3.9,0,0,1-1.3-2,55.259,55.259,0,0,0-2.4-7.9,2.083,2.083,0,0,1,.5-2l5.3-4.5a1.533,1.533,0,0,0,.3-1.9l-7.5-13a1.615,1.615,0,0,0-1.8-.7l-6.5,2.3a1.919,1.919,0,0,1-2-.6,64.327,64.327,0,0,0-5.7-6,4.274,4.274,0,0,1-1.1-2.1l-1-11.3a2.763,2.763,0,0,0-1.2-1.9l-10-5.7a.764.764,0,0,0-.5-.2.773.773,0,0,0-.7.8l-1,9.9v.2a1.015,1.015,0,0,1-1.3.7,20.4,20.4,0,0,0-4.9-.5,2.61,2.61,0,0,1-2-1l-7.5-11.3a1.3,1.3,0,0,0-1.8-.4L369.3,70a1.405,1.405,0,0,0-.5,1.8l6,12.2a2.443,2.443,0,0,1-.1,2.2,22.812,22.812,0,0,0-2,4.5c0,.1,0,.1-.1.2a1.05,1.05,0,0,1-1.4.5l-9.1-4.1a.9.9,0,0,0-.5-.1.73.73,0,0,0-.6.9V99.9A1.888,1.888,0,0,0,361.8,101.8Zm21.6,5.3c0-10.9,7.7-15.4,17.2-9.9s17.2,18.9,17.2,29.8-7.7,15.4-17.2,9.9C391.2,131.4,383.4,118,383.4,107.1Z"/><path class="d" d="M423.3,167.6l-7.5-11.3a1.943,1.943,0,0,0-1.6-.8,20.706,20.706,0,0,1-5-.5.749.749,0,0,0-.5.1.758.758,0,0,0-.2.4l-1,9.9a1.33,1.33,0,0,1-.3.8,1.28,1.28,0,0,1-1.8.3l-10.2-5.9a3.384,3.384,0,0,1-1.5-2.3l-1-11.3a3.1,3.1,0,0,0-.9-1.8,80.8,80.8,0,0,1-5.7-6,1.391,1.391,0,0,0-1.5-.4l-6.5,2.3a2.091,2.091,0,0,1-2.4-.9l-7.5-13a2.145,2.145,0,0,1,.4-2.6l5.3-4.5a1.6,1.6,0,0,0,.4-1.5,56.536,56.536,0,0,1-2.4-8,3.859,3.859,0,0,0-1.1-1.7l-9.3-6.6a3.416,3.416,0,0,1-1.3-2.4V88.1a.844.844,0,0,1,.2-.7,1.282,1.282,0,0,1,1.7-.5l9.1,4.1a.454.454,0,0,0,.5,0c.2-.1.3-.2.3-.4a19.155,19.155,0,0,1,2.1-4.6,2.03,2.03,0,0,0,.1-1.7l-6-12.2a1.885,1.885,0,0,1,.7-2.4l6.6-3.8a1.925,1.925,0,0,1,2.5.6l7.5,11.3a2.258,2.258,0,0,0,1.6.8,20.706,20.706,0,0,1,5,.5.749.749,0,0,0,.5-.1.758.758,0,0,0,.2-.4l1-9.9a1.267,1.267,0,0,1,2-1L406,73.6a3.384,3.384,0,0,1,1.5,2.3l1,11.3a3.1,3.1,0,0,0,.9,1.8,80.8,80.8,0,0,1,5.7,6,1.281,1.281,0,0,0,1.4.4l6.6-2.3a2.091,2.091,0,0,1,2.4.9l7.5,13a2.124,2.124,0,0,1-.4,2.6l-5.3,4.5a1.6,1.6,0,0,0-.4,1.5,56.536,56.536,0,0,1,2.4,8,3.859,3.859,0,0,0,1.1,1.7l9.3,6.6a3.829,3.829,0,0,1,1.3,2.4v11.8a1.426,1.426,0,0,1-.6,1.2,1.483,1.483,0,0,1-1.3,0l-9.1-4.1a.454.454,0,0,0-.5,0c-.2.1-.3.2-.3.4a19.155,19.155,0,0,1-2.1,4.6,2.03,2.03,0,0,0-.1,1.7l6,12.2a1.885,1.885,0,0,1-.7,2.4l-6.6,3.8a1.613,1.613,0,0,1-.9.3A3.6,3.6,0,0,1,423.3,167.6Zm6.5-25.7a1.854,1.854,0,0,1,.7.2l9.1,4.1h.3a.367.367,0,0,0,.1-.3V134.1a2.088,2.088,0,0,0-.8-1.6l-9.3-6.5a4.422,4.422,0,0,1-1.5-2.3,64.081,64.081,0,0,0-2.3-7.8,2.565,2.565,0,0,1,.7-2.6l5.2-4.5a.948.948,0,0,0,.2-1.3l-7.5-13a1.217,1.217,0,0,0-1.2-.5l-6.6,2.3a2.348,2.348,0,0,1-2.5-.7,52.087,52.087,0,0,0-5.6-5.9,3.948,3.948,0,0,1-1.2-2.4l-1-11.3a2.263,2.263,0,0,0-1-1.5l-10.2-5.9a.224.224,0,0,0-.4.2l-1,9.9a1.356,1.356,0,0,1-.6,1.1,1.592,1.592,0,0,1-1.3.3,19.587,19.587,0,0,0-4.8-.5,3.3,3.3,0,0,1-2.4-1.2L377.2,67a.829.829,0,0,0-1.1-.3l-6.6,3.8a.8.8,0,0,0-.3,1.1l6,12.2a2.87,2.87,0,0,1-.2,2.7,21.946,21.946,0,0,0-2,4.4,1.757,1.757,0,0,1-.9,1,1.7,1.7,0,0,1-1.4,0l-9.1-4.1c-.1-.1-.2-.1-.4,0a.367.367,0,0,0-.1.3V99.9a2.088,2.088,0,0,0,.8,1.6l9.3,6.6a4.422,4.422,0,0,1,1.5,2.3,64.081,64.081,0,0,0,2.3,7.8,2.519,2.519,0,0,1-.6,2.6l-5.3,4.5a1.062,1.062,0,0,0-.2,1.3l7.5,13a1.217,1.217,0,0,0,1.2.5l6.5-2.3a2.565,2.565,0,0,1,2.6.7,52.085,52.085,0,0,0,5.6,5.9,3.948,3.948,0,0,1,1.2,2.4l1,11.3a2.263,2.263,0,0,0,1,1.5l10.2,5.9a.367.367,0,0,0,.3.1c.1,0,.1-.1.1-.3l1-9.9a1.356,1.356,0,0,1,.6-1.1,1.592,1.592,0,0,1,1.3-.3,19.587,19.587,0,0,0,4.8.5,2.982,2.982,0,0,1,2.4,1.2l7.5,11.3a.913.913,0,0,0,1.1.2l6.6-3.8a.8.8,0,0,0,.3-1.1l-6-12.2a3.179,3.179,0,0,1,.1-2.7,21.946,21.946,0,0,0,2-4.4,1.757,1.757,0,0,1,.9-1,10.412,10.412,0,0,0,1.1-.1Zm-21.5-2.2a16.245,16.245,0,0,1-8-2.4h0c-9.6-5.6-17.5-19.1-17.5-30.3,0-5.5,1.8-9.6,5.3-11.6s8-1.6,12.7,1.2c9.6,5.6,17.5,19.1,17.5,30.3,0,5.5-1.9,9.6-5.3,11.6a9.392,9.392,0,0,1-4.7,1.2ZM392.9,95.2a9.16,9.16,0,0,0-4.3,1.1c-3.1,1.8-4.8,5.6-4.8,10.7,0,10.8,7.6,24,17,29.4h0c4.4,2.6,8.6,3,11.7,1.2s4.8-5.6,4.8-10.7c0-10.8-7.6-24-17-29.4a14.662,14.662,0,0,0-7.4-2.3Z"/></g><path class="c" d="M406.3,182.6l3.9,3a2.965,2.965,0,0,0,.7,1.5l4.3,3.9a4.117,4.117,0,0,1,1,2.1,28.676,28.676,0,0,0,.5,3.1,1.439,1.439,0,0,1-.9,1.7l-2.5,1.1h0a1.2,1.2,0,0,0-.6,1.6l2.9,6.6a1.889,1.889,0,0,0,1.8,1.1l3.1-.2c.7,0,1.1.9,1.5,1.5.7,1,1.9,1.5,2.7,2.5a3.5,3.5,0,0,1,.8,2.2l-.3,4.6a2.518,2.518,0,0,0,.9,2l1.5,1.3-.9,5.7,5.1-2.9h0a.675.675,0,0,0,.4-.6l1.1-3.6c0-.1,0-.1.1-.2a1.056,1.056,0,0,1,1.5-.5,11.764,11.764,0,0,0,2,.7,2.827,2.827,0,0,1,1.8,1.4l2,4.9,1.4,3.8,5.1-3h0a1.237,1.237,0,0,0,.4-1.4l-2.2-5.9a2.083,2.083,0,0,1,.5-2,3.915,3.915,0,0,0,.8-1h0a1.276,1.276,0,0,1,1.7-.4l.1,5.9,5.1-2.9h0a.822.822,0,0,0,.4-.6l.8-4.7a2.582,2.582,0,0,0-.7-2.1l-4.1-3.9a4.274,4.274,0,0,1-1.1-2.1,28.676,28.676,0,0,0-.5-3.1,1.412,1.412,0,0,1,.1-.9l3.5-2h0a1.258,1.258,0,0,0,.5-1.6l-2.9-6.6a1.889,1.889,0,0,0-1.8-1.1l-3.1.1a2.61,2.61,0,0,1-2-1,33.029,33.029,0,0,0-2.2-3,3.5,3.5,0,0,1-.8-2.2l.3-4.6a2.878,2.878,0,0,0-.9-2.1l-4.8-3.8a.769.769,0,0,0-1-.1h0l-5.2,2.9a3.53,3.53,0,0,0,.3,1.4l-.2-.1a2.827,2.827,0,0,1-1.8-1.4l-3-5.8a1.676,1.676,0,0,0-1.8-.8l-3.2.8c-.1,0-.2.1-.3.1h0l-5.1,2.9,6.8,4.3a2.337,2.337,0,0,1-.5,2.1,3.915,3.915,0,0,0-.8,1,1.188,1.188,0,0,1-1.7.4l-4.3-2.8a.972.972,0,0,0-.9-.1h0Zm16.7,9.8c1-5.5,5.2-5.8,10.4-1.7s9.5,11.1,8.6,16.6c-1,5.5-6,6.6-11.2,2.5S422.1,197.9,423,192.4Z"/><path class="e" d="M406.3,182.6l3.9,3a2.965,2.965,0,0,0,.7,1.5l4.3,3.9a4.117,4.117,0,0,1,1,2.1,28.676,28.676,0,0,0,.5,3.1,1.439,1.439,0,0,1-.9,1.7l-2.5,1.1h0a1.2,1.2,0,0,0-.6,1.6l2.9,6.6a1.889,1.889,0,0,0,1.8,1.1l3.1-.2c.7,0,1.1.9,1.5,1.5.7,1,1.9,1.5,2.7,2.5a3.5,3.5,0,0,1,.8,2.2l-.3,4.6a2.518,2.518,0,0,0,.9,2l1.5,1.3-.9,5.7,5.1-2.9h0a.675.675,0,0,0,.4-.6l1.1-3.6c0-.1,0-.1.1-.2a1.056,1.056,0,0,1,1.5-.5,11.764,11.764,0,0,0,2,.7,2.827,2.827,0,0,1,1.8,1.4l2,4.9,1.4,3.8,5.1-3h0a1.237,1.237,0,0,0,.4-1.4l-2.2-5.9a2.083,2.083,0,0,1,.5-2,3.915,3.915,0,0,0,.8-1h0a1.276,1.276,0,0,1,1.7-.4l.1,5.9,5.1-2.9h0a.822.822,0,0,0,.4-.6l.8-4.7a2.582,2.582,0,0,0-.7-2.1l-4.1-3.9a4.274,4.274,0,0,1-1.1-2.1,28.676,28.676,0,0,0-.5-3.1,1.412,1.412,0,0,1,.1-.9l3.5-2h0a1.258,1.258,0,0,0,.5-1.6l-2.9-6.6a1.889,1.889,0,0,0-1.8-1.1l-3.1.1a2.61,2.61,0,0,1-2-1,33.029,33.029,0,0,0-2.2-3,3.5,3.5,0,0,1-.8-2.2l.3-4.6a2.878,2.878,0,0,0-.9-2.1l-4.8-3.8a.769.769,0,0,0-1-.1h0l-5.2,2.9a3.53,3.53,0,0,0,.3,1.4l-.2-.1a2.827,2.827,0,0,1-1.8-1.4l-3-5.8a1.676,1.676,0,0,0-1.8-.8l-3.2.8c-.1,0-.2.1-.3.1h0l-5.1,2.9,6.8,4.3a2.337,2.337,0,0,1-.5,2.1,3.915,3.915,0,0,0-.8,1,1.188,1.188,0,0,1-1.7.4l-4.3-2.8a.972.972,0,0,0-.9-.1h0Zm16.7,9.8c1-5.5,5.2-5.8,10.4-1.7s9.5,11.1,8.6,16.6c-1,5.5-6,6.6-11.2,2.5S422.1,197.9,423,192.4Z"/><path class="f" d="M426.7,221.5l1,.8-.9,5.7,5.1-2.9h0a.675.675,0,0,0,.4-.6l1.1-3.6c0-.1,0-.1.1-.2a1.056,1.056,0,0,1,1.5-.5,11.764,11.764,0,0,0,2,.7,2.827,2.827,0,0,1,1.8,1.4l2,4.9,1.4,3.8,5.1-3h0a1.094,1.094,0,0,0,.4-1.3l-2.2-5.9a1.838,1.838,0,0,1,.2-1.6l-1.9-4-8.1,4.7-8.7.9Z"/><path class="c" d="M418.7,205.6a21.016,21.016,0,0,0,1.3,2.6h.5c.7,0,1.1.9,1.5,1.5.7,1,1.9,1.5,2.7,2.5a3.115,3.115,0,0,1,.7,1.8,17.433,17.433,0,0,0,6.2,3.2c4.5,1,8.1-4.5,8.1-4.5l-.6-.9c-2.2,1.1-5.2.5-8.4-1.9-5.3-4.1-8.8-11.9-7.8-17.4a5.5,5.5,0,0,1,2-3.8l-1.5-2.4-6.3,3.1C417.2,189.2,416.7,200.2,418.7,205.6Z"/><path class="c" d="M440.7,214.1l6.1,3.5h0a1.276,1.276,0,0,1,1.7-.4v.3l6.3-3.6a1.855,1.855,0,0,0-.7-1.2l-4.2-3.9Z"/><path class="c" d="M439.6,197.2l9.3-5.4a2.106,2.106,0,0,0-1.3-.5l-3.1.1a2.92,2.92,0,0,1-.9-.2l-6,3.5a17.683,17.683,0,0,1,1.6,2.2Z"/><path class="c" d="M411.3,179.6h0a.972.972,0,0,1,.9.1l1.8,1.2.4,1.1a2.083,2.083,0,0,1-.5,2,3.915,3.915,0,0,0-.8,1,1.188,1.188,0,0,1-1.7.4l-4.3-2.8a.94.94,0,0,0-.9-.1Z"/><path class="c" d="M420.1,182.3l6.9-4a2.7,2.7,0,0,1-.7-.8l-3-5.8a1.676,1.676,0,0,0-1.8-.8l-3.2.8c-.1,0-.2.1-.3.1h0l-5.1,2.9,6.8,4.3a2.337,2.337,0,0,1-.5,2.1c0,.1-.1.1-.1.2Z"/><path class="c" d="M439,178.6l-4.8-3.8a.769.769,0,0,0-1-.1h0l-5.1,2.9a5.019,5.019,0,0,0,.2,1.2l5.2,4.8,6.3-3.6A4.678,4.678,0,0,0,439,178.6Z"/><g class="g"><path class="d" d="M440.7,214.1l6.1,3.5h0a1.276,1.276,0,0,1,1.7-.4v.3l6.3-3.6a1.855,1.855,0,0,0-.7-1.2l-4.2-3.9Z"/><path class="d" d="M448.1,217.5a.829.829,0,0,0-.8.3l-.3.4-7.3-4.2,10.3-5.9,4.5,4.1a2.751,2.751,0,0,1,.8,1.5l.1.4-7.4,4.3Zm.7-.7h0l5.4-3.1a2.093,2.093,0,0,0-.4-.6l-4-3.6-8.1,4.7,5,2.9a1.656,1.656,0,0,1,1.2-.5A.959.959,0,0,1,448.8,216.8Z"/><path class="d" d="M439.6,197.2l9.3-5.4a2.106,2.106,0,0,0-1.3-.5l-3.1.1a2.92,2.92,0,0,1-.9-.2l-6,3.5a17.683,17.683,0,0,1,1.6,2.2Z"/><path class="d" d="M438.8,197.3l-.1-.1-1.5-2.1-.4-.4,6.8-3.9.2.1a.821.821,0,0,0,.7.1l3.1-.1a2.271,2.271,0,0,1,1.6.6l.6.5-10.2,5.9Zm8.9-5.4-3.1.1a2.768,2.768,0,0,1-.9-.1l-5.3,3.1c.4.5.8,1.1,1.2,1.6h.1l8.3-4.8h-.3Z"/><path class="d" d="M411.3,179.6h0a.972.972,0,0,1,.9.1l1.8,1.2.4,1.1a2.083,2.083,0,0,1-.5,2,3.915,3.915,0,0,0-.8,1,1.188,1.188,0,0,1-1.7.4l-4.3-2.8a.94.94,0,0,0-.9-.1Z"/><path class="d" d="M411.2,185.9l-4.4-2.9c-.1-.1-.2-.1-.4-.1l-.4-.9,5.1-2.9.8-.4v.3a1.08,1.08,0,0,1,.7.3l2,1.3.5,1.3a2.747,2.747,0,0,1-.6,2.6,3.915,3.915,0,0,0-.8,1,1.763,1.763,0,0,1-1.5.8C411.7,186.1,411.4,186,411.2,185.9Zm.8-5.8a.6.6,0,0,0-.4-.1l-.8.4h0l-3.3,1.9,4.1,2.7a.693.693,0,0,0,1-.3c.3-.4.6-.7.9-1.1a1.674,1.674,0,0,0,.4-1.5l-.4-.9Z"/><path class="d" d="M420.1,182.3l6.9-4a2.7,2.7,0,0,1-.7-.8l-3-5.8a1.676,1.676,0,0,0-1.8-.8l-3.2.8c-.1,0-.2.1-.3.1h0l-5.1,2.9,6.8,4.3a2.337,2.337,0,0,1-.5,2.1c0,.1-.1.1-.1.2Z"/><path class="d" d="M418.6,181.6l-.3-.4.3-.4.1-.1a1.792,1.792,0,0,0,.4-1.4l-7.3-4.7,5.8-3.3.4-.2h0l3.2-.7a2.289,2.289,0,0,1,2.4,1.1l3,5.8a1.167,1.167,0,0,0,.6.6l.6.5-7.8,4.5Zm7.2-3.8-3-5.8a1.371,1.371,0,0,0-1.3-.6l-3.2.7c-.1,0-.1,0-.2.1l-4.4,2.5,6.3,4,.1.2a2.644,2.644,0,0,1-.4,2.3l.6.5,6-3.4A2.253,2.253,0,0,1,425.8,177.8Z"/><path class="d" d="M439,178.6l-4.8-3.8a.769.769,0,0,0-1-.1h0l-5.1,2.9a5.019,5.019,0,0,0,.2,1.2l5.2,4.8,6.3-3.6A4.678,4.678,0,0,0,439,178.6Z"/><path class="d" d="M427.7,179.1V179a5.066,5.066,0,0,1-.2-1.3v-.3l6.4-3.7-.1.5.6.3,4.8,3.8a3.072,3.072,0,0,1,1,1.5l.1.4-7,4Zm10.9-.1-4.8-3.8c-.1-.1-.3-.2-.4-.1l-1,.6h0l-3.8,2.2c0,.2.1.4.1.6l4.8,4.4,5.6-3.3A2.653,2.653,0,0,0,438.6,179Z"/></g><path class="c" d="M405.7,189.9l4.3,3.9a4.274,4.274,0,0,1,1.1,2.1,28.676,28.676,0,0,0,.5,3.1,1.439,1.439,0,0,1-.9,1.7l-2.5,1h0a1.2,1.2,0,0,0-.6,1.6l2.9,6.6a1.889,1.889,0,0,0,1.8,1.1l3.1-.1a2.61,2.61,0,0,1,2,1,23.723,23.723,0,0,0,2.3,3,3.5,3.5,0,0,1,.8,2.2l-.3,4.6a2.878,2.878,0,0,0,.9,2.1l4.8,3.8a.758.758,0,0,0,.4.2.737.737,0,0,0,.9-.7l1.1-3.6c0-.1,0-.1.1-.2a1.136,1.136,0,0,1,1.5-.5,7.619,7.619,0,0,0,2,.6,2.827,2.827,0,0,1,1.8,1.4l3,5.8a1.676,1.676,0,0,0,1.8.8l3.2-.7c.1,0,.1,0,.2-.1a1.066,1.066,0,0,0,.6-1.4l-2.2-5.9a2.337,2.337,0,0,1,.5-2.1,3.915,3.915,0,0,0,.8-1,1.188,1.188,0,0,1,1.7-.4l4.3,2.8a.764.764,0,0,0,.5.2.773.773,0,0,0,.8-.7l.8-4.7a2.7,2.7,0,0,0-.7-2.1l-4.4-4a4.117,4.117,0,0,1-1-2.1,28.676,28.676,0,0,0-.5-3.1,1.439,1.439,0,0,1,.9-1.7l2.5-1.1h0a1.2,1.2,0,0,0,.6-1.6l-2.9-6.6a1.889,1.889,0,0,0-1.8-1.1l-3.1.2a2.61,2.61,0,0,1-2-1c-.7-1-1.5-2-2.3-3a3.5,3.5,0,0,1-.8-2.2l.3-4.6a2.518,2.518,0,0,0-.9-2l-4.8-3.8a.758.758,0,0,0-.4-.2.737.737,0,0,0-.9.7l-1.1,3.6c0,.1,0,.1-.1.2a1.056,1.056,0,0,1-1.5.5,11.764,11.764,0,0,0-2-.7,3.144,3.144,0,0,1-1.9-1.3l-3-5.8a1.918,1.918,0,0,0-1.8-.9l-3.2.7c-.1,0-.1,0-.2.1a1.066,1.066,0,0,0-.6,1.4l2.2,5.9a2.083,2.083,0,0,1-.5,2,3.915,3.915,0,0,0-.8,1h0a1.276,1.276,0,0,1-1.7.4l-4.3-2.8a.764.764,0,0,0-.5-.2.773.773,0,0,0-.8.7l-.8,4.7A3.71,3.71,0,0,0,405.7,189.9Zm12.2,5.4c.9-5.5,6-6.6,11.2-2.5s8.7,11.9,7.8,17.4c-1,5.5-6,6.6-11.2,2.5S417,200.8,417.9,195.3Z"/><g class="h"><path class="d" d="M405.7,189.9l4.3,3.9a4.274,4.274,0,0,1,1.1,2.1,28.676,28.676,0,0,0,.5,3.1,1.439,1.439,0,0,1-.9,1.7l-2.5,1h0a1.2,1.2,0,0,0-.6,1.6l2.9,6.6a1.889,1.889,0,0,0,1.8,1.1l3.1-.1a2.61,2.61,0,0,1,2,1,23.723,23.723,0,0,0,2.3,3,3.5,3.5,0,0,1,.8,2.2l-.3,4.6a2.878,2.878,0,0,0,.9,2.1l4.8,3.8a.758.758,0,0,0,.4.2.737.737,0,0,0,.9-.7l1.1-3.6c0-.1,0-.1.1-.2a1.136,1.136,0,0,1,1.5-.5,7.619,7.619,0,0,0,2,.6,2.827,2.827,0,0,1,1.8,1.4l3,5.8a1.676,1.676,0,0,0,1.8.8l3.2-.7c.1,0,.1,0,.2-.1a1.066,1.066,0,0,0,.6-1.4l-2.2-5.9a2.337,2.337,0,0,1,.5-2.1,3.915,3.915,0,0,0,.8-1,1.188,1.188,0,0,1,1.7-.4l4.3,2.8a.764.764,0,0,0,.5.2.773.773,0,0,0,.8-.7l.8-4.7a2.7,2.7,0,0,0-.7-2.1l-4.4-4a4.117,4.117,0,0,1-1-2.1,28.676,28.676,0,0,0-.5-3.1,1.439,1.439,0,0,1,.9-1.7l2.5-1.1h0a1.2,1.2,0,0,0,.6-1.6l-2.9-6.6a1.889,1.889,0,0,0-1.8-1.1l-3.1.2a2.61,2.61,0,0,1-2-1c-.7-1-1.5-2-2.3-3a3.5,3.5,0,0,1-.8-2.2l.3-4.6a2.518,2.518,0,0,0-.9-2l-4.8-3.8a.758.758,0,0,0-.4-.2.737.737,0,0,0-.9.7l-1.1,3.6c0,.1,0,.1-.1.2a1.056,1.056,0,0,1-1.5.5,11.764,11.764,0,0,0-2-.7,3.144,3.144,0,0,1-1.9-1.3l-3-5.8a1.918,1.918,0,0,0-1.8-.9l-3.2.7c-.1,0-.1,0-.2.1a1.066,1.066,0,0,0-.6,1.4l2.2,5.9a2.083,2.083,0,0,1-.5,2,3.915,3.915,0,0,0-.8,1h0a1.276,1.276,0,0,1-1.7.4l-4.3-2.8a.764.764,0,0,0-.5-.2.773.773,0,0,0-.8.7l-.8,4.7A3.71,3.71,0,0,0,405.7,189.9Zm12.2,5.4c.9-5.5,6-6.6,11.2-2.5s8.7,11.9,7.8,17.4c-1,5.5-6,6.6-11.2,2.5S417,200.8,417.9,195.3Z"/><path class="d" d="M436.2,231.1l-3-5.8a2.4,2.4,0,0,0-1.5-1.1,17.232,17.232,0,0,1-2.1-.7.446.446,0,0,0-.5,0c-.2.1-.3.2-.3.4l-1,3.7c0,.2-.2.4-.3.6a1.39,1.39,0,0,1-1.9.1l-4.8-3.8a3.25,3.25,0,0,1-1.1-2.5l.3-4.6a3.292,3.292,0,0,0-.6-1.9,23.72,23.72,0,0,1-2.3-3,1.9,1.9,0,0,0-1.5-.8l-3.1.1a2.542,2.542,0,0,1-2.3-1.4l-2.9-6.6a1.7,1.7,0,0,1,0-1.4,1.789,1.789,0,0,1,.9-1l2.5-1.1a1.141,1.141,0,0,0,.6-1.2,30.617,30.617,0,0,1-.5-3.2,3.1,3.1,0,0,0-.9-1.8l-4.3-3.9a3.114,3.114,0,0,1-.9-2.6l.8-4.7a1.421,1.421,0,0,1,.2-.6,1.28,1.28,0,0,1,1.8-.3l4.3,2.8a.714.714,0,0,0,1-.3c.3-.4.6-.7.9-1.1a1.674,1.674,0,0,0,.4-1.5l-2.2-5.9a1.5,1.5,0,0,1,.1-1.3,1.548,1.548,0,0,1,1.1-.8l3.2-.7a2.361,2.361,0,0,1,2.4,1.1l3,5.8a2.094,2.094,0,0,0,1.5,1.1,17.232,17.232,0,0,1,2.1.7.637.637,0,0,0,.6,0c.2-.1.3-.2.3-.4l1.1-3.6a1.3,1.3,0,0,1,.9-1,1.592,1.592,0,0,1,1.3.3l4.8,3.8a3.25,3.25,0,0,1,1.1,2.5l-.3,4.6a3.292,3.292,0,0,0,.6,1.9,34,34,0,0,1,2.3,3,1.9,1.9,0,0,0,1.5.8l3.1-.2a2.542,2.542,0,0,1,2.3,1.4l2.9,6.6a1.7,1.7,0,0,1,0,1.4,2.189,2.189,0,0,1-.9,1l-2.5,1.1a1.141,1.141,0,0,0-.6,1.2c.2,1.1.4,2.1.5,3.2a3.1,3.1,0,0,0,.9,1.8l4.3,4a3.114,3.114,0,0,1,.9,2.6l-.9,4.7a1.421,1.421,0,0,1-.2.6,1.28,1.28,0,0,1-1.8.3l-4.3-2.8a.714.714,0,0,0-1,.3c-.3.4-.6.7-.9,1.1a1.674,1.674,0,0,0-.4,1.5l2.2,5.9a1.5,1.5,0,0,1-.1,1.3,1.548,1.548,0,0,1-1.1.8l-3.2.7h-.4A2.438,2.438,0,0,1,436.2,231.1Zm7.5-11.3,4.3,2.8a.367.367,0,0,0,.3.1c.1,0,.2-.1.2-.3l.8-4.7a1.918,1.918,0,0,0-.6-1.7l-4.3-3.9a3.948,3.948,0,0,1-1.2-2.4c-.1-1-.3-2.1-.5-3.1a2.148,2.148,0,0,1,1.1-2.3l2.5-1.1a.781.781,0,0,0,.4-.4.637.637,0,0,0,0-.6l-2.9-6.6a1.56,1.56,0,0,0-1.3-.8l-3.1.2a3.132,3.132,0,0,1-2.4-1.2,31.547,31.547,0,0,0-2.2-2.9,3.916,3.916,0,0,1-.9-2.6l.3-4.6a2.36,2.36,0,0,0-.7-1.6l-4.8-3.8c-.1-.1-.2-.1-.4-.1-.1.1-.2.2-.2.3L427,182a1.589,1.589,0,0,1-.8,1,1.7,1.7,0,0,1-1.4,0,6.971,6.971,0,0,0-1.9-.6,3.558,3.558,0,0,1-2.2-1.6l-3-5.8a1.371,1.371,0,0,0-1.3-.6l-3.2.7h-.1a.63.63,0,0,0-.3.8l2.2,5.9a2.747,2.747,0,0,1-.6,2.6,3.915,3.915,0,0,0-.8,1,1.752,1.752,0,0,1-2.4.5l-4.3-2.9a.367.367,0,0,0-.3-.1c-.1,0-.2.1-.2.3l-.8,4.7a1.918,1.918,0,0,0,.6,1.7l4.3,4a3.948,3.948,0,0,1,1.2,2.4c.1,1,.3,2.1.5,3.1a2.148,2.148,0,0,1-1.1,2.3l-2.5,1.1h0a.819.819,0,0,0-.4,1l2.9,6.6a1.56,1.56,0,0,0,1.3.8l3.1-.1a2.982,2.982,0,0,1,2.4,1.2,31.547,31.547,0,0,0,2.2,2.9,3.916,3.916,0,0,1,.9,2.6l-.3,4.6a2.36,2.36,0,0,0,.7,1.6l4.8,3.8c.1.1.2.1.4.1.1-.1.2-.2.2-.3l1.1-3.6a1.589,1.589,0,0,1,.8-1,1.7,1.7,0,0,1,1.4,0,6.971,6.971,0,0,0,1.9.6,3.558,3.558,0,0,1,2.2,1.6l3.1,5.8a1.371,1.371,0,0,0,1.3.6l3.2-.7c.2,0,.3-.1.4-.3a.446.446,0,0,0,0-.5l-2.2-5.9a2.747,2.747,0,0,1,.6-2.6,3.915,3.915,0,0,0,.8-1,1.763,1.763,0,0,1,1.5-.8A1.33,1.33,0,0,1,443.7,219.8Zm-18.4-6.7c-5.4-4.2-9-12.3-8-17.9.4-2.5,1.7-4.3,3.6-5,2.4-.9,5.4-.1,8.4,2.2,5.4,4.2,9,12.3,8,17.9a6.282,6.282,0,0,1-3.6,5.1,6.465,6.465,0,0,1-2,.4A11.113,11.113,0,0,1,425.3,213.1Zm-3.8-22c-1.6.6-2.6,2.1-3,4.3-.9,5.4,2.5,13,7.6,17h0c2.7,2.1,5.4,2.9,7.4,2.1,1.6-.6,2.6-2.1,3-4.3.9-5.4-2.5-13-7.6-17a10.052,10.052,0,0,0-5.7-2.4A4.671,4.671,0,0,0,421.5,191.1Z"/></g><path class="i" d="M423.9,334.2,297.8,254.8a7.54,7.54,0,0,0-6.7-.3L216.3,294a5.932,5.932,0,0,0-2.7,2.5,6.245,6.245,0,0,0,2.3,8.6L342,384.5a7.539,7.539,0,0,0,6.7.3l74.9-39.5a7.316,7.316,0,0,0,3.6-5.5A7.689,7.689,0,0,0,423.9,334.2Z"/><path class="j" d="M215.6,294.4c-1.3,1-1.1,2.5.5,3.5l126.1,79.4a6.557,6.557,0,0,0,3.3.9l-.3,7.3a6.294,6.294,0,0,1-3.3-.9L215.8,305.1a6.939,6.939,0,0,1-3.1-5.7A7.209,7.209,0,0,1,215.6,294.4Z"/><path class="k" d="M423.9,334.2,297.8,254.8a7.54,7.54,0,0,0-6.7-.3L216.3,294c-1.9,1-2,2.7-.1,3.9l126.1,79.4a7.233,7.233,0,0,0,6.7.3l74.9-39.5C425.7,337.1,425.7,335.3,423.9,334.2Z"/><path class="l" d="M348.9,377.6l74.9-39.5c1.8-.9,2-2.5.5-3.6a5.9,5.9,0,0,1,2.2,2.5,6.273,6.273,0,0,1-3,8.4l-74.9,39.4a7.973,7.973,0,0,1-3.4.7l.3-7.3A6.647,6.647,0,0,0,348.9,377.6Z"/><path class="k" d="M424,334.2,297.9,254.8a7.484,7.484,0,0,1-3.1-6l3.9-101.2c.1-2.1.1-3.8,1.8-4.8a7.119,7.119,0,0,1,6.5.4l126,79.5a7.484,7.484,0,0,1,3.1,6l-3.9,101.1c-.1,2.1-.1,3.9-1.8,4.8A7.2,7.2,0,0,1,424,334.2Z"/><path class="k" d="M300.5,142.9a7.119,7.119,0,0,1,6.5.4l126,79.4a7.11,7.11,0,0,1,2.3,2.6h0l-4.9,2.6a7.111,7.111,0,0,0-2.3-2.6L302,145.9c-1.8-1.1-3.4-.3-3.4,1.8C298.7,145.5,298.7,143.8,300.5,142.9Z"/><path class="m" d="M428.1,225.3,302,145.9c-1.8-1.2-3.4-.4-3.4,1.8l-3.9,101.2a7.484,7.484,0,0,0,3.1,6l126.1,79.4c1.8,1.1,3.4.3,3.4-1.8l3.9-101.1A7.142,7.142,0,0,0,428.1,225.3Z"/><path class="n" d="M427.4,332.4l3.9-101.1a6.921,6.921,0,0,0-.9-3.4h0l4.9-2.6a6.65,6.65,0,0,1,.9,3.4l-3.9,101.1c-.1,2.1-.1,3.9-1.8,4.8a6.884,6.884,0,0,1-6.1-.2C426,335.2,427.3,334.4,427.4,332.4Z"/><path class="o" d="M428.1,232.7,424.7,321c0,1.3-1,1.8-2.1,1.1L301,245.5a4.369,4.369,0,0,1-1.9-3.6l3.4-88.3c.1-1.3,1-1.8,2.1-1.1L426.2,229A5.173,5.173,0,0,1,428.1,232.7Z"/><path class="k" d="M415.1,334.5a1.066,1.066,0,0,1-.6,1.4l-2,1a3.714,3.714,0,0,1-3.4-.1L292.1,263a1.2,1.2,0,0,1-.5-.5,1.066,1.066,0,0,1,.6-1.4l2-1a3.714,3.714,0,0,1,3.4.1l117,73.8A1.205,1.205,0,0,1,415.1,334.5Z"/><path class="p" d="M284.9,265.2l-31.7,16.9c-.8.4-.7,1.2.2,1.8l116.9,73.7a3.406,3.406,0,0,0,3.1.3l31.8-16.8c.8-.4.7-1.2-.2-1.8L288,265.5A3.406,3.406,0,0,0,284.9,265.2Z"/><path class="q" d="M355.1,328.1l3.7,2.3a.446.446,0,0,0,.5,0l3.7-1.9a.187.187,0,0,0,0-.3l-3.7-2.3a.446.446,0,0,0-.5,0l-3.7,1.9C354.9,327.8,355,328,355.1,328.1Zm13.1-2.7-3.7-2.3a.637.637,0,0,0-.6,0l-3.7,1.9a.187.187,0,0,0,0,.3l3.7,2.3a.637.637,0,0,0,.6,0l3.7-1.9C368.4,325.7,368.3,325.5,368.2,325.4Zm-11.8-7.5-6.2-3.9a.637.637,0,0,0-.6,0l-3.7,1.9c-.2.1-.1.2,0,.3l6.2,3.9a.446.446,0,0,0,.5,0l3.7-1.9C356.5,318.2,356.5,318.1,356.4,317.9Zm6.4,4.1-3.7-2.3a.637.637,0,0,0-.6,0l-3.7,1.9a.187.187,0,0,0,0,.3l3.7,2.3a.637.637,0,0,0,.6,0l3.7-1.9c.2,0,.2-.2,0-.3Zm-14.3-9-3.7-2.3a.637.637,0,0,0-.6,0l-3.7,1.9c-.2.1-.1.2,0,.3l3.7,2.3a.637.637,0,0,0,.6,0l3.7-1.9a.187.187,0,0,0,0-.3Zm-5.4-3.4-3.7-2.3a.637.637,0,0,0-.6,0l-3.7,1.9c-.2.1-.1.2,0,.3l3.7,2.3a.637.637,0,0,0,.6,0l3.7-1.9q.3-.15,0-.3Zm-14.9,7.5,3.7,2.3a.446.446,0,0,0,.5,0l3.7-1.9a.187.187,0,0,0,0-.3l-3.7-2.3a.637.637,0,0,0-.6,0l-3.7,2c-.1,0-.1.2.1.2Zm-5.4-3.3,3.7,2.3a.446.446,0,0,0,.5,0l3.7-1.9a.187.187,0,0,0,0-.3l-3.7-2.3a.446.446,0,0,0-.5,0l-3.7,1.9C322.6,313.6,322.7,313.7,322.8,313.8Zm-5.3-3.4,3.7,2.3a.446.446,0,0,0,.5,0l3.7-1.9a.187.187,0,0,0,0-.3l-3.7-2.3a.446.446,0,0,0-.5,0l-3.7,1.9Q317.2,310.25,317.5,310.4Zm-5.3-3.4,3.7,2.3a.446.446,0,0,0,.5,0l3.7-1.9a.187.187,0,0,0,0-.3l-3.7-2.3a.446.446,0,0,0-.5,0l-3.7,1.9q-.45.15,0,.3Zm37.6,17.7,3.7,2.3a.446.446,0,0,0,.5,0l3.7-1.9a.187.187,0,0,0,0-.3l-3.7-2.3a.637.637,0,0,0-.6,0l-3.7,1.9c-.1.1-.1.2.1.3Zm-16.2-4.1,8.2,5.1a.637.637,0,0,0,.6,0l8.9-4.7a.187.187,0,0,0,0-.3l-4.2-2.7a.446.446,0,0,0-.5,0l-4.7,2.5a.446.446,0,0,1-.5,0l-3.4-2.2a.637.637,0,0,0-.6,0l-3.7,1.9c-.3.1-.3.2-.1.4Zm4.2-14.3-3.7-2.3a.637.637,0,0,0-.6,0l-3.7,1.9a.187.187,0,0,0,0,.3l3.7,2.3a.637.637,0,0,0,.6,0l3.7-1.9a.187.187,0,0,0,0-.3Zm-5.3-3.4-3.7-2.3a.637.637,0,0,0-.6,0l-3.7,1.9a.187.187,0,0,0,0,.3l3.7,2.3a.446.446,0,0,0,.5,0l3.7-1.9a.219.219,0,0,0,.1-.3Zm-57.9-19.8a.187.187,0,0,0,0,.3l3.7,2.3a.446.446,0,0,0,.5,0l3.7-1.9a.187.187,0,0,0,0-.3l-3.7-2.3a.446.446,0,0,0-.5,0Zm15-7.2-3.7-2.3a.446.446,0,0,0-.5,0l-3.7,1.9a.187.187,0,0,0,0,.3l3.7,2.3a.446.446,0,0,0,.5,0l3.7-1.9a.187.187,0,0,0,0-.3Zm-11.1,3.6a.187.187,0,0,0,0,.3l3.7,2.3a.637.637,0,0,0,.6,0l3.7-1.9a.187.187,0,0,0,0-.3l-3.7-2.3a.637.637,0,0,0-.6,0Zm-6.2,8.5,3.7,2.3a.446.446,0,0,0,.5,0l3.7-1.9a.187.187,0,0,0,0-.3l-3.7-2.3a.446.446,0,0,0-.5,0l-3.8,1.9c-.2,0-.2.2.1.3Zm-5.4-3.7a.187.187,0,0,0,0,.3l3.7,2.3a.446.446,0,0,0,.5,0l3.7-1.9a.187.187,0,0,0,0-.3l-3.7-2.3a.446.446,0,0,0-.5,0Zm28-5-3.7-2.3a.446.446,0,0,0-.5,0l-3.7,1.9a.187.187,0,0,0,0,.3l3.7,2.3a.446.446,0,0,0,.5,0l3.7-1.9C295.1,279.5,295.1,279.3,294.9,279.3Zm26.8,16.8-3.7-2.3a.446.446,0,0,0-.5,0l-3.7,1.9a.187.187,0,0,0,0,.3l3.7,2.3a.446.446,0,0,0,.5,0l3.7-1.9C321.9,296.4,321.8,296.2,321.7,296.1Zm-21.4-13.5-3.7-2.3a.446.446,0,0,0-.5,0l-3.7,1.9a.187.187,0,0,0,0,.3l3.7,2.3a.446.446,0,0,0,.5,0l3.7-1.9C300.4,282.9,300.4,282.7,300.3,282.6ZM327,299.5l-3.6-2.3a.446.446,0,0,0-.5,0l-3.7,1.9a.187.187,0,0,0,0,.3l3.7,2.3a.446.446,0,0,0,.5,0l3.7-1.9C327.2,299.7,327.2,299.6,327,299.5Zm-10.7-6.8-3.7-2.3a.446.446,0,0,0-.5,0l-3.7,1.9a.187.187,0,0,0,0,.3l3.7,2.3a.446.446,0,0,0,.5,0l3.7-1.9c.2,0,.2-.2,0-.3Zm-5.3-3.3-3.7-2.3a.446.446,0,0,0-.5,0l-3.7,1.9a.187.187,0,0,0,0,.3l3.7,2.3a.446.446,0,0,0,.5,0l3.7-1.9a.187.187,0,0,0,0-.3Zm-5.4-3.4-3.7-2.3a.446.446,0,0,0-.5,0l-3.7,1.9a.187.187,0,0,0,0,.3l3.7,2.3a.446.446,0,0,0,.5,0l3.7-1.9q.3-.15,0-.3Zm-4.2,14.3,3.7,2.3a.446.446,0,0,0,.5,0l3.7-1.9a.187.187,0,0,0,0-.3l-3.7-2.3a.446.446,0,0,0-.5,0l-3.7,1.9q-.3.15,0,.3ZM380,332.9l-3.7-2.3a.446.446,0,0,0-.5,0l-3.7,1.9a.187.187,0,0,0,0,.3l3.7,2.3a.446.446,0,0,0,.5,0l3.7-1.9Q380.3,333.05,380,332.9Zm-6.5-4.1-3.7-2.3a.637.637,0,0,0-.6,0l-3.7,1.9a.187.187,0,0,0,0,.3l3.7,2.3a.637.637,0,0,0,.6,0l3.7-1.9q.3-.15,0-.3Zm11.9,7.5-3.7-2.3a.446.446,0,0,0-.5,0l-3.7,1.9a.187.187,0,0,0,0,.3l3.7,2.3a.446.446,0,0,0,.5,0l3.7-1.9a.187.187,0,0,0,0-.3Zm-48.1-19.4,3.7,2.3a.446.446,0,0,0,.5,0l3.7-1.9a.187.187,0,0,0,0-.3l-3.7-2.3a.446.446,0,0,0-.5,0l-3.7,1.9c-.1,0-.1.2,0,.3ZM390.8,340a.187.187,0,0,0,0-.3l-3.7-2.3a.446.446,0,0,0-.5,0l-3.7,1.9a.187.187,0,0,0,0,.3l3.7,2.3a.446.446,0,0,0,.5,0Zm-84.1-36.3,3.7,2.3a.446.446,0,0,0,.5,0l3.7-1.9a.187.187,0,0,0,0-.3l-3.7-2.3a.446.446,0,0,0-.5,0l-3.7,1.9c-.1,0-.1.2,0,.3ZM372.4,345l3.7,2.3a.446.446,0,0,0,.5,0l3.7-1.9a.187.187,0,0,0,0-.3l-3.7-2.3a.446.446,0,0,0-.5,0l-3.7,1.9A.187.187,0,0,0,372.4,345Zm-.1-6.1,3.7,2.3a.446.446,0,0,0,.5,0l3.7-1.9a.187.187,0,0,0,0-.3l-3.7-2.3a.446.446,0,0,0-.5,0l-3.7,1.9q-.3.15,0,.3Zm13.2,3.8a.187.187,0,0,0,0-.3l-3.7-2.3a.446.446,0,0,0-.5,0l-3.7,1.9a.187.187,0,0,0,0,.3l3.7,2.3a.446.446,0,0,0,.5,0Zm1.2.7-8.9,4.7a.187.187,0,0,0,0,.3l3.7,2.3a.446.446,0,0,0,.5,0l8.9-4.7a.187.187,0,0,0,0-.3l-3.7-2.3a.446.446,0,0,0-.5,0Zm-11.9-7.8-3.7-2.3a.446.446,0,0,0-.5,0l-3.7,1.9a.187.187,0,0,0,0,.3l3.7,2.3a.446.446,0,0,0,.5,0l3.7-1.9c.2,0,.2-.2,0-.3Zm-40.3-25.4-3.7-2.3a.637.637,0,0,0-.6,0l-3.7,1.9a.187.187,0,0,0,0,.3l3.7,2.3a.637.637,0,0,0,.6,0l3.7-1.9c.2,0,.1-.2,0-.3Zm32.6,31.2a.187.187,0,0,0,0,.3l3.7,2.3a.446.446,0,0,0,.5,0l3.7-1.9a.187.187,0,0,0,0-.3l-3.7-2.3a.446.446,0,0,0-.5,0Zm-27.3-27.8-3.7-2.3a.637.637,0,0,0-.6,0l-3.7,1.9a.187.187,0,0,0,0,.3l3.7,2.3a.637.637,0,0,0,.6,0l3.7-1.9C340,313.9,340,313.7,339.8,313.6Zm-59.9-27.1a.187.187,0,0,0,0,.3l3.7,2.3a.446.446,0,0,0,.5,0l3.7-1.9a.187.187,0,0,0,0-.3l-3.7-2.3a.446.446,0,0,0-.5,0Zm11.8-3.2L288,281a.637.637,0,0,0-.6,0l-3.7,1.9a.187.187,0,0,0,0,.3l3.7,2.3a.637.637,0,0,0,.6,0l3.7-1.9a.188.188,0,0,0,0-.3Zm-6.4,6.9,3.7,2.3a.446.446,0,0,0,.5,0l3.7-1.9a.187.187,0,0,0,0-.3l-3.7-2.3a.446.446,0,0,0-.5,0l-3.7,1.9C285.2,289.9,285.2,290.1,285.3,290.2Zm5.4,3.3,3.7,2.3a.446.446,0,0,0,.5,0l3.7-1.9a.187.187,0,0,0,0-.3l-3.7-2.3a.446.446,0,0,0-.5,0l-3.7,1.9Q290.4,293.35,290.7,293.5Zm5.3,3.4,3.7,2.3a.446.446,0,0,0,.5,0l3.7-1.9a.187.187,0,0,0,0-.3l-3.7-2.3a.446.446,0,0,0-.5,0l-3.7,1.9a.187.187,0,0,0,0,.3Zm1-10.3-3.7-2.3a.637.637,0,0,0-.6,0l-3.7,1.9c-.2.1-.1.2,0,.3l3.7,2.3a.637.637,0,0,0,.6,0l3.7-1.9c.2,0,.2-.2,0-.3Zm5.4,3.4-3.7-2.3a.637.637,0,0,0-.6,0l-3.6,1.9c-.2.1-.1.2,0,.3l3.7,2.3a.637.637,0,0,0,.6,0l3.7-1.9a.367.367,0,0,0-.1-.3Zm21.4,13.5-3.7-2.3a.637.637,0,0,0-.6,0l-3.7,1.9a.187.187,0,0,0,0,.3l3.7,2.3a.637.637,0,0,0,.6,0l3.7-1.9a.187.187,0,0,0,0-.3Zm-5.4-3.4-3.7-2.3a.637.637,0,0,0-.6,0l-3.7,1.9a.187.187,0,0,0,0,.3l3.7,2.3a.637.637,0,0,0,.6,0l3.7-1.9C318.6,300.4,318.6,300.2,318.4,300.1Zm10.7,6.8-3.7-2.3a.637.637,0,0,0-.6,0l-3.7,1.9a.187.187,0,0,0,0,.3l3.7,2.3a.637.637,0,0,0,.6,0l3.7-1.9q.3-.15,0-.3Zm-21.4-13.6L304,291a.637.637,0,0,0-.6,0l-3.7,1.9c-.2.1-.1.2,0,.3l3.7,2.3a.637.637,0,0,0,.6,0l3.7-1.9Q308,293.6,307.7,293.3Zm5.4,3.4-3.7-2.3a.637.637,0,0,0-.6,0l-3.7,1.9a.187.187,0,0,0,0,.3l3.7,2.3a.637.637,0,0,0,.6,0l3.7-1.9c.1,0,.1-.2,0-.3Zm-35.5-5.4,3.7,2.3a.446.446,0,0,0,.5,0l3.7-1.9a.187.187,0,0,0,0-.3l-3.7-2.3a.446.446,0,0,0-.5,0l-3.7,1.9q-.3.15,0,.3Zm3-16.6,3.7-1.9a.187.187,0,0,0,0-.3l-3.7-2.3a.446.446,0,0,0-.5,0l-3.7,1.9a.187.187,0,0,0,0,.3l3.7,2.3a.446.446,0,0,0,.5,0Zm-3.3,4,3.6-1.9a.187.187,0,0,0,0-.3l-5.6-3.6a.446.446,0,0,0-.5,0l-3.7,1.9a.187.187,0,0,0,0,.3l5.6,3.6a.638.638,0,0,0,.6,0Zm10.5-6.8,3.7-1.9c.2-.1.1-.2,0-.3l-4.5-2.8a.637.637,0,0,0-.6,0l-3.7,1.9a.187.187,0,0,0,0,.3l4.5,2.8a.637.637,0,0,0,.6,0Zm3.4,2.2a.187.187,0,0,0,0,.3l3.7,2.3a.446.446,0,0,0,.5,0l3.7-1.9a.187.187,0,0,0,0-.3l-3.7-2.3a.446.446,0,0,0-.5,0Zm-17.7,8.3,3.7-1.9a.187.187,0,0,0,0-.3l-7-4.4a.446.446,0,0,0-.5,0l-3.7,2a.187.187,0,0,0,0,.3l7,4.4a1.087,1.087,0,0,0,.5-.1Zm-7.8,1.1,3.7-1.9a.187.187,0,0,0,0-.3l-4.5-2.8a.446.446,0,0,0-.5,0l-3.7,1.9a.187.187,0,0,0,0,.3l4.5,2.8a.446.446,0,0,0,.5,0ZM331,299.2a.187.187,0,0,0,0,.3l3.7,2.3a.446.446,0,0,0,.5,0l3.7-1.9a.187.187,0,0,0,0-.3l-3.7-2.3a.637.637,0,0,0-.6,0Zm-10.6-6.7a.187.187,0,0,0,0,.3l3.7,2.3a.637.637,0,0,0,.6,0l3.7-1.9c.2-.1.1-.2,0-.3l-3.7-2.3a.637.637,0,0,0-.6,0Zm-23.8-15a.187.187,0,0,0,0,.3l3.7,2.3a.446.446,0,0,0,.5,0l3.7-1.9a.187.187,0,0,0,0-.3l-3.7-2.3a.446.446,0,0,0-.5,0Zm29,18.3a.187.187,0,0,0,0,.3l3.7,2.3a.637.637,0,0,0,.6,0l3.7-1.9a.187.187,0,0,0,0-.3l-3.7-2.3a.637.637,0,0,0-.6,0Zm-10.7-6.7a.187.187,0,0,0,0,.3l3.7,2.3a.637.637,0,0,0,.6,0l3.7-1.9c.2-.1.1-.2,0-.3l-3.7-2.3a.637.637,0,0,0-.6,0Zm-49.7-4a.187.187,0,0,0,0-.3l-5.6-3.6a.446.446,0,0,0-.5,0l-3.7,1.9a.187.187,0,0,0,0,.3L261,287a.637.637,0,0,0,.6,0Zm42.1-.9a.187.187,0,0,0,0,.3l3.7,2.3a.446.446,0,0,0,.5,0l3.7-1.9a.187.187,0,0,0,0-.3l-3.7-2.3a.446.446,0,0,0-.5,0Zm-5.4-3.3a.187.187,0,0,0,0,.3l3.7,2.3a.446.446,0,0,0,.5,0l3.7-1.9a.187.187,0,0,0,0-.3l-3.7-2.3a.446.446,0,0,0-.5,0Zm62.5,66.7a.187.187,0,0,0,0-.3l-9-5.7a.446.446,0,0,0-.5,0l-3.7,1.9a.187.187,0,0,0,0,.3l9,5.6a.446.446,0,0,0,.5,0Zm-11.8-7.5a.187.187,0,0,0,0-.3l-3.7-2.3a.446.446,0,0,0-.5,0l-3.7,1.9a.187.187,0,0,0,0,.3l3.7,2.3a.446.446,0,0,0,.5,0Zm-69.7-45.4,3.7,2.3a.637.637,0,0,0,.6,0l3.7-1.9a.187.187,0,0,0,0-.3l-3.7-2.3a.446.446,0,0,0-.5,0l-3.7,1.9c-.3.1-.2.2-.1.3Zm59,38.7a.187.187,0,0,0,0-.3l-3.7-2.3a.446.446,0,0,0-.5,0l-3.7,1.9a.187.187,0,0,0,0,.3l3.7,2.3a.446.446,0,0,0,.5,0ZM369.8,351a.187.187,0,0,0,0-.3l-3.7-2.3a.446.446,0,0,0-.5,0l-3.7,1.9a.187.187,0,0,0,0,.3l3.7,2.3a.637.637,0,0,0,.6,0Zm1.7,5.3,8.9-4.7a.187.187,0,0,0,0-.3l-3.7-2.3a.446.446,0,0,0-.5,0l-8.9,4.7c-.2.1-.1.2,0,.3l3.7,2.3a.446.446,0,0,0,.5,0Zm-49.6-35.5a.187.187,0,0,0,0-.3l-4.5-2.8a.637.637,0,0,0-.6,0l-3.7,1.9c-.2.1-.1.2,0,.3l4.5,2.8a.637.637,0,0,0,.6,0Zm13.5,8.5c.2-.1.1-.2,0-.3l-5.6-3.6a.637.637,0,0,0-.6,0l-3.7,1.9c-.2.1-.1.2,0,.3l5.6,3.6a.637.637,0,0,0,.6,0ZM309.5,313a.187.187,0,0,0,0-.3l-30.2-19a.637.637,0,0,0-.6,0l-3.7,1.9a.187.187,0,0,0,0,.3l30.2,19a.637.637,0,0,0,.6,0Zm-31.8-20.1a.187.187,0,0,0,0-.3l-4.5-2.8a.637.637,0,0,0-.6,0l-3.7,1.9a.187.187,0,0,0,0,.3l4.5,2.8a.637.637,0,0,0,.6,0Zm38,24a.187.187,0,0,0,0-.3l-4.5-2.8a.637.637,0,0,0-.6,0l-3.7,1.9c-.2.1-.1.2,0,.3l4.5,2.8a.637.637,0,0,0,.6,0ZM271.5,289a.187.187,0,0,0,0-.3l-4.5-2.8a.637.637,0,0,0-.6,0l-3.7,1.9a.187.187,0,0,0,0,.3l4.5,2.8a.637.637,0,0,0,.6,0Zm56.6,35.7a.187.187,0,0,0,0-.3l-4.5-2.9a.637.637,0,0,0-.6,0l-3.7,1.9c-.2.1-.1.2,0,.3l4.5,2.8a.637.637,0,0,0,.6,0Zm19.2,12.1a.187.187,0,0,0,0-.3l-3.7-2.3a.446.446,0,0,0-.5,0l-3.7,1.9a.187.187,0,0,0,0,.3l3.7,2.3a.446.446,0,0,0,.5,0Zm14.5,7.7,3.7,2.3a.446.446,0,0,0,.5,0l3.7-1.9a.187.187,0,0,0,0-.3l-3.7-2.3a.446.446,0,0,0-.5,0l-3.7,1.9c-.1,0-.2.1,0,.3Zm-1.3-13,3.7,2.3a.446.446,0,0,0,.5,0l3.7-1.9a.187.187,0,0,0,0-.3l-3.7-2.3a.446.446,0,0,0-.5,0l-3.7,1.9q-.3,0,0,.3Zm-34.8-9.8,10.7,6.7a.637.637,0,0,0,.6,0l3.7-1.9a.187.187,0,0,0,0-.3L330,319.5a.637.637,0,0,0-.6,0l-3.7,1.9A.187.187,0,0,0,325.7,321.7Zm30.7,19a.187.187,0,0,0,0,.3l3.7,2.3a.446.446,0,0,0,.5,0l3.7-1.9a.187.187,0,0,0,0-.3l-3.7-2.3a.446.446,0,0,0-.5,0Zm5.3-2.4,3.7,2.3a.446.446,0,0,0,.5,0l3.7-1.9a.187.187,0,0,0,0-.3l-3.7-2.3a.446.446,0,0,0-.5,0l-3.7,1.9c-.2,0-.2.2,0,.3Zm-41.3-20,3.7,2.3a.637.637,0,0,0,.6,0l3.7-1.9a.187.187,0,0,0,0-.3l-3.7-2.3a.637.637,0,0,0-.6,0l-3.7,1.9q-.3.15,0,.3Zm24.2,15a.187.187,0,0,0,0,.3l3.7,2.3a.446.446,0,0,0,.5,0l3.7-1.9a.187.187,0,0,0,0-.3l-3.7-2.3a.446.446,0,0,0-.5,0Zm-51-31.9,3.7,2.3a.637.637,0,0,0,.6,0l3.7-1.9a.187.187,0,0,0,0-.3l-3.7-2.3a.637.637,0,0,0-.6,0l-3.7,1.9C293.4,301.2,293.5,301.4,293.6,301.4Zm5.4,3.4,3.7,2.3a.637.637,0,0,0,.6,0l3.7-1.9a.187.187,0,0,0,0-.3l-3.7-2.3a.637.637,0,0,0-.6,0l-3.7,1.9q-.3.15,0,.3Zm-10.7-6.7,3.7,2.3a.637.637,0,0,0,.6,0l3.7-1.9a.187.187,0,0,0,0-.3l-3.7-2.3a.637.637,0,0,0-.6,0l-3.7,1.9c-.2,0-.2.2,0,.3Zm21.4,13.5,3.7,2.3a.637.637,0,0,0,.6,0l3.7-1.9a.187.187,0,0,0,0-.3l-3.7-2.3a.637.637,0,0,0-.6,0l-3.7,1.9c-.2,0-.2.2,0,.3Zm-5.4-3.4,3.7,2.3a.637.637,0,0,0,.6,0l3.6-1.9a.187.187,0,0,0,0-.3l-3.7-2.3a.637.637,0,0,0-.6,0l-3.7,1.9a.368.368,0,0,0,.1.3Zm10.7,6.7,3.7,2.3a.637.637,0,0,0,.6,0l3.7-1.9a.187.187,0,0,0,0-.3l-3.7-2.3a.637.637,0,0,0-.6,0l-3.7,1.9c-.1.1-.1.3,0,.3Zm75.6,20.3a.187.187,0,0,0,0,.3l3.7,2.3a.446.446,0,0,0,.5,0l1-.5a.187.187,0,0,0,0-.3l-3.7-2.3a.637.637,0,0,0-.6,0Zm-29.3-16.9a.187.187,0,0,0,0,.3l3.7,2.3a.446.446,0,0,0,.5,0l3.7-1.9a.187.187,0,0,0,0-.3l-3.7-2.3a.446.446,0,0,0-.5,0ZM372,325a.187.187,0,0,0,0,.3l3.7,2.3a.637.637,0,0,0,.6,0l3.7-1.9a.187.187,0,0,0,0-.3l-3.7-2.3a.446.446,0,0,0-.5,0Zm-17.2-10.8a.187.187,0,0,0,0,.3l3.7,2.3a.446.446,0,0,0,.5,0l3.7-1.9a.187.187,0,0,0,0-.3l-3.7-2.3a.446.446,0,0,0-.5,0Zm11.9,7.4a.187.187,0,0,0,0,.3l3.7,2.3a.446.446,0,0,0,.5,0l3.7-1.9a.187.187,0,0,0,0-.3l-3.7-2.3a.446.446,0,0,0-.5,0Zm-22.6-14.2a.187.187,0,0,0,0,.3l3.7,2.3a.446.446,0,0,0,.5,0l3.7-1.9a.187.187,0,0,0,0-.3l-3.7-2.3a.446.446,0,0,0-.5,0Zm5.3,3.4a.187.187,0,0,0,0,.3l3.7,2.3a.446.446,0,0,0,.5,0l3.7-1.9a.187.187,0,0,0,0-.3l-3.7-2.3a.446.446,0,0,0-.5,0Zm30.5,17.6a.187.187,0,0,0,0,.3l3.7,2.3a.446.446,0,0,0,.5,0l1-.5a.187.187,0,0,0,0-.3l-3.7-2.3a.637.637,0,0,0-.6,0Zm16,10.1a.187.187,0,0,0,0,.3l3.7,2.3a.446.446,0,0,0,.5,0l1-.5a.187.187,0,0,0,0-.3l-3.7-2.3a.637.637,0,0,0-.6,0Zm-7.7,4.1a.187.187,0,0,0,0,.3l3.7,2.3a.446.446,0,0,0,.5,0l3.7-1.9a.187.187,0,0,0,0-.3l-3.7-2.3a.446.446,0,0,0-.5,0Zm-21,5.2,3.7,2.3a.446.446,0,0,0,.5,0l3.7-1.9a.187.187,0,0,0,0-.3l-3.7-2.3a.446.446,0,0,0-.5,0l-3.7,1.9q-.3.15,0,.3Zm18-16.1a.187.187,0,0,0,0,.3l3.7,2.3a.446.446,0,0,0,.5,0l1-.5a.187.187,0,0,0,0-.3l-3.7-2.3a.637.637,0,0,0-.6,0ZM338.6,304a.187.187,0,0,0,0,.3l3.7,2.3a.446.446,0,0,0,.5,0l3.7-1.9a.187.187,0,0,0,0-.3l-3.7-2.3a.446.446,0,0,0-.5,0Z"/><path class="r" d="M289.4,311.5l-21.6,11.4.7.5L304,345.7l20.8-11,.8-.4Z"/><path class="s" d="M289.4,312.4l-20.9,11L304,345.7l20.8-11Z"/><path class="t" d="M289.4,312.4l-20.9,11L304,345.7l20.8-11Z"/><path class="b" d="M424.5,334.6Z"/><path class="i" d="M411.8,308.2c.4,0,.7-.3.8-.9l2.6-77.4,2.5-1.4-2.6,77.4a3.158,3.158,0,0,1-1.3,2.2,2.622,2.622,0,0,1-1.5.2,1.689,1.689,0,0,1-1-.3A.764.764,0,0,0,411.8,308.2Z"/><path class="a" d="M287.2,141.3l87.9,54.8c.7.4,2.6-4.2,3.3-3.8l31,19.3c.7.4,1.7,6.9,2.4,7.4l3.6,2.2-2.8,86.1c0,.8-.6,1.2-1.3.7L285.6,229.8a2.676,2.676,0,0,1-1.2-2.3Z"/><path class="b" d="M414,225.2,288.3,147a2.676,2.676,0,0,1-1.2-2.3l.3-10.3a2.3,2.3,0,0,1,.4-1.4,2.551,2.551,0,0,1,3.5-.7L417,210.4a3.037,3.037,0,0,1,1.3,2.3l-.3,10.4a2.569,2.569,0,0,1-4,2.1Z"/><path class="u" d="M287.8,133a2.459,2.459,0,0,1,3.4-.8L417,210.4a2.836,2.836,0,0,1,.9,1l-2.5,1.4a2.189,2.189,0,0,0-.9-1L288.8,133.6c-.7-.4-1.2-.2-1.3.5A2.016,2.016,0,0,1,287.8,133Z"/><path class="v" d="M417.9,211.4c.1.3.2.5.3.8v.5l-.5,15.7-2.5,1.4.5-15.7a2.768,2.768,0,0,0-.3-1.3Z"/><path class="b" d="M288.8,133.5l125.7,78.2a2.676,2.676,0,0,1,1.2,2.3l-.2,7.1-3.6-2.2a2.676,2.676,0,0,1-1.2-2.3l.1-2.7a2.772,2.772,0,0,0-1.3-2.3L377.9,192a.86.86,0,0,0-1.4.7l-.1,2.7c0,.8-.6,1.2-1.3.7l-87.9-54.8.2-7.1A.86.86,0,0,1,288.8,133.5Z"/><path class="d" d="M295.1,141.9c0,1.1-.8,1.5-1.7.9a3.909,3.909,0,0,1-1.6-2.9c0-1.1.8-1.5,1.7-.9A3.593,3.593,0,0,1,295.1,141.9Z"/><path class="d" d="M301,145.5c0,1.1-.8,1.5-1.7.9a3.619,3.619,0,0,1-1.6-2.9c0-1.1.8-1.5,1.7-.9A3.593,3.593,0,0,1,301,145.5Z"/><path class="d" d="M306.9,149.2c0,1.1-.8,1.5-1.7.9a3.909,3.909,0,0,1-1.6-2.9c0-1.1.8-1.5,1.7-.9A3.875,3.875,0,0,1,306.9,149.2Z"/><path class="w" d="M374,195.4c.7.4.9,0,1.4-.7l1.2-2a1.212,1.212,0,0,1,1.9-.4l31,19.3a3.446,3.446,0,0,1,1.3,2.3l.8,3.2c.3,1.2.5,1.9,1.2,2.3l2.7,1.7-.3,8.6L286.9,150l.3-8.6Z"/><path class="w" d="M418,219.9l-.3,8.6-2.5,1.3.3-8.6Z"/><path class="v" d="M418,219.9l-.3,8.6-2.5,1.3.3-8.6Z"/><path class="x" d="M409.2,221.8a.758.758,0,0,0,.2.4l2,1.3-.8.6c-.1,0-.1.2,0,.4,0,.1.1.1.1.2h.1l1.2-.8h0v-.2h0v-.1h0l-1-2.2c-.1-.1-.2-.2-.2-.1a.3.3,0,0,0,0,.4l.7,1.6-2.1-1.3C409.3,221.6,409.2,221.6,409.2,221.8Z"/><path class="x" d="M407.8,220.9c0,.2-.1.2-.2.2l-2-1.3.7,1.5a.3.3,0,0,1,0,.4h-.1l-.1-.1-1.1-2.2h0v-.1h0v-.2h0l1.2-.8c.1-.1.2,0,.2.2a.3.3,0,0,1,0,.4l-.8.6,2,1.3C407.8,220.6,407.8,220.8,407.8,220.9Z"/><path class="x" d="M400.9,215.5c0,.1,0,.2.1.2l.8.6c.1.1.1-.1.1-.2l-.2-.5c.3,0,.7.4,1,1a2.105,2.105,0,0,1-.1,2.2c-.4.4-1,0-1.4-.9-.1-.1-.2-.2-.2-.1-.1.1-.1.2,0,.4a2.73,2.73,0,0,0,.9,1.2.746.746,0,0,0,.9,0,2.892,2.892,0,0,0,.1-2.9c-.4-.8-.9-1.3-1.4-1.3l-.3-.7c-.1-.1-.2-.1-.2,0Z"/><path class="x" d="M378.5,197a.446.446,0,0,0,0,.5.215.215,0,0,0,.2.2h.2l.8-.7.7,1.6a.215.215,0,0,0,.2.2h.2a.454.454,0,0,0,0-.5l-.7-1.6.8-.7a.454.454,0,0,0,0-.5c-.1-.2-.2-.3-.3-.2l-.8.7-.7-1.6c-.1-.2-.2-.3-.3-.2a.446.446,0,0,0,0,.5l.7,1.6Z"/><path class="o" d="M396.9,216.9l-101.3-63a2.676,2.676,0,0,1-1.2-2.3l.1-2.7c0-.8.6-1.2,1.3-.7l101.3,63a2.676,2.676,0,0,1,1.2,2.3l-.1,2.7C398.2,217.1,397.6,217.4,396.9,216.9Z"/><path class="w" d="M297.1,154l-.7-.9-.6.1a.367.367,0,0,1-.3-.1.764.764,0,0,1-.2-.5l.2-1v-.1l-.5-1.1a.446.446,0,0,1,0-.5c.1-.1.2-.1.4-.1l.6.3.3-.6h0c.1-.1.2-.2.3-.2.2,0,.3.2.4.4l.3,1.2v.1l.8.7a.764.764,0,0,1,.2.5c0,.1-.1.2-.1.3l-.5.4.1,1.1a.52.52,0,0,1-.2.4h-.1C297.2,154.2,297.1,154.1,297.1,154Zm.7-2h0l-.8-.7c-.1-.1-.2-.2-.2-.3l-.3-1-.2.5a.247.247,0,0,1-.4.1l-.5-.2.5.9a.367.367,0,0,1,.1.3l-.2,1v.1l.6-.1c.1,0,.3.1.3.2l.4.6-.1-.7a.6.6,0,0,1,.1-.4l.7-.3Zm-1.9-1.8Z"/><g class="y"><path class="z" d="M292.7,147.7l-3.7-2.3a.377.377,0,0,1-.1-.6.481.481,0,0,1,.6-.2l3.7,2.3a.52.52,0,0,1,.2.4.472.472,0,0,1-.5.5A.349.349,0,0,1,292.7,147.7Z"/><path class="z" d="M292.6,149.8l-3.7-2.3a.377.377,0,0,1-.1-.6.481.481,0,0,1,.6-.2l3.7,2.3a.52.52,0,0,1,.2.4.472.472,0,0,1-.5.5C292.7,149.9,292.7,149.9,292.6,149.8Z"/><path class="z" d="M292.5,152l-3.7-2.3h0a.377.377,0,0,1-.1-.6h0a.377.377,0,0,1,.6-.1l3.7,2.3a.52.52,0,0,1,.2.4c0,.3-.2.4-.5.4A.349.349,0,0,0,292.5,152Z"/></g><path class="z" d="M411.8,232.6l-.3,9.9a.714.714,0,0,1-1.2.6L290.7,168.6a2.432,2.432,0,0,1-1.1-2l.3-9.9c0-.7.5-1,1.2-.6l119.6,74.4A2.609,2.609,0,0,1,411.8,232.6Z"/><path class="o" d="M331,185.5,298.2,165l-.1,3.7,32.8,20.4c.4.2.7.1.7-.4l.1-2.1A1.357,1.357,0,0,0,331,185.5Z"/><path class="b" d="M298.2,165l-.1,3.7-3.5-2.2a1.426,1.426,0,0,1-.6-1.2l.1-2.1c0-.4.3-.6.7-.4Z"/><path class="o" d="M294.8,165.9a.1.1,0,0,0,.1.1h0l.4-.1a1.456,1.456,0,0,0,.6.9.5.5,0,0,0,.6,0,.91.91,0,0,0,.4-.8,2.193,2.193,0,0,0-.7-1.7,1.268,1.268,0,0,0-.6-.1.91.91,0,0,0-.4.8v.5l-.4.1Q294.8,165.9,294.8,165.9Zm1.3.7a2.035,2.035,0,0,1-.6-1.5,1.072,1.072,0,0,1,.2-.6h.1c.1,0,.1,0,.2.1a1.974,1.974,0,0,1,.6,1.4,1.072,1.072,0,0,1-.2.6Z"/><path class="o" d="M411.2,247.3l-.6,21.2c0,.8-.6,1.1-1.3.7l-18-11.2a2.748,2.748,0,0,1-1.2-2.2l.7-21.2c0-.8.6-1.1,1.3-.7L410,245.1A2.509,2.509,0,0,1,411.2,247.3Z"/><path class="aa" d="M408.8,256.6c-.2,5.2-3.8,7.1-8.2,4.4s-7.8-9.1-7.7-14.3c.2-5.2,3.9-7.1,8.3-4.4C405.6,245.1,409,251.4,408.8,256.6Z"/><path class="c" d="M403.8,249.5a1.507,1.507,0,0,1-2.5,1.3,5.645,5.645,0,0,1-2.3-4.3,1.507,1.507,0,0,1,2.5-1.3A5.645,5.645,0,0,1,403.8,249.5Z"/><path class="c" d="M396.4,254.5a10.434,10.434,0,0,0,4.5,5.3c3.6,2.3,4.6.4,4.6.4v-.7a9.1,9.1,0,0,0-3.7-7l-1.3-.8c-2.2-1.3-4-.3-4.1,2.3Z"/><path class="o" d="M388.6,233.2l-.7,23.9c0,.8-.6,1.1-1.3.7l-36.1-22.5a2.748,2.748,0,0,1-1.2-2.2l.8-23.9c0-.8.6-1.1,1.3-.7l36,22.5A3.476,3.476,0,0,1,388.6,233.2Z"/><path class="w" d="M385.6,233.8c0,.4-.3.6-.7.3l-13.1-8.2a1.525,1.525,0,0,1-.7-1.2c0-.4.3-.6.7-.3l13.1,8.2A1.213,1.213,0,0,1,385.6,233.8Z"/><path class="w" d="M385.4,240.1c0,.4-.3.6-.7.3l-7.7-4.8a1.525,1.525,0,0,1-.7-1.2c0-.4.3-.6.7-.3l7.7,4.8A1.525,1.525,0,0,1,385.4,240.1Z"/><path class="w" d="M386.7,238l-34.3-21.4h0c-.1,0-.1-.1-.1-.2s.1-.1.2-.1l34.3,21.4h0c.1,0,.1.1.1.2s0,.1-.2.1Z"/><path class="w" d="M386.5,244.2l-34.3-21.4c-.1,0-.1-.1-.1-.2s.1-.1.2-.1l34.3,21.4.1.1c.1.1,0,.2-.2.2Z"/><path class="z" d="M358.2,223.1c0,.4-.3.5-.6.3a1.149,1.149,0,0,1-.6-1.1c0-.4.3-.5.6-.3A1.738,1.738,0,0,1,358.2,223.1Z"/><path class="z" d="M357.4,223.8l-2-1.3a2.234,2.234,0,0,1-1-1.8.727.727,0,0,1,1.2-.6l2,1.3a2.234,2.234,0,0,1,1,1.8.755.755,0,0,1-.4.7.367.367,0,0,1-.3.1A.764.764,0,0,1,357.4,223.8Zm1-.5a2.2,2.2,0,0,0-.9-1.6l-2-1.3a.661.661,0,0,0-.6-.1c-.2.1-.2.3-.2.5a2.2,2.2,0,0,0,.9,1.6l2,1.3a.661.661,0,0,0,.6.1c.1-.2.2-.3.2-.5Z"/><path class="w" d="M385.2,246.3c0,.4-.3.6-.7.3l-11.8-7.3a1.525,1.525,0,0,1-.7-1.2c0-.4.3-.6.7-.3l11.8,7.3A1.525,1.525,0,0,1,385.2,246.3Z"/><path class="w" d="M386.3,250.4,352,229h0c-.1,0-.1-.1-.1-.2s.1-.1.2-.1l34.3,21.4h0c.1,0,.1.1.1.2s0,.1-.2.1Z"/><path class="c" d="M357.2,230.1l-2-1.3a2.234,2.234,0,0,1-1-1.8.727.727,0,0,1,1.2-.6l2,1.3a2.234,2.234,0,0,1,1,1.8.755.755,0,0,1-.4.7c-.1,0-.2.1-.3.1C357.5,230.2,357.3,230.2,357.2,230.1Z"/><path class="o" d="M355.8,228c0,.4-.3.5-.6.3a1.149,1.149,0,0,1-.6-1.1c0-.4.3-.5.6-.3A1.149,1.149,0,0,1,355.8,228Z"/><path class="w" d="M385,252.5c0,.4-.3.6-.7.3l-7.7-4.8a1.525,1.525,0,0,1-.7-1.2c0-.4.3-.6.7-.3l7.7,4.8A1.693,1.693,0,0,1,385,252.5Z"/><path class="z" d="M357.8,235.5c0,.4-.3.5-.6.3a1.149,1.149,0,0,1-.6-1.1c0-.4.3-.5.6-.3A2.383,2.383,0,0,1,357.8,235.5Z"/><path class="z" d="M357,236.3l-2-1.3a2.234,2.234,0,0,1-1-1.8.727.727,0,0,1,1.2-.6l2,1.3a2.234,2.234,0,0,1,1,1.8.755.755,0,0,1-.4.7.367.367,0,0,1-.3.1A.764.764,0,0,1,357,236.3Zm.9-.6a1.922,1.922,0,0,0-.9-1.6l-2-1.3a.661.661,0,0,0-.6-.1c-.2.1-.2.3-.2.5a1.922,1.922,0,0,0,.9,1.6l2,1.3a.661.661,0,0,0,.6.1.365.365,0,0,0,.2-.5Z"/><path class="o" d="M410.4,274l-.2,10.5c0,.8-.6,1.1-1.3.7l-18-11.2a2.748,2.748,0,0,1-1.2-2.2l.3-10.5c0-.8.6-1.1,1.3-.7l17.9,11.2A3.048,3.048,0,0,1,410.4,274Z"/><path class="w" d="M401.1,274.2l.8.6c.1,0,.1.1.1.2a1.854,1.854,0,0,0,.2.7v.2l-.5.4v.2l.6,1.1c0,.1.1.1.2.1l.6-.2c.1,0,.1,0,.2.1a1.2,1.2,0,0,0,.5.5c0,.1.1.1.1.2l.1,1c0,.1,0,.1.1.2l.9.5h0a.1.1,0,0,0,.1-.1l.1-.9h0a.1.1,0,0,1,.1-.1c.1,0,.3.1.4.1s.1,0,.2.1l.6,1c0,.1.1.1.2,0l.6-.3c.1,0,.1-.1.1-.2l-.5-1.1v-.2c.1-.1.1-.2.2-.4h0s.1-.1.1,0l.8.4h0a.1.1,0,0,0,.1-.1v-1c0-.1,0-.1-.1-.2l-.8-.6c-.1,0-.1-.1-.1-.2a1.854,1.854,0,0,0-.2-.7v-.2l.5-.4v-.2l-.6-1.1c0-.1-.1-.1-.2-.1l-.6.2c-.1,0-.1,0-.2-.1a1.2,1.2,0,0,0-.5-.5.349.349,0,0,1-.1-.2l-.1-1c0-.1,0-.1-.1-.2l-.9-.5c-.1,0-.1,0-.1.1l-.1.9h0l-.1.1c-.1,0-.3-.1-.4-.1s-.1,0-.2-.1l-.6-1c0-.1-.1-.1-.2,0l-.6.3a.1.1,0,0,0-.1.1l.5,1.1v.2c-.1.1-.1.3-.2.4h0s-.1.1-.1,0l-.8-.4c-.1,0-.1,0-.1.1v1C401,274.1,401,274.1,401.1,274.2Zm3.2,3.1a3.143,3.143,0,0,1-1.4-2.6c0-.9.7-1.3,1.5-.8a3.143,3.143,0,0,1,1.4,2.6c0,.9-.7,1.3-1.5.8Z"/><path class="w" d="M399.7,269.9c0,.2-.2.3-.5.1l-5.8-3.6c-.3-.1-.4-.4-.5-.7,0-.2.2-.3.5-.1l5.8,3.6C399.5,269.4,399.7,269.6,399.7,269.9Z"/><path class="w" d="M399.6,271.7c0,.2-.2.3-.5.1l-5.8-3.6c-.3-.1-.4-.4-.5-.7,0-.2.2-.3.5-.1l5.8,3.6C399.4,271.2,399.6,271.4,399.6,271.7Z"/><path class="w" d="M399.6,273.6c0,.2-.2.3-.5.1l-5.8-3.6c-.3-.1-.4-.4-.5-.7,0-.2.2-.3.5-.1l5.8,3.6C399.4,273,399.5,273.3,399.6,273.6Z"/><path class="w" d="M399.5,275.4c0,.2-.2.3-.5.1l-5.8-3.6c-.3-.1-.4-.4-.5-.7,0-.2.2-.3.5-.1l5.8,3.6A.752.752,0,0,1,399.5,275.4Z"/><path class="o" d="M409.8,290l-.2,10.5c0,.8-.6,1.1-1.3.7l-18-11.2a2.748,2.748,0,0,1-1.2-2.2l.3-10.5c0-.8.6-1.1,1.3-.7l17.9,11.2A2.509,2.509,0,0,1,409.8,290Z"/><path class="w" d="M404,291.6l-3.1-5.1,6.9,4.3-3.2,1C404.4,292,404.1,291.9,404,291.6Z"/><path class="w" d="M400.9,286.5l3.1,6.2h0c.1.2.3.2.5.1l3.3-2-.2,5.6c0,.4-.3.6-.6.4l-5.9-3.6a1.606,1.606,0,0,1-.5-1.1Z"/><path class="w" d="M399.2,285.9c0,.2-.2.3-.5.1l-5.8-3.6c-.3-.1-.4-.4-.5-.7,0-.2.2-.3.5-.1l5.8,3.6A1.157,1.157,0,0,1,399.2,285.9Z"/><path class="w" d="M399.1,287.8c0,.2-.2.3-.5.1l-5.8-3.6c-.3-.1-.4-.4-.5-.7,0-.2.2-.3.5-.1l5.8,3.6A.752.752,0,0,1,399.1,287.8Z"/><path class="w" d="M399,289.6c0,.2-.2.3-.5.1l-5.8-3.6c-.3-.1-.4-.4-.5-.7,0-.2.2-.3.5-.1l5.8,3.6A.752.752,0,0,1,399,289.6Z"/><path class="w" d="M399,291.4c0,.2-.2.3-.5.1l-5.8-3.6c-.3-.1-.4-.4-.5-.7,0-.2.2-.3.5-.1l5.8,3.6A1.157,1.157,0,0,1,399,291.4Z"/><path class="o" d="M387,260.7l-37.1-23.1c-.4-.2-.7-.1-.7.4l-.8,25a1.709,1.709,0,0,0,.7,1.3l37.1,23.1c.4.2.7.1.7-.4l.8-25A1.709,1.709,0,0,0,387,260.7Z"/><path class="w" d="M384.8,268.3c0,.4-.3.5-.6.3l-2.3-1.4a1.149,1.149,0,0,1-.6-1.1c0-.4.3-.5.6-.3l2.3,1.4A1.356,1.356,0,0,1,384.8,268.3Z"/><path class="w" d="M384.6,263.6c0,.4-.3.6-.7.3l-13.1-8.2a1.525,1.525,0,0,1-.7-1.2c0-.4.3-.6.7-.3l13.1,8.2A1.306,1.306,0,0,1,384.6,263.6Z"/><path class="w" d="M384.6,272.4c0,.4-.3.5-.6.3l-2.3-1.4a1.149,1.149,0,0,1-.6-1.1c0-.4.3-.5.6-.3l2.3,1.4A1.382,1.382,0,0,1,384.6,272.4Z"/><path class="w" d="M384.5,276.6c0,.4-.3.5-.6.3l-2.3-1.4a1.382,1.382,0,0,1-.6-1.1c0-.4.3-.5.6-.3l2.3,1.4A1.382,1.382,0,0,1,384.5,276.6Z"/><path class="w" d="M384.4,280.8c0,.4-.3.5-.6.3l-2.3-1.4a1.149,1.149,0,0,1-.6-1.1c0-.4.3-.5.6-.3l2.3,1.4A1.684,1.684,0,0,1,384.4,280.8Z"/><path class="w" d="M379.6,278.7,351.1,261h0c-.1,0-.1-.1,0-.2,0-.1.1-.1.2,0l28.5,17.7c.1,0,.1.1,0,.2Z"/><path class="w" d="M379.7,274.5l-28.5-17.7c-.1,0-.1-.1,0-.2,0-.1.1-.1.2,0l28.5,17.7c.1,0,.1.1,0,.2Z"/><path class="w" d="M379.8,270.3l-28.5-17.7h0c-.1,0-.1-.1,0-.2h0c0-.1.1-.1.2,0L380,270.1c.1,0,.1.1,0,.2,0,.1-.1.1-.2,0Z"/><path class="w" d="M380,266.2l-28.5-17.7h0c-.1,0-.1-.1,0-.2h0c0-.1.1-.1.2,0L380.2,266c.1,0,.1.1,0,.2Z"/><path class="c" d="M351.1,260.8l.4-11.6,2.7,2.3,2.5,3.9,2.7,2.5,6.6,4.2,2,2.8,3.3,2.1,2,2.8,3.2,2,2.7,2.2-.1,4.1Z"/><path class="b" d="M351.1,260.8l.3-9.4,1.6,1,2.4,3.1,1.8,2.7,3.4,2.1,2,2.8,3.3,2.1,3.3,2.9,3.3,2,3.1,2.7,3.6,2.3-.1,3Z"/><path class="ab" d="M351.1,260.8l.3-9.4,1.6,1,2.4,3.1,1.8,2.7,3.4,2.1,2,2.8,3.3,2.1,3.3,2.9,3.3,2,3.1,2.7,3.6,2.3-.1,3Z"/><path class="o" d="M347.9,207.8,346.1,261c0,.8-.6,1.1-1.3.7L320,246.2a2.748,2.748,0,0,1-1.2-2.2l1.8-53.2c0-.8.6-1.1,1.3-.7l24.8,15.4A3.274,3.274,0,0,1,347.9,207.8Z"/><path class="z" d="M337.6,213.1c0,.1.1.1,0,0a.31.31,0,0,1,.1.2v.5h-.1l-1.2-.8.8,3.4v.2h-.1l-.3-.2a.1.1,0,0,1-.1-.1v-.1l-.8-3.4v-.7h.1Z"/><path class="z" d="M333.4,211.4c0-.1.1-.3.2-.3a.367.367,0,0,1,.3-.1c.2,0,.3.1.5.2a1.756,1.756,0,0,1,.5.4c.1.2.2.3.3.5s.1.4.2.6v1.6a.749.749,0,0,1-.1.5c0,.1-.1.3-.2.3a.367.367,0,0,1-.3.1c-.2,0-.3-.1-.5-.2a1.756,1.756,0,0,1-.5-.4c-.1-.2-.2-.3-.3-.5s-.1-.4-.2-.6c0-.2-.1-.4-.1-.6V212C333.3,211.7,333.3,211.5,333.4,211.4Zm1.4,2.4V213a1.7,1.7,0,0,0-.1-.7,1.756,1.756,0,0,0-.4-.5c-.2-.1-.3-.1-.4,0a.764.764,0,0,0-.2.5v.8a1.7,1.7,0,0,0,.1.7,1.756,1.756,0,0,0,.4.5c.2.1.3.1.4,0a.365.365,0,0,0,.2-.5Z"/><path class="z" d="M332.6,210.1c.1.1.1.2.2.3,0,.1.1.2.1.3v.9c0,.1,0,.1-.1.2a.1.1,0,0,1-.1.1h-.2a.367.367,0,0,1-.3-.1c-.1-.1-.2-.1-.2-.2-.1-.1-.1-.2-.2-.3,0-.1-.1-.2-.1-.3v-.9c0-.1,0-.1.1-.2a.1.1,0,0,1,.1-.1h.2a.367.367,0,0,1,.3.1A.215.215,0,0,1,332.6,210.1Zm0,3.6h0c0,.1-.1.1,0,0h-.3a.1.1,0,0,1-.1-.1.1.1,0,0,0-.1-.1l-1.8-4.7h0v-.1h.1l.2.1.1.1a.1.1,0,0,0,.1.1Zm-.4-2.5c0,.1.1.1.2.2h.2l.1-.1v-.7c0-.1-.1-.1-.2-.2h-.2l-.1.1v.5C332.1,211,332.2,211.1,332.2,211.2Zm-1.3-.3c.1.1.1.2.2.3,0,.1.1.2.1.3v.9c0,.1,0,.1-.1.2a.1.1,0,0,1-.1.1c-.1,0-.1.1-.2,0-.1,0-.2-.1-.3-.1-.1-.1-.2-.1-.2-.2-.1-.1-.1-.2-.2-.3,0-.1-.1-.2-.1-.3v-.9c0-.1,0-.1.1-.2a.1.1,0,0,1,.1-.1h.2a.367.367,0,0,1,.3.1Zm-.5.8v.2c0,.1.1.1.2.2h.2l.1-.1v-.7c0-.1-.1-.1-.2-.2h-.2l-.1.1v.5Z"/><path class="w" d="M334.2,200.9l-.1,3a11.234,11.234,0,0,1,3.6,3.9,15.815,15.815,0,0,1,2.1,5.6,13.2,13.2,0,0,1,.2,2.8,6.723,6.723,0,0,1-.4,2.4l2.1,2.2a12.574,12.574,0,0,0,.5-3.3,24.331,24.331,0,0,0-.3-3.8,22.612,22.612,0,0,0-2.9-7.6A14.092,14.092,0,0,0,334.2,200.9Z"/><path class="c" d="M325.5,207.1a24.331,24.331,0,0,0,.3,3.8,22.612,22.612,0,0,0,2.9,7.6,16.543,16.543,0,0,0,4.9,5.3c1.9,1.1,3.5,1.4,5,.9s2.6-1.8,3.3-3.8l-2.1-2.2a3.991,3.991,0,0,1-2.4,2.8,4.059,4.059,0,0,1-3.7-.7,11.234,11.234,0,0,1-3.6-3.9,15.815,15.815,0,0,1-2.1-5.6,13.2,13.2,0,0,1-.2-2.8,6.723,6.723,0,0,1,.4-2.4,3.991,3.991,0,0,1,2.4-2.8,4.114,4.114,0,0,1,3.7.7l.1-3a5.9,5.9,0,0,0-5-.9c-1.5.5-2.6,1.8-3.3,3.8A7.026,7.026,0,0,0,325.5,207.1Z"/><path class="z" d="M334.8,242.6a4.331,4.331,0,0,0-.1-.5.6.6,0,0,1,.1-.4.215.215,0,0,1,.2-.2c.1,0,.2-.1.3-.1a.367.367,0,0,1,.3.1l-.5-1.2a.1.1,0,0,0-.1-.1v-.6h.1l1.7,1.1.1.1v.6h-.1l-1.1-.7.5,1.1.1.1v.6h-.1l-.3-.2c-.1-.1-.2-.1-.4-.1-.1,0-.2.1-.2.3a.9.9,0,0,0,.1.5c.1.1.2.3.4.4a.367.367,0,0,0,.3.1h.3a.1.1,0,0,1,.1-.1l.1-.1h.1l.3.2.1.1v.1a.367.367,0,0,1-.1.3.215.215,0,0,1-.2.2h-.3c-.2,0-.3-.1-.5-.2a1.38,1.38,0,0,1-.4-.3c-.1-.1-.2-.3-.3-.4C334.9,243,334.8,242.8,334.8,242.6Z"/><path class="z" d="M333.2,242.4l-.3-.3v-.8a1.381,1.381,0,0,0,.3.4c.2.1.3.1.4,0,.1-.2.2-.3.2-.5v-.9a1.7,1.7,0,0,0-.1-.7,1,1,0,0,0-.4-.5q-.3-.15-.3,0v-.8c.1,0,.2.1.3.2a1.756,1.756,0,0,1,.5.4c.1.2.2.3.3.5s.1.4.2.6v1.5a.749.749,0,0,1-.1.5c0,.1-.1.3-.2.3a.367.367,0,0,1-.3.1A.33.33,0,0,1,333.2,242.4Z"/><path class="z" d="M332.9,241.3v.8l-.1-.1c-.1-.2-.2-.3-.3-.5s-.1-.4-.2-.6a1.268,1.268,0,0,0-.1-.6v-.9a.749.749,0,0,1,.1-.5c0-.1.1-.2.2-.3a.367.367,0,0,1,.3-.1h.1v.8h0c-.1.2-.2.3-.2.5v.9a3.935,3.935,0,0,0,.2.6Z"/><path class="z" d="M330.7,237.4c0,.1,0,.1-.1.2v.9c0,.1.1.2.1.3s.1.2.2.3l.2.2a.367.367,0,0,0,.3.1c.1,0,.3-.1.3-.2s0-.1.1-.2v-.9c0-.1-.1-.2-.1-.3s-.1-.2-.2-.3l-.2-.2a.367.367,0,0,0-.3-.1h-.2C330.8,237.3,330.8,237.3,330.7,237.4Zm.4.9v-.4c0-.1,0-.1.1-.1h.2c.1,0,.1.1.2.2v.7c0,.1,0,.1-.1.2h-.2c-.1,0-.1-.1-.2-.2v-.4Z"/><path class="z" d="M330.1,238.9c0-.1-.1-.2-.1-.3s-.1-.2-.2-.3l-.2-.2a.367.367,0,0,0-.3-.1h-.2a.1.1,0,0,0-.1.1c0,.1,0,.1-.1.2v.9c0,.1.1.2.1.3s.1.2.2.3l.2.2a.31.31,0,0,0,.2.1h.2a.1.1,0,0,0,.1-.1c0-.1,0-.1.1-.2v-.6A.367.367,0,0,0,330.1,238.9Zm-.4.5h0c0,.2,0,.2-.1.2h-.2c-.1,0-.1-.1-.2-.2v-.7c0-.1,0-.1.1-.1h.2c.1,0,.1.1.2.2v.6Z"/><path class="z" d="M331.5,241.1h0c0,.1-.1.1,0,0l-.3-.1-.1-.1a.1.1,0,0,0-.1-.1l-1.8-4.7h0V236h.1l.2.1a.1.1,0,0,1,.1.1.1.1,0,0,0,.1.1l1.8,4.8Z"/><path class="b" d="M333.3,228.4h0l-.1,3h0Z"/><path class="c" d="M326.9,238.8l-2.1-.4a23.4,23.4,0,0,1-.3-3.8,12.574,12.574,0,0,1,.5-3.3,5.36,5.36,0,0,1,3.3-3.8,5.62,5.62,0,0,1,5,.9l-.1,3a4.078,4.078,0,0,0-3.7-.6,3.991,3.991,0,0,0-2.4,2.8,10.038,10.038,0,0,0-.4,2.4C326.7,236.9,326.8,237.8,326.9,238.8Z"/><path class="b" d="M332.6,248.3v3h-.1Z"/><path class="w" d="M333.3,228.5l-.1,3a11.234,11.234,0,0,1,3.6,3.9,15.815,15.815,0,0,1,2.1,5.6,13.2,13.2,0,0,1,.2,2.8,6.723,6.723,0,0,1-.4,2.4,4.194,4.194,0,0,1-2.4,2.8,4.3,4.3,0,0,1-3.7-.6l-.1,3a5.9,5.9,0,0,0,5,.9c1.5-.5,2.6-1.8,3.3-3.8a12.574,12.574,0,0,0,.5-3.3,24.331,24.331,0,0,0-.3-3.8,22.612,22.612,0,0,0-2.9-7.6A13.645,13.645,0,0,0,333.3,228.5Z"/><path class="w" d="M324.8,238.5a22.612,22.612,0,0,0,2.9,7.6,16.543,16.543,0,0,0,4.9,5.3l.1-3a11.234,11.234,0,0,1-3.6-3.9,15.815,15.815,0,0,1-2.1-5.6Z"/><path class="o" d="M318.4,189.5l-1.8,53.2c0,.8-.6,1.1-1.3.7L290.5,228a2.748,2.748,0,0,1-1.2-2.2l1.8-53.2c0-.8.6-1.1,1.3-.7l24.8,15.4A2.509,2.509,0,0,1,318.4,189.5Z"/><path class="w" d="M315.5,195.1l-3.9-2.4c-.1,0-.1-.1-.1-.2l.2-4.6a.349.349,0,0,1,.1-.2h.2l3.9,2.5c.1,0,.1.1.1.2l-.2,4.6a.349.349,0,0,1-.1.2h-.1Zm-3.4-6.8-.1,4.1,3.5,2.1.1-4Z"/><path class="c" d="M311.1,187.3l2,5.1c.1.1.2.3.3.3h.1a.367.367,0,0,0,.3-.1l1-.9a.375.375,0,0,0,0-.6.494.494,0,0,0-.7-.1l-.5.4-1.7-4.4c-.1-.2-.4-.4-.6-.3A.846.846,0,0,0,311.1,187.3Z"/><path class="w" d="M309.1,188.5c0,.4-.3.5-.6.3l-14.5-9a1.255,1.255,0,0,1-.6-1.1c0-.4.3-.5.6-.3l14.5,9A1.684,1.684,0,0,1,309.1,188.5Z"/><path class="w" d="M315.3,202.1l-3.9-2.5c-.1,0-.1-.1-.1-.2l.2-4.6a.349.349,0,0,1,.1-.2h.2l3.9,2.4c.1,0,.1.1.1.2l-.2,4.6a.349.349,0,0,1-.1.2h-.1A.1.1,0,0,1,315.3,202.1Zm-3.4-6.9-.1,4.1,3.5,2.2.1-4.1Z"/><path class="c" d="M311.2,193.6a.446.446,0,0,0-.3.6l2,5.1q.15.3.3.3h.1a.367.367,0,0,0,.3-.1l1-.9h.1a.495.495,0,0,0-.7-.7l-.5.4-1.7-4.4a.486.486,0,0,0-.6-.3Z"/><path class="w" d="M308.8,195.4c0,.4-.3.5-.6.3l-14.5-9a1.255,1.255,0,0,1-.6-1.1c0-.4.3-.5.6-.3l14.5,9A1.382,1.382,0,0,1,308.8,195.4Z"/><path class="w" d="M315.1,209.1l-3.9-2.4c-.1-.1-.1-.1-.1-.2l.2-4.6a.349.349,0,0,1,.1-.2h.2l3.9,2.4c.1.1.1.1.1.2l-.2,4.6a.349.349,0,0,1-.1.2h-.2Zm-3.5-6.9-.1,4.1,3.5,2.2.1-4.1Z"/><path class="c" d="M310.7,201.2l2,5.1q.15.3.3.3h.1a.367.367,0,0,0,.3-.1l1-.9a.375.375,0,0,0,0-.6.494.494,0,0,0-.7-.1l-.5.4-1.7-4.4c-.1-.2-.4-.4-.6-.3A.481.481,0,0,0,310.7,201.2Z"/><path class="w" d="M308.6,202.4c0,.4-.3.5-.6.3l-14.5-9a1.255,1.255,0,0,1-.6-1.1c0-.4.3-.5.6-.3l14.5,9A1.149,1.149,0,0,1,308.6,202.4Z"/><path class="w" d="M313.1,211.7l2.4,1.4-.9,26.7-2.3-1.4Z"/><path class="w" d="M309,209.1l2.3,1.4-.8,26.8-2.4-1.5Z"/><path class="w" d="M304.9,206.5l2.3,1.5-.9,26.7-2.3-1.5Z"/><path class="w" d="M300.7,203.9l2.4,1.5-.9,26.7-2.3-1.5Z"/><path class="w" d="M296.6,201.4l2.3,1.4-.8,26.7-2.4-1.4Z"/><path class="w" d="M292.5,198.8l2.3,1.5-.9,26.7-2.3-1.5Z"/><path class="b" d="M294.4,212.4l-2.3-1.4.4-12.2,2.3,1.5Z"/><path class="c" d="M314.8,233.9l-2.3-1.5.4-14.9,2.4,1.5Z"/><path class="v" d="M314.6,239.8l-2.3-1.4.2-6,2.3,1.5Z"/><path class="c" d="M310.9,225.1l-2.4-1.4.2-5.4,2.3,1.5Z"/><path class="v" d="M310.5,237.3l-2.4-1.5.4-12.1,2.4,1.4Z"/><path class="c" d="M307,214.9l-2.4-1.5.2-4.6,2.3,1.4Z"/><path class="v" d="M306.3,234.7l-2.3-1.5.6-19.8,2.4,1.5Z"/><path class="c" d="M302.5,223l-2.3-1.4.3-11.8,2.4,1.4Z"/><path class="v" d="M302.2,232.1l-2.3-1.5.3-9,2.3,1.4Z"/><path class="c" d="M298.4,218.4l-2.3-1.4.2-5,2.3,1.5Z"/><path class="v" d="M298.1,229.5l-2.4-1.4.4-11.1,2.3,1.4Z"/><path class="v" d="M293.9,227l-2.3-1.5.5-14.5,2.3,1.4Z"/><path class="b" d="M314.6,239.8l-2.3-1.4.2-6,2.3,1.5Z"/><path class="ab" d="M314.6,239.8l-2.3-1.4.2-6,2.3,1.5Z"/><path class="b" d="M310.5,237.3l-2.4-1.5.4-12.1,2.4,1.4Z"/><path class="ab" d="M310.5,237.3l-2.4-1.5.4-12.1,2.4,1.4Z"/><path class="b" d="M306.3,234.7l-2.3-1.5.6-19.8,2.4,1.5Z"/><path class="ab" d="M306.3,234.7l-2.3-1.5.6-19.8,2.4,1.5Z"/><path class="b" d="M302.2,232.1l-2.3-1.5.3-9,2.3,1.4Z"/><path class="ab" d="M302.2,232.1l-2.3-1.5.3-9,2.3,1.4Z"/><path class="b" d="M298.1,229.5l-2.4-1.4.4-11.1,2.3,1.4Z"/><path class="ab" d="M298.1,229.5l-2.4-1.4.4-11.1,2.3,1.4Z"/><path class="b" d="M293.9,227l-2.3-1.5.5-14.5,2.3,1.4Z"/><path class="ac" d="M293.9,227l-2.3-1.5.5-14.5,2.3,1.4Z"/><ellipse class="w" cx="43.3" cy="25" rx="43.3" ry="25" transform="translate(139.9 317.4)"/><path class="b" d="M230.1,130.8c0,1-.8,1.4-1.7.9l-49.9-29a3.669,3.669,0,0,1-1.7-2.8c0-1,.8-1.4,1.7-.9l49.9,29A3.669,3.669,0,0,1,230.1,130.8Z"/><path class="ad" d="M230.1,130.8c0,1-.8,1.4-1.7.9l-49.9-29a3.669,3.669,0,0,1-1.7-2.8c0-1,.8-1.4,1.7-.9l49.9,29A3.669,3.669,0,0,1,230.1,130.8Z"/><path class="ae" d="M214.7,123.7l13.8,8c.9.5,1.7.2,1.7-.9a3.512,3.512,0,0,0-1.7-2.8l-13.8-7.9Z"/><path class="af" d="M219.8,123l-5.2-3v3.7l5.3,3a4.013,4.013,0,0,0,.3-1.5A5.7,5.7,0,0,0,219.8,123Z"/><path class="b" d="M218.7,124.2c0,2.6-1.8,3.6-4,2.3a8.7,8.7,0,0,1-4-7c0-2.6,1.8-3.6,4-2.3A9.412,9.412,0,0,1,218.7,124.2Z"/><path class="ag" d="M218.7,124.2c0,2.6-1.8,3.6-4,2.3a8.7,8.7,0,0,1-4-7c0-2.6,1.8-3.6,4-2.3A9.412,9.412,0,0,1,218.7,124.2Z"/><path class="b" d="M230.1,144.8c0,1-.8,1.4-1.7.9l-49.9-29a3.669,3.669,0,0,1-1.7-2.8c0-1,.8-1.4,1.7-.9l49.9,29A3.512,3.512,0,0,1,230.1,144.8Z"/><path class="ad" d="M230.1,144.8c0,1-.8,1.4-1.7.9l-49.9-29a3.669,3.669,0,0,1-1.7-2.8c0-1,.8-1.4,1.7-.9l49.9,29A3.512,3.512,0,0,1,230.1,144.8Z"/><path class="ae" d="M191.7,124.4l36.8,21.3c.9.5,1.7.2,1.7-.9a3.512,3.512,0,0,0-1.7-2.8l-36.8-21.3Z"/><path class="af" d="M196.7,123.6l-5-2.9v3.7l5.1,2.9a4.146,4.146,0,0,0,.3-1.6A7.789,7.789,0,0,0,196.7,123.6Z"/><path class="b" d="M195.6,124.7c0,2.6-1.8,3.6-4,2.3a8.7,8.7,0,0,1-4-7c0-2.6,1.8-3.6,4-2.3A9.412,9.412,0,0,1,195.6,124.7Z"/><path class="ag" d="M195.6,124.7c0,2.6-1.8,3.6-4,2.3a8.7,8.7,0,0,1-4-7c0-2.6,1.8-3.6,4-2.3A9.412,9.412,0,0,1,195.6,124.7Z"/><path class="b" d="M230.1,158.8c0,1-.8,1.4-1.7.9l-49.9-29a3.669,3.669,0,0,1-1.7-2.8c0-1,.8-1.4,1.7-.9l49.9,29A3.512,3.512,0,0,1,230.1,158.8Z"/><path class="ad" d="M230.1,158.8c0,1-.8,1.4-1.7.9l-49.9-29a3.669,3.669,0,0,1-1.7-2.8c0-1,.8-1.4,1.7-.9l49.9,29A3.512,3.512,0,0,1,230.1,158.8Z"/><path class="ae" d="M214.7,151.7l13.8,8c.9.5,1.7.2,1.7-.9a3.512,3.512,0,0,0-1.7-2.8l-13.8-8Z"/><path class="af" d="M219.8,151l-5.2-3v3.7l5.3,3a4.013,4.013,0,0,0,.3-1.5A5.382,5.382,0,0,0,219.8,151Z"/><path class="b" d="M218.7,152.2c0,2.6-1.8,3.6-4,2.3a8.7,8.7,0,0,1-4-7c0-2.6,1.8-3.6,4-2.3A9.075,9.075,0,0,1,218.7,152.2Z"/><path class="ag" d="M218.7,152.2c0,2.6-1.8,3.6-4,2.3a8.7,8.7,0,0,1-4-7c0-2.6,1.8-3.6,4-2.3A9.075,9.075,0,0,1,218.7,152.2Z"/><path class="w" d="M240.5,133.2l-.8.4a2.57,2.57,0,0,0-1.2,2.1V249.1a2.717,2.717,0,0,0,1.2,2.1l53.7,31a2.548,2.548,0,0,0,2.4,0l.8-.4a2.57,2.57,0,0,0,1.2-2.1V166.2a2.57,2.57,0,0,0-1.2-2.1L243,133.2A2.754,2.754,0,0,0,240.5,133.2Z"/><path class="o" d="M238.6,136.2h0a4.331,4.331,0,0,1,.1-.5,1.129,1.129,0,0,1,1.5-.4l52.7,30.5a3.449,3.449,0,0,1,1.7,2.9h0V281c0,1.1-.7,1.5-1.7,1l-52.7-30.5a2.726,2.726,0,0,1-1.7-2.3Z"/><path class="ah" d="M238.6,134.1V249.2c0,1.1.7,1.7,1.7,2.3L293,282c.9.5,1.7.1,1.7-1V166.5Z"/><path class="w" d="M239.7,135.5a.367.367,0,0,1,.3.1l52.7,30.5a2.851,2.851,0,0,1,1.4,2.5V281c0,.3-.1.7-.5.7a.764.764,0,0,1-.5-.2l-52.7-30.4c-1-.6-1.4-1.2-1.4-1.9v-113h0a.684.684,0,0,1,.7-.7h0m0-.5h0a1.11,1.11,0,0,0-1.1,1.1v113c0,1.1.7,1.7,1.7,2.3L293,281.9a1.854,1.854,0,0,0,.7.2q.9,0,.9-1.2V168.5a3.242,3.242,0,0,0-1.7-2.9l-52.7-30.5a4.331,4.331,0,0,0-.5-.1Z"/><path class="a" d="M239.8,133.6l.8-.4a2.548,2.548,0,0,1,2.4,0l53.6,30.9a2.581,2.581,0,0,1,.9.9l-3.3,1.9h0a3.447,3.447,0,0,0-1.2-1.2l-52.7-30.4a.9.9,0,0,0-.5-.1,1.11,1.11,0,0,0-1.1,1.1v-.5A2.322,2.322,0,0,1,239.8,133.6Z"/><g class="ai"><path d="M290.8,186.3c0,.6-.5.8-1,.5L271,176a2.062,2.062,0,0,1-1-1.7c0-.6.5-.8,1-.5l18.8,10.8A2.533,2.533,0,0,1,290.8,186.3Z"/></g><g class="ai"><path d="M288.7,194.1c0,.6-.4.8-1,.5l-11-6.4a2.062,2.062,0,0,1-1-1.7c0-.6.4-.8,1-.5l11,6.4A2.7,2.7,0,0,1,288.7,194.1Z"/></g><g class="ai"><path d="M290.9,178.4c0,.6-.5.8-1,.5l-11-6.4a2.062,2.062,0,0,1-1-1.7c0-.6.5-.8,1-.5l11,6.4A2.7,2.7,0,0,1,290.9,178.4Z"/></g><path class="w" d="M290.4,191l-49.1-28.3a.367.367,0,0,1-.1-.3h0a.367.367,0,0,1,.3-.1l49.1,28.3a.367.367,0,0,1,.1.3c0,.1-.1.1-.2.1C290.5,191.1,290.5,191.1,290.4,191Z"/><path class="w" d="M290.4,199.8l-49.1-28.3a.367.367,0,0,1-.1-.3h0a.367.367,0,0,1,.3-.1l49.1,28.3c.1,0,.1.1.1.2a.215.215,0,0,1-.2.2Z"/><path class="z" d="M249.7,171.6a.552.552,0,0,1-.9.5,2.143,2.143,0,0,1-.9-1.5c0-.5.4-.7.9-.5A2.143,2.143,0,0,1,249.7,171.6Z"/><path class="z" d="M248.6,172.7l-2.9-1.7a3.007,3.007,0,0,1-1.5-2.4,1.05,1.05,0,0,1,.5-.9,1.287,1.287,0,0,1,1.2.1l2.9,1.7a3.007,3.007,0,0,1,1.5,2.4,1.05,1.05,0,0,1-.5.9.6.6,0,0,1-.4.1A2.354,2.354,0,0,1,248.6,172.7Zm.1-3.1-2.9-1.7a.94.94,0,0,0-.9-.1.908.908,0,0,0-.3.7,3.158,3.158,0,0,0,1.3,2.2l2.9,1.7a.94.94,0,0,0,.9.1.908.908,0,0,0,.3-.7A3.158,3.158,0,0,0,248.7,169.6Z"/><g class="ai"><path d="M288.7,202.8c0,.6-.4.8-1,.5l-16.9-9.7a2.062,2.062,0,0,1-1-1.7c0-.6.4-.8,1-.5l16.9,9.7A2.989,2.989,0,0,1,288.7,202.8Z"/></g><path class="w" d="M290.4,208.5l-49.1-28.3a.367.367,0,0,1-.1-.3h0a.367.367,0,0,1,.3-.1l49.1,28.3a.367.367,0,0,1,.1.3c0,.1-.1.1-.2.1Z"/><path class="c" d="M248.6,181.4l-2.9-1.7a3.007,3.007,0,0,1-1.5-2.4,1.05,1.05,0,0,1,.5-.9,1.287,1.287,0,0,1,1.2.1l2.9,1.7a3.033,3.033,0,0,1,1.5,2.5,1.05,1.05,0,0,1-.5.9.6.6,0,0,1-.4.1C249.1,181.6,248.9,181.5,248.6,181.4Z"/><path class="o" d="M246.6,178.5a.552.552,0,0,1-.9.5,2.143,2.143,0,0,1-.9-1.5c0-.5.4-.7.9-.5A1.859,1.859,0,0,1,246.6,178.5Z"/><path class="w" d="M290.4,182.3,241.3,154a.367.367,0,0,1-.1-.3h0a.367.367,0,0,1,.3-.1l49.1,28.3c.1,0,.1.1.1.2a.215.215,0,0,1-.2.2C290.5,182.4,290.5,182.3,290.4,182.3Z"/><path class="z" d="M249.7,154.1a.552.552,0,0,1-.9.5,2.143,2.143,0,0,1-.9-1.5c0-.5.4-.7.9-.5A2.371,2.371,0,0,1,249.7,154.1Z"/><path class="z" d="M248.6,155.2l-2.9-1.7a3.007,3.007,0,0,1-1.5-2.4,1.05,1.05,0,0,1,.5-.9,1.287,1.287,0,0,1,1.2.1l2.9,1.7a3.007,3.007,0,0,1,1.5,2.4,1.05,1.05,0,0,1-.5.9.6.6,0,0,1-.4.1A1.2,1.2,0,0,1,248.6,155.2Zm.1-3-2.9-1.7a.94.94,0,0,0-.9-.1.908.908,0,0,0-.3.7,3.158,3.158,0,0,0,1.3,2.2l2.9,1.7a.94.94,0,0,0,.9.1.908.908,0,0,0,.3-.7A3.158,3.158,0,0,0,248.7,152.2Z"/><path class="c" d="M248.6,163.9l-2.9-1.7a3.007,3.007,0,0,1-1.5-2.4,1.05,1.05,0,0,1,.5-.9,1.287,1.287,0,0,1,1.2.1l2.9,1.7a3.033,3.033,0,0,1,1.5,2.5,1.05,1.05,0,0,1-.5.9.6.6,0,0,1-.4.1A1.33,1.33,0,0,1,248.6,163.9Z"/><path class="o" d="M246.6,161a.552.552,0,0,1-.9.5,2.143,2.143,0,0,1-.9-1.5c0-.5.4-.7.9-.5A2.016,2.016,0,0,1,246.6,161Z"/><path class="c" d="M248.6,198.8l-2.9-1.7a3.007,3.007,0,0,1-1.5-2.4,1.05,1.05,0,0,1,.5-.9,1.287,1.287,0,0,1,1.2.1l2.9,1.7a3.033,3.033,0,0,1,1.5,2.5,1.05,1.05,0,0,1-.5.9.6.6,0,0,1-.4.1C249.1,199,248.9,198.9,248.6,198.8Z"/><path class="o" d="M246.6,195.9a.552.552,0,0,1-.9.5,2.143,2.143,0,0,1-.9-1.5.552.552,0,0,1,.9-.5A2.016,2.016,0,0,1,246.6,195.9Z"/><path class="c" d="M248.6,207.5l-2.9-1.7a3.033,3.033,0,0,1-1.5-2.5,1.05,1.05,0,0,1,.5-.9,1.287,1.287,0,0,1,1.2.1l2.9,1.7a3.033,3.033,0,0,1,1.5,2.5,1.05,1.05,0,0,1-.5.9.6.6,0,0,1-.4.1A1.2,1.2,0,0,1,248.6,207.5Z"/><path class="o" d="M246.6,204.6a.552.552,0,0,1-.9.5,2.143,2.143,0,0,1-.9-1.5c0-.5.4-.7.9-.5A2.016,2.016,0,0,1,246.6,204.6Z"/><g class="ai"><path d="M288.7,211.6c0,.6-.4.8-1,.5l-11-6.4a2.062,2.062,0,0,1-1-1.7c0-.6.4-.8,1-.5l11,6.4A2.464,2.464,0,0,1,288.7,211.6Z"/></g><path class="w" d="M290.4,217.2l-49.1-28.3a.367.367,0,0,1-.1-.3h0a.367.367,0,0,1,.3-.1l49.1,28.3a.367.367,0,0,1,.1.3c0,.1-.1.1-.2.1Z"/><path class="z" d="M249.7,189a.552.552,0,0,1-.9.5,2.143,2.143,0,0,1-.9-1.5.552.552,0,0,1,.9-.5A2.016,2.016,0,0,1,249.7,189Z"/><path class="z" d="M248.7,190.1l-2.9-1.7a3.007,3.007,0,0,1-1.5-2.4,1.05,1.05,0,0,1,.5-.9,1.287,1.287,0,0,1,1.2.1l2.9,1.7a3.033,3.033,0,0,1,1.5,2.5,1.05,1.05,0,0,1-.5.9.6.6,0,0,1-.4.1A3.387,3.387,0,0,1,248.7,190.1Zm1.3-.9a3.158,3.158,0,0,0-1.3-2.2l-2.9-1.7a.94.94,0,0,0-.9-.1.908.908,0,0,0-.3.7,3.158,3.158,0,0,0,1.3,2.2l2.9,1.7a.94.94,0,0,0,.9.1.779.779,0,0,0,.3-.7Z"/><g class="ai"><path d="M288.7,220.3c0,.6-.4.8-1,.5l-15-8.6a2.062,2.062,0,0,1-1-1.7c0-.6.5-.8,1-.5l15,8.6A2.7,2.7,0,0,1,288.7,220.3Z"/></g><path class="w" d="M290.4,225.9l-49.1-28.4a.367.367,0,0,1-.1-.3h0a.367.367,0,0,1,.3-.1l49.1,28.4a.367.367,0,0,1,.1.3c0,.1-.1.1-.2.1Z"/><g class="ai"><path d="M288.7,229c0,.6-.4.8-1,.5l-11-6.3a2.062,2.062,0,0,1-1-1.7c0-.6.4-.8,1-.5l11,6.4A2.251,2.251,0,0,1,288.7,229Z"/></g><g class="ai"><path d="M290.6,239.9c0,.6-.4.8-1,.5l-18.7-10.8a2.062,2.062,0,0,1-1-1.7c0-.6.4-.8,1-.5l18.7,10.8A2.7,2.7,0,0,1,290.6,239.9Z"/></g><g class="ai"><path d="M288.7,246.5c0,.6-.4.8-1,.5L267,235a2.062,2.062,0,0,1-1-1.7c0-.6.5-.8,1-.5l20.7,11.9A3.247,3.247,0,0,1,288.7,246.5Z"/></g><path class="w" d="M290.4,243.4,241.3,215a.367.367,0,0,1-.1-.3h0a.367.367,0,0,1,.3-.1l49.1,28.3c.1,0,.1.1.1.2a.215.215,0,0,1-.2.2C290.5,243.4,290.5,243.4,290.4,243.4Z"/><path class="w" d="M290.4,252.1l-49.1-28.3a.224.224,0,0,1,.2-.4l49.1,28.3c.1,0,.1.1.1.2a.215.215,0,0,1-.2.2Z"/><g class="ai"><path d="M288.7,255.2c0,.6-.4.8-1,.5L270.8,246a2.062,2.062,0,0,1-1-1.7c0-.6.4-.8,1-.5l16.9,9.7A2.7,2.7,0,0,1,288.7,255.2Z"/></g><path class="w" d="M256.4,227.8c0,.6-.5.8-1,.5l-10-5.8a2.062,2.062,0,0,1-1-1.7c0-.6.4-.8,1-.5l10,5.8A2.333,2.333,0,0,1,256.4,227.8Z"/><path class="b" d="M242.7,220l.5.9v.5h0l-.8-1.4a.1.1,0,0,0-.1-.1v-.4h.1l.8-.4h0v.5h0Z"/><path class="w" d="M256.4,236.5c0,.6-.5.8-1,.5l-10-5.8a2.062,2.062,0,0,1-1-1.7c0-.6.4-.8,1-.5l10,5.8A2.333,2.333,0,0,1,256.4,236.5Z"/><path class="b" d="M242.7,228.7l.5.9v.5h0l-.8-1.4a.1.1,0,0,0-.1-.1v-.3h.1l.8-.4h0v.5h0Z"/><path class="w" d="M287.5,272.3l-13.1-7.6a2.265,2.265,0,0,1-1.1-1.9v-4.2a.952.952,0,0,1,.2-.7.817.817,0,0,1,1.2-.1l13.1,7.6a2.265,2.265,0,0,1,1.1,1.9v4.2a1.086,1.086,0,0,1-.4.9c-.1.1-.2.1-.4.1C287.9,272.4,287.7,272.4,287.5,272.3ZM274.1,258H274a.764.764,0,0,0-.2.5v4.2a1.859,1.859,0,0,0,.9,1.5l13.1,7.6a.749.749,0,0,0,.5.1.764.764,0,0,0,.2-.5v-4.2a1.859,1.859,0,0,0-.9-1.5l-13.1-7.6c-.2,0-.3-.1-.4-.1Z"/><path class="w" d="M283.8,266.7l.3.2.1.1v.3a.1.1,0,0,0,.1.1l.1.1h.2v-.7m.1-.1c0-.1,0-.1-.1-.1v-.2l-.1-.1-.1-.1h-.2v.3h-.1l-.3-.2h0v-.1a.367.367,0,0,1,.1-.3c0-.1.1-.1.1-.2.1,0,.1-.1.2-.1a.367.367,0,0,1,.3.1c.1.1.2.1.3.2s.2.2.2.3c.1.1.1.2.1.4.1.1.1.2.1.4v.6a.367.367,0,0,1-.1.3.349.349,0,0,1-.1.2c-.1.1-.1.1-.2.1a.367.367,0,0,1-.3-.1c-.1-.1-.2-.1-.3-.2s-.2-.2-.2-.3c-.1-.1-.1-.2-.1-.4,0-.1-.1-.2-.1-.4h0Z"/><path class="w" d="M283.4,267.1a.1.1,0,0,1-.1.1h-.1c-.1,0-.1,0-.2-.1a.215.215,0,0,1-.2-.2.31.31,0,0,1-.1-.2v.2h0l-.3-.2v-1.5c0-.1,0-.1.1-.2a.139.139,0,0,1,.2,0c.1,0,.2,0,.2.1.1,0,.1.1.2.2l.2.2c0,.1.1.1.1.2v.2h0l-.3-.2h0v-.2l-.1-.1h-.1v.1l.3.2.4.4a.6.6,0,0,1,.1.4A2.165,2.165,0,0,1,283.4,267.1Zm-.4-.4h.1v-.2l-.1-.1-.2-.2v.1a.1.1,0,0,0,.1.1c-.1.2,0,.2.1.3Z"/><path class="w" d="M280.8,264.9v-.3c0-.1,0-.1.1-.2l.1-.1c.1,0,.1,0,.2.1l.1.1.1.1a.1.1,0,0,0,.1.1v-.1h0l.3.2v1.9h0l-.3-.2v-1.4c0-.1-.1-.1-.1-.2h-.1c0,.1-.1.1,0,.2v1h0l-.3-.2v-.2Z"/><path class="w" d="M280,264.2c0-.1-.1-.1-.1-.2h-.1a.1.1,0,0,0-.1.1h0l-.3-.2v-.3c0-.1.1-.1.1-.2.1,0,.1-.1.2-.1a.367.367,0,0,1,.3.1.215.215,0,0,1,.2.2c.1.1.1.2.2.3a.367.367,0,0,1,.1.3.756.756,0,0,0,.1.4v.3a.367.367,0,0,1-.1.3c0,.1-.1.1-.1.2-.1,0-.1.1-.2.1s-.2,0-.2-.1c-.1-.1-.2-.1-.3-.2s-.1-.2-.2-.3c0-.1-.1-.2-.1-.3v-.3h0l.3.2h0v.1a.1.1,0,0,0,.1.1l.1.1h.1a.349.349,0,0,0,.1-.2v-.2A.31.31,0,0,0,280,264.2Z"/><path class="w" d="M277.9,263.5h0V263a.349.349,0,0,1,.1-.2c0-.1.1-.1.2-.1a.367.367,0,0,1,.3.1c.1.1.2.1.3.2s.1.2.2.3.1.2.1.4v.8a.354.354,0,0,1-.3.3.367.367,0,0,1-.3-.1c-.1-.1-.2-.1-.3-.2s-.1-.2-.2-.3a.349.349,0,0,0-.1-.2v-.1h0l.3.2h0v.1a.1.1,0,0,0,.1.1l.1.1h.2v-.2Zm.4-.3a.349.349,0,0,0-.1.2l.4.2c0-.1,0-.2-.1-.2,0-.1-.1-.1-.1-.2Z"/><path class="w" d="M277.1,261.4h0l.3.1V264h0l-.3-.2v-2.4Z"/><path class="c" d="M256.5,254.1l-13.1-7.6a2.062,2.062,0,0,1-1-1.7v-4.2c0-.6.4-.9,1-.6l13.1,7.6a2.062,2.062,0,0,1,1,1.7v4.2C257.5,254.1,257.1,254.4,256.5,254.1Z"/><path class="o" d="M252.8,247.3h0c.1.1.1.1.1.2l.5,2.4v.1h0l-.3-.2a.1.1,0,0,1-.1-.1v-.1l-.1-.3-.6-.3-.1.2h-.1l-.3-.2h0v-.1h0l.5-1.9v-.1h.1Zm-.2.6-.2.7.4.2Z"/><path class="o" d="M250.7,248.5c-.1-.1-.1-.2-.2-.2,0-.1-.1-.2-.1-.3v-1c0-.1.1-.1.1-.2a.349.349,0,0,1,.2-.1c.1,0,.1,0,.2.1l.1.1.1.1a.1.1,0,0,0,.1.1V247h0l.3.2v2.5h0l-.3-.2v-.9h-.3C250.8,248.6,250.7,248.6,250.7,248.5Zm.1-.7a.367.367,0,0,0,.1.3c0,.1.1.1.2.2h.2v-.6a.1.1,0,0,0-.1-.1l-.1-.1h-.2c0,.1-.1.1-.1.2v.1Z"/><path class="o" d="M249.2,247.6l-.2-.2c0-.1-.1-.2-.1-.3v-1c0-.1.1-.1.1-.2a.349.349,0,0,1,.2-.1c.1,0,.1,0,.2.1l.1.1.1.1a.1.1,0,0,0,.1.1v-.1h0l.3.2v2.5h0l-.3-.2v-.9h-.3C249.3,247.7,249.2,247.7,249.2,247.6Zm0-.7c0,.1,0,.2.1.2,0,.1.1.1.1.2h.2v-.6a.1.1,0,0,0-.1-.1l-.1-.1h-.1c0,.1,0,.1-.1.2v.2Z"/><path class="o" d="M248.1,244.7h0c0-.1.1-.1,0,0l.3.1v2.5h0l-.3-.2v-2.4Z"/><path class="o" d="M246.6,244.5h0v-.1h0l.3.2v.2l.2,1,.2-.8h0l.3.2h0v.1h0l-.5,1.3.2.7h0v.1h0l-.3-.2V247Z"/><path class="z" d="M179,349.9c-.1,0-.2.2-.3,1.4a2.026,2.026,0,0,0,.4,1.5c1,1,3.2,1.6,6,1.2,1.8-.2,7.4-.9,9.2-.8s5.9.7,8.9.1a7.328,7.328,0,0,0,4.7-2.7c.2-.4.2-1.8-.1-1.9Z"/><path class="b" d="M179.6,345.5c.1-.4.1-.9.2-1.4.1-.6.3-3.5,1.1-3.6.7-.1,8,.1,8,.1.5.1.6.5.8,1.1.4,1.1,1.4,1.2,2.6,1.6a17.525,17.525,0,0,0,4,.5c1.5.1,2.8-.1,4.6-.1a9.116,9.116,0,0,1,4.6,1,4.041,4.041,0,0,1,2.3,4.1c-.3,1.3-1.5,1.9-2.8,2.5a12.158,12.158,0,0,1-4.6.9,42.919,42.919,0,0,1-6.2-.3,42.284,42.284,0,0,0-7.1.4,12.147,12.147,0,0,1-6-.1,3.124,3.124,0,0,1-2.1-1.6,10.987,10.987,0,0,1,.3-3.6,1.854,1.854,0,0,1,.2-.7C179.5,346.1,179.6,345.8,179.6,345.5Z"/><g class="aj"><path d="M179.6,345.5c.1-.4.1-.9.2-1.4.1-.6.3-3.5,1.1-3.6.7-.1,8,.1,8,.1.5.1.6.5.8,1.1.4,1.1,1.4,1.2,2.6,1.6a17.525,17.525,0,0,0,4,.5c1.5.1,2.8-.1,4.6-.1a9.116,9.116,0,0,1,4.6,1,4.041,4.041,0,0,1,2.3,4.1c-.3,1.3-1.5,1.9-2.8,2.5a12.158,12.158,0,0,1-4.6.9,42.919,42.919,0,0,1-6.2-.3,42.284,42.284,0,0,0-7.1.4,12.147,12.147,0,0,1-6-.1,3.124,3.124,0,0,1-2.1-1.6,10.987,10.987,0,0,1,.3-3.6,1.854,1.854,0,0,1,.2-.7C179.5,346.1,179.6,345.8,179.6,345.5Z"/></g><path class="o" d="M195.7,343.8a7.269,7.269,0,0,1,1.4,3.1c0,.9-1.6.8-1.6-.1a5.3,5.3,0,0,0-1.9-3.3A6.649,6.649,0,0,1,195.7,343.8Z"/><path class="o" d="M198.5,343.9a4.3,4.3,0,0,1,1.7,3c0,.7-1.4.7-1.4.1a5.067,5.067,0,0,0-1.7-3A1.181,1.181,0,0,1,198.5,343.9Z"/><path class="z" d="M166.1,336.1s-6.5.6-6.6,2.7.3,2.6,1.6,3.2,4.1.6,5.1-.3a13.37,13.37,0,0,0,3.2-3.9,21.091,21.091,0,0,1,3.1-3.6,9.9,9.9,0,0,0,3.5-4.3c.6-1.6.6-2.3.3-4.8Z"/><path class="b" d="M166.6,325.8c1.8-.5,5.6-3.7,7.9-2.6,1.7.8,2.1,1.8,1.5,4.3-.9,3.9-2.8,4.5-4.7,6.5a51.916,51.916,0,0,0-4.7,5.7c-1.2,1.5-4,1.9-5.8,1.1-2.1-1-1.4-3.3-1.3-4.9.1-2.1.3-3.1.8-3.3C161,332.3,165.1,326.2,166.6,325.8Z"/><path class="r" d="M166.6,325.8c1.8-.5,5.6-3.7,7.9-2.6,1.7.8,2.1,1.8,1.5,4.3-.9,3.9-2.8,4.5-4.7,6.5a51.916,51.916,0,0,0-4.7,5.7c-1.2,1.5-4,1.9-5.8,1.1-2.1-1-1.4-3.3-1.3-4.9.1-2.1.3-3.1.8-3.3C161,332.3,165.1,326.2,166.6,325.8Z"/><path class="o" d="M165.8,326.4a6.391,6.391,0,0,1,5,3.4c.6.5,1.5,0,1.2-.7a5.725,5.725,0,0,0-5-3.4c-.1,0-.2.1-.3.1A1.456,1.456,0,0,0,165.8,326.4Z"/><path class="o" d="M164.4,327.8a6.477,6.477,0,0,1,4.2,3.2c.6.5,1.5,0,1.2-.7a6.205,6.205,0,0,0-4.7-3.4A5.494,5.494,0,0,1,164.4,327.8Z"/><path class="ak" d="M167.7,328.7s-.3,4.2-.4,4.4c-.2,2-6.7,1.5-6.9.3l-.3-5.1Z"/><path class="ak" d="M167.3,333.2s1.7-13.5,2.5-22.3,1.8-16.8,1.8-16.8l-13.8-1.2c-.7,11.9,1.9,29.9,2.4,37.8Z"/><path class="ak" d="M188.9,337.8l.1,2.8c.2,1.9-1.5,2.6-3.8,2.8-3.3.2-4.6-1.3-4.7-2.4,0-1.1-.1-3-.1-3Z"/><path class="ak" d="M189.1,336.4l4-33.6-14.1-8c-1.1,3.2-1.1,35.5-.9,40,.2,5.6,1.3-4.6,2.5,5.7Z"/><path class="b" d="M192.9,335.1c.8-4.7.4-34.5.9-39.1.6-6,.4-40.5-.5-57.5-.7-13.6-32.4-9.9-32.4-9.9-4,8.7-5,11.3-4,30.9.7,13.5,1.3,23.8,1.3,23.8s-1.6,29.1-1.6,37.5c0,.9.1,2.2.2,3.7a16.757,16.757,0,0,0,14.4.7c1.5-12.4,1.9-42.5,2.5-48.4.6-6,1.3-13.8,1.3-13.8.5,4.4,3.8,31.8,3.8,31.8-1.3,4.2-1.2,35-.9,39.4C184.6,337.9,192.9,335.2,192.9,335.1Z"/><g class="al"><path class="d" d="M192.9,335.1c.8-4.7.4-34.5.9-39.1.6-6,.4-40.5-.5-57.5-.7-13.6-32.4-9.9-32.4-9.9-4,8.7-5,11.3-4,30.9.7,13.5,1.3,23.8,1.3,23.8s-1.6,29.1-1.6,37.5c0,.9.1,2.2.2,3.7a16.757,16.757,0,0,0,14.4.7c1.5-12.4,1.9-42.5,2.5-48.4.6-6,1.3-13.8,1.3-13.8.5,4.4,3.8,31.8,3.8,31.8-1.3,4.2-1.2,35-.9,39.4C184.6,337.9,192.9,335.2,192.9,335.1Z"/><path class="d" d="M177.5,334.3l-.2-.1V334c-.3-4.5-.4-35.2.9-39.5-.2-1.4-2.4-20.3-3.4-28.5-.3,2.8-.6,7.1-1,10.6l-.1,1.5c-.5,5.5-1,35.6-2.4,47v.2l-.2.1c-8.4,3.2-14.7-.6-14.7-.7l-.1-.1v-.2c-.1-1.6-.2-2.9-.2-3.7,0-7.9,1.4-36.9,1.6-37.5-.1-1-.7-10.9-1.3-23.7-1-19.4,0-22.2,4-31l.1-.2h.2c.9-.1,21.8-2.4,29.8,4.3a8.128,8.128,0,0,1,3,5.9c.9,16.6,1.1,51.4.5,57.6l-.1,1.2c-.4,4.1,0,33.6-.8,37.9v.2l-.2.1a21.676,21.676,0,0,1-6.7.9A18.019,18.019,0,0,1,177.5,334.3Zm15.1.6c.7-4.2.4-33.6.7-37.7l.1-1.2c.6-6.1.4-40.9-.5-57.5a7.608,7.608,0,0,0-2.8-5.5c-7.4-6.2-27-4.4-29.1-4.2-3.9,8.5-4.8,11.4-3.9,30.5.6,13.4,1.3,23.7,1.3,23.8v.2s-1.6,29.1-1.6,37.4c0,.8.1,2,.2,3.5a16.631,16.631,0,0,0,13.8.6c1.4-11.2,1.9-41.3,2.4-46.8l.1-1.5c.6-5.9,1.3-13.7,1.3-13.8l.3-3.3.4,3.3c.5,4.4,3.7,31.5,3.8,31.8v.2c-1.3,4.1-1.1,34.8-.9,39.1,5.9,3.4,13.1,1.5,14.4,1.1Z"/></g><path class="b" d="M171.3,323.3s-1.4,1.6-7.3,1.5-7.5-2-7.5-2l-.1-1.1c-.6.1-.7.8-.6,2.2a41.89,41.89,0,0,0,.7,5.8c.3.6,2.3,1.7,7,1.9,3.6.2,7-.7,7.5-1.5a29.839,29.839,0,0,0,.9-5.2c.3-2.1.1-2.7-.6-2.7Z"/><g class="y"><path class="d" d="M171.3,323.3s-1.4,1.6-7.3,1.5-7.5-2-7.5-2l-.1-1.1c-.6.1-.7.8-.6,2.2a41.89,41.89,0,0,0,.7,5.8c.3.6,2.3,1.7,7,1.9,3.6.2,7-.7,7.5-1.5a29.839,29.839,0,0,0,.9-5.2c.3-2.1.1-2.7-.6-2.7Z"/><path class="d" d="M163.6,328.9c-4.8-.3-6.9,1.7-7.3.9a40.5,40.5,0,0,1-.8-5.9c-.1-1.2-.1-2.4.9-2.5l.4-.1.1,1.4c.4.3,2.2,1.7,7.2,1.8,5,0,6.6-1.1,7-1.3l.2-1.3h.3a.908.908,0,0,1,.7.3c.3.4.4,1.1.2,2.8l-.1.4a23.687,23.687,0,0,1-.9,5c-.5.8-3.5-1.3-6.7-1.3A2.745,2.745,0,0,0,163.6,328.9Zm8-5.4h0c-.1.1-1.6,1.8-7.6,1.7s-7.7-2-7.7-2.1l-.1-.1v-.5a3.3,3.3,0,0,0,0,1.4,32.477,32.477,0,0,0,.7,5.7c.2.4,1.8,1.5,6.8,1.7,3.6.2,6.8-.8,7.2-1.3a44.1,44.1,0,0,0,.8-4.7v-.4a7.387,7.387,0,0,0,0-2.1Z"/></g><path class="f" d="M171.3,323.3s-1.4,1.6-7.3,1.5-7.5-2-7.5-2l-.1-1.1c-.6.1-.7.8-.6,2.2a41.89,41.89,0,0,0,.7,5.8c.3.6,2.3,1.7,7,1.9,3.6.2,7-.7,7.5-1.5a29.839,29.839,0,0,0,.9-5.2c.3-2.1.1-2.7-.6-2.7Z"/><g class="am"><path d="M189.8,334.6s-.3-31,.5-43.6c.7-12.4.3-40.5-1.1-51.2l.7-.1c1.4,10.7,1.9,39,1.2,51.4-.7,12.6-.5,43.6-.5,43.6Z"/></g><path class="b" d="M193.4,331.9s-2.4,1.3-8.6,1c-4.8-.2-7.1-2.2-7.1-2.2l.1-1.3c-.9-.1-.6,1.7-.7,3.5a13.011,13.011,0,0,0,.1,3.7c.3.6,2.7,2.4,7.8,2.6s7.8-.7,8.3-1.4.3-1.5.7-4,.6-3-.4-3.4Z"/><g class="y"><path class="d" d="M193.4,331.9s-2.4,1.3-8.6,1c-4.8-.2-7.1-2.2-7.1-2.2l.1-1.3c-.9-.1-.6,1.7-.7,3.5a13.011,13.011,0,0,0,.1,3.7c.3.6,2.7,2.4,7.8,2.6s7.8-.7,8.3-1.4.3-1.5.7-4,.6-3-.4-3.4Z"/><path class="d" d="M185,339.5c-5.3-.2-7.8-2.1-8.1-2.8a8.678,8.678,0,0,1-.1-3.8v-1.2c0-1.2,0-2,.5-2.4a1.421,1.421,0,0,1,.6-.2h.3l-.1,1.5c.5.4,2.7,1.8,6.8,2,5.2.2,7.7-.7,8.3-.9l.2-1.7.4.2c1.1.4,1,1.1.7,2.9,0,.3-.1.5-.1.8-.1.9-.2,1.5-.3,2.1a5.374,5.374,0,0,1-.5,2.1c-.5.8-3,1.5-7.2,1.5A7.6,7.6,0,0,0,185,339.5Zm8.7-7.4-.2.1c-.1.1-2.6,1.3-8.8,1.1a13.173,13.173,0,0,1-7.3-2.2l-.1-.1v2a11.949,11.949,0,0,0,.1,3.5c.2.4,2.6,2.2,7.5,2.4,5.3.2,7.7-.7,8-1.2a3.424,3.424,0,0,0,.4-1.8c.1-.5.1-1.2.3-2.1,0-.3.1-.6.1-.8.2-1.3.3-1.7.1-1.9Z"/></g><path class="f" d="M193.4,331.9s-2.4,1.3-8.6,1c-4.8-.2-7.1-2.2-7.1-2.2l.1-1.3c-.9-.1-.6,1.7-.7,3.5a13.011,13.011,0,0,0,.1,3.7c.3.6,2.7,2.4,7.8,2.6s7.8-.7,8.3-1.4.3-1.5.7-4,.6-3-.4-3.4Z"/><path class="f" d="M171.2,249.5c-1.1-1.6,0-9.7.2-10.6v-.3l12.4.4v.3c0,1.5.1,2.8.1,4,.1,3.7.2,5.7-.4,6.6-.7,1-4.2,2.9-6.4,2.9S171.8,250.4,171.2,249.5Zm.7-10.3c-.5,3.5-1,8.8-.2,9.8.6.9,3.4,3.1,5.3,3.1a11.2,11.2,0,0,0,5.8-2.6c.5-.7.4-2.8.3-6.2,0-1.1-.1-2.3-.1-3.7Z"/><path class="f" d="M156.5,248.5v.9a3.152,3.152,0,0,0,1.7.9h.1c.7-.1,4.5-2,4.7-2.9a6.6,6.6,0,0,0,.1-1.4,52.938,52.938,0,0,1,.9-8l-.7-.1a55.763,55.763,0,0,0-.9,8.1,6.151,6.151,0,0,1-.1,1.3c-.2.5-3.4,2.2-4.2,2.4A5.954,5.954,0,0,1,156.5,248.5Z"/><path class="b" d="M173.6,276.6l-.1-12.9-1-5.5a13,13,0,0,1-8-6.1,42.534,42.534,0,0,0,10,5l.4,5.6Z"/><path class="u" d="M173.6,276.6l-.1-12.9-1-5.5a13,13,0,0,1-8-6.1,42.534,42.534,0,0,0,10,5l.4,5.6Z"/><path class="f" d="M173.6,276.6l-.1-12.9-1-5.5a13,13,0,0,1-8-6.1,42.534,42.534,0,0,0,10,5l.4,5.6Z"/><path class="ak" d="M161.4,210.7l-4.1,10.8,6.5,10s-4.5,7.5-4.4,7.6c.4.2-9-10.4-11.8-15a3.946,3.946,0,0,1-.4-3.5c1-4,5.6-17.6,8-23.5s5.6-8,11.3-7.5Z"/><path class="b" d="M166.2,200.2l-7.2,17c-6.7-.6-9.4-4-9.4-4,1.1-4.2,5.1-16.2,7.2-19.4s3.6-3.7,5.8-4.2a14.765,14.765,0,0,1,4.7.1Z"/><path class="ak" d="M180.6,185.1l-.4,11.5-11.5-.6.7-1.7.2-4.4v-6.2Z"/><path class="s" d="M156.8,239.2s6.4,5.7,20.1,5.4c13.8-.3,21.2-3.4,21.2-3.4s-.3-32.8-2.3-37.1c-4.6-10-6.4-11.5-10.4-12.3-1.8-.3-5.1-.7-5.1-.7v.7a11,11,0,0,1-8.7,1.1c-2-.7-2.3-1.7-2.1-2.9-1-.2-2-.3-3-.4-2.9-.1-6.2,2.5-7.2,5.8C157.9,200.4,156.9,236.1,156.8,239.2Z"/><path class="an" d="M188.7,177.5a7.565,7.565,0,0,0,1.9-.7c.3-.4-2-4.1-2-4.1Z"/><path class="q" d="M174.9,184.5c.3-4.1-15-8.9-15-14.9,0-9,4.7-10.8,8.5-12.3,8.3-3.1,15.2-4,19.6,1,6.1,6.9-1.1,10.9-1.1,10.9Z"/><path class="ak" d="M168.2,162.9c-3.7,2.7-3,9.7.2,14.9,2.7,4.4,8.5,7.3,11.1,8.1,2.1.7,6.2.4,7-.4,1.2-1.1,3.1-4.1,2-12.7-1-8.4-5-10.5-7.2-11.7C179.4,160.1,173.4,159.1,168.2,162.9Z"/><path class="an" d="M180.7,184.3a11.824,11.824,0,0,0,5.5,1.4,12.786,12.786,0,0,1-5.7.4Z"/><path class="q" d="M180.6,156.6s6.9,2.1,6.2,7.6a8.406,8.406,0,0,1-5.3,7Z"/><path class="q" d="M160.8,173.3a14.535,14.535,0,0,0,3.1,6.2c1.5,2,4.3,4.7,5.5,6.2.9,1,5.2,1,6.6.3a6.778,6.778,0,0,0,3-2.8,13.09,13.09,0,0,0,1.5-3.7c.1-.2.1-.4-.1-.5-.1-.1-.2-.1-.4,0-1.3.5-2.2.5-3.1-.5a4.1,4.1,0,0,1-1.3-2.3c-.4-1.7.2-3.5,2-4,1.9-.7,3.2.8,3.7,1.7l.1,2.1a2.094,2.094,0,0,0,2-2.1l-.1-3.8a1.268,1.268,0,0,0-.6.1,27.587,27.587,0,0,0-.7-8.6s-5.9-5.8-15.3-2.7c-3.5,1.2-5.1,2.8-6.2,6.3a13.449,13.449,0,0,0-.5,3.5A17.114,17.114,0,0,0,160.8,173.3Z"/><path class="q" d="M160.6,161.4a2.2,2.2,0,0,1,.1,3.1l-3.2-2.9A2.208,2.208,0,0,1,160.6,161.4Z"/><path class="ak" d="M190.1,207.6s13.9,14.9,17.3,16.5,24.6-11.1,26.3-12c1.7-.4,3.3-.6,5-1,1.5-.4,2.8-.5,4-1.4a2.326,2.326,0,0,0,.9-1.1c.1-.5-.1-1,0-1.6.2-.6.7-1.1.6-1.6s-.7-.8-.9-1.3.1-.9.1-1.4a1.1,1.1,0,0,0-.6-1,6.07,6.07,0,0,0-1-.7c.1-.2-.1-.4.1-.7a23.908,23.908,0,0,1,2.3-2.2c1.8-1.7,2.5-2.6,2.2-3.3-.8-1.4-2.4.2-4.8,2.1s-6.5,4.7-6.9,4.2c-.5-.5-.3-1.9-1.1-3.5-.7-1.5-2.5-2.3-2.3-1,.1.8.1,2.6.1,3.8s.1,3.3-1,4.2c-2.3,1.9-20.3,8.2-20.3,8.2s-11.5-13.5-14.5-17.6c-2.4-3.2-6.5-3.2-10.2-3.3C183.6,194.2,184.9,202.2,190.1,207.6Z"/><path class="b" d="M185.2,201a18.409,18.409,0,0,0,4.9,7.5c1.8,1.9,10.8,10.3,10.8,10.3a10.906,10.906,0,0,0,8.1-7.3s-7.1-9.4-10.1-13.5c-3.5-4.8-5-5-6.9-5.6a22.132,22.132,0,0,0-7.3-.5A18.766,18.766,0,0,0,185.2,201Z"/><path class="d" d="M384.5,223.7a1.756,1.756,0,0,1-.5-.4c-.2-.1-.3-.3-.5-.4-.1-.2-.3-.3-.4-.5l-.3-.6c-.1-.2-.1-.5-.2-.7v-.9c0-.2.1-.3.1-.4s.1-.2.1-.4c0-.1.1-.2.2-.3s.1-.2.2-.3l.3.9a.349.349,0,0,0-.1.2c0,.1-.1.2-.1.3s-.1.2-.1.3v.3a4.331,4.331,0,0,1,.1.5c.1.2.2.3.3.5s.3.3.5.5a2.092,2.092,0,0,0,.6.4.52.52,0,0,0,.4.2.764.764,0,0,0,.5.2.9.9,0,0,0,.5.1h.4v-1a4664583647440.255,4664583647440.255,0,0,1-.2-1l.6-.3v2.6c0,.2-.1.3-.1.4-.1.1-.1.2-.2.2a.367.367,0,0,1-.3.1h-.4a.6.6,0,0,1-.4-.1c-.1,0-.3-.1-.4-.1-.1-.1-.2-.1-.3-.2-.1,0-.1,0-.3-.1Zm.6-4.2-.5.4-.3-1,.5-.5Zm.9.5-.5.5-.3-1,.5-.5Z"/><path class="d" d="M388.3,226.2h0a1.849,1.849,0,0,1-.7-.9,6.149,6.149,0,0,1-.1-1.4.756.756,0,0,1,.1-.4c0-.2.1-.4.1-.7a1.268,1.268,0,0,1,.1-.6c0-.2.1-.4.1-.6s.1-.4.1-.6a5499156859321.563,5499156859321.563,0,0,1,.2-1.2v-.5l.6.1v.6a2.485,2.485,0,0,1-.1.8,2.2,2.2,0,0,0-.1.8c0,.3-.1.5-.1.8a1.087,1.087,0,0,1-.1.5c0,.2,0,.3-.1.4v1.8c0,.1.1.1.1.2s.1.1.2.1l.1.1Z"/><path class="d" d="M390.2,227.4c-.1-.1-.2-.1-.3-.2a1.38,1.38,0,0,1-.3-.4c-.1-.1-.2-.3-.3-.4a.758.758,0,0,1-.2-.4l-.2.2c-.1,0-.1.1-.2.1h-.2a.349.349,0,0,1-.2-.1h0l.2-1.1h0a.367.367,0,0,0,.3.1.215.215,0,0,0,.2-.2c.1-.1.1-.2.2-.3s.1-.3.2-.4.1-.3.2-.4.2-.2.2-.3c.1-.1.2-.1.3-.2s.2,0,.3.1.3.2.3.4c.1.2.1.3.2.5,0,.2.1.4.1.7v1.6c0,.1,0,.1.1.1h.1l-.1,1.1-.1-.1c-.1-.1-.2-.1-.2-.3a.6.6,0,0,1-.1-.4l-.1.1-.1.1c-.1.1-.1.1-.3.1Zm-.6-2.2c0,.1.1.2.2.3s.1.2.2.3l.3.3c.1.1.2.2.2.3v-1.5a.367.367,0,0,0-.1-.3c0-.1-.1-.1-.1-.2h-.2c-.1,0-.1.1-.2.2s-.1.2-.2.3A.438.438,0,0,1,389.6,225.2Z"/><path class="d" d="M391.6,229.7l-.5.4-.3-1,.5-.5Zm1.5-1.5-.2,1.1h0c-.1-.1-.3-.2-.4-.4s-.2-.3-.2-.5a.5.5,0,0,1-.6,0c-.1-.1-.2-.1-.4-.2s-.2-.2-.3-.2l-.1-.1.2-1.1.1.1c.2.1.3.2.5.2.1,0,.2.1.3,0a.215.215,0,0,0,.2-.2c0-.1.1-.2.1-.3v-1.1l.6.1v2c0,.1.1.2.1.3-.1.1,0,.2.1.3Zm-.7,2-.5.5-.3-1,.5-.5Z"/><path class="d" d="M393,228.1l.3.2h0c0-.1.1-.2.2-.3s.1-.2.2-.3c0-.2.1-.4.1-.6,0-.3.1-.5.1-.9a.9.9,0,0,1,.1-.5,1.268,1.268,0,0,1,.1-.6,2.485,2.485,0,0,1,.1-.8c0-.3.1-.7.1-1.2l.6.1c0,.6-.1,1.1-.1,1.7-.1.6-.1,1.1-.2,1.7v.3c.1-.1.2-.1.3-.2a.367.367,0,0,1,.3-.1h.3c.1,0,.2.1.3.1l.3.3a.764.764,0,0,1,.2.5,1.268,1.268,0,0,1,.1.6v.8a2.353,2.353,0,0,1-.2.8,2.187,2.187,0,0,1-.3.5l.6.4-.2,1.1-.6-.4c-.1-.1-.3-.2-.4-.3l-.5-.5c-.1,0-.3-.1-.4-.1-.1-.1-.3-.1-.4-.2l-1.4-.9Zm1.2.8c.1.1.2.1.3.2s.2.1.4.2a.6.6,0,0,0,.4.1h.4c.1,0,.2-.1.3-.2s.1-.2.1-.4v-.4a.367.367,0,0,0-.1-.3.349.349,0,0,0-.1-.2c-.1-.1-.1-.1-.2-.1h0c-.1,0-.2-.1-.3-.1a.756.756,0,0,0-.4.1c-.1.1-.3.2-.5.4a4.233,4.233,0,0,0-.5.7Zm2.4-3.7-.5.5-.3-1.1.5-.5Z"/><path class="d" d="M398.3,231.6l-.1,1.1h0c-.1-.1-.3-.2-.4-.4s-.2-.3-.2-.5a.6.6,0,0,1-.4.1,3.934,3.934,0,0,1-.6-.2l-.1-.1.2-1.1.1.1a.471.471,0,0,0,.6.1c.2-.1.2-.2.3-.5v-1.1l.6.1v2a.367.367,0,0,0,.1.3c-.3-.1-.2,0-.1.1Zm0-3.9-.5.5-.3-1.1.5-.5Z"/><path class="d" d="M398.2,231.5l.5.3a.349.349,0,0,1,.2.1l.2.1c.1,0,.1,0,.2-.1a.367.367,0,0,0,.1-.3v-1.9l.6-.1V232a1.884,1.884,0,0,1-.2.8,1.381,1.381,0,0,1-.3.4.3.3,0,0,1-.4,0c-.2,0-.3-.1-.5-.2l-.5-.3Zm1.6-3.6-.5.5-.3-1,.5-.5Zm.9.5-.5.5-.3-1,.5-.4Z"/></g></svg>