<svg xmlns="http://www.w3.org/2000/svg" viewBox="0 0 134.06 134.06"><defs><style>.cls-1{isolation:isolate;}.cls-2{fill:#ff9b50;}.cls-3{opacity:0.69;mix-blend-mode:screen;}.cls-4{fill:#ffb448;}.cls-5{fill:#ffb839;}</style></defs><title>Asset 3</title><g class="cls-1"><g id="Layer_2" data-name="Layer 2"><g id="_Layer_" data-name="&lt;Layer&gt;"><circle class="cls-2" cx="67.03" cy="67.03" r="67.03" transform="translate(-9.87 122.46) rotate(-80.78)"/><g class="cls-3"><path class="cls-4" d="M60.43,114.42a10.39,10.39,0,0,1,3.32,5.48,10.71,10.71,0,0,1-6.17-2,10.44,10.44,0,0,1-3.32-5.49A10.76,10.76,0,0,1,60.43,114.42Z"/><path class="cls-4" d="M57.26,119.77a10.85,10.85,0,0,1,6.49.13,10.53,10.53,0,0,1-5,4.11,10.73,10.73,0,0,1-6.48-.13A10.54,10.54,0,0,1,57.26,119.77Z"/><path class="cls-4" d="M50.21,111.64a10.42,10.42,0,0,1,2.52,5.89,10.71,10.71,0,0,1-5.84-2.8,10.3,10.3,0,0,1-2.52-5.88A10.74,10.74,0,0,1,50.21,111.64Z"/><path class="cls-4" d="M46.32,116.52a10.77,10.77,0,0,1,6.41,1,10.64,10.64,0,0,1-5.5,3.39,10.78,10.78,0,0,1-6.41-1A10.62,10.62,0,0,1,46.32,116.52Z"/><path class="cls-4" d="M42.16,107.66a10.34,10.34,0,0,1,1.54,6.21,10.67,10.67,0,0,1-5.31-3.67A10.26,10.26,0,0,1,36.85,104,10.71,10.71,0,0,1,42.16,107.66Z"/><path class="cls-4" d="M37.53,111.87a10.72,10.72,0,0,1,6.17,2,10.71,10.71,0,0,1-6,2.49,10.7,10.7,0,0,1-6.16-2A10.68,10.68,0,0,1,37.53,111.87Z"/><path class="cls-4" d="M34.63,101.6a10.24,10.24,0,0,1,0,6.38,10.55,10.55,0,0,1-4.25-4.82,10.31,10.31,0,0,1,0-6.39A10.49,10.49,0,0,1,34.63,101.6Z"/><path class="cls-4" d="M29.11,104.58A10.57,10.57,0,0,1,34.6,108a10.78,10.78,0,0,1-6.41,1,10.62,10.62,0,0,1-5.49-3.41A10.75,10.75,0,0,1,29.11,104.58Z"/><path class="cls-4" d="M29,94.57a10.33,10.33,0,0,1-1.56,6.2,10.43,10.43,0,0,1-3-5.68A10.35,10.35,0,0,1,26,88.9,10.36,10.36,0,0,1,29,94.57Z"/><path class="cls-4" d="M22.87,96.19a10.54,10.54,0,0,1,4.52,4.58,10.77,10.77,0,0,1-6.47-.52,10.49,10.49,0,0,1-4.52-4.57A10.73,10.73,0,0,1,22.87,96.19Z"/><path class="cls-4" d="M24.1,85.73a10.4,10.4,0,0,1-2.78,5.77,10.35,10.35,0,0,1-1.77-6.15,10.4,10.4,0,0,1,2.78-5.77A10.35,10.35,0,0,1,24.1,85.73Z"/><path class="cls-4" d="M17.81,86.12a10.46,10.46,0,0,1,3.51,5.38,10.78,10.78,0,0,1-6.24-1.77,10.41,10.41,0,0,1-3.5-5.38A10.76,10.76,0,0,1,17.81,86.12Z"/><path class="cls-4" d="M21.59,77.29a10.43,10.43,0,0,1-3.67,5.27,10.36,10.36,0,0,1-.76-6.35A10.5,10.5,0,0,1,20.83,71,10.25,10.25,0,0,1,21.59,77.29Z"/><path class="cls-4" d="M15.32,76.71a10.33,10.33,0,0,1,2.6,5.85,10.76,10.76,0,0,1-5.87-2.72A10.36,10.36,0,0,1,9.45,74,10.68,10.68,0,0,1,15.32,76.71Z"/><path class="cls-4" d="M21.32,67.89a10.55,10.55,0,0,1-4.86,4.23,10.3,10.3,0,0,1,.83-6.33,10.55,10.55,0,0,1,4.86-4.23A10.3,10.3,0,0,1,21.32,67.89Z"/><path class="cls-4" d="M15.38,65.83a10.24,10.24,0,0,1,1.08,6.29,10.58,10.58,0,0,1-5-4,10.28,10.28,0,0,1-1.07-6.29A10.53,10.53,0,0,1,15.38,65.83Z"/><path class="cls-4" d="M23,58.41a10.69,10.69,0,0,1-5.74,3,10.37,10.37,0,0,1,2.32-6,10.7,10.7,0,0,1,5.73-3A10.34,10.34,0,0,1,23,58.41Z"/><path class="cls-4" d="M17.72,55a10.32,10.32,0,0,1-.46,6.37,10.47,10.47,0,0,1-3.92-5.09,10.3,10.3,0,0,1,.46-6.36A10.48,10.48,0,0,1,17.72,55Z"/><path class="cls-4" d="M26.43,50.61a10.71,10.71,0,0,1-6.27,1.62,10.45,10.45,0,0,1,3.63-5.29,10.83,10.83,0,0,1,6.28-1.62A10.43,10.43,0,0,1,26.43,50.61Z"/><path class="cls-4" d="M22.07,46.13a10.34,10.34,0,0,1-1.91,6.1,10.39,10.39,0,0,1-2.64-5.83,10.31,10.31,0,0,1,1.92-6.1A10.34,10.34,0,0,1,22.07,46.13Z"/><path class="cls-4" d="M30.73,43.55a10.79,10.79,0,0,1-6.46.63,10.5,10.5,0,0,1,4.44-4.66,10.74,10.74,0,0,1,6.46-.62A10.5,10.5,0,0,1,30.73,43.55Z"/><path class="cls-4" d="M27.14,38.45a10.39,10.39,0,0,1-2.87,5.73A10.37,10.37,0,0,1,22.6,38a10.43,10.43,0,0,1,2.88-5.72A10.31,10.31,0,0,1,27.14,38.45Z"/><path class="cls-4" d="M78.63,114a10.4,10.4,0,0,0-3.32,5.49,10.76,10.76,0,0,0,6.17-2A10.4,10.4,0,0,0,84.8,112,10.76,10.76,0,0,0,78.63,114Z"/><path class="cls-4" d="M81.8,119.33a10.76,10.76,0,0,0-6.49.13,10.53,10.53,0,0,0,5,4.11,10.77,10.77,0,0,0,6.49-.13A10.59,10.59,0,0,0,81.8,119.33Z"/><path class="cls-4" d="M87.56,111.64A10.34,10.34,0,0,0,85,117.53a10.71,10.71,0,0,0,5.84-2.8,10.38,10.38,0,0,0,2.52-5.88A10.74,10.74,0,0,0,87.56,111.64Z"/><path class="cls-4" d="M91.45,116.52a10.75,10.75,0,0,0-6.41,1,10.64,10.64,0,0,0,5.5,3.39,10.8,10.8,0,0,0,6.41-1A10.62,10.62,0,0,0,91.45,116.52Z"/><path class="cls-4" d="M95.6,107.33a10.3,10.3,0,0,0-1.54,6.2,10.64,10.64,0,0,0,5.31-3.67,10.3,10.3,0,0,0,1.54-6.2A10.6,10.6,0,0,0,95.6,107.33Z"/><path class="cls-4" d="M100.22,111.54a10.7,10.7,0,0,0-6.16,2,9.32,9.32,0,0,0,12.13.51A10.68,10.68,0,0,0,100.22,111.54Z"/><path class="cls-4" d="M102.86,101.42a10.31,10.31,0,0,0,0,6.39,10.49,10.49,0,0,0,4.24-4.83,10.23,10.23,0,0,0,0-6.38A10.49,10.49,0,0,0,102.86,101.42Z"/><path class="cls-4" d="M108.38,104.4a10.63,10.63,0,0,0-5.48,3.41,10.71,10.71,0,0,0,6.4,1,10.57,10.57,0,0,0,5.49-3.4A10.78,10.78,0,0,0,108.38,104.4Z"/><path class="cls-4" d="M108.86,93.93a10.33,10.33,0,0,0,1.56,6.2,10.43,10.43,0,0,0,3-5.68,10.33,10.33,0,0,0-1.56-6.2A10.43,10.43,0,0,0,108.86,93.93Z"/><path class="cls-4" d="M114.94,95.55a10.42,10.42,0,0,0-4.52,4.58,10.74,10.74,0,0,0,6.46-.52A10.53,10.53,0,0,0,121.41,95,10.78,10.78,0,0,0,114.94,95.55Z"/><path class="cls-4" d="M113.16,85.56a10.4,10.4,0,0,0,2.78,5.77,10.31,10.31,0,0,0,1.77-6.14,10.4,10.4,0,0,0-2.78-5.77A10.31,10.31,0,0,0,113.16,85.56Z"/><path class="cls-4" d="M119.45,86a10.42,10.42,0,0,0-3.51,5.37,10.76,10.76,0,0,0,6.23-1.77,10.42,10.42,0,0,0,3.51-5.37A10.76,10.76,0,0,0,119.45,86Z"/><path class="cls-4" d="M115.66,77.11a10.49,10.49,0,0,0,3.68,5.27A10.33,10.33,0,0,0,120.1,76a10.49,10.49,0,0,0-3.68-5.27A10.33,10.33,0,0,0,115.66,77.11Z"/><path class="cls-4" d="M121.94,76.53a10.33,10.33,0,0,0-2.6,5.85,10.76,10.76,0,0,0,5.87-2.72,10.36,10.36,0,0,0,2.6-5.85A10.65,10.65,0,0,0,121.94,76.53Z"/><path class="cls-4" d="M115.89,68a10.62,10.62,0,0,0,4.86,4.23,10.25,10.25,0,0,0-.83-6.34,10.62,10.62,0,0,0-4.86-4.23A10.33,10.33,0,0,0,115.89,68Z"/><path class="cls-4" d="M121.83,66a10.36,10.36,0,0,0-1.08,6.3,10.65,10.65,0,0,0,5-4,10.36,10.36,0,0,0,1.08-6.3A10.65,10.65,0,0,0,121.83,66Z"/><path class="cls-4" d="M114.14,58.54a10.64,10.64,0,0,0,5.73,3,10.29,10.29,0,0,0-2.32-6,10.7,10.7,0,0,0-5.73-3A10.33,10.33,0,0,0,114.14,58.54Z"/><path class="cls-4" d="M119.41,55.15a10.32,10.32,0,0,0,.46,6.37,10.47,10.47,0,0,0,3.92-5.09,10.26,10.26,0,0,0-.46-6.37A10.53,10.53,0,0,0,119.41,55.15Z"/><path class="cls-4" d="M110.8,50.87a10.74,10.74,0,0,0,6.28,1.62,10.5,10.5,0,0,0-3.64-5.29,10.83,10.83,0,0,0-6.28-1.62A10.43,10.43,0,0,0,110.8,50.87Z"/><path class="cls-4" d="M115.16,46.39a10.31,10.31,0,0,0,1.92,6.1,10.41,10.41,0,0,0,2.63-5.83,10.31,10.31,0,0,0-1.92-6.1A10.34,10.34,0,0,0,115.16,46.39Z"/><path class="cls-4" d="M106.25,43.87a10.83,10.83,0,0,0,6.46.62,10.45,10.45,0,0,0-4.44-4.65,10.79,10.79,0,0,0-6.46-.63A10.5,10.5,0,0,0,106.25,43.87Z"/><path class="cls-4" d="M109.84,38.77a10.38,10.38,0,0,0,2.87,5.72,10.36,10.36,0,0,0,1.67-6.17,10.44,10.44,0,0,0-2.88-5.73A10.32,10.32,0,0,0,109.84,38.77Z"/><path class="cls-4" d="M103.83,33.79a2.75,2.75,0,0,1-.47.42l-.16.11a47.64,47.64,0,0,1,17.15,36.32c0,27-23.23,48.9-51.79,48.9S16.77,97.6,16.77,70.64A47.51,47.51,0,0,1,32.54,35.53a5.11,5.11,0,0,1-.83-.33A48.21,48.21,0,0,0,15.94,70.64c0,27.4,23.6,49.69,52.62,49.69S121.18,98,121.18,70.64A48.41,48.41,0,0,0,103.83,33.79Z"/><path class="cls-4" d="M37.7,37.31a10.73,10.73,0,0,1-6.42-.93,10.6,10.6,0,0,1,5.45-3.46,10.8,10.8,0,0,1,6.42.94A10.6,10.6,0,0,1,37.7,37.31Z"/><path class="cls-4" d="M35.48,31.51a10.55,10.55,0,0,1-4.2,4.87,10.32,10.32,0,0,1-.1-6.39,10.49,10.49,0,0,1,4.2-4.86A10.28,10.28,0,0,1,35.48,31.51Z"/><path class="cls-4" d="M99.64,37.31a10.75,10.75,0,0,0,6.42-.93,10.65,10.65,0,0,0-5.46-3.46,10.8,10.8,0,0,0-6.42.94A10.6,10.6,0,0,0,99.64,37.31Z"/><path class="cls-4" d="M101.86,31.51a10.49,10.49,0,0,0,4.2,4.87,10.32,10.32,0,0,0,.1-6.39A10.49,10.49,0,0,0,102,25.13,10.24,10.24,0,0,0,101.86,31.51Z"/></g><path class="cls-5" d="M77.24,59.47c6.56,1.75,10.63,5.92,10.63,12.79,0,16.41-23,18.79-38.48,14.5l.79-11.47c6,3.1,15.77,4.28,20.79,1a5.94,5.94,0,0,0,.71-9.85c-3.29-2.32-8.38-1.38-13.16-1.59V55.16h6.07c11.91,0,12.19-12.48-.3-12.48a35,35,0,0,0-12.5,2.45l-.64-10.26a53.72,53.72,0,0,1,8-1.81C88.66,28.64,89.79,48.33,84.44,55A14.13,14.13,0,0,1,77.24,59.47Z"/></g></g></g></svg>