<svg xmlns="http://www.w3.org/2000/svg" viewBox="0 0 134.06 134.06"><defs><style>.cls-1{fill:#9ea8ba;}.cls-2{fill:#cad5e5;}.cls-3{fill:#bac6d8;}</style></defs><title>Asset 2</title><g id="Layer_2" data-name="Layer 2"><g id="_Layer_" data-name="&lt;Layer&gt;"><circle class="cls-1" cx="67.03" cy="67.03" r="67.03" transform="translate(-8.14 124.79) rotate(-82.53)"/><path class="cls-2" d="M64.93,78.74H85.44V88.89H48.63V78.43c6.44-5.53,22.46-18.89,22.46-27.27,0-4.24-2.78-7.14-7.39-7.14S54.42,45.86,50.33,48L50,36.78c27.78-11,43.12,6.56,30,25.92Q75.22,69.74,64.93,78.74Z"/><path class="cls-3" d="M58.84,113.63a10.39,10.39,0,0,1,3.32,5.48,10.71,10.71,0,0,1-6.17-2,10.44,10.44,0,0,1-3.32-5.49A10.76,10.76,0,0,1,58.84,113.63Z"/><path class="cls-3" d="M55.67,119a10.81,10.81,0,0,1,6.49.12,10.59,10.59,0,0,1-5,4.11,10.76,10.76,0,0,1-6.49-.13A10.48,10.48,0,0,1,55.67,119Z"/><path class="cls-3" d="M48.61,110.85a10.34,10.34,0,0,1,2.52,5.89,10.71,10.71,0,0,1-5.84-2.8,10.33,10.33,0,0,1-2.51-5.88A10.73,10.73,0,0,1,48.61,110.85Z"/><path class="cls-3" d="M44.72,115.73a10.75,10.75,0,0,1,6.41,1,10.64,10.64,0,0,1-5.5,3.39,10.76,10.76,0,0,1-6.4-1A10.57,10.57,0,0,1,44.72,115.73Z"/><path class="cls-3" d="M40.56,106.87a10.34,10.34,0,0,1,1.54,6.21,10.67,10.67,0,0,1-5.31-3.67,10.34,10.34,0,0,1-1.54-6.21A10.67,10.67,0,0,1,40.56,106.87Z"/><path class="cls-3" d="M35.94,111.08a10.67,10.67,0,0,1,6.16,2,10.7,10.7,0,0,1-6,2.49,10.75,10.75,0,0,1-6.17-2A10.69,10.69,0,0,1,35.94,111.08Z"/><path class="cls-3" d="M33,100.81a10.28,10.28,0,0,1,0,6.38,10.5,10.5,0,0,1-4.24-4.82,10.26,10.26,0,0,1,0-6.39A10.48,10.48,0,0,1,33,100.81Z"/><path class="cls-3" d="M27.51,103.79a10.57,10.57,0,0,1,5.49,3.4,10.78,10.78,0,0,1-6.41,1,10.68,10.68,0,0,1-5.49-3.41A10.75,10.75,0,0,1,27.51,103.79Z"/><path class="cls-3" d="M27.35,93.78a10.33,10.33,0,0,1-1.56,6.2,10.42,10.42,0,0,1-3-5.67,10.33,10.33,0,0,1,1.56-6.2A10.38,10.38,0,0,1,27.35,93.78Z"/><path class="cls-3" d="M21.27,95.4A10.48,10.48,0,0,1,25.79,100a10.74,10.74,0,0,1-6.46-.52,10.48,10.48,0,0,1-4.53-4.57A10.73,10.73,0,0,1,21.27,95.4Z"/><path class="cls-3" d="M22.5,84.94a10.4,10.4,0,0,1-2.78,5.77A10.35,10.35,0,0,1,18,84.56a10.4,10.4,0,0,1,2.78-5.77A10.35,10.35,0,0,1,22.5,84.94Z"/><path class="cls-3" d="M16.21,85.33a10.46,10.46,0,0,1,3.51,5.38,10.76,10.76,0,0,1-6.23-1.77A10.46,10.46,0,0,1,10,83.56,10.76,10.76,0,0,1,16.21,85.33Z"/><path class="cls-3" d="M20,76.5a10.49,10.49,0,0,1-3.68,5.27,10.29,10.29,0,0,1-.75-6.34,10.43,10.43,0,0,1,3.67-5.27A10.33,10.33,0,0,1,20,76.5Z"/><path class="cls-3" d="M13.72,75.92a10.33,10.33,0,0,1,2.6,5.85,10.76,10.76,0,0,1-5.87-2.72,10.36,10.36,0,0,1-2.6-5.85A10.65,10.65,0,0,1,13.72,75.92Z"/><path class="cls-3" d="M19.72,67.1a10.55,10.55,0,0,1-4.86,4.23A10.3,10.3,0,0,1,15.69,65a10.55,10.55,0,0,1,4.86-4.23A10.21,10.21,0,0,1,19.72,67.1Z"/><path class="cls-3" d="M13.79,65a10.28,10.28,0,0,1,1.07,6.29,10.53,10.53,0,0,1-5-4A10.24,10.24,0,0,1,8.76,61,10.58,10.58,0,0,1,13.79,65Z"/><path class="cls-3" d="M21.4,57.62a10.64,10.64,0,0,1-5.73,3,10.32,10.32,0,0,1,2.31-6,10.74,10.74,0,0,1,5.74-3A10.39,10.39,0,0,1,21.4,57.62Z"/><path class="cls-3" d="M16.12,54.24a10.25,10.25,0,0,1-.45,6.36,10.42,10.42,0,0,1-3.92-5.08,10.28,10.28,0,0,1,.45-6.37A10.41,10.41,0,0,1,16.12,54.24Z"/><path class="cls-3" d="M24.83,49.82a10.7,10.7,0,0,1-6.27,1.62,10.43,10.43,0,0,1,3.64-5.29,10.79,10.79,0,0,1,6.27-1.62A10.43,10.43,0,0,1,24.83,49.82Z"/><path class="cls-3" d="M20.48,45.34a10.31,10.31,0,0,1-1.92,6.1,10.39,10.39,0,0,1-2.64-5.83,10.31,10.31,0,0,1,1.92-6.1A10.39,10.39,0,0,1,20.48,45.34Z"/><path class="cls-3" d="M29.13,42.76a10.79,10.79,0,0,1-6.46.63,10.5,10.5,0,0,1,4.44-4.66,10.83,10.83,0,0,1,6.46-.62A10.45,10.45,0,0,1,29.13,42.76Z"/><path class="cls-3" d="M25.55,37.66a10.44,10.44,0,0,1-2.88,5.73A10.31,10.31,0,0,1,21,37.22a10.39,10.39,0,0,1,2.87-5.73A10.36,10.36,0,0,1,25.55,37.66Z"/><path class="cls-3" d="M77,113.18a10.44,10.44,0,0,0-3.32,5.49,10.76,10.76,0,0,0,6.17-2,10.39,10.39,0,0,0,3.32-5.48A10.71,10.71,0,0,0,77,113.18Z"/><path class="cls-3" d="M80.2,118.54a10.77,10.77,0,0,0-6.49.13,10.59,10.59,0,0,0,5,4.11,10.76,10.76,0,0,0,6.49-.13A10.59,10.59,0,0,0,80.2,118.54Z"/><path class="cls-3" d="M86,110.85a10.37,10.37,0,0,0-2.51,5.89,10.7,10.7,0,0,0,5.83-2.8,10.3,10.3,0,0,0,2.52-5.88A10.74,10.74,0,0,0,86,110.85Z"/><path class="cls-3" d="M89.85,115.73a10.73,10.73,0,0,0-6.4,1,10.59,10.59,0,0,0,5.49,3.39,10.78,10.78,0,0,0,6.41-1A10.62,10.62,0,0,0,89.85,115.73Z"/><path class="cls-3" d="M94,106.54a10.32,10.32,0,0,0-1.54,6.2,10.6,10.6,0,0,0,5.31-3.67,10.3,10.3,0,0,0,1.54-6.2A10.6,10.6,0,0,0,94,106.54Z"/><path class="cls-3" d="M98.63,110.75a10.71,10.71,0,0,0-6.17,2,10.68,10.68,0,0,0,6,2.5,10.75,10.75,0,0,0,6.17-2A10.68,10.68,0,0,0,98.63,110.75Z"/><path class="cls-3" d="M101.26,100.63a10.31,10.31,0,0,0,0,6.39,10.54,10.54,0,0,0,4.25-4.83,10.27,10.27,0,0,0,0-6.38A10.55,10.55,0,0,0,101.26,100.63Z"/><path class="cls-3" d="M106.79,103.61A10.62,10.62,0,0,0,101.3,107a9.34,9.34,0,0,0,11.9-2.41A10.8,10.8,0,0,0,106.79,103.61Z"/><path class="cls-3" d="M107.26,93.14a10.33,10.33,0,0,0,1.56,6.2,10.43,10.43,0,0,0,3-5.68,10.28,10.28,0,0,0-1.55-6.2A10.41,10.41,0,0,0,107.26,93.14Z"/><path class="cls-3" d="M113.34,94.76a10.49,10.49,0,0,0-4.52,4.58,10.77,10.77,0,0,0,6.47-.52,10.54,10.54,0,0,0,4.52-4.58A10.77,10.77,0,0,0,113.34,94.76Z"/><path class="cls-3" d="M111.56,84.77a10.4,10.4,0,0,0,2.78,5.77,10.31,10.31,0,0,0,1.77-6.14,10.4,10.4,0,0,0-2.78-5.77A10.31,10.31,0,0,0,111.56,84.77Z"/><path class="cls-3" d="M117.85,85.17a10.42,10.42,0,0,0-3.51,5.37,10.78,10.78,0,0,0,6.24-1.77,10.37,10.37,0,0,0,3.5-5.37A10.76,10.76,0,0,0,117.85,85.17Z"/><path class="cls-3" d="M114.07,76.32a10.43,10.43,0,0,0,3.67,5.27,10.33,10.33,0,0,0,.76-6.34A10.5,10.5,0,0,0,114.83,70,10.25,10.25,0,0,0,114.07,76.32Z"/><path class="cls-3" d="M120.34,75.74a10.33,10.33,0,0,0-2.6,5.85,10.68,10.68,0,0,0,5.87-2.72,10.36,10.36,0,0,0,2.6-5.85A10.68,10.68,0,0,0,120.34,75.74Z"/><path class="cls-3" d="M114.29,67.24a10.6,10.6,0,0,0,4.87,4.23,10.3,10.3,0,0,0-.83-6.33,10.55,10.55,0,0,0-4.86-4.23A10.26,10.26,0,0,0,114.29,67.24Z"/><path class="cls-3" d="M120.23,65.17a10.32,10.32,0,0,0-1.07,6.3,10.6,10.6,0,0,0,5-4,10.28,10.28,0,0,0,1.08-6.3A10.65,10.65,0,0,0,120.23,65.17Z"/><path class="cls-3" d="M112.54,57.75a10.64,10.64,0,0,0,5.73,3,10.32,10.32,0,0,0-2.31-6,10.74,10.74,0,0,0-5.74-3A10.41,10.41,0,0,0,112.54,57.75Z"/><path class="cls-3" d="M117.82,54.36a10.28,10.28,0,0,0,.45,6.37,10.41,10.41,0,0,0,3.92-5.09,10.29,10.29,0,0,0-.45-6.37A10.47,10.47,0,0,0,117.82,54.36Z"/><path class="cls-3" d="M109.2,50.08a10.74,10.74,0,0,0,6.28,1.62,10.43,10.43,0,0,0-3.64-5.29,10.83,10.83,0,0,0-6.28-1.62A10.43,10.43,0,0,0,109.2,50.08Z"/><path class="cls-3" d="M113.56,45.6a10.31,10.31,0,0,0,1.92,6.1,10.39,10.39,0,0,0,2.64-5.83,10.39,10.39,0,0,0-1.92-6.1A10.39,10.39,0,0,0,113.56,45.6Z"/><path class="cls-3" d="M104.66,43.08a10.83,10.83,0,0,0,6.46.62,10.5,10.5,0,0,0-4.45-4.65,10.79,10.79,0,0,0-6.46-.63A10.55,10.55,0,0,0,104.66,43.08Z"/><path class="cls-3" d="M108.24,38a10.36,10.36,0,0,0,2.88,5.72,10.31,10.31,0,0,0,1.66-6.17,10.34,10.34,0,0,0-2.87-5.72A10.33,10.33,0,0,0,108.24,38Z"/><path class="cls-3" d="M102.24,33a2.83,2.83,0,0,1-.48.42l-.16.11a47.6,47.6,0,0,1,17.15,36.32c0,27-23.23,48.9-51.79,48.9S15.18,96.81,15.18,69.85A47.51,47.51,0,0,1,31,34.74a4.87,4.87,0,0,1-.84-.33A48.27,48.27,0,0,0,14.34,69.85c0,27.4,23.61,49.69,52.62,49.69s52.62-22.29,52.62-49.69A48.43,48.43,0,0,0,102.24,33Z"/><path class="cls-3" d="M36.1,36.52a10.75,10.75,0,0,1-6.42-.93,10.65,10.65,0,0,1,5.46-3.46,10.8,10.8,0,0,1,6.42.94A10.6,10.6,0,0,1,36.1,36.52Z"/><path class="cls-3" d="M33.88,30.72a10.49,10.49,0,0,1-4.2,4.87,10.27,10.27,0,0,1-.09-6.39,10.5,10.5,0,0,1,4.2-4.86A10.24,10.24,0,0,1,33.88,30.72Z"/><path class="cls-3" d="M98.05,36.52a10.71,10.71,0,0,0,6.41-.93A10.6,10.6,0,0,0,99,32.13a10.8,10.8,0,0,0-6.42.94A10.6,10.6,0,0,0,98.05,36.52Z"/><path class="cls-3" d="M100.26,30.72a10.55,10.55,0,0,0,4.2,4.87,10.32,10.32,0,0,0,.1-6.39,10.55,10.55,0,0,0-4.2-4.86A10.28,10.28,0,0,0,100.26,30.72Z"/></g></g></svg>