<svg xmlns="http://www.w3.org/2000/svg" viewBox="0 0 134.06 134.06"><defs><style>.cls-1{fill:#ffdc01;}.cls-2{fill:#fff375;}</style></defs><title>Asset 1</title><g id="Layer_2" data-name="Layer 2"><g id="_Layer_" data-name="&lt;Layer&gt;"><circle class="cls-1" cx="67.03" cy="67.03" r="67.03" transform="translate(-22.9 97.01) rotate(-63.43)"/><path class="cls-2" d="M58.84,112.64a10.4,10.4,0,0,1,3.32,5.49,10.76,10.76,0,0,1-6.17-2,10.4,10.4,0,0,1-3.32-5.49A10.76,10.76,0,0,1,58.84,112.64Z"/><path class="cls-2" d="M55.67,118a10.77,10.77,0,0,1,6.49.13,10.6,10.6,0,0,1-5,4.1,10.76,10.76,0,0,1-6.49-.13A10.54,10.54,0,0,1,55.67,118Z"/><path class="cls-2" d="M48.61,109.87a10.3,10.3,0,0,1,2.52,5.88,10.71,10.71,0,0,1-5.84-2.8,10.38,10.38,0,0,1-2.52-5.88A10.71,10.71,0,0,1,48.61,109.87Z"/><path class="cls-2" d="M44.72,114.74a10.75,10.75,0,0,1,6.41,1,10.57,10.57,0,0,1-5.5,3.39,10.76,10.76,0,0,1-6.4-1A10.57,10.57,0,0,1,44.72,114.74Z"/><path class="cls-2" d="M40.56,105.88a10.34,10.34,0,0,1,1.54,6.21,10.67,10.67,0,0,1-5.31-3.67,10.32,10.32,0,0,1-1.54-6.2A10.62,10.62,0,0,1,40.56,105.88Z"/><path class="cls-2" d="M35.94,110.1a10.7,10.7,0,0,1,6.16,2,10.7,10.7,0,0,1-6,2.49,10.75,10.75,0,0,1-6.17-2A10.63,10.63,0,0,1,35.94,110.1Z"/><path class="cls-2" d="M33,99.82a10.27,10.27,0,0,1,0,6.38,10.5,10.5,0,0,1-4.24-4.82,10.26,10.26,0,0,1,0-6.39A10.54,10.54,0,0,1,33,99.82Z"/><path class="cls-2" d="M27.51,102.8A10.64,10.64,0,0,1,33,106.2a10.78,10.78,0,0,1-6.41,1,10.68,10.68,0,0,1-5.49-3.41A10.75,10.75,0,0,1,27.51,102.8Z"/><path class="cls-2" d="M27.35,92.79A10.33,10.33,0,0,1,25.79,99a10.38,10.38,0,0,1-3-5.67,10.33,10.33,0,0,1,1.56-6.2A10.38,10.38,0,0,1,27.35,92.79Z"/><path class="cls-2" d="M21.27,94.41A10.48,10.48,0,0,1,25.79,99a10.79,10.79,0,0,1-6.46-.51A10.53,10.53,0,0,1,14.8,93.9,10.82,10.82,0,0,1,21.27,94.41Z"/><path class="cls-2" d="M22.5,84a10.4,10.4,0,0,1-2.78,5.77A10.35,10.35,0,0,1,18,83.57a10.4,10.4,0,0,1,2.78-5.77A10.35,10.35,0,0,1,22.5,84Z"/><path class="cls-2" d="M16.21,84.34a10.46,10.46,0,0,1,3.51,5.38A10.76,10.76,0,0,1,13.49,88,10.46,10.46,0,0,1,10,82.57,10.76,10.76,0,0,1,16.21,84.34Z"/><path class="cls-2" d="M20,75.51a10.49,10.49,0,0,1-3.68,5.27,10.33,10.33,0,0,1-.76-6.34,10.49,10.49,0,0,1,3.68-5.27A10.33,10.33,0,0,1,20,75.51Z"/><path class="cls-2" d="M13.72,74.93a10.33,10.33,0,0,1,2.6,5.85,10.68,10.68,0,0,1-5.87-2.72,10.36,10.36,0,0,1-2.6-5.85A10.65,10.65,0,0,1,13.72,74.93Z"/><path class="cls-2" d="M19.72,66.12a10.62,10.62,0,0,1-4.86,4.23A10.33,10.33,0,0,1,15.69,64a10.62,10.62,0,0,1,4.86-4.23A10.33,10.33,0,0,1,19.72,66.12Z"/><path class="cls-2" d="M13.79,64.05a10.31,10.31,0,0,1,1.07,6.3,10.58,10.58,0,0,1-5-4A10.24,10.24,0,0,1,8.76,60,10.58,10.58,0,0,1,13.79,64.05Z"/><path class="cls-2" d="M21.4,56.63a10.71,10.71,0,0,1-5.74,3,10.39,10.39,0,0,1,2.32-6,10.69,10.69,0,0,1,5.74-3A10.37,10.37,0,0,1,21.4,56.63Z"/><path class="cls-2" d="M16.12,53.25a10.26,10.26,0,0,1-.46,6.37,10.48,10.48,0,0,1-3.91-5.09,10.28,10.28,0,0,1,.45-6.37A10.47,10.47,0,0,1,16.12,53.25Z"/><path class="cls-2" d="M24.84,48.83a10.74,10.74,0,0,1-6.28,1.62,10.43,10.43,0,0,1,3.64-5.29,10.79,10.79,0,0,1,6.27-1.62A10.45,10.45,0,0,1,24.84,48.83Z"/><path class="cls-2" d="M20.48,44.35a10.31,10.31,0,0,1-1.92,6.1,10.39,10.39,0,0,1-2.64-5.83,10.31,10.31,0,0,1,1.92-6.1A10.39,10.39,0,0,1,20.48,44.35Z"/><path class="cls-2" d="M29.13,41.77a10.79,10.79,0,0,1-6.46.63,10.5,10.5,0,0,1,4.44-4.66,10.83,10.83,0,0,1,6.46-.62A10.45,10.45,0,0,1,29.13,41.77Z"/><path class="cls-2" d="M25.55,36.67a10.44,10.44,0,0,1-2.88,5.73A10.36,10.36,0,0,1,21,36.23a10.44,10.44,0,0,1,2.88-5.73A10.36,10.36,0,0,1,25.55,36.67Z"/><path class="cls-2" d="M77,112.19a10.44,10.44,0,0,0-3.32,5.49,10.76,10.76,0,0,0,6.17-2,10.39,10.39,0,0,0,3.32-5.48A10.71,10.71,0,0,0,77,112.19Z"/><path class="cls-2" d="M80.2,117.55a10.77,10.77,0,0,0-6.49.13,10.59,10.59,0,0,0,5,4.11,10.77,10.77,0,0,0,6.49-.13A10.59,10.59,0,0,0,80.2,117.55Z"/><path class="cls-2" d="M86,109.87a10.38,10.38,0,0,0-2.52,5.88,10.71,10.71,0,0,0,5.84-2.8,10.3,10.3,0,0,0,2.52-5.88A10.71,10.71,0,0,0,86,109.87Z"/><path class="cls-2" d="M89.85,114.74a10.77,10.77,0,0,0-6.41,1,10.57,10.57,0,0,0,5.5,3.39,10.78,10.78,0,0,0,6.41-1A10.62,10.62,0,0,0,89.85,114.74Z"/><path class="cls-2" d="M94,105.55a10.32,10.32,0,0,0-1.54,6.2,10.6,10.6,0,0,0,5.31-3.67,10.3,10.3,0,0,0,1.54-6.2A10.6,10.6,0,0,0,94,105.55Z"/><path class="cls-2" d="M98.63,109.76a10.71,10.71,0,0,0-6.17,2,10.68,10.68,0,0,0,6,2.5,10.75,10.75,0,0,0,6.17-2A10.68,10.68,0,0,0,98.63,109.76Z"/><path class="cls-2" d="M101.26,99.64a10.31,10.31,0,0,0,0,6.39,10.54,10.54,0,0,0,4.25-4.83,10.28,10.28,0,0,0,0-6.38A10.55,10.55,0,0,0,101.26,99.64Z"/><path class="cls-2" d="M106.79,102.63a10.57,10.57,0,0,0-5.49,3.4,9.34,9.34,0,0,0,11.9-2.41A10.75,10.75,0,0,0,106.79,102.63Z"/><path class="cls-2" d="M107.26,92.15a10.33,10.33,0,0,0,1.56,6.2,10.43,10.43,0,0,0,3-5.68,10.28,10.28,0,0,0-1.55-6.2A10.41,10.41,0,0,0,107.26,92.15Z"/><path class="cls-2" d="M113.34,93.77a10.54,10.54,0,0,0-4.52,4.58,10.77,10.77,0,0,0,6.47-.52,10.49,10.49,0,0,0,4.52-4.58A10.77,10.77,0,0,0,113.34,93.77Z"/><path class="cls-2" d="M111.56,83.78a10.4,10.4,0,0,0,2.78,5.77,10.31,10.31,0,0,0,1.77-6.14,10.4,10.4,0,0,0-2.78-5.77A10.31,10.31,0,0,0,111.56,83.78Z"/><path class="cls-2" d="M117.85,84.18a10.42,10.42,0,0,0-3.51,5.37,10.69,10.69,0,0,0,6.24-1.77,10.37,10.37,0,0,0,3.5-5.37A10.76,10.76,0,0,0,117.85,84.18Z"/><path class="cls-2" d="M114.07,75.34a10.44,10.44,0,0,0,3.67,5.26,10.33,10.33,0,0,0,.76-6.34A10.5,10.5,0,0,0,114.83,69,10.27,10.27,0,0,0,114.07,75.34Z"/><path class="cls-2" d="M120.34,74.75a10.36,10.36,0,0,0-2.6,5.85,10.68,10.68,0,0,0,5.87-2.72,10.36,10.36,0,0,0,2.6-5.85A10.68,10.68,0,0,0,120.34,74.75Z"/><path class="cls-2" d="M114.29,66.25a10.6,10.6,0,0,0,4.87,4.23,10.3,10.3,0,0,0-.83-6.33,10.55,10.55,0,0,0-4.86-4.23A10.26,10.26,0,0,0,114.29,66.25Z"/><path class="cls-2" d="M120.23,64.18a10.32,10.32,0,0,0-1.07,6.3,10.6,10.6,0,0,0,5-4,10.28,10.28,0,0,0,1.08-6.3A10.65,10.65,0,0,0,120.23,64.18Z"/><path class="cls-2" d="M112.54,56.76a10.64,10.64,0,0,0,5.73,3,10.32,10.32,0,0,0-2.31-6,10.74,10.74,0,0,0-5.74-3A10.39,10.39,0,0,0,112.54,56.76Z"/><path class="cls-2" d="M117.82,53.38a10.25,10.25,0,0,0,.45,6.36,10.42,10.42,0,0,0,3.92-5.08,10.28,10.28,0,0,0-.45-6.37A10.41,10.41,0,0,0,117.82,53.38Z"/><path class="cls-2" d="M109.2,49.09a10.74,10.74,0,0,0,6.28,1.62,10.38,10.38,0,0,0-3.64-5.28,10.79,10.79,0,0,0-6.28-1.63A10.43,10.43,0,0,0,109.2,49.09Z"/><path class="cls-2" d="M113.56,44.61a10.31,10.31,0,0,0,1.92,6.1,10.39,10.39,0,0,0,2.64-5.83,10.39,10.39,0,0,0-1.92-6.1A10.39,10.39,0,0,0,113.56,44.61Z"/><path class="cls-2" d="M104.66,42.09a10.83,10.83,0,0,0,6.46.62,10.5,10.5,0,0,0-4.45-4.65,10.79,10.79,0,0,0-6.46-.63A10.55,10.55,0,0,0,104.66,42.09Z"/><path class="cls-2" d="M108.24,37a10.36,10.36,0,0,0,2.88,5.72,10.31,10.31,0,0,0,1.66-6.17,10.36,10.36,0,0,0-2.88-5.72A10.28,10.28,0,0,0,108.24,37Z"/><path class="cls-2" d="M102.24,32a4.12,4.12,0,0,1-.48.42l-.16.1a47.6,47.6,0,0,1,17.15,36.32c0,27-23.23,48.9-51.79,48.9S15.18,95.82,15.18,68.86A47.51,47.51,0,0,1,31,33.75a4.87,4.87,0,0,1-.84-.33A48.28,48.28,0,0,0,14.34,68.86c0,27.4,23.61,49.69,52.62,49.69s52.62-22.29,52.62-49.69A48.41,48.41,0,0,0,102.24,32Z"/><path class="cls-2" d="M36.1,35.53a10.75,10.75,0,0,1-6.42-.93,10.65,10.65,0,0,1,5.46-3.46,10.8,10.8,0,0,1,6.42.94A10.6,10.6,0,0,1,36.1,35.53Z"/><path class="cls-2" d="M33.88,29.73a10.49,10.49,0,0,1-4.2,4.87,10.27,10.27,0,0,1-.09-6.39,10.5,10.5,0,0,1,4.2-4.86A10.25,10.25,0,0,1,33.88,29.73Z"/><path class="cls-2" d="M98.05,35.53a10.71,10.71,0,0,0,6.41-.93A10.6,10.6,0,0,0,99,31.14a10.8,10.8,0,0,0-6.42.94A10.6,10.6,0,0,0,98.05,35.53Z"/><path class="cls-2" d="M100.26,29.73a10.55,10.55,0,0,0,4.2,4.87,10.32,10.32,0,0,0,.1-6.39,10.55,10.55,0,0,0-4.2-4.86A10.29,10.29,0,0,0,100.26,29.73Z"/><path class="cls-2" d="M64.1,37.63H75.66V93.31H62.1V52.64l-10.34,7-6.58-9.64Z"/></g></g></svg>