<svg xmlns="http://www.w3.org/2000/svg" width="70" height="70" viewBox="0 0 70 70"><defs><linearGradient id="4fyra" x1="35.64" x2="35.05" y1=".48" y2="70.08" gradientUnits="userSpaceOnUse"><stop offset="0" stop-color="#f16262"/><stop offset="1" stop-color="#ffabab"/></linearGradient></defs><g><g><path fill="#74758f" d="M69.086 25.208c3.084 8.773-1.5 18.395-10.239 21.491v3.23h2.239v2.245h-2.239v12.364c-.039 3.047-2.49 5.507-5.524 5.546-3.091.04-5.63-2.443-5.67-5.546V52.174h-2.238V49.93h2.24v-3.23a16.845 16.845 0 0 1-7.484-5.329l-2.344 2.354-2.73-1.352a21.04 21.04 0 0 1-5.814 2.425l-.976 2.885h-8.323l-.977-2.886a21.041 21.041 0 0 1-5.815-2.425l-2.729 1.352-5.884-5.907 1.35-2.74a21.213 21.213 0 0 1-2.416-5.838L.64 28.26v-8.353l2.87-.98a21.21 21.21 0 0 1 2.416-5.837l-1.347-2.74 5.888-5.91 2.73 1.355A21.037 21.037 0 0 1 19.01 3.37l.975-2.885h8.321l.976 2.886a21.035 21.035 0 0 1 5.814 2.425l2.73-1.357 5.888 5.912-1.347 2.742a21.23 21.23 0 0 1 1.719 3.63 16.633 16.633 0 0 1 9.168-2.753c7.117-.003 13.462 4.501 15.83 11.239zM38.874 39.492a16.75 16.75 0 0 1-1.896-4.58 16.793 16.793 0 0 1-8.807 5.526c-9.003 2.255-18.122-3.244-20.368-12.282-2.246-9.038 3.232-18.193 12.235-20.448 9.003-2.255 18.122 3.244 20.368 12.283a17.014 17.014 0 0 1 1.802-1.83 18.99 18.99 0 0 0-2.063-4.401l-.344-.535 1.192-2.428-3.615-3.628-2.417 1.2-.533-.346a18.832 18.832 0 0 0-6.242-2.603l-.62-.134-.864-2.557h-5.111l-.863 2.554-.62.135a18.827 18.827 0 0 0-6.241 2.602l-.533.345-2.418-1.196L7.3 10.8l1.194 2.425-.345.535a18.986 18.986 0 0 0-2.59 6.27l-.135.622-2.544.866v5.131l2.544.866.131.623a18.98 18.98 0 0 0 2.593 6.266l.344.534-1.192 2.428 3.614 3.63 2.418-1.197.533.345a18.828 18.828 0 0 0 6.248 2.599l.62.134.863 2.554h5.111l.863-2.554.62-.134a18.824 18.824 0 0 0 6.242-2.603l.532-.345 2.418 1.196zm-2.363-7.744v.004zm0 0c-.017-.308-.047-.611-.047-.922 0-.38.033-.748.057-1.124h-.836a3.706 3.706 0 0 0-3.699 3.712v2.947a14.63 14.63 0 0 0 4.525-4.613zm.29-4.298H36.8v.001zm-.001 0c.161-.763.375-1.513.641-2.246H36.05a4.048 4.048 0 0 1-3.643-2.26l-.606-1.212a1.825 1.825 0 0 0-1.642-1.02h-.345a4.072 4.072 0 0 1-3.954-3.1 1.837 1.837 0 0 0-1.782-1.396h-1.283a4.056 4.056 0 0 1-3.784-2.572l-1.093-2.742a14.655 14.655 0 0 0-6.049 5.382 7.31 7.31 0 0 1 5.935 4.574c.233.59.802.978 1.435.977a3.801 3.801 0 0 1 3.789 3.804v1.815c0 .62.501 1.124 1.12 1.124a3.365 3.365 0 0 1 3.302 3.315 3.366 3.366 0 0 1-3.302 3.428 3.356 3.356 0 0 0-3.318 2.97c2.974.718 6.1.458 8.915-.744v-4.14c0-3.29 2.658-5.957 5.935-5.957zm-26.135-8.855c-3.023 7.467.556 15.98 7.994 19.014a5.608 5.608 0 0 1 5.488-4.532 1.122 1.122 0 0 0 1.087-1.091 1.122 1.122 0 0 0-1.087-1.156 3.369 3.369 0 0 1-3.359-3.372v-1.815c0-.86-.694-1.556-1.55-1.557a3.77 3.77 0 0 1-3.518-2.391 5.091 5.091 0 0 0-4.749-3.228h-.254a15.76 15.76 0 0 0-.052.128zm10.42-5.782c.277.702.954 1.161 1.706 1.158h1.282a4.07 4.07 0 0 1 3.953 3.1c.204.82.939 1.397 1.782 1.396h.348a4.048 4.048 0 0 1 3.643 2.26l.604 1.212a1.824 1.824 0 0 0 1.644 1.02h2.365c.06-.116.124-.229.187-.343a14.612 14.612 0 0 0-.54-2.752c-2.296-7.706-10.381-12.083-18.057-9.776zM56.61 52.174h-6.716v12.477a3.364 3.364 0 0 0 3.415 3.315 3.366 3.366 0 0 0 3.301-3.428zm0-4.83c-2.216.451-4.5.451-6.716 0v2.585h6.716zm11.195-16.518v-.003c-.002-8.068-6.518-14.608-14.555-14.606-8.037.002-14.55 6.543-14.55 14.612.002 8.068 6.519 14.607 14.556 14.606 8.032-.011 14.54-6.546 14.549-14.61zm-14.55-12.359c6.796.01 12.301 5.537 12.311 12.359v.003c-.001 6.827-5.515 12.36-12.316 12.358-6.8-.001-12.312-5.537-12.31-12.364.001-6.827 5.515-12.36 12.316-12.359zm10.073 12.359v-.003c-.002-5.586-4.514-10.113-10.078-10.111-5.564.001-10.073 4.53-10.072 10.117.002 5.585 4.514 10.112 10.078 10.11 5.56-.007 10.065-4.531 10.072-10.113z"/><path fill="url(#4fyra)" d="M69.086 25.208c3.084 8.773-1.5 18.395-10.239 21.491v3.23h2.239v2.245h-2.239v12.364c-.039 3.047-2.49 5.507-5.524 5.546-3.091.04-5.63-2.443-5.67-5.546V52.174h-2.238V49.93h2.24v-3.23a16.845 16.845 0 0 1-7.484-5.329l-2.344 2.354-2.73-1.352a21.04 21.04 0 0 1-5.814 2.425l-.976 2.885h-8.323l-.977-2.886a21.041 21.041 0 0 1-5.815-2.425l-2.729 1.352-5.884-5.907 1.35-2.74a21.213 21.213 0 0 1-2.416-5.838L.64 28.26v-8.353l2.87-.98a21.21 21.21 0 0 1 2.416-5.837l-1.347-2.74 5.888-5.91 2.73 1.355A21.037 21.037 0 0 1 19.01 3.37l.975-2.885h8.321l.976 2.886a21.035 21.035 0 0 1 5.814 2.425l2.73-1.357 5.888 5.912-1.347 2.742a21.23 21.23 0 0 1 1.719 3.63 16.633 16.633 0 0 1 9.168-2.753c7.117-.003 13.462 4.501 15.83 11.239zM38.874 39.492a16.75 16.75 0 0 1-1.896-4.58 16.793 16.793 0 0 1-8.807 5.526c-9.003 2.255-18.122-3.244-20.368-12.282-2.246-9.038 3.232-18.193 12.235-20.448 9.003-2.255 18.122 3.244 20.368 12.283a17.014 17.014 0 0 1 1.802-1.83 18.99 18.99 0 0 0-2.063-4.401l-.344-.535 1.192-2.428-3.615-3.628-2.417 1.2-.533-.346a18.832 18.832 0 0 0-6.242-2.603l-.62-.134-.864-2.557h-5.111l-.863 2.554-.62.135a18.827 18.827 0 0 0-6.241 2.602l-.533.345-2.418-1.196L7.3 10.8l1.194 2.425-.345.535a18.986 18.986 0 0 0-2.59 6.27l-.135.622-2.544.866v5.131l2.544.866.131.623a18.98 18.98 0 0 0 2.593 6.266l.344.534-1.192 2.428 3.614 3.63 2.418-1.197.533.345a18.828 18.828 0 0 0 6.248 2.599l.62.134.863 2.554h5.111l.863-2.554.62-.134a18.824 18.824 0 0 0 6.242-2.603l.532-.345 2.418 1.196zm-2.363-7.744v.004zm0 0c-.017-.308-.047-.611-.047-.922 0-.38.033-.748.057-1.124h-.836a3.706 3.706 0 0 0-3.699 3.712v2.947a14.63 14.63 0 0 0 4.525-4.613zm.29-4.298H36.8v.001zm-.001 0c.161-.763.375-1.513.641-2.246H36.05a4.048 4.048 0 0 1-3.643-2.26l-.606-1.212a1.825 1.825 0 0 0-1.642-1.02h-.345a4.072 4.072 0 0 1-3.954-3.1 1.837 1.837 0 0 0-1.782-1.396h-1.283a4.056 4.056 0 0 1-3.784-2.572l-1.093-2.742a14.655 14.655 0 0 0-6.049 5.382 7.31 7.31 0 0 1 5.935 4.574c.233.59.802.978 1.435.977a3.801 3.801 0 0 1 3.789 3.804v1.815c0 .62.501 1.124 1.12 1.124a3.365 3.365 0 0 1 3.302 3.315 3.366 3.366 0 0 1-3.302 3.428 3.356 3.356 0 0 0-3.318 2.97c2.974.718 6.1.458 8.915-.744v-4.14c0-3.29 2.658-5.957 5.935-5.957zm-26.135-8.855c-3.023 7.467.556 15.98 7.994 19.014a5.608 5.608 0 0 1 5.488-4.532 1.122 1.122 0 0 0 1.087-1.091 1.122 1.122 0 0 0-1.087-1.156 3.369 3.369 0 0 1-3.359-3.372v-1.815c0-.86-.694-1.556-1.55-1.557a3.77 3.77 0 0 1-3.518-2.391 5.091 5.091 0 0 0-4.749-3.228h-.254a15.76 15.76 0 0 0-.052.128zm10.42-5.782c.277.702.954 1.161 1.706 1.158h1.282a4.07 4.07 0 0 1 3.953 3.1c.204.82.939 1.397 1.782 1.396h.348a4.048 4.048 0 0 1 3.643 2.26l.604 1.212a1.824 1.824 0 0 0 1.644 1.02h2.365c.06-.116.124-.229.187-.343a14.612 14.612 0 0 0-.54-2.752c-2.296-7.706-10.381-12.083-18.057-9.776zM56.61 52.174h-6.716v12.477a3.364 3.364 0 0 0 3.415 3.315 3.366 3.366 0 0 0 3.301-3.428zm0-4.83c-2.216.451-4.5.451-6.716 0v2.585h6.716zm11.195-16.518v-.003c-.002-8.068-6.518-14.608-14.555-14.606-8.037.002-14.55 6.543-14.55 14.612.002 8.068 6.519 14.607 14.556 14.606 8.032-.011 14.54-6.546 14.549-14.61zm-14.55-12.359c6.796.01 12.301 5.537 12.311 12.359v.003c-.001 6.827-5.515 12.36-12.316 12.358-6.8-.001-12.312-5.537-12.31-12.364.001-6.827 5.515-12.36 12.316-12.359zm10.073 12.359v-.003c-.002-5.586-4.514-10.113-10.078-10.111-5.564.001-10.073 4.53-10.072 10.117.002 5.585 4.514 10.112 10.078 10.11 5.56-.007 10.065-4.531 10.072-10.113z"/></g></g></svg>