<svg xmlns="http://www.w3.org/2000/svg" width="475.174" height="425.838" viewBox="0 0 475.174 425.838"><defs><style>.a{fill:#f0f0f0;}.b{fill:#06826a;}.c,.h{fill:none;stroke-miterlimit:10;}.c{stroke:#fff;stroke-linecap:round;}.d{fill:#ff3600;}.e,.j,.o,.p,.q,.v{fill:#fff;}.f,.x{fill:#37474f;}.g,.w{fill:#263238;}.h{stroke:#e6e6e6;}.i{fill:#455a64;}.j{opacity:0.7;}.k{opacity:0.2;}.l{opacity:0.45;}.m,.x{opacity:0.35;}.n{opacity:0.55;}.o,.w{opacity:0.5;}.p{opacity:0.8;}.q{opacity:0.6;}.r,.t{opacity:0.1;}.s{opacity:0.15;}.u{opacity:0.05;}.v{opacity:0.3;}</style></defs><g transform="translate(-10.126 -54.362)"><ellipse class="a" cx="215.6" cy="117.3" rx="215.6" ry="117.3" transform="translate(40.8 245.6)"/><path class="b" d="M313.8,388.5c5.2-3.1,10.4-7.4,11.5-13.4.3-1.7.3-3.5.6-5.3a6.106,6.106,0,0,1,2.7-4.4c1.5-.9,3.9-.4,4.5,1.2a14.569,14.569,0,0,1,4.6-7.7c2.4-1.9,5.9-2.6,8.5-1.2a1.314,1.314,0,0,0,1.2.3c.4-.1.6-.5.8-.8,1.4-2.4,2.7-4.9,4.7-6.7s5.1-2.8,7.6-1.6,3.6,4.2,3.8,6.9c.7,8-4.3,15.4-10.1,21,3.2.4,7,1.1,8.2,4.1a6.659,6.659,0,0,1,.4,3.1,10.912,10.912,0,0,1-5.6,8.4c-3.4,1.8-7.6,1.6-11,3.6,1,.9,2.8,1.3,2.8,2.6,0,1-1,1.6-1.9,2-5,2.4-10,4.7-15.7,5.4s-11.8-.7-15.7-5c-.4-.5-.9-1-1.3-1.6C311.9,396.2,309.4,391.1,313.8,388.5Z"/><path class="b" d="M313.8,388.5c5.2-3.1,10.4-7.4,11.5-13.4.3-1.7.3-3.5.6-5.3a6.106,6.106,0,0,1,2.7-4.4c1.5-.9,3.9-.4,4.5,1.2a14.569,14.569,0,0,1,4.6-7.7c2.4-1.9,5.9-2.6,8.5-1.2a1.314,1.314,0,0,0,1.2.3c.4-.1.6-.5.8-.8,1.4-2.4,2.7-4.9,4.7-6.7s5.1-2.8,7.6-1.6,3.6,4.2,3.8,6.9c.7,8-4.3,15.4-10.1,21,3.2.4,7,1.1,8.2,4.1a6.659,6.659,0,0,1,.4,3.1,10.912,10.912,0,0,1-5.6,8.4c-3.4,1.8-7.6,1.6-11,3.6,1,.9,2.8,1.3,2.8,2.6,0,1-1,1.6-1.9,2-5,2.4-10,4.7-15.7,5.4s-11.8-.7-15.7-5c-.4-.5-.9-1-1.3-1.6C311.9,396.2,309.4,391.1,313.8,388.5Z"/><path class="c" d="M320.4,393.1c35.6-24,36.7-41.4,36.7-41.4"/><path class="c" d="M330.7,385.7c13.2,4.5,18.6,2,18.6,2"/><path class="c" d="M337.9,379.6c-1.5-7.2,2.4-16,2.4-16"/><path class="d" d="M319.6,401.3c3-3.4,9.2-6.8,9.2-6.8-1.8,8.6.4,11.5.4,11.5a28.473,28.473,0,0,1,.7-8.7c.6-2.8.8-4.8,5-5.3a26.729,26.729,0,0,1,8.9.9,35.558,35.558,0,0,0-1.5,7.9s2.5-6.3,5.1-7.7,14.2,1.7,17.5,3.4,5,2,3.3,6.3c-1.8,4.3-6.6,13.3-7.2,12.9-8-4-14.2-3.8-14.2-3.8,9.1,4.5,11.1,9.6,11.1,9.6-3.5,7-8.4,5.9-8.4,5.9a44.279,44.279,0,0,0-12.5-8.6c4.1,3.1,5.6,11.3,5.6,11.3s-4.4,3-12.1,0a27.7,27.7,0,0,1-11.5-8.2C315.1,414.9,316.7,404.7,319.6,401.3Z"/><path class="e" d="M318.6,422.2h0a.482.482,0,0,1-.1-.6c12.1-12,37.3-22.7,46.3-22.5a.5.5,0,0,1,0,1c-8.9-.2-33.5,10.9-45.6,22.1a.764.764,0,0,1-.5.2C318.7,422.2,318.6,422.2,318.6,422.2Z"/><path class="f" d="M180.9,73V348.7a9.957,9.957,0,0,0,4.4,7.7L307.6,427c2.4,1.4,4.4.2,4.4-2.6V148.8a9.957,9.957,0,0,0-4.4-7.7L185.3,70.5C182.9,69,180.9,70.2,180.9,73Zm6.3,32.9c0-2.4,1.8-3.5,3.9-2.2l111.2,64.2a8.554,8.554,0,0,1,3.9,6.6v216c0,2.4-1.8,3.4-3.9,2.2l-111-64.2c-2.2-1.2-3.9-2.7-3.9-5.2Z"/><path class="g" d="M312,424.4V148.7a8.083,8.083,0,0,0-.5-2.7,7.974,7.974,0,0,0-.8-1.6h0l14-8.1h0a3.7,3.7,0,0,1,.5,1.1,9.4,9.4,0,0,1,.8,3.3V416.4a9.957,9.957,0,0,1-4.4,7.7l-5.1,2.9a10.036,10.036,0,0,1-8.3.3C310.3,428.2,312,427,312,424.4Z"/><path class="h" d="M252.5,379.6c0,4.5-3.2,6.3-7,4a15.387,15.387,0,0,1-7-12.1c0-4.5,3.1-6.3,7-4.1A15.842,15.842,0,0,1,252.5,379.6Z"/><path d="M249.4,116.8c0,1.9-1.3,2.7-3,1.7a6.461,6.461,0,0,1-3-5.2c0-1.9,1.3-2.7,3-1.7A6.61,6.61,0,0,1,249.4,116.8Z"/><path d="M260.5,133.9c0,1.5-1.1,2.1-2.5,1.3l-23-13.3a5.322,5.322,0,0,1-2.5-4.1c0-1.5,1.1-2.1,2.5-1.3l23,13.3A5.6,5.6,0,0,1,260.5,133.9Z"/><path class="e" d="M187.2,105.7c0-2.4,1.8-3.5,3.9-2.2l111.2,64.1a8.554,8.554,0,0,1,3.9,6.6V390.1c0,2.4-1.8,3.4-3.9,2.2l-111-64.2c-2.2-1.2-3.9-2.7-3.9-5.2Z"/><path class="i" d="M185.3,65.3l5.2-2.9a9.955,9.955,0,0,1,8.9,0L321.6,133a8.216,8.216,0,0,1,3.1,3.3l-14,8.1a8.216,8.216,0,0,0-3.1-3.3L185.4,70.4c-2.2-1.3-4.1-.5-4.4,1.9A10.083,10.083,0,0,1,185.3,65.3Z"/><path class="i" d="M299.6,177.5h0a.91.91,0,0,1-.4-.8v-1.6c0-.3.1-.5.3-.4h.1a1.135,1.135,0,0,1,.3.8v1.6C299.9,177.4,299.8,177.6,299.6,177.5Z"/><path class="i" d="M298.2,176.7h0a.91.91,0,0,1-.4-.8v-2.7c0-.3.1-.5.3-.4h.1a1.135,1.135,0,0,1,.3.8v2.7C298.5,176.6,298.3,176.7,298.2,176.7Z"/><path class="i" d="M296.8,175.9h0a.91.91,0,0,1-.4-.8v-3.9c0-.3.1-.5.3-.4h.1a1.135,1.135,0,0,1,.3.8v3.9C297.1,175.8,297,176,296.8,175.9Z"/><path class="i" d="M295.5,175.1h0a.91.91,0,0,1-.4-.8v-6.7c0-.3.1-.5.3-.5h.1a1.135,1.135,0,0,1,.3.8v6.7C295.7,175,295.6,175.2,295.5,175.1Z"/><path class="i" d="M291.9,173l-.3-.1c-.1,0-.1-.1-.1-.2v-1.2l-.3-.2c-.1,0-.1-.1-.1-.2v-.6h.1l.3.2v-3.6h.1l.2.1.1.1.1.2,1.6,4.5v.8c0,.1,0,.1-.1.1L292,172v1.2C292,173,291.9,173,291.9,173Zm1.3-1.5-1.1-3.1v2.4Z"/><path class="i" d="M289,171.2a3.447,3.447,0,0,1-1.2-1.2.349.349,0,0,1-.1-.2V167h.2l1,.6a.1.1,0,0,1,.1.1v.7h-.1l-.6-.4v1.6l.3.3c.1.1.3.2.4.3.4.3.6.2.8,0a2.059,2.059,0,0,0,.3-1.5,6.28,6.28,0,0,0-.3-1.9,3.126,3.126,0,0,0-.9-1.1.755.755,0,0,0-.8-.1H288a.1.1,0,0,1-.1-.1l-.1-.5v-.2a.749.749,0,0,1,.5-.1,1.421,1.421,0,0,1,.6.2,3.182,3.182,0,0,1,1.3,1.5,7.512,7.512,0,0,1,.5,2.6,2.877,2.877,0,0,1-.5,2C289.9,171.6,289.5,171.7,289,171.2Z"/><path class="i" d="M191.7,110.3v3.5a2.28,2.28,0,0,0,.7,1.9l4.6,2.7c.1.1.2.1.4,0,.1-.1.2-.1.2-.2a2.016,2.016,0,0,0,.3-1.1v-3.5a2.28,2.28,0,0,0-.7-1.9l-4.6-2.7c-.2-.1-.4-.1-.6.2A2.607,2.607,0,0,0,191.7,110.3Zm5.8,7.4a.188.188,0,0,1-.3,0l-4.6-2.7a1.553,1.553,0,0,1-.5-1.4v-3.5a.9.9,0,0,1,.1-.5h.3l4.6,2.6a1.553,1.553,0,0,1,.5,1.4v3.5a1.083,1.083,0,0,1-.1.6Z"/><path class="i" d="M196.7,112.8a1.5,1.5,0,0,1,.4,1.1v3.2H197l-2.5-1.4v-4.1Z"/><path class="i" d="M191.8,110.4v3.3l-.3-.2a2.059,2.059,0,0,1-.3-1.5v-.6c0-.7.1-1.2.3-1.1Z"/><path class="i" d="M282.3,164.8a2.463,2.463,0,0,1,.9,1.9c0,.8-.4,1.1-.9.9a2.463,2.463,0,0,1-.9-1.9C281.4,164.9,281.8,164.6,282.3,164.8Z"/><path class="i" d="M281.7,162.3a1.2,1.2,0,0,0-1.5,1,.821.821,0,0,0,.1.7h0c.2.3.4.4.5.1,0-.1.1-.2.1-.3a.948.948,0,0,1,1.3-.2,3.821,3.821,0,0,1,1.5,2.2c.1.3.3.6.5.5h0a.614.614,0,0,0,.1-.6,4.866,4.866,0,0,0-2.1-3.1A.55.55,0,0,0,281.7,162.3Z"/><path class="i" d="M282,160.2a2.128,2.128,0,0,0-2.8,1,.783.783,0,0,0,.1.8h0c.2.3.4.4.5.2,0-.1.1-.2.2-.3a1.661,1.661,0,0,1,2.4-.4,6.507,6.507,0,0,1,2.6,3.7c.1.3.4.5.5.4h0c.2-.1.2-.4.1-.7a8.634,8.634,0,0,0-3.2-4.6C282.2,160.3,282.1,160.2,282,160.2Z"/><path class="i" d="M251.2,143.8v-.1h.1l.2.1h.1l.1.1,1.2,2.1v.4l-.1.2h-.1l-.1-.1-.9-1.6v4.8h-.1l-.2-.1-.1-.1v-.2Z"/><path class="i" d="M250.3,144.9l.1.1v.9h-.1l-.4-.2a.1.1,0,0,1-.1-.1v-.9h.1Zm0,3,.1.1v.9h-.1l-.4-.2a.1.1,0,0,1-.1-.1v-.9h.1Z"/><path class="i" d="M246.9,147l-.1-.1v-1.4l-.5-.3-.1-.1v-.6h.1l.5.3v-3.7h.1l.2.1a.1.1,0,0,1,.1.1c0,.1.1.1.1.2l1.8,4.6a.367.367,0,0,1,.1.3v.4h-.1l-1.8-1V147h-.4Zm1.7-1.3-1.2-3.1V145Z"/><path class="i" d="M245.3,144.5h.1l.3.2.1.1v.2a.9.9,0,0,1-.1.5q0,.15-.3.3a.749.749,0,0,1-.5.1,1.422,1.422,0,0,1-.6-.2,2.182,2.182,0,0,1-.5-.4,2.092,2.092,0,0,1-.4-.6c-.1-.2-.2-.5-.3-.7a2.485,2.485,0,0,1-.1-.8,1.7,1.7,0,0,1,.1-.7c0-.2.1-.3.3-.4a.6.6,0,0,1,.4-.1c.2,0,.3.1.5.2l-.9-2.2c0-.1-.1-.1-.1-.2v-.9h.1l2.2,1.3a.1.1,0,0,1,.1.1v.6h-.1L244,140l1,2.2v.8h-.1l-.5-.3a.367.367,0,0,0-.3-.1h-.3a.215.215,0,0,0-.2.2c0,.1-.1.3-.1.4a.749.749,0,0,0,.1.5.52.52,0,0,0,.2.4c.1.1.2.3.3.4l.3.3c.1.1.3.1.4.2h.3c.1,0,.1-.1.2-.2v-.3Z"/><path class="d" d="M269.5,220.5l23.9,13.8a2.167,2.167,0,0,0,2.2,0l.3-.2a2.144,2.144,0,0,0,1.1-1.9V204.6a2.367,2.367,0,0,0-1.1-1.9L272,188.9a2.167,2.167,0,0,0-2.2,0l-.3.2a2.144,2.144,0,0,0-1.1,1.9v27.6A2.705,2.705,0,0,0,269.5,220.5Z"/><path class="j" d="M269.6,188.9l.3-.2a2.8,2.8,0,0,1,2.2,0L296,202.5a3.043,3.043,0,0,1,.8.8l-2.6,1.5a3.044,3.044,0,0,0-.8-.8l-23.9-13.8c-.6-.3-1-.1-1.1.4A2.982,2.982,0,0,1,269.6,188.9Z"/><path class="k" d="M294.5,233.6V206a2.016,2.016,0,0,0-.3-1.1l2.6-1.5a2.016,2.016,0,0,1,.3,1.1v27.6A2.367,2.367,0,0,1,296,234l-.3.2a2.324,2.324,0,0,1-2,.1C294.2,234.5,294.6,234.3,294.5,233.6Z"/><path class="e" d="M277.5,211.2a9.435,9.435,0,0,0,4,7.7c2.2,1.3,4-.1,4-3a9.435,9.435,0,0,0-4-7.7C279.3,206.9,277.5,208.3,277.5,211.2Z"/><path class="e" d="M289.2,209.7l-1.8-1v-.9l1.8,1Z"/><path class="e" d="M271.9,202.1v13.2a2.8,2.8,0,0,0,1.2,2.3l16.8,9.7c.6.4,1.2,0,1.2-.9V213.3a2.8,2.8,0,0,0-1.2-2.3l-3.4-2a2.935,2.935,0,0,1-1.2-2.3,3.1,3.1,0,0,0-1.2-2.3l-5.2-3c-.7-.4-1.2,0-1.2.9s-.5,1.3-1.2.9l-3.4-2C272.4,200.8,271.9,201.2,271.9,202.1Zm4.6,8.6c0-3.7,2.3-5.4,5-3.8,2.8,1.6,5,5.9,5,9.6s-2.3,5.4-5,3.8C278.7,218.7,276.5,214.4,276.5,210.7Zm-.2-4.2a1.612,1.612,0,0,1-.6-1.3c0-.5.3-.7.6-.5a1.371,1.371,0,0,1,.6,1.3c.2.5-.1.7-.6.5Z"/><path class="b" d="M269.5,305.1l23.9,13.8a2.8,2.8,0,0,0,2.2,0l.3-.2a2.144,2.144,0,0,0,1.1-1.9V289.2a2.367,2.367,0,0,0-1.1-1.9L272,273.5a2.167,2.167,0,0,0-2.2,0l-.3.2a2.144,2.144,0,0,0-1.1,1.9v27.6A2.705,2.705,0,0,0,269.5,305.1Z"/><path class="f" d="M268.4,275.5v27.6a2.367,2.367,0,0,0,1.1,1.9l23.9,13.8c.6.3,1.1.1,1.1-.6V290.6a2.367,2.367,0,0,0-1.1-1.9l-23.9-13.8C268.9,274.5,268.4,274.7,268.4,275.5Z"/><path class="i" d="M269.5,273.6l.3-.2a2.8,2.8,0,0,1,2.2,0l24,13.8a3.044,3.044,0,0,1,.8.8l-2.6,1.5a3.044,3.044,0,0,0-.8-.8l-23.9-13.8c-.6-.3-1-.1-1.1.4A3.369,3.369,0,0,1,269.5,273.6Z"/><path class="g" d="M294.5,318.3V290.7a2.016,2.016,0,0,0-.3-1.1l2.6-1.5a2.016,2.016,0,0,1,.3,1.1v27.6a2.367,2.367,0,0,1-1.1,1.9l-.3.2a2.324,2.324,0,0,1-2,.1C294.2,319.2,294.6,318.9,294.5,318.3Z"/><path class="e" d="M271.6,294.1l1,3.5a1,1,0,0,0,.5.4l2,.5a1,1,0,0,1,.5.4,11.781,11.781,0,0,0,1.1,1.9,1.087,1.087,0,0,1,.1.5l-.7,2.2c0,.2,0,.4.2.5l2.4,2.6a.367.367,0,0,0,.3.1h0l1.1-1.7a.446.446,0,0,1,.5,0l.6.4c.2.1.5.3.7.4a1.2,1.2,0,0,1,.5.5l1.2,3.2a.55.55,0,0,0,.5.3l2.2.2h.2c.1,0,.1-.1.1-.2l-.7-3.1a.52.52,0,0,1,.2-.4,2.664,2.664,0,0,0,1-.6.44.44,0,0,1,.5.1l2.2,2a.31.31,0,0,0,.2.1h.1v-.1l1-2.2a.749.749,0,0,0-.1-.5l-2.1-2.5a1.421,1.421,0,0,1-.2-.6,5.437,5.437,0,0,0,0-1.8h0a.265.265,0,0,1,.3-.3l1.9-.1c.3,0,.3-.2.3-.3l-1-3.5a1,1,0,0,0-.5-.4l-2-.5a1,1,0,0,1-.5-.4,11.781,11.781,0,0,0-1.1-1.9,1.087,1.087,0,0,1-.1-.5l.7-2.2a.764.764,0,0,0-.2-.5l-2.4-2.6a.3.3,0,0,0-.4,0l-1.1,1.7a.446.446,0,0,1-.5,0,14.8,14.8,0,0,0-1.3-.8,1.2,1.2,0,0,1-.5-.5l-1.2-3.2a.55.55,0,0,0-.5-.3l-2.2-.2h-.2c-.1,0-.1.1-.1.2l.7,3.1a.52.52,0,0,1-.2.4,2.664,2.664,0,0,0-1,.6.44.44,0,0,1-.5-.1l-2.2-2a.367.367,0,0,0-.3-.1h0v.1l-1,2.2a.44.44,0,0,0,.1.5l2.1,2.5a1.421,1.421,0,0,1,.2.6v1.8h0a.265.265,0,0,1-.3.3l-1.9.1h-.1A.349.349,0,0,1,271.6,294.1Zm11.1,8.3a6.986,6.986,0,0,1-2.9-1.9c-2.2-2.3-3.3-5.9-2.4-8a2.428,2.428,0,0,1,1.7-1.4h.3a3.653,3.653,0,0,1,1.5.3,2.187,2.187,0,0,1,.5.3,10.916,10.916,0,0,1,1.7,1.3,9.742,9.742,0,0,1,2.7,6.2v.6a3.546,3.546,0,0,1-.3,1.1,2.175,2.175,0,0,1-2,1.4h-.8v.1Z"/><path class="e" d="M280.5,299c-1.3-1.4-2-3.5-1.4-4.8a1.589,1.589,0,0,1,1-.8h.2a2.92,2.92,0,0,1,.9.2l.3.2a3.916,3.916,0,0,1,1,.8,5.685,5.685,0,0,1,1.6,3.7v.4a1.854,1.854,0,0,1-.2.7,1.213,1.213,0,0,1-1.3.8h-.5A3.568,3.568,0,0,1,280.5,299Z"/><path class="b" d="M196.2,178.1l24,13.8a2.167,2.167,0,0,0,2.2,0l.3-.2a2.144,2.144,0,0,0,1.1-1.9V162.2a2.367,2.367,0,0,0-1.1-1.9l-24-13.8a2.167,2.167,0,0,0-2.2,0l-.3.2a2.144,2.144,0,0,0-1.1,1.9v27.6A2.144,2.144,0,0,0,196.2,178.1Z"/><path class="b" d="M195.1,148.5v27.6a2.367,2.367,0,0,0,1.1,1.9l24,13.8c.6.4,1.1.1,1.1-.6V163.6a2.367,2.367,0,0,0-1.1-1.9l-24-13.8C195.6,147.5,195.1,147.8,195.1,148.5Z"/><path class="l" d="M195.1,148.5v27.6a2.367,2.367,0,0,0,1.1,1.9l24,13.8c.6.4,1.1.1,1.1-.6V163.6a2.367,2.367,0,0,0-1.1-1.9l-24-13.8C195.6,147.5,195.1,147.8,195.1,148.5Z"/><path class="m" d="M196.3,146.6l.3-.2a2.8,2.8,0,0,1,2.2,0l23.9,13.8a3.043,3.043,0,0,1,.8.8l-2.6,1.5a3.043,3.043,0,0,0-.8-.8l-23.9-13.8c-.6-.3-1-.1-1.1.4A2.488,2.488,0,0,1,196.3,146.6Z"/><path class="n" d="M221.2,191.3V163.7a2.016,2.016,0,0,0-.3-1.1l2.6-1.5a2.016,2.016,0,0,1,.3,1.1v27.6a2.367,2.367,0,0,1-1.1,1.9l-.3.2a2.324,2.324,0,0,1-2,.1C221,192.2,221.3,191.9,221.2,191.3Z"/><path class="e" d="M217.2,182.4c0,.6-.3,1-.8.7l-16.5-9.6a2.088,2.088,0,0,1-.8-1.6V158.4l8.6,14.9c.3.5.6.7.9.5l8.6-5Z"/><path class="e" d="M207.8,171.3l-8.6-14.6,18.1,10.4-8.6,4.7C208.4,172,208,171.8,207.8,171.3Z"/><path class="b" d="M232.9,199.3l24,13.8a2.8,2.8,0,0,0,2.2,0l.3-.2a2.144,2.144,0,0,0,1.1-1.9V183.4a2.367,2.367,0,0,0-1.1-1.9l-24-13.8a2.8,2.8,0,0,0-2.2,0l-.3.2a2.144,2.144,0,0,0-1.1,1.9v27.7A2.386,2.386,0,0,0,232.9,199.3Z"/><path class="b" d="M231.8,169.7v27.6a2.367,2.367,0,0,0,1.1,1.9l24,13.8c.6.3,1.1.1,1.1-.6V184.7a2.367,2.367,0,0,0-1.1-1.9l-24-13.8C232.2,168.7,231.8,169,231.8,169.7Z"/><path class="o" d="M231.8,169.7v27.6a2.367,2.367,0,0,0,1.1,1.9l24,13.8c.6.3,1.1.1,1.1-.6V184.7a2.367,2.367,0,0,0-1.1-1.9l-24-13.8C232.2,168.7,231.8,169,231.8,169.7Z"/><path class="p" d="M232.9,167.8l.3-.2a2.8,2.8,0,0,1,2.2,0l23.9,13.8a3.043,3.043,0,0,1,.8.8l-2.6,1.5a3.044,3.044,0,0,0-.8-.8L232.9,169c-.6-.3-1-.1-1.1.4A2.268,2.268,0,0,1,232.9,167.8Z"/><path class="q" d="M257.9,212.4V184.8a2.016,2.016,0,0,0-.3-1.1l2.6-1.5a2.016,2.016,0,0,1,.3,1.1V211a2.367,2.367,0,0,1-1.1,1.9l-.3.2a2.324,2.324,0,0,1-2,.1C257.6,213.4,257.9,213.1,257.9,212.4Z"/><path class="i" d="M239.4,199.7c2.6,2.1,3.9.6,4.4-.2a9.509,9.509,0,0,0,2,1.5c4.2,2.4,7.5-.2,7.5-5.8s-3.4-12.1-7.5-14.5c-4.2-2.4-7.5.2-7.5,5.8a19.5,19.5,0,0,0,2.8,9.5C240.8,198.9,239.4,199.6,239.4,199.7Z"/><path class="b" d="M269.5,262.8l23.9,13.8a2.8,2.8,0,0,0,2.2,0l.3-.2a2.144,2.144,0,0,0,1.1-1.9V246.9a2.367,2.367,0,0,0-1.1-1.9L272,231.2a2.167,2.167,0,0,0-2.2,0l-.3.2a2.144,2.144,0,0,0-1.1,1.9v27.6A3.113,3.113,0,0,0,269.5,262.8Z"/><path class="b" d="M268.4,233.2v27.6a2.367,2.367,0,0,0,1.1,1.9l23.9,13.8c.6.3,1.1.1,1.1-.6V248.3a2.367,2.367,0,0,0-1.1-1.9l-23.9-13.8C268.9,232.2,268.4,232.5,268.4,233.2Z"/><path class="o" d="M268.4,233.2v27.6a2.367,2.367,0,0,0,1.1,1.9l23.9,13.8c.6.3,1.1.1,1.1-.6V248.3a2.367,2.367,0,0,0-1.1-1.9l-23.9-13.8C268.9,232.2,268.4,232.5,268.4,233.2Z"/><path class="p" d="M269.6,231.2l.3-.2a2.8,2.8,0,0,1,2.2,0L296,244.8a3.043,3.043,0,0,1,.8.8l-2.6,1.5a3.044,3.044,0,0,0-.8-.8l-23.9-13.8c-.6-.3-1-.1-1.1.4A3.346,3.346,0,0,1,269.6,231.2Z"/><path class="q" d="M294.5,276V248.4a2.016,2.016,0,0,0-.3-1.1l2.6-1.5a2.016,2.016,0,0,1,.3,1.1v27.6a2.367,2.367,0,0,1-1.1,1.9l-.3.2a2.324,2.324,0,0,1-2,.1C294.2,276.9,294.6,276.6,294.5,276Z"/><path class="e" d="M277.8,257.7a19.7,19.7,0,0,0,7.7,9.4,7.128,7.128,0,0,0,5.3,1,12.078,12.078,0,0,1-5.2-4.8,3.552,3.552,0,0,0,.9.4,2.021,2.021,0,0,0,2.3-1.7,3.915,3.915,0,0,1-1.6-1c1.7.5,2.8-.8,2.8-3a3.049,3.049,0,0,1-1.6-.3c1.5-.5,2-2.9,1.1-5.5-1.7,1.8-4.2,2.2-7.1.7a8.157,8.157,0,0,0-3.4-7.6,2.1,2.1,0,0,0-2.6,0,12.558,12.558,0,0,1-2.2-2.4,10.388,10.388,0,0,0,1.5,3.4,11.9,11.9,0,0,1-2-1.9,21.581,21.581,0,0,0,1.7,3.4,26.18,26.18,0,0,0,2.4,9.9"/><path class="b" d="M232.9,241.6l24,13.8a2.8,2.8,0,0,0,2.2,0l.3-.2a2.144,2.144,0,0,0,1.1-1.9V225.7a2.367,2.367,0,0,0-1.1-1.9l-24-13.8a2.8,2.8,0,0,0-2.2,0l-.3.2a2.144,2.144,0,0,0-1.1,1.9v27.6A2.265,2.265,0,0,0,232.9,241.6Z"/><path class="b" d="M231.8,212v27.6a2.367,2.367,0,0,0,1.1,1.9l24,13.8c.6.3,1.1.1,1.1-.6V227.1a2.367,2.367,0,0,0-1.1-1.9l-24-13.8C232.2,211,231.8,211.3,231.8,212Z"/><path class="j" d="M232.9,210.1l.3-.2a2.8,2.8,0,0,1,2.2,0l23.9,13.8a3.043,3.043,0,0,1,.8.8l-2.6,1.5a3.044,3.044,0,0,0-.8-.8l-23.9-13.8c-.6-.3-1-.1-1.1.4A2.982,2.982,0,0,1,232.9,210.1Z"/><path class="k" d="M257.9,254.8V227.2a2.016,2.016,0,0,0-.3-1.1l2.6-1.5a2.016,2.016,0,0,1,.3,1.1v27.6a2.367,2.367,0,0,1-1.1,1.9l-.3.2a2.324,2.324,0,0,1-2,.1C257.6,255.7,257.9,255.4,257.9,254.8Z"/><path class="e" d="M244.8,224.7c2.1,1.2,2.4,1.4,3.2,1.9a7.887,7.887,0,0,1,1.5,1.2,7.3,7.3,0,0,1,1.5,2.9,7.613,7.613,0,0,1,.3,2.1v8.6a5.663,5.663,0,0,1-.3,1.8,1.8,1.8,0,0,1-.6.9,1.613,1.613,0,0,1-.9.3,4.424,4.424,0,0,1-1.5-.5c-.8-.4-1.1-.6-3.2-1.8s-2.4-1.4-3.2-1.9a7.887,7.887,0,0,1-1.5-1.2,3.805,3.805,0,0,1-.9-1.3,4.418,4.418,0,0,1-.6-1.6,7.613,7.613,0,0,1-.3-2.1v-8.6a5.663,5.663,0,0,1,.3-1.8,1.8,1.8,0,0,1,.6-.9,1.613,1.613,0,0,1,.9-.3,4.424,4.424,0,0,1,1.5.5,20.846,20.846,0,0,1,3.2,1.8m0-2a25.376,25.376,0,0,0-3.3-1.8,4.674,4.674,0,0,0-1.9-.6,1.792,1.792,0,0,0-1.4.4,2.3,2.3,0,0,0-.9,1.4,10.039,10.039,0,0,0-.4,2.4v8.7a9.034,9.034,0,0,0,.4,2.8,11.725,11.725,0,0,0,.9,2.4,8.855,8.855,0,0,0,3.3,3.6c.9.5,1.1.7,3.3,2a25.376,25.376,0,0,0,3.3,1.8,4.674,4.674,0,0,0,1.9.6,2.3,2.3,0,0,0,1.4-.4,2.379,2.379,0,0,0,.9-1.3,10.039,10.039,0,0,0,.4-2.4v-8.8a9.034,9.034,0,0,0-.4-2.8,9.889,9.889,0,0,0-.9-2.4,9.022,9.022,0,0,0-1.4-2,9.5,9.5,0,0,0-1.9-1.6c-.8-.5-1.1-.7-3.3-2"/><path class="e" d="M244.8,227.9c-2.3-1.3-4.1.1-4.1,3.1a9.714,9.714,0,0,0,4.1,7.8c2.3,1.3,4.1-.1,4.1-3.1a9.586,9.586,0,0,0-4.1-7.8m0,9.1a6.848,6.848,0,0,1-2.7-5.1c0-2,1.2-2.8,2.7-2a6.848,6.848,0,0,1,2.7,5.1c0,2-1.2,2.8-2.7,2"/><path class="e" d="M248.4,229.5c0-.7.4-1,1-.7a2.534,2.534,0,0,1,1,1.8c0,.7-.4,1-1,.7a2.006,2.006,0,0,1-1-1.8"/><path class="b" d="M196.2,220.5l24,13.8a2.167,2.167,0,0,0,2.2,0l.3-.2a2.144,2.144,0,0,0,1.1-1.9V204.6a2.367,2.367,0,0,0-1.1-1.9l-24-13.8a2.167,2.167,0,0,0-2.2,0l-.3.2a2.144,2.144,0,0,0-1.1,1.9v27.6A2.4,2.4,0,0,0,196.2,220.5Z"/><path class="f" d="M195.1,190.9v27.6a2.367,2.367,0,0,0,1.1,1.9l24,13.8c.6.4,1.1.1,1.1-.6V206a2.367,2.367,0,0,0-1.1-1.9l-24-13.8C195.6,189.9,195.1,190.2,195.1,190.9Z"/><path class="i" d="M196.3,188.9l.3-.2a2.8,2.8,0,0,1,2.2,0l23.9,13.8a3.043,3.043,0,0,1,.8.8l-2.6,1.5a3.043,3.043,0,0,0-.8-.8l-23.9-13.8c-.6-.3-1-.1-1.1.4A2.3,2.3,0,0,1,196.3,188.9Z"/><path class="g" d="M221.2,233.6V206a2.016,2.016,0,0,0-.3-1.1l2.6-1.5a2.016,2.016,0,0,1,.3,1.1v27.6a2.367,2.367,0,0,1-1.1,1.9l-.3.2a2.324,2.324,0,0,1-2,.1C221,234.5,221.3,234.3,221.2,233.6Z"/><path class="e" d="M200.6,223.2l3.6,1.9v-13l3,1.6v-4.3l-3-1.7v-2.5a2.054,2.054,0,0,1,.9-2l2.6,1.1.1-3.7-3.3-1.6c-2.1-.8-4.1.2-4,3.2v3.5l-2-1.4v4.8l2,1Z"/><path class="b" d="M232.9,283.9l24,13.8a2.167,2.167,0,0,0,2.2,0l.3-.2a2.144,2.144,0,0,0,1.1-1.9V268a2.367,2.367,0,0,0-1.1-1.9l-24-13.8a2.8,2.8,0,0,0-2.2,0l-.3.2a2.144,2.144,0,0,0-1.1,1.9V282A2.144,2.144,0,0,0,232.9,283.9Z"/><path class="b" d="M231.8,254.3V282a2.144,2.144,0,0,0,1.1,1.9l24,13.8c.6.4,1.1.1,1.1-.6V269.5a2.367,2.367,0,0,0-1.1-1.9l-24-13.8C232.2,253.3,231.8,253.6,231.8,254.3Z"/><path class="l" d="M231.8,254.3V282a2.144,2.144,0,0,0,1.1,1.9l24,13.8c.6.4,1.1.1,1.1-.6V269.5a2.367,2.367,0,0,0-1.1-1.9l-24-13.8C232.2,253.3,231.8,253.6,231.8,254.3Z"/><path class="m" d="M232.9,252.4l.3-.2a2.8,2.8,0,0,1,2.2,0L259.3,266a3.044,3.044,0,0,1,.8.8l-2.6,1.5a3.044,3.044,0,0,0-.8-.8l-23.9-13.8c-.6-.3-1-.1-1.1.4A2.982,2.982,0,0,1,232.9,252.4Z"/><path class="n" d="M257.9,297.1V269.5a2.016,2.016,0,0,0-.3-1.1l2.6-1.5a2.016,2.016,0,0,1,.3,1.1v27.6a2.367,2.367,0,0,1-1.1,1.9l-.3.2a2.324,2.324,0,0,1-2,.1C257.6,298,257.9,297.7,257.9,297.1Z"/><path class="e" d="M239,259.3v15.1a3.1,3.1,0,0,0-1.3.6,6.213,6.213,0,0,0-2.8,4.8c0,1.8,1.3,2.5,2.8,1.6a7.807,7.807,0,0,0,3.4-5.2V264.1l8.9,5.5V283a3.1,3.1,0,0,0-1.3.6,5.327,5.327,0,0,0-2.3,4.5c0,1.8,1.3,2.5,2.8,1.6a6.213,6.213,0,0,0,2.8-4.8h0V266.8Z"/><path class="b" d="M269.5,347.4l23.9,13.8a2.8,2.8,0,0,0,2.2,0l.3-.2a2.144,2.144,0,0,0,1.1-1.9V331.5a2.367,2.367,0,0,0-1.1-1.9L272,315.8a2.167,2.167,0,0,0-2.2,0l-.3.2a2.144,2.144,0,0,0-1.1,1.9v27.6A2.654,2.654,0,0,0,269.5,347.4Z"/><path class="b" d="M268.4,317.8v27.6a2.367,2.367,0,0,0,1.1,1.9l23.9,13.8c.6.3,1.1.1,1.1-.6V332.9a2.367,2.367,0,0,0-1.1-1.9l-23.9-13.8C268.9,316.8,268.4,317.1,268.4,317.8Z"/><path class="j" d="M269.6,315.9l.3-.2a2.8,2.8,0,0,1,2.2,0L296,329.5a3.044,3.044,0,0,1,.8.8l-2.6,1.5a3.044,3.044,0,0,0-.8-.8l-23.9-13.8c-.6-.3-1-.1-1.1.4A2.982,2.982,0,0,1,269.6,315.9Z"/><path class="k" d="M294.5,360.6V333a2.016,2.016,0,0,0-.3-1.1l2.6-1.5a2.016,2.016,0,0,1,.3,1.1v27.6A2.367,2.367,0,0,1,296,361l-.3.2a2.324,2.324,0,0,1-2,.1C294.2,361.5,294.6,361.2,294.5,360.6Z"/><path class="e" d="M290.3,332.8l-17.6-10.1c-.6-.3-1.1-.1-1.1.6v20.3a2.367,2.367,0,0,0,1.1,1.9l17.6,10.1c.6.3,1.1.1,1.1-.6V334.7A2.4,2.4,0,0,0,290.3,332.8Zm-17.4-8.6,17.4,10v14.3l-6.1-9.7-6.4,4.3,1.9-2.2-2.5-3.2-4.3,2.5Z"/><path class="e" d="M278.4,332.8c0,.9-.6,1.3-1.4.8a2.906,2.906,0,0,1-1.4-2.4c0-.9.6-1.3,1.4-.8A3.164,3.164,0,0,1,278.4,332.8Z"/><path class="b" d="M232.9,326.2l24,13.8a2.167,2.167,0,0,0,2.2,0l.3-.2a2.144,2.144,0,0,0,1.1-1.9V310.3a2.367,2.367,0,0,0-1.1-1.9l-24-13.8a2.8,2.8,0,0,0-2.2,0l-.3.2a2.144,2.144,0,0,0-1.1,1.9v27.6A2.144,2.144,0,0,0,232.9,326.2Z"/><path class="o" d="M231.8,296.7v27.6a2.144,2.144,0,0,0,1.1,1.9l24,13.8c.6.4,1.1.1,1.1-.6V311.8a2.367,2.367,0,0,0-1.1-1.9l-24-13.8C232.2,295.6,231.8,295.9,231.8,296.7Z"/><path class="p" d="M232.9,294.7l.3-.2a2.8,2.8,0,0,1,2.2,0l23.9,13.8a3.044,3.044,0,0,1,.8.8l-2.6,1.5a3.044,3.044,0,0,0-.8-.8L232.9,296c-.6-.3-1-.1-1.1.4A2.454,2.454,0,0,1,232.9,294.7Z"/><path class="q" d="M257.9,339.4V311.8a2.016,2.016,0,0,0-.3-1.1l2.6-1.5a2.016,2.016,0,0,1,.3,1.1v27.6a2.367,2.367,0,0,1-1.1,1.9l-.3.2a2.324,2.324,0,0,1-2,.1C257.6,340.3,257.9,340,257.9,339.4Z"/><path class="i" d="M249.1,314.5c0,2.6-1.8,3.6-4.1,2.4a9.248,9.248,0,0,1-4.1-7.1c0-2.6,1.8-3.6,4.1-2.3A8.906,8.906,0,0,1,249.1,314.5Z"/><path class="i" d="M237,322.2s1.6,2.7,7.9,6.4,7.9,2.7,7.9,2.7v-1.1a14.858,14.858,0,0,0-6.7-11.6l-2.3-1.3c-3.7-2.1-6.7-.2-6.7,4Z"/><path class="b" d="M196.2,305.1l24,13.8a2.8,2.8,0,0,0,2.2,0l.3-.2a2.144,2.144,0,0,0,1.1-1.9V289.2a2.367,2.367,0,0,0-1.1-1.9l-24-13.8a2.167,2.167,0,0,0-2.2,0l-.3.1a2.144,2.144,0,0,0-1.1,1.9v27.6A2.306,2.306,0,0,0,196.2,305.1Z"/><path class="f" d="M195.1,275.5v27.6a2.367,2.367,0,0,0,1.1,1.9l24,13.8c.6.3,1.1.1,1.1-.6V290.6a2.367,2.367,0,0,0-1.1-1.9l-24-13.8C195.6,274.5,195.1,274.7,195.1,275.5Z"/><path class="i" d="M196.2,273.6l.3-.2a2.8,2.8,0,0,1,2.2,0l24,13.8a3.044,3.044,0,0,1,.8.8l-2.6,1.5a3.043,3.043,0,0,0-.8-.8l-23.9-13.8c-.6-.3-1-.1-1.1.4A2.454,2.454,0,0,1,196.2,273.6Z"/><path class="g" d="M221.2,318.3V290.7a2.016,2.016,0,0,0-.3-1.1l2.6-1.5a2.016,2.016,0,0,1,.3,1.1v27.6a2.367,2.367,0,0,1-1.1,1.9l-.3.2a2.324,2.324,0,0,1-2,.1C221,319.2,221.3,318.9,221.2,318.3Z"/><path class="e" d="M198.4,287.2v8a8.355,8.355,0,0,0,3.8,6.4l12,6.9c2.1,1.2,3.8.2,3.8-2.2v-8a8.355,8.355,0,0,0-3.8-6.4l-12-6.9C200.1,283.9,198.4,284.9,198.4,287.2Zm7.2,13.9.6-9.8c0-.5.3-.6.6-.2l4.2,5.5a.948.948,0,0,1-.2,1.3h0l-4.6,3.5c-.4.4-.7.2-.6-.3Z"/><path class="d" d="M196.2,262.8l24,13.8a2.8,2.8,0,0,0,2.2,0l.3-.2a2.144,2.144,0,0,0,1.1-1.9V246.9a2.367,2.367,0,0,0-1.1-1.9l-24-13.8a2.167,2.167,0,0,0-2.2,0l-.3.2a2.144,2.144,0,0,0-1.1,1.9v27.6A2.4,2.4,0,0,0,196.2,262.8Z"/><path class="j" d="M196.3,231.2l.3-.2a2.8,2.8,0,0,1,2.2,0l23.9,13.8a3.043,3.043,0,0,1,.8.8l-2.6,1.5a3.043,3.043,0,0,0-.8-.8l-23.9-13.8c-.6-.3-1-.1-1.1.4A2.488,2.488,0,0,1,196.3,231.2Z"/><path class="k" d="M221.2,276V248.4a2.016,2.016,0,0,0-.3-1.1l2.6-1.5a2.016,2.016,0,0,1,.3,1.1v27.6a2.367,2.367,0,0,1-1.1,1.9l-.3.2a2.324,2.324,0,0,1-2,.1C221,276.9,221.3,276.6,221.2,276Z"/><path class="e" d="M208.8,246.1l1.8,5.8a1.8,1.8,0,0,0,.6.9l3.9,3c.6.5.9,1.7.4,2l-2.9,2.1a.778.778,0,0,0-.2.8l.7,5.6c.1.9-.5,1.2-1.1.4l-3.5-4.5a1.012,1.012,0,0,0-.7-.4l-3.5.4c-.6.1-1.2-1-1.1-1.7l.7-4.9a1.645,1.645,0,0,0-.2-1l-2.8-5.4c-.5-.9-.2-1.7.4-1.5l3.9,1.5h0c.2.1.5,0,.5-.2l1.8-3.8C207.7,244.7,208.6,245.2,208.8,246.1Z"/><path class="d" d="M367.9,174.9l-2.5,7.7h0l3.4-2,3.2-1.8v-.1l1.7-2.5c.1-.2,2.8,10.9,2.9,11.1h0l5.3-3.1h0l.1-.1h0l6.6-3.8.1-.1,1.5-3.3a.778.778,0,0,0-.2-.8l-3.1-3.8a1.135,1.135,0,0,1-.3-.8,6.149,6.149,0,0,0,.1-1.4s3.4-1.9,3.4-2c.1-.1.2-.2.1-.4l-1.5-5.2a1.057,1.057,0,0,0-.7-.6l-3-.7a1.555,1.555,0,0,1-.8-.6c-.5-1-1-1.9-1.6-2.9a1.077,1.077,0,0,1-.2-.8l1-3.4a1.136,1.136,0,0,0-.3-.8l-3.6-3.7c-.2-.2-.4-.3-.5-.2l-3.4,2a4.672,4.672,0,0,0-1-.5,1.208,1.208,0,0,1-.7-.7l-1.8-4.7a.752.752,0,0,0-.7-.5l-3.3-.3a.367.367,0,0,0-.3.1l-5.3,3h-.1l-6.6,3.8h0s3.6,3.5,3.8,3.8l4.4.4a1.135,1.135,0,0,1,.3.8,12.187,12.187,0,0,0,0,2.7.458.458,0,0,1-.5.4l-2.8.2c-.1,0-.2,0-.2.1l-3.1,1.8-3.4,2h0l7.9,1.8C360.7,166.2,365.6,175.6,367.9,174.9Zm7.5-3.4v.9c-.3-.1-.5-.3-.8-.4a14.113,14.113,0,0,1-6.5-11.3v-.9a5.939,5.939,0,0,1,.8.4,5.753,5.753,0,0,1,.5-2.6l12,12.7C380.4,172.6,377.9,173,375.4,171.5Z"/><g class="r"><path d="M367.9,174.9l-2.5,7.7h0l3.4-2,3.2-1.8v-.1l1.7-2.5c.1-.2,2.8,10.9,2.9,11.1h0l5.3-3.1h0l.1-.1h0l6.6-3.8.1-.1,1.5-3.3a.778.778,0,0,0-.2-.8l-3.1-3.8a1.135,1.135,0,0,1-.3-.8,6.149,6.149,0,0,0,.1-1.4s3.4-1.9,3.4-2c.1-.1.2-.2.1-.4l-1.5-5.2a1.057,1.057,0,0,0-.7-.6l-3-.7a1.555,1.555,0,0,1-.8-.6c-.5-1-1-1.9-1.6-2.9a1.077,1.077,0,0,1-.2-.8l1-3.4a1.136,1.136,0,0,0-.3-.8l-3.6-3.7c-.2-.2-.4-.3-.5-.2l-3.4,2a4.672,4.672,0,0,0-1-.5,1.208,1.208,0,0,1-.7-.7l-1.8-4.7a.752.752,0,0,0-.7-.5l-3.3-.3a.367.367,0,0,0-.3.1l-5.3,3h-.1l-6.6,3.8h0s3.6,3.5,3.8,3.8l4.4.4a1.135,1.135,0,0,1,.3.8,12.187,12.187,0,0,0,0,2.7.458.458,0,0,1-.5.4l-2.8.2c-.1,0-.2,0-.2.1l-3.1,1.8-3.4,2h0l7.9,1.8C360.7,166.2,365.6,175.6,367.9,174.9Zm7.5-3.4v.9c-.3-.1-.5-.3-.8-.4a14.113,14.113,0,0,1-6.5-11.3v-.9a5.939,5.939,0,0,1,.8.4,5.753,5.753,0,0,1,.5-2.6l12,12.7C380.4,172.6,377.9,173,375.4,171.5Z"/></g><path class="s" d="M360.7,164.8l1.5.3c-1.5,1.1,3.4,10.4,5.6,9.7l-2.5,7.7h0l3.4-2,3.2-1.8v-.1l1.7-2.5a19.737,19.737,0,0,1,.7,2.6h0l3.3-6.2-.1-.2a5.048,5.048,0,0,1-2.3-.9v.9c-.3-.1-.5-.3-.8-.4a14.113,14.113,0,0,1-6.5-11.3v-.9a5.939,5.939,0,0,1,.8.4,13.663,13.663,0,0,1,.2-1.9l-.3-.3-4.6-.6a6.6,6.6,0,0,0,.1,1.4.458.458,0,0,1-.5.4l-1.6.1-1.9,3.9Z"/><path class="t" d="M374.8,180.1c.8,3.1,1.8,7.1,1.8,7.2h0l5.3-3.1h0l.1-.1h0l.4-.2c-2-2.5-4.6-5.6-4.6-5.6Z"/><path class="t" d="M378.9,176.6l4.4,6.1,3.4-1.2,1.9-1.1.1-.1,1.5-3.3a.778.778,0,0,0-.2-.8l-3.1-3.8c-.1-.1-.1-.2-.2-.3Z"/><path class="u" d="M377,172.2l-.2.4a30.472,30.472,0,0,0,2.1,4l7.7-4.4a.9.9,0,0,1-.1-.5,6.149,6.149,0,0,0,.1-1.4l1.1-.6-.4-1.5s-3.7.9-6.4,1.5l.6.6A3.459,3.459,0,0,1,377,172.2Z"/><path class="t" d="M378.3,167l4.2,2.5,7.1-3-1.1-3.8a1.057,1.057,0,0,0-.7-.6l-3-.7a.758.758,0,0,1-.4-.2l-7.5,4.3Z"/><path class="t" d="M382.2,157.7v-.4l1-3.4a1.136,1.136,0,0,0-.3-.8l-1-1.1-7.6,1.2-1.4,4.9,2,3.8Z"/><path class="t" d="M373.7,149.9l-1.8-4.7a.752.752,0,0,0-.7-.5l-3.3-.3a.367.367,0,0,0-.3.1l-4.1,2.4,2.3,8.3,8.2-4.7A3.333,3.333,0,0,0,373.7,149.9Z"/><path class="d" d="M388.5,180.5h0l.1-.1,1.5-3.3v-.4l-7.8,4.5-.3,3Z"/><path class="d" d="M383.4,172.1l3.1-1.8h0l3.4-2h0c.1-.1.2-.2.1-.4l-1.5-5.2c0-.1-.1-.1-.1-.2l-7.5,4.3Z"/><path class="d" d="M382.9,153.1l-3.6-3.8c-.2-.2-.4-.3-.5-.2h0l-6.5,3.8,4.3,4.4,6.6-3.8C383.1,153.4,383.1,153.2,382.9,153.1Z"/><path class="d" d="M361.1,148.2l-.1.4,2.2,1.3,8.5-4.9a2.186,2.186,0,0,0-.5-.3l-3.3-.3a.367.367,0,0,0-.3.1Z"/><path class="v" d="M388.5,180.5h0l.1-.1,1.5-3.3v-.4l-7.8,4.5-.3,3Z"/><path class="v" d="M383.4,172.1l3.1-1.8h0l3.4-2h0c.1-.1.2-.2.1-.4l-1.5-5.2c0-.1-.1-.1-.1-.2l-7.5,4.3Z"/><path class="j" d="M382.9,153.1l-3.6-3.8c-.2-.2-.4-.3-.5-.2h0l-6.5,3.8,4.3,4.4,6.6-3.8C383.1,153.4,383.1,153.2,382.9,153.1Z"/><path class="j" d="M361.1,148.2l-.1.4,2.2,1.3,8.5-4.9a2.186,2.186,0,0,0-.5-.3l-3.3-.3a.367.367,0,0,0-.3.1Z"/><path class="d" d="M354.3,163.4a.365.365,0,0,0-.2.5l1.5,5.2a1.057,1.057,0,0,0,.7.6l3.1.7a1.555,1.555,0,0,1,.8.6c.5,1,1,1.9,1.6,2.9a1.077,1.077,0,0,1,.2.8l-1,3.4a1.136,1.136,0,0,0,.3.8l3.6,3.8a.646.646,0,0,0,.5.2l.1-.1,1.7-2.5c.1-.2.4-.2.7,0s.7.4,1,.6a4.671,4.671,0,0,0,1,.5,1.208,1.208,0,0,1,.7.7l1.8,4.7a.752.752,0,0,0,.7.5l3.3.3a.367.367,0,0,0,.3-.1h0c.1-.1.2-.2.1-.3l-1-4.6a.713.713,0,0,1,.3-.6,6.375,6.375,0,0,0,1.4-.8.616.616,0,0,1,.7.1l3.3,3a.6.6,0,0,0,.4.1h.1l.1-.1,1.5-3.2a.778.778,0,0,0-.2-.8l-3.2-3.8a1.135,1.135,0,0,1-.3-.8,12.187,12.187,0,0,0,0-2.7h0c0-.3.2-.5.5-.4l2.8-.2h.1a.55.55,0,0,0,.3-.5l-1.5-5.2a1.057,1.057,0,0,0-.7-.6l-3-.7a1.555,1.555,0,0,1-.8-.6c-.5-1-1-1.9-1.6-2.9a1.077,1.077,0,0,1-.2-.8l1-3.4a1.136,1.136,0,0,0-.3-.8l-3.6-3.8c-.2-.2-.5-.3-.6-.1l-1.7,2.5c-.1.2-.4.2-.7,0-.6-.4-1.3-.8-2-1.2a1.208,1.208,0,0,1-.7-.7l-1.8-4.7a.752.752,0,0,0-.7-.5l-3.2-.3a.367.367,0,0,0-.3.1c-.1.1-.2.2-.1.3l1,4.6a.713.713,0,0,1-.3.6,6.375,6.375,0,0,0-1.4.8.616.616,0,0,1-.7-.1l-3.3-3a.44.44,0,0,0-.5-.1h0l-.1.1-1.5,3.3a.778.778,0,0,0,.2.8l3.1,3.8a1.135,1.135,0,0,1,.3.8,6.6,6.6,0,0,0-.1,1.4c0,.5.1.9.1,1.3h0a.458.458,0,0,1-.5.4l-2.8.1a.774.774,0,0,1-.3.1ZM370.5,176a9.356,9.356,0,0,1-4.3-3c-3.3-3.5-4.9-8.9-3.5-11.9a3.211,3.211,0,0,1,2.5-2h.4a6.534,6.534,0,0,1,3.1.9,11.562,11.562,0,0,1,2.5,2,14.562,14.562,0,0,1,4,9.2v.9a4.8,4.8,0,0,1-.5,1.7,3.4,3.4,0,0,1-3.1,2.1h-1l-.1.1Z"/><path class="d" d="M98.7,243.1l-2.5,7.7h0l3.4-2,3.2-1.8v-.1l1.7-2.5c.1-.2,2.8,10.9,2.9,11.1h0l5.3-3.1h0l.1-.1h0l6.6-3.8.1-.1,1.5-3.3a.778.778,0,0,0-.2-.8l-3.1-3.8a1.136,1.136,0,0,1-.3-.8,6.15,6.15,0,0,0,.1-1.4s3.4-1.9,3.4-2c.1-.1.2-.2.1-.4l-1.5-5.2a1.057,1.057,0,0,0-.7-.6l-3-.7a1.555,1.555,0,0,1-.8-.6c-.5-1-1-1.9-1.6-2.9a1.077,1.077,0,0,1-.2-.8l1-3.4a1.135,1.135,0,0,0-.3-.8l-3.6-3.7c-.2-.2-.4-.3-.5-.2l-3.4,2a4.672,4.672,0,0,0-1-.5,1.208,1.208,0,0,1-.7-.7l-1.8-4.7a.752.752,0,0,0-.7-.5l-3.3-.3a.367.367,0,0,0-.3.1l-5.3,3h-.1l-6.6,3.8h0s3.6,3.5,3.8,3.8l4.4.4a1.136,1.136,0,0,1,.3.8,12.188,12.188,0,0,0,0,2.7.458.458,0,0,1-.5.4l-2.8.2c-.1,0-.2,0-.2.1l-3.1,1.8-3.4,2h0l7.9,1.8C91.5,234.4,96.5,243.8,98.7,243.1Zm7.6-3.4v.9c-.3-.1-.5-.3-.8-.4A14.113,14.113,0,0,1,99,228.9V228a5.94,5.94,0,0,1,.8.4,5.753,5.753,0,0,1,.5-2.6l12,12.7C111.2,240.8,108.8,241.2,106.3,239.7Z"/><g class="r"><path d="M98.7,243.1l-2.5,7.7h0l3.4-2,3.2-1.8v-.1l1.7-2.5c.1-.2,2.8,10.9,2.9,11.1h0l5.3-3.1h0l.1-.1h0l6.6-3.8.1-.1,1.5-3.3a.778.778,0,0,0-.2-.8l-3.1-3.8a1.136,1.136,0,0,1-.3-.8,6.15,6.15,0,0,0,.1-1.4s3.4-1.9,3.4-2c.1-.1.2-.2.1-.4l-1.5-5.2a1.057,1.057,0,0,0-.7-.6l-3-.7a1.555,1.555,0,0,1-.8-.6c-.5-1-1-1.9-1.6-2.9a1.077,1.077,0,0,1-.2-.8l1-3.4a1.135,1.135,0,0,0-.3-.8l-3.6-3.7c-.2-.2-.4-.3-.5-.2l-3.4,2a4.672,4.672,0,0,0-1-.5,1.208,1.208,0,0,1-.7-.7l-1.8-4.7a.752.752,0,0,0-.7-.5l-3.3-.3a.367.367,0,0,0-.3.1l-5.3,3h-.1l-6.6,3.8h0s3.6,3.5,3.8,3.8l4.4.4a1.136,1.136,0,0,1,.3.8,12.188,12.188,0,0,0,0,2.7.458.458,0,0,1-.5.4l-2.8.2c-.1,0-.2,0-.2.1l-3.1,1.8-3.4,2h0l7.9,1.8C91.5,234.4,96.5,243.8,98.7,243.1Zm7.6-3.4v.9c-.3-.1-.5-.3-.8-.4A14.113,14.113,0,0,1,99,228.9V228a5.94,5.94,0,0,1,.8.4,5.753,5.753,0,0,1,.5-2.6l12,12.7C111.2,240.8,108.8,241.2,106.3,239.7Z"/></g><path class="s" d="M91.6,233l1.5.3c-1.6,1.1,3.4,10.4,5.6,9.7l-2.5,7.7h0l3.4-2,3.2-1.8v-.1l1.7-2.5a19.733,19.733,0,0,1,.7,2.6h0l3.3-6.2-.1-.2a5.048,5.048,0,0,1-2.3-.9v.9c-.3-.1-.5-.3-.8-.4a14.113,14.113,0,0,1-6.5-11.3v-.9a5.94,5.94,0,0,1,.8.4,13.664,13.664,0,0,1,.2-1.9l-.3-.3-4.6-.6a6.6,6.6,0,0,0,.1,1.4.458.458,0,0,1-.5.4l-1.6.1L91,231.3Z"/><path class="t" d="M105.7,248.3c.8,3.1,1.8,7.1,1.8,7.2h0l5.3-3.1h0l.1-.1h0l.4-.2c-2-2.5-4.6-5.6-4.6-5.6Z"/><path class="t" d="M109.8,244.8l4.4,6.1,3.3-1.2,1.9-1.1.1-.1,1.5-3.3a.778.778,0,0,0-.2-.8l-3.1-3.8c-.1-.1-.1-.2-.2-.3Z"/><path class="u" d="M107.9,240.4l-.2.4a30.474,30.474,0,0,0,2.1,4l7.7-4.4a.9.9,0,0,1-.1-.5,6.15,6.15,0,0,0,.1-1.4l1.1-.6-.3-1.5s-3.7.9-6.4,1.5l.6.6A3.7,3.7,0,0,1,107.9,240.4Z"/><path class="t" d="M109.1,235.2l4.2,2.5,7.2-3-1.1-3.8a1.057,1.057,0,0,0-.7-.6l-3-.7a.758.758,0,0,1-.4-.2l-7.5,4.3Z"/><path class="t" d="M113.1,225.9v-.4l1-3.4a1.135,1.135,0,0,0-.3-.8l-1-1.1-7.6,1.2-1.4,4.9,2,3.8Z"/><path class="t" d="M104.6,218.1l-1.8-4.7a.752.752,0,0,0-.7-.5l-3.3-.3a.367.367,0,0,0-.3.1l-4.1,2.4,2.3,8.3,8.2-4.7A3.328,3.328,0,0,0,104.6,218.1Z"/><path class="d" d="M119.4,248.7h0l.1-.1,1.5-3.3v-.4l-7.8,4.5-.3,3Z"/><path class="d" d="M114.3,240.3l3.2-1.8h0l3.4-2h0c.1-.1.2-.2.1-.4l-1.5-5.2c0-.1-.1-.1-.1-.2l-7.5,4.3Z"/><path class="d" d="M113.8,221.3l-3.6-3.8c-.2-.2-.4-.3-.5-.2h0l-6.6,3.8,4.3,4.4,6.6-3.8A.758.758,0,0,0,113.8,221.3Z"/><path class="d" d="M92,216.4l-.1.4,2.2,1.3,8.5-4.9a2.186,2.186,0,0,0-.5-.3l-3.3-.3a.367.367,0,0,0-.3.1C98.4,212.7,92,216.4,92,216.4Z"/><path class="v" d="M119.4,248.7h0l.1-.1,1.5-3.3v-.4l-7.8,4.5-.3,3Z"/><path class="v" d="M114.3,240.3l3.2-1.8h0l3.4-2h0c.1-.1.2-.2.1-.4l-1.5-5.2c0-.1-.1-.1-.1-.2l-7.5,4.3Z"/><path class="j" d="M113.8,221.3l-3.6-3.8c-.2-.2-.4-.3-.5-.2h0l-6.6,3.8,4.3,4.4,6.6-3.8A.758.758,0,0,0,113.8,221.3Z"/><path class="j" d="M92,216.4l-.1.4,2.2,1.3,8.5-4.9a2.186,2.186,0,0,0-.5-.3l-3.3-.3a.367.367,0,0,0-.3.1C98.4,212.7,92,216.4,92,216.4Z"/><path class="d" d="M85.1,231.6a.365.365,0,0,0-.2.5l1.5,5.2a1.057,1.057,0,0,0,.7.6l3.1.7a1.555,1.555,0,0,1,.8.6c.5,1,1,1.9,1.6,2.9a1.077,1.077,0,0,1,.2.8l-1,3.4a1.135,1.135,0,0,0,.3.8l3.6,3.8a.646.646,0,0,0,.5.2l.1-.1,1.7-2.5c.1-.2.4-.2.7,0s.7.4,1,.6a4.671,4.671,0,0,0,1,.5,1.208,1.208,0,0,1,.7.7l1.8,4.7a.752.752,0,0,0,.7.5l3.3.3a.367.367,0,0,0,.3-.1h0c.1-.1.2-.2.1-.3l-1-4.6a.713.713,0,0,1,.3-.6,6.376,6.376,0,0,0,1.4-.8.616.616,0,0,1,.7.1l3.3,3a.6.6,0,0,0,.4.1h.1l.1-.1,1.5-3.2a.778.778,0,0,0-.2-.8l-3.2-3.8a1.136,1.136,0,0,1-.3-.8,12.188,12.188,0,0,0,0-2.7h0c0-.3.2-.5.5-.4l2.8-.2h.1a.55.55,0,0,0,.3-.5l-1.5-5.2a1.057,1.057,0,0,0-.7-.6l-3-.7a1.555,1.555,0,0,1-.8-.6c-.5-1-1-1.9-1.6-2.9a1.077,1.077,0,0,1-.2-.8l1-3.4a1.135,1.135,0,0,0-.3-.8l-3.6-3.8c-.2-.2-.5-.3-.6-.1l-1.7,2.5c-.1.2-.4.2-.7,0-.6-.4-1.3-.8-2-1.2a1.208,1.208,0,0,1-.7-.7l-1.8-4.7a.752.752,0,0,0-.7-.5l-3.2-.3a.367.367,0,0,0-.3.1c-.1.1-.2.2-.1.3l1,4.6a.713.713,0,0,1-.3.6,6.376,6.376,0,0,0-1.4.8.616.616,0,0,1-.7-.1l-3.3-3a.44.44,0,0,0-.5-.1h0l-.1.1-1.5,3.3a.778.778,0,0,0,.2.8l3.1,3.8a1.136,1.136,0,0,1,.3.8,6.6,6.6,0,0,0-.1,1.4c0,.5.1.9.1,1.3h0a.458.458,0,0,1-.5.4l-2.8.1a.367.367,0,0,1-.3.1Zm16.3,12.6a9.356,9.356,0,0,1-4.3-3c-3.3-3.5-4.9-8.9-3.5-11.9a3.21,3.21,0,0,1,2.6-2h.4a6.535,6.535,0,0,1,3.1.9,11.562,11.562,0,0,1,2.5,2,14.562,14.562,0,0,1,4,9.2v.9a8.468,8.468,0,0,1-.4,1.7,3.4,3.4,0,0,1-3.1,2.1h-1.1l-.2.1Z"/><path class="i" d="M366.3,203.6l2.1,5.3c-.4.6-4.1,1.4-4.4,2.1v.1a.687.687,0,0,1-.9.3l-5.6-2.5a.454.454,0,0,0-.5,0h0Z"/><path class="g" d="M366.1,211.3a1.743,1.743,0,0,0,.6,1.2l4.4,14.1a1.064,1.064,0,0,0-.2,1.2l4.6,8a.949.949,0,0,0,1.1.4l10,10.9a18.224,18.224,0,0,1-1.9,2.9l.3,7.2,9.2-5.3a.758.758,0,0,0,.2-.4l4.5,4.6a.8.8,0,0,0,1.1.3l9.9-5.7a.8.8,0,0,0,.3-1.1l-2.6-5.3,7.3-4.2h0a.764.764,0,0,0,.2-.5v-7.2a1.743,1.743,0,0,0-.6-1.2l-5.7-4a1.99,1.99,0,0,1-.8-1.2,39.733,39.733,0,0,0-1.5-4.9,1.314,1.314,0,0,1,.3-1.2l3.2-2.8a1.064,1.064,0,0,0,.2-1.2l-4.6-8a.949.949,0,0,0-1.1-.4l-4,1.4a1.148,1.148,0,0,1-1.2-.4,40.441,40.441,0,0,0-3.5-3.7,2.389,2.389,0,0,1-.7-1.3l-.6-7a1.644,1.644,0,0,0-.8-1.2l-6.3-3.6a.454.454,0,0,0-.5,0h0l-3.1,1.8v5.1a8.6,8.6,0,0,0-1.6-.1,1.426,1.426,0,0,1-1.2-.6l-4.6-7a.8.8,0,0,0-1.1-.3l-4,2.3a.8.8,0,0,0-.3,1.1l-4.1,9.6a.454.454,0,0,0-.5,0h0Zm13.9,4.4c0-3,.7-5.2,2-6.3,1.6-1.4,17,24.9,15.1,25.8-1.6.8-3.8.4-6.5-1.1C384.8,230.7,380,222.5,380,215.7Z"/><path class="i" d="M365.2,196.5l6.1-3.5,4-2.3a.8.8,0,0,1,1.1.3l4.6,7,.3.3-6.6,3.9-4.7,2.7-4-4.6-1.3-2.5A1.165,1.165,0,0,1,365.2,196.5Z"/><path class="i" d="M397.7,232.8l7.6,4.3,9.6-5.6a1.756,1.756,0,0,0-.4-.5l-5.7-4c-.2-.1-.3-.3-.4-.4Z"/><path class="i" d="M394,213.8l6.3,8.5,10.1-5.8a1.268,1.268,0,0,0-.1-.6l-4.6-8a1.126,1.126,0,0,0-.8-.5Z"/><path class="i" d="M379.7,195.8l4.2-2.4h.1l3-1.7h.2a.367.367,0,0,1,.3.1l6.3,3.6a1.555,1.555,0,0,1,.6.8l-11,6.4-5.6-3.2V197Z"/><path class="f" d="M357.6,217.8l5.7,4a1.99,1.99,0,0,1,.8,1.2c.4,1.7.9,3.3,1.4,4.9a1.314,1.314,0,0,1-.3,1.2l-3.2,2.8a1.064,1.064,0,0,0-.2,1.2l4.6,8a.949.949,0,0,0,1.1.4l4-1.4a1.148,1.148,0,0,1,1.2.4,40.441,40.441,0,0,0,3.5,3.7,3.293,3.293,0,0,1,.7,1.3l.6,7a1.644,1.644,0,0,0,.8,1.2l6.3,3.6a.367.367,0,0,0,.3.1c.3,0,.4-.2.4-.5l.6-6.1v-.1a.657.657,0,0,1,.8-.5,15.263,15.263,0,0,0,3,.3,1.426,1.426,0,0,1,1.2.6l4.6,7a.8.8,0,0,0,1.1.3l4-2.3a.8.8,0,0,0,.3-1.1l-3.7-7.5a1.742,1.742,0,0,1,.1-1.4,15.951,15.951,0,0,0,1.2-2.7v-.1a.687.687,0,0,1,.9-.3l5.6,2.5a.367.367,0,0,0,.3.1c.3,0,.4-.3.4-.5v-7.2a1.743,1.743,0,0,0-.6-1.2l-5.7-4a1.99,1.99,0,0,1-.8-1.2,45.8,45.8,0,0,0-1.5-4.9,1.314,1.314,0,0,1,.3-1.2l3.2-2.8a1.064,1.064,0,0,0,.2-1.2l-4.6-8a.949.949,0,0,0-1.1-.4l-4,1.4a1.314,1.314,0,0,1-1.2-.3,40.441,40.441,0,0,0-3.5-3.7,2.233,2.233,0,0,1-.6-1.3l-.6-7a1.644,1.644,0,0,0-.8-1.2l-6.3-3.6a.367.367,0,0,0-.3-.1c-.3,0-.4.2-.4.5l-.6,6.1v.1a.657.657,0,0,1-.8.5,15.263,15.263,0,0,0-3-.3,1.426,1.426,0,0,1-1.2-.6l-4.6-7a.8.8,0,0,0-1.1-.3l-4,2.3a.8.8,0,0,0-.3,1.1l3.7,7.5a1.742,1.742,0,0,1-.1,1.4,13.9,13.9,0,0,0-1.2,2.8v.1a.687.687,0,0,1-.9.3l-5.6-2.5a.367.367,0,0,0-.3-.1c-.3,0-.4.3-.4.5v7.2A1.365,1.365,0,0,0,357.6,217.8Zm13.2,3.3c0-6.8,4.8-9.4,10.6-6.1S392,226.6,392,233.3s-4.7,9.5-10.6,6.1C375.6,236,370.8,227.8,370.8,221.1Z"/><path class="b" d="M97.8,173.4a.9.9,0,0,1,.5.1l5.1,2.3h.1a.569.569,0,0,0,.7-.4c.1-.4,1-.7,1.9-1v1.2a1.255,1.255,0,0,0,.6,1.1l4,12.9a.913.913,0,0,0-.2,1.1l4.2,7.3a.951.951,0,0,0,1,.4l9.2,10a12.705,12.705,0,0,1-1.8,2.7l.2,6.6,8.4-4.9a.52.52,0,0,0,.2-.4l4.1,4.2a.775.775,0,0,0,1,.2l9-5.2a.777.777,0,0,0,.3-1l-2.4-4.9,6.6-3.8h0a.758.758,0,0,0,.2-.4v-6.6a1.854,1.854,0,0,0-.2-.7h0a.781.781,0,0,0-.4-.4l-5.3-3.7a1.9,1.9,0,0,1-.7-1.1,38.8,38.8,0,0,0-1.4-4.5,1.128,1.128,0,0,1,.3-1.1l3-2.5a2.186,2.186,0,0,0,.3-.5h0a1.268,1.268,0,0,0-.1-.6l-4.2-7.3c-.1-.1-.2-.3-.4-.3H141l-3.7,1.3a1.128,1.128,0,0,1-1.1-.3,33.965,33.965,0,0,0-3.2-3.4,2.281,2.281,0,0,1-.6-1.2l-.6-6.4c0-.1-.1-.2-.1-.3h0c0-.1-.1-.1-.1-.2l-.1-.1a.781.781,0,0,0-.4-.4h0l-5.7-3.2c-.1,0-.2-.1-.3-.1h-.2l-1.6.9-1.2.7H122l-3.8,2.3h0l-3-4.5v-.1a.1.1,0,0,0-.1-.1c-.1-.1-.2-.2-.3-.2-.1-.1-.2,0-.3,0s-.2-.1-.3,0h0l-3.7,2.1h0l-5.6,3.2a.777.777,0,0,0-.3,1l1.1,2.3,1.4,1.6-.7,1.6a.3.3,0,0,0-.4,0h0Zm30.6,23c-5.4-3.1-9.7-10.6-9.7-16.8,0-2.8.6-4.7,1.8-5.8,1.5-1.3,15.6,22.8,13.8,23.6-1.4.8-3.4.4-5.9-1Z"/><path class="n" d="M97.8,173.4a.9.9,0,0,1,.5.1l5.1,2.3h.1a.569.569,0,0,0,.7-.4c.1-.4,1-.7,1.9-1v1.2a1.255,1.255,0,0,0,.6,1.1l4,12.9a.913.913,0,0,0-.2,1.1l4.2,7.3a.951.951,0,0,0,1,.4l9.2,10a12.705,12.705,0,0,1-1.8,2.7l.2,6.6,8.4-4.9a.52.52,0,0,0,.2-.4l4.1,4.2a.775.775,0,0,0,1,.2l9-5.2a.777.777,0,0,0,.3-1l-2.4-4.9,6.6-3.8h0a.758.758,0,0,0,.2-.4v-6.6a1.854,1.854,0,0,0-.2-.7h0a.781.781,0,0,0-.4-.4l-5.3-3.7a1.9,1.9,0,0,1-.7-1.1,38.8,38.8,0,0,0-1.4-4.5,1.128,1.128,0,0,1,.3-1.1l3-2.5a2.186,2.186,0,0,0,.3-.5h0a1.268,1.268,0,0,0-.1-.6l-4.2-7.3c-.1-.1-.2-.3-.4-.3H141l-3.7,1.3a1.128,1.128,0,0,1-1.1-.3,33.965,33.965,0,0,0-3.2-3.4,2.281,2.281,0,0,1-.6-1.2l-.6-6.4c0-.1-.1-.2-.1-.3h0c0-.1-.1-.1-.1-.2l-.1-.1a.781.781,0,0,0-.4-.4h0l-5.7-3.2c-.1,0-.2-.1-.3-.1h-.2l-1.6.9-1.2.7H122l-3.8,2.3h0l-3-4.5v-.1a.1.1,0,0,0-.1-.1c-.1-.1-.2-.2-.3-.2-.1-.1-.2,0-.3,0s-.2-.1-.3,0h0l-3.7,2.1h0l-5.6,3.2a.777.777,0,0,0-.3,1l1.1,2.3,1.4,1.6-.7,1.6a.3.3,0,0,0-.4,0h0Zm30.6,23c-5.4-3.1-9.7-10.6-9.7-16.8,0-2.8.6-4.7,1.8-5.8,1.5-1.3,15.6,22.8,13.8,23.6-1.4.8-3.4.4-5.9-1Z"/><path class="s" d="M132.7,168.8a.6.6,0,0,1-.1-.4L132,162c0-.1-.1-.2-.1-.3h0c0-.1-.1-.1-.1-.2l-.1-.1a.781.781,0,0,0-.4-.4h0l-1.8-1-7.7,3.9v10.6c.1.1.2.3.4.4Z"/><path class="s" d="M131.8,180.9l11.6-3.5.4-2.1-1.7-3c-.1-.1-.2-.3-.4-.3h-.6l-3.7,1.3a.637.637,0,0,1-.6,0l-8.9,5.2Z"/><path class="s" d="M142.9,184.1a.908.908,0,0,1,.3-.7l3-2.5a2.186,2.186,0,0,0,.3-.5h0a1.268,1.268,0,0,0-.1-.6l-.6-1.1-10.3,4.5-2,6.5Z"/><path class="s" d="M138,216.3l8-4.7a.777.777,0,0,0,.3-1l-2.4-4.9-1.8,1-2.6-1.3-6.6,3.8Z"/><path class="s" d="M107.4,179.2l3.3,10.5a.913.913,0,0,0-.2,1.1l4.2,7.3a.951.951,0,0,0,1,.4l9.2,10a12.705,12.705,0,0,1-1.8,2.7l.2,6.6,8.2-4.7-.5-2.8,1.7-12.3a8.44,8.44,0,0,1-4.3-1.4c-5.4-3.1-9.7-10.6-9.7-16.8a10.879,10.879,0,0,1,.7-4l-.2-.2-11.8,2.6C107.3,178,107.3,178.5,107.4,179.2Z"/><path class="s" d="M106.2,168.6l2,4.9c-.3.5-3.8,1.3-4,1.9v.1a.63.63,0,0,1-.8.3l-5.1-2.3a.749.749,0,0,0-.5-.1h0Z"/><path class="s" d="M105.1,162.1l5.6-3.2,3.7-2.1a.775.775,0,0,1,1,.2l4.2,6.4.3.3-6,3.5-4.3,2.5-3.7-4.2-1.1-2.3C104.6,162.7,104.7,162.3,105.1,162.1Z"/><path class="s" d="M134.9,195.3l7,4,8.8-5.1a.781.781,0,0,0-.4-.4l-5.3-3.7-.4-.4Z"/><path class="b" d="M131.5,177.8l5.8,7.8,9.2-5.3a1.268,1.268,0,0,0-.1-.6l-4.2-7.3a1.012,1.012,0,0,0-.7-.4Z"/><path class="m" d="M131.5,177.8l5.8,7.8,9.2-5.3a1.268,1.268,0,0,0-.1-.6l-4.2-7.3a1.012,1.012,0,0,0-.7-.4Z"/><path class="b" d="M118.4,161.4l3.8-2.2h.1l2.8-1.6h.2a.367.367,0,0,1,.3.1l5.7,3.3a1.344,1.344,0,0,1,.6.7l-10.1,5.8-5.1-2.9v-2.1Z"/><path class="m" d="M118.4,161.4l3.8-2.2h.1l2.8-1.6h.2a.367.367,0,0,1,.3.1l5.7,3.3a1.344,1.344,0,0,1,.6.7l-10.1,5.8-5.1-2.9v-2.1Z"/><path class="b" d="M98.1,181.6l5.2,3.7a1.9,1.9,0,0,1,.7,1.1,31.914,31.914,0,0,0,1.3,4.4,1.129,1.129,0,0,1-.3,1.1l-3,2.6a.913.913,0,0,0-.2,1.1l4.2,7.3a.951.951,0,0,0,1,.4l3.7-1.3a1.128,1.128,0,0,1,1.1.3,33.965,33.965,0,0,0,3.2,3.4,2.281,2.281,0,0,1,.6,1.2l.6,6.4a1.9,1.9,0,0,0,.7,1.1l5.7,3.3a.367.367,0,0,0,.3.1.43.43,0,0,0,.4-.4l.6-5.6v-.1a.569.569,0,0,1,.7-.4,12.651,12.651,0,0,0,2.8.3,1.382,1.382,0,0,1,1.1.6l4.2,6.4a.775.775,0,0,0,1,.2l3.7-2.1a.777.777,0,0,0,.3-1l-3.4-6.9a1.262,1.262,0,0,1,.1-1.2,7.956,7.956,0,0,0,1.1-2.5V205a.63.63,0,0,1,.8-.3l5.1,2.3a.367.367,0,0,0,.3.1c.2,0,.4-.3.4-.5V200a1.255,1.255,0,0,0-.6-1.1l-5.2-3.7a1.9,1.9,0,0,1-.7-1.1,31.914,31.914,0,0,0-1.3-4.4,1.128,1.128,0,0,1,.3-1.1l3-2.5a.913.913,0,0,0,.2-1.1l-4.2-7.3a.951.951,0,0,0-1-.4l-3.6,1.3a1.128,1.128,0,0,1-1.1-.3,33.965,33.965,0,0,0-3.2-3.4,2.281,2.281,0,0,1-.6-1.2l-.6-6.4a1.9,1.9,0,0,0-.7-1.1l-5.7-3.3a.367.367,0,0,0-.3-.1.43.43,0,0,0-.4.4l-.6,5.6v.1a.569.569,0,0,1-.7.4,12.651,12.651,0,0,0-2.8-.3,1.382,1.382,0,0,1-1.1-.6l-4.3-6.4a.775.775,0,0,0-1-.2l-3.7,2.1a.777.777,0,0,0-.3,1l3.4,6.9a1.262,1.262,0,0,1-.1,1.2,7.956,7.956,0,0,0-1.1,2.5v.1a.63.63,0,0,1-.8.3l-5.1-2.3a.367.367,0,0,0-.3-.1c-.2,0-.4.3-.4.5v6.6A2.664,2.664,0,0,0,98.1,181.6ZM120,201.3c-5.4-3.1-9.7-10.6-9.7-16.8s4.3-8.7,9.7-5.6,9.7,10.6,9.7,16.8-4.4,8.7-9.7,5.6Z"/><path class="l" d="M98.1,181.6l5.2,3.7a1.9,1.9,0,0,1,.7,1.1,31.914,31.914,0,0,0,1.3,4.4,1.129,1.129,0,0,1-.3,1.1l-3,2.6a.913.913,0,0,0-.2,1.1l4.2,7.3a.951.951,0,0,0,1,.4l3.7-1.3a1.128,1.128,0,0,1,1.1.3,33.965,33.965,0,0,0,3.2,3.4,2.281,2.281,0,0,1,.6,1.2l.6,6.4a1.9,1.9,0,0,0,.7,1.1l5.7,3.3a.367.367,0,0,0,.3.1.43.43,0,0,0,.4-.4l.6-5.6v-.1a.569.569,0,0,1,.7-.4,12.651,12.651,0,0,0,2.8.3,1.382,1.382,0,0,1,1.1.6l4.2,6.4a.775.775,0,0,0,1,.2l3.7-2.1a.777.777,0,0,0,.3-1l-3.4-6.9a1.262,1.262,0,0,1,.1-1.2,7.956,7.956,0,0,0,1.1-2.5V205a.63.63,0,0,1,.8-.3l5.1,2.3a.367.367,0,0,0,.3.1c.2,0,.4-.3.4-.5V200a1.255,1.255,0,0,0-.6-1.1l-5.2-3.7a1.9,1.9,0,0,1-.7-1.1,31.914,31.914,0,0,0-1.3-4.4,1.128,1.128,0,0,1,.3-1.1l3-2.5a.913.913,0,0,0,.2-1.1l-4.2-7.3a.951.951,0,0,0-1-.4l-3.6,1.3a1.128,1.128,0,0,1-1.1-.3,33.965,33.965,0,0,0-3.2-3.4,2.281,2.281,0,0,1-.6-1.2l-.6-6.4a1.9,1.9,0,0,0-.7-1.1l-5.7-3.3a.367.367,0,0,0-.3-.1.43.43,0,0,0-.4.4l-.6,5.6v.1a.569.569,0,0,1-.7.4,12.651,12.651,0,0,0-2.8-.3,1.382,1.382,0,0,1-1.1-.6l-4.3-6.4a.775.775,0,0,0-1-.2l-3.7,2.1a.777.777,0,0,0-.3,1l3.4,6.9a1.262,1.262,0,0,1-.1,1.2,7.956,7.956,0,0,0-1.1,2.5v.1a.63.63,0,0,1-.8.3l-5.1-2.3a.367.367,0,0,0-.3-.1c-.2,0-.4.3-.4.5v6.6A2.664,2.664,0,0,0,98.1,181.6ZM120,201.3c-5.4-3.1-9.7-10.6-9.7-16.8s4.3-8.7,9.7-5.6,9.7,10.6,9.7,16.8-4.4,8.7-9.7,5.6Z"/><path class="b" d="M373,88.2,359.9,57.6c-.9-2-2.6-3.5-4-3.2L326.7,60a4.54,4.54,0,0,0-3,3.3l-.8,3.9a13.678,13.678,0,0,0,1,6.6L337,104.4c.9,2,2.6,3.5,4,3.2l29.2-5.6a4.237,4.237,0,0,0,2.9-3.3l.8-3.9A12.257,12.257,0,0,0,373,88.2Z"/><path class="o" d="M372.2,92.3,343,97.9c-1.3.2-3.1-1.2-4-3.2L325.9,64.1c-.9-2-.5-3.9.8-4.1l29.2-5.6c1.3-.3,3.1,1.2,4,3.2L373,88.2C373.8,90.2,373.5,92,372.2,92.3Z"/><path class="q" d="M370.2,102,341,107.6a2.355,2.355,0,0,1-2.1-.8l1.9-9.7a3.008,3.008,0,0,0,2.2.8l29.2-5.6c1.3-.2,1.6-1.9.9-3.8a13.219,13.219,0,0,1,.9,6.2l-.8,3.9A4.344,4.344,0,0,1,370.2,102Z"/><path class="p" d="M338.9,106.8a2.836,2.836,0,0,1-.9-1l-.2-.3a2.506,2.506,0,0,1-.4-.7c-.1-.2-.2-.3-.2-.5L324.1,73.7a13.5,13.5,0,0,1-1-6.6l.8-3.9a4.633,4.633,0,0,1,2.6-3.3c-1.1.5-1.3,2.1-.5,4l13,30.8a6.094,6.094,0,0,0,1.8,2.4Z"/><path class="e" d="M357.4,66.4a5.71,5.71,0,0,1-2.1,1.3,4.78,4.78,0,0,0,.7-3.5,5.74,5.74,0,0,1-2.2,1.9,4.745,4.745,0,0,0-3.8-1.2c-2.4.5-3.3,3.3-2.2,6.5.2.4.4.9.6,1.3-3.6.5-7.6-1.2-11-4.2a6.342,6.342,0,0,0,.5,3,8.621,8.621,0,0,0,3.7,4.3,4.219,4.219,0,0,1-2.2-.3v.1c1,2.7,3.3,4.7,5.5,4.8a3,3,0,0,1-1,.4,2.485,2.485,0,0,1-.8.1c1.4,2.1,3.5,3.4,5.4,3.1a5.891,5.891,0,0,1-4.4,3.4,3.4,3.4,0,0,1-1,.1,12.17,12.17,0,0,0,7.5,1.3c7.9-1.5,9-11,6.3-18.4-.1-.2-.2-.5-.3-.7a8.9,8.9,0,0,0,.8-3.3Z"/><path class="b" d="M413.4,329.6l1.3,3.8a4.468,4.468,0,0,0,3.6,2.9l29.4.4c1.5,0,3.3-1.7,4.1-3.9l10.7-30.4a12.8,12.8,0,0,0,.5-6.7l-1.3-3.8a4.077,4.077,0,0,0-3.6-2.8l-29.4-.4c-1.5,0-3.3,1.7-4.1,3.9L413.9,323A12.278,12.278,0,0,0,413.4,329.6Z"/><path class="b" d="M413.9,322.9l10.7-30.5c.8-2.2,2.6-3.9,4.1-3.9l29.3.5c1.5.1,2.1,1.8,1.3,4l-10.7,30.4c-.8,2.2-2.6,3.9-4.1,3.9l-29.4-.4C413.7,326.8,413.1,325.1,413.9,322.9Z"/><path class="k" d="M414.7,333.4l-1.3-3.8a12.659,12.659,0,0,1,.3-6.4c-.6,2,0,3.6,1.4,3.6l29.4.4a3.84,3.84,0,0,0,2.3-1.1l3.1,9.4a2.99,2.99,0,0,1-2.3,1.1l-29.4-.4A4.063,4.063,0,0,1,414.7,333.4Z"/><path class="j" d="M446.9,326.1a7.992,7.992,0,0,0,1.8-2.7L459.5,293c.7-2,.2-3.7-1-3.9a4.29,4.29,0,0,1,3.3,2.8l1.3,3.8a12.7,12.7,0,0,1-.4,6.7L452,332.8c-.1.2-.1.3-.2.5-.1.3-.3.5-.4.8l-.2.3a5.242,5.242,0,0,1-1,1.1Z"/><path class="e" d="M430.1,310.6c-1.4,4.2.2,6,3.1,6s6-1.7,7.4-6-.2-6.7-3.1-6.7C434.6,304,431.5,306.4,430.1,310.6Z"/><path class="e" d="M448.9,299.9l-2.3-.1.4-1.3h2.4Z"/><path class="e" d="M425.2,302.9l-5.3,15.5c-.4,1.3-.1,2.3.8,2.3l22,.2c.9,0,1.9-1,2.3-2.3l5.3-15.5c.4-1.3.1-2.3-.8-2.3H445c-.9,0-1.2-1-.8-2.3s.1-2.3-.8-2.3l-6.8-.1c-.9,0-1.9,1-2.3,2.3s-1.4,2.3-2.3,2.3h-4.5C426.7,300.7,425.7,301.7,425.2,302.9Zm3.6,7.7c1.8-5.3,5.7-8.5,9.3-8.5s5.6,3.3,3.8,8.6-5.6,7.3-9.3,7.3C429.1,318,427,315.9,428.8,310.6Zm1.3-4.8c-.5,0-.7-.6-.4-1.3s.8-1.3,1.3-1.2.7.6.4,1.3-.9,1.2-1.3,1.2Z"/><path class="b" d="M13.2,237.5l-2.1,1.8c-.9.7-1.2,2.6-.8,4.1l8.5,30.7a5.991,5.991,0,0,0,3.8,3.8l32.8,10.6c1.7.5,3.7.4,4.6-.3l2.1-1.8c.9-.7,1.2-2.6.8-4.1l-8.5-30.7a5.991,5.991,0,0,0-3.8-3.8L17.8,237.2C16.1,236.7,14.1,236.8,13.2,237.5Z"/><path class="o" d="M17.8,237.2l32.8,10.6a5.991,5.991,0,0,1,3.8,3.8l8.5,30.7c.4,1.6-.6,2.4-2.2,1.9L27.9,273.5a5.991,5.991,0,0,1-3.8-3.8L15.6,239C15.1,237.5,16.1,236.7,17.8,237.2Z"/><path class="p" d="M11.1,239.3l2.1-1.8c.8-.7,2.7-.9,4.3-.4-1.5-.4-2.4.4-2,1.9L24,269.7a5.131,5.131,0,0,0,1.5,2.3l-5.3,4.4a4.254,4.254,0,0,1-1.4-2.3l-8.5-30.7C9.9,241.9,10.2,240,11.1,239.3Z"/><path class="q" d="M25.5,272.1a6.08,6.08,0,0,0,2.4,1.5l32.8,10.6c1.5.5,2.5-.2,2.3-1.5a4.415,4.415,0,0,1-.9,3.8L60,288.3a5.438,5.438,0,0,1-4.6.3L22.6,278c-.1,0-.3-.1-.4-.1a2.507,2.507,0,0,1-.7-.4l-.3-.2a4.3,4.3,0,0,1-1-.9Z"/><path class="i" d="M43.1,256.3c.9,3-.9,4.6-4,3.6a12.135,12.135,0,0,1-7.2-7c-.9-2.9.9-4.6,4-3.6A12.135,12.135,0,0,1,43.1,256.3Z"/><path class="i" d="M31.5,268s2.8,2.7,11.4,5.4,10.2,1.2,10.2,1.2l-.4-1.3c-1.5-4.8-6.8-10-11.8-11.5l-3.2-1c-5.1-1.5-8,1.3-6.5,6.1Z"/><path class="d" d="M118,76.3,90.7,69A5.422,5.422,0,0,0,86,70.8l-20.2,23a7.69,7.69,0,0,0-2,4.8l.3,3a3.8,3.8,0,0,0,2.7,2.9L94,111.8a5.53,5.53,0,0,0,4.7-1.8l20.2-23a7.69,7.69,0,0,0,2-4.8l-.3-3A3.532,3.532,0,0,0,118,76.3Z"/><path class="w" d="M118.9,87,98.7,109.9a6.342,6.342,0,0,1-2.3,1.6l-.7-7.5a5.33,5.33,0,0,0,2.3-1.6l20.2-22.9c1.2-1.3,1.1-2.7-.1-3.1a3.573,3.573,0,0,1,2.5,2.8l.3,3A6.735,6.735,0,0,1,118.9,87Z"/><path class="x" d="M96.5,111.5a2.663,2.663,0,0,1-1.2.3h-.9a.756.756,0,0,1-.4-.1l-27.3-7.2a3.8,3.8,0,0,1-2.7-2.9l-.3-3a7.724,7.724,0,0,1,1.7-4.4c-.9,1.3-.7,2.5.6,2.8l27.2,7.3a3.322,3.322,0,0,0,2.4-.3Z"/><path class="e" d="M92.6,92.1l-3.8-1-8.3,9.7L75,99.3l8.2-9.7L80.6,89,84,85l2.6.7,2.6-3c1.9-2.2,5.8-5.3,10.4-4.1l4.1,1.1-3.9,4.6-3-.8a2.314,2.314,0,0,0-2.3,1l-2.4,2.8,4.2,1.1Z"/><path class="b" d="M121.3,365.7l-7-32.6c-.4-1.8-1.8-3.6-3.2-3.9L84,322.4a3.7,3.7,0,0,0-3.8,1.3l-1.7,2.5a7.744,7.744,0,0,0-.6,5.2l7,32.6c.4,1.8,1.8,3.6,3.2,3.9l27.1,6.8a3.523,3.523,0,0,0,3.8-1.3l1.7-2.5A7.882,7.882,0,0,0,121.3,365.7Z"/><path class="l" d="M119.5,368.3l-27.1-6.8c-1.4-.3-2.8-2.1-3.2-3.9l-7-32.6c-.4-1.8.4-3,1.8-2.7l27.1,6.8a5.4,5.4,0,0,1,3.2,3.9l7,32.6C121.7,367.5,120.9,368.7,119.5,368.3Z"/><path class="n" d="M115.2,374.7l-27.1-6.8a3.524,3.524,0,0,1-2-1.4l4.2-6.3a3.524,3.524,0,0,0,2,1.4l27.1,6.8c1.3.3,2.1-.7,1.8-2.4a8.178,8.178,0,0,1-.6,4.9l-1.7,2.5A3.657,3.657,0,0,1,115.2,374.7Z"/><path class="m" d="M86.2,366.5a4.129,4.129,0,0,1-.7-1.1c0-.1-.1-.2-.1-.3-.1-.2-.2-.5-.3-.7,0-.1-.1-.3-.1-.4l-7-32.6a7.814,7.814,0,0,1,.6-5.2l1.7-2.5a3.642,3.642,0,0,1,3.4-1.3c-1.2-.1-1.8,1-1.5,2.7l7,32.6a5.816,5.816,0,0,0,1.2,2.5Z"/><path class="e" d="M92.1,332.1l4,16.5a5.462,5.462,0,0,0-1.8-.6c-1.9-.4-3,1.3-2.4,3.9s2.6,5,4.6,5.4,3.7-1.2,3.1-3.8L96,338.9l11.2,2.5,2.6,10.3a5.462,5.462,0,0,0-1.8-.6c-1.9-.4-2.4,1.4-1.8,4s2.6,5,4.6,5.4,3-1.3,2.4-3.9h0l-5-20.9Z"/><path class="b" d="M463.6,205.7l2.1.4a3.871,3.871,0,0,0,3.8-1.8l15.3-25.5c.8-1.3.5-3.8-.6-5.5l-15.9-26.6c-1.1-1.7-3-3.3-4.4-3.6l-3.2-.7a3.871,3.871,0,0,0-3.8,1.8l-15.3,25.5c-.8,1.3-.5,3.7.5,5.4l17,27C460.3,203.8,462.2,205.4,463.6,205.7Z"/><path class="l" d="M459.2,202.1l-17-27c-1.1-1.7-1.3-4.2-.5-5.4L457,144.2c.8-1.3,2.3-1,3.4.7l17,27c1.1,1.7,1.3,4.1.5,5.4l-15.3,25.5C461.8,204.1,460.3,203.8,459.2,202.1Z"/><path class="n" d="M465.7,206.1l-2.2-.4a8.752,8.752,0,0,1-4.2-3.4c1.1,1.5,2.5,1.7,3.2.5l15.3-25.5a3.906,3.906,0,0,0,.4-2.6l6.9,1.4a4.624,4.624,0,0,1-.4,2.6l-15.3,25.5A3.559,3.559,0,0,1,465.7,206.1Z"/><path class="m" d="M478.4,174.7a6.3,6.3,0,0,0-1-2.9l-17-27c-1-1.5-2.4-2-3.2-1a3.811,3.811,0,0,1,3.6-1.5l3.2.7a9.665,9.665,0,0,1,4.4,3.6l15.9,26.6c.1.1.2.3.3.4a6.884,6.884,0,0,1,.3.8l.1.3c.1.4.2.9.3,1.4Z"/><path class="e" d="M457.7,175.7l13.5,1.3c0-.1-.1-.3-.1-.4l-12.8-20.4a.87.87,0,0,0-.9-.4Z"/><path class="e" d="M447.2,172.4l13.1,20.3c.1.1.1.2.2.2a1.075,1.075,0,0,0,1.4-.2l8.5-14.1-14.1-1.3-.4-20.1-8.7,14.1A1.083,1.083,0,0,0,447.2,172.4Z"/></g></svg>