<svg xmlns="http://www.w3.org/2000/svg" width="853.6" height="569.469" viewBox="0 0 853.6 569.469"><defs><style>.a{opacity:0.1;}.b{fill:#455a64;}.c{fill:#ff3600;}.d{fill:#263238;}.e{fill:#ff725e;}.f{fill:#27af95;}.g{fill:#06826a;}.h{fill:#ffbe9d;}.i{fill:#eb996e;}.j{opacity:0.2;}.k{fill:#fff;}.l{opacity:0.6;}.m{fill:#aa6550;}.n{fill:#663e35;}.o{fill:#666a6b;}.p{fill:#e0e0e0;}.q{opacity:0.3;}.r{fill:#fafafa;}.s{opacity:0.5;}.t{opacity:0.4;}.u{fill:#d88876;}.v{fill:#a85547;}</style></defs><g transform="translate(-48.2 -104.064)"><g class="a"><path class="b" d="M833.5,475.2a11.244,11.244,0,0,1-3.6,6.1c-1.3,1.1-5.5,3.3-5.9.2a23.2,23.2,0,0,1,1.2-5.7c1-2.4,2.1-.8,3.8-.5S832.1,474,833.5,475.2Z"/><path class="b" d="M822.2,222.3c.6,2.1,1,4.2,1.4,6.1-1.6,2.4-4.8,1.5-7.1,2.8-1.1.6-1.4,2.8-2.5,3.1-1,.3-1.5-.9-2.3-.9-2.1,0-3.1,4.2-5.7,3.1-1.4,1,0,5.1-1.7,5.4-1.3.2-2-1.7-2.7-3-.9-1.4-2.3-2.3-2.3-3.5s2.1-3.3,2.7-4.2c.7-.9,2.5-3,3.5-3.3,1.9-.5,3.9.2,5.4-.5s1.4-3,2-3.7,1.2-.4,1.7-.7a7.005,7.005,0,0,0,2-7c-.5-1.9-3.2-4.1-1.4-6.4a8.386,8.386,0,0,1,6.4,6.4c.2,1.2-.4,2.4-.3,3.7A9.95,9.95,0,0,0,822.2,222.3Z"/><path class="b" d="M822.8,203.4c-.3.9-1,.7-1.6,1.2s-1.3,2.1-2,2.3c-1.2.3-2.5-1.4-3.6-1-1.2.4-.6,1.6-1,3.1a4.739,4.739,0,0,1-3.2-3.5c0-1,1-1.6,1.3-2.8.4-2-.7-3-1.3-4.9,0-.3.1-.3.1-.5,1.4-.4,4.2,2.8,7.4,3.5C820.9,201.1,822.7,200.9,822.8,203.4Z"/><path class="b" d="M817.4,379.9c.2,1.4-2,1.3-2.2.3C815.3,379.1,817.2,378.8,817.4,379.9Z"/><path class="b" d="M807.3,188.7c1.4.9,4.9,3,2.5,4.9A4.435,4.435,0,0,1,807.3,188.7Z"/><path class="b" d="M800.6,372.3c1.7-1.1,3.5-3.5,6.4-2.3-.6,2.2-2.8,2.1-4.2,3.1s-2.6,2.7-4.3,2.9a1.344,1.344,0,0,0-.6-.7C797.9,373.4,799.5,373,800.6,372.3Z"/><path class="b" d="M796.7,339.5c1.7,0,3.3-.6,4.5.2-.2,4.3-5.8,1-9.5,1.7-.8.1-1,.9-1.9.5a3.4,3.4,0,0,1,2.7-3.1C793.6,338.7,795.2,339.5,796.7,339.5Z"/><path class="b" d="M798.2,344.9c.2,2.4-2.6,2.7-3.3,4.5,1.2,2.2,1.7,5.3,3,7.3,0,1.3.2,3.1-.4,3.7-2.8.7-4.5-5.7-5.7-7.8-2.2.5-.2,9.1-3.2,8-1.4-.5,0-3-.3-4.9-.3-1.7-1.6-2-1.7-3.3-.1-1.1,1-2.2,1.3-3.3.5-1.6.2-4.6,1.7-4.7.8,0,1.8,2,2.3,2.1C793.7,346.9,795.7,344.4,798.2,344.9Z"/><path class="b" d="M792.8,370.8c-.5,1.3-3.5.7-3.8-.5C789.6,368.9,792.6,369.4,792.8,370.8Z"/><path class="b" d="M790.1,375c-.2.2-.4.5-.6.7-1.1-.4-2.3-.7-2.6-2.1C787.7,372.2,790,373.4,790.1,375Z"/><path class="b" d="M786.1,370.7c-.7,1.2-3.3-.1-4.2,1.2-1.5,0-3,0-3.3-1.6.4-1.3,1.8-.4,2.8-.5C783.3,369.6,785.7,368.1,786.1,370.7Z"/><path class="b" d="M765.7,437.3c-.3-1.5-.6-3-1-4.5a14.7,14.7,0,0,0,0-2.1,11.7,11.7,0,0,1-.4-2.6c.2-1.2,1.3-1.3,1.6-2.3.5-1.6-.6-1.9-.6-3.8,0-1.4.9-2,1.4-3.8.3-.8.3-2.4.6-3s2-1.4,2.6-1.7c2.2-1.3,4-3.7,6.2-4.2.6-.1,1.3.1,1.7,0,1.3-.3,3-1.6,4.8-2.1s3.3-.3,4.6-1.2a14.808,14.808,0,0,0,4.1-5.2c.7-1.9.5-3.5,1.7-4.2.6-.3,1.2,0,1.9-.2a8.689,8.689,0,0,0,2.6-1.6c1-1.1,1.2-2.8,2.3-4a21,21,0,0,1,3.3-2.6,4.756,4.756,0,0,1,2.3-.7c2,.2,3,3.6,5.2,3,.8-.2,1.6-2.3,2.3-3.5,1-1.8,1.8-4.2,3.6-4.7,1.4-.4,3.1.7,3.9-.9.2-1.1-.7-1.7,0-2.4,1.7.1,4.5,2.8,7.1,3,1.4,0,3.9-1.8,4.2.7.1,1.1-1,2-1.3,3.1-.2.8.3,1.2-.1,2.1-1.2.6-2.4.8-2.5,2.4,0,2,2.3,2.8,3.8,4,1,.8,1.8,1.9,2.3,2.3a9,9,0,0,0,1.4.7c.9.7,1.6,2.4,2.8,2.4s2.9-2.2,3.8-4.3a45.351,45.351,0,0,0,1.4-8.2,26.708,26.708,0,0,1,.9-2.6c.6-2.4,1.3-5.7,3-6.4,1.7,2.2,2.3,6.5,2,10.1,1.2,1,3.2.7,3.5,3.1.1.8-.3,1.9-.3,2.8.1,1.4,1,2.7,1.2,4,.3,2.3-.3,4.2.6,5.9,1.1,2.1,3.3,2.1,4.8,4.3a10.756,10.756,0,0,0,.7,3.1c.1.5,0,1.4.2,1.7.5,1.2,1.7,1.3,2.2,2.3.2.5.2,1.4.4,2.3a24.3,24.3,0,0,0,2,3.5,17.036,17.036,0,0,1,1.9,3.5c.3,1.7-.8,2.9-1,4.3-.3,1.7,0,4-.6,5.8-.7,2.1-2.3,4.2-3.6,6.8a22.545,22.545,0,0,1-4.1,6.1c-.9.9-2,1.4-2.8,2.3a43.341,43.341,0,0,0-3.8,4.7c-1.3,1.7-2.8,2.9-3.9,4.3-1.5,2.1-2.2,5.4-4.8,5.7a11.954,11.954,0,0,0-4.2.7c-2.1,1-3.6,2.9-4.6,2.9-1.1,0-2.2-1.6-3.2-1.7-1-.2-2.1,1.1-3.8,1-.7,0-1-.5-2-.9-2.1-.8-4.3-.8-4.6-3.5-.2-1.5.8-2.2.7-3.5s-1.1-1.7-1.6-2.8a3.235,3.235,0,0,0-.7-3.5,3.353,3.353,0,0,1,.6-2.4,24.366,24.366,0,0,0-2.8,1.4c-1,.8-1.8,2.5-3,2.3-1.1-.5-.3-1.8-.4-2.9a17.273,17.273,0,0,0-2.5-5.1,21.928,21.928,0,0,0-4.9-2.3c-4.5-.8-7.3,2-10.9,2.5a24.3,24.3,0,0,0-2.7,0c-2.9.6-6.1,3.4-8,5.2-3,.4-6-.7-9.1.4s-4.8,4.2-9.5,3.3c-.9-1-2.6-1.4-2.6-3.1,0-1.3,1.6-2.2,2.2-3.1a14.122,14.122,0,0,0,1.6-4.9c0-1.2-.7-2.5-.6-4C765.2,439.6,765.7,438.4,765.7,437.3Z"/><path class="b" d="M763.3,364.8c.8-.1,1.4-.8,2.2-.9,1.7-.1,3.4,1.5,5.4,1.2.4.6.1,1,.2,1.9,1.7,1.1,4.5.9,5.4,3-1.3,1.6-3.2.5-4.8.2s-3-.1-4.6-.4c-2-.3-3.9-1.6-5.8-1.9-1.2-.2-2.4.2-3.5,0s-6.1-2.4-6.2-4,2.2-2.1,4.2-1.7C758.2,362.6,759.9,365.3,763.3,364.8Z"/><path class="b" d="M767.2,352.8c-1.1-.4-2.1-.2-2.6-.5-1-.7-.8-2.8-1.2-4-.3-1.2-1.5-1.8-2.2-3.5-.9-2.4-1.4-7.7,1.2-8.2,1-.2,2,.7,2.7.5,1.4-.4,1.1-2.6,2.3-3.5.7-.5,1.8-.3,2.8-.7a5.894,5.894,0,0,0,2.3-2.4c.6-.9,1.1-2.3,1.9-3,.8-.6,1.7-.7,2.5-1.4,1.9-1.7,2-4.2,3.5-6.3,1.3-1.8,3.3,1.7,3.5,3.1.7,1.1,2.1,1.4,2.7,2.6-.8,3.1-3.3,3.3-2.7,7.6a17.1,17.1,0,0,0,.9,3c.4,1,1.6,2.1,1.6,2.8-.1,1.3-2.3,1.2-2.7,2.6s0,1.4-.1,3.3c-.6,1.4-2.3,1.8-2.8,3.5-.6,2.1.1,4.7-1.3,6.3-1,0-2,1-3.2.9s-2.5-2.2-4.5-2.3c-.8,0-1.7.6-2.5.5C768.3,353.8,768.1,353.1,767.2,352.8Z"/><path class="b" d="M757.8,348.9c3.7,0,3.7,6.9,0,6.9S754.1,348.9,757.8,348.9Z"/><path class="b" d="M752.4,348.1a6.87,6.87,0,0,1,2,3.5c0,1.2-1.6,1.2-2,2.8-.7,2.5.3,5.3-.9,6.6a5.478,5.478,0,0,1-2.8.4,51.987,51.987,0,0,1-7-7.8,16.575,16.575,0,0,1-2.3-3.1c-.8-1.7-1-3.5-1.9-5-.8-1.5-2.2-2.4-2.8-3.8-.6-1.2-.7-2.8-1.3-4s-1.6-1.6-2.3-2.4a13.9,13.9,0,0,1-1.1-2.1c-1.8-2.6-5.3-4-5.5-7.8.7-1,1.5.4,2.8.7.9.2,2-.1,2.6.2,1.3.5,2.2,3,3.6,4.3.8.8,1.8,1.3,2.6,2.1a32.805,32.805,0,0,0,2.2,2.6c.9.7,2.3,1.1,3.5,2.1,1.7,1.3,4.7,2.6,5.1,5.2.1.7-.3,1.7-.2,2.3.2.9,1.2,1.3,1.7,2.1.6.8.9,2.4,1.9,2.6C751.3,349.5,751.3,347.9,752.4,348.1Z"/><path class="b" d="M684.1,311.5c1.2.5,5.4,6.6,4.2,9.9a3.087,3.087,0,0,1-3.2,1.9c-2.8-.6-2.3-8.2-1.4-11.3A1,1,0,0,1,684.1,311.5Z"/><path class="b" d="M587.8,399.6a8.261,8.261,0,0,1,1.9-4.5c1.3-1.2,3.1-1.1,4.5-1.9a13.009,13.009,0,0,0,3.5-3.1c.7-1.1.7-2.3,1.3-3.1.4-.6,1.3-.7,1.7-1.4.5-.7.3-1.8,1-2.4,2-1,2.6,3.4,2.9,6.4a16.727,16.727,0,0,1,.4,2.4c-.2,1.4-1.4,1.7-1.9,2.6a33.758,33.758,0,0,1-2.5,10.3c-1,2.7-1.5,5.7-2.3,8a24.021,24.021,0,0,0-1.1,2.3c-1,3-1.4,7.6-3.3,8.9a13.9,13.9,0,0,1-4.1,1.2,4.35,4.35,0,0,1-3.8-3.5c-.2-1,0-2-.1-3.1a15.388,15.388,0,0,1-.7-4.2c.3-3.5,3.2-5.3,3.3-8.2C588.6,404,587.6,401.8,587.8,399.6Z"/><path class="b" d="M518,152c.2,2.9-3.7,2.5-4.2,5.1-.2,1.1.4,2.6.3,3.6-.3,1.8-1.8,1.3-3.6,2.3-.9.5-1.9,2.3-2.8,2.4s-1.5-.7-2.2-.5c-.9.2-.6,1.6-2,1.9-1.1.2-3.1-1.2-3.2.5-.1,1.1,1.7,1.7,2.8,1.6.9-.1,1.6-.8,2.5-.9,1.7,0,2.8,1.5,3.9,1.6,2.5.1,4.9-2.8,7.5-2.4,1.2.1,1.9,1.1,2.7,1,1.4-.2,2.6-2.1,3.6-2.8-.4-2.9,0-6.8,2.3-7,1.6-.1,3.9,3.2,4.2,0a2.507,2.507,0,0,0-2.2-2.6c-.8,0-1.9,2-2.6.4,0-1.6,1.4-1.2,2.3-1.6.6-.3,1-1.1,1.7-1.4,3.4-1.4,8.2,1.4,9.6-2.1-3.1-3.1-8.3,1.1-11.7.9a4.667,4.667,0,0,1-3.9-3.1,14.168,14.168,0,0,1-.1-2.3c-.1-1-.6-2.3-.6-3,.1-3.1,6.7-3.7,6.7-7.7-1.2-1.4-4.9-1.2-6.1.4-.4.6-.4,1.7-1,2.8-1.3,2.4-5.5,2.7-6.8,5.6a7.024,7.024,0,0,0-.6,3.5C514.9,149.8,517.9,150.3,518,152ZM483.5,322.1c-4.2-.7-8.5,1.3-11.3,2.8-1.7.9-3.3,2.2-4.8,2.3s-2.7-.9-4.1-1a18.237,18.237,0,0,0-5.7.3c-1.7.4-3.2,1.8-4.6,1.9-2.8.3-5.5-3-7.2-4.7-1.1-1-2.2-1.8-3.2-2.8s-2.5-1.6-3.3-2.6c-1.1-1.3-1.1-3.6-1.7-5.4-.7-2.1-2.8-3.6-4.5-5.6-1.2-1.4-4-3.7-4.3-5.6-.2-1,.4-2.1.3-3.1-.1-1.5-1-2.4-1-3.5,0-1.5,1.5-2.7,1.9-4,.2-.7.1-1.6.3-2.4.4-1.8,1.4-2.8,1.2-5.4l-.9-3.3c0-.9.5-1.4.4-2.3-.1-1.5-1.7-1.8-1.9-3.5s1.4-3.2,2.3-5.2c.4-.9.6-2.3,1-3,.8-1.4,2.1-2.2,2.7-3.7.5-1.1.6-2.7,1-3.5.5-1,1.6-1.6,2.6-3,.8-1.1,1.2-2.5,1.7-3a12.272,12.272,0,0,1,2.6-1.2,12.282,12.282,0,0,0,5.9-6.4,8.186,8.186,0,0,1,1.2-5.9c.9-1.8,1.5-3.5,3-4.5,1.8-1.2,3.5-1.3,4.8-3.7a11.22,11.22,0,0,0,1.6-4.3c0-1.7-1.4-3.9-2.8-4.2-1.3-.3-3.3,1.2-4.1-.5a19.2,19.2,0,0,1,0-2.4c-.2-1.1-1-1.9-1-2.8-.1-1.6,1.3-3.3,1.7-5.2.6-2.6,0-4.5-.1-7.5,2-3.8,6.5-1.9,11-1.6.7,0,1.4-.2,2.2-.2,2.7.1,4.8,1,5.7-1.7a19.367,19.367,0,0,0,.4-5.9,15.405,15.405,0,0,0-3-4.9c-1.4-1.1-3.5-.6-4.3-2.6.7-3.4,3.9-.6,5.8-1.4,1-.4.9-2.5,1.7-2.8.6-.2,1.3.7,2.2.7a14.714,14.714,0,0,0,3.9-2.1c.9-.8,1.2-2.3,2-3a14.581,14.581,0,0,1,1.9-.7,10.8,10.8,0,0,0,3.6-3.1c1.2-1.7,1.7-3.9,3.2-4.2,2-.4,6.3.5,6.7-2.1.3-2.6-1.8-4.3-1-7,.6-2.1,2.2-1.7,4.3-3,1.1.9.8,3.5.9,5.1,1.3,0,4.1-.5,4.3-1.9.3-1.8-2-3.6-2.5-4.7s-.7-3.2-1.7-3.5c-2.2-.5-4.3,3.7-7.1,3.7a5,5,0,0,1-4.2-3.3,13.128,13.128,0,0,1-.1-2.8,13.481,13.481,0,0,1-.6-4.9c1.1-2.3,3.7-2.7,5.5-3.8.7-.4,1.3-1.4,2-1.7,1.3-.6,3.2,0,4.5-.9.8-.6.6-1.5,1.2-2.6.4-.7,1.2-1.1,1.7-1.9.3-.6.4-1.4.7-1.9,1.3-1.9,3.6-2.6,4.5-4.5.4-.8-.7-1.2-.4-2.4.3-1.3,2.3-.3,3.3-.5,1.4-.3,2.8-2.4,4.3-2.8,1.5-.5,3.4-.2,4.9-.9.9-.4,1.7-1.4,2.6-1.6.3,0,1.1.2,1.6.2s1.1-.4,1.9-.5a28.973,28.973,0,0,1,3.8.4c2.3,0,4.5-.8,6.4.2,1,.5.9,1.9,2.2,2.4.6.3,1.5-.1,2.5,0,1.4.2,2.8,1.4,4.8,1.6.7.1,1.4-.1,2,0a38.093,38.093,0,0,1,6.4,2.4c1.7.7,5.3,1.5,5.4,3.5.1,2.3-3.1,3-4.5,3-2.3,0-5.3-1.6-7.7-.7a6.38,6.38,0,0,0,6.4,6.4h.4c.3-1.8-1.8-.8-1.6-2.6,1.4-1.3,3.2.9,5.2.5.8-.3.7-1.6.9-2.6,1.7-1.3,3.9-3.1,6.5-1.7a1.344,1.344,0,0,1,.6-.7c.2-1.9-1.7-2.8-.7-4.7.5-1.2,3.2-.8,3.6.2.2,1.2-.7,1-.6,2.1a2.373,2.373,0,0,0,2.3,1.6c1.4-.1,1.7-1.6,3-2.4.5-.3,1.3-.4,2-.7s1.5-1.2,2.2-1.4,1.2,0,1.9-.2,1.8-1,2.5-1,1.5,1.2,2.6,1.4c.6.1,1.3-.4,2.2-.5s1.4.1,2,0c1.4-.2,2.3-1.1,3.5-1,.8,0,2.2,1.4,2.7.7.9-1.1-1.2-1.9-.6-3,2.2.2,4.6.1,6.8.5,3.3.6,6.4,2.5,9.4,2.6-.3-2.4-2.6-1.7-3.6-2.8a9.478,9.478,0,0,1-1.6-3.7,20.28,20.28,0,0,1,2-4.2c1.3-1.4,5.5-1.4,6.7.5.8,1.3.6,3.3,1.7,3.3,1.2,0,1.6-3,2.7-3.1,1.2-.1,1.5,1.9,2.5,1.9,1.2,0,2-2.7,3.6-2.8.8,0,1.1.5,2.5.7.9-.7-.3-1.6.2-2.6,1.6-1.4,5.3-.3,7.4-1.2.6-.8-.7-1.4-.1-2.3,1.8-1.5,4.8-1.6,7.8-2.3,1.9-.4,3.6-1.9,5.1-2.1s3,1.1,4.3,1a7.714,7.714,0,0,0,2.6-.7c.8-.4,1.4-1.3,2.2-1.6,1.3-.4,2.8.2,4.3,0s2.9-.9,4.1-.7c1.1.2,1.9,1.6,2.8,1.7,3,.6,6.2-.6,9,.3.5.2,1,.8,1.6,1,1.9.8,3.1.6,3.5,3.3,1.4.6,2.3,2.2,4.1,2.8,1.1.4,2.3-.2,3.6-.2a48.863,48.863,0,0,1,5.4.3c.8.2,1.5.9,2.3,1a13.352,13.352,0,0,0,2,0,18.425,18.425,0,0,0,2.5.5c1.5,0,2.7-1.7,3.9-1.9a8.329,8.329,0,0,1,2.2.3c2.4.3,5.3-.4,7.2.2a16.542,16.542,0,0,1,4.1,2.8,29.92,29.92,0,0,0,2.2,2.6,6.364,6.364,0,0,0,3.5,1.4c.9-.2,1-1.4,1.9-1.9,2.8-.8,8,1.1,10.3-.2.9-.5.7-1.6,1.4-2.3,4.3-.3,8.7.2,12.7.4a29.538,29.538,0,0,1,4.2-.2c1.4.3,2.5,2,3.9,2.6.9.4,2.6.2,4.1.5,1,.2,1.7.9,2.5,1a17.062,17.062,0,0,0,4.5-.3c3.3-.3,7.6-.5,10.9,1,1.7.8,2.5,2.5,4.3,2.8,2.7.4,6.8-.3,9.6,0a10.46,10.46,0,0,0,1.7.4c.9-.1,1.4-1,2.6-1,1.4,0,3.7,2.7,5.8,2.3.9-.7-.7-1.7.1-2.4s1.9,0,3.2,0c.7,0,1.5-.4,2.2-.4,1.6.2,3.1,1.9,5.1,2.4a15.563,15.563,0,0,0,5.7.4,13.062,13.062,0,0,1,3.9-.5c.6.1,1.2.7,1.9.9s1.2,0,1.7.2.9.7,1.4.9c2.7.9,6.3,1.4,9.1,2.4,1.7.6,3.4,1.9,4.8,1.9.7,0,1.3-.4,2.2-.4,4.4,0,9.5,2.2,9.1,7.1-5,1.7-9.2-4-14.6-2.3a2.7,2.7,0,0,0-1.7,2.4c.2,3,6.6,2.8,7.1,5.7-1,.9-2.2,0-3,.2a8.982,8.982,0,0,0-4.3,2.8c-1,1.1-1.8,3.9-2.8,4.2-1.3.3-3.3-1.5-5.2-1-.7.2-1.4,1.2-2,1.4-1.6.4-3.6-1-4.6,1.2.5,1.6.2,3.8,1.3,4.7.7.6,1.6.1,2.5.5s1.6,1.9,2.5,2.8,1.5.7,1.9,1.6c.1,1.3-.4,1.4-.3,2.3.2,1.4,2.1,1.8,2.2,2.8.1,1.2-1.2,1-1.4,2.3-.1.8.8,1,.9,2.1,0,.7-.5,1.4-.4,2.3.1,1.2.8,1.9.7,3a2.585,2.585,0,0,1-1.3,1.9c-2.8-2.1-5.3-5.1-8.3-7.8s-7.9-6.3-8.4-12.2c0-.9,1.6-1.6,1.9-3,0-.7-.1-1.4-.1-2.1.1-2,1.5-4,1.4-5.2a6.809,6.809,0,0,0-3.2-4.2c-.8.5,0,1.6-.1,2.4a3.16,3.16,0,0,1-2.2,2.4c-2.7.3-3-4.2-7.4-3a4.5,4.5,0,0,0-2.4,4.9c.1.8,1.9,1.6,1.7,2.6-.1,1-4,1.3-4.8,1.2-2.3-.2-3.5-2.3-5.7-2.3-1,0-1.9,1-2.8,1.2-4.6,1-11.3-2.7-12.9,2.1-.2.7-.1,1.6-.3,2.3-.3,1-.9,1.8-1.1,2.4s-.2,1.6-.4,2.4c-.3.8-3,3.7-.6,4.5.6.2.8-.3,1.6-.2,1.2.2,3.3,2.6,4.8,2.6.9,0,2.1-1.2,2.7-1.2,1.4-.1,2.3,1,3.3,1.6s2.5,1.8,3.2,1.7c1.4-.1.7-1.2,2-1.7,2.5.9,3.7,4.1,6.1,6.6.9.9,2.2,1.7,3.3,2.9.7.7,2.7,2.6,2.8,3.5s-.6,1.2-.7,1.9c-.2,1.1.3,1.8-.3,2.6-2.3-1-2.8-3.8-4.5-6.1a31.317,31.317,0,0,0-2.2-3.1c-.4-.6-2-2.5-2.8-2.1-1.8.8,1,4.2,1.4,4.9a14.294,14.294,0,0,1,2.3,5.2c0,1-.6,2.9-.6,4.7,0,1.2.3,2.3.2,3.3-.3,1.1-.6,2.2-1,3.3-.3,1.3-.4,2.8-.7,3.7-.6,1.6-2.5,3.4-3.8,3.5s-1.7-1.1-2.8-1c-1.8.1-2.1,2.1-3.2,3.6.1,1.7.5,2.3.3,3.5-.4,1.8-2.5,2.2-2.5,4,.1,1.8,1.9,2,2.8,2.8a29.639,29.639,0,0,1,4.8,5.2,10.5,10.5,0,0,1,1.9,4.9c-.1,1.7-4.2,4.1-5.9,3.5s-1.1-2.5-1.4-4.2c-.3-1.3-1.2-1.9-1.6-2.9a19.131,19.131,0,0,0-.4-2.1c-.9-1.8-2.4-.8-4.2-1.9-1.2-.7-.8-2.3-1.3-3.7-.6-1.9-3.2-2.7-5.4-2.3-1.5.4-2,1.9-3.5,2.3-2.1-1.5.4-5.2-2.2-5.6-2-.3-3.3,3.4-4.5,4.5-.8.7-2.2.9-2.3,1.9-.2,1.9,1.7,1.5,3.2,2.3,1.5.7,1.5,2.5,2.7,2.6s1.7-1.3,2.7-1.4a6.214,6.214,0,0,1,4.3,1.6c-.7,2.1-4.6,3.7-4.6,6.4,0,1.6,1.6,1.9,2.7,3,1.2,1.1,2.3,3.4,3.8,5.2.6.8,1.6,1.3,1.9,1.7.7,1.1.6,2.5,1.3,3.3.1.9-.4,1.2-.3,2.1.4,1.2,2,1,2.3,2.3-.3,3,.7,5.8-1.3,7-.9,5.4-2,9.6-5.1,12.5-2.7,2.6-6.4,3.4-9.7,4.7-.9.3-1.5,1.4-2.3,1.7-1.9.8-5.4.3-5.5,3.1-.1,1.4,1.4,2.2,1.6,3.7.2,2.2-1.4,4.4-2.6,4.5a2.6,2.6,0,0,1-2.8-2.4h0c-.1-2.1,2.2-2.9,2.3-4.2a3.635,3.635,0,0,0-3.2-4.1h-.6c-1.9.2-6.3,4.8-6.4,7.3-.1,1.9,3.1,5.8,4.2,7,4.1,4.2,8.4,6.9,7.7,17.4-1,2.7-3.6,3.2-5.7,4.7-1.5,1.1-2.3,4.6-4.9,4.9-1-.4-.4-2.4-.7-3.3-.4-1.2-2.5-1.9-3.8-3.1-1.1-1-1.5-2.7-2.3-3.7-1-1.2-2.5-1.4-3.8-2.3-.8-.5-1.4-2.3-2.2-2.3-1.3,0-.8,1.5-1.2,4s-1.8,4.2-1.3,7.1c.2,1.2,1.4,2.1,2,3.3,1,2,1.1,4.2,2.2,5.4.7.7,1.8.9,2.6,1.6,1.5,1.3,4.2,4.2,4.8,5.8.6,1.8,0,4,.4,5.9.5,2.2,2.8,3.8,1.4,6.1a10.961,10.961,0,0,1-3.7-2.3,12.607,12.607,0,0,1-4.2-5.2l-1.2-2.1c-.5-1.6-.4-3.3-.9-5.2a18.467,18.467,0,0,0-3.2-5.6c-1-1.1-2.8-1.8-2.8-3.5-.1-2.3.7-5.1.6-7.8,0-.6-.4-1.2-.4-1.9-.2-1.4.1-3-.2-4.2a16.923,16.923,0,0,0-1.3-3.1,21.227,21.227,0,0,1-1.1-3.3c-.6-2-1.2-5.9-2.6-6.1s-2.8,3.3-4.8,3.3a2.767,2.767,0,0,1-2.5-2.1c-.2-1.1.5-2.1.4-3.3,0-2.3-1.4-3.2-2.5-4.9a22.019,22.019,0,0,0-.9-2.1c-.7-.9-1.9-1.4-2.7-2.4a12.652,12.652,0,0,1-2-3.1c-.6-1.4-.7-3.1-1.6-3.3-.8-.2-1.8,1.2-2.6,1.6a27.433,27.433,0,0,1-3.9.9c-2.8.2-5.3-.7-4.9,3.5-.5,1.9-2.1,1.9-3.2,2.8-1.4,1.1-2.4,3.4-3.9,5.2-.7.9-1.8,1.4-2.5,2.3-.7.8-.7,1.8-1.3,2.4-1.5,1.8-3.9,1.9-4.9,4.3-.1,2.8,1.1,5.1.9,7.8-.1,1.3-.9,2.4-1,3.7.1,1.2.2,2.3.2,3.5-.1.6-.7,1-1.2,1.7-.4.8-.6,1.6-.9,2.1a16.6,16.6,0,0,1-1.8,1.9c-.7,1-.9,1.8-1.6,1.9-3.2.5-4-6.7-5.4-9.7-.7-1.4-2-2.7-2.6-4.3-.6-2.2-1.2-4.4-2-6.6a30.6,30.6,0,0,1-2.7-5.8c-.5-1.6-1-3.7-1.4-5.6a38.381,38.381,0,0,1-1.1-5.9c-.1-2.3.4-3.7-1.2-4.5-1.4.4-2,2.1-3.6,2.1s-5.7-3.2-4.5-6.1c-1-1.7-3.6-2.7-5.5-4.7-1.1-1.2-2.1-3.9-4.1-4.2-.6.1-1.2.2-1.7.3-1.2.1-3.4-.1-4.8,0a25.06,25.06,0,0,1-6.1.4c-1.4-.2-3.2-.5-4.6-.7-1.8-.2-4.2-.8-5.4-1.9-.6-.7-.9-3-2-3.3s-2.1.9-3.3,1.2c-2.6.7-4.9-.7-6.7-2.1-1.3-1-2.4-1.5-3.3-2.3-2.2-1.8-2.6-7.1-5.9-7.1a3.33,3.33,0,0,0-3.2,2.4,9.917,9.917,0,0,0,1.6,4c1.6,2.7,4.6,3.8,5.5,7.5.6.3,1.8-.6,2.5.2.6,1.6,0,4.5,1.3,5.2,6,1.2,7.7-2.8,10.4-5.6,1.6,1.2,1,2.3,1.6,3.7a5.277,5.277,0,0,0,2.5,3c.7.3,1.7,0,2.8.5.7.3,3.5,3.6,3.6,4.7s-1.9,4.5-2.5,5.4-1.4,1.3-1.7,2.1-.1,1.9-.3,2.3c-.3.7-1.6,1.6-2.3,2.4-.8.8-1.6,1.5-2.5,2.3s-1.4,2-2.5,2.5c-1.9.8-3.8.5-5.4,1.7-1,.8-1,2.7-2.3,3.7s-3.6,1-5.5,2.1c-1.2.7-2,2-3,2.4-.4.2-1,0-1.4.2-1,.3-1.8,1.1-2.7,1.4s-1.4.1-2.2.4c-2.2.8-4.2,3.5-6.5,1.9-1.1-2.9-1.2-6.6-2.5-9.2-.6-1.3-1.9-1.7-2.3-3.1,0-1.1,1.1-.8,1.2-1.7-.4-1.9-1.8-2.8-2.7-4.3-.4-.8-.7-1.9-1.2-2.8-1.7-3-5.1-4.6-5.8-8.3a24.388,24.388,0,0,1-.1-2.6,10.377,10.377,0,0,0-1.7-3.7c-.6-.8-1.7-1.3-2.3-2.4-.4-.8-.5-1.8-.9-2.6a28.229,28.229,0,0,0-5.8-8.3c-1.2.2-2.5.3-3,1.2a27,27,0,0,0,2.5,6.1,28.9,28.9,0,0,1,2.7,5.6c.2.7.2,1.7.4,2.4.9,2.8,3.8,3.6,4.3,6.8.4,2.1-.1,3.6.4,5.7s3,3.3,4.1,5.2c.8,1.6.9,3.9,1.4,5.4.9,2.2,3.3,3.2,5.1,4.7a48.349,48.349,0,0,1,4.1,4.9c.8.8,1.8,1,2,1.9.3,1.2-.4,1.6-.6,2.6,1.1,1.4,2.2,4,4.1,4.2.8.1,1.7-.8,2.8-1,.6-.1,1.2.1,1.7,0,.8-.2,1.4-1,2.3-1.2,1.4-.4,3.2-.2,5.1-.5s3-2.1,4.3-1.6c1.5,2,.4,4.2,0,6.1a18.126,18.126,0,0,0-.3,1.9c-.8,3.1-2.8,5.4-3.8,8.2-.3.8-.2,1.9-.6,2.8a30.87,30.87,0,0,1-5.1,7.8c-.9,1.2-1.8,2.4-2.8,3.5-1,1-2.3,1.6-3.5,2.6a34.084,34.084,0,0,0-6.4,7.7,30.137,30.137,0,0,1-1.6,3.1c-.9,1.3-2.4,1.9-3.2,3.1a27.531,27.531,0,0,0-1.7,4.5c-.8,2-2.5,3.3-2.2,6.1.1,1,.9,1.7,1.2,2.8a16.321,16.321,0,0,1-.1,5.4c.8,2.4,1.4,5,2.8,6.6.2,3.5-.2,6.9,0,9.9.2,1.9.8,3.3.1,5a15.48,15.48,0,0,1-3.9,5.2c-1.4,1.1-3.5,1.4-4.9,2.6-1,.9-1.9,2.4-2.9,3.5-1.7,1.7-4,3.3-4.2,5a10.635,10.635,0,0,0,.9,3.5c.6,2.6,1.1,6.3.1,9.1-1,3-6.3,2.4-6.9,5.6-.2,1,.4,1.7.3,2.8a32.273,32.273,0,0,1-1.4,5.1c-.6,1.4-2.1,2.1-3,3.3-1.2,1.5-1.8,3.8-3,5.4a53.691,53.691,0,0,1-6.2,6.4,16.408,16.408,0,0,1-8.4,3.7c-1.8.2-3.6-.5-5.5-.2-.7.1-1.4.9-2.3,1-.5.1-1-.1-1.6,0-.9.2-1.8,1.1-2.6,1-1.9,0-4.2-2.7-4.3-5.4,0-1,.7-2,.7-3,0-.9-1.1-2.5-2-4.5s-1.2-4.1-2-5.7c-.8-1.5-2.1-2.5-2.7-3.8-1.3-2.7-1.4-5.8-1.9-9.1-.1-1-.7-2.2-.9-3.5-.2-1.6.2-3.4-.1-4.7a34.123,34.123,0,0,0-1.7-3.3c-1-2.3-1.7-5.2-2.6-7s-2.5-3.4-2.6-5.2a40.283,40.283,0,0,1,.3-4.9c.2-1.2.9-2.2,1.2-3.5a25.281,25.281,0,0,0,.1-2.8c.7-4,4.4-5.4,3.9-10.3-.2-2.1-1.4-3.1-1.6-5.4-.1-1.1.5-2,.4-3.1a18.223,18.223,0,0,0-1.6-5c-1.4-3.8-2.4-7.4-4.5-10.3-1.1-1.6-2.7-2.7-3.6-4.2a11.4,11.4,0,0,1-1.7-4.3c0-1,.6-1.6.9-2.6.3-1.3.3-3.7.7-5.7a18.62,18.62,0,0,0,.9-4.7c-.1-1.4-2-4.2-3.5-4.7-2-.6-4.1.8-6.7.5C486.6,327.1,486.7,322.7,483.5,322.1Zm80.1,62.4c.7-1.3,1.5-4.9,0-5.7h-.3c-.6,1.3-1.3,4.8.3,5.7Zm-2-36.4c.5-1.2,1.6-2.5,1.4-4-.4-3.4-5.7-1.7-6.2.7-.4,1.6.2,2.8-.3,4.5.6,1.3,2,1.5,3.8,1.4,1-.5.8-1.5,1.3-2.6ZM552.7,366c.6-1.3-.9-2.1-1.1-3.5-.3-1.6.3-3.5-.9-4.3h-.4c-1.1,2.8.4,7.5,2.4,7.8Zm98.8-172.8c-.6-1.3-2.1.4-1.4,1.6.9.1,1.3-.6,1.4-1.6Zm-33.7,7.1c2.4-.6,0-5.1-1.7-4.5-2.4.7.1,4.9,1.7,4.5Zm-10.7,22.4c.7-6-3.2-6.5-3.9-10.8.3,0,.2-.5.4-.5.9-.6,2.4.9,2.8-.5a2.924,2.924,0,0,0-3-2.9,2.768,2.768,0,0,0-1.3.3c-.6-.5-.7-1.7-.9-2.8-1.6-1.2-5.7-3.7-5.7-6.1,0-1.9,2.1-3,4.5-2.9,1-.9.4-3.7-.6-4.4-3.7-1-5.7-.3-8.1,1.7-1.1,1-2.4,1.7-3,2.3a5.171,5.171,0,0,0-1.3,2.8c.1,1.1,1.4,1.7,1.9,3.1a22.312,22.312,0,0,1,.4,2.3c.6,1.7,2.3,2.8,3.5,4.2.9,1,3.3,3.2,3.3,4.3,0,1.2-.8,1.2-1,2.3a12.58,12.58,0,0,0-.4,4.3c.3,1.9,2,2,3.5,2.8,1.5.9,2.9,2.2,4.5,2.3a5.177,5.177,0,0,0,4.4-1.8Zm-34-12.5c3.9-.8,2.1-4.8.1-6.3-1.5-1.1-3.3-2-5.1-3.3-1-.8-4.9-2.2-4.9-3.7s2.8-2.2,1.7-5c-2-.6-6.7.3-6.4,3,.2,1.5,1.7.7,2,2.3-1.4.6-3.1,2.2-4.6,1.9-1.8-.3-2.2-3-3.2-4.5-1.4,0-2.3-1.6-3.9-1.4s-2.6,3.2-3.5,4.7c-.5.8-1.2,1.2-1.4,1.9-.2.4,0,1.1-.1,1.7-.5,1.9-1.9,2.6-1.7,4.3s1.5,2.2,1.6,3.5-1.9.7-1.7,2.3c2.6,2.6,2.7-1.2,4.1-1.7,1.1-.4,3.1.4,4.5,0,1.1-.3,1.9-1.5,3.2-2.1a8.865,8.865,0,0,1,2.8-.7c4.6-.2,7.6,3.4,11.6,3.5a28.514,28.514,0,0,0,4.9-.4Zm-9.3,20.5c.1-1.9-.6-3.3-.7-5.9-2.7-1.9-4.7,1.8-7.4,1.4-1.7-.3-2.8-2.6-4.6-2.3-1,.2-1.4,1.7-2.5,1.9-2.1.5-3-2-5.2-1-3.1-2.8-4.5-7.5-5.2-12.7-1.7-2.7-4.2-.5-5.5,1.2-.8,0-1.7-.5-1.9.5-.6,3.2,3.8,3.6,3.8,5.7,0,1.4-1.7,1.3-2.5,2.3s-.3,2-1.3,2.6c-2.8.4-3.8-1.4-3.8-4.5-1.2-2.3-2.8-3.9-3.9-5.8a7.674,7.674,0,0,1-1.2-2.8c-.1-.8.3-1.9.1-2.8-.3-1.7-2.8-2.9-4.5-3.8a26.722,26.722,0,0,1-5.1-3.1c-.9-.9-1.3-2.4-2-3s-1.4-.4-2-.9-.7-1.8-1.7-2.1c-.6-.2-1.4.7-1.7,1.2-.7,3.8,1.9,4.1,3,5.7.8,1.2,1.2,2.8,2,3.7.8.8,2.1.7,3.2,1.2.8.4,1.3,1.5,2,2.1,1.4,1,3.6,1.2,3.8,3.1-.9.7-2.8-1-3.5.7-.2,1.1.8,1.7.7,2.8,0,1.7-1.6,3.6-3,3.3-.1-1,.8-1.9.7-3-.1-2.2-3.8-5.7-5.7-6.6-.9-.5-2-.5-2.7-1a23.73,23.73,0,0,1-4.8-4.7c-1-1.6-1.9-4.7-4.2-4.5-.9,0-1.7,1.1-2.5,1.6a16.444,16.444,0,0,0-2.2,1.4c-.8.7-1.5,1.4-2.3,1.4-1.8.1-3.4-1.6-4.9-1.2-.5.1-1,.7-1.6,1.4a25.282,25.282,0,0,1,.1,2.8c-.5,1-1.9.9-2.9,1.6a27.822,27.822,0,0,0-4.1,4.3,6.332,6.332,0,0,0-1.6,2.4c-.1.6.4,1.7.3,2.4a8.561,8.561,0,0,1-2.3,3.3c-.5.4-1.2.5-1.7.9-1.1.8-1.7,1.9-2.6,2.1-2.5.6-7.1-.6-7.1,2.6,0,2.2,2.4,2.2,3.9,2.1,2.1-.1,3.8.5,4.9.2.8-.2,1.6-1.3,2.5-1.7.5-.3,1.1-.3,1.4-.5.9-.5,1.4-1.4,2-1.7a13.416,13.416,0,0,1,5.2-1.4c1.9-.1,4,.2,6.5,0,.9-.1,1.8-.8,2.7-.9,1.6-.2,3.7.8,4.9.7.9,0,1.9-1.1,2.9-1a2.941,2.941,0,0,1,2.6,1.9c.1.5-.2,1.3-.1,2.1.2,1.3,1.1,1.8,1,2.6-.1,1.1-2.3,2.5-2,3.8.2.8,1.8,1.7,2.6,2.3a8.763,8.763,0,0,0,3.2,1.6c.8.1,1.5-.3,2.3-.2a12.3,12.3,0,0,1,4.1,1.7c1.4,1.1,1.2,3,2.7,3.7.7.3,1.9.1,2.7.4,2.1.5,3.7,2.6,5.2,2.4,2.4-.3,1.3-3.1,1.6-5,.6-4.4,7.8-4.2,9.3-1.2,1,.3,2,0,3.2.5.7.3,1.2,1.2,1.9,1.4s1.2-.1,1.9,0c2.8.4,5.3,2.8,7.7,2.4,1.5-.3,2.6-2,4.1-2.1,2.8-.2,4.5,2.5,7.5,1.2,2.2-.9,1.7-3.7,2.5-6.4.7-1.9,1.7-3.2,1.8-4.8Zm156-59.2a7.257,7.257,0,0,0-1.4-5.9c-1.7.4-.5,2.4-.6,3.7-.2,1.7-1.7,2.9-1.6,4.7-.6.8-1.5,1.1-1.6,2.4.9.8,1.3-.6,2-1.4C717.8,173.7,719.4,173,719.8,171.5Zm-37.9-60.4a5.483,5.483,0,0,0-3.2,1.4c-.5.4-1.6.5-1.3,1.6C678.8,113.9,681.6,113.1,681.9,111.1Zm-61.1,21.5c3.4.9,5-3.7,2.7-6.3-.5-.6-2.3-.8-3-2.3-.9-1.7-.8-4-2.8-3.5,0,.2,0,.5-.2.5-.2,3.8,4.4,4.8,4.3,7.8C621.8,130.5,620.4,130.6,620.8,132.6Z"/><path class="b" d="M573.2,125.9c-.4-1.9,2.5-1.6,2,.2a1.426,1.426,0,0,1-2-.2Z"/><path class="b" d="M555.4,229.9c.1-1.4,2.8-2,3.3-.7C558.5,230.6,555.9,231.6,555.4,229.9Z"/><path class="b" d="M505.7,220.6c1.5-1.4,4.9-.5,7-.5-.4,1.3-.5,3-1.3,3.8C509,223.3,506.8,222.6,505.7,220.6Z"/><path class="b" d="M495.1,211.3c2-2.5,4.1-1.2,3.3,3.6-.5,1.4-2.5,3.4-3.5,1.2A15.365,15.365,0,0,0,495.1,211.3Z"/><path class="b" d="M498,205.8a2.6,2.6,0,0,1-1,2.6C495.1,208,496.6,203.9,498,205.8Z"/><path class="b" d="M469.9,170.4a3.052,3.052,0,0,0-1.3-2.8c-.5-.3-1.2-.2-1.7-.5-1.4-.9-1.9-2.8-2.7-3.3.1-1.9-.4-3.3,0-4.5a9.213,9.213,0,0,1,3.2-3.3c1.3-.5,2.6,0,3.3-1.2a.618.618,0,0,1,.7.2c0,1.1-.8,1.3-.9,2.3.2,1.6,2.5.6,2.7,2.1-.2,1.6-1.4,1.9-1.4,3.1s1.8,3,2.6,4.3c.6,1,1.8,1.8,2.3,2.8.6,1.1.6,2,1,2.4.8.9,2.5,1,2.6,2.3.2,1.7-1.7,2.3-1.4,4.2-2,1.9-5.3.9-8.5,1.4-1.4.2-3.1,2-4.6.5-.4-1.2,1.3-1.3,1.4-2.4-.1-1-1.2-.9-1.4-1.7.4-1.4,1.7-1.6,1.6-3.7C468.1,171.5,469.7,171.9,469.9,170.4Z"/><path class="b" d="M459.1,166.3c1.9-1.4,5.3-.3,5.5,1.4.1,1.3-1,1.4-1.4,2.9s0,2.9-.4,3.8-1.6.7-2.5,1c-1.8.7-5.3,3.2-6.8.4.2-1.5,1.4-1.9,1.9-3.1,0-1-.9-1.5-.7-2.6.2-1.3,1-.9,2.2-1.4C457.6,168.3,458,167.1,459.1,166.3Z"/><path class="b" d="M360.2,128.5c.3,1.5-3.8,3.6-4.2,1.6C355.7,128.5,359.1,126.5,360.2,128.5Z"/><path class="b" d="M355.4,520.7h-2.2A2.8,2.8,0,0,1,355.4,520.7Z"/><path class="b" d="M348.9,116.2a.746.746,0,0,1,.9,0h0c-.1.4-.3.8-.9.7Z"/><path class="b" d="M336,143.9c0,1-2.8,2.5-3.2.7a1.344,1.344,0,0,1,.6-1.4C334.2,142.6,336,142.9,336,143.9Z"/><path class="b" d="M275.8,305.4c-.1.3-.2.4-.3.7C273.9,306.1,275.3,303.7,275.8,305.4Z"/><path class="b" d="M217,183.8c1-.7,2,1.1,1.3,1.9C217.2,186,216.9,184.5,217,183.8Z"/><path class="b" d="M374.8,190.3a17.137,17.137,0,0,0-2.5-.3c-.9-.1-1.6-.4-2.3-.5-1.8-.3-3.7.4-4.8-.9a51.8,51.8,0,0,1,6.2-7.8c.7-.7,2.1-1.2,1.7-2.6-1.2-1.3-2.7,0-3.9.9a12.748,12.748,0,0,1-4.1,2.3c-2.4.4-5.6-.8-7.5.7-.3,1.3,2.2.8,1.9,2.8a2.708,2.708,0,0,1-2.6-.5c-.7-.7-.3-1.8-.7-2.3-.7-.7-3.5-.9-4.8-.7a3.5,3.5,0,0,0-3,2.9c1.8,1,4.8-1,5.5,1.6-1,2.2-3.4,3.4-3,6.3a3.678,3.678,0,0,0,2,2.8c.8.2,1.2-.8,2-.7s.6,1.2,1.6,1c1.4-.7,2.2-3.1,3.8-3,1.9,2.8-1.7,4.2-3.8,5.1-2.3,1-5.3,1.5-7.1,2.4-.9.5-4.4,4.5-4.9,1.4-.4-2.3,1.7-1.6,2.2-3.5-2.3-.5-4.3,1.2-6.4,2.1-2.9,1.3-7.8,2.2-8.5,6.1-.1.8.3,2.3-.1,2.8-.4.6-2.4.5-3.3.9-1.4.6-2.6,1.8-3.5,2.1s-1.6.1-2,.3c-1.1.5-1.6,2.4-2.9,3.7-.5.5-1.7.9-2.2,1.4-.8.9-.8,3.1-2.2,3.5-.8.1-1.5-.8-2.3-.2-.1,2.2.7,5.2-.1,7.5a34.848,34.848,0,0,1-5.8,4.3c-1.2.8-2.3,1-3.8,1.9-1,.6-2,2.1-3.2,3-2.8,2-6.1,4.2-6.1,9.2,0,1.1.5,2.2.6,3.5.1.7-.1,1.4,0,2.3.2,1.8,1.3,4.1,0,5.4-2-1-4.4-1.3-5.8-3-.4-1.7.8-3.1.6-4.7-.1-1.3-1.6-3.5-2.5-3.7s-1.7,1-2.6.9-2.1-1.9-3.5-2.1c-2-.3-3.5.6-5.8.2-2.2,1.4-2.8,3.9-5.5,3.7-.9-.1-1.8-.9-2.9-1.2a15.389,15.389,0,0,0-4.2-.7c-2.5.2-4.2,2.3-6.4,3.7-1.9,1.2-4.5,2.6-5.1,5-.3,1.3,0,3.1-.4,4.3a12.676,12.676,0,0,1-1.2,2.3,20.043,20.043,0,0,0-1.7,13.4,33.677,33.677,0,0,0,2.5,5.9,7.2,7.2,0,0,0,4.2,2.4,17.828,17.828,0,0,0,3.3-.9,25.336,25.336,0,0,0,3.8-.7c3.1-1.2,2.5-6.3,5.7-8a12.368,12.368,0,0,1,5.4-1,4.357,4.357,0,0,1,1,3.3,18.769,18.769,0,0,1-1.2,3c-.3,1.1-.4,2.4-.7,3.3-.4,1.2-1.4,2-1.7,3.1-.2.7-.1,1.6-.3,2.3-.3,1.1-1.6,2-1,3.1,3.1,1.4,6.9-.4,9.6.2,1.1.3,3.5,1.9,3.5,4,0,1.6-1,2.6-1.2,4.3-.2,2.2-.9,4.8-1,6.6-.1,2.8,3.5,7.9,6.1,7.8s4.4-3.3,7.7-1.6c1.1.6,2.3,2.7,3.5,2.6s2.5-2.2,3.2-3.7c.8-1.8.9-3.3,2.3-4.2s2.8-.5,4.8-1.4a21.954,21.954,0,0,0,2.5-1.7c.7-.6,1.4-2.1,2.3-1,1.2,1.4-1.4,2.2-.4,3.7,2,1.3,3-2.4,4.5-2.4a10,10,0,0,1,2.8,1.7c1.1.9,1.5,2.1,2.7,2.4.8.2,2.1-.4,3.2-.2,1.4.3,2.4,1.8,3.5,1.7,1.4,0,2-1.8,3.2-2.1,2.6-.6,3.5.3,4.6,2.3,1.3.3,1.3-1.8,2.5-1-.6,1.5.2,2.2.7,3.5.3.8.3,1.4.6,1.7.7.8,2,.8,3,1.6a18.044,18.044,0,0,1,2.8,4c1.3,1.7,3.4,3.5,5.1,3.6s2.8-.5,4.2-.3c3,.4,4.9,2.2,7,4.2,1.2,1.1,2.2,1.8,2.6,3.1.3.9.1,2.1.4,3.1.6,2.2,3.3,3.2,2.3,7,.4,1.1,1.4,1.5,2.5,2.3,1,.8,1.5,1.9,2.5,2.1a8.806,8.806,0,0,0,1.7-.2,10.774,10.774,0,0,1,4.2,1.6,20.036,20.036,0,0,1,2.6,1c.7.6.8,2.6,1.7,3.1.6.4,1.9-.1,2.8,0,1.6.2,3.7,1.4,5.1,1.4.8,0,1.6-.4,2.3-.4,3.6.3,5.6,5.4,9,7,1.1.5,2.7.2,3.5.5,1.3.7,2.4,5.4,2.5,7.5.3,6.3-3.7,8.4-6.1,12.5-.5.9-.8,2.3-1.4,3.5-1.4,2.5-2.9,3-2.7,7.5,0,1.2.6,2.5.6,3.8a32.724,32.724,0,0,1-.4,5.4c-.2,1.2-1,2.1-1.2,3.1-.1,1,.3,1.9.1,2.8a18.03,18.03,0,0,1-1.6,3.8c-1.3,3-1.6,6.5-4.3,7.6-1.6.7-3.8.3-5.5,1-.7.3-1.6,1.1-2.5,1.6-2.5,1.4-6.1,3.3-6.8,6.4-.6,2.8.9,5,.4,8.2-.5,1-1.1,2-1.7,3a30.131,30.131,0,0,1-1.6,3.1c-.9,1.3-2.2,1.9-2.7,3.7-.2.6-.1,1.3-.3,2.3-.1.4-.6.9-.9,1.6s-.2,1.4-.4,1.9c-.7,1.6-2.6,5.3-4.1,5.7-3,1-6.2-1.5-8.3-1,.3,1.7,1.4,1.6,2,2.8a25.569,25.569,0,0,0,1.1,2.4c.7.9,1.2,1.2,1.3,2.3a6.321,6.321,0,0,1-2.2,5,10.983,10.983,0,0,1-4.2,1.4c-1.1.2-3.8.2-4.3,1.1-.8,1.2.4,4.2-.1,5.4-1.1,2.5-4-.1-5.5.7a3.487,3.487,0,0,0,1.2,3.3c.9.7,2.3-.2,2.8,1-.3,1.7-1.8,2-2.2,3.7,0,1.7.5,2.1.3,3.1-.4,2.2-3.3,2.1-3.2,4.5.1,3.6,5.7,2.1,5.8,5.6,0,2.1-1.6,2.1-2.2,4.2-.3,1.1.2,1.4,0,2.3-.2,1.2-1.4,1.6-1.4,3,0,1.7,2,3.5,3,4.9a18.191,18.191,0,0,0,3.6,4.2c2,1.3,5.1,1,5.9,3.5-.3,1.4-1.4,1.9-2.6,2.3h-.3a2.8,2.8,0,0,0-2.2,0h-2a54.223,54.223,0,0,0-6.7-2.8c-.8-.4-1.8-1.2-2.7-1.7a19.474,19.474,0,0,1-2-.9c-1.2-.8-2.6-3.3-3.9-4.3-.8-.6-2-.9-2.5-1.6-.4-.8-.8-1.7-1.2-2.6-.5-.8-1.3-1.4-1.9-2.3-1.2-1.9-2.7-4.5-2.7-5.9s1.1-2.3.7-3.7-2.6-1-2.8-2.4c-.2-.9.6-2.4.6-3.7,0-.7-1.2-1.7-.7-2.8s1.4.1,2.3-.5c-.6-2.5,0-6.6-2-7.3-1.1,1.1,1.1,3.5-.7,4.2-1.8-.9-1.4-3.7-1.7-5.7a28.75,28.75,0,0,1-.9-4,19.267,19.267,0,0,0,.1-2.4c-.3-2.3-2.5-4.2-2.6-6.6.2-1.1.4-2.2.7-3.3.1-.8-.1-1.7,0-2.6.1-1.1.6-2.1.7-3.1a38.721,38.721,0,0,0-.3-6.8c-.4-2-1.7-3.7-1.9-5.9-.1-.8.2-2.1.1-3.1s-.5-1.9-.6-3a16.281,16.281,0,0,1,.3-3.1c.2-2.2-.4-4.6-.3-6.8,0-.6.3-1.1.3-1.7,0-1.8-.5-3.6-.6-5.4a84.168,84.168,0,0,0-.1-8.7,36.217,36.217,0,0,0-1.4-7.3,19.9,19.9,0,0,0-5.4-5.8c-1-.7-2.2-.9-3.3-1.6-2.4-1.4-6.9-4.3-8-7.1-.3-.8-.3-1.9-.6-2.8a40.259,40.259,0,0,0-2.8-5c-1.8-3.3-3.2-7.4-5.1-10.8a48.2,48.2,0,0,0-2.7-5c-.6-.8-2.5-1.6-2.7-2.8-.3-1.6-1.3-3.8-1.2-5,.2-1.7,2.8-3,2.8-4.5s-1.4-2-1.7-3.1c-.7-2.7.4-4.2,1.3-6.4.3-.7.6-1.9.9-2.4.5-1,1.6-1.2,2.3-2.3.4-.6.7-1.8,1.2-2.6,1.1-1.8,2.8-2.4,3.3-4a36.474,36.474,0,0,0,.1-9.9,37.27,37.27,0,0,0-1.6-3.5c-.7-2.1-.8-4.4-2.6-4.3-1.1,0-1.9,1.5-2.6,2.4-.2,1.2-.1,2.6-1.2,2.9-1.6.6-2.3-2.1-4.2-2.8-.8-.3-2-.3-2.5-.5-1.4-.8-1.9-3.2-3.3-4.2-1.2-.8-2.3-.5-3-1.7a13.55,13.55,0,0,1-.1-3.5c-1.6-1.1-2.9-5.3-4.8-6.3-1.2-.7-3.1-.6-4.6-1.2-.7-.3-1.3-.6-2-.9a11.068,11.068,0,0,1-2.6-.7c-2.8-1.7-4.4-7.3-8-7.1-1.5,0-3,1.7-4.3,1.7s-3.7-1.3-5.4-2.3-3.7-1.5-5.2-2.4c-1.2-.7-2-2.1-3-2.6-.8-.4-2-.5-2.6-.9a25.464,25.464,0,0,1-3-2.6,5.608,5.608,0,0,1-2.3-3.5c0-1.4,1-2.5,1.1-3.8.4-4.1-2.2-7.1-3.8-9.6-1.2-1.8-2.6-3.4-3.8-5a9.637,9.637,0,0,0,0-2.4,29.589,29.589,0,0,1-2.6-4.2c-.9-1.4-2.5-2.9-2.7-4.5-.3-2,.6-3.7,0-5.6-1-3.1-4.7-1.7-4.2,2.4.1,1.1,1.4,2.7,1.9,3.8s.3,2.6.7,4,1.5,2.5,1.9,4c.6,2.4.6,4.9,1.2,6.4s2.3,2.6,1.3,4.2c-1.4.3-1.9-1.3-2.7-2.3-.5-.5-2.2-1.5-2.5-2.8s.5-2.4.3-3.7c-.5-2.5-4.6-2.5-4.6-5,0-1.6,1.7-1.8,1.7-3.3s-1.9-3.1-2.3-4.5a46.007,46.007,0,0,1-.6-5.2,40.7,40.7,0,0,0-.3-5,8.492,8.492,0,0,0-2.7-3.5c-1.3-.8-2.3-.5-2.9-1.7a17.968,17.968,0,0,1-.9-4.5c-.2-2.1,0-4.4-.1-6.6a38.609,38.609,0,0,1,0-6.8c.7-1.7,2-2.5,2.7-4.2.5-1.2.6-2.6,1.1-3.8,1.1-2.3,3.4-4.4,4.9-6.6a27.735,27.735,0,0,0,4.2-7.5,16.2,16.2,0,0,0,1.2-4.3c-.2-1.7-2.8-3.1-2.6-5,.1-1.2,1.6-1.2,2-2.4a11,11,0,0,0,.4-3.1c0-1.7-.7-3.4-.4-5.2.2-1.5,2.1-2.1,1.1-3.8s-2.7.9-3.8-.2.2-2.2.3-4c0-.7-.4-1.5-.3-2.1.1-.8,1.4-2.1,1-2.6-.8-1.2-1.7-4.2-3.3-5.2-2.1-1.3-4.4-.4-7.4-1-1.8-.4-2.7-2.4-4.3-2.3-1,.1-1.6,1.5-3,2.3-1.4.7-3.2.5-4.6.9s-2,1.5-3.5,1.4c-1.2-.1-1.2-1.4-2.6-1.6a22.115,22.115,0,0,0-2.5.5,26.95,26.95,0,0,1-8.5-.2,24.423,24.423,0,0,1-5.7-2.6c-1.7-1-4.9-2.1-4.8-3.7.1-1,3-2,4.2-2.4,1.9-.7,3.1-1.8,4.5-1.9.6,0,1.3.4,2,.4.7-.1,1.7-.9,2.6-1,2-.3,4.9.1,4.6-2.3-1.5-1.4-7.8,1.1-8-2.1-.1-1.9,2.4-2.5,4.2-3a21.276,21.276,0,0,1,5.7-1c1.7.1,3.8,2.3,4.8-.2.5-1.8-.6-3.3-.9-4.7,1.2-2,3.5-1.8,5.2-2.1a20.68,20.68,0,0,0,5.5-1.7,15.314,15.314,0,0,1,5.5-1.7c2-.3,3.9-1.2,5.7-1.4a19.923,19.923,0,0,0,4.2-.4,13.183,13.183,0,0,1,3.9-1c.9,0,1.7.8,2.6,1s1.8,0,2.8.2c.7.2,1.3.7,2,.9,1.1.2,2.3-.2,3.3,0s1.8.9,2.7,1c2.2.3,4.8-.1,7,.4.8.2,1.6.7,2.5.9s1.8,0,2.6.2c1.2.3,2.1,1.6,3.3,1.7,2.2.3,4.7-1.2,7.1-1.4a30.367,30.367,0,0,0,5.2-.4,38.96,38.96,0,0,1,4.6-1.2,16.351,16.351,0,0,0,2.2.2c.8-.1,1.6-1.2,2.5-1,1.1.2.9,1.8,2,2.3,1.3-.8,2.5,0,3.9,0s2.6-.8,4.1-.5c2.6.5,6.3,3.6,8.4,1.9.5-.4.4-1.2.9-2.3.6-1.5,1.9-3.3,1.6-5.4-2.8,0-5.7,1.8-9,1.9-3.3-2.5.9-4.1,3.3-5.2,2-.9,3.6-3.1,6.1-3.5,2-.3,4.2.5,6.7.9a21.738,21.738,0,0,1,3.6.2c1.4.5,2.2,2.2,3.3,2.6.5.2,1.3.2,2,.4,1.3.4,2.5,1.2,3.8,0,1,.2,1.1,1.5,2.2,1.7,1-.6,1.7-2.2,3.2-2.6.7-.2,1.3.1,2,0,1.2-.2,2.8-2.2,3.5-.4-.3,1.2-1.9,1.4-2.8,2.4a8.056,8.056,0,0,0-1.9,3.8c.2,1.7,2.2,1,2.3,3.1-.3,1.2-1.5.7-2.5,1.2s-1.2,1.5-2.2,1.7c-2.6.6-4.8-.8-7.1-.7-.1,1.2,1.1,1.9,1.7,2.3,2.1,1.3,3.7,1.1,6.7,1,1.5,0,3.2.5,4.5-.5.8-.7.8-2.1,1.4-3a4.885,4.885,0,0,1,3.9-1.7,2.3,2.3,0,0,1,1.6,1.7c0,1.6-1.9,1.1-1.9,2.8,1.2.9,4.4-1,4.6-2.4.1-1.1-1.1-1.7-1-2.8.1-1.8,2.1-1.8,1.9-3.7-1-.9-2,.2-3,0-1.4-.3-2.7-2.3-3.3-3.7.6-.9,1.9-.3,2.9-.2,1.1-1.8,3-2.5,5.8-2.8,1-.1,2.3-.6,2.8.5.2,1.6-2,2.6-1.6,4.5,2,.6,2.6-2.6,4.2-3.8a17.389,17.389,0,0,1,2.7-1.4c.9-.4,1.9-1.4,2.6-1.4s.9.8,1.7,1.2,1.6-.2,1.9.9c-1.7,3.5-7.9,1.4-9.6,5,.4,2.4-1,4.7.1,6.3.8,1.1,2.6.4,3,1.6.6,1.6-1.8,1.6-1.2,3.5,1.5,1.1,3.4-1,4.8-1.9s3.4-2,3.6-4.2c-.8-1.8-3.6-.4-4.1-2.3a6.959,6.959,0,0,1,1.1-3.7c1.5-2,6.8-4.9,10.6-4.5.7.1,1.4.6,2.2.7,2.5.3,5.4-1.3,7.4,0,1.6-1.1,3.5.1,5.7-.2,1.7,1.2,1.2,3.7,3.8,4.9.7.3,1.5.1,2.5.4.7.2,1.4,1.1,2.2,1.6,1.1.6,1.9.5,2.2,1.4.2.9-.8,1.5-.7,2.5.6.6.1,1.5.4,2.4.6,1.6,2.2,1.5,3.8,2.3,1.1.5,3.4,2.2,3.3,3.5,0,.8-2.2,2.4-2.8,2.8-.6.5-2.9,1.7-3.8,1.6-1.4-.2-1.9-3.6-3.8-3.5a1.751,1.751,0,0,0-1.6,1.8v.1c0,2.3,2.1,2.4,2.2,4.3,0,2.4-1.1,2.5-2.7,4a9.923,9.923,0,0,0-3.8-1.6c-.9,1.3,1.5,1.8.7,3.5-2.3.6-4.1-.8-6.2-1.6-.7-.2-1.6-.1-2.2-.5-.8-.6-1.1-2.3-1.7-3.1s-2.4-2.4-3.6-2.4c-1.8,0-4.4,2.7-5.8.2,1-4,5.7-1,8.7-2.4,1.1-.5,1.5-2,2.5-2.6,1.9-1.3,4.9-1.4,4.6-4-.1-1.3-1.6-1.3-2.5-1.9-1.1-.9-2-4-3.6-4.2-.8,0-1.4.8-2.3.9-1.9.2-4-.9-5.7,0-.8.5-.3,1.4-.9,2.4s-1.7,1.1-2.2,1.9-.5,2.2-1.2,2.9c-1.2,1.3-3.7,1.4-5.2,2.1-.7.3-1.5,1.2-2.2,1.2-1.2,0-1.7-1.9-3-1.2-.1,1.9,1.6,2.6,2.7,3.5a6.5,6.5,0,0,1,2.8,3.5c-1.2,3-3-.2-4.9-.2s-5.1,4.7-6.8.9c.4-2,2.3-2.3,2.7-4.3-2.1.4-3.8,2.5-6.2,3.1-1,.3-2,.2-2.8.5-1.7.6-2.9,2.2-4.8,3-.7.3-1.6.2-2.3.5a39.145,39.145,0,0,0-5.7,3.1,30.075,30.075,0,0,0-5.1,3.7,9.856,9.856,0,0,0-2.2,3.7c0,1,1.7,1.4,1.7,2.4,0,.6-.9,2-.3,2.9s1.8.2,3,.4c2.2.3,3.7,2.5,5.4,3.7a13.67,13.67,0,0,0,4.6,2.1c2,.3,4.2-.7,4.5,1.2.2,1.9-1.9,2.5-2,3.7,1.1,1.7-.7,2.5-.7,4,0,1.2,1.2,3,2.3,3.1,1.4.1,3.6-1.7,4.2-3.5.7-2.1.4-4.9,1.7-6.4,6.7.2,12.5-3.7,12-12a13.328,13.328,0,0,1-.3-2.8c.2-1.4,2.1-2.5,1.9-4.2,1.9-.7,1.8-4.3,3.8-4.9,1.6-.4,3.5,1.4,5.7,1.2.7,0,1.6-.8,2.3-.7,1.4.2,2.3,2.3,3.3,3.3,1.1,1,1.9.6,2.2,1.7-.3,2-1.4,2-1.3,3.8a3.484,3.484,0,0,0,1.5,3.4,5.626,5.626,0,0,0,3.6-1c1.9-1.1,3.6-4.4,5.2-4,1.3.3,2.3,5.2,2.5,7a40.976,40.976,0,0,1-.2,5c.2,2.9,3.3,2.6,4.8,4.2.5.5.6,1.7,1,2.3.7,1.2,1.6,1.2,1.7,2.4.3,3-2.3,3.3-2,6.6-.5,1.3-1.8,1.2-1.7,3,.2,2.7,3.5.6,4.3,2.8.5,1.1-.1,2-.4,3.7,1.1,1.6,1.1,4.2-.9,4.2C376.4,192.2,376,190.6,374.8,190.3Zm-156.5-4.6c.7-.8-.3-2.6-1.3-1.9C216.9,184.5,217.2,186,218.3,185.7Zm101.1,15.9c-.6-.7-2.6-.5-3.9-.4-.9.1-2.1.4-2.2,1.2C314.8,203.3,318.9,203.9,319.4,201.6Zm-7.6-3a2.269,2.269,0,0,0-.1-3.3c-.2-.1-.3-.3-.5-.4-.5-.2-1.1.4-1.9.4-.8-.1-1.6-1-2.3-1a2.98,2.98,0,0,0-2.8,1.2c0,1,.6,1.2.6,2.3-1.4,1.2-.7,5.3.7,5.4s2.2-4.5,4.2-4.9C310.5,198.1,310.9,198.8,311.8,198.6Zm-2,7c-2.1-.9-4,.6-5.7.9-1,.2-2.8-.3-2.6,1.6.2,1.4,2.1.9,3.2.5A13.779,13.779,0,0,0,309.8,205.6Zm-6.4-13.2c2.8-1.4-.6-6-1.9-6.4-2.3-.7-5.7,2.1-8.4,3-1.5.5-3,.5-3.3,2.1,1.4,2.7,4.1-.6,6.1-.2,1,.2,1.6,1.9,2.6,2.1A38.6,38.6,0,0,0,303.4,192.4Zm-2,2.8c-.6-.8-3.9.1-4.8.9a11.655,11.655,0,0,0-1.7,2.8c-.7,1-1.4,1.8-2,2.6-.6.9-3.5,5.8-1.2,6.4,1,.2,3-2.2,3.2-3.1a11.49,11.49,0,0,1,3.9-7c1.2-.9,2.4-.8,2.6-2.6Zm-18.1-19.5c1.6-.1,2.7-5.8,0-5.1-1.8.5-2.3,5.2,0,5.1Zm-7.8,130.5c.1-.3.2-.4.3-.7-.5-1.8-1.9.6-.3.7ZM214.2,160.5c0-.3-.2-.4-.1-.7-.4,0-.9-.1-.9.5A.521.521,0,0,0,214.2,160.5Zm152.2-27.3c.7.1,1.1-.2,1-1C366.8,131.6,365.8,132.3,366.4,133.2Zm-16.6-17a.746.746,0,0,0-.9,0h0v.7c.6.1.8-.3.9-.7Zm-55.1,13.4c.5-.4,1.2-.9.9-1.7-1.6-.9-4.2-.2-6.7-.5-1.3-2.3-3.6-2.6-3.8,1,2.8,2.6,6.9-1.3,9.6,1.2Zm-25.9,17.9c.8-.3,2-.2,2.2-1.2-.7-.7-1.4-1.5-2.2-1.6-1,0-1.6,1.1-2.6,1.7-1,.7-2.9,1-3,2.3,2.2.5,4.2-.7,5.6-1.2Zm-.7-12.5c.9-.2,1.9.3,2.5-.7-.7-3.8-5.1-1.5-7.7-1.2a8.9,8.9,0,0,0-1.4,3.5c1.9.5,4.3-1.2,6.6-1.6Zm43.4,177.8c1.1-.2.8-3.4-.6-2.6-1,.5-.4,2.8.6,2.6Z"/><path class="b" d="M214.1,159.8c0,.3.2.4.1.7,0,.3-.8.3-1-.2C213,159.9,213.7,159.8,214.1,159.8Z"/><path class="b" d="M209.8,170.1a3.227,3.227,0,0,1-2,2.1,3.114,3.114,0,0,1-.7-.9C207.1,169.7,209,168.4,209.8,170.1Z"/></g><path class="c" d="M259.3,168.7c0-8.9-9.4-14.6-18.9-10.1a10.587,10.587,0,0,0-5,4.8c-2.4,4.7-1.3,9.9.8,14.4l7.4,18.8a3.135,3.135,0,0,0,4.1,1.8,3.187,3.187,0,0,0,1.8-1.8l7.3-19C259.4,171.9,259.3,168.7,259.3,168.7Zm-8.9,7.8c-6.4,3.7-12.9-3.2-9.4-9.9a6.09,6.09,0,0,1,2-2.2c6.4-3.7,12.9,3.2,9.4,10A6.689,6.689,0,0,1,250.4,176.5Z"/><path class="c" d="M502.9,221.7c0-8.9-9.4-14.6-18.9-10.1a10.587,10.587,0,0,0-5,4.8c-2.4,4.7-1.3,9.9.8,14.4l7.4,18.8a3.135,3.135,0,0,0,4.1,1.8,3.187,3.187,0,0,0,1.8-1.8l7.3-18.9C503,224.9,502.9,221.7,502.9,221.7Zm-9,7.7c-6.4,3.7-12.9-3.2-9.4-9.9a7.033,7.033,0,0,1,2-2.2c6.4-3.7,12.9,3.2,9.4,9.9a4.3,4.3,0,0,1-2,2.2Z"/><path class="c" d="M717,157.4c0-8.9-9.4-14.6-18.9-10.1a10.587,10.587,0,0,0-5,4.8c-2.4,4.6-1.3,9.9.8,14.4l7.4,18.8a3.058,3.058,0,0,0,4.1,1.8,3.187,3.187,0,0,0,1.8-1.8l7.3-18.9C717.1,160.6,717,157.4,717,157.4Zm-8.9,7.8c-6.4,3.7-12.9-3.2-9.4-9.9a6.09,6.09,0,0,1,2-2.2c6.4-3.7,12.9,3.2,9.4,9.9a6.089,6.089,0,0,1-2,2.2Z"/><path class="d" d="M901.8,669.8c0,.1-346.3.3-526.8.3s-326.8-.1-326.8-.3,146.3-.3,326.8-.3S901.8,669.7,901.8,669.8Z"/><path class="e" d="M103.6,647.4c.8-3.2-1.3-6.3-3.6-8.7s-5.1-4.4-6.3-7.4c-2-4.9.7-11.3-2.7-15.4-2-2.4-5.5-3.2-7.3-5.8a14.8,14.8,0,0,1-1.6-4.6,46.9,46.9,0,0,0-11.7-21.8,40.4,40.4,0,0,0,4.6,21c1.4,2.6,3,5.1,3.5,8,.7,4.7-1.9,9.5-.7,14.1,1.3,5.3,7.2,8.8,7.5,14.2.2,4.6-3.8,8.6-3.4,13.2a11.835,11.835,0,0,0,2,5.4c3.5,5.9,8.7,9.9,16.6,9.8l9.7.3Z"/><path class="f" d="M103.6,647.4c.8-3.2-1.3-6.3-3.6-8.7s-5.1-4.4-6.3-7.4c-2-4.9.7-11.3-2.7-15.4-2-2.4-5.5-3.2-7.3-5.8a14.8,14.8,0,0,1-1.6-4.6,46.9,46.9,0,0,0-11.7-21.8,40.4,40.4,0,0,0,4.6,21c1.4,2.6,3,5.1,3.5,8,.7,4.7-1.9,9.5-.7,14.1,1.3,5.3,7.2,8.8,7.5,14.2.2,4.6-3.8,8.6-3.4,13.2a11.835,11.835,0,0,0,2,5.4c3.5,5.9,8.7,9.9,16.6,9.8l9.7.3Z"/><path class="d" d="M112.2,670a8.175,8.175,0,0,0,2.7-.1,15.669,15.669,0,0,0,3.1-.8,14.715,14.715,0,0,0,3.9-2.1,6.524,6.524,0,0,0,1.6-2.1,9.246,9.246,0,0,0,.4-2.9c0-1,.1-2.1.2-3.1a8.355,8.355,0,0,1,1.2-3.1c1.1-2,3-3.9,3.6-6.6a22.272,22.272,0,0,0-.3-8.5c-.4-2.9-.9-6,.2-9.1s3.1-5.7,4.2-9.1.6-7.1.8-10.8a14.274,14.274,0,0,1,1.3-5.4c.8-1.7,1.9-3.3,2.7-5.1,1.7-3.6,2-7.8,2.5-11.8.2-2,.5-4.1.7-6.2a26.022,26.022,0,0,1,1.1-6.2,49.177,49.177,0,0,1,2.3-6,19.166,19.166,0,0,0,1.1-3.1c.2-1.1.2-2.2.3-3.3a37.6,37.6,0,0,0-.3-6.7c-.3-2.2-.7-4.4-.9-6.7v-.4l-.1-.5-.4.2a14.591,14.591,0,0,0-5.2,4.4,25.886,25.886,0,0,0-3.2,5.9c-1.6,4.1-2.2,8.5-3,12.6s-1.8,8.2-4,11.7c-1,1.7-2.3,3.3-3.4,5a13.605,13.605,0,0,0-2.4,5.5c-.6,4.1,1.7,7.7,1.2,11.3a11.179,11.179,0,0,1-1.8,5c-.9,1.5-1.9,3-2.9,4.4a25.091,25.091,0,0,0-2.6,4.5,13.571,13.571,0,0,0-1.2,4.8c-.2,3.3.2,6.3,0,9.3a21.376,21.376,0,0,1-2.4,7.9c-1.2,2.4-2.5,4.5-3.6,6.6-.5,1-1,2-1.5,3.1a11.136,11.136,0,0,0-.8,3,20.27,20.27,0,0,0-.1,5.5,13.865,13.865,0,0,0,2.8,7,3.044,3.044,0,0,0,.8.8,2.65,2.65,0,0,0,.6.5l.8.7a16.175,16.175,0,0,1-1.8-1.9,13.606,13.606,0,0,1-2.6-7,19.544,19.544,0,0,1,.1-5.4c.2-1,.5-2,.8-3a20.989,20.989,0,0,1,1.5-3c1.1-2.1,2.4-4.2,3.6-6.6a23.14,23.14,0,0,0,2.5-8.1c.3-3-.2-6.1,0-9.3a13.054,13.054,0,0,1,1.2-4.7,27.339,27.339,0,0,1,2.6-4.3c1-1.4,2-2.9,2.9-4.4a12.441,12.441,0,0,0,1.8-5.2c.5-3.9-1.8-7.5-1.2-11.3a14.752,14.752,0,0,1,2.3-5.3c1.1-1.7,2.4-3.2,3.5-5,2.2-3.5,3.3-7.7,4.1-11.9s1.4-8.5,3-12.5a24.2,24.2,0,0,1,3.1-5.7,13.573,13.573,0,0,1,5-4.2l-.4-.3v.4c.2,2.3.6,4.5.9,6.7a36.488,36.488,0,0,1,.3,6.6,16.552,16.552,0,0,1-.3,3.2,18.155,18.155,0,0,1-1.1,3,49.18,49.18,0,0,0-2.3,6,31.894,31.894,0,0,0-1.1,6.3c-.2,2.1-.5,4.1-.7,6.2-.5,4-.8,8.1-2.4,11.6-.8,1.8-1.9,3.4-2.7,5.1a15.288,15.288,0,0,0-1.3,5.6c-.2,3.7.3,7.4-.7,10.7s-3.1,6-4.2,9.1-.7,6.4-.2,9.3.9,5.7.3,8.3-2.4,4.5-3.6,6.5a9.58,9.58,0,0,0-1.2,3.2c-.1,1-.2,2.1-.2,3.2a9.033,9.033,0,0,1-.4,2.8,4.261,4.261,0,0,1-1.5,2,12.779,12.779,0,0,1-3.8,2.1,10.888,10.888,0,0,1-3.1.8,13.556,13.556,0,0,1-2,.2A2.254,2.254,0,0,1,112.2,670Z"/><path class="d" d="M142.6,556.3c0,.1-.1.2-.1.3l-.2.9c-.2.8-.4,1.9-.8,3.3s-1.3,3-2,5-1.6,4.3-2.3,6.8-1.4,5.4-2.1,8.5a34.6,34.6,0,0,1-3.1,9.4c-.8,1.6-1.7,3.2-2.4,4.9a21.18,21.18,0,0,0-1.4,5.5q-.75,5.85-2.1,11.7c-1.9,7.9-3.8,15.5-5.5,22.3s-3.3,13-4.6,18.2-2.3,9.3-3,12.3c-.3,1.4-.6,2.5-.8,3.4-.1.3-.1.6-.2.9v.3c0-.1.1-.2.1-.3a4.65,4.65,0,0,0,.3-.9q.3-1.2.9-3.3l3.2-12.2c1.3-5.2,2.9-11.3,4.7-18.2s3.6-14.4,5.5-22.3q1.35-5.85,2.1-11.7a25.019,25.019,0,0,1,1.3-5.4c.7-1.7,1.6-3.3,2.4-4.9a35.938,35.938,0,0,0,3.1-9.6c.7-3.1,1.3-5.9,2-8.5a54.629,54.629,0,0,1,2.2-6.8,48.987,48.987,0,0,0,1.9-5.1c.4-1.5.5-2.6.7-3.4l.1-.9C142.7,556.5,142.7,556.4,142.6,556.3Z"/><path class="g" d="M113.8,670c6.3-3.8,8.1-15.1,5.5-22s-7.2-13.1-8-20.4c-.5-5.6,1.3-11.4,0-16.9-1.8-7.4-9-13.1-8.9-20.8,0-4.3,2.5-8.3,2.3-12.5-.2-5.2-4.3-9.4-6.7-14-3.8-7.1-4.1-15.4-5.4-23.3s-4.3-16.3-11.3-20.2c-1,6.7-2.8,11.3-2.3,20.4.2,3.3,4,9.5,4.5,16.7.3,4.3.5,8.6.8,12.8.3,4.3.5,8.4,2,12.3,1.1,3,3,5.7,3.8,8.8,1.6,5.8-.5,12.1.8,18,1.1,5,4.5,9.3,5.3,14.3,1,7.1-3.6,14.5-1.3,21.2,1.2,3.4,3.9,6.1,4.7,9.5.6,2.7,0,5.5.5,8.2.9,4.4,9.2,7.7,13.6,7.5"/><path class="d" d="M83.1,526.6v.4c0,.3.1.6.1,1.1q.15,1.5.6,4.2c.3,1.8,1.3,3.9,2.1,6.5s1.6,5.4,2.3,8.6,1.3,6.8,2,10.7,1.3,8,3.2,12.1a57.593,57.593,0,0,1,2.6,6.2,26.387,26.387,0,0,1,1.3,6.8q.6,7.35,1.8,14.7c1.9,10,3.8,19.4,5.4,28.1s3.3,16.3,4.7,22.9,2.4,11.7,3.2,15.4q.6,2.7.9,4.2a8.11,8.11,0,0,0,.3,1.1c0,.1.1.2.1.4v-.4a6.529,6.529,0,0,0-.2-1.1c-.2-1-.5-2.4-.8-4.2-.7-3.7-1.8-9-3-15.4s-2.8-14.3-4.6-22.9c-1.7-8.6-3.5-18.1-5.4-28a123.181,123.181,0,0,1-1.9-14.7,28.054,28.054,0,0,0-1.4-7c-.8-2.2-1.8-4.2-2.7-6.2-1.9-4-2.6-8.1-3.3-11.9s-1.3-7.4-2-10.7c-.7-2.9-1.5-5.8-2.4-8.6-.8-2.5-1.8-4.6-2.2-6.4s-.6-3.2-.8-4.2a6.529,6.529,0,0,1-.2-1.1C83.2,526.9,83.1,526.7,83.1,526.6Z"/><path class="h" d="M514.2,360l-26.8-17.5.2-45.3-11.9,4-8,50.2c7.9,11,20.5,21.3,34.3,31.5Z"/><path class="h" d="M487.7,265.5s-2.7-.7-3.2,3.6c-.5,4.4-1.5,13-1.5,13l-3-1.1s-.2-3.7-2.4-2.8-2.5,4-2.5,4l-4,3.1-.4,7.1s1.4.2,1.9-.5l1.6,2.9s.2,5,1.4,6.5,11.8,1,11.8,1l2.1-13.5a3.645,3.645,0,0,0-.4-2.7l-.6-1Z"/><path class="i" d="M474.8,298.3a4.645,4.645,0,0,1-.6-2.3c0-.4-.1-.8-.1-1.2a1.7,1.7,0,0,1,.1-.7c.1-.2.1-.5.2-.7.2-.5.4-1,.6-1.4a8.33,8.33,0,0,0,.4-1.5,10.8,10.8,0,0,0-.2-3.1,11.529,11.529,0,0,1-.3-2.6,3.967,3.967,0,0,1,.4-2.4,9.637,9.637,0,0,0,0,2.4c.1.7.2,1.6.4,2.5a11.735,11.735,0,0,1,.2,3.2,5.488,5.488,0,0,1-.5,1.7c-.2.5-.5.9-.7,1.4a2.768,2.768,0,0,0-.3,1.3v1.2c0,.6.1,1.2.1,1.7A5.193,5.193,0,0,1,474.8,298.3Z"/><path class="i" d="M482.6,294a4.185,4.185,0,0,1-1.1-1.8,16.587,16.587,0,0,1-1.1-4.9,42.334,42.334,0,0,1-.5-5,7.412,7.412,0,0,1,.1-2.1l.3,2.1c.1,1.3.4,3,.7,5a28.416,28.416,0,0,0,1,4.9A15.154,15.154,0,0,0,482.6,294Z"/><path class="i" d="M485.3,289.4c-.1.1-1-.7-2.3-1.1a19.888,19.888,0,0,0-2.5-.4,3.591,3.591,0,0,1,2.7-.1C484.7,288.2,485.5,289.3,485.3,289.4Z"/><path class="i" d="M481.4,286.1a2.556,2.556,0,0,1,.1-2.4,2.629,2.629,0,0,1,1.6-1.7,13.07,13.07,0,0,0-1.2,1.9C481.4,285,481.6,286,481.4,286.1Z"/><path class="i" d="M470.8,292.4a2.663,2.663,0,0,0,1.2-.3,2.589,2.589,0,0,0,1.1-.7,6.375,6.375,0,0,0,.8-1.4,3.2,3.2,0,0,0,.3-2.7c-.3-.6-.9-.7-.8-.8s.6-.1,1.2.6a2.3,2.3,0,0,1,.4,1.4,4.8,4.8,0,0,1-.5,1.7,3.766,3.766,0,0,1-.9,1.5,3.293,3.293,0,0,1-1.3.7A1.967,1.967,0,0,1,470.8,292.4Z"/><path class="i" d="M475.4,287.1c.1,0,.2.4-.3.7s-.8,0-.8-.2c0-.1.3-.2.5-.3C475.1,287.3,475.3,287.1,475.4,287.1Z"/><path class="h" d="M525.3,285.5h-1a19.385,19.385,0,0,0-18.6,18.6c-.4,9.4-.7,19.8-.4,24.8.6,10.4,11,11.6,11,11.6,0,.3-.2,11-.2,13.6l24.4,2.9,1-51.1C542,295,536.1,285.7,525.3,285.5Z"/><path class="d" d="M540.9,322.3a76.983,76.983,0,0,0,3.4-12.5,25.263,25.263,0,0,0-.9-12.8c-.2-.6-2.1-4.8-2.8-4.7-.5,0,.7,3.9.5,4.3a22.2,22.2,0,0,0-2.7,12.9,61.683,61.683,0,0,0,2.5,12.8"/><path class="i" d="M516.3,340.5a25.869,25.869,0,0,0,13.4-4.5s-3,7.7-13.4,7.2Z"/><path class="d" d="M508,311.1a1.453,1.453,0,0,0,1.5,1.4,1.52,1.52,0,0,0,1.5-1.4h0a1.453,1.453,0,0,0-1.5-1.4,1.385,1.385,0,0,0-1.5,1.4Z"/><path class="d" d="M508.1,309c.2.2,1.3-.7,2.9-.8s2.8.7,3,.5-.1-.4-.6-.8a3.922,3.922,0,0,0-2.4-.6,3.523,3.523,0,0,0-2.3.9C508.2,308.6,508,309,508.1,309Z"/><path class="d" d="M523.7,310.6a1.453,1.453,0,0,0,1.5,1.4,1.52,1.52,0,0,0,1.5-1.4h0a1.5,1.5,0,0,0-3,0Z"/><path class="d" d="M523.5,308.8c.2.2,1.3-.7,2.9-.8s2.8.7,3,.5-.1-.4-.6-.8a3.922,3.922,0,0,0-2.4-.6,4.141,4.141,0,0,0-2.3.9C523.5,308.3,523.4,308.7,523.5,308.8Z"/><path class="d" d="M518.6,320.9a11.7,11.7,0,0,0-2.6-.4c-.4,0-.8-.1-.9-.4a2.537,2.537,0,0,1,.2-1.2c.3-1,.7-2,1.1-3.2,1.5-4.5,2.6-8.2,2.4-8.2s-1.5,3.5-3,8l-1,3.2a2.966,2.966,0,0,0-.2,1.6,1.057,1.057,0,0,0,.7.6,1.7,1.7,0,0,0,.7.1A23.482,23.482,0,0,0,518.6,320.9Z"/><path class="d" d="M523.3,321.8c-.3,0-.2,1.7-1.6,3s-3.3,1.2-3.3,1.4.4.3,1.2.3a4.3,4.3,0,0,0,2.8-1.1,4.071,4.071,0,0,0,1.3-2.5C523.6,322.2,523.4,321.8,523.3,321.8Z"/><path class="d" d="M523.2,302.5c.2.4,1.8.2,3.7.3s3.4.6,3.7.2c.1-.2-.2-.6-.8-1a5.3,5.3,0,0,0-2.7-.8,5.385,5.385,0,0,0-2.8.5C523.4,302,523.1,302.3,523.2,302.5Z"/><path class="d" d="M508.5,304.5c.3.3,1.4-.1,2.7-.2s2.5.2,2.7-.3q.15-.3-.6-.9a3.761,3.761,0,0,0-4.3.3C508.5,304,508.4,304.3,508.5,304.5Z"/><path class="h" d="M539.6,313c.2-.1,7-2.4,7.1,4.7s-7.1,5.7-7.1,5.5Z"/><path class="i" d="M541.8,320.4a1.237,1.237,0,0,0,.3.2,1.387,1.387,0,0,0,.9,0,3.131,3.131,0,0,0,1.4-2.8,3.921,3.921,0,0,0-.4-1.8,1.5,1.5,0,0,0-.9-1,.61.61,0,0,0-.7.3c-.1.2,0,.3-.1.4-.1,0-.2-.1-.1-.4,0-.2.1-.3.3-.4a1.445,1.445,0,0,1,.7-.2,1.63,1.63,0,0,1,1.3,1.1,3.444,3.444,0,0,1,.4,2,3.266,3.266,0,0,1-1.8,3.1,1.388,1.388,0,0,1-1.1-.2C541.8,320.6,541.7,320.4,541.8,320.4Z"/><path class="d" d="M510.3,292.3c-1.2-.6,2.3-4.4,5.1-5.7,4.3-1.9,10.8-3.1,14.8-2,4.7,1.3,8.7,3.7,11.1,8a27.248,27.248,0,0,1,3.1,14.3,8.608,8.608,0,0,1-1,4.4c-1,1.6-2.9,2.6-2.8,4.7a2.928,2.928,0,0,1-.7,2.2c-1.3,1.4-2.9.1-3.6-1.2-1.6-2.8-1.8-6.1-1.9-9.3a19.4,19.4,0,0,1,.5-6.8c.3-1.2.9-2.3,1.2-3.5a3.939,3.939,0,0,0-.5-3.5l-.6-.6a7.357,7.357,0,0,0-7.4-1.4c-4,1.4-9.5,1.9-12.2,1.4-3.2-.7-3.6-2.4-3.6-2.4Z"/><path class="d" d="M518.9,337.4c-.1.1-.7-.8-1.1-2a5.867,5.867,0,0,1-.4-2.3,6.667,6.667,0,0,1,.9,2.1A7.948,7.948,0,0,1,518.9,337.4Z"/><path class="d" d="M521.4,337.3a4.606,4.606,0,0,1-1.6-2.3,4.548,4.548,0,0,1-.5-2.8,20.03,20.03,0,0,1,1,2.6A27.2,27.2,0,0,1,521.4,337.3Z"/><path class="d" d="M523.3,335.6c-.1.1-.9-.6-1.5-1.7a3.339,3.339,0,0,1-.6-2.2c.2,0,.5.9,1.1,1.9A15.818,15.818,0,0,1,523.3,335.6Z"/><path class="d" d="M502.7,655.5c0,.2,1.2.4,2.3,1.1s1.7,1.7,1.9,1.7c.2-.1-.1-1.4-1.5-2.3C504.1,655,502.7,655.3,502.7,655.5Z"/><path class="h" d="M562.4,554s3.4,26,3.7,31,2.4,62.2,2.4,62.2c.3-.3-21.2,4.5-21.2,4.5L534.2,575V557.3Z"/><path class="d" d="M567.4,554.6l-53.9,4,1.6-50.3,48-11.5Z"/><path class="h" d="M541.1,537.7l-11.3,27.1-4.4,94.1-21.8.6L494.3,562l7.3-28.2Z"/><path class="d" d="M567.4,474.9h0c0,5.4,4.2,12.4-5.5,31.4-2,3.9-5.3,11.2-7.9,16.9-5.4,11.7-17.1,35.6-17.1,35.6l-47.1-6.4.5-75.6,43.9-17Z"/><path class="b" d="M537.2,559.3l-47.9-6.5.5-76.4.3-.1,44.1-17.1.2.1,33.5,15.3v.3c0,1.2.2,2.3.3,3.4.8,5.1,1.9,12.9-5.9,28.2-1.6,3.2-4.2,8.7-6.4,13.5l-1.5,3.3c-5.4,11.6-17,35.3-17.1,35.6Zm-47-7.3,46.3,6.3c1.4-2.9,11.9-24.4,16.9-35.3l1.5-3.3c2.3-4.9,4.8-10.4,6.4-13.6,7.7-15.1,6.6-22.6,5.8-27.6-.2-1.1-.3-2.2-.4-3.3l-32.7-15L490.6,477Z"/><path class="i" d="M525.6,654.1v-.9c0-.7,0-1.6.1-2.8.1-2.5.2-6,.4-10.3.4-8.7.9-20.7,1.5-34,.8-17.7,1.6-33.1,2-41.3h0l2-4.6.5-1.2c.1-.1.1-.3.2-.4,0,.1-.1.3-.1.4-.1.3-.3.7-.5,1.2-.4,1.1-1.1,2.7-1.9,4.6h0c-.3,8.2-1,23.6-1.8,41.3-.7,13.2-1.2,25.2-1.7,34-.2,4.3-.4,7.8-.6,10.3-.1,1.2-.1,2.1-.2,2.8a1.483,1.483,0,0,1-.1.7C525.6,654,525.6,654,525.6,654.1Z"/><path class="c" d="M571.8,373.3c-2.2-13.8-20.8-30.1-22.6-30.5l-2-5a13.262,13.262,0,0,0-7.8-1.8c-4.5.4-28.5,13.4-28.5,13.4l1.1,6-12.7-6.2-5.6,7.5L483,377.3l13,13.8c-3.6,7.7-6.9,15.1-9,20.2-6.7,16,.8,67.8.8,67.8l82.4,1.6-5.8-54.3C564.5,426.4,574,387.1,571.8,373.3Z"/><g class="j"><path d="M566.5,439.4a17.784,17.784,0,0,0-3.8-9.3c-3-4-7.1-7-11.1-10-5-3.7-9.9-7.3-14.9-11a2.2,2.2,0,0,0-1.5-.6c-.9.1-1.3,1.2-1.5,2.1-4.3,19.3-13.7,33.1-19.6,52l-3.9,6.6c6.5-4.3,10.4-11.4,13.9-18.4,5.2-10.3,9.9-20.9,14.2-31.6,1.7,4.3,8.3,4.3,11.1,8.1a15.672,15.672,0,0,1,1.8,4.2,25.474,25.474,0,0,0,7.6,11.2c1.6,1.4,4,2.6,5.8,1.5C566.2,443.2,566.6,441.2,566.5,439.4Z"/></g><path class="d" d="M511,349.4a.9.9,0,0,1,.1.5c.1.4.2.8.3,1.4.3,1.3.6,3.1,1,5.2h0v.1c-.9,2-2,4.3-3.2,6.9l-4,8.3c-2.9,6-5.5,11.4-7.5,15.2l-2.3,4.6-.6,1.2c-.1.1-.2.3-.3.4,0-.2.1-.3.2-.5l.6-1.3c.5-1.2,1.3-2.8,2.2-4.7,1.8-3.9,4.5-9.3,7.3-15.3,1.4-2.9,2.8-5.7,4-8.3l3.3-6.8v.1c-.4-2.1-.7-3.9-.9-5.2a9.322,9.322,0,0,1-.2-1.4C511,349.7,511,349.6,511,349.4Z"/><path class="d" d="M549.2,342.8a21.391,21.391,0,0,0-6.2.5,34.128,34.128,0,0,0-6.3,2.4l-7.5,3.6c-5,2.4-9.6,4.5-13,6.1l-.1.1-.1-.1-3.3-4a14.308,14.308,0,0,1-1.1-1.5,8.635,8.635,0,0,1,1.3,1.4l3.4,3.9h-.2c3.4-1.6,7.9-3.8,12.9-6.2l7.5-3.6a29.027,29.027,0,0,1,6.4-2.4,17.908,17.908,0,0,1,4.6-.4c.5,0,1,.1,1.2.1A4.341,4.341,0,0,1,549.2,342.8Z"/><g class="j"><path d="M546.8,377.4l-6,24.6a8.516,8.516,0,0,0-5-.3c.2.9.6.8.8,1.6l2.8,3.3c1,.8,2.8,0,3.7-1s1.1-3,1.3-4.3C546.1,393.5,547.3,385.5,546.8,377.4Z"/></g><path class="k" d="M528.7,348.4a24.711,24.711,0,0,1-5.3-4.9,30.829,30.829,0,0,1,5.3,4.9Z"/><path class="k" d="M543.4,343.3a14.611,14.611,0,0,1-2.2-3.3,16.154,16.154,0,0,1-1.7-3.5,14.611,14.611,0,0,1,2.2,3.3A22.613,22.613,0,0,1,543.4,343.3Z"/><path class="k" d="M567.7,383.7a15.833,15.833,0,0,1-3.1-.9c-1.9-.6-4.5-1.4-7.4-2.2s-5.6-1.4-7.5-1.8a15.667,15.667,0,0,1-3.1-.8,17.507,17.507,0,0,1,3.2.4,68.778,68.778,0,0,1,7.6,1.7c2.9.8,5.5,1.6,7.4,2.3C565.7,382.8,566.7,383.2,567.7,383.7Z"/><path class="k" d="M558.3,350.6c0,.2-2.8.4-6.2,1.2s-6.1,1.8-6.1,1.6A28.774,28.774,0,0,1,558.3,350.6Z"/><path class="k" d="M511.9,375.9a29.142,29.142,0,0,1-7.7-2.6,14,14,0,0,1,4,1.1A14.393,14.393,0,0,1,511.9,375.9Z"/><path class="k" d="M505,421.6a15.11,15.11,0,0,1-2.9-1.3,55.185,55.185,0,0,1-6.6-4c-2.1-1.5-4.1-3-6.1-4.7a23.908,23.908,0,0,1-2.3-2.2,23.484,23.484,0,0,1,2.5,1.9c1.5,1.2,3.7,2.9,6.1,4.6,2.5,1.7,4.8,3.1,6.4,4.1A9.964,9.964,0,0,1,505,421.6Z"/><path class="k" d="M553.9,435.2a3.4,3.4,0,0,1-1,.1h-2.8a66.966,66.966,0,0,1-18.3-3.2q-1.65-.6-2.7-.9a3.554,3.554,0,0,1-.9-.4c0-.1,1.4.4,3.7,1q4.5,1.2,9,2.1c3.6.6,6.8.9,9.2,1.1S553.9,435.1,553.9,435.2Z"/><path class="k" d="M496.8,465.5a10.662,10.662,0,0,1-1.9-.7,47.717,47.717,0,0,1-4.4-2.4c-1.4-.9-2.8-1.8-4.1-2.8a5.017,5.017,0,0,1-1.5-1.4c.1-.1,2.6,1.7,5.9,3.7S496.8,465.3,496.8,465.5Z"/><path class="k" d="M569,469.1a1.268,1.268,0,0,1-.6.1l-1.6.3c-1.4.3-3.5.6-6,1a148.835,148.835,0,0,1-40,.3c-2.5-.3-4.6-.6-6-.9l-1.6-.3c-.2,0-.4-.1-.6-.1h.6l1.6.2c1.4.2,3.5.5,6,.8a172.769,172.769,0,0,0,39.8-.3c2.5-.3,4.6-.6,6-.8l1.6-.2A2.813,2.813,0,0,1,569,469.1Z"/><path class="k" d="M505.3,352.1a7.46,7.46,0,0,1-.7,1.2l-1.9,3.2c-1.6,2.7-3.8,6.5-6,10.8s-4.1,8.2-5.5,11.1l-1.6,3.4a7.46,7.46,0,0,1-.7,1.2,4.952,4.952,0,0,1,.4-1.3c.3-.8.8-2,1.4-3.5,1.3-2.9,3.1-6.9,5.4-11.2,2.2-4.3,4.5-8,6.2-10.7.8-1.3,1.5-2.4,2-3.1C504.7,352.8,505,352.4,505.3,352.1Z"/><path class="b" d="M525.4,351.5s4.7-3,14.3-.8,32.1,22.6,32.1,22.6l-1.6,4C570.3,377.3,543.3,349.8,525.4,351.5Z"/><path class="b" d="M572.2,371.3c8.1,3.3,18.8,10.3,22,18.4,2.3,5.9,1,12.5.5,18.8-.6,6.7-.2,13.5-1.7,20-1.4,6.5-4.9,13.1-11,16-4.9,2.4-10.8,2-15.9.1s-10-5.4-12.2-10.5c-3.2-7.4-.2-15.8,2.8-23.2l15-37.7Z"/><path class="b" d="M525.4,397.4c.3,1.1,15.2,24.4,27.3,27.4l4.4-3.2s-21-14.1-23.8-24.2h-7.9Z"/><path class="d" d="M594.8,402.4a1.577,1.577,0,0,0,.1.4v1.4a7.94,7.94,0,0,1-2.1,4.3,7.735,7.735,0,0,1-2.8,1.9,12.277,12.277,0,0,1-3.8.8,17.363,17.363,0,0,1-8.3-2.4A27.974,27.974,0,0,1,567,397.6a18.534,18.534,0,0,1-1.8-4.4c-.1-.4-.2-.8-.3-1.3a.6.6,0,0,1-.1-.4c.2.5.4,1.1.6,1.6a23.919,23.919,0,0,0,2,4.3,28.279,28.279,0,0,0,10.8,10.9,16.3,16.3,0,0,0,8.1,2.4,8.744,8.744,0,0,0,6.3-2.4,7.94,7.94,0,0,0,2.2-4Z"/><path class="d" d="M567.8,444.1a.9.9,0,0,1-.5-.1,3.1,3.1,0,0,1-1.3-.6,9.91,9.91,0,0,1-3.8-3.8,15.967,15.967,0,0,1-1.9-7.7,63.311,63.311,0,0,1,.7-9.7,92.822,92.822,0,0,1,4.2-17.1c.7-2.1,1.4-3.8,1.9-5a11.813,11.813,0,0,0,.6-1.3c.1-.2.1-.3.2-.4,0,.2-.1.3-.2.5-.1.4-.3.8-.5,1.4-.4,1.2-1.1,2.9-1.8,5a107.788,107.788,0,0,0-4,17,77.671,77.671,0,0,0-.8,9.6,16.264,16.264,0,0,0,1.8,7.5,11.551,11.551,0,0,0,3.5,3.8A16.559,16.559,0,0,0,567.8,444.1Z"/><path class="d" d="M552.7,428.9c0-6.6,2.7-14.4,5.2-20.5s11.6-28.5,13.9-35l4.2-.3c.8-1.2,1.5-2.7,2.9-3a3.367,3.367,0,0,1,3.7,1.6,5.66,5.66,0,0,1,.3,2.6,24.988,24.988,0,0,1-.5,2.9l2.9,1.6a8.857,8.857,0,0,0-.3-8.9,7.353,7.353,0,0,0-10.2-1.8,7.5,7.5,0,0,0-3,4.9"/><path class="h" d="M536.5,402.9l-1.8,11.5-26.2,64.3-13.6,1.4,16.7-82.8Z"/><path class="h" d="M509.5,474.3v11l-1.2,2.8,1.7,2.4,3.6.7a2,2,0,0,1-.3,2.6,5.42,5.42,0,0,1-3.3.8s-.1,2.1-1,2.4a4.925,4.925,0,0,1-2.4.2s.4,1.9-.3,2.2-5.9.1-5.9.1-4.1-.2-4.4-.3c-.6-1.2-1.1-2.4-1.6-3.7,0,0-3.3-.1-3.3-2s1-.9,1.6-3.1,2.1-12,2.1-12l2.8-9Z"/><path class="i" d="M503.6,487.6c.1,0,.1.6.4,1.5a7.818,7.818,0,0,0,1.8,3.2,6.831,6.831,0,0,0,3.2,1.8c.9.3,1.5.3,1.5.4a2.208,2.208,0,0,1-1.6,0,6.6,6.6,0,0,1-5.3-5.3A4.3,4.3,0,0,1,503.6,487.6Z"/><path class="i" d="M499.6,489.8a8.8,8.8,0,0,1,.5,1.5,8.893,8.893,0,0,0,5,5.4l1.5.6a2.318,2.318,0,0,1-1.6-.3,7.74,7.74,0,0,1-5.2-5.6A2.193,2.193,0,0,1,499.6,489.8Z"/><path class="i" d="M496.5,489.8a8.752,8.752,0,0,1,.2,1.6,12.088,12.088,0,0,0,.6,3.8,7.343,7.343,0,0,0,1.9,3.3c.7.7,1.3,1,1.2,1a2.835,2.835,0,0,1-1.5-.8,6.758,6.758,0,0,1-2.1-3.4,13.608,13.608,0,0,1-.4-4A2,2,0,0,1,496.5,489.8Z"/><path class="i" d="M494.4,495.7a35.6,35.6,0,0,1-.5-6.5,28.075,28.075,0,0,1,.4-6.5c.1,0,.1,2.9.2,6.5C494.6,491.3,494.5,493.5,494.4,495.7Z"/><path class="c" d="M548,371.5l-6.8,32.4L508.7,397l6.1-32.9a16.574,16.574,0,0,1,8.3-11.6,15.064,15.064,0,0,1,10.8-1.4,36.762,36.762,0,0,1,4.7,1.5A16.821,16.821,0,0,1,548,371.5Z"/><path class="d" d="M535.3,351.5h.3a6.374,6.374,0,0,0,.9.2,17.549,17.549,0,0,1,3.2,1.2,13.746,13.746,0,0,1,4.3,3.3,15.562,15.562,0,0,1,3.6,6.2,17.439,17.439,0,0,1,.4,8.8c-.6,3.1-1.3,6.4-2,9.9l-4.6,23v.3h-.3l-5.7-1.3-26.9-5.6h-.2v-.2c.7-5.6,1.4-10.7,2.2-15.2.9-4.5,1.8-8.4,2.7-11.6s1.7-5.7,2.3-7.4c.3-.8.5-1.5.7-1.9l.2-.5a.349.349,0,0,1,.1-.2v.2l-.2.5a12.422,12.422,0,0,0-.6,2c-.5,1.7-1.3,4.2-2.2,7.4s-1.8,7.1-2.6,11.6-1.5,9.6-2.2,15.2l-.2-.3,26.9,5.6,5.7,1.2-.1.1c1.7-8.2,3.3-15.9,4.7-22.9.7-3.5,1.4-6.8,2-9.9a16.769,16.769,0,0,0-.4-8.6,15.478,15.478,0,0,0-3.5-6.1,17.036,17.036,0,0,0-4.2-3.3c-1-.5-2.1-.9-3.1-1.3a2.192,2.192,0,0,1-.8-.3Z"/><path class="k" d="M544.3,385.3a2.854,2.854,0,0,1-1.3,0c-.8,0-2.1-.1-3.6-.2-3-.2-7.2-.6-11.8-1.3a115.488,115.488,0,0,1-11.7-2.3c-1.5-.4-2.7-.7-3.5-.9a9.29,9.29,0,0,1-1.3-.4,5.852,5.852,0,0,1,1.3.2l3.5.7c3,.6,7.1,1.4,11.7,2.1s8.8,1.1,11.8,1.4l3.6.3A3.258,3.258,0,0,0,544.3,385.3Z"/><path class="k" d="M545.1,359c0,.1-1.6-.5-4.1-1a40.237,40.237,0,0,0-20.1.7c-2.5.7-4,1.4-4,1.3a3.128,3.128,0,0,1,1-.5,24.89,24.89,0,0,1,2.9-1.1,37.851,37.851,0,0,1,20.3-.7,17.1,17.1,0,0,1,3,.9A1.777,1.777,0,0,1,545.1,359Z"/><path class="d" d="M546.5,649.4l.3,1.4s-21,14.5-20.3,19l45.9-10.6L568.5,644A28.108,28.108,0,0,1,546.5,649.4Z"/><g class="l"><path class="k" d="M564.7,649.9a1.933,1.933,0,0,1,1.8,1.8,1.792,1.792,0,0,1-1.8,1.8,1.985,1.985,0,0,1-1.9-2,1.83,1.83,0,0,1,2.1-1.6"/></g><g class="l"><path class="k" d="M572.4,659.1l-1-3.6L527.7,667s-1.8,1.4-1.3,2.8Z"/></g><path class="d" d="M546.6,650.9c.1.2,1.2.1,2.5.5,1.3.5,2.1,1.3,2.3,1.1.2-.1-.4-1.4-2-1.9S546.5,650.7,546.6,650.9Z"/><path class="k" d="M542.3,654c0,.2,1,.4,2,1.2s1.4,1.7,1.7,1.7.1-1.4-1.2-2.3S542.2,653.8,542.3,654Z"/><path class="k" d="M540.9,660.4c.2,0,.3-1.2-.6-2.3s-2-1.3-2.1-1.1.8.7,1.4,1.6C540.3,659.5,540.6,660.4,540.9,660.4Z"/><path class="d" d="M502.9,654v1.4s-24,8.8-24.4,13.3l47.1,1.1V654.1A27.645,27.645,0,0,1,502.9,654Z"/><g class="l"><path class="k" d="M520.4,659a1.973,1.973,0,0,1,1.3,2.2,1.835,1.835,0,1,1-1.1-2.2"/></g><g class="l"><path class="k" d="M525.6,669.8l-.1-3.8-45.1.3s-2.1.9-1.9,2.3Z"/></g><path class="k" d="M497.7,657.4c-.1.2.9.6,1.7,1.6s1,2,1.2,2,.4-1.3-.6-2.5S497.7,657.2,497.7,657.4Z"/><path class="k" d="M494.8,663.3c.2,0,.6-1.1,0-2.4s-1.6-1.8-1.7-1.6.5.9,1,1.9S494.5,663.2,494.8,663.3Z"/><path class="m" d="M211.1,352.6,184,327.4v-6.7l-5.6-13.9-8.1-1.4s-1.7,1.2-.3,2.3c-.9-.6-3.2-1.8-4.7.2,0,0-8.8-8.5-10.6-8.2s-2.2,1.1-2.2,1.1l8.9,9.9,2.9,3.4-3.8,7-.2,3.7,10.1,10.5h0l27.1,31.8a22.047,22.047,0,0,0,16.8,7.7h27.4l3.9-23.8Z"/><path class="n" d="M165.2,321a9.036,9.036,0,0,1,.8-2.1l.1-.2.2.1a44.4,44.4,0,0,0,3.8,2.7,8.164,8.164,0,0,0,2.6,1.4,1.1,1.1,0,0,0,1.2-.3,1.392,1.392,0,0,0,.1-1.4,10.233,10.233,0,0,0-1.4-2.2,14.621,14.621,0,0,0-1.6-1.9,13.806,13.806,0,0,0-3.1-2.8,3.02,3.02,0,0,0-2.6-.3,4.053,4.053,0,0,0-.9.5s0-.1.2-.2a2.651,2.651,0,0,1,.6-.5,3.66,3.66,0,0,1,2.9.1,16.955,16.955,0,0,1,3.3,2.7c.6.6,1.1,1.3,1.6,1.9a7.9,7.9,0,0,1,1.4,2.3,1.877,1.877,0,0,1-.2,1.9,1.681,1.681,0,0,1-1.8.5,10.092,10.092,0,0,1-1.5-.7l-1.2-.8a33.66,33.66,0,0,1-3.7-2.9h.2A7.393,7.393,0,0,1,165.2,321Z"/><path class="n" d="M173.6,320a.663.663,0,0,0,.7.2,1.452,1.452,0,0,0,1.6-1c.2-1-.4-2-1-3.1a11.436,11.436,0,0,0-2.6-3.2,7.3,7.3,0,0,0-3.5-2,3.779,3.779,0,0,0-3.1.6,3.218,3.218,0,0,0-1.2,1.8c-.1.5,0,.8-.1.8s-.2-.3-.1-.9a3.327,3.327,0,0,1,1.1-2.1,4.584,4.584,0,0,1,3.4-.8,7.635,7.635,0,0,1,3.7,2.1,12.729,12.729,0,0,1,3.4,5.1,3.21,3.21,0,0,1,.2,1.7,1.673,1.673,0,0,1-.9,1.1,3.4,3.4,0,0,1-1,.1,1.421,1.421,0,0,1-.6-.2C173.6,320.1,173.6,320,173.6,320Z"/><path class="n" d="M175.1,316a1.01,1.01,0,0,0,.5-.2c.2-.1.3-.2.5-.3a1,1,0,0,0,.4-.5,3.194,3.194,0,0,0-.3-1.9,8.577,8.577,0,0,0-1.3-2,15.421,15.421,0,0,0-3.6-2.7c-.6-.3-1.1-.6-1.7-.9a5.461,5.461,0,0,1,1.8.6,12.683,12.683,0,0,1,3.9,2.6,6.355,6.355,0,0,1,1.4,2.2,3.3,3.3,0,0,1,.2,2.2.9.9,0,0,1-.6.6l-.6.3A.931.931,0,0,1,175.1,316Z"/><path class="n" d="M165.4,311.6c-.1,0-.3-.1-.6-.5a2.885,2.885,0,0,1-.3-1.8,2.469,2.469,0,0,1,.8-1.6c.3-.3.6-.5.6-.4a9.494,9.494,0,0,0-.9,2.1,2.917,2.917,0,0,0,.1,1.6C165.3,311.3,165.5,311.5,165.4,311.6Z"/><path class="n" d="M177.9,310.6a2.766,2.766,0,0,1-2,.4,2.389,2.389,0,0,1-1.4-.5c-.3-.2-.4-.4-.4-.5a12.09,12.09,0,0,0,1.8.5C177,310.6,177.9,310.5,177.9,310.6Z"/><path class="n" d="M179.3,317.6c0,.1-.5.3-1.2.9a7.217,7.217,0,0,0-2,2.9,13.71,13.71,0,0,0-.8,3.5,4.013,4.013,0,0,1-.3,1.5,7.568,7.568,0,0,1-.1-1.5,10.966,10.966,0,0,1,.7-3.6,6.064,6.064,0,0,1,2.2-3A2.766,2.766,0,0,1,179.3,317.6Z"/><path class="n" d="M165.9,323.8c-.2,0-.3-.6-.5-1.3s-.5-1.2-.4-1.3.6.3.9,1.1S166.1,323.8,165.9,323.8Z"/><path class="o" d="M285.5,628.9l-6.3,21.7s20,13.7,19.2,17.8l-42.5-10.7,8.4-34.3Z"/><path class="p" d="M266.5,645.4a1.828,1.828,0,0,0-1.7,1.7,1.685,1.685,0,0,0,1.7,1.7,1.859,1.859,0,0,0,1.8-1.8c-.1-.9-1.1-1.8-1.9-1.6"/><g class="l"><path class="k" d="M255.9,657.7l1-3.4,40.5,11.5s1.7,1.3,1.1,2.6Z"/></g><path class="d" d="M280,650.5c-.1.2-1.1,0-2.3.5s-2,1.2-2.1,1c-.1-.1.4-1.3,1.9-1.7A2.567,2.567,0,0,1,280,650.5Z"/><path class="d" d="M284,653.5c0,.2-1,.3-1.9,1s-1.4,1.6-1.6,1.5-.1-1.3,1.1-2.1S284,653.3,284,653.5Z"/><path class="d" d="M285.2,659.5c-.2,0-.2-1.1.6-2.1s1.9-1.2,1.9-1-.7.7-1.4,1.5C285.7,658.7,285.4,659.5,285.2,659.5Z"/><path class="d" d="M280.9,645.4c-.1.2-1-.4-2.2-.6s-2.2-.1-2.3-.3,1-.7,2.4-.5A2.6,2.6,0,0,1,280.9,645.4Z"/><path class="o" d="M270.6,634l-1,22.6s22.6,8.6,22.9,12.8l-43.9-.4.1-35.3Z"/><path class="p" d="M256,654.6a1.846,1.846,0,0,0-1.3,2,1.783,1.783,0,0,0,2,1.3,1.914,1.914,0,0,0,1.3-2.2,1.755,1.755,0,0,0-2.2-1.1"/><g class="l"><path class="k" d="M248.6,669l.1-3.6,42,1.7s2,.9,1.7,2.2Z"/></g><path class="d" d="M270.3,656.4c0,.2-1.1.3-2.1,1s-1.6,1.6-1.8,1.5.1-1.3,1.4-2.1S270.3,656.2,270.3,656.4Z"/><path class="d" d="M274.9,658.3c0,.2-.9.6-1.6,1.5s-1,1.9-1.2,1.8c-.2,0-.3-1.2.6-2.3S274.9,658.1,274.9,658.3Z"/><path class="d" d="M277.5,663.8c-.2,0-.5-1,.1-2.2s1.6-1.6,1.7-1.5-.5.8-1,1.8C277.7,662.9,277.7,663.8,277.5,663.8Z"/><path class="d" d="M269.9,651.2c-.1.2-1.1-.1-2.3,0s-2.2.4-2.3.3c-.1-.2.8-.9,2.2-1S270.1,651,269.9,651.2Z"/><path class="d" d="M243.4,468.6v17.9l4.8,69.6s-3,33.8-4.8,52.8c-1.6,16.6,1,45.4,1,45.4h27.9l10-96.1,6.2-60,10.8-27.3Z"/><path class="d" d="M318.4,471.8l-6.8,97-28.2,72.8-1.3,4.3-16.7-4,12.4-172.1Z"/><path class="b" d="M288.5,498.9v1.6c0,1.1-.1,2.6-.1,4.5-.1,4-.4,9.7-.8,16.7-.8,14.1-2.4,33.6-4.9,55-2.4,21.4-5.1,40.8-7,54.8-1,7-1.8,12.6-2.4,16.6-.3,1.9-.5,3.5-.7,4.5-.1.5-.1.9-.2,1.2a.6.6,0,0,1-.1.4v-.4c0-.3.1-.7.1-1.2q.15-1.65.6-4.5c.5-4,1.3-9.6,2.2-16.6,1.9-14,4.5-33.4,6.9-54.8,2.4-21.5,4.1-40.9,5-55,.4-7,.8-12.8,1-16.7.1-2,.2-3.5.2-4.5,0-.5.1-.9.1-1.2C288.4,499.2,288.5,499,288.5,498.9Z"/><path class="b" d="M264.5,470.4a3.4,3.4,0,0,1-.1,1,13.819,13.819,0,0,1-.8,2.7,17.979,17.979,0,0,1-13.9,11.2,26.35,26.35,0,0,1-2.8.2,3.4,3.4,0,0,1-1-.1c0-.1,1.5,0,3.8-.5A18.259,18.259,0,0,0,263.3,474C264.2,471.8,264.4,470.4,264.5,470.4Z"/><path class="b" d="M290.2,474.6a1.4,1.4,0,1,1-1.4-1.4h0a1.367,1.367,0,0,1,1.4,1.4Z"/><path class="b" d="M314.8,488.2a7.206,7.206,0,0,1-2-1.9,22.372,22.372,0,0,1-3.5-5.5,22.766,22.766,0,0,1-1.8-6.3,8.172,8.172,0,0,1-.1-2.7c.1,0,.1,1,.4,2.6A25.431,25.431,0,0,0,313,486C314.1,487.4,314.9,488.1,314.8,488.2Z"/><path class="b" d="M294,471.9v1.2c-.1.9-.1,1.9-.2,3.1-.2,2.6-.6,6.3-1,10.4q-.3,3-.6,5.7a10.182,10.182,0,0,1-1.3,4.5,5.2,5.2,0,0,1-2.4,2,2.768,2.768,0,0,1-.9.1h-.3c.4-.1.7-.2,1.1-.3a4.731,4.731,0,0,0,2.2-2,11.421,11.421,0,0,0,1.1-4.4q.3-2.7.6-5.7c.4-4,.8-7.7,1.1-10.3.2-1.2.3-2.3.4-3.1A3.728,3.728,0,0,1,294,471.9Z"/><path class="g" d="M282.9,339.6l10.2-5.1,26,9.8,3.7,12.1s10.2,6,12.1,10.2,3.7,45.5,3.7,45.5H322l-3.5,36.1,1.4,23.7-78.7-3.7-.3-7.8a69.917,69.917,0,0,1,.6-9.2L256.6,379l-24.1,6.1L228.3,351l41.8-9.8Z"/><path class="d" d="M325,370.8v3.1c-.1,2-.2,4.8-.4,8.3-.4,7-1.2,16.7-2.1,27.4s-1.9,20.3-2.7,27.3c-.4,3.4-.7,6.3-.9,8.3-.1.9-.2,1.7-.3,2.2,0,.3-.1.5-.1.8v-.8c.1-.6.1-1.3.2-2.3.2-2,.4-4.8.8-8.3.6-7,1.5-16.7,2.5-27.3s1.8-20.3,2.3-27.3c.3-3.5.4-6.3.5-8.3l.1-2.3A2.485,2.485,0,0,1,325,370.8Z"/><path class="d" d="M317.4,461.2a1.7,1.7,0,0,1-.7.1l-1.9.2c-1.7.1-4.1.3-7.2.4a170.964,170.964,0,0,1-23.7-1.1c-4.6-.6-9-1.3-12.9-2.2a49.508,49.508,0,0,1-10.1-3.2,32.508,32.508,0,0,1-6.3-3.5c-.5-.4-1.1-.8-1.6-1.2-.4-.3-.5-.4-.5-.5s.8.6,2.2,1.5A37.792,37.792,0,0,0,261,455a59.736,59.736,0,0,0,10.2,3c3.9.9,8.3,1.5,12.9,2.1a168.906,168.906,0,0,0,23.6,1.3c3,0,5.5-.1,7.2-.2l2-.1A.9.9,0,0,0,317.4,461.2Z"/><path class="d" d="M270.6,370.8a21.112,21.112,0,0,0,4.5-2.8,13.859,13.859,0,0,0,3.3-4.6,17.331,17.331,0,0,0,1.6-6.7,14.522,14.522,0,0,0-.2-3.6,11.467,11.467,0,0,0-1.1-3.1,24.564,24.564,0,0,0-3.1-4.8,25.717,25.717,0,0,0-3.9-3.5c.1,0,.2.1.3.2a6.78,6.78,0,0,1,.9.6,18.1,18.1,0,0,1,3,2.5,20.434,20.434,0,0,1,3.3,4.8,13.173,13.173,0,0,1,1.4,7,18.436,18.436,0,0,1-1.7,6.9,14.419,14.419,0,0,1-3.5,4.6,12.7,12.7,0,0,1-3.4,2A3.358,3.358,0,0,1,270.6,370.8Z"/><path class="d" d="M307.3,366a5.008,5.008,0,0,1-.8-.7l-2.1-2.1a64.043,64.043,0,0,1-6.5-8.1h.4a48.118,48.118,0,0,0-2.6,9.9l-.1.8-.4-.8-.8-1.7a160.642,160.642,0,0,1-6.8-17.4c-.7-2.3-1.3-4.1-1.6-5.4l-.4-1.5a1.087,1.087,0,0,1-.1-.5c.1.2.2.3.2.5.1.4.3.9.5,1.5.4,1.3,1,3.1,1.7,5.4a183.253,183.253,0,0,0,6.9,17.3c.3.6.5,1.1.8,1.6l-.5.1a42.728,42.728,0,0,1,2.7-9.9l.2-.4.3.4a84.811,84.811,0,0,0,6.3,8.2l2,2.2C306.8,365.4,307.1,365.7,307.3,366Z"/><path class="d" d="M321.9,354.2a2.768,2.768,0,0,1,.1.9v2.6a44.049,44.049,0,0,1-1.5,8.7l-.4,1.4-.1-1.4a20.028,20.028,0,0,0-.4-2.4,10.565,10.565,0,0,0-2.7-4.7h.4a41.569,41.569,0,0,1-4.8,4.6q-.9.75-1.5,1.2c-.2.1-.4.3-.6.4.6-.6,1.2-1.2,1.9-1.8,1.6-1.5,3.1-3.1,4.6-4.8l.2-.2.2.2a12.055,12.055,0,0,1,2.8,4.9,18.424,18.424,0,0,1,.5,2.5h-.5a50.337,50.337,0,0,0,1.7-8.6A20.443,20.443,0,0,1,321.9,354.2Z"/><path class="d" d="M304.5,387.5c.4,0,.7.1,1,.1.7.1,1.6.3,2.8.6l-.2.2c0-2.3.1-5.5.2-9s.3-6.8.4-9.1c.1-1.2.1-2.1.2-2.8a3.4,3.4,0,0,1,.1-1,3.4,3.4,0,0,1,.1,1v2.8c0,2.3-.1,5.6-.2,9.1-.1,3.6-.3,6.7-.4,9v.2l-.2-.1c-1.2-.3-2.1-.5-2.8-.7A2.935,2.935,0,0,1,304.5,387.5Z"/><path class="d" d="M306.4,370.9h.3a1.012,1.012,0,0,1,.7.4,1.314,1.314,0,0,1,.3,1.2,1.4,1.4,0,0,1-1.2.9,1.528,1.528,0,0,1-1-.4,1.232,1.232,0,0,1-.2-1,1.3,1.3,0,0,1,.9-1l.1.2h0l-.1-.2c.1-.1.3-.1.2-.1h0c0,.1-.1.1-.2.2l-.1-.2h0l.1.2a1.05,1.05,0,0,0-.5.9c-.1.4.2.7.6.8h.2a1.02,1.02,0,0,0,.8-.5,1.062,1.062,0,0,0-.1-.8c-.1-.2-.3-.3-.4-.4l-.4-.2Z"/><g class="q"><path d="M282.2,339.7a500.046,500.046,0,0,0,18.6,53.2c1.4,3.4,2.9,7.1,2.3,10.8l-9.5.2c-.2,3,0,13.3,0,13.3l14.4-1.3-1.2-19.4-11.7-29.6L284,339.1Z"/></g><path class="d" d="M285.5,338.3l20.1,56.8h2.6l14.6-38.8,2,1.3-15.9,40.6h-3.8l-22.2-58.6Z"/><rect class="p" width="3.9" height="9.8" transform="translate(305 398.2)"/><rect class="r" width="22.8" height="13.7" transform="translate(295.4 404.4)"/><path class="d" d="M318.2,418.1v-3.8c0-2.4-.1-5.8-.1-9.9l.2.2H295.5l.3-.3h0V418l-.2-.2,16.3.1,4.7.1h.2l-4.7.1-16.5.1h-.2v-14h0l.3-.3,22.8.1h.2v.2c0,4.2-.1,7.6-.1,10.1V417A2.518,2.518,0,0,0,318.2,418.1Z"/><path class="d" d="M300.9,411.4h.9V413a2.976,2.976,0,0,1-1.5.5,1.956,1.956,0,0,1-.3-3.9h.3a1.99,1.99,0,0,1,1.6.7l-.7.6a1.086,1.086,0,0,0-.9-.4,1.188,1.188,0,0,0-1,1.2,1.071,1.071,0,0,0,1,1,1.268,1.268,0,0,0,.6-.1Z"/><path class="d" d="M302.4,411.7v-2h1v2c0,.6.3.9.7.9s.7-.3.7-.9v-2h1v2a1.714,1.714,0,0,1-1.9,1.6,1.63,1.63,0,0,1-1.5-1.6Z"/><path class="d" d="M306.6,409.7h1v3.7h-1Z"/><path class="d" d="M308.4,409.7h1.8a1.867,1.867,0,0,1,.5,3.7h-2.3Zm1.7,2.8a1,1,0,0,0,0-2h-.7v2Z"/><path class="d" d="M315.7,412.5v.8h-3v-3.7h2.9v.8h-1.9v.6h1.6v.8h-1.6v.7h2Z"/><g class="q"><path d="M309,367.4a9.248,9.248,0,0,0,7.1-4.1,11.924,11.924,0,0,0,2.1,5.2,4.767,4.767,0,0,0,1.5-4.9,14.682,14.682,0,0,0-2.5-4.8c-2.9,2.6-5.2,5.2-8.1,7.8"/></g><path class="m" d="M292.4,339.2,299,354l10,12.3,7.5-8.3,1-9.1.8-7.6s10.2-.3,11.6-10.3c.6-4.8,1.2-14.9,1.6-24A18.883,18.883,0,0,0,315,287.5l-1-.1c-10.5-.7-17,7.9-17.4,18.4l-4.2,33.4"/><path class="n" d="M318.3,341.3a23.64,23.64,0,0,1-12.6-5.3s2.2,7.6,12.3,7.9Z"/><path class="d" d="M328.3,313.1a1.533,1.533,0,0,1-1.6,1.3,1.283,1.283,0,0,1-1.3-1.4h0a1.533,1.533,0,0,1,1.6-1.3,1.288,1.288,0,0,1,1.3,1.4Z"/><path class="d" d="M328.9,311.1c-.2.2-1.2-.8-2.7-1s-2.8.4-2.9.2.1-.4.7-.7a3.845,3.845,0,0,1,2.4-.4,3.215,3.215,0,0,1,2.1,1C328.9,310.6,329,311,328.9,311.1Z"/><path class="d" d="M313.3,311.2a1.533,1.533,0,0,1-1.6,1.3,1.283,1.283,0,0,1-1.3-1.4h0a1.533,1.533,0,0,1,1.6-1.3,1.2,1.2,0,0,1,1.3,1.4Z"/><path class="d" d="M313.6,308.7c-.2.2-1.3-.6-2.8-.6s-2.7.7-2.9.5.1-.4.6-.8a3.891,3.891,0,0,1,2.3-.7,3.5,3.5,0,0,1,2.2.8A1.679,1.679,0,0,1,313.6,308.7Z"/><path class="d" d="M317.6,322.1a7.484,7.484,0,0,1,2.6-.1c.4,0,.8,0,.9-.3a2.462,2.462,0,0,0-.1-1.2c-.3-1-.5-2-.8-3.1-1.1-4.5-1.8-8.1-1.6-8.2.2,0,1.2,3.5,2.3,8,.3,1.1.5,2.1.7,3.2a2.208,2.208,0,0,1,0,1.6,1.157,1.157,0,0,1-.7.5h-.7A23.361,23.361,0,0,1,317.6,322.1Z"/><path class="d" d="M313,322.6c.3,0,0,1.7,1.3,3.1s3.1,1.4,3.1,1.6-.4.3-1.2.2a4.325,4.325,0,0,1-2.6-1.3,3.541,3.541,0,0,1-1-2.6A1.14,1.14,0,0,1,313,322.6Z"/><path class="d" d="M314.6,302.1c-.2.4-1.7,0-3.6,0s-3.4.3-3.5-.1c-.1-.2.2-.6.9-.9a6.039,6.039,0,0,1,5.4.1C314.4,301.6,314.7,302,314.6,302.1Z"/><path class="d" d="M328.6,307c-.3.3-1.3-.2-2.6-.4s-2.4,0-2.6-.5c-.1-.2.1-.5.6-.8a3.994,3.994,0,0,1,4.2.6C328.7,306.5,328.8,306.9,328.6,307Z"/><path class="m" d="M296.5,313.3c-.2-.1-6.6-2.9-7.3,4s6.4,6.1,6.5,5.9S296.5,313.3,296.5,313.3Z"/><path class="n" d="M293.8,320.4a.438.438,0,0,1-.3.1.972.972,0,0,1-.9-.1,3,3,0,0,1-1.1-2.8,3.371,3.371,0,0,1,.5-1.7,1.375,1.375,0,0,1,1-.8.67.67,0,0,1,.7.4c.1.2,0,.3,0,.4s.2-.1.1-.4c0-.2-.1-.3-.2-.5-.2-.2-.4-.3-.6-.2a2.068,2.068,0,0,0-1.4,1,4.245,4.245,0,0,0-.6,1.9,3.03,3.03,0,0,0,1.5,3.1,1.376,1.376,0,0,0,1.1-.1C293.8,320.5,293.8,320.4,293.8,320.4Z"/><path class="d" d="M334,295.4a3.592,3.592,0,0,0-2.3-3.1,3.09,3.09,0,0,0-1-4.3,3.013,3.013,0,0,0-3.4.1,3.317,3.317,0,0,0-3-3.5,3.4,3.4,0,0,0-1,.1,2.729,2.729,0,0,0-2.2-3.2,2.641,2.641,0,0,0-2.7,1.1,4.7,4.7,0,0,0-6.3-2.1l-.9.6a5.916,5.916,0,0,0-7.6,2.3,5.846,5.846,0,0,0-5.5,3.3,4.416,4.416,0,0,0-3.7,1.9,4.463,4.463,0,0,0-.2,4.2,3.131,3.131,0,0,0-1.7,4,1.612,1.612,0,0,0,.4.7,3.032,3.032,0,0,0-2,2.5,3,3,0,0,0,1.4,2.9c-1,0-1.6,1.3-1.4,2.3.3,1,.7,1.9,1.1,2.9.2.8.2,1.7.4,2.5a5.417,5.417,0,0,0,2.8,3.6l-.2.2c-.3.9.9,1.6,1.7,1.4a5.51,5.51,0,0,0,2-1.7,11.382,11.382,0,0,0,1.8-2.5,2.443,2.443,0,0,0-.6-2.8,3.482,3.482,0,0,0,2.5-2.6,11.6,11.6,0,0,0,.3-3.7l-.3-5.6a6.863,6.863,0,0,0,6.4-3.2,3.958,3.958,0,0,0,5.6-.4c.1-.1.2-.2.2-.3a5.106,5.106,0,0,0,5.8,3.9c-.5,1.4,1.9,3,3.3,3.6a4.993,4.993,0,0,0,3.2-.2s2.2,1.7,3.6,1.4c1.4-.4,3.3-1.8,2.6-3.3A4.992,4.992,0,0,0,334,295.4Z"/><path class="b" d="M292.6,297.4a2.075,2.075,0,0,0,.6,1,1.5,1.5,0,0,0,1.1.4,1.441,1.441,0,0,0,1.1-.9l.1-.4.3.3a1.9,1.9,0,0,0,1.9.5,1.831,1.831,0,0,0,1.3-1.7v-.4l.4.2a1.835,1.835,0,0,0,2.3-.5,3.128,3.128,0,0,0,.5-1,1.247,1.247,0,0,1-.2,1.1,2.189,2.189,0,0,1-1,.9,2.263,2.263,0,0,1-1.8-.1l.4-.2a2.27,2.27,0,0,1-4,1.5l.4-.1a1.625,1.625,0,0,1-1.5,1.1,1.553,1.553,0,0,1-1.4-.5C292.4,297.9,292.6,297.4,292.6,297.4Z"/><path class="b" d="M290.8,303.8a2.218,2.218,0,0,0,.7.4,1.681,1.681,0,0,0,1.8-.5l.2-.2.2.2a1.809,1.809,0,0,0,1.7.7,1.945,1.945,0,0,0,1.5-1.4l.1-.4.4.3c.1.1.2.1.3.2a1.2,1.2,0,0,0,1.4-.3,1.4,1.4,0,0,0,.2-1.4l-.2-.5.5.1a1.838,1.838,0,0,0,1.6-.2,1.789,1.789,0,0,0,.9-1,2.662,2.662,0,0,0,.3-1.2,2.274,2.274,0,0,1,0,1.3,2.523,2.523,0,0,1-3,1.5l.3-.3a1.734,1.734,0,0,1-2.3,2.3,1.381,1.381,0,0,1-.4-.3l.4-.2a2.161,2.161,0,0,1-2.5,1.8,2.371,2.371,0,0,1-1.5-.9h.3a1.426,1.426,0,0,1-1.2.6,1.8,1.8,0,0,1-1-.2C290.9,304.2,290.7,303.8,290.8,303.8Z"/><path class="b" d="M322.4,284.3a3.039,3.039,0,0,0-.7-.5,1.729,1.729,0,0,0-1-.1,1.5,1.5,0,0,0-1,.9l-.1.4-.2-.4a2.817,2.817,0,0,0-2-1.5,2.368,2.368,0,0,0-2.4,1.5l-.2.4-.2-.4a2.965,2.965,0,0,0-2.2-1.4,2.882,2.882,0,0,0-2.6,1.1,2.384,2.384,0,0,0-.6,1.1l-.1.3-.3-.1a3.134,3.134,0,0,0-3.5,1.1,3.04,3.04,0,0,0,.1,3.3l.2.3h-.4a3.336,3.336,0,0,0-2.2,1.1,3.7,3.7,0,0,0-.8,1.8,3.21,3.21,0,0,0,.2,1.7.758.758,0,0,1-.2-.4,2.953,2.953,0,0,1-.2-1.3,2.732,2.732,0,0,1,.8-1.9,3.825,3.825,0,0,1,2.5-1.3l-.2.3a3.374,3.374,0,0,1,.8-4.7,3.157,3.157,0,0,1,3.1-.4l-.3.2a2.4,2.4,0,0,1,.7-1.2,3.279,3.279,0,0,1,3.1-1.2,3.587,3.587,0,0,1,2.6,1.7h-.4a2.884,2.884,0,0,1,3-1.7,2.764,2.764,0,0,1,2.2,1.7h-.3a1.722,1.722,0,0,1,1.2-1,1.832,1.832,0,0,1,1.7.6C322.3,284.2,322.4,284.3,322.4,284.3Z"/><path class="m" d="M324.2,436s1.5,5.2,5.1,4.5,30.6-17,30.6-17V410.8l-24.5,5,.5-3.7H324.2Z"/><path class="m" d="M372.5,415.2s-6.4-4.5-9.5-4.5a35.532,35.532,0,0,0-4.6.3l1.5,12.4,4.4,2.2s2.5,4.7,3.8,4.5,2.5-.3,2.5-1.5a11.136,11.136,0,0,0-.8-3s7.3,6.2,9.1,6.7,2-1.7,2-1.7,3.6,3,4.4,3c3,0,.7-3.4.7-3.4s2.8,3,4.6,2.5a1.32,1.32,0,0,0,1.1-1.4,2.058,2.058,0,0,0-1-1.9Z"/><path class="n" d="M370.6,429.1a.946.946,0,0,1-.4.7,3.153,3.153,0,0,1-2.3.5,2.628,2.628,0,0,1-1.5-.7,8.278,8.278,0,0,1-1.1-1.5c-.6-1.1-1-2.5-1.7-3.7a10.618,10.618,0,0,0-2.7-2.9,6.964,6.964,0,0,1-2.2-2.6,3.6,3.6,0,0,1-.2-2.3c.2-.5.4-.7.5-.7s-.1.3-.3.8a3.861,3.861,0,0,0,.3,2.1,7.193,7.193,0,0,0,2.2,2.4,9.221,9.221,0,0,1,2.9,3c.7,1.3,1.1,2.6,1.7,3.7a6.707,6.707,0,0,0,.9,1.4,2.729,2.729,0,0,0,1.3.7,3.4,3.4,0,0,0,2-.3C370.5,429.4,370.5,429.1,370.6,429.1Z"/><path class="n" d="M366.3,418.2a22.816,22.816,0,0,1,4.2,11c-.1,0-.7-2.6-1.9-5.6S366.2,418.2,366.3,418.2Z"/><path class="n" d="M379.1,422.1a6.425,6.425,0,0,1-2.8,2.6,6.016,6.016,0,0,1-3.7.9c0-.2,1.7-.4,3.5-1.3C377.1,423.5,378.2,422.8,379.1,422.1Z"/><path class="n" d="M386.6,430.7a40.718,40.718,0,0,1-4.8-3.3,40.239,40.239,0,0,1-4.5-3.7,67.868,67.868,0,0,1,9.3,7Z"/><path class="n" d="M380.9,430.7a11.968,11.968,0,0,1-3.4-2.5,11.774,11.774,0,0,1-2.8-3.1,26.922,26.922,0,0,1,3.2,2.7C378.9,428.7,379.9,429.7,380.9,430.7Z"/><path class="n" d="M329.7,426.2a3.672,3.672,0,0,1-.1-1.8,10.5,10.5,0,0,1,4.2-7.6,5.071,5.071,0,0,1,1.6-.9A7.552,7.552,0,0,1,334,417a12.225,12.225,0,0,0-2.7,3.3,14.2,14.2,0,0,0-1.4,4.1C329.8,425,329.8,425.6,329.7,426.2Z"/><path class="k" d="M558.9,316l5.6-9.9a26.631,26.631,0,1,1,6.4,7.1h0Z"/><path class="d" d="M558.9,316l12-2.9v.1h0l-.3-.4.4.3a23.259,23.259,0,0,0,5.5,3.2,25.7,25.7,0,0,0,7.2,2,19.724,19.724,0,0,0,4.2.2,16.2,16.2,0,0,1,2.2-.1l2.2-.3a26.393,26.393,0,0,0,16.4-10.6,25.17,25.17,0,0,0,4.4-10.2,27.147,27.147,0,0,0-.3-11.7,26.009,26.009,0,0,0-5.6-10.8l-1.1-1.1a13.065,13.065,0,0,0-1.2-1.1,10.591,10.591,0,0,0-1.2-1l-1.3-.9a14.632,14.632,0,0,0-1.3-.9l-1.3-.8-1.4-.7c-.5-.2-.9-.4-1.4-.6a26.37,26.37,0,0,0-11.8-1.8,25.547,25.547,0,0,0-10.8,3.2,26.362,26.362,0,0,0-12.5,15.3,31.329,31.329,0,0,0-1.2,8.6,26.756,26.756,0,0,0,1.3,7.4,24.423,24.423,0,0,0,2.6,5.7h0l-5.7,9.9,5.6-10v.1a25.835,25.835,0,0,1-4-13.2,25.216,25.216,0,0,1,1.2-8.6,27.31,27.31,0,0,1,12.6-15.5,24.994,24.994,0,0,1,10.9-3.2,26.8,26.8,0,0,1,11.9,1.8c.5.2,1,.4,1.4.6l1.4.7,1.3.8a14.623,14.623,0,0,1,1.3.9l1.3,1c.4.3.8.7,1.2,1,.4.4.8.7,1.2,1.1l1.1,1.2a25.8,25.8,0,0,1,5.7,11,26.558,26.558,0,0,1-4.2,22.1,24.535,24.535,0,0,1-7.6,7.1,26.782,26.782,0,0,1-9,3.5l-2.2.3a16.2,16.2,0,0,1-2.2.1,19.722,19.722,0,0,1-4.2-.2,23.492,23.492,0,0,1-7.3-2.1,30.838,30.838,0,0,1-5.5-3.3l.1-.1h0l.1.1h-.1Z"/><path class="d" d="M579.9,287.6h3.4a3.057,3.057,0,0,1,2.9-3h.1a2.837,2.837,0,0,1,2.7,1.8,3.072,3.072,0,0,1-.2,2.8c-.6,1-1.9,1.8-4.2,1.4v7.7H588v-4.6a6.662,6.662,0,0,0,4.8-6.5c0-5-4.5-6.2-6.4-6.2C584.9,281.2,579.8,281.5,579.9,287.6Z"/><rect class="d" width="3.5" height="3.2" transform="translate(584.6 300)"/><path class="g" d="M600.7,652.4c3.1,3,26.2,13.7,31.9,16.2l1.3.6,7.9-15.7-20.1-10.2L616.2,654C616.3,654,597.3,649.1,600.7,652.4Z"/><g class="s"><path class="k" d="M634.1,668.9l2.9-5.6a7.331,7.331,0,0,0-5.4-.9,7.458,7.458,0,0,0-4.7,3Z"/></g><g class="t"><path class="k" d="M607.3,655.4l26.8,13.4-.2.5c-10.6-4.3-33.5-15.9-33.7-17.3-.3-1.3,6.6,0,6.6,0C608,652.5,607.3,655.4,607.3,655.4Z"/></g><path class="d" d="M634.1,668.8l-1-.5-3.7-1.8c-3.1-1.5-7.3-3.6-12.1-6s-8.9-4.6-12-6.2l-3.6-1.9-1-.5c-.1-.1-.2-.1-.3-.2.1.1.2.2.3.2l1,.6,3.6,2c3,1.7,7.3,3.9,12,6.3s9,4.5,12.1,5.9l3.7,1.7,1,.4a.6.6,0,0,0,.4.1A.756.756,0,0,0,634.1,668.8Z"/><path class="d" d="M606.8,651.6a7.335,7.335,0,0,1,.5,2,14.912,14.912,0,0,1-.2,2.1A3.627,3.627,0,0,0,606.8,651.6Z"/><path class="d" d="M614.6,654.6a3.593,3.593,0,0,0-.2-1.1,3.385,3.385,0,0,0,0,1.1,3.593,3.593,0,0,0,.2,1.1A2.053,2.053,0,0,0,614.6,654.6Z"/><path class="d" d="M616.4,654.8c-.2-.5-.4-.9-.5-.8-.1,0,0,.4.2.9s.4.8.5.8C616.8,655.7,616.6,655.2,616.4,654.8Z"/><path class="d" d="M617.6,653.7a2.1,2.1,0,0,0-1.1-.4c0,.1.4.4,1,.7s1.1.5,1.1.4C618.7,654.2,618.2,653.9,617.6,653.7Z"/><path class="d" d="M618.4,652.6a6.115,6.115,0,0,0-1.2-.5,2.836,2.836,0,0,0,1.1.8,3.079,3.079,0,0,0,1.3.3A4.5,4.5,0,0,0,618.4,652.6Z"/><path class="d" d="M613.7,652.8a10.588,10.588,0,0,1-1.2-1,4.347,4.347,0,0,1-.6-.7.349.349,0,0,1,.2-.6,2.36,2.36,0,0,1,1.6.7,2.091,2.091,0,0,1,.7,1.3,3.305,3.305,0,0,1,0,1.4.585.585,0,0,0,.1-.4,2.055,2.055,0,0,0,0-1.1,2.59,2.59,0,0,0-2.6-2.2.664.664,0,0,0-.5.4,1.268,1.268,0,0,0,.1.6,4.354,4.354,0,0,0,.6.7,10.588,10.588,0,0,0,1.2,1,5.389,5.389,0,0,0,1.3.7C614.8,653.6,614.3,653.3,613.7,652.8Z"/><path class="d" d="M614.9,652.6a2.7,2.7,0,0,1,.8-.7,1.1,1.1,0,0,1,1.1-.1c.3.2-.1.7-.4.8a4.051,4.051,0,0,1-.9.5l-.9.3a1.8,1.8,0,0,0,1-.2,3.127,3.127,0,0,0,1-.5,1.2,1.2,0,0,0,.5-.5.529.529,0,0,0-.1-.8,1.392,1.392,0,0,0-1.4.1,2.047,2.047,0,0,0-.8.8,1.689,1.689,0,0,0-.3,1A2.745,2.745,0,0,1,614.9,652.6Z"/><path class="d" d="M636.5,662.9a10.9,10.9,0,0,0-1.1-.6,6.915,6.915,0,0,0-4-.4,7.163,7.163,0,0,0-3.6,2,8.741,8.741,0,0,0-.8,1,.758.758,0,0,0-.2.4c0,.1.4-.5,1.1-1.2a7.823,7.823,0,0,1,3.5-1.8,7.36,7.36,0,0,1,3.9.3,4.766,4.766,0,0,1,1.5.7A1.38,1.38,0,0,0,636.5,662.9Z"/><path class="d" d="M636.8,657.9a38.9,38.9,0,0,0-1.9,4.2c.8-1.3,1.5-2.7,2.2-4.1a38.9,38.9,0,0,0,1.9-4.2C638.2,655.1,637.5,656.5,636.8,657.9Z"/><path class="d" d="M622.2,660.7c-1.6-.8-2.9-1.5-2.9-1.5a11.656,11.656,0,0,0,2.8,1.7,16.587,16.587,0,0,0,3.1,1.2C625.2,662,623.8,661.5,622.2,660.7Z"/><path class="d" d="M628.4,664.4c-.3.3-.5.6-.4.6s.3-.2.6-.4a3.61,3.61,0,0,0,.5-.4C629.1,664,628.8,664.1,628.4,664.4Z"/><path class="d" d="M630.9,663.1c-.3.1-.5.2-.5.3s.3,0,.6-.1.5-.2.5-.3S631.3,663,630.9,663.1Z"/><path class="d" d="M633.5,662.9c-.4-.1-.7.1-.7.2s.3,0,.7.1c.3,0,.7.2.7.1A.763.763,0,0,0,633.5,662.9Z"/><path class="d" d="M635.5,663.5c-.2,0-.4,0-.4.1s.1.1.3.2.4,0,.4-.1C635.8,663.5,635.7,663.5,635.5,663.5Z"/><path class="g" d="M736.7,673.4c4.3-.5,27.2-11.6,32.7-14.5l1.2-.7-7.2-16.1-20.6,9.1,4.8,11C747.6,662.4,731.8,674.1,736.7,673.4Z"/><g class="s"><path class="k" d="M770.4,658.1l-2.6-5.8a7.445,7.445,0,0,0-4.2,3.6,7.773,7.773,0,0,0-.7,5.6Z"/></g><g class="t"><path class="k" d="M743,670.3l27.3-12.4.2.4c-10,5.5-33.5,15.9-34.7,15.2s4.1-5.1,4.1-5.1C741.3,667.9,743,670.3,743,670.3Z"/></g><path class="d" d="M770.2,657.9l-1,.5-3.7,1.7c-3.1,1.5-7.5,3.5-12.3,5.6s-9.2,4-12.4,5.3l-3.7,1.6-1,.4a1.236,1.236,0,0,0-.3.2c.1,0,.3-.1.4-.1l1-.4,3.8-1.5c3.2-1.3,7.6-3.1,12.4-5.3,4.8-2.1,9.2-4.2,12.3-5.7l3.7-1.8.8-.5.4-.1Z"/><path class="d" d="M743.2,670.6a3.588,3.588,0,0,0-3.4-2.3,6.633,6.633,0,0,1,1.9.9,6.4,6.4,0,0,1,1.5,1.4Z"/><path class="d" d="M747,664.1c-.5-.3-.9-.6-1-.5,0,.1.3.4.8.7s1,.6,1,.5C747.9,664.7,747.5,664.4,747,664.1Z"/><path class="d" d="M748.3,662.8a2.679,2.679,0,0,0-.9-.2c0,.1.4.3.9.4a2.679,2.679,0,0,0,.9.2C749.2,663.1,748.8,662.9,748.3,662.8Z"/><path class="d" d="M748.2,661.1c-.6.3-1,.5-1,.6s.5-.1,1.1-.4,1-.5,1-.6C749.3,660.7,748.8,660.9,748.2,661.1Z"/><path class="d" d="M748,659.9l-1.2.6a2.009,2.009,0,0,0,1.3-.4,2.189,2.189,0,0,0,1-.9A4.13,4.13,0,0,0,748,659.9Z"/><path class="d" d="M745,663.7l-1.5.3h-.9c-.3,0-.5-.3-.3-.5a1.9,1.9,0,0,1,1.5-.8,2.622,2.622,0,0,1,1.5.2,3.125,3.125,0,0,1,1.1.9s0-.1-.2-.3a2.7,2.7,0,0,0-.8-.7,2.609,2.609,0,0,0-3.3.6.638.638,0,0,0,0,.6,2.185,2.185,0,0,0,.5.3h1c.5-.1,1-.2,1.6-.3a3.1,3.1,0,0,0,1.3-.6C746.4,663.3,745.9,663.5,745,663.7Z"/><path class="d" d="M745.7,662.6a1.7,1.7,0,0,1,0-1c.1-.3.2-.9.6-1s.4.5.4.8a2.957,2.957,0,0,1-.2,1l-.3.9a1.933,1.933,0,0,0,.5-.9c.1-.3.2-.7.3-1.1v-.7a.569.569,0,0,0-.7-.4,1.3,1.3,0,0,0-.8,1.2,1.987,1.987,0,0,0,.1,1.1,2.362,2.362,0,0,0,.6.9A1.374,1.374,0,0,1,745.7,662.6Z"/><path class="d" d="M767.3,652.4a6.647,6.647,0,0,0-4.7,7.3,2.663,2.663,0,0,0,.3,1.2.758.758,0,0,0,.2.4,8.108,8.108,0,0,1-.3-1.6,7.1,7.1,0,0,1,3.5-6.7,9.894,9.894,0,0,1,1.5-.7A.749.749,0,0,0,767.3,652.4Z"/><path class="d" d="M763.6,648.9c.6,1.4,1.3,2.8,2,4.1a32.5,32.5,0,0,0-1.8-4.3,31.672,31.672,0,0,0-2.1-4.1C762.4,646.1,763,647.5,763.6,648.9Z"/><path class="d" d="M756.6,662c-1.7.8-3,1.3-3,1.3a11.467,11.467,0,0,0,3.1-1.1,16.412,16.412,0,0,0,2.9-1.6A17.071,17.071,0,0,0,756.6,662Z"/><path class="d" d="M763.4,659.6a1.383,1.383,0,0,0,.2.7v-.7c0-.4.1-.7,0-.7C763.5,658.8,763.4,659.2,763.4,659.6Z"/><path class="d" d="M763.9,656.8a2.143,2.143,0,0,0-.1.6.69.69,0,0,0,.3-.5c.1-.3.2-.6.1-.6C764.2,656.2,764,656.5,763.9,656.8Z"/><path class="d" d="M765.4,654.7c-.3.3-.4.7-.3.7s.2-.2.5-.5a3.61,3.61,0,0,0,.5-.4C766.1,654.4,765.7,654.4,765.4,654.7Z"/><path class="d" d="M767.1,653.5a.355.355,0,0,0-.2.3c0,.1.2,0,.3-.2a1.236,1.236,0,0,1,.2-.3A1.443,1.443,0,0,0,767.1,653.5Z"/><path class="u" d="M668.1,426.7c3.8-9.1,8.4-37.3,8.4-37.3l20.7,4.3c-1.6,14.5-11.2,43-11.2,43-9.4,17.4-27.2,32.7-27.2,32.7h0a129.42,129.42,0,0,1-8.4,9.9c-4.3,4.2-4.7,3.8-5.1,3.2-1.1-1.6,7.3-7.6,4.7-7.4-2.6.3-9.3,8.6-10.4,6.9-1.4-2.2,7.5-8.4,8.2-8.9.7-.6-.1-1.6-.7-1.1-.9.8-10.3,9-11.7,6.8-.8-1.2,1.5-2.4,1.5-2.4s9.4-7,8.7-8-6.4,3-8.2,4.4-3.2,1.2-3.2-.2c0-.9,5.5-5.5,7.3-6.9s6.9-5.2,2.9-5.3c-4-.2-7-1.9-7.5-2.9a1.234,1.234,0,0,1,1.8-1.5,18.645,18.645,0,0,0,3.9,1,9.162,9.162,0,0,0,3.3-.1c1.2-.3,2.3-.5,3.2-.8C649.2,456.1,664.3,435.8,668.1,426.7Z"/><path class="b" d="M758.9,350.1v4.1a11.139,11.139,0,0,1-11.1,11.1H724.4a11.139,11.139,0,0,1-11.1-11.1v-4.1A11.139,11.139,0,0,1,724.4,339h23.4A11.075,11.075,0,0,1,758.9,350.1Z"/><path class="d" d="M737.7,362.5a11.3,11.3,0,0,1-3.2-1.9,13.352,13.352,0,0,1-3.4-4.4,12.1,12.1,0,0,1,1.5-13,14.408,14.408,0,0,1,4.3-3.5,11.548,11.548,0,0,1,3.6-1.1,3.3,3.3,0,0,1,1.4,0,19.794,19.794,0,0,0-4.7,1.5,13.563,13.563,0,0,0-4.1,3.4,11.511,11.511,0,0,0-1.5,12.3,13.432,13.432,0,0,0,3.2,4.3,14.544,14.544,0,0,0,4.3,2.6A1.7,1.7,0,0,1,737.7,362.5Z"/><path class="d" d="M728.3,349.5a4.2,4.2,0,0,1,2.6.8,12.212,12.212,0,0,1-2.7-.1,10.9,10.9,0,0,1-2.6-.3A3.645,3.645,0,0,1,728.3,349.5Z"/><path class="d" d="M727.6,351.5c1.4.2,2.3.9,2.2,1-.1.2-1.1-.2-2.3-.4s-2.3-.2-2.3-.4A3.91,3.91,0,0,1,727.6,351.5Z"/><path class="d" d="M718.8,452.8c8.5.6,16.8,3.7,25.3,4.6s18.3-.9,23.2-7.9c3.6-5.1,3.8-11.7,4-17.9.3-14.8.7-29.8-2.2-44.4-1.5-8-4.5-16.3-11.2-20.9a24.143,24.143,0,0,0-15-3.8,75.365,75.365,0,0,0-15.5,2.8"/><path class="b" d="M744.5,395.3a81.965,81.965,0,0,0,10.8,6c2.2,1,4.3,1.9,6.3,2.6a19.393,19.393,0,0,0,5.4,1.3,2.815,2.815,0,0,0,2-.4,5.729,5.729,0,0,0,1.1-1.1,9.009,9.009,0,0,1,.9-1,7.462,7.462,0,0,1-.7,1.2,4.263,4.263,0,0,1-1.1,1.2,1.777,1.777,0,0,1-1,.4,4.868,4.868,0,0,1-1.2.1,18.106,18.106,0,0,1-5.6-1.2c-2-.7-4.2-1.6-6.4-2.6a58.548,58.548,0,0,1-10.8-6.3,21.725,21.725,0,0,1-2.9-2.4,4.812,4.812,0,0,1-.9-1.1A20.047,20.047,0,0,0,744.5,395.3Z"/><path class="d" d="M769.4,409.5c-2.1,1.9-2,5.2-1.8,8.1.4,4.9.8,9.8,1.3,14.7a4.888,4.888,0,0,0,1.1,3.1,3.152,3.152,0,0,0,3.7,0,7.546,7.546,0,0,0,2.3-3.2,21.2,21.2,0,0,0-5.3-23.1"/><path class="d" d="M734.6,567.6c-8.1-28.4-13.2-83.4-13.2-83.4l-33.5-2.6s5.8,76.6,11.9,98.4l46.3,82.5,25.8-12Z"/><path class="b" d="M745.7,652.5c2.3-1.1,5.6-2.7,9.2-4.4s6.9-3.2,9.3-4.2a32.035,32.035,0,0,1,3.9-1.6,26.426,26.426,0,0,1-3.7,2c-2.3,1.2-5.6,2.7-9.2,4.4s-6.9,3.2-9.3,4.2a32.035,32.035,0,0,1-3.9,1.6A21.8,21.8,0,0,1,745.7,652.5Z"/><path class="d" d="M685,470.5l-33.3,85.1-36.6,94.2,25.1,14.4s39-74,49.6-96.5c5.2-11,23.6-52.7,41.9-74.3,0,0,5.2-7.4,5.8-8.8,6.6-13.4-.3-33.7-.9-33.7Z"/><path class="b" d="M719.9,507.9c-.5,1.3-1.3,3.1-2.3,5.3-2,4.5-5,10.6-8.3,17.3s-6.3,12.8-8.4,17.2c-1,2.1-1.9,3.9-2.5,5.2a11.4,11.4,0,0,1-1,1.9,11.919,11.919,0,0,1,.8-2c.5-1.3,1.3-3.1,2.3-5.3,2-4.5,5-10.6,8.3-17.3s6.3-12.8,8.4-17.2l2.5-5.2a11.4,11.4,0,0,1,1-1.9C720.4,506.6,720.2,507.3,719.9,507.9Z"/><path class="b" d="M630.2,651.7c7.2,3.6,13,6.7,12.9,6.8-.1.2-6-2.7-13.2-6.3s-13-6.7-12.9-6.8C617,645.2,623,648,630.2,651.7Z"/><path class="d" d="M843.6,654h0a7.3,7.3,0,0,1,6.5,8,7.244,7.244,0,0,1-14.4-1.6A7.127,7.127,0,0,1,843.6,654Z"/><path class="b" d="M843.4,660.1l-4.6-9.3-2.2,1.5,4.7,8.9Z"/><path class="b" d="M786.5,544.7l-29.3-69.3,5.1-2.8,30.2,69.9Z"/><path class="c" d="M814.9,544.4,858,641.1h0a3.374,3.374,0,0,1-1.7,4.4l-32.7,14.6h0a3.374,3.374,0,0,1-4.4-1.7l-43.1-96.7a17.615,17.615,0,0,1,8.9-23.3l6.6-2.9A17.551,17.551,0,0,1,814.9,544.4Z"/><path class="d" d="M762.3,472.6l-5.7,2.8,8.1,17.6,5.3-2.5Z"/><path class="d" d="M819.1,658.7l-.8-1.7-3-6.7-11-24.7c-4.6-10.4-10.1-22.8-16.2-36.6l-9.6-21.7c-.8-1.9-1.7-3.8-2.5-5.7a13.635,13.635,0,0,1-1.2-6.3,12.684,12.684,0,0,1,2.5-6.5,12.293,12.293,0,0,1,17.3-2.2,13.152,13.152,0,0,1,3.9,5.1c.8,1.9,1.7,3.8,2.5,5.7l9.5,21.7c6,13.8,11.5,26.2,16.1,36.7l10.8,24.7,2.9,6.7.7,1.8a1.548,1.548,0,0,1,.2.6l-.3-.6-.8-1.7c-.7-1.6-1.7-3.8-3-6.7l-10.9-24.7L810,579.2l-9.6-21.6c-.8-1.9-1.7-3.8-2.5-5.7a12.431,12.431,0,0,0-3.7-4.8,11.58,11.58,0,0,0-6.2-2.4,11.735,11.735,0,0,0-12.6,10.7,11.3,11.3,0,0,0,1.1,6c.9,1.9,1.7,3.8,2.5,5.7l9.5,21.7,16.1,36.7c4.6,10.4,8.3,18.9,10.8,24.7l2.9,6.7a6.648,6.648,0,0,1,.8,1.8,2.828,2.828,0,0,1,.3.6Z"/><path class="d" d="M823.1,583.9a71.35,71.35,0,0,1,8.1-3.1,56.294,56.294,0,0,1-7.9,3.6,71.35,71.35,0,0,1-8.1,3.1A62.039,62.039,0,0,1,823.1,583.9Z"/><path class="g" d="M691.1,360.4,677.7,410l-7.1-3,.9-17.6c3.1-29,18.4-29.5,18.4-29.5"/><path class="g" d="M687.9,359.8c-11.3,7.8-11,26.3-10.1,67.5.5,24.9,0,45.1,0,45.1l63.5-2s-3.5-87.6-8.8-97.8c-6.7-12.9-13.4-13.1-13.4-13.1C706,355,694.8,355.1,687.9,359.8Z"/><path class="d" d="M677.3,404.9c.3-11,.6-19.8.8-19.8s.1,8.9-.2,19.9-.6,19.8-.8,19.8C677,424.8,677,415.9,677.3,404.9Z"/><path class="d" d="M677.3,395.2l.4,4.3c-4.9-8.9-3-24.4-1.6-27.7a34.761,34.761,0,0,1,5.1-7.4c-5.7,9.5-3.4,30.1-3.4,30.1"/><path class="r" d="M682.1,384.8a10.215,10.215,0,0,0,4.6.1,20.4,20.4,0,0,0,5.4-1.9,37.111,37.111,0,0,1,5.5-2.2,13.119,13.119,0,0,1,4.8-.5,6.683,6.683,0,0,1,3.1,1,1.765,1.765,0,0,1,.9.8,9.427,9.427,0,0,0-4.1-1.3,11.914,11.914,0,0,0-4.6.6,40.837,40.837,0,0,0-5.4,2.2,23.148,23.148,0,0,1-5.6,1.9,9.732,9.732,0,0,1-4.8-.3,7.079,7.079,0,0,1-2.8-1.6,3.592,3.592,0,0,1-.7-1A8.32,8.32,0,0,0,682.1,384.8Z"/><path class="r" d="M729.4,425.8a8.855,8.855,0,0,1,9.8,1.6,21.137,21.137,0,0,0-4.8-1.7,27.665,27.665,0,0,0-5,.1Z"/><path class="r" d="M679.2,429.6a6.469,6.469,0,0,1,1.3-.4,11.043,11.043,0,0,1,5.1.3c2.1.5,4.5,1.5,7.2,2.3a33.913,33.913,0,0,0,9,1.5,35.442,35.442,0,0,0,16.1-3.2,57.6,57.6,0,0,0,6-3.3c-.5.4-.9.8-1.5,1.2a14.038,14.038,0,0,1-1.8,1.2c-.7.4-1.6.9-2.6,1.4a35.406,35.406,0,0,1-16.3,3.4,31.069,31.069,0,0,1-9.1-1.6c-2.7-.9-5-1.9-7.1-2.4a11.741,11.741,0,0,0-4.9-.5,13.185,13.185,0,0,0-1.8.4C678.7,429.9,678.9,429.8,679.2,429.6Z"/><path class="r" d="M678.9,461.3a5.822,5.822,0,0,1,1.9-.3,15.718,15.718,0,0,1,6.8,1.5c1.4.6,2.8,1.3,4.4,1.9a19.25,19.25,0,0,0,5.3,1.1,32.191,32.191,0,0,0,12.3-2.1c4.3-1.4,8.3-3,12.1-3.8a34.736,34.736,0,0,1,5.5-.8,19.475,19.475,0,0,1,4.8.4,15.137,15.137,0,0,1,6.4,2.7,8.636,8.636,0,0,1,1.4,1.3c.3.3.5.5.4.5a15.767,15.767,0,0,0-2-1.6,16.179,16.179,0,0,0-6.4-2.5,27.016,27.016,0,0,0-10.2.5c-3.8.9-7.8,2.5-12,3.9a33.449,33.449,0,0,1-12.5,2,17.5,17.5,0,0,1-5.5-1.2,36.185,36.185,0,0,1-4.4-2,16.976,16.976,0,0,0-6.6-1.7,10.856,10.856,0,0,0-2.5.4A4.5,4.5,0,0,1,678.9,461.3Z"/><path class="u" d="M764.6,477.8l3.7,8.5c5.5-1.5,8.9-8.9,7.7-14.5-.2-1-.5-2.1-.7-3.5h0s0-23.4-7-41.9c0,0-15.2-25.9-25.2-36.6l-16.9,12.9s18.4,21.9,22.9,30.8c4.4,8.9,9.8,33.5,9.8,33.5-.4.8-.9,1.8-1.5,2.9a8.181,8.181,0,0,1-2,2.5,15.028,15.028,0,0,1-3.3,2.3,1.2,1.2,0,0,0,0,2.4c1.1.3,4.3-.9,7.1-3.8,2.8-2.7,4.7,1.2,5.4,4.5"/><path class="v" d="M768.4,483a8.873,8.873,0,0,0,1.2-4.2c.1-1.7,0-3.4.1-4.6a4.058,4.058,0,0,1,.4-1.9,6.056,6.056,0,0,1,0,1.9c0,1.2.2,2.8.1,4.6a7.771,7.771,0,0,1-1.5,4.4,3.419,3.419,0,0,1-1.5,1.2C767.1,484.3,767.8,483.9,768.4,483Z"/><path class="v" d="M768.1,486.3a5.914,5.914,0,0,0,3.6-4.1c1.3-2.9,1.8-5.4,2-5.4a12.631,12.631,0,0,1-1.4,5.7,8.144,8.144,0,0,1-2.4,3.4c-1,.6-1.8.5-1.8.4Z"/><path class="g" d="M712.1,375.4,728,415.6l30.3-18.8-10.6-16.2c-9.2-16-26.5-20.2-27.8-20.8Z"/><path class="d" d="M730.3,364.3c-29.8.1-25.8,23.7-19.3,42.8s37.3,49,37.3,49l-.7-9.2s-34.8-35.2-36.7-59.4,28.8-20.1,28.8-20.1Z"/><path class="d" d="M756.7,397.9c-.4.3-1,.6-1.6,1l-6,3.7-19.9,12h0l.1-.1c-.1.1-.2.2-.4.1-.1,0-.2,0-.2-.1-.1-.1-.2-.1-.2-.2a1.381,1.381,0,0,1-.3-.4c-.2-.2-.3-.5-.5-.7a10.932,10.932,0,0,1-.8-1.5c-.5-1-1-2-1.5-2.9-1-2-1.8-3.8-2.6-5.6-1.6-3.5-3-6.8-4.2-9.6s-2-5-2.6-6.5c-.3-.8-.5-1.4-.7-1.8a1.422,1.422,0,0,1-.2-.6l.3.6c.2.5.4,1,.7,1.8l2.8,6.5c1.2,2.7,2.7,5.9,4.3,9.5.8,1.8,1.7,3.6,2.7,5.6.5,1,1,1.9,1.5,2.9.3.5.5,1,.8,1.4.1.2.3.5.4.7l.2.3.1.1h0c-.1,0-.1,0-.2.1l.1-.1h0l20-11.9,6.1-3.6,1.7-.9.6-.3C757,397.6,756.9,397.8,756.7,397.9Z"/><path class="r" d="M712.2,383.5a41.239,41.239,0,0,0,3.6,2.5,8.1,8.1,0,0,0,6.1.9,8.667,8.667,0,0,0,3.3-1.7,19.276,19.276,0,0,0,2.7-3c.8-1.1,1.7-2.2,2.6-3.3a12.44,12.44,0,0,1,3.2-2.3,12.2,12.2,0,0,1,6.5-1.2,11.1,11.1,0,0,1,4.3,1.2,8.791,8.791,0,0,1,1,.6l.3.3a14.329,14.329,0,0,0-5.7-1.6,12.178,12.178,0,0,0-6.2,1.3,11.078,11.078,0,0,0-3,2.2,25.118,25.118,0,0,0-2.5,3.2,13.807,13.807,0,0,1-2.8,3.1,8.176,8.176,0,0,1-3.6,1.8,8.794,8.794,0,0,1-6.5-1.1,37.077,37.077,0,0,1-3.5-2.7c-.8-.6-1.3-1-1.3-1A5.483,5.483,0,0,1,712.2,383.5Z"/><path class="u" d="M712.2,359.8l3-41.5-1.3-1a29.412,29.412,0,0,0-29.8-3.7h0s-1.5,19.6-1.4,28.2,8.6,9.9,8.6,9.9-.3,2.8-.7,6.3c0,.4-.1.7-.1,1.1A10.84,10.84,0,0,0,701.3,370h0A11.162,11.162,0,0,0,712.2,359.8Z"/><path class="d" d="M686,327.6h0a1.208,1.208,0,0,1-1-2.2h.1a1.2,1.2,0,0,1,1.6.6v.1a1.276,1.276,0,0,1-.7,1.5Z"/><path class="d" d="M684.7,325.1a2.775,2.775,0,0,1,1.8,0,3.073,3.073,0,0,1,1.5,1c.2.4.4.6.2.7s-.8-.7-1.9-1.1-2.1,0-2.2-.2A2.475,2.475,0,0,1,684.7,325.1Z"/><path class="d" d="M698.4,327.2a1.17,1.17,0,0,1-.4,1.7h-.1a1.165,1.165,0,0,1-1.6-.5v-.1a1.165,1.165,0,0,1,.5-1.6A1.191,1.191,0,0,1,698.4,327.2Z"/><path class="d" d="M697,326.7a2.824,2.824,0,0,1,1.8.2,2.541,2.541,0,0,1,1.3,1.2c.2.4.3.7.2.7-.2.1-.7-.9-1.8-1.3s-2.2-.2-2.2-.4A1.4,1.4,0,0,1,697,326.7Z"/><path class="d" d="M690.1,337a.9.9,0,0,1-.5-.1,1.2,1.2,0,0,1-.5-.5,2,2,0,0,1,.2-1.3l.9-2.4a40.239,40.239,0,0,1,2.6-6,33.045,33.045,0,0,1-2,6.3l-.9,2.4a1.486,1.486,0,0,0-.2.9c0,.2.3.3.6.3a5.848,5.848,0,0,1,1.9.4A7.349,7.349,0,0,1,690.1,337Z"/><path class="k" d="M693.9,341.3a3.19,3.19,0,0,1-3.8-1.3c2.4.1,7-2.4,5.8-1.7C695.9,338.3,696.5,340.4,693.9,341.3Z"/><path class="v" d="M691.3,353.7c8.5.8,11.2-5.4,11.2-5.4a20.777,20.777,0,0,1-11.1,3.2Z"/><path class="u" d="M712.6,336.9c0,.2,6.9,3.6,7.9-3.6s-5.2-6.8-5.3-6.7C715.2,326.5,712.6,336.7,712.6,336.9Z"/><path class="v" d="M715.4,335a1.5,1.5,0,0,0,1.1.4,3.217,3.217,0,0,0,2.3-2.9,4.974,4.974,0,0,0-.1-2.1,1.753,1.753,0,0,0-1.2-1.3.878.878,0,0,0-.7.1c-.2.1-.3.2-.3.4-.1.3,0,.4,0,.4a.494.494,0,0,1,.1-.3.627.627,0,0,1,.8-.2,1.548,1.548,0,0,1,.8,1.1,3.672,3.672,0,0,1,.1,1.8,3.285,3.285,0,0,1-1.8,2.6,1.337,1.337,0,0,1-.9-.1,1.237,1.237,0,0,1-.3-.2C715.1,334.6,715.2,334.8,715.4,335Z"/><path class="d" d="M716.4,311.9c-2.1-1.7-5-1.8-7.7-1.7a7.061,7.061,0,0,0-2.4-5.9,11.077,11.077,0,0,0-6-2.5c-2-.2-4.1,0-5.9-.8s-3.1-2.4-4.9-3.3a3.522,3.522,0,0,0-3.7,0,3.251,3.251,0,0,0-.8,3.6,9.017,9.017,0,0,0,2.3,3.2,4.715,4.715,0,0,0-1.5-.6,3.214,3.214,0,1,0-.6,6.4,2.878,2.878,0,0,0-3.2,2.3,3.987,3.987,0,0,0,1.7,3.8,9.655,9.655,0,0,0,4.1,1.5c8.9,1.9,15.5-2.9,20.1-3.1s3.9,5.1,3.9,5.1l-1.7,13.8,3.5,1.6,2.4-8.4.2-1.5h0c.8-2.2,2.8-4.6,2.9-7A10.2,10.2,0,0,0,716.4,311.9Z"/><path class="d" d="M698,322.2a3.6,3.6,0,0,1,2.3.2,3.758,3.758,0,0,1,1.8,1.5c.3.5.4.8.2,1-.3.2-1.1-.7-2.4-1.3-1.3-.5-2.6-.4-2.7-.7C697.2,322.7,697.5,322.4,698,322.2Z"/><path class="d" d="M685.8,320.7a2.479,2.479,0,0,1,1.7,0,2.434,2.434,0,0,1,1.4,1c.3.4.5.6.2.8s-1-.3-2-.6-1.8-.3-1.9-.7C685.2,321,685.4,320.8,685.8,320.7Z"/><path class="d" d="M711.8,329.5a48.67,48.67,0,0,0,2.1-5.3,12.178,12.178,0,0,0,.2-5.7,6.864,6.864,0,0,0-3.3-4.5c-.4-.1-.9-.3-1.2,0a1.08,1.08,0,0,0-.3.7c-.3,2.9-.6,5.7-.8,8.6a5.651,5.651,0,0,0,.2,2.6c.5,1.5,2.1,2.4,2.8,3.9"/><g class="q"><path d="M738.9,424.8a44.966,44.966,0,0,0-.7-6.3,17.3,17.3,0,0,0-4.5-6.5l-4.8,3c-4.3-8.8-8.3-16.9-12.7-25.7a117.834,117.834,0,0,0,5.4,22c1.1,3.1,2.8,8.2,5.8,10.3,1.8,1.3,4.5,0,6.8.1s4.9,1.5,4.8,3.8"/></g></g></svg>