<svg xmlns="http://www.w3.org/2000/svg" xmlns:xlink="http://www.w3.org/1999/xlink" width="824.738" height="649.5" viewBox="0 0 824.738 649.5"><defs><style>.a,.af{fill:#f5f5f5;}.a,.ac{opacity:0.7;}.b{fill:#545454;}.c,.m,.u{opacity:0.2;}.d{fill:#6c6d6d;}.e,.o,.s,.t,.u{fill:#fff;}.ab,.ae,.e,.k{opacity:0.4;}.aj,.f{opacity:0.1;}.g{fill:#e5e3e3;}.h,.v{fill:#e0e0e0;}.i{fill:#06826a;}.j{fill:#065b4b;}.k{fill:#263238;}.l{fill:#ff3600;}.n{fill:#f0f0f0;}.o,.v{opacity:0.8;}.p{fill:#ebebeb;}.q,.x{fill:#fafafa;}.q,.r,.t{opacity:0.6;}.w{clip-path:url(#a);}.ah,.ai,.y{fill:none;}.z{fill:#37474f;}.aa{fill:#f28f8f;}.ad{fill:#ffa8a7;}.ag{fill:#e6e6e6;}.ah,.ai{stroke:#fff;stroke-linecap:round;stroke-miterlimit:10;}.ah{stroke-width:1.026px;}.ak{fill:#054236;}.al{fill:#455a64;}</style><clipPath id="a"><path d="M700.4,273.9c-.5,14.7,9.1,33,21.6,40.9,12.5,7.8,23.1,2.1,23.6-12.8.6-14.9-9.1-33.2-21.6-40.9C711.5,253.5,700.9,259.2,700.4,273.9Z"/></clipPath></defs><g transform="translate(-12.313 -107.625)"><path class="a" d="M133.1,696.6c161.1,80.7,422.2,80.7,583.2,0s161-211.5,0-292.2-422.2-80.7-583.2,0S-28,615.9,133.1,696.6Z"/><path class="b" d="M381.4,393.4,169.6,515.7a15.941,15.941,0,0,0-6.8,6.8,16.4,16.4,0,0,0,6.8,22.2L463.1,714.3a19.279,19.279,0,0,0,17.5,0L692.4,592a16.371,16.371,0,0,0,0-29L398.9,393.4A19.917,19.917,0,0,0,381.4,393.4Z"/><path class="c" d="M381.4,393.4,169.6,515.7a15.941,15.941,0,0,0-6.8,6.8,16.4,16.4,0,0,0,6.8,22.2L463.1,714.3a19.279,19.279,0,0,0,17.5,0L692.4,592a16.371,16.371,0,0,0,0-29L398.9,393.4A19.917,19.917,0,0,0,381.4,393.4Z"/><path class="b" d="M472,716.4a18.923,18.923,0,0,0,8.7-2.1L692.6,592a16.371,16.371,0,0,0,0-29L472,435.7Z"/><path class="d" d="M692.6,573.1,480.8,695.3a19.279,19.279,0,0,1-17.5,0L169.8,525.8c-4.8-2.8-4.8-7.3,0-10.1L381.6,393.4a19.279,19.279,0,0,1,17.5,0L692.6,563C697.4,565.8,697.4,570.3,692.6,573.1Z"/><path class="e" d="M659.8,573.1l-7.2,4.1a19.279,19.279,0,0,1-17.5,0L374.2,426.5c-4.8-2.8-4.8-7.3,0-10.1l7.2-4.1a19.279,19.279,0,0,1,17.5,0L659.8,563C664.6,565.8,664.6,570.3,659.8,573.1Z"/><path class="f" d="M659.8,573.1l-7.2,4.1a19.279,19.279,0,0,1-17.5,0L374.2,426.5c-4.8-2.8-4.8-7.3,0-10.1l7.2-4.1a19.279,19.279,0,0,1,17.5,0L659.8,563C664.6,565.8,664.6,570.3,659.8,573.1Z"/><path class="e" d="M626.9,592l-80.8,46.7a19.279,19.279,0,0,1-17.5,0L267.8,488c-4.8-2.8-4.8-7.3,0-10.1l80.8-46.7a19.279,19.279,0,0,1,17.5,0L627,581.8C631.9,584.7,631.9,589.2,626.9,592Z"/><path class="f" d="M626.9,592l-80.8,46.7a19.279,19.279,0,0,1-17.5,0L267.8,488c-4.8-2.8-4.8-7.3,0-10.1l80.8-46.7a19.279,19.279,0,0,1,17.5,0L627,581.8C631.9,584.7,631.9,589.2,626.9,592Z"/><path class="e" d="M414.2,601.4l-31.7,18.3a19.279,19.279,0,0,1-17.5,0l-80.8-46.6c-4.8-2.8-4.8-7.3,0-10.1l31.6-18.3a19.279,19.279,0,0,1,17.5,0l80.8,46.6C419,594.1,419,598.7,414.2,601.4Z"/><path class="f" d="M414.2,601.4l-31.7,18.3a19.279,19.279,0,0,1-17.5,0l-80.8-46.6c-4.8-2.8-4.8-7.3,0-10.1l31.6-18.3a19.279,19.279,0,0,1,17.5,0l80.8,46.6C419,594.1,419,598.7,414.2,601.4Z"/><path class="d" d="M390.8,500.3l10.1-5.8c.3-.2.4-.6,0-.8l-8.1-4.7a1.7,1.7,0,0,0-1.4,0l-10.3,5.9c-.3.2-.4.5,0,.8l8.1,4.7A1.81,1.81,0,0,0,390.8,500.3Zm14.9-19.5-10.1,5.8c-.3.3-.3.6,0,.8l8.2,4.7a1.483,1.483,0,0,0,1.3,0l10.1-5.8c.3-.3.3-.6,0-.8l-8.2-4.7A1.483,1.483,0,0,0,405.7,480.8Zm27.6,15a1.4,1.4,0,0,0-1.4.2l-10.1,5.8a.468.468,0,0,0,0,.8l13.8,8a1.7,1.7,0,0,0,1.4,0l10.1-5.8c.3-.2.4-.8,0-.8l-13.8-8Zm-14.4-8.3a1.542,1.542,0,0,0-1.6.1l-10.1,5.8a.468.468,0,0,0,0,.8l8.2,4.7a1.483,1.483,0,0,0,1.3,0l10.2-5.8a.468.468,0,0,0,0-.8l-8.2-4.7Zm32,18.4a1.6,1.6,0,0,0-1.5.1l-10.1,6c-.3.2-.4.6,0,.8l8.1,4.7a1.7,1.7,0,0,0,1.4,0l10.1-5.9c.3-.2.4-.6,0-.8l-8.1-4.7Zm11.8,6.9a1.583,1.583,0,0,0-1.5.1l-10.1,5.8c-.3.3-.4.6,0,.8l8.1,4.7a1.7,1.7,0,0,0,1.4,0l10.1-5.8c.3-.2.4-.6,0-.8l-8.1-4.7Zm-39.8,23.7a1.721,1.721,0,0,0,1.2.2l10.1-5.8c.3-.3.3-.6,0-.8l-8.2-4.7a1.483,1.483,0,0,0-1.3,0l-10.1,5.8c-.3.3-.3.6,0,.8l8.2,4.7Zm12,6.9a1.389,1.389,0,0,0,1.1.2l10.1-5.8a.468.468,0,0,0,0-.8l-8.2-4.7a1.483,1.483,0,0,0-1.3,0l-10.1,5.8a.468.468,0,0,0,0,.8l8.2,4.7Zm11.8,6.8a1.392,1.392,0,0,0,1.4-.1l10.1-5.9a.468.468,0,0,0,0-.8l-8.2-4.7a1.483,1.483,0,0,0-1.3,0l-10.4,6.1a.468.468,0,0,0,0,.8l8.2,4.7Zm11.9,6.9a1.287,1.287,0,0,0,1.2.1l10.1-5.8c.3-.3.3-.6,0-.8l-8.2-4.7a1.483,1.483,0,0,0-1.3,0l-10.1,5.8c-.3.3-.3.6,0,.8l8.2,4.7Zm-57.5-49.9a1.721,1.721,0,0,0,1.2.2l10.1-5.8c.3-.2.4-.6,0-.8l-8.1-4.7a1.7,1.7,0,0,0-1.4,0l-10.1,5.8c-.3.2-.4.8,0,.8l8.1,4.7Zm9.9,22.4a1.392,1.392,0,0,0,1.4.1l10.1-5.8a.468.468,0,0,0,0-.8l-7.5-4.3c-.4-.2-.4-.5,0-.8l13-7.5c.3-.3.3-.6,0-.8l-9.4-5.4a1.483,1.483,0,0,0-1.3,0l-24.6,14.2c-.3.3-.4.6,0,.8l18.1,10.5Zm62.4-10-10.1,5.8c-.3.2-.4.6,0,.8l8.1,4.7a1.7,1.7,0,0,0,1.4,0l10.1-5.8c.3-.2.4-.6,0-.8l-8.1-4.7A1.7,1.7,0,0,0,473.4,519.6Zm13.1,6.9a1.483,1.483,0,0,0-1.3,0l-10.1,5.8c-.3.3-.4.6,0,.8l8.1,4.7a1.7,1.7,0,0,0,1.4,0l10.1-5.8c.3-.3.4-.6,0-.8l-8.1-4.7Zm66.9,72.7c.3-.3.4-.6,0-.8l-8.1-4.7a1.7,1.7,0,0,0-1.4,0l-10.1,5.8c-.3.3-.4.6,0,.8l8.1,4.7a1.483,1.483,0,0,0,1.3,0Zm28.2-17.8a1.275,1.275,0,0,0-1.2,0l-10.1,5.8c-.3.3-.3.6,0,.8l8.2,4.7a1.483,1.483,0,0,0,1.3,0l10.1-5.8c.3-.3.3-.6,0-.8l-8.2-4.7ZM571,592.7c.3-.2.4-.6,0-.8l-8.1-4.7a1.483,1.483,0,0,0-1.3,0L551.5,593c-.3.2-.4.8,0,.8l8.1,4.7a1.483,1.483,0,0,0,1.3,0Zm-49.9,17.2a1.2,1.2,0,0,0,1.4,0l10.1-5.8a.468.468,0,0,0,0-.8l-8.2-4.7a1.483,1.483,0,0,0-1.3,0L513,604.4a.468.468,0,0,0,0,.8l8.2,4.7Zm23.4.9c.3-.2.3-.5,0-.8l-8.2-4.7a1.483,1.483,0,0,0-1.3,0l-10.1,5.8a.468.468,0,0,0,0,.8l8.2,4.7a1.483,1.483,0,0,0,1.3,0Zm25.2-36.3a1.656,1.656,0,0,0-1.2,0l-10.1,5.8c-.3.2-.3.8,0,.8l8.2,4.7a1.483,1.483,0,0,0,1.3,0L578,580a.468.468,0,0,0,0-.8l-8.2-4.7Zm-59.4-34.3a1.656,1.656,0,0,0-1.2,0L499,546a.468.468,0,0,0,0,.8l8.2,4.7a1.483,1.483,0,0,0,1.3,0l10.1-5.9a.468.468,0,0,0,0-.8l-8.2-4.7Zm46.2,27.6-10.1,5.8a.468.468,0,0,0,0,.8l8.2,4.7a1.483,1.483,0,0,0,1.3,0l10.1-5.8c.3-.2.3-.8,0-.8l-8.2-4.7A1.483,1.483,0,0,0,556.5,567.8Zm-58.1-34.4a1.41,1.41,0,0,0-1.4.1l-10.1,5.8a.468.468,0,0,0,0,.8l8.2,4.7a1.483,1.483,0,0,0,1.3,0l10.1-5.8c.3-.2.4-.8,0-.8l-8.1-4.7Zm23.8,13.7a1.23,1.23,0,0,0-1.3.1L510.8,553c-.3.3-.3.6,0,.8l8.2,4.7a1.483,1.483,0,0,0,1.3,0l10.1-5.8c.3-.3.3-.6,0-.8l-8.2-4.7v-.1Zm11.9,6.8a1.23,1.23,0,0,0-1.3.1l-10.1,5.9a.468.468,0,0,0,0,.8l8.2,4.7a1.483,1.483,0,0,0,1.3,0l10.1-5.8a.468.468,0,0,0,0-.8l-8.2-4.7Zm11.8,6.9a1.5,1.5,0,0,0-1.3.1l-10.1,5.8c-.3.3-.3.6,0,.8l8.2,4.7a1.483,1.483,0,0,0,1.3,0l10.1-5.8c.3-.3.3-.6,0-.8l-8.2-4.7Zm-63.6,10a1.2,1.2,0,0,0,1.4,0l10.1-5.8c.3-.3.3-.6,0-.8l-8.2-4.6a1.483,1.483,0,0,0-1.3,0l-10.1,5.8c-.3.3-.4.6,0,.8l8.1,4.7ZM380.8,465.4a1.262,1.262,0,0,0-1.2.1l-10.1,5.8c-.3.2-.3.8,0,.8l8.2,4.7a1.483,1.483,0,0,0,1.3,0l10-5.8a.468.468,0,0,0,0-.8l-8.2-4.7Zm14.2,8.3a1.729,1.729,0,0,0-1,.1l-10.1,5.8c-.3.2-.3.8,0,.8l8.2,4.7a1.483,1.483,0,0,0,1.3,0l10.1-5.8a.468.468,0,0,0,0-.8l-8.2-4.7Zm-26.1-15.1a1.363,1.363,0,0,0-1.5,0l-10.1,5.8c-.3.3-.3.6,0,.8l8.2,4.7a1.483,1.483,0,0,0,1.3,0l10.1-5.8c.3-.3.3-.6,0-.8l-7.8-4.6Zm59.7,64.5a1.81,1.81,0,0,0,1.6.1l10.1-5.8a.468.468,0,0,0,0-.8l-8.2-4.7a1.483,1.483,0,0,0-1.3,0l-10.1,5.8c-.3.3-.3.6,0,.8l8.2,4.7Zm-83.1-65.4a.468.468,0,0,0,0,.8l8.2,4.7a1.483,1.483,0,0,0,1.3,0l10.1-5.8c.3-.2.3-.8,0-.8l-8.2-4.7a1.483,1.483,0,0,0-1.3,0Zm125,106.2a1.392,1.392,0,0,0,1.4-.1L482,558a.468.468,0,0,0,0-.8l-8.2-4.6a1.483,1.483,0,0,0-1.3,0l-10.1,5.8c-.3.2-.3.8,0,.8l8.1,4.7ZM324.7,479.8a1.594,1.594,0,0,0,1.5,0l10-5.8c.3-.3.4-.6,0-.8l-8.1-4.7a1.7,1.7,0,0,0-1.4,0l-10.1,5.8c-.3.3-.4.6,0,.8l8.1,4.7Zm26.3-1.5a1.5,1.5,0,0,0,1.3-.1l10.1-5.8c.3-.3.3-.6,0-.8l-8.1-4.6a1.483,1.483,0,0,0-1.3,0l-10.1,5.8c-.3.3-.3.6,0,.8l8.1,4.7Zm-19.9-12.2a.468.468,0,0,0,0,.8l8.2,4.7a1.483,1.483,0,0,0,1.3,0l10.1-5.9a.468.468,0,0,0,0-.8l-8.2-4.7a1.483,1.483,0,0,0-1.3,0Zm7.6-7.4c.4-.2.4-.6,0-.7l-8.2-4.7a1.483,1.483,0,0,0-1.3,0l-24.6,14.2c-.3.2-.4.6,0,.8l8.1,4.7a1.483,1.483,0,0,0,1.3,0l24.6-14.2v-.1Zm27.6,15.1a1.5,1.5,0,0,0-1.3.1l-10.1,5.8a.468.468,0,0,0,0,.8l8.2,4.7a1.483,1.483,0,0,0,1.3,0l10.1-5.8c.3-.2.3-.8,0-.8l-8.2-4.7Zm89.5,51.7a1.708,1.708,0,0,0-1.4,0l-10.1,5.8c-.3.3-.3.6,0,.8l8.2,4.7a1.483,1.483,0,0,0,1.3,0l10.1-5.8c.3-.3.3-.6,0-.8l-8.1-4.6ZM348,480.8c.3-.2.4-.8,0-.8l-8.1-4.7a1.7,1.7,0,0,0-1.4,0l-10.1,5.8c-.3.2-.4.6,0,.8l8.1,4.7a1.483,1.483,0,0,0,1.3,0Zm95.9,37.8a1.5,1.5,0,0,0-1.3.1l-10.1,5.8c-.3.2-.3.8,0,.8l8.2,4.7a1.483,1.483,0,0,0,1.3,0l10.1-5.8a.468.468,0,0,0,0-.8l-8.2-4.7Zm97.5,74c.3-.2.4-.6,0-.8l-8.1-4.7a1.7,1.7,0,0,0-1.4,0l-10.1,5.8c-.3.2-.4.6,0,.8l8.1,4.7a1.483,1.483,0,0,0,1.3,0Zm8.1-12.2-10.1,5.8c-.3.3-.4.6,0,.8l8.1,4.7a1.483,1.483,0,0,0,1.3,0l10.1-5.8c.3-.3.4-.6,0-.8l-8.1-4.7A1.483,1.483,0,0,0,549.5,580.4Zm-31.5,11a1.5,1.5,0,0,0,1.3-.1l10.1-5.8c.3-.3.4-.6,0-.8l-8.1-4.7a1.7,1.7,0,0,0-1.4,0l-10.1,5.8c-.3.3-.4.6,0,.8l8.1,4.7Zm-11.9-6.9a1.5,1.5,0,0,0,1.3-.1l10.1-5.9c.3-.2.4-.6,0-.8l-8.1-4.7a1.7,1.7,0,0,0-1.4,0l-10.1,5.8c-.3.2-.4.6,0,.8l8.1,4.7Zm-11.9-6.8a1.531,1.531,0,0,0,1.3-.2l10.1-5.8c.3-.2.4-.6,0-.8l-8.1-4.7a1.7,1.7,0,0,0-1.4,0L486,572.1c-.3.2-.4.6,0,.8l8.1,4.7Zm44.8-4.2a1.691,1.691,0,0,0-1.4-.1l-10.1,5.8c-.3.2-.4.6,0,.8l8.1,4.7a1.483,1.483,0,0,0,1.3,0l10.1-5.9c.3-.2.4-.8,0-.8l-8.1-4.7Zm-11.9-6.9a1.23,1.23,0,0,0-1.3.1l-10.1,5.8c-.3.2-.4.6,0,.8l8.1,4.7a1.483,1.483,0,0,0,1.3,0l10.1-5.8c.3-.2.4-.6,0-.8l-8.2-4.9Zm-47.5-27.4a1.673,1.673,0,0,0-1.2.1L468.1,545a.468.468,0,0,0,0,.8l8.2,4.7a1.483,1.483,0,0,0,1.3,0l10.1-5.9c.3-.2.3-.8,0-.8l-8.2-4.7Zm11.8,6.8a1.483,1.483,0,0,0-1.3,0L480,551.7c-.3.3-.4.6,0,.8l8.1,4.7a1.483,1.483,0,0,0,1.3,0l10.1-5.8a.468.468,0,0,0,0-.8l-8.2-4.7Zm-23.9-13.7a1.287,1.287,0,0,0-1.2-.1L456.2,538a.468.468,0,0,0,0,.8l8.2,4.7a1.483,1.483,0,0,0,1.3,0l10.1-5.8a.468.468,0,0,0,0-.8l-8.2-4.7Zm47.8,27.5a1.392,1.392,0,0,0-1.4-.1l-10.1,5.8c-.3.3-.4.6,0,.8l8.1,4.7a1.483,1.483,0,0,0,1.3,0l10.1-5.8c.3-.3.4-.6,0-.8l-8.1-4.7Zm-11.9-6.9a1.392,1.392,0,0,0-1.4-.1l-10.1,5.8c-.3.2-.4.8,0,.8l8.1,4.7a1.483,1.483,0,0,0,1.3,0l10.1-5.8c.3-.2.4-.6,0-.8l-8.1-4.7Zm5.8,50.1a1.5,1.5,0,0,0,1.3-.1l10.1-5.8c.3-.3.3-.6,0-.8l-8.2-4.7a1.483,1.483,0,0,0-1.3,0L501,597.4c-.3.3-.3.6,0,.8l8.2,4.7Zm72.8-8.8a.519.519,0,0,0-.1.9l8.2,4.7a1.483,1.483,0,0,0,1.3,0l10.1-5.8a.468.468,0,0,0,0-.8l-8.2-5a1.483,1.483,0,0,0-1.3,0L582,594ZM563.2,600c-.4.4-.4.4,0,.7l12.5,7.2a1.483,1.483,0,0,0,1.3,0l10.1-5.9c.3-.2.4-.6,0-.8L574.6,594a1.483,1.483,0,0,0-1.3,0l-10.1,5.8Zm34.5-17.1c-.4.3-.4.6-.3.8l10,5.8a1.483,1.483,0,0,0,1.3,0l10.3-6c.3-.3.3-.6,0-.8l-10-5.8a1.483,1.483,0,0,0-1.3,0l-10.1,5.8Zm2.4-10.4c.3-.2.4-.6,0-.8L592,567a1.483,1.483,0,0,0-1.3,0l-10.1,5.8c-.3.2-.4.6,0,.8l8.1,4.7a1.483,1.483,0,0,0,1.3,0Zm-54.5,34c-.4.2-.4.6-.1.7l15.6,9a1.7,1.7,0,0,0,1.4,0l10.1-5.8c.3-.3.4-.6,0-.8l-15.5-9.1a1.483,1.483,0,0,0-1.3,0l-10.1,5.9Zm-8.8,11.6c-.5.4-.5.4-.1.6l10,5.8a1.483,1.483,0,0,0,1.3,0l10.1-5.8c.3-.3.3-.6,0-.8l-10-5.8a1.483,1.483,0,0,0-1.3,0L536.7,618Zm-25.1-96.6c.3-.2.4-.6,0-.8l-8.1-4.7a1.7,1.7,0,0,0-1.4,0l-10.1,5.9c-.3.2-.4.8,0,.8l8.1,4.7a1.483,1.483,0,0,0,1.3,0Zm23.9,13.9c.3-.3.4-.6,0-.8l-8.1-4.7a1.483,1.483,0,0,0-1.3,0l-10.1,5.8c-.3.3-.4.6,0,.8l8.1,4.7a1.483,1.483,0,0,0,1.3,0ZM588.3,566c.3-.3.4-.6,0-.8l-8.1-4.7a1.7,1.7,0,0,0-1.4,0l-10.1,5.7c-.3.3-.4.6,0,.8l8.1,4.7a1.483,1.483,0,0,0,1.3,0Zm-64.6-37.5c.3-.2.4-.6,0-.8l-8.1-4.7a1.483,1.483,0,0,0-1.3,0l-10.1,5.8c-.3.2-.4.6,0,.8l8.1,4.7a1.483,1.483,0,0,0,1.3,0Zm23.8,13.7c.3-.2.4-.8,0-.8l-8.1-4.7a1.483,1.483,0,0,0-1.3,0L528,542.5c-.3.2-.4.6,0,.8l8.1,4.7a1.7,1.7,0,0,0,1.4,0ZM520.1,625c-.3.2-.4.6,0,.8l12.5,7.2a1.483,1.483,0,0,0,1.3,0l10.1-5.8c.3-.2.3-.8,0-.8l-12.5-7.2a1.7,1.7,0,0,0-1.4,0Zm44.5-72.9c.3-.2.4-.6,0-.8l-8.1-4.7a1.7,1.7,0,0,0-1.4,0L545,552.5c-.3.2-.4.5,0,.8l8.1,4.7a1.483,1.483,0,0,0,1.3,0Zm11.9,6.8c.3-.2.4-.6,0-.8l-8.1-4.7a1.7,1.7,0,0,0-1.4,0l-10.1,5.8c-.3.2-.4.8,0,.8l8.1,4.7a1.483,1.483,0,0,0,1.3,0ZM299.7,497.8a.468.468,0,0,0,0,.8l20,11.6a1.483,1.483,0,0,0,1.3,0l10.1-5.8c.3-.3.3-.6,0-.8l-20-11.6a1.483,1.483,0,0,0-1.3,0ZM326,513c-.3.2-.3.8,0,.8l8.2,4.7a1.483,1.483,0,0,0,1.3,0l10.1-5.8a.468.468,0,0,0,0-.8l-8.2-4.7a1.483,1.483,0,0,0-1.3,0Zm171.3,83.1a1.2,1.2,0,0,0,1.4,0l10.1-5.8a.468.468,0,0,0,0-.8l-8.2-4.7a1.483,1.483,0,0,0-1.3,0l-10.1,5.8a.468.468,0,0,0,0,.8l8.2,4.7ZM349.8,526.7c-.3.2-.3.8,0,.8l8.2,4.7a1.483,1.483,0,0,0,1.3,0l10.1-5.8a.468.468,0,0,0,0-.8l-8.2-4.7a1.483,1.483,0,0,0-1.3,0Zm-62.1-35.8a.468.468,0,0,0,0,.8l8.2,4.7a1.483,1.483,0,0,0,1.3,0l10.3-5.8a.468.468,0,0,0,0-.8l-8.2-4.7a1.483,1.483,0,0,0-1.3,0Zm-11.8-6.8c-.4.3-.4.6,0,.8l8.2,4.7a1.483,1.483,0,0,0,1.3,0L310,475.4c.3-.2.4-.6,0-.8l-8.1-4.7a1.483,1.483,0,0,0-1.3,0L276,484.1Zm118.3,68.3c-.3.3-.3.6,0,.8l10,5.8a1.483,1.483,0,0,0,1.3,0l10.1-5.8c.3-.3.3-.6,0-.8l-10-5.8a1.483,1.483,0,0,0-1.3,0Zm-30-17.3c-.3.2-.4.6,0,.8l12.5,7.2a1.483,1.483,0,0,0,1.3,0l10.1-5.8a.468.468,0,0,0,0-.8l-12.5-7.2a1.7,1.7,0,0,0-1.4,0Zm57.5,33.1c-.3.2-.4.8,0,.8l66.9,38.7a1.7,1.7,0,0,0,1.4,0l10.1-5.8c.3-.2.4-.6,0-.8l-66.9-38.6a1.483,1.483,0,0,0-1.3,0Zm70.7,40.9c-.3.3-.4.6,0,.8l10,5.8a1.483,1.483,0,0,0,1.3,0l10.1-5.8c.3-.3.4-.6,0-.8l-10-5.8a1.483,1.483,0,0,0-1.3,0ZM408,560.3c-.3.2-.3.8,0,.8l10,5.8a1.7,1.7,0,0,0,1.4,0l10.1-5.8c.3-.3.4-.6,0-.8l-10-5.8a1.483,1.483,0,0,0-1.3,0Zm98.1,56.8c-.3.2-.4.6,0,.8l10,5.8a1.483,1.483,0,0,0,1.3,0l10.1-5.8c.3-.3.4-.6,0-.8l-10-5.8a1.483,1.483,0,0,0-1.3,0ZM380.3,544.6a.468.468,0,0,0,0,.8l10,5.8a1.483,1.483,0,0,0,1.3,0l10.1-5.8a.468.468,0,0,0,0-.8l-10-5.8a1.483,1.483,0,0,0-1.3,0Zm-42.5-24.7a.468.468,0,0,0,0,.8l8.2,4.7a1.483,1.483,0,0,0,1.3,0l10.1-5.9c.3-.2.3-.5,0-.8l-8.2-4.7a1.483,1.483,0,0,0-1.3,0ZM323.4,495l10.1-5.8c.3-.2.4-.6,0-.8l-8.1-4.7a1.483,1.483,0,0,0-1.3,0L314,489.5c-.3.2-.4.6,0,.8l8.1,4.7A1.483,1.483,0,0,0,323.4,495Zm55.3-1.5,10.1-5.9c.3-.2.4-.5,0-.8l-8.1-4.7a1.7,1.7,0,0,0-1.4,0l-10.1,5.8c-.3.2-.4.6,0,.8l8.1,4.7A1.392,1.392,0,0,0,378.7,493.5Zm24.9,47.7,10.1-5.8c.3-.2.4-.8,0-.8l-23.8-13.7a1.483,1.483,0,0,0-1.3,0l-10.1,5.9c-.3.2-.3.8,0,.8l23.8,13.7A1.95,1.95,0,0,0,403.6,541.2Zm-58.1-45.1c.3-.3.4-.6,0-.8l-8.2-4.8a1.483,1.483,0,0,0-1.3,0l-10.1,5.8c-.3.3-.4.6,0,.8l8.1,4.7a1.7,1.7,0,0,0,1.4,0Zm2.9-2.6a1.2,1.2,0,0,0,1.4,0l10.1-5.9c.3-.2.4-.6,0-.8l-8.1-4.7a1.483,1.483,0,0,0-1.3,0l-10.1,5.8c-.3.2-.4.6,0,.8l8,4.8Zm65.7,54.6a1.4,1.4,0,0,0,1.4,0l10.1-5.8c.3-.3.4-.6,0-.8l-8.1-4.7a1.483,1.483,0,0,0-1.3,0l-10.1,5.8c-.3.3-.4.6,0,.8l8,4.7Zm-42.2-36.9c.3-.2.3-.8,0-.8l-8.2-4.7a1.483,1.483,0,0,0-1.3,0l-10.3,5.9a.468.468,0,0,0,0,.8l8.2,4.7a1.483,1.483,0,0,0,1.3,0Zm102.8,71.1,10.3-5.8c.3-.3.3-.6,0-.8l-8.2-4.7a1.483,1.483,0,0,0-1.3,0l-10.1,5.8c-.3.3-.3.6,0,.8l8.2,4.7A1.083,1.083,0,0,0,474.7,582.3Zm-13-6.8a1.357,1.357,0,0,0,1.6-.1l10.1-5.8c.3-.2.3-.8,0-.8l-8.2-4.7a1.483,1.483,0,0,0-1.3,0l-10.4,5.8a.468.468,0,0,0,0,.8l8.2,4.7v.1Zm23.7,13.8a1.5,1.5,0,0,0,1.3-.1l10.1-5.8a.468.468,0,0,0,0-.8l-8.2-4.7a1.483,1.483,0,0,0-1.3,0l-10.1,5.9c-.3.2-.3.8,0,.8l8.2,4.7Zm-47.6-27.5a1.5,1.5,0,0,0,1.3-.1l10.1-5.8c.3-.2.4-.6,0-.8l-8.1-4.7a1.483,1.483,0,0,0-1.3,0l-10.1,5.8a.468.468,0,0,0,0,.8l8.1,4.7Zm12,6.9a1.5,1.5,0,0,0,1.3-.1l10.1-5.8c.3-.3.3-.6,0-.8l-8.2-4.7a1.483,1.483,0,0,0-1.3,0l-10.1,5.8c-.3.3-.3.6,0,.8l8.2,4.7ZM426,555a1.951,1.951,0,0,0,1.3-.1l10.1-5.8c.3-.2.4-.6,0-.8l-8.1-4.7a1.483,1.483,0,0,0-1.3,0l-10.1,5.9c-.3.2-.4.8,0,.8L426,555ZM378.9,449.1c.3-.2.4-.6,0-.8l-8.1-4.7a1.7,1.7,0,0,0-1.4,0l-2.7,1.6c-.3.3-.3.6,0,.8l8.2,4.7a1.483,1.483,0,0,0,1.3,0Zm65.6,33.6c.3-.3.3-.6,0-.8l-8.2-4.7a1.483,1.483,0,0,0-1.3,0L424.9,483c-.3.3-.3.6,0,.8l8.2,4.7a1.483,1.483,0,0,0,1.3,0ZM420.7,469a.468.468,0,0,0,0-.8l-8.2-4.7a1.483,1.483,0,0,0-1.3,0l-10.1,5.9c-.3.2-.3.8,0,.8l8.2,4.7a1.483,1.483,0,0,0,1.3,0ZM459,491.1c.3-.2.4-.6,0-.8l-8.1-4.7a1.483,1.483,0,0,0-1.3,0l-10.1,5.9c-.3.2-.4.8,0,.8l8.1,4.7a1.483,1.483,0,0,0,1.3,0Zm-26.3-15a.468.468,0,0,0,0-.8l-8.2-4.7a1.483,1.483,0,0,0-1.3,0l-10.1,5.8a.468.468,0,0,0,0,.8l8,4.5a1.483,1.483,0,0,0,1.3,0Zm50.1,28.7c.3-.3.4-.6,0-.8l-8.1-4.7a1.483,1.483,0,0,0-1.3,0l-10.1,5.8c-.3.3-.4.6,0,.8l8.1,4.7a1.7,1.7,0,0,0,1.4,0ZM470.9,498c.3-.2.4-.8,0-.8l-8.1-4.7a1.483,1.483,0,0,0-1.3,0l-10.1,5.8c-.3.2-.4.6,0,.8l8.1,4.7a1.7,1.7,0,0,0,1.4,0Zm-68.2-35.2c.3-.3.4-.6,0-.8l-8.1-4.7a1.7,1.7,0,0,0-1.4,0l-2.7,1.6c-.3.2-.4.6,0,.8l8.1,4.7a1.483,1.483,0,0,0,1.3,0ZM367,442.2c.3-.3.4-.6,0-.8l-8.1-4.7a1.7,1.7,0,0,0-1.4,0l-2.7,1.6a.468.468,0,0,0,0,.8l8.2,4.7a1.483,1.483,0,0,0,1.3,0Zm-13.8,8c.3-.3.3-.6,0-.8l-8.2-4.7a1.483,1.483,0,0,0-1.3,0l-10.1,5.8c-.3.3-.3.6,0,.8l8.2,4.7a1.483,1.483,0,0,0,1.3,0Zm-41.5,37.9,10-5.9c.3-.3.4-.6,0-.8l-8.1-4.7a1.483,1.483,0,0,0-1.3,0l-10.1,5.8c-.3.3-.4.6,0,.8l8.1,4.7A1.392,1.392,0,0,0,311.7,488.1Zm79-32.1c.3-.2.4-.8,0-.8l-8.1-4.7a1.7,1.7,0,0,0-1.4,0l-2.7,1.6c-.3.2-.3.8,0,.8l8.2,4.7a1.483,1.483,0,0,0,1.3,0Zm104,55.7c.3-.2.4-.8,0-.8l-8.1-4.7a1.483,1.483,0,0,0-1.3,0L475.2,512c-.3.2-.4.8,0,.8l8.1,4.7a1.7,1.7,0,0,0,1.4,0Z"/><path class="d" d="M692.7,562.9,399.2,393.4a18.25,18.25,0,0,1-8.2-15.1l15.2-254a20.3,20.3,0,0,1,8.8-14.8,18.434,18.434,0,0,1,16.2,0L724.8,279a18.207,18.207,0,0,1,8.7,15.5l-15.2,254a20.3,20.3,0,0,1-8.8,14.8A18.744,18.744,0,0,1,692.7,562.9Z"/><path class="f" d="M692.7,562.9,399.2,393.4a18.25,18.25,0,0,1-8.2-15.1l15.2-254a20.3,20.3,0,0,1,8.8-14.8,18.434,18.434,0,0,1,16.2,0L724.8,279a18.207,18.207,0,0,1,8.7,15.5l-15.2,254a20.3,20.3,0,0,1-8.8,14.8A18.744,18.744,0,0,1,692.7,562.9Z"/><path class="d" d="M717.1,303.8,701.9,557.9a5.448,5.448,0,0,1-1.3,4.2,5.727,5.727,0,0,1-8.1.8L399,393.4a18.25,18.25,0,0,1-8.2-15.1l15.2-254a5.732,5.732,0,0,1,9.4-5L708.9,288.9A17.536,17.536,0,0,1,717.1,303.8Z"/><path class="g" d="M708.4,306.9,693.1,527.2a4.808,4.808,0,0,1-1,3.3,4.612,4.612,0,0,1-6.5.7L405.9,369.7a14.632,14.632,0,0,1-6.5-12.1l13.2-221.5a4.528,4.528,0,0,1,7.4-4L702,294.9A14,14,0,0,1,708.4,306.9Z"/><path class="h" d="M743.4,545.1,584.2,164.3a4.957,4.957,0,0,1,.8-2.6,4.541,4.541,0,0,1,6.4-1.2l167,104.8a5.4,5.4,0,0,1,2.3,4.4l-10,271.7a5.216,5.216,0,0,1-2.4,4.1A5.614,5.614,0,0,1,743.4,545.1Z"/><path class="i" d="M760.6,272.1l.1-2.5a5.544,5.544,0,0,0-2.3-4.4l-65.4-41-4.7,2.5,67.6,47.9Z"/><path class="c" d="M760.6,272.1l.1-2.5a5.544,5.544,0,0,0-2.3-4.4l-65.4-41-4.7,2.5,67.6,47.9Z"/><path class="j" d="M723.2,532.5l20.2,12.6a4.957,4.957,0,0,0,2.6.8,4.588,4.588,0,0,0,4.6-4.6l10-271.7a4.751,4.751,0,0,0-.6-2.4l-27.6,14.6Z"/><path class="k" d="M723.2,532.5l20.2,12.6a4.957,4.957,0,0,0,2.6.8,4.588,4.588,0,0,0,4.6-4.6l10-271.7a4.751,4.751,0,0,0-.6-2.4l-27.6,14.6Z"/><path class="i" d="M745.9,543.8l10-271.7a5.544,5.544,0,0,0-2.3-4.4l-167-104.8c-1.3-.8-2.5-.2-2.5,1.3l-10,271.7a5.544,5.544,0,0,0,2.3,4.4l167,104.8C744.8,546,745.9,545.4,745.9,543.8Z"/><path class="f" d="M745.9,543.8l10-271.7a5.544,5.544,0,0,0-2.3-4.4l-167-104.8c-1.3-.8-2.5-.2-2.5,1.3l-10,271.7a5.544,5.544,0,0,0,2.3,4.4l167,104.8C744.8,546,745.9,545.4,745.9,543.8Z"/><path class="l" d="M744.1,342.7c-.1,2.9-2.3,4-5,2.3L699,319.8a10.478,10.478,0,0,1-4.6-8.4c.1-2.9,2.4-4,5-2.3l40.1,25.2A10.478,10.478,0,0,1,744.1,342.7Z"/><path class="l" d="M743.5,359.5c-.1,2.9-2.3,4-5,2.3L712,345.2a10.478,10.478,0,0,1-4.6-8.4c.1-2.9,2.4-4,5-2.3l26.5,16.6A10.75,10.75,0,0,1,743.5,359.5Z"/><path class="l" d="M742.6,383.4l-.2,6.1c0,1.3-.9,1.7-2,1.1l-5.2-3.2a4.357,4.357,0,0,1-1.8-3.5l.2-6.1c0-1.3.9-1.7,2-1.1l5.2,3.3A4.038,4.038,0,0,1,742.6,383.4Z"/><path class="c" d="M742.6,383.4l-.2,6.1c0,1.3-.9,1.7-2,1.1l-5.2-3.2a4.357,4.357,0,0,1-1.8-3.5l.2-6.1c0-1.3.9-1.7,2-1.1l5.2,3.3A4.038,4.038,0,0,1,742.6,383.4Z"/><path class="l" d="M741.8,404.8l-.2,6.1c0,1.3-.9,1.7-2,1.1l-5.2-3.3a4.357,4.357,0,0,1-1.8-3.5l.2-6.1c0-1.3.9-1.7,2-1.1l5.2,3.3A4.357,4.357,0,0,1,741.8,404.8Z"/><g class="m"><path d="M741.8,404.8l-.2,6.1c0,1.3-.9,1.7-2,1.1l-5.2-3.3a4.357,4.357,0,0,1-1.8-3.5l.2-6.1c0-1.3.9-1.7,2-1.1l5.2,3.3A4.357,4.357,0,0,1,741.8,404.8Z"/></g><path class="l" d="M728.1,399.3c-.1,1.5-1.2,2-2.5,1.2l-31.3-19.7a5.043,5.043,0,0,1-2.3-4.2c.1-1.5,1.2-2,2.5-1.2l31.3,19.7A5.179,5.179,0,0,1,728.1,399.3Z"/><path class="c" d="M728.1,399.3c-.1,1.5-1.2,2-2.5,1.2l-31.3-19.7a5.043,5.043,0,0,1-2.3-4.2c.1-1.5,1.2-2,2.5-1.2l31.3,19.7A5.179,5.179,0,0,1,728.1,399.3Z"/><path class="h" d="M741,426.1l-.2,6.1c0,1.3-.9,1.7-2,1.1l-5.2-3.3a4.357,4.357,0,0,1-1.8-3.5l.2-6.1c0-1.3.9-1.7,2-1.1l5.2,3.3A4.357,4.357,0,0,1,741,426.1Z"/><path class="n" d="M727.4,420.7c-.1,1.5-1.2,2-2.5,1.2l-31.3-19.7a5.043,5.043,0,0,1-2.3-4.2c.1-1.5,1.2-2,2.5-1.2l31.3,19.7A5.587,5.587,0,0,1,727.4,420.7Z"/><path class="h" d="M740.2,447.5l-.2,6.1c0,1.3-.9,1.7-2,1.1l-5.2-3.3a4.357,4.357,0,0,1-1.8-3.5l.2-6.1c0-1.3.9-1.7,2-1.1l5.2,3.3A4.357,4.357,0,0,1,740.2,447.5Z"/><path class="n" d="M726.6,442.1c-.1,1.5-1.2,2-2.5,1.2l-31.3-19.7a5.043,5.043,0,0,1-2.3-4.2c.1-1.5,1.2-2,2.5-1.1L724.3,438A5.229,5.229,0,0,1,726.6,442.1Z"/><path class="h" d="M739.4,468.8l-.2,6.1c0,1.3-.9,1.7-2,1.1l-5.2-3.3a4.357,4.357,0,0,1-1.8-3.5l.2-6.1c0-1.3.9-1.7,2-1.1l5.2,3.3A4.661,4.661,0,0,1,739.4,468.8Z"/><path class="n" d="M725.8,463.4c-.1,1.5-1.2,2-2.5,1.2L692,444.9a5.043,5.043,0,0,1-2.3-4.2c.1-1.5,1.2-2,2.5-1.1l31.3,19.7A5.116,5.116,0,0,1,725.8,463.4Z"/><path class="l" d="M738.6,490.5c-.1,1.5-1.2,2-2.5,1.1l-22.3-14a5.043,5.043,0,0,1-2.3-4.2c.1-1.5,1.2-2,2.5-1.2l22.3,14A5.506,5.506,0,0,1,738.6,490.5Z"/><path class="l" d="M738.3,501.2c-.1,1.5-1.2,2-2.5,1.1l-44.9-28.2a5.043,5.043,0,0,1-2.3-4.2c.1-1.5,1.2-2,2.5-1.1L736,497A5.764,5.764,0,0,1,738.3,501.2Z"/><path class="o" d="M738.3,501.2c-.1,1.5-1.2,2-2.5,1.1l-44.9-28.2a5.043,5.043,0,0,1-2.3-4.2c.1-1.5,1.2-2,2.5-1.1L736,497A5.764,5.764,0,0,1,738.3,501.2Z"/><path class="l" d="M738.3,501.2c-.1,1.5-1.2,2-2.5,1.1l-31.4-19.7a5.3,5.3,0,0,1-2.3-4.2c.1-1.5,1.2-2,2.5-1.2L736,496.9A6.162,6.162,0,0,1,738.3,501.2Z"/><path class="l" d="M737.9,511.9c-.1,1.5-1.2,2-2.5,1.1l-22.3-14a5.043,5.043,0,0,1-2.3-4.2c.1-1.5,1.2-2,2.5-1.2l22.3,14A5.97,5.97,0,0,1,737.9,511.9Z"/><path class="l" d="M728.9,378c-.1,1.5-1.2,2-2.5,1.1l-31.3-19.7a5.043,5.043,0,0,1-2.3-4.2c.1-1.5,1.2-2,2.5-1.2l31.3,19.7A5.506,5.506,0,0,1,728.9,378Z"/><path class="c" d="M728.9,378c-.1,1.5-1.2,2-2.5,1.1l-31.3-19.7a5.043,5.043,0,0,1-2.3-4.2c.1-1.5,1.2-2,2.5-1.2l31.3,19.7A5.506,5.506,0,0,1,728.9,378Z"/><path class="l" d="M737.9,511.9c-.1,1.5-1.2,2-2.5,1.1l-22.3-14a5.043,5.043,0,0,1-2.3-4.2c.1-1.5,1.2-2,2.5-1.2l22.3,14A5.97,5.97,0,0,1,737.9,511.9Z"/><path class="l" d="M737.5,522.5c-.1,1.5-1.2,2-2.5,1.1l-45-28.1a5.043,5.043,0,0,1-2.3-4.2c.1-1.5,1.2-2,2.5-1.1l44.9,28.2A5.216,5.216,0,0,1,737.5,522.5Z"/><path class="o" d="M737.5,522.5c-.1,1.5-1.2,2-2.5,1.1l-45-28.1a5.043,5.043,0,0,1-2.3-4.2c.1-1.5,1.2-2,2.5-1.1l44.9,28.2A5.216,5.216,0,0,1,737.5,522.5Z"/><path class="l" d="M737.5,522.5c-.1,1.5-1.2,2-2.5,1.1l-40.4-25.4a5.043,5.043,0,0,1-2.3-4.2c.1-1.5,1.2-2,2.5-1.2l40.4,25.4A6.162,6.162,0,0,1,737.5,522.5Z"/><path class="p" d="M584.2,164.3,574.2,436a5.544,5.544,0,0,0,2.3,4.4L678,504.1l10.2-277.4L586.6,162.9C585.4,162.1,584.2,162.7,584.2,164.3Z"/><path class="q" d="M584.2,164.3,574.2,436a5.544,5.544,0,0,0,2.3,4.4L678,504.1l10.2-277.4L586.6,162.9C585.4,162.1,584.2,162.7,584.2,164.3Z"/><path class="l" d="M592.9,177.8,591,231.1l94.9,59.6.8-21.3,9.2.3-8.8-11,.8-21.3Z"/><g class="r"><path class="s" d="M678.3,243.7h0c-.1,2.2-1.6,3.1-3.5,1.9l-38.5-24.1a7.494,7.494,0,0,1-3.2-6.1h0c.1-2.2,1.6-3.1,3.5-1.9l38.5,24.2A7.181,7.181,0,0,1,678.3,243.7Z"/></g><path class="l" d="M677.9,257c0,.7-.6,1-1.3.6l-74.5-46.7a3.037,3.037,0,0,1-1.2-2.1c0-.7.6-1,1.3-.6l74.5,46.7A3.037,3.037,0,0,1,677.9,257Z"/><path class="l" d="M677.9,257c0,.7-.6,1-1.3.6l-74.5-46.7a3.037,3.037,0,0,1-1.2-2.1c0-.7.6-1,1.3-.6l74.5,46.7A3.037,3.037,0,0,1,677.9,257Z"/><path class="t" d="M677.9,257c0,.7-.6,1-1.3.6l-74.5-46.7a3.037,3.037,0,0,1-1.2-2.1c0-.7.6-1,1.3-.6l74.5,46.7A3.037,3.037,0,0,1,677.9,257Z"/><path class="l" d="M677.6,265c0,.7-.6,1-1.3.6l-74.5-46.7a2.845,2.845,0,0,1-1.2-2.1c0-.7.6-1,1.3-.6l74.5,46.7A2.717,2.717,0,0,1,677.6,265Z"/><path class="t" d="M677.6,265c0,.7-.6,1-1.3.6l-74.5-46.7a2.845,2.845,0,0,1-1.2-2.1c0-.7.6-1,1.3-.6l74.5,46.7A2.717,2.717,0,0,1,677.6,265Z"/><path class="t" d="M677.3,273c0,.7-.6,1-1.3.6l-74.5-46.7a3.037,3.037,0,0,1-1.2-2.1c0-.7.6-1,1.3-.6l74.5,46.7A2.717,2.717,0,0,1,677.3,273Z"/><path class="l" d="M674.3,296.7l-.2,6.1c0,1.3-.9,1.7-2,1.1l-5.2-3.3a4.357,4.357,0,0,1-1.8-3.5l.2-6.1c0-1.3.9-1.7,2-1.1l5.2,3.3A4.654,4.654,0,0,1,674.3,296.7Z"/><path class="u" d="M674.3,296.7l-.2,6.1c0,1.3-.9,1.7-2,1.1l-5.2-3.3a4.357,4.357,0,0,1-1.8-3.5l.2-6.1c0-1.3.9-1.7,2-1.1l5.2,3.3A4.654,4.654,0,0,1,674.3,296.7Z"/><path class="l" d="M660.6,291.2c-.1,1.5-1.2,2-2.5,1.2l-31.3-19.7a5.043,5.043,0,0,1-2.3-4.2c.1-1.5,1.2-2,2.5-1.2L658.3,287A5.179,5.179,0,0,1,660.6,291.2Z"/><path class="o" d="M660.6,291.2c-.1,1.5-1.2,2-2.5,1.2l-31.3-19.7a5.043,5.043,0,0,1-2.3-4.2c.1-1.5,1.2-2,2.5-1.2L658.3,287A5.179,5.179,0,0,1,660.6,291.2Z"/><path class="l" d="M673.6,314.4c0,.7-.6,1-1.3.6l-79-49.6a3.037,3.037,0,0,1-1.2-2.1c0-.7.6-1,1.3-.6l79,49.6A2.466,2.466,0,0,1,673.6,314.4Z"/><path class="l" d="M673.3,322.4c0,.7-.6,1-1.3.6l-79-49.6a3.037,3.037,0,0,1-1.2-2.1c0-.7.6-1,1.3-.6l79,49.6A2.466,2.466,0,0,1,673.3,322.4Z"/><path class="l" d="M673,330.4c0,.7-.6,1-1.3.6l-79-49.6a3.037,3.037,0,0,1-1.2-2.1c0-.7.6-1,1.3-.6l79,49.6A2.467,2.467,0,0,1,673,330.4Z"/><path class="l" d="M672.7,338.4c0,.7-.6,1-1.3.6l-79-49.6a3.037,3.037,0,0,1-1.2-2.1c0-.7.6-1,1.3-.6l79,49.6A2.467,2.467,0,0,1,672.7,338.4Z"/><path class="h" d="M673.6,314.4c0,.7-.6,1-1.3.6l-79-49.6a3.037,3.037,0,0,1-1.2-2.1c0-.7.6-1,1.3-.6l79,49.6A2.466,2.466,0,0,1,673.6,314.4Z"/><path class="h" d="M673.3,322.4c0,.7-.6,1-1.3.6l-79-49.6a3.037,3.037,0,0,1-1.2-2.1c0-.7.6-1,1.3-.6l79,49.6A2.466,2.466,0,0,1,673.3,322.4Z"/><path class="h" d="M673,330.4c0,.7-.6,1-1.3.6l-79-49.6a3.037,3.037,0,0,1-1.2-2.1c0-.7.6-1,1.3-.6l79,49.6A2.467,2.467,0,0,1,673,330.4Z"/><path class="h" d="M672.7,338.4c0,.7-.6,1-1.3.6l-79-49.6a3.037,3.037,0,0,1-1.2-2.1c0-.7.6-1,1.3-.6l79,49.6A2.467,2.467,0,0,1,672.7,338.4Z"/><path class="v" d="M673.6,314.4c0,.7-.6,1-1.3.6l-79-49.6a3.037,3.037,0,0,1-1.2-2.1c0-.7.6-1,1.3-.6l79,49.6A2.466,2.466,0,0,1,673.6,314.4Z"/><path class="v" d="M673.3,322.4c0,.7-.6,1-1.3.6l-79-49.6a3.037,3.037,0,0,1-1.2-2.1c0-.7.6-1,1.3-.6l79,49.6A2.466,2.466,0,0,1,673.3,322.4Z"/><path class="v" d="M673,330.4c0,.7-.6,1-1.3.6l-79-49.6a3.037,3.037,0,0,1-1.2-2.1c0-.7.6-1,1.3-.6l79,49.6A2.467,2.467,0,0,1,673,330.4Z"/><path class="v" d="M672.7,338.4c0,.7-.6,1-1.3.6l-79-49.6a3.037,3.037,0,0,1-1.2-2.1c0-.7.6-1,1.3-.6l79,49.6A2.467,2.467,0,0,1,672.7,338.4Z"/><path class="h" d="M671.5,372.4c0,.7-.6,1-1.3.6l-79-49.6a3.037,3.037,0,0,1-1.2-2.1c0-.7.6-1,1.3-.6l79,49.6A2.717,2.717,0,0,1,671.5,372.4Z"/><path class="h" d="M671.2,380.4c0,.7-.6,1-1.3.6l-79-49.6a3.037,3.037,0,0,1-1.2-2.1c0-.7.6-1,1.3-.6l79,49.6A2.717,2.717,0,0,1,671.2,380.4Z"/><path class="h" d="M670.9,388.4c0,.7-.6,1-1.3.6l-79-49.6a3.037,3.037,0,0,1-1.2-2.1c0-.7.6-1,1.3-.6l79,49.6A2.717,2.717,0,0,1,670.9,388.4Z"/><path class="h" d="M670.6,396.4c0,.7-.6,1-1.3.6l-79-49.6a3.037,3.037,0,0,1-1.2-2.1c0-.7.6-1,1.3-.6l79,49.6A2.717,2.717,0,0,1,670.6,396.4Z"/><path class="v" d="M671.5,372.4c0,.7-.6,1-1.3.6l-79-49.6a3.037,3.037,0,0,1-1.2-2.1c0-.7.6-1,1.3-.6l79,49.6A2.717,2.717,0,0,1,671.5,372.4Z"/><path class="v" d="M671.2,380.4c0,.7-.6,1-1.3.6l-79-49.6a3.037,3.037,0,0,1-1.2-2.1c0-.7.6-1,1.3-.6l79,49.6A2.717,2.717,0,0,1,671.2,380.4Z"/><path class="v" d="M670.9,388.4c0,.7-.6,1-1.3.6l-79-49.6a3.037,3.037,0,0,1-1.2-2.1c0-.7.6-1,1.3-.6l79,49.6A2.717,2.717,0,0,1,670.9,388.4Z"/><path class="v" d="M670.6,396.4c0,.7-.6,1-1.3.6l-79-49.6a3.037,3.037,0,0,1-1.2-2.1c0-.7.6-1,1.3-.6l79,49.6A2.717,2.717,0,0,1,670.6,396.4Z"/><path class="h" d="M669.3,431.6c0,.7-.6,1-1.3.6l-79-49.6a3.037,3.037,0,0,1-1.2-2.1c0-.7.6-1,1.3-.6l79,49.6A2.437,2.437,0,0,1,669.3,431.6Z"/><path class="h" d="M669,439.6c0,.7-.6,1-1.3.6l-79-49.6a3.037,3.037,0,0,1-1.2-2.1c0-.7.6-1,1.3-.6l79,49.6A2.245,2.245,0,0,1,669,439.6Z"/><path class="h" d="M668.7,447.6c0,.7-.6,1-1.3.6l-79-49.6a3.037,3.037,0,0,1-1.2-2.1c0-.7.6-1,1.3-.6l79,49.6A2.245,2.245,0,0,1,668.7,447.6Z"/><path class="h" d="M668.4,455.6c0,.7-.6,1-1.3.6l-79-49.6a3.037,3.037,0,0,1-1.2-2.1c0-.7.6-1,1.3-.6l79,49.6A2.351,2.351,0,0,1,668.4,455.6Z"/><path class="v" d="M669.3,431.6c0,.7-.6,1-1.3.6l-79-49.6a3.037,3.037,0,0,1-1.2-2.1c0-.7.6-1,1.3-.6l79,49.6A2.437,2.437,0,0,1,669.3,431.6Z"/><path class="v" d="M669,439.6c0,.7-.6,1-1.3.6l-79-49.6a3.037,3.037,0,0,1-1.2-2.1c0-.7.6-1,1.3-.6l79,49.6A2.245,2.245,0,0,1,669,439.6Z"/><path class="v" d="M668.7,447.6c0,.7-.6,1-1.3.6l-79-49.6a3.037,3.037,0,0,1-1.2-2.1c0-.7.6-1,1.3-.6l79,49.6A2.245,2.245,0,0,1,668.7,447.6Z"/><path class="v" d="M668.4,455.6c0,.7-.6,1-1.3.6l-79-49.6a3.037,3.037,0,0,1-1.2-2.1c0-.7.6-1,1.3-.6l79,49.6A2.351,2.351,0,0,1,668.4,455.6Z"/><path class="l" d="M672.1,355.4l-.2,6.1c0,1.3-.9,1.7-2,1.1l-5.2-3.3a4.357,4.357,0,0,1-1.8-3.5l.2-6.1c0-1.3.9-1.7,2-1.1l5.2,3.3A4.357,4.357,0,0,1,672.1,355.4Z"/><path class="u" d="M672.1,355.4l-.2,6.1c0,1.3-.9,1.7-2,1.1l-5.2-3.3a4.357,4.357,0,0,1-1.8-3.5l.2-6.1c0-1.3.9-1.7,2-1.1l5.2,3.3A4.357,4.357,0,0,1,672.1,355.4Z"/><path class="l" d="M658.4,349.9c-.1,1.5-1.2,2-2.5,1.1l-31.3-19.6a5.043,5.043,0,0,1-2.3-4.2c.1-1.5,1.2-2,2.5-1.1l31.3,19.7A4.871,4.871,0,0,1,658.4,349.9Z"/><path class="o" d="M658.4,349.9c-.1,1.5-1.2,2-2.5,1.1l-31.3-19.6a5.043,5.043,0,0,1-2.3-4.2c.1-1.5,1.2-2,2.5-1.1l31.3,19.7A4.871,4.871,0,0,1,658.4,349.9Z"/><path class="l" d="M669.9,414l-.2,6.1c0,1.3-.9,1.7-2,1.1l-5.2-3.3a4.357,4.357,0,0,1-1.8-3.5l.2-6.1c0-1.3.9-1.7,2-1.1l5.2,3.3A4.661,4.661,0,0,1,669.9,414Z"/><path class="u" d="M669.9,414l-.2,6.1c0,1.3-.9,1.7-2,1.1l-5.2-3.3a4.357,4.357,0,0,1-1.8-3.5l.2-6.1c0-1.3.9-1.7,2-1.1l5.2,3.3A4.661,4.661,0,0,1,669.9,414Z"/><path class="l" d="M656.3,408.6c-.1,1.5-1.2,2-2.5,1.2l-31.3-19.7a5.043,5.043,0,0,1-2.3-4.2c.1-1.5,1.2-2,2.5-1.2L654,404.4A5.617,5.617,0,0,1,656.3,408.6Z"/><path class="o" d="M656.3,408.6c-.1,1.5-1.2,2-2.5,1.2l-31.3-19.7a5.043,5.043,0,0,1-2.3-4.2c.1-1.5,1.2-2,2.5-1.2L654,404.4A5.617,5.617,0,0,1,656.3,408.6Z"/><path class="l" d="M660.5,465.4l-.2,6.1c0,1.3-1,1.7-2,1.1l-5.2-3.3a4.756,4.756,0,0,1-1.9-3.5l.2-6.1c0-1.3.9-1.7,2-1.1l5.2,3.3A4.194,4.194,0,0,1,660.5,465.4Z"/><path class="h" d="M667.3,485.1c0,.7-.6,1-1.3.6l-21.4-13.4a3.037,3.037,0,0,1-1.2-2.1c0-.7.6-1,1.3-.6L666.1,483A2.466,2.466,0,0,1,667.3,485.1Z"/><path class="l" d="M631.7,447.3l-.2,6.1c0,1.3-.9,1.7-2,1.1l-5.2-3.3a4.357,4.357,0,0,1-1.8-3.5l.2-6.1c0-1.3,1-1.7,2-1.1l5.2,3.3A4.661,4.661,0,0,1,631.7,447.3Z"/><path class="h" d="M638.5,467.1c0,.7-.6,1-1.3.6l-21.4-13.4a2.845,2.845,0,0,1-1.2-2.1c0-.7.6-1,1.3-.6L637.3,465A2.245,2.245,0,0,1,638.5,467.1Z"/><path class="l" d="M602.9,429.3l-.2,6.1c0,1.3-.9,1.7-2,1.1l-5.2-3.3a4.357,4.357,0,0,1-1.8-3.5l.2-6.1c0-1.3,1-1.7,2-1.1l5.2,3.3A4.357,4.357,0,0,1,602.9,429.3Z"/><path class="u" d="M660.5,465.4l-.2,6.1c0,1.3-1,1.7-2,1.1l-5.2-3.3a4.756,4.756,0,0,1-1.9-3.5l.2-6.1c0-1.3.9-1.7,2-1.1l5.2,3.3A4.194,4.194,0,0,1,660.5,465.4Z"/><path class="u" d="M631.7,447.3l-.2,6.1c0,1.3-.9,1.7-2,1.1l-5.2-3.3a4.357,4.357,0,0,1-1.8-3.5l.2-6.1c0-1.3,1-1.7,2-1.1l5.2,3.3A4.661,4.661,0,0,1,631.7,447.3Z"/><path class="u" d="M602.9,429.3l-.2,6.1c0,1.3-.9,1.7-2,1.1l-5.2-3.3a4.357,4.357,0,0,1-1.8-3.5l.2-6.1c0-1.3,1-1.7,2-1.1l5.2,3.3A4.357,4.357,0,0,1,602.9,429.3Z"/><path class="h" d="M609.8,449c0,.7-.6,1-1.3.6l-21.4-13.4a3.037,3.037,0,0,1-1.2-2.1c0-.7.6-1,1.3-.6l21.4,13.4A2.676,2.676,0,0,1,609.8,449Z"/><g class="w"><path class="x" d="M700.4,273.9c-.5,14.7,9.1,33,21.6,40.9,12.5,7.8,23.1,2.1,23.6-12.8.6-14.9-9.1-33.2-21.6-40.9C711.5,253.5,700.9,259.2,700.4,273.9Z"/><path class="y" d="M700.4,273.9c-.5,14.7,9.1,33,21.6,40.9,12.5,7.8,23.1,2.1,23.6-12.8.6-14.9-9.1-33.2-21.6-40.9C711.5,253.5,700.9,259.2,700.4,273.9Z"/><path class="y" d="M700.4,273.9c-.5,14.7,9.1,33,21.6,40.9,12.5,7.8,23.1,2.1,23.6-12.8.6-14.9-9.1-33.2-21.6-40.9C711.5,253.5,700.9,259.2,700.4,273.9Z"/><path class="z" d="M715.2,286.5s-6.2-9.3-5.4-15c.6-5.1,4.2-8.1,9-6.7l6.3,1.9c5,1.9,5.8,6.6,5,10.9a11.517,11.517,0,0,1-7.1,8.6c0,.3-.4,8.6-.4,8.9a2.04,2.04,0,0,1-2.6,1.2l-1.6-7.5C716.9,288.3,715.2,288.2,715.2,286.5Z"/><path class="aa" d="M703.5,312.8c1.1-4.6,3.5-14,4.9-17.8,1.5-4,6-3.3,8.1-2.5a21.4,21.4,0,0,0-2.2,1.2c-1.7,1-2.1,12.6-2.1,12.6l-2.3,8.5Z"/><path class="l" d="M703.5,312.8c.6-2.8,3.8-16.9,5.5-19.6,1.9-2.9,5.6-1.9,8.5-.6l-7.4,22.2Z"/><g class="ab"><path d="M703.5,312.8c.6-2.8,3.8-16.9,5.5-19.6,1.9-2.9,5.6-1.9,8.5-.6l-7.4,22.2Z"/></g><path class="l" d="M708.8,306.9a11.218,11.218,0,0,1,5.2,4.2,14.659,14.659,0,0,1,1.6,5.4l-6.4-2A39.16,39.16,0,0,0,708.8,306.9Z"/><path class="l" d="M708.8,306.9a11.218,11.218,0,0,1,5.2,4.2,14.659,14.659,0,0,1,1.6,5.4l-6.4-2A39.16,39.16,0,0,0,708.8,306.9Z"/><g class="ac"><path d="M708.8,306.9a11.218,11.218,0,0,1,5.2,4.2,14.659,14.659,0,0,1,1.6,5.4l-6.4-2A39.16,39.16,0,0,0,708.8,306.9Z"/></g><path class="l" d="M710.6,314.5c-2.6-10.6-2.7-12.4-2.1-14.4,1.7-5.6,7.6-8,9-7.6l7.4,2.6s6.9,3,7.7,3.6c-6.7,3-1.8,15.6-1.8,15.6l-2.2,6.1-18-5.5C710.6,314.8,710.6,314.7,710.6,314.5Z"/><path class="ad" d="M720.3,276.5a11,11,0,0,1,4.7,5.7c.8-1.5,2.8-1.2,3.9.4a.1.1,0,0,0,.1.1,3.208,3.208,0,0,1-1,4.4h0a1.919,1.919,0,0,1-2.7-.3l-.3,8.3a6.154,6.154,0,0,1-2.5,2.2c-2.2.9-6-.4-6.1-2.1a3.443,3.443,0,0,1,1.1-2.7l.1-3.6a11.569,11.569,0,0,1-4.4-1.2c-.9-.8-2.6-2.7-2.5-8.8.1-7.1,1.8-10,3-10.4C714.9,272.2,716.8,274.2,720.3,276.5Z"/><path class="z" d="M717,279.2a.517.517,0,0,1,.7-.3.95.95,0,0,1,.6,1v.2a.517.517,0,0,1-.7.3.95.95,0,0,1-.6-1Z"/><path class="aa" d="M716,285.4a1.071,1.071,0,0,1-1-1l1.6-.1C716.7,284.9,716.5,285.4,716,285.4Z"/><path class="z" d="M711.3,275.3a.927.927,0,0,1,.3-1.2.945.945,0,0,1,1.1.6l-1.4.6Z"/><path class="z" d="M718.9,276.8h0a.713.713,0,0,0-1.1-.1l1.4,1.5A1.818,1.818,0,0,0,718.9,276.8Z"/><path class="z" d="M711.7,277a.517.517,0,0,1,.7-.3.95.95,0,0,1,.6,1v.2a.517.517,0,0,1-.7.3.95.95,0,0,1-.6-1C711.6,277.1,711.6,277,711.7,277Z"/><path class="aa" d="M712.5,280.8l2.2,1.5.2-4.6Z"/><path class="aa" d="M717.6,290.2s3.7,0,4.8-.7a3.168,3.168,0,0,0,1.4-1.6c-.6,1.4-4.3,1.4-6.1,1.1Z"/><path class="l" d="M727.3,320.1l2-2.3-.8,2.7Z"/><path class="l" d="M720.9,318.1c.3-7.4,1.3-16.4,3.9-23,0,0,6.5,2.6,7.7,3.6s3.2,5.7,1.1,10.8a78.485,78.485,0,0,0-3.7,11.3Z"/><path class="ae" d="M720.9,318.1c.3-7.4,1.3-16.4,3.9-23,0,0,6.5,2.6,7.7,3.6s3.2,5.7,1.1,10.8a78.485,78.485,0,0,0-3.7,11.3Z"/><path class="l" d="M729.6,310.3s-1.9-8.6,3-11.6c2.6,2.1,3.2,4.8,4,8.8s3.5,15.9,3.5,15.9c-.2.1-.3.3-.5.4l-6.4-2Z"/><path class="ae" d="M729.6,310.3s-1.9-8.6,3-11.6c2.6,2.1,3.2,4.8,4,8.8s3.5,15.9,3.5,15.9c-.2.1-.3.3-.5.4l-6.4-2Z"/><path class="y" d="M700.4,273.9c-.5,14.7,9.1,33,21.6,40.9,12.5,7.8,23.1,2.1,23.6-12.8.6-14.9-9.1-33.2-21.6-40.9C711.5,253.5,700.9,259.2,700.4,273.9Z"/><path class="y" d="M700.4,273.9c-.5,14.7,9.1,33,21.6,40.9,12.5,7.8,23.1,2.1,23.6-12.8.6-14.9-9.1-33.2-21.6-40.9C711.5,253.5,700.9,259.2,700.4,273.9Z"/></g><path class="h" d="M717.1,592.2l35.2-20.3v75.3l-35.2,20.3Z"/><path class="p" d="M717.1,667.5,667,638.6V563.2l50.1,29Z"/><path class="af" d="M702.1,542.9l50.2,29-35.2,20.3-50.1-29Z"/><path class="ag" d="M712.1,623l-.9.5-40.1-23.1V572.5l.9-.6,40.1,23.2Z"/><path class="ag" d="M697.1,593.7c0,.8-.7,1-1.6.5l-6.8-4a3.118,3.118,0,0,1-1.6-2.4c0-.8.7-1,1.6-.5l6.8,3.9A3.467,3.467,0,0,1,697.1,593.7Z"/><path class="h" d="M713,658.3l-.9.5L672,635.7l.9-.6V607.2L713,630.4Z"/><path class="af" d="M712.1,658.8,672,635.7V607.8l40.1,23.1Z"/><path class="ag" d="M698,629c0,.8-.7,1-1.6.5l-6.8-3.9a3.118,3.118,0,0,1-1.6-2.4c0-.8.7-1,1.6-.5l6.8,3.9A3.118,3.118,0,0,1,698,629Z"/><path class="h" d="M712.1,623,672,599.8V571.9l40.1,23.2Z"/><path class="ag" d="M651.9,610.3l22-12.7V573l-22,12.7Z"/><path class="p" d="M661.9,606.7V574.8L687,589.3l1.5-2.1,8.6,5V627Z"/><path class="x" d="M661.9,606.7l-2.5-30.4,35.2,20.2,2.5,30.5Z"/><path class="ag" d="M692.1,633.5l19.1-11.1V597.8L692,608.9Z"/><path class="af" d="M692.1,634.6l-40.2-23.2V583.5L692,606.7Z"/><path class="ag" d="M677.9,604.7c0,.8-.7,1-1.6.5l-6.8-3.9a3.118,3.118,0,0,1-1.6-2.4c0-.8.7-1,1.6-.5l6.8,3.9A3.118,3.118,0,0,1,677.9,604.7Z"/><path class="h" d="M692,634.6l1.4-.8V605.9l-1.4.8Z"/><path class="n" d="M692,606.7l-40.1-23.2,1.3-.8,40.2,23.2Z"/><path class="l" d="M202.1,408.4l-7.4-11.2c-3.7-9.2-15.3-15.6-23.1-20.7s-8.8-13.3-2.6-15.6c6.6-2.6,16.5,2,22.8,9.3s10.8,19.4,11.1,25.2Z"/><path class="f" d="M202.1,408.4l-7.4-11.2c-3.7-9.2-15.3-15.6-23.1-20.7s-8.8-13.3-2.6-15.6c6.6-2.6,16.5,2,22.8,9.3s10.8,19.4,11.1,25.2Z"/><path class="ah" d="M202.3,402.1c-2-21.6-23.5-36.7-31-38.4"/><path class="l" d="M202.1,408.4c-.1-8.6-13.6-20.6-20.6-22.9-8.3-2.8-12.6,2.5-10.2,7.1s9.3,6.7,17.3,11.4c6.7,3.9,11.8,8.3,12.2,14.3Z"/><path class="ai" d="M201.6,412.3c-1.7-10.5-14-20.6-25.1-23.1"/><path class="j" d="M468.8,303.5l-4.6,13.2L332,240.3v158L509.8,501V327.2Z"/><path class="s" d="M332,398.3l-9.1-158L500.7,343l9.1,158Z"/><path class="i" d="M332,398.3,318.3,242.9,496.2,345.6,509.8,501Z"/><path class="l" d="M421.3,337.3l-4.6,13.1L284.4,274.1v158L462.3,534.8V361Z"/><g class="aj"><path d="M421.3,337.3l-4.6,13.1L284.4,274.1v158L462.3,534.8V361Z"/></g><path class="p" d="M393.9,474,257.8,395.4a4.224,4.224,0,0,1-2-3.4V175.2a3.936,3.936,0,0,1,.6-2.1,3.827,3.827,0,0,1,5.1-1.2l136.1,78.6a4.224,4.224,0,0,1,2,3.4V470.7a3.859,3.859,0,0,1-1.9,3.3A3.946,3.946,0,0,1,393.9,474Z"/><path class="p" d="M399.6,256v-2a4.224,4.224,0,0,0-2-3.4l-53.3-30.8-3.7,2.1,55.3,36.2Z"/><path class="h" d="M377.5,464.5,394,474a3.936,3.936,0,0,0,2.1.6,3.828,3.828,0,0,0,3.6-3.8V253.9a3.077,3.077,0,0,0-.6-1.9l-21.5,12.4V464.5Z"/><path class="ag" d="M395.9,472.9V256.1a4.224,4.224,0,0,0-2-3.4L257.8,174c-1.1-.6-2-.1-2,1.1V392a4.224,4.224,0,0,0,2,3.4L393.9,474C395,474.6,395.9,474.1,395.9,472.9Z"/><path class="af" d="M388.5,312.6c0,2.4-1.8,3.3-3.9,2l-32.7-18.9a8.219,8.219,0,0,1-3.9-6.5c0-2.4,1.8-3.3,3.9-2l32.7,18.9A8.374,8.374,0,0,1,388.5,312.6Z"/><path class="x" d="M388.5,343.4v4.9c0,1-.7,1.4-1.6.9l-4.2-2.4a3.658,3.658,0,0,1-1.6-2.7v-4.9c0-1,.7-1.4,1.6-.9l4.2,2.4A3.242,3.242,0,0,1,388.5,343.4Z"/><path class="af" d="M377.5,339.4c0,1.2-.9,1.6-2,1l-25.6-14.8a4.052,4.052,0,0,1-2-3.3c0-1.2.9-1.6,2-1l25.6,14.8A4.662,4.662,0,0,1,377.5,339.4Z"/><path class="x" d="M388.5,360.4v4.9c0,1-.7,1.4-1.6.9l-4.2-2.4a3.658,3.658,0,0,1-1.6-2.7v-4.9c0-1,.7-1.4,1.6-.9l4.2,2.4A3.383,3.383,0,0,1,388.5,360.4Z"/><path class="af" d="M377.5,356.4c0,1.2-.9,1.6-2,1l-25.6-14.8a4.3,4.3,0,0,1-2-3.3c0-1.2.9-1.6,2-1l25.6,14.8A4.662,4.662,0,0,1,377.5,356.4Z"/><path class="x" d="M388.5,377.5v4.9c0,1-.7,1.4-1.6.9l-4.2-2.4a3.658,3.658,0,0,1-1.6-2.7v-4.9c0-1,.7-1.4,1.6-.9l4.2,2.4A2.925,2.925,0,0,1,388.5,377.5Z"/><path class="af" d="M377.5,373.5c0,1.2-.9,1.6-2,1l-25.6-14.7a4.052,4.052,0,0,1-2-3.3c0-1.2.9-1.6,2-1l25.6,14.8A3.967,3.967,0,0,1,377.5,373.5Z"/><path class="x" d="M388.5,394.5v4.9c0,1-.7,1.4-1.6.9l-4.2-2.4a3.658,3.658,0,0,1-1.6-2.7v-4.9c0-1,.7-1.4,1.6-.9l4.2,2.4A3.383,3.383,0,0,1,388.5,394.5Z"/><path class="af" d="M377.5,390.5c0,1.2-.9,1.6-2,1l-25.6-14.7a4.052,4.052,0,0,1-2-3.3c0-1.2.9-1.6,2-1l25.6,14.8A4.29,4.29,0,0,1,377.5,390.5Z"/><path class="af" d="M388.6,430.6c0,1.2-.9,1.6-2,1l-18.2-10.5a4.052,4.052,0,0,1-2-3.3c0-1.2.9-1.6,2-1l18.2,10.5A4.662,4.662,0,0,1,388.6,430.6Z"/><path class="n" d="M388.5,439.1c0,1.2-.9,1.6-2,1L349.9,419a4.052,4.052,0,0,1-2-3.3c0-1.2.9-1.6,2-1l36.6,21.1A4.359,4.359,0,0,1,388.5,439.1Z"/><path class="x" d="M388.5,439.1c0,1.2-.9,1.6-2,1L361,425.3a4.3,4.3,0,0,1-2-3.3c0-1.2.9-1.6,2-1l25.6,14.8A4.539,4.539,0,0,1,388.5,439.1Z"/><path class="af" d="M388.6,447.6c0,1.2-.9,1.6-2,1l-18.2-10.5a4.3,4.3,0,0,1-2-3.3c0-1.2.9-1.6,2-1l18.2,10.5A4.662,4.662,0,0,1,388.6,447.6Z"/><path class="af" d="M388.6,413.6c0,1.2-.9,1.6-2,1l-18.2-10.5a4.3,4.3,0,0,1-2-3.3c0-1.2.9-1.6,2-1l18.2,10.5A4.3,4.3,0,0,1,388.6,413.6Z"/><path class="n" d="M388.5,422.1c0,1.2-.9,1.6-2,1L349.9,402a4.3,4.3,0,0,1-2-3.3c0-1.2.9-1.6,2-1l36.6,21.1A4.359,4.359,0,0,1,388.5,422.1Z"/><path class="x" d="M388.5,422.1c0,1.2-.9,1.6-2,1l-13-7.5a4.052,4.052,0,0,1-2-3.3c0-1.2.9-1.6,2-1l13,7.5A4.359,4.359,0,0,1,388.5,422.1Z"/><path class="n" d="M388.5,456.2c0,1.2-.9,1.6-2,1L349.9,436a4.052,4.052,0,0,1-2-3.3c0-1.2.9-1.6,2-1l36.6,21.1A4.376,4.376,0,0,1,388.5,456.2Z"/><path class="x" d="M388.5,456.1c0,1.2-.9,1.6-2,1l-32.9-19a4.3,4.3,0,0,1-2-3.3c0-1.2.9-1.6,2-1l32.9,19A4.359,4.359,0,0,1,388.5,456.1Z"/><path class="af" d="M255.8,175.2V392a4.225,4.225,0,0,0,2,3.4l82.8,47.8V221.9l-82.8-47.8C256.7,173.4,255.8,173.9,255.8,175.2Z"/><path class="p" d="M263.2,185.7v42.5l77.4,44.7v-17H348l-7.4-8.5v-17Z"/><path class="x" d="M333.2,235.7h0c0,1.8-1.2,2.5-2.8,1.6L299,219.2a6.5,6.5,0,0,1-2.8-4.8h0c0-1.8,1.2-2.5,2.8-1.6l31.4,18.1A6.1,6.1,0,0,1,333.2,235.7Z"/><path class="x" d="M333.2,246.3c0,.6-.5.8-1,.5l-60.7-35a2.335,2.335,0,0,1-1-1.6c0-.6.5-.8,1-.5l60.7,35.1A1.751,1.751,0,0,1,333.2,246.3Z"/><path class="x" d="M333.2,252.7c0,.6-.5.8-1,.5l-60.7-35a2.335,2.335,0,0,1-1-1.6c0-.6.5-.8,1-.5l60.7,35A1.781,1.781,0,0,1,333.2,252.7Z"/><path class="x" d="M333.2,259.2c0,.6-.5.8-1,.5l-60.7-35a2.335,2.335,0,0,1-1-1.6c0-.6.5-.8,1-.5l60.7,35A1.676,1.676,0,0,1,333.2,259.2Z"/><path class="s" d="M331.5,278.1V283c0,1-.7,1.4-1.6.9l-4.2-2.4a3.658,3.658,0,0,1-1.6-2.7v-4.9c0-1,.7-1.4,1.6-.9l4.2,2.4A3.034,3.034,0,0,1,331.5,278.1Z"/><path class="h" d="M320.5,274.1c0,1.2-.9,1.6-2,1l-25.6-14.7a4.052,4.052,0,0,1-2-3.3c0-1.2.9-1.6,2-1l25.6,14.8A3.967,3.967,0,0,1,320.5,274.1Z"/><path class="h" d="M331.5,292.2c0,.6-.5.8-1,.5l-64.4-37.2a1.9,1.9,0,0,1-1-1.6c0-.6.5-.8,1-.5l64.4,37.2A1.781,1.781,0,0,1,331.5,292.2Z"/><path class="h" d="M331.5,298.6c0,.6-.5.8-1,.5l-64.4-37.2a1.9,1.9,0,0,1-1-1.6c0-.6.5-.8,1-.5L330.5,297A1.781,1.781,0,0,1,331.5,298.6Z"/><path class="h" d="M331.5,305c0,.6-.5.8-1,.5l-64.4-37.2a1.9,1.9,0,0,1-1-1.6c0-.6.5-.8,1-.5l64.4,37.2A1.781,1.781,0,0,1,331.5,305Z"/><path class="h" d="M331.5,311.4c0,.6-.5.8-1,.5l-64.4-37.2a2.335,2.335,0,0,1-1-1.6c0-.6.5-.8,1-.5l64.4,37.2A1.781,1.781,0,0,1,331.5,311.4Z"/><path class="s" d="M331.5,324.9v4.9c0,1-.7,1.4-1.6.9l-4.2-2.4a3.658,3.658,0,0,1-1.6-2.7v-4.9c0-1,.7-1.4,1.6-.9l4.2,2.4A3.152,3.152,0,0,1,331.5,324.9Z"/><path class="h" d="M320.5,320.9c0,1.2-.9,1.6-2,1l-25.6-14.8a4.3,4.3,0,0,1-2-3.3c0-1.2.9-1.6,2-1l25.6,14.8A4.662,4.662,0,0,1,320.5,320.9Z"/><path class="h" d="M331.5,339c0,.6-.5.8-1,.5l-64.4-37.2a2.335,2.335,0,0,1-1-1.6c0-.6.5-.8,1-.5l64.4,37.2A1.9,1.9,0,0,1,331.5,339Z"/><path class="h" d="M331.5,345.4c0,.6-.5.8-1,.5l-64.4-37.2a1.9,1.9,0,0,1-1-1.6c0-.6.5-.8,1-.5l64.4,37.2A1.781,1.781,0,0,1,331.5,345.4Z"/><path class="h" d="M331.5,351.8c0,.6-.5.8-1,.5l-64.4-37.2a2.335,2.335,0,0,1-1-1.6c0-.6.5-.8,1-.5l64.4,37.2A1.781,1.781,0,0,1,331.5,351.8Z"/><path class="h" d="M331.5,358.2c0,.6-.5.8-1,.5l-64.4-37.2a1.9,1.9,0,0,1-1-1.6c0-.6.5-.8,1-.5l64.4,37.2A1.781,1.781,0,0,1,331.5,358.2Z"/><path class="s" d="M325.5,368.6v4.9c0,1-.7,1.4-1.6.9l-4.2-2.4a3.658,3.658,0,0,1-1.6-2.7v-4.9c0-1,.7-1.4,1.6-.9l4.2,2.4A3.383,3.383,0,0,1,325.5,368.6Z"/><path class="h" d="M331.5,384.1c0,.6-.4.8-1,.5l-17.4-10.1a2.335,2.335,0,0,1-1-1.6c0-.6.5-.8,1-.5l17.5,10.1A2.036,2.036,0,0,1,331.5,384.1Z"/><path class="s" d="M302,355.1V360c0,1-.7,1.4-1.6.9l-4.2-2.4a3.658,3.658,0,0,1-1.6-2.7v-4.9c0-1,.7-1.4,1.6-.9l4.2,2.4A3.152,3.152,0,0,1,302,355.1Z"/><path class="h" d="M308.1,370.6c0,.6-.5.8-1,.5L289.6,361a2.335,2.335,0,0,1-1-1.6c0-.6.5-.8,1-.5L307.1,369A2.251,2.251,0,0,1,308.1,370.6Z"/><path class="s" d="M278.6,341.5v4.9c0,1-.7,1.4-1.6.9l-4.2-2.4a3.658,3.658,0,0,1-1.6-2.7v-4.8c0-1,.7-1.4,1.6-.9l4.2,2.4A3.305,3.305,0,0,1,278.6,341.5Z"/><path class="h" d="M284.6,357c0,.6-.5.8-1,.5l-17.5-10.1a1.9,1.9,0,0,1-1-1.6c0-.6.5-.8,1-.5l17.5,10.1A1.984,1.984,0,0,1,284.6,357Z"/><path class="h" d="M331.5,388.3c0,.6-.4.8-1,.5l-17.4-10.1a2.335,2.335,0,0,1-1-1.6c0-.6.5-.8,1-.5l17.5,10.1A1.893,1.893,0,0,1,331.5,388.3Z"/><path class="h" d="M308.1,374.7c0,.6-.5.8-1,.5l-17.5-10.1a2.335,2.335,0,0,1-1-1.6c0-.6.5-.8,1-.5l17.5,10.1A2.251,2.251,0,0,1,308.1,374.7Z"/><path class="h" d="M284.6,361.2c0,.6-.5.8-1,.5l-17.5-10.1a2.335,2.335,0,0,1-1-1.6c0-.6.5-.8,1-.5l17.5,10.1A1.781,1.781,0,0,1,284.6,361.2Z"/><path class="h" d="M331.5,392.4c0,.6-.4.8-1,.5l-17.4-10.1a2.335,2.335,0,0,1-1-1.6c0-.6.5-.8,1-.5l17.5,10.1A2.2,2.2,0,0,1,331.5,392.4Z"/><path class="h" d="M308.1,378.9c0,.6-.5.8-1,.5l-17.5-10.1a2.335,2.335,0,0,1-1-1.6c0-.6.5-.8,1-.5l17.5,10.1A2.251,2.251,0,0,1,308.1,378.9Z"/><path class="h" d="M284.6,365.3c0,.6-.5.8-1,.5l-17.5-10.1a1.9,1.9,0,0,1-1-1.6c0-.6.5-.8,1-.5l17.5,10.1A1.781,1.781,0,0,1,284.6,365.3Z"/><path class="s" d="M325.5,403.6v4.9c0,1-.7,1.4-1.6.9l-4.2-2.4a3.658,3.658,0,0,1-1.6-2.7v-4.9c0-1,.7-1.4,1.6-.9l4.2,2.4A3.383,3.383,0,0,1,325.5,403.6Z"/><path class="h" d="M331.5,419.1c0,.6-.4.8-1,.5l-17.4-10.1a2.335,2.335,0,0,1-1-1.6c0-.6.5-.8,1-.5l17.5,10.1A1.893,1.893,0,0,1,331.5,419.1Z"/><path class="s" d="M302,390v4.9c0,1-.7,1.4-1.6.9l-4.2-2.4a3.658,3.658,0,0,1-1.6-2.7v-4.9c0-1,.7-1.4,1.6-.9l4.2,2.4A3.152,3.152,0,0,1,302,390Z"/><path class="h" d="M308.1,405.5c0,.6-.5.8-1,.5l-17.5-10.1a2.335,2.335,0,0,1-1-1.6c0-.6.5-.8,1-.5l17.5,10.1A2.251,2.251,0,0,1,308.1,405.5Z"/><path class="s" d="M278.6,376.5v4.9c0,1-.7,1.4-1.6.9l-4.2-2.4a3.658,3.658,0,0,1-1.6-2.7v-4.9c0-1,.7-1.4,1.6-.9l4.2,2.4A3.487,3.487,0,0,1,278.6,376.5Z"/><path class="h" d="M284.6,392c0,.6-.5.8-1,.5l-17.5-10.1a1.9,1.9,0,0,1-1-1.6c0-.6.5-.8,1-.5l17.5,10.1A1.781,1.781,0,0,1,284.6,392Z"/><path class="h" d="M331.5,423.2c0,.6-.4.8-1,.5l-17.4-10.1a2.335,2.335,0,0,1-1-1.6c0-.6.5-.8,1-.5l17.5,10.1A2.2,2.2,0,0,1,331.5,423.2Z"/><path class="h" d="M308.1,409.7c0,.6-.5.8-1,.5l-17.5-10.1a2.335,2.335,0,0,1-1-1.6c0-.6.5-.8,1-.5l17.5,10.1A2.475,2.475,0,0,1,308.1,409.7Z"/><path class="h" d="M284.6,396.1c0,.6-.5.8-1,.5l-17.5-10.1a1.9,1.9,0,0,1-1-1.6c0-.6.5-.8,1-.5l17.5,10.1A1.984,1.984,0,0,1,284.6,396.1Z"/><path class="h" d="M331.5,427.4c0,.6-.5.8-1,.5l-17.4-10.1a2.335,2.335,0,0,1-1-1.6c0-.6.5-.8,1-.5l17.4,10.1A1.781,1.781,0,0,1,331.5,427.4Z"/><path class="h" d="M308.1,413.8c0,.6-.5.8-1,.5l-17.5-10.1a2.335,2.335,0,0,1-1-1.6c0-.6.5-.8,1-.5L307,412.2A2.087,2.087,0,0,1,308.1,413.8Z"/><path class="h" d="M284.6,400.3c0,.6-.5.8-1,.5l-17.5-10.1a2.335,2.335,0,0,1-1-1.6c0-.6.5-.8,1-.5l17.5,10.1A1.781,1.781,0,0,1,284.6,400.3Z"/><path class="x" d="M388.6,279.5c0,11.8-8.3,16.6-18.5,10.7s-18.5-20.2-18.5-32,8.3-16.6,18.5-10.7C380.3,253.3,388.6,267.7,388.6,279.5Z"/><path class="h" d="M376.1,267.1c0,3.8-2.7,5.4-6,3.5a13.333,13.333,0,0,1-6-10.4c0-3.8,2.7-5.4,6-3.5A13.333,13.333,0,0,1,376.1,267.1Z"/><path class="h" d="M358.4,278.6a37.02,37.02,0,0,0,11.7,11.6c4.3,2.5,8.3,3,11.4,2v-1.7c0-6.3-4.4-13.9-9.9-17.1l-3.4-2c-5.4-3.1-9.9-.6-9.9,5.7v1.5Z"/><path class="af" d="M383,323.7c0,1.2-.9,1.6-2,1L355.5,310a4.052,4.052,0,0,1-2-3.3c0-1.2.9-1.6,2-1l25.6,14.8A4.177,4.177,0,0,1,383,323.7Z"/><path class="l" d="M284.4,432.1,252,291.4,429.8,394l32.5,140.8Z"/><path class="f" d="M284.4,432.1,252.4,292,373,361.2v122Z"/><path class="h" d="M315.9,450.5,373,483.2l-30.7,17.7Z"/><path class="p" d="M338.5,500.8,202.4,422.2a4.225,4.225,0,0,1-2-3.4V202a3.936,3.936,0,0,1,.6-2.1,3.827,3.827,0,0,1,5.1-1.2l136.1,78.6a4.224,4.224,0,0,1,2,3.4V497.5a3.994,3.994,0,0,1-1.8,3.3A4.142,4.142,0,0,1,338.5,500.8Z"/><path class="j" d="M344.2,282.7v-2a4.224,4.224,0,0,0-2-3.4l-53.3-30.8-3.7,2.1,55.3,36.2Z"/><path class="ak" d="M322,491.3l16.5,9.5a3.936,3.936,0,0,0,2.1.6,3.828,3.828,0,0,0,3.6-3.8V280.7a3.292,3.292,0,0,0-.6-1.9L322,291.2Z"/><path class="i" d="M340.5,499.7V282.9a4.224,4.224,0,0,0-2-3.4L202.4,200.9c-1.1-.6-2-.1-2,1.1V418.8a4.224,4.224,0,0,0,2,3.4l136.1,78.6C339.6,501.4,340.5,500.9,340.5,499.7Z"/><path class="h" d="M333.1,339.5c0,2.4-1.8,3.3-3.9,2l-32.7-18.9a8.374,8.374,0,0,1-3.9-6.5c0-2.4,1.8-3.3,3.9-2L329.2,333A8.481,8.481,0,0,1,333.1,339.5Z"/><path class="l" d="M333.1,370.2v4.9c0,1-.7,1.4-1.6.9l-4.2-2.4a3.658,3.658,0,0,1-1.6-2.7V366c0-1,.7-1.4,1.6-.9l4.2,2.4A3.658,3.658,0,0,1,333.1,370.2Z"/><path class="h" d="M322.1,366.2c0,1.2-.9,1.6-2,1l-25.6-14.8a4.3,4.3,0,0,1-2-3.3c0-1.2.9-1.6,2-1l25.6,14.8A4.662,4.662,0,0,1,322.1,366.2Z"/><path class="l" d="M333.1,387.2v4.9c0,1-.7,1.4-1.6.9l-4.2-2.4a3.658,3.658,0,0,1-1.6-2.7V383c0-1,.7-1.4,1.6-.9l4.2,2.4A3.383,3.383,0,0,1,333.1,387.2Z"/><path class="h" d="M322.1,383.3c0,1.2-.9,1.6-2,1l-25.6-14.8a4.052,4.052,0,0,1-2-3.3c0-1.2.9-1.6,2-1L320.1,380A4.3,4.3,0,0,1,322.1,383.3Z"/><path class="l" d="M333.1,404.3v4.9c0,1-.7,1.4-1.6.9l-4.2-2.4a3.658,3.658,0,0,1-1.6-2.7v-5c0-1,.7-1.4,1.6-.9l4.2,2.4A3.677,3.677,0,0,1,333.1,404.3Z"/><path class="h" d="M322.1,400.3c0,1.2-.9,1.6-2,1l-25.6-14.8a4.3,4.3,0,0,1-2-3.3c0-1.2.9-1.6,2-1L320.1,397A4.3,4.3,0,0,1,322.1,400.3Z"/><path class="l" d="M333.1,421.3v4.9c0,1-.7,1.4-1.6.9l-4.2-2.5a3.658,3.658,0,0,1-1.6-2.7V417c0-1,.7-1.4,1.6-.9l4.2,2.5A3.658,3.658,0,0,1,333.1,421.3Z"/><path class="h" d="M322.1,417.4c0,1.2-.9,1.6-2,1l-25.6-14.8a4.3,4.3,0,0,1-2-3.3c0-1.2.9-1.6,2-1l25.6,14.8A4.3,4.3,0,0,1,322.1,417.4Z"/><path class="h" d="M333.1,457.4c0,1.2-.9,1.6-2,1l-18.2-10.5a4.3,4.3,0,0,1-2-3.3c0-1.2.9-1.6,2-1l18.2,10.5A4.359,4.359,0,0,1,333.1,457.4Z"/><path class="x" d="M333.1,465.9c0,1.2-.9,1.6-2,1l-36.6-21.1a4.3,4.3,0,0,1-2-3.3c0-1.2.9-1.6,2-1l36.6,21.1A4.359,4.359,0,0,1,333.1,465.9Z"/><path class="l" d="M333.1,465.9c0,1.2-.9,1.6-2,1l-25.6-14.8a4.052,4.052,0,0,1-2-3.3c0-1.2.9-1.6,2-1l25.6,14.8A4.359,4.359,0,0,1,333.1,465.9Z"/><path class="h" d="M333.1,474.5c0,1.2-.9,1.6-2,1L312.9,465a4.052,4.052,0,0,1-2-3.3c0-1.2.9-1.6,2-1l18.2,10.5A4.052,4.052,0,0,1,333.1,474.5Z"/><path class="h" d="M333.1,440.4c0,1.2-.9,1.6-2,1l-18.2-10.5a4.052,4.052,0,0,1-2-3.3c0-1.2.9-1.6,2-1l18.2,10.5A4.359,4.359,0,0,1,333.1,440.4Z"/><path class="x" d="M333.1,448.9c0,1.2-.9,1.6-2,1l-36.6-21.1a4.052,4.052,0,0,1-2-3.3c0-1.2.9-1.6,2-1l36.6,21.1A4.359,4.359,0,0,1,333.1,448.9Z"/><path class="l" d="M333.1,448.9c0,1.2-.9,1.6-2,1l-13-7.5a4.3,4.3,0,0,1-2-3.3c0-1.2.9-1.6,2-1l13,7.5A4.359,4.359,0,0,1,333.1,448.9Z"/><path class="x" d="M333.1,483c0,1.2-.9,1.6-2,1l-36.6-21.1a4.3,4.3,0,0,1-2-3.3c0-1.2.9-1.6,2-1l36.6,21.1A4.052,4.052,0,0,1,333.1,483Z"/><path class="l" d="M333.1,483c0,1.2-.9,1.6-2,1l-32.9-19a4.052,4.052,0,0,1-2-3.3c0-1.2.9-1.6,2-1l32.9,19A4.052,4.052,0,0,1,333.1,483Z"/><path class="x" d="M200.4,202V418.8a4.224,4.224,0,0,0,2,3.4L285.2,470V248.7l-82.8-47.8C201.3,200.2,200.4,200.7,200.4,202Z"/><path class="l" d="M207.8,212.5v42.6l77.4,44.7V282.7h7.3l-7.3-8.5v-17Z"/><path class="x" d="M277.8,262.6h0c0,1.8-1.2,2.5-2.8,1.6l-31.4-18.1a6.377,6.377,0,0,1-2.8-4.8h0c0-1.8,1.2-2.5,2.8-1.6L275,257.8A5.811,5.811,0,0,1,277.8,262.6Z"/><path class="x" d="M277.8,273.1c0,.6-.5.8-1,.5l-60.7-35a2.335,2.335,0,0,1-1-1.6c0-.6.5-.8,1-.5l60.7,35A2.039,2.039,0,0,1,277.8,273.1Z"/><path class="x" d="M277.8,279.5c0,.6-.5.8-1,.5l-60.7-35a1.9,1.9,0,0,1-1-1.6c0-.6.5-.8,1-.5l60.7,35A2.039,2.039,0,0,1,277.8,279.5Z"/><path class="x" d="M277.8,286c0,.6-.5.8-1,.5l-60.7-35.1a1.9,1.9,0,0,1-1-1.6c0-.6.5-.8,1-.5l60.7,35A1.936,1.936,0,0,1,277.8,286Z"/><path class="l" d="M276.1,304.9v4.9c0,1-.7,1.4-1.6.9l-4.2-2.4a3.658,3.658,0,0,1-1.6-2.7v-4.9c0-1,.7-1.4,1.6-.9l4.2,2.5A3.076,3.076,0,0,1,276.1,304.9Z"/><path class="al" d="M265.1,300.9c0,1.2-.9,1.6-2,1l-25.6-14.8a4.052,4.052,0,0,1-2-3.3c0-1.2.9-1.6,2-1l25.6,14.8A4.662,4.662,0,0,1,265.1,300.9Z"/><path class="al" d="M276.1,319c0,.6-.5.8-1,.5l-64.4-37.2a2.335,2.335,0,0,1-1-1.6c0-.6.5-.8,1-.5l64.4,37.2A1.781,1.781,0,0,1,276.1,319Z"/><path class="al" d="M276.1,325.4c0,.6-.5.8-1,.5l-64.4-37.2a2.335,2.335,0,0,1-1-1.6c0-.6.5-.8,1-.5l64.4,37.2A1.781,1.781,0,0,1,276.1,325.4Z"/><path class="al" d="M276.1,331.8c0,.6-.5.8-1,.5l-64.4-37.2a2.335,2.335,0,0,1-1-1.6c0-.6.5-.8,1-.5l64.4,37.2A1.781,1.781,0,0,1,276.1,331.8Z"/><path class="al" d="M276.1,338.2c0,.6-.5.8-1,.5l-64.4-37.2a2.335,2.335,0,0,1-1-1.6c0-.6.5-.8,1-.5l64.4,37.2A1.781,1.781,0,0,1,276.1,338.2Z"/><path class="l" d="M276.1,351.7v4.9c0,1-.7,1.4-1.6.9l-4.2-2.4a3.658,3.658,0,0,1-1.6-2.7v-4.9c0-1,.7-1.4,1.6-.9l4.2,2.4A3.383,3.383,0,0,1,276.1,351.7Z"/><path class="al" d="M265.1,347.7c0,1.2-.9,1.6-2,1L237.5,334a4.052,4.052,0,0,1-2-3.3c0-1.2.9-1.6,2-1l25.6,14.8A4.289,4.289,0,0,1,265.1,347.7Z"/><path class="al" d="M276.1,365.8c0,.6-.5.8-1,.5l-64.4-37.2a2.335,2.335,0,0,1-1-1.6c0-.6.5-.8,1-.5l64.4,37.2A2.04,2.04,0,0,1,276.1,365.8Z"/><path class="al" d="M276.1,372.2c0,.6-.5.8-1,.5l-64.4-37.2a2.335,2.335,0,0,1-1-1.6c0-.6.5-.8,1-.5l64.4,37.2A1.9,1.9,0,0,1,276.1,372.2Z"/><path class="al" d="M276.1,378.6c0,.6-.5.8-1,.5l-64.4-37.2a2.335,2.335,0,0,1-1-1.6c0-.6.5-.8,1-.5L275.1,377A1.984,1.984,0,0,1,276.1,378.6Z"/><path class="al" d="M276.1,385c0,.6-.5.8-1,.5l-64.4-37.2a2.335,2.335,0,0,1-1-1.6c0-.6.5-.8,1-.5l64.4,37.2A1.781,1.781,0,0,1,276.1,385Z"/><path class="l" d="M270.1,395.5v4.9c0,1-.7,1.4-1.6.9l-4.2-2.5a3.658,3.658,0,0,1-1.6-2.7v-4.9c0-1,.7-1.4,1.6-.9l4.2,2.4A3.677,3.677,0,0,1,270.1,395.5Z"/><path class="al" d="M276.1,410.9c0,.6-.5.8-1,.5l-17.5-10.1a2.335,2.335,0,0,1-1-1.6c0-.6.5-.8,1-.5l17.5,10.1A2.04,2.04,0,0,1,276.1,410.9Z"/><path class="l" d="M246.6,381.9v4.9c0,1-.7,1.4-1.6.9l-4.2-2.4a3.658,3.658,0,0,1-1.6-2.7v-4.9c0-1,.7-1.4,1.6-.9l4.2,2.4A3.383,3.383,0,0,1,246.6,381.9Z"/><path class="al" d="M252.6,397.4c0,.6-.5.8-1,.5l-17.5-10.1a2.335,2.335,0,0,1-1-1.6c0-.6.5-.8,1-.5l17.5,10.1A1.781,1.781,0,0,1,252.6,397.4Z"/><path class="l" d="M223.1,368.3v4.9c0,1-.7,1.4-1.6.9l-4.2-2.4a3.658,3.658,0,0,1-1.6-2.7v-4.9c0-1,.7-1.4,1.6-.9l4.2,2.4A3.152,3.152,0,0,1,223.1,368.3Z"/><path class="al" d="M229.2,383.8c0,.6-.5.8-1,.5l-17.5-10.1a2.335,2.335,0,0,1-1-1.6c0-.6.5-.8,1-.5l17.5,10.1A2.251,2.251,0,0,1,229.2,383.8Z"/><path class="al" d="M276.1,415.1c0,.6-.5.8-1,.5l-17.5-10.1a2.335,2.335,0,0,1-1-1.6c0-.6.5-.8,1-.5l17.5,10.1A1.781,1.781,0,0,1,276.1,415.1Z"/><path class="al" d="M252.6,401.5c0,.6-.5.8-1,.5l-17.4-10a2.335,2.335,0,0,1-1-1.6c0-.6.5-.8,1-.5L251.7,400A1.859,1.859,0,0,1,252.6,401.5Z"/><path class="al" d="M229.2,388c0,.6-.5.8-1,.5l-17.5-10.1a2.335,2.335,0,0,1-1-1.6c0-.6.5-.8,1-.5l17.5,10.1A2.251,2.251,0,0,1,229.2,388Z"/><path class="al" d="M276.1,419.2c0,.6-.5.8-1,.5l-17.5-10.1a2.335,2.335,0,0,1-1-1.6c0-.6.5-.8,1-.5l17.5,10.1A2.039,2.039,0,0,1,276.1,419.2Z"/><path class="al" d="M252.6,405.7c0,.6-.5.8-1,.5l-17.5-10a2.335,2.335,0,0,1-1-1.6c0-.6.5-.8,1-.5l17.5,10.1A1.539,1.539,0,0,1,252.6,405.7Z"/><path class="al" d="M229.2,392.1c0,.6-.5.8-1,.5l-17.5-10.1a2.335,2.335,0,0,1-1-1.6c0-.6.5-.8,1-.5l17.5,10.1A2.475,2.475,0,0,1,229.2,392.1Z"/><path class="l" d="M270.1,430.4v4.9c0,1-.7,1.4-1.6.9l-4.2-2.4a3.658,3.658,0,0,1-1.6-2.7v-4.9c0-1,.7-1.4,1.6-.9l4.2,2.5A3.305,3.305,0,0,1,270.1,430.4Z"/><path class="al" d="M276.1,445.9c0,.6-.5.8-1,.5l-17.5-10.1a2.335,2.335,0,0,1-1-1.6c0-.6.5-.8,1-.5l17.5,10.1A1.781,1.781,0,0,1,276.1,445.9Z"/><path class="l" d="M246.6,416.8v4.9c0,1-.7,1.4-1.6.9l-4.2-2.4a3.658,3.658,0,0,1-1.6-2.7v-4.9c0-1,.7-1.4,1.6-.9l4.2,2.5A3.077,3.077,0,0,1,246.6,416.8Z"/><path class="al" d="M252.6,432.3c0,.6-.5.8-1,.5l-17.5-10.1a2.335,2.335,0,0,1-1-1.6c0-.6.5-.8,1-.5l17.5,10.1A2.04,2.04,0,0,1,252.6,432.3Z"/><path class="l" d="M223.1,403.3v4.9c0,1-.7,1.4-1.6.9l-4.2-2.5a3.658,3.658,0,0,1-1.6-2.7V399c0-1,.7-1.4,1.6-.9l4.2,2.4A3.447,3.447,0,0,1,223.1,403.3Z"/><path class="al" d="M229.2,418.8c0,.6-.5.8-1,.5l-17.5-10.1a2.335,2.335,0,0,1-1-1.6c0-.6.5-.8,1-.5l17.5,10A2.333,2.333,0,0,1,229.2,418.8Z"/><path class="al" d="M276.1,450c0,.6-.5.8-1,.5l-17.5-10.1a2.335,2.335,0,0,1-1-1.6c0-.6.5-.8,1-.5l17.5,10.1A2.039,2.039,0,0,1,276.1,450Z"/><path class="al" d="M252.6,436.5c0,.6-.5.8-1,.5l-17.5-10.1a2.335,2.335,0,0,1-1-1.6c0-.6.5-.8,1-.5l17.5,10.1A1.781,1.781,0,0,1,252.6,436.5Z"/><path class="al" d="M229.2,422.9c0,.6-.5.8-1,.5l-17.5-10.1a2.335,2.335,0,0,1-1-1.6c0-.6.5-.8,1-.5l17.5,10.1A2.475,2.475,0,0,1,229.2,422.9Z"/><path class="al" d="M276.1,454.2c0,.6-.5.8-1,.5l-17.5-10.1a2.335,2.335,0,0,1-1-1.6c0-.6.5-.8,1-.5l17.5,10.1A1.781,1.781,0,0,1,276.1,454.2Z"/><path class="al" d="M252.6,440.6c0,.6-.5.8-1,.5L234.1,431a2.335,2.335,0,0,1-1-1.6c0-.6.5-.8,1-.5L251.6,439A2.04,2.04,0,0,1,252.6,440.6Z"/><path class="al" d="M229.2,427.1c0,.6-.5.8-1,.5l-17.5-10.1a2.335,2.335,0,0,1-1-1.6c0-.6.5-.8,1-.5l17.5,10.1A2.251,2.251,0,0,1,229.2,427.1Z"/><path class="h" d="M333.1,306.3c0,11.8-8.3,16.6-18.5,10.7s-18.5-20.2-18.5-32,8.3-16.6,18.5-10.7C324.9,280.2,333.1,294.5,333.1,306.3Z"/><path class="x" d="M320.7,293.9c0,3.8-2.7,5.4-6,3.5a13.333,13.333,0,0,1-6-10.4c0-3.8,2.7-5.4,6-3.5A13.777,13.777,0,0,1,320.7,293.9Z"/><path class="x" d="M303,305.4A38.087,38.087,0,0,0,314.7,317c4.3,2.5,8.3,3,11.4,2v-1.7c0-6.3-4.4-13.9-9.8-17.1l-3.4-2c-5.4-3.1-9.9-.6-9.9,5.7v1.5Z"/><path class="h" d="M327.6,350.5c0,1.2-.9,1.6-2,1L300,336.8a4.3,4.3,0,0,1-2-3.3c0-1.2.9-1.6,2-1l25.6,14.8A4.29,4.29,0,0,1,327.6,350.5Z"/></g></svg>