<svg id="Layer_1" data-name="Layer 1" xmlns="http://www.w3.org/2000/svg" viewBox="0 0 414.5 468.1"><title>koli</title><g id="freepik--background-complete--inject-19"><path d="M89.5,343.1c-2-2.1-4.9-2.9-7.6-3.9a41.3,41.3,0,0,1-24.5-52.9A44.7,44.7,0,0,1,63,276l-.4-2.1c-1-9.8-12.9-16.9-22-13S28.5,278.3,35,285.8c-10.7.8-17.8,13-16.3,23.6S28,328.7,36.6,335a84.4,84.4,0,0,0,49.3,16.3,7,7,0,0,0,3.5-.6C91.9,349.2,91.5,345.2,89.5,343.1Z" fill="#e0e0e0"/><path d="M386.9,300c2.4-4,2.8-9.4.3-13.3s-8-6-12.2-4a8.9,8.9,0,0,0-2.9-12.3,8.8,8.8,0,0,0-12.3,2.8c-2.8,4.4-1.3,10.3,1.1,14.9s5.8,9,6.6,14.2-1.2,10.6-4.3,15-7.4,7.7-11.6,11l-.8.7a28.4,28.4,0,0,0,23-2c4-2.2,7.6-5.7,7.8-10.2.2-2.5-.7-5-.4-7.5S385,303.1,386.9,300Z" fill="#e0e0e0"/><path d="M171.8,463.5c-3.9-.5-7.8-2.2-10-5.4s-2.2-4.5-3.5-6.7-3.5-4.1-6-3.9-6.5,5.8-10.2,4.8-3.4-3.2-3.4-5.5.7-4.7.4-7c-.8-6.5-9.2-9.7-15.4-7.7s-15.7,9.5-19.8,14.7c4.3,7.1,13.1,9.9,21.1,11.9,13.5,3.4,27.1,6.2,40.9,8.6,3.2.5,6.5,1.1,9.7.6a10.7,10.7,0,0,0,7.9-5.2A41.7,41.7,0,0,1,171.8,463.5Z" fill="#e0e0e0"/><path d="M326.7,413.3c-1-5.5-6.6-10.4-12-9.2,4.5-3.7,4.6-11.3,1-16s-9.9-6.7-15.8-6.5-11.6,2.3-17.1,4.5c2.7-3.5-1.2-8.8-5.6-9s-8.2,2.4-11.7,5-7.6,5.1-11.9,4.4l4,1.7c9.6,1.4,19.4,3.7,27.7,8.7s15.3,13.3,16.7,22.9-3.6,20.5-12.8,23.9A39.2,39.2,0,0,0,321.7,429C325.1,424.5,327.7,418.9,326.7,413.3Z" fill="#e0e0e0"/><path d="M9.6,269.1c-.2-3.1-.3-6.2-.2-9.3s0-6.2.2-9.3a72.3,72.3,0,0,1,.3,9.3A72.3,72.3,0,0,1,9.6,269.1Z" fill="#e0e0e0"/><path d="M19.3,259.8c-3.3.2-6.5.3-9.7.2s-6.4,0-9.6-.2a77,77,0,0,1,9.6-.3A79.2,79.2,0,0,1,19.3,259.8Z" fill="#e0e0e0"/><path d="M381.1,364.9a73.8,73.8,0,0,1-.2-9.4,72.2,72.2,0,0,1,.2-9.3,72.3,72.3,0,0,1,.3,9.3A73.8,73.8,0,0,1,381.1,364.9Z" fill="#e0e0e0"/><path d="M390.7,355.5a77,77,0,0,1-9.6.3,77,77,0,0,1-9.6-.3c3.2-.2,6.4-.3,9.6-.2S387.5,355.3,390.7,355.5Z" fill="#e0e0e0"/><path d="M324.6,45.2a72.3,72.3,0,0,1-.3-9.3,72.3,72.3,0,0,1,.3-9.3c.3,3.1.3,6.2.3,9.3S324.9,42.1,324.6,45.2Z" fill="#e0e0e0"/><path d="M334.2,35.9c-3.2.3-6.4.3-9.6.3s-6.4,0-9.6-.3a77,77,0,0,1,9.6-.3A77,77,0,0,1,334.2,35.9Z" fill="#e0e0e0"/><circle cx="20.3" cy="181.6" r="5.7" fill="#e0e0e0"/><path d="M247.5,424a5.7,5.7,0,0,1-5.7,5.7,5.7,5.7,0,0,1-.1-11.4h0a5.9,5.9,0,0,1,5.8,5.7Z" fill="#e0e0e0"/><path d="M300.4,316.4a5.7,5.7,0,0,1-11.4.1,5.7,5.7,0,0,1,5.7-5.7,5.6,5.6,0,0,1,5.7,5.6Z" fill="#e0e0e0"/><path d="M131.3,33a5.6,5.6,0,0,1-5.7,5.7,5.7,5.7,0,0,1-5.7-5.7,5.8,5.8,0,0,1,5.7-5.7,5.7,5.7,0,0,1,5.7,5.7Z" fill="#e0e0e0"/><circle cx="155.4" cy="369.7" r="2.9" fill="#e0e0e0"/><path d="M89.6,355.5a2.9,2.9,0,1,1-2.9-2.8h.1a2.9,2.9,0,0,1,2.8,2.8Z" fill="#e0e0e0"/><path d="M159.8,38.8a2.9,2.9,0,0,1-2.9,2.8,2.9,2.9,0,0,1,0-5.7A2.9,2.9,0,0,1,159.8,38.8Z" fill="#e0e0e0"/><path d="M285.1,192.7a2.9,2.9,0,1,1-5.7,0,2.9,2.9,0,0,1,5.7,0Z" fill="#e0e0e0"/><path d="M11.8,30.3s-6.3,3.2,2.6,16.5S29.1,66.5,29.1,66.5s1.6,3.1-1,4-8.9.6-9.8,4.1,2.1,6.7,7.6,9,17.3,7.7,18.4,8.2,2.2,1.9.5,2.7-15.3,3.9-13.4,10.3,18.2,10.1,20,10.6,2.2,1.1,2.2,2.1-4.6,1.5-8.5,2.6-8,2.8-6.6,6.4,11.5,10.2,34.4,9.7l10.6-.9,4.6-9.6c8.8-21.1,6.4-33,3.6-35.6s-6.1.7-8.5,3.9-4.6,7.3-5.5,7-1.3-1-1.1-2.9S79.2,79.7,74,75.6s-13,7.5-14.4,8.8-2.3-.3-2.4-1.4-.8-14.3-1-20.2-1.8-9.9-5.5-10.4-5.6,5.4-7.4,7.6-4.1-.5-4.1-.5-3.8-7.8-13-20.9-14.5-8.3-14.5-8.3" fill="#ebebeb"/><path d="M84.3,137.7c-6.7-9.7-18.2-27-28.2-41.9s-19-28.3-25.7-38L22.6,46.4l-2.1-3.1-.6-.8v-.3l.2.2.5.8,2.2,3.1,7.9,11.4c6.7,9.7,15.8,23.1,25.8,37.9s21.5,32.3,28.1,42" fill="#e0e0e0"/><path d="M26.9,75.3h.8l2,.4c1.7.4,4.1,1,6.7,1.8L43,79.5l2,.6.7.2H45l-2-.5c-1.8-.4-4.1-1-6.7-1.8l-6.6-1.8-2-.6Z" fill="#e0e0e0"/><path d="M46.4,79.6c-.1,0,1-5,2.4-11s2.6-11,2.7-10.9-1,4.9-2.4,11S46.5,79.6,46.4,79.6Z" fill="#e0e0e0"/><path d="M60.7,103.1l.3-.7,1-1.9c.9-1.6,2.1-3.7,3.4-6.2s2.3-4.7,3-6.3l.9-1.9.3-.7a1.9,1.9,0,0,1-.2.7l-.8,2c-.7,1.7-1.7,3.9-3,6.4s-2.5,4.6-3.4,6.1L61,102.4Z" fill="#e0e0e0"/><path d="M42.3,103H58l-6.5.2H42.3Z" fill="#e0e0e0"/><path d="M52.3,125.4h3.4L64,125l8.3-.2h.1l-8.4.3H52.3Z" fill="#e0e0e0"/><path d="M75.2,124.8l.5-.9,1.2-2.4c1.1-2,2.5-4.9,4-8s2.8-6,3.7-8.1l1.1-2.5a3.6,3.6,0,0,1,.4-.9l-.3.9-1,2.6c-.9,2.1-2.1,5-3.6,8.1s-3,6-4.1,8-1,1.8-1.3,2.3Z" fill="#e0e0e0"/><path d="M355.2,220.8c-11.3-9.9-12.3-26-10.3-40.1.3-2.4.3-4.9,1.7-6.9s4.1-3.1,6.1-1.9,2.2,3.2,3,5a14.6,14.6,0,0,0,5,6c1.4.9,3.3,1.6,4.8,1s2.8-3.7,3-6.1c.5-4.4.9-8.8,1.3-13.2a23,23,0,0,1,1.5-6.9,7.4,7.4,0,0,1,5.1-4.5c2.3-.4,5,1.2,5.2,3.6a28.3,28.3,0,0,1-.2,2.9,2.3,2.3,0,0,0,1.2,2.5,3,3,0,0,0,2.7-.8,30.8,30.8,0,0,0,6.5-7.9,45.3,45.3,0,0,1,6.2-8.2c2.5-2.4,5.8-4.1,9.2-3.9s6.8,2.6,7.3,6-1.8,6.6-4.2,9a54.2,54.2,0,0,1-12.1,9.3,4.6,4.6,0,0,0-2.1,1.8c-.7,1.5.7,3.2,2.2,3.9s3.6.8,5.4,1.2,3.7,1.5,4.2,3.3-1.6,4.8-3.7,6.2a45.1,45.1,0,0,1-14.2,6.3,16.3,16.3,0,0,0-5.2,1.9c-1.6,1.1-2.6,3.1-2,4.8s2.8,2.6,4.7,2.4a35.8,35.8,0,0,0,5.4-1.4c3.3-.9,7.5-.2,9.3,2.8a7.9,7.9,0,0,1,.1,6.7,20.6,20.6,0,0,1-4.2,5.5,46.8,46.8,0,0,1-20.9,11.5c-7.8,1.8-14.8,1.7-22-1.8" fill="#f5f5f5"/><path d="M359.8,212.2a192.7,192.7,0,0,1,10.9-21.8l3.1-5.6c1-1.8,2.1-3.6,3.2-5.4a109.1,109.1,0,0,1,7-9.4l6.9-8.1a83.6,83.6,0,0,1,6.4-6.7,76,76,0,0,1,10.1-8.7l3-2.1.8-.5.3-.2-.3.2-.7.6-3,2.1a92.6,92.6,0,0,0-10,8.8c-2,2-4.1,4.3-6.3,6.7l-6.9,8.1a92,92,0,0,0-6.9,9.5c-1.1,1.7-2.1,3.5-3.1,5.3l-3.2,5.6a220.7,220.7,0,0,0-10.8,21.8" fill="#e0e0e0"/><path d="M377.1,179.4a3.1,3.1,0,0,1-.1-1c-.1-.6-.1-1.6-.2-2.8v-9.3c0-3.6,0-6.9-.2-9.3s-.1-2.2-.1-2.8a1.7,1.7,0,0,1,0-1c.1.3.1.6.2,1a18,18,0,0,1,.2,2.8c.2,2.4.3,5.7.3,9.3v12.1A3.1,3.1,0,0,1,377.1,179.4Z" fill="#e0e0e0"/><path d="M408,177h-4.5c-2.8,0-6.7.2-11,.5s-8.1.8-10.9,1.3l-3.3.5-1.2.2,1.1-.4,3.3-.6a104.7,104.7,0,0,1,11-1.4c3.6-.3,7.3-.4,11-.4l3.3.2Z" fill="#e0e0e0"/><path d="M360.2,211.8c0-.2-.1-.3-.1-.4a8.3,8.3,0,0,1-.4-1.2c-.4-1-.8-2.4-1.4-4.3-1.1-3.6-2.4-8.7-3.8-14.3s-2.7-10.7-3.7-14.3l-1.2-4.3c-.2-.5-.3-.9-.4-1.2a.6.6,0,0,0-.1-.4.5.5,0,0,1,.2.4l.4,1.1c.4,1,.8,2.5,1.4,4.3,1.1,3.6,2.4,8.7,3.8,14.3s2.7,10.7,3.7,14.4l1.2,4.3.4,1.1Z" fill="#e0e0e0"/><path d="M402,203.1h-.5l-1.2.3-4.4.9-14.8,3.2c-5.7,1.3-10.9,2.4-14.7,3.1l-4.5.8-1.2.2h0l1.2-.3,4.5-.9,14.7-3.3,14.7-3,4.5-.8,1.2-.2Z" fill="#e0e0e0"/><path d="M268.3,51.8c1.8-10.5,6.8-25.7,12.8-34.4S296.2,1.8,306.7.3s22,3.5,26.7,12.9c2.5,5.1,3,10.9,4.8,16.3s5.9,10.7,11.6,11.1,9.8-3.2,14.7-2.3c6.4,1.3,8.9,9.2,8.9,15.7s-.9,13.8,3.2,19,8.9,5.6,13.4,8.5c9.8,6.1,14,18.7,13,30.2s-6.3,22.2-11.9,32.3a256.9,256.9,0,0,0-19-47.9c-4.6-8.7-12.9-16.1-20.2-22.6-11.3-10-36.1-14.8-51.1-16.7s-17.6-2.2-32.4-5" fill="#e0e0e0"/></g><g id="freepik--back-screens--inject-19"><path d="M162.6,64.8c-37,2.7-77.5,7.6-107.2,19l9.4,63.5s57.5-20.6,104.3-19.2Z" fill="#848383"/><g opacity="0.8"><path d="M162.6,64.8c-37,2.7-77.5,7.6-107.2,19l9.4,63.5s57.5-20.6,104.3-19.2Z" fill="#fff"/></g><path d="M159.9,119.7h-.3l-1.1.2-4,.5-6.4.8-8.4,1.2c-12.6,2-29.8,5.1-48.5,10-6.5,1.7-12.7,3.4-18.5,5.2h-.3v-.3c-2-14.5-3.9-27.1-5.4-36-.8-4.4-1.4-8-1.8-10.4s-.4-2.1-.5-2.8-.1-.5-.1-.7v0c0,.2.1.4.1.7a25.7,25.7,0,0,1,.6,2.8c.5,2.4,1.2,5.9,1.9,10.4,1.6,8.8,3.6,21.4,5.7,36l-.4-.2c5.8-1.9,12-3.6,18.6-5.3a462.6,462.6,0,0,1,48.5-9.8l8.4-1.1,6.4-.8,4.1-.4h1.3Z" fill="#ff4c00"/><path d="M161.2,104.3l-.4-1.2a13.5,13.5,0,0,0-1.9-3.3,19,19,0,0,0-4.5-4l-1.6-.8-1.8-.7a12,12,0,0,0-4.2-.4,9.6,9.6,0,0,0-4.2,1.7,14.2,14.2,0,0,0-3.3,3.6c-2,2.9-3.2,6.4-4.7,10.1a14.6,14.6,0,0,1-3.5,5,7.1,7.1,0,0,1-2.9,1.4,6.3,6.3,0,0,1-3.3-.4c-4.2-1.7-6.1-6.5-10.3-8a8.4,8.4,0,0,0-6.4.5,9.6,9.6,0,0,0-2.5,2,23.3,23.3,0,0,0-1.7,2.6c-.9,1.9-1.6,4-3.2,5.5a5.1,5.1,0,0,1-2.9,1.3,6,6,0,0,1-3-.7,10.8,10.8,0,0,1-4.2-4,44,44,0,0,1-2.1-5,23.5,23.5,0,0,0-2.2-4.5,8.9,8.9,0,0,0-3.3-3.1,8.5,8.5,0,0,0-7.6-.2,12.8,12.8,0,0,0-4.9,3.4,10.1,10.1,0,0,0-1.8,3.4l-.3,1.2a6.9,6.9,0,0,1,.2-1.3,11.1,11.1,0,0,1,1.8-3.4,12.5,12.5,0,0,1,4.9-3.6,8.6,8.6,0,0,1,7.8.2,8.1,8.1,0,0,1,3.5,3.1,28.2,28.2,0,0,1,2.3,4.6,36.1,36.1,0,0,0,2.1,4.9,10.7,10.7,0,0,0,4,3.9,4.6,4.6,0,0,0,2.8.6,4.2,4.2,0,0,0,2.6-1.2c1.5-1.3,2.2-3.4,3.1-5.3a16.7,16.7,0,0,1,1.8-2.8,8.6,8.6,0,0,1,2.6-2,8.9,8.9,0,0,1,6.8-.6,14.6,14.6,0,0,1,5.4,4.1,15,15,0,0,0,5,4,5.1,5.1,0,0,0,3,.3,6.6,6.6,0,0,0,2.7-1.2,13.3,13.3,0,0,0,3.3-4.8c1.5-3.6,2.8-7.2,4.8-10.1a12.7,12.7,0,0,1,3.5-3.8,9.3,9.3,0,0,1,8.6-1.2l1.9.7a15.5,15.5,0,0,1,6.1,5,13.5,13.5,0,0,1,1.9,3.3,4.4,4.4,0,0,1,.2,1Z" fill="#ff4c00"/><path d="M63,96l-1.1.5H60.7a1.8,1.8,0,0,1,1.1-.5Z" fill="#ff4c00"/><path d="M64.6,107.5c.1.2-.3.5-.8.7s-1,.3-1,.2.3-.4.8-.7S64.5,107.4,64.6,107.5Z" fill="#ff4c00"/><path d="M66.7,120.2c0,.2-.4.4-.9.6s-1,.2-1,.1.3-.4.9-.6S66.6,120.1,66.7,120.2Z" fill="#ff4c00"/><path d="M69.1,132.7a1.4,1.4,0,0,1-1,.5c-.6.2-1,.3-1.1.1a1.4,1.4,0,0,1,1-.5C68.5,132.6,69.1,132.5,69.1,132.7Z" fill="#ff4c00"/><path d="M139,72.9l1.2-.3,3.5-.5,12.2-1.6h.3v.3c.4,4.2.8,9.1,1.3,14.3v.5h-.2l-16.6,2h-.2v-.2l-1.2-10.6q-.2-1.8-.3-3v-1c.1.4.1.7.2,1.1s.2,1.7.4,3,.8,6.2,1.3,10.5l-.2-.2,16.5-2.1-.2.2v-.2c-.5-5.2-.9-10.1-1.3-14.3l.3.2Z" fill="#ff4c00"/><path d="M154.4,75.4c0,.2-2.8.2-6.3.6s-6.3,1-6.3.8A30.1,30.1,0,0,1,154.4,75.4Z" fill="#ff4c00"/><path d="M154.6,79.1c0,.2-2.7.3-5.9.6s-5.9.7-5.9.6a22.9,22.9,0,0,1,5.8-1.1A24.1,24.1,0,0,1,154.6,79.1Z" fill="#ff4c00"/><path d="M150.6,82.4a12.1,12.1,0,0,1-3.3.7,13.7,13.7,0,0,1-3.5.2,9.8,9.8,0,0,1,3.4-.7A9.8,9.8,0,0,1,150.6,82.4Z" fill="#ff4c00"/><path d="M343.3,83.5c-36.3-11-66.9-20.5-108-20.2l-6.2,64.6c42.7,3.8,57,6.6,96.4,20.9Z" fill="#848383"/><g opacity="0.8"><path d="M343.3,83.5c-36.3-11-66.9-20.5-108-20.2l-6.2,64.6c42.7,3.8,57,6.6,96.4,20.9Z" fill="#fff"/></g><path d="M261.2,94.6l1.6-13.7A16,16,0,0,0,251.6,84a16.9,16.9,0,0,0-6.9,13.5v2h0l16-1.8Z" fill="#ff4c00"/><path d="M277.7,92.4a15.6,15.6,0,0,0-11.4-10.9h-.8l-.9-.2h-.1l-1.6,13.7-.4,3.2,15.2,5.5h0a19.7,19.7,0,0,0,.7-3.5A18.2,18.2,0,0,0,277.7,92.4Z" fill="#ff4c00"/><g opacity="0.3"><path d="M277.7,92.4a15.6,15.6,0,0,0-11.4-10.9h-.8l-.9-.2h-.1l-1.6,13.7-.4,3.2,15.2,5.5h0a19.7,19.7,0,0,0,.7-3.5A18.2,18.2,0,0,0,277.7,92.4Z"/></g><path d="M261.4,99.6l-16,1.8c.7,7.8,6.3,14.2,13.9,15.2s14.8-4,17.3-11.4l-15.2-5.5" fill="#ff4c00"/><path d="M329.3,95.8l-1.4-.5-3.8-1.7a98.5,98.5,0,0,0-12.9-4.5,102.1,102.1,0,0,0-13.3-3l-4.1-.6a8,8,0,0,1-1.5-.3h1.5l4.1.4a99.1,99.1,0,0,1,26.3,7.5L328,95Z" fill="#ff4c00"/><path d="M328.2,102.5l-1.4-.5-3.8-1.7a119,119,0,0,0-26.2-7.5l-4.1-.6-1.5-.2h1.5l4.1.5a87.4,87.4,0,0,1,13.5,2.8,93.1,93.1,0,0,1,12.8,4.7l3.8,1.8Z" fill="#ff4c00"/><path d="M327.1,109.3a4.2,4.2,0,0,1-1.4-.6l-3.8-1.6a116.3,116.3,0,0,0-12.9-4.6c-4.4-1.2-8.8-2.2-13.3-3l-4.1-.6-1.5-.2h1.5l4.1.5a87.4,87.4,0,0,1,13.5,2.8,93.1,93.1,0,0,1,12.8,4.7l3.8,1.8A5.7,5.7,0,0,1,327.1,109.3Z" fill="#ff4c00"/><path d="M324.9,116.1l-1.4-.6-3.6-1.6a103.7,103.7,0,0,0-25.5-7.5l-4-.6-1.4-.3h1.5l4,.4a97.1,97.1,0,0,1,13,2.8,103.7,103.7,0,0,1,12.5,4.7l3.6,1.8A5.7,5.7,0,0,1,324.9,116.1Z" fill="#ff4c00"/><path d="M320.1,121.4l-1.2-.4-3.3-1.5a78.4,78.4,0,0,0-22.8-6.5l-3.6-.5a5,5,0,0,1-1.3-.3h1.3l3.6.4a67.6,67.6,0,0,1,22.9,6.5l3.3,1.6Z" fill="#ff4c00"/><path d="M304,122.2l-2.6-.5c-1.6-.4-3.7-.9-6.2-1.3l-6.3-1-2.6-.4H289c1.6.2,3.8.4,6.3.9a42.9,42.9,0,0,1,6.2,1.4A10.6,10.6,0,0,1,304,122.2Z" fill="#ff4c00"/><path d="M241.6,70.9h3.3c2.2,0,5.4,0,9.5.2a150.2,150.2,0,0,1,33.3,6h.2c-2.5,14.4-5.5,31.4-8.7,49.6a14.3,14.3,0,0,1-.4,2.2v.3h-.2c-7.4-1.9-14.8-3.4-22.3-4.6s-14-1.8-20.3-2.2h-.3v-.3c1.8-15.3,3.2-28.1,4.3-37.1.5-4.4.9-8,1.2-10.4s.2-2.1.3-2.7.1-.5.1-.7v0a2,2,0,0,1-.1.7,17.8,17.8,0,0,1-.3,2.8c-.2,2.5-.6,6-1.1,10.5-1,9-2.3,21.7-4,37l-.2-.3c6.4.4,13.3,1.2,20.5,2.3a186,186,0,0,1,22.2,4.6l-.3.2a20.7,20.7,0,0,0,.4-2.2l8.7-49.6.2.3a155.6,155.6,0,0,0-33.2-6.2L245,71h-3.4Z" fill="#ff4c00"/></g><g id="freepik--Character--inject-19"><polyline points="202 203 237.4 210.8 242.8 203 241.9 192.9 236.5 188 218 188 200.7 203.6" fill="#ff4c00"/><g opacity="0.3"><polyline points="202 203 237.4 210.8 242.8 203 241.9 192.9 236.5 188 218 188 200.7 203.6"/></g><path d="M255.9,130.1l44.7-6,7-2s16.1-3.6,17.6-4.1,2.5.1,2.7.7-.7,2.2-2.2,2.8l-8.7,3a12.9,12.9,0,0,1,2.8.8c1.9.6,3.8,3.2,4.7,6.1s1,3.8-.1,4.3a1.8,1.8,0,0,1-1.3-.2,2.9,2.9,0,0,1-1.4-1.7c-1.6-4.7-4.5-5.1-4.5-5.1l-.9.3s3,2.1,3,4.7a5.2,5.2,0,0,1-.2,1.1,3.9,3.9,0,0,1-2.4,4.9,3.4,3.4,0,0,1-2,.1,1.6,1.6,0,0,1-1.4-1.1,3.6,3.6,0,0,1,.2-1l.2-.5-2.7.3s-6.1.5-8.7,1l-41.8,12.6a10.7,10.7,0,0,1-13.5-7.2h-.1a10.8,10.8,0,0,1,7.5-13.4Z" fill="#ffbe9d"/><path d="M301.7,125.2a2,2,0,0,0,1.9,1.8,26.4,26.4,0,0,0,2.8.2c2.8.4,4.9,2.9,7.7,3.1.4,0,.9,0,1-.4a1,1,0,0,0-.4-.9l-7-6.2" fill="#ffbe9d"/><path d="M307.7,122.8l.8.6a23.1,23.1,0,0,1,2.1,1.8l3.1,2.6.9.8c.3.3.7.5.8,1.1a.9.9,0,0,1-.5.8h-.7a3.5,3.5,0,0,1-1.4-.3,36.1,36.1,0,0,1-4.4-2.2,5.3,5.3,0,0,0-2-.7h-1.9a3.3,3.3,0,0,1-2.5-1.1c-.5-.6-.4-1-.4-1a5.6,5.6,0,0,0,.5.8,3.2,3.2,0,0,0,2.4.9h1.9l2.2.7a36.1,36.1,0,0,0,4.4,2.2l1.2.2c.4,0,.7-.1.7-.3a1.9,1.9,0,0,0-.6-.7l-.9-.8-3-2.8-2-1.8C307.9,123.1,307.7,122.9,307.7,122.8Z" fill="#eb996e"/><path d="M316.3,128.9H318a3.4,3.4,0,0,1,1.6,1,21.2,21.2,0,0,1,1.1,2.1,6.2,6.2,0,0,0,1,2.2,4,4,0,0,0,1.4,1.5,1.7,1.7,0,0,0,1.4,0c.3-.2.4-.3.4-.4l-.5.2a1.3,1.3,0,0,1-1.2-.1,4,4,0,0,1-1.3-1.3,21.4,21.4,0,0,1-1-2.2,5.3,5.3,0,0,0-1.2-2.2,3.4,3.4,0,0,0-1.7-1.1h-1.3Z" fill="#eb996e"/><path d="M326.3,121.2l-1.6.6-3.9,1.4-3.9,1.4a5.2,5.2,0,0,0-1.6.6l1.7-.4,3.9-1.3a26.8,26.8,0,0,0,3.9-1.5A5.5,5.5,0,0,0,326.3,121.2Z" fill="#eb996e"/><path d="M315.1,131.4l.3.4a1.4,1.4,0,0,1,.5,1.3.6.6,0,0,1-.5.6,2,2,0,0,1-1.1.3,2.1,2.1,0,0,0-1.2.7,1.7,1.7,0,0,0-.2,1.4,2.2,2.2,0,0,0,1,1.1,2.2,2.2,0,0,0,1.4.2,5,5,0,0,0,2-.8,3.6,3.6,0,0,0,1.2-.8c.2-.2.3-.3.3-.5l-.4.4a3.5,3.5,0,0,1-1.2.7,6.8,6.8,0,0,1-2,.7,1.8,1.8,0,0,1-2-1.1,1.1,1.1,0,0,1,.2-1.1,1.7,1.7,0,0,1,1-.6,4.5,4.5,0,0,0,1.1-.3,1,1,0,0,0,.6-.9,2,2,0,0,0-.6-1.4Z" fill="#eb996e"/><path d="M314.1,137a.6.6,0,0,0-.4.2,1.2,1.2,0,0,0-.5,1.2,1.9,1.9,0,0,0,1.2,1.6,3.3,3.3,0,0,0,2.4,0,3.4,3.4,0,0,0,1.9-1.4,4.4,4.4,0,0,0,.7-1.9,3,3,0,0,0-.2-1.3c0-.2-.1-.3-.2-.5a5.5,5.5,0,0,1,.1,1.8,3.7,3.7,0,0,1-2.4,3,4.1,4.1,0,0,1-2.2,0,1.6,1.6,0,0,1-1.1-1.3,1.6,1.6,0,0,1,.4-1.2Z" fill="#eb996e"/><path d="M306.7,133.3a1.8,1.8,0,0,0-.3-.8,4,4,0,0,0-1.6-1.3v.3l1-.5a7.8,7.8,0,0,0,2.8-2.9,25.5,25.5,0,0,1-3,2.6l-1,.5-.4.2h.4a3.1,3.1,0,0,1,1.6,1.2C306.5,133.1,306.6,133.3,306.7,133.3Z" fill="#eb996e"/><path d="M320.6,128.5a1.8,1.8,0,0,0-.6,1.3,2.4,2.4,0,0,0,.4,1.4c.1-.1-.1-.6,0-1.3S320.7,128.6,320.6,128.5Z" fill="#eb996e"/><path d="M112.1,144.1s-6.5-10.6-7.7-11.5-11.5-4.7-12.4-4.4-13.4,2.4-12,3.9,10.2-.1,10.2-.1l1.2.6s-7.6,1.2-9.1,2.1-1,2.6.4,2.5,7.9-1.4,8.3-1.1-7.1,1.7-7.9,2.2-1.2,2.6.1,2.5,7.9-1.9,7.9-1.9c-2,.8-4.1,1.7-6.1,2.7a1,1,0,0,0,1,1.7c.8-.2,4.8-2.1,5.9-2.3s1,.3,2,2.4,2.5,7.1,6.2,7.1,6.5,2.6,6.5,2.6Z" fill="#ffbe9d"/><path d="M80.1,132.2a8.6,8.6,0,0,0,2.3.6H85l3.1-.4,2.3-.4h-.1a24.3,24.3,0,0,0,5.4,1.7c-1.7-.8-3.5-1.6-5.2-2.2h-.2l-2.3.3-3.1.5H82.4Z" fill="#eb996e"/><path d="M107.2,142.8a2.3,2.3,0,0,1-2.9,0,15,15,0,0,1-2.4-2c-2.6-1.8-6.2-1.3-8.7-3.2-.3-.3-.7-.7-.5-1.1s.7-.4,1.1-.4l10.3.2" fill="#ffbe9d"/><path d="M104.1,136.4l-1.1-.2h-3l-4.5-.2H94.2a2.2,2.2,0,0,0-1.6.3.9.9,0,0,0-.1,1,1.8,1.8,0,0,0,.5.7l1.3.8a46.1,46.1,0,0,0,5.3,1.5,5.1,5.1,0,0,1,2.1,1l1.7,1.3a3.7,3.7,0,0,0,2.9,1,1.4,1.4,0,0,0,1-.6l-1,.4a3.5,3.5,0,0,1-2.6-1.1c-.5-.4-1-1-1.6-1.4a7,7,0,0,0-2.3-1.1,31.3,31.3,0,0,1-5.2-1.6l-1.2-.7c-.3-.2-.5-.6-.3-.7s.6-.2,1.1-.2h9.9Z" fill="#eb996e"/><path d="M162.9,378.3l-2.4,26.2-7.8,20.3a2.5,2.5,0,0,0,1.5,3.4h.2a2.6,2.6,0,0,0,2.4-.4c4.5-3.4,20.7-15.9,20.8-17.8s4.3-27.6,4.3-27.6Z" fill="#06826a"/><g opacity="0.6"><path d="M154.4,428.3l23.4-20-.2,1.1a3.7,3.7,0,0,1-1.2,2.5c-1.9,1.8-7.2,6.6-19.5,16a2.5,2.5,0,0,1-2.5.4Z" fill="#fff"/></g><g opacity="0.6"><path d="M173.3,399.3a1.5,1.5,0,0,0-.6,2,1.4,1.4,0,0,0,2,.7,1.8,1.8,0,0,0,.7-2.2,1.6,1.6,0,0,0-2.2-.4" fill="#fff"/></g><path d="M161.7,417.5c-.2.1-.6-1.3-2.1-2.3a9.8,9.8,0,0,0-2.9-.9,1.9,1.9,0,0,1,1-.2,3.9,3.9,0,0,1,2.3.7,3.4,3.4,0,0,1,1.5,1.8A3.2,3.2,0,0,1,161.7,417.5Z" fill="#263238"/><path d="M159.4,420.9a14,14,0,0,0-2.2-1.4l-2.5-.7a3.2,3.2,0,0,1,2.7.1C158.9,419.5,159.6,420.8,159.4,420.9Z" fill="#263238"/><path d="M165.7,413.5a25.2,25.2,0,0,0-3.3-2.4c-1.9-1.1-3.8-1.2-3.8-1.4a5.8,5.8,0,0,1,4.1.9A6.5,6.5,0,0,1,165.7,413.5Z" fill="#263238"/><path d="M167,405.5c0,.2-1.4-.6-3.3-.9s-3.4,0-3.4-.1A6.8,6.8,0,0,1,167,405.5Z" fill="#263238"/><path d="M167.9,397.9a10.2,10.2,0,0,0-3.4-1,14.7,14.7,0,0,0-3.6.4,3.7,3.7,0,0,1,.9-.6,6.3,6.3,0,0,1,2.7-.4,7.9,7.9,0,0,1,2.6.8C167.7,397.5,168,397.8,167.9,397.9Z" fill="#263238"/><path d="M164.7,395.4a3.1,3.1,0,0,1,.1-1,5.7,5.7,0,0,1,1.1-2.5,2.5,2.5,0,0,1,1.4-1.3,1,1,0,0,1,1.2.4,1.3,1.3,0,0,1,.3,1.2,3.8,3.8,0,0,1-3.7,3.1,4.4,4.4,0,0,1-4.1-2.8,2,2,0,0,1,.1-1.3,1.3,1.3,0,0,1,1.2-.4,3.6,3.6,0,0,1,1.6,1.1,7.8,7.8,0,0,1,1.5,2.2,1.9,1.9,0,0,1,.3,1,9.8,9.8,0,0,0-2.1-2.9,4.2,4.2,0,0,0-1.4-.9.6.6,0,0,0-.7.2,1.4,1.4,0,0,0,0,.9,3.9,3.9,0,0,0,3.6,2.3,3.4,3.4,0,0,0,3.2-2.6,1.1,1.1,0,0,0-.2-.8.7.7,0,0,0-.6-.3,2.8,2.8,0,0,0-1.3,1.1A9.9,9.9,0,0,0,164.7,395.4Z" fill="#263238"/><path d="M187.1,393.7l19.6-155.4-6.3-36.2-37,2-4.6,186.7a2.7,2.7,0,0,0,2.3,2.9l21.5,3.3a3.8,3.8,0,0,0,4.4-3.2Z" fill="#263238"/><path d="M206.1,243.5l35.7,35.3-51.3,12.5,3.6,25.9,69.5-9.4a22,22,0,0,0,14.8-8.9h0a21.8,21.8,0,0,0,.4-25.1l-54.2-79.6-24.2,7.9Z" fill="#263238"/><path d="M204.1,234.5a22.3,22.3,0,0,1,1.3,4.4,17.7,17.7,0,0,1,.7,4.6,17.6,17.6,0,0,1-1.2-4.5A23.6,23.6,0,0,1,204.1,234.5Z" fill="#455a64"/><path d="M198.9,294.5l.9-.2,2.5-.8,9.5-2.9,34.9-10.5v.3l-42.8-45.6.4-.2c-.8,7.2-1.7,14.7-2.6,22.3-4.5,37-8.6,70.6-11.8,94.8-1.6,12.1-3,21.9-4,28.6-.6,3.4-1,6-1.4,7.8a17.3,17.3,0,0,1-.4,2,3.1,3.1,0,0,1-.2.7,1.7,1.7,0,0,1,.2-.7c.1-.5.2-1.2.3-2s.7-4.4,1.3-7.8c1-6.8,2.3-16.5,3.8-28.7,3.2-24.2,7.3-57.7,11.7-94.7.9-7.7,1.8-15.1,2.6-22.3V234l.4.4,42.7,45.8.2.2h-.3l-34.9,10.3-9.6,2.8-2.5.7Z" fill="#455a64"/><path d="M187.4,390.8c-.2,0,3.9-33,9.1-73.7s9.5-73.6,9.6-73.6-3.9,33-9.1,73.7S187.5,390.8,187.4,390.8Z" fill="#455a64"/><path d="M200.3,218a7.5,7.5,0,0,1,.8,2.4c.5,1.5,1,3.7,1.5,6s.9,4.5,1.2,6a21.1,21.1,0,0,1,.2,2.5,10.5,10.5,0,0,1-.6-2.4c-.4-1.8-.8-3.8-1.3-6s-1-4.3-1.3-6A18.4,18.4,0,0,1,200.3,218Z" fill="#455a64"/><path d="M202.6,215a1.5,1.5,0,0,1,1.5-.2,1.7,1.7,0,0,1,1,1.3,1.7,1.7,0,0,1-2.8,1.7,1.6,1.6,0,0,1-.4-1.6,1.5,1.5,0,0,1,.6-.9h.4a2.1,2.1,0,0,0-.7,1.1,1.2,1.2,0,0,0,.4,1.1,1.4,1.4,0,0,0,1.5.2,1.4,1.4,0,0,0,.6-1.4,1.1,1.1,0,0,0-.7-1A2.3,2.3,0,0,0,202.6,215Z" fill="#455a64"/><path d="M252.3,284.9a60.4,60.4,0,0,0-5-3.4,57.1,57.1,0,0,0-5.4-2.7,14.7,14.7,0,0,1,5.7,2.2A16.1,16.1,0,0,1,252.3,284.9Z" fill="#455a64"/><path d="M175.2,96.2l-20.5,9.9,8.8,61.6L160,195.4a11,11,0,0,0,3.6,9.5h0l33.2-.6,23.1-12.8,10.7-1.8-4.4-21,2-29.9,24.2,12.9a8.1,8.1,0,0,0,6.1.7l44.4-11.5-2.3-17.1-40.2,4.5-30.6-27L207,96.2l-4.1-6.8H179.6l-1.7,1.3a4.8,4.8,0,0,0-1.7,2.3Z" fill="#06826a"/><path d="M154.7,106.1a24.6,24.6,0,0,0-9.3,12c-2.3,7.2-7.6,36.7-7.6,36.7l-23.3-14.5-13.4,14.2,31,27.3a15.7,15.7,0,0,0,17.3,2.4h0a15.6,15.6,0,0,0,8.8-12.1l3.8-27.9Z" fill="#06826a"/><polygon points="224.6 194.2 223.2 192.1 207.8 194.9 205 201.5 224.6 194.2" fill="#ffbe9d"/><path d="M163.6,204.9c13.7,5.5,28.4,3.5,41.4-3.4,4-2.1,7.6-4.7,11.6-6.8s8.3-3.5,12.8-3.2,8.9,2.7,10.7,6.8,0,9.7-4.2,11.2l1.5,1.3c6.1-2.8,9-11.1,6-17.2s-7.1-7.5-10.7-11.3c-5.2-5.6-5.7-16.4-5.7-24.8" fill="#06826a"/><path d="M193.7,108.1h-1a4.1,4.1,0,0,0-2.4,1.1,5.5,5.5,0,0,0-1.2,3.9,12.3,12.3,0,0,0,1.1,5.3l.4.8-.8-.5a45,45,0,0,1-5.2-4.6,36.6,36.6,0,0,1-7.9-12.2,25.8,25.8,0,0,1-1.3-4.2,8.8,8.8,0,0,1-.2-1.6q.8,2.9,1.8,5.7a42.2,42.2,0,0,0,8,11.9,44.1,44.1,0,0,0,5.1,4.6l-.4.3a14.7,14.7,0,0,1-.8-2.8,8.2,8.2,0,0,1-.2-2.7,5.6,5.6,0,0,1,1.4-4.1,3.6,3.6,0,0,1,2.6-1.1Z" fill="#263238"/><path d="M194.9,108.1c1.7-.7,4.2.3,5.4,1.7s1.3,2.2,2.3,2.8,4.4,1.1,5.4.3.6-2.8.9-4a91.1,91.1,0,0,0,2.3-13.7c-3.3-1.5-2.4-3.6-8.2-3.2a14.3,14.3,0,0,1,.2,8.2" fill="#06826a"/><path d="M203.2,100.2s.2-.8.4-2.2a15.3,15.3,0,0,0-.8-6v-.2h.2a8.9,8.9,0,0,1,4.3.4,6.6,6.6,0,0,1,2,1.4,9,9,0,0,0,2,1.4h.2c-.3,2.5-.6,5.1-1,7.9s-.7,3.5-1.1,5.1-.8,3.3-1.1,4.8h-.1a2.5,2.5,0,0,1-1.7.4h-1.6a8,8,0,0,1-1.5-.3,3.3,3.3,0,0,1-1.3-.7l-1.6-2.1a5.4,5.4,0,0,0-1.5-1.5,7.5,7.5,0,0,0-2.9-.9l-1.1.2a2,2,0,0,1,1.1-.3,5.4,5.4,0,0,1,3,.8,8,8,0,0,1,1.7,1.5c.4.7,1,1.3,1.5,2a6.2,6.2,0,0,0,2.6.9h1.6a2.2,2.2,0,0,0,1.4-.3v.2c.3-1.6.7-3.2,1.1-4.8s.7-3.4,1-5.2a77.6,77.6,0,0,0,1-7.7l.2.2a10.7,10.7,0,0,1-2.2-1.5,5.9,5.9,0,0,0-1.8-1.3,9.4,9.4,0,0,0-4.1-.4l.2-.3a14,14,0,0,1,.5,6.1,4.5,4.5,0,0,1-.3,1.6A1.4,1.4,0,0,1,203.2,100.2Z" fill="#263238"/><path d="M237.4,194.5v-1.1a7.1,7.1,0,0,0-1-3.1,9.6,9.6,0,0,0-3.7-3.5,15.1,15.1,0,0,0-6.5-1.8c-2.6-.3-5.4-.1-8.4-.3a33.5,33.5,0,0,1-9.5-2,19.2,19.2,0,0,1-8.5-6.4,15.1,15.1,0,0,1-2.5-5.1,19.4,19.4,0,0,1-.5-5.9c.1-4,1-7.7,1.6-11.3a92.8,92.8,0,0,0,1-10.6,88,88,0,0,0-4.3-29.7c-.4-1.3-.8-2.4-1.1-3.1a3.1,3.1,0,0,1-.2-.8.4.4,0,0,1-.1-.3v.3a3.4,3.4,0,0,1,.3.8c.3.7.7,1.7,1.2,3.1a77.5,77.5,0,0,1,3.1,11.7,91.2,91.2,0,0,1,1.5,18c-.2,3.6-.5,7.1-1,10.7a80.9,80.9,0,0,0-1.6,11.3,16.1,16.1,0,0,0,2.9,10.6,18.3,18.3,0,0,0,8.3,6.2,29.2,29.2,0,0,0,9.3,2c3,.2,5.8.1,8.4.4a16.1,16.1,0,0,1,6.7,1.9,10.9,10.9,0,0,1,3.7,3.7,6.2,6.2,0,0,1,.9,3.2v1.1Z" fill="#263238"/><path d="M222.4,176.3a4.3,4.3,0,0,1-1.1,1.2,10,10,0,0,1-1.5,1.3l-2,1.7a41.4,41.4,0,0,1-5.5,3.8,55.8,55.8,0,0,1-15.1,6.4c-2.2.5-4.4.9-6.7,1.2l-2.5.3h-3.6l1.6-.2,1.9-.2,2.6-.3c2.2-.4,4.4-.8,6.5-1.4a71.3,71.3,0,0,0,7.8-2.6,71.4,71.4,0,0,0,7.3-3.7,48.1,48.1,0,0,0,5.5-3.7,11.6,11.6,0,0,0,2-1.6l1.5-1.2Z" fill="#263238"/><path d="M216,143.5a1.3,1.3,0,0,1-.1.6l-.3,1.6a21.7,21.7,0,0,1-.7,2.4c-.3.9-.6,2-1.1,3.2a13.4,13.4,0,0,1-.7,1.8,15.4,15.4,0,0,1-.8,1.9c-.6,1.4-1.4,2.7-2.1,4.2a58.1,58.1,0,0,1-13.7,16.3,46.1,46.1,0,0,1-3.8,2.8l-1.7,1.2-1.7,1a28.8,28.8,0,0,1-2.9,1.6l-2.3,1.1-1.5.6-.5.2.5-.3,1.4-.7,2.2-1.2,2.9-1.6,1.7-1,1.7-1.2c1.2-.8,2.4-1.8,3.7-2.8a66.4,66.4,0,0,0,7.5-7.5,71,71,0,0,0,6-8.7c.8-1.5,1.6-2.8,2.2-4.1l.9-1.9.7-1.8a30.7,30.7,0,0,0,1.1-3.2l.8-2.4.4-1.5A1.4,1.4,0,0,1,216,143.5Z" fill="#263238"/><path d="M173.8,209.9a5.9,5.9,0,0,1-1.8-1.3,13.8,13.8,0,0,1-4.2-10,8.3,8.3,0,0,1,.3-2.2c.1,0,0,.9.1,2.2a15.4,15.4,0,0,0,4.1,9.7C173.2,209.3,173.9,209.9,173.8,209.9Z" fill="#263238"/><path d="M173.1,202.1c.1,0-.1,1.4,0,2.9s.6,2.8.5,2.9a5.8,5.8,0,0,1-.5-5.8Z" fill="#263238"/><path d="M163.2,166.3c0-.1-.1-.3-.1-.4s-.1-.9-.2-1.4-.5-3-.9-5c-.7-4.2-1.7-10.1-2.9-16.5s-2.4-12.2-3.2-16.5c-.4-2-.8-3.7-1-5a8.3,8.3,0,0,1-.2-1.3.9.9,0,0,1-.1-.5l.2.5a13,13,0,0,1,.3,1.3l1.2,4.9c1,4.2,2.2,10,3.4,16.5s2.1,12.3,2.7,16.5c.3,2.1.6,3.9.7,5s.1,1,.2,1.4A.7.7,0,0,1,163.2,166.3Z" fill="#263238"/><path d="M227.2,166.3v-7.1c0-4.4.2-10.5.7-17.2s1.2-12.8,1.7-17.2c.3-2.1.5-3.8.7-5.1s.1-1.1.2-1.5a.6.6,0,0,1,.1-.4v.5c0,.3-.1.8-.1,1.4s-.3,3-.5,5.2c-.4,4.4-1,10.4-1.6,17.1s-.7,12.8-.9,17.2c0,2.1-.1,3.9-.1,5.2v1.4A.7.7,0,0,1,227.2,166.3Z" fill="#263238"/><path d="M147.3,168.9c-.2.1-1.5-3.6-4-7.5a41.2,41.2,0,0,0-5.5-6.6,6.4,6.4,0,0,1,2,1.6,25,25,0,0,1,3.9,4.7,27.7,27.7,0,0,1,2.8,5.4A11.3,11.3,0,0,1,147.3,168.9Z" fill="#263238"/><path d="M149,164.5a12.8,12.8,0,0,1-1.1-2,19,19,0,0,0-3.5-4,19.2,19.2,0,0,0-4.6-2.7l-2-1a7.9,7.9,0,0,1,2.2.6,19,19,0,0,1,4.8,2.7,13,13,0,0,1,3.4,4.3A6,6,0,0,1,149,164.5Z" fill="#263238"/><path d="M159.3,140.5l-.2.5-.9,1.1a6.3,6.3,0,0,1-4.9,1.3,9.6,9.6,0,0,1-6.2-4.4,18.7,18.7,0,0,1-2-4,14.3,14.3,0,0,1-.8-2.2,5.4,5.4,0,0,1-.3-2.5,4,4,0,0,1,1.2-2.3,3.3,3.3,0,0,1,2.5-.5,4.8,4.8,0,0,1,3.3,3.2,4.6,4.6,0,0,1-.4,4.1,5.1,5.1,0,0,1-2.9,2.1,4.4,4.4,0,0,1-3-.1,4.6,4.6,0,0,1-1.8-1.3,4.4,4.4,0,0,1-.8-1.1c-.1-.3-.2-.5-.1-.5a4,4,0,0,0,1,1.5,5.8,5.8,0,0,0,1.8,1.1,3.9,3.9,0,0,0,2.8.1,4.9,4.9,0,0,0,2.6-2.1,4,4,0,0,0,.3-3.7,4.7,4.7,0,0,0-3-2.8,2.8,2.8,0,0,0-2,.4,3,3,0,0,0-1,1.9c-.2,1.6.5,3.1,1,4.5a18.7,18.7,0,0,0,2,4,9.3,9.3,0,0,0,5.8,4.3A6,6,0,0,0,158,142,6.4,6.4,0,0,0,159.3,140.5Z" fill="#fafafa"/><path d="M198.6,155.9l-.3.2-.8.7a23.9,23.9,0,0,1-3.4,2.1,10,10,0,0,1-2.9,1,7.1,7.1,0,0,1-3.5-.3,11.9,11.9,0,0,1-6.3-5.6,20.2,20.2,0,0,1,.2-21.2,11.1,11.1,0,0,1,4.7-4.4,5.7,5.7,0,0,1,3.4-.4,4.4,4.4,0,0,1,3,1.7,5.2,5.2,0,0,1,.9,3.4,8,8,0,0,1-1.1,3.4A11.1,11.1,0,0,1,187,141a14.7,14.7,0,0,1-7.2.7,13.8,13.8,0,0,1-6.4-2.6,22.5,22.5,0,0,1-7.6-10.6,12.8,12.8,0,0,1-.9-6.1,7,7,0,0,1,1.2-2.8,4.5,4.5,0,0,1,2.4-1.6,5.5,5.5,0,0,1,5,1.8,5.5,5.5,0,0,1,1.2,4.8,7.6,7.6,0,0,1-2,4,11.1,11.1,0,0,1-3.4,2.2,15.4,15.4,0,0,1-6.4,1l-4-.4-1-.2h0l1.1.2,4,.3a16.5,16.5,0,0,0,6.2-1,10.2,10.2,0,0,0,3.2-2.2,7.3,7.3,0,0,0,2-3.9,5,5,0,0,0-1.2-4.4,4.9,4.9,0,0,0-4.6-1.6,4.6,4.6,0,0,0-3.3,4,12.7,12.7,0,0,0,1,5.8,21.3,21.3,0,0,0,7.4,10.4,13.6,13.6,0,0,0,6.2,2.5,13.1,13.1,0,0,0,6.8-.7,10.2,10.2,0,0,0,5.3-4.3,5.7,5.7,0,0,0,1-3.1,3.9,3.9,0,0,0-.8-3.1,4.1,4.1,0,0,0-2.7-1.5,4.8,4.8,0,0,0-3.1.4,10.1,10.1,0,0,0-4.5,4.2,20.4,20.4,0,0,0-.3,20.8,12.3,12.3,0,0,0,6.2,5.5,8.1,8.1,0,0,0,6.1-.7,17.5,17.5,0,0,0,3.5-2l.8-.6Z" fill="#fafafa"/><path d="M171,99.8l-.3.9a25.3,25.3,0,0,1-1.3,2.2,16.6,16.6,0,0,1-14.8,7.1l-2.6-.4-.9-.4a23.8,23.8,0,0,0,3.5.4,17.1,17.1,0,0,0,14.5-6.9C170.4,101,170.9,99.7,171,99.8Z" fill="#fafafa"/><path d="M185.8,104a9.2,9.2,0,0,0-2.8,1.4,8.3,8.3,0,0,0-1.9,2.6,3.5,3.5,0,0,1,.2-1,4.5,4.5,0,0,1,3.5-3Z" fill="#fafafa"/><path d="M206.9,109.9l-.8-.4a6.3,6.3,0,0,1-1.9-1.7,6.7,6.7,0,0,1-1.4-3.6,2.9,2.9,0,0,1,.6-2.2,2.1,2.1,0,0,1,2.3-1,2.4,2.4,0,0,1,1.8,1.7,2.4,2.4,0,0,1-.4,2.3,3.1,3.1,0,0,1-3.6,1,3.6,3.6,0,0,1-2-1.6,1.8,1.8,0,0,1-.4-.9l.5.8a4.8,4.8,0,0,0,2,1.4,2.9,2.9,0,0,0,3.1-.9,1.8,1.8,0,0,0,.3-1.9,2,2,0,0,0-1.4-1.4,1.8,1.8,0,0,0-1.8.8,2.6,2.6,0,0,0-.5,1.9,6.1,6.1,0,0,0,1.2,3.4A8.8,8.8,0,0,0,206.9,109.9Z" fill="#fafafa"/><path d="M210.9,98.2a15,15,0,0,0-3.3-2.3,17.6,17.6,0,0,0-4-.7,4,4,0,0,1,1.2-.3,7.6,7.6,0,0,1,3,.5,7.2,7.2,0,0,1,2.5,1.8C210.8,97.7,211,98.2,210.9,98.2Z" fill="#fafafa"/><path d="M238.4,109.9h-.2l-.6.3-2.4,1a30.1,30.1,0,0,1-9.4,1.8,16.6,16.6,0,0,1-3.2-.3,7.4,7.4,0,0,1-3.2-1.6,4.7,4.7,0,0,1-1.5-3.4,6.5,6.5,0,0,1,1.3-3.8,7.9,7.9,0,0,1,8-2,9.3,9.3,0,0,1,6.4,6.2,9.2,9.2,0,0,1-1.9,8.7,13.5,13.5,0,0,1-7.4,4,47.8,47.8,0,0,1-7.6.8,34.9,34.9,0,0,0-6.5.6,12.8,12.8,0,0,0-8.1,4.6,8.9,8.9,0,0,0-1.5,3.1v-.2a2,2,0,0,1,.1-.7,10.1,10.1,0,0,1,1.2-2.3,13.2,13.2,0,0,1,8.2-4.9,46,46,0,0,1,6.6-.7,38.2,38.2,0,0,0,7.5-.8,13,13,0,0,0,7.1-3.8,8.8,8.8,0,0,0,1.8-8.2,8.9,8.9,0,0,0-6-5.8,7.2,7.2,0,0,0-7.5,1.8,5.5,5.5,0,0,0-1.2,3.5,4.3,4.3,0,0,0,1.4,3.1,6,6,0,0,0,3,1.4,10.6,10.6,0,0,0,3.1.4,33,33,0,0,0,9.3-1.6l2.4-.9Z" fill="#fafafa"/><path d="M213.5,149.1c-.1,0-.5-.8-1.4-2a10.2,10.2,0,0,0-10.2-3.8l-2.3.6a5.5,5.5,0,0,1,2.2-1,9.9,9.9,0,0,1,10.6,4A6.5,6.5,0,0,1,213.5,149.1Z" fill="#fafafa"/><path d="M225.2,156.7a4.8,4.8,0,0,1-1.4,2,8.4,8.4,0,0,1-11,.9,5.8,5.8,0,0,1-1.7-1.8c.1-.1.7.7,1.9,1.5a9.3,9.3,0,0,0,5.4,1.4,8.9,8.9,0,0,0,5.1-2.3C224.6,157.5,225.1,156.6,225.2,156.7Z" fill="#fafafa"/><path d="M228.2,136.8l-1.7-.6a7.4,7.4,0,0,0-7.7,2.5,16,16,0,0,0-1,1.4,2.9,2.9,0,0,1,.7-1.6,6.9,6.9,0,0,1,8.1-2.6A3.2,3.2,0,0,1,228.2,136.8Z" fill="#fafafa"/><path d="M265.5,127.6c0,.2.1.5.1.7s.1.6.2,1v1.2a13.4,13.4,0,0,1-2.9,7.5,12.1,12.1,0,0,1-4.3,3.5,13.5,13.5,0,0,1-6.2,1.5,16.7,16.7,0,0,1-12.9-6.4,11.1,11.1,0,0,1-1.8-3.4,7.4,7.4,0,0,1,.1-3.9,4.9,4.9,0,0,1,2.3-2.8,5.3,5.3,0,0,1,3.5-.4,5.4,5.4,0,0,1,3,1.5,7.3,7.3,0,0,1,1.7,2.8,9.4,9.4,0,0,1-.1,5.5,11.3,11.3,0,0,1-2.3,4,11.8,11.8,0,0,1-2.8,2.2l-2,.8h-.7l2.7-1.1a10.6,10.6,0,0,0,4.8-6,8,8,0,0,0,0-5.3,6.1,6.1,0,0,0-1.5-2.6,5.7,5.7,0,0,0-2.8-1.4,5,5,0,0,0-3.2.4,4.6,4.6,0,0,0-2.1,2.6,6.9,6.9,0,0,0,0,3.5,8.7,8.7,0,0,0,1.7,3.3,16.7,16.7,0,0,0,12.5,6.2,13.3,13.3,0,0,0,13.2-12C265.7,129.6,265.6,128.6,265.5,127.6Z" fill="#fafafa"/><path d="M273.2,148.3a1.3,1.3,0,0,1-.6-.7,6.5,6.5,0,0,1-1.1-2.2,9.8,9.8,0,0,1-.2-3.8,34.8,34.8,0,0,1,1-4.4,33.8,33.8,0,0,1,3.6-7.4c.6-.8,1-1.6,1.4-2a1.8,1.8,0,0,1,.5-.7,21.9,21.9,0,0,1-1.6,3,37.4,37.4,0,0,0-3.4,7.3c-.4,1.4-.7,2.9-1,4.3a10.9,10.9,0,0,0,0,3.6A10.3,10.3,0,0,0,273.2,148.3Z" fill="#fafafa"/><path d="M292.1,125.3l.3.7a16,16,0,0,1,.5,2.1,18,18,0,0,1-3,13.3,10.9,10.9,0,0,1-1.3,1.7l-.6.5a26.5,26.5,0,0,0,1.6-2.4,19.7,19.7,0,0,0,2.9-13.1C292.3,126.4,292,125.3,292.1,125.3Z" fill="#fafafa"/><path d="M226.7,172.1l-.5-.3-1.2-.6a13.8,13.8,0,0,0-4.9-1.4,15.2,15.2,0,0,0-7.3,1.2,13.1,13.1,0,0,0-3.7,2.4,8.6,8.6,0,0,0-1.4,1.8,3.4,3.4,0,0,0-.5,2.2,3,3,0,0,0,1,1.9,2.4,2.4,0,0,0,2,.1,3.7,3.7,0,0,0,1.9-3.5,7,7,0,0,0-3.7-6,6.9,6.9,0,0,0-4.9-.7l-1.8.6.4-.3,1.3-.5a7.2,7.2,0,0,1,9.2,6.9,5.9,5.9,0,0,1-.5,2.2,3.3,3.3,0,0,1-1.7,1.8,2.8,2.8,0,0,1-2.5-.2,3.2,3.2,0,0,1-1.3-2.2,3.6,3.6,0,0,1,.6-2.5,7,7,0,0,1,1.5-1.9,11.9,11.9,0,0,1,3.8-2.5,14.2,14.2,0,0,1,7.6-1.1A14,14,0,0,1,225,171a3.6,3.6,0,0,1,1.2.8Z" fill="#fafafa"/><path d="M230.3,180.3a7.1,7.1,0,0,1-1.2,2.3c-.8,1.2-1.5,2.1-1.7,2a10.1,10.1,0,0,1,1.2-2.3A11.1,11.1,0,0,1,230.3,180.3Z" fill="#fafafa"/><path d="M243,194.6c-.1,0-.2-.3-.6-.8a5.1,5.1,0,0,0-4.1-2.3h-1a1.8,1.8,0,0,1,1-.3,4.4,4.4,0,0,1,4.4,2.4A2.5,2.5,0,0,1,243,194.6Z" fill="#fafafa"/><path d="M201.7,189.5l-3.2,1.8a29,29,0,0,0-6.8,5.3,15.4,15.4,0,0,0-3.6,7.6,21.7,21.7,0,0,0,.1,3.6,3.2,3.2,0,0,1-.3-.9,8.2,8.2,0,0,1-.1-2.7,13.4,13.4,0,0,1,3.6-8,24.1,24.1,0,0,1,7-5.2l2.3-1.1Z" fill="#fafafa"/><path d="M216.4,194.4a3,3,0,0,1-1.1-1.2,6.5,6.5,0,0,1,.6-7.4,2.6,2.6,0,0,1,1.3-1,5.1,5.1,0,0,0-1,1.2,7,7,0,0,0-.6,7.1A8,8,0,0,0,216.4,194.4Z" fill="#fafafa"/><path d="M193.4,176.3l-.6-.6a4,4,0,0,0-2.1-.9,5,5,0,0,0-3.4.7,11.4,11.4,0,0,0-3.4,3.5c-1,1.6-1.8,3.4-3,5.2a11.6,11.6,0,0,1-5.6,4.1,9.8,9.8,0,0,1-7.5-.5,10.5,10.5,0,0,1-5.6-5.9,6.7,6.7,0,0,1-.2-4.2,6.3,6.3,0,0,1,2.6-3.2,6.6,6.6,0,0,1,3.9-.9,6.1,6.1,0,0,1,3.4,1.7,7.9,7.9,0,0,1,2.7,6.2,10.7,10.7,0,0,1-1.8,5.8,14.6,14.6,0,0,1-3.6,3.4,21.7,21.7,0,0,1-3.5,1.5l-2.3.4h-.8l.8-.2,2.3-.5a14.4,14.4,0,0,0,3.3-1.6,12.3,12.3,0,0,0,3.5-3.3,10.2,10.2,0,0,0,1.7-5.6,7.9,7.9,0,0,0-2.6-5.9,6.3,6.3,0,0,0-3.2-1.5,6,6,0,0,0-3.5.8,5.4,5.4,0,0,0-2.2,6.8,10.6,10.6,0,0,0,5.3,5.7,9.4,9.4,0,0,0,7.2.4,10.9,10.9,0,0,0,5.3-3.9,58.1,58.1,0,0,0,3.1-5.1,11.7,11.7,0,0,1,3.5-3.5,5.3,5.3,0,0,1,3.7-.7,4.1,4.1,0,0,1,2.1,1Z" fill="#fafafa"/><path d="M193.7,191.9a4.8,4.8,0,0,1-1.6-1.3,10.9,10.9,0,0,1-2.7-9.3,3.9,3.9,0,0,1,.6-2,9.1,9.1,0,0,1-.3,2,12.1,12.1,0,0,0,2.7,9C193.2,191.3,193.8,191.8,193.7,191.9Z" fill="#fafafa"/><path d="M197.4,168.8l-2-.8a24.5,24.5,0,0,0-14.4-1.1,19.8,19.8,0,0,0-4.8,1.8,3.8,3.8,0,0,0-1.6,1.9,1.9,1.9,0,0,0,1,2,.9.9,0,0,0,1-.3,2.4,2.4,0,0,0,.6-1.1,12.4,12.4,0,0,0,.3-2.7,13.7,13.7,0,0,0-1.3-4.9,12.5,12.5,0,0,0-2.8-3.6,11.3,11.3,0,0,0-3.5-2,11.6,11.6,0,0,0-5.8-.6,9.1,9.1,0,0,0-2.1.5l.5-.3a12,12,0,0,1,7.5,0,15.8,15.8,0,0,1,3.6,2,11,11,0,0,1,3,3.8,11.5,11.5,0,0,1,1.4,5.1,8.8,8.8,0,0,1-.2,2.8,3.9,3.9,0,0,1-.8,1.4,1.7,1.7,0,0,1-1.5.4,1.9,1.9,0,0,1-1.2-1.1,1.9,1.9,0,0,1-.2-1.5,3.1,3.1,0,0,1,1.8-2.2,18.4,18.4,0,0,1,4.9-1.9,26.7,26.7,0,0,1,8.9-.3,22.1,22.1,0,0,1,5.7,1.7l1.5.7Z" fill="#fafafa"/><path d="M119.5,171.7l1.6-1.5a12.4,12.4,0,0,0,3.1-5,10.7,10.7,0,0,0-.2-8.4,10.3,10.3,0,0,0-3.2-4,9.9,9.9,0,0,0-5-1.9,5.8,5.8,0,0,0-2.6.6,3.2,3.2,0,0,0-1.8,1.8,2.4,2.4,0,0,0,.4,2.3,3.1,3.1,0,0,0,1.8,1.4,5.3,5.3,0,0,0,4.4-.7,8.3,8.3,0,0,0,2.6-3,16.3,16.3,0,0,0,1.3-5.8v-1.6a1.3,1.3,0,0,1,.1-.6v2.2a13.6,13.6,0,0,1-1.1,6,7.6,7.6,0,0,1-2.7,3.2,5.7,5.7,0,0,1-4.7.9,5,5,0,0,1-2.2-1.6,3.1,3.1,0,0,1-.4-2.8,4.1,4.1,0,0,1,2-2.1,7.2,7.2,0,0,1,2.9-.6,9.4,9.4,0,0,1,5.3,2,10.5,10.5,0,0,1,3.3,4.2,9.3,9.3,0,0,1,1,4.7,11.9,11.9,0,0,1-.8,4.1,15,15,0,0,1-3.3,5l-1.3,1Z" fill="#fafafa"/><path d="M140.2,186.6l-.8-.8a23.3,23.3,0,0,1-1.7-2.6,18.7,18.7,0,0,1,1.3-19.6l2-2.4.9-.7c.1.1-1.2,1.2-2.6,3.3A18.9,18.9,0,0,0,138,183C138.7,184.3,139.4,185.4,140.2,186.6Z" fill="#fafafa"/><path d="M159.8,164.8c-.1,0-.6-1.5-1.8-3.7a20.4,20.4,0,0,0-15.8-10.4c-2.5-.3-4.1-.1-4.1-.2l1.1-.2h3A19.7,19.7,0,0,1,158.3,161a13.9,13.9,0,0,1,1.2,2.8Z" fill="#fafafa"/><g opacity="0.3"><path d="M187.1,192.8c-1,.4-.9,2-.1,2.6a4.6,4.6,0,0,0,3,.7,38.4,38.4,0,0,0,29.6-16.7c-9,7.4-20.9,10.2-32.3,12.8"/></g><g opacity="0.3"><path d="M185.3,182.6c-1-1.5-.3-3.6,1-4.9a16.4,16.4,0,0,1,4.6-2.7,29.4,29.4,0,0,0,13.5-13.9c1.8-3.9,3.2-8.7,7.2-10.3a39,39,0,0,1-25.7,30.6"/></g><g opacity="0.3"><path d="M156.9,130.8a102.8,102.8,0,0,1-2.3,32.7,31.1,31.1,0,0,0-1.1,6.9,9.3,9.3,0,0,0,3.3,6.4c1.7-3.8,1.7-7.5,2.4-11.6s1.7-12.4,1.7-12.5c.2-7.6-1.6-14.1-4.6-20.9"/></g><g opacity="0.3"><path d="M175.8,98a40,40,0,0,0,11.3,21.2c2.2,2.1,5,4.1,8,4a19.2,19.2,0,0,1-1.5-11.8,43.6,43.6,0,0,0,8.2,4.5,16.1,16.1,0,0,0,9.2,1l1.9-16.5a2.5,2.5,0,0,0-.2-1.9,1.1,1.1,0,0,0-1.4-.5h-.1a2,2,0,0,0-.4.8c-1.1,4.8-1.7,9.2-2.8,14-.8.8-3.3.5-5-.1s-2-1.7-2.9-2.9-.8-1-2.2-1.6-7.5-.2-8.6,2.1-.2,5.3.5,7.6a34.8,34.8,0,0,1-14.6-20.2"/></g><g opacity="0.3"><path d="M230.3,121.4c-.2.4,6.2,22.1,6.2,22.1l-8.3-4.8Z"/></g><path d="M178.5,58.5V93.1a8.1,8.1,0,0,0,2,5.3h0a24.4,24.4,0,0,0,7,5.8l7,3.9,5.7-5.1a8.5,8.5,0,0,0,2.8-5.9c.1-2.6.1-5,.1-5s9.8-.7,10.7-10.4c.4-4.5.6-13.8.6-22.3a18.8,18.8,0,0,0-17.3-18.9h-.3A18,18,0,0,0,178.5,58Z" fill="#ffbe9d"/><path d="M203,92a23.7,23.7,0,0,1-12.2-4.8s2.5,7.3,12.2,7.3Z" fill="#eb996e"/><path d="M211.4,65.5a1.3,1.3,0,0,1-1.4,1.3,1.4,1.4,0,0,1-1.3-1.4h0a1.3,1.3,0,0,1,1.4-1.3,1.3,1.3,0,0,1,1.3,1.3Z" fill="#263238"/><path d="M211.8,63.2a9.6,9.6,0,0,0-2.6-.8c-1.5-.2-2.6.5-2.8.3s.1-.4.7-.7a3.3,3.3,0,0,1,2.2-.5,4,4,0,0,1,2.1.9C211.8,62.8,211.9,63.1,211.8,63.2Z" fill="#263238"/><path d="M197.5,64.8a1.5,1.5,0,0,1-1.5,1.3,1.5,1.5,0,0,1-1.3-1.4h0a1.5,1.5,0,0,1,1.5-1.3,1.3,1.3,0,0,1,1.3,1.3Z" fill="#263238"/><path d="M197.3,62.2c-.2.2-1.2-.6-2.7-.8s-2.6.6-2.8.4.2-.4.7-.7a4.3,4.3,0,0,1,2.2-.6,4,4,0,0,1,2.1.9C197.2,61.8,197.4,62.2,197.3,62.2Z" fill="#263238"/><path d="M201.7,73.7a10.1,10.1,0,0,1,2.5-.3c.3,0,.7,0,.8-.3a1.4,1.4,0,0,0-.2-1.1c-.2-1-.5-2-.8-3a46.2,46.2,0,0,1-1.9-7.8,66.7,66.7,0,0,1,2.5,7.6c.3,1,.5,2,.8,3a2.6,2.6,0,0,1,.1,1.5c-.2.3-.4.5-.7.5h-.6A10.3,10.3,0,0,1,201.7,73.7Z" fill="#263238"/><path d="M197.3,74.3c.2,0,.1,1.6,1.4,2.9s3,1.2,3,1.4-.4.3-1.2.3a4.7,4.7,0,0,1-2.5-1.1,3.7,3.7,0,0,1-1-2.4C197,74.7,197.2,74.3,197.3,74.3Z" fill="#263238"/><path d="M198.1,56.5c-.2.4-1.6.1-3.4.1s-3.2.4-3.4,0,.2-.5.8-.9a5.9,5.9,0,0,1,5.2-.1C197.9,55.9,198.2,56.3,198.1,56.5Z" fill="#263238"/><path d="M211.6,58.8c-.2.4-1.2-.1-2.5-.2s-2.2,0-2.4-.3.1-.5.5-.8a3.6,3.6,0,0,1,4,.4C211.7,58.3,211.8,58.7,211.6,58.8Z" fill="#263238"/><path d="M189.9,48.8h-.1a7.4,7.4,0,0,0-3.2,4.7v.2c-.6,2.8-.8,5.6-1.4,8.3s-.5,4.7-3.3,5.4a3.5,3.5,0,0,1-3.7-1.6,2.8,2.8,0,0,1-.3-1.3c0-6.6-1.3-9.2-.7-16.2a5.8,5.8,0,0,1,2.8-4.5c1.6-.9,3.4-1.9,5-1s3.4,4.1,4.6,5.5" fill="#263238"/><path d="M181.4,63.1c-.1,0-6.4-2.5-6.8,4.1s6.4,5.6,6.4,5.4S181.4,63.1,181.4,63.1Z" fill="#ffbe9d"/><path d="M179.1,70l-.3.2h-.9a3,3,0,0,1-1.2-2.7,4.9,4.9,0,0,1,.5-1.6,1.1,1.1,0,0,1,.9-.8c.2-.1.5.1.6.3s0,.3.1.4a.6.6,0,0,0,.1-.4.5.5,0,0,0-.2-.4.6.6,0,0,0-.7-.2,1.4,1.4,0,0,0-1.2,1,3.5,3.5,0,0,0-.5,1.8,3.1,3.1,0,0,0,1.5,2.9,1.4,1.4,0,0,0,1.1-.1A.6.6,0,0,0,179.1,70Z" fill="#eb996e"/><path d="M184.6,43.8c-1.4-2.8,3.4-6.2,6.7-7s7.5,1.2,10.7,2.6,3.9,2,6,2a20.3,20.3,0,0,0,4.3-.7,9,9,0,0,1,4.3-.5,3.8,3.8,0,0,1,3.3,2.5,2.5,2.5,0,0,1-1.6,3.1h-.4a3.2,3.2,0,0,1,4.3,1.7,3.3,3.3,0,0,1-1.6,4.3,3.7,3.7,0,0,1-2.3.1c1-.6,2.3.6,2.1,1.8a3.4,3.4,0,0,1-2.5,2.3c-2.8,1-6,.3-8.7-.8s-5.3-2.9-8-4.2-7.3-3.5-10.2-2.7-3.8,2.9-5,2.3a4.4,4.4,0,0,1-1.8-3.2,11.7,11.7,0,0,1,.4-3.7" fill="#263238"/><path d="M218.7,45.8a5.8,5.8,0,0,1-1.1,1.2,8.1,8.1,0,0,1-3.9,2,8.4,8.4,0,0,1-6.2-.7c-2.2-1.2-3.9-3.4-6-5.5a13.1,13.1,0,0,0-7.1-4.1,7.6,7.6,0,0,0-6.5,1.6,6,6,0,0,0-1.8,4.2,2.5,2.5,0,0,0,.2,1.2c0,.1.1.3.1.4s-.1-1.1-.1-1.6a5.4,5.4,0,0,1,1.9-3.8,7.1,7.1,0,0,1,6.1-1.4,12.9,12.9,0,0,1,6.7,4c2,2,3.9,4.2,6.2,5.4a8.8,8.8,0,0,0,10.5-1.6,3.9,3.9,0,0,0,.8-1C218.7,46,218.8,45.8,218.7,45.8Z" fill="#455a64"/><path d="M179.8,62.7a1,1,0,0,0,.5-.6,5.3,5.3,0,0,0,.6-2.4c0-2.1-1.7-4.6-1.7-7.5a6.8,6.8,0,0,1,1.1-3.9,4.6,4.6,0,0,1,2.6-1.9,4.1,4.1,0,0,1,2.2-.1c.6.1.8.3.9.2a2.6,2.6,0,0,0-.8-.5,4.9,4.9,0,0,0-2.4-.1,5.7,5.7,0,0,0-3,2,6.7,6.7,0,0,0-1.2,4.3,10.2,10.2,0,0,0,.9,4.2,10.2,10.2,0,0,1,.9,3.3A5.1,5.1,0,0,1,179.8,62.7Z" fill="#455a64"/></g><g id="freepik--Lines--inject-19"><path d="M336.8,280.1c-2.1-1.3-4.2-2.6-6.4-3.7a120.9,120.9,0,0,0-15.2-6.7,225.6,225.6,0,0,0-25.4-7.8c-7.1-1.7-12.6-2.8-16.4-3.5l-5.8-1,1.5.3,4.3.8c3.7.7,9.3,1.8,16.4,3.6a224,224,0,0,1,25.3,7.8,136.5,136.5,0,0,1,15.1,6.8c2.2,1.1,4.4,2.4,6.5,3.7A.4.4,0,0,1,336.8,280.1Z" fill="#ff4c00"/><path d="M330.6,322.8c-.1-.2-.2-.3-.2-.4a121.7,121.7,0,0,1-18.3,7.6q-12,3.9-24.3,6.6a372.7,372.7,0,0,1-53.6,7,467.7,467.7,0,0,1-58-.3,345.8,345.8,0,0,1-57.3-8.4,186.7,186.7,0,0,1-26.3-8.3c-8.3-3.4-16.3-7.5-22.5-13.4-3.1-3-5.7-6.5-6.7-10.5a12.6,12.6,0,0,1-.3-6.1l.3-1.5a6.4,6.4,0,0,1,.2-.7l.3-.8.5-1.4.8-1.3a32,32,0,0,1,8-8.8,70.6,70.6,0,0,1,9.8-6.2,139.5,139.5,0,0,1,20.4-8.5c6.8-2.2,13.4-3.9,19.8-5.3s12.4-2.6,18.2-3.6l16.4-2.3c10.3-1.2,19.2-1.8,26.5-2.2s12.9-.5,16.8-.5h0l-16.8.5c-7.3.4-16.2,1-26.5,2.1-5.2.6-10.7,1.4-16.5,2.3s-11.9,2-18.2,3.5-13,3.1-19.8,5.3a135.7,135.7,0,0,0-20.5,8.4,83.2,83.2,0,0,0-9.9,6.3,32.6,32.6,0,0,0-8.1,8.9,10,10,0,0,0-.8,1.4l-.6,1.4-.3.8c-.1.2-.1.5-.2.7l-.3,1.6a13.5,13.5,0,0,0,.3,6.3c1,4.1,3.7,7.7,6.8,10.7,6.4,5.9,14.4,10,22.7,13.5a190.9,190.9,0,0,0,26.3,8.3,338,338,0,0,0,57.5,8.5,449,449,0,0,0,58,.2,360.4,360.4,0,0,0,53.7-7,207.9,207.9,0,0,0,24.3-6.6,113.6,113.6,0,0,0,18.4-7.7Z" fill="#ff4c00"/><path d="M125.2,177.7l-1.7.3-4.9,1c-4.4.9-10.8,2.3-18.9,4.5a209.6,209.6,0,0,0-28.8,10.2c-2.7,1.3-5.5,2.6-8.2,4.2a78.1,78.1,0,0,0-8.3,5.3,51.2,51.2,0,0,0-7.7,7,25.3,25.3,0,0,0-5.2,9.5,17.9,17.9,0,0,0,.9,11.2,27.8,27.8,0,0,0,6.9,9.7c5.9,5.7,13.4,10,21.4,13.7,16.1,7.3,34.5,12.2,54,15.9a445.3,445.3,0,0,0,62,6.8,535.2,535.2,0,0,0,67-1.2c22.9-1.9,45.1-5.2,66-10.7a198.2,198.2,0,0,0,30.1-10.4,87.4,87.4,0,0,0,13.5-7.2,52.9,52.9,0,0,0,11.5-9.6c3.2-3.7,5.5-8.3,5.6-13.1a10.8,10.8,0,0,0,0-1.8,11,11,0,0,0-.2-1.8l-.4-1.7a4.9,4.9,0,0,0-.6-1.7,22.7,22.7,0,0,0-3.4-6.1,45,45,0,0,0-10.1-9.4,84.9,84.9,0,0,0-11.7-6.8,166.5,166.5,0,0,0-23.7-9.3c-7.9-2.5-15.5-4.4-22.9-6a439.8,439.8,0,0,0-70.6-9c-8.4-.5-14.9-.5-19.3-.6h0c4.4.1,11,.1,19.3.5a431.1,431.1,0,0,1,70.7,8.8c7.4,1.6,15,3.6,22.9,6a157,157,0,0,1,23.8,9.4,84.4,84.4,0,0,1,11.7,6.7,48.4,48.4,0,0,1,10.3,9.4,32.5,32.5,0,0,1,3.5,6.3,10.9,10.9,0,0,1,.5,1.7l.5,1.8a63625298981325.1,63625298981325.1,0,0,1,.2,3.6,19.5,19.5,0,0,1-1.7,7.2,29.3,29.3,0,0,1-4,6.3,51.2,51.2,0,0,1-11.6,9.7,98.7,98.7,0,0,1-13.6,7.3,203.3,203.3,0,0,1-30.2,10.4,388.1,388.1,0,0,1-66.1,10.8,535.2,535.2,0,0,1-67,1.2,461.2,461.2,0,0,1-62-6.9c-19.6-3.7-38-8.6-54.1-16-8-3.7-15.6-8.1-21.6-13.8a29.8,29.8,0,0,1-7-9.8,18.1,18.1,0,0,1-.8-11.5,24.6,24.6,0,0,1,5.3-9.6,51.9,51.9,0,0,1,7.7-7.1c2.7-1.9,5.5-3.7,8.3-5.3s5.6-2.9,8.3-4.2a199.1,199.1,0,0,1,29-10.1c8.1-2.2,14.5-3.6,18.8-4.4Z" fill="#ff4c00"/><path d="M160.3,328.5l-5,.8c-3.3.6-8.1,1.4-14.3,2.7a189.4,189.4,0,0,0-22,6.2,108.1,108.1,0,0,0-13.1,5.7,55.9,55.9,0,0,0-6.6,4.1,35.2,35.2,0,0,0-6.1,5.4,15.6,15.6,0,0,0-2.4,3.5,14.9,14.9,0,0,0-1.5,4,4.3,4.3,0,0,0-.2,1.1v1.1a16.4,16.4,0,0,0,.2,2.2,9,9,0,0,0,.6,2.2l.4,1,.2.6.3.5a22.4,22.4,0,0,0,6,7,46.8,46.8,0,0,0,8,5.4,103.6,103.6,0,0,0,18.9,7.9,190.2,190.2,0,0,0,21,5.4,311.5,311.5,0,0,0,46.2,5.5,379.1,379.1,0,0,0,50-.9,260.3,260.3,0,0,0,49.3-8.5,123.7,123.7,0,0,0,22.2-8.4,61.4,61.4,0,0,0,9.7-6.2l2.1-1.9,1.9-2.1a16.4,16.4,0,0,0,2.8-4.8,12.8,12.8,0,0,0-.4-10.5,25.3,25.3,0,0,0-6.9-8c-5.5-4.4-11.8-7.3-17.9-9.8a142.7,142.7,0,0,0-18.2-5.8c-5.9-1.5-11.7-2.8-17.2-3.7a348.2,348.2,0,0,0-53-4.9h0a335.8,335.8,0,0,1,53,4.8c5.5,1,11.3,2.1,17.3,3.7a142.7,142.7,0,0,1,18.2,5.8c6.2,2.5,12.4,5.4,18,9.9a23.8,23.8,0,0,1,7,8.1,12.5,12.5,0,0,1,.4,10.7,18.3,18.3,0,0,1-2.8,4.9l-2,2.1c-.7.6-1.3,1.3-2.1,1.9a55,55,0,0,1-9.7,6.2,117.8,117.8,0,0,1-22.3,8.5,256.9,256.9,0,0,1-49.3,8.5,379.1,379.1,0,0,1-50,.9,311.3,311.3,0,0,1-46.3-5.5q-10.7-2.2-21-5.4a112.5,112.5,0,0,1-18.9-7.9,50.2,50.2,0,0,1-8.1-5.5,25.9,25.9,0,0,1-6.1-7.1l-.3-.5-.2-.6-.4-1a19.5,19.5,0,0,1-.6-2.3,8.1,8.1,0,0,1-.1-2.2v-1.1a3.6,3.6,0,0,1,.2-1.1,13.4,13.4,0,0,1,1.5-4.1,17.8,17.8,0,0,1,2.5-3.6,34.7,34.7,0,0,1,6.1-5.4,57.2,57.2,0,0,1,6.7-4.1,100.4,100.4,0,0,1,13-5.7,185.5,185.5,0,0,1,22.1-6.2c6.1-1.3,11-2.1,14.2-2.6Z" fill="#ff4c00"/><path d="M290.8,419a3.6,3.6,0,0,0-.2-1.1,7.5,7.5,0,0,0-.5-1.6c-.9-2.3-3.4-5.2-7.3-7.8-7.9-5.2-21-9.5-37.6-12.2a247.4,247.4,0,0,0-27.3-2.7,254.8,254.8,0,0,0-31.5.6c-5.5.4-11.1,1.1-16.9,2s-11.6,2.1-17.4,3.6c-2.9.8-5.8,1.7-8.7,2.8a70.5,70.5,0,0,0-8.5,3.7,34,34,0,0,0-7.7,5.3,15.7,15.7,0,0,0-3,3.8,8.9,8.9,0,0,0,0,9.2,15.3,15.3,0,0,0,2.9,3.8,32.5,32.5,0,0,0,7.8,5.3,64.2,64.2,0,0,0,8.5,3.7c2.9,1.1,5.8,2,8.7,2.8a167.7,167.7,0,0,0,17.4,3.6,168.8,168.8,0,0,0,16.9,2,254.8,254.8,0,0,0,31.5.6l11.2-.7v-.2c-3.8.3-7.5.6-11.3.7a252.8,252.8,0,0,1-31.4-.5c-5.6-.5-11.2-1.1-16.9-2a168,168,0,0,1-17.4-3.7c-2.9-.8-5.8-1.7-8.7-2.8a57.6,57.6,0,0,1-8.5-3.7,35.8,35.8,0,0,1-7.6-5.3c-2.3-2.1-4.2-5-4.1-8.2s1.9-6.1,4.1-8.2a34,34,0,0,1,7.7-5.3,70.5,70.5,0,0,1,8.5-3.7,72.5,72.5,0,0,1,8.7-2.7,145.4,145.4,0,0,1,17.4-3.7c5.7-.9,11.3-1.6,16.9-2a273.8,273.8,0,0,1,31.4-.6,210.3,210.3,0,0,1,27.3,2.7c16.5,2.6,29.6,7,37.5,12.1,3.9,2.6,6.4,5.5,7.3,7.8a9,9,0,0,1,.8,3.6Z" fill="#ff4c00"/><path d="M282.7,431.4l-1.4.8a.1.1,0,0,1,.1.1l1.3-.9c3.9-2.6,6.4-5.4,7.3-7.7a7.6,7.6,0,0,0,.6-1.6c.1-.4.1-.7.2-1.1v-1a9.5,9.5,0,0,1-.8,3.7C289.1,425.9,286.6,428.8,282.7,431.4Z" fill="#ff4c00"/><path d="M69.9,264.9a3.2,3.2,0,0,1-3.2,3.2,3.2,3.2,0,1,1,0-6.4,3.2,3.2,0,0,1,3.2,3.2Z" fill="#ff4c00"/><path d="M228.4,384.7a3.2,3.2,0,0,1-3.2,3.2,3.2,3.2,0,0,1,0-6.4h0a3.2,3.2,0,0,1,3.2,3.2Z" fill="#ff4c00"/><path d="M131.5,302.7a1.6,1.6,0,0,1-1.6,1.6,1.6,1.6,0,1,1,0-3.2,1.6,1.6,0,0,1,1.6,1.6Z" fill="#ff4c00"/><path d="M330,341.4a1.6,1.6,0,0,1-3.2,0,1.6,1.6,0,0,1,1.6-1.6h0A1.6,1.6,0,0,1,330,341.4Z" fill="#ff4c00"/><path d="M203.9,415.2a1.6,1.6,0,1,1-1.6-1.6h0A1.6,1.6,0,0,1,203.9,415.2Z" fill="#ff4c00"/><circle cx="120.6" cy="135.7" r="0.8" fill="#ff4c00"/><path d="M311.6,260.3a1.6,1.6,0,1,1-1.6-1.6h0A1.6,1.6,0,0,1,311.6,260.3Z" fill="#ff4c00"/></g><g id="freepik--front-screens--inject-19"><path d="M264.6,258.5c-38.8,10.3-76.2,9.5-116.9,0l-4.8-74.4c42.1,8.2,84.4,7.1,121.6-1.8Z" fill="#848383"/><g opacity="0.8"><path d="M264.6,258.5c-38.8,10.3-76.2,9.5-116.9,0l-4.8-74.4c42.1,8.2,84.4,7.1,121.6-1.8Z" fill="#fff"/></g><path d="M258.6,247.2h-.3l-.7.3-2.9,1.2a101.6,101.6,0,0,1-10.7,3.3,142.4,142.4,0,0,1-36.8,4.2,215.7,215.7,0,0,1-36.8-3.9l-11-2.3-3-.7-.8-.2h.8l3,.6,11,2.2a237.9,237.9,0,0,0,36.8,3.8,151.3,151.3,0,0,0,36.7-4c4.6-1.2,8.2-2.4,10.7-3.3l2.9-1,.8-.2C258.3,247.2,258.4,247.2,258.6,247.2Z" fill="#ff4c00"/><path d="M201.6,250.2a24.5,24.5,0,0,1-14.9-.5V223.2a37.4,37.4,0,0,1,14.9,0Z" fill="#ff4c00"/><path d="M225.7,248.7v-.8a18.6,18.6,0,0,0-.1-2.2c0-2-.1-4.8-.1-8.3-.1-7-.3-16.8-.5-28.3l.2.3a39.9,39.9,0,0,0-15.4,0l.2-.3v.6c.2,15.6.3,29.8.4,39.9v-.2a35,35,0,0,0,6.5.8,27,27,0,0,0,4.9-.4l3-.8.7-.3h.3l-.2.2-.8.3a17.1,17.1,0,0,1-3,.9,27.2,27.2,0,0,1-4.9.5,35.1,35.1,0,0,1-6.6-.8H210v-.2c-.1-10.1-.3-24.2-.5-39.9v-.7h.2a40.9,40.9,0,0,1,15.6,0h.2v.2c.1,11.5.2,21.4.2,28.5v11.1Z" fill="#ff4c00"/><path d="M248.6,245.5c-4,2.2-9.2,2.5-14.9,2.2V203.9a31.3,31.3,0,0,1,14.9,0Z" fill="#ff4c00"/><path d="M177.9,248.1v-1.2c-.1-.7,0-1.8-.1-3,0-2.7-.1-6.4-.1-10.8v.2a33.1,33.1,0,0,0-14.3-2.3h0l.2-.3v14.7a28.7,28.7,0,0,0,5.7,1.7l4.6.6,3,.2,1.1.2h-1.1a18.5,18.5,0,0,1-3-.2c-1.2-.1-2.8-.2-4.6-.5a24.6,24.6,0,0,1-5.9-1.6h-.1V230.4h.3a34.4,34.4,0,0,1,14.5,2.5h.2c0,4.5-.1,8.2-.1,10.9a24.5,24.5,0,0,1-.1,3A4.3,4.3,0,0,1,177.9,248.1Z" fill="#ff4c00"/><path d="M184.9,209.3a14.2,14.2,0,0,1-2.9.2c-1.8,0-4.3,0-7.1-.2s-5.2-.4-7-.6l-2.8-.5a14.3,14.3,0,0,1,2.9.1l7,.5,7,.3Z" fill="#ff4c00"/><path d="M182.7,212.6h-2.6l-6.1-.4-6.2-.6a10.1,10.1,0,0,1-2.5-.3,10.5,10.5,0,0,1,2.5,0c1.6,0,3.8.2,6.2.4l6.1.5Z" fill="#ff4c00"/><path d="M188.1,216.9v-1c0-.6.1-1.5.1-2.5s.3-5.5.5-9.4l.2.2a213.3,213.3,0,0,1-27.7-1.5l.3-.3h0v1.7c0,.6-.1,1.1-.1,1.7s-.1,2.2-.2,3.2-.3,4.3-.4,6.3l-.2-.3c8,1,14.9,1.4,19.8,1.6l5.7.2h-5.7a195.5,195.5,0,0,1-19.8-1.5h-.3v-.2c.1-2,.3-4.1.4-6.2s.1-2.2.2-3.3v-3.3h0l.2-.3a234,234,0,0,0,27.7,1.7h.2v.2c-.3,4-.5,7.2-.6,9.5s-.2,1.9-.2,2.5A2.9,2.9,0,0,1,188.1,216.9Z" fill="#ff4c00"/><path d="M191.6,222.5a10.5,10.5,0,0,1-2-2.7,15.9,15.9,0,0,1-1.5-2.9,12.1,12.1,0,0,1,2,2.6A14,14,0,0,1,191.6,222.5Z" fill="#ff4c00"/><path d="M29.6,125.5l12.6,76.7s19.4,36.2,70.8,44.4l-8.3-68.4S57.1,163.4,29.6,125.5Z" fill="#848383"/><g opacity="0.8"><path d="M29.6,125.5l12.6,76.7s19.4,36.2,70.8,44.4l-8.3-68.4S57.1,163.4,29.6,125.5Z" fill="#fff"/></g><path d="M106.3,241.1H106l-1-.2-3.6-1.1c-1.6-.5-3.5-1-5.7-1.9l-3.5-1.4-3.9-1.6c-2.6-1.2-5.6-2.4-8.6-4.1s-6.3-3.6-9.5-5.7a94.1,94.1,0,0,1-19.1-16.5,52.9,52.9,0,0,1-6.9-9.6h0l-5.8-37.5c-.7-4.7-1.3-8.5-1.7-11.1l-.4-3v-.8l.2.8.5,3c.4,2.6,1,6.4,1.8,11l6,37.5h0a58.6,58.6,0,0,0,6.8,9.5,96.3,96.3,0,0,0,19,16.5,97.6,97.6,0,0,0,9.5,5.6l8.6,4.3,3.9,1.6,3.4,1.3a44.2,44.2,0,0,0,5.7,2l3.5,1.2,1,.4Z" fill="#ff4c00"/><path d="M101.8,218.9h-.1l-.6.5L99,221.1l-8.1,6.2h-.2l-9.9-13.7h.3l-7.5,5.4h-.3v-.3l-9.8-26.4L62,188.7h.5l-6.2,12.2-.2.5-.2-.5L43,163.7h.3c-.8,3.5-1.5,6.2-1.9,8l-.5,2.1-.2.6v0a1.5,1.5,0,0,1,.1-.6l.4-2.1c.4-1.9,1-4.6,1.8-8v0c3,8.5,7.7,21.6,13.1,37.1h-.4L62,188.5l.3-.5.2.5,1.4,3.8,9.7,26.5h-.4l7.6-5.3.2-.2v.2l9.8,13.7h-.2l8.2-6.1,2.1-1.6.6-.4Z" fill="#ff4c00"/><path d="M100.1,182.1l-1.1-.2-2.9-.9c-3.1-1.1-6.2-2.3-9.2-3.7a72.9,72.9,0,0,1-8.8-4.5l-2.6-1.6-.9-.6a3.1,3.1,0,0,1,1,.5l2.7,1.4c2.2,1.2,5.3,2.8,8.8,4.4s6.8,2.8,9.2,3.7l2.8,1Z" fill="#ff4c00"/><path d="M102.1,185.3a11.1,11.1,0,0,1-2.5-.5,38.6,38.6,0,0,1-5.8-1.7,55.5,55.5,0,0,1-5.6-2.4,9.4,9.4,0,0,1-2.2-1.2,9.2,9.2,0,0,1,2.3.9l5.7,2.2,5.7,1.9A11.3,11.3,0,0,1,102.1,185.3Z" fill="#ff4c00"/><path d="M81.8,213.6c0,.7-.3,1.2-.8,1.2s-.9-.5-.9-1.2a1,1,0,0,1,.9-1.1C81.4,212.5,81.8,213,81.8,213.6Z" fill="#ff4c00"/><ellipse cx="62.2" cy="189.4" rx="0.9" ry="1.1" fill="#ff4c00"/><path d="M44,164.1c0,.6-.3,1.2-.8,1.2s-.9-.6-.9-1.2a1,1,0,0,1,.9-1.1C43.7,163,44,163.5,44,164.1Z" fill="#ff4c00"/><path d="M364.9,139.2l-6.3,77.9s-18.6,33.3-69.7,34.6l6.3-78.5S339.8,171.4,364.9,139.2Z" fill="#848383"/><path d="M363.9,135.1c-1.6-5.4-5.7-13.1-15.3-14.7L337.3,225.2s21.3-4.2,21.9-15.9c0-1,4.3-53.1,5.4-66A20.8,20.8,0,0,0,363.9,135.1Z" fill="#848383"/><g opacity="0.8"><path d="M364.9,139.2l-6.3,77.9s-18.6,33.3-69.7,34.6l6.3-78.5S339.8,171.4,364.9,139.2Z" fill="#fff"/></g><path d="M363.4,159a46.6,46.6,0,0,0-8.2,25.2c0,2.6.1,5.3-.9,7.7s-3.5,4.4-6,3.7-3.7-3.8-6-5.2a6.8,6.8,0,0,0-6.9.1,11.6,11.6,0,0,0-4.5,5.5c-1.8,4.2-2,9.1-3.3,13.5s-4.7,9-9.4,9.2c-1.7,0-3.4-.5-5.1-.4-3.5.1-6.7,2.7-8.3,6s-2.2,6.8-2.7,10.4c0,0,27.2,2.6,57.8-33.5Z" fill="#ff4c00"/><path d="M320.1,206.3c0,1-.5,1.7-1.1,1.7s-1-.7-1-1.7.4-1.8,1-1.8S320.1,205.3,320.1,206.3Z" fill="#ff4c00"/><path d="M332.9,173.9c0,1-.5,1.8-1.1,1.8s-1-.8-1-1.8.5-1.7,1-1.7S332.9,172.9,332.9,173.9Z" fill="#ff4c00"/><path d="M362.8,162.8l-.2.4-.6,1.3c-.5,1.1-1.3,2.7-2.2,4.8l-8.2,16.9v.2h-.2l-19.2-12.2h.3l-.8,2-12.4,30.4v.2h-.2l-11.4-6.4-3.2-1.7-.8-.4h-.3a24.8,24.8,0,0,1,4.4,2c2.8,1.4,6.7,3.6,11.5,6.2h-.3l12.4-30.5c.2-.6.5-1.3.8-2v-.3l.2.2,19.3,12.2h-.4l8.3-16.8,2.4-4.7.7-1.2A.8.8,0,0,1,362.8,162.8Z" fill="#ff4c00"/></g><path d="M234.4,444.1a21.9,21.9,0,0,1-2.5-14,21.7,21.7,0,0,1,6.5-12.7,22.3,22.3,0,0,1,13-6.1,21.8,21.8,0,0,1,7.2.3,21,21,0,0,1,6.8,2.7,22.5,22.5,0,0,1,9.4,11,20.9,20.9,0,0,1,1.5,7.1,21.7,21.7,0,0,1-.1,3.6l-.3,1.8c-.1.6-.3,1.2-.4,1.8a23.4,23.4,0,0,1-3.1,6.6,24.7,24.7,0,0,1-5,5.2,22,22,0,0,1-13.5,4.3,22.6,22.6,0,0,0,13.2-4.7,23.8,23.8,0,0,0,4.8-5.2,21.5,21.5,0,0,0,2.8-6.4,18.4,18.4,0,0,0,.7-7,20.3,20.3,0,0,0-1.5-6.8,21.9,21.9,0,0,0-9-10.5,21.6,21.6,0,0,0-6.5-2.6,22.9,22.9,0,0,0-6.9-.3,21.4,21.4,0,0,0-12.6,5.8C231.9,424.3,229.9,435.6,234.4,444.1Z" fill="#ff4c00"/><path d="M236.8,434.7a14.7,14.7,0,0,1,.3-8.3,15.3,15.3,0,0,1,4.7-7,13.2,13.2,0,0,1,3.5-2.3,15.1,15.1,0,0,1,4.1-1.3,15.6,15.6,0,0,1,8.3.8,28.7,28.7,0,0,0-4.1-.5,19,19,0,0,0-4.1.4,18.4,18.4,0,0,0-7.1,3.6,16.8,16.8,0,0,0-4.6,6.6,17.2,17.2,0,0,0-1,3.9A14.1,14.1,0,0,0,236.8,434.7Z" fill="#ff4c00"/><path d="M253.9,455.7a22.3,22.3,0,0,1-12.7-4" fill="none" stroke="#ff4c00"/><polygon points="243.8 451.5 241.5 451.9 241.9 454.2 240.7 453.4 240.3 451 242.7 450.6 243.8 451.5" fill="#ff4c00"/><path d="M253.9,411.6a22.1,22.1,0,0,1,0,44.1" fill="none" stroke="#ff4c00"/><path d="M252.8,432.6a2.4,2.4,0,0,1-1,2.1,3.2,3.2,0,0,1-2,.8,2.7,2.7,0,0,1-1.6-.5v6.7h-2.3v-5.8a17.9,17.9,0,0,0-1-6.4l2.3-.8.8,3.5.4.6.8.2h.6l.4-.3h0l.2-.3v-.2l-.3-2.7.4-.2h.5l.6-.2.7-.2c.1,1,.3,1.8.4,2.4A9.9,9.9,0,0,1,252.8,432.6Z" fill="#ff4c00"/><path d="M265.7,434.7l-2.2.8-2,.3a8.9,8.9,0,0,1-3-.6v6.5h-2.2v-5.9c0-1-.1-1.9-.2-3s-.5-2.1-.8-3.3l2.2-.8a19.4,19.4,0,0,1,.5,2c.1.6.3,1.2.4,1.8h.5c.1-2.7,1.4-4,3.7-4a2.3,2.3,0,0,1,1.1.2l1.5.5-1,2.4a2.7,2.7,0,0,0-1.6-.6,1.5,1.5,0,0,0-1.1.4,1.1,1.1,0,0,0-.5.9c0,.5.4.8,1.1.8l1.3-.2,1.5-.7Z" fill="#ff4c00"/><path d="M320.4,303.7l-.7.2-1.6.3a2.9,2.9,0,0,1-2.2-.6,2.5,2.5,0,0,1-1-2.1,17.1,17.1,0,0,1,.3-4.5,19,19,0,0,1,1.8-4.2,2.7,2.7,0,0,1,4.1-.9l1.2,1a2.7,2.7,0,0,1,.8.7,3.4,3.4,0,0,0,2.9.5,3.1,3.1,0,0,0,1.9-2.4c.6-2.2,1.2-4.6,1.7-6.8s.5-2,.7-3h0l.5-2.1,10.2,2.5-2.3,3a6.1,6.1,0,0,0-1.2,4.4,5.5,5.5,0,0,0,2.5,3.5,15.4,15.4,0,0,0,4.4,1.9,13.9,13.9,0,0,0,5,.3,5.2,5.2,0,0,0,3.6-2,5.6,5.6,0,0,0,.9-4.2l-.3-1.7c0-.2-.1-.5-.1-.9l-.3-1.4,10.1,2.4v.9c-.1.1-.1.2-.1.4a1.9,1.9,0,0,1-.2.7l-.6,2.8c-.3,1.1-.5,2.2-.8,3.3s-.5,2.3-.9,3.4a3.5,3.5,0,0,0,.7,3.5,3.1,3.1,0,0,0,3.2.7l2.1-.4a2.5,2.5,0,0,1,3.2,2.6,13.6,13.6,0,0,1-2.1,8.8,3.1,3.1,0,0,1-1.8,1.4,2.8,2.8,0,0,1-2.3-.6l-1.2-.9-.7-.6a3,3,0,0,0-3-.6,3.5,3.5,0,0,0-2,2.5c-.5,2.2-1.1,4.5-1.6,6.7s-.5,2-.7,3l-.5,2-10.2-2.4L345,323l1-1.2a5.7,5.7,0,0,0,1.2-4.4,5.3,5.3,0,0,0-2.5-3.6,14.4,14.4,0,0,0-9.2-2.2,5.2,5.2,0,0,0-3.7,2.1,5.5,5.5,0,0,0-1,4.2l.3,1.7c.1.2.1.5.2.8l.2,1.4-10.2-2.4,1.2-4.9c.5-2.3,1.1-4.6,1.6-6.8a3.5,3.5,0,0,0-.6-3.2A3.2,3.2,0,0,0,320.4,303.7Z" fill="none" stroke="#ff4c00" stroke-width="0.5"/><path d="M335.3,302.9l-.2.7H335c-.4-.1-.6-.2-.7-.4s-.1-.1-.2-.2l-.5-.6a1.4,1.4,0,0,1-1.6.5,1.7,1.7,0,0,1-1-.6,1.4,1.4,0,0,1-.1-1.1.4.4,0,0,1,.1-.3l.3-.4.4-.3.4-.3H332v-.2l.6-.4,1.8,2.9a1.1,1.1,0,0,0,.3.5h0l.4.2Zm-2.2-1.1a.7.7,0,0,0-.1-.5l-.5-.7-.3.2H332l-.4.5a.7.7,0,0,0,.1.5.5.5,0,0,0,.5.3c.1,0,.2.1.3,0h.2C332.9,302.1,333,301.9,333.1,301.8Z" fill="#ff4c00"/><path d="M337.6,302.9a1,1,0,0,1-.5.8c-.2.2-.5.2-.9.2l-1.2-.3v-.8l1.4.3c.2,0,.3-.2.4-.6h0c0-.1.1-.1.1-.2h0a.4.4,0,0,1,.1-.3v-.2l.8.2Zm-.2-2.4c0,.1-.1.2-.2.3h-.5a.5.5,0,0,1-.4-.7.4.4,0,0,1,.6-.3C337.3,300,337.5,300.2,337.4,300.5Z" fill="#ff4c00"/><path d="M341.1,305.1a.9.9,0,0,1-.3.7.9.9,0,0,1-.6.4c-.2.2-.4.2-.7.3h-.7l-1.1-.2v-.8l1,.3h1a1.3,1.3,0,0,0,.6-.7l-.8-.3-.6-.3c-.1-.2-.3-.4-.3-.6s0-.5,0-.7a1.8,1.8,0,0,1,.8-1.2,1.6,1.6,0,0,1,1,0l.7.3a.9.9,0,0,1,.3.7v.6a3.1,3.1,0,0,1-.2.8Zm-.4-1.7c.1-.5,0-.8-.4-.9h-.6c0,.1,0,.2-.1.2s-.1.2-.1.4,0,.5.3.7h.7Z" fill="#ff4c00"/><path d="M345.1,306a1.2,1.2,0,0,1-.8-.5,2.5,2.5,0,0,1-.8,1.4,2.4,2.4,0,0,1-1.7.3l-1-.3v-.7l1.1.2a1,1,0,0,0,.9-.1.7.7,0,0,0,.5-.6l.6-2.4.8.2-.3,1c0,.4.2.6.7.8Zm.1-4.5a.5.5,0,0,1-.2.4c-.1,0-.3.1-.4,0s-.6-.3-.5-.6.3-.4.7-.3S345.3,301.2,345.2,301.5Z" fill="#ff4c00"/><path d="M348.7,305.6a1.2,1.2,0,0,1-.6.8,1.6,1.6,0,0,1-1,.1l-2.3-.6.2-.7,2.3.6h.4c.1-.1.1-.2.2-.4h-1.4a.9.9,0,0,1-.4-1.1,1,1,0,0,1,.6-.8,1.1,1.1,0,0,1,1-.1l.4.2.4.2c.1.2.3.4.3.6a1.1,1.1,0,0,1,0,.8Zm-.7-1c0-.3,0-.5-.1-.6s-.2-.3-.4-.4-.6,0-.6.3-.1.3.1.4l.4.2Zm.5-2.5-.3.3h-.4c-.4-.1-.5-.3-.4-.7s.3-.4.6-.3S348.6,301.8,348.5,302.1Z" fill="#ff4c00"/><path d="M350.4,307.3l-.8-.2,1.2-4.7.7.2Z" fill="#ff4c00"/><path d="M56.1,293.4a6.4,6.4,0,0,0-1.9-4.6l-1.3-1-.6-.5-.5-.4.4-.4a3.2,3.2,0,0,0,.8-2.7v-2.5a5,5,0,0,0-2-4.2.9.9,0,0,1-.3-.6,4.3,4.3,0,0,1,0-1.6V274h.4a3.8,3.8,0,0,0,3-3.8,43.4,43.4,0,0,1,0-5.1v-2.5a2.8,2.8,0,0,0-.1-.9,3.4,3.4,0,0,0-3.5-2.8H38a3.4,3.4,0,0,0-3.5,3.6c-.1,2.6-.1,5.3,0,7.9a3.1,3.1,0,0,0,.1,1,3.4,3.4,0,0,0,3.5,2.6h8.5a1.9,1.9,0,0,1,1.7.8c.1.1.2.3.4.4l1,.9H48a5.1,5.1,0,0,0-5.1,4.3,20.1,20.1,0,0,0-.1,2.5,4.1,4.1,0,0,1,0,1.1v.2a1.9,1.9,0,0,0,.1.8,11.2,11.2,0,0,0,.5,1.3.8.8,0,0,1,.2.5l.3.4-.9.6h0a6.1,6.1,0,0,0-3.1,4.7,19.3,19.3,0,0,0-.1,2.4v1.5a.8.8,0,0,0,.2.6H55.9a1,1,0,0,0,.2-.7v-2.9Zm-6.9-18.6-.3-.3-.5-.6a2,2,0,0,0-1.6-.6H38.2a2.8,2.8,0,0,1-3.1-3.1v-7.7a2.7,2.7,0,0,1,2.9-2.9c4.2-.1,8.3-.1,12.5,0a2.7,2.7,0,0,1,2.9,2.5v.8H47.7c-.1,0-.3,0-.3.3a.3.3,0,0,0,.3.3h5.7v6.8a2.7,2.7,0,0,1-2.9,3c-.4,0-.5.1-.5.5v1.8Zm-5.7,9.6v-3.3a4.4,4.4,0,0,1,4-4.4,4.6,4.6,0,0,1,4.8,3.5,5.7,5.7,0,0,1,.1,1.3v2.9a2.3,2.3,0,0,1-2.4,2.4H45.9A2.3,2.3,0,0,1,43.5,284.4Zm11.9,11.9h-15v-.5a2.8,2.8,0,0,0,0-1.3,9.6,9.6,0,0,1,.3-2.9,5.9,5.9,0,0,1,5.5-4.1h3.4a5.7,5.7,0,0,1,5.8,5.7v3.1Z" fill="#ff4c00"/><path d="M35.3,293.2a6.6,6.6,0,0,0-5.1-6.2h-.6l-1-.2.4-.6a4.9,4.9,0,0,0,1.1-3.1v-.3a16.1,16.1,0,0,0,0-3.1,3.3,3.3,0,0,0-3.5-3.5H22c-.5,0-.6,0-.6.5v6.3a4.5,4.5,0,0,0,1,3,.3.3,0,0,1,.1.2l.2.6-.7.2h-.3a6.7,6.7,0,0,0-5.4,5.7v3.7c0,.4,0,.6.2.7H35.1a.8.8,0,0,0,.2-.6v-3.2ZM22.1,276.7h4.8a2.7,2.7,0,0,1,2.5,2.2,3.8,3.8,0,0,1,.1,1v.6l-.2.2a.5.5,0,0,1-.4.2H23.8a1.8,1.8,0,0,1-1.7-1.7v-2.4Zm0,6.6v-2h7.3v.4a3.9,3.9,0,0,1-2.7,4.8h-.9a3.4,3.4,0,0,1-2.2-.7A3.6,3.6,0,0,1,22.1,283.3Zm6.1,4.2L25.7,290l-2.4-2.5Zm6.4,7.4v1.4H16.9v-1.6a8.3,8.3,0,0,1,.8-4.3,6,6,0,0,1,3.8-2.8,1.1,1.1,0,0,1,1.2.4l1.9,1.8.7.7c.5.5.5.5,1,0l.7-.6,1.9-2a1.1,1.1,0,0,1,1.1-.3,5.8,5.8,0,0,1,4.6,5.2Z" fill="#ff4c00"/><path d="M22.4,270.8a.9.9,0,0,1,.7.9v1.5c0,.3.1.4.2.4s.2.1.4-.2l.9-.8,1.1-1.2a1.4,1.4,0,0,1,1.3-.5h3.7c.2,0,.3-.1.3-.2a.2.2,0,0,0,0-.3c0-.1-.1-.2-.4-.2H26.4a.6.6,0,0,0-.6.3,6,6,0,0,0-.8.8l-1.3,1.3v-1.9c0-.4-.1-.5-.5-.5a2.7,2.7,0,0,1-2.9-3v-7.8a2.7,2.7,0,0,1,3-2.9h9.4c.2-.1.2-.2.2-.3s0-.3-.1-.3H23.2a3.5,3.5,0,0,0-3.6,3.6v7.9A3.5,3.5,0,0,0,22.4,270.8Z" fill="#ff4c00"/><path d="M35.9,256.5h0a.5.5,0,0,0,.3-.3v-.3h-.5v.2A.4.4,0,0,0,35.9,256.5Z" fill="#ff4c00"/><path d="M44.3,262.9h0c-.2,0-.4.1-.4.3s.1.1.1.2h.3a.3.3,0,0,0,.3-.3A.3.3,0,0,0,44.3,262.9Z" fill="#ff4c00"/><circle cx="298.3" cy="424.1" r="3.2" fill="#ff4c00"/></svg>