<?xml version="1.0" encoding="utf-8"?>
<!-- Generator: Adobe Illustrator 24.0.1, SVG Export Plug-In . SVG Version: 6.00 Build 0)  -->
<svg version="1.1" xmlns="http://www.w3.org/2000/svg" xmlns:xlink="http://www.w3.org/1999/xlink" x="0px" y="0px"
	 viewBox="0 0 642.5 432.7" style="enable-background:new 0 0 642.5 432.7;" xml:space="preserve">
<style type="text/css">
	.st0{fill:#F5F5F5;}
	.st1{fill:#E0E0E0;}
	.st2{fill:#EBEBEB;}
	.st3{fill:#FAFAFA;}
	.st4{fill:#263238;}
	.st5{fill:#FF4C00;}
	.st6{opacity:0.3;}
	.st7{fill:#455A64;}
	.st8{clip-path:url(#SVGID_2_);}
	.st9{opacity:0.8;}
	.st10{opacity:0.7;}
	.st11{opacity:0.5;}
	.st12{opacity:0.1;}
	.st13{opacity:0.6;}
	.st14{fill:#FFFFFF;}
	.st15{fill:#FFBE9D;}
	.st16{clip-path:url(#SVGID_4_);}
</style>
<g id="Layer_1">
	<g id="freepik--background-complete--inject-2">
		<rect x="217" y="333.8" class="st0" width="130.1" height="60"/>
		<path class="st1" d="M344,391H220v-54h124V391z M220.7,390.2h122.4v-52.4H220.7V390.2z"/>
		<rect x="347.1" y="333.8" class="st1" width="31.8" height="60"/>
		<path class="st1" d="M220.3,353.7h123.2c0.1,0,0.1-0.1,0.1-0.2c0-0.1-0.1-0.1-0.1-0.1H220.3c-0.1,0-0.1,0.1-0.1,0.2
			C220.2,353.6,220.3,353.7,220.3,353.7z"/>
		<path class="st1" d="M282.3,353.5c0.3-5.4,0.4-10.9,0-16.3c0-0.1-0.1-0.2-0.2-0.2c-0.1,0-0.2,0.1-0.2,0.2
			c-0.3,5.4-0.3,10.9,0,16.3c0,0.1,0.1,0.1,0.1,0.1C282.3,353.6,282.3,353.6,282.3,353.5C282.3,353.5,282.3,353.5,282.3,353.5
			L282.3,353.5z"/>
		<path class="st1" d="M315.5,345.4c0,0.9-0.8,1.7-1.7,1.7c-0.9,0-1.7-0.8-1.7-1.7c0-0.9,0.8-1.7,1.7-1.7l0,0
			C314.8,343.7,315.5,344.4,315.5,345.4z"/>
		<path class="st1" d="M250.8,345.4c0,0.9-0.8,1.7-1.7,1.7c-0.9,0-1.7-0.8-1.7-1.7c0-0.9,0.8-1.7,1.7-1.7c0,0,0,0,0,0
			C250.1,343.7,250.8,344.4,250.8,345.4z"/>
		<path class="st1" d="M283.6,364c0,0.9-0.8,1.7-1.7,1.7c-0.9,0-1.7-0.8-1.7-1.7c0-0.9,0.8-1.7,1.7-1.7l0,0
			C282.9,362.3,283.6,363,283.6,364z"/>
		<polygon class="st1" points="232.5,393.8 225.8,431.5 229.6,431.5 241.9,393.8 		"/>
		<polygon class="st1" points="337.9,393.8 343.5,431.5 339.7,431.5 328.4,393.8 		"/>
		<polygon class="st1" points="363,393.8 369.4,431.5 365.6,431.5 353.6,393.8 		"/>
		<path class="st1" d="M283.5,380.9c0,0.9-0.8,1.7-1.7,1.7c-0.9,0-1.7-0.8-1.7-1.7c0-0.9,0.8-1.7,1.7-1.7l0,0
			C282.8,379.3,283.5,380,283.5,380.9z"/>
		<path class="st1" d="M220.3,372.3h123.2c0.1,0,0.1-0.1,0.1-0.2c0-0.1-0.1-0.1-0.1-0.1H220.3c-0.1,0-0.1,0.1-0.1,0.2
			C220.2,372.2,220.3,372.2,220.3,372.3z"/>
		<rect y="25.4" class="st2" width="82.3" height="110.3"/>
		<rect x="4.3" y="29.8" class="st3" width="73.7" height="101.7"/>
		<rect x="28.2" y="64.9" class="st2" width="28.1" height="32.1"/>
		<rect x="570.8" y="152.3" class="st2" width="71.6" height="53.4"/>
		<rect x="573.6" y="155.1" class="st3" width="66" height="47.9"/>
		<rect x="596.5" y="169.2" class="st2" width="20.9" height="18.3"/>
		<polygon class="st2" points="302.4,299.7 298.9,332.7 344.5,332.7 348.2,299.7 		"/>
		<polygon class="st3" points="304.3,302.1 300.9,331 342,331 345.3,302.1 		"/>
		<polygon class="st1" points="311.2,306.9 309.1,326.1 335.1,326.1 336.4,306.9 		"/>
		<polyline class="st0" points="346.6,313.9 356,332.8 344.5,332.7 346.8,312.7 		"/>
	</g>
	<g id="freepik--Floor--inject-2">
		<path class="st4" d="M638.7,431.8c0,0.1-140.9,0.3-314.6,0.3S9.4,431.9,9.4,431.8s140.8-0.3,314.6-0.3S638.7,431.7,638.7,431.8z"
			/>
	</g>
	<g id="freepik--Plants--inject-2">
		<path class="st4" d="M64,404.4c0-0.2,0.1-0.3,0.2-0.4l0.6-1.3c0.7-1.6,1.3-3.3,1.8-5.1c1.2-4.5,1.6-11.4-0.2-19.5
			c-0.9-4.4-2.1-8.8-3.6-13.1c-1.5-4.7-3.3-9.6-4.8-14.9c-1.6-5.6-2.4-11.4-2.3-17.2c0.2-6.1,2-12.1,4-18.2s4-12,4.6-17.9
			c0.7-5.7-0.4-11.5-3.2-16.5c-2.6-4.8-5.9-9-8.4-13.2c-2.3-4-4-8.2-5-12.7c-1.5-6.5-1.6-13.2-0.3-19.7c0.4-2.4,1.1-4.7,2-7
			c0,0.2-0.1,0.3-0.1,0.5l-0.4,1.3c-0.5,1.7-0.9,3.4-1.3,5.2c-1.2,6.5-1,13.2,0.5,19.6c1,4.4,2.7,8.6,5,12.6
			c2.5,4.2,5.8,8.3,8.4,13.2c2.9,5.1,4.1,11,3.4,16.9c-0.6,6-2.7,12-4.7,18s-3.8,12-4,18c-0.1,5.7,0.7,11.5,2.3,17
			c1.4,5.3,3.2,10.3,4.7,14.9c1.5,4.3,2.7,8.7,3.6,13.2c1.7,8.2,1.2,15.2,0,19.7c-0.5,1.7-1.1,3.4-1.9,5.1c-0.3,0.5-0.5,0.9-0.7,1.2
			C64.2,404.1,64.1,404.2,64,404.4z"/>
		<path class="st5" d="M55.9,271.2c0,0-5-16,4-25.4c0.2-0.2,0.5-0.3,0.8-0.1c0.1,0.1,0.2,0.2,0.2,0.4
			C61.3,248.7,61.9,256.8,55.9,271.2z"/>
		<path class="st4" d="M58.9,251.1c0,1-0.1,2-0.3,3c-0.3,2-0.7,4.4-1.1,7.1s-0.8,5-1.1,7.1c-0.1,1-0.3,2-0.5,2.9c-0.1-1-0.1-2,0.1-3
			c0.2-1.8,0.5-4.4,0.9-7.1s0.9-5.3,1.3-7C58.3,253.1,58.5,252.1,58.9,251.1z"/>
		<path class="st5" d="M61.8,308.9c0,0,3.1-16.5,15.4-20.6c0.3-0.1,0.6,0,0.7,0.3c0,0.1,0,0.2,0,0.4C77.1,291.6,73.8,299,61.8,308.9
			z"/>
		<path class="st4" d="M73.8,292.6c-0.5,0.9-1,1.7-1.7,2.5l-4.3,5.7l-4.3,5.7c-0.5,0.8-1.2,1.6-1.8,2.3c0.4-0.9,0.9-1.8,1.5-2.6
			c1-1.5,2.5-3.6,4.2-5.9s3.3-4.2,4.5-5.6C72.4,294,73.1,293.3,73.8,292.6z"/>
		<path class="st5" d="M58.5,350.3c0,0-1.9-16.7,8.8-24.2c0.2-0.2,0.6-0.1,0.8,0.1c0.1,0.1,0.1,0.2,0.1,0.3
			C68.1,329.3,67.1,337.3,58.5,350.3z"/>
		<path class="st4" d="M65.2,331.2c-0.2,1-0.5,1.9-0.9,2.8l-2.5,6.7c-0.9,2.5-1.7,4.8-2.4,6.7c-0.3,1-0.6,1.9-1.1,2.8
			c0.1-1,0.3-2,0.7-2.9c0.5-1.8,1.3-4.2,2.3-6.8s1.9-5,2.6-6.7C64.3,333,64.7,332.1,65.2,331.2z"/>
		<path class="st5" d="M67.7,391.9c0,0-1.3-16.7,9.6-23.8c0.3-0.2,0.6-0.1,0.8,0.1c0.1,0.1,0.1,0.2,0.1,0.3
			C78.1,371.3,76.9,379.3,67.7,391.9z"/>
		<path class="st4" d="M75.2,373.1c-0.2,1-0.6,1.9-1,2.8c-0.8,1.9-1.7,4.1-2.7,6.6l-2.7,6.6c-0.3,0.9-0.7,1.9-1.2,2.7
			c0.1-1,0.4-2,0.8-2.9c0.6-1.7,1.5-4.1,2.5-6.7s2.1-4.9,2.9-6.6C74.2,374.8,74.6,373.9,75.2,373.1z"/>
		<path class="st5" d="M48.7,257.1c0,0-14.9-7.8-15.2-20.8c0-0.3,0.2-0.6,0.5-0.6c0.1,0,0.2,0,0.3,0.1
			C36.6,237.4,42.8,242.7,48.7,257.1z"/>
		<path class="st4" d="M36.6,240.8c0.7,0.7,1.3,1.5,1.8,2.3l4.2,5.8l4.2,5.8c0.6,0.8,1.2,1.6,1.7,2.4c-0.8-0.6-1.4-1.4-2-2.2
			c-1.2-1.4-2.7-3.4-4.4-5.7s-3.1-4.4-4-5.9C37.6,242.6,37.1,241.7,36.6,240.8z"/>
		<path class="st5" d="M64.7,291.5c0,0-15.3-6.9-16.4-19.8c0-0.3,0.2-0.6,0.5-0.6c0.1,0,0.2,0,0.3,0.1
			C51.4,272.6,57.9,277.5,64.7,291.5z"/>
		<path class="st4" d="M51.6,276c0.7,0.7,1.4,1.4,2,2.2c1.3,1.6,2.8,3.5,4.5,5.5l4.6,5.5c0.7,0.7,1.3,1.5,1.8,2.3
			c-0.8-0.6-1.5-1.2-2.2-2c-1.3-1.3-2.9-3.2-4.7-5.4s-3.3-4.2-4.4-5.7C52.6,277.7,52.1,276.9,51.6,276z"/>
		<path class="st5" d="M55.9,329.9c0,0-10.5-13.1-5.6-25.1c0.1-0.3,0.4-0.4,0.7-0.3c0.1,0,0.2,0.1,0.3,0.3
			C52.7,307,56.2,314.2,55.9,329.9z"/>
		<path class="st4" d="M51.3,310.1c0.4,0.9,0.6,1.9,0.8,2.9c0.4,2,0.9,4.4,1.5,7s1.1,5,1.5,7c0.3,1,0.5,1.9,0.6,2.9
			c-0.4-0.9-0.8-1.8-1-2.8c-0.5-1.8-1.1-4.2-1.7-7s-1-5.2-1.3-7C51.4,312.1,51.3,311.1,51.3,310.1z"/>
		<path class="st5" d="M66.3,375c0,0-15.2-7.1-16.1-20.1c0-0.3,0.2-0.6,0.5-0.6c0.1,0,0.2,0,0.3,0.1C53.4,355.8,59.7,360.8,66.3,375
			z"/>
		<path class="st4" d="M53.5,359.3c0.7,0.7,1.4,1.4,2,2.2l4.4,5.6l4.5,5.6c0.7,0.7,1.3,1.5,1.8,2.4c-0.8-0.6-1.6-1.3-2.2-2.1
			c-1.2-1.4-2.9-3.3-4.6-5.5s-3.2-4.2-4.3-5.7C54.5,361,53.9,360.1,53.5,359.3z"/>
		<path class="st4" d="M96.6,309c0,0.1,0,0.2,0,0.4c0,0.3,0,0.6,0,1.1c0,1-0.1,2.4-0.2,4.1c-0.2,3.6-0.5,8.6-0.8,14.5l0,0l0,0
			c-1.1,6.1-4.2,12.8-8.3,19.3c-3,4.8-6.2,9.2-9,13.3c-2.5,3.6-4.8,7.3-6.8,11.1c-1.3,2.6-2.4,5.4-3.2,8.2c-0.3,1-0.5,1.8-0.6,2.3
			c0,0.3-0.1,0.5-0.2,0.8c0-0.3,0-0.6,0.1-0.8c0.1-0.5,0.2-1.3,0.5-2.4c0.7-2.9,1.7-5.6,3-8.3c1.9-3.9,4.2-7.7,6.7-11.3
			c2.7-4.1,5.9-8.5,8.9-13.3c4.1-6.5,7.2-13.1,8.3-19.1l0,0c0.4-6,0.8-10.9,1-14.5c0.1-1.7,0.2-3,0.3-4.1c0-0.4,0.1-0.8,0.1-1.1
			S96.5,309,96.6,309z"/>
		<path class="st5" d="M87.5,347.2c0,0,6.4-15.5-1.7-25.6c-0.2-0.3-0.5-0.3-0.8-0.2c-0.1,0.1-0.2,0.2-0.2,0.4
			C84.2,324.3,82.8,332.3,87.5,347.2z"/>
		<path class="st4" d="M86.3,326.9c0.3,1,0.4,1.9,0.5,2.9c0.2,1.8,0.5,4.4,0.7,7.1s0.3,5.3,0.3,7.2c0.1,1,0,2-0.2,3
			c-0.2-1-0.3-2-0.3-3c-0.1-2.1-0.3-4.5-0.5-7.1s-0.3-5.1-0.5-7.1C86.3,328.9,86.3,327.9,86.3,326.9z"/>
		<g class="st6">
			<path d="M87.5,347.2c0,0,6.4-15.5-1.7-25.6c-0.2-0.3-0.5-0.3-0.8-0.2c-0.1,0.1-0.2,0.2-0.2,0.4C84.2,324.3,82.8,332.3,87.5,347.2
				z"/>
		</g>
		<path class="st5" d="M67.6,384.5c0,0,5.2-16-3.7-25.4c-0.2-0.2-0.5-0.3-0.8-0.1c-0.1,0.1-0.2,0.2-0.2,0.4
			C62.4,362,61.7,370.1,67.6,384.5z"/>
		<path class="st4" d="M64.8,364.5c0.4,0.9,0.6,1.9,0.8,2.9c0.4,1.8,0.8,4.3,1.3,7s0.7,5.3,0.9,7.1c0.2,1,0.2,2,0.1,3
			c-0.3-1-0.4-1.9-0.5-2.9c-0.3-2-0.7-4.4-1-7.1s-0.8-5-1.1-7.1C64.9,366.5,64.8,365.5,64.8,364.5z"/>
		<g class="st6">
			<path d="M67.6,384.5c0,0,5.2-16-3.7-25.4c-0.2-0.2-0.5-0.3-0.8-0.1c-0.1,0.1-0.2,0.2-0.2,0.4C62.4,362,61.7,370.1,67.6,384.5z"/>
		</g>
		<path class="st5" d="M95.7,328.3c0,0,13.8-9.6,12.4-22.5c0-0.3-0.3-0.5-0.6-0.5c-0.1,0-0.2,0.1-0.3,0.1
			C105.1,307.2,99.8,313.2,95.7,328.3z"/>
		<g class="st6">
			<path d="M95.7,328.3c0,0,13.8-9.6,12.4-22.5c0-0.3-0.3-0.5-0.6-0.5c-0.1,0-0.2,0.1-0.3,0.1C105.1,307.2,99.8,313.2,95.7,328.3z"
				/>
		</g>
		<path class="st4" d="M105.6,310.5c-0.3,1-0.7,1.9-1.1,2.8c-0.8,1.7-1.9,3.9-3.3,6.4s-2.6,4.7-3.6,6.2c-0.5,0.9-1.1,1.7-1.8,2.4
			c0.4-0.9,0.8-1.8,1.4-2.6l3.4-6.3l3.4-6.3C104.5,312.2,105,311.3,105.6,310.5z"/>
		<path class="st5" d="M73.1,368.7c0,0,16.6-2.6,21-14.8c0.1-0.3,0-0.6-0.3-0.7c-0.1,0-0.2,0-0.3,0
			C90.9,353.9,83.4,356.9,73.1,368.7z"/>
		<g class="st6">
			<path d="M73.1,368.7c0,0,16.6-2.6,21-14.8c0.1-0.3,0-0.6-0.3-0.7c-0.1,0-0.2,0-0.3,0C90.9,353.9,83.4,356.9,73.1,368.7z"/>
		</g>
		<path class="st4" d="M89.8,357.1c-0.7,0.7-1.4,1.4-2.2,2c-1.4,1.1-3.4,2.7-5.7,4.3s-4.4,3-6,4c-0.8,0.6-1.7,1-2.6,1.4
			c0.7-0.7,1.5-1.3,2.4-1.8l5.8-4.1l5.8-4.1C88,358.2,88.9,357.6,89.8,357.1z"/>
		<polygon class="st7" points="57.3,399.2 52.5,431.7 82.6,431.7 78.7,399.2 		"/>
		<path class="st4" d="M79.9,409.3c0,0.2-5.4,0.3-12.2,0.3s-12.2-0.1-12.2-0.3S61,409,67.8,409S79.9,409.1,79.9,409.3z"/>
		<path class="st4" d="M80.5,411.9c0,0.2-5.6,0.3-12.5,0.3s-12.6-0.1-12.6-0.3s5.6-0.3,12.6-0.3S80.5,411.7,80.5,411.9z"/>
		<path class="st5" d="M617,388.2c-2.1,0.6-4,2.1-5,4c-1,2-1.6,4.1-1.7,6.4c-0.3,4.3,1.4,8.9,3.4,12.7c4.1-2.5,5.8-7.7,6.5-10.4
			C621.4,396.6,620.8,388.2,617,388.2"/>
		<path class="st5" d="M608.4,417.5c0.9-2.4,0.5-5-1.1-7c-1.6-1.9-3.9-3.1-6.4-3.3c-1.1-0.2-2.3,0.1-3.2,0.8c-0.7,0.8-0.9,2-0.6,3
			c0.4,1,1,1.9,1.8,2.6C601.7,416.1,604.8,417.9,608.4,417.5"/>
		<path class="st4" d="M610.8,431.2c0-0.3,0-0.6,0-0.9c0-0.6,0-1.4,0-2.4c0-2.7-0.3-5.3-1.1-7.9c-0.8-2.5-2.4-4.8-4.4-6.6
			c-0.6-0.5-1.3-1-2-1.3c-0.3-0.1-0.5-0.2-0.6-0.3l-0.2-0.1c1,0.5,1.9,1.1,2.7,1.8c1.9,1.8,3.4,4,4.2,6.5c0.8,2.5,1.2,5.1,1.2,7.8
			c0,1,0.1,1.8,0.1,2.4C610.7,430.6,610.7,430.9,610.8,431.2z"/>
		<path class="st4" d="M616.9,394.6c0,0.1-0.1,0.2-0.1,0.4l-0.3,1.1c-0.2,0.9-0.5,2.3-0.8,4c-0.7,3.3-1.6,8-2.4,13.1
			s-1.5,9.8-2,13.2c-0.2,1.7-0.4,3.1-0.5,4c0,0.5-0.1,0.8-0.1,1.1c0,0.1,0,0.3,0,0.4c0-0.1,0.1-0.3,0.1-0.4c0-0.3,0.1-0.6,0.2-1.1
			c0.2-1,0.3-2.3,0.6-4c0.5-3.4,1.2-8,2-13.2s1.7-9.8,2.3-13.1c0.3-1.6,0.6-3,0.8-4c0.1-0.4,0.1-0.8,0.2-1.1
			S616.9,394.6,616.9,394.6z"/>
		<path class="st5" d="M614.1,421.1c1.7-5,5.8-8.9,10.9-10.4c1.3-0.4,2.9-0.5,3.7,0.6s0.3,2.6-0.3,3.7c-3,4.8-8.6,7.4-14.2,6.4"/>
		<path class="st4" d="M623.8,414.6c-0.3,0-0.5,0.1-0.8,0.2c-0.3,0.1-0.6,0.2-0.9,0.3c-0.4,0.1-0.8,0.3-1.2,0.5
			c-0.5,0.2-0.9,0.5-1.4,0.7c-0.5,0.3-1,0.6-1.5,1c-1.1,0.8-2.1,1.7-3,2.8c-0.9,1.1-1.7,2.2-2.3,3.4c-0.3,0.5-0.5,1.1-0.7,1.7
			c-0.2,0.5-0.4,1-0.5,1.5c-0.1,0.5-0.2,0.9-0.3,1.3c-0.1,0.3-0.1,0.7-0.1,1c0,0.3,0,0.6,0,0.8c0.1,0,0.2-1.2,0.7-3
			c0.1-0.5,0.3-1,0.5-1.5c0.2-0.6,0.4-1.1,0.7-1.6c1.2-2.4,3-4.5,5.2-6.1c0.5-0.4,1-0.7,1.5-1c0.4-0.3,0.9-0.5,1.3-0.7
			C622.6,415,623.8,414.7,623.8,414.6z"/>
	</g>
</g>
<g id="Layer_3">
	<g id="freepik--Loading--inject-2">
		<rect x="99.1" y="0.2" class="st2" width="376.3" height="247.7"/>
		<path class="st4" d="M475.4,248c0-1.7-0.1-96.6-0.2-247.7l0.2,0.2H99.1l0,0l0.3-0.3c0,88.1,0,172,0,247.7l-0.2-0.2L475.4,248
			l-376.2,0.2h-0.2v-0.2c0-75.7,0-159.6,0-247.7V0h0.3l376.2,0.1h0.2v0.2C475.4,151.4,475.4,246.3,475.4,248z"/>
		<path class="st4" d="M475.4,22.4c0,0.1-84.2,0.3-188.1,0.3S99.1,22.5,99.1,22.4s84.2-0.3,188.1-0.3S475.4,22.2,475.4,22.4z"/>
		<rect x="134.2" y="59" class="st1" width="315.4" height="43.2"/>
		<rect x="128.8" y="175.7" class="st1" width="70" height="70"/>
		<rect x="211.5" y="175.7" class="st1" width="70" height="70"/>
		<rect x="291.9" y="175.7" class="st1" width="70" height="70"/>
		<path class="st5" d="M254,148h-75.9c-6.4,0-11.6-5.2-11.6-11.6l0,0c0-6.4,5.2-11.5,11.6-11.5H254c6.4,0,11.6,5.2,11.6,11.6v0l0,0
			C265.5,142.8,260.4,148,254,148z"/>
		<path class="st4" d="M342.7,148l1-0.1c0.4,0,0.8-0.1,1.3-0.2c4.5-0.9,8-4.5,8.9-9c0.5-2.8,0.1-5.6-1.3-8.1
			c-1.7-2.9-4.6-4.9-7.9-5.5c-1.9-0.2-3.7-0.2-5.6-0.2h-6h-13L178,125c-6.2,0-11.3,5-11.4,11.2c0,6,4.6,11,10.6,11.4
			c1.6,0.1,3.3,0,4.9,0h37.7l63.9,0.1l43.1,0.1l11.7,0.1h3h1h-1h-3l-11.7,0.1l-43.1,0.1h-63.9h-37.7c-1.6,0-3.3,0-4.9,0
			c-1.7-0.1-3.4-0.6-4.9-1.4c-5.7-3.1-7.9-10.3-4.8-16c2.1-3.8,6.1-6.2,10.4-6.2l142.1,0.1h13h6c1.9-0.1,3.8,0,5.6,0.2
			c6.4,1.1,10.6,7.2,9.5,13.5c0,0.1,0,0.2-0.1,0.4c-0.5,2.2-1.6,4.3-3.2,5.9c-1.2,1.2-2.6,2.1-4.2,2.6c-0.6,0.2-1.1,0.4-1.7,0.5
			c-0.5,0.1-0.9,0.1-1.3,0.2L342.7,148z"/>
		<path class="st4" d="M238.7,161.6c0-0.3,0.2-0.6,0.6-0.6c0,0,0,0,0,0c0.3,0,0.5,0.2,0.5,0.5c0,0,0,0,0,0c0,0.3-0.2,0.6-0.6,0.6
			c0,0,0,0,0,0C239,162.2,238.7,161.9,238.7,161.6C238.7,161.6,238.7,161.6,238.7,161.6z"/>
		<path class="st4" d="M240.7,161.6c0-0.3,0.2-0.6,0.6-0.6c0,0,0,0,0,0c0.3,0,0.5,0.2,0.5,0.5c0,0,0,0,0,0c0,0.3-0.2,0.6-0.6,0.6
			c0,0,0,0,0,0C241,162.2,240.7,161.9,240.7,161.6C240.7,161.6,240.7,161.6,240.7,161.6z"/>
		<path class="st4" d="M242.7,161.6c0-0.3,0.3-0.6,0.6-0.6c0,0,0,0,0,0c0.3,0,0.5,0.2,0.5,0.5c0,0,0,0,0,0c0,0.3-0.2,0.6-0.6,0.6
			c0,0,0,0,0,0C242.9,162.2,242.7,161.9,242.7,161.6z"/>
		<path class="st4" d="M113.4,12.4c0,1.5-1.2,2.8-2.8,2.8c-1.5,0-2.8-1.2-2.8-2.8c0-1.5,1.2-2.8,2.8-2.8l0,0
			C112.2,9.6,113.4,10.9,113.4,12.4z"/>
		<path class="st4" d="M125.2,12.4c0,1.5-1.2,2.8-2.8,2.8c-1.5,0-2.8-1.2-2.8-2.8c0-1.5,1.2-2.8,2.8-2.8l0,0
			C124,9.6,125.2,10.9,125.2,12.4z"/>
		<path class="st4" d="M136.9,12.4c0,1.5-1.2,2.8-2.8,2.8c-1.5,0-2.8-1.2-2.8-2.8c0-1.5,1.2-2.8,2.8-2.8c0,0,0,0,0,0
			C135.7,9.6,136.9,10.9,136.9,12.4z"/>
		<g>
			<path class="st4" d="M245.6,163.9c-0.8-0.4-1.2-1.1-1.3-2c0-0.4,0-0.8,0.2-1.2c0.1-0.3,0.2-0.7,0.4-1c0-0.1,0.1-0.1,0.2-0.1
				c0.1,0,0.2,0,0.2,0c0.1,0,0.1,0.1,0.2,0.2c0,0.1,0,0.2,0,0.2c-0.4,0.7-0.5,1.4-0.5,2c0,0.7,0.3,1.2,0.9,1.5
				c0.5,0.3,1.1,0.3,1.8,0.2s1.2-0.4,1.5-0.9c0.1-0.1,0.1-0.2,0.2-0.2c0,0,0,0,0-0.1c0,0,0,0,0,0c0,0,0,0,0,0c0,0,0,0,0,0
				c0,0-0.1,0-0.1,0c-0.1,0-0.2,0-0.4-0.1l-0.2,0c-0.1,0-0.2,0-0.2,0c-0.2,0-0.3-0.1-0.4-0.1c-0.2-0.1-0.4-0.2-0.5-0.4
				c-0.1-0.1-0.1-0.3-0.1-0.4c0-0.3,0.1-0.7,0.3-1c0.2-0.3,0.4-0.6,0.7-0.9c0.3-0.3,0.6-0.5,0.9-0.6c0.3-0.1,0.7-0.2,1-0.2
				c0.1,0,0.2,0,0.2,0.1c0.1,0.1,0.1,0.1,0.1,0.2c0,0.1,0,0.1-0.1,0.2c-0.1,0.1-0.1,0.1-0.2,0.1c-0.2,0-0.5,0-0.7,0.1
				c-0.3,0.1-0.5,0.3-0.7,0.5c-0.5,0.4-0.7,0.9-0.7,1.4c0,0.1,0.1,0.2,0.2,0.3c0.1,0.1,0.4,0.1,0.7,0.1c0.3,0,0.5,0.1,0.6,0.1l0,0
				l0,0c0,0,0,0,0.1,0c0.1,0,0.1,0,0.1,0.1c0.1,0.1,0.2,0.2,0.3,0.3c0.1,0.1,0.1,0.3,0,0.5c-0.1,0.1-0.1,0.3-0.3,0.4
				c-0.4,0.6-1.1,0.9-1.9,1.1c-0.3,0.1-0.5,0.1-0.8,0.1C246.5,164.2,246.1,164.1,245.6,163.9z"/>
			<path class="st4" d="M250.5,164.1c0-0.1,0-0.1,0-0.2c0-0.1,0.1-0.1,0.1-0.2c0.7-0.4,1.2-0.8,1.5-1.4c0.4-0.7,0.6-1.6,0.6-2.8
				c0-0.1,0-0.2,0.1-0.2c0.1-0.1,0.1-0.1,0.2-0.1c0.1,0,0.2,0,0.2,0.1c0.1,0.1,0.1,0.1,0.1,0.2c0,1.3-0.2,2.3-0.6,3.1
				c-0.4,0.7-1,1.3-1.8,1.7c0,0-0.1,0-0.1,0C250.6,164.3,250.5,164.2,250.5,164.1z"/>
			<path class="st4" d="M254.4,161.6c-0.1,0-0.2,0-0.2-0.1c-0.1-0.1-0.1-0.1-0.1-0.2c0.1-0.9,0.1-1.8,0.1-2.7c0-0.6-0.1-1.5-0.2-2.7
				c0-0.1,0-0.2,0.1-0.2c0.1-0.1,0.1-0.1,0.2-0.1c0.1,0,0.2,0,0.2,0.1c0.1,0.1,0.1,0.1,0.1,0.2c0.2,2.4,0.3,4.2,0.1,5.5
				c0,0.1,0,0.1-0.1,0.2C254.5,161.6,254.5,161.6,254.4,161.6L254.4,161.6z"/>
			<path class="st4" d="M259.7,160.9c0.1,0,0.2,0,0.2,0.1c0.1,0.1,0.1,0.1,0.1,0.2c0,0.1,0,0.2-0.1,0.2s-0.1,0.1-0.2,0.1
				c-0.2,0-0.4-0.1-0.6-0.2c-0.2-0.1-0.4-0.3-0.6-0.6c-0.1,0.1-0.2,0.2-0.3,0.3c-0.3,0.2-0.6,0.4-1,0.4c-0.1,0-0.2,0-0.3,0
				c-0.3,0-0.6-0.1-0.9-0.2c-0.1,0-0.1-0.1-0.2-0.2s0-0.2,0-0.2c0-0.1,0.1-0.1,0.2-0.2c0.1,0,0.2,0,0.2,0c0.3,0.1,0.7,0.2,1,0.1
				c0.3,0,0.5-0.1,0.7-0.3c0.1-0.1,0.2-0.2,0.3-0.4c0.1-0.1,0.1-0.3,0.1-0.4c-0.1-0.5-0.2-0.9-0.3-1.5c0-0.2-0.1-0.3-0.1-0.5l0-0.1
				c0,0,0,0,0-0.1l0,0l0,0v0c0-0.1,0-0.2,0-0.2c0-0.1,0.1-0.1,0.2-0.1c0.1,0,0.2,0,0.2,0c0.1,0,0.1,0.1,0.1,0.2l0,0l0,0
				c0,0,0,0,0,0.1l0,0.1c0,0.1,0.1,0.3,0.1,0.5c0.1,0.5,0.2,1,0.3,1.5c0.1,0.4,0.3,0.8,0.5,1c0.1,0.1,0.2,0.2,0.3,0.2
				C259.5,160.9,259.5,160.9,259.7,160.9C259.6,160.9,259.6,160.9,259.7,160.9z M258.3,155.9c0,0.1,0,0.2-0.1,0.3
				c-0.1,0.1-0.2,0.1-0.3,0.1c-0.1,0-0.2,0-0.4-0.1c-0.1-0.1-0.1-0.2-0.1-0.3c0-0.1,0.1-0.2,0.2-0.3c0.1-0.1,0.2-0.2,0.3-0.2
				s0.2,0,0.3,0.1C258.2,155.7,258.3,155.8,258.3,155.9z"/>
			<path class="st4" d="M259.7,161.5c-0.1,0-0.2,0-0.2-0.1s-0.1-0.1-0.1-0.2c0-0.1,0-0.2,0.1-0.2c0.1-0.1,0.1-0.1,0.2-0.1h0.2l0.2,0
				c0.1,0,0.3,0,0.4,0c0.3,0,0.5-0.1,0.7-0.1c0.4-0.1,0.7-0.3,0.9-0.7c0.2-0.3,0-0.8-0.4-1.3c-0.4-0.5-0.8-0.9-1.3-1.1
				c-0.1,0-0.1-0.1-0.1-0.2s0-0.2,0-0.2c0-0.1,0.1-0.1,0.2-0.1c0.1,0,0.2,0,0.2,0c0.2,0.1,0.5,0.3,0.7,0.5c0.3,0.2,0.6,0.5,0.8,0.8
				c0.6,0.7,0.8,1.4,0.5,2c-0.2,0.5-0.7,0.8-1.3,1c-0.2,0.1-0.5,0.1-0.8,0.1c-0.1,0-0.3,0-0.4,0l-0.2,0H259.7z M259.5,156.7
				c0-0.1,0-0.2,0-0.2c0-0.1,0.1-0.1,0.2-0.2c1.6-0.6,2.9-1.2,3.8-2c0.1-0.1,0.1-0.1,0.2-0.1c0.1,0,0.1,0,0.2,0.1
				c0.1,0.1,0.1,0.1,0.1,0.2c0,0.1,0,0.2-0.1,0.2c-0.6,0.5-1.2,0.9-1.9,1.3c-0.5,0.2-1.2,0.5-2,0.8c0,0-0.1,0-0.1,0
				C259.6,156.9,259.5,156.9,259.5,156.7z M259.9,155.3C259.9,155.3,259.9,155.2,259.9,155.3c0-0.1,0-0.1,0-0.2
				c0-0.1,0.1-0.1,0.1-0.1c0.6-0.2,1.4-0.6,2.2-1.1c0,0,0.1,0,0.1,0c0,0,0,0,0.1,0c0.1,0,0.1,0,0.1,0.1c0,0,0,0.1,0,0.1
				c0,0,0,0,0,0.1c0,0.1,0,0.1-0.1,0.1c-0.8,0.5-1.6,0.9-2.2,1.1c0,0-0.1,0-0.1,0C260,155.4,259.9,155.4,259.9,155.3z"/>
			<path class="st4" d="M263.7,164.1c0-0.1,0-0.1,0-0.2c0-0.1,0.1-0.1,0.1-0.2c0.7-0.4,1.2-0.8,1.5-1.4c0.4-0.7,0.6-1.6,0.6-2.8
				c0-0.1,0-0.2,0.1-0.2c0.1-0.1,0.1-0.1,0.2-0.1c0.1,0,0.2,0,0.2,0.1c0.1,0.1,0.1,0.1,0.1,0.2c0,1.3-0.2,2.3-0.6,3.1
				c-0.4,0.7-1,1.3-1.8,1.7c0,0-0.1,0-0.1,0C263.8,164.3,263.7,164.2,263.7,164.1z"/>
			<path class="st4" d="M268.7,161.5c-0.1,0-0.1,0-0.2,0c-0.2,0-0.3,0-0.4-0.1c-0.4-0.1-0.6-0.4-0.7-0.8c0-0.2-0.1-0.8-0.1-1.8v-0.4
				V158c0-0.3,0-0.5,0-0.7c0-0.5,0-1-0.1-1.3c0-0.1,0-0.2,0.1-0.2c0-0.1,0.1-0.1,0.2-0.1c0.1,0,0.2,0,0.2,0.1c0.1,0,0.1,0.1,0.1,0.2
				c0.1,0.3,0.1,0.8,0.1,1.3c0,0.2,0,0.5,0,0.7v1.3c0,0.2,0,0.4,0,0.5c0,0.3,0,0.6,0,0.7c0,0.2,0.1,0.3,0.3,0.4
				c0.1,0,0.3,0.1,0.6,0.1c0.1,0,0.1,0,0.2,0.1c0.1,0.1,0.1,0.1,0.1,0.2c0,0.1,0,0.2-0.1,0.2c-0.1,0.1-0.1,0.1-0.2,0.1H268.7z"/>
			<path class="st4" d="M268.9,161.5c-0.1,0-0.2,0-0.2-0.1c-0.1-0.1-0.1-0.1-0.1-0.2c0-0.1,0-0.2,0.1-0.2c0.1-0.1,0.1-0.1,0.2-0.1
				c0.5,0,0.8,0,1-0.1c0.3-0.1,0.5-0.2,0.6-0.4c0.1-0.2,0.1-0.4,0-0.8c-0.1-0.4-0.2-0.7-0.4-1.1c0-0.1,0-0.1,0-0.2s0.1-0.1,0.2-0.2
				c0.1,0,0.2,0,0.2,0s0.1,0.1,0.2,0.2c0.2,0.4,0.4,0.9,0.4,1.3c0.1,0.5,0.1,0.9-0.1,1.2c-0.2,0.3-0.5,0.6-1,0.7
				c-0.2,0-0.4,0.1-0.6,0.1c-0.1,0-0.2,0-0.3,0H268.9z M270.5,162.9c0,0.1,0,0.2-0.1,0.3c-0.1,0.1-0.2,0.1-0.3,0.1
				c-0.1,0-0.2,0-0.4-0.1c-0.1-0.1-0.1-0.2-0.1-0.3c0-0.1,0-0.2,0.1-0.3c0.1-0.1,0.2-0.2,0.3-0.2c0.1,0,0.2,0,0.3,0.1
				C270.4,162.7,270.5,162.8,270.5,162.9z"/>
			<path class="st4" d="M275.4,164c-0.6,0-1.1-0.1-1.4-0.5c-0.5-0.4-0.8-1-0.8-1.7c0-0.3,0-0.6,0.1-1c0.1-0.3,0.2-0.5,0.3-0.8
				c0-0.1,0.1-0.1,0.2-0.2c0.1,0,0.2,0,0.2,0s0.1,0.1,0.2,0.2c0,0.1,0,0.2,0,0.2c-0.1,0.2-0.1,0.4-0.2,0.6c-0.1,0.3-0.1,0.5-0.1,0.7
				c0,0.6,0.1,1.1,0.5,1.4c0.3,0.2,0.7,0.3,1.2,0.3c0.5,0,0.9-0.1,1.2-0.4c0.3-0.2,0.5-0.6,0.6-1.1c0-0.2,0-0.4,0-0.7
				c0-0.1,0-0.2,0-0.4l0-0.2l0-0.2c0-0.2,0-0.4,0-0.5c0-0.6-0.1-1.4-0.2-2.5c0-0.3-0.1-0.7-0.1-1.1c0-0.1,0-0.2,0-0.3
				c0,0,0-0.1,0-0.1v0l0,0v0c0-0.1,0-0.2,0.1-0.2c0.1-0.1,0.1-0.1,0.2-0.1c0.1,0,0.2,0,0.2,0.1c0.1,0.1,0.1,0.1,0.1,0.2v0
				c0,0,0,0,0,0c0,0,0,0.1,0,0.1c0,0.1,0,0.2,0,0.3c0,0.4,0.1,0.7,0.1,1.1c0.1,1.1,0.1,1.9,0.2,2.5c0,0.1,0,0.3,0,0.5l0,0.4
				c0,0.1,0,0.3,0,0.4c0,0.3,0,0.6,0,0.8c-0.1,0.6-0.3,1.1-0.8,1.5c-0.4,0.3-0.9,0.5-1.5,0.5H275.4z"/>
			<path class="st4" d="M280.1,161.5c-0.1,0-0.1,0-0.2,0c-0.2,0-0.3,0-0.4-0.1c-0.4-0.1-0.6-0.4-0.7-0.8c0-0.2-0.1-0.8-0.1-1.8v-0.4
				V158c0-0.3,0-0.5,0-0.7c0-0.5,0-1-0.1-1.3c0-0.1,0-0.2,0.1-0.2c0-0.1,0.1-0.1,0.2-0.1c0.1,0,0.2,0,0.2,0.1c0.1,0,0.1,0.1,0.1,0.2
				c0.1,0.3,0.1,0.8,0.1,1.3c0,0.2,0,0.5,0,0.7v1.3c0,0.2,0,0.4,0,0.5c0,0.3,0,0.6,0,0.7c0,0.2,0.1,0.3,0.3,0.4
				c0.1,0,0.3,0.1,0.6,0.1c0.1,0,0.1,0,0.2,0.1c0.1,0.1,0.1,0.1,0.1,0.2c0,0.1,0,0.2-0.1,0.2c-0.1,0.1-0.1,0.1-0.2,0.1H280.1z"/>
			<path class="st4" d="M280,161.4c-0.1-0.1-0.1-0.1-0.1-0.2c0-0.1,0-0.2,0.1-0.2c0.1-0.1,0.1-0.1,0.2-0.1c0.9,0,1.7-0.1,2.6-0.3
				c1-0.3,1.8-0.7,2.4-1.2c-0.2-0.1-0.5-0.1-0.7-0.2c-0.3-0.1-0.5-0.1-0.8-0.2c-0.5-0.1-0.8-0.2-1.1-0.2c-0.1,0-0.2,0-0.3,0
				c-0.1,0-0.1,0-0.1,0c-0.2,0.1-0.4,0.1-0.5,0.3c-0.1,0.1-0.1,0.3-0.2,0.6c0,0.1-0.1,0.1-0.1,0.2c-0.1,0-0.1,0.1-0.2,0
				c-0.1,0-0.1-0.1-0.2-0.1s-0.1-0.1,0-0.2c0.1-0.4,0.2-0.7,0.3-0.8c0.2-0.2,0.5-0.4,0.8-0.5c0.1,0,0.3,0,0.5,0
				c0.3,0,0.7,0.1,1.2,0.2c0.3,0.1,0.6,0.2,1,0.3c0.1,0,0.3,0.1,0.4,0.1c0.1,0,0.1,0,0.2,0.1l0.1,0l0.1,0c0.1,0,0.1,0,0.1,0
				c0.1,0,0.2,0.1,0.2,0.2c0,0.1,0,0.2-0.1,0.3c-0.6,0.7-1.6,1.2-2.7,1.6c-1,0.3-2,0.4-3,0.4C280.1,161.5,280.1,161.5,280,161.4z"/>
			<path class="st4" d="M287.5,164.1c0-0.1,0-0.1,0-0.2c0-0.1,0.1-0.1,0.1-0.2c0.7-0.4,1.2-0.8,1.5-1.4c0.4-0.7,0.6-1.6,0.6-2.8
				c0-0.1,0-0.2,0.1-0.2c0.1-0.1,0.1-0.1,0.2-0.1c0.1,0,0.2,0,0.2,0.1c0.1,0.1,0.1,0.1,0.1,0.2c0,1.3-0.2,2.3-0.6,3.1
				c-0.4,0.7-1,1.3-1.8,1.7c0,0-0.1,0-0.1,0C287.7,164.3,287.6,164.2,287.5,164.1z"/>
			<path class="st4" d="M291.1,161.3c-0.1,0-0.1-0.1-0.2-0.1c0-0.1,0-0.2,0-0.2c0-0.1,0.1-0.1,0.1-0.2c0.1,0,0.1,0,0.2,0
				c0.6,0.2,1.1,0.2,1.5,0.1c0.4-0.1,0.7-0.3,0.9-0.6c0-0.1,0-0.2,0-0.3c-0.1-0.2-0.2-0.4-0.3-0.6c-0.4-0.5-0.8-1-1.4-1.4
				c-0.1,0-0.1-0.1-0.1-0.2c0-0.1,0-0.2,0.1-0.2c0-0.1,0.1-0.1,0.2-0.1c0.1,0,0.2,0,0.2,0c0.6,0.4,1.1,0.9,1.5,1.5
				c0.2,0.3,0.3,0.5,0.4,0.7c0.1,0.3,0.1,0.6,0,0.8c-0.2,0.5-0.6,0.9-1.3,1c-0.2,0-0.4,0.1-0.6,0.1
				C291.9,161.5,291.5,161.4,291.1,161.3z"/>
		</g>
	</g>
</g>
<g id="Layer_2">
	<g id="freepik--Character--inject-2">
		<circle class="st0" cx="426.3" cy="137" r="131.3"/>
		<g>
			<g>
				<path class="st4" d="M369.2,243.5c-1.1-1.1-1.6-2.3-1.7-3.4c0-1.1,0.5-2.1,1.5-2.9c0.3-0.3,0.7-0.6,1.2-0.8
					c0.4-0.2,0.7-0.3,1-0.4c0.3-0.1,0.7-0.1,1,0.1c0.3,0.2,0.6,0.4,0.7,0.7c0.2,0.3,0.2,0.6,0,0.9c-0.1,0.3-0.4,0.5-0.7,0.6
					c-0.5,0.1-0.9,0.4-1.3,0.8c-0.5,0.4-0.8,0.9-0.8,1.4c0,0.5,0.4,1.1,1.1,1.8c0.6,0.6,1.4,1.1,2.2,1.5c2.2,1.1,4.1,1.6,5.7,1.5
					c1.5,0,2.8-0.6,3.9-1.6c0.2-0.2,0.5-0.3,0.8-0.3c0.3,0,0.6,0.1,0.9,0.3c0.3,0.2,0.5,0.4,0.6,0.7c0.1,0.3,0.1,0.6,0,0.8
					c0,0,0,0,0,0.1c0,0.1,0,0.1-0.1,0.1c0,0.1,0,0.1-0.1,0.2c-0.1,0.1-0.1,0.2-0.1,0.3c-0.1,0.2-0.2,0.5-0.3,0.6
					c-0.1,0.5-0.2,0.9,0,1.2c0.1,0.2,0.4,0.4,0.7,0.7c0.3,0.2,0.6,0.3,1,0.4c0.4,0.1,0.6,0.3,0.8,0.6c0.2,0.3,0.2,0.6,0.1,0.9
					c-0.1,0.3-0.3,0.5-0.6,0.7c-0.3,0.1-0.7,0.1-1.1,0c-1.7-0.6-2.9-1.5-3.4-2.6c-0.2-0.3-0.3-0.7-0.3-1c-0.7,0.2-1.4,0.3-2.2,0.4
					c-2,0.1-4.4-0.5-7.2-1.8C371.2,245.2,370.1,244.4,369.2,243.5z M374.9,239.3c-0.1-0.2-0.2-0.4-0.2-0.6c0-0.3,0.1-0.5,0.3-0.7
					c0.2-0.2,0.5-0.3,0.8-0.2c0.7,0,1.5,0.2,2.5,0.5c0.7,0.2,1.5,0.6,2.4,1.1c0.3,0.2,0.5,0.4,0.5,0.7c0.1,0.3,0,0.6-0.1,0.8
					s-0.4,0.4-0.7,0.4c-0.3,0.1-0.6,0-0.9-0.2c-0.7-0.4-1.3-0.7-1.7-0.8c-0.7-0.2-1.4-0.3-2-0.4c-0.2,0-0.3-0.1-0.5-0.1
					C375.2,239.6,375,239.5,374.9,239.3z"/>
				<path class="st4" d="M384.8,250.2c-0.2-0.3-0.2-0.6-0.1-0.9c0.1-0.3,0.3-0.5,0.7-0.7c0.3-0.1,0.7-0.1,1,0
					c0.6,0.2,1.1,0.4,1.4,0.5c-0.2-0.8-0.2-1.5,0-2.2c0.3-0.8,0.8-1.4,1.6-1.8c0.8-0.4,1.7-0.6,2.6-0.6c1,0,1.9,0.3,2.8,0.8
					c0.6,0.3,1.1,0.8,1.7,1.5c0.2,0.3,0.3,0.6,0.3,0.9c0,0.3-0.2,0.6-0.5,0.8c-0.3,0.2-0.6,0.3-1,0.2c-0.4-0.1-0.7-0.2-0.9-0.5
					c-0.4-0.5-0.8-0.8-1.1-1c-0.4-0.2-0.8-0.3-1.2-0.3c-0.4,0-0.7,0.1-1,0.2c-0.4,0.2-0.6,0.4-0.7,0.8c-0.1,0.3-0.1,0.6,0.1,1
					c0.2,0.3,0.4,0.6,0.8,0.9c0.5,0.3,1.1,0.5,1.8,0.6c0.3,0.1,0.6,0.1,1,0.1c0.2,0,0.3,0,0.5,0c0.2,0,0.3,0,0.5,0
					c0.4,0,0.7,0.2,1,0.4c0.3,0.2,0.4,0.5,0.4,0.8c0,0.3-0.1,0.6-0.3,0.8c-0.3,0.2-0.6,0.3-0.9,0.3c-1.6,0-3.1-0.2-4.7-0.6
					c-1.1-0.2-2.8-0.7-5-1.5C385.3,250.8,385,250.6,384.8,250.2z"/>
				<path class="st4" d="M394.7,259.1c-0.2-0.3-0.2-0.6,0-0.9c0.2-0.3,0.4-0.5,0.8-0.6c0.1,0,0.1,0,0.3-0.1c0.1,0,0.1,0,0.2,0
					c0.1,0,0.1,0,0.2,0c0.1,0,0.3-0.1,0.4-0.1c0.3-0.1,0.6-0.2,0.9-0.3c0.7-0.3,1.4-0.7,1.9-1.1c1.5-1.2,2.4-3,2.6-5.3
					c0-0.3,0.2-0.6,0.5-0.8c0.3-0.2,0.6-0.3,1-0.2c0.4,0,0.7,0.2,0.9,0.5c0.2,0.3,0.3,0.5,0.3,0.9c0,0.6,0,1.1,0.1,1.6
					c0,0.2,0.1,0.3,0.1,0.4c0,0.1,0.1,0.2,0.1,0.3c0.1,0.2,0.4,0.3,0.7,0.4c0.4,0.1,0.7,0.2,0.9,0.5c0.2,0.3,0.3,0.6,0.3,0.9
					c0,0.3-0.2,0.6-0.5,0.8c-0.3,0.2-0.7,0.2-1,0.2c-0.7-0.1-1.3-0.4-1.9-0.7c-0.5,1-1.3,1.9-2.2,2.6c-0.7,0.6-1.5,1.1-2.5,1.5
					c-0.3,0.1-0.7,0.3-1.1,0.4c-0.1,0-0.3,0.1-0.5,0.1c-0.1,0-0.1,0-0.2,0c-0.1,0-0.1,0-0.2,0.1c-0.1,0-0.2,0-0.2,0.1
					c-0.3,0.1-0.6,0.1-0.8,0C395.3,259.8,394.9,259.5,394.7,259.1z"/>
				<path class="st4" d="M408.7,255.7c0-0.1-0.1-0.1-0.1-0.2c-1,0.4-2,0.5-3.2,0.3c-0.4-0.1-0.7-0.2-0.9-0.5
					c-0.2-0.3-0.3-0.6-0.3-0.9c0.1-0.3,0.2-0.6,0.5-0.8c0.3-0.2,0.6-0.2,1-0.2c0.9,0.1,1.7-0.1,2.3-0.7c0.2-0.2,0.4-0.5,0.6-0.8
					c0.1-0.2,0.2-0.5,0.3-0.7c0,0,0,0,0,0c0.1-0.3,0.3-0.5,0.6-0.7c0.3-0.1,0.7-0.2,1-0.1c0.3,0.1,0.6,0.2,0.8,0.5
					c0.2,0.2,0.3,0.5,0.2,0.8c0,0.1,0,0.1,0,0.2c0,0.1-0.1,0.2-0.1,0.4c-0.1,0.2-0.1,0.2-0.2,0.4c-0.1,0.3-0.2,0.6-0.3,0.8
					c-0.1,0.5,0,0.9,0.4,1c0.8,0.2,1.4-0.1,1.7-0.9c0.1-0.3,0.2-0.6,0.3-1c0-0.1,0-0.3,0.1-0.5c0-0.1,0-0.2,0-0.3c0,0,0,0,0-0.1
					c0-0.3,0.2-0.6,0.5-0.8c0.3-0.2,0.6-0.3,1-0.3c0.4,0,0.7,0.2,0.9,0.4c0.2,0.2,0.3,0.5,0.3,0.9c0,0,0,0,0,0
					c-0.1,0.7-0.1,1.3-0.1,1.8c0,0.3,0.1,0.5,0.2,0.8c0.2,0.2,0.3,0.4,0.5,0.4c0.8,0.1,1.2-0.5,1-1.6c0-0.3-0.1-0.7-0.3-1.2
					c-0.1-0.3-0.2-0.7-0.3-1c-0.1-0.3-0.1-0.6,0.1-0.9c0.2-0.3,0.4-0.5,0.8-0.6c0.3-0.1,0.7-0.1,1,0.1c0.3,0.2,0.5,0.4,0.7,0.7
					c0.5,1.2,0.7,2.2,0.8,3c0.1,1.2-0.1,2.1-0.7,2.7c-0.3,0.3-0.7,0.6-1.1,0.8c-0.6,0.2-1.3,0.3-2.1,0.3c-1-0.1-1.7-0.4-2.3-1
					c-0.1-0.1-0.1-0.1-0.2-0.2c-0.9,0.7-1.9,0.9-3,0.8C410,256.8,409.2,256.4,408.7,255.7z"/>
				<path class="st4" d="M431.6,257.1c-1.5-0.4-2.5-1.1-3.1-2.1c-0.6-0.9-0.6-2-0.2-3.3c0.1-0.4,0.3-0.9,0.6-1.3
					c0.2-0.3,0.4-0.6,0.7-0.9c0.2-0.3,0.5-0.4,0.9-0.4c0.4,0,0.7,0,1,0.2c0.3,0.2,0.4,0.5,0.5,0.8c0,0.3-0.1,0.6-0.3,0.9
					c-0.3,0.3-0.6,0.8-0.7,1.3c-0.2,0.6-0.2,1.2,0,1.6c0.3,0.4,0.9,0.8,1.8,1c0.8,0.2,1.7,0.3,2.6,0.2c2.4-0.2,4.3-0.7,5.6-1.5
					c1.3-0.8,2.1-1.9,2.6-3.3c0.1-0.3,0.3-0.5,0.5-0.7c0.3-0.2,0.6-0.2,0.9-0.2c0.3,0,0.6,0.1,0.8,0.3c0.2,0.2,0.3,0.5,0.4,0.7
					c0,0,0,0,0,0.1c0,0.1,0,0.1,0,0.2c0,0.1,0,0.1,0,0.2c0,0.1,0,0.2,0,0.3c0,0.3,0.1,0.5,0.1,0.7c0.1,0.5,0.3,0.8,0.6,1
					c0.2,0.1,0.5,0.2,0.9,0.2c0.3,0,0.7,0,1.1-0.1c0.4-0.1,0.7,0,1,0.1c0.3,0.2,0.5,0.4,0.6,0.7c0.1,0.3,0,0.6-0.2,0.9
					c-0.2,0.3-0.5,0.5-0.9,0.5c-1.8,0.3-3.2,0.2-4.2-0.5c-0.3-0.2-0.6-0.5-0.8-0.7c-0.5,0.5-1.1,1-1.7,1.4c-1.7,1.1-4,1.7-7,2
					C434.1,257.6,432.8,257.5,431.6,257.1z M434.4,250.6c-0.2-0.1-0.4-0.2-0.5-0.4c-0.1-0.3-0.2-0.5-0.1-0.8
					c0.1-0.3,0.3-0.5,0.6-0.6c0.6-0.3,1.4-0.6,2.3-0.8c0.7-0.2,1.6-0.3,2.6-0.2c0.3,0,0.6,0.1,0.8,0.3c0.2,0.2,0.3,0.5,0.3,0.7
					c0,0.3-0.1,0.5-0.4,0.7c-0.2,0.2-0.5,0.3-0.8,0.3c-0.8,0-1.4,0-1.9,0.2c-0.7,0.2-1.3,0.4-1.8,0.7c-0.2,0.1-0.3,0.1-0.5,0.1
					C434.8,250.8,434.6,250.7,434.4,250.6z"/>
				<path class="st4" d="M449.3,255.3c-0.4,0.1-0.7,0-1-0.2c-0.3-0.2-0.5-0.4-0.6-0.7c-0.1-0.3,0-0.6,0.2-0.9
					c0.2-0.3,0.5-0.4,0.9-0.5c1.4-0.3,2.4-0.5,2.8-0.7c0.6-0.2,1-0.5,1.1-0.9c0-0.1,0-0.2,0-0.4c0-0.3-0.1-0.5-0.3-0.9
					c-0.3-0.6-0.8-1.3-1.3-2c-0.2-0.3-0.3-0.5-0.2-0.9s0.2-0.6,0.5-0.8c0.3-0.2,0.6-0.3,1-0.3c0.4,0,0.6,0.2,0.9,0.4
					c0.1,0.1,0.2,0.2,0.3,0.4c0.1,0.2,0.3,0.3,0.4,0.5c0.3,0.5,0.6,0.9,0.9,1.3c0.7,1.2,0.9,2.3,0.5,3.2c-0.4,0.9-1.2,1.7-2.3,2.2
					c-0.4,0.2-1,0.4-1.6,0.5c-0.2,0.1-0.6,0.1-1,0.2C450.1,255.2,449.8,255.2,449.3,255.3z M450.6,259c-0.2-0.1-0.4-0.2-0.6-0.4
					c-0.2-0.2-0.3-0.5-0.2-0.8c0.1-0.3,0.3-0.5,0.6-0.7c0.6-0.4,1.4-0.8,2.4-1.2c0.7-0.3,1.7-0.5,2.8-0.6c0.3,0,0.7,0,0.9,0.2
					c0.3,0.2,0.4,0.4,0.4,0.7c0,0.3-0.1,0.6-0.3,0.8c-0.2,0.2-0.5,0.4-0.9,0.4c-0.9,0.1-1.5,0.2-2,0.4c-0.7,0.3-1.4,0.6-1.9,0.9
					c-0.2,0.1-0.3,0.2-0.5,0.2C451.1,259,450.8,259,450.6,259z"/>
				<path class="st4" d="M461.5,252.3c-0.4,0.1-0.8,0.1-1.2,0.1c-0.5,0-0.9-0.1-1.3-0.3c-0.5-0.2-0.9-0.6-1.3-1.2
					c-0.2-0.4-0.7-1.7-1.2-3.8c-0.1-0.3-0.1-0.4-0.2-0.7c-0.1-0.3-0.1-0.4-0.2-0.7c-0.2-0.5-0.3-1-0.4-1.4c-0.3-1.1-0.6-1.9-0.9-2.5
					c-0.1-0.3-0.1-0.6,0-0.9s0.4-0.5,0.7-0.7c0.3-0.1,0.6-0.2,1,0c0.3,0.1,0.6,0.3,0.7,0.6c0.3,0.6,0.6,1.5,1,2.6
					c0.1,0.4,0.3,0.9,0.5,1.5c0.3,1,0.4,1.5,0.7,2.5c0.1,0.4,0.2,0.7,0.3,1c0.2,0.7,0.4,1.1,0.5,1.3c0.1,0.2,0.3,0.3,0.5,0.3
					c0.2,0,0.6-0.1,1.2-0.2c0.4-0.1,0.7-0.1,1,0c0.3,0.1,0.5,0.4,0.6,0.7c0.1,0.3,0.1,0.6-0.1,0.9c-0.2,0.3-0.5,0.5-0.9,0.6
					C462,252.2,461.7,252.3,461.5,252.3z"/>
				<path class="st4" d="M470.3,254.5c-1.5,0.2-2.9-0.1-4.3-0.8c-0.5-0.3-1-0.6-1.5-1c-0.4-0.3-0.7-0.6-0.9-0.9
					c-0.4,0.1-0.6,0.2-1.1,0.3c-0.4,0.1-0.7,0.1-1.1,0c-0.3-0.1-0.5-0.4-0.6-0.7c-0.1-0.3,0-0.6,0.2-0.9c0.2-0.3,0.5-0.5,0.8-0.6
					c0.2-0.1,0.3-0.1,0.5-0.1c0.1,0,0.1,0,0.2-0.1c-0.3-1-0.3-2.1-0.2-3.1c0.2-1.2,0.6-2.1,1.4-2.8c0.4-0.4,0.9-0.7,1.4-0.9
					c0.5-0.2,1-0.2,1.5,0c0.7,0.2,1.4,0.6,1.9,1.4c0.5,0.7,0.8,1.4,0.8,2.1c0,0.6-0.1,1.3-0.4,1.9c-0.4,0.8-1.1,1.5-2,2.1
					c-0.1,0-0.2,0.1-0.4,0.2c-0.1,0-0.1,0.1-0.2,0.1c-0.1,0-0.1,0.1-0.2,0.1c0.2,0.3,0.6,0.6,1,1c0.5,0.4,1,0.6,1.4,0.7
					c-0.7-1.2-0.7-2.4,0.1-3.7c0.6-1,1.5-1.7,2.6-2.3c0.4-0.2,0.7-0.2,1.1-0.1c0.4,0.1,0.6,0.3,0.8,0.6c0.2,0.3,0.2,0.6,0,0.9
					c-0.1,0.3-0.5,0.6-1,0.9c-0.8,0.4-1.3,1-1.4,1.7c-0.2,0.7,0.1,1.4,0.8,2c0.2,0.1,0.3,0.3,0.4,0.6c0.1,0.2,0,0.5-0.1,0.7
					c-0.2,0.4-0.5,0.6-0.9,0.8C470.7,254.4,470.5,254.5,470.3,254.5z M465.6,245.2c-0.3,0.3-0.5,0.9-0.6,1.5c-0.1,0.6,0,1.2,0.1,1.9
					c1-0.6,1.5-1.2,1.5-1.9c0-0.3-0.1-0.7-0.4-1.1c-0.1-0.1-0.2-0.2-0.3-0.3c0,0-0.1-0.1-0.1-0.1c0,0-0.1,0-0.1-0.1
					C465.7,245.1,465.6,245.2,465.6,245.2z"/>
				<path class="st4" d="M472.1,248.6c-0.4,0.1-0.7,0.2-1.1,0.1c-0.3-0.1-0.6-0.3-0.7-0.6c-0.1-0.3-0.1-0.6,0.1-0.9
					c0.2-0.3,0.4-0.5,0.8-0.7c1-0.4,1.7-0.7,2.1-1c0.6-0.4,0.9-0.7,1-1.1c0-0.1,0-0.2-0.1-0.4c-0.1-0.2-0.2-0.5-0.4-0.8
					c-0.4-0.6-1-1.1-1.7-1.7c-0.3-0.2-0.4-0.5-0.4-0.8c0-0.3,0.1-0.6,0.4-0.9c0.3-0.3,0.6-0.4,0.9-0.5c0.4,0,0.7,0,0.9,0.2
					c0.1,0.1,0.3,0.2,0.4,0.3c0.2,0.1,0.3,0.3,0.5,0.4c0.4,0.4,0.8,0.8,1.1,1.2c0.9,1.1,1.3,2.1,1.1,3.1c-0.2,1-0.8,1.9-1.9,2.6
					c-0.4,0.3-0.9,0.6-1.5,0.8c-0.2,0.1-0.5,0.2-0.8,0.3C472.5,248.4,472.4,248.5,472.1,248.6z M472.1,237.2c0.1,0.3,0.1,0.7,0,1.1
					c-0.2,0.4-0.4,0.7-0.8,0.8c-0.4,0.2-0.9,0.2-1.4,0.1c-0.4-0.1-0.7-0.4-0.8-0.7c-0.1-0.3-0.1-0.7,0.1-1.1
					c0.2-0.4,0.5-0.7,0.8-0.9c0.4-0.2,0.8-0.2,1.2,0C471.7,236.6,472,236.9,472.1,237.2z"/>
			</g>
		</g>
		<path class="st4" d="M557.6,137c0,0,0-0.7-0.1-2.1c0-0.7,0-1.6-0.1-2.6s0-2.3-0.2-3.6c-0.2-1.4-0.2-2.9-0.4-4.6s-0.4-3.5-0.7-5.5
			c-0.7-4.6-1.5-9.1-2.7-13.6c-1.4-5.6-3.2-11.1-5.4-16.5c-2.5-6.4-5.6-12.6-9.1-18.5c-8.6-14.4-20-27.1-33.3-37.3
			c-16.2-12.4-35.2-20.8-55.2-24.5c-17-3.1-34.5-2.9-51.4,0.6c-12,2.5-23.7,6.8-34.5,12.6c-5.6,3-11,6.4-16.1,10.2
			c-10.6,7.8-20,17.2-27.7,27.8c-4,5.4-7.6,11.2-10.7,17.2c-0.8,1.5-1.6,3-2.3,4.6l-2.1,4.7c-1.3,3.2-2.6,6.4-3.6,9.7
			c-2.2,6.6-3.9,13.4-5,20.3c-1.1,7-1.7,14-1.7,21.1c0,7.1,0.6,14.1,1.7,21.1c1.1,6.9,2.8,13.7,5,20.3l0.8,2.4l0.4,1.2l0.5,1.2
			c0.7,1.6,1.3,3.2,1.9,4.8l2.1,4.7c0.7,1.6,1.5,3.1,2.3,4.6c3.1,6,6.7,11.8,10.7,17.2c3.9,5.3,8.3,10.4,12.9,15.1
			c4.6,4.6,9.6,8.8,14.8,12.8c5.2,3.8,10.6,7.2,16.2,10.2c5.5,2.9,11.2,5.5,17,7.6c5.7,2,11.6,3.7,17.5,5
			c16.9,3.5,34.4,3.7,51.4,0.6c20.1-3.8,39-12.1,55.2-24.5c13.4-10.2,24.7-22.9,33.3-37.3c3.5-5.9,6.6-12.1,9.1-18.5
			c2.2-5.4,4-10.9,5.4-16.5c1.2-5.1,2.1-9.6,2.7-13.6c0.2-2,0.5-3.8,0.7-5.5s0.3-3.2,0.4-4.6s0.2-2.6,0.2-3.6s0.1-1.9,0.1-2.6
			C557.6,137.7,557.6,137,557.6,137c0.1,0,0.1,0.7,0.1,2.1c0,0.7,0,1.6-0.1,2.6s0,2.3-0.2,3.6s-0.2,2.9-0.3,4.6s-0.4,3.5-0.7,5.5
			c-0.6,4.6-1.5,9.1-2.6,13.6c-1.4,5.6-3.2,11.1-5.3,16.5c-2.5,6.4-5.6,12.7-9.2,18.6c-8.6,14.5-20,27.2-33.3,37.4
			c-16.3,12.4-35.2,20.8-55.4,24.6c-17.1,3.2-34.6,3-51.6-0.5c-12.1-2.5-23.8-6.8-34.7-12.6c-5.6-3-11.1-6.5-16.2-10.3
			c-5.2-3.9-10.2-8.2-14.9-12.8c-4.7-4.7-9-9.8-13-15.2c-4-5.5-7.6-11.2-10.7-17.3c-0.8-1.5-1.6-3-2.3-4.6l-2.1-4.7
			c-0.6-1.6-1.3-3.2-1.9-4.8l-0.5-1.2l-0.4-1.2l-0.8-2.5c-2.2-6.6-3.9-13.5-5-20.4c-2.3-14-2.3-28.3,0-42.4c1.1-6.9,2.8-13.7,5-20.4
			c1-3.3,2.4-6.5,3.6-9.7l2.1-4.7c0.7-1.6,1.5-3.1,2.3-4.6c3.1-6,6.7-11.8,10.7-17.3c4-5.4,8.3-10.4,13-15.2
			c4.7-4.6,9.6-8.8,14.9-12.7c5.2-3.8,10.6-7.2,16.2-10.3c10.9-5.9,22.6-10.1,34.7-12.7c17-3.5,34.5-3.7,51.5-0.6
			c20.1,3.8,39.1,12.2,55.4,24.6c13.4,10.2,24.7,22.9,33.3,37.4c3.5,5.9,6.6,12.1,9.1,18.5c2.1,5.4,3.9,10.9,5.3,16.5
			c1.2,5.1,2.1,9.6,2.6,13.6c0.2,2,0.5,3.8,0.7,5.5s0.2,3.2,0.3,4.6c0.1,1.4,0.2,2.6,0.2,3.6s0,1.9,0.1,2.6
			C557.6,136.2,557.6,137,557.6,137z"/>
		<g>
			<defs>
				<path id="SVGID_1_" d="M373.7,182.8c-26.7-28.3-25.4-73,2.9-99.7s73-25.4,99.7,2.9c26.2,27.8,25.5,71.3-1.5,98.3l35.5,34.6
					c46.7-46.4,47-121.8,0.6-168.5s-121.8-47-168.5-0.6c-46.5,46.2-47,121.3-1.1,168.1L373.7,182.8z"/>
			</defs>
			<clipPath id="SVGID_2_">
				<use xlink:href="#SVGID_1_"  style="overflow:visible;"/>
			</clipPath>
			<g class="st8">
				<path class="st5" d="M373.7,182.8c-26.7-28.3-25.4-73,2.9-99.7s73-25.4,99.7,2.9c26.2,27.8,25.5,71.3-1.5,98.3l35.5,34.6
					c46.7-46.4,47-121.8,0.6-168.5s-121.8-47-168.5-0.6c-46.5,46.2-47,121.3-1.1,168.1L373.7,182.8z"/>
				<g class="st9">
					<path d="M488.7,133.8h64.1c0,0-6.5,52.2-7.8,53.1s-39.2,44.7-39.2,44.7l-43.1-51.2L488.7,133.8z"/>
				</g>
				<g class="st10">
					<polygon points="471.4,90.7 516.7,46.2 548.7,93.8 552.9,133.8 489.4,133.8 477.9,108.4 					"/>
				</g>
				<g class="st11">
					<path d="M429.1,74.5c-0.8-1.3,0-64.2,0-64.2l39.1,4.9l48.1,31.1l-46.2,45.4L441,87.5L429.1,74.5z"/>
				</g>
				<g class="st6">
					<path d="M336,48.6c1,0.3,43.1,45.4,43.1,45.4l37.6-14.9l12.1-15l0.3-53.7l-44.8,4.9L336,48.6z"/>
				</g>
				<g class="st12">
					<path d="M302.9,133.8c1,0.6,71.3,0,71.3,0L373,87.6l-33.9-36l-23.1,27.5L302.9,133.8z"/>
				</g>
			</g>
		</g>
		<circle class="st1" cx="427.6" cy="137" r="27.4"/>
		<path class="st7" d="M419.6,138.8L419.6,138.8c1.2,4.1,5.5,6.5,9.6,5.3l95.2-27l-98.2,11.8c-4.3,0.5-7.3,4.4-6.8,8.7
			C419.4,138,419.5,138.4,419.6,138.8z"/>
		<polygon class="st5" points="572.5,410 577.7,419.2 592.5,403.4 585.3,395.2 		"/>
		<path class="st4" d="M591.3,401.7c-0.6,0.9-1.2,1.7-2,2.4c-1.4,1.4-3.2,3.4-5.3,5.5l-5.4,5.3c-0.7,0.8-1.5,1.5-2.4,2.1
			c0.6-0.9,1.3-1.7,2-2.4c1.4-1.4,3.2-3.4,5.3-5.5l5.4-5.3C589.7,403,590.4,402.3,591.3,401.7z"/>
		<path class="st4" d="M578.2,402c1.3,0.8,2.4,1.9,3.4,3.1c1.1,1,2.1,2.2,2.9,3.6c-1.3-0.9-2.4-1.9-3.4-3.1
			C580,404.5,579,403.3,578.2,402z"/>
		<g class="st13">
			<polyline class="st14" points="577.7,419.2 592.5,403.4 591.1,401.8 576.1,417.1 577.5,419 			"/>
		</g>
		<path class="st5" d="M486.3,424.4l0-3.1l21.8,0.3l0,10.4l-1.3,0.1c-6,0.4-30.5,1.4-34.5-0.3C467.8,429.9,486.3,424.4,486.3,424.4z
			"/>
		<g class="st13">
			<path class="st14" d="M500.2,431.6c0.4-2.5,1.4-4.8,2.8-6.3c1.5-1.5,3.3-2.3,5.1-2.1l0,8.2L500.2,431.6z"/>
		</g>
		<g class="st13">
			<path class="st14" d="M477.2,427.5c0,0-6.5,2.5-5.7,3.9s25.6,1.7,36.6,0.5l0-0.7l-29,0C479.1,431.3,478.5,427.6,477.2,427.5z"/>
		</g>
		<path class="st4" d="M508.4,431.3l-0.4,0l-1.1,0l-3.9,0.2c-3.3,0.1-7.9,0.2-13,0.2c-5.1-0.1-9.7-0.2-13-0.4L473,431l-1.1-0.1
			l-0.4,0l1.4,0l3.9,0.1c3.3,0.1,7.9,0.3,13,0.3c5.1,0.1,9.7,0,13,0l3.9-0.1L508.4,431.3L508.4,431.3z"/>
		<path class="st4" d="M479.1,431.8c-0.2-0.9-0.4-1.8-0.7-2.6c-0.4-0.8-0.8-1.4-1.3-2.1c0.7,0.3,1.2,1,1.6,1.9
			C479.1,429.8,479.2,430.8,479.1,431.8z"/>
		<path class="st4" d="M485.5,427.5c0,0-0.4-0.5-0.7-1.1c-0.3-0.7-0.5-1.3-0.4-1.3c0.1,0,0.4,0.4,0.7,1.1S485.6,427.4,485.5,427.5z"
			/>
		<path class="st4" d="M487.3,426.2c0,0-0.4-0.2-0.8-0.7c-0.4-0.5-0.6-0.9-0.6-1c0.3,0.1,0.5,0.4,0.8,0.7
			C487.1,425.7,487.4,426.1,487.3,426.2z"/>
		<path class="st4" d="M487.3,423.8c-0.4,0.2-0.8,0.2-1.1,0.2c-0.4,0.1-0.8,0-1.1-0.2c0.4-0.2,0.7-0.3,1.1-0.2
			C486.5,423.6,486.9,423.6,487.3,423.8z"/>
		<path class="st4" d="M487.7,421.9c-0.4,0.3-0.8,0.5-1.3,0.5c-0.4,0.1-0.9,0-1.3-0.2c0.4-0.1,0.9-0.1,1.3-0.1
			C486.8,421.9,487.2,421.8,487.7,421.9z"/>
		<path class="st4" d="M484.9,424.9c-0.5,0.1-0.9,0.1-1.4,0c-0.5-0.1-1-0.2-1.5-0.5c-0.3-0.1-0.6-0.3-0.9-0.5
			c-0.2-0.1-0.3-0.3-0.3-0.6c0-0.3,0-0.6,0.2-0.7c1.1-0.7,2.4-0.3,3.2,1c0.2,0.4,0.4,0.8,0.4,1.3c0,0.3,0,0.5,0,0.5
			c-0.1-0.6-0.3-1.1-0.6-1.6c-0.3-0.5-0.7-0.9-1.2-1.1c-0.6-0.3-1.1-0.2-1.7,0.1c-0.2,0.2-0.1,0.6,0.1,0.8c0.3,0.2,0.5,0.4,0.8,0.5
			c0.5,0.2,0.9,0.4,1.4,0.5C484.3,424.8,484.9,424.8,484.9,424.9z"/>
		<path class="st4" d="M484.5,425c-0.2-0.4-0.2-0.9-0.1-1.3c0-0.5,0.2-1,0.4-1.4c0.3-0.6,0.7-1,1.2-1c0.3,0.1,0.5,0.4,0.4,0.9
			c0,0,0,0,0,0c0,0.3-0.1,0.6-0.2,0.9c-0.2,0.4-0.4,0.8-0.7,1.1c-0.2,0.3-0.5,0.6-0.8,0.8c0,0,0.3-0.3,0.7-0.9
			c0.2-0.3,0.4-0.7,0.6-1.1c0.2-0.4,0.3-1.1,0-1.2s-0.7,0.4-0.9,0.8c-0.2,0.4-0.3,0.8-0.4,1.2C484.5,424.1,484.5,424.5,484.5,425z"
			/>
		<path class="st4" d="M508,423.2c0,0-0.6,0-1.6,0c-1.3,0.2-2.5,0.8-3.5,1.9c-1,1.1-1.8,2.5-2.2,4.2c-0.3,1.2-0.4,2.1-0.4,2.1
			c0-0.2,0-0.4,0-0.6c0-0.5,0.1-1.1,0.3-1.6c0.4-1.7,1.2-3.3,2.2-4.4c1.1-1.1,2.4-1.7,3.7-1.9c0.4-0.1,0.8-0.1,1.2,0
			C507.8,423,507.9,423.1,508,423.2z"/>
		<path class="st4" d="M497.5,428.7c-2.1,0.5-4.3,0.5-6.4,0c0-0.1,1.4,0,3.2,0C496,428.7,497.5,428.6,497.5,428.7z"/>
		<path class="st4" d="M501.8,428.8c0,0-0.1,0.4-0.3,0.9c-0.2,0.4-0.2,0.8-0.3,0.8c-0.1,0-0.1-0.5,0-1
			C501.3,429,501.7,428.7,501.8,428.8z"/>
		<path class="st4" d="M503.4,426.1c0,0-0.1,0.4-0.3,0.7c-0.2,0.3-0.4,0.5-0.5,0.4c-0.1-0.1,0.1-0.4,0.3-0.7S503.3,426,503.4,426.1z
			"/>
		<g>
			<path class="st4" d="M395.6,224.6c-0.9,0-1.6-0.4-2.2-1s-0.8-1.4-0.8-2.3c0.4-9.6-1.1-18.4-4.5-26.3c-0.4-0.8-0.4-1.6,0-2.4
				c0.3-0.8,0.9-1.4,1.7-1.7c0.8-0.3,1.6-0.4,2.4,0s1.4,0.9,1.7,1.7l0.4,0.8l0.4,0.8c1,2.5,1.9,4.1,2.7,4.8c0.2,0.2,0.4,0.4,0.7,0.5
				c0.3,0.2,0.6,0.4,0.9,0.5c0.8,0.3,1.6,0.3,2.4-0.1c0.8-0.4,1.4-1.2,1.7-2.4c0.2-0.7,0.3-1.4,0.3-2.3c0-0.6,0-1.3-0.1-2.2
				c-0.1-0.9,0.1-1.6,0.7-2.3c0.5-0.7,1.2-1,2.1-1.1c0.9-0.1,1.6,0.1,2.3,0.7c0.7,0.6,1.1,1.3,1.1,2.1c0.1,1.2,0.2,2.2,0.1,3.2
				c0,1.3-0.2,2.5-0.5,3.6c-0.8,3-2.5,5.1-4.9,6.3c-1.9,1-4,1.2-6.2,0.7l0.1,0.6c0.8,4.8,1.1,9.7,0.8,14.8c0,0.8-0.4,1.5-1,2.1
				s-1.3,0.9-2.2,0.9H395.6z"/>
			<path class="st4" d="M434.9,200.1c3,4.4,4.5,8.8,4.5,13.1c0,2.3-0.6,4.4-1.7,6.2c-1.6,2.6-3.9,3.9-6.9,3.9c-1.9,0-3.6-0.5-5-1.6
				c-1.3,1-2.9,1.5-4.6,1.5c-2.3,0-4.3-0.8-5.9-2.4c-0.8-0.8-1.5-1.8-2-2.9c-0.7-1.5-1-3.2-1-5.1c0-4.9,2.5-10.5,7.5-16.8
				c0.4-0.5,0.9-0.8,1.4-1c-0.4-0.3-0.8-0.6-1.2-0.9c-0.7-0.5-1.1-1.2-1.3-2c-0.2-0.8,0-1.6,0.5-2.3c0.5-0.7,1.2-1.1,2-1.3
				c0.8-0.1,1.6,0,2.3,0.6C428.4,192.3,432.1,196,434.9,200.1z M432.3,216c0.5-0.8,0.8-1.7,0.8-2.8c0-3-1.1-6.2-3.4-9.6
				c-1.2-1.7-2.6-3.4-4.3-5.1c-0.1,0.5-0.3,0.9-0.6,1.4c-4.1,5.2-6.1,9.5-6.1,12.9c0,1.6,0.3,2.7,0.9,3.4c0.2,0.3,0.5,0.5,0.8,0.6
				c0.3,0.1,0.5,0.1,0.8,0.1c0.3,0,0.5-0.1,0.7-0.2c0.3-0.2,0.5-0.4,0.7-0.8c-0.1-0.8-0.1-1.7,0-2.6c0.1-0.9,0.5-1.6,1.2-2.1
				s1.5-0.8,2.3-0.7c0.9,0.1,1.6,0.5,2.1,1.2c0.5,0.7,0.8,1.5,0.7,2.3c-0.1,1,0,1.8,0.5,2.4c0.3,0.4,0.8,0.5,1.4,0.5
				C431.4,217,431.9,216.7,432.3,216z"/>
			<path class="st4" d="M446.9,216.2c-1.4-1-2.4-2.4-2.9-4.1c-0.6-1.7-0.6-3.3-0.1-4.9c0.5-1.6,1.5-2.9,2.9-4c1.4-1,3-1.6,4.7-1.6
				h0.1c1.7,0.1,3.2,0.6,4.7,1.7c1.4,1.1,2.4,2.5,2.9,4.1c0.5,1.6,0.4,3.2-0.1,4.7c-0.6,1.5-1.6,2.8-3,3.8c-1.5,1-3.1,1.6-4.8,1.6
				C449.6,217.6,448.1,217.2,446.9,216.2z M449.7,207.4c-0.6,0.4-0.9,0.9-1.1,1.4c-0.2,0.5-0.1,1.1,0.1,1.8c0.3,0.7,0.6,1.2,1.1,1.5
				c0.4,0.3,1,0.5,1.6,0.4c0.6,0,1.2-0.3,1.8-0.6c0.5-0.4,0.9-0.8,1.1-1.4c0.2-0.5,0.2-1.1,0.1-1.6c-0.2-0.6-0.5-1.1-1.1-1.5
				c-0.6-0.5-1.2-0.7-1.8-0.7C450.9,206.7,450.3,207,449.7,207.4z"/>
		</g>
		<path class="st4" d="M505.7,424.9c0,0.1-0.3,0.1-0.6,0.2c-0.3,0.1-0.6,0.4-0.6,0.3c-0.1-0.1,0.1-0.5,0.5-0.7
			C505.4,424.6,505.7,424.8,505.7,424.9z"/>
		<path class="st4" d="M507.3,424.3c0,0.1-0.1,0.2-0.3,0.3c-0.2,0.1-0.3,0.1-0.4,0c0-0.1,0.1-0.2,0.3-0.3
			C507.1,424.2,507.3,424.2,507.3,424.3z"/>
		<path class="st15" d="M482.1,202l-26.4-26.7l3.4-34.8l0.6-0.7c0.3-0.4,0.7-0.8,1.1-1.3c0.5-0.5,1.1-1,1.8-1.3
			c0.8-0.4,1.6-0.8,2.5-1c0.8-0.1,1.1-1.2,0.4-1.5s-2.9-0.1-5.2,1.4s-0.9-2.5-0.4-4s1.8-6,1.4-6.5c-0.5-0.7-1.4-0.3-1.8,1.1
			c-0.5,1.5-2.1,5.8-2.8,5.5s1.8-7.6,1.8-7.6s0.8-1.5-0.1-1.8c-1.6-0.6-3.7,7.4-3.9,8.1c-0.1,0.5-1,0.3-0.8-0.3s2.7-7.3,1.1-7.9
			c-1.2-0.5-1.8,6.6-3.1,7.7s1-5.3-0.2-5.7c-0.4-0.2-0.8-0.2-1.6,3.7c-0.6,2.7-1.1,5.4-1.5,8.1l0,0l-8.3,41.6l26,34.4L482.1,202z"/>
		<path class="st15" d="M495.6,125.5c-1.1,0.6,2.3,6.5,0.8,5.7s-3.3-7.7-4.4-7c-1.5,0.9,2.2,7.1,2.5,7.6s-0.5,0.9-0.7,0.4
			c-0.3-0.7-3.8-8.2-5.3-7.3c-0.8,0.5,0.3,1.8,0.3,1.8s3.8,6.8,3.1,7.2s-3.1-3.5-3.8-4.9c-0.7-1.4-1.6-1.6-2-0.8
			c-0.2,0.5,1.8,4.8,2.5,6.1s2.8,5,0.3,4s-4.8-0.9-5.4-0.4s-0.1,1.4,0.7,1.4c0.9,0.1,1.8,0.2,2.7,0.5c0.7,0.2,1.4,0.6,2,1
			c0.5,0.4,1,0.7,1.3,1l0.7,0.6l17.8,30.6l-0.3,28.9l4,13.4l9-39.9l-20.7-38.8l0,0c-0.8-2.6-1.8-5.2-2.9-7.7
			C496.3,125.1,496,125.2,495.6,125.5z"/>
		<path class="st7" d="M540.4,339.1l-13-67.1l-18.4,1.6v-0.2l-33.6,3c0,0-1.6,77.1-2.1,77.1l9.2,70.3l0,0l26.6-1.2l-10.3-69.9
			l4.8-49.1l0.8-1l14.3,50.4l52.3,59.2l17-16.5L540.4,339.1z"/>
		<path class="st4" d="M506,273.9c0.3,2.1,0.4,4.3,0.3,6.4c0.1,2.1,0,4.3-0.3,6.4C505.6,282.4,505.6,278.1,506,273.9L506,273.9z"/>
		<path class="st4" d="M486.2,282.2c0.3-0.1,0.5-0.1,0.8-0.1l2.5-0.3c2.1-0.3,5.2-0.6,8.9-1h0.3v0.3c0,3.2,0,6.8,0,10.7v0.2
			l-0.1,0.1l-0.2,0.1l-6.4,3.2l-0.1,0.1l-0.1-0.1l-5.6-3.3l-0.1-0.1v-0.1c0-2.9,0.1-5.2,0.1-7l0.1-1.9
			C486.2,282.6,486.2,282.4,486.2,282.2c0,0.2,0,0.5,0,0.7c0,0.5,0,1.1,0,1.9c0,1.7,0.1,4,0.1,6.9l-0.1-0.2l5.6,3.2h-0.2l6.4-3.2
			l0.2-0.1l-0.2,0.2c0-3.9,0-7.5,0-10.7l0.3,0.2c-3.6,0.3-6.6,0.6-8.8,0.7l-2.5,0.2C486.8,282.2,486.5,282.2,486.2,282.2z"/>
		<path class="st4" d="M512.1,279.7c0.3-0.1,0.5-0.1,0.8-0.1l2.5-0.3c2.1-0.3,5.2-0.6,8.9-1h0.3v0.3c0,3.1,0,6.8,0,10.6v0.2
			l-0.2,0.1l-0.2,0.1l-6.4,3.2l-0.1,0l-0.1-0.1l-5.6-3.3l-0.1-0.1v-0.1c0-2.9,0.1-5.2,0.1-7v-1.9c0-0.2,0-0.4,0-0.6
			c0,0.2,0,0.5,0,0.7c0,0.5,0,1.1,0,1.9c0,1.7,0.1,4,0.1,6.9l-0.1-0.2l5.6,3.2h-0.1l6.4-3.2l0.2-0.1l-0.2,0.2c0-3.9,0-7.5,0-10.6
			l0.3,0.2c-3.6,0.3-6.6,0.6-8.8,0.7l-2.5,0.2C512.7,279.7,512.4,279.7,512.1,279.7z"/>
		<path class="st4" d="M498.7,283.7c-4.1,0.5-8.3,0.7-12.4,0.6c2-0.4,4.1-0.5,6.2-0.5C494.5,283.6,496.6,283.6,498.7,283.7z"/>
		<path class="st4" d="M524.3,281.4c-4,0.6-8.1,1-12.2,0.9c2-0.4,4-0.7,6.1-0.7C520.2,281.3,522.3,281.3,524.3,281.4z"/>
		<path class="st4" d="M496.6,352c-4,0.8-8,1.3-12.1,1.5C488.5,352.7,492.5,352.2,496.6,352z"/>
		<path class="st4" d="M538.7,340.5c0,0.1-2.9,1.2-6.2,3s-5.7,3.8-5.8,3.7c0.4-0.5,0.9-1,1.5-1.4c1.3-1,2.7-1.9,4.1-2.7
			c1.4-0.8,2.9-1.5,4.5-2C537.4,340.8,538,340.6,538.7,340.5z"/>
		<path class="st4" d="M477.1,108.2c-0.1-0.1-0.1-0.2-0.2-0.4l-0.5-1.1c-0.2-0.5-0.5-1.1-0.9-1.8l-1.3-2.4c-0.5-0.9-1.1-1.8-1.8-2.9
			s-1.5-2.1-2.3-3.3c-2-2.6-4.2-5-6.6-7.3c-6.3-5.8-13.8-10.2-21.9-12.8c-4.8-1.5-9.8-2.3-14.9-2.4c-10.9-0.2-21.6,2.6-30.9,8.2
			c-4.3,2.6-8.3,5.8-11.7,9.5c-5.8,6.3-10.1,13.8-12.7,22c-1,3.1-1.7,6.3-2.1,9.6c-0.2,1.4-0.3,2.8-0.4,4c-0.1,1.2-0.1,2.4-0.1,3.4
			s0,1.9,0.1,2.7s0.1,1.4,0.1,2s0.1,0.9,0.1,1.2c0,0.1,0,0.3,0,0.4c0-0.1-0.1-0.3-0.1-0.4c0-0.3-0.1-0.7-0.1-1.2s-0.1-1.2-0.2-2
			s-0.1-1.7-0.1-2.7s0-2.2,0.1-3.4c0.1-1.3,0.2-2.6,0.4-4c0.4-3.3,1.1-6.5,2-9.7c2.5-8.3,6.9-15.8,12.7-22.2c3.5-3.7,7.4-7,11.8-9.6
			c9.4-5.7,20.2-8.6,31.2-8.3c5.1,0.1,10.1,0.9,15,2.5c8.2,2.6,15.8,7.1,22,13c2.4,2.3,4.6,4.7,6.6,7.4c0.9,1.2,1.6,2.3,2.3,3.3
			s1.3,2,1.8,2.9l1.3,2.4c0.3,0.7,0.6,1.3,0.8,1.8s0.4,0.9,0.5,1.1C477,108,477.1,108.1,477.1,108.2z"/>
		<path class="st4" d="M465.8,105.5c-0.2-0.2-0.3-0.4-0.5-0.6c-0.3-0.4-0.7-1-1.3-1.8c-1.6-2.1-3.4-4.1-5.3-6
			c-2.8-2.7-6-5.1-9.4-7.1c-8.4-5-18-7.2-27.7-6.6c-3.9,0.3-7.8,1-11.6,2.2c-2.5,0.8-5,1.8-7.4,3c-0.9,0.4-1.5,0.8-1.9,1
			c-0.2,0.1-0.5,0.2-0.7,0.3c0.2-0.2,0.4-0.3,0.6-0.4c0.4-0.3,1-0.7,1.9-1.1c2.4-1.3,4.8-2.3,7.4-3.1c17.2-5.7,36.2-1.2,49.1,11.6
			c1.9,1.9,3.6,3.9,5.2,6.1c0.6,0.8,0.9,1.4,1.2,1.8C465.6,105,465.7,105.2,465.8,105.5z"/>
		<g>
			<path class="st15" d="M479.3,155.4c0,0-0.2,28.8,0.8,32.6c1.6,5.9,7.9,4.6,7.9,4.6l0.5,10l17.7-0.9l-0.1-41.3L479.3,155.4z"/>
			<path class="st4" d="M491.7,152c3.7,4.4,19.4-0.7,20.9,16.7c1.6,17.4-6.3,24-6.3,24h-3.9c-3.5-0.1-5.3-0.4-8.5-4
				c-3-3.3-4.4-6.1-6.4-9.6c0,0,3.5-0.6,3.1-3.4c-0.6-3.9-3.6-4-5.8-2.3l-2.6-6.9c0,0-5.7-4.5-6.9-7
				C471.3,151.2,485.6,144.9,491.7,152z"/>
			<path class="st7" d="M509.8,183.1c-1.7-0.4-3.3-1.2-4.6-2.4c-1.9-1.8-3.4-3.9-4.7-6.2c-1.5-2.5-3.1-5.4-5.9-7.2
				c-2.8-1.8-6.1-2.3-8.9-2.8c-2.6-0.3-5-1.3-7.2-2.7c-1.4-1.1-2.4-2.6-2.9-4.3c-0.1-0.5-0.2-0.9-0.1-1.4c0.1-0.3,0.1-0.5,0.1-0.5
				c0,0.6,0,1.3,0.2,1.9c0.5,1.7,1.5,3.1,2.9,4.2c2.1,1.4,4.6,2.3,7.1,2.7c1.4,0.3,2.9,0.5,4.5,0.9c1.6,0.4,3.1,1,4.5,1.9
				c2.9,1.9,4.5,4.8,6,7.3c1.2,2.3,2.8,4.3,4.6,6.1C506.6,181.8,508.1,182.6,509.8,183.1c0.5,0,1,0.1,1.5,0.1h0.5
				C511.1,183.3,510.4,183.2,509.8,183.1z"/>
		</g>
		<g>
			<defs>
				<path id="SVGID_3_" d="M521.4,222.8l5.9,49.2l-52.1,4.5c1-8.2-1.6-51.6-1.6-51.6l-15.1-19.7l15-13.5c-0.3,0.8,14.1,9.1,14.1,9.1
					l18.5,0.2c1,0.1,2.1-9.1,3.1-8.9l12.1-16.7c0,0,7.8,11.5,5.2,25.6C524.7,210.8,525.1,213.2,521.4,222.8"/>
			</defs>
			<use xlink:href="#SVGID_3_"  style="overflow:visible;fill:#FF4C00;"/>
			<clipPath id="SVGID_4_">
				<use xlink:href="#SVGID_3_"  style="overflow:visible;"/>
			</clipPath>
			<g class="st16">
				<path class="st4" d="M499.3,224.9c21.4,0,38.7-2.9,38.7-2.7s-17.3,3.3-38.7,3.3c-21.3,0-38.6,1.9-38.6,1.7
					S477.9,224.9,499.3,224.9z"/>
				<path class="st4" d="M499.3,232.6c21.4,0,38.7-2.9,38.7-2.7s-17.3,3.3-38.7,3.3c-21.3,0-38.6,1.9-38.6,1.7
					S477.9,232.6,499.3,232.6z"/>
				<path class="st4" d="M499.3,240.3c21.4,0,38.7-2.9,38.7-2.7s-17.3,3.3-38.7,3.3c-21.3,0-38.6,1.9-38.6,1.7
					S477.9,240.3,499.3,240.3z"/>
				<path class="st4" d="M498,201.9c21.4,0,38.6-2.9,38.6-2.7s-17.3,3.3-38.6,3.3c-21.3,0-38.7,1.9-38.7,1.7S476.7,201.9,498,201.9z
					"/>
				<path class="st4" d="M497.2,195.4c21.4,0,38.6-2.9,38.6-2.7s-17.3,3.3-38.6,3.3s-38.6,1.9-38.6,1.7S475.9,195.4,497.2,195.4z"/>
				<path class="st4" d="M496,188.5c21.3,0,38.7-2.9,38.7-2.7s-17.3,3.3-38.7,3.3c-21.3,0-38.6,1.9-38.6,1.7S474.7,188.5,496,188.5z
					"/>
				<path class="st4" d="M498,209.6c21.4,0,38.6-2.9,38.6-2.7s-17.3,3.3-38.6,3.3c-21.3,0-38.7,1.9-38.7,1.7S476.7,209.6,498,209.6z
					"/>
				<path class="st4" d="M498,217.3c21.4,0,38.6-2.9,38.6-2.7s-17.3,3.3-38.6,3.3c-21.3,0-38.7,1.9-38.7,1.7S476.7,217.3,498,217.3z
					"/>
				<path class="st4" d="M499.3,248c21.4,0,38.7-2.9,38.7-2.7s-17.3,3.3-38.7,3.3c-21.3,0-38.6,1.9-38.6,1.7S477.9,248,499.3,248z"
					/>
				<path class="st4" d="M499.3,255.7c21.4,0,38.7-2.9,38.7-2.7s-17.3,3.3-38.7,3.3c-21.3,0-38.6,1.9-38.6,1.7
					C460.6,257.8,477.9,255.7,499.3,255.7z"/>
				<path class="st4" d="M499.3,263.4c21.4,0,38.7-2.9,38.7-2.7c0,0.1-17.3,3.3-38.7,3.3c-21.3,0-38.6,1.9-38.6,1.7
					C460.6,265.6,477.9,263.4,499.3,263.4z"/>
			</g>
		</g>
		<path class="st4" d="M485.9,203.2c0.3,0.3,0.6,0.6,0.8,0.9c0.6,0.9,1.1,1.8,1.6,2.8c0.6,1.5,0.9,3.1,1,4.7c0.1,2-0.3,4-1.2,5.8
			c-0.9,1.8-2.3,3.3-4,4.3c-1.4,0.8-3,1.2-4.7,1.3c-1.1,0-2.2-0.2-3.2-0.6c-0.3-0.1-0.5-0.3-0.8-0.4c-0.2-0.1-0.3-0.2-0.3-0.2
			c1.3,0.6,2.8,0.9,4.2,0.8c1.6-0.1,3.1-0.5,4.4-1.3c1.6-1,2.9-2.4,3.8-4.2c0.9-1.7,1.3-3.6,1.2-5.5c0-1.6-0.3-3.1-0.9-4.6
			C487.3,205.8,486.6,204.5,485.9,203.2z"/>
		<path class="st4" d="M518,222.7c-0.1,0,0.4-1,0.8-2.6c1.1-4.2,0.8-8.7-1-12.7c-0.7-1.5-1.3-2.4-1.2-2.4s0.2,0.2,0.5,0.6
			c0.4,0.5,0.7,1.1,1,1.7c1,2,1.6,4.1,1.8,6.4c0.2,2.2-0.1,4.5-0.8,6.6c-0.2,0.6-0.5,1.3-0.8,1.9C518.1,222.5,518,222.7,518,222.7z"
			/>
	</g>
</g>
</svg>
