<svg xmlns="http://www.w3.org/2000/svg" viewBox="0 0 458.4 435.22"><defs><style>.\39 8158eeb-a52b-44c0-997a-9143dd4f3cb5{fill:#f5f5f5;}.c24bd779-73e8-49aa-8a29-b590be117ba4{fill:#e6e6e6;}.a71ef263-c65c-4ff5-b0e9-9b48c8c9699a{fill:#06826a;}.\37 32b9da1-ce4e-432f-ae14-abce8f9bc986,.\39 edc5d5b-9034-4c9f-b765-fb32bfb8de40{opacity:0.1;}.\30 291d2d6-2ff3-4b78-ac37-73ed7cadb42d,.\31 75f035e-be4a-4d01-b541-3b7c8bfce040,.\31 f9c36de-89c8-48d7-95b0-84027fac38b8,.\32 ebb45b8-3999-4c16-892f-13004a29d652,.\33 4b71bae-045f-45be-a126-5e1d4449ae22,.\34 51ca06d-1e8c-4789-aa1c-5137d8e55d7e,.bc4b8a42-1d69-464b-834e-84357f539995,.ee7703b5-60fb-4326-876e-65c38acf8fb9,.f3b07ec7-4150-4850-950c-e4523785491b{fill:#fff;}.\38 9c35a86-9c78-4f8a-a376-d2c80ed2b50b{fill:#ff3600;}.\35 78df1bb-ff4b-4f6d-b23a-4c4448f4f8bd{fill:#37474f;}.\36 126b106-0a3b-4a95-90fb-3d22b01e5b39{fill:#263238;}.ec718790-2149-4552-bdb3-b1e874461657{fill:#455a64;}.\38 7408887-4ac2-4f36-a6ef-80433eed1ed2{fill:#fafafa;}.a88c38bc-2254-4d8e-9f0a-acc056a2d0af{fill:#d3d3d3;}.\32 ebb45b8-3999-4c16-892f-13004a29d652,.ea348ef4-efd8-4d40-8624-355dbd35bb6c{opacity:0.5;}.\30 291d2d6-2ff3-4b78-ac37-73ed7cadb42d,.\31 f9c36de-89c8-48d7-95b0-84027fac38b8,.\32 ebb45b8-3999-4c16-892f-13004a29d652,.\33 4b71bae-045f-45be-a126-5e1d4449ae22,.\34 51ca06d-1e8c-4789-aa1c-5137d8e55d7e,.\34 85e255a-ea02-489c-b324-bc49ba4df3ef,.\39 edc5d5b-9034-4c9f-b765-fb32bfb8de40,.a01e2004-a05b-47a7-aced-5b2e2a399cf6,.bc4b8a42-1d69-464b-834e-84357f539995,.ee7703b5-60fb-4326-876e-65c38acf8fb9,.f3b07ec7-4150-4850-950c-e4523785491b{isolation:isolate;}.\31 f9c36de-89c8-48d7-95b0-84027fac38b8{opacity:0.65;}.\38 6965acc-9d36-4372-8696-fe7848c5008f{opacity:0.75;}.\34 51ca06d-1e8c-4789-aa1c-5137d8e55d7e,.a01e2004-a05b-47a7-aced-5b2e2a399cf6{opacity:0.2;}.\34 85e255a-ea02-489c-b324-bc49ba4df3ef{opacity:0.4;}.\33 4b71bae-045f-45be-a126-5e1d4449ae22{opacity:0.15;}.\30 291d2d6-2ff3-4b78-ac37-73ed7cadb42d{opacity:0.85;}.\33 f40b75e-cb5f-4f9d-8e93-60fe2951183f{fill:#a43010;}.ee7703b5-60fb-4326-876e-65c38acf8fb9{opacity:0.35;}.bc4b8a42-1d69-464b-834e-84357f539995{opacity:0.8;}.f3b07ec7-4150-4850-950c-e4523785491b{opacity:0.7;}</style></defs><title>Asset 1</title><g id="92aeeddb-a9db-4147-94a1-ccdb1ff10b71" data-name="Layer 2"><g id="29bda806-a403-4180-8123-fc8b67bdc729" data-name="Layer 1"><g id="8bd486bc-f891-4608-9d95-bbcc1fbcca63" data-name="freepik--Floor--inject-26"><ellipse id="ed8fb933-243d-4fbb-b9b5-379047bd771d" data-name="freepik--floor--inject-26" class="98158eeb-a52b-44c0-997a-9143dd4f3cb5" cx="229.2" cy="310.92" rx="229.2" ry="124.3"/></g><g id="695eb6e9-6bd8-44fe-b295-e84279914bd9" data-name="freepik--Shadows--inject-26"><path id="9c0ec406-fe54-4c93-a0e7-295528ad7826" data-name="freepik--Shadow--inject-26" class="c24bd779-73e8-49aa-8a29-b590be117ba4" d="M189.1,345.72l-69,39.8a6.37,6.37,0,0,1-6,0l-68.8-39.8c-1.7-1-1.7-2.5,0-3.5l68.9-39.8a6.38,6.38,0,0,1,6,0l68.9,39.8C190.7,343.22,190.7,344.82,189.1,345.72Z"/><path class="c24bd779-73e8-49aa-8a29-b590be117ba4" d="M320.3,335.22a9.47,9.47,0,0,1-4.9-1.3l-70.3-40.6a6.33,6.33,0,0,1,0-11.3l96.3-55.6a10.25,10.25,0,0,1,9.9,0L421.6,267a6.33,6.33,0,0,1,0,11.3l-96.2,55.6A10.74,10.74,0,0,1,320.3,335.22Z"/></g><g id="1156ead7-f47a-48e7-80d9-f3ccb3da2c88" data-name="freepik--Plants--inject-26"><g id="9c17cd1a-8ff3-498a-8601-14000a9e5b76" data-name="freepik--plants--inject-26"><path class="a71ef263-c65c-4ff5-b0e9-9b48c8c9699a" d="M397.2,251.82c.1-7.7-1.3-21.8,5.3-35,4.8-9.6,13.3-18.8,21.1-17.8,7.3.9,7.8,12.1.8,19.7s-13.6,20.7-15.6,37.7l-7.5,10Z"/><g class="732b9da1-ce4e-432f-ae14-abce8f9bc986"><path d="M397.2,251.82c.1-7.7-1.3-21.8,5.3-35,4.8-9.6,13.3-18.8,21.1-17.8,7.3.9,7.8,12.1.8,19.7s-13.6,20.7-15.6,37.7l-7.5,10Z"/></g><path class="175f035e-be4a-4d01-b541-3b7c8bfce040" d="M403.3,257.82a.55.55,0,0,0,.4-.6c-2-21.7,4.2-40.2,17.8-53.3a.57.57,0,1,0-.8-.8h0c-13.9,13.4-20.2,32.1-18.1,54.2,0,.3.3.5.7.5Z"/><path class="89c35a86-9c78-4f8a-a376-d2c80ed2b50b" d="M408.4,262.92a26.69,26.69,0,0,0,13.6,3.4c8.2,0,11.1-4.4,11.1-4.4s-4.3-7-9.2-8.4a44.47,44.47,0,0,1,14.8,3.5s4.9-.7,5.7-8.5c0,0-3.6-4-13.7-4.9,0,0,5.7-2.4,14.5-1.6.7.1,1.9-9.9,2-14.5s-1.7-4.3-5.3-4.6-15.5.9-17.4,3.2-1.9,9-1.9,9-2.7-3.4-2.7-6.7a10.66,10.66,0,0,0-6.9,2.1c-2.2,1.6-3.4,3-3.5,5.9a51.14,51.14,0,0,0,.8,9.6,18.72,18.72,0,0,1-2-11.6s-6.6,4.5-6.9,9S400.3,256.62,408.4,262.92Z"/><path class="175f035e-be4a-4d01-b541-3b7c8bfce040" d="M408.6,263.42a.78.78,0,0,0,.4-.4c4.3-14.4,25.8-33.8,34.1-36.9a.52.52,0,0,0,.3-.7h0a.45.45,0,0,0-.6-.3h0c-8.5,3.1-30.4,22.9-34.8,37.5a.57.57,0,0,0,.4.7C408.4,263.52,408.5,263.52,408.6,263.42Z"/></g></g><g id="0f65aadf-c5cd-401d-9fc1-5c36a780434a" data-name="freepik--Lines--inject-26"><path class="89c35a86-9c78-4f8a-a376-d2c80ed2b50b" d="M243.1,336.12a5,5,0,0,1-2.4-.6l-32.2-18.6a4.24,4.24,0,0,0-3.8,0l-30.3,17.5a.5.5,0,0,1-.6-.8.1.1,0,0,0,.1-.1L204.2,316a5.1,5.1,0,0,1,4.8,0l32.3,18.6a4.24,4.24,0,0,0,3.8,0l42.5-24.5a.5.5,0,1,1,.6.8.1.1,0,0,0-.1.1l-42.5,24.5A5.73,5.73,0,0,1,243.1,336.12Z"/><path class="89c35a86-9c78-4f8a-a376-d2c80ed2b50b" d="M165.9,329.82c-.2,0-.3-.1-.4-.3a.66.66,0,0,1,.2-.7l38.4-22.2a5.1,5.1,0,0,1,4.8,0l32.2,18.6a4.24,4.24,0,0,0,3.8,0l34.4-19.9a.5.5,0,1,1,.6.8.1.1,0,0,0-.1.1l-34.4,19.9a5.1,5.1,0,0,1-4.8,0l-32.2-18.6a4.24,4.24,0,0,0-3.8,0l-38.4,22.2C166.1,329.72,166,329.82,165.9,329.82Z"/><path class="89c35a86-9c78-4f8a-a376-d2c80ed2b50b" d="M157.8,325.12c-.2,0-.3-.1-.4-.3a.66.66,0,0,1,.2-.7l46.6-26.9a5.1,5.1,0,0,1,4.8,0l32.2,18.6a4.24,4.24,0,0,0,3.8,0l26.6-15.4a.66.66,0,0,1,.7.2.53.53,0,0,1-.2.7h0l-26.6,15.4a5.1,5.1,0,0,1-4.8,0l-32.2-18.6a4.24,4.24,0,0,0-3.8,0L158.1,325A.37.37,0,0,1,157.8,325.12Z"/><path class="89c35a86-9c78-4f8a-a376-d2c80ed2b50b" d="M149.7,320.42a.47.47,0,0,1-.5-.5.52.52,0,0,1,.2-.4l54.6-31.6a5.1,5.1,0,0,1,4.8,0l32.2,18.6a4.24,4.24,0,0,0,3.8,0L262.9,296a.62.62,0,0,1,.7.2.48.48,0,0,1-.2.6l-18.1,10.5a5.1,5.1,0,0,1-4.8,0l-32.2-18.6a4.24,4.24,0,0,0-3.8,0l-54.7,31.6C149.9,320.42,149.8,320.42,149.7,320.42Z"/></g><g id="77e5cf88-9dad-4ac3-bb1d-ae241f42aa19" data-name="freepik--Device--inject-26"><g id="10354812-6ca6-4ee5-9ebd-577c175d64af" data-name="freepik--Laptop--inject-26"><g id="04456eb0-9c1c-4594-a107-9bf4f0481500" data-name="freepik--laptop--inject-26"><path class="578df1bb-ff4b-4f6d-b23a-4c4448f4f8bd" d="M242.3,283.62a5.37,5.37,0,0,0,2.6,4.3l72.4,41.8a5.93,5.93,0,0,0,5.2,0l99.1-57.2a4.88,4.88,0,0,0,0-8.6l-72.5-41.8a5.93,5.93,0,0,0-5.2,0l-99.1,57.2A5.57,5.57,0,0,0,242.3,283.62Z"/><path class="6126b106-0a3b-4a95-90fb-3d22b01e5b39" d="M319.9,324.72v5.6a5.83,5.83,0,0,1-2.6-.6l-72.4-41.8a4.83,4.83,0,0,1-2-6.6,4.69,4.69,0,0,1,1.8-1.9c-1.2.8-1.1,2,.3,2.8L317.4,324A3.22,3.22,0,0,0,319.9,324.72Z"/><path class="ec718790-2149-4552-bdb3-b1e874461657" d="M239.8,279.42a5.24,5.24,0,0,1-2.4-4.4v-86.4a5.89,5.89,0,0,1,2.6-4.5l99.1-57.3a4.93,4.93,0,0,1,6.7,1.5,4.52,4.52,0,0,1,.7,2.8v86.5a5.89,5.89,0,0,1-2.6,4.5l-99.1,57.2A5.5,5.5,0,0,1,239.8,279.42Z"/><path class="6126b106-0a3b-4a95-90fb-3d22b01e5b39" d="M244.6,279.52a4.77,4.77,0,0,1-6.5-1.9,5.42,5.42,0,0,1-.6-2.5v-86.5a4.38,4.38,0,0,1,.8-2.5l4.8,2.8h0a5.66,5.66,0,0,0-.8,2.5v86.4C242.3,279.42,243.3,280,244.6,279.52Z"/><path class="578df1bb-ff4b-4f6d-b23a-4c4448f4f8bd" d="M242.3,191.42v86.4c0,1.6,1.1,2.3,2.6,1.5l99.1-57.2a5.89,5.89,0,0,0,2.6-4.5v-86.4a1.6,1.6,0,0,0-2.6-1.5l-99.1,57.2A5.62,5.62,0,0,0,242.3,191.42Z"/><path class="ec718790-2149-4552-bdb3-b1e874461657" d="M244.9,282.32l72.4,41.8a5.93,5.93,0,0,0,5.2,0l99.1-57.2a1.6,1.6,0,0,0,0-3l-72.5-41.8a5.93,5.93,0,0,0-5.2,0l-99.1,57.2C243.4,280.12,243.4,281.52,244.9,282.32Z"/><path class="87408887-4ac2-4f36-a6ef-80433eed1ed2" d="M246.2,191.72l95.6-55.1c.9-.5,1.5-.1,1.5.9v74.8a3.55,3.55,0,0,1-1.5,2.7l-95.6,55.1c-.9.5-1.5.1-1.5-.9v-74.9A3.53,3.53,0,0,1,246.2,191.72Z"/><path class="a71ef263-c65c-4ff5-b0e9-9b48c8c9699a" d="M253.3,280.12l92-53.1a3,3,0,0,1,2.6,0l4.7,2.7a.83.83,0,0,1,.5,1,1.21,1.21,0,0,1-.5.5l-92,53.1a3,3,0,0,1-2.6,0l-4.7-2.7a.83.83,0,0,1-.6-1C252.8,280.42,253,280.12,253.3,280.12Z"/><path class="6126b106-0a3b-4a95-90fb-3d22b01e5b39" d="M253.3,280.12l92-53.1a3,3,0,0,1,2.6,0l4.7,2.7a.83.83,0,0,1,.5,1,1.21,1.21,0,0,1-.5.5l-92,53.1a3,3,0,0,1-2.6,0l-4.7-2.7a.83.83,0,0,1-.6-1C252.8,280.42,253,280.12,253.3,280.12Z"/><path class="6126b106-0a3b-4a95-90fb-3d22b01e5b39" d="M265.4,287.12l92-53.1a3,3,0,0,1,2.6,0l28.9,16.7a.83.83,0,0,1,.5,1,1.21,1.21,0,0,1-.5.5L297,305.32a3,3,0,0,1-2.6,0l-29-16.6a.72.72,0,0,1-.5-1C265,287.42,265.1,287.22,265.4,287.12Z"/><path class="a71ef263-c65c-4ff5-b0e9-9b48c8c9699a" d="M347.9,257.92l2.9-1.7a.19.19,0,0,0,0-.3l-3.3-1.9a.45.45,0,0,0-.5,0l-2.9,1.6a.19.19,0,0,0,0,.3l3.3,1.9A.9.9,0,0,0,347.9,257.92Zm-5.7-6.7-2.9,1.7a.19.19,0,0,0,0,.3l3.3,1.9a.45.45,0,0,0,.5,0l2.9-1.7a.19.19,0,0,0,0-.3l-3.3-1.9Zm-9.3,5.4-4.9,2.8a.19.19,0,0,0,0,.3l3.3,1.9a.45.45,0,0,0,.5,0l4.9-2.8a.19.19,0,0,0,0-.3l-3.3-1.9A.45.45,0,0,0,332.9,256.62Zm5.1-2.9-2.9,1.7a.19.19,0,0,0,0,.3l3.3,1.9a.45.45,0,0,0,.5,0l2.9-1.7a.19.19,0,0,0,0-.3l-3.3-1.9a.45.45,0,0,0-.5,0Zm-11.3,6.5-2.9,1.7a.19.19,0,0,0,0,.3l3.3,1.9a.45.45,0,0,0,.5,0l2.9-1.7a.19.19,0,0,0,0-.3l-3.4-1.9a.3.3,0,0,0-.4,0Zm-4.2,2.4-2.9,1.7a.19.19,0,0,0,0,.3l3.3,1.9a.45.45,0,0,0,.5,0l2.9-1.7a.19.19,0,0,0,0-.3l-3.3-1.9A.45.45,0,0,0,322.5,262.62Zm13.1,7.8,2.9-1.7a.19.19,0,0,0,0-.3l-3.4-1.8a.45.45,0,0,0-.5,0l-2.9,1.7a.19.19,0,0,0,0,.3l3.3,1.9a1.27,1.27,0,0,0,.6-.1Zm-4.3,2.5,2.9-1.7a.19.19,0,0,0,0-.3l-3.3-1.9a.45.45,0,0,0-.5,0l-2.9,1.7a.19.19,0,0,0,0,.3l3.3,1.9Zm-4.2,2.4,2.9-1.7a.19.19,0,0,0,0-.3l-3.3-1.9a.45.45,0,0,0-.5,0l-2.9,1.7a.19.19,0,0,0,0,.3l3.3,1.9A.45.45,0,0,0,327.1,275.32Zm-4.2,2.4,2.9-1.7a.19.19,0,0,0,0-.3l-3.3-1.9a.45.45,0,0,0-.5,0l-2.9,1.7a.19.19,0,0,0,0,.3l3.3,1.9a.45.45,0,0,0,.5,0Zm20.7-17.4,2.9-1.7a.19.19,0,0,0,0-.3l-3.3-1.9a.45.45,0,0,0-.5,0l-2.9,1.7a.19.19,0,0,0,0,.3l3.3,1.9a.45.45,0,0,0,.5,0Zm-3.9,7.7,6.4-3.7a.19.19,0,0,0,0-.3l-8.1-4.7a.45.45,0,0,0-.5,0l-3.3,1.9a.19.19,0,0,0,0,.3l4.3,2.5a.19.19,0,0,1,0,.3l-2.7,1.5a.19.19,0,0,0,0,.3l3.3,1.9q.45.15.6,0Zm-21.5-3-2.9,1.7a.19.19,0,0,0,0,.3l3.3,1.9a.45.45,0,0,0,.5,0l2.9-1.7a.19.19,0,0,0,0-.3l-3.3-1.9Zm-4.2,2.4-2.9,1.7a.19.19,0,0,0,0,.3l3.3,1.9a.45.45,0,0,0,.5,0l2.9-1.7a.19.19,0,0,0,0-.3l-3.3-1.9Zm-21,27.3a.45.45,0,0,0,.5,0l2.9-1.7a.19.19,0,0,0,0-.3l-3.3-1.9a.45.45,0,0,0-.5,0l-2.9,1.8a.19.19,0,0,0,0,.3Zm-12.6-7.8-2.9,1.7a.19.19,0,0,0,0,.3l3.3,1.9a.45.45,0,0,0,.5,0l2.9-1.7a.19.19,0,0,0,0-.3l-3.3-1.9Zm6.7,5.7a.45.45,0,0,0,.5,0l2.9-1.7a.19.19,0,0,0,0-.3l-3.3-1.9a.45.45,0,0,0-.5,0l-2.9,1.7a.19.19,0,0,0,0,.3Zm13.3,3.6,2.9-1.7a.19.19,0,0,0,0-.3l-3.3-1.9a.45.45,0,0,0-.5,0l-2.9,1.7a.19.19,0,0,0,0,.3l3.3,1.9a.45.45,0,0,0,.5,0Zm-4.6,2.4a.45.45,0,0,0,.5,0l2.9-1.7a.19.19,0,0,0,0-.3l-3.3-1.9a.45.45,0,0,0-.5,0l-2.9,1.7a.19.19,0,0,0,0,.3Zm-11.2-14.1-2.9,1.7a.19.19,0,0,0,0,.3l3.3,1.9a.45.45,0,0,0,.5,0l2.9-1.7a.19.19,0,0,0,0-.3l-3.3-1.9a.45.45,0,0,0-.5,0Zm21-12.2-2.9,1.7a.19.19,0,0,0,0,.3l3.4,2a.45.45,0,0,0,.5,0l2.9-1.7a.19.19,0,0,0,0-.3l-3.3-1.9a1.49,1.49,0,0,0-.6-.1ZM288.8,282l-2.9,1.7a.19.19,0,0,0,0,.3l3.3,1.9a.45.45,0,0,0,.5,0l2.9-1.7a.19.19,0,0,0,0-.3l-3.3-1.9Zm21-12.1-2.9,1.7a.19.19,0,0,0,0,.3l3.3,1.9a.45.45,0,0,0,.5,0l2.9-1.7a.19.19,0,0,0,0-.3l-3.3-1.9Zm-8.4,4.8-2.9,1.7a.19.19,0,0,0,0,.3l3.3,1.9a.45.45,0,0,0,.5,0l2.9-1.7a.19.19,0,0,0,0-.3l-3.3-1.9Zm-4.2,2.5-2.9,1.7a.19.19,0,0,0,0,.3l3.3,1.9a.45.45,0,0,0,.5,0l2.9-1.7a.19.19,0,0,0,0-.3l-3.3-1.9a.45.45,0,0,0-.5,0Zm-4.2,2.4-2.9,1.7a.19.19,0,0,0,0,.3l3.3,1.9a.45.45,0,0,0,.5,0l2.9-1.7a.19.19,0,0,0,0-.3l-3.3-1.9C293.3,279.62,293.1,279.52,293,279.62Zm21.5,3,2.9-1.7a.19.19,0,0,0,0-.3l-3.3-1.9a.45.45,0,0,0-.5,0l-2.9,1.7a.19.19,0,0,0,0,.3l3.3,1.9A.45.45,0,0,0,314.5,282.62Zm37-36.7-2.9,1.7a.19.19,0,0,0,0,.3l3.3,1.9a.45.45,0,0,0,.5,0l2.9-1.7a.19.19,0,0,0,0-.3l-3.3-1.9a.45.45,0,0,0-.5,0Zm-5.1,2.9-2.9,1.7a.19.19,0,0,0,0,.3l3.3,1.9a.45.45,0,0,0,.5,0l2.9-1.7a.19.19,0,0,0,0-.3l-3.3-1.9a.45.45,0,0,0-.5,0Zm9.3-5.4-2.9,1.7a.19.19,0,0,0,0,.3l3.3,1.9a.45.45,0,0,0,.5,0l2.9-1.7a.19.19,0,0,0,0-.3l-3.3-1.9Zm-21.8,22.5,2.9-1.7a.19.19,0,0,0,0-.3l-3.3-1.9a.45.45,0,0,0-.5,0l-2.9,1.7a.19.19,0,0,0,0,.3l3.3,1.9A.45.45,0,0,0,333.9,265.92ZM360.4,241a.45.45,0,0,0-.5,0l-2.9,1.7a.19.19,0,0,0,0,.3l3.3,1.9a.45.45,0,0,0,.5,0l2.9-1.7a.19.19,0,0,0,0-.3Zm-41.7,39.2,2.9-1.7a.19.19,0,0,0,0-.3l-3.3-1.9a.45.45,0,0,0-.5,0l-2.9,1.7a.19.19,0,0,0,0,.3l3.3,1.9Zm51.6-29.8,2.9-1.7a.19.19,0,0,0,0-.3l-3.3-1.9a.45.45,0,0,0-.5,0l-2.9,1.7a.19.19,0,0,0,0,.3l3.3,1.9Zm-9-.4,2.9-1.7a.19.19,0,0,0,0-.3l-3.3-1.9a.45.45,0,0,0-.5,0l-2.9,1.7a.19.19,0,0,0,0,.3l3.3,1.9a.45.45,0,0,0,.5,0Zm3.8-6.2a.45.45,0,0,0-.5,0l-2.9,1.7a.19.19,0,0,0,0,.3l3.4,1.9a.45.45,0,0,0,.5,0l2.9-1.7a.19.19,0,0,0,0-.3Zm.9-.6,8.1,4.7a.45.45,0,0,0,.5,0l2.9-1.7a.19.19,0,0,0,0-.3l-8.1-4.7a.45.45,0,0,0-.5,0l-2.9,1.7q-.15.3,0,.3Zm-9.8,5.4-2.9,1.7a.19.19,0,0,0,0,.3l3.3,1.9a.45.45,0,0,0,.5,0l2.9-1.7a.19.19,0,0,0,0-.3l-3.3-1.9A.45.45,0,0,0,356.2,248.62Zm-31.6,18.3-2.9,1.7a.19.19,0,0,0,0,.3l3.3,1.9a.45.45,0,0,0,.5,0l2.9-1.7a.19.19,0,0,0,0-.3l-3.3-1.9c-.2,0-.4-.1-.5,0Zm41.1-14.1a.45.45,0,0,0,.5,0l2.9-1.7a.19.19,0,0,0,0-.3l-3.3-1.9a.45.45,0,0,0-.5,0l-2.9,1.7a.19.19,0,0,0,0,.3Zm-36.9,11.7-2.9,1.7a.19.19,0,0,0,0,.3l3.3,1.9a.45.45,0,0,0,.5,0l2.9-1.7a.19.19,0,0,0,0-.3l-3.3-1.9a.45.45,0,0,0-.5,0Zm-31.6,27.8a.45.45,0,0,0,.5,0l2.9-1.7a.19.19,0,0,0,0-.3l-3.3-1.9a.45.45,0,0,0-.5,0l-2.9,1.7a.19.19,0,0,0,0,.3Zm-6.3-6L288,288a.19.19,0,0,0,0,.3l3.3,1.9a.45.45,0,0,0,.5,0l2.9-1.7a.19.19,0,0,0,0-.3l-3.3-1.9Zm11,3.6,2.9-1.7a.19.19,0,0,0,0-.3l-3.3-1.9a.45.45,0,0,0-.5,0l-2.9,1.7a.19.19,0,0,0,0,.3l3.3,1.9a.45.45,0,0,0,.5,0Zm4.2-2.5,2.9-1.7a.19.19,0,0,0,0-.3l-3.3-1.9a.45.45,0,0,0-.5,0l-2.9,1.7a.19.19,0,0,0,0,.3l3.3,1.9a.45.45,0,0,0,.5,0Zm4.2-2.4,2.9-1.7a.19.19,0,0,0,0-.3l-3.3-1.9a.45.45,0,0,0-.5,0l-2.9,1.7a.19.19,0,0,0,0,.3l3.3,1.9a.45.45,0,0,0,.5,0Zm-15.2-1.1-2.9,1.7a.19.19,0,0,0,0,.3l3.3,1.9a.45.45,0,0,0,.5,0l2.9-1.7a.19.19,0,0,0,0-.3l-3.3-1.9Zm4.2-2.4-2.9,1.7a.19.19,0,0,0,0,.3l3.3,1.9a.45.45,0,0,0,.5,0l2.9-1.7a.19.19,0,0,0,0-.3l-3.3-1.9a.45.45,0,0,0-.5,0Zm16.8-9.7-2.9,1.7a.19.19,0,0,0,0,.3l3.4,1.9a.45.45,0,0,0,.5,0L320,274a.19.19,0,0,0,0-.3l-3.3-1.9A.63.63,0,0,0,316.1,271.82Zm-4.2,2.4-2.9,1.7a.19.19,0,0,0,0,.3l3.3,1.9a.45.45,0,0,0,.5,0l2.9-1.7a.19.19,0,0,0,0-.3l-3.3-1.9a.45.45,0,0,0-.5,0Zm8.4-4.9-2.9,1.7a.19.19,0,0,0,0,.3l3.3,1.9a.45.45,0,0,0,.5,0l2.9-1.7a.19.19,0,0,0,0-.3l-3.3-1.9Zm-16.8,9.8-2.9,1.7a.19.19,0,0,0,0,.3l3.3,1.9a.45.45,0,0,0,.5,0l2.9-1.7a.19.19,0,0,0,0-.3l-3.3-1.9a.45.45,0,0,0-.5,0Zm4.2-2.5-2.9,1.7a.19.19,0,0,0,0,.3l3.3,1.9a.45.45,0,0,0,.5,0l2.9-1.7a.19.19,0,0,0,0-.3l-3.3-2a.9.9,0,0,0-.5.1Zm-3.1,17.2,2.9-1.7a.19.19,0,0,0,0-.3l-3.3-1.9a.45.45,0,0,0-.5,0l-2.9,1.7a.19.19,0,0,0,0,.3l3.3,1.9a.45.45,0,0,0,.5,0Zm-24.7-2.5-3.3-1.9a.45.45,0,0,0-.5,0l-2.9,1.7a.19.19,0,0,0,0,.3l3.3,1.9a.45.45,0,0,0,.5,0l2.9-1.7q.3-.15,0-.3Zm6.3,1.9-3.3-1.9a.45.45,0,0,0-.5,0l-4.4,2.6a.19.19,0,0,0,0,.3l3.3,1.9a.45.45,0,0,0,.5,0l4.4-2.6q.3-.3,0-.3Zm-11.4-5.6-3.3-1.9a.45.45,0,0,0-.5,0l-3.5,2a.19.19,0,0,0,0,.3l3.3,1.9a.45.45,0,0,0,.5,0l3.5-2C275,287.82,275,287.62,274.8,287.62Zm2.7-1.6a.45.45,0,0,0,.5,0l2.9-1.7a.19.19,0,0,0,0-.3l-3.3-1.9a.45.45,0,0,0-.5,0l-2.9,1.7a.19.19,0,0,0,0,.3Zm14.6,9.2-3.3-1.9a.45.45,0,0,0-.5,0l-5.5,3.2a.19.19,0,0,0,0,.3l3.3,1.9a.45.45,0,0,0,.5,0l5.5-3.2C292.2,295.52,292.2,295.32,292.1,295.22Zm2.8,3.9-3.3-1.9a.45.45,0,0,0-.5,0l-3.5,2a.19.19,0,0,0,0,.3l3.3,1.9a.45.45,0,0,0,.5,0l3.5-2c.1,0,.1-.2,0-.3Zm14-31.2a.45.45,0,0,0,.5,0l2.9-1.7a.19.19,0,0,0,0-.3L309,264a.45.45,0,0,0-.5,0l-2.9,1.7a.19.19,0,0,0,0,.3Zm-8.5,4.9a.45.45,0,0,0,.5,0l2.9-1.7a.19.19,0,0,0,0-.3l-3.3-1.9a.45.45,0,0,0-.5,0l-2.9,1.7a.19.19,0,0,0,0,.3Zm-18.7,10.8a.45.45,0,0,0,.5,0l2.9-1.7a.19.19,0,0,0,0-.3l-3.3-1.9a.45.45,0,0,0-.5,0l-2.9,1.7a.19.19,0,0,0,0,.3Zm22.9-13.2a.45.45,0,0,0,.5,0l2.9-1.7a.19.19,0,0,0,0-.3l-3.3-1.9a.45.45,0,0,0-.5,0l-2.9,1.7a.19.19,0,0,0,0,.3Zm-8.4,4.8a.45.45,0,0,0,.5,0l2.9-1.7a.19.19,0,0,0,0-.3l-3.3-1.9a.45.45,0,0,0-.5,0l-2.9,1.7a.19.19,0,0,0,0,.3Zm1,24.3a.45.45,0,0,0-.5,0l-4.4,2.5a.19.19,0,0,0,0,.3l3.3,1.9a.45.45,0,0,0,.5,0l4.4-2.6a.19.19,0,0,0,0-.3Zm-7-20.8a.45.45,0,0,0,.5,0l2.9-1.7a.19.19,0,0,0,0-.3l-3.3-1.9a.45.45,0,0,0-.5,0l-2.9,1.7a.19.19,0,0,0,0,.3Zm-4.2,2.5a.45.45,0,0,0,.5,0l2.9-1.7a.19.19,0,0,0,0-.3l-3.3-1.9a.45.45,0,0,0-.5,0l-2.9,1.7a.19.19,0,0,0,0,.3Zm89.2-26.7a.45.45,0,0,0-.5,0l-7.1,4.1a.19.19,0,0,0,0,.3l3.3,1.9a.45.45,0,0,0,.5,0l7.1-4.1a.19.19,0,0,0,0-.3Zm-9.3,5.3a.45.45,0,0,0-.5,0l-2.9,1.7a.19.19,0,0,0,0,.3l3.3,1.9a.45.45,0,0,0,.5,0l2.9-1.7a.19.19,0,0,0,0-.3Zm-57,31.6,2.9-1.7a.19.19,0,0,0,0-.3l-3.3-1.9a.45.45,0,0,0-.5,0l-2.9,1.7a.19.19,0,0,0,0,.3l3.3,1.9Zm48.6-26.7a.45.45,0,0,0-.5,0l-3,1.6a.19.19,0,0,0,0,.3l3.3,1.9a.45.45,0,0,0,.5,0l2.9-1.7a.19.19,0,0,0,0-.3Zm22-12.7a.45.45,0,0,0-.5,0l-2.9,1.6a.19.19,0,0,0,0,.3l3.3,1.9a.45.45,0,0,0,.5,0l2.9-1.7a.19.19,0,0,0,0-.3Zm7.5-.5-8.1-4.7a.45.45,0,0,0-.5,0l-2.9,1.7a.19.19,0,0,0,0,.3l8.1,4.7a.45.45,0,0,0,.5,0l2.9-1.7a.19.19,0,0,0,0-.3Zm-45.2,22.3a.45.45,0,0,0-.5,0l-3.5,2a.19.19,0,0,0,0,.3l3.3,1.9a.45.45,0,0,0,.5,0l3.5-2a.19.19,0,0,0,0-.3Zm10.6-6.2a.45.45,0,0,0-.5,0l-4.4,2.6a.19.19,0,0,0,0,.3l3.3,1.9a.45.45,0,0,0,.5,0l4.4-2.6a.19.19,0,0,0,0-.3ZM332,279.42a.45.45,0,0,0-.5,0l-23.7,13.7a.19.19,0,0,0,0,.3l3.3,1.9a.45.45,0,0,0,.5,0l23.7-13.6a.19.19,0,0,0,0-.3Zm-25,14.4a.45.45,0,0,0-.5,0l-3.5,2a.19.19,0,0,0,0,.3l3.3,1.9a.45.45,0,0,0,.5,0l3.5-2a.19.19,0,0,0,0-.3Zm29.9-17.2a.45.45,0,0,0-.5,0l-3.5,2a.19.19,0,0,0,0,.3l3.3,1.9a.45.45,0,0,0,.5,0l3.5-2a.19.19,0,0,0,0-.3Zm-34.8,20a.45.45,0,0,0-.5,0l-3.5,2a.19.19,0,0,0,0,.3l3.3,1.9a.45.45,0,0,0,.5,0l3.5-2a.19.19,0,0,0,0-.3Zm44.5-25.7a.45.45,0,0,0-.5,0l-3.5,2a.19.19,0,0,0,0,.3l3.3,1.9a.45.45,0,0,0,.5,0l3.5-2a.19.19,0,0,0,0-.3Zm15.1-8.7a.45.45,0,0,0-.5,0l-2.9,1.7a.19.19,0,0,0,0,.3l3.3,1.9a.45.45,0,0,0,.5,0l2.9-1.7a.19.19,0,0,0,0-.3Zm9.2-6.7,2.9-1.7a.19.19,0,0,0,0-.3l-3.3-1.9a.45.45,0,0,0-.5,0l-2.9,1.7a.19.19,0,0,0,0,.3l3.3,1.9a.45.45,0,0,0,.5,0Zm-18.8-.1,2.9-1.7a.19.19,0,0,0,0-.3l-3.4-1.9a.45.45,0,0,0-.5,0l-2.9,1.7a.19.19,0,0,0,0,.3l3.3,1.9A.63.63,0,0,0,352.1,255.42Zm-9.5,16.5L351,267a.19.19,0,0,0,0-.3l-3.3-1.9a.45.45,0,0,0-.5,0l-8.4,4.9a.19.19,0,0,0,0,.3l3.3,1.9a.45.45,0,0,0,.5,0ZM366.3,258a.45.45,0,0,0,.5,0l2.9-1.7a.19.19,0,0,0,0-.3l-3.3-1.9a.45.45,0,0,0-.5,0l-2.9,1.7a.19.19,0,0,0,0,.3Zm-4.3-2.8,2.8-1.6a.19.19,0,0,0,0-.3l-3.3-1.9a.45.45,0,0,0-.5,0l-2.9,1.6a.19.19,0,0,0,0,.3l3.3,1.9a.64.64,0,0,0,.6,0Zm-23.6,19.1,2.9-1.7a.19.19,0,0,0,0-.3l-3.3-1.9a.45.45,0,0,0-.5,0l-2.9,1.7a.19.19,0,0,0,0,.3l3.3,1.9a.45.45,0,0,0,.5,0Zm18.6-11a.45.45,0,0,0,.5,0l2.9-1.7a.19.19,0,0,0,0-.3l-3.3-1.9a.45.45,0,0,0-.5,0l-2.9,1.7a.19.19,0,0,0,0,.3Zm-39.7,23.2,2.9-1.7a.19.19,0,0,0,0-.3l-3.3-1.9a.45.45,0,0,0-.5,0l-2.9,1.7a.19.19,0,0,0,0,.3l3.3,1.9A.45.45,0,0,0,317.3,286.52Zm4.2-2.4,2.9-1.7a.19.19,0,0,0,0-.3l-3.3-1.9a.45.45,0,0,0-.5,0l-2.9,1.7a.19.19,0,0,0,0,.3l3.3,1.9Zm-8.4,4.8,2.9-1.7a.19.19,0,0,0,0-.3l-3.3-1.9a.45.45,0,0,0-.5,0l-2.9,1.7a.19.19,0,0,0,0,.3l3.3,1.9A.45.45,0,0,0,313.1,288.92Zm16.8-9.7,2.9-1.7a.19.19,0,0,0,0-.3l-3.3-1.9a.45.45,0,0,0-.5,0l-2.9,1.7a.19.19,0,0,0,0,.3l3.3,1.9a.45.45,0,0,0,.5,0Zm-4.2,2.4,2.9-1.7a.19.19,0,0,0,0-.3l-3.3-1.9a.45.45,0,0,0-.5,0l-2.9,1.7a.19.19,0,0,0,0,.3l3.3,1.9A.45.45,0,0,0,325.7,281.62Zm8.4-4.9L337,275a.19.19,0,0,0,0-.3l-3.3-1.9a.45.45,0,0,0-.5,0l-2.9,1.7a.19.19,0,0,0,0,.3l3.3,1.9c.2.2.4.2.5,0Zm19.3-35.9a.45.45,0,0,0,.5,0l2.9-1.7a.19.19,0,0,0,0-.3l-.9-.5a.45.45,0,0,0-.5,0l-2.9,1.7a.19.19,0,0,0,0,.3Zm-20.7,13.3a.45.45,0,0,0,.5,0l2.9-1.7a.19.19,0,0,0,0-.3l-3.3-1.9a.45.45,0,0,0-.5,0l-2.9,1.7a.19.19,0,0,0,0,.3Zm8.4-4.8a.45.45,0,0,0,.5,0l2.9-1.7a.19.19,0,0,0,0-.3l-3.3-1.9a.45.45,0,0,0-.5,0l-2.9,1.7a.19.19,0,0,0,0,.3Zm-13.6,7.8a.45.45,0,0,0,.5,0l2.9-1.7a.19.19,0,0,0,0-.3l-3.3-1.9a.45.45,0,0,0-.5,0l-2.9,1.7a.19.19,0,0,0,0,.3Zm9.4-5.4a.45.45,0,0,0,.5,0l2.9-1.7a.19.19,0,0,0,0-.3l-3.3-1.9a.45.45,0,0,0-.5,0l-2.9,1.7a.19.19,0,0,0,0,.3ZM319.1,262a.45.45,0,0,0,.5,0l2.9-1.7a.19.19,0,0,0,0-.3l-3.3-1.9a.45.45,0,0,0-.5,0l-2.9,1.7a.19.19,0,0,0,0,.3Zm4.2-2.4a.45.45,0,0,0,.5,0l2.9-1.7a.19.19,0,0,0,0-.3l-3.3-1.9a.45.45,0,0,0-.5,0l-2.9,1.7a.19.19,0,0,0,0,.3Zm21.7-13.9a.45.45,0,0,0,.5,0l2.9-1.7a.19.19,0,0,0,0-.3l-.9-.5a.45.45,0,0,0-.5,0l-2.9,1.7a.19.19,0,0,0,0,.3Zm12.6-7.3a.45.45,0,0,0,.5,0l2.9-1.7a.19.19,0,0,0,0-.3l-.9-.5a.45.45,0,0,0-.5,0l-2.9,1.6a.19.19,0,0,0,0,.3Zm7,4a.45.45,0,0,0,.5,0l2.9-1.7a.19.19,0,0,0,0-.3l-3.4-1.9a.45.45,0,0,0-.5,0l-2.9,1.7a.19.19,0,0,0,0,.3Zm10.5,10.7,2.9-1.7a.19.19,0,0,0,0-.3l-3.3-1.9a.45.45,0,0,0-.5,0l-2.9,1.7a.19.19,0,0,0,0,.3l3.3,1.9A.45.45,0,0,0,375.1,253.12Zm-25.9-9.8a.45.45,0,0,0,.5,0l2.9-1.7a.19.19,0,0,0,0-.3l-.9-.5a.45.45,0,0,0-.5,0l-2.9,1.7a.19.19,0,0,0,0,.3Zm-34.3,21.2a.45.45,0,0,0,.5,0l2.9-1.7a.19.19,0,0,0,0-.3l-3.4-1.9a.45.45,0,0,0-.5,0l-2.9,1.7a.19.19,0,0,0,0,.3Z"/><path class="ec718790-2149-4552-bdb3-b1e874461657" d="M347.9,257.92l2.9-1.7a.19.19,0,0,0,0-.3l-3.3-1.9a.45.45,0,0,0-.5,0l-2.9,1.6a.19.19,0,0,0,0,.3l3.3,1.9A.9.9,0,0,0,347.9,257.92Zm-5.7-6.7-2.9,1.7a.19.19,0,0,0,0,.3l3.3,1.9a.45.45,0,0,0,.5,0l2.9-1.7a.19.19,0,0,0,0-.3l-3.3-1.9Zm-9.3,5.4-4.9,2.8a.19.19,0,0,0,0,.3l3.3,1.9a.45.45,0,0,0,.5,0l4.9-2.8a.19.19,0,0,0,0-.3l-3.3-1.9A.45.45,0,0,0,332.9,256.62Zm5.1-2.9-2.9,1.7a.19.19,0,0,0,0,.3l3.3,1.9a.45.45,0,0,0,.5,0l2.9-1.7a.19.19,0,0,0,0-.3l-3.3-1.9a.45.45,0,0,0-.5,0Zm-11.3,6.5-2.9,1.7a.19.19,0,0,0,0,.3l3.3,1.9a.45.45,0,0,0,.5,0l2.9-1.7a.19.19,0,0,0,0-.3l-3.4-1.9a.3.3,0,0,0-.4,0Zm-4.2,2.4-2.9,1.7a.19.19,0,0,0,0,.3l3.3,1.9a.45.45,0,0,0,.5,0l2.9-1.7a.19.19,0,0,0,0-.3l-3.3-1.9A.45.45,0,0,0,322.5,262.62Zm13.1,7.8,2.9-1.7a.19.19,0,0,0,0-.3l-3.4-1.8a.45.45,0,0,0-.5,0l-2.9,1.7a.19.19,0,0,0,0,.3l3.3,1.9a1.27,1.27,0,0,0,.6-.1Zm-4.3,2.5,2.9-1.7a.19.19,0,0,0,0-.3l-3.3-1.9a.45.45,0,0,0-.5,0l-2.9,1.7a.19.19,0,0,0,0,.3l3.3,1.9Zm-4.2,2.4,2.9-1.7a.19.19,0,0,0,0-.3l-3.3-1.9a.45.45,0,0,0-.5,0l-2.9,1.7a.19.19,0,0,0,0,.3l3.3,1.9A.45.45,0,0,0,327.1,275.32Zm-4.2,2.4,2.9-1.7a.19.19,0,0,0,0-.3l-3.3-1.9a.45.45,0,0,0-.5,0l-2.9,1.7a.19.19,0,0,0,0,.3l3.3,1.9a.45.45,0,0,0,.5,0Zm20.7-17.4,2.9-1.7a.19.19,0,0,0,0-.3l-3.3-1.9a.45.45,0,0,0-.5,0l-2.9,1.7a.19.19,0,0,0,0,.3l3.3,1.9a.45.45,0,0,0,.5,0Zm-3.9,7.7,6.4-3.7a.19.19,0,0,0,0-.3l-8.1-4.7a.45.45,0,0,0-.5,0l-3.3,1.9a.19.19,0,0,0,0,.3l4.3,2.5a.19.19,0,0,1,0,.3l-2.7,1.5a.19.19,0,0,0,0,.3l3.3,1.9q.45.15.6,0Zm-21.5-3-2.9,1.7a.19.19,0,0,0,0,.3l3.3,1.9a.45.45,0,0,0,.5,0l2.9-1.7a.19.19,0,0,0,0-.3l-3.3-1.9Zm-4.2,2.4-2.9,1.7a.19.19,0,0,0,0,.3l3.3,1.9a.45.45,0,0,0,.5,0l2.9-1.7a.19.19,0,0,0,0-.3l-3.3-1.9Zm-21,27.3a.45.45,0,0,0,.5,0l2.9-1.7a.19.19,0,0,0,0-.3l-3.3-1.9a.45.45,0,0,0-.5,0l-2.9,1.8a.19.19,0,0,0,0,.3Zm-12.6-7.8-2.9,1.7a.19.19,0,0,0,0,.3l3.3,1.9a.45.45,0,0,0,.5,0l2.9-1.7a.19.19,0,0,0,0-.3l-3.3-1.9Zm6.7,5.7a.45.45,0,0,0,.5,0l2.9-1.7a.19.19,0,0,0,0-.3l-3.3-1.9a.45.45,0,0,0-.5,0l-2.9,1.7a.19.19,0,0,0,0,.3Zm13.3,3.6,2.9-1.7a.19.19,0,0,0,0-.3l-3.3-1.9a.45.45,0,0,0-.5,0l-2.9,1.7a.19.19,0,0,0,0,.3l3.3,1.9a.45.45,0,0,0,.5,0Zm-4.6,2.4a.45.45,0,0,0,.5,0l2.9-1.7a.19.19,0,0,0,0-.3l-3.3-1.9a.45.45,0,0,0-.5,0l-2.9,1.7a.19.19,0,0,0,0,.3Zm-11.2-14.1-2.9,1.7a.19.19,0,0,0,0,.3l3.3,1.9a.45.45,0,0,0,.5,0l2.9-1.7a.19.19,0,0,0,0-.3l-3.3-1.9a.45.45,0,0,0-.5,0Zm21-12.2-2.9,1.7a.19.19,0,0,0,0,.3l3.4,2a.45.45,0,0,0,.5,0l2.9-1.7a.19.19,0,0,0,0-.3l-3.3-1.9a1.49,1.49,0,0,0-.6-.1ZM288.8,282l-2.9,1.7a.19.19,0,0,0,0,.3l3.3,1.9a.45.45,0,0,0,.5,0l2.9-1.7a.19.19,0,0,0,0-.3l-3.3-1.9Zm21-12.1-2.9,1.7a.19.19,0,0,0,0,.3l3.3,1.9a.45.45,0,0,0,.5,0l2.9-1.7a.19.19,0,0,0,0-.3l-3.3-1.9Zm-8.4,4.8-2.9,1.7a.19.19,0,0,0,0,.3l3.3,1.9a.45.45,0,0,0,.5,0l2.9-1.7a.19.19,0,0,0,0-.3l-3.3-1.9Zm-4.2,2.5-2.9,1.7a.19.19,0,0,0,0,.3l3.3,1.9a.45.45,0,0,0,.5,0l2.9-1.7a.19.19,0,0,0,0-.3l-3.3-1.9a.45.45,0,0,0-.5,0Zm-4.2,2.4-2.9,1.7a.19.19,0,0,0,0,.3l3.3,1.9a.45.45,0,0,0,.5,0l2.9-1.7a.19.19,0,0,0,0-.3l-3.3-1.9C293.3,279.62,293.1,279.52,293,279.62Zm21.5,3,2.9-1.7a.19.19,0,0,0,0-.3l-3.3-1.9a.45.45,0,0,0-.5,0l-2.9,1.7a.19.19,0,0,0,0,.3l3.3,1.9A.45.45,0,0,0,314.5,282.62Zm37-36.7-2.9,1.7a.19.19,0,0,0,0,.3l3.3,1.9a.45.45,0,0,0,.5,0l2.9-1.7a.19.19,0,0,0,0-.3l-3.3-1.9a.45.45,0,0,0-.5,0Zm-5.1,2.9-2.9,1.7a.19.19,0,0,0,0,.3l3.3,1.9a.45.45,0,0,0,.5,0l2.9-1.7a.19.19,0,0,0,0-.3l-3.3-1.9a.45.45,0,0,0-.5,0Zm9.3-5.4-2.9,1.7a.19.19,0,0,0,0,.3l3.3,1.9a.45.45,0,0,0,.5,0l2.9-1.7a.19.19,0,0,0,0-.3l-3.3-1.9Zm-21.8,22.5,2.9-1.7a.19.19,0,0,0,0-.3l-3.3-1.9a.45.45,0,0,0-.5,0l-2.9,1.7a.19.19,0,0,0,0,.3l3.3,1.9A.45.45,0,0,0,333.9,265.92ZM360.4,241a.45.45,0,0,0-.5,0l-2.9,1.7a.19.19,0,0,0,0,.3l3.3,1.9a.45.45,0,0,0,.5,0l2.9-1.7a.19.19,0,0,0,0-.3Zm-41.7,39.2,2.9-1.7a.19.19,0,0,0,0-.3l-3.3-1.9a.45.45,0,0,0-.5,0l-2.9,1.7a.19.19,0,0,0,0,.3l3.3,1.9Zm51.6-29.8,2.9-1.7a.19.19,0,0,0,0-.3l-3.3-1.9a.45.45,0,0,0-.5,0l-2.9,1.7a.19.19,0,0,0,0,.3l3.3,1.9Zm-9-.4,2.9-1.7a.19.19,0,0,0,0-.3l-3.3-1.9a.45.45,0,0,0-.5,0l-2.9,1.7a.19.19,0,0,0,0,.3l3.3,1.9a.45.45,0,0,0,.5,0Zm3.8-6.2a.45.45,0,0,0-.5,0l-2.9,1.7a.19.19,0,0,0,0,.3l3.4,1.9a.45.45,0,0,0,.5,0l2.9-1.7a.19.19,0,0,0,0-.3Zm.9-.6,8.1,4.7a.45.45,0,0,0,.5,0l2.9-1.7a.19.19,0,0,0,0-.3l-8.1-4.7a.45.45,0,0,0-.5,0l-2.9,1.7q-.15.3,0,.3Zm-9.8,5.4-2.9,1.7a.19.19,0,0,0,0,.3l3.3,1.9a.45.45,0,0,0,.5,0l2.9-1.7a.19.19,0,0,0,0-.3l-3.3-1.9A.45.45,0,0,0,356.2,248.62Zm-31.6,18.3-2.9,1.7a.19.19,0,0,0,0,.3l3.3,1.9a.45.45,0,0,0,.5,0l2.9-1.7a.19.19,0,0,0,0-.3l-3.3-1.9c-.2,0-.4-.1-.5,0Zm41.1-14.1a.45.45,0,0,0,.5,0l2.9-1.7a.19.19,0,0,0,0-.3l-3.3-1.9a.45.45,0,0,0-.5,0l-2.9,1.7a.19.19,0,0,0,0,.3Zm-36.9,11.7-2.9,1.7a.19.19,0,0,0,0,.3l3.3,1.9a.45.45,0,0,0,.5,0l2.9-1.7a.19.19,0,0,0,0-.3l-3.3-1.9a.45.45,0,0,0-.5,0Zm-31.6,27.8a.45.45,0,0,0,.5,0l2.9-1.7a.19.19,0,0,0,0-.3l-3.3-1.9a.45.45,0,0,0-.5,0l-2.9,1.7a.19.19,0,0,0,0,.3Zm-6.3-6L288,288a.19.19,0,0,0,0,.3l3.3,1.9a.45.45,0,0,0,.5,0l2.9-1.7a.19.19,0,0,0,0-.3l-3.3-1.9Zm11,3.6,2.9-1.7a.19.19,0,0,0,0-.3l-3.3-1.9a.45.45,0,0,0-.5,0l-2.9,1.7a.19.19,0,0,0,0,.3l3.3,1.9a.45.45,0,0,0,.5,0Zm4.2-2.5,2.9-1.7a.19.19,0,0,0,0-.3l-3.3-1.9a.45.45,0,0,0-.5,0l-2.9,1.7a.19.19,0,0,0,0,.3l3.3,1.9a.45.45,0,0,0,.5,0Zm4.2-2.4,2.9-1.7a.19.19,0,0,0,0-.3l-3.3-1.9a.45.45,0,0,0-.5,0l-2.9,1.7a.19.19,0,0,0,0,.3l3.3,1.9a.45.45,0,0,0,.5,0Zm-15.2-1.1-2.9,1.7a.19.19,0,0,0,0,.3l3.3,1.9a.45.45,0,0,0,.5,0l2.9-1.7a.19.19,0,0,0,0-.3l-3.3-1.9Zm4.2-2.4-2.9,1.7a.19.19,0,0,0,0,.3l3.3,1.9a.45.45,0,0,0,.5,0l2.9-1.7a.19.19,0,0,0,0-.3l-3.3-1.9a.45.45,0,0,0-.5,0Zm16.8-9.7-2.9,1.7a.19.19,0,0,0,0,.3l3.4,1.9a.45.45,0,0,0,.5,0L320,274a.19.19,0,0,0,0-.3l-3.3-1.9A.63.63,0,0,0,316.1,271.82Zm-4.2,2.4-2.9,1.7a.19.19,0,0,0,0,.3l3.3,1.9a.45.45,0,0,0,.5,0l2.9-1.7a.19.19,0,0,0,0-.3l-3.3-1.9a.45.45,0,0,0-.5,0Zm8.4-4.9-2.9,1.7a.19.19,0,0,0,0,.3l3.3,1.9a.45.45,0,0,0,.5,0l2.9-1.7a.19.19,0,0,0,0-.3l-3.3-1.9Zm-16.8,9.8-2.9,1.7a.19.19,0,0,0,0,.3l3.3,1.9a.45.45,0,0,0,.5,0l2.9-1.7a.19.19,0,0,0,0-.3l-3.3-1.9a.45.45,0,0,0-.5,0Zm4.2-2.5-2.9,1.7a.19.19,0,0,0,0,.3l3.3,1.9a.45.45,0,0,0,.5,0l2.9-1.7a.19.19,0,0,0,0-.3l-3.3-2a.9.9,0,0,0-.5.1Zm-3.1,17.2,2.9-1.7a.19.19,0,0,0,0-.3l-3.3-1.9a.45.45,0,0,0-.5,0l-2.9,1.7a.19.19,0,0,0,0,.3l3.3,1.9a.45.45,0,0,0,.5,0Zm-24.7-2.5-3.3-1.9a.45.45,0,0,0-.5,0l-2.9,1.7a.19.19,0,0,0,0,.3l3.3,1.9a.45.45,0,0,0,.5,0l2.9-1.7q.3-.15,0-.3Zm6.3,1.9-3.3-1.9a.45.45,0,0,0-.5,0l-4.4,2.6a.19.19,0,0,0,0,.3l3.3,1.9a.45.45,0,0,0,.5,0l4.4-2.6q.3-.3,0-.3Zm-11.4-5.6-3.3-1.9a.45.45,0,0,0-.5,0l-3.5,2a.19.19,0,0,0,0,.3l3.3,1.9a.45.45,0,0,0,.5,0l3.5-2C275,287.82,275,287.62,274.8,287.62Zm2.7-1.6a.45.45,0,0,0,.5,0l2.9-1.7a.19.19,0,0,0,0-.3l-3.3-1.9a.45.45,0,0,0-.5,0l-2.9,1.7a.19.19,0,0,0,0,.3Zm14.6,9.2-3.3-1.9a.45.45,0,0,0-.5,0l-5.5,3.2a.19.19,0,0,0,0,.3l3.3,1.9a.45.45,0,0,0,.5,0l5.5-3.2C292.2,295.52,292.2,295.32,292.1,295.22Zm2.8,3.9-3.3-1.9a.45.45,0,0,0-.5,0l-3.5,2a.19.19,0,0,0,0,.3l3.3,1.9a.45.45,0,0,0,.5,0l3.5-2c.1,0,.1-.2,0-.3Zm14-31.2a.45.45,0,0,0,.5,0l2.9-1.7a.19.19,0,0,0,0-.3L309,264a.45.45,0,0,0-.5,0l-2.9,1.7a.19.19,0,0,0,0,.3Zm-8.5,4.9a.45.45,0,0,0,.5,0l2.9-1.7a.19.19,0,0,0,0-.3l-3.3-1.9a.45.45,0,0,0-.5,0l-2.9,1.7a.19.19,0,0,0,0,.3Zm-18.7,10.8a.45.45,0,0,0,.5,0l2.9-1.7a.19.19,0,0,0,0-.3l-3.3-1.9a.45.45,0,0,0-.5,0l-2.9,1.7a.19.19,0,0,0,0,.3Zm22.9-13.2a.45.45,0,0,0,.5,0l2.9-1.7a.19.19,0,0,0,0-.3l-3.3-1.9a.45.45,0,0,0-.5,0l-2.9,1.7a.19.19,0,0,0,0,.3Zm-8.4,4.8a.45.45,0,0,0,.5,0l2.9-1.7a.19.19,0,0,0,0-.3l-3.3-1.9a.45.45,0,0,0-.5,0l-2.9,1.7a.19.19,0,0,0,0,.3Zm1,24.3a.45.45,0,0,0-.5,0l-4.4,2.5a.19.19,0,0,0,0,.3l3.3,1.9a.45.45,0,0,0,.5,0l4.4-2.6a.19.19,0,0,0,0-.3Zm-7-20.8a.45.45,0,0,0,.5,0l2.9-1.7a.19.19,0,0,0,0-.3l-3.3-1.9a.45.45,0,0,0-.5,0l-2.9,1.7a.19.19,0,0,0,0,.3Zm-4.2,2.5a.45.45,0,0,0,.5,0l2.9-1.7a.19.19,0,0,0,0-.3l-3.3-1.9a.45.45,0,0,0-.5,0l-2.9,1.7a.19.19,0,0,0,0,.3Zm89.2-26.7a.45.45,0,0,0-.5,0l-7.1,4.1a.19.19,0,0,0,0,.3l3.3,1.9a.45.45,0,0,0,.5,0l7.1-4.1a.19.19,0,0,0,0-.3Zm-9.3,5.3a.45.45,0,0,0-.5,0l-2.9,1.7a.19.19,0,0,0,0,.3l3.3,1.9a.45.45,0,0,0,.5,0l2.9-1.7a.19.19,0,0,0,0-.3Zm-57,31.6,2.9-1.7a.19.19,0,0,0,0-.3l-3.3-1.9a.45.45,0,0,0-.5,0l-2.9,1.7a.19.19,0,0,0,0,.3l3.3,1.9Zm48.6-26.7a.45.45,0,0,0-.5,0l-3,1.6a.19.19,0,0,0,0,.3l3.3,1.9a.45.45,0,0,0,.5,0l2.9-1.7a.19.19,0,0,0,0-.3Zm22-12.7a.45.45,0,0,0-.5,0l-2.9,1.6a.19.19,0,0,0,0,.3l3.3,1.9a.45.45,0,0,0,.5,0l2.9-1.7a.19.19,0,0,0,0-.3Zm7.5-.5-8.1-4.7a.45.45,0,0,0-.5,0l-2.9,1.7a.19.19,0,0,0,0,.3l8.1,4.7a.45.45,0,0,0,.5,0l2.9-1.7a.19.19,0,0,0,0-.3Zm-45.2,22.3a.45.45,0,0,0-.5,0l-3.5,2a.19.19,0,0,0,0,.3l3.3,1.9a.45.45,0,0,0,.5,0l3.5-2a.19.19,0,0,0,0-.3Zm10.6-6.2a.45.45,0,0,0-.5,0l-4.4,2.6a.19.19,0,0,0,0,.3l3.3,1.9a.45.45,0,0,0,.5,0l4.4-2.6a.19.19,0,0,0,0-.3ZM332,279.42a.45.45,0,0,0-.5,0l-23.7,13.7a.19.19,0,0,0,0,.3l3.3,1.9a.45.45,0,0,0,.5,0l23.7-13.6a.19.19,0,0,0,0-.3Zm-25,14.4a.45.45,0,0,0-.5,0l-3.5,2a.19.19,0,0,0,0,.3l3.3,1.9a.45.45,0,0,0,.5,0l3.5-2a.19.19,0,0,0,0-.3Zm29.9-17.2a.45.45,0,0,0-.5,0l-3.5,2a.19.19,0,0,0,0,.3l3.3,1.9a.45.45,0,0,0,.5,0l3.5-2a.19.19,0,0,0,0-.3Zm-34.8,20a.45.45,0,0,0-.5,0l-3.5,2a.19.19,0,0,0,0,.3l3.3,1.9a.45.45,0,0,0,.5,0l3.5-2a.19.19,0,0,0,0-.3Zm44.5-25.7a.45.45,0,0,0-.5,0l-3.5,2a.19.19,0,0,0,0,.3l3.3,1.9a.45.45,0,0,0,.5,0l3.5-2a.19.19,0,0,0,0-.3Zm15.1-8.7a.45.45,0,0,0-.5,0l-2.9,1.7a.19.19,0,0,0,0,.3l3.3,1.9a.45.45,0,0,0,.5,0l2.9-1.7a.19.19,0,0,0,0-.3Zm9.2-6.7,2.9-1.7a.19.19,0,0,0,0-.3l-3.3-1.9a.45.45,0,0,0-.5,0l-2.9,1.7a.19.19,0,0,0,0,.3l3.3,1.9a.45.45,0,0,0,.5,0Zm-18.8-.1,2.9-1.7a.19.19,0,0,0,0-.3l-3.4-1.9a.45.45,0,0,0-.5,0l-2.9,1.7a.19.19,0,0,0,0,.3l3.3,1.9A.63.63,0,0,0,352.1,255.42Zm-9.5,16.5L351,267a.19.19,0,0,0,0-.3l-3.3-1.9a.45.45,0,0,0-.5,0l-8.4,4.9a.19.19,0,0,0,0,.3l3.3,1.9a.45.45,0,0,0,.5,0ZM366.3,258a.45.45,0,0,0,.5,0l2.9-1.7a.19.19,0,0,0,0-.3l-3.3-1.9a.45.45,0,0,0-.5,0l-2.9,1.7a.19.19,0,0,0,0,.3Zm-4.3-2.8,2.8-1.6a.19.19,0,0,0,0-.3l-3.3-1.9a.45.45,0,0,0-.5,0l-2.9,1.6a.19.19,0,0,0,0,.3l3.3,1.9a.64.64,0,0,0,.6,0Zm-23.6,19.1,2.9-1.7a.19.19,0,0,0,0-.3l-3.3-1.9a.45.45,0,0,0-.5,0l-2.9,1.7a.19.19,0,0,0,0,.3l3.3,1.9a.45.45,0,0,0,.5,0Zm18.6-11a.45.45,0,0,0,.5,0l2.9-1.7a.19.19,0,0,0,0-.3l-3.3-1.9a.45.45,0,0,0-.5,0l-2.9,1.7a.19.19,0,0,0,0,.3Zm-39.7,23.2,2.9-1.7a.19.19,0,0,0,0-.3l-3.3-1.9a.45.45,0,0,0-.5,0l-2.9,1.7a.19.19,0,0,0,0,.3l3.3,1.9A.45.45,0,0,0,317.3,286.52Zm4.2-2.4,2.9-1.7a.19.19,0,0,0,0-.3l-3.3-1.9a.45.45,0,0,0-.5,0l-2.9,1.7a.19.19,0,0,0,0,.3l3.3,1.9Zm-8.4,4.8,2.9-1.7a.19.19,0,0,0,0-.3l-3.3-1.9a.45.45,0,0,0-.5,0l-2.9,1.7a.19.19,0,0,0,0,.3l3.3,1.9A.45.45,0,0,0,313.1,288.92Zm16.8-9.7,2.9-1.7a.19.19,0,0,0,0-.3l-3.3-1.9a.45.45,0,0,0-.5,0l-2.9,1.7a.19.19,0,0,0,0,.3l3.3,1.9a.45.45,0,0,0,.5,0Zm-4.2,2.4,2.9-1.7a.19.19,0,0,0,0-.3l-3.3-1.9a.45.45,0,0,0-.5,0l-2.9,1.7a.19.19,0,0,0,0,.3l3.3,1.9A.45.45,0,0,0,325.7,281.62Zm8.4-4.9L337,275a.19.19,0,0,0,0-.3l-3.3-1.9a.45.45,0,0,0-.5,0l-2.9,1.7a.19.19,0,0,0,0,.3l3.3,1.9c.2.2.4.2.5,0Zm19.3-35.9a.45.45,0,0,0,.5,0l2.9-1.7a.19.19,0,0,0,0-.3l-.9-.5a.45.45,0,0,0-.5,0l-2.9,1.7a.19.19,0,0,0,0,.3Zm-20.7,13.3a.45.45,0,0,0,.5,0l2.9-1.7a.19.19,0,0,0,0-.3l-3.3-1.9a.45.45,0,0,0-.5,0l-2.9,1.7a.19.19,0,0,0,0,.3Zm8.4-4.8a.45.45,0,0,0,.5,0l2.9-1.7a.19.19,0,0,0,0-.3l-3.3-1.9a.45.45,0,0,0-.5,0l-2.9,1.7a.19.19,0,0,0,0,.3Zm-13.6,7.8a.45.45,0,0,0,.5,0l2.9-1.7a.19.19,0,0,0,0-.3l-3.3-1.9a.45.45,0,0,0-.5,0l-2.9,1.7a.19.19,0,0,0,0,.3Zm9.4-5.4a.45.45,0,0,0,.5,0l2.9-1.7a.19.19,0,0,0,0-.3l-3.3-1.9a.45.45,0,0,0-.5,0l-2.9,1.7a.19.19,0,0,0,0,.3ZM319.1,262a.45.45,0,0,0,.5,0l2.9-1.7a.19.19,0,0,0,0-.3l-3.3-1.9a.45.45,0,0,0-.5,0l-2.9,1.7a.19.19,0,0,0,0,.3Zm4.2-2.4a.45.45,0,0,0,.5,0l2.9-1.7a.19.19,0,0,0,0-.3l-3.3-1.9a.45.45,0,0,0-.5,0l-2.9,1.7a.19.19,0,0,0,0,.3Zm21.7-13.9a.45.45,0,0,0,.5,0l2.9-1.7a.19.19,0,0,0,0-.3l-.9-.5a.45.45,0,0,0-.5,0l-2.9,1.7a.19.19,0,0,0,0,.3Zm12.6-7.3a.45.45,0,0,0,.5,0l2.9-1.7a.19.19,0,0,0,0-.3l-.9-.5a.45.45,0,0,0-.5,0l-2.9,1.6a.19.19,0,0,0,0,.3Zm7,4a.45.45,0,0,0,.5,0l2.9-1.7a.19.19,0,0,0,0-.3l-3.4-1.9a.45.45,0,0,0-.5,0l-2.9,1.7a.19.19,0,0,0,0,.3Zm10.5,10.7,2.9-1.7a.19.19,0,0,0,0-.3l-3.3-1.9a.45.45,0,0,0-.5,0l-2.9,1.7a.19.19,0,0,0,0,.3l3.3,1.9A.45.45,0,0,0,375.1,253.12Zm-25.9-9.8a.45.45,0,0,0,.5,0l2.9-1.7a.19.19,0,0,0,0-.3l-.9-.5a.45.45,0,0,0-.5,0l-2.9,1.7a.19.19,0,0,0,0,.3Zm-34.3,21.2a.45.45,0,0,0,.5,0l2.9-1.7a.19.19,0,0,0,0-.3l-3.4-1.9a.45.45,0,0,0-.5,0l-2.9,1.7a.19.19,0,0,0,0,.3Z"/><path class="a71ef263-c65c-4ff5-b0e9-9b48c8c9699a" d="M333.6,289.72l28.4-16.4a3.39,3.39,0,0,1,3.1,0l16.3,9.4a.88.88,0,0,1,.4,1.3c-.1.2-.3.4-.4.4L353,300.82a3.39,3.39,0,0,1-3.1,0l-16.3-9.4C332.7,291,332.7,290.22,333.6,289.72Z"/><path class="6126b106-0a3b-4a95-90fb-3d22b01e5b39" d="M333.6,289.72l28.4-16.4a3.39,3.39,0,0,1,3.1,0l16.3,9.4a.88.88,0,0,1,.4,1.3c-.1.2-.3.4-.4.4L353,300.82a3.39,3.39,0,0,1-3.1,0l-16.3-9.4C332.7,291,332.7,290.22,333.6,289.72Z"/><path class="a71ef263-c65c-4ff5-b0e9-9b48c8c9699a" d="M239.8,279.42c.3.1.5.3.8.3a1.6,1.6,0,0,1-.8-.3.22.22,0,0,1-.2-.2Z"/></g><g id="01bbb09a-1eee-4906-bce2-26aaf8089f41" data-name="freepik--Window--inject-26"><path class="a88c38bc-2254-4d8e-9f0a-acc056a2d0af" d="M248.5,260.52a1.17,1.17,0,0,0,1.9,1.1L338.1,211a4.36,4.36,0,0,0,1.9-3.3v-59l-91.5,52.8Z"/><g class="ea348ef4-efd8-4d40-8624-355dbd35bb6c"><path class="175f035e-be4a-4d01-b541-3b7c8bfce040" d="M248.5,260.52a1.17,1.17,0,0,0,1.9,1.1L338.1,211a4.36,4.36,0,0,0,1.9-3.3v-59l-91.5,52.8Z"/></g><path class="89c35a86-9c78-4f8a-a376-d2c80ed2b50b" d="M248.5,197.42a4.36,4.36,0,0,1,1.9-3.3l87.7-50.6c1.1-.6,1.9-.1,1.9,1.1v4l-91.5,52.8Z"/><path class="578df1bb-ff4b-4f6d-b23a-4c4448f4f8bd" d="M329.2,150.72a1.89,1.89,0,0,0-.9,1.6c0,.6.4.8.9.5a1.89,1.89,0,0,0,.9-1.6C330.1,150.62,329.7,150.42,329.2,150.72Z"/><path class="578df1bb-ff4b-4f6d-b23a-4c4448f4f8bd" d="M332.4,148.92a1.89,1.89,0,0,0-.9,1.6c0,.6.4.8.9.5a2,2,0,0,0,.9-1.6C333.2,148.82,332.9,148.62,332.4,148.92Z"/><path class="578df1bb-ff4b-4f6d-b23a-4c4448f4f8bd" d="M335.5,147.12a1.89,1.89,0,0,0-.9,1.6c0,.6.4.8.9.5a2,2,0,0,0,.9-1.6C336.4,147,336,146.82,335.5,147.12Z"/></g><g id="1d800d59-0bad-4940-a36a-003d802702b2" data-name="freepik--www--inject-26"><path class="ec718790-2149-4552-bdb3-b1e874461657" d="M278.1,208c.2-.1.3-.1.4,0s.2.2.2.3l1.4,5.7,1.4-7.3a1.42,1.42,0,0,1,.2-.6,1,1,0,0,1,.4-.5l2.3-1.3a.19.19,0,0,1,.3,0,.6.6,0,0,1,.1.4v.2l-3,15a1.42,1.42,0,0,1-.2.6,1,1,0,0,1-.4.5l-2.1,1.2c-.2.1-.3.1-.4,0a.52.52,0,0,1-.2-.4l-1.3-5.3-1.3,6.8c-.1.2-.1.4-.2.6a1,1,0,0,1-.4.5l-2.1,1.2c-.2.1-.3.1-.4,0a.52.52,0,0,1-.2-.4l-3-11.5v-.2a1.27,1.27,0,0,1,.1-.6,1.38,1.38,0,0,1,.3-.4l2.3-1.3c.2-.1.3-.1.4,0s.2.2.2.3l1.4,5.7,1.4-7.3a1.42,1.42,0,0,1,.2-.6,1,1,0,0,1,.4-.5Z"/><path class="ec718790-2149-4552-bdb3-b1e874461657" d="M295.1,198.22c.2-.1.3-.1.4,0s.2.2.2.3l1.4,5.7,1.4-7.3a1.42,1.42,0,0,1,.2-.6,1,1,0,0,1,.4-.5l2.3-1.3a.19.19,0,0,1,.3,0,.6.6,0,0,1,.1.4v.3l-3,14.9a1.42,1.42,0,0,1-.2.6,1,1,0,0,1-.4.5l-2.1,1.2c-.2.1-.3.1-.4,0a.52.52,0,0,1-.2-.4l-1.3-5.3-1.3,6.8c-.1.2-.1.4-.2.6a1,1,0,0,1-.4.5l-2.1,1.2c-.2.1-.3.1-.4,0a.52.52,0,0,1-.2-.4l-3-11.5v-.2a1.27,1.27,0,0,1,.1-.6,1.38,1.38,0,0,1,.3-.4l2.3-1.3c.2-.1.3-.1.4,0s.2.2.2.3l1.4,5.7,1.4-7.3a1.42,1.42,0,0,1,.2-.6,1,1,0,0,1,.4-.5Z"/><path class="ec718790-2149-4552-bdb3-b1e874461657" d="M312.1,188.32c.2-.1.3-.1.4,0s.2.2.2.3l1.4,5.7,1.4-7.3a1.42,1.42,0,0,1,.2-.6,1,1,0,0,1,.4-.5l2.3-1.3a.19.19,0,0,1,.3,0,.6.6,0,0,1,.1.4v.2l-3,15a1.42,1.42,0,0,1-.2.6,1,1,0,0,1-.4.5l-2.1,1.2c-.2.1-.3.1-.4,0a.52.52,0,0,1-.2-.4l-1.3-5.3-1.3,6.8c-.1.2-.1.4-.2.6a1,1,0,0,1-.4.5l-2.1,1.2c-.2.1-.3.1-.4,0a.52.52,0,0,1-.2-.4l-3-11.5v-.2a1.27,1.27,0,0,1,.1-.6,1.38,1.38,0,0,1,.3-.4l2.3-1.3c.2-.1.3-.1.4,0s.2.2.2.3l1.4,5.7,1.4-7.3a1.42,1.42,0,0,1,.2-.6,1,1,0,0,1,.4-.5Z"/></g></g></g><g id="aedf1a37-98dd-4f34-a2a3-766071c42d6c" data-name="freepik--Server--inject-26"><g id="35a80ae2-e21c-46cf-90cc-92da97f8e0ae" data-name="freepik--server--inject-26"><polygon class="a71ef263-c65c-4ff5-b0e9-9b48c8c9699a" points="182.2 324.62 117.2 362.12 52.2 324.62 117.2 287.12 182.2 324.62"/><polygon class="9edc5d5b-9034-4c9f-b765-fb32bfb8de40" points="182.2 324.62 117.2 362.12 52.2 324.62 117.2 287.12 182.2 324.62"/><polygon class="9edc5d5b-9034-4c9f-b765-fb32bfb8de40" points="117.2 362.12 117.2 357.42 56.3 322.22 52.2 324.62 117.2 362.12"/><path class="a71ef263-c65c-4ff5-b0e9-9b48c8c9699a" d="M117.2,362.12v17.3a9.07,9.07,0,0,0,4.3-1h0l28.2-16.3,29.9-17.3a5.89,5.89,0,0,0,2.6-4.5v-15.7Z"/><path class="1f9c36de-89c8-48d7-95b0-84027fac38b8" d="M117.2,362.12v17.3a9.07,9.07,0,0,0,4.3-1h0l28.2-16.3,29.9-17.3a5.89,5.89,0,0,0,2.6-4.5v-15.7Z"/><path class="a71ef263-c65c-4ff5-b0e9-9b48c8c9699a" d="M176,332.92l-32.2,18.6a4.73,4.73,0,0,0-2.2,3.8v4.4c0,1.4,1,1.9,2.2,1.3l32.2-18.6a4.41,4.41,0,0,0,2.1-3.8v-4.4C178.1,332.72,177.1,332.22,176,332.92Z"/><path class="87408887-4ac2-4f36-a6ef-80433eed1ed2" d="M175.8,336.62v2.1a1.23,1.23,0,0,1-.4.8l-.5.3c-.2.1-.4,0-.4-.3v-2.1a1.23,1.23,0,0,1,.4-.8l.5-.3C175.6,336.22,175.8,336.32,175.8,336.62Z"/><path class="87408887-4ac2-4f36-a6ef-80433eed1ed2" d="M173.6,337.82v2.1a1.23,1.23,0,0,1-.4.8l-.5.3c-.2.1-.4,0-.4-.3v-2.1a1.23,1.23,0,0,1,.4-.8l.5-.3C173.5,337.52,173.6,337.62,173.6,337.82Z"/><path class="87408887-4ac2-4f36-a6ef-80433eed1ed2" d="M171.5,339.12v2.1a1.23,1.23,0,0,1-.4.8l-.5.3c-.2.1-.4,0-.4-.3v-2.1a1.23,1.23,0,0,1,.4-.8l.5-.3C171.3,338.72,171.5,338.82,171.5,339.12Z"/><path class="ec718790-2149-4552-bdb3-b1e874461657" d="M169.3,340.42v2.1a1.23,1.23,0,0,1-.4.8l-.5.3c-.2.1-.4,0-.4-.3v-2.1a1.23,1.23,0,0,1,.4-.8l.5-.3C169.1,340,169.3,340.12,169.3,340.42Z"/><path class="ec718790-2149-4552-bdb3-b1e874461657" d="M167.1,341.62v2.1a1.23,1.23,0,0,1-.4.8l-.5.3c-.2.1-.4,0-.4-.3v-2.1a1.23,1.23,0,0,1,.4-.8l.5-.3a.3.3,0,0,1,.4,0Z"/><path class="87408887-4ac2-4f36-a6ef-80433eed1ed2" d="M164.9,342.92V345a1.23,1.23,0,0,1-.4.8l-.5.3c-.2.1-.4,0-.4-.3v-2.1a1.23,1.23,0,0,1,.4-.8l.5-.3C164.7,342.52,164.9,342.62,164.9,342.92Z"/><path class="87408887-4ac2-4f36-a6ef-80433eed1ed2" d="M162.7,344.12v2.1a1.23,1.23,0,0,1-.4.8l-.5.3c-.2.1-.4,0-.4-.3v-2.1a1.23,1.23,0,0,1,.4-.8l.5-.3C162.5,343.82,162.7,343.92,162.7,344.12Z"/><path class="87408887-4ac2-4f36-a6ef-80433eed1ed2" d="M160.5,345.42v2.1a1.23,1.23,0,0,1-.4.8l-.5.3c-.2.1-.4,0-.4-.3v-2.1a1.23,1.23,0,0,1,.4-.8l.5-.3C160.3,345,160.5,345.12,160.5,345.42Z"/><path class="87408887-4ac2-4f36-a6ef-80433eed1ed2" d="M158.3,346.72v2.1a1.23,1.23,0,0,1-.4.8l-.5.3c-.2.1-.4,0-.4-.3v-2.1a1.23,1.23,0,0,1,.4-.8l.5-.3C158.1,346.32,158.3,346.42,158.3,346.72Z"/><path class="87408887-4ac2-4f36-a6ef-80433eed1ed2" d="M156.1,347.92V350a1.23,1.23,0,0,1-.4.8l-.5.3c-.2.1-.4,0-.4-.3v-2.1a1.23,1.23,0,0,1,.4-.8l.5-.3C155.9,347.52,156.1,347.62,156.1,347.92Z"/><path class="87408887-4ac2-4f36-a6ef-80433eed1ed2" d="M154,349.22v2.1a1.23,1.23,0,0,1-.4.8l-.5.3c-.2.1-.4,0-.4-.3V350a1.23,1.23,0,0,1,.4-.8l.5-.3a.3.3,0,0,1,.4,0C153.9,349,154,349.12,154,349.22Z"/><path class="87408887-4ac2-4f36-a6ef-80433eed1ed2" d="M151.8,350.52v2.1a1.23,1.23,0,0,1-.4.8l-.5.3c-.2.1-.4,0-.4-.3v-2.1a1.23,1.23,0,0,1,.4-.8l.5-.3C151.6,350.12,151.8,350.22,151.8,350.52Z"/><path class="ec718790-2149-4552-bdb3-b1e874461657" d="M149.6,351.72v2.1a1.23,1.23,0,0,1-.4.8l-.5.3c-.2.1-.4,0-.4-.3v-2.1a1.23,1.23,0,0,1,.4-.8l.5-.3a.25.25,0,0,1,.4.1Z"/><path class="87408887-4ac2-4f36-a6ef-80433eed1ed2" d="M147.4,353v2.1a1.23,1.23,0,0,1-.4.8l-.5.3c-.2.1-.4,0-.4-.3v-2.1a1.23,1.23,0,0,1,.4-.8l.5-.3C147.2,352.62,147.4,352.72,147.4,353Z"/><path class="87408887-4ac2-4f36-a6ef-80433eed1ed2" d="M145.2,354.22v2.1a1.23,1.23,0,0,1-.4.8l-.5.3c-.2.1-.4,0-.4-.3V355a1.23,1.23,0,0,1,.4-.8l.5-.3C145,353.92,145.2,354,145.2,354.22Z"/><path class="a71ef263-c65c-4ff5-b0e9-9b48c8c9699a" d="M52.2,324.62v15.8a5.89,5.89,0,0,0,2.6,4.5l25.8,14.9,32.2,18.6a9.07,9.07,0,0,0,4.3,1v-17.3Z"/><path class="2ebb45b8-3999-4c16-892f-13004a29d652" d="M52.2,324.62v15.8a5.89,5.89,0,0,0,2.6,4.5l25.8,14.9,32.2,18.6a9.07,9.07,0,0,0,4.3,1v-17.3Z"/><g class="86965acc-9d36-4372-8696-fe7848c5008f"><path class="175f035e-be4a-4d01-b541-3b7c8bfce040" d="M62.5,335.22l16,9.2a4.73,4.73,0,0,1,2.2,3.8v4.4c0,1.4-1,1.9-2.2,1.3l-16-9.2a4.73,4.73,0,0,1-2.2-3.8v-4.4C60.3,335.12,61.3,334.52,62.5,335.22Z"/></g><path class="a71ef263-c65c-4ff5-b0e9-9b48c8c9699a" d="M64.5,340.22l1-.6h0a1.5,1.5,0,0,1,1.3.1,4.2,4.2,0,0,1,1.9,3.3,1.22,1.22,0,0,1-.6,1.2h0l-.9.5-.2-.3a.76.76,0,0,1-.5-.2,4.2,4.2,0,0,1-1.9-3.3.9.9,0,0,1,.1-.5Z"/><path class="a01e2004-a05b-47a7-aced-5b2e2a399cf6" d="M64.5,340.22l1-.6h0a1.5,1.5,0,0,1,1.3.1,4.2,4.2,0,0,1,1.9,3.3,1.22,1.22,0,0,1-.6,1.2h0l-.9.5-.2-.3a.76.76,0,0,1-.5-.2,4.2,4.2,0,0,1-1.9-3.3.9.9,0,0,1,.1-.5Z"/><path class="a71ef263-c65c-4ff5-b0e9-9b48c8c9699a" d="M65.9,340.32a4.2,4.2,0,0,1,1.9,3.3c0,1.2-.8,1.7-1.9,1.1a4.2,4.2,0,0,1-1.9-3.3A1.17,1.17,0,0,1,65.9,340.32Z"/><path class="a71ef263-c65c-4ff5-b0e9-9b48c8c9699a" d="M72.7,344.92l1-.6h0a1.5,1.5,0,0,1,1.3.1,4.2,4.2,0,0,1,1.9,3.3,1.43,1.43,0,0,1-.6,1.2h0l-.9.5-.2-.3a.76.76,0,0,1-.5-.2,4.2,4.2,0,0,1-1.9-3.3.9.9,0,0,1,.1-.5Z"/><path class="a01e2004-a05b-47a7-aced-5b2e2a399cf6" d="M72.7,344.92l1-.6h0a1.5,1.5,0,0,1,1.3.1,4.2,4.2,0,0,1,1.9,3.3,1.43,1.43,0,0,1-.6,1.2h0l-.9.5-.2-.3a.76.76,0,0,1-.5-.2,4.2,4.2,0,0,1-1.9-3.3.9.9,0,0,1,.1-.5Z"/><path class="a71ef263-c65c-4ff5-b0e9-9b48c8c9699a" d="M74.1,345a4.2,4.2,0,0,1,1.9,3.3c0,1.2-.8,1.7-1.9,1.1a4.2,4.2,0,0,1-1.9-3.3C72.2,344.92,73,344.42,74.1,345Z"/><g class="86965acc-9d36-4372-8696-fe7848c5008f"><path class="175f035e-be4a-4d01-b541-3b7c8bfce040" d="M62.5,335.22l16,9.2a4.73,4.73,0,0,1,2.2,3.8v4.4c0,1.4-1,1.9-2.2,1.3l-16-9.2a4.73,4.73,0,0,1-2.2-3.8v-4.4C60.3,335.12,61.3,334.52,62.5,335.22Z"/></g><path class="a71ef263-c65c-4ff5-b0e9-9b48c8c9699a" d="M64.5,340.22l1-.6h0a1.5,1.5,0,0,1,1.3.1,4.2,4.2,0,0,1,1.9,3.3,1.22,1.22,0,0,1-.6,1.2h0l-.9.5-.2-.3a.76.76,0,0,1-.5-.2,4.2,4.2,0,0,1-1.9-3.3.9.9,0,0,1,.1-.5Z"/><path class="a01e2004-a05b-47a7-aced-5b2e2a399cf6" d="M64.5,340.22l1-.6h0a1.5,1.5,0,0,1,1.3.1,4.2,4.2,0,0,1,1.9,3.3,1.22,1.22,0,0,1-.6,1.2h0l-.9.5-.2-.3a.76.76,0,0,1-.5-.2,4.2,4.2,0,0,1-1.9-3.3.9.9,0,0,1,.1-.5Z"/><path class="a71ef263-c65c-4ff5-b0e9-9b48c8c9699a" d="M65.9,340.32a4.2,4.2,0,0,1,1.9,3.3c0,1.2-.8,1.7-1.9,1.1a4.2,4.2,0,0,1-1.9-3.3A1.17,1.17,0,0,1,65.9,340.32Z"/><path class="a71ef263-c65c-4ff5-b0e9-9b48c8c9699a" d="M72.7,344.92l1-.6h0a1.5,1.5,0,0,1,1.3.1,4.2,4.2,0,0,1,1.9,3.3,1.43,1.43,0,0,1-.6,1.2h0l-.9.5-.2-.3a.76.76,0,0,1-.5-.2,4.2,4.2,0,0,1-1.9-3.3.9.9,0,0,1,.1-.5Z"/><path class="a01e2004-a05b-47a7-aced-5b2e2a399cf6" d="M72.7,344.92l1-.6h0a1.5,1.5,0,0,1,1.3.1,4.2,4.2,0,0,1,1.9,3.3,1.43,1.43,0,0,1-.6,1.2h0l-.9.5-.2-.3a.76.76,0,0,1-.5-.2,4.2,4.2,0,0,1-1.9-3.3.9.9,0,0,1,.1-.5Z"/><path class="a71ef263-c65c-4ff5-b0e9-9b48c8c9699a" d="M74.1,345a4.2,4.2,0,0,1,1.9,3.3c0,1.2-.8,1.7-1.9,1.1a4.2,4.2,0,0,1-1.9-3.3C72.2,344.92,73,344.42,74.1,345Z"/><path class="a71ef263-c65c-4ff5-b0e9-9b48c8c9699a" d="M135.8,359.52l-1-.6h0a1.5,1.5,0,0,0-1.3.1,4.2,4.2,0,0,0-1.9,3.3,1.66,1.66,0,0,0,.5,1.2h0l.9.5.2-.3a.76.76,0,0,0,.5-.2,4.2,4.2,0,0,0,1.9-3.3.9.9,0,0,0-.1-.5Z"/><path class="485e255a-ea02-489c-b324-bc49ba4df3ef" d="M135.8,359.52l-1-.6h0a1.5,1.5,0,0,0-1.3.1,4.2,4.2,0,0,0-1.9,3.3,1.66,1.66,0,0,0,.5,1.2h0l.9.5.2-.3a.76.76,0,0,0,.5-.2,4.2,4.2,0,0,0,1.9-3.3.9.9,0,0,0-.1-.5Z"/><path class="a71ef263-c65c-4ff5-b0e9-9b48c8c9699a" d="M134.4,359.62a4.2,4.2,0,0,0-1.9,3.3c0,1.2.8,1.7,1.9,1.1a4.2,4.2,0,0,0,1.9-3.3C136.3,359.52,135.5,359,134.4,359.62Z"/><path class="a01e2004-a05b-47a7-aced-5b2e2a399cf6" d="M134.4,359.62a4.2,4.2,0,0,0-1.9,3.3c0,1.2.8,1.7,1.9,1.1a4.2,4.2,0,0,0,1.9-3.3C136.3,359.52,135.5,359,134.4,359.62Z"/><path class="a71ef263-c65c-4ff5-b0e9-9b48c8c9699a" d="M127.6,364.22l-1-.6h0a1.5,1.5,0,0,0-1.3.1,4.2,4.2,0,0,0-1.9,3.3,1.43,1.43,0,0,0,.6,1.2h0l.9.5.2-.3a.76.76,0,0,0,.5-.2,4.2,4.2,0,0,0,1.9-3.3.9.9,0,0,0-.1-.5Z"/><path class="485e255a-ea02-489c-b324-bc49ba4df3ef" d="M127.6,364.22l-1-.6h0a1.5,1.5,0,0,0-1.3.1,4.2,4.2,0,0,0-1.9,3.3,1.43,1.43,0,0,0,.6,1.2h0l.9.5.2-.3a.76.76,0,0,0,.5-.2,4.2,4.2,0,0,0,1.9-3.3.9.9,0,0,0-.1-.5Z"/><path class="a71ef263-c65c-4ff5-b0e9-9b48c8c9699a" d="M126.2,364.32a4.2,4.2,0,0,0-1.9,3.3c0,1.2.8,1.7,1.9,1.1a4.2,4.2,0,0,0,1.9-3.3C128.1,364.22,127.3,363.72,126.2,364.32Z"/><path class="a01e2004-a05b-47a7-aced-5b2e2a399cf6" d="M126.2,364.32a4.2,4.2,0,0,0-1.9,3.3c0,1.2.8,1.7,1.9,1.1a4.2,4.2,0,0,0,1.9-3.3C128.1,364.22,127.3,363.72,126.2,364.32Z"/><polygon class="a71ef263-c65c-4ff5-b0e9-9b48c8c9699a" points="182.2 296.42 117.2 334.02 52.2 296.42 117.2 258.92 182.2 296.42"/><polygon class="9edc5d5b-9034-4c9f-b765-fb32bfb8de40" points="182.2 296.42 117.2 334.02 52.2 296.42 117.2 258.92 182.2 296.42"/><polygon class="9edc5d5b-9034-4c9f-b765-fb32bfb8de40" points="117.2 334.02 117.2 329.32 56.3 294.12 52.2 296.42 117.2 334.02"/><polygon class="a71ef263-c65c-4ff5-b0e9-9b48c8c9699a" points="182.2 315.22 117.2 352.72 117.2 334.02 182.2 296.42 182.2 315.22"/><polygon class="1f9c36de-89c8-48d7-95b0-84027fac38b8" points="182.2 315.22 117.2 352.72 117.2 334.02 182.2 296.42 182.2 315.22"/><path class="a71ef263-c65c-4ff5-b0e9-9b48c8c9699a" d="M176,304.72l-32.2,18.6a4.73,4.73,0,0,0-2.2,3.8v4.4c0,1.4,1,1.9,2.2,1.3l32.2-18.6a4.73,4.73,0,0,0,2.2-3.8V306C178.1,304.62,177.1,304,176,304.72Z"/><path class="87408887-4ac2-4f36-a6ef-80433eed1ed2" d="M175.8,308.42v2.2a1.23,1.23,0,0,1-.4.8l-.5.3c-.2.1-.4,0-.4-.3v-2.1a1.23,1.23,0,0,1,.4-.8l.5-.3C175.6,308.12,175.8,308.22,175.8,308.42Z"/><path class="ec718790-2149-4552-bdb3-b1e874461657" d="M173.6,309.72v2.1a1.23,1.23,0,0,1-.4.8l-.5.3c-.2.1-.4,0-.4-.3v-2.1a1.23,1.23,0,0,1,.4-.8l.5-.3C173.5,309.32,173.6,309.42,173.6,309.72Z"/><path class="87408887-4ac2-4f36-a6ef-80433eed1ed2" d="M171.5,311v2.1a1.23,1.23,0,0,1-.4.8l-.5.3c-.2.1-.4,0-.4-.3v-2.1a1.23,1.23,0,0,1,.4-.8l.5-.3C171.3,310.62,171.5,310.72,171.5,311Z"/><path class="ec718790-2149-4552-bdb3-b1e874461657" d="M169.3,312.22v2.1a1.23,1.23,0,0,1-.4.8l-.5.3c-.2.1-.4,0-.4-.3V313a1.23,1.23,0,0,1,.4-.8l.5-.3C169.1,311.82,169.3,312,169.3,312.22Z"/><path class="ec718790-2149-4552-bdb3-b1e874461657" d="M167.1,313.52v2.1a1.23,1.23,0,0,1-.4.8l-.5.3c-.2.1-.4,0-.4-.3v-2.1a1.23,1.23,0,0,1,.4-.8l.5-.3C166.9,313.12,167.1,313.22,167.1,313.52Z"/><path class="87408887-4ac2-4f36-a6ef-80433eed1ed2" d="M164.9,314.72v2.1a1.23,1.23,0,0,1-.4.8l-.5.3c-.2.1-.4,0-.4-.3v-2.1a1.23,1.23,0,0,1,.4-.8l.5-.3C164.7,314.42,164.9,314.52,164.9,314.72Z"/><path class="87408887-4ac2-4f36-a6ef-80433eed1ed2" d="M162.7,316v2.1a1.23,1.23,0,0,1-.4.8l-.5.3c-.2.1-.4,0-.4-.3v-2.1a1.23,1.23,0,0,1,.4-.8l.5-.3C162.5,315.62,162.7,315.72,162.7,316Z"/><path class="87408887-4ac2-4f36-a6ef-80433eed1ed2" d="M160.5,317.32v2.1a1.23,1.23,0,0,1-.4.8l-.5.3c-.2.1-.4,0-.4-.3v-2.1a1.23,1.23,0,0,1,.4-.8l.5-.3C160.3,316.92,160.5,317,160.5,317.32Z"/><path class="ec718790-2149-4552-bdb3-b1e874461657" d="M158.3,318.52v2.1a1.23,1.23,0,0,1-.4.8l-.5.3c-.2.1-.4,0-.4-.3v-2.1a1.23,1.23,0,0,1,.4-.8l.5-.3C158.1,318.12,158.3,318.32,158.3,318.52Z"/><path class="87408887-4ac2-4f36-a6ef-80433eed1ed2" d="M156.1,319.82v2.1a1.23,1.23,0,0,1-.4.8l-.5.3c-.2.1-.4,0-.4-.3v-2.1a1.23,1.23,0,0,1,.4-.8l.5-.3C155.9,319.42,156.1,319.52,156.1,319.82Z"/><path class="ec718790-2149-4552-bdb3-b1e874461657" d="M154,321.12v2.1a1.23,1.23,0,0,1-.4.8l-.5.3c-.2.1-.4,0-.4-.3v-2.1a1.23,1.23,0,0,1,.4-.8l.5-.3C153.7,320.72,154,320.82,154,321.12Z"/><path class="87408887-4ac2-4f36-a6ef-80433eed1ed2" d="M151.8,322.32v2.1a1.23,1.23,0,0,1-.4.8l-.5.3c-.2.1-.4,0-.4-.3v-2.1a1.23,1.23,0,0,1,.4-.8l.5-.3C151.6,321.92,151.8,322,151.8,322.32Z"/><path class="ec718790-2149-4552-bdb3-b1e874461657" d="M149.6,323.62v2.1a1.23,1.23,0,0,1-.4.8l-.5.3c-.2.1-.4,0-.4-.3v-2.1a1.23,1.23,0,0,1,.4-.8l.5-.3C149.4,323.22,149.6,323.32,149.6,323.62Z"/><path class="87408887-4ac2-4f36-a6ef-80433eed1ed2" d="M147.4,324.82v2.1a1.23,1.23,0,0,1-.4.8l-.5.3c-.2.1-.4,0-.4-.3v-2.1a1.23,1.23,0,0,1,.4-.8l.5-.3C147.2,324.52,147.4,324.62,147.4,324.82Z"/><path class="87408887-4ac2-4f36-a6ef-80433eed1ed2" d="M145.2,326.12v2.1a1.23,1.23,0,0,1-.4.8l-.5.3c-.2.1-.4,0-.4-.3v-2.1a1.23,1.23,0,0,1,.4-.8l.5-.3C145,325.72,145.2,325.82,145.2,326.12Z"/><polygon class="a71ef263-c65c-4ff5-b0e9-9b48c8c9699a" points="117.2 352.72 52.2 315.22 52.2 296.42 117.2 334.02 117.2 352.72"/><polygon class="2ebb45b8-3999-4c16-892f-13004a29d652" points="117.2 352.72 52.2 315.22 52.2 296.42 117.2 334.02 117.2 352.72"/><g class="86965acc-9d36-4372-8696-fe7848c5008f"><path class="175f035e-be4a-4d01-b541-3b7c8bfce040" d="M62.5,307.12l16,9.2a4.73,4.73,0,0,1,2.2,3.8v4.4c0,1.4-1,1.9-2.2,1.3l-16-9.2a4.73,4.73,0,0,1-2.2-3.8v-4.4C60.3,306.92,61.3,306.42,62.5,307.12Z"/></g><path class="a71ef263-c65c-4ff5-b0e9-9b48c8c9699a" d="M64.5,312l1-.6h0a1.5,1.5,0,0,1,1.3.1,4.2,4.2,0,0,1,1.9,3.3,1.43,1.43,0,0,1-.6,1.2h0l-.9.5-.2-.3a.76.76,0,0,1-.5-.2,4.2,4.2,0,0,1-1.9-3.3.9.9,0,0,1,.1-.5Z"/><path class="a01e2004-a05b-47a7-aced-5b2e2a399cf6" d="M64.5,312l1-.6h0a1.5,1.5,0,0,1,1.3.1,4.2,4.2,0,0,1,1.9,3.3,1.43,1.43,0,0,1-.6,1.2h0l-.9.5-.2-.3a.76.76,0,0,1-.5-.2,4.2,4.2,0,0,1-1.9-3.3.9.9,0,0,1,.1-.5Z"/><path class="a71ef263-c65c-4ff5-b0e9-9b48c8c9699a" d="M65.9,312.12a4.2,4.2,0,0,1,1.9,3.3c0,1.2-.8,1.7-1.9,1.1a4.2,4.2,0,0,1-1.9-3.3A1.17,1.17,0,0,1,65.9,312.12Z"/><path class="a71ef263-c65c-4ff5-b0e9-9b48c8c9699a" d="M72.7,316.72l1-.6h0a1.5,1.5,0,0,1,1.3.1,4.2,4.2,0,0,1,1.9,3.3,1.43,1.43,0,0,1-.6,1.2h0l-.9.5-.2-.3a.76.76,0,0,1-.5-.2,4.2,4.2,0,0,1-1.9-3.3.9.9,0,0,1,.1-.5Z"/><path class="a01e2004-a05b-47a7-aced-5b2e2a399cf6" d="M72.7,316.72l1-.6h0a1.5,1.5,0,0,1,1.3.1,4.2,4.2,0,0,1,1.9,3.3,1.43,1.43,0,0,1-.6,1.2h0l-.9.5-.2-.3a.76.76,0,0,1-.5-.2,4.2,4.2,0,0,1-1.9-3.3.9.9,0,0,1,.1-.5Z"/><path class="a71ef263-c65c-4ff5-b0e9-9b48c8c9699a" d="M74.1,316.82a4.2,4.2,0,0,1,1.9,3.3c0,1.2-.8,1.7-1.9,1.1a4.2,4.2,0,0,1-1.9-3.3C72.2,316.72,73,316.22,74.1,316.82Z"/><polygon class="ec718790-2149-4552-bdb3-b1e874461657" points="174 324.62 174 319.92 117.2 352.72 117.2 357.42 174 324.62"/><polygon class="a71ef263-c65c-4ff5-b0e9-9b48c8c9699a" points="56.3 317.52 56.3 322.22 117.2 357.42 117.2 352.72 56.3 317.52"/><polygon class="578df1bb-ff4b-4f6d-b23a-4c4448f4f8bd" points="56.3 317.52 56.3 322.22 117.2 357.42 117.2 352.72 56.3 317.52"/><path class="a71ef263-c65c-4ff5-b0e9-9b48c8c9699a" d="M135.8,331.42l-1-.6h0a1.5,1.5,0,0,0-1.3.1,4.2,4.2,0,0,0-1.9,3.3,1.35,1.35,0,0,0,.5,1.2h0l.9.5.2-.3a.76.76,0,0,0,.5-.2,4.2,4.2,0,0,0,1.9-3.3.9.9,0,0,0-.1-.5Z"/><path class="485e255a-ea02-489c-b324-bc49ba4df3ef" d="M135.8,331.42l-1-.6h0a1.5,1.5,0,0,0-1.3.1,4.2,4.2,0,0,0-1.9,3.3,1.35,1.35,0,0,0,.5,1.2h0l.9.5.2-.3a.76.76,0,0,0,.5-.2,4.2,4.2,0,0,0,1.9-3.3.9.9,0,0,0-.1-.5Z"/><path class="a71ef263-c65c-4ff5-b0e9-9b48c8c9699a" d="M134.4,331.52a4.2,4.2,0,0,0-1.9,3.3c0,1.2.8,1.7,1.9,1.1a4.2,4.2,0,0,0,1.9-3.3C136.3,331.32,135.5,330.92,134.4,331.52Z"/><path class="a01e2004-a05b-47a7-aced-5b2e2a399cf6" d="M134.4,331.52a4.2,4.2,0,0,0-1.9,3.3c0,1.2.8,1.7,1.9,1.1a4.2,4.2,0,0,0,1.9-3.3C136.3,331.32,135.5,330.92,134.4,331.52Z"/><path class="a71ef263-c65c-4ff5-b0e9-9b48c8c9699a" d="M127.6,336.12l-1-.6h0a1.23,1.23,0,0,0-1.3.1,4.2,4.2,0,0,0-1.9,3.3,1.43,1.43,0,0,0,.6,1.2h0l.9.5.2-.3a.76.76,0,0,0,.5-.2,4.2,4.2,0,0,0,1.9-3.3.9.9,0,0,0-.1-.5Z"/><path class="485e255a-ea02-489c-b324-bc49ba4df3ef" d="M127.6,336.12l-1-.6h0a1.23,1.23,0,0,0-1.3.1,4.2,4.2,0,0,0-1.9,3.3,1.43,1.43,0,0,0,.6,1.2h0l.9.5.2-.3a.76.76,0,0,0,.5-.2,4.2,4.2,0,0,0,1.9-3.3.9.9,0,0,0-.1-.5Z"/><path class="a71ef263-c65c-4ff5-b0e9-9b48c8c9699a" d="M126.2,336.22a4.2,4.2,0,0,0-1.9,3.3c0,1.2.8,1.7,1.9,1.1a4.2,4.2,0,0,0,1.9-3.3C128.1,336.12,127.3,335.62,126.2,336.22Z"/><path class="a01e2004-a05b-47a7-aced-5b2e2a399cf6" d="M126.2,336.22a4.2,4.2,0,0,0-1.9,3.3c0,1.2.8,1.7,1.9,1.1a4.2,4.2,0,0,0,1.9-3.3C128.1,336.12,127.3,335.62,126.2,336.22Z"/><polygon class="a71ef263-c65c-4ff5-b0e9-9b48c8c9699a" points="182.2 268.32 117.2 305.82 52.2 268.32 117.2 230.82 182.2 268.32"/><polygon class="9edc5d5b-9034-4c9f-b765-fb32bfb8de40" points="182.2 268.32 117.2 305.82 52.2 268.32 117.2 230.82 182.2 268.32"/><polygon class="9edc5d5b-9034-4c9f-b765-fb32bfb8de40" points="117.2 305.82 117.2 301.12 56.3 265.92 52.2 268.32 117.2 305.82"/><polygon class="a71ef263-c65c-4ff5-b0e9-9b48c8c9699a" points="182.2 287.12 117.2 324.62 117.2 305.82 182.2 268.32 182.2 287.12"/><polygon class="1f9c36de-89c8-48d7-95b0-84027fac38b8" points="182.2 287.12 117.2 324.62 117.2 305.82 182.2 268.32 182.2 287.12"/><path class="a71ef263-c65c-4ff5-b0e9-9b48c8c9699a" d="M176,276.62l-32.2,18.6a4.73,4.73,0,0,0-2.2,3.8v4.4c0,1.4,1,1.9,2.2,1.3l32.2-18.6a4.73,4.73,0,0,0,2.2-3.8v-4.4C178.1,276.42,177.1,275.92,176,276.62Z"/><path class="87408887-4ac2-4f36-a6ef-80433eed1ed2" d="M175.8,280.32v2.1a1.23,1.23,0,0,1-.4.8l-.5.3c-.2.1-.4,0-.4-.3v-2.1a1.23,1.23,0,0,1,.4-.8l.5-.3C175.6,279.92,175.8,280,175.8,280.32Z"/><path class="87408887-4ac2-4f36-a6ef-80433eed1ed2" d="M173.6,281.52v2.1a1.23,1.23,0,0,1-.4.8l-.5.3c-.2.1-.4,0-.4-.3v-2.1a1.23,1.23,0,0,1,.4-.8l.5-.3C173.5,281.12,173.6,281.32,173.6,281.52Z"/><path class="87408887-4ac2-4f36-a6ef-80433eed1ed2" d="M171.5,282.82v2.1a1.23,1.23,0,0,1-.4.8l-.5.3c-.2.1-.4,0-.4-.3v-2.1a1.23,1.23,0,0,1,.4-.8l.5-.3C171.3,282.42,171.5,282.52,171.5,282.82Z"/><path class="87408887-4ac2-4f36-a6ef-80433eed1ed2" d="M169.3,284.12v2.1a1.23,1.23,0,0,1-.4.8l-.5.3c-.2.1-.4,0-.4-.3v-2.1a1.23,1.23,0,0,1,.4-.8l.5-.3C169.1,283.72,169.3,283.82,169.3,284.12Z"/><path class="ec718790-2149-4552-bdb3-b1e874461657" d="M167.1,285.32v2.1a1.23,1.23,0,0,1-.4.8l-.5.3c-.2.1-.4,0-.4-.3v-2.1a1.23,1.23,0,0,1,.4-.8l.5-.3C166.9,284.92,167.1,285,167.1,285.32Z"/><path class="ec718790-2149-4552-bdb3-b1e874461657" d="M164.9,286.62v2.1a1.23,1.23,0,0,1-.4.8l-.5.3c-.2.1-.4,0-.4-.3v-2.1a1.23,1.23,0,0,1,.4-.8l.5-.3C164.7,286.22,164.9,286.32,164.9,286.62Z"/><path class="87408887-4ac2-4f36-a6ef-80433eed1ed2" d="M162.7,287.82v2.1a1.23,1.23,0,0,1-.4.8l-.5.3c-.2.1-.4,0-.4-.3v-2.1a1.23,1.23,0,0,1,.4-.8l.5-.3C162.5,287.52,162.7,287.62,162.7,287.82Z"/><path class="87408887-4ac2-4f36-a6ef-80433eed1ed2" d="M160.5,289.12v2.1a1.23,1.23,0,0,1-.4.8l-.5.3c-.2.1-.4,0-.4-.3v-2.1a1.23,1.23,0,0,1,.4-.8l.5-.3C160.3,288.72,160.5,288.82,160.5,289.12Z"/><path class="87408887-4ac2-4f36-a6ef-80433eed1ed2" d="M158.3,290.42v2.1a1.23,1.23,0,0,1-.4.8l-.5.3c-.2.1-.4,0-.4-.3v-2.1a1.23,1.23,0,0,1,.4-.8l.5-.3C158.1,290,158.3,290.12,158.3,290.42Z"/><path class="ec718790-2149-4552-bdb3-b1e874461657" d="M156.1,291.62v2.1a1.23,1.23,0,0,1-.4.8l-.5.3c-.2.1-.4,0-.4-.3v-2.1a1.23,1.23,0,0,1,.4-.8l.5-.3C155.9,291.22,156.1,291.42,156.1,291.62Z"/><path class="87408887-4ac2-4f36-a6ef-80433eed1ed2" d="M154,292.92V295a1.23,1.23,0,0,1-.4.8l-.5.3c-.2.1-.4,0-.4-.3v-2.1a1.23,1.23,0,0,1,.4-.8l.5-.3C153.7,292.52,154,292.62,154,292.92Z"/><path class="87408887-4ac2-4f36-a6ef-80433eed1ed2" d="M151.8,294.12v2.1a1.23,1.23,0,0,1-.4.8l-.5.3c-.2.1-.4,0-.4-.3v-2.1a1.23,1.23,0,0,1,.4-.8l.5-.3C151.6,293.82,151.8,293.92,151.8,294.12Z"/><path class="ec718790-2149-4552-bdb3-b1e874461657" d="M149.6,295.42v2.1a1.23,1.23,0,0,1-.4.8l-.5.3c-.2.1-.4,0-.4-.3v-2.1a1.23,1.23,0,0,1,.4-.8l.5-.3C149.4,295,149.6,295.12,149.6,295.42Z"/><path class="87408887-4ac2-4f36-a6ef-80433eed1ed2" d="M147.4,296.72v2.1a1.23,1.23,0,0,1-.4.8l-.5.3c-.2.1-.4,0-.4-.3v-2.1a1.23,1.23,0,0,1,.4-.8l.5-.3C147.2,296.32,147.4,296.42,147.4,296.72Z"/><path class="ec718790-2149-4552-bdb3-b1e874461657" d="M145.2,297.92V300a1.23,1.23,0,0,1-.4.8l-.5.3c-.2.1-.4,0-.4-.3v-2.1a1.23,1.23,0,0,1,.4-.8l.5-.3C145,297.52,145.2,297.72,145.2,297.92Z"/><polygon class="a71ef263-c65c-4ff5-b0e9-9b48c8c9699a" points="117.2 324.62 52.2 287.12 52.2 268.32 117.2 305.82 117.2 324.62"/><polygon class="2ebb45b8-3999-4c16-892f-13004a29d652" points="117.2 324.62 52.2 287.12 52.2 268.32 117.2 305.82 117.2 324.62"/><g class="86965acc-9d36-4372-8696-fe7848c5008f"><path class="175f035e-be4a-4d01-b541-3b7c8bfce040" d="M62.5,278.92l16,9.2a4.73,4.73,0,0,1,2.2,3.8v4.4c0,1.4-1,1.9-2.2,1.3l-16-9.2a4.71,4.71,0,0,1-2.2-3.7v-4.4C60.3,278.82,61.3,278.22,62.5,278.92Z"/></g><path class="a71ef263-c65c-4ff5-b0e9-9b48c8c9699a" d="M64.5,283.92l1-.6h0a1.5,1.5,0,0,1,1.3.1,4.2,4.2,0,0,1,1.9,3.3,1.22,1.22,0,0,1-.6,1.2h0l-.9.5-.2-.3a.76.76,0,0,1-.5-.2,4.2,4.2,0,0,1-1.9-3.3.9.9,0,0,1,.1-.5Z"/><path class="a01e2004-a05b-47a7-aced-5b2e2a399cf6" d="M64.5,283.92l1-.6h0a1.5,1.5,0,0,1,1.3.1,4.2,4.2,0,0,1,1.9,3.3,1.22,1.22,0,0,1-.6,1.2h0l-.9.5-.2-.3a.76.76,0,0,1-.5-.2,4.2,4.2,0,0,1-1.9-3.3.9.9,0,0,1,.1-.5Z"/><path class="a71ef263-c65c-4ff5-b0e9-9b48c8c9699a" d="M65.9,284a4.2,4.2,0,0,1,1.9,3.3c0,1.2-.8,1.7-1.9,1.1a4.2,4.2,0,0,1-1.9-3.3A1.17,1.17,0,0,1,65.9,284Z"/><path class="a71ef263-c65c-4ff5-b0e9-9b48c8c9699a" d="M72.7,288.62l1-.6h0a1.5,1.5,0,0,1,1.3.1,4.2,4.2,0,0,1,1.9,3.3,1.43,1.43,0,0,1-.6,1.2h0l-.9.5-.2-.3a.76.76,0,0,1-.5-.2,4.2,4.2,0,0,1-1.9-3.3.9.9,0,0,1,.1-.5Z"/><path class="a01e2004-a05b-47a7-aced-5b2e2a399cf6" d="M72.7,288.62l1-.6h0a1.5,1.5,0,0,1,1.3.1,4.2,4.2,0,0,1,1.9,3.3,1.43,1.43,0,0,1-.6,1.2h0l-.9.5-.2-.3a.76.76,0,0,1-.5-.2,4.2,4.2,0,0,1-1.9-3.3.9.9,0,0,1,.1-.5Z"/><path class="a71ef263-c65c-4ff5-b0e9-9b48c8c9699a" d="M74.1,288.72A4.2,4.2,0,0,1,76,292c0,1.2-.8,1.7-1.9,1.1a4.2,4.2,0,0,1-1.9-3.3C72.2,288.62,73,288.12,74.1,288.72Z"/><polygon class="ec718790-2149-4552-bdb3-b1e874461657" points="174 296.42 174 291.72 117.2 324.62 117.2 329.32 174 296.42"/><polygon class="578df1bb-ff4b-4f6d-b23a-4c4448f4f8bd" points="56.3 289.42 56.3 294.12 117.2 329.32 117.2 324.62 56.3 289.42"/><path class="a71ef263-c65c-4ff5-b0e9-9b48c8c9699a" d="M135.8,303.22l-1-.6h0a1.5,1.5,0,0,0-1.3.1,4.2,4.2,0,0,0-1.9,3.3,1.66,1.66,0,0,0,.5,1.2h0l.9.5.2-.3a.76.76,0,0,0,.5-.2,4.2,4.2,0,0,0,1.9-3.3.9.9,0,0,0-.1-.5Z"/><path class="485e255a-ea02-489c-b324-bc49ba4df3ef" d="M135.8,303.22l-1-.6h0a1.5,1.5,0,0,0-1.3.1,4.2,4.2,0,0,0-1.9,3.3,1.66,1.66,0,0,0,.5,1.2h0l.9.5.2-.3a.76.76,0,0,0,.5-.2,4.2,4.2,0,0,0,1.9-3.3.9.9,0,0,0-.1-.5Z"/><path class="a71ef263-c65c-4ff5-b0e9-9b48c8c9699a" d="M134.4,303.32a4.2,4.2,0,0,0-1.9,3.3c0,1.2.8,1.7,1.9,1.1a4.2,4.2,0,0,0,1.9-3.3C136.3,303.22,135.5,302.72,134.4,303.32Z"/><path class="a01e2004-a05b-47a7-aced-5b2e2a399cf6" d="M134.4,303.32a4.2,4.2,0,0,0-1.9,3.3c0,1.2.8,1.7,1.9,1.1a4.2,4.2,0,0,0,1.9-3.3C136.3,303.22,135.5,302.72,134.4,303.32Z"/><path class="a71ef263-c65c-4ff5-b0e9-9b48c8c9699a" d="M127.6,307.92l-1-.6h0a1.5,1.5,0,0,0-1.3.1,4.2,4.2,0,0,0-1.9,3.3,1.43,1.43,0,0,0,.6,1.2h0l.9.5.2-.3a.76.76,0,0,0,.5-.2,4.2,4.2,0,0,0,1.9-3.3.9.9,0,0,0-.1-.5Z"/><path class="485e255a-ea02-489c-b324-bc49ba4df3ef" d="M127.6,307.92l-1-.6h0a1.5,1.5,0,0,0-1.3.1,4.2,4.2,0,0,0-1.9,3.3,1.43,1.43,0,0,0,.6,1.2h0l.9.5.2-.3a.76.76,0,0,0,.5-.2,4.2,4.2,0,0,0,1.9-3.3.9.9,0,0,0-.1-.5Z"/><path class="a71ef263-c65c-4ff5-b0e9-9b48c8c9699a" d="M126.2,308a4.2,4.2,0,0,0-1.9,3.3c0,1.2.8,1.7,1.9,1.1a4.2,4.2,0,0,0,1.9-3.3C128.1,307.92,127.3,307.42,126.2,308Z"/><path class="a01e2004-a05b-47a7-aced-5b2e2a399cf6" d="M126.2,308a4.2,4.2,0,0,0-1.9,3.3c0,1.2.8,1.7,1.9,1.1a4.2,4.2,0,0,0,1.9-3.3C128.1,307.92,127.3,307.42,126.2,308Z"/><polygon class="a71ef263-c65c-4ff5-b0e9-9b48c8c9699a" points="182.2 240.12 117.2 277.72 52.2 240.12 117.2 202.62 182.2 240.12"/><polygon class="34b71bae-045f-45be-a126-5e1d4449ae22" points="182.2 240.12 117.2 277.72 52.2 240.12 117.2 202.62 182.2 240.12"/><polygon class="9edc5d5b-9034-4c9f-b765-fb32bfb8de40" points="182.2 240.12 117.2 277.72 52.2 240.12 117.2 202.62 182.2 240.12"/><polygon class="9edc5d5b-9034-4c9f-b765-fb32bfb8de40" points="117.2 273.02 117.2 277.72 52.2 240.12 56.3 237.82 117.2 273.02"/><polygon class="a71ef263-c65c-4ff5-b0e9-9b48c8c9699a" points="182.2 258.92 117.2 296.42 117.2 277.72 182.2 240.12 182.2 258.92"/><polygon class="1f9c36de-89c8-48d7-95b0-84027fac38b8" points="182.2 258.92 117.2 296.42 117.2 277.72 182.2 240.12 182.2 258.92"/><path class="a71ef263-c65c-4ff5-b0e9-9b48c8c9699a" d="M176,248.42,143.8,267a4.73,4.73,0,0,0-2.2,3.8v4.4c0,1.4,1,1.9,2.2,1.3l32.2-18.6a4.73,4.73,0,0,0,2.2-3.8v-4.4C178.1,248.32,177.1,247.72,176,248.42Z"/><path class="87408887-4ac2-4f36-a6ef-80433eed1ed2" d="M175.8,252.12v2.1a1.23,1.23,0,0,1-.4.8l-.5.3c-.2.1-.4,0-.4-.3v-2.1a1.23,1.23,0,0,1,.4-.8l.5-.3C175.6,251.82,175.8,251.92,175.8,252.12Z"/><path class="ec718790-2149-4552-bdb3-b1e874461657" d="M173.6,253.42v2.1a1.23,1.23,0,0,1-.4.8l-.5.3c-.2.1-.4,0-.4-.3v-2.1a1.23,1.23,0,0,1,.4-.8l.5-.3C173.5,253,173.6,253.12,173.6,253.42Z"/><path class="87408887-4ac2-4f36-a6ef-80433eed1ed2" d="M171.5,254.72v2.1a1.23,1.23,0,0,1-.4.8l-.5.3c-.2.1-.4,0-.4-.3v-2.1a1.23,1.23,0,0,1,.4-.8l.5-.3C171.3,254.32,171.5,254.42,171.5,254.72Z"/><path class="87408887-4ac2-4f36-a6ef-80433eed1ed2" d="M169.3,255.92V258a1.23,1.23,0,0,1-.4.8l-.5.3c-.2.1-.4,0-.4-.3v-2.1a1.23,1.23,0,0,1,.4-.8l.5-.3C169.1,255.62,169.3,255.72,169.3,255.92Z"/><path class="87408887-4ac2-4f36-a6ef-80433eed1ed2" d="M167.1,257.22v2.1a1.23,1.23,0,0,1-.4.8l-.5.3c-.2.1-.4,0-.4-.3V258a1.23,1.23,0,0,1,.4-.8l.5-.3C166.9,256.82,167.1,256.92,167.1,257.22Z"/><path class="ec718790-2149-4552-bdb3-b1e874461657" d="M164.9,258.52v2.1a1.23,1.23,0,0,1-.4.8l-.5.3c-.2.1-.4,0-.4-.3v-2.1a1.23,1.23,0,0,1,.4-.8l.5-.3C164.7,258.12,164.9,258.22,164.9,258.52Z"/><path class="ec718790-2149-4552-bdb3-b1e874461657" d="M162.7,259.72v2.1a1.23,1.23,0,0,1-.4.8l-.5.3c-.2.1-.4,0-.4-.3v-2.1a1.23,1.23,0,0,1,.4-.8l.5-.3C162.5,259.32,162.7,259.42,162.7,259.72Z"/><path class="87408887-4ac2-4f36-a6ef-80433eed1ed2" d="M160.5,261v2.1a1.23,1.23,0,0,1-.4.8l-.5.3c-.2.1-.4,0-.4-.3v-2.1a1.23,1.23,0,0,1,.4-.8l.5-.3C160.3,260.62,160.5,260.72,160.5,261Z"/><path class="ec718790-2149-4552-bdb3-b1e874461657" d="M158.3,262.22v2.1a1.23,1.23,0,0,1-.4.8l-.5.3c-.2.1-.4,0-.4-.3V263a1.23,1.23,0,0,1,.4-.8l.5-.3C158.1,261.92,158.3,262,158.3,262.22Z"/><path class="87408887-4ac2-4f36-a6ef-80433eed1ed2" d="M156.1,263.52v2.1a1.23,1.23,0,0,1-.4.8l-.5.3c-.2.1-.4,0-.4-.3v-2.1a1.23,1.23,0,0,1,.4-.8l.5-.3C155.9,263.12,156.1,263.22,156.1,263.52Z"/><path class="87408887-4ac2-4f36-a6ef-80433eed1ed2" d="M154,264.82v2.1a1.23,1.23,0,0,1-.4.8l-.5.3c-.2.1-.4,0-.4-.3v-2.1a1.23,1.23,0,0,1,.4-.8l.5-.3C153.7,264.42,154,264.52,154,264.82Z"/><path class="87408887-4ac2-4f36-a6ef-80433eed1ed2" d="M151.8,266v2.1a1.23,1.23,0,0,1-.4.8l-.5.3c-.2.1-.4,0-.4-.3v-2.1a1.23,1.23,0,0,1,.4-.8l.5-.3C151.6,265.62,151.8,265.72,151.8,266Z"/><path class="ec718790-2149-4552-bdb3-b1e874461657" d="M149.6,267.32v2.1a1.23,1.23,0,0,1-.4.8l-.5.3c-.2.1-.4,0-.4-.3v-2.1a1.23,1.23,0,0,1,.4-.8l.5-.3C149.4,266.92,149.6,267,149.6,267.32Z"/><path class="87408887-4ac2-4f36-a6ef-80433eed1ed2" d="M147.4,268.62v2.1a1.23,1.23,0,0,1-.4.8l-.5.3c-.2.1-.4,0-.4-.3v-2.1a1.23,1.23,0,0,1,.4-.8l.5-.3C147.2,268.22,147.4,268.32,147.4,268.62Z"/><path class="87408887-4ac2-4f36-a6ef-80433eed1ed2" d="M145.2,269.82v2.1a1.23,1.23,0,0,1-.4.8l-.5.3c-.2.1-.4,0-.4-.3v-2.1a1.23,1.23,0,0,1,.4-.8l.5-.3C145,269.42,145.2,269.52,145.2,269.82Z"/><polygon class="a71ef263-c65c-4ff5-b0e9-9b48c8c9699a" points="117.2 296.42 52.2 258.92 52.2 240.12 117.2 277.72 117.2 296.42"/><polygon class="2ebb45b8-3999-4c16-892f-13004a29d652" points="117.2 296.42 52.2 258.92 52.2 240.12 117.2 277.72 117.2 296.42"/><g class="86965acc-9d36-4372-8696-fe7848c5008f"><path class="175f035e-be4a-4d01-b541-3b7c8bfce040" d="M62.5,250.82l16,9.2a4.73,4.73,0,0,1,2.2,3.8v4.4c0,1.4-1,1.9-2.2,1.3l-16-9.2a4.73,4.73,0,0,1-2.2-3.8v-4.4C60.3,250.72,61.3,250.12,62.5,250.82Z"/></g><path class="a71ef263-c65c-4ff5-b0e9-9b48c8c9699a" d="M64.5,255.72l1-.6h0a1.5,1.5,0,0,1,1.3.1,4.2,4.2,0,0,1,1.9,3.3,1.22,1.22,0,0,1-.6,1.2h0l-.9.5-.2-.3a.76.76,0,0,1-.5-.2,4.2,4.2,0,0,1-1.9-3.3.9.9,0,0,1,.1-.5Z"/><path class="a01e2004-a05b-47a7-aced-5b2e2a399cf6" d="M64.5,255.72l1-.6h0a1.5,1.5,0,0,1,1.3.1,4.2,4.2,0,0,1,1.9,3.3,1.22,1.22,0,0,1-.6,1.2h0l-.9.5-.2-.3a.76.76,0,0,1-.5-.2,4.2,4.2,0,0,1-1.9-3.3.9.9,0,0,1,.1-.5Z"/><path class="a71ef263-c65c-4ff5-b0e9-9b48c8c9699a" d="M65.9,255.92a4.2,4.2,0,0,1,1.9,3.3c0,1.2-.8,1.7-1.9,1.1A4.2,4.2,0,0,1,64,257C64,255.72,64.9,255.32,65.9,255.92Z"/><path class="a71ef263-c65c-4ff5-b0e9-9b48c8c9699a" d="M72.7,260.52l1-.6h0a1.23,1.23,0,0,1,1.3.1,4.2,4.2,0,0,1,1.9,3.3,1.43,1.43,0,0,1-.6,1.2h0l-.9.5-.2-.3a.76.76,0,0,1-.5-.2,4.2,4.2,0,0,1-1.9-3.3.9.9,0,0,1,.1-.5Z"/><path class="a01e2004-a05b-47a7-aced-5b2e2a399cf6" d="M72.7,260.52l1-.6h0a1.23,1.23,0,0,1,1.3.1,4.2,4.2,0,0,1,1.9,3.3,1.43,1.43,0,0,1-.6,1.2h0l-.9.5-.2-.3a.76.76,0,0,1-.5-.2,4.2,4.2,0,0,1-1.9-3.3.9.9,0,0,1,.1-.5Z"/><path class="a71ef263-c65c-4ff5-b0e9-9b48c8c9699a" d="M74.1,260.62a4.2,4.2,0,0,1,1.9,3.3c0,1.2-.8,1.7-1.9,1.1a4.2,4.2,0,0,1-1.9-3.3C72.2,260.52,73,260,74.1,260.62Z"/><polygon class="ec718790-2149-4552-bdb3-b1e874461657" points="174 268.32 174 263.62 117.2 296.42 117.2 301.12 174 268.32"/><polygon class="578df1bb-ff4b-4f6d-b23a-4c4448f4f8bd" points="56.3 261.22 56.3 265.92 117.2 301.12 117.2 296.42 56.3 261.22"/><path class="a71ef263-c65c-4ff5-b0e9-9b48c8c9699a" d="M135.8,275.12l-1-.6h0a1.23,1.23,0,0,0-1.3.1,4.2,4.2,0,0,0-1.9,3.3,1.66,1.66,0,0,0,.5,1.2h0l.9.5.2-.3a.76.76,0,0,0,.5-.2,4.2,4.2,0,0,0,1.9-3.3.9.9,0,0,0-.1-.5Z"/><path class="485e255a-ea02-489c-b324-bc49ba4df3ef" d="M135.8,275.12l-1-.6h0a1.23,1.23,0,0,0-1.3.1,4.2,4.2,0,0,0-1.9,3.3,1.66,1.66,0,0,0,.5,1.2h0l.9.5.2-.3a.76.76,0,0,0,.5-.2,4.2,4.2,0,0,0,1.9-3.3.9.9,0,0,0-.1-.5Z"/><path class="a71ef263-c65c-4ff5-b0e9-9b48c8c9699a" d="M134.4,275.22a4.2,4.2,0,0,0-1.9,3.3c0,1.2.8,1.7,1.9,1.1a4.2,4.2,0,0,0,1.9-3.3C136.3,275.12,135.5,274.62,134.4,275.22Z"/><path class="a01e2004-a05b-47a7-aced-5b2e2a399cf6" d="M134.4,275.22a4.2,4.2,0,0,0-1.9,3.3c0,1.2.8,1.7,1.9,1.1a4.2,4.2,0,0,0,1.9-3.3C136.3,275.12,135.5,274.62,134.4,275.22Z"/><path class="a71ef263-c65c-4ff5-b0e9-9b48c8c9699a" d="M127.6,279.82l-1-.6h0a1.5,1.5,0,0,0-1.3.1,4.2,4.2,0,0,0-1.9,3.3,1.22,1.22,0,0,0,.6,1.2h0l.9.5.2-.3a.76.76,0,0,0,.5-.2,4.2,4.2,0,0,0,1.9-3.3.9.9,0,0,0-.1-.5Z"/><path class="485e255a-ea02-489c-b324-bc49ba4df3ef" d="M127.6,279.82l-1-.6h0a1.5,1.5,0,0,0-1.3.1,4.2,4.2,0,0,0-1.9,3.3,1.22,1.22,0,0,0,.6,1.2h0l.9.5.2-.3a.76.76,0,0,0,.5-.2,4.2,4.2,0,0,0,1.9-3.3.9.9,0,0,0-.1-.5Z"/><path class="a71ef263-c65c-4ff5-b0e9-9b48c8c9699a" d="M126.2,279.92a4.2,4.2,0,0,0-1.9,3.3c0,1.2.8,1.7,1.9,1.1a4.2,4.2,0,0,0,1.9-3.3C128.1,279.82,127.3,279.32,126.2,279.92Z"/><path class="a01e2004-a05b-47a7-aced-5b2e2a399cf6" d="M126.2,279.92a4.2,4.2,0,0,0-1.9,3.3c0,1.2.8,1.7,1.9,1.1a4.2,4.2,0,0,0,1.9-3.3C128.1,279.82,127.3,279.32,126.2,279.92Z"/><path class="a71ef263-c65c-4ff5-b0e9-9b48c8c9699a" d="M54.8,210.52,114.6,176a5.93,5.93,0,0,1,5.2,0l59.8,34.5a5.89,5.89,0,0,1,2.6,4.5v15.8l-65.1,37.5h0l-64.9-37.5V215A5.89,5.89,0,0,1,54.8,210.52Z"/><path class="2ebb45b8-3999-4c16-892f-13004a29d652" d="M54.8,210.52,114.6,176a5.93,5.93,0,0,1,5.2,0l59.8,34.5a5.89,5.89,0,0,1,2.6,4.5v15.8l-65.1,37.5h0l-64.9-37.5V215A5.89,5.89,0,0,1,54.8,210.52Z"/><g class="86965acc-9d36-4372-8696-fe7848c5008f"><path class="175f035e-be4a-4d01-b541-3b7c8bfce040" d="M62.5,222.62l16,9.2a4.73,4.73,0,0,1,2.2,3.8V240c0,1.4-1,1.9-2.2,1.3l-16-9.2a4.73,4.73,0,0,1-2.2-3.8v-4.4C60.3,222.52,61.3,222,62.5,222.62Z"/></g><path class="a71ef263-c65c-4ff5-b0e9-9b48c8c9699a" d="M64.5,227.62l1-.6h0a1.5,1.5,0,0,1,1.3.1,4.2,4.2,0,0,1,1.9,3.3,1.43,1.43,0,0,1-.6,1.2h0l-.9.5-.2-.3a.76.76,0,0,1-.5-.2,4.2,4.2,0,0,1-1.9-3.3.9.9,0,0,1,.1-.5Z"/><path class="a01e2004-a05b-47a7-aced-5b2e2a399cf6" d="M64.5,227.62l1-.6h0a1.5,1.5,0,0,1,1.3.1,4.2,4.2,0,0,1,1.9,3.3,1.43,1.43,0,0,1-.6,1.2h0l-.9.5-.2-.3a.76.76,0,0,1-.5-.2,4.2,4.2,0,0,1-1.9-3.3.9.9,0,0,1,.1-.5Z"/><path class="a71ef263-c65c-4ff5-b0e9-9b48c8c9699a" d="M65.9,227.72a4.2,4.2,0,0,1,1.9,3.3c0,1.2-.8,1.7-1.9,1.1a4.2,4.2,0,0,1-1.9-3.3A1.17,1.17,0,0,1,65.9,227.72Z"/><path class="a71ef263-c65c-4ff5-b0e9-9b48c8c9699a" d="M72.7,232.32l1-.6h0a1.5,1.5,0,0,1,1.3.1,4.2,4.2,0,0,1,1.9,3.3,1.43,1.43,0,0,1-.6,1.2h0l-.9.5-.2-.3a.76.76,0,0,1-.5-.2,4.2,4.2,0,0,1-1.9-3.3.9.9,0,0,1,.1-.5Z"/><path class="a01e2004-a05b-47a7-aced-5b2e2a399cf6" d="M72.7,232.32l1-.6h0a1.5,1.5,0,0,1,1.3.1,4.2,4.2,0,0,1,1.9,3.3,1.43,1.43,0,0,1-.6,1.2h0l-.9.5-.2-.3a.76.76,0,0,1-.5-.2,4.2,4.2,0,0,1-1.9-3.3.9.9,0,0,1,.1-.5Z"/><path class="a71ef263-c65c-4ff5-b0e9-9b48c8c9699a" d="M74.1,232.42a4.2,4.2,0,0,1,1.9,3.3c0,1.2-.8,1.7-1.9,1.1a4.2,4.2,0,0,1-1.9-3.3C72.2,232.32,73,231.82,74.1,232.42Z"/><path class="a71ef263-c65c-4ff5-b0e9-9b48c8c9699a" d="M117.2,248.62v19.6l65-37.5v-15.8a6.31,6.31,0,0,0-2.1-4.2c.9.8.8,1.9-.5,2.7l-59.8,34.5A3.82,3.82,0,0,1,117.2,248.62Z"/><path class="1f9c36de-89c8-48d7-95b0-84027fac38b8" d="M117.2,248.62v19.6l65-37.5v-15.8a6.31,6.31,0,0,0-2.1-4.2c.9.8.8,1.9-.5,2.7l-59.8,34.5A3.82,3.82,0,0,1,117.2,248.62Z"/><path class="a71ef263-c65c-4ff5-b0e9-9b48c8c9699a" d="M176,220.32l-32.2,18.6a4.73,4.73,0,0,0-2.2,3.8v4.4c0,1.4,1,1.9,2.2,1.3l32.2-18.6a4.73,4.73,0,0,0,2.2-3.8v-4.4C178.1,220.22,177.1,219.62,176,220.32Z"/><path class="ec718790-2149-4552-bdb3-b1e874461657" d="M175.8,224v2.1a1.23,1.23,0,0,1-.4.8l-.5.3c-.2.1-.4,0-.4-.3v-2.1a1.23,1.23,0,0,1,.4-.8l.5-.3a.25.25,0,0,1,.4.1Z"/><path class="87408887-4ac2-4f36-a6ef-80433eed1ed2" d="M173.6,225.32v2.1a1.23,1.23,0,0,1-.4.8l-.5.3c-.2.1-.4,0-.4-.3v-2.1a1.23,1.23,0,0,1,.4-.8l.5-.3C173.5,224.92,173.6,225,173.6,225.32Z"/><path class="ec718790-2149-4552-bdb3-b1e874461657" d="M171.5,226.52v2.1a1.23,1.23,0,0,1-.4.8l-.5.3c-.2.1-.4,0-.4-.3v-2.1a1.23,1.23,0,0,1,.4-.8l.5-.3C171.3,226.12,171.5,226.22,171.5,226.52Z"/><path class="ec718790-2149-4552-bdb3-b1e874461657" d="M169.3,227.82v2.1a1.23,1.23,0,0,1-.4.8l-.5.3c-.2.1-.4,0-.4-.3v-2.1a1.23,1.23,0,0,1,.4-.8l.5-.3C169.1,227.42,169.3,227.52,169.3,227.82Z"/><path class="ec718790-2149-4552-bdb3-b1e874461657" d="M167.1,229.12v2.1a1.23,1.23,0,0,1-.4.8l-.5.3a.3.3,0,0,1-.4,0c-.1-.1-.1-.1-.1-.2V230a1.23,1.23,0,0,1,.4-.8l.5-.3C166.9,228.72,167.1,228.82,167.1,229.12Z"/><path class="87408887-4ac2-4f36-a6ef-80433eed1ed2" d="M164.9,230.32v2.1a1.23,1.23,0,0,1-.4.8l-.5.3a.3.3,0,0,1-.4,0c-.1-.1-.1-.1-.1-.2v-2.1a1.23,1.23,0,0,1,.4-.8l.5-.3a.3.3,0,0,1,.4,0C164.9,230.22,164.9,230.22,164.9,230.32Z"/><path class="87408887-4ac2-4f36-a6ef-80433eed1ed2" d="M162.7,231.62v2.1a1.23,1.23,0,0,1-.4.8l-.5.3c-.2.1-.4,0-.4-.3v-2.1a1.23,1.23,0,0,1,.4-.8l.5-.3a.25.25,0,0,1,.4.1Z"/><path class="ec718790-2149-4552-bdb3-b1e874461657" d="M160.5,232.82v2.1a1.23,1.23,0,0,1-.4.8l-.5.3c-.2.1-.4,0-.4-.3v-2.1a1.23,1.23,0,0,1,.4-.8l.5-.3C160.3,232.52,160.5,232.62,160.5,232.82Z"/><path class="87408887-4ac2-4f36-a6ef-80433eed1ed2" d="M158.3,234.12v2.1a1.23,1.23,0,0,1-.4.8l-.5.3c-.2.1-.4,0-.4-.3v-2.1a1.23,1.23,0,0,1,.4-.8l.5-.3C158.1,233.72,158.3,233.82,158.3,234.12Z"/><path class="ec718790-2149-4552-bdb3-b1e874461657" d="M156.1,235.42v2.1a1.23,1.23,0,0,1-.4.8l-.5.3c-.2.1-.4,0-.4-.3v-2.1a1.23,1.23,0,0,1,.4-.8l.5-.3C155.9,235,156.1,235.12,156.1,235.42Z"/><path class="ec718790-2149-4552-bdb3-b1e874461657" d="M154,236.62v2.1a1.23,1.23,0,0,1-.4.8l-.5.3a.25.25,0,0,1-.4-.1c0-.1-.1-.1-.1-.2v-2.1a1.23,1.23,0,0,1,.4-.8l.5-.3A.34.34,0,0,1,154,236.62Z"/><path class="ec718790-2149-4552-bdb3-b1e874461657" d="M151.8,237.92V240a1.23,1.23,0,0,1-.4.8l-.5.3a.3.3,0,0,1-.4,0c-.1-.1-.1-.1-.1-.2v-2.1a1.23,1.23,0,0,1,.4-.8l.5-.3a.3.3,0,0,1,.4,0C151.8,237.72,151.8,237.82,151.8,237.92Z"/><path class="87408887-4ac2-4f36-a6ef-80433eed1ed2" d="M149.6,239.12v2.1a1.23,1.23,0,0,1-.4.8l-.5.3c-.2.1-.4,0-.4-.3v-2.1a1.23,1.23,0,0,1,.4-.8l.5-.3C149.4,238.72,149.6,238.92,149.6,239.12Z"/><path class="ec718790-2149-4552-bdb3-b1e874461657" d="M147.4,240.42v2.1a1.23,1.23,0,0,1-.4.8l-.5.3c-.2.1-.4,0-.4-.3v-2.1a1.23,1.23,0,0,1,.4-.8l.5-.3C147.2,240,147.4,240.12,147.4,240.42Z"/><path class="ec718790-2149-4552-bdb3-b1e874461657" d="M145.2,241.72v2.1a1.23,1.23,0,0,1-.4.8l-.5.3c-.2.1-.4,0-.4-.3v-2.1a1.23,1.23,0,0,1,.4-.8l.5-.3C145,241.32,145.2,241.42,145.2,241.72Z"/><path class="a71ef263-c65c-4ff5-b0e9-9b48c8c9699a" d="M179.6,213.52,119.8,248a5.93,5.93,0,0,1-5.2,0l-59.8-34.5a1.6,1.6,0,0,1,0-3L114.6,176a5.93,5.93,0,0,1,5.2,0l59.8,34.5A1.6,1.6,0,0,1,179.6,213.52Z"/><path class="0291d2d6-2ff3-4b78-ac37-73ed7cadb42d" d="M179.6,213.52,119.8,248a5.93,5.93,0,0,1-5.2,0l-59.8-34.5a1.6,1.6,0,0,1,0-3L114.6,176a5.93,5.93,0,0,1,5.2,0l59.8,34.5A1.6,1.6,0,0,1,179.6,213.52Z"/><polygon class="ec718790-2149-4552-bdb3-b1e874461657" points="174 240.12 174 235.52 117.2 268.32 117.2 273.02 174 240.12"/><polygon class="578df1bb-ff4b-4f6d-b23a-4c4448f4f8bd" points="56.3 233.12 56.3 237.82 117.2 273.02 117.2 268.32 56.3 233.12"/><path class="a71ef263-c65c-4ff5-b0e9-9b48c8c9699a" d="M135.8,246.92l-1-.6h0a1.5,1.5,0,0,0-1.3.1,4.2,4.2,0,0,0-1.9,3.3,1.35,1.35,0,0,0,.5,1.2h0l.9.5.2-.3a.76.76,0,0,0,.5-.2,4.2,4.2,0,0,0,1.9-3.3.9.9,0,0,0-.1-.5Z"/><path class="485e255a-ea02-489c-b324-bc49ba4df3ef" d="M135.8,246.92l-1-.6h0a1.5,1.5,0,0,0-1.3.1,4.2,4.2,0,0,0-1.9,3.3,1.35,1.35,0,0,0,.5,1.2h0l.9.5.2-.3a.76.76,0,0,0,.5-.2,4.2,4.2,0,0,0,1.9-3.3.9.9,0,0,0-.1-.5Z"/><path class="a71ef263-c65c-4ff5-b0e9-9b48c8c9699a" d="M134.4,247a4.2,4.2,0,0,0-1.9,3.3c0,1.2.8,1.7,1.9,1.1a4.2,4.2,0,0,0,1.9-3.3C136.3,246.92,135.5,246.42,134.4,247Z"/><path class="a01e2004-a05b-47a7-aced-5b2e2a399cf6" d="M134.4,247a4.2,4.2,0,0,0-1.9,3.3c0,1.2.8,1.7,1.9,1.1a4.2,4.2,0,0,0,1.9-3.3C136.3,246.92,135.5,246.42,134.4,247Z"/><path class="a71ef263-c65c-4ff5-b0e9-9b48c8c9699a" d="M127.6,251.62l-1-.6h0a1.23,1.23,0,0,0-1.3.1,4.2,4.2,0,0,0-1.9,3.3,1.43,1.43,0,0,0,.6,1.2h0l.9.5.2-.3a.76.76,0,0,0,.5-.2,4.2,4.2,0,0,0,1.9-3.3.9.9,0,0,0-.1-.5Z"/><path class="485e255a-ea02-489c-b324-bc49ba4df3ef" d="M127.6,251.62l-1-.6h0a1.23,1.23,0,0,0-1.3.1,4.2,4.2,0,0,0-1.9,3.3,1.43,1.43,0,0,0,.6,1.2h0l.9.5.2-.3a.76.76,0,0,0,.5-.2,4.2,4.2,0,0,0,1.9-3.3.9.9,0,0,0-.1-.5Z"/><path class="a71ef263-c65c-4ff5-b0e9-9b48c8c9699a" d="M126.2,251.72a4.2,4.2,0,0,0-1.9,3.3c0,1.2.8,1.7,1.9,1.1a4.2,4.2,0,0,0,1.9-3.3C128.1,251.62,127.3,251.12,126.2,251.72Z"/><path class="a01e2004-a05b-47a7-aced-5b2e2a399cf6" d="M126.2,251.72a4.2,4.2,0,0,0-1.9,3.3c0,1.2.8,1.7,1.9,1.1a4.2,4.2,0,0,0,1.9-3.3C128.1,251.62,127.3,251.12,126.2,251.72Z"/></g></g><g id="6482a7f0-954e-4a40-b5bb-04078b32751f" data-name="freepik--speech-bubble--inject-26"><path class="a71ef263-c65c-4ff5-b0e9-9b48c8c9699a" d="M292.1,122.42l-4.6-8.7,3.7-10.8v-6.6l-11.4,6.6v6.6l4.9,8.5.3.3h0Z"/><path class="3f40b75e-cb5f-4f9d-8e93-60fe2951183f" d="M292.1,122.42l-4.6-8.7,3.7-10.8v-6.6l-11.4,6.6v6.6l4.9,8.5.3.3h0Z"/><path class="89c35a86-9c78-4f8a-a376-d2c80ed2b50b" d="M319.4,43.92A7.45,7.45,0,0,0,316,38l-2.8-1.6a7.63,7.63,0,0,0-6.9,0l-42.8,24.7a7.45,7.45,0,0,0-3.4,5.9v47.1a7.45,7.45,0,0,0,3.4,5.9l2.8,1.6a7.63,7.63,0,0,0,6.9,0l13.8-8,4.9,8.5a.71.71,0,0,0,1,.3c.1-.1.3-.2.3-.4l5.2-14.9L316,96.92a7.45,7.45,0,0,0,3.4-5.9Z"/><path class="a01e2004-a05b-47a7-aced-5b2e2a399cf6" d="M260.1,114a7.45,7.45,0,0,0,3.4,5.9l2.8,1.6a7.69,7.69,0,0,0,6.3.3c-1.6.6-2.8-.3-2.8-2.3v-47a6.74,6.74,0,0,1,1-3.4l-9.7-5.5a6.74,6.74,0,0,0-1,3.4Z"/><path class="2ebb45b8-3999-4c16-892f-13004a29d652" d="M319.3,42.92c-.4-1.5-1.7-1.9-3.3-1l-42.8,24.7a6.71,6.71,0,0,0-2.4,2.6l-9.7-5.6a8.48,8.48,0,0,1,2.4-2.6l42.8-24.7a7.63,7.63,0,0,1,6.9,0l2.8,1.6A8.13,8.13,0,0,1,319.3,42.92Z"/><polygon class="175f035e-be4a-4d01-b541-3b7c8bfce040" points="309.6 75.22 294.6 62.22 279.6 92.52 287.4 88.02 287.4 103.92 301.9 95.52 301.9 79.72 309.6 75.22"/></g><g id="8beb31cf-a7cf-42d6-ab5c-3bb8b6b0c4fc" data-name="freepik--Cloud--inject-26"><path class="89c35a86-9c78-4f8a-a376-d2c80ed2b50b" d="M117.7,143.22a.22.22,0,0,0-.2-.2,1.1,1.1,0,0,0-.8,0,.22.22,0,0,0-.2.2h0v6.7h0a.22.22,0,0,0,.2.2,1.1,1.1,0,0,0,.8,0,.22.22,0,0,0,.2-.2h0Z"/><path class="89c35a86-9c78-4f8a-a376-d2c80ed2b50b" d="M117.7,152a.22.22,0,0,0-.2-.2,1.1,1.1,0,0,0-.8,0,.22.22,0,0,0-.2.2h0v3.2h0a.22.22,0,0,0,.2.2,1.1,1.1,0,0,0,.8,0,.22.22,0,0,0,.2-.2h0Z"/><path class="89c35a86-9c78-4f8a-a376-d2c80ed2b50b" d="M117.7,157.32a.22.22,0,0,0-.2-.2,1.1,1.1,0,0,0-.8,0,.22.22,0,0,0-.2.2h0v3.2h0a.22.22,0,0,0,.2.2,1.1,1.1,0,0,0,.8,0c.1,0,.1-.1.2-.2h0Z"/><path class="89c35a86-9c78-4f8a-a376-d2c80ed2b50b" d="M117.7,162.62a.22.22,0,0,0-.2-.2,1.1,1.1,0,0,0-.8,0,.22.22,0,0,0-.2.2h0v3.2h0a.22.22,0,0,0,.2.2,1.1,1.1,0,0,0,.8,0,.22.22,0,0,0,.2-.2h0Z"/><path class="89c35a86-9c78-4f8a-a376-d2c80ed2b50b" d="M117.7,167.92a.22.22,0,0,0-.2-.2,1.1,1.1,0,0,0-.8,0,.22.22,0,0,0-.2.2h0v3.2h0a.22.22,0,0,0,.2.2,1.1,1.1,0,0,0,.8,0,.22.22,0,0,0,.2-.2h0Z"/><path class="89c35a86-9c78-4f8a-a376-d2c80ed2b50b" d="M117.7,173.22a.22.22,0,0,0-.2-.2,1.1,1.1,0,0,0-.8,0,.22.22,0,0,0-.2.2h0v3.2h0a.22.22,0,0,0,.2.2,1.1,1.1,0,0,0,.8,0,.22.22,0,0,0,.2-.2h0Z"/><path class="89c35a86-9c78-4f8a-a376-d2c80ed2b50b" d="M117.7,178.52a.22.22,0,0,0-.2-.2,1.1,1.1,0,0,0-.8,0,.22.22,0,0,0-.2.2h0v3.2h0a.22.22,0,0,0,.2.2,1.1,1.1,0,0,0,.8,0c.1,0,.1-.1.2-.2h0Z"/><path class="89c35a86-9c78-4f8a-a376-d2c80ed2b50b" d="M117.7,183.82a.22.22,0,0,0-.2-.2,1.1,1.1,0,0,0-.8,0,.22.22,0,0,0-.2.2h0V187h0a.22.22,0,0,0,.2.2,1.1,1.1,0,0,0,.8,0,.22.22,0,0,0,.2-.2h0Z"/><path class="89c35a86-9c78-4f8a-a376-d2c80ed2b50b" d="M117.7,189.12a.22.22,0,0,0-.2-.2,1.1,1.1,0,0,0-.8,0,.22.22,0,0,0-.2.2h0v3.2h0a.22.22,0,0,0,.2.2,1.1,1.1,0,0,0,.8,0,.22.22,0,0,0,.2-.2h0Z"/><path class="89c35a86-9c78-4f8a-a376-d2c80ed2b50b" d="M117.7,194.42a.22.22,0,0,0-.2-.2,1.1,1.1,0,0,0-.8,0,.22.22,0,0,0-.2.2h0v3.2h0a.22.22,0,0,0,.2.2,1.1,1.1,0,0,0,.8,0,.22.22,0,0,0,.2-.2h0Z"/><path class="89c35a86-9c78-4f8a-a376-d2c80ed2b50b" d="M117.7,199.72a.22.22,0,0,0-.2-.2,1.1,1.1,0,0,0-.8,0,.22.22,0,0,0-.2.2h0v3.2h0a.22.22,0,0,0,.2.2,1.1,1.1,0,0,0,.8,0c.1,0,.1-.1.2-.2h0Z"/><path class="89c35a86-9c78-4f8a-a376-d2c80ed2b50b" d="M117.7,205a.22.22,0,0,0-.2-.2,1.1,1.1,0,0,0-.8,0,.22.22,0,0,0-.2.2h0v3.2h0a.22.22,0,0,0,.2.2,1.1,1.1,0,0,0,.8,0,.22.22,0,0,0,.2-.2h0Z"/><path class="89c35a86-9c78-4f8a-a376-d2c80ed2b50b" d="M117.7,210.32a.22.22,0,0,0-.2-.2,1.1,1.1,0,0,0-.8,0,.22.22,0,0,0-.2.2h0v3.2h0a.22.22,0,0,0,.2.2,1.1,1.1,0,0,0,.8,0,.22.22,0,0,0,.2-.2h0Z"/><path class="ec718790-2149-4552-bdb3-b1e874461657" d="M120.7,136a1.87,1.87,0,0,0-1-1.4,5.51,5.51,0,0,0-5,0,1.81,1.81,0,0,0-1,1.4h0v9.4h0a1.75,1.75,0,0,0,1,1.5,5.51,5.51,0,0,0,5,0,1.92,1.92,0,0,0,1.1-1.5h0l-.1-9.4Z"/><path class="578df1bb-ff4b-4f6d-b23a-4c4448f4f8bd" d="M122.9,126.62a2.73,2.73,0,0,0-1.7-2.3,8.9,8.9,0,0,0-8.1,0,2.91,2.91,0,0,0-1.7,2.3h0v9.2h0a2.72,2.72,0,0,0,1.7,2.5,8.9,8.9,0,0,0,8.1,0,2.72,2.72,0,0,0,1.7-2.5h0v-9.2Z"/><path class="89c35a86-9c78-4f8a-a376-d2c80ed2b50b" d="M138.1,131.42a.22.22,0,0,0-.2-.2,1.1,1.1,0,0,0-.8,0c-.1,0-.1.1-.2.2h0v6.7h0a.22.22,0,0,0,.2.2,1.1,1.1,0,0,0,.8,0,.22.22,0,0,0,.2-.2h0Z"/><path class="89c35a86-9c78-4f8a-a376-d2c80ed2b50b" d="M138.1,140.22a.22.22,0,0,0-.2-.2,1.1,1.1,0,0,0-.8,0,.22.22,0,0,0-.2.2h0v3.2h0a.22.22,0,0,0,.2.2,1.1,1.1,0,0,0,.8,0,.22.22,0,0,0,.2-.2h0Z"/><path class="89c35a86-9c78-4f8a-a376-d2c80ed2b50b" d="M138.1,145.52a.22.22,0,0,0-.2-.2,1.1,1.1,0,0,0-.8,0,.22.22,0,0,0-.2.2h0v3.2h0a.22.22,0,0,0,.2.2,1.1,1.1,0,0,0,.8,0,.22.22,0,0,0,.2-.2h0Z"/><path class="89c35a86-9c78-4f8a-a376-d2c80ed2b50b" d="M138.1,150.82a.22.22,0,0,0-.2-.2,1.1,1.1,0,0,0-.8,0c-.1,0-.1.1-.2.2h0V154h0a.22.22,0,0,0,.2.2,1.1,1.1,0,0,0,.8,0,.22.22,0,0,0,.2-.2h0Z"/><path class="89c35a86-9c78-4f8a-a376-d2c80ed2b50b" d="M138.1,156.12a.22.22,0,0,0-.2-.2,1.1,1.1,0,0,0-.8,0,.22.22,0,0,0-.2.2h0v3.2h0a.22.22,0,0,0,.2.2,1.1,1.1,0,0,0,.8,0,.22.22,0,0,0,.2-.2h0Z"/><path class="89c35a86-9c78-4f8a-a376-d2c80ed2b50b" d="M138.1,161.42a.22.22,0,0,0-.2-.2,1.1,1.1,0,0,0-.8,0,.22.22,0,0,0-.2.2h0v3.2h0a.22.22,0,0,0,.2.2,1.1,1.1,0,0,0,.8,0,.22.22,0,0,0,.2-.2h0Z"/><path class="89c35a86-9c78-4f8a-a376-d2c80ed2b50b" d="M138.1,166.72a.22.22,0,0,0-.2-.2,1.1,1.1,0,0,0-.8,0,.22.22,0,0,0-.2.2h0v3.2h0a.22.22,0,0,0,.2.2,1.1,1.1,0,0,0,.8,0,.22.22,0,0,0,.2-.2h0Z"/><path class="89c35a86-9c78-4f8a-a376-d2c80ed2b50b" d="M138.1,172a.22.22,0,0,0-.2-.2,1.1,1.1,0,0,0-.8,0c-.1,0-.1.1-.2.2h0v3.2h0a.22.22,0,0,0,.2.2,1.1,1.1,0,0,0,.8,0,.22.22,0,0,0,.2-.2h0Z"/><path class="89c35a86-9c78-4f8a-a376-d2c80ed2b50b" d="M138.1,177.32a.22.22,0,0,0-.2-.2,1.1,1.1,0,0,0-.8,0,.22.22,0,0,0-.2.2h0v3.2h0a.22.22,0,0,0,.2.2,1.1,1.1,0,0,0,.8,0,.22.22,0,0,0,.2-.2h0Z"/><path class="89c35a86-9c78-4f8a-a376-d2c80ed2b50b" d="M138.1,182.62a.22.22,0,0,0-.2-.2,1.1,1.1,0,0,0-.8,0,.22.22,0,0,0-.2.2h0v3.2h0a.22.22,0,0,0,.2.2,1.1,1.1,0,0,0,.8,0,.22.22,0,0,0,.2-.2h0Z"/><path class="89c35a86-9c78-4f8a-a376-d2c80ed2b50b" d="M138.1,187.92a.22.22,0,0,0-.2-.2,1.1,1.1,0,0,0-.8,0,.22.22,0,0,0-.2.2h0v3.2h0a.22.22,0,0,0,.2.2,1.1,1.1,0,0,0,.8,0,.22.22,0,0,0,.2-.2h0Z"/><path class="89c35a86-9c78-4f8a-a376-d2c80ed2b50b" d="M138.1,193.22a.22.22,0,0,0-.2-.2,1.1,1.1,0,0,0-.8,0c-.1,0-.1.1-.2.2h0v3.2h0a.22.22,0,0,0,.2.2,1.1,1.1,0,0,0,.8,0,.22.22,0,0,0,.2-.2h0Z"/><path class="89c35a86-9c78-4f8a-a376-d2c80ed2b50b" d="M138.1,198.52a.22.22,0,0,0-.2-.2,1.1,1.1,0,0,0-.8,0,.22.22,0,0,0-.2.2h0v3.2h0a.22.22,0,0,0,.2.2,1.1,1.1,0,0,0,.8,0,.22.22,0,0,0,.2-.2h0Z"/><path class="ec718790-2149-4552-bdb3-b1e874461657" d="M141.1,124.22a1.66,1.66,0,0,0-1-1.4,5.51,5.51,0,0,0-5,0,1.93,1.93,0,0,0-1.1,1.4h0v9.4h0a1.77,1.77,0,0,0,1.1,1.4,5.51,5.51,0,0,0,5,0,1.81,1.81,0,0,0,1-1.4h0Z"/><path class="578df1bb-ff4b-4f6d-b23a-4c4448f4f8bd" d="M143.2,114.82a2.73,2.73,0,0,0-1.7-2.3,8.9,8.9,0,0,0-8.1,0,2.91,2.91,0,0,0-1.7,2.3h0V124h0a2.64,2.64,0,0,0,1.6,2.5,8.9,8.9,0,0,0,8.1,0A2.5,2.5,0,0,0,143,124h0l.2-9.2Z"/><path class="89c35a86-9c78-4f8a-a376-d2c80ed2b50b" d="M97.4,154.82a.22.22,0,0,0-.2-.2,1.1,1.1,0,0,0-.8,0,.22.22,0,0,0-.2.2h0v6.7h0a.22.22,0,0,0,.2.2,1.1,1.1,0,0,0,.8,0,.22.22,0,0,0,.2-.2h0Z"/><path class="89c35a86-9c78-4f8a-a376-d2c80ed2b50b" d="M96.3,166.82h0a.22.22,0,0,0,.2.2,1.1,1.1,0,0,0,.8,0,.22.22,0,0,0,.2-.2h0v-3.2h0a.22.22,0,0,0-.2-.2,1.1,1.1,0,0,0-.8,0,.22.22,0,0,0-.2.2h0"/><path class="89c35a86-9c78-4f8a-a376-d2c80ed2b50b" d="M97.4,168.92a.22.22,0,0,0-.2-.2,1.1,1.1,0,0,0-.8,0,.22.22,0,0,0-.2.2h0v3.2h0a.22.22,0,0,0,.2.2,1.1,1.1,0,0,0,.8,0,.22.22,0,0,0,.2-.2h0Z"/><path class="89c35a86-9c78-4f8a-a376-d2c80ed2b50b" d="M97.4,174.22h0a.22.22,0,0,0-.2-.2,1.1,1.1,0,0,0-.8,0,.22.22,0,0,0-.2.2h0v3.2h0a.22.22,0,0,0,.2.2,1.1,1.1,0,0,0,.8,0,.22.22,0,0,0,.2-.2h0"/><path class="89c35a86-9c78-4f8a-a376-d2c80ed2b50b" d="M97.4,179.52a.22.22,0,0,0-.2-.2,1.1,1.1,0,0,0-.8,0c-.1,0-.1.1-.2.2h0v3.2h0a.22.22,0,0,0,.2.2,1.1,1.1,0,0,0,.8,0,.22.22,0,0,0,.2-.2h0Z"/><path class="89c35a86-9c78-4f8a-a376-d2c80ed2b50b" d="M97.4,184.82h0a.22.22,0,0,0-.2-.2,1.1,1.1,0,0,0-.8,0,.22.22,0,0,0-.2.2h0V188h0a.22.22,0,0,0,.2.2,1.1,1.1,0,0,0,.8,0,.22.22,0,0,0,.2-.2h0"/><path class="89c35a86-9c78-4f8a-a376-d2c80ed2b50b" d="M97.4,190.12a.22.22,0,0,0-.2-.2,1.1,1.1,0,0,0-.8,0,.22.22,0,0,0-.2.2h0v3.2h0a.22.22,0,0,0,.2.2,1.1,1.1,0,0,0,.8,0,.22.22,0,0,0,.2-.2h0Z"/><path class="89c35a86-9c78-4f8a-a376-d2c80ed2b50b" d="M97.4,195.42h0a.22.22,0,0,0-.2-.2,1.1,1.1,0,0,0-.8,0,.22.22,0,0,0-.2.2h0v3.2h0a.22.22,0,0,0,.2.2,1.1,1.1,0,0,0,.8,0,.22.22,0,0,0,.2-.2h0"/><path class="89c35a86-9c78-4f8a-a376-d2c80ed2b50b" d="M97.4,200.72a.22.22,0,0,0-.2-.2,1.1,1.1,0,0,0-.8,0c-.1,0-.1.1-.2.2h0v3.2h0a.22.22,0,0,0,.2.2,1.1,1.1,0,0,0,.8,0,.22.22,0,0,0,.2-.2h0Z"/><path class="89c35a86-9c78-4f8a-a376-d2c80ed2b50b" d="M97.4,206h0a.22.22,0,0,0-.2-.2,1.1,1.1,0,0,0-.8,0,.22.22,0,0,0-.2.2h0v3.2h0a.22.22,0,0,0,.2.2,1.1,1.1,0,0,0,.8,0,.22.22,0,0,0,.2-.2h0"/><path class="89c35a86-9c78-4f8a-a376-d2c80ed2b50b" d="M97.4,211.22a.22.22,0,0,0-.2-.2,1.1,1.1,0,0,0-.8,0,.22.22,0,0,0-.2.2h0v3.2h0a.22.22,0,0,0,.2.2,1.1,1.1,0,0,0,.8,0,.22.22,0,0,0,.2-.2h0v-3.2Z"/><path class="89c35a86-9c78-4f8a-a376-d2c80ed2b50b" d="M97.4,216.62h0a.22.22,0,0,0-.2-.2,1.1,1.1,0,0,0-.8,0,.22.22,0,0,0-.2.2h0v3.2h0a.22.22,0,0,0,.2.2,1.1,1.1,0,0,0,.8,0,.22.22,0,0,0,.2-.2h0"/><path class="89c35a86-9c78-4f8a-a376-d2c80ed2b50b" d="M97.4,221.82a.22.22,0,0,0-.2-.2,1.1,1.1,0,0,0-.8,0c-.1,0-.1.1-.2.2h0V225h0a.22.22,0,0,0,.2.2,1.1,1.1,0,0,0,.8,0,.22.22,0,0,0,.2-.2h0Z"/><path class="ec718790-2149-4552-bdb3-b1e874461657" d="M100.4,147.62a2,2,0,0,0-1-1.5,5.51,5.51,0,0,0-5,0,1.64,1.64,0,0,0-1,1.5h0V157h0a1.66,1.66,0,0,0,1,1.4,5.51,5.51,0,0,0,5,0,1.81,1.81,0,0,0,1-1.4h0Z"/><path class="578df1bb-ff4b-4f6d-b23a-4c4448f4f8bd" d="M102.6,138.22a3,3,0,0,0-1.7-2.4,8.9,8.9,0,0,0-8.1,0,2.92,2.92,0,0,0-1.7,2.4h0v9.2h0a2.72,2.72,0,0,0,1.7,2.5,8.9,8.9,0,0,0,8.1,0,2.89,2.89,0,0,0,1.7-2.5h0v-9.2Z"/><g id="9fee83a6-7865-4342-a77c-5f56ba18b648" data-name="freepik--cloud--inject-26"><path class="a71ef263-c65c-4ff5-b0e9-9b48c8c9699a" d="M195.5,50.92h0l-.5-.3-.3-.2-10-5.8v-.7c0-12.4-4.2-21-10.7-24.7h0L154.7,8h0c-5.3-3.1-12.3-2.8-19.9,1.6a46.56,46.56,0,0,0-9.6,7.6,19.12,19.12,0,0,0-4.2-3.3h0L102.3,3.22h0c-6.8-4.5-16-4.5-26.1,1.4-21.1,12.2-38.3,45.1-38.3,73.3a59.49,59.49,0,0,0,.7,9.4L36,88.82c-13.5,7.8-24.4,28.7-24.4,46.6h0c0,9.9,3.3,17,8.6,20h0l19.6,11.3h0c4.3,2.4,9.8,2.2,15.8-1.2L91.1,145l94.6-54.6c8.1-4.7,14.6-17.2,14.6-28h0C200.2,56.82,198.4,52.82,195.5,50.92Z"/><path class="451ca06d-1e8c-4789-aa1c-5137d8e55d7e" d="M195.5,50.92h0l-.5-.3-.3-.2-10-5.8v-.7c0-12.4-4.2-21-10.7-24.7h0L154.7,8h0c-5.3-3.1-12.3-2.8-19.9,1.6a46.56,46.56,0,0,0-9.6,7.6,19.12,19.12,0,0,0-4.2-3.3h0L102.3,3.22h0c-6.8-4.5-16-4.5-26.1,1.4-21.1,12.2-38.3,45.1-38.3,73.3a59.49,59.49,0,0,0,.7,9.4L36,88.82c-13.5,7.8-24.4,28.7-24.4,46.6h0c0,9.9,3.3,17,8.6,20h0l19.6,11.3h0c4.3,2.4,9.8,2.2,15.8-1.2L91.1,145l94.6-54.6c8.1-4.7,14.6-17.2,14.6-28h0C200.2,56.82,198.4,52.82,195.5,50.92Z"/><path class="ee7703b5-60fb-4326-876e-65c38acf8fb9" d="M174,19.32h0c-5.3-3-12.2-2.6-19.6,1.7a43.35,43.35,0,0,0-10,8.1l-17.8-10.3-1.7-1,.4-.4a47.27,47.27,0,0,1,9.6-7.6c7.6-4.4,14.5-4.7,19.9-1.6h0Z"/><path class="bc4b8a42-1d69-464b-834e-84357f539995" d="M125.2,17.32a9.34,9.34,0,0,1,1.3,1.5l-1.7-1Z"/><path class="ee7703b5-60fb-4326-876e-65c38acf8fb9" d="M120.6,13.72h0c-6.7-3.7-15.3-3.3-24.8,2.2s-18.4,15.3-25.1,27L51.1,31.62c6.7-11.7,15.5-21.5,25.1-27,10.1-5.8,19.3-5.9,26.1-1.4h0Z"/><path class="ee7703b5-60fb-4326-876e-65c38acf8fb9" d="M58.1,98.52,55.4,100c-9.1,5.3-17.1,16.6-21.3,28.9l-19.5-11.3c3.3-9.8,9.1-19,15.9-25l8-5.4Z"/><path class="a71ef263-c65c-4ff5-b0e9-9b48c8c9699a" d="M185.5,51.42l-1.4.8a56.91,56.91,0,0,0,.6-8.3c0-22.4-13.6-32.6-30.4-23-7.8,4.5-14.9,12.5-20.2,22-.8-26.9-17.6-39.1-38.3-27.1-21.2,12.2-38.4,45-38.4,73.3a59.49,59.49,0,0,0,.7,9.4L55.5,100c-13.5,7.9-24.4,28.7-24.4,46.7h0c0,18,10.9,26.6,24.4,18.8L91,145h0l94.6-54.6c8.1-4.7,14.6-17.2,14.6-28h0C200.2,51.72,193.6,46.72,185.5,51.42Z"/><path class="f3b07ec7-4150-4850-950c-e4523785491b" d="M185.5,51.42l-1.4.8a56.91,56.91,0,0,0,.6-8.3c0-22.4-13.6-32.6-30.4-23-7.8,4.5-14.9,12.5-20.2,22-.8-26.9-17.6-39.1-38.3-27.1-21.2,12.2-38.4,45-38.4,73.3a59.49,59.49,0,0,0,.7,9.4L55.5,100c-13.5,7.9-24.4,28.7-24.4,46.7h0c0,18,10.9,26.6,24.4,18.8L91,145h0l94.6-54.6c8.1-4.7,14.6-17.2,14.6-28h0C200.2,51.72,193.6,46.72,185.5,51.42Z"/><path class="f3b07ec7-4150-4850-950c-e4523785491b" d="M46,163.42c-6,0-9.9-6.6-9.9-16.7,0-16.1,10-35.4,21.9-42.3l2.6-1.5a5.06,5.06,0,0,0,2.5-5.1h0a61.08,61.08,0,0,1-.7-8.6c0-26.6,16.1-57.6,35.9-69,4.5-2.6,8.8-3.9,12.7-3.9,10.7,0,17.6,10.3,18.1,26.9h0a5.08,5.08,0,0,0,5.1,4.9,4.88,4.88,0,0,0,4.2-2.5h0c5.1-9.1,11.7-16.3,18.4-20.1a19.36,19.36,0,0,1,9.6-3c8.1,0,13.3,8.5,13.3,21.6a64.65,64.65,0,0,1-.5,7.6h0a5,5,0,0,0,4.3,5.6,5.92,5.92,0,0,0,3.2-.6l1.4-.8a7.6,7.6,0,0,1,3.3-1.1c2.6,0,3.8,3.9,3.8,7.8,0,9-5.6,19.8-12.1,23.7l-130,74.8a14.43,14.43,0,0,1-7,2.2Z"/></g></g></g></g></svg>