<svg xmlns="http://www.w3.org/2000/svg" viewBox="0 0 292.4 241.12"><defs><style>.\32 e1aff9d-32e8-45b2-8109-fbba48312612{fill:#f5f5f5;}.\37 71a6680-85fa-430e-943a-312fc2bfbd77{fill:#06826a;}.\30 24cebc7-513c-4958-820f-f8d5ff44f3d8,.c52a2faa-a91e-40c1-8a54-815f17aa3f2c{opacity:0.1;}.c7f2a098-d9a2-413f-bd91-a204720a0d8a,.cecfbd6b-01f5-41b8-9b28-efdec8cca9d8{fill:#fff;}.\37 cea57be-0cb7-4634-8d5b-08da7c0b3c91{fill:#ff3600;}.b171652a-d27f-4dc7-8fc1-a3bc4df203cd{fill:#37474f;}.e58a3cc3-4ca0-4dc4-9488-5a326248f550{fill:#263238;}.\37 145aa18-ee8d-4167-a3b5-c563aad68dff{fill:#455a64;}.\35 f98c68c-75d3-4657-a2da-e26eaa95b2d0{fill:#fafafa;}.bead857d-bdc2-4dec-899c-4728b581b590{fill:#d3d3d3;}.\30 905b05a-928b-498c-8413-8965288be910{opacity:0.5;}.\33 a63cdb1-73f2-4012-b029-1308562cf729{fill:#afafaf;}.c7f2a098-d9a2-413f-bd91-a204720a0d8a{opacity:0.4;}.\30 24cebc7-513c-4958-820f-f8d5ff44f3d8,.\35 c0b4905-0f9e-4bac-ad10-4703dc5c26e2,.c7f2a098-d9a2-413f-bd91-a204720a0d8a{isolation:isolate;}.\35 c0b4905-0f9e-4bac-ad10-4703dc5c26e2{opacity:0.2;}.\37 570735f-556e-477c-8fcf-7741a90b0ff4{fill:#e0e0e0;}</style></defs><title>Asset 1</title><g id="a2b0b5a2-55ee-480f-8108-2d740a395889" data-name="Layer 2"><g id="61409603-da3c-49ef-adba-63ddc332b51e" data-name="Layer 1"><g id="738277ab-042d-4a8b-a23f-5b1e3be56c3e" data-name="freepik--Floor--inject-26"><ellipse id="ee7f85e5-22dc-42dc-92b0-81c5f45787f3" data-name="freepik--floor--inject-26" class="2e1aff9d-32e8-45b2-8109-fbba48312612" cx="146.2" cy="161.82" rx="146.2" ry="79.3"/></g><g id="afffb69d-153d-4fbd-9e3f-a9d9682ccde4" data-name="freepik--Plants--inject-26"><g id="5c9ff1db-a2d4-4a53-b439-c732de679f1b" data-name="freepik--plants--inject-26"><path class="771a6680-85fa-430e-943a-312fc2bfbd77" d="M210.2,125.52c.1-7.7-1.3-21.8,5.3-35,4.8-9.6,13.3-18.8,21.1-17.8,7.3.9,7.8,12.1.8,19.7s-13.6,20.7-15.6,37.7l-7.5,10Z"/><g class="c52a2faa-a91e-40c1-8a54-815f17aa3f2c"><path d="M210.2,125.52c.1-7.7-1.3-21.8,5.3-35,4.8-9.6,13.3-18.8,21.1-17.8,7.3.9,7.8,12.1.8,19.7s-13.6,20.7-15.6,37.7l-7.5,10Z"/></g><path class="cecfbd6b-01f5-41b8-9b28-efdec8cca9d8" d="M216.3,131.52a.55.55,0,0,0,.4-.6c-2-21.7,4.2-40.2,17.8-53.3a.57.57,0,0,0-.8-.8h0c-13.9,13.4-20.2,32.1-18.1,54.2.1.3.3.6.7.5Z"/><path class="7cea57be-0cb7-4634-8d5b-08da7c0b3c91" d="M221.5,136.72a26.69,26.69,0,0,0,13.6,3.4c8.2,0,11.1-4.4,11.1-4.4s-4.3-7-9.2-8.4a44.47,44.47,0,0,1,14.8,3.5s4.9-.7,5.7-8.5c0,0-3.6-4-13.7-4.9,0,0,5.7-2.4,14.5-1.6.7.1,1.9-9.9,2-14.5s-1.7-4.3-5.3-4.6-15.5.9-17.4,3.2-1.9,9-1.9,9-2.7-3.4-2.7-6.7a10.66,10.66,0,0,0-6.9,2.1c-2.2,1.6-3.4,3-3.6,5.9a51.14,51.14,0,0,0,.8,9.6,18.72,18.72,0,0,1-2-11.6s-6.6,4.5-6.9,9S213.3,130.32,221.5,136.72Z"/><path class="cecfbd6b-01f5-41b8-9b28-efdec8cca9d8" d="M221.6,137.22a.78.78,0,0,0,.4-.4c4.3-14.4,25.8-33.8,34.1-36.9a.52.52,0,0,0,.3-.7h0a.45.45,0,0,0-.6-.3h0c-8.5,3.1-30.4,22.9-34.8,37.5a.57.57,0,0,0,.4.7C221.4,137.22,221.5,137.22,221.6,137.22Z"/></g></g><g id="61831ed4-002f-485a-b101-20fc71e48063" data-name="freepik--Device--inject-26"><g id="cb752e04-9f4e-40d7-aae1-cd6ef3cabcb3" data-name="freepik--Laptop--inject-26"><g id="a465611b-aea5-41d7-b9b5-67d9765e1f44" data-name="freepik--laptop--inject-26"><path class="b171652a-d27f-4dc7-8fc1-a3bc4df203cd" d="M55.3,157.32a5.37,5.37,0,0,0,2.6,4.3l72.4,41.8a5.93,5.93,0,0,0,5.2,0l99.1-57.2a4.88,4.88,0,0,0,0-8.6l-72.5-41.8a5.93,5.93,0,0,0-5.2,0l-99.1,57.3A5.5,5.5,0,0,0,55.3,157.32Z"/><path class="e58a3cc3-4ca0-4dc4-9488-5a326248f550" d="M132.9,198.52v5.6a5.83,5.83,0,0,1-2.6-.6l-72.4-41.8a4.83,4.83,0,0,1-2-6.6,4.69,4.69,0,0,1,1.8-1.9c-1.2.8-1.1,2,.3,2.8l72.4,41.8A4.3,4.3,0,0,0,132.9,198.52Z"/><path class="7145aa18-ee8d-4167-a3b5-c563aad68dff" d="M52.9,153.22a5.24,5.24,0,0,1-2.4-4.4V62.42a5.89,5.89,0,0,1,2.6-4.5L152.2.72a4.93,4.93,0,0,1,6.7,1.5,4.52,4.52,0,0,1,.7,2.8v86.4a5.89,5.89,0,0,1-2.6,4.5l-99.1,57.2A5.84,5.84,0,0,1,52.9,153.22Z"/><path class="e58a3cc3-4ca0-4dc4-9488-5a326248f550" d="M57.6,153.22a4.77,4.77,0,0,1-6.5-1.9,5.42,5.42,0,0,1-.6-2.5V62.42a4.38,4.38,0,0,1,.8-2.5l4.8,2.8h0a5.66,5.66,0,0,0-.8,2.5v86.5A1.5,1.5,0,0,0,57.6,153.22Z"/><path class="b171652a-d27f-4dc7-8fc1-a3bc4df203cd" d="M55.3,65.12v86.4c0,1.6,1.1,2.3,2.6,1.5L157,95.82a5.89,5.89,0,0,0,2.6-4.5V4.92a1.6,1.6,0,0,0-2.6-1.5L57.9,60.72A5.55,5.55,0,0,0,55.3,65.12Z"/><path class="7145aa18-ee8d-4167-a3b5-c563aad68dff" d="M57.9,156l72.4,41.8a5.93,5.93,0,0,0,5.2,0l99.1-57.2a1.6,1.6,0,0,0,0-3l-72.5-41.8a5.93,5.93,0,0,0-5.2,0l-99.1,57.3C56.5,153.92,56.5,155.22,57.9,156Z"/><path class="5f98c68c-75d3-4657-a2da-e26eaa95b2d0" d="M59.3,65.42l95.5-55.1c.9-.5,1.5-.1,1.5.9V86a3.55,3.55,0,0,1-1.5,2.7l-95.6,55.1c-.9.5-1.5.1-1.5-.9V68A3.65,3.65,0,0,1,59.3,65.42Z"/><path class="771a6680-85fa-430e-943a-312fc2bfbd77" d="M66.3,153.82l92-53.1a3,3,0,0,1,2.6,0l4.7,2.7a.83.83,0,0,1,.5,1,1.21,1.21,0,0,1-.5.5L73.6,158a3,3,0,0,1-2.6,0l-4.7-2.7a.83.83,0,0,1-.6-1A1,1,0,0,1,66.3,153.82Z"/><path class="e58a3cc3-4ca0-4dc4-9488-5a326248f550" d="M66.3,153.82l92-53.1a3,3,0,0,1,2.6,0l4.7,2.7a.83.83,0,0,1,.5,1,1.21,1.21,0,0,1-.5.5L73.6,158a3,3,0,0,1-2.6,0l-4.7-2.7a.83.83,0,0,1-.6-1A1,1,0,0,1,66.3,153.82Z"/><path class="e58a3cc3-4ca0-4dc4-9488-5a326248f550" d="M78.4,160.82l92-53.1a3,3,0,0,1,2.6,0l28.9,16.7a.83.83,0,0,1,.5,1,1.21,1.21,0,0,1-.5.5L110,179a3,3,0,0,1-2.6,0l-29-16.6a.72.72,0,0,1-.5-1A1,1,0,0,1,78.4,160.82Z"/><path class="771a6680-85fa-430e-943a-312fc2bfbd77" d="M160.9,131.62l2.9-1.7a.19.19,0,0,0,0-.3l-3.3-1.9a.45.45,0,0,0-.5,0l-2.8,1.6a.19.19,0,0,0,0,.3l3.3,1.9C160.6,131.62,160.7,131.62,160.9,131.62Zm-5.7-6.6-2.9,1.7a.19.19,0,0,0,0,.3l3.3,1.9a.45.45,0,0,0,.5,0l2.9-1.7a.19.19,0,0,0,0-.3l-3.3-1.9A.45.45,0,0,0,155.2,125Zm-9.3,5.3-4.9,2.8a.19.19,0,0,0,0,.3l3.3,1.9a.45.45,0,0,0,.5,0l4.9-2.8a.19.19,0,0,0,0-.3l-3.3-1.9Zm5.1-2.9-2.9,1.7a.19.19,0,0,0,0,.3l3.3,1.9a.45.45,0,0,0,.5,0l2.9-1.7a.19.19,0,0,0,0-.3l-3.3-1.9a.45.45,0,0,0-.5,0Zm-11.3,6.5-2.9,1.7a.19.19,0,0,0,0,.3l3.3,1.9a.45.45,0,0,0,.5,0l2.9-1.7a.19.19,0,0,0,0-.3l-3.4-1.9Zm-4.2,2.4-2.9,1.7a.19.19,0,0,0,0,.3l3.3,1.9a.45.45,0,0,0,.5,0l2.9-1.7a.19.19,0,0,0,0-.3l-3.3-1.9Zm13.1,7.9,2.9-1.7a.19.19,0,0,0,0-.3l-3.3-1.9a.45.45,0,0,0-.5,0l-2.9,1.7a.19.19,0,0,0,0,.3l3.3,1.9a.45.45,0,0,0,.5,0Zm-4.2,2.4,2.9-1.7a.19.19,0,0,0,0-.3l-3.3-1.9a.45.45,0,0,0-.5,0l-2.9,1.7a.19.19,0,0,0,0,.3l3.3,1.9a.45.45,0,0,0,.5,0Zm-4.3,2.5,2.9-1.7a.19.19,0,0,0,0-.3l-3.3-1.9a.45.45,0,0,0-.5,0l-2.9,1.7a.19.19,0,0,0,0,.3l3.3,1.9Zm-4.2,2.4,2.9-1.7a.19.19,0,0,0,0-.3l-3.3-1.9a.45.45,0,0,0-.5,0l-2.9,1.7a.19.19,0,0,0,0,.3l3.3,1.9a.45.45,0,0,0,.5,0ZM156.6,134l2.9-1.7a.19.19,0,0,0,0-.3l-3.3-1.9a.45.45,0,0,0-.5,0l-2.9,1.7a.19.19,0,0,0,0,.3l3.3,1.9a.45.45,0,0,0,.5,0Zm-3.8,7.8,6.4-3.7a.19.19,0,0,0,0-.3l-8.1-4.7a.45.45,0,0,0-.5,0l-3.3,1.9a.19.19,0,0,0,0,.3l4.3,2.5a.19.19,0,0,1,0,.3l-2.7,1.5a.19.19,0,0,0,0,.3l3.3,1.9Zm-21.6-3-2.9,1.7a.19.19,0,0,0,0,.3l3.3,1.9a.45.45,0,0,0,.5,0L135,141a.19.19,0,0,0,0-.3l-3.3-1.9a.45.45,0,0,0-.5,0Zm-4.2,2.4-2.9,1.7a.19.19,0,0,0,0,.3l3.3,1.9a.45.45,0,0,0,.5,0l2.9-1.7a.19.19,0,0,0,0-.3l-3.3-1.9c-.1-.1-.3,0-.5,0Zm-21,27.2a.45.45,0,0,0,.5,0l2.9-1.7a.19.19,0,0,0,0-.3l-3.3-1.9a.45.45,0,0,0-.5,0l-2.9,1.8a.19.19,0,0,0,0,.3Zm-12.6-7.8-2.9,1.7a.19.19,0,0,0,0,.3l3.3,1.9a.45.45,0,0,0,.5,0l2.9-1.7a.19.19,0,0,0,0-.3l-3.4-1.8a.6.6,0,0,0-.4-.1Zm6.7,5.7a.45.45,0,0,0,.5,0l2.9-1.7a.19.19,0,0,0,0-.3l-3.3-1.9a.45.45,0,0,0-.5,0l-2.9,1.7a.19.19,0,0,0,0,.3Zm13.3,3.6,2.9-1.7a.19.19,0,0,0,0-.3L113,166a.45.45,0,0,0-.5,0l-2.9,1.7a.19.19,0,0,0,0,.3l3.3,1.9a.45.45,0,0,0,.5,0Zm-4.6,2.4a.45.45,0,0,0,.5,0l2.9-1.7a.19.19,0,0,0,0-.3l-3.3-1.9a.45.45,0,0,0-.5,0l-2.9,1.7a.19.19,0,0,0,0,.3Zm-11.2-14.1-2.9,1.7a.19.19,0,0,0,0,.3l3.3,1.9a.45.45,0,0,0,.5,0l2.9-1.7a.19.19,0,0,0,0-.3l-3.3-1.9c-.2-.1-.4,0-.5,0Zm21-12.1-2.8,1.6a.19.19,0,0,0,0,.3l3.4,2a.45.45,0,0,0,.5,0l2.9-1.7a.19.19,0,0,0,0-.3l-3.3-1.9a.85.85,0,0,0-.7,0Zm-16.8,9.7-2.9,1.7a.19.19,0,0,0,0,.3l3.3,1.9a.45.45,0,0,0,.5,0l2.9-1.7a.19.19,0,0,0,0-.3l-3.3-1.9a.45.45,0,0,0-.5,0Zm21.1-12.2-2.9,1.7a.19.19,0,0,0,0,.3l3.3,1.9a.45.45,0,0,0,.5,0l2.9-1.7a.19.19,0,0,0,0-.3l-3.3-1.9Zm-8.5,4.9-2.9,1.7a.19.19,0,0,0,0,.3l3.3,1.9a.45.45,0,0,0,.5,0l2.9-1.7a.19.19,0,0,0,0-.3l-3.3-1.9a.45.45,0,0,0-.5,0Zm-4.2,2.4-2.9,1.7a.19.19,0,0,0,0,.3l3.3,1.9a.45.45,0,0,0,.5,0l2.9-1.7a.19.19,0,0,0,0-.3l-3.3-1.9c-.2-.1-.3,0-.5,0Zm-4.2,2.4-2.9,1.7a.19.19,0,0,0,0,.3l3.3,1.9a.45.45,0,0,0,.5,0l2.9-1.7a.19.19,0,0,0,0-.3l-3.3-1.9Zm21.5,3,2.9-1.7a.19.19,0,0,0,0-.3l-3.3-1.9a.45.45,0,0,0-.5,0l-2.9,1.7a.19.19,0,0,0,0,.3l3.3,1.9A.45.45,0,0,0,127.5,156.32Zm37-36.7-2.9,1.7a.19.19,0,0,0,0,.3l3.3,1.9a.45.45,0,0,0,.5,0l2.9-1.7a.19.19,0,0,0,0-.3l-3.3-1.9a.45.45,0,0,0-.5,0Zm-5.1,3-2.9,1.7a.19.19,0,0,0,0,.3l3.3,1.9a.45.45,0,0,0,.5,0l2.9-1.7a.19.19,0,0,0,0-.3l-3.3-1.9a.45.45,0,0,0-.5,0Zm9.3-5.4-2.9,1.7a.19.19,0,0,0,0,.3l3.3,1.9a.45.45,0,0,0,.5,0l2.9-1.7a.19.19,0,0,0,0-.3l-3.3-1.9a.45.45,0,0,0-.5,0Zm-21.8,22.5,2.9-1.7a.19.19,0,0,0,0-.3l-3.3-1.9a.45.45,0,0,0-.5,0l-2.9,1.7a.19.19,0,0,0,0,.3l3.3,1.9Zm26.5-24.9a.45.45,0,0,0-.5,0l-2.9,1.7a.19.19,0,0,0,0,.3l3.3,1.9a.45.45,0,0,0,.5,0l2.9-1.7a.19.19,0,0,0,0-.3Zm-41.7,39.1,2.9-1.7a.19.19,0,0,0,0-.3l-3.3-1.9a.45.45,0,0,0-.5,0l-2.9,1.7a.19.19,0,0,0,0,.3l3.3,1.9a.45.45,0,0,0,.5,0Zm51.7-29.8,2.9-1.7a.19.19,0,0,0,0-.3l-3.3-1.9a.45.45,0,0,0-.5,0l-2.9,1.7a.19.19,0,0,0,0,.3l3.3,1.9a.45.45,0,0,0,.5,0Zm-9-.3,2.9-1.7a.19.19,0,0,0,0-.3l-3.3-1.9a.45.45,0,0,0-.5,0l-2.9,1.7a.19.19,0,0,0,0,.3l3.3,1.9a.45.45,0,0,0,.5,0Zm3.7-6.3a.45.45,0,0,0-.5,0l-2.9,1.7a.19.19,0,0,0,0,.3l3.4,1.9a.45.45,0,0,0,.5,0l2.9-1.7a.19.19,0,0,0,0-.3Zm.9-.5,8.1,4.7a.45.45,0,0,0,.5,0l2.9-1.7a.19.19,0,0,0,0-.3l-8.1-4.7a.45.45,0,0,0-.5,0l-2.9,1.7a.19.19,0,0,0,0,.3Zm-9.7,5.3-2.9,1.7a.19.19,0,0,0,0,.3l3.3,1.9a.45.45,0,0,0,.5,0l2.9-1.7a.19.19,0,0,0,0-.3l-3.3-1.9Zm-31.7,18.3-2.9,1.7a.19.19,0,0,0,0,.3l3.3,1.9a.45.45,0,0,0,.5,0l2.9-1.7a.19.19,0,0,0,0-.3l-3.3-1.9Zm41.1-14.1a.45.45,0,0,0,.5,0l2.9-1.7a.19.19,0,0,0,0-.3l-3.3-1.9a.45.45,0,0,0-.5,0l-2.9,1.7a.19.19,0,0,0,0,.3Zm-36.9,11.7-2.9,1.7a.19.19,0,0,0,0,.3l3.3,1.9a.45.45,0,0,0,.5,0l2.9-1.7a.19.19,0,0,0,0-.3l-3.3-1.9a.45.45,0,0,0-.5,0Zm-31.6,27.9a.45.45,0,0,0,.5,0l2.9-1.7a.19.19,0,0,0,0-.3l-3.3-1.9a.45.45,0,0,0-.5,0l-2.9,1.7a.19.19,0,0,0,0,.3Zm-6.3-6-2.9,1.7a.19.19,0,0,0,0,.3l3.3,1.9a.45.45,0,0,0,.5,0l2.9-1.7a.19.19,0,0,0,0-.3l-3.3-1.9a.45.45,0,0,0-.5,0Zm11,3.5,2.9-1.7a.19.19,0,0,0,0-.3l-3.3-1.9a.45.45,0,0,0-.5,0l-2.9,1.7a.19.19,0,0,0,0,.3l3.3,1.9a.45.45,0,0,0,.5,0Zm4.2-2.4,2.9-1.7a.19.19,0,0,0,0-.3l-3.3-1.9a.45.45,0,0,0-.5,0l-2.9,1.7a.19.19,0,0,0,0,.3l3.3,1.9a.45.45,0,0,0,.5,0Zm4.2-2.5,2.9-1.7a.19.19,0,0,0,0-.3l-3.3-1.9a.45.45,0,0,0-.5,0l-2.9,1.7a.19.19,0,0,0,0,.3l3.3,1.9a.45.45,0,0,0,.5,0Zm-15.2-1-2.9,1.7a.19.19,0,0,0,0,.3l3.3,1.9a.45.45,0,0,0,.5,0l2.9-1.7a.19.19,0,0,0,0-.3l-3.3-1.9A.45.45,0,0,0,108.1,157.72Zm4.2-2.5-2.9,1.7a.19.19,0,0,0,0,.3l3.3,1.9a.45.45,0,0,0,.5,0l2.9-1.7a.19.19,0,0,0,0-.3l-3.3-1.9Zm16.8-9.7-2.9,1.7a.19.19,0,0,0,0,.3l3.4,1.9a.45.45,0,0,0,.5,0l2.9-1.7a.19.19,0,0,0,0-.3l-3.3-1.9A.64.64,0,0,0,129.1,145.52Zm-4.2,2.4-2.9,1.7a.19.19,0,0,0,0,.3l3.3,1.9a.45.45,0,0,0,.5,0l2.9-1.7a.19.19,0,0,0,0-.3l-3.3-1.9Zm8.4-4.8-2.9,1.7a.19.19,0,0,0,0,.3l3.3,1.9a.45.45,0,0,0,.5,0l2.9-1.7a.19.19,0,0,0,0-.3l-3.3-1.9a.45.45,0,0,0-.5,0Zm-16.8,9.7-2.9,1.7a.19.19,0,0,0,0,.3l3.3,1.9a.45.45,0,0,0,.5,0l2.9-1.7a.19.19,0,0,0,0-.3l-3.3-1.9a.45.45,0,0,0-.5,0Zm4.2-2.4-2.9,1.7a.19.19,0,0,0,0,.3l3.3,1.9a.45.45,0,0,0,.5,0l2.9-1.7a.19.19,0,0,0,0-.3l-3.3-2a1.09,1.09,0,0,0-.5.1Zm-3.1,17.1,2.9-1.7a.19.19,0,0,0,0-.3l-3.3-1.9a.45.45,0,0,0-.5,0l-2.9,1.7a.19.19,0,0,0,0,.3l3.3,1.9a.45.45,0,0,0,.5,0ZM92.9,165l-3.3-1.9a.45.45,0,0,0-.5,0l-2.9,1.7a.19.19,0,0,0,0,.3l3.3,1.9a.45.45,0,0,0,.5,0l2.9-1.7q.3-.15,0-.3Zm6.3,1.9L95.9,165a.45.45,0,0,0-.5,0l-4.4,2.6a.19.19,0,0,0,0,.3l3.3,1.9a.45.45,0,0,0,.5,0l4.4-2.6q.3-.15,0-.3Zm-11.3-5.6-3.3-1.9a.45.45,0,0,0-.5,0l-3.5,2a.19.19,0,0,0,0,.3l3.3,1.9a.45.45,0,0,0,.5,0l3.5-2A.19.19,0,0,0,87.9,161.32Zm2.7-1.5a.45.45,0,0,0,.5,0l2.9-1.7a.19.19,0,0,0,0-.3l-3.3-1.9a.45.45,0,0,0-.5,0l-2.9,1.7a.19.19,0,0,0,0,.3Zm14.5,9.2-3.3-1.9a.45.45,0,0,0-.5,0l-5.5,3.2a.19.19,0,0,0,0,.3l3.3,1.9a.45.45,0,0,0,.5,0l5.5-3.2Q105.4,169.17,105.1,169Zm2.8,3.9-3.3-1.9a.45.45,0,0,0-.5,0l-3.5,2a.19.19,0,0,0,0,.3l3.3,1.9a.45.45,0,0,0,.5,0l3.5-2a.19.19,0,0,0,0-.3Zm14-31.2a.45.45,0,0,0,.5,0l2.9-1.7a.19.19,0,0,0,0-.3l-3.3-1.9a.45.45,0,0,0-.5,0l-2.9,1.7a.19.19,0,0,0,0,.3Zm-8.4,4.8a.45.45,0,0,0,.5,0l2.9-1.7a.19.19,0,0,0,0-.3l-3.3-1.9a.45.45,0,0,0-.5,0l-2.9,1.7a.19.19,0,0,0,0,.3Zm-18.7,10.8a.45.45,0,0,0,.5,0l2.9-1.7a.19.19,0,0,0,0-.3l-3.3-1.9a.45.45,0,0,0-.5,0l-2.9,1.7a.19.19,0,0,0,0,.3Zm22.9-13.2a.45.45,0,0,0,.5,0l2.9-1.7a.19.19,0,0,0,0-.3l-3.3-1.9a.45.45,0,0,0-.5,0l-2.9,1.7a.19.19,0,0,0,0,.3Zm-8.5,4.9a.45.45,0,0,0,.5,0l2.9-1.7a.19.19,0,0,0,0-.3l-3.3-1.9a.45.45,0,0,0-.5,0l-2.9,1.7a.19.19,0,0,0,0,.3Zm1,24.2a.45.45,0,0,0-.5,0l-4.4,2.5a.19.19,0,0,0,0,.3l3.3,1.9a.45.45,0,0,0,.5,0l4.4-2.6a.19.19,0,0,0,0-.3Zm-7-20.7a.45.45,0,0,0,.5,0l2.9-1.7a.19.19,0,0,0,0-.3l-3.3-1.9a.45.45,0,0,0-.5,0l-2.9,1.7a.19.19,0,0,0,0,.3Zm-4.2,2.4a.45.45,0,0,0,.5,0l2.9-1.7a.19.19,0,0,0,0-.3L99.1,151a.45.45,0,0,0-.5,0l-2.9,1.7a.19.19,0,0,0,0,.3Zm89.3-26.7a.45.45,0,0,0-.5,0l-7.1,4.1a.19.19,0,0,0,0,.3l3.3,1.9a.45.45,0,0,0,.5,0l7.1-4.1a.19.19,0,0,0,0-.3Zm-9.4,5.4a.45.45,0,0,0-.5,0l-2.9,1.7a.19.19,0,0,0,0,.3l3.3,1.9a.45.45,0,0,0,.5,0l2.9-1.7a.19.19,0,0,0,0-.3Zm-57,31.5,2.9-1.7a.19.19,0,0,0,0-.3l-3.3-1.9a.45.45,0,0,0-.5,0l-2.9,1.7a.19.19,0,0,0,0,.3l3.3,1.9a.45.45,0,0,0,.5,0Zm48.6-26.7a.45.45,0,0,0-.5,0l-3,1.6a.19.19,0,0,0,0,.3l3.3,1.9a.45.45,0,0,0,.5,0l2.9-1.7a.19.19,0,0,0,0-.3Zm22-12.6a.45.45,0,0,0-.5,0l-2.9,1.6a.19.19,0,0,0,0,.3l3.3,1.9a.45.45,0,0,0,.5,0l2.9-1.7a.19.19,0,0,0,0-.3Zm7.5-.5-8.1-4.7a.45.45,0,0,0-.5,0l-2.9,1.7a.19.19,0,0,0,0,.3l8.1,4.7a.45.45,0,0,0,.5,0l2.9-1.7q.15-.3,0-.3Zm-45.2,22.2a.45.45,0,0,0-.5,0l-3.5,2a.19.19,0,0,0,0,.3l3.3,1.9a.45.45,0,0,0,.5,0l3.5-2a.19.19,0,0,0,0-.3Zm10.6-6.2a.45.45,0,0,0-.5,0l-4.4,2.6a.19.19,0,0,0,0,.3l3.3,1.9a.45.45,0,0,0,.5,0l4.4-2.6a.19.19,0,0,0,0-.3ZM145,153.12a.45.45,0,0,0-.5,0l-23.7,13.7a.19.19,0,0,0,0,.3l3.3,1.9a.45.45,0,0,0,.5,0l23.7-13.6a.19.19,0,0,0,0-.3Zm-25,14.5a.45.45,0,0,0-.5,0l-3.5,2a.19.19,0,0,0,0,.3l3.3,1.9a.45.45,0,0,0,.5,0l3.5-2a.19.19,0,0,0,0-.3Zm29.9-17.3a.45.45,0,0,0-.5,0l-3.5,2a.19.19,0,0,0,0,.3l3.3,1.9a.45.45,0,0,0,.5,0l3.5-2a.19.19,0,0,0,0-.3Zm-34.8,20.1a.45.45,0,0,0-.5,0l-3.5,2a.19.19,0,0,0,0,.3l3.3,1.9a.45.45,0,0,0,.5,0l3.5-2a.19.19,0,0,0,0-.3Zm44.6-25.7a.45.45,0,0,0-.5,0l-3.5,2a.19.19,0,0,0,0,.3l3.3,1.9a.45.45,0,0,0,.5,0l3.5-2a.19.19,0,0,0,0-.3Zm15-8.7a.45.45,0,0,0-.5,0l-2.9,1.7a.19.19,0,0,0,0,.3l3.3,1.9a.45.45,0,0,0,.5,0l2.9-1.7a.19.19,0,0,0,0-.3Zm9.3-6.7,2.9-1.7a.19.19,0,0,0,0-.3l-3.3-1.9a.45.45,0,0,0-.5,0l-2.9,1.7a.19.19,0,0,0,0,.3l3.3,1.9c.1,0,.3.1.5,0Zm-18.9-.1,2.9-1.7a.19.19,0,0,0,0-.3l-3.4-1.9a.45.45,0,0,0-.5,0l-2.9,1.7a.19.19,0,0,0,0,.3l3.3,1.9Q165,129.37,165.1,129.22Zm-9.5,16.5,8.4-4.9a.19.19,0,0,0,0-.3l-3.3-1.9a.45.45,0,0,0-.5,0l-8.4,4.9a.19.19,0,0,0,0,.3l3.3,1.9Zm23.7-14a.45.45,0,0,0,.5,0l2.9-1.7a.19.19,0,0,0,0-.3l-3.3-1.9a.45.45,0,0,0-.5,0l-2.9,1.7a.19.19,0,0,0,0,.3ZM175,129l2.8-1.6a.19.19,0,0,0,0-.3l-3.3-1.9a.45.45,0,0,0-.5,0l-2.9,1.6a.19.19,0,0,0,0,.3l3.3,1.9Zm-23.6,19.1,2.9-1.7a.19.19,0,0,0,0-.3l-3.3-1.9a.45.45,0,0,0-.5,0l-2.9,1.7a.19.19,0,0,0,0,.3l3.3,1.9Zm18.6-11a.45.45,0,0,0,.5,0l2.9-1.7a.19.19,0,0,0,0-.3l-3.3-1.9a.45.45,0,0,0-.5,0l-2.9,1.7a.19.19,0,0,0,0,.3Zm-39.7,23.1,2.9-1.7a.19.19,0,0,0,0-.3l-3.3-1.9a.45.45,0,0,0-.5,0l-2.9,1.7a.19.19,0,0,0,0,.3l3.3,1.9A.45.45,0,0,0,130.3,160.22Zm4.2-2.4,2.9-1.7a.19.19,0,0,0,0-.3l-3.3-1.9a.45.45,0,0,0-.5,0l-2.9,1.7a.19.19,0,0,0,0,.3l3.3,1.9A.45.45,0,0,0,134.5,157.82Zm-8.4,4.9L129,161a.19.19,0,0,0,0-.3l-3.3-1.9a.45.45,0,0,0-.5,0l-2.9,1.7a.19.19,0,0,0,0,.3l3.3,1.9ZM143,153l2.9-1.7a.19.19,0,0,0,0-.3l-3.3-1.9a.45.45,0,0,0-.5,0l-2.9,1.7a.19.19,0,0,0,0,.3l3.3,1.9Zm-4.3,2.3,2.9-1.7a.19.19,0,0,0,0-.3l-3.3-1.9a.45.45,0,0,0-.5,0l-2.9,1.7a.19.19,0,0,0,0,.3l3.3,1.9A.45.45,0,0,0,138.7,155.32Zm8.4-4.8,2.9-1.7a.19.19,0,0,0,0-.3l-3.3-1.9a.45.45,0,0,0-.5,0l-2.9,1.7a.19.19,0,0,0,0,.3l3.3,1.9a.45.45,0,0,0,.5,0Zm19.3-36a.45.45,0,0,0,.5,0l2.9-1.7a.19.19,0,0,0,0-.3l-.9-.5a.45.45,0,0,0-.5,0l-2.9,1.7a.19.19,0,0,0,0,.3Zm-20.7,13.4a.45.45,0,0,0,.5,0l2.9-1.7a.19.19,0,0,0,0-.3l-3.3-1.9a.45.45,0,0,0-.5,0l-2.9,1.7a.19.19,0,0,0,0,.3Zm8.4-4.9a.45.45,0,0,0,.5,0l2.9-1.7a.19.19,0,0,0,0-.3l-3.3-1.9a.45.45,0,0,0-.5,0l-2.9,1.7a.19.19,0,0,0,0,.3Zm-13.6,7.9a.45.45,0,0,0,.5,0l2.9-1.7a.19.19,0,0,0,0-.3l-3.3-1.9a.45.45,0,0,0-.5,0l-2.9,1.7a.19.19,0,0,0,0,.3Zm9.4-5.4a.45.45,0,0,0,.5,0l2.9-1.7a.19.19,0,0,0,0-.3l-3.3-1.9a.45.45,0,0,0-.5,0l-2.9,1.7a.19.19,0,0,0,0,.3Zm-17.8,10.3a.45.45,0,0,0,.5,0l2.9-1.7a.19.19,0,0,0,0-.3l-3.3-1.9a.45.45,0,0,0-.5,0l-2.9,1.7a.19.19,0,0,0,0,.3Zm4.2-2.5a.45.45,0,0,0,.5,0l2.9-1.7a.19.19,0,0,0,0-.3l-3.3-1.9a.45.45,0,0,0-.5,0l-2.9,1.7a.19.19,0,0,0,0,.3Zm21.7-13.9a.45.45,0,0,0,.5,0l2.9-1.7a.19.19,0,0,0,0-.3l-.9-.5a.45.45,0,0,0-.5,0l-2.9,1.7a.19.19,0,0,0,0,.3Zm12.6-7.3a.45.45,0,0,0,.5,0l2.9-1.7a.19.19,0,0,0,0-.3l-.9-.5a.45.45,0,0,0-.5,0l-2.9,1.6a.19.19,0,0,0,0,.3Zm7,4a.45.45,0,0,0,.5,0l2.9-1.7a.19.19,0,0,0,0-.3l-3.4-1.9a.45.45,0,0,0-.5,0l-2.9,1.7a.19.19,0,0,0,0,.3Zm10.5,10.8,2.9-1.7a.19.19,0,0,0,0-.3l-3.3-1.9a.45.45,0,0,0-.5,0l-2.9,1.7a.19.19,0,0,0,0,.3l3.3,1.9ZM162.2,117a.45.45,0,0,0,.5,0l2.9-1.7a.19.19,0,0,0,0-.3l-.9-.5a.45.45,0,0,0-.5,0l-2.9,1.7a.19.19,0,0,0,0,.3Zm-34.3,21.2a.45.45,0,0,0,.5,0l2.9-1.7a.19.19,0,0,0,0-.3l-3.4-1.9a.45.45,0,0,0-.5,0l-2.9,1.7a.19.19,0,0,0,0,.3Z"/><path class="7145aa18-ee8d-4167-a3b5-c563aad68dff" d="M160.9,131.62l2.9-1.7a.19.19,0,0,0,0-.3l-3.3-1.9a.45.45,0,0,0-.5,0l-2.8,1.6a.19.19,0,0,0,0,.3l3.3,1.9C160.6,131.62,160.7,131.62,160.9,131.62Zm-5.7-6.6-2.9,1.7a.19.19,0,0,0,0,.3l3.3,1.9a.45.45,0,0,0,.5,0l2.9-1.7a.19.19,0,0,0,0-.3l-3.3-1.9A.45.45,0,0,0,155.2,125Zm-9.3,5.3-4.9,2.8a.19.19,0,0,0,0,.3l3.3,1.9a.45.45,0,0,0,.5,0l4.9-2.8a.19.19,0,0,0,0-.3l-3.3-1.9Zm5.1-2.9-2.9,1.7a.19.19,0,0,0,0,.3l3.3,1.9a.45.45,0,0,0,.5,0l2.9-1.7a.19.19,0,0,0,0-.3l-3.3-1.9a.45.45,0,0,0-.5,0Zm-11.3,6.5-2.9,1.7a.19.19,0,0,0,0,.3l3.3,1.9a.45.45,0,0,0,.5,0l2.9-1.7a.19.19,0,0,0,0-.3l-3.4-1.9Zm-4.2,2.4-2.9,1.7a.19.19,0,0,0,0,.3l3.3,1.9a.45.45,0,0,0,.5,0l2.9-1.7a.19.19,0,0,0,0-.3l-3.3-1.9Zm13.1,7.9,2.9-1.7a.19.19,0,0,0,0-.3l-3.3-1.9a.45.45,0,0,0-.5,0l-2.9,1.7a.19.19,0,0,0,0,.3l3.3,1.9a.45.45,0,0,0,.5,0Zm-4.2,2.4,2.9-1.7a.19.19,0,0,0,0-.3l-3.3-1.9a.45.45,0,0,0-.5,0l-2.9,1.7a.19.19,0,0,0,0,.3l3.3,1.9a.45.45,0,0,0,.5,0Zm-4.3,2.5,2.9-1.7a.19.19,0,0,0,0-.3l-3.3-1.9a.45.45,0,0,0-.5,0l-2.9,1.7a.19.19,0,0,0,0,.3l3.3,1.9Zm-4.2,2.4,2.9-1.7a.19.19,0,0,0,0-.3l-3.3-1.9a.45.45,0,0,0-.5,0l-2.9,1.7a.19.19,0,0,0,0,.3l3.3,1.9a.45.45,0,0,0,.5,0ZM156.6,134l2.9-1.7a.19.19,0,0,0,0-.3l-3.3-1.9a.45.45,0,0,0-.5,0l-2.9,1.7a.19.19,0,0,0,0,.3l3.3,1.9a.45.45,0,0,0,.5,0Zm-3.8,7.8,6.4-3.7a.19.19,0,0,0,0-.3l-8.1-4.7a.45.45,0,0,0-.5,0l-3.3,1.9a.19.19,0,0,0,0,.3l4.3,2.5a.19.19,0,0,1,0,.3l-2.7,1.5a.19.19,0,0,0,0,.3l3.3,1.9Zm-21.6-3-2.9,1.7a.19.19,0,0,0,0,.3l3.3,1.9a.45.45,0,0,0,.5,0L135,141a.19.19,0,0,0,0-.3l-3.3-1.9a.45.45,0,0,0-.5,0Zm-4.2,2.4-2.9,1.7a.19.19,0,0,0,0,.3l3.3,1.9a.45.45,0,0,0,.5,0l2.9-1.7a.19.19,0,0,0,0-.3l-3.3-1.9c-.1-.1-.3,0-.5,0Zm-21,27.2a.45.45,0,0,0,.5,0l2.9-1.7a.19.19,0,0,0,0-.3l-3.3-1.9a.45.45,0,0,0-.5,0l-2.9,1.8a.19.19,0,0,0,0,.3Zm-12.6-7.8-2.9,1.7a.19.19,0,0,0,0,.3l3.3,1.9a.45.45,0,0,0,.5,0l2.9-1.7a.19.19,0,0,0,0-.3l-3.4-1.8a.6.6,0,0,0-.4-.1Zm6.7,5.7a.45.45,0,0,0,.5,0l2.9-1.7a.19.19,0,0,0,0-.3l-3.3-1.9a.45.45,0,0,0-.5,0l-2.9,1.7a.19.19,0,0,0,0,.3Zm13.3,3.6,2.9-1.7a.19.19,0,0,0,0-.3L113,166a.45.45,0,0,0-.5,0l-2.9,1.7a.19.19,0,0,0,0,.3l3.3,1.9a.45.45,0,0,0,.5,0Zm-4.6,2.4a.45.45,0,0,0,.5,0l2.9-1.7a.19.19,0,0,0,0-.3l-3.3-1.9a.45.45,0,0,0-.5,0l-2.9,1.7a.19.19,0,0,0,0,.3Zm-11.2-14.1-2.9,1.7a.19.19,0,0,0,0,.3l3.3,1.9a.45.45,0,0,0,.5,0l2.9-1.7a.19.19,0,0,0,0-.3l-3.3-1.9c-.2-.1-.4,0-.5,0Zm21-12.1-2.8,1.6a.19.19,0,0,0,0,.3l3.4,2a.45.45,0,0,0,.5,0l2.9-1.7a.19.19,0,0,0,0-.3l-3.3-1.9a.85.85,0,0,0-.7,0Zm-16.8,9.7-2.9,1.7a.19.19,0,0,0,0,.3l3.3,1.9a.45.45,0,0,0,.5,0l2.9-1.7a.19.19,0,0,0,0-.3l-3.3-1.9a.45.45,0,0,0-.5,0Zm21.1-12.2-2.9,1.7a.19.19,0,0,0,0,.3l3.3,1.9a.45.45,0,0,0,.5,0l2.9-1.7a.19.19,0,0,0,0-.3l-3.3-1.9Zm-8.5,4.9-2.9,1.7a.19.19,0,0,0,0,.3l3.3,1.9a.45.45,0,0,0,.5,0l2.9-1.7a.19.19,0,0,0,0-.3l-3.3-1.9a.45.45,0,0,0-.5,0Zm-4.2,2.4-2.9,1.7a.19.19,0,0,0,0,.3l3.3,1.9a.45.45,0,0,0,.5,0l2.9-1.7a.19.19,0,0,0,0-.3l-3.3-1.9c-.2-.1-.3,0-.5,0Zm-4.2,2.4-2.9,1.7a.19.19,0,0,0,0,.3l3.3,1.9a.45.45,0,0,0,.5,0l2.9-1.7a.19.19,0,0,0,0-.3l-3.3-1.9Zm21.5,3,2.9-1.7a.19.19,0,0,0,0-.3l-3.3-1.9a.45.45,0,0,0-.5,0l-2.9,1.7a.19.19,0,0,0,0,.3l3.3,1.9A.45.45,0,0,0,127.5,156.32Zm37-36.7-2.9,1.7a.19.19,0,0,0,0,.3l3.3,1.9a.45.45,0,0,0,.5,0l2.9-1.7a.19.19,0,0,0,0-.3l-3.3-1.9a.45.45,0,0,0-.5,0Zm-5.1,3-2.9,1.7a.19.19,0,0,0,0,.3l3.3,1.9a.45.45,0,0,0,.5,0l2.9-1.7a.19.19,0,0,0,0-.3l-3.3-1.9a.45.45,0,0,0-.5,0Zm9.3-5.4-2.9,1.7a.19.19,0,0,0,0,.3l3.3,1.9a.45.45,0,0,0,.5,0l2.9-1.7a.19.19,0,0,0,0-.3l-3.3-1.9a.45.45,0,0,0-.5,0Zm-21.8,22.5,2.9-1.7a.19.19,0,0,0,0-.3l-3.3-1.9a.45.45,0,0,0-.5,0l-2.9,1.7a.19.19,0,0,0,0,.3l3.3,1.9Zm26.5-24.9a.45.45,0,0,0-.5,0l-2.9,1.7a.19.19,0,0,0,0,.3l3.3,1.9a.45.45,0,0,0,.5,0l2.9-1.7a.19.19,0,0,0,0-.3Zm-41.7,39.1,2.9-1.7a.19.19,0,0,0,0-.3l-3.3-1.9a.45.45,0,0,0-.5,0l-2.9,1.7a.19.19,0,0,0,0,.3l3.3,1.9a.45.45,0,0,0,.5,0Zm51.7-29.8,2.9-1.7a.19.19,0,0,0,0-.3l-3.3-1.9a.45.45,0,0,0-.5,0l-2.9,1.7a.19.19,0,0,0,0,.3l3.3,1.9a.45.45,0,0,0,.5,0Zm-9-.3,2.9-1.7a.19.19,0,0,0,0-.3l-3.3-1.9a.45.45,0,0,0-.5,0l-2.9,1.7a.19.19,0,0,0,0,.3l3.3,1.9a.45.45,0,0,0,.5,0Zm3.7-6.3a.45.45,0,0,0-.5,0l-2.9,1.7a.19.19,0,0,0,0,.3l3.4,1.9a.45.45,0,0,0,.5,0l2.9-1.7a.19.19,0,0,0,0-.3Zm.9-.5,8.1,4.7a.45.45,0,0,0,.5,0l2.9-1.7a.19.19,0,0,0,0-.3l-8.1-4.7a.45.45,0,0,0-.5,0l-2.9,1.7a.19.19,0,0,0,0,.3Zm-9.7,5.3-2.9,1.7a.19.19,0,0,0,0,.3l3.3,1.9a.45.45,0,0,0,.5,0l2.9-1.7a.19.19,0,0,0,0-.3l-3.3-1.9Zm-31.7,18.3-2.9,1.7a.19.19,0,0,0,0,.3l3.3,1.9a.45.45,0,0,0,.5,0l2.9-1.7a.19.19,0,0,0,0-.3l-3.3-1.9Zm41.1-14.1a.45.45,0,0,0,.5,0l2.9-1.7a.19.19,0,0,0,0-.3l-3.3-1.9a.45.45,0,0,0-.5,0l-2.9,1.7a.19.19,0,0,0,0,.3Zm-36.9,11.7-2.9,1.7a.19.19,0,0,0,0,.3l3.3,1.9a.45.45,0,0,0,.5,0l2.9-1.7a.19.19,0,0,0,0-.3l-3.3-1.9a.45.45,0,0,0-.5,0Zm-31.6,27.9a.45.45,0,0,0,.5,0l2.9-1.7a.19.19,0,0,0,0-.3l-3.3-1.9a.45.45,0,0,0-.5,0l-2.9,1.7a.19.19,0,0,0,0,.3Zm-6.3-6-2.9,1.7a.19.19,0,0,0,0,.3l3.3,1.9a.45.45,0,0,0,.5,0l2.9-1.7a.19.19,0,0,0,0-.3l-3.3-1.9a.45.45,0,0,0-.5,0Zm11,3.5,2.9-1.7a.19.19,0,0,0,0-.3l-3.3-1.9a.45.45,0,0,0-.5,0l-2.9,1.7a.19.19,0,0,0,0,.3l3.3,1.9a.45.45,0,0,0,.5,0Zm4.2-2.4,2.9-1.7a.19.19,0,0,0,0-.3l-3.3-1.9a.45.45,0,0,0-.5,0l-2.9,1.7a.19.19,0,0,0,0,.3l3.3,1.9a.45.45,0,0,0,.5,0Zm4.2-2.5,2.9-1.7a.19.19,0,0,0,0-.3l-3.3-1.9a.45.45,0,0,0-.5,0l-2.9,1.7a.19.19,0,0,0,0,.3l3.3,1.9a.45.45,0,0,0,.5,0Zm-15.2-1-2.9,1.7a.19.19,0,0,0,0,.3l3.3,1.9a.45.45,0,0,0,.5,0l2.9-1.7a.19.19,0,0,0,0-.3l-3.3-1.9A.45.45,0,0,0,108.1,157.72Zm4.2-2.5-2.9,1.7a.19.19,0,0,0,0,.3l3.3,1.9a.45.45,0,0,0,.5,0l2.9-1.7a.19.19,0,0,0,0-.3l-3.3-1.9Zm16.8-9.7-2.9,1.7a.19.19,0,0,0,0,.3l3.4,1.9a.45.45,0,0,0,.5,0l2.9-1.7a.19.19,0,0,0,0-.3l-3.3-1.9A.64.64,0,0,0,129.1,145.52Zm-4.2,2.4-2.9,1.7a.19.19,0,0,0,0,.3l3.3,1.9a.45.45,0,0,0,.5,0l2.9-1.7a.19.19,0,0,0,0-.3l-3.3-1.9Zm8.4-4.8-2.9,1.7a.19.19,0,0,0,0,.3l3.3,1.9a.45.45,0,0,0,.5,0l2.9-1.7a.19.19,0,0,0,0-.3l-3.3-1.9a.45.45,0,0,0-.5,0Zm-16.8,9.7-2.9,1.7a.19.19,0,0,0,0,.3l3.3,1.9a.45.45,0,0,0,.5,0l2.9-1.7a.19.19,0,0,0,0-.3l-3.3-1.9a.45.45,0,0,0-.5,0Zm4.2-2.4-2.9,1.7a.19.19,0,0,0,0,.3l3.3,1.9a.45.45,0,0,0,.5,0l2.9-1.7a.19.19,0,0,0,0-.3l-3.3-2a1.09,1.09,0,0,0-.5.1Zm-3.1,17.1,2.9-1.7a.19.19,0,0,0,0-.3l-3.3-1.9a.45.45,0,0,0-.5,0l-2.9,1.7a.19.19,0,0,0,0,.3l3.3,1.9a.45.45,0,0,0,.5,0ZM92.9,165l-3.3-1.9a.45.45,0,0,0-.5,0l-2.9,1.7a.19.19,0,0,0,0,.3l3.3,1.9a.45.45,0,0,0,.5,0l2.9-1.7q.3-.15,0-.3Zm6.3,1.9L95.9,165a.45.45,0,0,0-.5,0l-4.4,2.6a.19.19,0,0,0,0,.3l3.3,1.9a.45.45,0,0,0,.5,0l4.4-2.6q.3-.15,0-.3Zm-11.3-5.6-3.3-1.9a.45.45,0,0,0-.5,0l-3.5,2a.19.19,0,0,0,0,.3l3.3,1.9a.45.45,0,0,0,.5,0l3.5-2A.19.19,0,0,0,87.9,161.32Zm2.7-1.5a.45.45,0,0,0,.5,0l2.9-1.7a.19.19,0,0,0,0-.3l-3.3-1.9a.45.45,0,0,0-.5,0l-2.9,1.7a.19.19,0,0,0,0,.3Zm14.5,9.2-3.3-1.9a.45.45,0,0,0-.5,0l-5.5,3.2a.19.19,0,0,0,0,.3l3.3,1.9a.45.45,0,0,0,.5,0l5.5-3.2Q105.4,169.17,105.1,169Zm2.8,3.9-3.3-1.9a.45.45,0,0,0-.5,0l-3.5,2a.19.19,0,0,0,0,.3l3.3,1.9a.45.45,0,0,0,.5,0l3.5-2a.19.19,0,0,0,0-.3Zm14-31.2a.45.45,0,0,0,.5,0l2.9-1.7a.19.19,0,0,0,0-.3l-3.3-1.9a.45.45,0,0,0-.5,0l-2.9,1.7a.19.19,0,0,0,0,.3Zm-8.4,4.8a.45.45,0,0,0,.5,0l2.9-1.7a.19.19,0,0,0,0-.3l-3.3-1.9a.45.45,0,0,0-.5,0l-2.9,1.7a.19.19,0,0,0,0,.3Zm-18.7,10.8a.45.45,0,0,0,.5,0l2.9-1.7a.19.19,0,0,0,0-.3l-3.3-1.9a.45.45,0,0,0-.5,0l-2.9,1.7a.19.19,0,0,0,0,.3Zm22.9-13.2a.45.45,0,0,0,.5,0l2.9-1.7a.19.19,0,0,0,0-.3l-3.3-1.9a.45.45,0,0,0-.5,0l-2.9,1.7a.19.19,0,0,0,0,.3Zm-8.5,4.9a.45.45,0,0,0,.5,0l2.9-1.7a.19.19,0,0,0,0-.3l-3.3-1.9a.45.45,0,0,0-.5,0l-2.9,1.7a.19.19,0,0,0,0,.3Zm1,24.2a.45.45,0,0,0-.5,0l-4.4,2.5a.19.19,0,0,0,0,.3l3.3,1.9a.45.45,0,0,0,.5,0l4.4-2.6a.19.19,0,0,0,0-.3Zm-7-20.7a.45.45,0,0,0,.5,0l2.9-1.7a.19.19,0,0,0,0-.3l-3.3-1.9a.45.45,0,0,0-.5,0l-2.9,1.7a.19.19,0,0,0,0,.3Zm-4.2,2.4a.45.45,0,0,0,.5,0l2.9-1.7a.19.19,0,0,0,0-.3L99.1,151a.45.45,0,0,0-.5,0l-2.9,1.7a.19.19,0,0,0,0,.3Zm89.3-26.7a.45.45,0,0,0-.5,0l-7.1,4.1a.19.19,0,0,0,0,.3l3.3,1.9a.45.45,0,0,0,.5,0l7.1-4.1a.19.19,0,0,0,0-.3Zm-9.4,5.4a.45.45,0,0,0-.5,0l-2.9,1.7a.19.19,0,0,0,0,.3l3.3,1.9a.45.45,0,0,0,.5,0l2.9-1.7a.19.19,0,0,0,0-.3Zm-57,31.5,2.9-1.7a.19.19,0,0,0,0-.3l-3.3-1.9a.45.45,0,0,0-.5,0l-2.9,1.7a.19.19,0,0,0,0,.3l3.3,1.9a.45.45,0,0,0,.5,0Zm48.6-26.7a.45.45,0,0,0-.5,0l-3,1.6a.19.19,0,0,0,0,.3l3.3,1.9a.45.45,0,0,0,.5,0l2.9-1.7a.19.19,0,0,0,0-.3Zm22-12.6a.45.45,0,0,0-.5,0l-2.9,1.6a.19.19,0,0,0,0,.3l3.3,1.9a.45.45,0,0,0,.5,0l2.9-1.7a.19.19,0,0,0,0-.3Zm7.5-.5-8.1-4.7a.45.45,0,0,0-.5,0l-2.9,1.7a.19.19,0,0,0,0,.3l8.1,4.7a.45.45,0,0,0,.5,0l2.9-1.7q.15-.3,0-.3Zm-45.2,22.2a.45.45,0,0,0-.5,0l-3.5,2a.19.19,0,0,0,0,.3l3.3,1.9a.45.45,0,0,0,.5,0l3.5-2a.19.19,0,0,0,0-.3Zm10.6-6.2a.45.45,0,0,0-.5,0l-4.4,2.6a.19.19,0,0,0,0,.3l3.3,1.9a.45.45,0,0,0,.5,0l4.4-2.6a.19.19,0,0,0,0-.3ZM145,153.12a.45.45,0,0,0-.5,0l-23.7,13.7a.19.19,0,0,0,0,.3l3.3,1.9a.45.45,0,0,0,.5,0l23.7-13.6a.19.19,0,0,0,0-.3Zm-25,14.5a.45.45,0,0,0-.5,0l-3.5,2a.19.19,0,0,0,0,.3l3.3,1.9a.45.45,0,0,0,.5,0l3.5-2a.19.19,0,0,0,0-.3Zm29.9-17.3a.45.45,0,0,0-.5,0l-3.5,2a.19.19,0,0,0,0,.3l3.3,1.9a.45.45,0,0,0,.5,0l3.5-2a.19.19,0,0,0,0-.3Zm-34.8,20.1a.45.45,0,0,0-.5,0l-3.5,2a.19.19,0,0,0,0,.3l3.3,1.9a.45.45,0,0,0,.5,0l3.5-2a.19.19,0,0,0,0-.3Zm44.6-25.7a.45.45,0,0,0-.5,0l-3.5,2a.19.19,0,0,0,0,.3l3.3,1.9a.45.45,0,0,0,.5,0l3.5-2a.19.19,0,0,0,0-.3Zm15-8.7a.45.45,0,0,0-.5,0l-2.9,1.7a.19.19,0,0,0,0,.3l3.3,1.9a.45.45,0,0,0,.5,0l2.9-1.7a.19.19,0,0,0,0-.3Zm9.3-6.7,2.9-1.7a.19.19,0,0,0,0-.3l-3.3-1.9a.45.45,0,0,0-.5,0l-2.9,1.7a.19.19,0,0,0,0,.3l3.3,1.9c.1,0,.3.1.5,0Zm-18.9-.1,2.9-1.7a.19.19,0,0,0,0-.3l-3.4-1.9a.45.45,0,0,0-.5,0l-2.9,1.7a.19.19,0,0,0,0,.3l3.3,1.9Q165,129.37,165.1,129.22Zm-9.5,16.5,8.4-4.9a.19.19,0,0,0,0-.3l-3.3-1.9a.45.45,0,0,0-.5,0l-8.4,4.9a.19.19,0,0,0,0,.3l3.3,1.9Zm23.7-14a.45.45,0,0,0,.5,0l2.9-1.7a.19.19,0,0,0,0-.3l-3.3-1.9a.45.45,0,0,0-.5,0l-2.9,1.7a.19.19,0,0,0,0,.3ZM175,129l2.8-1.6a.19.19,0,0,0,0-.3l-3.3-1.9a.45.45,0,0,0-.5,0l-2.9,1.6a.19.19,0,0,0,0,.3l3.3,1.9Zm-23.6,19.1,2.9-1.7a.19.19,0,0,0,0-.3l-3.3-1.9a.45.45,0,0,0-.5,0l-2.9,1.7a.19.19,0,0,0,0,.3l3.3,1.9Zm18.6-11a.45.45,0,0,0,.5,0l2.9-1.7a.19.19,0,0,0,0-.3l-3.3-1.9a.45.45,0,0,0-.5,0l-2.9,1.7a.19.19,0,0,0,0,.3Zm-39.7,23.1,2.9-1.7a.19.19,0,0,0,0-.3l-3.3-1.9a.45.45,0,0,0-.5,0l-2.9,1.7a.19.19,0,0,0,0,.3l3.3,1.9A.45.45,0,0,0,130.3,160.22Zm4.2-2.4,2.9-1.7a.19.19,0,0,0,0-.3l-3.3-1.9a.45.45,0,0,0-.5,0l-2.9,1.7a.19.19,0,0,0,0,.3l3.3,1.9A.45.45,0,0,0,134.5,157.82Zm-8.4,4.9L129,161a.19.19,0,0,0,0-.3l-3.3-1.9a.45.45,0,0,0-.5,0l-2.9,1.7a.19.19,0,0,0,0,.3l3.3,1.9ZM143,153l2.9-1.7a.19.19,0,0,0,0-.3l-3.3-1.9a.45.45,0,0,0-.5,0l-2.9,1.7a.19.19,0,0,0,0,.3l3.3,1.9Zm-4.3,2.3,2.9-1.7a.19.19,0,0,0,0-.3l-3.3-1.9a.45.45,0,0,0-.5,0l-2.9,1.7a.19.19,0,0,0,0,.3l3.3,1.9A.45.45,0,0,0,138.7,155.32Zm8.4-4.8,2.9-1.7a.19.19,0,0,0,0-.3l-3.3-1.9a.45.45,0,0,0-.5,0l-2.9,1.7a.19.19,0,0,0,0,.3l3.3,1.9a.45.45,0,0,0,.5,0Zm19.3-36a.45.45,0,0,0,.5,0l2.9-1.7a.19.19,0,0,0,0-.3l-.9-.5a.45.45,0,0,0-.5,0l-2.9,1.7a.19.19,0,0,0,0,.3Zm-20.7,13.4a.45.45,0,0,0,.5,0l2.9-1.7a.19.19,0,0,0,0-.3l-3.3-1.9a.45.45,0,0,0-.5,0l-2.9,1.7a.19.19,0,0,0,0,.3Zm8.4-4.9a.45.45,0,0,0,.5,0l2.9-1.7a.19.19,0,0,0,0-.3l-3.3-1.9a.45.45,0,0,0-.5,0l-2.9,1.7a.19.19,0,0,0,0,.3Zm-13.6,7.9a.45.45,0,0,0,.5,0l2.9-1.7a.19.19,0,0,0,0-.3l-3.3-1.9a.45.45,0,0,0-.5,0l-2.9,1.7a.19.19,0,0,0,0,.3Zm9.4-5.4a.45.45,0,0,0,.5,0l2.9-1.7a.19.19,0,0,0,0-.3l-3.3-1.9a.45.45,0,0,0-.5,0l-2.9,1.7a.19.19,0,0,0,0,.3Zm-17.8,10.3a.45.45,0,0,0,.5,0l2.9-1.7a.19.19,0,0,0,0-.3l-3.3-1.9a.45.45,0,0,0-.5,0l-2.9,1.7a.19.19,0,0,0,0,.3Zm4.2-2.5a.45.45,0,0,0,.5,0l2.9-1.7a.19.19,0,0,0,0-.3l-3.3-1.9a.45.45,0,0,0-.5,0l-2.9,1.7a.19.19,0,0,0,0,.3Zm21.7-13.9a.45.45,0,0,0,.5,0l2.9-1.7a.19.19,0,0,0,0-.3l-.9-.5a.45.45,0,0,0-.5,0l-2.9,1.7a.19.19,0,0,0,0,.3Zm12.6-7.3a.45.45,0,0,0,.5,0l2.9-1.7a.19.19,0,0,0,0-.3l-.9-.5a.45.45,0,0,0-.5,0l-2.9,1.6a.19.19,0,0,0,0,.3Zm7,4a.45.45,0,0,0,.5,0l2.9-1.7a.19.19,0,0,0,0-.3l-3.4-1.9a.45.45,0,0,0-.5,0l-2.9,1.7a.19.19,0,0,0,0,.3Zm10.5,10.8,2.9-1.7a.19.19,0,0,0,0-.3l-3.3-1.9a.45.45,0,0,0-.5,0l-2.9,1.7a.19.19,0,0,0,0,.3l3.3,1.9ZM162.2,117a.45.45,0,0,0,.5,0l2.9-1.7a.19.19,0,0,0,0-.3l-.9-.5a.45.45,0,0,0-.5,0l-2.9,1.7a.19.19,0,0,0,0,.3Zm-34.3,21.2a.45.45,0,0,0,.5,0l2.9-1.7a.19.19,0,0,0,0-.3l-3.4-1.9a.45.45,0,0,0-.5,0l-2.9,1.7a.19.19,0,0,0,0,.3Z"/><path class="771a6680-85fa-430e-943a-312fc2bfbd77" d="M146.6,163.52l28.4-16.4a3.39,3.39,0,0,1,3.1,0l16.3,9.4a.88.88,0,0,1,.4,1.3c-.1.2-.3.4-.4.4L166,174.72a3.39,3.39,0,0,1-3.1,0l-16.3-9.4C145.7,164.82,145.7,164,146.6,163.52Z"/><path class="e58a3cc3-4ca0-4dc4-9488-5a326248f550" d="M146.6,163.52l28.4-16.4a3.39,3.39,0,0,1,3.1,0l16.3,9.4a.88.88,0,0,1,.4,1.3c-.1.2-.3.4-.4.4L166,174.72a3.39,3.39,0,0,1-3.1,0l-16.3-9.4C145.7,164.82,145.7,164,146.6,163.52Z"/><path class="771a6680-85fa-430e-943a-312fc2bfbd77" d="M52.9,153.22c.3.1.5.3.8.3a6.89,6.89,0,0,1-.8-.3.22.22,0,0,1-.2-.2Z"/></g><g id="b32d6432-8beb-444b-bcad-9d545860d286" data-name="freepik--Window--inject-26"><path class="bead857d-bdc2-4dec-899c-4728b581b590" d="M61.5,134.22a1.17,1.17,0,0,0,1.9,1.1l87.7-50.6a4.36,4.36,0,0,0,1.9-3.3v-59L61.5,75.22Z"/><g class="0905b05a-928b-498c-8413-8965288be910"><path class="cecfbd6b-01f5-41b8-9b28-efdec8cca9d8" d="M61.5,134.22a1.17,1.17,0,0,0,1.9,1.1l87.7-50.6a4.36,4.36,0,0,0,1.9-3.3v-59L61.5,75.22Z"/></g><path class="7cea57be-0cb7-4634-8d5b-08da7c0b3c91" d="M61.5,71.22a4.36,4.36,0,0,1,1.9-3.3l87.7-50.6c1.1-.6,1.9-.1,1.9,1.1v4L61.5,75.22Z"/><path class="b171652a-d27f-4dc7-8fc1-a3bc4df203cd" d="M142.3,24.42a1.89,1.89,0,0,0-.9,1.6c0,.6.4.8.9.5a1.89,1.89,0,0,0,.9-1.6C143.1,24.32,142.7,24.12,142.3,24.42Z"/><path class="b171652a-d27f-4dc7-8fc1-a3bc4df203cd" d="M145.4,22.62a1.89,1.89,0,0,0-.9,1.6c0,.6.4.8.9.5a2,2,0,0,0,.9-1.6A.55.55,0,0,0,145.4,22.62Z"/><path class="b171652a-d27f-4dc7-8fc1-a3bc4df203cd" d="M148.5,20.82a1.89,1.89,0,0,0-.9,1.6c0,.6.4.8.9.5a2,2,0,0,0,.9-1.6C149.4,20.72,149,20.52,148.5,20.82Z"/></g></g></g><g id="8c2b2b0e-2462-4e98-b67f-fe58deda47a8" data-name="freepik--Window--inject-16"><g id="61c2a712-8744-4290-8aee-13462349e0d0" data-name="freepik--window--inject-16"><path class="2e1aff9d-32e8-45b2-8109-fbba48312612" d="M168.8,35.22,82.6,84.92v76a1.11,1.11,0,0,0,1.1,1.1.9.9,0,0,0,.5-.1l1.5-.9,81.6-47.1a3.28,3.28,0,0,0,1.5-2.7Z"/><polygon class="3a63cdb1-73f2-4012-b029-1308562cf729" points="166.9 34.12 80.7 83.82 82.7 85.02 168.8 35.22 166.9 34.12"/><path class="3a63cdb1-73f2-4012-b029-1308562cf729" d="M83.2,161.92a1.15,1.15,0,0,1-.6-.9V85l-2-1.1v75.8a2,2,0,0,0,.8,1.2l1.8,1Z"/><path class="771a6680-85fa-430e-943a-312fc2bfbd77" d="M80.7,82.22v-4.1a1.56,1.56,0,0,1,.8-1.3l84.7-48.9a2,2,0,0,1,1.5,0l.4.2a1.83,1.83,0,0,1,.8,1.3v4.1L82.7,83.22Z"/><path class="c7f2a098-d9a2-413f-bd91-a204720a0d8a" d="M80.7,82.22v-4.1a1.56,1.56,0,0,1,.8-1.3l84.7-48.9a2,2,0,0,1,1.5,0l.4.2a1.83,1.83,0,0,1,.8,1.3v4.1L82.7,83.22Z"/><path class="771a6680-85fa-430e-943a-312fc2bfbd77" d="M82.7,79.22a1.56,1.56,0,0,1,.8-1.3L168.1,29c.4-.2.8-.1.8.4v4.1L82.7,83.22Z"/><path class="771a6680-85fa-430e-943a-312fc2bfbd77" d="M82.9,78.42a1.88,1.88,0,0,0-.2.8v4.1l-2-1.1v-4.1a2.35,2.35,0,0,1,.2-.8Z"/><path class="5c0b4905-0f9e-4bac-ad10-4703dc5c26e2" d="M82.9,78.42a1.88,1.88,0,0,0-.2.8v4.1l-2-1.1v-4.1a2.35,2.35,0,0,1,.2-.8Z"/><path class="5f98c68c-75d3-4657-a2da-e26eaa95b2d0" d="M165.2,33.42c0,.5.3.6.7.4a1.52,1.52,0,0,0,.7-1.2c0-.5-.3-.6-.7-.4A1.27,1.27,0,0,0,165.2,33.42Z"/><path class="5f98c68c-75d3-4657-a2da-e26eaa95b2d0" d="M162.3,35c0,.5.3.6.7.4a1.52,1.52,0,0,0,.7-1.2c0-.5-.3-.6-.7-.4A1.85,1.85,0,0,0,162.3,35Z"/><path class="5f98c68c-75d3-4657-a2da-e26eaa95b2d0" d="M159.4,36.72c0,.5.3.6.7.4a1.56,1.56,0,0,0,.7-1.3c0-.5-.3-.6-.7-.4A2.09,2.09,0,0,0,159.4,36.72Z"/><path class="5f98c68c-75d3-4657-a2da-e26eaa95b2d0" d="M162.7,43.22l-9.3,5.4a.84.84,0,0,0-.4.7v1.2c0,.2.2.4.4.2l9.3-5.4a.84.84,0,0,0,.4-.7v-1.2C163.1,43.12,162.9,43,162.7,43.22Z"/><path class="7570735f-556e-477c-8fcf-7741a90b0ff4" d="M154.1,49.52h-.4v-.4a.1.1,0,0,1,.1-.1l.1-.1h.2V49h0l-.1.1h-.1l-.1.1v.1h.4v.3a.1.1,0,0,1-.1.1l-.1.1-.1.1h-.2l-.1-.1v-.1h0l.1-.1h.1l.3-.1Z"/><path class="7570735f-556e-477c-8fcf-7741a90b0ff4" d="M154.4,49.12a.6.6,0,0,1,.1-.4c0-.1.1-.1.1-.2l.1-.1h.2a.1.1,0,0,0,.1.1v.3h0l-.4.2v.1h.2V49h0l.1-.1h0V49a.1.1,0,0,1-.1.1.22.22,0,0,1-.2.2h-.2a.1.1,0,0,0-.1-.1C154.4,49.32,154.4,49.22,154.4,49.12Zm.3-.4h0l-.1.1V49l.3-.2v-.1h0c-.1,0-.1-.1-.2,0C154.8,48.62,154.7,48.62,154.7,48.72Z"/><path class="7570735f-556e-477c-8fcf-7741a90b0ff4" d="M155.2,48.42h0l.1-.2.1-.1.1-.1h.2a.1.1,0,0,0,.1.1v.8h0l-.1.1h0v-.1a.1.1,0,0,1-.1.1l-.1.1h-.2v-.2c0-.1,0-.2.1-.2s.1-.1.2-.2l.2-.2v-.1h-.1v.1h0l-.5.1Zm.2.4h0l.1-.1v-.2h0l-.2.1c.1.1.1.1.1.2-.1-.1-.1,0,0,0Z"/><path class="7570735f-556e-477c-8fcf-7741a90b0ff4" d="M156.3,47.82l-.1.1v.7h0l-.1.1m-.1,0h0v-.9h0l.1-.1h0a.1.1,0,0,1,.1-.1l.1-.1h.1v.2h0Z"/><path class="7570735f-556e-477c-8fcf-7741a90b0ff4" d="M156.7,47.72h0v.2h0v-.1h0l.1-.1h0v.1a995164323832.44,995164323832.44,0,0,0-.2.2l-.1.1h-.2l-.1-.1v-.5c0-.1,0-.1.1-.2a.1.1,0,0,1,.1-.1l.1-.1h.2l.1.1v.1h0l-.1.1m.3.1h-.1v.3Z"/><path class="7570735f-556e-477c-8fcf-7741a90b0ff4" d="M157.9,47.52h0l-.1.2h0V47h-.1l-.1.1v.7h0l-.1.1m-.2,0h0v-1.2h0l.1-.1h0V47a.1.1,0,0,1,.1-.1l.1-.1h.2v.3Z"/><path class="5f98c68c-75d3-4657-a2da-e26eaa95b2d0" d="M165.2,43.82l-.4-.3a1.09,1.09,0,0,0,.1-.5.86.86,0,0,0-.3-.6.3.3,0,0,0-.4,0,1.61,1.61,0,0,0-.5,1.1.86.86,0,0,0,.3.6h.2c.1,0,.2,0,.2-.1l.3-.3.3.3h.2Zm-.9,0h-.1c-.1,0-.1-.1-.1-.4a1.09,1.09,0,0,1,.4-.9h.1c.1,0,.1.1.1.4a1,1,0,0,1-.4.9Z"/><path class="771a6680-85fa-430e-943a-312fc2bfbd77" d="M87.9,94.82h0c-.1-.1-.2-.1-.2-.2v-10c0-.1,0-.1.1-.2l14.4-8.3h.2c.1,0,.1.1.1.2v10c0,.1,0,.1-.1.2l-14.5,8.3Zm.2-10v9.6l14.1-8.1v-9.6Z"/><path class="771a6680-85fa-430e-943a-312fc2bfbd77" d="M107.1,75.32l7.9-4.6c.2-.1.4,0,.4.2v.8a1,1,0,0,1-.4.7L107.1,77c-.2.1-.4,0-.4-.2V76A.84.84,0,0,1,107.1,75.32Z"/><path class="771a6680-85fa-430e-943a-312fc2bfbd77" d="M118.6,68.62l7.9-4.6c.2-.1.4,0,.4.2V65a1,1,0,0,1-.4.7l-7.9,4.6c-.2.1-.4,0-.4-.2v-.8C118.3,69,118.4,68.72,118.6,68.62Z"/><path class="771a6680-85fa-430e-943a-312fc2bfbd77" d="M130.2,61.92l7.9-4.6c.2-.1.4,0,.4.2v.8a1,1,0,0,1-.4.7l-7.9,4.6c-.2.1-.4,0-.4-.2v-.8A1,1,0,0,1,130.2,61.92Z"/><path class="771a6680-85fa-430e-943a-312fc2bfbd77" d="M116.8,72.32a.1.1,0,0,1-.1-.1h0v-3.3c0-.1.1-.1.2-.1a.1.1,0,0,1,.1.1v3.3A.35.35,0,0,1,116.8,72.32Z"/><path class="771a6680-85fa-430e-943a-312fc2bfbd77" d="M128.4,65.62a.1.1,0,0,1-.1-.1v-3.3c0-.1.1-.1.2-.1a.1.1,0,0,1,.1.1v3.3c-.1,0-.1.1-.2.1Z"/><path class="771a6680-85fa-430e-943a-312fc2bfbd77" d="M106.7,84h0c-.1-.1-.2-.1-.2-.2v-3.3c0-.1,0-.1.1-.2l57.8-33.4h.2c.1,0,.1.1.1.2v3.3c0,.1,0,.1-.1.2L106.7,84Zm.2-3.4v2.9l57.4-33.2v-2.9Z"/><path class="771a6680-85fa-430e-943a-312fc2bfbd77" d="M91.5,98.82a.91.91,0,0,0-.3.7q0,.45.3.3a.91.91,0,0,0,.3-.7Q91.8,98.67,91.5,98.82Z"/><path class="771a6680-85fa-430e-943a-312fc2bfbd77" d="M92.2,98l-.2.1V98c0-.1,0-.1-.1-.1l-.7.4c-.1,0-.1.1-.1.2v.1l-.2.1a.76.76,0,0,0-.2.4v1.2c0,.2.1.3.2.2l1.4-.8a.76.76,0,0,0,.2-.4v-1.2C92.4,98,92.3,97.92,92.2,98Zm-.7,2c-.3.2-.5-.1-.5-.5a1.23,1.23,0,0,1,.5-1c.3-.2.5.1.5.5A1.23,1.23,0,0,1,91.5,100Z"/><path class="771a6680-85fa-430e-943a-312fc2bfbd77" d="M87.9,104.82h0c0-.1-.1-.1,0,0L87.8,98v-.1l7.2-4.2h.1v6.9l-7.2,4.2Zm.1-6.7v6.5l7-4.1V94Z"/><path class="771a6680-85fa-430e-943a-312fc2bfbd77" d="M87.9,104.82h0a.1.1,0,0,1-.1-.1h0l2.4-3.6s.1-.1.1,0h0v.1h0l-2.4,3.6Z"/><path class="771a6680-85fa-430e-943a-312fc2bfbd77" d="M92.7,97.52h0a.1.1,0,0,1-.1-.1h0l2.4-3.6s.1-.1.1,0v.1h0l-2.4,3.6Z"/><path class="771a6680-85fa-430e-943a-312fc2bfbd77" d="M95.1,100.62h0l-2.3-.8-.1-.1.1-.1h0l2.3.8c.1,0,.1.1,0,.2Z"/><path class="771a6680-85fa-430e-943a-312fc2bfbd77" d="M90.2,98.92h0l-2.3-.8-.1-.1.1-.1,2.3.8c.1,0,.1.1,0,.2Z"/><path class="771a6680-85fa-430e-943a-312fc2bfbd77" d="M96.7,94.62l4-2.3c.1,0,.2,0,.2.1v.5c0,.1-.1.2-.2.3l-4,2.3c-.1,0-.2,0-.2-.1v-.5A1.24,1.24,0,0,1,96.7,94.62Z"/><path class="5f98c68c-75d3-4657-a2da-e26eaa95b2d0" d="M96.7,96.22l6.9-4c.1,0,.2,0,.2.1v.5c0,.1-.1.2-.2.3l-6.9,4c-.1,0-.2,0-.2-.1v-.5C96.6,96.42,96.6,96.32,96.7,96.22Z"/><path class="5f98c68c-75d3-4657-a2da-e26eaa95b2d0" d="M96.7,97.92l6.9-4c.1,0,.2,0,.2.1v.5c0,.1-.1.2-.2.3l-6.9,4c-.1,0-.2,0-.2-.1v-.5C96.6,98.12,96.7,98,96.7,97.92Z"/><path class="771a6680-85fa-430e-943a-312fc2bfbd77" d="M160.9,76.62a1.09,1.09,0,0,0-.4.9c0,.4.2.6.4.4a1.09,1.09,0,0,0,.4-.9C161.3,76.72,161.1,76.52,160.9,76.62Z"/><path class="771a6680-85fa-430e-943a-312fc2bfbd77" d="M161.8,75.42l-.4.2v-.2c0-.1-.1-.2-.1-.1l-1,.6a.37.37,0,0,0-.1.3v.2l-.4.2a.71.71,0,0,0-.3.6v1.7c0,.2.1.4.3.3l1.9-1.1a.71.71,0,0,0,.3-.6v-1.8C162.1,75.52,162,75.32,161.8,75.42Zm-.9,2.9c-.4.2-.7-.1-.7-.6a1.51,1.51,0,0,1,.7-1.4c.4-.2.7.1.7.6a1.91,1.91,0,0,1-.7,1.4Z"/><path class="771a6680-85fa-430e-943a-312fc2bfbd77" d="M155.8,85h0a.1.1,0,0,1-.1-.1v-9.4a.1.1,0,0,1,.1-.1l10.1-5.8h.1l.1.1V79a.1.1,0,0,1-.1.1L155.8,85Zm.2-9.4v9.1l9.9-5.7v-9.1Z"/><path class="771a6680-85fa-430e-943a-312fc2bfbd77" d="M155.8,85h0c-.1-.1-.1-.1-.1-.2l3.4-5.1c0-.1.1-.1.2,0s.1.1,0,.2h0L155.9,85C155.9,84.92,155.9,85,155.8,85Z"/><path class="771a6680-85fa-430e-943a-312fc2bfbd77" d="M162.6,74.82h0c-.1-.1-.1-.1-.1-.2l3.4-5.1c0-.1.1-.1.2,0h0c.1,0,.1.1,0,.2l-3.4,5.1Z"/><path class="771a6680-85fa-430e-943a-312fc2bfbd77" d="M165.9,79.12h0L162.7,78c-.1,0-.1-.1-.1-.2s.1-.1.2-.1h0l3.2,1.1c.1,0,.1.1.1.2s-.1.1-.2.1Z"/><path class="771a6680-85fa-430e-943a-312fc2bfbd77" d="M159,76.72h0l-3.2-1.1c-.1,0-.1-.1-.1-.2s.1-.1.2-.1h0l3.2,1.1c.1,0,.1.1.1.2h0C159.1,76.72,159.1,76.72,159,76.72Z"/><path class="771a6680-85fa-430e-943a-312fc2bfbd77" d="M156,86.22l4-2.3c.1,0,.2,0,.2.1v.5c0,.1-.1.2-.2.3l-4,2.3h-.1v-.6C155.8,86.42,155.9,86.32,156,86.22Z"/><path class="5f98c68c-75d3-4657-a2da-e26eaa95b2d0" d="M156,87.92l9.8-5.7c.1,0,.2,0,.2.1v.5c0,.1-.1.2-.2.3l-9.8,5.7h-.1v-.6C155.8,88.12,155.9,88,156,87.92Z"/><path class="5f98c68c-75d3-4657-a2da-e26eaa95b2d0" d="M156,89.62l9.8-5.7c.1,0,.2,0,.2.1v.5c0,.1-.1.2-.2.3l-9.8,5.7c-.1,0-.2,0-.2-.1v-.5C155.8,89.72,155.9,89.62,156,89.62Z"/><path class="771a6680-85fa-430e-943a-312fc2bfbd77" d="M91.5,108.82a.91.91,0,0,0-.3.7q0,.45.3.3a.91.91,0,0,0,.3-.7C91.8,108.92,91.7,108.72,91.5,108.82Z"/><path class="771a6680-85fa-430e-943a-312fc2bfbd77" d="M92.2,108l-.2.1V108c0-.1,0-.1-.1-.1l-.7.4c-.1,0-.1.1-.1.2v.1l-.2.1a.76.76,0,0,0-.2.4v1.2c0,.2.1.3.2.2l1.4-.8a.76.76,0,0,0,.2-.4v-1.2C92.4,108,92.3,107.92,92.2,108Zm-.7,2c-.3.1-.5-.1-.5-.5a1.23,1.23,0,0,1,.5-1c.3-.2.5.1.5.5A1.23,1.23,0,0,1,91.5,110Z"/><path class="771a6680-85fa-430e-943a-312fc2bfbd77" d="M87.9,114.82h0l-.1-6.8v-.1l7.2-4.2h.1v6.9l-7.2,4.2Zm.1-6.7v6.5l7-4.1V104Z"/><path class="771a6680-85fa-430e-943a-312fc2bfbd77" d="M87.9,114.82h0a.1.1,0,0,1-.1-.1h0l2.4-3.6s.1-.1.1,0h0v.1h0l-2.4,3.6Z"/><path class="771a6680-85fa-430e-943a-312fc2bfbd77" d="M92.7,107.52h0a.1.1,0,0,1-.1-.1h0l2.4-3.6s.1-.1.1,0v.1h0l-2.4,3.6Z"/><path class="771a6680-85fa-430e-943a-312fc2bfbd77" d="M95.1,110.62h0l-2.3-.8-.1-.1.1-.1,2.3.8c.1.1.1.1,0,.2Z"/><path class="771a6680-85fa-430e-943a-312fc2bfbd77" d="M90.2,108.92h0l-2.3-.8-.1-.1h0l.1-.1,2.3.8c.1,0,.1.1,0,.2Z"/><path class="771a6680-85fa-430e-943a-312fc2bfbd77" d="M96.7,104.62l4-2.3c.1,0,.2,0,.2.1v.5c0,.1-.1.2-.2.3l-4,2.3c-.1,0-.2,0-.2-.1v-.5A1.24,1.24,0,0,1,96.7,104.62Z"/><path class="5f98c68c-75d3-4657-a2da-e26eaa95b2d0" d="M96.7,106.32l6.9-4c.1,0,.2,0,.2.1v.5c0,.1-.1.2-.2.3l-6.9,4c-.1,0-.2,0-.2-.1v-.5A1.24,1.24,0,0,1,96.7,106.32Z"/><path class="5f98c68c-75d3-4657-a2da-e26eaa95b2d0" d="M96.7,107.92l6.9-4c.1,0,.2,0,.2.1v.5c0,.1-.1.2-.2.3l-6.9,4c-.1,0-.2,0-.2-.1v-.5C96.6,108.12,96.7,108,96.7,107.92Z"/><path class="771a6680-85fa-430e-943a-312fc2bfbd77" d="M91.5,118.82a.91.91,0,0,0-.3.7q0,.45.3.3a.91.91,0,0,0,.3-.7C91.8,118.92,91.7,118.72,91.5,118.82Z"/><path class="771a6680-85fa-430e-943a-312fc2bfbd77" d="M92.2,118l-.2.1V118c0-.1,0-.1-.1-.1l-.7.4c-.1,0-.1.1-.1.2v.1l-.2.1a.76.76,0,0,0-.2.4v1.2c0,.2.1.3.2.2l1.4-.8a.76.76,0,0,0,.2-.4v-1.2C92.4,118,92.3,117.92,92.2,118Zm-.7,2c-.3.2-.5-.1-.5-.5a1.23,1.23,0,0,1,.5-1c.3-.2.5.1.5.5A1.23,1.23,0,0,1,91.5,120Z"/><path class="771a6680-85fa-430e-943a-312fc2bfbd77" d="M87.9,124.82h0l-.1-6.8v-.1l7.2-4.2h.1v6.9l-7.2,4.2Zm.1-6.7v6.5l7-4.1V114Z"/><path class="771a6680-85fa-430e-943a-312fc2bfbd77" d="M87.9,124.82h0a.1.1,0,0,1-.1-.1h0l2.4-3.6s.1-.1.1,0v.1h0l-2.4,3.6Z"/><path class="771a6680-85fa-430e-943a-312fc2bfbd77" d="M92.7,117.62h0a.1.1,0,0,1-.1-.1h0l2.4-3.6s.1-.1.1,0h0v.1h0l-2.4,3.6C92.8,117.52,92.8,117.62,92.7,117.62Z"/><path class="771a6680-85fa-430e-943a-312fc2bfbd77" d="M95.1,120.62h0l-2.3-.8-.1-.1.1-.1,2.3.8c.1.1.2.1,0,.2Z"/><path class="771a6680-85fa-430e-943a-312fc2bfbd77" d="M90.2,118.92h0l-2.3-.8-.1-.1.1-.1,2.3.8c.1,0,.1.1,0,.2Z"/><path class="771a6680-85fa-430e-943a-312fc2bfbd77" d="M96.7,114.62l4-2.3c.1,0,.2,0,.2.1v.5c0,.1-.1.2-.2.3l-4,2.3c-.1,0-.2,0-.2-.1v-.5C96.6,114.82,96.7,114.72,96.7,114.62Z"/><path class="5f98c68c-75d3-4657-a2da-e26eaa95b2d0" d="M96.7,116.32l6.9-4c.1,0,.2,0,.2.1v.5c0,.1-.1.2-.2.3l-6.9,4c-.1,0-.2,0-.2-.1v-.5A1.24,1.24,0,0,1,96.7,116.32Z"/><path class="5f98c68c-75d3-4657-a2da-e26eaa95b2d0" d="M96.7,117.92l6.9-4c.1,0,.2,0,.2.1v.5c0,.1-.1.2-.2.3l-6.9,4c-.1,0-.2,0-.2-.1v-.5C96.6,118.12,96.7,118,96.7,117.92Z"/><path class="b171652a-d27f-4dc7-8fc1-a3bc4df203cd" d="M86.5,107.32c-.1,0-.1-.1,0,0-.1-.1-.1-.1,0-.2l18.8-10.8h.1v.1l-18.9,10.9Z"/><path class="b171652a-d27f-4dc7-8fc1-a3bc4df203cd" d="M86.5,117.32c-.1,0-.1-.1,0,0-.1-.1-.1-.2,0-.2l18.8-10.8h.1v.1h0l-18.9,10.9Z"/><path class="b171652a-d27f-4dc7-8fc1-a3bc4df203cd" d="M106.7,118.92h0l-.1-31.8a.1.1,0,0,1,.1-.1c.1,0,.1,0,.1.1l-.1,31.8Z"/><path class="771a6680-85fa-430e-943a-312fc2bfbd77" d="M104.4,117.32v.7c0,.2.1.2.2.1l1-1c.1-.1.1-.2-.1-.2l-.8.1A.32.32,0,0,0,104.4,117.32Z"/><path class="771a6680-85fa-430e-943a-312fc2bfbd77" d="M102.8,118.32v.7c0,.2-.1.3-.2.3l-1,.1c-.1,0-.1-.1.1-.3l.8-.8C102.6,118.12,102.8,118.12,102.8,118.32Z"/><path class="5f98c68c-75d3-4657-a2da-e26eaa95b2d0" d="M88.1,126.72l6.9-4c.1,0,.2,0,.2.1v.5c0,.1-.1.2-.2.3l-6.9,4c-.1,0-.2,0-.2-.1V127C87.9,126.92,88,126.82,88.1,126.72Z"/><path class="771a6680-85fa-430e-943a-312fc2bfbd77" d="M122.9,90.32a1.45,1.45,0,0,0-.6,1.4c0,.5.3.8.6.6a1.45,1.45,0,0,0,.6-1.4C123.5,90.32,123.2,90.12,122.9,90.32Z"/><path class="771a6680-85fa-430e-943a-312fc2bfbd77" d="M124.2,88.72l-.5.3v-.3c0-.2-.1-.2-.2-.2l-1.3.8a.52.52,0,0,0-.2.4v.2l-.5.3a1.23,1.23,0,0,0-.4.8v2.4c0,.3.2.5.4.4l2.6-1.5a1.23,1.23,0,0,0,.4-.8v-2.4C124.6,88.82,124.4,88.62,124.2,88.72Zm-1.3,4c-.5.3-.9-.1-.9-.9a2.19,2.19,0,0,1,.9-1.9c.5-.3.9.1.9.9A2.48,2.48,0,0,1,122.9,92.72Z"/><path class="771a6680-85fa-430e-943a-312fc2bfbd77" d="M109.6,109h0c-.1-.1-.2-.1-.2-.2V87.12c0-.1,0-.1.1-.2l26-15c.1,0,.2,0,.2.1v21.8c0,.1,0,.1-.1.2l-26,15Zm.2-21.7v21.3l25.6-14.8V72.52Z"/><path class="771a6680-85fa-430e-943a-312fc2bfbd77" d="M135.6,94h0l-9.9-2.5c-.1,0-.2-.1-.1-.2s.1-.2.2-.1l9.9,2.5c.1,0,.2.1.1.2A.35.35,0,0,1,135.6,94Z"/><path class="771a6680-85fa-430e-943a-312fc2bfbd77" d="M120.3,90.12h0l-10.7-2.7c-.1,0-.2-.1-.1-.2s.1-.2.2-.1l10.7,2.7a.22.22,0,0,1,.2.2C120.5,90,120.4,90.12,120.3,90.12Z"/><path class="771a6680-85fa-430e-943a-312fc2bfbd77" d="M109.6,109h-.1c-.1-.1-.1-.2,0-.2h0l10.1-14.2c.1-.1.2-.1.2,0s.1.2,0,.2h0L109.7,109Z"/><path class="771a6680-85fa-430e-943a-312fc2bfbd77" d="M125.8,86.32h-.1c-.1-.1-.1-.2,0-.2l9.8-14c.1-.1.2-.1.2,0s.1.2,0,.2h0l-9.8,14Z"/><path class="b171652a-d27f-4dc7-8fc1-a3bc4df203cd" d="M152.9,92.22h0l-.1-31.8a.1.1,0,0,1,.1-.1c.1,0,.1,0,.1.1l-.1,31.8Z"/><path class="771a6680-85fa-430e-943a-312fc2bfbd77" d="M137.4,71.12l9.3-5.4c.2-.1.4,0,.4.2v.8a1,1,0,0,1-.4.7l-9.3,5.4c-.2.1-.4,0-.4-.2v-.8C137.1,71.52,137.2,71.22,137.4,71.12Z"/><path class="5f98c68c-75d3-4657-a2da-e26eaa95b2d0" d="M137.2,73.72l6.9-4c.1,0,.2,0,.2.1v.5c0,.1-.1.2-.2.3l-6.9,4c-.1,0-.2,0-.2-.1V74C137.1,73.92,137.1,73.82,137.2,73.72Z"/><path class="b171652a-d27f-4dc7-8fc1-a3bc4df203cd" d="M137,76.42h0c-.1-.1-.1-.1,0-.2l13.7-7.9h.1v.1h0l-13.8,8Z"/><path class="b171652a-d27f-4dc7-8fc1-a3bc4df203cd" d="M137,77.22h0c-.1-.1-.1-.1,0-.2l13.7-7.9h.1v.1l-13.8,8Z"/><path class="b171652a-d27f-4dc7-8fc1-a3bc4df203cd" d="M137,78.12h0c-.1-.1-.1-.1,0-.2L150.7,70h.1v.1h0l-13.8,8Z"/><path class="b171652a-d27f-4dc7-8fc1-a3bc4df203cd" d="M137,78.92h0c-.1-.1-.1-.1,0-.2l13.7-7.9h.1v.1l-13.8,8Z"/><path class="b171652a-d27f-4dc7-8fc1-a3bc4df203cd" d="M137,79.72h0c-.1-.1-.1-.1,0-.2l13.7-7.9h.1v.1l-13.8,8Z"/><path class="b171652a-d27f-4dc7-8fc1-a3bc4df203cd" d="M137,80.62h0c-.1-.1-.1-.1,0-.2l6.5-3.8h.1v.1l-6.6,3.9Z"/><path class="b171652a-d27f-4dc7-8fc1-a3bc4df203cd" d="M137,82.22h0c-.1-.1-.1-.1,0-.2l13.7-7.9h.1v.1l-13.8,8Z"/><path class="b171652a-d27f-4dc7-8fc1-a3bc4df203cd" d="M137,83.12h0c-.1-.1-.1-.1-.1-.2h0L150.6,75h.1v.1l-13.7,8Z"/><path class="b171652a-d27f-4dc7-8fc1-a3bc4df203cd" d="M137,83.92h0c-.1-.1-.1-.1,0-.2l13.7-7.9h.1v.1l-13.8,8Z"/><path class="b171652a-d27f-4dc7-8fc1-a3bc4df203cd" d="M137,84.72h0c-.1-.1-.1-.1,0-.2l13.7-7.9h.1v.1l-13.8,8Z"/><path class="b171652a-d27f-4dc7-8fc1-a3bc4df203cd" d="M137,85.62h0c-.1-.1-.1-.1,0-.2l13.7-7.9h.1v.1l-13.8,8Z"/><path class="b171652a-d27f-4dc7-8fc1-a3bc4df203cd" d="M137,86.42h0c-.1-.1-.1-.1,0-.2l6.5-3.8h.1v.1l-6.6,3.9Z"/><path class="b171652a-d27f-4dc7-8fc1-a3bc4df203cd" d="M137,88.12h0c-.1-.1-.1-.1,0-.2L150.7,80h.1v.1l-13.8,8Z"/><path class="b171652a-d27f-4dc7-8fc1-a3bc4df203cd" d="M137,88.92h0c-.1-.1-.1-.1,0-.2l13.7-7.9h.1v.1l-13.8,8Z"/><path class="b171652a-d27f-4dc7-8fc1-a3bc4df203cd" d="M137,89.72h0c-.1-.1-.1-.1,0-.2l13.7-7.9h.1v.1l-13.8,8Z"/><path class="b171652a-d27f-4dc7-8fc1-a3bc4df203cd" d="M137,90.62h0c-.1-.1-.1-.1,0-.2l13.7-7.9h.1v.1l-13.8,8Z"/><path class="b171652a-d27f-4dc7-8fc1-a3bc4df203cd" d="M137,91.42h0c-.1-.1-.1-.1,0-.2l13.7-7.9h.1v.1l-13.8,8Z"/><path class="b171652a-d27f-4dc7-8fc1-a3bc4df203cd" d="M137,92.32h0c-.1-.1-.1-.1,0-.2l6.5-3.8h.1v.1h0l-6.6,3.9Z"/><path class="771a6680-85fa-430e-943a-312fc2bfbd77" d="M162.9,58.22h-.3l-5,2.9-.3.3,2.8,1Z"/><path class="771a6680-85fa-430e-943a-312fc2bfbd77" d="M163.1,58.42a.37.37,0,0,0-.1-.3l-2.8,4.8-2.8-1.6c-.1.1-.1.2-.1.4v4.1c0,.2.2.4.4.2l5-2.9a.84.84,0,0,0,.4-.7Z"/><path class="771a6680-85fa-430e-943a-312fc2bfbd77" d="M156.2,60.42c-.1,0-.1-.1,0,0-.1-.1-.1-.1,0-.2l.2-.1h.1v.1h0l-.3.2Z"/><path class="771a6680-85fa-430e-943a-312fc2bfbd77" d="M156.8,60h0c-.1-.1-.1-.1,0-.2l.4-.3h.1v.1l-.5.4Zm.9-.5h0c-.1-.1-.1-.1,0-.2l.4-.3h.1v.1l-.5.4Zm.9-.6c0,.1-.1,0,0,0-.1-.1-.1-.1,0-.2l.4-.3h.1v.1l-.5.4Zm.9-.5h0c-.1-.1-.1-.1-.1-.2h0l.4-.3h.1V58l-.4.4Zm.9-.5h0c-.1-.1-.1-.1,0-.2l.4-.3h.1v.1l-.5.4Zm.9-.5h0c-.1-.1-.1-.1,0-.2l.4-.3h.1V57l-.5.4Zm.9-.5h0c-.1-.1-.1-.1,0-.2l.4-.3h.1v.1l-.5.4Zm.8-.5h0c-.1-.1-.1-.2,0-.2l.4-.3h.1V56l-.5.4Z"/><path class="771a6680-85fa-430e-943a-312fc2bfbd77" d="M163.9,55.92h0c-.1-.1-.1-.1,0-.2l.2-.1h.1v.1l-.3.2Z"/><path class="771a6680-85fa-430e-943a-312fc2bfbd77" d="M155.8,68.52h0l-.1-.4a.1.1,0,0,1,.1-.1c.1,0,.1,0,.1.1l-.1.4Z"/><path class="771a6680-85fa-430e-943a-312fc2bfbd77" d="M155.8,67.72h0l-.1-.6a.1.1,0,0,1,.1-.1c.1,0,.1,0,.1.1l-.1.6Zm0-1.1h0l-.1-.6a.1.1,0,0,1,.1-.1c.1,0,.1,0,.1.1l-.1.6Zm0-1h0l-.1-.7a.1.1,0,0,1,.1-.1c.1,0,.1,0,.1.1v.5c0,.1,0,.1-.1.2Zm0-1.1h0l-.1-.6a.1.1,0,0,1,.1-.1c.1,0,.1,0,.1.1l-.1.6c.1-.1.1,0,0,0Zm0-1.1h0l-.1-.7a.1.1,0,0,1,.1-.1c.1,0,.1,0,.1.1v.5c0,.1,0,.2-.1.2Zm0-1.1h0l-.1-.6a.1.1,0,0,1,.1-.1c.1,0,.1,0,.1.1l-.1.6Z"/><path class="771a6680-85fa-430e-943a-312fc2bfbd77" d="M155.8,61.22h0l-.1-.4a.1.1,0,0,1,.1-.1c.1,0,.1,0,.1.1l-.1.4Z"/><path class="771a6680-85fa-430e-943a-312fc2bfbd77" d="M163.9,64.22h0c-.1-.1-.1-.1,0-.2l.2-.1h.1V64l-.3.2Z"/><path class="771a6680-85fa-430e-943a-312fc2bfbd77" d="M156.8,68.32h0c-.1-.1-.1-.1,0-.2l.4-.3h.1v.1l-.5.4Zm.9-.5h0c-.1-.1-.1-.1,0-.2l.4-.3h.1v.1l-.5.4Zm.9-.5h0c-.1-.1-.1-.1,0-.2l.4-.3h.1v.1l-.5.4Zm.9-.5h0c-.1-.1-.1-.1,0-.2l.4-.3h.1v.1l-.5.4Zm.9-.5c-.1,0-.1-.1,0,0-.1-.1-.1-.2,0-.2l.4-.3h.1v.1l-.5.4Zm.9-.6h0c-.1-.1-.1-.1,0-.2l.4-.3h.1v.1l-.5.4Zm.9-.5h0c-.1-.1-.1-.1,0-.2h0l.4-.3h.1v.1l-.5.4Zm.9-.5h0c-.1-.1-.1-.1,0-.2l.4-.3h.1v.1h0l-.5.4Z"/><path class="771a6680-85fa-430e-943a-312fc2bfbd77" d="M156.2,68.72h0c-.1-.1-.1-.1,0-.2l.2-.1h.1v.1l-.3.2Z"/><path class="771a6680-85fa-430e-943a-312fc2bfbd77" d="M164.5,56.22h0l-.1-.4a.1.1,0,0,1,.1-.1c.1,0,.1,0,.1.1l-.1.4Z"/><path class="771a6680-85fa-430e-943a-312fc2bfbd77" d="M164.5,62.72h0l-.1-.6a.1.1,0,0,1,.1-.1c.1,0,.1,0,.1.1l-.1.6Zm0-1.1h0l-.1-.6a.1.1,0,0,1,.1-.1c.1,0,.1,0,.1.1v.5a.1.1,0,0,1-.1.1Zm0-1.1h0l-.1-.6a.1.1,0,0,1,.1-.1c.1,0,.1,0,.1.1l-.1.6Zm0-1c-.1,0-.1-.1,0,0l-.1-.6a.1.1,0,0,1,.1-.1c.1,0,.1,0,.1.1l-.1.6c.1-.1,0-.1,0,0Zm0-1.1h0l-.1-.6a.1.1,0,0,1,.1-.1c.1,0,.1,0,.1.1l-.1.6Zm0-1.1h0l-.1-.6a.1.1,0,1,1,.2,0l-.1.6Z"/><path class="771a6680-85fa-430e-943a-312fc2bfbd77" d="M164.5,63.52h0l-.1-.4a.1.1,0,0,1,.2,0l-.1.4Z"/><path class="771a6680-85fa-430e-943a-312fc2bfbd77" d="M164.2,56.12h0l-.1-.8v-.1l.7-.4h.1v1l-.7.3Zm.1-.8v.6l.5-.3v-.5Z"/><path class="771a6680-85fa-430e-943a-312fc2bfbd77" d="M164.2,64.52c-.1,0-.1-.1,0,0h0l-.1-.8v-.1l.7-.4h.1v1l-.7.3Zm.1-.8v.5l.5-.3v-.5Z"/><path class="771a6680-85fa-430e-943a-312fc2bfbd77" d="M155.5,61.12h0l-.1-.8v-.1l.7-.4h.1v1l-.7.3Zm.1-.8v.5l.5-.3V60Z"/><path class="771a6680-85fa-430e-943a-312fc2bfbd77" d="M155.5,69.52h0l-.1-.8v-.1l.7-.4h.1v.9l-.7.4Zm.1-.8v.5l.5-.3v-.5Z"/><path class="771a6680-85fa-430e-943a-312fc2bfbd77" d="M164.8,60a.71.71,0,0,1-.3.6c-.2.1-.3,0-.3-.2a.71.71,0,0,1,.3-.6C164.7,59.62,164.8,59.72,164.8,60Z"/><path class="771a6680-85fa-430e-943a-312fc2bfbd77" d="M160.5,57.82a.71.71,0,0,1-.3.6c-.2.1-.3,0-.3-.2a.71.71,0,0,1,.3-.6C160.3,57.42,160.5,57.52,160.5,57.82Z"/><path class="771a6680-85fa-430e-943a-312fc2bfbd77" d="M160.5,66.12a.71.71,0,0,1-.3.6c-.2.1-.3,0-.3-.2a.71.71,0,0,1,.3-.6C160.3,65.82,160.5,65.92,160.5,66.12Z"/><path class="771a6680-85fa-430e-943a-312fc2bfbd77" d="M156.2,65a.71.71,0,0,1-.3.6c-.2.1-.3,0-.3-.2a.71.71,0,0,1,.3-.6C156,64.62,156.2,64.72,156.2,65Z"/><path class="5f98c68c-75d3-4657-a2da-e26eaa95b2d0" d="M154.8,71.12l10.8-6.2c.2-.1.4,0,.4.2v.8a1,1,0,0,1-.4.7l-10.8,6.2c-.2.1-.4,0-.4-.2v-.8A.67.67,0,0,1,154.8,71.12Z"/><path class="5f98c68c-75d3-4657-a2da-e26eaa95b2d0" d="M111.5,114.42c-.1,0-.2,0-.2-.1a.6.6,0,0,1-.3-.6v-1.6a1.6,1.6,0,0,1,.8-1.4l5.7-3.3a.53.53,0,0,1,.8.1.75.75,0,0,1,.1.5v1.6a1.6,1.6,0,0,1-.8,1.4l-5.7,3.3A.76.76,0,0,1,111.5,114.42Zm6.3-6.8a.37.37,0,0,0-.3.1l-5.7,3.3a1.56,1.56,0,0,0-.7,1.3v1.6a.55.55,0,0,0,.3.5c.1,0,.3,0,.3-.1l5.7-3.3a1.71,1.71,0,0,0,.7-1.3v-1.6c0-.2,0-.3-.2-.4C117.9,107.62,117.9,107.62,117.8,107.62Z"/><path class="5f98c68c-75d3-4657-a2da-e26eaa95b2d0" d="M112.3,113.22h-.1c-.1-.1-.2-.2-.2-.3v-.8a.84.84,0,0,1,.4-.7l.7-.4c.1-.1.2-.1.4,0s.2.2.2.3v.8a.84.84,0,0,1-.4.7l-.7.4Zm1-2.1h-.1l-.7.4a.92.92,0,0,0-.4.6v.8c0,.1,0,.2.1.2h.2l.7-.4a.92.92,0,0,0,.4-.6v-.8c-.1-.1-.1-.2-.2-.2Z"/><path class="5f98c68c-75d3-4657-a2da-e26eaa95b2d0" d="M114.4,110.82l2.8-1.6c.1,0,.2,0,.2.1v.4c0,.1-.1.2-.2.3l-2.8,1.6c-.1,0-.2,0-.2-.1v-.4C114.2,110.92,114.3,110.82,114.4,110.82Z"/><path class="5f98c68c-75d3-4657-a2da-e26eaa95b2d0" d="M121.6,108.62c-.1,0-.2,0-.2-.1a.6.6,0,0,1-.3-.6v-1.6a1.6,1.6,0,0,1,.8-1.4l5.7-3.3a.66.66,0,0,1,.6-.1.6.6,0,0,1,.3.6v1.6a1.6,1.6,0,0,1-.8,1.4l-5.7,3.3A.76.76,0,0,1,121.6,108.62Zm.4-3.5a1.71,1.71,0,0,0-.7,1.3V108a.55.55,0,0,0,.3.5.37.37,0,0,0,.3-.1l5.7-3.3a1.56,1.56,0,0,0,.7-1.3v-1.6c0-.2-.1-.4-.3-.4a.37.37,0,0,0-.3.1Z"/><path class="5f98c68c-75d3-4657-a2da-e26eaa95b2d0" d="M122.4,107.42h-.1c-.1-.1-.2-.2-.2-.3v-.8a.84.84,0,0,1,.4-.7l.7-.4c.1-.1.3-.1.5.1a.31.31,0,0,1,.1.2v.8a.84.84,0,0,1-.4.7l-.7.4Zm1-2.2h-.1l-.7.4a.71.71,0,0,0-.3.6v.8c0,.1,0,.1.1.2h.2l.7-.4a.92.92,0,0,0,.4-.6v-.8a.77.77,0,0,0-.3-.2Z"/><path class="5f98c68c-75d3-4657-a2da-e26eaa95b2d0" d="M124.5,104.92l2.8-1.6c.1,0,.2,0,.2.1v.4c0,.1-.1.2-.2.3l-2.8,1.6c-.1,0-.2,0-.2-.1v-.4C124.4,105.12,124.4,105,124.5,104.92Z"/><path class="771a6680-85fa-430e-943a-312fc2bfbd77" d="M131.8,102.72c-.1,0-.2,0-.2-.1a.6.6,0,0,1-.3-.6v-1.6a1.6,1.6,0,0,1,.8-1.4l5.7-3.3a.66.66,0,0,1,.6-.1.6.6,0,0,1,.3.6v1.6a1.6,1.6,0,0,1-.8,1.4l-5.7,3.3C132,102.72,131.9,102.72,131.8,102.72Zm6.3-6.8a.37.37,0,0,0-.3.1l-5.7,3.3a1.56,1.56,0,0,0-.7,1.3v1.6c0,.2,0,.3.2.4s.3,0,.5-.1l5.7-3.3a1.56,1.56,0,0,0,.7-1.3v-1.6c0-.2,0-.3-.2-.4Z"/><path class="771a6680-85fa-430e-943a-312fc2bfbd77" d="M132.6,101.52h-.1c-.1-.1-.2-.2-.2-.3v-.8a.84.84,0,0,1,.4-.7l.7-.4a.25.25,0,0,1,.4.1.31.31,0,0,1,.1.2v.8a.84.84,0,0,1-.4.7l-.7.4Zm.2-1.7a.92.92,0,0,0-.4.6v.8c0,.1,0,.1.1.2h.2l.7-.4a.71.71,0,0,0,.3-.6v-.8c0-.1,0-.1-.1-.2h-.2Z"/><path class="771a6680-85fa-430e-943a-312fc2bfbd77" d="M134.7,99.12l2.8-1.6c.1,0,.2,0,.2.1V98c0,.1-.1.2-.2.3l-2.8,1.6c-.1,0-.2,0-.2-.1v-.4C134.5,99.22,134.6,99.12,134.7,99.12Z"/><path class="5f98c68c-75d3-4657-a2da-e26eaa95b2d0" d="M141.9,96.92c-.1,0-.2,0-.2-.1a.6.6,0,0,1-.3-.6v-1.5a1.6,1.6,0,0,1,.8-1.4l5.7-3.3a.53.53,0,0,1,.8.1.75.75,0,0,1,.1.5v1.6a1.6,1.6,0,0,1-.8,1.4l-5.7,3.3C142.2,96.82,142,96.92,141.9,96.92Zm6.4-6.9a.37.37,0,0,0-.3.1l-5.7,3.3a1.56,1.56,0,0,0-.7,1.3v1.6c0,.2,0,.3.2.4s.3,0,.5-.1l5.7-3.3a1.71,1.71,0,0,0,.7-1.3v-1.6c0-.2,0-.3-.2-.4Z"/><path class="5f98c68c-75d3-4657-a2da-e26eaa95b2d0" d="M142.7,95.72h-.1c-.1-.1-.2-.2-.2-.3v-.8a.84.84,0,0,1,.4-.7l.7-.4c.1-.1.2-.1.4,0s.2.2.2.3v.8a.84.84,0,0,1-.4.7l-.7.4C142.8,95.62,142.8,95.72,142.7,95.72Zm.2-1.8a.71.71,0,0,0-.3.6v.8c0,.1,0,.1.1.2h.2l.7-.4a.92.92,0,0,0,.4-.6v-.8c0-.1,0-.2-.1-.2h-.2Z"/><path class="5f98c68c-75d3-4657-a2da-e26eaa95b2d0" d="M144.8,93.22l2.8-1.6c.1,0,.2,0,.2.1v.4c0,.1-.1.2-.2.3L144.8,94c-.1,0-.2,0-.2-.1v-.4C144.7,93.32,144.7,93.22,144.8,93.22Z"/><path class="771a6680-85fa-430e-943a-312fc2bfbd77" d="M87.9,155.72h0a.1.1,0,0,1-.1-.1v-23.4a.1.1,0,0,1,.1-.1l18.8-10.8h.1l.1.1v23.3a.1.1,0,0,1-.1.1l-18.9,10.9Zm.2-23.4v23l18.5-10.7v-23Z"/><path class="771a6680-85fa-430e-943a-312fc2bfbd77" d="M89.4,144.82h0a.1.1,0,0,1-.1-.1V133a.1.1,0,0,1,.1-.1l15.9-9.2h.1l.1.1v11.7a.1.1,0,0,1-.1.1l-16,9.2Zm.1-11.7v11.4l15.6-9v-11.4Z"/><path class="771a6680-85fa-430e-943a-312fc2bfbd77" d="M89.5,146.32l4-2.3c.1,0,.2,0,.2.1v.5c0,.1-.1.2-.2.3l-4,2.3c-.1,0-.2,0-.2-.1v-.5C89.4,146.52,89.4,146.42,89.5,146.32Z"/><path class="5f98c68c-75d3-4657-a2da-e26eaa95b2d0" d="M89.5,148l12.7-7.4c.1,0,.2,0,.2.1v.5c0,.1-.1.2-.2.3l-12.7,7.4c-.1,0-.2,0-.2-.1v-.5C89.4,148.12,89.4,148,89.5,148Z"/><path class="5f98c68c-75d3-4657-a2da-e26eaa95b2d0" d="M89.5,151.32l12.7-7.4c.1,0,.2,0,.2.1v.5c0,.1-.1.2-.2.3l-12.7,7.4c-.1,0-.2,0-.2-.1v-.5C89.4,151.52,89.4,151.42,89.5,151.32Z"/><path class="5f98c68c-75d3-4657-a2da-e26eaa95b2d0" d="M89.5,149.62l12.7-7.4c.1,0,.2,0,.2.1v.5c0,.1-.1.2-.2.3l-12.7,7.3c-.1,0-.2,0-.2-.1v-.5C89.4,149.82,89.4,149.72,89.5,149.62Z"/><path class="771a6680-85fa-430e-943a-312fc2bfbd77" d="M105.3,135.72h0l-5.5-.9a.1.1,0,0,1-.1-.1h0c0-.1.1-.1.2-.1l5.5.9c.1,0,.1.1.1.2A.14.14,0,0,0,105.3,135.72Z"/><path class="771a6680-85fa-430e-943a-312fc2bfbd77" d="M94.9,134h0l-5.5-.9c-.1,0-.1-.1-.1-.2s.1-.1.2-.1l5.5.9c.1,0,.1.1.1.2S95,134,94.9,134Z"/><path class="771a6680-85fa-430e-943a-312fc2bfbd77" d="M89.4,144.82a.1.1,0,0,1-.1-.1v-.1l5.5-7.3c0-.1.1-.1.2,0s.1.1,0,.2h0l-5.5,7.3Z"/><path class="771a6680-85fa-430e-943a-312fc2bfbd77" d="M99.7,131.32a.1.1,0,0,1-.1-.1v-.1l5.5-7.3c0-.1.1-.1.2,0s.1.1,0,.2h0l-5.5,7.3C99.8,131.22,99.8,131.32,99.7,131.32Z"/><path class="771a6680-85fa-430e-943a-312fc2bfbd77" d="M97.3,133.52a1.56,1.56,0,0,0-.6,1.2c0,.5.3.7.6.6a1.56,1.56,0,0,0,.6-1.2C97.9,133.52,97.6,133.32,97.3,133.52Z"/><path class="771a6680-85fa-430e-943a-312fc2bfbd77" d="M98.6,132l-.4.3V132a.22.22,0,0,0-.2-.2l-1.3.7a.52.52,0,0,0-.2.4v.2l-.4.3a1.23,1.23,0,0,0-.4.8v2.3c0,.3.2.5.4.4l2.5-1.4a1.23,1.23,0,0,0,.4-.8v-2.3C98.9,132,98.8,131.82,98.6,132Zm-1.3,3.7c-.5.3-.9-.1-.9-.8a2.13,2.13,0,0,1,.9-1.8c.5-.3.9.1.9.8a2.27,2.27,0,0,1-.9,1.8Z"/><path class="771a6680-85fa-430e-943a-312fc2bfbd77" d="M111,142.32h0a.1.1,0,0,1-.1-.1v-23.4a.1.1,0,0,1,.1-.1l18.8-10.8h.1l.1.1v23.4a.1.1,0,0,1-.1.1L111,142.32Zm.2-23.4v23l18.5-10.7v-23Z"/><path class="771a6680-85fa-430e-943a-312fc2bfbd77" d="M112.5,131.52h0a.1.1,0,0,1-.1-.1v-11.7a.1.1,0,0,1,.1-.1l15.9-9.2h.1l.1.1v11.7a.1.1,0,0,1-.1.1l-16,9.2Zm.1-11.7v11.4l15.6-9v-11.5Z"/><path class="771a6680-85fa-430e-943a-312fc2bfbd77" d="M112.6,132.92l4-2.3c.1,0,.2,0,.2.1v.5c0,.1-.1.2-.2.3l-4,2.3c-.1,0-.2,0-.2-.1v-.5C112.5,133.12,112.5,133,112.6,132.92Z"/><path class="5f98c68c-75d3-4657-a2da-e26eaa95b2d0" d="M112.6,134.62l12.7-7.4c.1,0,.2,0,.2.1v.5c0,.1-.1.2-.2.3l-12.7,7.4c-.1,0-.2,0-.2-.1v-.5C112.5,134.82,112.5,134.72,112.6,134.62Z"/><path class="5f98c68c-75d3-4657-a2da-e26eaa95b2d0" d="M112.6,138l12.7-7.4h.1v.6c0,.1-.1.2-.2.3l-12.7,7.4c-.1,0-.2,0-.2-.1v-.5C112.5,138.12,112.5,138,112.6,138Z"/><path class="5f98c68c-75d3-4657-a2da-e26eaa95b2d0" d="M112.6,136.32l12.7-7.4c.1,0,.2,0,.2.1v.5c0,.1-.1.2-.2.3l-12.7,7.4c-.1,0-.2,0-.2-.1v-.5C112.5,136.42,112.5,136.32,112.6,136.32Z"/><path class="771a6680-85fa-430e-943a-312fc2bfbd77" d="M128.4,122.32h0l-5.5-.9c-.1,0-.1-.1-.1-.2s.1-.1.2-.1l5.5.9a.1.1,0,0,1,.1.1C128.5,122.32,128.4,122.32,128.4,122.32Z"/><path class="771a6680-85fa-430e-943a-312fc2bfbd77" d="M118,120.72h0l-5.5-.9c-.1,0-.1-.1-.1-.2s.1-.1.2-.1l5.5.9c.1,0,.1.1.1.2s-.1.1-.2.1Z"/><path class="771a6680-85fa-430e-943a-312fc2bfbd77" d="M112.5,131.52h0a.31.31,0,0,1-.1-.2l5.5-7.3c0-.1.1-.1.2,0s.1.1,0,.2l-5.5,7.3Z"/><path class="771a6680-85fa-430e-943a-312fc2bfbd77" d="M122.8,117.92h0c-.1-.1-.1-.1-.1-.2h0l5.5-7.3c0-.1.1-.1.2,0s.1.1,0,.2l-5.5,7.3Z"/><path class="771a6680-85fa-430e-943a-312fc2bfbd77" d="M120.4,120.12a1.56,1.56,0,0,0-.6,1.2c0,.5.3.7.6.6a1.56,1.56,0,0,0,.6-1.2C121,120.22,120.7,119.92,120.4,120.12Z"/><path class="771a6680-85fa-430e-943a-312fc2bfbd77" d="M121.7,118.62l-.4.3v-.2a.22.22,0,0,0-.2-.2l-1.3.7a.52.52,0,0,0-.2.4v.2l-.4.3a1.23,1.23,0,0,0-.4.8v2.3c0,.3.2.5.4.4l2.5-1.4a1.23,1.23,0,0,0,.4-.8v-2.3C122,118.62,121.9,118.52,121.7,118.62Zm-1.3,3.7c-.5.3-.9-.1-.9-.8a2.13,2.13,0,0,1,.9-1.8c.5-.3.9.1.9.8A2.13,2.13,0,0,1,120.4,122.32Z"/><path class="771a6680-85fa-430e-943a-312fc2bfbd77" d="M134.2,129h0a.1.1,0,0,1-.1-.1v-23.4a.1.1,0,0,1,.1-.1L153,94.62h.1l.1.1v23.4a.1.1,0,0,1-.1.1L134.2,129Zm.1-23.4v23l18.5-10.7V94.82Z"/><path class="771a6680-85fa-430e-943a-312fc2bfbd77" d="M135.6,118.22a.1.1,0,0,1-.1-.1v-11.7a.1.1,0,0,1,.1-.1l15.9-9.2h.1l.1.1v11.7a.1.1,0,0,1-.1.1l-16,9.2Zm.1-11.8v11.4l15.6-9V97.42Z"/><path class="771a6680-85fa-430e-943a-312fc2bfbd77" d="M135.8,119.62l4-2.3c.1,0,.2,0,.2.1v.5c0,.1-.1.2-.2.3l-4,2.3h-.1v-.6C135.6,119.82,135.7,119.72,135.8,119.62Z"/><path class="5f98c68c-75d3-4657-a2da-e26eaa95b2d0" d="M135.8,121.32l12.7-7.4c.1,0,.2,0,.2.1v.5c0,.1-.1.2-.2.3l-12.7,7.4h-.1v-.6C135.6,121.42,135.7,121.32,135.8,121.32Z"/><path class="5f98c68c-75d3-4657-a2da-e26eaa95b2d0" d="M135.8,124.62l12.7-7.4c.1,0,.2,0,.2.1v.5c0,.1-.1.2-.2.3l-12.7,7.4c-.1,0-.2,0-.2-.1v-.5C135.6,124.82,135.7,124.72,135.8,124.62Z"/><path class="5f98c68c-75d3-4657-a2da-e26eaa95b2d0" d="M135.8,122.92l12.7-7.3c.1,0,.2,0,.2.1v.5c0,.1-.1.2-.2.3l-12.7,7.3h-.1v-.6C135.6,123.12,135.7,123,135.8,122.92Z"/><path class="771a6680-85fa-430e-943a-312fc2bfbd77" d="M143.5,105.12a4.73,4.73,0,0,0-2.2,3.8c0,1.4,1,1.9,2.2,1.3a4.73,4.73,0,0,0,2.2-3.8C145.7,105,144.7,104.42,143.5,105.12Zm1.2,2-1.6,1.9c-.2.2-.3.1-.3-.1v-1.8a.43.43,0,0,1,.4-.4h1.3c.3.1.3.2.2.4Z"/><path class="771a6680-85fa-430e-943a-312fc2bfbd77" d="M158.7,94.32v2.5a1,1,0,0,1-.4.7l-2.1,1.2c-.2.1-.4,0-.4-.2v-2.4a1,1,0,0,1,.4-.7l2.1-1.2C158.6,93.92,158.7,94,158.7,94.32Z"/><path class="771a6680-85fa-430e-943a-312fc2bfbd77" d="M160.3,93.72l3.4-2c.1,0,.2,0,.2.1v.5c0,.1-.1.2-.2.3l-3.4,2c-.1,0-.2,0-.2-.1V94C160.2,93.92,160.2,93.82,160.3,93.72Z"/><path class="5f98c68c-75d3-4657-a2da-e26eaa95b2d0" d="M160.3,95.42l5.5-3.2c.1,0,.2,0,.2.1v.5c0,.1-.1.2-.2.3l-5.5,3.2c-.1,0-.2,0-.2-.1v-.5C160.2,95.62,160.2,95.52,160.3,95.42Z"/><path class="771a6680-85fa-430e-943a-312fc2bfbd77" d="M158.7,100.12v2.4a1,1,0,0,1-.4.7l-2.1,1.2c-.2.1-.4,0-.4-.2v-2.4a1,1,0,0,1,.4-.7l2.1-1.2C158.6,99.82,158.7,99.92,158.7,100.12Z"/><path class="771a6680-85fa-430e-943a-312fc2bfbd77" d="M160.3,99.62l3.4-2c.1,0,.2,0,.2.1v.5c0,.1-.1.2-.2.3l-3.4,2c-.1,0-.2,0-.2-.1v-.5C160.2,99.72,160.2,99.62,160.3,99.62Z"/><path class="5f98c68c-75d3-4657-a2da-e26eaa95b2d0" d="M160.3,101.22l5.5-3.2c.1,0,.2,0,.2.1v.5c0,.1-.1.2-.2.3l-5.5,3.2c-.1,0-.2,0-.2-.1v-.5C160.2,101.42,160.2,101.32,160.3,101.22Z"/><path class="771a6680-85fa-430e-943a-312fc2bfbd77" d="M158.7,105.92v2.4a1,1,0,0,1-.4.7l-2.1,1.2c-.2.1-.4,0-.4-.2v-2.4a1,1,0,0,1,.4-.7l2.1-1.2C158.6,105.62,158.7,105.72,158.7,105.92Z"/><path class="771a6680-85fa-430e-943a-312fc2bfbd77" d="M160.3,105.42l3.4-2c.1,0,.2,0,.2.1v.5c0,.1-.1.2-.2.3l-3.4,2c-.1,0-.2,0-.2-.1v-.5C160.2,105.62,160.2,105.52,160.3,105.42Z"/><path class="5f98c68c-75d3-4657-a2da-e26eaa95b2d0" d="M160.3,107.12l5.5-3.2c.1,0,.2,0,.2.1v.5c0,.1-.1.2-.2.3l-5.5,3.2c-.1,0-.2,0-.2-.1v-.5C160.2,107.22,160.2,107.12,160.3,107.12Z"/></g></g><path class="5f98c68c-75d3-4657-a2da-e26eaa95b2d0" d="M26.1,97.12l12.5-7.2a1.76,1.76,0,0,0,.8-1.5V77.62c0-.5-.4-.8-.8-.5l-12.5,7.2a1.76,1.76,0,0,0-.8,1.5v10.8A.52.52,0,0,0,26.1,97.12Z"/><path class="7570735f-556e-477c-8fcf-7741a90b0ff4" d="M25.7,97.42a.37.37,0,0,1-.3-.1c-.2-.2-.4-.4-.3-.7V85.82a1.89,1.89,0,0,1,.9-1.6L38.5,77a.75.75,0,0,1,.8-.1c.2.2.4.4.3.7v10.8a1.89,1.89,0,0,1-.9,1.6l-12.5,7.2A.76.76,0,0,1,25.7,97.42ZM39,77.22a.37.37,0,0,0-.3.1l-12.5,7.2a1.71,1.71,0,0,0-.7,1.3v10.8a.4.4,0,0,0,.2.4.6.6,0,0,0,.4-.1l12.5-7.2a1.71,1.71,0,0,0,.7-1.3V77.62a.6.6,0,0,0-.1-.4c-.1,0-.1-.1-.2,0Z"/><path class="771a6680-85fa-430e-943a-312fc2bfbd77" d="M27.3,85l3.9-2.3c.2-.1.4,0,.4.2v4.5a.84.84,0,0,1-.4.7l-3.9,2.2c-.2.1-.4,0-.4-.2v-4.5A.87.87,0,0,1,27.3,85Z"/><path class="771a6680-85fa-430e-943a-312fc2bfbd77" d="M33.3,81.52,37.7,79c.1-.1.2,0,.2.1v.6c0,.1-.1.2-.2.3l-4.4,2.5c-.1.1-.2,0-.2-.1v-.6C33.2,81.72,33.2,81.62,33.3,81.52Z"/><path class="771a6680-85fa-430e-943a-312fc2bfbd77" d="M33.3,83.82l4.4-2.5c.1-.1.2,0,.2.1V82c0,.1-.1.2-.2.3l-4.4,2.5h-.1v-.7A.37.37,0,0,1,33.3,83.82Z"/><path class="771a6680-85fa-430e-943a-312fc2bfbd77" d="M33.3,86l4.4-2.5h.1v.7c0,.1-.1.2-.2.3L33.2,87c-.1.1-.2,0-.2-.1v-.6C33.2,86.22,33.2,86.12,33.3,86Z"/><path class="771a6680-85fa-430e-943a-312fc2bfbd77" d="M27,91.92l10.7-6.2c.1-.1.2,0,.2.1v.6c0,.1-.1.2-.2.3L27,92.92c-.1.1-.2,0-.2-.1v-.6C26.9,92.12,26.9,92,27,91.92Z"/><path class="771a6680-85fa-430e-943a-312fc2bfbd77" d="M27,94.22,37.7,88c.1-.1.2,0,.2.1v.6c0,.1-.1.2-.2.3L27,95.22c-.1.1-.2,0-.2-.1v-.6C26.9,94.32,26.9,94.22,27,94.22Z"/><path class="7cea57be-0cb7-4634-8d5b-08da7c0b3c91" d="M24.5,83.52c-.1,0-.1,0-.1-.1s0-.2.1-.2h0l.4-.2c.1,0,.2,0,.2.1s0,.2-.1.2h0l-.5.2Z"/><path class="7cea57be-0cb7-4634-8d5b-08da7c0b3c91" d="M25.8,82.82a.1.1,0,0,1-.1-.1c0-.1,0-.1.1-.1l.9-.5c.1,0,.2,0,.2.1v.2l-1.1.4Zm1.8-1c-.1,0-.1,0-.1-.1s0-.2.1-.2l.9-.5c.1,0,.2,0,.2.1s0,.2-.1.2l-1,.5Zm1.8-1.1c-.1,0-.1,0-.1-.1s0-.2.1-.2h0l.9-.5c.1,0,.2,0,.2.1s0,.2-.1.2l-1,.5Zm1.7-1c-.1,0-.1,0-.1-.1s0-.2.1-.2l.9-.5h.2c0,.1,0,.2-.1.2h0l-1,.6Zm1.8-1a.1.1,0,0,1-.1-.1c0-.1,0-.1.1-.1l.9-.5c.1,0,.2,0,.2.1s0,.2-.1.2l-1,.4Zm1.8-1c-.1,0-.1,0-.1-.1v-.2h0l.9-.5c.1,0,.2,0,.2.1s0,.2-.1.2l-.9.5Zm1.8-1.1c-.1,0-.1,0-.1-.1s0-.2.1-.2h0l.9-.5h.2V76h0l-1.1.6Zm1.7-1c-.1,0-.1,0-.1-.1s0-.2.1-.2h0l.9-.5c.1,0,.2,0,.2.1s0,.2-.1.2h0l-1,.5Z"/><path class="7cea57be-0cb7-4634-8d5b-08da7c0b3c91" d="M40,74.62c-.1,0-.1,0-.1-.1v-.2h0l.4-.2c.1,0,.2,0,.2.1s0,.2-.1.2h0l-.4.2Z"/><path class="7cea57be-0cb7-4634-8d5b-08da7c0b3c91" d="M23.9,99.62a.1.1,0,0,1-.1-.1V99c0-.1,0-.2.1-.2s.2,0,.2.1h0v.5Z"/><path class="7cea57be-0cb7-4634-8d5b-08da7c0b3c91" d="M23.9,98.22a.1.1,0,0,1-.1-.1v-.9c0-.1.1-.1.2-.1a.1.1,0,0,1,.1.1v.9A.35.35,0,0,0,23.9,98.22Zm0-1.9a.1.1,0,0,1-.1-.1v-.9c0-.1.1-.1.2-.1a.1.1,0,0,1,.1.1v.9A.31.31,0,0,1,23.9,96.32Zm0-1.8a.1.1,0,0,1-.1-.1v-.9c0-.1,0-.2.1-.2s.2,0,.2.1h0v.9l-.2.2Zm0-1.9a.1.1,0,0,1-.1-.1v-.9a.1.1,0,1,1,.2,0v.9Zm0-1.9a.1.1,0,0,1-.1-.1v-.9a.1.1,0,0,1,.1-.1h0a.1.1,0,0,1,.1.1h0v.9A.1.1,0,0,1,23.9,90.72Zm0-1.8a.1.1,0,0,1-.1-.1h0v-.9a.1.1,0,0,1,.1-.1h0a.1.1,0,0,1,.1.1h0v.9l-.1.1Zm0-1.9a.1.1,0,0,1-.1-.1h0V86a.1.1,0,0,1,.2,0v.9a.1.1,0,0,1-.1.1Z"/><path class="7cea57be-0cb7-4634-8d5b-08da7c0b3c91" d="M23.9,85.12a.1.1,0,0,1-.1-.1v-.5a.1.1,0,0,1,.1-.1h0a.1.1,0,0,1,.1.1h0V85A.1.1,0,0,1,23.9,85.12Z"/><path class="7cea57be-0cb7-4634-8d5b-08da7c0b3c91" d="M40,91a.1.1,0,0,1-.1-.1c0-.1,0-.1.1-.1l.4-.2c.1,0,.2,0,.2.1h0c0,.1,0,.2-.1.2h0L40,91Z"/><path class="7cea57be-0cb7-4634-8d5b-08da7c0b3c91" d="M25.8,99.22c-.1,0-.1,0-.1-.1v-.2h0l.9-.5a.14.14,0,0,1,.2,0v.2h0l-1,.6Zm1.8-1c-.1,0-.1,0-.1-.1v-.2h0l.9-.5c.1,0,.2,0,.2.1s0,.2-.1.2h0l-.9.5Zm1.8-1c-.1,0-.1,0-.1-.1v-.2h0l.9-.5c.1,0,.2,0,.2.1s0,.2-.1.2h0l-.9.5Zm1.7-1c-.1,0-.1,0-.1-.1s0-.2.1-.2l.9-.5a.14.14,0,0,1,.2.2h0l-1.1.6c.1-.1.1,0,0,0Zm1.8-1.1c-.1,0-.1-.1-.1-.2a.1.1,0,0,1,.1-.1l.9-.5c.1,0,.2,0,.2.1s0,.2-.1.2h0l-1,.5Zm1.8-1a.1.1,0,0,1-.1-.1c0-.1,0-.1.1-.1l.9-.5c.1,0,.2,0,.2.1s0,.2-.1.2h0l-1,.4Zm1.8-1c-.1,0-.1,0-.1-.1s0-.2.1-.2h0l.9-.5h.2c0,.1,0,.2-.1.2l-1,.6Zm1.7-1a.1.1,0,0,1-.1-.1c0-.1,0-.1.1-.1l.9-.5c.1,0,.2,0,.2.1s0,.2-.1.2h0l-1,.4Z"/><path class="7cea57be-0cb7-4634-8d5b-08da7c0b3c91" d="M24.5,100c-.1,0-.1,0-.1-.1s0-.2.1-.2l.4-.2c.1,0,.2,0,.2.1s0,.2-.1.2h0l-.5.2Z"/><path class="7cea57be-0cb7-4634-8d5b-08da7c0b3c91" d="M41.1,75.22a.1.1,0,0,1-.1-.1h0v-.5a.1.1,0,0,1,.1-.1h0a.1.1,0,0,1,.1.1h0v.5A.1.1,0,0,1,41.1,75.22Z"/><path class="7cea57be-0cb7-4634-8d5b-08da7c0b3c91" d="M41.1,88.32a.1.1,0,0,1-.1-.1v-.9c0-.1,0-.2.1-.2s.2,0,.2.1h0v.9C41.2,88.22,41.2,88.32,41.1,88.32Zm0-1.9a.1.1,0,0,1-.1-.1v-.9c0-.1,0-.2.1-.2s.2,0,.2.1h0v.9c-.1.1-.1.2-.2.2Zm0-1.9a.1.1,0,0,1-.1-.1v-.9c0-.1.1-.1.2-.1a.1.1,0,0,1,.1.1v.9c-.1.1-.1.1-.2.1Zm0-1.8a.1.1,0,0,1-.1-.1v-.9a.1.1,0,0,1,.1-.1h0a.1.1,0,0,1,.1.1h0v.9a.1.1,0,0,1-.1.1Zm0-1.9a.1.1,0,0,1-.1-.1h0v-1a.1.1,0,0,1,.1-.1h0a.1.1,0,0,1,.1.1h0v.9c0,.1,0,.2-.1.2Zm0-1.9a.1.1,0,0,1-.1-.1h0v-.9a.1.1,0,0,1,.1-.1h0a.1.1,0,0,1,.1.1h0v.9c0,.1,0,.1-.1.1Zm0-1.8A.1.1,0,0,1,41,77v-.9a.1.1,0,0,1,.1-.1h0a.1.1,0,0,1,.1.1h0V77a.1.1,0,0,1-.1.1Z"/><path class="7cea57be-0cb7-4634-8d5b-08da7c0b3c91" d="M41.1,89.72a.1.1,0,0,1-.1-.1v-.5c0-.1.1-.1.2-.1a.1.1,0,0,1,.1.1v.5c-.1,0-.1.1-.2.1Z"/><path class="7cea57be-0cb7-4634-8d5b-08da7c0b3c91" d="M40.4,75.12h0a.1.1,0,0,1-.1-.1v-1.5c0-.1,0-.1.1-.1l1.3-.7h.1l.1.1v1.5c0,.1,0,.1-.1.1l-1.4.7Zm.2-1.6v1.2l1-.6v-1.2Z"/><path class="7cea57be-0cb7-4634-8d5b-08da7c0b3c91" d="M40.4,91.52h0a.1.1,0,0,1-.1-.1v-1.5c0-.1,0-.1.1-.1l1.3-.7h.2v1.6c0,.1,0,.1-.1.1l-1.4.7Zm.2-1.5v1.2l1-.6v-1.2Z"/><path class="7cea57be-0cb7-4634-8d5b-08da7c0b3c91" d="M23.2,85h0a.1.1,0,0,1-.1-.1v-1.5c0-.1,0-.1.1-.1l1.3-.8h.1l.1.1v1.5c0,.1,0,.1-.1.1l-1.4.8Zm.1-1.5v1.2l1-.6v-1.2Z"/><path class="7cea57be-0cb7-4634-8d5b-08da7c0b3c91" d="M23.2,101.52h0a.1.1,0,0,1-.1-.1v-1.5c0-.1,0-.1.1-.1l1.3-.7h.1l.1.1v1.5c0,.1,0,.1-.1.1l-1.4.7Zm.1-1.6v1.2l1-.6v-1.2Z"/><path class="7cea57be-0cb7-4634-8d5b-08da7c0b3c91" d="M41.7,82.62a1.21,1.21,0,0,1-.7,1.2c-.4.2-.7,0-.7-.5a1.21,1.21,0,0,1,.7-1.2C41.4,81.92,41.7,82.12,41.7,82.62Z"/><path class="7cea57be-0cb7-4634-8d5b-08da7c0b3c91" d="M33.1,78.42a1.31,1.31,0,0,1-.6,1.2c-.4.2-.7,0-.7-.5a1.21,1.21,0,0,1,.7-1.2C32.8,77.72,33.1,77.92,33.1,78.42Z"/><path class="7cea57be-0cb7-4634-8d5b-08da7c0b3c91" d="M33.1,94.92a1.31,1.31,0,0,1-.6,1.2c-.4.2-.7,0-.7-.5a1.21,1.21,0,0,1,.7-1.2C32.8,94.22,33.1,94.42,33.1,94.92Z"/><path class="7cea57be-0cb7-4634-8d5b-08da7c0b3c91" d="M24.5,92.62a1.21,1.21,0,0,1-.7,1.2c-.4.2-.7,0-.7-.5a1.52,1.52,0,0,1,.7-1.2C24.2,91.92,24.5,92.12,24.5,92.62Z"/><path class="5f98c68c-75d3-4657-a2da-e26eaa95b2d0" d="M26.1,118.92l12.5-7.2a1.76,1.76,0,0,0,.8-1.5V99.42c0-.5-.4-.8-.8-.5l-12.5,7.2a1.76,1.76,0,0,0-.8,1.5v10.8C25.3,119,25.7,119.22,26.1,118.92Z"/><path class="7570735f-556e-477c-8fcf-7741a90b0ff4" d="M25.7,119.22a.37.37,0,0,1-.3-.1c-.2-.2-.4-.4-.3-.7v-10.8A1.89,1.89,0,0,1,26,106l12.5-7.2a.75.75,0,0,1,.8-.1c.2.2.4.4.3.7v10.8a1.89,1.89,0,0,1-.9,1.6L26.2,119C26.1,119.22,25.9,119.22,25.7,119.22ZM39,99a.37.37,0,0,0-.3.1l-12.5,7.2a1.71,1.71,0,0,0-.7,1.3v10.8a.4.4,0,0,0,.2.4.6.6,0,0,0,.4-.1l12.5-7.3a1.71,1.71,0,0,0,.7-1.3V99.32a.6.6,0,0,0-.1-.4c-.1.1-.1.1-.2.1Z"/><path class="771a6680-85fa-430e-943a-312fc2bfbd77" d="M32.4,106.22a5.22,5.22,0,0,0-2.4,4.1c0,1.5,1.1,2.1,2.4,1.4a5.22,5.22,0,0,0,2.4-4.1C34.8,106,33.7,105.42,32.4,106.22Zm1.2,2.2-1.8,2.1c-.2.2-.3.2-.3-.1v-2a.47.47,0,0,1,.5-.5h0l1.4.1c.3,0,.4.2.2.4Z"/><path class="7cea57be-0cb7-4634-8d5b-08da7c0b3c91" d="M24.5,105.42c-.1,0-.1,0-.1-.1s0-.2.1-.2h0l.4-.2a.14.14,0,0,1,.2,0v.2h0l-.6.3Z"/><path class="7cea57be-0cb7-4634-8d5b-08da7c0b3c91" d="M25.8,104.62c-.1,0-.1,0-.1-.1s0-.2.1-.2h0l.9-.5c.1,0,.2,0,.2.1v.2l-1.1.5Zm1.8-1c-.1,0-.1,0-.1-.1s0-.2.1-.2h0l.9-.5c.1,0,.2,0,.2.1s0,.2-.1.2h0l-1,.5Zm1.8-1a.1.1,0,0,1-.1-.1c0-.1,0-.1.1-.1l.9-.5c.1,0,.2,0,.2.1s0,.2-.1.2h0l-1,.4Zm1.7-1c-.1,0-.1,0-.1-.1s0-.2.1-.2h0l.9-.5c.1,0,.2,0,.2.1v.2l-1.1.5c.1-.1.1,0,0,0Zm1.8-1.1c-.1,0-.1,0-.1-.1s0-.2.1-.2h0l.9-.5c.1,0,.2,0,.2.1s0,.2-.1.2h0l-1,.5Zm1.8-1c-.1,0-.1,0-.1-.1v-.2h0l.9-.5c.1,0,.2,0,.2.1s0,.2-.1.2h0l-.9.5Zm1.8-1c-.1,0-.1,0-.1-.1s0-.2.1-.2h0l.9-.5c.1,0,.2,0,.2.1h0c0,.1,0,.2-.1.2h0l-1,.5Zm1.7-1c-.1,0-.1,0-.1-.1s0-.2.1-.2l.9-.5c.1,0,.2,0,.2.1s0,.2-.1.2h0l-1,.5Z"/><path class="7cea57be-0cb7-4634-8d5b-08da7c0b3c91" d="M40,96.42c-.1,0-.1,0-.1-.1s0-.2.1-.2l.4-.2c.1,0,.2,0,.2.1s0,.2-.1.2l-.5.2Z"/><path class="7cea57be-0cb7-4634-8d5b-08da7c0b3c91" d="M23.9,121.52a.1.1,0,0,1-.1-.1v-.5c0-.1.1-.1.2-.1a.1.1,0,0,1,.1.1v.5a.35.35,0,0,0-.2.1Z"/><path class="7cea57be-0cb7-4634-8d5b-08da7c0b3c91" d="M23.9,120a.1.1,0,0,1-.1-.1V119c0-.1,0-.2.1-.2s.2,0,.2.1h0v.9C24,120,23.9,120,23.9,120Zm0-1.8a.1.1,0,0,1-.1-.1v-.9c0-.1,0-.2.1-.2s.2,0,.2.1h0v.9l-.2.2Zm0-1.9a.1.1,0,0,1-.1-.1v-.9c0-.1.1-.1.2-.1a.1.1,0,0,1,.1.1v1Zm0-1.9a.1.1,0,0,1-.1-.1v-.9a.1.1,0,0,1,.1-.1h0a.1.1,0,0,1,.1.1h0v.9a.1.1,0,0,1-.1.1Zm0-1.8a.1.1,0,0,1-.1-.1h0v-.9a.1.1,0,1,1,.2,0v.9Zm0-1.9a.1.1,0,0,1-.1-.1v-.9a.1.1,0,0,1,.1-.1h0a.1.1,0,0,1,.1.1h0v.9A.1.1,0,0,1,23.9,110.72Zm0-1.8a.1.1,0,0,1-.1-.1h0v-.9a.1.1,0,0,1,.1-.1h0a.1.1,0,0,1,.1.1h0v.9l-.1.1Z"/><path class="7cea57be-0cb7-4634-8d5b-08da7c0b3c91" d="M23.9,107a.1.1,0,0,1-.1-.1h0v-.5a.1.1,0,0,1,.1-.1h0a.1.1,0,0,1,.1.1h0v.5Z"/><path class="7cea57be-0cb7-4634-8d5b-08da7c0b3c91" d="M40,112.92c-.1,0-.1,0-.1-.1s0-.2.1-.2h0l.4-.2c.1,0,.2,0,.2.1h0c0,.1,0,.2-.1.2h0l-.5.2Z"/><path class="7cea57be-0cb7-4634-8d5b-08da7c0b3c91" d="M25.8,121.12c-.1,0-.1,0-.1-.1v-.2h0l.9-.5c.1,0,.2,0,.2.1s0,.2-.1.2h0l-.9.5Zm1.8-1.1c-.1,0-.1,0-.1-.1s0-.2.1-.2l.9-.5c.1,0,.2,0,.2.1s0,.2-.1.2l-1,.5Zm1.8-1c-.1,0-.1,0-.1-.1v-.2h0l.9-.5c.1,0,.2,0,.2.1s0,.2-.1.2h0l-.9.5Zm1.7-1c-.1,0-.1,0-.1-.1v-.2h0l.9-.5c.1,0,.2,0,.2.1s0,.2-.1.2h0l-.9.5Zm1.8-1c-.1,0-.1,0-.1-.1s0-.2.1-.2l.9-.5c.1,0,.2,0,.2.1h0c0,.1,0,.2-.1.2l-1,.5Zm1.8-1.1a.1.1,0,0,1-.1-.1c0-.1,0-.1.1-.1l.9-.5a.14.14,0,1,1,.2.2h0l-1.1.5Zm1.8-1a.1.1,0,0,1-.1-.1c0-.1,0-.1.1-.1l.9-.5c.1,0,.2,0,.2.1s0,.2-.1.2h0l-1,.4Zm1.7-1a.1.1,0,0,1-.1-.1c0-.1,0-.1.1-.1l.9-.5c.1,0,.2,0,.2.1s0,.2-.1.2h0l-1,.4Z"/><path class="7cea57be-0cb7-4634-8d5b-08da7c0b3c91" d="M24.5,121.82c-.1,0-.1,0-.1-.1s0-.2.1-.2h0l.4-.2c.1,0,.2,0,.2.1s0,.2-.1.2h0l-.5.2Z"/><path class="7cea57be-0cb7-4634-8d5b-08da7c0b3c91" d="M41.1,97.12A.1.1,0,0,1,41,97v-.5a.1.1,0,0,1,.1-.1h0a.1.1,0,0,1,.1.1h0V97A.1.1,0,0,1,41.1,97.12Z"/><path class="7cea57be-0cb7-4634-8d5b-08da7c0b3c91" d="M41.1,110.12a.1.1,0,0,1-.1-.1v-.9c0-.1.1-.1.2-.1a.1.1,0,0,1,.1.1v.9C41.2,110,41.2,110.12,41.1,110.12Zm0-1.9a.1.1,0,0,1-.1-.1v-.9c0-.1.1-.1.2-.1a.1.1,0,0,1,.1.1v.9C41.2,108.22,41.2,108.22,41.1,108.22Zm0-1.8a.1.1,0,0,1-.1-.1v-.9c0-.1,0-.2.1-.2s.2,0,.2.1h0v.9c-.1.1-.1.2-.2.2Zm0-1.9a.1.1,0,0,1-.1-.1v-.9a.1.1,0,1,1,.2,0v.9a.1.1,0,0,1-.1.1Zm0-1.9a.1.1,0,0,1-.1-.1v-.9c0-.1,0-.1.1-.2h0a.1.1,0,0,1,.1.1h0v.9c0,.2,0,.2-.1.2Zm0-1.8a.1.1,0,0,1-.1-.1h0v-1a.1.1,0,0,1,.1-.1h0a.1.1,0,0,1,.1.1h0v.9c0,.1,0,.2-.1.2Zm0-1.9a.1.1,0,0,1-.1-.1h0v-.9a.1.1,0,1,1,.2,0v.9a.1.1,0,0,1-.1.1Z"/><path class="7cea57be-0cb7-4634-8d5b-08da7c0b3c91" d="M41.1,111.52a.1.1,0,0,1-.1-.1v-.5c0-.1,0-.2.1-.2s.2,0,.2.1h0v.5C41.2,111.52,41.2,111.52,41.1,111.52Z"/><path class="7cea57be-0cb7-4634-8d5b-08da7c0b3c91" d="M40.4,96.92h0a.1.1,0,0,1-.1-.1v-1.5c0-.1,0-.1.1-.1l1.3-.8h.1l.1.1V96c0,.1,0,.1-.1.1l-1.4.8Zm.2-1.5v1.2l1-.6v-1.2Z"/><path class="7cea57be-0cb7-4634-8d5b-08da7c0b3c91" d="M40.4,113.42h0a.1.1,0,0,1-.1-.1v-1.6c0-.1,0-.1.1-.1l1.3-.7h.1l.1.1v1.5c0,.1,0,.1-.1.1l-1.4.8Zm.2-1.6V113l1-.6v-1.2Z"/><path class="7cea57be-0cb7-4634-8d5b-08da7c0b3c91" d="M23.2,106.92h0a.1.1,0,0,1-.1-.1v-1.5c0-.1,0-.1.1-.1l1.3-.7h.2v1.6c0,.1,0,.1-.1.1l-1.4.7Zm.1-1.6v1.2l1-.6v-1.2Z"/><path class="7cea57be-0cb7-4634-8d5b-08da7c0b3c91" d="M23.2,123.32h0a.1.1,0,0,1-.1-.1v-1.5c0-.1,0-.1.1-.1l1.3-.7h.2v1.6c0,.1,0,.1-.1.1l-1.4.7Zm.1-1.5V123l1-.6v-1.2Z"/><path class="7cea57be-0cb7-4634-8d5b-08da7c0b3c91" d="M41.7,104.42a1.31,1.31,0,0,1-.6,1.2c-.4.2-.7,0-.7-.5a1.21,1.21,0,0,1,.7-1.2C41.4,103.72,41.7,104,41.7,104.42Z"/><path class="7cea57be-0cb7-4634-8d5b-08da7c0b3c91" d="M33.1,100.32a1.31,1.31,0,0,1-.6,1.2c-.4.2-.7,0-.7-.5a1.21,1.21,0,0,1,.7-1.2C32.8,99.62,33.1,99.82,33.1,100.32Z"/><path class="7cea57be-0cb7-4634-8d5b-08da7c0b3c91" d="M33.1,116.72a1.31,1.31,0,0,1-.6,1.2c-.4.2-.7,0-.7-.5a1.21,1.21,0,0,1,.7-1.2C32.8,116,33.1,116.22,33.1,116.72Z"/><path class="7cea57be-0cb7-4634-8d5b-08da7c0b3c91" d="M24.5,114.42a1.21,1.21,0,0,1-.7,1.2c-.4.2-.7,0-.7-.5a1.21,1.21,0,0,1,.7-1.2C24.2,113.72,24.5,113.92,24.5,114.42Z"/><path class="5f98c68c-75d3-4657-a2da-e26eaa95b2d0" d="M26.1,140.82l12.5-7.2a1.76,1.76,0,0,0,.8-1.5v-10.8c0-.5-.4-.8-.8-.5l-12.5,7.3a1.76,1.76,0,0,0-.8,1.5v10.8C25.3,140.82,25.7,141,26.1,140.82Z"/><path class="7570735f-556e-477c-8fcf-7741a90b0ff4" d="M25.7,141.12a.37.37,0,0,1-.3-.1c-.2-.2-.4-.4-.3-.7v-10.8a1.89,1.89,0,0,1,.9-1.6l12.5-7.2a.75.75,0,0,1,.8-.1c.2.2.4.4.3.7v10.8a1.89,1.89,0,0,1-.9,1.6l-12.5,7.2A.76.76,0,0,1,25.7,141.12ZM39,120.82a.37.37,0,0,0-.3.1l-12.5,7.2a1.71,1.71,0,0,0-.7,1.3v10.8a.4.4,0,0,0,.2.4.6.6,0,0,0,.4-.1l12.5-7.2a1.71,1.71,0,0,0,.7-1.3v-10.9a.6.6,0,0,0-.1-.4C39.1,120.82,39.1,120.82,39,120.82Z"/><polygon class="771a6680-85fa-430e-943a-312fc2bfbd77" points="26.9 138.62 38 132.12 35.9 128.32 34.7 131.32 35.1 132.42 31.3 128.32 26.9 138.62"/><path class="771a6680-85fa-430e-943a-312fc2bfbd77" d="M34.7,125.72a1.92,1.92,0,0,0-.9,1.6c0,.6.4.8.9.5a1.92,1.92,0,0,0,.9-1.6C35.6,125.62,35.2,125.42,34.7,125.72Z"/><path class="7cea57be-0cb7-4634-8d5b-08da7c0b3c91" d="M24.5,127.22c-.1,0-.1,0-.1-.1s0-.2.1-.2l.4-.2c.1,0,.2,0,.2.1s0,.2-.1.2h0l-.5.2Z"/><path class="7cea57be-0cb7-4634-8d5b-08da7c0b3c91" d="M25.8,126.52c-.1,0-.1,0-.1-.1s0-.2.1-.2l.9-.5c.1,0,.2,0,.2.1v.2l-1.1.5Zm1.8-1.1c-.1,0-.1,0-.1-.1s0-.2.1-.2l.9-.5c.1,0,.2,0,.2.1s0,.2-.1.2l-1,.5Zm1.8-1c-.1,0-.1,0-.1-.1s0-.2.1-.2h0l.9-.5c.1,0,.2,0,.2.1s0,.2-.1.2l-1,.5Zm1.7-1c-.1,0-.1,0-.1-.1s0-.2.1-.2l.9-.5c.1,0,.2,0,.2.1s0,.2-.1.2l-1,.5Zm1.8-1c-.1,0-.1,0-.1-.1s0-.2.1-.2l.9-.5c.1,0,.2,0,.2.1s0,.2-.1.2l-1,.5Zm1.8-1c-.1,0-.1,0-.1-.1v-.2h0l.9-.5a.14.14,0,0,1,.2.2h0l-1,.6Zm1.8-1.1c-.1,0-.1,0-.1-.1s0-.2.1-.2h0l.9-.5c.1,0,.2,0,.2.1s0,.2-.1.2h0l-1,.5Zm1.7-1c-.1,0-.1,0-.1-.1s0-.2.1-.2h0l.9-.5c.1,0,.2,0,.2.1s0,.2-.1.2h0l-1,.5Z"/><path class="7cea57be-0cb7-4634-8d5b-08da7c0b3c91" d="M40,118.32c-.1,0-.1,0-.1-.1V118h0l.4-.2c.1,0,.2,0,.2.1s0,.2-.1.2h0l-.4.2Z"/><path class="7cea57be-0cb7-4634-8d5b-08da7c0b3c91" d="M23.9,143.32a.1.1,0,0,1-.1-.1v-.5c0-.1,0-.2.1-.2s.2,0,.2.1h0v.5Z"/><path class="7cea57be-0cb7-4634-8d5b-08da7c0b3c91" d="M23.9,141.92a.1.1,0,0,1-.1-.1v-.9c0-.1.1-.1.2-.1a.1.1,0,0,1,.1.1v.9a.35.35,0,0,0-.2.1Zm0-1.9a.1.1,0,0,1-.1-.1V139c0-.1,0-.2.1-.2s.2,0,.2.1h0v.9c-.1.2-.2.2-.2.2Zm0-1.8a.1.1,0,0,1-.1-.1v-.9c0-.1,0-.2.1-.2s.2,0,.2.1h0v.9l-.2.2Zm0-1.9a.1.1,0,0,1-.1-.1v-.9a.1.1,0,0,1,.2,0v.9l-.1.1Zm0-1.9a.1.1,0,0,1-.1-.1v-.9a.1.1,0,0,1,.1-.1h0a.1.1,0,0,1,.1.1h0v.9A.1.1,0,0,1,23.9,134.42Zm0-1.8a.1.1,0,0,1-.1-.1h0v-.9a.1.1,0,0,1,.2,0v.9l-.1.1Zm0-1.9a.1.1,0,0,1-.1-.1h0v-.9a.1.1,0,0,1,.1-.1h0a.1.1,0,0,1,.1.1h0v.9l-.1.1Z"/><path class="7cea57be-0cb7-4634-8d5b-08da7c0b3c91" d="M23.9,128.82a.1.1,0,0,1-.1-.1v-.5a.1.1,0,0,1,.1-.1h0a.1.1,0,0,1,.1.1h0v.5A.1.1,0,0,1,23.9,128.82Z"/><path class="7cea57be-0cb7-4634-8d5b-08da7c0b3c91" d="M40,134.72a.1.1,0,0,1-.1-.1c0-.1,0-.1.1-.1l.4-.2c.1,0,.2,0,.2.1h0c0,.1,0,.2-.1.2h0l-.5.1Z"/><path class="7cea57be-0cb7-4634-8d5b-08da7c0b3c91" d="M25.8,142.92c-.1,0-.1,0-.1-.1v-.2h0l.9-.5c.1,0,.2,0,.2.1s0,.2-.1.2h0l-.9.5Zm1.8-1c-.1,0-.1,0-.1-.1v-.2h0l.9-.5c.1,0,.2,0,.2.1s0,.2-.1.2h0l-.9.5Zm1.8-1c-.1,0-.1,0-.1-.1v-.2h0l.9-.5c.1,0,.2,0,.2.1s0,.2-.1.2h0l-.9.5Zm1.7-1.1c-.1,0-.1,0-.1-.1s0-.2.1-.2l.9-.5c.1,0,.2,0,.2.1s0,.2-.1.2l-1,.5Zm1.8-1c-.1,0-.1-.1-.1-.2a.1.1,0,0,1,.1-.1l.9-.5c.1,0,.2,0,.2.1s0,.2-.1.2h0l-1,.5Zm1.8-1a.1.1,0,0,1-.1-.1c0-.1,0-.1.1-.1l.9-.5c.1,0,.2,0,.2.1s0,.2-.1.2h0l-1,.4Zm1.8-1c-.1,0-.1,0-.1-.1s0-.2.1-.2h0l.9-.5c.1,0,.2,0,.2.1s0,.2-.1.2l-1,.5Zm1.7-1a.1.1,0,0,1-.1-.1c0-.1,0-.1.1-.1l.9-.5c.1,0,.2,0,.2.1s0,.2-.1.2h0l-1,.4c.1-.1.1,0,0,0Z"/><path class="7cea57be-0cb7-4634-8d5b-08da7c0b3c91" d="M24.5,143.72c-.1,0-.1,0-.1-.1s0-.2.1-.2l.4-.2c.1,0,.2,0,.2.1s0,.2-.1.2l-.5.2Z"/><path class="7cea57be-0cb7-4634-8d5b-08da7c0b3c91" d="M41.1,118.92a.1.1,0,0,1-.1-.1h0v-.5a.1.1,0,0,1,.1-.1h0a.1.1,0,0,1,.1.1h0v.5a.1.1,0,0,1-.1.1Z"/><path class="7cea57be-0cb7-4634-8d5b-08da7c0b3c91" d="M41.1,131.92a.1.1,0,0,1-.1-.1v-.9c0-.1,0-.2.1-.2s.2,0,.2.1h0v.9C41.2,131.92,41.2,131.92,41.1,131.92Zm0-1.8a.1.1,0,0,1-.1-.1v-.9c0-.1,0-.2.1-.2s.2,0,.2.1h0v.9C41.2,130,41.2,130.12,41.1,130.12Zm0-1.9a.1.1,0,0,1-.1-.1v-.9c0-.1.1-.1.2-.1a.1.1,0,0,1,.1.1v.9c-.1.1-.1.1-.2.1Zm0-1.8a.1.1,0,0,1-.1-.1v-.9c0-.1.1-.1.1-.2h0a.1.1,0,0,1,.1.1h0v.9c0,.1,0,.2-.1.2Zm0-1.9a.1.1,0,0,1-.1-.1h0v-.9a.1.1,0,0,1,.1-.1h0a.1.1,0,0,1,.1.1h0v.9A.1.1,0,0,1,41.1,124.52Zm0-1.9a.1.1,0,0,1-.1-.1h0v-.9a.1.1,0,1,1,.2,0v.9c0,.1,0,.1-.1.1Zm0-1.8a.1.1,0,0,1-.1-.1h0v-1a.1.1,0,0,1,.1-.1h0a.1.1,0,0,1,.1.1h0v.9c0,.1,0,.2-.1.2Z"/><path class="7cea57be-0cb7-4634-8d5b-08da7c0b3c91" d="M41.1,133.42a.1.1,0,0,1-.1-.1v-.6c0-.1.1-.1.2-.1a.1.1,0,0,1,.1.1v.5c-.1.1-.1.2-.2.2Z"/><path class="7cea57be-0cb7-4634-8d5b-08da7c0b3c91" d="M40.4,118.82h0a.1.1,0,0,1-.1-.1v-1.5c0-.1,0-.1.1-.1l1.3-.7h.1l.1.1V118c0,.1,0,.1-.1.1l-1.4.7Zm.2-1.6v1.2l1-.6v-1.1Z"/><path class="7cea57be-0cb7-4634-8d5b-08da7c0b3c91" d="M40.4,135.22h0a.1.1,0,0,1-.1-.1v-1.5c0-.1,0-.1.1-.1l1.3-.7h.2v1.6c0,.1,0,.1-.1.1l-1.4.7Zm.2-1.5v1.2l1-.6v-1.2Z"/><path class="7cea57be-0cb7-4634-8d5b-08da7c0b3c91" d="M23.2,128.72h0a.1.1,0,0,1-.1-.1v-1.5c0-.1,0-.1.1-.1l1.3-.7h.1l.1.1v1.5c0,.1,0,.1-.1.1l-1.4.7Zm.1-1.5v1.2l1-.6v-1.2Z"/><path class="7cea57be-0cb7-4634-8d5b-08da7c0b3c91" d="M23.2,145.22h0a.1.1,0,0,1-.1-.1v-1.5c0-.1,0-.1.1-.1l1.3-.7h.1l.1.1v1.5c0,.1,0,.1-.1.1l-1.4.7Zm.1-1.6v1.2l1-.6V143Z"/><path class="7cea57be-0cb7-4634-8d5b-08da7c0b3c91" d="M41.7,126.32a1.21,1.21,0,0,1-.7,1.2c-.4.2-.7,0-.7-.5a1.21,1.21,0,0,1,.7-1.2C41.4,125.62,41.7,125.82,41.7,126.32Z"/><path class="7cea57be-0cb7-4634-8d5b-08da7c0b3c91" d="M33.1,122.12a1.31,1.31,0,0,1-.6,1.2c-.4.2-.7,0-.7-.5a1.21,1.21,0,0,1,.7-1.2C32.8,121.42,33.1,121.62,33.1,122.12Z"/><path class="7cea57be-0cb7-4634-8d5b-08da7c0b3c91" d="M33.1,138.62a1.31,1.31,0,0,1-.6,1.2c-.4.2-.7,0-.7-.5a1.21,1.21,0,0,1,.7-1.2C32.8,137.92,33.1,138.12,33.1,138.62Z"/><path class="7cea57be-0cb7-4634-8d5b-08da7c0b3c91" d="M24.5,136.22a1.21,1.21,0,0,1-.7,1.2c-.4.2-.7,0-.7-.5a1.21,1.21,0,0,1,.7-1.2C24.2,135.52,24.5,135.82,24.5,136.22Z"/><path class="5f98c68c-75d3-4657-a2da-e26eaa95b2d0" d="M26.1,162.62l12.5-7.2a1.76,1.76,0,0,0,.8-1.5v-10.8c0-.5-.4-.8-.8-.5l-12.5,7.2a1.76,1.76,0,0,0-.8,1.5v10.8C25.3,162.72,25.7,162.92,26.1,162.62Z"/><path class="7570735f-556e-477c-8fcf-7741a90b0ff4" d="M25.7,162.92a.37.37,0,0,1-.3-.1c-.2-.2-.4-.4-.3-.7v-10.8a1.89,1.89,0,0,1,.9-1.6l12.5-7.2a.75.75,0,0,1,.8-.1c.2.2.4.4.3.7v10.8a1.89,1.89,0,0,1-.9,1.6l-12.5,7.2C26.1,162.92,25.9,162.92,25.7,162.92ZM39,142.72a.37.37,0,0,0-.3.1L26.2,150a1.71,1.71,0,0,0-.7,1.3v10.8a.4.4,0,0,0,.2.4.6.6,0,0,0,.4-.1l12.5-7.2a1.71,1.71,0,0,0,.7-1.3v-10.8a.6.6,0,0,0-.1-.4Z"/><path class="7cea57be-0cb7-4634-8d5b-08da7c0b3c91" d="M24.5,149.12c-.1,0-.1,0-.1-.1s0-.2.1-.2h0l.4-.2a.14.14,0,0,1,.2.2h0l-.6.3Z"/><path class="7cea57be-0cb7-4634-8d5b-08da7c0b3c91" d="M25.8,148.32c-.1,0-.1,0-.1-.1s0-.2.1-.2h0l.9-.5c.1,0,.2,0,.2.1v.2l-1.1.5Zm1.8-1c-.1,0-.1,0-.1-.1s0-.2.1-.2h0l.9-.5c.1,0,.2,0,.2.1s0,.2-.1.2h0l-1,.5Zm1.8-1a.1.1,0,0,1-.1-.1c0-.1,0-.1.1-.1l.9-.5c.1,0,.2,0,.2.1s0,.2-.1.2h0l-1,.4Zm1.7-1.1c-.1,0-.1,0-.1-.1s0-.2.1-.2h0l.9-.5c.1,0,.2,0,.2.1h0c0,.1,0,.2-.1.2h0l-1,.5Zm1.8-1c-.1,0-.1,0-.1-.1s0-.2.1-.2h0l.9-.5c.1,0,.2,0,.2.1s0,.2-.1.2h0l-1,.5Zm1.8-1c-.1,0-.1,0-.1-.1v-.2h0l.9-.5c.1,0,.2,0,.2.1s0,.2-.1.2h0l-.9.5Zm1.8-1c-.1,0-.1,0-.1-.1s0-.2.1-.2l.9-.5c.1,0,.2,0,.2.1s0,.2-.1.2h0l-1,.5Zm1.7-1c-.1,0-.1,0-.1-.1s0-.2.1-.2l.9-.5c.1,0,.2,0,.2.1s0,.2-.1.2h0l-1,.5Z"/><path class="7cea57be-0cb7-4634-8d5b-08da7c0b3c91" d="M40,140.12c-.1,0-.1,0-.1-.1s0-.2.1-.2l.4-.2c.1,0,.2,0,.2.1s0,.2-.1.2l-.5.2Z"/><path class="7cea57be-0cb7-4634-8d5b-08da7c0b3c91" d="M23.9,165.12a.1.1,0,0,1-.1-.1v-.5c0-.1.1-.1.2-.1a.1.1,0,0,1,.1.1v.5a.31.31,0,0,1-.2.1Z"/><path class="7cea57be-0cb7-4634-8d5b-08da7c0b3c91" d="M23.9,163.72a.1.1,0,0,1-.1-.1v-.9c0-.1,0-.2.1-.2s.2,0,.2.1h0v.9C24,163.72,23.9,163.72,23.9,163.72Zm0-1.8a.1.1,0,0,1-.1-.1v-.9c0-.1,0-.2.1-.2s.2,0,.2.1h0v.9l-.2.2Zm0-1.9a.1.1,0,0,1-.1-.1V159c0-.1.1-.1.2-.1a.1.1,0,0,1,.1.1v.9a.35.35,0,0,0-.2.1Zm0-1.9a.1.1,0,0,1-.1-.1v-.9a.1.1,0,0,1,.1-.1h0a.1.1,0,0,1,.1.1h0v.9a.1.1,0,0,1-.1.1Zm0-1.8a.1.1,0,0,1-.1-.1h0v-.9a.1.1,0,0,1,.2,0v.9l-.1.1Zm0-1.9a.1.1,0,0,1-.1-.1h0v-.9a.1.1,0,0,1,.1-.1h0a.1.1,0,0,1,.1.1h0v.9l-.1.1Zm0-1.9a.1.1,0,0,1-.1-.1h0v-.9a.1.1,0,0,1,.1-.1h0a.1.1,0,0,1,.1.1h0v.9a.1.1,0,0,1-.1.1Z"/><path class="7cea57be-0cb7-4634-8d5b-08da7c0b3c91" d="M23.9,150.72a.1.1,0,0,1-.1-.1h0v-.5a.1.1,0,0,1,.1-.1h0a.1.1,0,0,1,.1.1h0v.5l-.1.1Z"/><path class="7cea57be-0cb7-4634-8d5b-08da7c0b3c91" d="M40,156.62c-.1,0-.1,0-.1-.1s0-.2.1-.2h0l.4-.2c.1,0,.2,0,.2.1h0c0,.1,0,.2-.1.2h0l-.5.2Z"/><path class="7cea57be-0cb7-4634-8d5b-08da7c0b3c91" d="M25.8,164.82c-.1,0-.1,0-.1-.1v-.2h0l.9-.5c.1,0,.2,0,.2.1s0,.2-.1.2h0l-.9.5Zm1.8-1c-.1,0-.1,0-.1-.1s0-.2.1-.2l.9-.5a.14.14,0,0,1,.2,0v.2h0l-1.1.6Zm1.8-1.1c-.1,0-.1,0-.1-.1v-.2h0l.9-.5c.1,0,.2,0,.2.1s0,.2-.1.2l-.9.5Zm1.7-1c-.1,0-.1,0-.1-.1v-.2h0l.9-.5c.1,0,.2,0,.2.1s0,.2-.1.2h0l-.9.5Zm1.8-1c-.1,0-.1,0-.1-.1s0-.2.1-.2l.9-.5c.1,0,.2,0,.2.1s0,.2-.1.2l-1,.5Zm1.8-1.1a.1.1,0,0,1-.1-.1c0-.1,0-.1.1-.1l.9-.5c.1,0,.2,0,.2.1s0,.2-.1.2l-1,.4Zm1.8-1a.1.1,0,0,1-.1-.1c0-.1,0-.1.1-.1l.9-.5c.1,0,.2,0,.2.1s0,.2-.1.2h0l-1,.4Zm1.7-1a.1.1,0,0,1-.1-.1c0-.1,0-.1.1-.1l.9-.5c.1,0,.2,0,.2.1s0,.2-.1.2h0l-1,.4Z"/><path class="7cea57be-0cb7-4634-8d5b-08da7c0b3c91" d="M24.5,165.52c-.1,0-.1,0-.1-.1s0-.2.1-.2h0l.4-.2c.1,0,.2,0,.2.1s0,.2-.1.2h0l-.5.2Z"/><path class="7cea57be-0cb7-4634-8d5b-08da7c0b3c91" d="M41.1,140.72a.1.1,0,0,1-.1-.1v-.5a.1.1,0,0,1,.1-.1h0a.1.1,0,0,1,.1.1h0v.5C41.2,140.72,41.2,140.72,41.1,140.72Z"/><path class="7cea57be-0cb7-4634-8d5b-08da7c0b3c91" d="M41.1,153.82a.1.1,0,0,1-.1-.1v-1c0-.1.1-.1.2-.1a.1.1,0,0,1,.1.1v.9C41.2,153.72,41.2,153.82,41.1,153.82Zm0-1.9a.1.1,0,0,1-.1-.1v-.9c0-.1.1-.1.2-.1a.1.1,0,0,1,.1.1v.9c-.1.1-.1.1-.2.1Zm0-1.8a.1.1,0,0,1-.1-.1v-.9c0-.1,0-.2.1-.2s.2,0,.2.1h0v.9c-.1.1-.1.2-.2.2Zm0-1.9a.1.1,0,0,1-.1-.1v-.9a.1.1,0,0,1,.2,0v.9A.1.1,0,0,1,41.1,148.22Zm0-1.9a.1.1,0,0,1-.1-.1v-.9a.1.1,0,0,1,.1-.1h0a.1.1,0,0,1,.1.1h0v.9c0,.1,0,.1-.1.1Zm0-1.8a.1.1,0,0,1-.1-.1h0v-.9a.1.1,0,0,1,.1-.1h0a.1.1,0,0,1,.1.1h0v.9A.1.1,0,0,1,41.1,144.52Zm0-1.9a.1.1,0,0,1-.1-.1h0v-.9a.1.1,0,0,1,.2,0v.9a.1.1,0,0,1-.1.1Z"/><path class="7cea57be-0cb7-4634-8d5b-08da7c0b3c91" d="M41.1,155.22a.1.1,0,0,1-.1-.1v-.5c0-.1,0-.2.1-.2s.2,0,.2.1h0v.5C41.2,155.12,41.2,155.22,41.1,155.22Z"/><path class="7cea57be-0cb7-4634-8d5b-08da7c0b3c91" d="M40.4,140.62h0a.1.1,0,0,1-.1-.1V139c0-.1,0-.1.1-.1l1.3-.8h.1l.1.1v1.5c0,.1,0,.1-.1.1l-1.4.8Zm.2-1.5v1.2l1-.6v-1.2Z"/><path class="7cea57be-0cb7-4634-8d5b-08da7c0b3c91" d="M40.4,157.12h0a.1.1,0,0,1-.1-.1v-1.5c0-.1,0-.1.1-.1l1.3-.7h.1l.1.1v1.5c0,.1,0,.1-.1.1l-1.4.7Zm.2-1.6v1.2l1-.6v-1.2Z"/><path class="7cea57be-0cb7-4634-8d5b-08da7c0b3c91" d="M23.2,150.62h0a.1.1,0,0,1-.1-.1V149c0-.1,0-.1.1-.1l1.3-.7h.2v1.6c0,.1,0,.1-.1.1l-1.4.7Zm.1-1.6v1.2l1-.6v-1.2Z"/><path class="7cea57be-0cb7-4634-8d5b-08da7c0b3c91" d="M23.2,167h0a.1.1,0,0,1-.1-.1v-1.5c0-.1,0-.1.1-.1l1.3-.8h.1l.1.1v1.5c0,.1,0,.1-.1.1l-1.4.8Zm.1-1.5v1.2l1-.6v-1.2Z"/><path class="7cea57be-0cb7-4634-8d5b-08da7c0b3c91" d="M41.7,148.12a1.21,1.21,0,0,1-.7,1.2c-.4.2-.7,0-.7-.5a1.39,1.39,0,0,1,.7-1.2C41.4,147.42,41.7,147.72,41.7,148.12Z"/><path class="7cea57be-0cb7-4634-8d5b-08da7c0b3c91" d="M33.1,144a1.31,1.31,0,0,1-.6,1.2c-.4.2-.7,0-.7-.5a1.21,1.21,0,0,1,.7-1.2C32.8,143.32,33.1,143.52,33.1,144Z"/><path class="7cea57be-0cb7-4634-8d5b-08da7c0b3c91" d="M33.1,160.42a1.31,1.31,0,0,1-.6,1.2c-.4.2-.7,0-.7-.5a1.21,1.21,0,0,1,.7-1.2C32.8,159.72,33.1,159.92,33.1,160.42Z"/><path class="7cea57be-0cb7-4634-8d5b-08da7c0b3c91" d="M24.5,158.12a1.46,1.46,0,0,1-.7,1.3c-.4.2-.7,0-.7-.5a1.21,1.21,0,0,1,.7-1.2C24.2,157.42,24.5,157.62,24.5,158.12Z"/><path class="771a6680-85fa-430e-943a-312fc2bfbd77" d="M35.8,151.22v-1.1h0l-.8.3h-.1a.76.76,0,0,0-.2-.4v-.2l.5-1v-.1l-.6-.3h-.2l-.6,1c0,.1-.1.1-.2.1h-.4a.1.1,0,0,1-.1-.1h0l-.1-.8a.1.1,0,0,0-.1-.1h0l-.9.5c-.1,0-.1.1-.1.2l-.1,1c0,.1,0,.1-.1.2l-.5.5a.35.35,0,0,1-.2.1l-.6-.2c-.1,0-.1,0-.2.1l-.6,1.1v.2l.4.4a.14.14,0,0,1,0,.2,6.37,6.37,0,0,0-.2.7c0,.1-.1.1-.1.2l-.8.6c-.1,0-.1.1-.1.2v1a.1.1,0,0,0,.1.1h0l.8-.3h.1a.76.76,0,0,0,.2.4v.2l-.5,1v.2l.6.3h.2l.6-1c0-.1.1-.1.2-.1h.4a.1.1,0,0,1,.1.1h0l.2.3a.1.1,0,0,0,.1.1h0l.9-.5c.1,0,.1-.1.1-.2l.1-1c0-.1,0-.1.1-.2l.5-.5a.35.35,0,0,1,.2-.1l.6.2c.1,0,.1,0,.2-.1l.6-1.1v-.2l-.4-.4a.14.14,0,0,1,0-.2,6.37,6.37,0,0,0,.2-.7c0-.1.1-.1.1-.2l.8-.6C35.7,151.32,35.8,151.22,35.8,151.22Zm-3.4,3.1c-.8.5-1.5.1-1.5-.8a3.18,3.18,0,0,1,1.5-2.5c.8-.5,1.5-.1,1.5.8A3.67,3.67,0,0,1,32.4,154.32Z"/><g id="fe0554f7-320d-4dad-9b79-e61f3e87eb09" data-name="freepik--Icons--inject-16"><g id="207c912c-82d4-418c-af59-ffec3446d9df" data-name="freepik--Picture--inject-16"><path class="771a6680-85fa-430e-943a-312fc2bfbd77" d="M192.5,192.72a.85.85,0,0,0-.3-.5l-9.4-5.4a1.72,1.72,0,0,0-1.7,0l-15.7,9.1a.55.55,0,0,0-.3.5v1.8a.55.55,0,0,0,.3.5l9.4,5.4a1.72,1.72,0,0,0,1.7,0l15.7-9.1a.55.55,0,0,0,.3-.5Z"/><path class="024cebc7-513c-4958-820f-f8d5ff44f3d8" d="M192.2,192.22l-9.4-5.4a1.72,1.72,0,0,0-1.7,0l-5.5,3.2v14.3a1.88,1.88,0,0,0,.8-.2l15.7-9.1a.55.55,0,0,0,.3-.5v-1.8A.37.37,0,0,0,192.2,192.22Z"/><path class="5c0b4905-0f9e-4bac-ad10-4703dc5c26e2" d="M175.7,190l-10.2,5.9a.55.55,0,0,0-.3.5v1.8a.55.55,0,0,0,.3.5l9.4,5.4a2.35,2.35,0,0,0,.8.2Z"/><path class="771a6680-85fa-430e-943a-312fc2bfbd77" d="M176.5,202.32l15.7-9.1a.52.52,0,0,0,.3-.7q-.15-.3-.3-.3l-9.4-5.4a1.72,1.72,0,0,0-1.7,0l-15.7,9.1a.52.52,0,0,0-.3.7q.15.3.3.3l9.4,5.4A2.48,2.48,0,0,0,176.5,202.32Z"/><polygon class="5f98c68c-75d3-4657-a2da-e26eaa95b2d0" points="175.7 200.92 189.9 192.72 181.6 191.62 182.2 194.32 184.1 194.92 172.2 194.62 175.7 200.92"/><path class="5f98c68c-75d3-4657-a2da-e26eaa95b2d0" d="M177.6,191.42a1.54,1.54,0,0,1,1.6-.1c.4.2.3.7-.2,1a1.54,1.54,0,0,1-1.6.1C177,192.22,177.1,191.72,177.6,191.42Z"/></g><g id="6f1c13c2-5202-4fe8-9ecf-6188522591dd" data-name="freepik--picture--inject-16"><path class="771a6680-85fa-430e-943a-312fc2bfbd77" d="M216.2,179a.85.85,0,0,0-.3-.5l-9.4-5.4a1.72,1.72,0,0,0-1.7,0l-15.7,9.1a.55.55,0,0,0-.3.5v1.8a.55.55,0,0,0,.3.5l9.4,5.4a1.72,1.72,0,0,0,1.7,0l15.7-9.1a.55.55,0,0,0,.3-.5Z"/><path class="024cebc7-513c-4958-820f-f8d5ff44f3d8" d="M215.9,178.62l-9.4-5.4a1.72,1.72,0,0,0-1.7,0l-5.5,3.2v14.3a1.88,1.88,0,0,0,.8-.2l15.7-9.1a.55.55,0,0,0,.3-.5v-1.8C216.2,178.82,216.1,178.62,215.9,178.62Z"/><path class="5c0b4905-0f9e-4bac-ad10-4703dc5c26e2" d="M199.3,176.32l-10.2,5.9a.55.55,0,0,0-.3.5v1.8a.55.55,0,0,0,.3.5l9.4,5.4a2.35,2.35,0,0,0,.8.2Z"/><path class="771a6680-85fa-430e-943a-312fc2bfbd77" d="M200.2,188.62l15.7-9.1a.52.52,0,0,0,.3-.7q-.15-.3-.3-.3l-9.4-5.4a1.72,1.72,0,0,0-1.7,0l-15.7,9.1a.52.52,0,0,0-.3.7q.15.3.3.3l9.4,5.4A1.72,1.72,0,0,0,200.2,188.62Z"/><polygon class="5f98c68c-75d3-4657-a2da-e26eaa95b2d0" points="199.3 187.32 213.6 179.02 205.3 177.92 205.9 180.62 207.8 181.22 195.9 180.92 199.3 187.32"/><path class="5f98c68c-75d3-4657-a2da-e26eaa95b2d0" d="M201.3,177.72a1.54,1.54,0,0,1,1.6-.1c.4.2.3.7-.2,1a1.54,1.54,0,0,1-1.6.1C200.7,178.52,200.8,178,201.3,177.72Z"/></g><g id="6111cab9-c10e-482d-b144-77d0e985bdee" data-name="freepik--video--inject-16"><path class="771a6680-85fa-430e-943a-312fc2bfbd77" d="M239.9,165.42a.85.85,0,0,0-.3-.5l-9.4-5.4a1.72,1.72,0,0,0-1.7,0l-15.7,9.1a.55.55,0,0,0-.3.5v1.8a.55.55,0,0,0,.3.5l9.4,5.4a1.72,1.72,0,0,0,1.7,0l15.7-9.1a.55.55,0,0,0,.3-.5Z"/><path class="024cebc7-513c-4958-820f-f8d5ff44f3d8" d="M239.6,164.92l-9.4-5.4a1.72,1.72,0,0,0-1.7,0l-5.5,3.1v14.3a1.88,1.88,0,0,0,.8-.2l15.7-9.1a.55.55,0,0,0,.3-.5v-1.8C239.9,165.22,239.8,165,239.6,164.92Z"/><path class="5c0b4905-0f9e-4bac-ad10-4703dc5c26e2" d="M223,162.62l-10.2,5.9a.55.55,0,0,0-.3.5v1.8a.55.55,0,0,0,.3.5l9.4,5.4a2.35,2.35,0,0,0,.8.2Z"/><path class="771a6680-85fa-430e-943a-312fc2bfbd77" d="M223.9,174.92l15.7-9.1a.52.52,0,0,0,.3-.7q-.15-.3-.3-.3l-9.4-5.4a1.72,1.72,0,0,0-1.7,0l-15.7,9.1a.52.52,0,0,0-.3.7q.15.3.3.3l9.4,5.4A1.72,1.72,0,0,0,223.9,174.92Z"/><path class="5f98c68c-75d3-4657-a2da-e26eaa95b2d0" d="M223.4,165.62c-2.1,1.2-2.5,2.9-.9,3.8s4.5.7,6.6-.5,2.5-2.9.9-3.8A7.13,7.13,0,0,0,223.4,165.62Zm5,.6-1.7,2.3a.61.61,0,0,1-.8.1l-2.1-1.2c-.3-.2,0-.4.6-.6l3.2-.8c.6-.1.9-.1.8.2Z"/></g></g></g></g></svg>