<svg xmlns="http://www.w3.org/2000/svg" width="99" height="99" viewBox="0 0 99 99"><g><g opacity=".1"><path fill="#06826a" d="M10 0h79c5.523 0 10 4.477 10 10v79c0 5.523-4.477 10-10 10H10C4.477 99 0 94.523 0 89V10C0 4.477 4.477 0 10 0z"/></g><g><path fill="#06826a" d="M81.998 22.632v43.16c0 .899-.734 1.632-1.636 1.632H18.63a1.637 1.637 0 0 1-1.637-1.633v-43.16c0-.9.734-1.632 1.637-1.632h61.732c.903 0 1.636.733 1.636 1.633zm-4.91 3.267H21.903v36.626h55.185zM62.18 73.504v3.675a.817.817 0 0 1-.817.816H37.63a.818.818 0 0 1-.818-.816v-3.675c0-.45.366-.815.818-.815h3.273v-2.995c0-.451.367-.817.819-.817h15.547c.452 0 .82.366.82.817v2.995h3.273c.451 0 .817.365.817.815zm8.68-22.495c0 1.593-.182 3.198-.543 4.77a1.973 1.973 0 0 1-1.923 1.53H30.598c-.92 0-1.718-.635-1.923-1.53a21.354 21.354 0 0 1-.544-4.77c0-11.754 9.585-21.317 21.365-21.317 11.78 0 21.364 9.563 21.364 21.317zM47.253 35.116a2.244 2.244 0 0 0 4.487 0 2.243 2.243 0 0 0-4.487 0zm-12.25 16.7a2.243 2.243 0 0 0-4.486 0 2.243 2.243 0 0 0 4.486 0zm4.903-11.81c0-.597-.233-1.16-.657-1.582a2.231 2.231 0 0 0-1.586-.656c-.6 0-1.163.233-1.587.656a2.22 2.22 0 0 0-.657 1.583c0 .598.234 1.16.657 1.582a2.23 2.23 0 0 0 1.586.656c.6 0 1.163-.233 1.586-.656a2.22 2.22 0 0 0 .658-1.582zm14.268 7.737c-1.223-2.549-11.127-11.322-11.127-11.322s.635 13.2 1.858 15.75a5.149 5.149 0 0 0 6.852 2.41 5.128 5.128 0 0 0 2.417-6.838zm9.401-7.735c0-.598-.233-1.16-.657-1.583a2.233 2.233 0 0 0-1.587-.656c-.599 0-1.162.233-1.586.655a2.221 2.221 0 0 0-.656 1.583c0 .598.232 1.16.656 1.582a2.23 2.23 0 0 0 1.586.656c.6 0 1.163-.233 1.587-.656.423-.422.656-.984.657-1.581zm4.901 11.808a2.243 2.243 0 0 0-4.487 0 2.244 2.244 0 0 0 4.487 0zm-17.2-2.689a1.923 1.923 0 0 1-.906 2.565 1.923 1.923 0 1 1-1.663-3.468 1.93 1.93 0 0 1 2.57.903z"/></g></g></svg>