<svg xmlns="http://www.w3.org/2000/svg" width="99" height="99" viewBox="0 0 99 99"><g><g opacity=".1"><path fill="#06826a" d="M10 0h79c5.523 0 10 4.477 10 10v79c0 5.523-4.477 10-10 10H10C4.477 99 0 94.523 0 89V10C0 4.477 4.477 0 10 0z"/></g><g><path fill="#06826a" d="M81.998 22.632v43.16c0 .899-.734 1.632-1.636 1.632H18.63a1.637 1.637 0 0 1-1.637-1.633v-43.16c0-.9.734-1.632 1.637-1.632h61.732c.903 0 1.636.733 1.636 1.633zm-4.91 3.267H21.903v36.626h55.185zM62.18 73.504v3.675a.817.817 0 0 1-.817.816H37.63a.818.818 0 0 1-.818-.816v-3.675c0-.45.366-.815.818-.815h3.273v-2.995c0-.451.367-.817.819-.817h15.547c.452 0 .82.366.82.817v2.995h3.273c.451 0 .817.365.817.815zM43.612 60.79c-.513 0-.949-.373-1.026-.879L41.2 50.93a1.036 1.036 0 0 1 1.026-1.193h14.537a1.038 1.038 0 0 1 1.026 1.195l-1.385 8.98a1.037 1.037 0 0 1-1.025.877zm5.884-33.155a5.532 5.532 0 0 1 5.537 5.526 5.532 5.532 0 0 1-5.537 5.526 5.532 5.532 0 0 1-5.538-5.526 5.532 5.532 0 0 1 5.538-5.526zm15.529 17.959c.829 0 1.247.767 1.028 1.395l-2.769 7.598c-.152.4-.54.677-.982.677H59.92l.61-3.91a3.81 3.81 0 0 0-.873-3.052c-.793-.897-1.848-1.327-2.893-1.327H42.227c-1.184 0-2.276.587-2.894 1.327a3.81 3.81 0 0 0-.872 3.052l.61 3.91h-2.382c-.443 0-.83-.276-.983-.677l-2.769-7.598c-.227-.652.248-1.395.983-1.395h4.583a6.579 6.579 0 0 1 6.493-5.526h8.999a6.579 6.579 0 0 1 6.493 5.526h2.46a7.96 7.96 0 0 0-3.418-5.812 2.06 2.06 0 0 1-1.036.286 2.075 2.075 0 0 1-2.076-2.072c0-1.144.93-2.072 2.076-2.072 1.142 0 2.069.92 2.076 2.058a10.036 10.036 0 0 1 4.455 7.612z"/></g></g></svg>