<svg xmlns="http://www.w3.org/2000/svg" width="99" height="99" viewBox="0 0 99 99"><g><g opacity=".1"><path fill="#06826a" d="M10 0h79c5.523 0 10 4.477 10 10v79c0 5.523-4.477 10-10 10H10C4.477 99 0 94.523 0 89V10C0 4.477 4.477 0 10 0z"/></g><g><path fill="#06826a" d="M81.998 22.632v43.16c0 .899-.734 1.632-1.636 1.632H18.63a1.637 1.637 0 0 1-1.637-1.633v-43.16c0-.9.734-1.632 1.637-1.632h61.732c.903 0 1.636.733 1.636 1.633zm-4.91 3.267H21.903v36.626h55.185zM62.18 73.504v3.675a.817.817 0 0 1-.817.816H37.63a.818.818 0 0 1-.818-.816v-3.675c0-.45.366-.815.818-.815h3.273v-2.995c0-.451.367-.817.819-.817h15.547c.452 0 .82.366.82.817v2.995h3.273c.451 0 .817.365.817.815zm2.657-29.647H73.5a1.835 1.835 0 0 1-1.84 1.836h-7.928a1.732 1.732 0 0 1-1.727-1.723v-6.018c0-1.017.821-1.836 1.84-1.836v6.78c0 .509.425.933.991.961zm-3.85-1.582v1.045a2.402 2.402 0 0 1-2.407 2.402h-1.416a2.356 2.356 0 0 1-1.67-.678 2.894 2.894 0 0 1-1.812.65h-5.918c-.113.028-.255.028-.368.028h-2.01c-.142 0-.255 0-.368-.029h-2.888c-.765 0-1.472-.31-1.982-.79-.51.48-1.217.79-1.982.79h-3.03a6.401 6.401 0 0 1-.707 1.667c-2.124 3.39-6.88 2.543-8.211.396-1.331-2.147-.425-4.718-.425-4.718l1.67.367s-.566 2.345.68 3.419c1.36 1.158 4.474 1.045 5.125-1.61.481-1.95-.708-3.532-.708-3.532l1.67-1.046s.935 1.356 1.048 3.221h2.945c.538 0 .99-.452.99-.989v-2.26h1.813v2.26c0 .537.453.989.99.989h4.927c.906 0 1.642-.734 1.642-1.639 0-.904-.736-1.638-1.642-1.638h-3.935c.028-1.356.736-1.808 2.123-1.808h2.294a3.042 3.042 0 0 1 3.057 3.05v.792c0 .424-.085.848-.255 1.215h3.568c.538 0 .991-.452.991-.989v-2.26h1.812v2.147c0 .622.51 1.13 1.133 1.13h.34c.622 0 1.132-.508 1.132-1.13V40.58h.17c.906 0 1.642.734 1.614 1.695zm-33.92-1.667a1.131 1.131 0 1 1-1.132 1.13c0-.624.507-1.13 1.132-1.13zm9.712 5.876c.625 0 1.132.506 1.132 1.13a1.131 1.131 0 1 1-2.265 0c0-.624.507-1.13 1.133-1.13zm2.293 0a1.131 1.131 0 1 1 0 2.26 1.131 1.131 0 1 1 0-2.26zm17.95 0a1.131 1.131 0 1 1 0 2.26 1.131 1.131 0 0 1 0-2.26zm2.294 0a1.131 1.131 0 1 1 0 2.26 1.131 1.131 0 1 1 0-2.26zm-15.232 0a1.131 1.131 0 1 1 0 2.26 1.131 1.131 0 0 1-1.133-1.13c0-.624.507-1.13 1.133-1.13zm2.293 0a1.131 1.131 0 1 1-1.133 1.13c0-.624.507-1.13 1.133-1.13zm-2.265-5.34a1.131 1.131 0 0 1 0 2.26 1.131 1.131 0 0 1-1.133-1.129c0-.624.507-1.13 1.133-1.13zm2.293 0a1.131 1.131 0 1 1-1.132 1.131c0-.624.507-1.13 1.132-1.13zm2.237 5.34a1.131 1.131 0 1 1 0 2.26 1.131 1.131 0 1 1 0-2.26zM26.33 38.01c-.142 0-.283 0-.425-.028a1.149 1.149 0 0 1-.283-.085l.057-.367c.056.056.141.084.255.14.113.057.254.03.396.03.255 0 .368-.057.368-.199 0-.028 0-.084-.028-.113-.029-.028-.057-.028-.085-.056-.029-.028-.057-.057-.113-.057-.029-.028-.057-.028-.114-.056l-.283-.085-.113-.028c-.113-.057-.227-.085-.283-.17a.394.394 0 0 1-.085-.254c0-.056.028-.141.056-.198a.75.75 0 0 1 .142-.17c.057-.056.142-.084.226-.112a1.06 1.06 0 0 1 .34-.057h.198c.057 0 .142.029.199.029.056 0 .113.028.17.056.056.028.084.028.113.057l-.057.339a1.38 1.38 0 0 0-.623-.17h-.141c-.057 0-.085.028-.114.028l-.085.085c-.028.028-.028.057-.028.085 0 .056 0 .085.028.113.029.028.057.056.114.056.056.029.113.029.198.057s.142.056.255.085l.17.056c.028 0 .085.028.141.057.057.028.085.056.142.084 0 .029.028.085.056.142.029.056.029.113.029.17 0 .056 0 .112-.029.169 0 .056-.028.113-.085.17a.547.547 0 0 1-.254.14 1.716 1.716 0 0 1-.425.057zm4.219-.028h-.397V36.2h.397zm4.558-1.47h-.594v1.47h-.397v-1.47h-.594v-.31h1.585zm4.332 1.47h-1.387V36.2h1.359v.31h-.963v.368h.736v.31h-.736v.453h.991zm7.333.028c-.141 0-.283-.028-.424-.057-.114-.056-.227-.113-.34-.197-.085-.085-.17-.17-.227-.283a.78.78 0 0 1-.085-.367c0-.141.029-.254.085-.367a.718.718 0 0 1 .227-.283 1.34 1.34 0 0 1 .34-.198c.113-.056.254-.056.424-.056.227 0 .425.028.595.113l-.028.31c-.199-.056-.397-.112-.567-.112a.566.566 0 0 0-.255.056c-.084.028-.141.085-.198.113a.456.456 0 0 0-.113.198c-.028.028-.057.113-.057.198 0 .084 0 .17.029.254a.456.456 0 0 0 .113.198.458.458 0 0 0 .198.113c.085.028.17.056.255.056.17 0 .368-.028.566-.113l.029.31c-.142.086-.34.114-.567.114zm4.984-.028v-.791h-.991v.762h-.369v-1.751h.397v.706h.99v-.706h.397v1.78zm3.963 0h-.396V36.2h.396zm4.502 0l-.962-1.215v1.215h-.368V36.2h.368l.906 1.158v-1.158h.396v1.78z"/></g></g></svg>