<svg xmlns="http://www.w3.org/2000/svg" width="717.558" height="809.653"><defs><style>.a{fill:#e0e0e0}.d{fill:#848383}.e{opacity:.8}.f{fill:#fff}.g{fill:#ff4c00}.i{fill:#ffbe9d}.j{fill:#eb996e}.k{fill:#06826a}.l{opacity:.6}.m{fill:#263238}.n{fill:#455a64}.p{fill:none;stroke:#ff4c00}</style></defs><g transform="translate(19.916 -21.088)"><g transform="translate(-19.916 21.088)"><path class="a" d="M160.759 594.781c-3.592-3.772-8.8-5.209-13.651-7.005a74.182 74.182 0 01-44.007-95.018 80.29 80.29 0 0110.059-18.5l-.718-3.772c-1.8-17.6-23.171-30.355-39.516-23.35s-21.734 31.252-10.059 44.724c-19.219 1.437-31.972 23.35-29.278 42.39s16.7 34.666 32.152 45.982a151.6 151.6 0 0088.552 29.278 12.574 12.574 0 006.287-1.078c4.489-2.694 3.771-9.879.179-13.651zm507.1-76.538c4.311-7.185 5.029-16.884.539-23.889s-14.369-10.777-21.913-7.185a15.986 15.986 0 00-5.209-22.093 15.806 15.806 0 00-22.093 5.029c-5.029 7.9-2.335 18.5 1.976 26.763s10.418 16.166 11.855 25.506-2.155 19.04-7.724 26.943-13.292 13.831-20.836 19.758l-1.437 1.257a51.011 51.011 0 0041.312-3.592c7.185-3.952 13.651-10.238 14.01-18.321.359-4.49-1.257-8.981-.718-13.471s6.825-11.137 10.238-16.705zM300.184 801.412c-7.005-.9-14.01-3.952-17.962-9.7s-3.952-8.083-6.287-12.034-6.287-7.364-10.777-7.005-11.675 10.418-18.321 8.622-6.107-5.748-6.107-9.879 1.257-8.442.718-12.573c-1.437-11.675-16.525-17.423-27.661-13.831s-28.2 17.064-35.564 26.4c7.724 12.753 23.53 17.782 37.9 21.375 24.248 6.107 48.677 11.136 73.464 15.447 5.748.9 11.675 1.976 17.423 1.078a19.219 19.219 0 0014.19-9.34 74.9 74.9 0 01-21.016 1.44zm266.501-90.169c-1.8-9.879-11.855-18.68-21.554-16.525 8.083-6.646 8.262-20.3 1.8-28.739s-17.782-12.034-28.38-11.675-20.836 4.131-30.715 8.083c4.85-6.287-2.155-15.806-10.059-16.166s-14.729 4.311-21.015 8.981-13.651 9.161-21.375 7.9l7.185 3.054c17.243 2.515 34.846 6.646 49.754 15.627s27.482 23.889 30 41.133-6.466 36.822-22.991 42.929a70.41 70.41 0 0058.376-26.4c6.101-8.084 10.774-18.143 8.974-28.202zM17.243 465.982c-.359-5.568-.539-11.136-.359-16.7s0-11.136.359-16.7a129.853 129.853 0 01.539 16.7 129.866 129.866 0 01-.539 16.7z"/><path class="a" d="M34.666 449.35c-5.927.359-11.675.539-17.423.359s-11.5 0-17.243-.359a138.307 138.307 0 0117.243-.539 142.261 142.261 0 0117.423.539zm622.775 182.089a132.542 132.542 0 01-.359-16.884 129.672 129.672 0 01.359-16.7 129.875 129.875 0 01.539 16.7 132.545 132.545 0 01-.539 16.884z"/><path class="a" d="M674.685 614.88a138.306 138.306 0 01-17.243.539 138.308 138.308 0 01-17.243-.539c5.748-.359 11.5-.539 17.243-.359s11.495 0 17.243.359zM561.824 81.121a129.876 129.876 0 01-.539-16.7 129.876 129.876 0 01.539-16.7c.539 5.568.539 11.136.539 16.7s-.001 11.132-.539 16.7z"/><path class="a" d="M578.706 64.417c-5.748.539-11.5.539-17.243.539s-11.5 0-17.243-.539a138.3 138.3 0 0117.243-.539 138.3 138.3 0 0117.243.539z"/><circle class="a" cx="10.238" cy="10.238" r="10.238" transform="translate(26.224 303.923)"/><path class="a" d="M428.695 730.463a10.283 10.283 0 11-10.416-10.238 10.6 10.6 0 0110.418 10.238zm91.463-183.347a10.239 10.239 0 11-10.238-10.059 10.059 10.059 0 0110.238 10.059zM227.784 59.207a10.059 10.059 0 01-10.238 10.238 10.238 10.238 0 01-10.238-10.238 10.418 10.418 0 0110.238-10.238 10.238 10.238 0 0110.238 10.238z"/><circle class="a" cx="5.209" cy="5.209" r="5.209" transform="translate(263.814 634.135)"/><path class="a" d="M155.386 614.786a5.209 5.209 0 11-5.209-5.029h.18a5.209 5.209 0 015.029 5.029zM276.804 69.625a4.748 4.748 0 11-5.209-5.209 5.209 5.209 0 015.209 5.209zm216.778 263.649a5.209 5.209 0 11-5.119-4.246 5.209 5.209 0 015.119 4.246z"/><path d="M21.195 54.358s-11.316 5.747 4.67 29.636 26.407 35.385 26.407 35.385 2.874 5.568-1.8 7.185-15.986 1.078-17.6 7.364 3.772 12.034 13.651 16.166 31.074 13.831 33.05 14.729 3.952 3.413.9 4.85-27.486 7.001-24.073 18.501 32.69 18.141 35.924 19.04 3.952 1.976 3.952 3.772-8.262 2.694-15.268 4.67-14.369 5.029-11.855 11.5 20.656 18.318 61.788 17.418l19.04-1.617 8.262-17.243c15.806-37.9 11.5-59.274 6.466-63.944s-10.957 1.257-15.268 7.005-8.262 13.112-9.879 12.573-2.335-1.8-1.976-5.209 4.67-33.05-4.67-40.414-23.35 13.471-25.865 15.806-4.131-.539-4.311-2.515-1.437-25.685-1.8-36.283-3.233-17.782-9.879-18.68-10.053 9.699-13.289 13.651-7.364-.9-7.364-.9-6.825-14.01-23.35-37.54-26.043-14.906-26.043-14.906" fill="#ebebeb"/><path class="a" d="M151.418 247.267c-12.034-17.423-32.69-48.5-50.652-75.26s-34.128-50.832-46.162-68.255l-14.01-20.476-3.772-5.568-1.078-1.437v-.539l.359.359.9 1.437 3.952 5.568 14.189 20.477c12.034 17.423 28.38 41.492 46.341 68.075s38.618 58.017 50.473 75.44"/><path class="a" d="M48.317 135.186h1.437l3.592.718c3.054.718 7.364 1.8 12.034 3.233l11.855 3.592 3.592 1.078 1.257.359h-1.256l-3.592-.9c-3.233-.718-7.364-1.8-12.034-3.233l-11.856-3.23-3.592-1.078zm35.026 7.724c-.18 0 1.8-8.981 4.311-19.758s4.67-19.758 4.85-19.578-1.8 8.8-4.311 19.758-4.67 19.578-4.85 19.578zm25.685 36.324l.539-1.257 1.8-3.413c1.617-2.874 3.772-6.646 6.107-11.136s4.131-8.442 5.389-11.316l1.617-3.413.539-1.257a3.412 3.412 0 01-.359 1.257l-1.442 3.593c-1.257 3.053-3.054 7.005-5.389 11.5s-4.49 8.262-6.107 10.957l-2.155 3.233zm-33.05-1.128h28.2l-11.675.359H75.978zm17.962 38.781h6.107l14.908-.718 14.908-.359h.18l-15.088.539H93.94zm36.087.099l.9-1.617 2.155-4.311c1.976-3.592 4.49-8.8 7.185-14.369s5.029-10.777 6.646-14.549l1.976-4.49a6.466 6.466 0 01.716-1.617l-.539 1.617-1.8 4.67c-1.617 3.772-3.772 8.981-6.466 14.549s-5.389 10.777-7.364 14.369-1.8 3.233-2.335 4.131z"/><path d="M610.919 385.15c-20.3-17.782-22.093-46.7-18.5-72.027.539-4.311.539-8.8 3.054-12.394s7.364-5.568 10.957-3.413 3.952 5.748 5.389 8.981a26.224 26.224 0 008.981 10.777c2.515 1.617 5.927 2.874 8.622 1.8s5.029-6.646 5.389-10.957c.9-7.9 1.617-15.806 2.335-23.71a41.312 41.312 0 012.694-12.394 13.292 13.292 0 019.16-8.083c4.131-.718 8.981 2.155 9.34 6.466a50.849 50.849 0 01-.359 5.209 4.131 4.131 0 002.155 4.49 5.389 5.389 0 004.85-1.437 55.323 55.323 0 0011.675-14.19 81.368 81.368 0 0111.136-14.729c4.49-4.311 10.418-7.364 16.525-7.005s12.214 4.67 13.112 10.777-3.233 11.855-7.544 16.166a97.352 97.352 0 01-21.734 16.7 8.263 8.263 0 00-3.772 3.233c-1.257 2.694 1.257 5.748 3.952 7.005s6.466 1.437 9.7 2.155 6.646 2.694 7.544 5.927-2.874 8.622-6.646 11.136a81.008 81.008 0 01-25.506 11.316 29.278 29.278 0 00-9.34 3.413c-2.874 1.976-4.67 5.568-3.592 8.622s5.029 4.67 8.442 4.311a64.3 64.3 0 009.7-2.515c5.927-1.617 13.471-.359 16.7 5.029a14.19 14.19 0 01.18 12.034 37 37 0 01-7.544 9.879 84.061 84.061 0 01-37.54 20.656c-14.01 3.233-26.583 3.054-39.516-3.233" fill="#f5f5f5"/><path class="a" d="M619.182 369.912a346.122 346.122 0 0119.578-39.157l5.568-10.059c1.8-3.233 3.772-6.466 5.748-9.7a195.947 195.947 0 0112.573-16.884l12.394-14.549a150.18 150.18 0 0111.5-12.034 136.513 136.513 0 0118.139-15.626l5.389-3.772 1.437-.9.539-.359-.539.359-1.257 1.078-5.389 3.772a166.328 166.328 0 00-17.962 15.806c-3.592 3.592-7.364 7.724-11.316 12.034l-12.396 14.553a165.268 165.268 0 00-12.394 17.064c-1.976 3.053-3.772 6.287-5.568 9.52l-5.744 10.057a396.427 396.427 0 00-19.4 39.159"/><path class="a" d="M650.257 311.405a5.569 5.569 0 01-.18-1.8c-.18-1.078-.18-2.874-.359-5.029v-16.7c0-6.466 0-12.394-.359-16.7a26.627 26.627 0 01-.18-5.029 3.053 3.053 0 010-1.8c.18.539.18 1.078.359 1.8a32.339 32.339 0 01.359 5.029c.359 4.311.539 10.238.539 16.7v21.734a5.565 5.565 0 01-.18 1.8z"/><path class="a" d="M705.756 306.067h-8.083c-5.029 0-12.034.359-19.758.9a189.97 189.97 0 00-19.578 2.335l-5.927.9-2.155.359 1.976-.718 5.925-1.082a188.047 188.047 0 0119.758-2.515c6.466-.539 13.112-.718 19.758-.718l5.927.359zm-85.855 61.855c0-.359-.18-.539-.18-.718a14.9 14.9 0 01-.719-2.155c-.718-1.8-1.437-4.311-2.515-7.724-1.976-6.466-4.311-15.627-6.825-25.685s-4.85-19.219-6.646-25.685l-2.153-7.725c-.359-.9-.539-1.617-.718-2.155a1.078 1.078 0 00-.18-.718.9.9 0 01.359.718l.718 1.976c.718 1.8 1.437 4.49 2.515 7.724 1.976 6.466 4.311 15.627 6.825 25.685s4.85 19.219 6.646 25.865l2.155 7.724.718 1.976zm75.08-16.905h-.9l-2.155.539-7.9 1.617-26.585 5.744c-10.238 2.335-19.578 4.311-26.4 5.568l-8.083 1.437-2.155.359 2.155-.539 8.083-1.617 26.4-5.927 26.4-5.389 8.083-1.437 2.155-.359zM454.832 92.976c3.233-18.86 12.214-46.162 22.991-61.789S504.945 3.163 523.805.472s39.516 6.291 47.958 23.171c4.49 9.161 5.388 19.578 8.622 29.278s10.6 19.219 20.836 19.938 17.6-5.748 26.4-4.131c11.5 2.335 15.986 16.525 15.986 28.2s-1.617 24.787 5.748 34.127 15.986 10.059 24.069 15.268c17.6 10.957 25.147 33.589 23.35 54.245s-11.316 39.875-21.375 58.017a461.436 461.436 0 00-34.127-86.037c-8.262-15.627-23.171-28.919-36.283-40.594-20.3-17.962-64.842-26.583-91.785-30s-31.613-3.952-58.2-8.981"/></g><path class="d" d="M292.059 116.363c-66.459 4.85-139.204 13.651-192.551 34.127l16.884 114.058s103.28-37 187.342-34.487z"/><g class="e"><path class="f" d="M292.059 116.363c-66.459 4.85-139.204 13.651-192.551 34.127l16.884 114.058s103.28-37 187.342-34.487z"/></g><path class="g" d="M287.209 214.973h-.539l-1.976.359-7.185.9-11.5 1.437-15.088 2.155c-22.632 3.592-53.526 9.161-87.115 17.962-11.675 3.053-22.811 6.107-33.229 9.34h-.534v-.539c-3.592-26.045-7.005-48.677-9.7-64.663-1.437-7.9-2.515-14.369-3.233-18.68s-.718-3.772-.9-5.029a7.516 7.516 0 01-.177-1.259c0 .359.18.718.18 1.257a46.159 46.159 0 011.078 5.029c.9 4.311 2.155 10.6 3.413 18.68 2.874 15.806 6.466 38.438 10.238 64.663l-.718-.359c10.418-3.413 21.554-6.466 33.409-9.52a830.908 830.908 0 0187.115-17.6l15.088-1.976 11.5-1.437 7.364-.718h2.515z"/><path class="g" d="M289.544 187.312l-.718-2.155a24.248 24.248 0 00-3.413-5.927 34.127 34.127 0 00-8.083-7.185l-2.874-1.437-3.233-1.259a21.554 21.554 0 00-7.544-.718 17.243 17.243 0 00-7.544 3.053 25.506 25.506 0 00-5.927 6.466c-3.592 5.209-5.748 11.5-8.442 18.141a26.224 26.224 0 01-6.287 8.981 12.753 12.753 0 01-5.209 2.515 11.316 11.316 0 01-5.927-.718c-7.544-3.054-10.957-11.675-18.5-14.369a15.088 15.088 0 00-11.5.9 17.244 17.244 0 00-4.49 3.592 41.846 41.846 0 00-3.053 4.67c-1.617 3.413-2.874 7.185-5.748 9.879a9.16 9.16 0 01-5.209 2.335 10.777 10.777 0 01-5.389-1.257 19.4 19.4 0 01-7.544-7.185 79.035 79.035 0 01-3.772-8.985 42.21 42.21 0 00-3.952-8.083 15.986 15.986 0 00-5.927-5.568 15.268 15.268 0 00-13.651-.359 22.991 22.991 0 00-8.8 6.107 18.141 18.141 0 00-3.233 6.107l-.539 2.155a12.393 12.393 0 01.359-2.335 19.937 19.937 0 013.233-6.107 22.452 22.452 0 018.8-6.466 15.447 15.447 0 0114.01.359 14.549 14.549 0 016.287 5.568 50.653 50.653 0 014.131 8.262 64.839 64.839 0 003.772 8.8 19.219 19.219 0 007.185 7.005 8.263 8.263 0 005.029 1.078 7.544 7.544 0 004.67-2.155c2.694-2.335 3.952-6.107 5.568-9.52a30 30 0 013.233-5.029 15.448 15.448 0 014.67-3.592 15.986 15.986 0 0112.214-1.078 26.224 26.224 0 019.7 7.364 26.943 26.943 0 008.981 7.185 9.16 9.16 0 005.389.539 11.855 11.855 0 004.85-2.155 23.889 23.889 0 005.927-8.622c2.694-6.466 5.029-12.932 8.622-18.141a22.811 22.811 0 016.287-6.826 16.7 16.7 0 0115.447-2.155l3.413 1.257a27.84 27.84 0 0110.957 8.981 24.248 24.248 0 013.413 5.927 7.9 7.9 0 01.359 1.8zm-176.385-14.908l-1.976.9h-2.155a3.233 3.233 0 011.976-.9zm2.874 20.656c.18.359-.539.9-1.437 1.257s-1.8.539-1.8.359.539-.718 1.437-1.257 1.621-.539 1.8-.359zm3.772 22.811c0 .359-.718.718-1.617 1.078s-1.8.359-1.8.18.539-.718 1.617-1.078 1.62-.359 1.8-.18zm4.311 22.453a2.515 2.515 0 01-1.8.9c-1.078.359-1.8.539-1.976.18a2.515 2.515 0 011.8-.9c.898-.36 1.976-.539 1.976-.18zm125.553-107.412l2.155-.539 6.287-.9 21.913-2.872h.539v.539c.718 7.544 1.437 16.345 2.335 25.685v.9h-.359l-29.817 3.592h-.359v-.359l-2.155-19.04q-.359-3.233-.539-5.389v-1.8c.18.718.18 1.257.359 1.976s.359 3.053.718 5.389 1.437 11.136 2.335 18.86l-.359-.359 29.637-3.772-.359.359v-.359c-.9-9.34-1.617-18.141-2.335-25.685l.539.359z"/><path class="g" d="M277.33 135.402c0 .359-5.029.359-11.316 1.078s-11.316 1.799-11.316 1.437a54.065 54.065 0 0122.632-2.515zm.359 6.646c0 .359-4.85.539-10.6 1.078s-10.6 1.257-10.6 1.078a41.134 41.134 0 0110.418-1.976 43.287 43.287 0 0110.777-.18zm-7.185 5.927a21.733 21.733 0 01-5.927 1.257 24.608 24.608 0 01-6.287.359 17.6 17.6 0 016.107-1.257 17.6 17.6 0 016.107-.359z"/><path class="d" d="M616.629 149.951c-65.2-19.758-120.164-36.822-193.988-36.283l-11.136 116.034c76.7 6.825 102.382 11.855 173.152 37.54z"/><g class="e"><path class="f" d="M616.629 149.951c-65.2-19.758-120.164-36.822-193.988-36.283l-11.136 116.034c76.7 6.825 102.382 11.855 173.152 37.54z"/></g><path class="g" d="M469.162 169.888l2.874-24.608a28.739 28.739 0 00-20.117 5.568 30.355 30.355 0 00-12.394 24.249v3.592l28.739-3.233zm29.635-3.95a28.02 28.02 0 00-20.476-19.578h-1.437l-1.617-.359h-.18l-2.874 24.608-.718 5.748 27.3 9.879a35.385 35.385 0 001.257-6.287 32.691 32.691 0 00-1.255-14.011z"/><path d="M498.797 165.938a28.02 28.02 0 00-20.476-19.578h-1.437l-1.617-.359h-.18l-2.874 24.608-.718 5.748 27.3 9.879a35.385 35.385 0 001.257-6.287 32.691 32.691 0 00-1.255-14.011z"/><path class="g" d="M469.521 178.87l-28.739 3.233c1.257 14.01 11.316 25.506 24.967 27.3s26.583-7.185 31.074-20.476l-27.3-9.879m121.959-7.003l-2.515-.9-6.825-3.054a176.925 176.925 0 00-23.171-8.083 183.386 183.386 0 00-23.889-5.389l-7.364-1.078a14.368 14.368 0 01-2.695-.536h2.694l7.364.718a178 178 0 0147.242 13.472l6.825 3.413zm-1.976 12.034l-2.515-.9-6.825-3.054a213.743 213.743 0 00-47.06-13.471l-7.364-1.078-2.695-.357h2.694l7.364.9a156.984 156.984 0 0124.248 5.029 167.228 167.228 0 0122.991 8.442l6.826 3.233zm-1.975 12.214a7.544 7.544 0 01-2.515-1.078l-6.826-2.874a208.9 208.9 0 00-23.171-8.262 270.041 270.041 0 00-23.889-5.389l-7.364-1.078-2.694-.359h2.694l7.364.9a156.987 156.987 0 0124.248 5.029 167.222 167.222 0 0122.991 8.442l6.826 3.233a10.239 10.239 0 012.335 1.437zm-3.952 12.214l-2.515-1.078-6.466-2.874a186.263 186.263 0 00-45.8-13.471l-7.185-1.078-2.517-.539h2.694l7.185.718a174.414 174.414 0 0123.35 5.029 186.259 186.259 0 0122.452 8.442l6.466 3.233a10.238 10.238 0 012.335 1.617zm-8.622 9.52l-2.155-.718-5.927-2.694a140.82 140.82 0 00-40.955-11.676l-6.466-.9a8.981 8.981 0 01-2.335-.539h2.335l6.466.718a121.423 121.423 0 0141.133 11.675l5.927 2.874zm-28.919 1.437l-4.67-.9c-2.874-.718-6.646-1.617-11.136-2.335l-11.316-1.8-4.67-.713h4.85c2.874.359 6.825.718 11.316 1.617a77.061 77.061 0 0111.136 2.515 19.038 19.038 0 014.49 1.616z"/><path class="g" d="M433.959 127.319h5.927c3.952 0 9.7 0 17.064.359a269.787 269.787 0 0159.809 10.777h.359c-4.49 25.865-9.879 56.4-15.627 89.091a25.668 25.668 0 01-.718 3.952v.539h-.359c-13.292-3.413-26.583-6.107-40.055-8.262s-25.147-3.233-36.462-3.952h-.538v-.539c3.233-27.482 5.748-50.473 7.724-66.638.9-7.9 1.617-14.369 2.155-18.68s.359-3.772.539-4.85a5.742 5.742 0 00.18-1.257 3.593 3.593 0 01-.18 1.257 31.97 31.97 0 01-.539 5.029c-.359 4.49-1.078 10.777-1.976 18.86-1.8 16.166-4.131 38.977-7.185 66.459l-.359-.539c11.5.718 23.889 2.155 36.822 4.131a334.1 334.1 0 0139.875 8.262l-.539.359a37.2 37.2 0 00.718-3.952l15.627-89.091.359.539a279.486 279.486 0 00-59.633-11.136l-16.888-.538h-6.1zM362.828 364.595l63.585 14.01 9.7-14.01-1.62-18.143-9.7-8.8h-33.226l-31.074 28.02"/><path d="M362.828 364.595l63.585 14.01 9.7-14.01-1.62-18.143-9.7-8.8h-33.226l-31.074 28.02"/><path class="i" d="M459.641 233.653l80.289-10.777 12.573-3.592s28.919-6.466 31.613-7.364 4.49.18 4.85 1.257-1.257 3.952-3.952 5.029l-15.627 5.389a23.17 23.17 0 015.029 1.437c3.413 1.078 6.826 5.748 8.442 10.957s1.8 6.826-.18 7.724a3.233 3.233 0 01-2.335-.359 5.209 5.209 0 01-2.515-3.053c-2.874-8.442-8.083-9.161-8.083-9.161l-1.617.539s5.389 3.772 5.389 8.442a9.339 9.339 0 01-.359 1.976 7.005 7.005 0 01-4.311 8.8 6.107 6.107 0 01-3.592.18 2.874 2.874 0 01-2.515-1.976 6.466 6.466 0 01.359-1.8l.359-.9-4.85.539s-10.957.9-15.627 1.8l-75.076 22.631a19.219 19.219 0 01-24.248-12.932h-.18a19.4 19.4 0 0113.472-24.068z"/><path class="i" d="M541.908 224.852a3.592 3.592 0 003.413 3.233 47.418 47.418 0 005.029.359c5.029.718 8.8 5.209 13.831 5.568.718 0 1.617 0 1.8-.718a1.8 1.8 0 00-.718-1.617l-12.578-11.136"/><path class="j" d="M552.684 220.541l1.437 1.078a41.481 41.481 0 013.772 3.233l5.568 4.67 1.617 1.437c.539.539 1.257.9 1.437 1.976a1.616 1.616 0 01-.9 1.437h-1.257a6.286 6.286 0 01-2.515-.539 64.841 64.841 0 01-7.9-3.952 9.52 9.52 0 00-3.592-1.257h-3.413a5.927 5.927 0 01-4.49-1.976c-.9-1.078-.718-1.8-.718-1.8a10.061 10.061 0 00.9 1.437 5.748 5.748 0 004.311 1.617h3.413l3.952 1.257a64.85 64.85 0 007.9 3.952l2.155.359c.718 0 1.257-.18 1.257-.539a3.413 3.413 0 00-1.078-1.257l-1.619-1.433-5.389-5.029-3.592-3.233c-.897-.899-1.256-1.258-1.256-1.438zm15.448 10.957h3.054a6.107 6.107 0 012.874 1.8 38.085 38.085 0 011.976 3.772 11.137 11.137 0 001.8 3.952 7.185 7.185 0 002.515 2.694 3.053 3.053 0 002.515 0c.539-.359.719-.539.719-.718l-.9.359a2.335 2.335 0 01-2.156-.18 7.185 7.185 0 01-2.335-2.335 38.449 38.449 0 01-1.8-3.952 9.521 9.521 0 00-2.156-3.952 6.107 6.107 0 00-3.053-1.976h-2.335zm17.962-13.831l-2.874 1.078-7.005 2.515-7.005 2.515a9.34 9.34 0 00-2.874 1.078l3.054-.718 7.005-2.335a48.138 48.138 0 007.005-2.694 9.879 9.879 0 002.694-1.437zm-20.118 18.321l.539.718a2.515 2.515 0 01.9 2.335 1.078 1.078 0 01-.9 1.078 3.592 3.592 0 01-1.976.539 3.772 3.772 0 00-2.155 1.257 3.054 3.054 0 00-.359 2.515 3.846 3.846 0 004.311 2.335 8.982 8.982 0 003.592-1.437 6.467 6.467 0 002.155-1.437c.359-.359.539-.539.539-.9l-.719.718a6.287 6.287 0 01-2.155 1.257 12.214 12.214 0 01-3.592 1.257 3.233 3.233 0 01-3.592-1.976 1.976 1.976 0 01.359-1.976 3.053 3.053 0 011.8-1.078 8.083 8.083 0 001.976-.539 1.8 1.8 0 001.078-1.617 3.592 3.592 0 00-1.078-2.515z"/><path class="j" d="M564.181 246.047a1.078 1.078 0 00-.719.359 2.155 2.155 0 00-.9 2.155 3.413 3.413 0 002.156 2.874 5.927 5.927 0 004.311 0 6.107 6.107 0 003.413-2.515 7.9 7.9 0 001.257-3.413 5.388 5.388 0 00-.359-2.335c0-.359-.18-.539-.359-.9a9.879 9.879 0 01.18 3.233 6.646 6.646 0 01-4.311 5.389 7.364 7.364 0 01-3.952 0 2.73 2.73 0 01-1.257-4.49zm-13.293-6.646a3.233 3.233 0 00-.539-1.437 7.185 7.185 0 00-2.874-2.335v.539l1.8-.9a14.01 14.01 0 005.023-5.207 45.8 45.8 0 01-5.388 4.67l-1.8.9-.719.359h.719a5.568 5.568 0 012.874 2.155c.545.897.725 1.256.904 1.256zm24.968-8.622a3.233 3.233 0 00-1.079 2.335 4.31 4.31 0 00.719 2.515c.18-.18-.18-1.078 0-2.335s.539-2.335.36-2.515z"/><path class="i" d="M201.351 258.8s-11.675-19.04-13.831-20.656-20.656-8.442-22.273-7.9-24.069 4.311-21.554 7.005 18.321-.18 18.321-.18l2.155 1.078s-13.651 2.155-16.345 3.772-1.8 4.67.718 4.49 14.19-2.515 14.908-1.976-12.753 3.054-14.19 3.952-2.155 4.67.18 4.49 14.19-3.413 14.19-3.413c-3.592 1.437-7.364 3.054-10.957 4.85a1.8 1.8 0 001.8 3.053c1.437-.359 8.622-3.772 10.6-4.131s1.8.539 3.592 4.311 4.49 12.753 11.136 12.753 11.675 4.67 11.675 4.67z"/><path class="j" d="M143.874 237.425a15.446 15.446 0 004.131 1.078h4.669l5.568-.718 4.132-.717h-.18a43.646 43.646 0 009.7 3.054c-3.054-1.437-6.287-2.874-9.34-3.952h-.359l-4.131.539-5.568.9h-4.49z"/><path class="i" d="M192.55 256.464a4.131 4.131 0 01-5.209 0 26.943 26.943 0 01-4.311-3.592c-4.67-3.233-11.136-2.335-15.627-5.748-.539-.539-1.257-1.257-.9-1.976s1.26-.718 1.979-.718l18.5.359"/><path class="j" d="M186.982 244.969l-1.976-.359h-5.389l-8.083-.359H169.2a3.952 3.952 0 00-2.874.539 1.617 1.617 0 00-.18 1.8 3.233 3.233 0 00.9 1.257l2.335 1.437a82.805 82.805 0 009.52 2.694 9.161 9.161 0 013.772 1.8l3.054 2.335a6.646 6.646 0 005.209 1.8 2.515 2.515 0 001.8-1.078l-1.8.718a6.286 6.286 0 01-4.67-1.976c-.9-.719-1.8-1.8-2.874-2.515a12.573 12.573 0 00-4.131-1.976 56.223 56.223 0 01-9.34-2.874l-2.16-1.267c-.539-.359-.9-1.078-.539-1.257a4.807 4.807 0 011.976-.359h17.782z"/><path class="k" d="M292.602 679.465l-4.311 47.06-14.01 36.462a4.49 4.49 0 002.694 6.107h.359a4.67 4.67 0 004.311-.718c8.083-6.107 37.181-28.559 37.361-31.972s7.724-49.575 7.724-49.575z"/><g class="l"><path class="f" d="M277.33 769.275l42.031-35.924-.359 1.976a6.646 6.646 0 01-2.155 4.49c-3.417 3.234-12.934 11.855-35.027 28.739a4.491 4.491 0 01-4.49.718z"/></g><g class="l"><path class="f" d="M311.278 717.186a2.694 2.694 0 00-1.078 3.592 2.515 2.515 0 003.592 1.257 3.233 3.233 0 001.257-3.952 2.874 2.874 0 00-3.952-.718"/></g><path class="m" d="M290.442 749.875c-.359.18-1.078-2.335-3.772-4.131a17.6 17.6 0 00-5.209-1.617 3.412 3.412 0 011.8-.359 7.005 7.005 0 014.131 1.257 6.107 6.107 0 012.694 3.233 5.747 5.747 0 01.356 1.617zm-4.131 6.108a25.143 25.143 0 00-3.952-2.515l-4.49-1.257a5.748 5.748 0 014.85.18c2.694 1.077 3.95 3.412 3.592 3.592zm11.316-13.292a45.257 45.257 0 00-5.927-4.311c-3.413-1.976-6.825-2.155-6.825-2.515a10.418 10.418 0 017.364 1.616 11.675 11.675 0 015.389 5.209zm2.335-14.37c0 .359-2.515-1.078-5.927-1.617a39.679 39.679 0 00-6.107-.18 12.214 12.214 0 0112.034 1.797zm1.616-13.65a18.32 18.32 0 00-6.107-1.8 26.4 26.4 0 00-6.466.718 6.646 6.646 0 011.617-1.078 11.316 11.316 0 014.85-.718 14.191 14.191 0 014.67 1.437c1.077.722 1.616 1.261 1.436 1.441zm-5.745-4.491a5.57 5.57 0 01.18-1.8 10.238 10.238 0 011.976-4.491 4.49 4.49 0 012.515-2.335 1.8 1.8 0 012.155.718 2.335 2.335 0 01.539 2.155 6.826 6.826 0 01-6.646 5.568 7.9 7.9 0 01-7.364-5.029 3.592 3.592 0 01.18-2.335 2.335 2.335 0 012.155-.718 6.466 6.466 0 012.874 1.976 14.011 14.011 0 012.694 3.952 3.413 3.413 0 01.539 1.8 17.6 17.6 0 00-3.772-5.209 7.544 7.544 0 00-2.515-1.616 1.078 1.078 0 00-1.257.359 2.515 2.515 0 000 1.617 7 7 0 006.466 4.131 6.107 6.107 0 005.748-4.67 1.976 1.976 0 00-.359-1.437 1.257 1.257 0 00-1.078-.539 5.029 5.029 0 00-2.335 1.976 17.784 17.784 0 00-2.694 5.927z"/><path class="m" d="M336.065 707.126l35.205-279.127-11.316-65.021-66.459 3.592-8.262 335.347a4.85 4.85 0 004.131 5.209l38.618 5.927a6.826 6.826 0 007.9-5.748z"/><path class="m" d="M370.192 437.34l64.124 63.405-92.144 22.452 6.466 46.521 124.834-16.884a39.516 39.516 0 0026.583-15.986 39.157 39.157 0 00.718-45.084l-97.351-142.976-43.468 14.19z"/><path class="n" d="M366.6 421.175a40.056 40.056 0 012.335 7.9 31.793 31.793 0 011.257 8.262 31.609 31.609 0 01-2.155-8.083 42.388 42.388 0 01-1.437-8.079z"/><path class="n" d="M357.26 528.945l1.617-.359 4.49-1.437 17.064-5.209 62.686-18.864v.539l-76.877-81.906.718-.359c-1.437 12.932-3.053 26.4-4.67 40.055-8.083 66.459-15.447 126.81-21.195 170.278-2.874 21.734-5.389 39.336-7.185 51.371-1.078 6.107-1.8 10.777-2.515 14.01a31.079 31.079 0 01-.718 3.592 5.568 5.568 0 01-.359 1.257 3.053 3.053 0 01.359-1.257c.18-.9.359-2.155.539-3.592s1.257-7.9 2.335-14.01c1.8-12.214 4.131-29.637 6.825-51.55 5.748-43.468 13.112-103.64 21.015-170.1 1.617-13.831 3.233-27.122 4.67-40.055v-1.073l.718.718 76.7 82.265.359.359h-.539l-62.687 18.5-17.243 5.029-4.49 1.257z"/><path class="n" d="M336.604 701.917c-.359 0 7.005-59.274 16.345-132.379s17.064-132.2 17.243-132.2-7.005 59.274-16.345 132.379-17.064 132.2-17.243 132.2zm23.171-310.379a13.471 13.471 0 011.437 4.311c.9 2.694 1.8 6.646 2.694 10.777s1.617 8.083 2.155 10.777a37.894 37.894 0 01.359 4.49 18.86 18.86 0 01-1.078-4.311c-.718-3.233-1.437-6.826-2.335-10.777s-1.8-7.724-2.335-10.777a33.044 33.044 0 01-.9-4.49zm4.131-5.389a2.694 2.694 0 012.694-.359 3.194 3.194 0 11-3.233 5.389 2.874 2.874 0 01-.718-2.874 2.694 2.694 0 011.078-1.616h.718a3.772 3.772 0 00-1.257 1.976 2.155 2.155 0 00.718 1.976 2.255 2.255 0 003.772-2.155 1.976 1.976 0 00-1.257-1.8 4.131 4.131 0 00-2.515-.539zm89.27 125.553a108.5 108.5 0 00-8.981-6.107 102.568 102.568 0 00-9.7-4.85 26.4 26.4 0 0110.238 3.952 28.919 28.919 0 018.442 7.005z"/><path class="k" d="M314.691 172.763l-36.822 17.786 15.806 110.645-6.286 49.755a19.758 19.758 0 006.466 17.064l59.633-1.078 41.492-22.991 19.219-3.233-7.9-37.72 3.592-53.706 43.465 23.164a14.549 14.549 0 0010.957 1.257l79.75-20.656-4.131-30.715-72.206 8.083-54.963-48.5-40.953-9.161-7.365-12.208h-41.851l-3.053 2.335a8.622 8.622 0 00-3.053 4.131z"/><path class="k" d="M277.869 190.545a44.186 44.186 0 00-16.7 21.554c-4.131 12.933-13.651 65.92-13.651 65.92l-41.851-26.045-24.073 25.506 55.682 49.036a28.2 28.2 0 0031.074 4.311 28.021 28.021 0 0015.806-21.734l6.826-50.113z"/><path class="i" d="M403.422 348.788l-2.515-3.772-27.661 5.029-5.029 11.855z"/><path class="k" d="M293.855 368.008c24.608 9.879 51.012 6.287 74.362-6.107 7.185-3.772 13.651-8.442 20.836-12.214s14.908-6.287 22.991-5.748 15.986 4.85 19.219 12.214 0 17.423-7.544 20.117l2.694 2.335c10.957-5.029 16.166-19.938 10.777-30.894s-12.753-13.471-19.219-20.3c-9.34-10.059-10.238-29.457-10.238-44.545"/><path class="m" d="M347.92 194.137h-1.8a7.364 7.364 0 00-4.311 1.976 9.879 9.879 0 00-2.155 7.005 22.093 22.093 0 001.976 9.52l.718 1.437-1.437-.9a80.821 80.821 0 01-9.34-8.262A65.741 65.741 0 01317.381 183a46.342 46.342 0 01-2.335-7.544 15.806 15.806 0 01-.355-2.873q1.437 5.209 3.233 10.238a75.8 75.8 0 0014.367 21.375 79.211 79.211 0 009.161 8.262l-.719.539a26.408 26.408 0 01-1.437-5.029 14.73 14.73 0 01-.359-4.85 10.058 10.058 0 012.515-7.364 6.466 6.466 0 014.67-1.976z"/><path class="k" d="M350.075 194.137c3.053-1.257 7.544.539 9.7 3.053s2.335 3.952 4.131 5.029 7.9 1.976 9.7.539 1.078-5.029 1.617-7.185a163.632 163.632 0 004.131-24.608c-5.927-2.694-4.311-6.466-14.729-5.748a25.685 25.685 0 01.359 14.729"/><path class="m" d="M364.984 179.947s.359-1.437.718-3.952a27.482 27.482 0 00-1.437-10.777v-.359h.359a15.986 15.986 0 017.724.718 11.855 11.855 0 013.592 2.515 16.165 16.165 0 003.592 2.515h.359c-.539 4.49-1.078 9.161-1.8 14.19a62.673 62.673 0 01-1.976 9.161c-.719 2.874-1.437 5.927-1.976 8.622h-.18a4.49 4.49 0 01-3.053.718h-2.874a14.371 14.371 0 01-2.694-.539 5.928 5.928 0 01-2.335-1.257l-2.874-3.772a9.7 9.7 0 00-2.694-2.694 13.471 13.471 0 00-5.209-1.617l-1.971.358a3.592 3.592 0 011.976-.539 9.7 9.7 0 015.389 1.437 14.369 14.369 0 013.054 2.694c.718 1.257 1.8 2.335 2.694 3.592a11.136 11.136 0 004.67 1.617h2.874a3.952 3.952 0 002.515-.539v.359c.539-2.874 1.257-5.748 1.976-8.622s1.257-6.107 1.8-9.34a139.4 139.4 0 001.8-13.831l.359.359a19.22 19.22 0 01-3.952-2.694 10.6 10.6 0 00-3.233-2.335 16.885 16.885 0 00-7.364-.718l.359-.539a25.147 25.147 0 01.9 10.957 8.085 8.085 0 01-.539 2.874 2.515 2.515 0 01-.539 1.437zm61.429 169.38v-1.975a12.754 12.754 0 00-1.8-5.568 17.243 17.243 0 00-6.646-6.287 27.122 27.122 0 00-11.675-3.233c-4.67-.539-9.7-.18-15.088-.539a60.172 60.172 0 01-17.064-3.592 34.487 34.487 0 01-15.267-11.5 27.122 27.122 0 01-4.49-9.161 34.845 34.845 0 01-.9-10.6c.18-7.185 1.8-13.831 2.874-20.3a166.7 166.7 0 001.8-19.04 158.063 158.063 0 00-7.724-53.347c-.719-2.335-1.437-4.311-1.976-5.568a5.568 5.568 0 01-.359-1.437.719.719 0 01-.18-.539v.539a6.107 6.107 0 01.539 1.437c.539 1.257 1.257 3.054 2.155 5.568a139.209 139.209 0 015.568 21.015 163.812 163.812 0 012.694 32.331c-.359 6.466-.9 12.753-1.8 19.219a145.31 145.31 0 00-2.874 20.3 28.918 28.918 0 005.209 19.04 32.87 32.87 0 0014.91 11.144 52.448 52.448 0 0016.7 3.592c5.389.359 10.418.18 15.088.718a28.919 28.919 0 0112.034 3.413 19.578 19.578 0 016.646 6.646 11.136 11.136 0 011.617 5.748v1.976z"/><path class="m" d="M399.471 316.637a7.723 7.723 0 01-1.976 2.155 17.962 17.962 0 01-2.694 2.335l-3.592 3.053a74.363 74.363 0 01-9.879 6.826 100.227 100.227 0 01-27.122 11.5c-3.952.9-7.9 1.617-12.034 2.155l-4.49.539h-6.468l2.874-.359 3.413-.359 4.67-.539c3.952-.718 7.9-1.437 11.675-2.515a128.067 128.067 0 0014.01-4.67 128.249 128.249 0 0013.112-6.646 86.392 86.392 0 009.879-6.646 20.835 20.835 0 003.592-2.874l2.694-2.155zm-11.496-58.915a2.336 2.336 0 01-.18 1.078l-.539 2.874a38.986 38.986 0 01-1.257 4.311c-.539 1.617-1.078 3.592-1.976 5.748a24.067 24.067 0 01-1.257 3.233 27.66 27.66 0 01-1.437 3.413c-1.078 2.515-2.515 4.85-3.772 7.544a104.359 104.359 0 01-24.608 29.278 82.8 82.8 0 01-6.825 5.029l-3.054 2.155-3.053 1.8a51.724 51.724 0 01-5.209 2.874l-4.131 1.976-2.693 1.073-.9.359.9-.539 2.515-1.257 3.952-2.155 5.209-2.874 3.053-1.8 3.053-2.155c2.155-1.437 4.311-3.233 6.646-5.029a119.263 119.263 0 0013.472-13.468 127.531 127.531 0 0010.777-15.627c1.437-2.694 2.874-5.029 3.952-7.364l1.617-3.413 1.257-3.233a55.144 55.144 0 001.976-5.748l1.437-4.311.718-2.694a2.515 2.515 0 01.359-1.078zm-75.799 119.266a10.6 10.6 0 01-3.233-2.335 24.787 24.787 0 01-7.544-17.962 14.909 14.909 0 01.539-3.952c.18 0 0 1.617.18 3.952a27.661 27.661 0 007.364 17.423c1.617 1.797 2.874 2.874 2.694 2.874zm-1.258-14.01c.18 0-.18 2.515 0 5.209s1.078 5.029.9 5.209a10.418 10.418 0 01-.9-10.418zm-17.782-64.305c0-.18-.18-.539-.18-.718s-.18-1.617-.359-2.515-.9-5.389-1.617-8.981c-1.257-7.544-3.053-18.141-5.209-29.637s-4.311-21.913-5.748-29.637c-.718-3.592-1.437-6.646-1.8-8.981a14.912 14.912 0 01-.359-2.335 1.617 1.617 0 01-.18-.9l.359.9a23.352 23.352 0 01.539 2.335l2.155 8.8c1.8 7.544 3.952 17.962 6.107 29.637s3.772 22.093 4.85 29.637c.539 3.772 1.078 7.005 1.257 8.981a10.506 10.506 0 00.359 2.515 1.257 1.257 0 01-.174.899zm114.956.002v-12.753c0-7.9.359-18.86 1.257-30.894s2.155-22.991 3.053-30.894c.539-3.772.9-6.825 1.257-9.161s.18-1.976.359-2.694a1.078 1.078 0 01.18-.718v.9c0 .539-.18 1.437-.18 2.515s-.539 5.389-.9 9.34c-.718 7.9-1.8 18.68-2.874 30.715s-1.257 22.991-1.617 30.894c0 3.772-.18 7.005-.18 9.34v2.515a1.257 1.257 0 01-.359.9zm-143.515 4.67c-.359.18-2.694-6.466-7.185-13.471a74 74 0 00-9.879-11.855 11.5 11.5 0 013.592 2.874 44.9 44.9 0 017.005 8.442 49.753 49.753 0 015.029 9.7 20.3 20.3 0 011.437 4.311z"/><path class="m" d="M267.631 295.442a22.991 22.991 0 01-1.976-3.592 34.129 34.129 0 00-6.287-7.185 34.487 34.487 0 00-8.262-4.85l-3.592-1.8a14.19 14.19 0 013.952 1.078 34.127 34.127 0 018.622 4.85 23.35 23.35 0 016.107 7.724 10.777 10.777 0 011.436 3.775z"/><path d="M286.132 252.331l-.359.9-1.617 1.976a11.316 11.316 0 01-8.8 2.335 17.243 17.243 0 01-11.136-7.9 33.588 33.588 0 01-3.592-7.185 25.687 25.687 0 01-1.437-3.952 9.7 9.7 0 01-.539-4.49 7.185 7.185 0 012.155-4.131 5.927 5.927 0 014.49-.9 8.622 8.622 0 015.928 5.747 8.262 8.262 0 01-.718 7.364 9.161 9.161 0 01-5.209 3.772 7.9 7.9 0 01-5.389-.18 8.263 8.263 0 01-3.233-2.335 7.9 7.9 0 01-1.437-1.976c-.18-.539-.359-.9-.18-.9a7.185 7.185 0 001.8 2.694 10.417 10.417 0 003.233 1.976 7.005 7.005 0 005.029.18 8.8 8.8 0 004.67-3.772 7.185 7.185 0 00.539-6.646 8.442 8.442 0 00-5.389-5.029 5.029 5.029 0 00-3.592.718 5.389 5.389 0 00-1.8 3.413c-.359 2.874.9 5.568 1.8 8.083a33.588 33.588 0 003.592 7.185 16.7 16.7 0 0010.418 7.724 10.777 10.777 0 008.442-1.976 11.494 11.494 0 002.331-2.695zm70.585 27.663l-.539.359-1.437 1.257a42.927 42.927 0 01-6.107 3.772 17.962 17.962 0 01-5.209 1.8 12.753 12.753 0 01-6.287-.539 21.375 21.375 0 01-11.316-10.059 36.283 36.283 0 01.359-38.079 19.938 19.938 0 018.442-7.9 10.238 10.238 0 016.107-.718 7.9 7.9 0 015.389 3.054 9.34 9.34 0 011.617 6.107 14.369 14.369 0 01-1.976 6.107 19.937 19.937 0 01-9.879 8.083 26.4 26.4 0 01-12.932 1.257 24.787 24.787 0 01-11.5-4.67 40.414 40.414 0 01-13.651-19.04 22.991 22.991 0 01-1.617-10.957 12.575 12.575 0 012.155-5.029 8.083 8.083 0 014.311-2.874 9.791 9.791 0 0111.136 11.855 13.651 13.651 0 01-3.592 7.185 19.938 19.938 0 01-6.107 3.952 27.661 27.661 0 01-11.5 1.8l-7.185-.718-1.8-.359 1.976.359 7.185.539a29.637 29.637 0 0011.136-1.8 18.321 18.321 0 005.748-3.952 13.112 13.112 0 003.592-7.005 8.981 8.981 0 00-2.155-7.9 8.8 8.8 0 00-8.262-2.874 8.262 8.262 0 00-5.927 7.185 22.811 22.811 0 001.8 10.418 38.258 38.258 0 0013.292 18.68 24.428 24.428 0 0011.136 4.49 23.53 23.53 0 0012.214-1.257 18.321 18.321 0 009.52-7.724 10.238 10.238 0 001.8-5.568 7.005 7.005 0 00-1.437-5.568 7.364 7.364 0 00-4.85-2.694 8.622 8.622 0 00-5.568.718 18.141 18.141 0 00-8.083 7.544 36.642 36.642 0 00-.539 37.361 22.093 22.093 0 0011.136 9.879 14.549 14.549 0 0010.957-1.257 31.432 31.432 0 006.287-3.592l1.437-1.078zm-49.57-100.769l-.539 1.617a45.454 45.454 0 01-2.335 3.952 29.817 29.817 0 01-26.583 12.753l-4.67-.718-1.617-.718a42.751 42.751 0 006.287.718 30.715 30.715 0 0026.045-12.394c2.334-3.05 3.232-5.385 3.412-5.21zm26.583 7.548a16.525 16.525 0 00-5.029 2.515 14.908 14.908 0 00-3.413 4.67 6.287 6.287 0 01.359-1.8 8.083 8.083 0 016.287-5.385zm37.9 10.597l-1.437-.718a11.316 11.316 0 01-3.413-3.054 12.034 12.034 0 01-2.515-6.466 5.209 5.209 0 011.078-3.952 3.772 3.772 0 014.131-1.8 4.564 4.564 0 012.515 7.185 5.568 5.568 0 01-6.466 1.8 6.466 6.466 0 01-3.592-2.874 3.233 3.233 0 01-.718-1.617l.9 1.437a8.622 8.622 0 003.592 2.515 5.209 5.209 0 005.568-1.617 3.233 3.233 0 00.539-3.413 3.592 3.592 0 00-2.515-2.515 3.233 3.233 0 00-3.233 1.437 4.67 4.67 0 00-.9 3.413 10.956 10.956 0 002.155 6.107 15.808 15.808 0 004.311 4.132zm7.184-21.015a26.941 26.941 0 00-5.927-4.131 31.612 31.612 0 00-7.185-1.257 7.184 7.184 0 012.155-.539 13.651 13.651 0 015.389.9 12.932 12.932 0 014.49 3.233c.899.896 1.258 1.794 1.078 1.794zm49.399 21.015h-.359l-1.078.539-4.311 1.8a54.065 54.065 0 01-16.884 3.233 29.817 29.817 0 01-5.748-.539 13.291 13.291 0 01-5.748-2.874 8.442 8.442 0 01-2.694-6.107 11.675 11.675 0 012.335-6.826 14.19 14.19 0 0114.369-3.592 16.7 16.7 0 0111.5 11.136 16.525 16.525 0 01-3.413 15.627 24.248 24.248 0 01-13.292 7.185 85.859 85.859 0 01-13.651 1.437 62.687 62.687 0 00-11.675 1.078 22.991 22.991 0 00-14.549 8.262 15.986 15.986 0 00-2.694 5.568v-.359a3.593 3.593 0 01.18-1.257 18.141 18.141 0 012.155-4.131 23.709 23.709 0 0114.729-8.8 82.625 82.625 0 0111.855-1.257 68.615 68.615 0 0013.471-1.437 23.35 23.35 0 0012.753-6.825 15.806 15.806 0 003.233-14.729 15.986 15.986 0 00-10.784-10.424 12.933 12.933 0 00-13.471 3.233 9.879 9.879 0 00-2.155 6.287 7.724 7.724 0 002.515 5.568 10.777 10.777 0 005.389 2.515 19.039 19.039 0 005.568.718 59.274 59.274 0 0016.7-2.874l4.311-1.617zm-44.728 70.411c-.18 0-.9-1.437-2.515-3.592a18.321 18.321 0 00-18.321-6.826l-4.131 1.078a9.879 9.879 0 013.952-1.8 17.782 17.782 0 0119.039 7.185 11.675 11.675 0 011.976 3.952zm21.015 13.651a8.621 8.621 0 01-2.515 3.592 15.088 15.088 0 01-19.758 1.617 10.417 10.417 0 01-3.054-3.233c.18-.18 1.257 1.257 3.413 2.694a16.7 16.7 0 009.7 2.515 15.986 15.986 0 009.16-4.131c1.976-1.617 2.875-3.234 3.054-3.054zm5.388-35.744l-3.053-1.078a13.292 13.292 0 00-13.831 4.49 28.74 28.74 0 00-1.8 2.515 5.209 5.209 0 011.257-2.874 12.394 12.394 0 0114.549-4.67 5.748 5.748 0 012.874 1.617zm66.994-16.526c0 .359.18.9.18 1.257a10.337 10.337 0 00.359 1.8v2.155a24.069 24.069 0 01-5.209 13.471 21.733 21.733 0 01-7.724 6.287 24.249 24.249 0 01-11.136 2.694 30 30 0 01-23.171-11.5 19.937 19.937 0 01-3.233-6.107 13.291 13.291 0 01.18-7.005 8.8 8.8 0 014.131-5.029 9.52 9.52 0 016.287-.719 9.7 9.7 0 015.389 2.694 13.112 13.112 0 013.054 5.029 16.884 16.884 0 01-.18 9.879 20.3 20.3 0 01-4.131 7.185 21.194 21.194 0 01-5.029 3.952l-3.592 1.437h-1.255l4.85-1.976a19.04 19.04 0 008.622-10.777 14.37 14.37 0 000-9.52 10.957 10.957 0 00-2.694-4.67 10.238 10.238 0 00-5.029-2.515 8.981 8.981 0 00-5.748.718 8.263 8.263 0 00-3.772 4.67 12.393 12.393 0 000 6.287 15.627 15.627 0 003.051 5.93 30 30 0 0022.452 11.136 23.889 23.889 0 0023.71-21.554c.002-1.616-.178-3.409-.362-5.209zm13.834 37.182a2.335 2.335 0 01-1.078-1.257 11.676 11.676 0 01-1.976-3.952 17.6 17.6 0 01-.359-6.826 62.522 62.522 0 011.8-7.9 60.706 60.706 0 016.466-13.292c1.078-1.437 1.8-2.874 2.515-3.592a3.233 3.233 0 01.9-1.257 39.348 39.348 0 01-2.874 5.389 67.177 67.177 0 00-6.107 13.112c-.718 2.515-1.257 5.209-1.8 7.724a19.577 19.577 0 000 6.466 18.5 18.5 0 002.513 5.385zm33.948-41.312l.539 1.257a28.744 28.744 0 01.9 3.772 32.331 32.331 0 01-5.389 23.889 19.576 19.576 0 01-2.335 3.054l-1.078.9a47.589 47.589 0 002.874-4.311 35.385 35.385 0 005.209-23.53c-.36-3.055-.899-5.031-.72-5.031zm-117.475 84.061l-.9-.539-2.155-1.078a24.787 24.787 0 00-8.8-2.515 27.3 27.3 0 00-13.112 2.155 23.529 23.529 0 00-6.646 4.311 15.449 15.449 0 00-2.515 3.233 6.107 6.107 0 00-.9 3.952 5.388 5.388 0 001.8 3.413 4.311 4.311 0 003.592.18 6.646 6.646 0 003.413-6.287 12.573 12.573 0 00-6.646-10.777 12.394 12.394 0 00-8.8-1.257l-3.233 1.078.718-.539 2.335-.9a12.933 12.933 0 0116.525 12.394 10.6 10.6 0 01-.9 3.952 5.927 5.927 0 01-3.054 3.233 5.029 5.029 0 01-4.49-.359 5.748 5.748 0 01-2.335-3.952 6.466 6.466 0 011.078-4.49 12.575 12.575 0 012.694-3.413 21.374 21.374 0 016.825-4.49 25.506 25.506 0 0113.651-1.976 25.148 25.148 0 018.8 2.694 6.467 6.467 0 012.155 1.437zm6.471 14.729a12.753 12.753 0 01-2.155 4.131c-1.437 2.155-2.694 3.772-3.054 3.592a18.142 18.142 0 012.155-4.131 19.937 19.937 0 013.054-3.592zm22.811 25.685c-.18 0-.359-.539-1.078-1.437a9.16 9.16 0 00-7.364-4.131h-1.8a3.233 3.233 0 011.8-.539 7.9 7.9 0 017.9 4.311 4.49 4.49 0 01.539 1.8zm-74.181-9.161l-5.748 3.233a52.088 52.088 0 00-12.214 9.52 27.661 27.661 0 00-6.466 13.651 38.97 38.97 0 00.18 6.466 5.749 5.749 0 01-.539-1.617 14.73 14.73 0 01-.18-4.85 24.069 24.069 0 016.466-14.369 43.288 43.288 0 0112.573-9.34l4.131-1.976zm26.403 8.801a5.388 5.388 0 01-1.978-2.155 11.675 11.675 0 011.08-13.288 4.67 4.67 0 012.335-1.8 9.162 9.162 0 00-1.8 2.155 12.573 12.573 0 00-1.078 12.753 14.369 14.369 0 001.441 2.335zm-41.307-32.51l-1.078-1.078a7.185 7.185 0 00-3.772-1.617 8.981 8.981 0 00-6.107 1.257 20.476 20.476 0 00-6.107 6.287c-1.8 2.874-3.233 6.107-5.389 9.34a20.836 20.836 0 01-10.059 7.364 17.6 17.6 0 01-13.471-.9 18.86 18.86 0 01-10.059-10.6 12.034 12.034 0 01-.359-7.544 11.316 11.316 0 014.67-5.748 11.855 11.855 0 017.005-1.617 10.957 10.957 0 016.107 3.053 14.19 14.19 0 014.85 11.136 19.22 19.22 0 01-3.233 10.418 26.224 26.224 0 01-6.466 6.107 38.986 38.986 0 01-6.287 2.694l-4.131.718h-1.437l1.437-.359 4.131-.9a25.865 25.865 0 005.927-2.874 22.093 22.093 0 006.287-5.927 18.321 18.321 0 003.053-10.059 14.19 14.19 0 00-4.67-10.6 11.316 11.316 0 00-5.748-2.694 10.777 10.777 0 00-6.287 1.437 9.7 9.7 0 00-3.952 12.214 19.04 19.04 0 009.52 10.238 16.884 16.884 0 0012.933.718 19.578 19.578 0 009.52-7.005 104.364 104.364 0 005.568-9.16 21.016 21.016 0 016.287-6.287 9.52 9.52 0 016.646-1.257 7.365 7.365 0 013.772 1.8zm.534 28.02a8.621 8.621 0 01-2.874-2.335 19.579 19.579 0 01-4.85-16.7 7 7 0 011.078-3.592 16.346 16.346 0 01-.539 3.592 21.734 21.734 0 004.85 16.166c1.437 1.791 2.515 2.689 2.335 2.869zm6.646-41.487l-3.592-1.437a44.007 44.007 0 00-25.865-1.976 35.563 35.563 0 00-8.622 3.233 6.825 6.825 0 00-2.874 3.413 3.413 3.413 0 001.8 3.592 1.617 1.617 0 001.8-.539 4.311 4.311 0 001.078-1.976 22.271 22.271 0 00.539-4.85 24.607 24.607 0 00-2.335-8.8 22.453 22.453 0 00-5.029-6.466 20.3 20.3 0 00-6.287-3.592 20.835 20.835 0 00-10.418-1.078 16.344 16.344 0 00-3.772.9l.9-.539a21.554 21.554 0 0113.471 0 28.381 28.381 0 016.466 3.592 19.758 19.758 0 015.389 6.826 20.656 20.656 0 012.515 9.161 15.806 15.806 0 01-.359 5.029 7 7 0 01-1.437 2.515 3.054 3.054 0 01-2.694.718 4.135 4.135 0 01-2.515-4.67 5.568 5.568 0 013.233-3.952 33.051 33.051 0 018.8-3.413 47.957 47.957 0 0115.986-.539 39.7 39.7 0 0110.238 3.053l2.694 1.257zm-139.922 5.204l2.874-2.694a22.272 22.272 0 005.568-8.981 19.219 19.219 0 00-.359-15.088 18.5 18.5 0 00-5.748-7.185 17.782 17.782 0 00-8.981-3.413 10.418 10.418 0 00-4.67 1.078 5.748 5.748 0 00-3.233 3.233 4.311 4.311 0 00.718 4.131 5.568 5.568 0 003.233 2.515 9.52 9.52 0 007.9-1.257 14.909 14.909 0 004.67-5.389 29.277 29.277 0 002.335-10.418v-2.874a2.335 2.335 0 01.18-1.078v3.952a24.428 24.428 0 01-1.969 10.778 13.651 13.651 0 01-4.85 5.748 10.238 10.238 0 01-8.442 1.617 8.981 8.981 0 01-3.952-2.874 5.568 5.568 0 01-.718-5.029 7.364 7.364 0 013.592-3.772 12.934 12.934 0 015.209-1.078 16.884 16.884 0 019.52 3.592 18.86 18.86 0 015.927 7.544 16.7 16.7 0 011.8 8.442 21.374 21.374 0 01-1.437 7.364 26.942 26.942 0 01-5.927 8.981l-2.335 1.8zm37.181 26.763l-1.437-1.437a41.862 41.862 0 01-3.053-4.67 33.589 33.589 0 012.335-35.205l3.592-4.311 1.617-1.257c.18.18-2.155 2.155-4.67 5.927a33.948 33.948 0 00-2.335 34.487c1.256 2.335 2.514 4.311 3.951 6.466zm35.204-39.156c-.18 0-1.078-2.694-3.233-6.646a36.642 36.642 0 00-28.38-18.68c-4.49-.539-7.364-.18-7.364-.359l1.976-.359h5.389a35.385 35.385 0 0128.919 19.219 24.965 24.965 0 012.155 5.029z" fill="#fafafa"/><path d="M336.065 346.274c-1.8.718-1.617 3.592-.18 4.67a8.263 8.263 0 005.389 1.257 68.973 68.973 0 0053.167-30c-16.166 13.292-37.54 18.321-58.017 22.991m-3.592-17.239c-1.8-2.694-.539-6.466 1.8-8.8a29.458 29.458 0 018.262-4.85 52.808 52.808 0 0024.245-24.969c3.233-7.005 5.748-15.627 12.932-18.5a70.051 70.051 0 01-46.162 54.963m-52.088-90.886a184.648 184.648 0 01-4.131 58.735 55.861 55.861 0 00-1.976 12.394 16.7 16.7 0 005.927 11.5c3.054-6.825 3.054-13.471 4.311-20.836s3.054-22.273 3.054-22.452c.359-13.651-2.874-25.326-8.262-37.54m35.025-60.716a71.847 71.847 0 0020.3 38.079c3.952 3.772 8.981 7.364 14.369 7.185a34.487 34.487 0 01-2.694-21.195 78.315 78.315 0 0014.729 8.083 28.918 28.918 0 0016.525 1.8l3.413-29.637a4.49 4.49 0 00-.359-3.413 1.976 1.976 0 00-2.515-.9h-.18a3.592 3.592 0 00-.718 1.437c-1.976 8.622-3.053 16.525-5.029 25.147-1.437 1.437-5.927.9-8.981-.18s-3.592-3.054-5.209-5.209-1.437-1.8-3.952-2.874-13.471-.359-15.447 3.772-.359 9.52.9 13.651a62.507 62.507 0 01-26.23-36.285m98.969 42.569c-.359.718 11.136 39.7 11.136 39.7l-14.908-8.626z"/><path class="i" d="M320.618 105.046v62.148a14.549 14.549 0 003.592 9.52 43.827 43.827 0 0012.573 10.418l12.573 7.005 10.238-9.161a15.267 15.267 0 005.029-10.6c.18-4.67.18-8.981.18-8.981s17.6-1.257 19.219-18.68c.718-8.083 1.078-24.787 1.078-40.055a33.768 33.768 0 00-31.073-33.947h-.539a32.331 32.331 0 00-32.87 31.435z"/><path class="j" d="M364.624 165.219a42.569 42.569 0 01-21.913-8.622s4.49 13.112 21.913 13.112z"/><path class="m" d="M379.713 117.62a2.335 2.335 0 01-2.515 2.335 2.515 2.515 0 01-2.335-2.515 2.426 2.426 0 014.85 0zm.717-4.131a17.243 17.243 0 00-4.67-1.437c-2.694-.359-4.67.9-5.029.539s.18-.718 1.257-1.257a5.927 5.927 0 013.952-.9 7.185 7.185 0 013.772 1.617c.718.72.898 1.259.718 1.438zm-25.685 2.874a2.518 2.518 0 01-5.029-.18 2.694 2.694 0 012.694-2.335 2.335 2.335 0 012.335 2.335zm-.359-4.67c-.359.359-2.155-1.078-4.85-1.437s-4.67 1.078-5.029.718.359-.718 1.257-1.257a7.724 7.724 0 013.952-1.078 7.185 7.185 0 013.772 1.617c.718.718 1.077 1.437.898 1.437zm7.903 20.655a18.141 18.141 0 014.49-.539c.539 0 1.257 0 1.437-.539a2.515 2.515 0 00-.359-1.976c-.359-1.8-.9-3.592-1.437-5.389a82.98 82.98 0 01-3.413-14.01 119.8 119.8 0 014.49 13.651c.539 1.8.9 3.592 1.437 5.389a4.67 4.67 0 01.18 2.694c-.359.539-.718.9-1.257.9h-1.078a18.5 18.5 0 01-4.49-.181zm-7.903 1.078c.359 0 .18 2.874 2.515 5.209s5.389 2.155 5.389 2.515-.718.539-2.155.539a8.442 8.442 0 01-4.49-1.976 6.646 6.646 0 01-1.8-4.311c.002-1.258.361-1.976.541-1.976zm1.437-31.972c-.359.718-2.874.18-6.107.18s-5.748.718-6.107 0 .359-.9 1.437-1.617a10.6 10.6 0 019.34-.18c1.082.54 1.617 1.259 1.437 1.617zm24.249 4.132c-.359.718-2.155-.18-4.49-.359s-3.952 0-4.311-.539.18-.9.9-1.437a6.466 6.466 0 017.185.718c.896.719 1.075 1.441.716 1.617zm-38.978-17.962h-.18a13.292 13.292 0 00-5.747 8.442v.359c-1.078 5.029-1.437 10.059-2.515 14.908s-.9 8.442-5.927 9.7a6.287 6.287 0 01-6.646-2.874 5.029 5.029 0 01-.539-2.335c0-11.855-2.335-16.525-1.257-29.1a10.418 10.418 0 015.029-8.083c2.874-1.617 6.107-3.413 8.981-1.8s6.107 7.364 8.262 9.879"/><path class="i" d="M325.827 113.309c-.18 0-11.5-4.49-12.214 7.364s11.5 10.059 11.5 9.7.714-17.064.714-17.064z"/><path class="j" d="M321.696 125.703l-.539.359h-1.617a5.389 5.389 0 01-2.155-4.85 8.8 8.8 0 01.9-2.874 1.976 1.976 0 011.617-1.437c.359-.18.9.18 1.078.539s0 .539.18.718a1.078 1.078 0 00.18-.718.9.9 0 00-.359-.718 1.078 1.078 0 00-1.257-.359 2.515 2.515 0 00-2.155 1.8 6.287 6.287 0 00-.9 3.233 5.568 5.568 0 002.69 5.205 2.515 2.515 0 001.976-.18 1.078 1.078 0 00.359-.718z"/><path class="m" d="M331.575 78.643c-2.515-5.029 6.107-11.136 12.034-12.573s13.471 2.155 19.219 4.67 7.005 3.592 10.777 3.592a36.461 36.461 0 007.724-1.257 16.166 16.166 0 017.724-.9 6.825 6.825 0 015.927 4.49 4.49 4.49 0 01-2.874 5.568h-.718a5.748 5.748 0 017.724 3.054 5.927 5.927 0 01-2.874 7.724 6.646 6.646 0 01-4.131.18c1.8-1.078 4.131 1.078 3.772 3.233a6.107 6.107 0 01-4.49 4.131c-5.029 1.8-10.777.539-15.627-1.437s-9.52-5.209-14.369-7.544-13.112-6.287-18.321-4.85-6.826 5.209-8.981 4.131a7.9 7.9 0 01-3.233-5.748 21.014 21.014 0 01.718-6.646"/><path class="n" d="M392.825 82.235a10.418 10.418 0 01-1.976 2.155 14.549 14.549 0 01-7.005 3.592 15.088 15.088 0 01-11.136-1.257c-3.952-2.155-7.005-6.107-10.777-9.879a23.53 23.53 0 00-12.753-7.364 13.651 13.651 0 00-11.675 2.874 10.777 10.777 0 00-3.233 7.544 4.491 4.491 0 00.359 2.155c0 .18.18.539.18.718s-.18-1.976-.18-2.874a9.7 9.7 0 013.413-6.825 12.753 12.753 0 0110.957-2.515 23.171 23.171 0 0112.034 7.184c3.592 3.592 7.005 7.544 11.136 9.7a15.806 15.806 0 0018.86-2.874 7.005 7.005 0 001.437-1.8c.359-.175.539-.534.359-.534zm-69.871 30.355a1.8 1.8 0 00.9-1.078 9.52 9.52 0 001.078-4.311c0-3.772-3.053-8.262-3.053-13.471a12.214 12.214 0 011.976-7.005 8.262 8.262 0 014.67-3.413 7.364 7.364 0 013.952-.18c1.078.18 1.437.539 1.617.359a4.67 4.67 0 00-1.437-.9 8.8 8.8 0 00-4.311-.18 10.238 10.238 0 00-5.389 3.592 12.034 12.034 0 00-2.155 7.724 18.321 18.321 0 001.617 7.544 18.32 18.32 0 011.616 5.927 9.16 9.16 0 01-1.078 5.389z"/><g transform="translate(72.954 242.275)"><path class="g" d="M532.004 260.805c-3.772-2.335-7.544-4.67-11.5-6.646a217.151 217.151 0 00-27.3-12.034 405.224 405.224 0 00-45.623-14.01c-12.753-3.054-22.632-5.029-29.457-6.287l-10.42-1.796 2.694.539 7.724 1.437c6.646 1.257 16.7 3.233 29.457 6.466a402.346 402.346 0 0145.443 14.01 245.166 245.166 0 0127.122 12.214c3.952 1.976 7.9 4.311 11.675 6.646a.719.719 0 01.18-.539zm-11.141 76.697c-.18-.359-.359-.539-.359-.718a218.609 218.609 0 01-32.87 13.651q-21.554 7.005-43.647 11.855a669.441 669.441 0 01-96.275 12.573 840.067 840.067 0 01-104.178-.539 621.137 621.137 0 01-102.921-15.088 335.344 335.344 0 01-47.241-14.909c-14.908-6.107-29.278-13.471-40.414-24.069-5.568-5.389-10.238-11.675-12.034-18.86a22.632 22.632 0 01-.539-10.957l.539-2.694a11.5 11.5 0 01.359-1.257l.539-1.437.9-2.515 1.437-2.335a57.478 57.478 0 0114.369-15.806 126.805 126.805 0 0117.6-11.136 250.567 250.567 0 0136.642-15.268c12.214-3.952 24.069-7.005 35.564-9.52s22.273-4.67 32.69-6.466l29.457-4.131c18.5-2.155 34.487-3.233 47.6-3.952s23.171-.9 30.176-.9l-30.176.9c-13.112.718-29.1 1.8-47.6 3.772-9.34 1.078-19.219 2.515-29.637 4.131s-21.375 3.592-32.69 6.287-23.35 5.568-35.564 9.52a243.736 243.736 0 00-36.82 15.093 149.449 149.449 0 00-17.783 11.312 58.556 58.556 0 00-14.549 15.988 17.963 17.963 0 00-1.437 2.515l-1.078 2.515-.539 1.437c-.18.359-.18.9-.359 1.257l-.538 2.876a24.249 24.249 0 00.539 11.316c1.8 7.364 6.646 13.831 12.214 19.219 11.5 10.6 25.865 17.962 40.773 24.248a342.9 342.9 0 0047.24 14.908 607.109 607.109 0 00103.28 15.267 806.469 806.469 0 00104.179.359 647.339 647.339 0 0096.455-12.573 373.444 373.444 0 0043.647-11.855 204.049 204.049 0 0033.05-13.831z"/><path class="g" d="M151.928 76.877l-3.053.539-8.8 1.8c-7.9 1.617-19.4 4.131-33.948 8.083a376.472 376.472 0 00-51.73 18.321c-4.85 2.335-9.879 4.67-14.729 7.544a140.282 140.282 0 00-14.908 9.52 91.964 91.964 0 00-13.831 12.573 45.444 45.444 0 00-9.34 17.064 32.152 32.152 0 001.615 20.113 49.934 49.934 0 0012.394 17.423c10.6 10.238 24.069 17.962 38.438 24.608 28.919 13.112 61.968 21.913 96.994 28.559a799.827 799.827 0 00111.363 12.214 961.3 961.3 0 00120.344-2.155c41.132-3.413 81.008-9.34 118.548-19.219a355.989 355.989 0 0054.065-18.68 156.984 156.984 0 0024.248-12.933 95.018 95.018 0 0020.656-17.243c5.748-6.646 9.879-14.908 10.059-23.53a19.385 19.385 0 000-3.233 19.752 19.752 0 00-.359-3.233l-.719-3.054a8.8 8.8 0 00-1.078-3.053 40.773 40.773 0 00-6.107-10.957 80.825 80.825 0 00-18.141-16.884 152.5 152.5 0 00-21.015-12.214 299.065 299.065 0 00-42.57-16.7c-14.19-4.491-27.841-7.9-41.133-10.777a789.978 789.978 0 00-126.807-16.171c-15.088-.9-26.763-.9-34.666-1.078 7.9.18 19.758.18 34.666.9a774.336 774.336 0 01126.988 15.8c13.292 2.874 26.943 6.466 41.132 10.777a282 282 0 0142.749 16.884 151.6 151.6 0 0121.016 12.039 86.935 86.935 0 0118.5 16.884 58.379 58.379 0 016.287 11.316 19.575 19.575 0 01.9 3.054l.9 3.233a35.025 35.025 0 01-2.694 19.4 52.626 52.626 0 01-7.185 11.316 91.967 91.967 0 01-20.836 17.423 177.28 177.28 0 01-24.428 13.112 365.164 365.164 0 01-54.245 18.68 697.093 697.093 0 01-118.727 19.4 961.325 961.325 0 01-120.344 2.155 828.4 828.4 0 01-111.363-12.394c-35.205-6.646-68.255-15.447-97.173-28.739-14.369-6.646-28.02-14.549-38.8-24.787a53.526 53.526 0 01-12.573-17.6 32.511 32.511 0 01-1.437-20.656 44.186 44.186 0 019.52-17.243 93.221 93.221 0 0113.828-12.754c4.85-3.413 9.879-6.646 14.908-9.52s10.059-5.209 14.908-7.544a357.624 357.624 0 0152.089-18.141c14.549-3.952 26.045-6.466 33.768-7.9zm63.045 270.864l-8.981 1.437c-5.927 1.078-14.549 2.515-25.685 4.85a340.192 340.192 0 00-39.516 11.136 194.165 194.165 0 00-23.53 10.238 100.408 100.408 0 00-11.855 7.364 63.223 63.223 0 00-10.957 9.7 28.02 28.02 0 00-4.311 6.287 26.763 26.763 0 00-2.694 7.185 7.724 7.724 0 00-.359 1.976v1.979a29.455 29.455 0 00.359 3.952 16.166 16.166 0 001.078 3.952l.718 1.8.359 1.078.539.9a40.235 40.235 0 0010.777 12.573 84.069 84.069 0 0014.369 9.7 186.083 186.083 0 0033.948 14.19 341.618 341.618 0 0037.72 9.7 559.514 559.514 0 0082.983 9.879A680.919 680.919 0 00359.744 476a467.546 467.546 0 0088.552-15.268 222.186 222.186 0 0039.875-15.088 110.284 110.284 0 0017.424-11.151l3.772-3.413 3.413-3.772a29.458 29.458 0 005.03-8.615 22.991 22.991 0 00-.719-18.86 45.442 45.442 0 00-12.394-14.37c-9.879-7.9-21.195-13.112-32.152-17.6a256.3 256.3 0 00-32.691-10.418c-10.6-2.694-21.015-5.029-30.894-6.646a625.441 625.441 0 00-95.2-8.8 603.154 603.154 0 0195.2 8.622c9.879 1.8 20.3 3.772 31.074 6.646a256.327 256.327 0 0132.69 10.418c11.136 4.49 22.273 9.7 32.331 17.782a42.749 42.749 0 0112.573 14.549 22.453 22.453 0 01.719 19.219 32.868 32.868 0 01-5.029 8.8l-3.592 3.772c-1.257 1.078-2.335 2.335-3.772 3.413a98.8 98.8 0 01-17.423 11.136 211.591 211.591 0 01-40.052 15.263 461.43 461.43 0 01-88.552 15.268 680.907 680.907 0 01-89.809 1.617 559.141 559.141 0 01-83.163-9.879q-19.219-3.952-37.72-9.7a202.07 202.07 0 01-33.948-14.19 90.174 90.174 0 01-14.549-9.879 46.521 46.521 0 01-10.959-12.753l-.539-.9-.361-1.076-.718-1.8a35.022 35.022 0 01-1.078-4.131 14.549 14.549 0 01-.18-3.952v-1.976a6.466 6.466 0 01.359-1.976 24.07 24.07 0 012.694-7.364 31.973 31.973 0 014.49-6.466 62.329 62.329 0 0110.957-9.7 102.735 102.735 0 0112.034-7.364 180.349 180.349 0 0123.35-10.238 333.193 333.193 0 0139.7-11.136c10.957-2.335 19.758-3.772 25.506-4.67z"/><path class="g" d="M449.376 510.295a6.464 6.464 0 00-.359-1.976 13.472 13.472 0 00-.9-2.874c-1.617-4.131-6.107-9.34-13.112-14.01-14.19-9.34-37.72-17.064-67.536-21.913a444.378 444.378 0 00-49.036-4.85 457.68 457.68 0 00-56.58 1.078c-9.879.718-19.938 1.976-30.355 3.592s-20.836 3.772-31.254 6.466c-5.209 1.437-10.418 3.054-15.627 5.029a126.622 126.622 0 00-15.268 6.646 61.068 61.068 0 00-13.831 9.52 28.2 28.2 0 00-5.389 6.825 15.986 15.986 0 000 16.525 27.483 27.483 0 005.209 6.826 58.378 58.378 0 0014.01 9.52 115.32 115.32 0 0015.268 6.646c5.209 1.976 10.418 3.592 15.627 5.029a301.2 301.2 0 0031.254 6.466 303.184 303.184 0 0030.355 3.592 457.681 457.681 0 0056.58 1.078l20.117-1.257v-.359c-6.825.539-13.471 1.078-20.3 1.257a454.069 454.069 0 01-56.4-.9c-10.059-.9-20.117-1.976-30.355-3.592a301.765 301.765 0 01-31.253-6.646c-5.209-1.437-10.418-3.054-15.627-5.029a103.464 103.464 0 01-15.268-6.646 64.3 64.3 0 01-13.651-9.52c-4.131-3.772-7.544-8.981-7.364-14.729s3.413-10.957 7.364-14.729a61.069 61.069 0 0113.831-9.52 126.622 126.622 0 0115.268-6.646 130.21 130.21 0 0115.627-4.85 261.134 261.134 0 0131.254-6.646c10.238-1.616 20.3-2.874 30.355-3.592a491.808 491.808 0 0156.4-1.078 377.772 377.772 0 0149.036 4.85c29.637 4.67 53.167 12.573 67.357 21.734 7.005 4.67 11.5 9.879 13.112 14.01a16.165 16.165 0 011.437 6.466zm-14.549 22.272l-2.515 1.437a.18.18 0 01.18.18l2.335-1.617c7.005-4.67 11.5-9.7 13.112-13.831a13.646 13.646 0 001.073-2.873c.18-.719.18-1.257.359-1.976v-1.796a17.065 17.065 0 01-1.437 6.646c-1.612 3.954-6.102 9.16-13.107 13.83zM52.603 233.504a5.748 5.748 0 11-5.748-5.748 5.748 5.748 0 015.748 5.748zm284.695 215.182a5.748 5.748 0 11-5.748-5.748 5.748 5.748 0 015.748 5.748zM163.244 301.399a2.874 2.874 0 11-2.874-2.874 2.874 2.874 0 012.874 2.874zm356.542 69.512a2.874 2.874 0 11-2.874-2.874 2.874 2.874 0 012.874 2.874z"/><path class="g" d="M293.287 503.47a2.874 2.874 0 11-2.874-2.874 2.874 2.874 0 012.874 2.874z"/><circle class="g" cx="1.437" cy="1.437" r="1.437" transform="translate(142.228)"/><path class="g" d="M486.736 225.241a2.874 2.874 0 11-2.874-2.874 2.874 2.874 0 012.874 2.874z"/></g><g transform="translate(53.167 216.231)"><path class="d" d="M422.107 248.053c-69.692 18.5-136.869 17.064-209.974 0l-8.626-133.636c75.619 14.729 151.6 12.753 218.416-3.233z"/><g class="e"><path class="f" d="M422.107 248.053c-69.692 18.5-136.869 17.064-209.974 0l-8.626-133.636c75.619 14.729 151.6 12.753 218.416-3.233z"/></g><path class="g" d="M411.326 227.756h-.539l-1.257.539-5.209 2.155a182.507 182.507 0 01-19.219 5.927 255.778 255.778 0 01-66.1 7.544 387.43 387.43 0 01-66.1-7.005l-19.758-4.131-5.389-1.257-1.437-.359h1.437l5.389 1.078 19.758 3.952a427.312 427.312 0 0066.1 6.826 271.76 271.76 0 0065.92-7.185c8.262-2.155 14.729-4.311 19.219-5.927l5.209-1.8 1.437-.359z"/><path class="g" d="M308.943 233.145a44.006 44.006 0 01-26.763-.9v-47.594a67.177 67.177 0 0126.763 0zm43.29-2.695v-1.437a33.415 33.415 0 00-.18-3.952c0-3.592-.18-8.622-.18-14.908-.18-12.573-.539-30.176-.9-50.832l.359.539a71.667 71.667 0 00-27.661 0l.359-.539v1.078c.359 28.02.539 53.526.718 71.668v-.359a62.867 62.867 0 0011.675 1.437 48.5 48.5 0 008.8-.719l5.389-1.437 1.257-.539h.539l-.359.359-1.437.539a30.711 30.711 0 01-5.389 1.617 48.861 48.861 0 01-8.8.9 63.044 63.044 0 01-11.855-1.437h-.535v-.359c-.18-18.141-.539-43.468-.9-71.668v-1.257h.359a73.463 73.463 0 0128.02 0h.359v.359c.18 20.656.359 38.438.359 51.191v19.758zm41.131-5.748c-7.185 3.952-16.525 4.49-26.763 3.952v-78.673a56.221 56.221 0 0126.763 0zm-126.991 4.67v-2.155c-.18-1.257 0-3.233-.18-5.389 0-4.85-.18-11.5-.18-19.4v.359a59.454 59.454 0 00-25.685-4.131l.359-.539v26.4a51.549 51.549 0 0010.238 3.053l8.262 1.078 5.389.359 1.976.359h-1.976a33.227 33.227 0 01-5.389-.359c-2.155-.18-5.029-.359-8.262-.9a44.184 44.184 0 01-10.6-2.874h-.18v-27.654h.539a61.788 61.788 0 0126.045 4.49h.359c0 8.083-.18 14.729-.18 19.578a43.994 43.994 0 01-.18 5.389 7.724 7.724 0 01-.355 2.336zm12.574-69.693a25.5 25.5 0 01-5.209.359c-3.233 0-7.724 0-12.753-.359s-9.34-.718-12.573-1.078l-5.029-.9a25.687 25.687 0 015.209.18l12.573.9 12.573.539zm-3.951 5.928h-4.67l-10.957-.718-11.137-1.076a18.141 18.141 0 01-4.49-.539 18.863 18.863 0 014.49 0c2.874 0 6.826.359 11.136.718l10.957.9z"/><path class="g" d="M284.695 173.331v-1.8c0-1.078.18-2.694.18-4.49s.539-9.879.9-16.884l.359.359a383.123 383.123 0 01-49.754-2.694l.539-.539v3.053c0 1.078-.18 1.976-.18 3.053s-.18 3.952-.359 5.748-.539 7.724-.718 11.316l-.359-.539c14.369 1.8 26.763 2.515 35.564 2.874l10.238.359h-10.244a351.169 351.169 0 01-35.564-2.694h-.536v-.359c.18-3.592.539-7.364.718-11.136s.18-3.952.359-5.927v-5.927l.359-.539a420.3 420.3 0 0049.754 3.054h.359v.359c-.539 7.185-.9 12.932-1.078 17.064s-.359 3.413-.359 4.49a5.211 5.211 0 01-.18 1.8zm6.287 10.059a18.86 18.86 0 01-3.592-4.85 28.558 28.558 0 01-2.695-5.209 21.733 21.733 0 013.592 4.67 25.147 25.147 0 012.694 5.389z"/><path class="d" d="M0 9.161l22.632 137.767s34.846 65.022 127.17 79.75L134.893 103.82S49.395 77.236 0 9.161z"/><g class="e"><path class="f" d="M0 9.161l22.632 137.767s34.846 65.022 127.17 79.75L134.893 103.82S49.395 77.236 0 9.161z"/></g><path class="g" d="M137.767 216.799h-.539l-1.8-.359-6.463-1.98c-2.874-.9-6.287-1.8-10.238-3.413l-6.287-2.515-7.006-2.872c-4.67-2.155-10.059-4.311-15.447-7.364s-11.316-6.466-17.064-10.238a169.021 169.021 0 01-34.307-29.637 95.017 95.017 0 01-12.392-17.241L15.806 73.823c-1.257-8.442-2.335-15.268-3.054-19.938l-.718-5.389V47.06l.359 1.437.9 5.389c.718 4.67 1.8 11.5 3.233 19.758L27.302 141a105.255 105.255 0 0012.214 17.06 172.972 172.972 0 0034.127 29.637 175.318 175.318 0 0017.064 10.063l15.447 7.724 7.005 2.874 6.107 2.335a79.388 79.388 0 0010.238 3.592l6.287 2.155 1.8.718z"/><path class="g" d="M129.685 176.924h-.18l-1.078.9-3.772 3.054-14.549 11.136h-.359l-17.782-24.608h.539l-13.471 9.7h-.539v-.539l-17.6-47.419-2.697-6.473h.9l-11.139 21.918-.359.9-.359-.9-23.171-66.818h.539c-1.437 6.287-2.694 11.136-3.413 14.369l-.9 3.772-.359 1.078a2.694 2.694 0 01.18-1.078l.718-3.772c.718-3.413 1.8-8.262 3.233-14.369 5.389 15.268 13.831 38.8 23.53 66.638h-.718l11.318-22.093.539-.9.359.9 2.515 6.826 17.427 47.599h-.718l13.651-9.52.359-.359v.359l17.6 24.608h-.359l14.726-10.958 3.772-2.874 1.078-.718zm-3.057-66.1l-1.976-.359-5.209-1.617c-5.568-1.976-11.136-4.131-16.525-6.646a130.941 130.941 0 01-15.806-8.083l-4.67-2.874-1.614-1.077a5.567 5.567 0 011.8.9l4.85 2.515c3.952 2.155 9.52 5.029 15.806 7.9s12.214 5.029 16.525 6.646l5.029 1.8zm3.596 5.748a19.938 19.938 0 01-4.49-.9 69.329 69.329 0 01-10.418-3.053 99.7 99.7 0 01-10.059-4.311 16.885 16.885 0 01-3.952-2.154 16.525 16.525 0 014.131 1.617l10.238 3.952 10.238 3.413a20.3 20.3 0 014.311 1.437z"/><path class="g" d="M93.761 167.404c0 1.257-.539 2.155-1.437 2.155s-1.617-.9-1.617-2.155a1.8 1.8 0 011.617-1.976c.718 0 1.437.9 1.437 1.976z"/><ellipse class="g" cx="1.617" cy="1.976" rx="1.617" ry="1.976" transform="translate(56.939 121.961)"/><path class="g" d="M25.865 78.493c0 1.078-.539 2.155-1.437 2.155s-1.617-1.078-1.617-2.155a1.8 1.8 0 011.617-1.976c.898 0 1.437.9 1.437 1.976z"/><path class="d" d="M602.26 33.768L590.944 173.69s-33.409 59.813-125.194 62.148l11.316-141s80.11-3.233 125.194-61.07z"/><path class="d" d="M600.463 26.4c-2.874-9.7-10.238-23.53-27.482-26.4l-20.296 188.24s38.259-7.544 39.336-28.559c0-1.8 7.724-95.377 9.7-118.548a37.361 37.361 0 00-1.257-14.729z"/><g class="e"><path class="f" d="M602.26 33.768L590.944 173.69s-33.409 59.813-125.194 62.148l11.316-141s80.11-3.233 125.194-61.07z"/></g><path class="g" d="M599.565 69.333a83.7 83.7 0 00-14.729 45.264c0 4.67.18 9.52-1.617 13.831s-6.287 7.9-10.777 6.646-6.646-6.826-10.777-9.34a12.214 12.214 0 00-12.394.18 20.835 20.835 0 00-8.083 9.879c-3.229 7.54-3.591 16.34-5.929 24.247s-8.442 16.166-16.884 16.525c-3.054 0-6.107-.9-9.161-.718-6.287.18-12.034 4.85-14.908 10.777s-3.947 12.209-4.847 18.68c0 0 48.856 4.67 103.819-60.172z"/><path class="g" d="M521.791 154.292c0 1.8-.9 3.054-1.976 3.054s-1.8-1.257-1.8-3.054.718-3.233 1.8-3.233 1.976 1.437 1.976 3.233zm22.991-58.196c0 1.8-.9 3.233-1.976 3.233s-1.8-1.437-1.8-3.233.9-3.053 1.8-3.053 1.976 1.256 1.976 3.053z"/><path class="g" d="M598.487 76.158l-.359.718-1.078 2.335c-.9 1.976-2.335 4.85-3.952 8.622l-14.729 30.355v.359h-.359l-34.486-21.913h.539l-1.437 3.592-22.273 54.6v.359h-.359l-20.476-11.5-5.748-3.053-1.437-.718h-.539a44.546 44.546 0 017.9 3.592c5.029 2.515 12.034 6.466 20.656 11.136h-.539l22.273-54.784c.359-1.078.9-2.335 1.437-3.592v-.539l.359.359 34.666 21.913h-.718l14.908-30.176 4.311-8.442 1.257-2.155a1.437 1.437 0 01.18-1.078z"/></g><path class="g" d="M421.028 797.655a40.077 40.077 0 017.185-47.958 40.055 40.055 0 0123.35-10.957 39.155 39.155 0 0112.932.539 37.72 37.72 0 0112.214 4.85 40.413 40.413 0 0116.884 19.758 37.539 37.539 0 012.694 12.753 38.97 38.97 0 01-.18 6.466l-.539 3.233c-.18 1.078-.539 2.155-.718 3.233a42.035 42.035 0 01-5.568 11.855 44.368 44.368 0 01-8.981 9.34 39.516 39.516 0 01-24.248 7.724 40.6 40.6 0 0023.71-8.442 42.748 42.748 0 008.622-9.34 38.618 38.618 0 005.029-11.5 33.048 33.048 0 001.257-12.573 36.461 36.461 0 00-2.694-12.214 39.336 39.336 0 00-16.166-18.86 38.8 38.8 0 00-11.675-4.67 41.132 41.132 0 00-12.394-.539 38.438 38.438 0 00-22.632 10.418c-12.576 11.319-16.168 31.616-8.082 46.884z"/><path class="g" d="M425.336 780.77a26.4 26.4 0 01.539-14.908 27.482 27.482 0 018.442-12.573 23.709 23.709 0 016.287-4.131 27.122 27.122 0 017.364-2.335 28.02 28.02 0 0114.908 1.437 51.555 51.555 0 00-7.364-.9 34.134 34.134 0 00-7.364.719 33.049 33.049 0 00-12.753 6.466 30.177 30.177 0 00-8.262 11.855 30.894 30.894 0 00-1.8 7.005 25.326 25.326 0 000 7.364z"/><path class="p" d="M456.05 818.49a40.055 40.055 0 01-22.811-7.185"/><path class="g" d="M437.909 810.947l-4.131.718.718 4.131-2.155-1.437-.718-4.311 4.311-.719z"/><path class="p" d="M456.05 739.279a39.7 39.7 0 010 79.212"/><path class="g" d="M454.075 776.998a4.311 4.311 0 01-1.8 3.772 5.748 5.748 0 01-3.592 1.437 4.85 4.85 0 01-2.874-.9v12.036h-4.124v-10.417a32.151 32.151 0 00-1.8-11.5l4.131-1.437 1.437 6.287.718 1.078 1.437.359h1.077l.718-.539.359-.539v-.359l-.539-4.85.718-.359h.9l1.078-.359 1.257-.359c.18 1.8.539 3.233.718 4.311a17.781 17.781 0 01.18 2.335zm23.17 3.772l-3.952 1.437-3.592.539a15.984 15.984 0 01-5.389-1.078v11.675h-3.947v-10.6c0-1.8-.18-3.413-.359-5.389a40.43 40.43 0 00-1.441-5.924l3.952-1.437a34.844 34.844 0 01.9 3.592c.18 1.078.539 2.156.718 3.233h.9c.18-4.85 2.515-7.185 6.646-7.185a4.131 4.131 0 011.976.359l2.694.9-1.8 4.311a4.85 4.85 0 00-2.874-1.078 2.7 2.7 0 00-1.976.718 1.976 1.976 0 00-.9 1.617c0 .9.719 1.437 1.976 1.437l2.335-.359 2.694-1.257z"/><path d="M575.496 545.471l-1.257.359-2.874.539a5.209 5.209 0 01-3.952-1.078 4.49 4.49 0 01-1.8-3.772 30.718 30.718 0 01.539-8.083 34.129 34.129 0 013.233-7.544 4.85 4.85 0 017.364-1.617l2.155 1.8a4.85 4.85 0 011.437 1.257 6.107 6.107 0 005.209.9 5.568 5.568 0 003.413-4.311c1.078-3.952 2.155-8.262 3.053-12.214s.9-3.592 1.257-5.389h0l.9-3.772 18.321 4.49-4.131 5.389a10.956 10.956 0 00-2.156 7.9 9.879 9.879 0 004.491 6.287 27.66 27.66 0 007.9 3.413 24.967 24.967 0 008.981.539 9.34 9.34 0 006.466-3.592 10.059 10.059 0 001.617-7.544l-.539-3.054c0-.359-.18-.9-.18-1.617l-.539-2.515 18.141 4.311v1.617c-.18.18-.18.359-.18.718a3.412 3.412 0 01-.359 1.257l-1.078 5.029c-.539 1.976-.9 3.952-1.437 5.927s-.9 4.131-1.617 6.107a6.287 6.287 0 001.257 6.287 5.568 5.568 0 005.748 1.257l3.772-.718a4.49 4.49 0 015.748 4.67 24.428 24.428 0 01-3.772 15.806 5.568 5.568 0 01-3.233 2.515 5.029 5.029 0 01-4.131-1.078l-2.155-1.617-1.257-1.078a5.389 5.389 0 00-5.388-1.078 6.287 6.287 0 00-3.592 4.49c-.9 3.952-1.976 8.083-2.874 12.034s-.9 3.592-1.257 5.389l-.9 3.592-18.321-4.311 2.155-3.233 1.8-2.155a10.238 10.238 0 002.155-7.9 9.52 9.52 0 00-4.49-6.466 25.866 25.866 0 00-16.525-3.952 9.34 9.34 0 00-6.646 3.772 9.879 9.879 0 00-1.8 7.544l.539 3.053c.18.359.18.9.359 1.437l.359 2.515-18.321-4.311 2.155-8.8c.9-4.131 1.976-8.262 2.874-12.214a6.286 6.286 0 00-1.078-5.748 5.748 5.748 0 00-5.568-1.437z" stroke-width=".5" fill="none" stroke="#ff4c00"/><path class="g" d="M602.26 544.034l-.359 1.257h-.18c-.719-.18-1.078-.359-1.257-.718s-.18-.18-.359-.359l-.9-1.078a2.515 2.515 0 01-2.874.9 3.054 3.054 0 01-1.8-1.078 2.515 2.515 0 01-.18-1.976.718.718 0 01.18-.539l.539-.718.719-.539.718-.539h-.18v-.359l1.078-.718 3.233 5.209a1.977 1.977 0 00.539.9l.718.359zm-3.952-1.976a1.257 1.257 0 00-.18-.9l-.9-1.257-.539.359h-.359l-.718.9a1.257 1.257 0 00.18.9.9.9 0 00.9.539c.18 0 .359.18.539 0h.359c.359-.002.539-.361.718-.541z"/><path class="g" d="M606.391 544.034a1.8 1.8 0 01-.9 1.437c-.359.359-.9.359-1.617.359l-2.153-.539v-1.437l2.515.539c.359 0 .539-.359.718-1.078 0-.18.18-.18.18-.359a.718.718 0 01.18-.539v-.359l1.437.359zm-.359-4.311c0 .18-.18.359-.359.539h-.9a.9.9 0 01-.718-1.257.718.718 0 011.078-.539c.719.356 1.078.718.899 1.256zm6.645 8.262a2.336 2.336 0 01-1.617 1.976c-.359.359-.718.359-1.257.539h-1.257l-1.976-.359v-1.438l1.8.539h1.8a2.335 2.335 0 001.078-1.257l-1.437-.539-1.078-.539c-.18-.359-.539-.719-.539-1.078v-1.257a3.233 3.233 0 011.437-2.155 2.875 2.875 0 011.8 0l1.257.539a1.617 1.617 0 01.539 1.257v1.078a5.573 5.573 0 01-.359 1.437zm-.718-3.054c.18-.9 0-1.437-.718-1.617h-1.078c0 .18 0 .359-.18.359s-.18.359-.18.719a1.338 1.338 0 00.539 1.257h1.257zm7.904 4.671a2.156 2.156 0 01-1.437-.9 4.49 4.49 0 01-1.437 2.515 4.311 4.311 0 01-3.054.539l-1.8-.539v-1.256l1.976.359a1.8 1.8 0 001.617-.18 1.258 1.258 0 00.9-1.078l1.078-4.311 1.437.359-.539 1.8c0 .718.359 1.078 1.257 1.437zm.18-8.083a.9.9 0 01-.359.718c-.18 0-.539.18-.718 0s-1.078-.539-.9-1.078.539-.719 1.257-.539.899.36.716.899z"/><path class="g" d="M626.328 548.883a2.155 2.155 0 01-1.078 1.437 2.874 2.874 0 01-1.8.18l-4.131-1.078.359-1.257 4.131 1.078h.719c.18-.18.18-.359.359-.718h-2.515a1.617 1.617 0 01-.719-1.976 1.8 1.8 0 011.078-1.437 1.976 1.976 0 011.8-.18l.718.359.718.359c.18.359.539.718.539 1.078a1.976 1.976 0 010 1.437zm-1.257-1.8c0-.539 0-.9-.18-1.078s-.359-.539-.718-.718-1.078 0-1.078.539-.18.539.18.718l.719.359zm.9-4.49l-.539.539h-.718c-.719-.18-.9-.539-.719-1.257s.539-.718 1.078-.539 1.075.722.896 1.259zm3.411 9.343l-1.437-.359 2.155-8.442 1.257.359zM100.766 526.97a11.5 11.5 0 00-3.413-8.262l-2.335-1.8-1.078-.9-.9-.719.718-.718a5.748 5.748 0 001.437-4.85v-4.491a8.981 8.981 0 00-3.592-7.544 1.616 1.616 0 01-.539-1.078 7.723 7.723 0 010-2.874v-1.616h.718a6.825 6.825 0 005.389-6.825 77.952 77.952 0 010-9.161v-4.49a5.029 5.029 0 00-.18-1.616 6.107 6.107 0 00-6.282-5.027H68.255a6.107 6.107 0 00-6.287 6.466c-.18 4.67-.18 9.52 0 14.19a5.568 5.568 0 00.18 1.8 6.107 6.107 0 006.287 4.67h15.267a3.413 3.413 0 013.054 1.437c.18.18.359.539.718.718l1.8 1.617h-3.057a9.16 9.16 0 00-9.161 7.724 36.1 36.1 0 00-.18 4.49 7.365 7.365 0 010 1.976v.359a3.413 3.413 0 00.18 1.437 20.124 20.124 0 00.9 2.335 1.437 1.437 0 01.359.9l.539.718-1.617 1.078a10.957 10.957 0 00-5.568 8.442 34.664 34.664 0 00-.18 4.311v2.694a1.437 1.437 0 00.359 1.078h28.561a1.8 1.8 0 00.359-1.257v-5.209zm-12.393-33.409l-.539-.539-.9-1.078a3.592 3.592 0 00-2.874-1.078H68.615a5.029 5.029 0 01-5.568-5.568v-13.83a4.85 4.85 0 015.209-5.209 466.82 466.82 0 0122.452 0 4.85 4.85 0 015.209 4.49v1.437H85.678c-.18 0-.539 0-.539.539a.539.539 0 00.539.539h10.239v12.214a4.85 4.85 0 01-5.209 5.388c-.718 0-.9.18-.9.9v3.233zm-10.239 17.243v-5.927a7.9 7.9 0 017.185-7.9 8.263 8.263 0 018.622 6.287 10.239 10.239 0 01.18 2.335v5.209a4.131 4.131 0 01-4.311 4.311h-7.365a4.131 4.131 0 01-4.311-4.311zm21.375 21.375H72.566v-.9a5.029 5.029 0 000-2.335 17.243 17.243 0 01.539-5.209 10.6 10.6 0 019.879-7.364h6.107a10.238 10.238 0 0110.418 10.24v5.568zm-36.104-5.568a11.855 11.855 0 00-9.16-11.14h-1.078l-1.8-.359.718-1.078a8.8 8.8 0 001.976-5.568v-.539a28.919 28.919 0 000-5.568 5.927 5.927 0 00-6.287-6.287h-8.258c-.9 0-1.078 0-1.078.9v11.316a8.083 8.083 0 001.8 5.389.539.539 0 01.18.359l.359 1.078-1.257.359h-.542a12.034 12.034 0 00-9.7 10.238v6.646c0 .719 0 1.078.359 1.257h33.409a1.437 1.437 0 00.359-1.078v-5.925zm-23.709-29.64h8.622a4.85 4.85 0 014.49 3.952 6.825 6.825 0 01.18 1.8v1.078l-.359.359a.9.9 0 01-.718.359h-9.162a3.233 3.233 0 01-3.054-3.053v-4.495zm0 11.855v-3.592h13.112v.718a7.005 7.005 0 01-4.85 8.622h-1.616a6.107 6.107 0 01-3.952-1.257 6.467 6.467 0 01-2.694-4.49zm10.957 7.545l-4.49 4.49-4.311-4.49zm11.5 13.292v2.515H30.356v-2.874a14.908 14.908 0 011.437-7.724 10.777 10.777 0 016.825-5.029 1.976 1.976 0 012.155.718l3.413 3.233 1.257 1.257c.9.9.9.9 1.8 0l1.257-1.078 3.413-3.592a1.976 1.976 0 011.976-.539 10.418 10.418 0 018.262 9.34zm-21.919-43.287a1.617 1.617 0 011.257 1.617v2.694c0 .539.18.718.359.718s.359.18.718-.359l1.617-1.437 1.976-2.155a2.515 2.515 0 012.335-.9h6.646c.359 0 .539-.18.539-.359a.359.359 0 000-.539c0-.18-.18-.359-.718-.359h-7.544a1.078 1.078 0 00-1.078.539 10.78 10.78 0 00-1.437 1.437l-2.334 2.339v-3.413c0-.718-.18-.9-.9-.9a4.85 4.85 0 01-5.209-5.389V465.9a4.85 4.85 0 015.389-5.209h16.885c.359-.18.359-.359.359-.539s0-.539-.18-.539H41.671a6.287 6.287 0 00-6.466 6.466v14.19a6.287 6.287 0 005.029 6.107zm24.249-25.685a.9.9 0 00.539-.539v-.539h-.9v.359a.718.718 0 00.359.719z"/><path class="g" d="M79.57 472.186c-.359 0-.718.18-.718.539s.18.18.18.359h.539a.458.458 0 100-.9z"/><circle class="g" cx="5.748" cy="5.748" r="5.748" transform="translate(530.053 755.983)"/></g></svg>