<svg xmlns="http://www.w3.org/2000/svg" width="692" height="507"><defs><filter id="a" width="388" height="428" x="-42" y="-81" filterUnits="userSpaceOnUse"><feOffset dy="40" in="SourceGraphic" result="FeOffset1168Out"/><feGaussianBlur in="FeOffset1168Out" result="FeGaussianBlur1169Out" stdDeviation="39.6 39.6"/></filter><filter id="c" width="388" height="428" x="158" y="-81" filterUnits="userSpaceOnUse"><feOffset dy="40" in="SourceGraphic" result="FeOffset1196Out"/><feGaussianBlur in="FeOffset1196Out" result="FeGaussianBlur1197Out" stdDeviation="39.6 39.6"/></filter><filter id="e" width="388" height="428" x="358" y="-81" filterUnits="userSpaceOnUse"><feOffset dy="40" in="SourceGraphic" result="FeOffset1224Out"/><feGaussianBlur in="FeOffset1224Out" result="FeGaussianBlur1225Out" stdDeviation="39.6 39.6"/></filter><filter id="g" width="388" height="428" x="58" y="121" filterUnits="userSpaceOnUse"><feOffset dy="40" in="SourceGraphic" result="FeOffset1247Out"/><feGaussianBlur in="FeOffset1247Out" result="FeGaussianBlur1248Out" stdDeviation="39.6 39.6"/></filter><filter id="i" width="388" height="428" x="258" y="121" filterUnits="userSpaceOnUse"><feOffset dy="40" in="SourceGraphic" result="FeOffset1275Out"/><feGaussianBlur in="FeOffset1275Out" result="FeGaussianBlur1276Out" stdDeviation="39.6 39.6"/></filter><mask id="b" width="2" height="2" x="-1" y="-1"><path fill="#fff" d="M67 28h170v170H67z"/><path d="M77 28h150c5.523 0 10 4.477 10 10v150c0 5.523-4.477 10-10 10H77c-5.523 0-10-4.477-10-10V38c0-5.523 4.477-10 10-10z"/></mask><mask id="d" width="2" height="2" x="-1" y="-1"><path fill="#fff" d="M267 28h170v170H267z"/><path d="M277 28h150c5.523 0 10 4.477 10 10v150c0 5.523-4.477 10-10 10H277c-5.523 0-10-4.477-10-10V38c0-5.523 4.477-10 10-10z"/></mask><mask id="f" width="2" height="2" x="-1" y="-1"><path fill="#fff" d="M467 28h170v170H467z"/><path d="M477 28h150c5.523 0 10 4.477 10 10v150c0 5.523-4.477 10-10 10H477c-5.523 0-10-4.477-10-10V38c0-5.523 4.477-10 10-10z"/></mask><mask id="h" width="2" height="2" x="-1" y="-1"><path fill="#fff" d="M167 230h170v170H167z"/><path d="M177 230h150c5.523 0 10 4.477 10 10v150c0 5.523-4.477 10-10 10H177c-5.523 0-10-4.477-10-10V240c0-5.523 4.477-10 10-10z"/></mask><mask id="j" width="2" height="2" x="-1" y="-1"><path fill="#fff" d="M367 230h170v170H367z"/><path d="M377 230h150c5.523 0 10 4.477 10 10v150c0 5.523-4.477 10-10 10H377c-5.523 0-10-4.477-10-10V240c0-5.523 4.477-10 10-10z"/></mask></defs><g filter="url(#a)"><path fill="none" d="M77 28h150c5.523 0 10 4.477 10 10v150c0 5.523-4.477 10-10 10H77c-5.523 0-10-4.477-10-10V38c0-5.523 4.477-10 10-10z" mask="url(&quot;#b&quot;)"/><path fill-opacity=".05" d="M77 28h150c5.523 0 10 4.477 10 10v150c0 5.523-4.477 10-10 10H77c-5.523 0-10-4.477-10-10V38c0-5.523 4.477-10 10-10z"/></g><path fill="#fff" d="M77 28h150c5.523 0 10 4.477 10 10v150c0 5.523-4.477 10-10 10H77c-5.523 0-10-4.477-10-10V38c0-5.523 4.477-10 10-10z"/><text fill="#737373" dominant-baseline="text-before-edge" font-family="'IRANSans','IRANSans'" font-size="17" font-style="none" font-weight="400" transform="translate(102 157)"><tspan style="font-kerning:normal">سرعت پردازش</tspan></text><path fill="#ff3600" d="M167.558 130.737c-.734-.098-1.473-.171-2.202-.299-4.484-.785-8.222-2.917-11.226-6.325-2.55-2.895-4.08-6.273-4.608-10.096-.47-3.407-.037-6.705 1.236-9.9a18.88 18.88 0 013.106-5.2c.11-.13.256-.3.4-.316.186-.021.451.038.564.166.111.128.149.411.087.578-.087.238-.286.44-.45.645-1.96 2.453-3.21 5.23-3.721 8.324-1.394 8.45 3.02 16.509 10.89 19.863 3.268 1.392 6.684 1.808 10.175 1.137 6.786-1.306 11.573-5.198 13.945-11.673 2.398-6.548 1.249-12.677-3.195-18.078-2.695-3.276-6.202-5.327-10.374-6.095-5.726-1.056-10.857.314-15.345 4.047-.164.137-.317.288-.484.422-.304.243-.623.233-.843-.016-.213-.242-.183-.573.102-.837a18.74 18.74 0 013.697-2.673c3.175-1.75 6.58-2.583 10.195-2.403 5.8.29 10.565 2.713 14.25 7.203 2.431 2.963 3.786 6.391 4.196 10.198l.093.816v2.27c-.059.498-.108.996-.178 1.492-.54 3.86-2.078 7.273-4.665 10.187-2.997 3.376-6.721 5.483-11.175 6.264-.73.128-1.468.2-2.202.299h-2.268zm2.152-21.888c.707.311 1.17.808 1.496 1.497l1.474-1.667c.075-.085.147-.175.232-.249.239-.21.495-.239.752-.035.234.187.271.51.075.781-.148.203-.326.384-.492.574-.39.446-.778.893-1.174 1.334-.387.43-.722.872-.958 1.422-.502 1.173-1.741 1.754-2.992 1.5-1.202-.243-2.084-1.315-2.14-2.6-.05-1.145.757-2.253 1.904-2.627a1.12 1.12 0 00.394-.207c2.074-1.821 4.143-3.648 6.212-5.474.037-.032.066-.072.12-.132a8.041 8.041 0 00-2.214-1.206c-3.668-1.31-7.112-.837-10.137 1.61-2.996 2.423-4.23 5.654-3.72 9.501.281 2.125 1.2 3.96 2.661 5.526.53.567.52.744-.023 1.288l-3.314 3.318c-.467.466-.724.464-1.17 0-2.482-2.588-4.027-5.652-4.535-9.202-1.301-9.095 4.745-17 12.978-18.788 8.83-1.917 17.651 3.522 19.75 12.308 1.422 5.953-.051 11.226-4.237 15.713-.392.42-.68.42-1.088.013a1870.3 1870.3 0 01-3.448-3.452c-.418-.419-.432-.66-.024-1.094 1.308-1.39 2.212-2.997 2.617-4.864.627-2.89.132-5.582-1.51-8.05-.033-.05-.076-.093-.139-.168l-1.66 1.888c-.39.444-.696.535-.987.295-.307-.254-.269-.587.13-1.042l3.697-4.203c.1-.113.235-.22.276-.353.041-.133.037-.348-.045-.43-.082-.084-.286-.068-.433-.056-.073.006-.142.097-.208.155l-7.911 6.979c-.056.05-.11.102-.21.197zm-16.543 3.106c-.188 2.987 2.165 8.617 4.13 9.956l2.912-2.906a11.666 11.666 0 01-2.064-3.257c-.51-1.213-.76-2.492-.863-3.793h-4.115zm26.924-.004c-.161 2.716-1.154 5.063-2.883 7.02l2.932 2.955c2.547-2.816 3.921-6.131 4.108-9.975h-4.157zm-11.996-16.166c-3.844.192-7.154 1.575-9.963 4.134l2.937 2.944c1.997-1.777 4.359-2.754 7.026-2.922v-4.156zm-10.824 4.996c-2.568 2.827-3.946 6.14-4.136 9.985h4.156c.166-2.704 1.155-5.05 2.924-7.054l-2.944-2.93zm22.002-.854c-2.846-2.585-6.158-3.955-9.982-4.138v4.16c2.312.13 4.377.88 6.224 2.248.537-.473 1.057-.93 1.573-1.39.373-.332.807-.591 1.298-.47.442.109.654-.082.887-.41zm4.976 10.835c-.198-3.858-1.568-7.178-4.208-10.069-.146.261-.392.496-.354.669.148.686-.093 1.202-.534 1.685-.441.48-.864.978-1.31 1.484 1.383 1.86 2.117 3.944 2.255 6.26h3.86c.086 0 .17-.017.29-.03zm-15.532-.975c-.832-.019-1.575.696-1.601 1.54-.027.847.71 1.605 1.567 1.611.832.006 1.575-.724 1.585-1.56.01-.832-.712-1.572-1.551-1.591zm-.072 15.22a2.53 2.53 0 01-1.843-.8c-.262-.271-.282-.566-.064-.81.21-.232.527-.242.812-.024.904.69 1.377.689 2.285-.004.283-.216.605-.206.813.026.216.242.195.541-.064.81-.517.534-1.15.798-1.939.802zm-5.63-1.717c0 .2.02.405-.005.602-.04.313-.231.505-.554.507-.323.002-.531-.19-.554-.502-.03-.413-.03-.831.001-1.243.023-.294.221-.478.53-.487.325-.009.525.171.571.483.031.209.006.426.006.64h.005zm12.477.007c0 .188.014.378-.002.564-.03.327-.264.548-.566.537-.324-.012-.525-.2-.547-.512a8.919 8.919 0 010-1.204c.02-.314.217-.501.541-.517.306-.013.542.201.57.53.018.199.004.4.004.602zm-35.338.012c-7.533.003-15.066.003-22.599.002-1.157 0-1.331-.174-1.331-1.33V73.131c0-2.623 1.495-4.128 4.1-4.129a153028.049 153028.049 0 0154.002 0c2.61.001 4.11 1.499 4.114 4.109.006 5.036-.002 17.462-.005 21.271a78.303 78.303 0 01-1.62-.863V82.493h-58.972v39.223h5.029l16.997.001h.123c.265 0 .516-.001.75.027.414.048.685.317.707.701.025.436-.206.738-.634.828a3.058 3.058 0 01-.611.036zm-22.321-43.341l.019.198.051.63h58.951l.001-2.822c.001-1.683.003-3.337-.003-4.991-.006-1.546-.856-2.397-2.393-2.397-18.075-.003-36.15-.003-54.226 0-1.562 0-2.425.87-2.431 2.451-.007 1.95-.004 3.932-.001 5.848v.62c.001.162.016.315.032.463zm26.606 8.02c.004 7.453.004 14.3 0 20.936-.001.976-.21 1.187-1.17 1.187-6.653.002-13.306.002-19.958 0-.97 0-1.18-.21-1.181-1.18-.005-2.508-.004-5.016-.003-7.524v-5.94l.001-7.397c.001-1.134.157-1.29 1.284-1.29l9.694-.002 10.117.001c1.033 0 1.215.181 1.216 1.21zm-1.64.424H123.79v20.07h19.01zm6.974.975c-.647-.005-.98-.266-.989-.774-.004-.238.057-.422.18-.547.16-.164.45-.254.818-.255 1.027-.004 2.053-.005 3.08-.005h2.337l1.98.002 2.25-.001c1.712-.002 3.481-.004 5.22.006.324.002.605.114.772.308a.684.684 0 01.152.561c-.026.175-.104.704-1.007.705-2.632.005-5.265.004-7.897.004h-4.07c-.927.002-1.885.003-2.826-.004zM133.9 114.79c.092.262.077.674-.035.978-.027.073-.098.266-.75.266h-.011a904.975 904.975 0 00-3.647-.002l-2.758.002c-1.16.002-2.32.003-3.48-.004-.705-.004-1.068-.262-1.08-.767a.686.686 0 01.183-.517c.186-.19.507-.296.904-.297l3.698-.003h1.567l4.547-.001h.004c.737 0 .825.25.858.345zm12.666 7.727c-.005-.447.299-.769.739-.781a.81.81 0 01.593.224.753.753 0 01.235.538.794.794 0 01-.248.559.799.799 0 01-.557.246.79.79 0 01-.762-.786zM128.82 75.754a.823.823 0 01.216-.6.759.759 0 01.538-.24h.016c.192 0 .39.086.544.237.16.156.25.36.25.56a.785.785 0 01-.773.77l-.02.001c-.439 0-.755-.297-.771-.728zm6.852.495a.76.76 0 01-.215-.554.818.818 0 01.784-.778h.005c.203 0 .396.081.544.23a.8.8 0 01.232.58c-.008.435-.333.752-.774.755h-.004a.791.791 0 01-.572-.233zm-13.313-.008a.75.75 0 01-.217-.548c.011-.406.388-.777.79-.778h.002c.206 0 .4.082.545.23a.802.802 0 01.228.583.75.75 0 01-.773.755.794.794 0 01-.575-.242z"/><g filter="url(#c)"><path fill="none" d="M277 28h150c5.523 0 10 4.477 10 10v150c0 5.523-4.477 10-10 10H277c-5.523 0-10-4.477-10-10V38c0-5.523 4.477-10 10-10z" mask="url(&quot;#d&quot;)"/><path fill-opacity=".05" d="M277 28h150c5.523 0 10 4.477 10 10v150c0 5.523-4.477 10-10 10H277c-5.523 0-10-4.477-10-10V38c0-5.523 4.477-10 10-10z"/></g><path fill="#fff" d="M277 28h150c5.523 0 10 4.477 10 10v150c0 5.523-4.477 10-10 10H277c-5.523 0-10-4.477-10-10V38c0-5.523 4.477-10 10-10z"/><text fill="#737373" dominant-baseline="text-before-edge" font-family="'IRANSans','IRANSans'" font-size="17" font-style="none" font-weight="400" transform="translate(318 155)"><tspan style="font-kerning:normal">واکنش گرا</tspan></text><g><path fill="#ff3600" d="M350.92 119.073h-31.266a4.929 4.929 0 01-4.919-4.928V92.482a4.929 4.929 0 014.919-4.928h.574V68.132c0-2.624 1.494-4.129 4.098-4.13a152679.828 152679.828 0 0153.972 0c2.61.001 4.109 1.499 4.112 4.11.006 4.51 0 14.942-.003 19.812h3.157a3.655 3.655 0 013.648 3.655v23.84a3.655 3.655 0 01-3.648 3.654h-8.938a3.655 3.655 0 01-3.499-2.62l-6.87-.001h-.052c-.223.001-.436 0-.609-.036-.428-.09-.659-.392-.633-.828.022-.385.293-.654.706-.702a6.3 6.3 0 01.752-.026h.12l6.437-.001v-23.28a3.655 3.655 0 013.648-3.655h4.16V77.496h-58.94v10.058h29.073a4.929 4.929 0 014.919 4.928v21.663a4.929 4.929 0 01-4.919 4.928zm-31.266-30.145a3.554 3.554 0 00-3.547 3.554v21.663a3.554 3.554 0 003.547 3.554h31.265a3.554 3.554 0 003.547-3.554V92.482a3.554 3.554 0 00-3.547-3.554zm56.972.37a2.281 2.281 0 00-2.276 2.28v23.84a2.281 2.281 0 002.276 2.28h8.938a2.28 2.28 0 002.276-2.28v-23.84a2.28 2.28 0 00-2.276-2.28zm-41.412 9.738c.255.11.548.4.695.69.035.068.129.252-.312.731a.148.148 0 01-.008.009c-.827.892-1.65 1.788-2.472 2.684l-1.867 2.032c-.784.855-1.569 1.71-2.36 2.559-.48.517-.916.61-1.295.276a.686.686 0 01-.255-.486c-.014-.266.126-.573.394-.867l2.503-2.725 1.061-1.153a1937.9 1937.9 0 003.08-3.35l.003-.002c.499-.543.742-.438.833-.398zm6.738.72c.255.11.547.4.695.69.035.069.129.252-.312.731l-.008.009c-.827.892-1.65 1.788-2.473 2.684l-1.866 2.032c-.785.855-1.57 1.71-2.36 2.56-.48.516-.916.609-1.296.275a.686.686 0 01-.254-.485c-.014-.266.126-.574.394-.867.834-.91 1.668-1.818 2.503-2.726l1.061-1.153c1.027-1.116 2.055-2.232 3.08-3.35l.002-.002c.5-.543.742-.437.834-.398zm42.497 3.195c.254.11.547.4.694.69.035.07.129.252-.312.732l-.008.008c-.827.892-.418.424-1.241 1.32l-1.867 2.032c-.784.855-.33.368-1.12 1.218-.48.516-.916.61-1.296.275a.686.686 0 01-.254-.485c-.015-.266.125-.574.394-.867.833-.91.429-.475 1.264-1.383l1.06-1.153c1.028-1.116.824-.868 1.849-1.986a.122.122 0 00.003-.003c.499-.543.742-.437.834-.398zm-1.802-4.143c.255.11.548.4.695.689.035.07.129.253-.312.732l-.008.008c-.827.893-.418.425-1.241 1.32l-1.867 2.033c-.784.855-.33.368-1.12 1.217-.48.517-.916.61-1.296.276a.686.686 0 01-.254-.486c-.015-.266.125-.573.394-.867.833-.909.429-.475 1.264-1.383l1.06-1.153c1.028-1.116.824-.868 1.849-1.985a.122.122 0 00.003-.004c.499-.542.742-.437.833-.397zm-1.821-23.01v-2.822c.002-1.683.003-3.338-.003-4.992-.006-1.546-.855-2.398-2.391-2.398-18.066-.003-36.131-.002-54.197 0-1.561 0-2.424.87-2.43 2.452-.007 1.95-.004 3.932-.001 5.85v.619c.001.162.017.315.032.463l.019.198.051.63zm-46.697-5.645c.16.155.25.36.25.559a.785.785 0 01-.772.771h-.02c-.438 0-.755-.297-.771-.728a.821.821 0 01.216-.6.76.76 0 01.537-.24h.016a.79.79 0 01.544.238zm6.652-.004a.799.799 0 01.232.579.75.75 0 01-.773.755h-.004a.79.79 0 01-.571-.232.76.76 0 01-.216-.555c.01-.412.376-.776.784-.778h.005a.76.76 0 01.543.23zm-13.303-.003a.803.803 0 01.228.583.75.75 0 01-.773.756.793.793 0 01-.574-.243.752.752 0 01-.217-.548c.011-.406.387-.777.79-.777h.001c.206 0 .4.08.545.23zm33.777 44.959a.8.8 0 01.232.579.75.75 0 01-.773.755h-.005a.79.79 0 01-.571-.233.76.76 0 01-.216-.554c.01-.412.376-.776.785-.778h.004c.203 0 .397.082.544.23z"/></g><g><g filter="url(#e)"><path fill="none" d="M477 28h150c5.523 0 10 4.477 10 10v150c0 5.523-4.477 10-10 10H477c-5.523 0-10-4.477-10-10V38c0-5.523 4.477-10 10-10z" mask="url(&quot;#f&quot;)"/><path fill-opacity=".05" d="M477 28h150c5.523 0 10 4.477 10 10v150c0 5.523-4.477 10-10 10H477c-5.523 0-10-4.477-10-10V38c0-5.523 4.477-10 10-10z"/></g><path fill="#fff" d="M477 28h150c5.523 0 10 4.477 10 10v150c0 5.523-4.477 10-10 10H477c-5.523 0-10-4.477-10-10V38c0-5.523 4.477-10 10-10z"/><g><text fill="#737373" dominant-baseline="text-before-edge" font-family="'IRANSans','IRANSans'" font-size="17" font-style="none" font-weight="400" transform="translate(539 158)"><tspan style="font-kerning:normal">سئو</tspan></text></g></g><g><g filter="url(#g)"><path fill="none" d="M177 230h150c5.523 0 10 4.477 10 10v150c0 5.523-4.477 10-10 10H177c-5.523 0-10-4.477-10-10V240c0-5.523 4.477-10 10-10z" mask="url(&quot;#h&quot;)"/><path fill-opacity=".05" d="M177 230h150c5.523 0 10 4.477 10 10v150c0 5.523-4.477 10-10 10H177c-5.523 0-10-4.477-10-10V240c0-5.523 4.477-10 10-10z"/></g><path fill="#fff" d="M177 230h150c5.523 0 10 4.477 10 10v150c0 5.523-4.477 10-10 10H177c-5.523 0-10-4.477-10-10V240c0-5.523 4.477-10 10-10z"/><path fill="#ff3600" d="M288.916 295.372v7.268a.89.89 0 00-.08.155c-.306.78-.771 1.316-1.344 1.548-.575.234-1.283.174-2.048-.172a34.584 34.584 0 01-.557-.26c-.275-.13-.56-.265-.85-.39-.879-.378-1.534-.245-1.928-.066-.396.18-.93.585-1.228 1.5-.606 1.856-.654 3.787-.144 5.739.17.65.491 1.562 1.314 1.954.832.397 1.765.062 2.394-.224.134-.061.268-.124.402-.188.493-.233.959-.452 1.425-.557.72-.163 1.77-.15 2.644 1.777v7.228c-.486 1.314-1.38 1.857-2.95 1.808-1.763-.055-3.487-.043-5.313-.031-.773.005-1.551.01-2.338.01h-1.064l.44.971c.092.206.182.402.268.592.18.394.348.763.51 1.134.478 1.091.495 2.23.048 3.207-.447.977-1.318 1.707-2.453 2.057-2.508.772-4.87.773-7.22 0-1.155-.379-2.029-1.127-2.46-2.107-.432-.981-.395-2.135.105-3.249.154-.342.312-.683.482-1.05l.68-1.476-1.02-.044-.273-.014a9.277 9.277 0 00-.516-.019h-2.82c-1.503 0-3.006.001-4.509-.003-1.587-.005-2.504-.926-2.516-2.53-.003-.41-.003-.82-.002-1.268v-1.368h-.685c-.236 0-.47 0-.702.002-.534.002-1.039.004-1.55-.006-.293-.005-.659-.074-.738-.369-.088-.328-.042-.725.055-.876.06-.093.384-.267.737-.317.44-.061.901-.049 1.437-.034.246.007.5.014.764.014h.685v-.687c0-.14 0-.273-.002-.401-.002-.258-.005-.482.004-.705.03-.828.403-1.534 1.02-1.938.618-.403 1.41-.458 2.179-.153.296.118.587.256.894.402.267.127.543.26.828.378.872.366 1.52.228 1.91.047.388-.178.91-.578 1.195-1.466.675-2.097.675-4.206 0-6.269-.232-.709-.652-1.218-1.214-1.474-.558-.253-1.211-.235-1.888.053-.285.121-.562.254-.83.383-.285.136-.554.265-.829.38-.783.328-1.6.277-2.239-.137-.623-.405-.993-1.11-1.014-1.933-.048-1.812-.049-3.81-.005-6.286.025-1.36.974-2.248 2.419-2.264 1.687-.017 3.405-.014 5.067-.01.727.002 1.455.005 2.182.003h1.994l-.67-1.48c-.15-.337-.288-.643-.428-.949-.56-1.229-.625-2.409-.185-3.412.44-1.004 1.352-1.755 2.637-2.173 1.68-.547 3.424-.667 5.328-.365.133.02.266.038.413.057l.99.133v-8.96h-58.912v39.22h22.127c.265 0 .515-.001.749.027.413.048.684.317.706.701.025.436-.206.738-.634.828-.173.037-.385.036-.61.036h-.05c-7.525.003-15.05.003-22.576.002-1.156 0-1.33-.174-1.33-1.33v-48.844c0-2.623 1.493-4.128 4.096-4.128 17.983-.004 35.965-.004 53.948 0 2.609 0 4.107 1.497 4.11 4.108.008 6.241.006 12.32-.005 18.066-.002.736.195 1.3.638 1.83.945 1.128 1.089 2.429.44 3.976-.146.35-.302.692-.482 1.087l-.273.602-.434.968h2.027c.655 0 1.31.006 1.966.012 1.501.015 3.053.03 4.584-.033 1.615-.066 2.542.46 3.077 1.752zm-13.122-20.576l.001-2.821c.001-1.684.003-3.338-.003-4.992-.006-1.545-.855-2.397-2.39-2.397-18.058-.002-36.115-.002-54.173 0-1.56 0-2.423.871-2.429 2.452-.007 1.936-.004 3.904 0 5.808v.659c0 .162.016.314.031.461l.019.2.052.63zM287.3 295.24h-1.51c-.735.005-1.485.003-2.227.004-1.67.005-3.396.01-5.091-.01-.916-.012-1.68-.39-2.096-1.04-.415-.647-.442-1.495-.074-2.327.09-.206.187-.408.283-.612.165-.348.336-.709.483-1.085.24-.616.238-1.246-.005-1.774s-.697-.92-1.312-1.134c-2.17-.755-4.399-.75-6.624.013-.574.198-1.02.584-1.26 1.09-.247.526-.258 1.153-.03 1.764.186.499.393 1.027.692 1.517.458.751.475 1.718.043 2.462-.451.776-1.287 1.186-2.355 1.149-1.688-.056-3.4-.042-5.055-.027-.692.006-1.384.012-2.075.013-.2 0-.393.014-.58.028a9.567 9.567 0 01-.255.018l-.644.04v7.948l.97-.446.608-.28c.39-.181.754-.35 1.12-.512 1.046-.465 2.156-.488 3.126-.063.96.42 1.69 1.241 2.056 2.312.838 2.448.862 4.92.072 7.346-.382 1.174-1.13 2.06-2.108 2.494-.983.438-2.152.398-3.289-.112l-2.536-1.14v8.022h1.556l2.215-.002c1.69-.003 3.437-.006 5.153.006.838.006 1.559.377 1.976 1.018.42.644.47 1.457.136 2.232-.106.248-.22.49-.342.746-.163.346-.333.703-.48 1.076-.239.604-.235 1.228.011 1.757.247.528.722.932 1.339 1.136 1.096.364 2.195.546 3.288.546a10.09 10.09 0 003.257-.547c.612-.209 1.084-.612 1.328-1.137.245-.527.249-1.152.012-1.76-.15-.385-.326-.753-.496-1.11a31.429 31.429 0 01-.246-.525c-.396-.873-.383-1.75.038-2.406.417-.651 1.199-1.026 2.145-1.029 1.697-.004 3.393-.003 5.09-.002h3.704v-8.04l-.97.441c-.198.09-.39.18-.577.266-.385.178-.748.347-1.113.502-1.096.47-2.23.49-3.192.057-.957-.43-1.692-1.286-2.07-2.41-.793-2.362-.802-4.788-.028-7.212.383-1.197 1.133-2.095 2.11-2.528.987-.437 2.165-.386 3.319.143.342.157.685.31 1.04.468l1.47.657zm-43.89-13.251c.004 7.472.004 14.319 0 20.932-.001.976-.209 1.187-1.17 1.187-6.646.002-13.291.002-19.937 0-.97 0-1.179-.21-1.18-1.18-.004-2.5-.004-5-.003-7.5V289.6l.001-7.532c.001-1.134.157-1.29 1.283-1.29l9.684-.002 10.108.001c1.031 0 1.213.181 1.214 1.21zm-1.638.423h-18.99v20.067h18.99zm5.98.201c-.005-.238.055-.422.178-.547.16-.164.45-.254.818-.255 1.025-.004 2.05-.005 3.076-.005h2.335l1.979.002 2.247-.001a834.91 834.91 0 015.215.006c.324.002.605.114.77.308a.683.683 0 01.153.561c-.026.175-.104.704-1.006.705-2.63.005-5.259.004-7.889.003h-2.87l-1.196.001c-.926.002-1.884.003-2.824-.004-.646-.005-.978-.266-.987-.774zm.158 6.407c-.17-.196-.177-.454-.153-.636.051-.4.366-.658.803-.66a1540.68 1540.68 0 0112.149-.002c.272.001.497.086.651.244a.77.77 0 01.206.568c-.01.463-.34.752-.86.758-1.415.014-2.858.011-4.252.01l-1.818-.003c-.569 0-1.137.002-1.706.003-1.407.003-2.862.007-4.29-.009-.321-.003-.58-.1-.73-.273zm-15.028 19.765c.092.262.078.674-.035.979-.027.073-.098.266-.748.266h-.012a737.642 737.642 0 00-3.644-.002l-2.755.002c-1.159.001-2.317.003-3.475-.004-.705-.004-1.068-.262-1.08-.768a.686.686 0 01.183-.516c.185-.19.506-.296.903-.297 1.232-.002 2.463-.003 3.695-.003h1.564c1.515 0 3.03 0 4.543-.002h.005c.736 0 .823.251.856.345zm12.654 7.727c-.005-.447.298-.768.738-.781a.81.81 0 01.593.225.754.754 0 01.234.537.795.795 0 01-.247.559.788.788 0 01-.557.245.786.786 0 01-.76-.785zm-16.418-47.36c.16.157.25.36.25.56a.785.785 0 01-.772.771c-.453.015-.774-.29-.79-.728a.821.821 0 01.215-.6.755.755 0 01.537-.239h.016c.192 0 .39.086.544.237zm6.65-.003a.8.8 0 01.231.579.75.75 0 01-.773.755.766.766 0 01-.79-.787c.008-.412.375-.776.783-.778h.004a.76.76 0 01.544.23zm-13.298-.002a.801.801 0 01.228.583.75.75 0 01-.773.754.795.795 0 01-.574-.242.753.753 0 01-.217-.548c.012-.406.387-.777.79-.777.207 0 .4.08.546.23z"/><g><text fill="#737373" dominant-baseline="text-before-edge" font-family="'IRANSans','IRANSans'" font-size="17" font-style="none" font-weight="400" transform="translate(205 357)"><tspan style="font-kerning:normal">افزونه و ماژول</tspan></text></g></g><g><g filter="url(#i)"><path fill="none" d="M377 230h150c5.523 0 10 4.477 10 10v150c0 5.523-4.477 10-10 10H377c-5.523 0-10-4.477-10-10V240c0-5.523 4.477-10 10-10z" mask="url(&quot;#j&quot;)"/><path fill-opacity=".05" d="M377 230h150c5.523 0 10 4.477 10 10v150c0 5.523-4.477 10-10 10H377c-5.523 0-10-4.477-10-10V240c0-5.523 4.477-10 10-10z"/></g><path fill="#fff" d="M377 230h150c5.523 0 10 4.477 10 10v150c0 5.523-4.477 10-10 10H377c-5.523 0-10-4.477-10-10V240c0-5.523 4.477-10 10-10z"/><text fill="#737373" dominant-baseline="text-before-edge" font-family="'IRANSans','IRANSans'" font-size="17" font-style="none" font-weight="400" transform="translate(432 357)"><tspan style="font-kerning:normal">امنیت</tspan></text><g><path fill="#ff3600" d="M441.107 317.804c-7.604.002-15.208.002-22.812.002-1.169 0-1.345-.176-1.345-1.343V267.169c0-2.647 1.51-4.166 4.14-4.166a155937.144 155937.144 0 0154.512 0c2.636 0 4.15 1.51 4.153 4.145.007 5.062-.001 17.52-.004 21.418 1.903.787 3.81 1.57 5.72 2.343 1.329.538 1.975 1.401 2.12 2.815.46 4.478.17 8.887-1.123 13.205-1.412 4.712-3.84 8.834-7.321 12.323a34.84 34.84 0 01-7.733 5.83c-.846.473-1.688.502-2.538.031-3.438-1.904-6.5-4.289-9.09-7.251-3.454-3.951-5.655-8.526-6.702-13.67-.618-3.033-.759-6.088-.556-9.167.041-.622.117-1.244.203-1.862.14-1.012.709-1.693 1.65-2.08 1.653-.68 3.304-1.368 4.955-2.053 3.157-1.308 6.313-2.618 9.47-3.925.27-.111.55-.197.874-.33.413-.167.965.008.965.008 2.882 1.195 5.772 2.403 8.67 3.602-.497-.26-.93-.492-1.2-.643v-11.127h-59.53v39.581h5.076l17.159.001h.124c.268 0 .52 0 .757.027.418.049.691.32.713.708.026.44-.207.744-.64.836a3.115 3.115 0 01-.617.036zm-22.532-43.737l.019.2.052.637h59.509v-2.848c.002-1.698.003-3.367-.003-5.037-.005-1.56-.863-2.419-2.415-2.419-18.247-.003-36.493-.003-54.74 0-1.576 0-2.447.879-2.453 2.474a967.721 967.721 0 00-.001 5.901v.625c0 .164.016.318.032.467zm26.857 8.094c.005 7.52.005 14.43 0 21.126 0 .985-.21 1.198-1.181 1.198-6.716.002-13.431.002-20.146 0-.98 0-1.191-.21-1.193-1.19-.004-2.531-.003-5.062-.002-7.593v-5.993l.001-7.465c0-1.145.158-1.303 1.296-1.303l9.785-.001 10.214.001c1.042 0 1.226.183 1.226 1.22zm-1.654.428h-19.19v20.253h19.19zm7.039.984c-.653-.005-.989-.268-.998-.781-.004-.24.057-.426.181-.553.161-.165.455-.256.826-.257a845.6 845.6 0 013.11-.005h2.358l2 .003 2.27-.002c1.729-.002 3.515-.003 5.27.006.327.002.611.115.779.31a.69.69 0 01.154.568c-.026.176-.105.71-1.016.711-2.657.005-5.315.004-7.972.003h-2.9l-1.209.001c-.936.002-1.903.003-2.853-.004zm-16.022 25.632c.093.265.078.68-.036.988-.027.074-.099.269-.756.269h-.011a829.15 829.15 0 00-3.682-.003l-2.784.002c-1.171.002-2.342.004-3.513-.003-.711-.004-1.079-.265-1.091-.775a.692.692 0 01.186-.521c.187-.192.51-.3.912-.3l3.733-.003h1.581c1.531 0 3.061.001 4.591-.001h.004c.744 0 .833.252.866.347zm12.786 7.798c-.005-.45.302-.775.746-.788a.82.82 0 01.599.227c.15.144.234.337.236.543a.8.8 0 01-.25.563.808.808 0 01-.562.249.797.797 0 01-.769-.794zm-17.916-47.188a.83.83 0 01.218-.605.765.765 0 01.543-.241h.016a.8.8 0 01.549.238.801.801 0 01.253.564.792.792 0 01-.8.78c-.443 0-.763-.3-.78-.736zm6.917.5a.765.765 0 01-.217-.56.826.826 0 01.792-.785h.004c.205 0 .4.083.549.233a.806.806 0 01.234.585c-.007.44-.336.76-.78.762h-.005a.8.8 0 01-.577-.235zm-13.44-.008a.757.757 0 01-.218-.553c.011-.41.391-.784.797-.785h.002c.208 0 .404.082.55.232a.809.809 0 01.231.588.757.757 0 01-.78.762h-.001a.803.803 0 01-.58-.244zm63.184 23.087c-.055-.61-.398-.993-.96-1.225-4.877-2.016-9.751-4.04-14.626-6.063a1.534 1.534 0 00-1.231-.006c-4.894 2.031-9.789 4.063-14.685 6.089-.54.224-.839.608-.92 1.185a30.314 30.314 0 00-.277 4.878c.063 3.024.517 5.982 1.442 8.867 1.123 3.5 2.843 6.672 5.2 9.49 2.55 3.049 5.62 5.465 9.072 7.414.53.298 1.04.307 1.558-.01.633-.384 1.276-.753 1.9-1.151 2.821-1.804 5.312-3.982 7.43-6.583 2.406-2.956 4.103-6.282 5.171-9.93.839-2.864 1.218-5.795 1.206-8.778 0 0-.154-2.788-.28-4.177zm-1.904 6.09c-.033 3.853-.86 7.515-2.611 10.958-1.412 2.774-3.335 5.142-5.68 7.176-1.525 1.324-3.19 2.445-4.951 3.426-.703.391-1.415.394-2.12.005-3.455-1.907-6.453-4.358-8.781-7.566a22.949 22.949 0 01-3.884-8.727 26.53 26.53 0 01-.437-8.495c.066-.61.093-1.246.565-1.713.236-.233.502-.474.802-.598 3.95-1.632 7.908-3.244 11.863-4.861.607-.249 1.214-.262 1.822-.012 1.135.467 2.272.929 3.401 1.41a.899.899 0 01.42.353c.2.362-.128.83-.55.805a1.391 1.391 0 01-.423-.119 455.3 455.3 0 01-3.228-1.33 1.27 1.27 0 00-1.016-.005c-3.896 1.595-7.793 3.19-11.69 4.78-.42.172-.659.457-.72.917-.498 3.714-.178 7.352.988 10.912 1.335 4.074 3.708 7.44 6.981 10.183 1.359 1.139 2.833 2.11 4.373 2.986.37.21.743.222 1.116.011 2.421-1.364 4.65-2.983 6.549-5.025 2.42-2.604 4.131-5.614 5.101-9.04.823-2.904 1.119-5.857.837-8.864-.036-.38-.089-.757-.12-1.137-.04-.492-.313-.78-.756-.96-1.784-.722-3.565-1.453-5.347-2.183a2.497 2.497 0 01-.426-.207c-.247-.163-.294-.406-.2-.672a.556.556 0 01.629-.368c.123.024.244.07.36.118 1.842.752 3.68 1.51 5.523 2.258.824.335 1.301.943 1.388 1.815.124 1.252.248 3.767.222 3.77z"/></g></g><g><path fill="#ff3600" d="M586.429 119.3c.853 1.426 1.155 2.588.95 3.66-.347 1.807-1.452 2.97-3.284 3.456a4.205 4.205 0 01-1.591.107c-1.724-.267-2.696-1.606-3.62-3.074-.168-.266-.675-1.118-1.294-2.169-5.876.001-13.688.003-19.242 0h-.048c-.225 0-.44 0-.613-.037-.429-.09-.66-.392-.634-.827.022-.385.293-.653.706-.702.234-.027.484-.027.749-.027h18.144a1982.77 1982.77 0 01-1.977-3.379c-.496-.85-.52-1.662-.075-2.48.114-.21.074-.544-.03-.745a20.08 20.08 0 00-.496-.88c-.163-.28-.332-.57-.483-.858-.173-.334-.398-.422-.625-.422-.1 0-.2.017-.295.038-4.502.94-8.408-.253-11.61-3.547-1.77-1.82-2.85-4.099-3.21-6.772-.014-.107-.206-2.165.072-3.585 1.295-6.611 7.068-10.66 13.764-9.622a11.611 11.611 0 016.119 2.963v-9.914h-58.963v39.199h5.028l16.995.001h.121c.267-.002.518-.002.752.026.414.048.684.317.706.701.026.436-.205.738-.633.827a2.98 2.98 0 01-.612.037h-.05c-7.531.002-15.063.002-22.594.002-1.158 0-1.332-.175-1.332-1.33V71.129c0-2.622 1.495-4.126 4.1-4.126a114386.59 114386.59 0 0153.993 0c2.611 0 4.11 1.497 4.114 4.105.006 4.975-.002 17.163-.005 21.122.352.486.673 1.004.96 1.55 1.799 3.416 1.914 7.285.317 10.615-.424.883-.984 1.697-1.577 2.558-.277.402-.564.818-.84 1.247l-.064.1.301.526c.274.478.585 1.019.91 1.555.093.155.319.32.521.32h.02c.987 0 1.7.477 2.309 1.546a225.332 225.332 0 003.366 5.752zm-5.99-19.869c-.003-2.876-1.149-5.597-3.227-7.662-2.049-2.035-4.724-3.153-7.541-3.153h-.067c-2.833.018-5.477 1.116-7.445 3.091-1.969 1.976-3.048 4.616-3.04 7.433.01 2.86 1.145 5.56 3.196 7.606 2.046 2.039 4.737 3.16 7.582 3.16h.025c5.903-.013 10.523-4.615 10.517-10.475zm-4.463 13.313l2.411-1.403-1.337-2.304-2.427 1.365zm9.695 7.983c-.6-1.07-1.81-3.105-2.879-4.9a390.596 390.596 0 01-1.802-3.045c-.457-.786-.797-.88-1.584-.432-.926.528-2.019 1.153-3.103 1.784-.716.416-.827.81-.425 1.507a259.423 259.423 0 002.426 4.116 284.13 284.13 0 012.288 3.873c.544.937 1.395 1.475 2.405 1.516 1.144-.003 2.148-.552 2.684-1.47.525-.899.521-2.001-.01-2.95zm-46.165-16.3c-.13 2.332-1.445 4.435-3.606 5.771-2.065 1.276-4.435 1.643-7.044 1.09-1.354-.286-2.514-.647-3.77-1.478-1.015-.671-1.557-1.788-1.381-2.845.207-1.249 1.052-2.15 2.26-2.41a1.93 1.93 0 01.415-.04c.775 0 1.646.36 1.836.478 1.065.659 3.328 1.165 4.633.36.827-.51.994-1.018.988-1.355-.006-.324-.179-.806-.971-1.256-.286-.163-.95-.414-1.79-.731-1.543-.583-3.657-1.381-4.994-2.217a6.358 6.358 0 01-2.633-3.193c-.082-.217-.785-2.187-.01-4.368.54-1.519 1.428-2.721 2.64-3.574.244-.172 1.818-1.098 3.392-1.344 1.91-.298 3.804-.012 5.79.873 1.518.678 2.188 2.31 1.556 3.796-.62 1.462-2.207 2.094-3.771 1.504a10.672 10.672 0 00-1.717-.488 2.936 2.936 0 00-1.123.031c-.303.062-1.227.25-1.384 1.099-.164.879.728 1.25 1.02 1.372.748.311 1.557.588 2.405.823 1.859.516 3.247 1.165 4.367 2.044 1.967 1.543 3.02 3.75 2.892 6.058zm-1.52-1.71c-.457-1.824-1.644-3.194-3.53-4.074-.654-.305-1.35-.529-2.025-.745-.5-.16-1.018-.325-1.509-.522l-.276-.11c-.817-.324-1.662-.66-2.327-1.178-.617-.482-.95-1.131-.935-1.83.014-.71.397-1.387 1.052-1.857.485-.349 1.14-.618 1.842-.758 1.14-.228 2.257.139 3.2.527.916.378 1.728.094 2.07-.723a1.51 1.51 0 00.003-1.219c-.173-.382-.516-.674-.964-.822-.986-.327-2.036-.656-3.093-.783-2.941-.35-5.535 1.085-6.608 3.661-.998 2.394-.314 4.786 1.783 6.241a12.13 12.13 0 002.253 1.207 23.97 23.97 0 001.564.565c.577.194 1.174.394 1.735.64.926.407 1.642.837 2.19 1.315 1.002.877 1.1 2.132.256 3.274a3.754 3.754 0 01-2.3 1.477c-1.61.344-3.196.077-4.848-.816-.954-.516-1.797-.358-2.254.422-.206.352-.266.722-.173 1.07.114.428.455.815.986 1.118 1.57.898 3.21 1.319 5.32 1.365h.053c1.245 0 2.618-.42 3.775-1.154 2.271-1.444 3.354-3.913 2.76-6.292zm10.177-9.475v3.343h.196c.42 0 .835 0 1.249-.002a181.75 181.75 0 012.77.006c1.33.015 2.459.917 2.746 2.193.304 1.35-.313 2.676-1.5 3.223-.39.18-.893.285-1.454.306-.884.031-1.755.025-2.678.02a151.9 151.9 0 00-1.12-.006h-.195v3.447h.196l1.17-.002c.97-.003 1.972-.007 2.952.01.385.007.884.032 1.331.174 1.29.408 2.039 1.605 1.908 3.048-.118 1.307-1.172 2.374-2.452 2.482-.842.071-1.708.066-2.546.061-.302-.001-.603-.003-.905-.001-1.354.007-2.738.007-4.232-.001-1.992-.01-3.137-1.148-3.142-3.124-.004-1.938-.003-3.876 0-5.814 0-.357.086-.628.246-.785a.583.583 0 01.424-.158h.017c.592.012.682.614.683.972.002.883.002 1.767.003 2.65 0 1.055 0 2.11.004 3.165.004 1.154.558 1.717 1.694 1.722 2.334.01 4.749.008 7.176-.005 1.03-.006 1.67-.584 1.668-1.51-.002-.926-.641-1.505-1.668-1.511-.983-.007-1.967-.005-2.95-.004h-2.049c-.743-.003-.948-.2-.952-.922a309.05 309.05 0 01.005-4.343c.006-.71.223-.916.968-.919 1.47-.006 2.94 0 4.41-.007 1.033-.006 1.676-.577 1.678-1.49.003-.911-.653-1.502-1.67-1.505-.7-.002-1.399-.002-2.098-.002-.79.002-1.58.002-2.371-.001-.689-.003-.911-.224-.916-.908-.01-1.337-.01-2.758-.001-4.344.004-.733.206-.934.94-.935.636-.002 1.272-.001 1.909 0 1.05.002 2.139.004 3.209-.008.572-.006 1.08-.274 1.358-.719.268-.427.292-.947.066-1.426-.258-.549-.704-.84-1.29-.842l-.915-.003a719.14 719.14 0 00-6.731 0c-.92.005-1.47.614-1.473 1.627-.004 1.601-.003 3.202-.001 4.803v2.597l.002.123c.002.15.004.291-.025.417-.096.413-.33.599-.717.57-.407-.03-.618-.246-.624-.644-.014-.824-.012-1.662-.01-2.473v-.871l-.001-1.228c-.002-1.117-.003-2.235.003-3.352.01-1.756 1.193-2.94 2.943-2.947 2.333-.01 4.806-.01 7.35 0 .882.003 1.668.309 2.214.86.52.526.791 1.227.786 2.029-.011 1.674-1.268 2.848-3.056 2.854l-2.015.006-2.16.007a.434.434 0 00-.147.032l-.07.023zm29.31 5.997a7.492 7.492 0 01-2.189 5.347 7.608 7.608 0 01-5.423 2.247h-.012c-4.268 0-7.748-3.483-7.761-7.769a7.58 7.58 0 012.22-5.418 7.494 7.494 0 015.343-2.213h.012c4.291.007 7.795 3.509 7.81 7.806zm-1.376.166c.04-3.639-2.745-6.533-6.341-6.59a6.168 6.168 0 00-4.403 1.741 6.083 6.083 0 00-1.892 4.315 6.468 6.468 0 001.822 4.64 6.366 6.366 0 004.514 1.937h.09a6.21 6.21 0 004.366-1.779 6.021 6.021 0 001.844-4.264zm1.746-28.425c-.006-1.544-.855-2.395-2.392-2.395-18.073-.003-36.145-.003-54.218 0-1.562 0-2.425.87-2.431 2.45a1123.5 1123.5 0 00-.001 5.804v.66c0 .161.016.314.032.46l.019.2.051.63h58.943v-2.792c.002-1.692.003-3.354-.003-5.017zm-28.948 48.945a.753.753 0 01.234.538.792.792 0 01-.247.558.796.796 0 01-.55.246h-.008a.788.788 0 01-.76-.785c-.006-.447.298-.768.737-.781h.026c.216 0 .416.079.568.224zm-17.764-46.778c.16.156.25.36.25.56a.784.784 0 01-.773.77c-.44.004-.774-.29-.791-.728a.822.822 0 01.217-.6.759.759 0 01.537-.238h.016a.79.79 0 01.544.236zm6.655-.003c.153.155.236.36.232.578a.75.75 0 01-.774.755h-.004a.79.79 0 01-.571-.233.759.759 0 01-.216-.554.817.817 0 01.784-.777h.004a.76.76 0 01.545.23zm-13.309-.003a.802.802 0 01.228.583.75.75 0 01-.773.754.796.796 0 01-.575-.242.75.75 0 01-.217-.547c.012-.406.388-.777.79-.777h.002c.206 0 .4.08.545.23z"/></g></svg>