<svg xmlns="http://www.w3.org/2000/svg" width="555" height="470" viewBox="0 0 555 470"><defs><linearGradient id="zmbra" x1="309.97" x2="310.97" y1="-.02" y2="488.96" gradientUnits="userSpaceOnUse"><stop offset="0" stop-color="#06826a" stop-opacity=".1"/><stop offset="1" stop-color="#fff" stop-opacity="0"/></linearGradient></defs><g><g><path fill="url(#zmbra)" d="M547.416 226.244c10.069 10.065 10.069 26.387 0 36.452l-218.72 218.717c-10.06 10.07-26.389 10.065-36.45 0L73.527 262.698c-10.068-10.067-10.068-26.389 0-36.454l218.72-218.72c10.061-10.064 26.39-10.064 36.45.002z"/></g><g opacity=".06"><path fill="#0042ff" d="M35 47c19.33 0 35 15.67 35 35s-15.67 35-35 35S0 101.33 0 82s15.67-35 35-35z"/></g><g opacity=".06"><path fill="#0042ff" d="M499 246c19.33 0 35 15.67 35 35s-15.67 35-35 35-35-15.67-35-35 15.67-35 35-35z"/></g><g opacity=".06"><path fill="#0042ff" d="M137 422c13.255 0 24 10.745 24 24s-10.745 24-24 24-24-10.745-24-24 10.745-24 24-24z"/></g><g opacity=".06"><path fill="#0042ff" d="M130 409c7.732 0 14 6.267 14 14 0 7.732-6.268 14-14 14s-14-6.268-14-14c0-7.733 6.268-14 14-14z"/></g><g opacity=".06"><path fill="#0042ff" d="M457 205c28.166 0 51 22.833 51 51 0 28.166-22.834 51-51 51-28.167 0-51-22.834-51-51 0-28.167 22.833-51 51-51z"/></g><g opacity=".06"><path fill="#0042ff" d="M247 225c11.598 0 21 9.402 21 21s-9.402 21-21 21-21-9.402-21-21 9.402-21 21-21z"/></g><g opacity=".06"><path fill="#0042ff" d="M398.5 73a7.5 7.5 0 1 1 0 15 7.5 7.5 0 0 1 0-15z"/></g></g></svg>