<svg xmlns="http://www.w3.org/2000/svg" xmlns:xlink="http://www.w3.org/1999/xlink" viewBox="0 0 642.5 432.7"><style>.st0{fill:#f5f5f5}.st1{fill:#e0e0e0}.st2{fill:#ebebeb}.st3{fill:#fafafa}.st4{fill:#263238}.st5{fill:#ff4c00}.st7{fill:#455a64}.st13{opacity:.6}.st14{fill:#fff}.st15{fill:#ffbe9d}</style><g id="Layer_1"><g id="freepik--background-complete--inject-2"><path class="st0" d="M217 333.8h130.1v60H217z"/><path class="st1" d="M344 391H220v-54h124v54zm-123.3-.8h122.4v-52.4H220.7v52.4zm126.4-56.4h31.8v60h-31.8z"/><path class="st1" d="M220.3 353.7h123.2c.1 0 .1-.1.1-.2s-.1-.1-.1-.1H220.3c-.1 0-.1.1-.1.2l.1.1z"/><path class="st1" d="M282.3 353.5c.3-5.4.4-10.9 0-16.3 0-.1-.1-.2-.2-.2s-.2.1-.2.2c-.3 5.4-.3 10.9 0 16.3 0 .1.1.1.1.1.3 0 .3 0 .3-.1zm33.2-8.1c0 .9-.8 1.7-1.7 1.7-.9 0-1.7-.8-1.7-1.7 0-.9.8-1.7 1.7-1.7 1 0 1.7.7 1.7 1.7zm-64.7 0c0 .9-.8 1.7-1.7 1.7-.9 0-1.7-.8-1.7-1.7 0-.9.8-1.7 1.7-1.7 1 0 1.7.7 1.7 1.7zm32.8 18.6c0 .9-.8 1.7-1.7 1.7-.9 0-1.7-.8-1.7-1.7 0-.9.8-1.7 1.7-1.7 1 0 1.7.7 1.7 1.7zm-51.1 29.8l-6.7 37.7h3.8l12.3-37.7zm105.4 0l5.6 37.7h-3.8l-11.3-37.7zm25.1 0l6.4 37.7h-3.8l-12-37.7zm-79.5-12.9c0 .9-.8 1.7-1.7 1.7-.9 0-1.7-.8-1.7-1.7 0-.9.8-1.7 1.7-1.7 1 .1 1.7.8 1.7 1.7zm-63.2-8.6h123.2c.1 0 .1-.1.1-.2s-.1-.1-.1-.1H220.3c-.1 0-.1.1-.1.2 0 0 .1 0 .1.1z"/><path class="st2" d="M0 25.4h82.3v110.3H0z"/><path class="st3" d="M4.3 29.8H78v101.7H4.3z"/><path class="st2" d="M28.2 64.9h28.1V97H28.2zm542.6 87.4h71.6v53.4h-71.6z"/><path class="st3" d="M573.6 155.1h66V203h-66z"/><path class="st2" d="M596.5 169.2h20.9v18.3h-20.9zM302.4 299.7l-3.5 33h45.6l3.7-33z"/><path class="st3" d="M304.3 302.1l-3.4 28.9H342l3.3-28.9z"/><path class="st1" d="M311.2 306.9l-2.1 19.2h26l1.3-19.2z"/><path class="st0" d="M346.6 313.9l9.4 18.9-11.5-.1 2.3-20"/></g><path class="st4" d="M638.7 431.8c0 .1-140.9.3-314.6.3s-314.7-.2-314.7-.3 140.8-.3 314.6-.3 314.7.2 314.7.3z" id="freepik--Floor--inject-2"/><g id="freepik--Plants--inject-2"><path class="st4" d="M64 404.4c0-.2.1-.3.2-.4l.6-1.3c.7-1.6 1.3-3.3 1.8-5.1 1.2-4.5 1.6-11.4-.2-19.5-.9-4.4-2.1-8.8-3.6-13.1-1.5-4.7-3.3-9.6-4.8-14.9-1.6-5.6-2.4-11.4-2.3-17.2.2-6.1 2-12.1 4-18.2s4-12 4.6-17.9c.7-5.7-.4-11.5-3.2-16.5-2.6-4.8-5.9-9-8.4-13.2-2.3-4-4-8.2-5-12.7-1.5-6.5-1.6-13.2-.3-19.7.4-2.4 1.1-4.7 2-7 0 .2-.1.3-.1.5l-.4 1.3c-.5 1.7-.9 3.4-1.3 5.2-1.2 6.5-1 13.2.5 19.6 1 4.4 2.7 8.6 5 12.6 2.5 4.2 5.8 8.3 8.4 13.2 2.9 5.1 4.1 11 3.4 16.9-.6 6-2.7 12-4.7 18s-3.8 12-4 18c-.1 5.7.7 11.5 2.3 17 1.4 5.3 3.2 10.3 4.7 14.9 1.5 4.3 2.7 8.7 3.6 13.2 1.7 8.2 1.2 15.2 0 19.7-.5 1.7-1.1 3.4-1.9 5.1-.3.5-.5.9-.7 1.2 0 0-.1.1-.2.3z"/><path class="st5" d="M55.9 271.2s-5-16 4-25.4c.2-.2.5-.3.8-.1.1.1.2.2.2.4.4 2.6 1 10.7-5 25.1z"/><path class="st4" d="M58.9 251.1c0 1-.1 2-.3 3-.3 2-.7 4.4-1.1 7.1s-.8 5-1.1 7.1c-.1 1-.3 2-.5 2.9-.1-1-.1-2 .1-3 .2-1.8.5-4.4.9-7.1s.9-5.3 1.3-7c.1-1 .3-2 .7-3z"/><path class="st5" d="M61.8 308.9s3.1-16.5 15.4-20.6c.3-.1.6 0 .7.3v.4c-.8 2.6-4.1 10-16.1 19.9z"/><path class="st4" d="M73.8 292.6c-.5.9-1 1.7-1.7 2.5l-4.3 5.7-4.3 5.7c-.5.8-1.2 1.6-1.8 2.3.4-.9.9-1.8 1.5-2.6 1-1.5 2.5-3.6 4.2-5.9s3.3-4.2 4.5-5.6c.5-.7 1.2-1.4 1.9-2.1z"/><path class="st5" d="M58.5 350.3s-1.9-16.7 8.8-24.2c.2-.2.6-.1.8.1.1.1.1.2.1.3-.1 2.8-1.1 10.8-9.7 23.8z"/><path class="st4" d="M65.2 331.2c-.2 1-.5 1.9-.9 2.8l-2.5 6.7c-.9 2.5-1.7 4.8-2.4 6.7-.3 1-.6 1.9-1.1 2.8.1-1 .3-2 .7-2.9.5-1.8 1.3-4.2 2.3-6.8s1.9-5 2.6-6.7c.4-.8.8-1.7 1.3-2.6z"/><path class="st5" d="M67.7 391.9s-1.3-16.7 9.6-23.8c.3-.2.6-.1.8.1.1.1.1.2.1.3-.1 2.8-1.3 10.8-10.5 23.4z"/><path class="st4" d="M75.2 373.1c-.2 1-.6 1.9-1 2.8-.8 1.9-1.7 4.1-2.7 6.6l-2.7 6.6c-.3.9-.7 1.9-1.2 2.7.1-1 .4-2 .8-2.9.6-1.7 1.5-4.1 2.5-6.7s2.1-4.9 2.9-6.6c.4-.8.8-1.7 1.4-2.5z"/><path class="st5" d="M48.7 257.1s-14.9-7.8-15.2-20.8c0-.3.2-.6.5-.6.1 0 .2 0 .3.1 2.3 1.6 8.5 6.9 14.4 21.3z"/><path class="st4" d="M36.6 240.8c.7.7 1.3 1.5 1.8 2.3l4.2 5.8 4.2 5.8c.6.8 1.2 1.6 1.7 2.4-.8-.6-1.4-1.4-2-2.2-1.2-1.4-2.7-3.4-4.4-5.7s-3.1-4.4-4-5.9c-.5-.7-1-1.6-1.5-2.5z"/><path class="st5" d="M64.7 291.5s-15.3-6.9-16.4-19.8c0-.3.2-.6.5-.6.1 0 .2 0 .3.1 2.3 1.4 8.8 6.3 15.6 20.3z"/><path class="st4" d="M51.6 276c.7.7 1.4 1.4 2 2.2 1.3 1.6 2.8 3.5 4.5 5.5l4.6 5.5c.7.7 1.3 1.5 1.8 2.3-.8-.6-1.5-1.2-2.2-2-1.3-1.3-2.9-3.2-4.7-5.4s-3.3-4.2-4.4-5.7c-.6-.7-1.1-1.5-1.6-2.4z"/><path class="st5" d="M55.9 329.9s-10.5-13.1-5.6-25.1c.1-.3.4-.4.7-.3.1 0 .2.1.3.3 1.4 2.2 4.9 9.4 4.6 25.1z"/><path class="st4" d="M51.3 310.1c.4.9.6 1.9.8 2.9.4 2 .9 4.4 1.5 7s1.1 5 1.5 7c.3 1 .5 1.9.6 2.9-.4-.9-.8-1.8-1-2.8-.5-1.8-1.1-4.2-1.7-7s-1-5.2-1.3-7c-.3-1-.4-2-.4-3z"/><path class="st5" d="M66.3 375s-15.2-7.1-16.1-20.1c0-.3.2-.6.5-.6.1 0 .2 0 .3.1 2.4 1.4 8.7 6.4 15.3 20.6z"/><path class="st4" d="M53.5 359.3c.7.7 1.4 1.4 2 2.2l4.4 5.6 4.5 5.6c.7.7 1.3 1.5 1.8 2.4-.8-.6-1.6-1.3-2.2-2.1-1.2-1.4-2.9-3.3-4.6-5.5s-3.2-4.2-4.3-5.7c-.6-.8-1.2-1.7-1.6-2.5zM96.6 309v1.5c0 1-.1 2.4-.2 4.1-.2 3.6-.5 8.6-.8 14.5-1.1 6.1-4.2 12.8-8.3 19.3-3 4.8-6.2 9.2-9 13.3-2.5 3.6-4.8 7.3-6.8 11.1-1.3 2.6-2.4 5.4-3.2 8.2-.3 1-.5 1.8-.6 2.3 0 .3-.1.5-.2.8 0-.3 0-.6.1-.8.1-.5.2-1.3.5-2.4.7-2.9 1.7-5.6 3-8.3 1.9-3.9 4.2-7.7 6.7-11.3 2.7-4.1 5.9-8.5 8.9-13.3 4.1-6.5 7.2-13.1 8.3-19.1.4-6 .8-10.9 1-14.5.1-1.7.2-3 .3-4.1 0-.4.1-.8.1-1.1s.1-.2.2-.2z"/><path class="st5" d="M87.5 347.2s6.4-15.5-1.7-25.6c-.2-.3-.5-.3-.8-.2-.1.1-.2.2-.2.4-.6 2.5-2 10.5 2.7 25.4z"/><path class="st4" d="M86.3 326.9c.3 1 .4 1.9.5 2.9.2 1.8.5 4.4.7 7.1s.3 5.3.3 7.2c.1 1 0 2-.2 3-.2-1-.3-2-.3-3-.1-2.1-.3-4.5-.5-7.1s-.3-5.1-.5-7.1v-3z"/><path d="M87.5 347.2s6.4-15.5-1.7-25.6c-.2-.3-.5-.3-.8-.2-.1.1-.2.2-.2.4-.6 2.5-2 10.5 2.7 25.4z"/><path class="st5" d="M67.6 384.5s5.2-16-3.7-25.4c-.2-.2-.5-.3-.8-.1-.1.1-.2.2-.2.4-.5 2.6-1.2 10.7 4.7 25.1z"/><path class="st4" d="M64.8 364.5c.4.9.6 1.9.8 2.9.4 1.8.8 4.3 1.3 7s.7 5.3.9 7.1c.2 1 .2 2 .1 3-.3-1-.4-1.9-.5-2.9-.3-2-.7-4.4-1-7.1s-.8-5-1.1-7.1c-.4-.9-.5-1.9-.5-2.9z"/><path d="M67.6 384.5s5.2-16-3.7-25.4c-.2-.2-.5-.3-.8-.1-.1.1-.2.2-.2.4-.5 2.6-1.2 10.7 4.7 25.1z"/><path class="st5" d="M95.7 328.3s13.8-9.6 12.4-22.5c0-.3-.3-.5-.6-.5-.1 0-.2.1-.3.1-2.1 1.8-7.4 7.8-11.5 22.9z"/><path d="M95.7 328.3s13.8-9.6 12.4-22.5c0-.3-.3-.5-.6-.5-.1 0-.2.1-.3.1-2.1 1.8-7.4 7.8-11.5 22.9z"/><path class="st4" d="M105.6 310.5c-.3 1-.7 1.9-1.1 2.8-.8 1.7-1.9 3.9-3.3 6.4s-2.6 4.7-3.6 6.2c-.5.9-1.1 1.7-1.8 2.4.4-.9.8-1.8 1.4-2.6l3.4-6.3 3.4-6.3c.5-.9 1-1.8 1.6-2.6z"/><path class="st5" d="M73.1 368.7s16.6-2.6 21-14.8c.1-.3 0-.6-.3-.7h-.3c-2.6.7-10.1 3.7-20.4 15.5z"/><path d="M73.1 368.7s16.6-2.6 21-14.8c.1-.3 0-.6-.3-.7h-.3c-2.6.7-10.1 3.7-20.4 15.5z"/><path class="st4" d="M89.8 357.1c-.7.7-1.4 1.4-2.2 2-1.4 1.1-3.4 2.7-5.7 4.3s-4.4 3-6 4c-.8.6-1.7 1-2.6 1.4.7-.7 1.5-1.3 2.4-1.8l5.8-4.1 5.8-4.1c.7-.6 1.6-1.2 2.5-1.7z"/><path class="st7" d="M57.3 399.2l-4.8 32.5h30.1l-3.9-32.5z"/><path class="st4" d="M79.9 409.3c0 .2-5.4.3-12.2.3s-12.2-.1-12.2-.3 5.5-.3 12.3-.3 12.1.1 12.1.3zm.6 2.6c0 .2-5.6.3-12.5.3s-12.6-.1-12.6-.3 5.6-.3 12.6-.3 12.5.1 12.5.3z"/><path class="st5" d="M617 388.2c-2.1.6-4 2.1-5 4-1 2-1.6 4.1-1.7 6.4-.3 4.3 1.4 8.9 3.4 12.7 4.1-2.5 5.8-7.7 6.5-10.4 1.2-4.3.6-12.7-3.2-12.7m-8.6 29.3c.9-2.4.5-5-1.1-7-1.6-1.9-3.9-3.1-6.4-3.3-1.1-.2-2.3.1-3.2.8-.7.8-.9 2-.6 3 .4 1 1 1.9 1.8 2.6 2.8 2.5 5.9 4.3 9.5 3.9"/><path class="st4" d="M610.8 431.2v-3.3c0-2.7-.3-5.3-1.1-7.9-.8-2.5-2.4-4.8-4.4-6.6-.6-.5-1.3-1-2-1.3-.3-.1-.5-.2-.6-.3l-.2-.1c1 .5 1.9 1.1 2.7 1.8 1.9 1.8 3.4 4 4.2 6.5.8 2.5 1.2 5.1 1.2 7.8 0 1 .1 1.8.1 2.4 0 .4 0 .7.1 1z"/><path class="st4" d="M616.9 394.6c0 .1-.1.2-.1.4l-.3 1.1c-.2.9-.5 2.3-.8 4-.7 3.3-1.6 8-2.4 13.1s-1.5 9.8-2 13.2c-.2 1.7-.4 3.1-.5 4 0 .5-.1.8-.1 1.1v.4c0-.1.1-.3.1-.4 0-.3.1-.6.2-1.1.2-1 .3-2.3.6-4 .5-3.4 1.2-8 2-13.2s1.7-9.8 2.3-13.1c.3-1.6.6-3 .8-4 .1-.4.1-.8.2-1.1s0-.4 0-.4z"/><path class="st5" d="M614.1 421.1c1.7-5 5.8-8.9 10.9-10.4 1.3-.4 2.9-.5 3.7.6s.3 2.6-.3 3.7c-3 4.8-8.6 7.4-14.2 6.4"/><path class="st4" d="M623.8 414.6c-.3 0-.5.1-.8.2l-.9.3c-.4.1-.8.3-1.2.5-.5.2-.9.5-1.4.7-.5.3-1 .6-1.5 1-1.1.8-2.1 1.7-3 2.8-.9 1.1-1.7 2.2-2.3 3.4-.3.5-.5 1.1-.7 1.7-.2.5-.4 1-.5 1.5-.1.5-.2.9-.3 1.3-.1.3-.1.7-.1 1v.8c.1 0 .2-1.2.7-3 .1-.5.3-1 .5-1.5.2-.6.4-1.1.7-1.6 1.2-2.4 3-4.5 5.2-6.1.5-.4 1-.7 1.5-1 .4-.3.9-.5 1.3-.7 1.6-.9 2.8-1.2 2.8-1.3z"/></g></g><g id="Layer_3"><g id="freepik--Loading--inject-2"><path class="st2" d="M99.1.2h376.3v247.7H99.1z"/><path class="st4" d="M475.4 248c0-1.7-.1-96.6-.2-247.7l.2.2H99.1l.3-.3v247.7l-.2-.2 376.2.3-376.2.2H99V0h.3l376.2.1h.2v.2c-.3 151.1-.3 246-.3 247.7z"/><path class="st4" d="M475.4 22.4c0 .1-84.2.3-188.1.3s-188.2-.2-188.2-.3 84.2-.3 188.1-.3 188.2.1 188.2.3z"/><path class="st1" d="M134.2 59h315.4v43.2H134.2zm-5.4 116.7h70v70h-70zm82.7 0h70v70h-70zm80.4 0h70v70h-70z"/><path class="st5" d="M254 148h-75.9c-6.4 0-11.6-5.2-11.6-11.6 0-6.4 5.2-11.5 11.6-11.5H254c6.4 0 11.6 5.2 11.6 11.6-.1 6.3-5.2 11.5-11.6 11.5z"/><path class="st4" d="M342.7 148l1-.1c.4 0 .8-.1 1.3-.2 4.5-.9 8-4.5 8.9-9 .5-2.8.1-5.6-1.3-8.1-1.7-2.9-4.6-4.9-7.9-5.5-1.9-.2-3.7-.2-5.6-.2h-19L178 125c-6.2 0-11.3 5-11.4 11.2 0 6 4.6 11 10.6 11.4 1.6.1 3.3 0 4.9 0h37.7l63.9.1 43.1.1 11.7.1h4-4l-11.7.1-43.1.1H177.2c-1.7-.1-3.4-.6-4.9-1.4-5.7-3.1-7.9-10.3-4.8-16 2.1-3.8 6.1-6.2 10.4-6.2l142.1.1h19c1.9-.1 3.8 0 5.6.2 6.4 1.1 10.6 7.2 9.5 13.5 0 .1 0 .2-.1.4-.5 2.2-1.6 4.3-3.2 5.9-1.2 1.2-2.6 2.1-4.2 2.6-.6.2-1.1.4-1.7.5-.5.1-.9.1-1.3.2l-.9.1zm-104 13.6c0-.3.2-.6.6-.6.3 0 .5.2.5.5s-.2.6-.6.6c-.2.1-.5-.2-.5-.5zm2 0c0-.3.2-.6.6-.6.3 0 .5.2.5.5s-.2.6-.6.6c-.2.1-.5-.2-.5-.5zm2 0c0-.3.3-.6.6-.6s.5.2.5.5-.2.6-.6.6c-.3.1-.5-.2-.5-.5zM113.4 12.4c0 1.5-1.2 2.8-2.8 2.8-1.5 0-2.8-1.2-2.8-2.8 0-1.5 1.2-2.8 2.8-2.8 1.6 0 2.8 1.3 2.8 2.8zm11.8 0c0 1.5-1.2 2.8-2.8 2.8-1.5 0-2.8-1.2-2.8-2.8 0-1.5 1.2-2.8 2.8-2.8 1.6 0 2.8 1.3 2.8 2.8zm11.7 0c0 1.5-1.2 2.8-2.8 2.8-1.5 0-2.8-1.2-2.8-2.8 0-1.5 1.2-2.8 2.8-2.8 1.6 0 2.8 1.3 2.8 2.8zm108.7 151.5c-.8-.4-1.2-1.1-1.3-2 0-.4 0-.8.2-1.2.1-.3.2-.7.4-1 0-.1.1-.1.2-.1h.2c.1 0 .1.1.2.2v.2c-.4.7-.5 1.4-.5 2 0 .7.3 1.2.9 1.5.5.3 1.1.3 1.8.2s1.2-.4 1.5-.9c.1-.1.1-.2.2-.2v-.1h-.1c-.1 0-.2 0-.4-.1h-.4c-.2 0-.3-.1-.4-.1-.2-.1-.4-.2-.5-.4-.1-.1-.1-.3-.1-.4 0-.3.1-.7.3-1 .2-.3.4-.6.7-.9.3-.3.6-.5.9-.6.3-.1.7-.2 1-.2.1 0 .2 0 .2.1.1.1.1.1.1.2s0 .1-.1.2-.1.1-.2.1c-.2 0-.5 0-.7.1-.3.1-.5.3-.7.5-.5.4-.7.9-.7 1.4 0 .1.1.2.2.3.1.1.4.1.7.1.3 0 .5.1.6.1h.1c.1 0 .1 0 .1.1l.3.3c.1.1.1.3 0 .5-.1.1-.1.3-.3.4-.4.6-1.1.9-1.9 1.1-.3.1-.5.1-.8.1-.8-.2-1.2-.3-1.7-.5zm4.9.2v-.2c0-.1.1-.1.1-.2.7-.4 1.2-.8 1.5-1.4.4-.7.6-1.6.6-2.8 0-.1 0-.2.1-.2.1-.1.1-.1.2-.1s.2 0 .2.1c.1.1.1.1.1.2 0 1.3-.2 2.3-.6 3.1-.4.7-1 1.3-1.8 1.7h-.1c-.2 0-.3-.1-.3-.2zm3.9-2.5c-.1 0-.2 0-.2-.1-.1-.1-.1-.1-.1-.2.1-.9.1-1.8.1-2.7 0-.6-.1-1.5-.2-2.7 0-.1 0-.2.1-.2.1-.1.1-.1.2-.1s.2 0 .2.1c.1.1.1.1.1.2.2 2.4.3 4.2.1 5.5 0 .1 0 .1-.1.2h-.2zm5.3-.7c.1 0 .2 0 .2.1.1.1.1.1.1.2s0 .2-.1.2-.1.1-.2.1c-.2 0-.4-.1-.6-.2-.2-.1-.4-.3-.6-.6l-.3.3c-.3.2-.6.4-1 .4h-.3c-.3 0-.6-.1-.9-.2-.1 0-.1-.1-.2-.2s0-.2 0-.2c0-.1.1-.1.2-.2h.2c.3.1.7.2 1 .1.3 0 .5-.1.7-.3.1-.1.2-.2.3-.4.1-.1.1-.3.1-.4-.1-.5-.2-.9-.3-1.5 0-.2-.1-.3-.1-.5v-.4c0-.1.1-.1.2-.1h.2c.1 0 .1.1.1.2v.2c0 .1.1.3.1.5l.3 1.5c.1.4.3.8.5 1 .1.1.2.2.3.2-.1.2-.1.2.1.2-.1 0-.1 0 0 0zm-1.4-5c0 .1 0 .2-.1.3-.1.1-.2.1-.3.1-.1 0-.2 0-.4-.1-.1-.1-.1-.2-.1-.3 0-.1.1-.2.2-.3.1-.1.2-.2.3-.2s.2 0 .3.1c0 .2.1.3.1.4z"/><path class="st4" d="M259.7 161.5c-.1 0-.2 0-.2-.1s-.1-.1-.1-.2 0-.2.1-.2c.1-.1.1-.1.2-.1h.8c.3 0 .5-.1.7-.1.4-.1.7-.3.9-.7.2-.3 0-.8-.4-1.3s-.8-.9-1.3-1.1c-.1 0-.1-.1-.1-.2v-.2c0-.1.1-.1.2-.1h.2c.2.1.5.3.7.5.3.2.6.5.8.8.6.7.8 1.4.5 2-.2.5-.7.8-1.3 1-.2.1-.5.1-.8.1h-.9zm-.2-4.8v-.2c0-.1.1-.1.2-.2 1.6-.6 2.9-1.2 3.8-2 .1-.1.1-.1.2-.1s.1 0 .2.1.1.1.1.2 0 .2-.1.2c-.6.5-1.2.9-1.9 1.3-.5.2-1.2.5-2 .8h-.1c-.3.1-.4.1-.4-.1zm.4-1.4s0-.1 0 0v-.2c0-.1.1-.1.1-.1.6-.2 1.4-.6 2.2-1.1h.2c.1 0 .1 0 .1.1v.2c0 .1 0 .1-.1.1-.8.5-1.6.9-2.2 1.1h-.1c-.1 0-.2 0-.2-.1zm3.8 8.8v-.2c0-.1.1-.1.1-.2.7-.4 1.2-.8 1.5-1.4.4-.7.6-1.6.6-2.8 0-.1 0-.2.1-.2.1-.1.1-.1.2-.1s.2 0 .2.1c.1.1.1.1.1.2 0 1.3-.2 2.3-.6 3.1-.4.7-1 1.3-1.8 1.7h-.1c-.2 0-.3-.1-.3-.2zm5-2.6h-.2c-.2 0-.3 0-.4-.1-.4-.1-.6-.4-.7-.8 0-.2-.1-.8-.1-1.8v-1.5c0-.5 0-1-.1-1.3 0-.1 0-.2.1-.2 0-.1.1-.1.2-.1s.2 0 .2.1c.1 0 .1.1.1.2.1.3.1.8.1 1.3v3.2c0 .2.1.3.3.4.1 0 .3.1.6.1.1 0 .1 0 .2.1s.1.1.1.2 0 .2-.1.2c-.1.1-.1.1-.2.1h-.1z"/><path class="st4" d="M268.9 161.5c-.1 0-.2 0-.2-.1-.1-.1-.1-.1-.1-.2s0-.2.1-.2c.1-.1.1-.1.2-.1.5 0 .8 0 1-.1.3-.1.5-.2.6-.4.1-.2.1-.4 0-.8s-.2-.7-.4-1.1v-.2c0-.1.1-.1.2-.2h.2l.2.2c.2.4.4.9.4 1.3.1.5.1.9-.1 1.2-.2.3-.5.6-1 .7-.2 0-.4.1-.6.1h-.5zm1.6 1.4c0 .1 0 .2-.1.3-.1.1-.2.1-.3.1-.1 0-.2 0-.4-.1-.1-.1-.1-.2-.1-.3 0-.1 0-.2.1-.3.1-.1.2-.2.3-.2.1 0 .2 0 .3.1.1.2.2.3.2.4zm4.9 1.1c-.6 0-1.1-.1-1.4-.5-.5-.4-.8-1-.8-1.7 0-.3 0-.6.1-1 .1-.3.2-.5.3-.8 0-.1.1-.1.2-.2h.2l.2.2v.2c-.1.2-.1.4-.2.6-.1.3-.1.5-.1.7 0 .6.1 1.1.5 1.4.3.2.7.3 1.2.3s.9-.1 1.2-.4c.3-.2.5-.6.6-1.1v-2c0-.6-.1-1.4-.2-2.5 0-.3-.1-.7-.1-1.1v-.4c0-.1 0-.2.1-.2.1-.1.1-.1.2-.1s.2 0 .2.1c.1.1.1.1.1.2v.4c0 .4.1.7.1 1.1.1 1.1.1 1.9.2 2.5v2.1c-.1.6-.3 1.1-.8 1.5-.4.3-.9.5-1.5.5h-.3zm4.7-2.5h-.2c-.2 0-.3 0-.4-.1-.4-.1-.6-.4-.7-.8 0-.2-.1-.8-.1-1.8v-1.5c0-.5 0-1-.1-1.3 0-.1 0-.2.1-.2 0-.1.1-.1.2-.1s.2 0 .2.1c.1 0 .1.1.1.2.1.3.1.8.1 1.3v3.2c0 .2.1.3.3.4.1 0 .3.1.6.1.1 0 .1 0 .2.1s.1.1.1.2 0 .2-.1.2c-.1.1-.1.1-.2.1h-.1z"/><path class="st4" d="M280 161.4c-.1-.1-.1-.1-.1-.2s0-.2.1-.2c.1-.1.1-.1.2-.1.9 0 1.7-.1 2.6-.3 1-.3 1.8-.7 2.4-1.2-.2-.1-.5-.1-.7-.2-.3-.1-.5-.1-.8-.2-.5-.1-.8-.2-1.1-.2h-.4c-.2.1-.4.1-.5.3-.1.1-.1.3-.2.6 0 .1-.1.1-.1.2-.1 0-.1.1-.2 0-.1 0-.1-.1-.2-.1s-.1-.1 0-.2c.1-.4.2-.7.3-.8.2-.2.5-.4.8-.5h.5c.3 0 .7.1 1.2.2.3.1.6.2 1 .3.1 0 .3.1.4.1.1 0 .1 0 .2.1h.3c.1 0 .2.1.2.2s0 .2-.1.3c-.6.7-1.6 1.2-2.7 1.6-1 .3-2 .4-3 .4l-.1-.1zm7.5 2.7v-.2c0-.1.1-.1.1-.2.7-.4 1.2-.8 1.5-1.4.4-.7.6-1.6.6-2.8 0-.1 0-.2.1-.2.1-.1.1-.1.2-.1s.2 0 .2.1c.1.1.1.1.1.2 0 1.3-.2 2.3-.6 3.1-.4.7-1 1.3-1.8 1.7h-.1c-.1 0-.2-.1-.3-.2zm3.6-2.8c-.1 0-.1-.1-.2-.1v-.2c0-.1.1-.1.1-.2h.2c.6.2 1.1.2 1.5.1.4-.1.7-.3.9-.6v-.3l-.3-.6c-.4-.5-.8-1-1.4-1.4-.1 0-.1-.1-.1-.2s0-.2.1-.2c0-.1.1-.1.2-.1h.2c.6.4 1.1.9 1.5 1.5.2.3.3.5.4.7.1.3.1.6 0 .8-.2.5-.6.9-1.3 1-.2 0-.4.1-.6.1l-1.2-.3z"/></g></g><g id="Layer_2"><g id="freepik--Character--inject-2"><circle class="st0" cx="426.3" cy="137" r="131.3"/><path class="st4" d="M369.2 243.5c-1.1-1.1-1.6-2.3-1.7-3.4 0-1.1.5-2.1 1.5-2.9.3-.3.7-.6 1.2-.8.4-.2.7-.3 1-.4.3-.1.7-.1 1 .1.3.2.6.4.7.7.2.3.2.6 0 .9-.1.3-.4.5-.7.6-.5.1-.9.4-1.3.8-.5.4-.8.9-.8 1.4 0 .5.4 1.1 1.1 1.8.6.6 1.4 1.1 2.2 1.5 2.2 1.1 4.1 1.6 5.7 1.5 1.5 0 2.8-.6 3.9-1.6.2-.2.5-.3.8-.3.3 0 .6.1.9.3.3.2.5.4.6.7.1.3.1.6 0 .8v.1c0 .1 0 .1-.1.1 0 .1 0 .1-.1.2s-.1.2-.1.3c-.1.2-.2.5-.3.6-.1.5-.2.9 0 1.2.1.2.4.4.7.7.3.2.6.3 1 .4.4.1.6.3.8.6.2.3.2.6.1.9-.1.3-.3.5-.6.7-.3.1-.7.1-1.1 0-1.7-.6-2.9-1.5-3.4-2.6-.2-.3-.3-.7-.3-1-.7.2-1.4.3-2.2.4-2 .1-4.4-.5-7.2-1.8-1.3-.8-2.4-1.6-3.3-2.5zm5.7-4.2c-.1-.2-.2-.4-.2-.6 0-.3.1-.5.3-.7.2-.2.5-.3.8-.2.7 0 1.5.2 2.5.5.7.2 1.5.6 2.4 1.1.3.2.5.4.5.7.1.3 0 .6-.1.8s-.4.4-.7.4c-.3.1-.6 0-.9-.2-.7-.4-1.3-.7-1.7-.8-.7-.2-1.4-.3-2-.4-.2 0-.3-.1-.5-.1-.1-.2-.3-.3-.4-.5z"/><path class="st4" d="M384.8 250.2c-.2-.3-.2-.6-.1-.9.1-.3.3-.5.7-.7.3-.1.7-.1 1 0 .6.2 1.1.4 1.4.5-.2-.8-.2-1.5 0-2.2.3-.8.8-1.4 1.6-1.8.8-.4 1.7-.6 2.6-.6 1 0 1.9.3 2.8.8.6.3 1.1.8 1.7 1.5.2.3.3.6.3.9 0 .3-.2.6-.5.8-.3.2-.6.3-1 .2-.4-.1-.7-.2-.9-.5-.4-.5-.8-.8-1.1-1-.4-.2-.8-.3-1.2-.3-.4 0-.7.1-1 .2-.4.2-.6.4-.7.8-.1.3-.1.6.1 1 .2.3.4.6.8.9.5.3 1.1.5 1.8.6.3.1.6.1 1 .1h1c.4 0 .7.2 1 .4.3.2.4.5.4.8 0 .3-.1.6-.3.8-.3.2-.6.3-.9.3-1.6 0-3.1-.2-4.7-.6-1.1-.2-2.8-.7-5-1.5-.3.1-.6-.1-.8-.5zm9.9 8.9c-.2-.3-.2-.6 0-.9.2-.3.4-.5.8-.6.1 0 .1 0 .3-.1h.4c.1 0 .3-.1.4-.1l.9-.3c.7-.3 1.4-.7 1.9-1.1 1.5-1.2 2.4-3 2.6-5.3 0-.3.2-.6.5-.8.3-.2.6-.3 1-.2.4 0 .7.2.9.5.2.3.3.5.3.9 0 .6 0 1.1.1 1.6 0 .2.1.3.1.4 0 .1.1.2.1.3.1.2.4.3.7.4.4.1.7.2.9.5.2.3.3.6.3.9 0 .3-.2.6-.5.8-.3.2-.7.2-1 .2-.7-.1-1.3-.4-1.9-.7-.5 1-1.3 1.9-2.2 2.6-.7.6-1.5 1.1-2.5 1.5-.3.1-.7.3-1.1.4-.1 0-.3.1-.5.1h-.2c-.1 0-.1 0-.2.1-.1 0-.2 0-.2.1-.3.1-.6.1-.8 0-.5-.5-.9-.8-1.1-1.2z"/><path class="st4" d="M408.7 255.7c0-.1-.1-.1-.1-.2-1 .4-2 .5-3.2.3-.4-.1-.7-.2-.9-.5-.2-.3-.3-.6-.3-.9.1-.3.2-.6.5-.8.3-.2.6-.2 1-.2.9.1 1.7-.1 2.3-.7.2-.2.4-.5.6-.8.1-.2.2-.5.3-.7.1-.3.3-.5.6-.7.3-.1.7-.2 1-.1.3.1.6.2.8.5.2.2.3.5.2.8v.2c0 .1-.1.2-.1.4l-.2.4c-.1.3-.2.6-.3.8-.1.5 0 .9.4 1 .8.2 1.4-.1 1.7-.9.1-.3.2-.6.3-1 0-.1 0-.3.1-.5v-.4c0-.3.2-.6.5-.8.3-.2.6-.3 1-.3s.7.2.9.4c.2.2.3.5.3.9-.1.7-.1 1.3-.1 1.8 0 .3.1.5.2.8.2.2.3.4.5.4.8.1 1.2-.5 1-1.6 0-.3-.1-.7-.3-1.2-.1-.3-.2-.7-.3-1-.1-.3-.1-.6.1-.9.2-.3.4-.5.8-.6.3-.1.7-.1 1 .1.3.2.5.4.7.7.5 1.2.7 2.2.8 3 .1 1.2-.1 2.1-.7 2.7-.3.3-.7.6-1.1.8-.6.2-1.3.3-2.1.3-1-.1-1.7-.4-2.3-1l-.2-.2c-.9.7-1.9.9-3 .8-1.1 0-1.9-.4-2.4-1.1zm22.9 1.4c-1.5-.4-2.5-1.1-3.1-2.1-.6-.9-.6-2-.2-3.3.1-.4.3-.9.6-1.3.2-.3.4-.6.7-.9.2-.3.5-.4.9-.4s.7 0 1 .2c.3.2.4.5.5.8 0 .3-.1.6-.3.9-.3.3-.6.8-.7 1.3-.2.6-.2 1.2 0 1.6.3.4.9.8 1.8 1 .8.2 1.7.3 2.6.2 2.4-.2 4.3-.7 5.6-1.5 1.3-.8 2.1-1.9 2.6-3.3.1-.3.3-.5.5-.7.3-.2.6-.2.9-.2.3 0 .6.1.8.3.2.2.3.5.4.7v.8c0 .3.1.5.1.7.1.5.3.8.6 1 .2.1.5.2.9.2.3 0 .7 0 1.1-.1.4-.1.7 0 1 .1.3.2.5.4.6.7.1.3 0 .6-.2.9-.2.3-.5.5-.9.5-1.8.3-3.2.2-4.2-.5-.3-.2-.6-.5-.8-.7-.5.5-1.1 1-1.7 1.4-1.7 1.1-4 1.7-7 2-1.6.2-2.9.1-4.1-.3zm2.8-6.5c-.2-.1-.4-.2-.5-.4-.1-.3-.2-.5-.1-.8.1-.3.3-.5.6-.6.6-.3 1.4-.6 2.3-.8.7-.2 1.6-.3 2.6-.2.3 0 .6.1.8.3.2.2.3.5.3.7 0 .3-.1.5-.4.7-.2.2-.5.3-.8.3-.8 0-1.4 0-1.9.2-.7.2-1.3.4-1.8.7-.2.1-.3.1-.5.1s-.4-.1-.6-.2z"/><path class="st4" d="M449.3 255.3c-.4.1-.7 0-1-.2-.3-.2-.5-.4-.6-.7-.1-.3 0-.6.2-.9.2-.3.5-.4.9-.5 1.4-.3 2.4-.5 2.8-.7.6-.2 1-.5 1.1-.9v-.4c0-.3-.1-.5-.3-.9-.3-.6-.8-1.3-1.3-2-.2-.3-.3-.5-.2-.9s.2-.6.5-.8c.3-.2.6-.3 1-.3s.6.2.9.4c.1.1.2.2.3.4.1.2.3.3.4.5.3.5.6.9.9 1.3.7 1.2.9 2.3.5 3.2-.4.9-1.2 1.7-2.3 2.2-.4.2-1 .4-1.6.5-.2.1-.6.1-1 .2-.4.4-.7.4-1.2.5zm1.3 3.7c-.2-.1-.4-.2-.6-.4-.2-.2-.3-.5-.2-.8.1-.3.3-.5.6-.7.6-.4 1.4-.8 2.4-1.2.7-.3 1.7-.5 2.8-.6.3 0 .7 0 .9.2.3.2.4.4.4.7 0 .3-.1.6-.3.8-.2.2-.5.4-.9.4-.9.1-1.5.2-2 .4-.7.3-1.4.6-1.9.9-.2.1-.3.2-.5.2-.2.1-.5.1-.7.1zm10.9-6.7c-.4.1-.8.1-1.2.1-.5 0-.9-.1-1.3-.3-.5-.2-.9-.6-1.3-1.2-.2-.4-.7-1.7-1.2-3.8-.1-.3-.1-.4-.2-.7-.1-.3-.1-.4-.2-.7-.2-.5-.3-1-.4-1.4-.3-1.1-.6-1.9-.9-2.5-.1-.3-.1-.6 0-.9s.4-.5.7-.7c.3-.1.6-.2 1 0 .3.1.6.3.7.6.3.6.6 1.5 1 2.6.1.4.3.9.5 1.5.3 1 .4 1.5.7 2.5.1.4.2.7.3 1 .2.7.4 1.1.5 1.3.1.2.3.3.5.3s.6-.1 1.2-.2c.4-.1.7-.1 1 0 .3.1.5.4.6.7.1.3.1.6-.1.9-.2.3-.5.5-.9.6-.5.2-.8.3-1 .3z"/><path class="st4" d="M470.3 254.5c-1.5.2-2.9-.1-4.3-.8-.5-.3-1-.6-1.5-1-.4-.3-.7-.6-.9-.9-.4.1-.6.2-1.1.3-.4.1-.7.1-1.1 0-.3-.1-.5-.4-.6-.7-.1-.3 0-.6.2-.9.2-.3.5-.5.8-.6.2-.1.3-.1.5-.1.1 0 .1 0 .2-.1-.3-1-.3-2.1-.2-3.1.2-1.2.6-2.1 1.4-2.8.4-.4.9-.7 1.4-.9.5-.2 1-.2 1.5 0 .7.2 1.4.6 1.9 1.4.5.7.8 1.4.8 2.1 0 .6-.1 1.3-.4 1.9-.4.8-1.1 1.5-2 2.1-.1 0-.2.1-.4.2-.1 0-.1.1-.2.1s-.1.1-.2.1c.2.3.6.6 1 1 .5.4 1 .6 1.4.7-.7-1.2-.7-2.4.1-3.7.6-1 1.5-1.7 2.6-2.3.4-.2.7-.2 1.1-.1.4.1.6.3.8.6.2.3.2.6 0 .9-.1.3-.5.6-1 .9-.8.4-1.3 1-1.4 1.7-.2.7.1 1.4.8 2 .2.1.3.3.4.6.1.2 0 .5-.1.7-.2.4-.5.6-.9.8-.2-.2-.4-.1-.6-.1zm-4.7-9.3c-.3.3-.5.9-.6 1.5-.1.6 0 1.2.1 1.9 1-.6 1.5-1.2 1.5-1.9 0-.3-.1-.7-.4-1.1l-.3-.3-.1-.1s-.1 0-.1-.1l-.1.1z"/><path class="st4" d="M472.1 248.6c-.4.1-.7.2-1.1.1-.3-.1-.6-.3-.7-.6-.1-.3-.1-.6.1-.9.2-.3.4-.5.8-.7 1-.4 1.7-.7 2.1-1 .6-.4.9-.7 1-1.1 0-.1 0-.2-.1-.4s-.2-.5-.4-.8c-.4-.6-1-1.1-1.7-1.7-.3-.2-.4-.5-.4-.8 0-.3.1-.6.4-.9.3-.3.6-.4.9-.5.4 0 .7 0 .9.2.1.1.3.2.4.3.2.1.3.3.5.4.4.4.8.8 1.1 1.2.9 1.1 1.3 2.1 1.1 3.1-.2 1-.8 1.9-1.9 2.6-.4.3-.9.6-1.5.8-.2.1-.5.2-.8.3-.3.2-.4.3-.7.4zm0-11.4c.1.3.1.7 0 1.1-.2.4-.4.7-.8.8-.4.2-.9.2-1.4.1-.4-.1-.7-.4-.8-.7-.1-.3-.1-.7.1-1.1.2-.4.5-.7.8-.9.4-.2.8-.2 1.2 0 .5.1.8.4.9.7z"/><path class="st4" d="M557.6 137s0-.7-.1-2.1c0-.7 0-1.6-.1-2.6s0-2.3-.2-3.6c-.2-1.4-.2-2.9-.4-4.6s-.4-3.5-.7-5.5c-.7-4.6-1.5-9.1-2.7-13.6-1.4-5.6-3.2-11.1-5.4-16.5-2.5-6.4-5.6-12.6-9.1-18.5-8.6-14.4-20-27.1-33.3-37.3-16.2-12.4-35.2-20.8-55.2-24.5-17-3.1-34.5-2.9-51.4.6-12 2.5-23.7 6.8-34.5 12.6-5.6 3-11 6.4-16.1 10.2-10.6 7.8-20 17.2-27.7 27.8-4 5.4-7.6 11.2-10.7 17.2-.8 1.5-1.6 3-2.3 4.6l-2.1 4.7c-1.3 3.2-2.6 6.4-3.6 9.7-2.2 6.6-3.9 13.4-5 20.3-1.1 7-1.7 14-1.7 21.1 0 7.1.6 14.1 1.7 21.1 1.1 6.9 2.8 13.7 5 20.3l.8 2.4.4 1.2.5 1.2c.7 1.6 1.3 3.2 1.9 4.8l2.1 4.7c.7 1.6 1.5 3.1 2.3 4.6 3.1 6 6.7 11.8 10.7 17.2 3.9 5.3 8.3 10.4 12.9 15.1 4.6 4.6 9.6 8.8 14.8 12.8 5.2 3.8 10.6 7.2 16.2 10.2 5.5 2.9 11.2 5.5 17 7.6 5.7 2 11.6 3.7 17.5 5 16.9 3.5 34.4 3.7 51.4.6 20.1-3.8 39-12.1 55.2-24.5 13.4-10.2 24.7-22.9 33.3-37.3 3.5-5.9 6.6-12.1 9.1-18.5 2.2-5.4 4-10.9 5.4-16.5 1.2-5.1 2.1-9.6 2.7-13.6.2-2 .5-3.8.7-5.5s.3-3.2.4-4.6.2-2.6.2-3.6.1-1.9.1-2.6V137c.1 0 .1.7.1 2.1 0 .7 0 1.6-.1 2.6s0 2.3-.2 3.6-.2 2.9-.3 4.6-.4 3.5-.7 5.5c-.6 4.6-1.5 9.1-2.6 13.6-1.4 5.6-3.2 11.1-5.3 16.5-2.5 6.4-5.6 12.7-9.2 18.6-8.6 14.5-20 27.2-33.3 37.4-16.3 12.4-35.2 20.8-55.4 24.6-17.1 3.2-34.6 3-51.6-.5-12.1-2.5-23.8-6.8-34.7-12.6-5.6-3-11.1-6.5-16.2-10.3-5.2-3.9-10.2-8.2-14.9-12.8-4.7-4.7-9-9.8-13-15.2-4-5.5-7.6-11.2-10.7-17.3-.8-1.5-1.6-3-2.3-4.6l-2.1-4.7c-.6-1.6-1.3-3.2-1.9-4.8l-.5-1.2-.4-1.2-.8-2.5c-2.2-6.6-3.9-13.5-5-20.4-2.3-14-2.3-28.3 0-42.4 1.1-6.9 2.8-13.7 5-20.4 1-3.3 2.4-6.5 3.6-9.7l2.1-4.7c.7-1.6 1.5-3.1 2.3-4.6 3.1-6 6.7-11.8 10.7-17.3 4-5.4 8.3-10.4 13-15.2 4.7-4.6 9.6-8.8 14.9-12.7 5.2-3.8 10.6-7.2 16.2-10.3C375.2 14.8 386.9 10.6 399 8c17-3.5 34.5-3.7 51.5-.6 20.1 3.8 39.1 12.2 55.4 24.6 13.4 10.2 24.7 22.9 33.3 37.4 3.5 5.9 6.6 12.1 9.1 18.5 2.1 5.4 3.9 10.9 5.3 16.5 1.2 5.1 2.1 9.6 2.6 13.6.2 2 .5 3.8.7 5.5s.2 3.2.3 4.6c.1 1.4.2 2.6.2 3.6s0 1.9.1 2.6c.1 1.9.1 2.7.1 2.7z"/><defs><path id="SVGID_1_" d="M373.7 182.8c-26.7-28.3-25.4-73 2.9-99.7s73-25.4 99.7 2.9c26.2 27.8 25.5 71.3-1.5 98.3l35.5 34.6c46.7-46.4 47-121.8.6-168.5s-121.8-47-168.5-.6c-46.5 46.2-47 121.3-1.1 168.1l32.4-35.1z"/></defs><clipPath id="SVGID_2_"><use xlink:href="#SVGID_1_" overflow="visible"/></clipPath><g clip-path="url(#SVGID_2_)"><path class="st5" d="M373.7 182.8c-26.7-28.3-25.4-73 2.9-99.7s73-25.4 99.7 2.9c26.2 27.8 25.5 71.3-1.5 98.3l35.5 34.6c46.7-46.4 47-121.8.6-168.5s-121.8-47-168.5-.6c-46.5 46.2-47 121.3-1.1 168.1l32.4-35.1z"/><path d="M488.7 133.8h64.1s-6.5 52.2-7.8 53.1-39.2 44.7-39.2 44.7l-43.1-51.2 26-46.6z" opacity=".8"/><path d="M471.4 90.7l45.3-44.5 32 47.6 4.2 40h-63.5l-11.5-25.4z" opacity=".7"/><path d="M429.1 74.5c-.8-1.3 0-64.2 0-64.2l39.1 4.9 48.1 31.1-46.2 45.4-29.1-4.2-11.9-13z" opacity=".5"/><path d="M336 48.6c1 .3 43.1 45.4 43.1 45.4l37.6-14.9 12.1-15 .3-53.7-44.8 4.9L336 48.6z"/><path d="M302.9 133.8c1 .6 71.3 0 71.3 0L373 87.6l-33.9-36L316 79.1l-13.1 54.7z" opacity=".1"/></g><circle class="st1" cx="427.6" cy="137" r="27.4"/><path class="st7" d="M419.6 138.8c1.2 4.1 5.5 6.5 9.6 5.3l95.2-27-98.2 11.8c-4.3.5-7.3 4.4-6.8 8.7 0 .4.1.8.2 1.2z"/><path class="st5" d="M572.5 410l5.2 9.2 14.8-15.8-7.2-8.2z"/><path class="st4" d="M591.3 401.7c-.6.9-1.2 1.7-2 2.4-1.4 1.4-3.2 3.4-5.3 5.5l-5.4 5.3c-.7.8-1.5 1.5-2.4 2.1.6-.9 1.3-1.7 2-2.4 1.4-1.4 3.2-3.4 5.3-5.5l5.4-5.3c.8-.8 1.5-1.5 2.4-2.1z"/><path class="st4" d="M578.2 402c1.3.8 2.4 1.9 3.4 3.1 1.1 1 2.1 2.2 2.9 3.6-1.3-.9-2.4-1.9-3.4-3.1-1.1-1.1-2.1-2.3-2.9-3.6z"/><g class="st13"><path class="st14" d="M577.7 419.2l14.8-15.8-1.4-1.6-15 15.3 1.4 1.9"/></g><path class="st5" d="M486.3 424.4v-3.1l21.8.3V432l-1.3.1c-6 .4-30.5 1.4-34.5-.3-4.5-1.9 14-7.4 14-7.4z"/><g class="st13"><path class="st14" d="M500.2 431.6c.4-2.5 1.4-4.8 2.8-6.3 1.5-1.5 3.3-2.3 5.1-2.1v8.2l-7.9.2z"/></g><g class="st13"><path class="st14" d="M477.2 427.5s-6.5 2.5-5.7 3.9 25.6 1.7 36.6.5v-.7h-29c0 .1-.6-3.6-1.9-3.7z"/></g><path class="st4" d="M508.4 431.3h-1.5l-3.9.2c-3.3.1-7.9.2-13 .2-5.1-.1-9.7-.2-13-.4l-4-.3-1.1-.1h-.4 1.4l3.9.1c3.3.1 7.9.3 13 .3 5.1.1 9.7 0 13 0l3.9-.1 1.7.1z"/><path class="st4" d="M479.1 431.8c-.2-.9-.4-1.8-.7-2.6-.4-.8-.8-1.4-1.3-2.1.7.3 1.2 1 1.6 1.9.4.8.5 1.8.4 2.8zm6.4-4.3s-.4-.5-.7-1.1c-.3-.7-.5-1.3-.4-1.3.1 0 .4.4.7 1.1s.5 1.2.4 1.3zm1.8-1.3s-.4-.2-.8-.7c-.4-.5-.6-.9-.6-1 .3.1.5.4.8.7.4.5.7.9.6 1zm0-2.4c-.4.2-.8.2-1.1.2-.4.1-.8 0-1.1-.2.4-.2.7-.3 1.1-.2.3 0 .7 0 1.1.2zm.4-1.9c-.4.3-.8.5-1.3.5-.4.1-.9 0-1.3-.2.4-.1.9-.1 1.3-.1.4-.2.8-.3 1.3-.2z"/><path class="st4" d="M484.9 424.9c-.5.1-.9.1-1.4 0-.5-.1-1-.2-1.5-.5-.3-.1-.6-.3-.9-.5-.2-.1-.3-.3-.3-.6s0-.6.2-.7c1.1-.7 2.4-.3 3.2 1 .2.4.4.8.4 1.3v.5c-.1-.6-.3-1.1-.6-1.6s-.7-.9-1.2-1.1c-.6-.3-1.1-.2-1.7.1-.2.2-.1.6.1.8.3.2.5.4.8.5.5.2.9.4 1.4.5.9.2 1.5.2 1.5.3z"/><path class="st4" d="M484.5 425c-.2-.4-.2-.9-.1-1.3 0-.5.2-1 .4-1.4.3-.6.7-1 1.2-1 .3.1.5.4.4.9 0 .3-.1.6-.2.9-.2.4-.4.8-.7 1.1-.2.3-.5.6-.8.8 0 0 .3-.3.7-.9.2-.3.4-.7.6-1.1.2-.4.3-1.1 0-1.2s-.7.4-.9.8c-.2.4-.3.8-.4 1.2-.2.3-.2.7-.2 1.2zm23.5-1.8h-1.6c-1.3.2-2.5.8-3.5 1.9-1 1.1-1.8 2.5-2.2 4.2-.3 1.2-.4 2.1-.4 2.1v-.6c0-.5.1-1.1.3-1.6.4-1.7 1.2-3.3 2.2-4.4 1.1-1.1 2.4-1.7 3.7-1.9.4-.1.8-.1 1.2 0l.3.3zm-10.5 5.5c-2.1.5-4.3.5-6.4 0 0-.1 1.4 0 3.2 0 1.7 0 3.2-.1 3.2 0z"/><path class="st4" d="M501.8 428.8s-.1.4-.3.9c-.2.4-.2.8-.3.8-.1 0-.1-.5 0-1s.5-.8.6-.7zm1.6-2.7s-.1.4-.3.7c-.2.3-.4.5-.5.4-.1-.1.1-.4.3-.7s.4-.5.5-.4zM395.6 224.6c-.9 0-1.6-.4-2.2-1s-.8-1.4-.8-2.3c.4-9.6-1.1-18.4-4.5-26.3-.4-.8-.4-1.6 0-2.4.3-.8.9-1.4 1.7-1.7.8-.3 1.6-.4 2.4 0s1.4.9 1.7 1.7l.4.8.4.8c1 2.5 1.9 4.1 2.7 4.8.2.2.4.4.7.5.3.2.6.4.9.5.8.3 1.6.3 2.4-.1.8-.4 1.4-1.2 1.7-2.4.2-.7.3-1.4.3-2.3 0-.6 0-1.3-.1-2.2-.1-.9.1-1.6.7-2.3.5-.7 1.2-1 2.1-1.1.9-.1 1.6.1 2.3.7.7.6 1.1 1.3 1.1 2.1.1 1.2.2 2.2.1 3.2 0 1.3-.2 2.5-.5 3.6-.8 3-2.5 5.1-4.9 6.3-1.9 1-4 1.2-6.2.7l.1.6c.8 4.8 1.1 9.7.8 14.8 0 .8-.4 1.5-1 2.1s-1.3.9-2.2.9h-.1zm39.3-24.5c3 4.4 4.5 8.8 4.5 13.1 0 2.3-.6 4.4-1.7 6.2-1.6 2.6-3.9 3.9-6.9 3.9-1.9 0-3.6-.5-5-1.6-1.3 1-2.9 1.5-4.6 1.5-2.3 0-4.3-.8-5.9-2.4-.8-.8-1.5-1.8-2-2.9-.7-1.5-1-3.2-1-5.1 0-4.9 2.5-10.5 7.5-16.8.4-.5.9-.8 1.4-1l-1.2-.9c-.7-.5-1.1-1.2-1.3-2-.2-.8 0-1.6.5-2.3.5-.7 1.2-1.1 2-1.3.8-.1 1.6 0 2.3.6 4.9 3.2 8.6 6.9 11.4 11zm-2.6 15.9c.5-.8.8-1.7.8-2.8 0-3-1.1-6.2-3.4-9.6-1.2-1.7-2.6-3.4-4.3-5.1-.1.5-.3.9-.6 1.4-4.1 5.2-6.1 9.5-6.1 12.9 0 1.6.3 2.7.9 3.4.2.3.5.5.8.6.3.1.5.1.8.1.3 0 .5-.1.7-.2.3-.2.5-.4.7-.8-.1-.8-.1-1.7 0-2.6.1-.9.5-1.6 1.2-2.1s1.5-.8 2.3-.7c.9.1 1.6.5 2.1 1.2s.8 1.5.7 2.3c-.1 1 0 1.8.5 2.4.3.4.8.5 1.4.5.6.1 1.1-.2 1.5-.9zm14.6.2c-1.4-1-2.4-2.4-2.9-4.1-.6-1.7-.6-3.3-.1-4.9.5-1.6 1.5-2.9 2.9-4 1.4-1 3-1.6 4.7-1.6h.1c1.7.1 3.2.6 4.7 1.7 1.4 1.1 2.4 2.5 2.9 4.1.5 1.6.4 3.2-.1 4.7-.6 1.5-1.6 2.8-3 3.8-1.5 1-3.1 1.6-4.8 1.6-1.7.1-3.2-.3-4.4-1.3zm2.8-8.8c-.6.4-.9.9-1.1 1.4-.2.5-.1 1.1.1 1.8.3.7.6 1.2 1.1 1.5.4.3 1 .5 1.6.4.6 0 1.2-.3 1.8-.6.5-.4.9-.8 1.1-1.4.2-.5.2-1.1.1-1.6-.2-.6-.5-1.1-1.1-1.5-.6-.5-1.2-.7-1.8-.7-.6 0-1.2.3-1.8.7zm56 217.5c0 .1-.3.1-.6.2s-.6.4-.6.3c-.1-.1.1-.5.5-.7.4-.1.7.1.7.2zm1.6-.6c0 .1-.1.2-.3.3-.2.1-.3.1-.4 0 0-.1.1-.2.3-.3.2-.1.4-.1.4 0z"/><path class="st15" d="M482.1 202l-26.4-26.7 3.4-34.8.6-.7c.3-.4.7-.8 1.1-1.3.5-.5 1.1-1 1.8-1.3.8-.4 1.6-.8 2.5-1 .8-.1 1.1-1.2.4-1.5s-2.9-.1-5.2 1.4-.9-2.5-.4-4 1.8-6 1.4-6.5c-.5-.7-1.4-.3-1.8 1.1-.5 1.5-2.1 5.8-2.8 5.5s1.8-7.6 1.8-7.6.8-1.5-.1-1.8c-1.6-.6-3.7 7.4-3.9 8.1-.1.5-1 .3-.8-.3s2.7-7.3 1.1-7.9c-1.2-.5-1.8 6.6-3.1 7.7s1-5.3-.2-5.7c-.4-.2-.8-.2-1.6 3.7-.6 2.7-1.1 5.4-1.5 8.1l-8.3 41.6 26 34.4 16-10.5zm13.5-76.5c-1.1.6 2.3 6.5.8 5.7s-3.3-7.7-4.4-7c-1.5.9 2.2 7.1 2.5 7.6s-.5.9-.7.4c-.3-.7-3.8-8.2-5.3-7.3-.8.5.3 1.8.3 1.8s3.8 6.8 3.1 7.2-3.1-3.5-3.8-4.9c-.7-1.4-1.6-1.6-2-.8-.2.5 1.8 4.8 2.5 6.1s2.8 5 .3 4-4.8-.9-5.4-.4-.1 1.4.7 1.4c.9.1 1.8.2 2.7.5.7.2 1.4.6 2 1 .5.4 1 .7 1.3 1l.7.6 17.8 30.6-.3 28.9 4 13.4 9-39.9-20.7-38.8c-.8-2.6-1.8-5.2-2.9-7.7-1.5-3.8-1.8-3.7-2.2-3.4z"/><path class="st7" d="M540.4 339.1l-13-67.1-18.4 1.6v-.2l-33.6 3s-1.6 77.1-2.1 77.1l9.2 70.3 26.6-1.2-10.3-69.9 4.8-49.1.8-1 14.3 50.4 52.3 59.2 17-16.5-47.6-56.6z"/><path class="st4" d="M506 273.9c.3 2.1.4 4.3.3 6.4.1 2.1 0 4.3-.3 6.4-.4-4.3-.4-8.6 0-12.8zm-19.8 8.3c.3-.1.5-.1.8-.1l2.5-.3c2.1-.3 5.2-.6 8.9-1h.3V292l-.1.1-.2.1-6.4 3.2-.1.1-.1-.1-5.6-3.3-.1-.1v-.1c0-2.9.1-5.2.1-7l.1-1.9c-.1-.4-.1-.6-.1-.8v2.6c0 1.7.1 4 .1 6.9l-.1-.2 5.6 3.2h-.2l6.4-3.2.2-.1-.2.2v-10.7l.3.2c-3.6.3-6.6.6-8.8.7l-2.5.2c-.2.2-.5.2-.8.2zm25.9-2.5c.3-.1.5-.1.8-.1l2.5-.3c2.1-.3 5.2-.6 8.9-1h.3v11.1l-.2.1-.2.1-6.4 3.2h-.1l-.1-.1-5.6-3.3-.1-.1v-.1c0-2.9.1-5.2.1-7v-2.5 2.6c0 1.7.1 4 .1 6.9l-.1-.2 5.6 3.2h-.1l6.4-3.2.2-.1-.2.2v-10.6l.3.2c-3.6.3-6.6.6-8.8.7l-2.5.2c-.2.1-.5.1-.8.1z"/><path class="st4" d="M498.7 283.7c-4.1.5-8.3.7-12.4.6 2-.4 4.1-.5 6.2-.5 2-.2 4.1-.2 6.2-.1zm25.6-2.3c-4 .6-8.1 1-12.2.9 2-.4 4-.7 6.1-.7 2-.3 4.1-.3 6.1-.2zM496.6 352c-4 .8-8 1.3-12.1 1.5 4-.8 8-1.3 12.1-1.5zm42.1-11.5c0 .1-2.9 1.2-6.2 3s-5.7 3.8-5.8 3.7c.4-.5.9-1 1.5-1.4 1.3-1 2.7-1.9 4.1-2.7 1.4-.8 2.9-1.5 4.5-2 .6-.3 1.2-.5 1.9-.6zm-61.6-232.3c-.1-.1-.1-.2-.2-.4l-.5-1.1c-.2-.5-.5-1.1-.9-1.8l-1.3-2.4c-.5-.9-1.1-1.8-1.8-2.9s-1.5-2.1-2.3-3.3c-2-2.6-4.2-5-6.6-7.3-6.3-5.8-13.8-10.2-21.9-12.8-4.8-1.5-9.8-2.3-14.9-2.4-10.9-.2-21.6 2.6-30.9 8.2-4.3 2.6-8.3 5.8-11.7 9.5-5.8 6.3-10.1 13.8-12.7 22-1 3.1-1.7 6.3-2.1 9.6-.2 1.4-.3 2.8-.4 4-.1 1.2-.1 2.4-.1 3.4s0 1.9.1 2.7.1 1.4.1 2 .1.9.1 1.2v.4c0-.1-.1-.3-.1-.4 0-.3-.1-.7-.1-1.2s-.1-1.2-.2-2-.1-1.7-.1-2.7 0-2.2.1-3.4c.1-1.3.2-2.6.4-4 .4-3.3 1.1-6.5 2-9.7 2.5-8.3 6.9-15.8 12.7-22.2 3.5-3.7 7.4-7 11.8-9.6 9.4-5.7 20.2-8.6 31.2-8.3 5.1.1 10.1.9 15 2.5 8.2 2.6 15.8 7.1 22 13 2.4 2.3 4.6 4.7 6.6 7.4.9 1.2 1.6 2.3 2.3 3.3s1.3 2 1.8 2.9l1.3 2.4c.3.7.6 1.3.8 1.8s.4.9.5 1.1c-.1.3 0 .4 0 .5z"/><path class="st4" d="M465.8 105.5c-.2-.2-.3-.4-.5-.6-.3-.4-.7-1-1.3-1.8-1.6-2.1-3.4-4.1-5.3-6-2.8-2.7-6-5.1-9.4-7.1-8.4-5-18-7.2-27.7-6.6-3.9.3-7.8 1-11.6 2.2-2.5.8-5 1.8-7.4 3-.9.4-1.5.8-1.9 1-.2.1-.5.2-.7.3.2-.2.4-.3.6-.4.4-.3 1-.7 1.9-1.1 2.4-1.3 4.8-2.3 7.4-3.1 17.2-5.7 36.2-1.2 49.1 11.6 1.9 1.9 3.6 3.9 5.2 6.1.6.8.9 1.4 1.2 1.8.2.2.3.4.4.7z"/><path class="st15" d="M479.3 155.4s-.2 28.8.8 32.6c1.6 5.9 7.9 4.6 7.9 4.6l.5 10 17.7-.9-.1-41.3-26.8-5z"/><path class="st4" d="M491.7 152c3.7 4.4 19.4-.7 20.9 16.7 1.6 17.4-6.3 24-6.3 24h-3.9c-3.5-.1-5.3-.4-8.5-4-3-3.3-4.4-6.1-6.4-9.6 0 0 3.5-.6 3.1-3.4-.6-3.9-3.6-4-5.8-2.3l-2.6-6.9s-5.7-4.5-6.9-7c-4-8.3 10.3-14.6 16.4-7.5z"/><path class="st7" d="M509.8 183.1c-1.7-.4-3.3-1.2-4.6-2.4-1.9-1.8-3.4-3.9-4.7-6.2-1.5-2.5-3.1-5.4-5.9-7.2-2.8-1.8-6.1-2.3-8.9-2.8-2.6-.3-5-1.3-7.2-2.7-1.4-1.1-2.4-2.6-2.9-4.3-.1-.5-.2-.9-.1-1.4.1-.3.1-.5.1-.5 0 .6 0 1.3.2 1.9.5 1.7 1.5 3.1 2.9 4.2 2.1 1.4 4.6 2.3 7.1 2.7 1.4.3 2.9.5 4.5.9s3.1 1 4.5 1.9c2.9 1.9 4.5 4.8 6 7.3 1.2 2.3 2.8 4.3 4.6 6.1 1.2 1.2 2.7 2 4.4 2.5.5 0 1 .1 1.5.1h.5c-.7.1-1.4 0-2-.1z"/><g><defs><path id="SVGID_3_" d="M521.4 222.8l5.9 49.2-52.1 4.5c1-8.2-1.6-51.6-1.6-51.6l-15.1-19.7 15-13.5c-.3.8 14.1 9.1 14.1 9.1l18.5.2c1 .1 2.1-9.1 3.1-8.9l12.1-16.7s7.8 11.5 5.2 25.6c-1.8 9.8-1.4 12.2-5.1 21.8"/></defs><use xlink:href="#SVGID_3_" overflow="visible" fill="#ff4c00"/><clipPath id="SVGID_4_"><use xlink:href="#SVGID_3_" overflow="visible"/></clipPath><g clip-path="url(#SVGID_4_)"><path class="st4" d="M499.3 224.9c21.4 0 38.7-2.9 38.7-2.7s-17.3 3.3-38.7 3.3c-21.3 0-38.6 1.9-38.6 1.7s17.2-2.3 38.6-2.3zm0 7.7c21.4 0 38.7-2.9 38.7-2.7s-17.3 3.3-38.7 3.3c-21.3 0-38.6 1.9-38.6 1.7s17.2-2.3 38.6-2.3zm0 7.7c21.4 0 38.7-2.9 38.7-2.7s-17.3 3.3-38.7 3.3c-21.3 0-38.6 1.9-38.6 1.7s17.2-2.3 38.6-2.3zm-1.3-38.4c21.4 0 38.6-2.9 38.6-2.7s-17.3 3.3-38.6 3.3-38.7 1.9-38.7 1.7 17.4-2.3 38.7-2.3zm-.8-6.5c21.4 0 38.6-2.9 38.6-2.7s-17.3 3.3-38.6 3.3-38.6 1.9-38.6 1.7 17.3-2.3 38.6-2.3zm-1.2-6.9c21.3 0 38.7-2.9 38.7-2.7s-17.3 3.3-38.7 3.3c-21.3 0-38.6 1.9-38.6 1.7s17.3-2.3 38.6-2.3zm2 21.1c21.4 0 38.6-2.9 38.6-2.7s-17.3 3.3-38.6 3.3-38.7 1.9-38.7 1.7 17.4-2.3 38.7-2.3zm0 7.7c21.4 0 38.6-2.9 38.6-2.7s-17.3 3.3-38.6 3.3-38.7 1.9-38.7 1.7 17.4-2.3 38.7-2.3zm1.3 30.7c21.4 0 38.7-2.9 38.7-2.7s-17.3 3.3-38.7 3.3c-21.3 0-38.6 1.9-38.6 1.7s17.2-2.3 38.6-2.3zm0 7.7c21.4 0 38.7-2.9 38.7-2.7s-17.3 3.3-38.7 3.3c-21.3 0-38.6 1.9-38.6 1.7-.1-.2 17.2-2.3 38.6-2.3zm0 7.7c21.4 0 38.7-2.9 38.7-2.7 0 .1-17.3 3.3-38.7 3.3-21.3 0-38.6 1.9-38.6 1.7-.1-.1 17.2-2.3 38.6-2.3z"/></g></g><path class="st4" d="M485.9 203.2c.3.3.6.6.8.9.6.9 1.1 1.8 1.6 2.8.6 1.5.9 3.1 1 4.7.1 2-.3 4-1.2 5.8-.9 1.8-2.3 3.3-4 4.3-1.4.8-3 1.2-4.7 1.3-1.1 0-2.2-.2-3.2-.6-.3-.1-.5-.3-.8-.4-.2-.1-.3-.2-.3-.2 1.3.6 2.8.9 4.2.8 1.6-.1 3.1-.5 4.4-1.3 1.6-1 2.9-2.4 3.8-4.2.9-1.7 1.3-3.6 1.2-5.5 0-1.6-.3-3.1-.9-4.6-.5-1.2-1.2-2.5-1.9-3.8zm32.1 19.5c-.1 0 .4-1 .8-2.6 1.1-4.2.8-8.7-1-12.7-.7-1.5-1.3-2.4-1.2-2.4s.2.2.5.6c.4.5.7 1.1 1 1.7 1 2 1.6 4.1 1.8 6.4.2 2.2-.1 4.5-.8 6.6-.2.6-.5 1.3-.8 1.9-.2.3-.3.5-.3.5z"/></g></g></svg>