<svg version="1.1" id="Layer_1" xmlns="http://www.w3.org/2000/svg" x="0" y="0" viewBox="0 0 500 500" xml:space="preserve"><style>.st2{fill:#06826a}.st3{opacity:.3;enable-background:new}.st4{fill:#fff}.st5{fill:#ff4c00}.st6{fill:#37474f}.st7{fill:#263238}.st8{fill:#455a64}.st10{opacity:.2;enable-background:new}</style><g id="freepik--Floor--inject-77"><path id="freepik--floor--inject-77" d="M107 416.2c80.7 48.8 211.5 48.8 292.2 0s80.7-127.8 0-176.6-211.5-48.8-292.2 0-80.7 127.8 0 176.6z" fill="#f0f0f0"/></g><g id="freepik--Shadow--inject-77"><path id="freepik--floor--inject-77_1_" d="M406.8 361c7.4 4.5 19.3 4.5 26.7 0s7.4-11.7 0-16.1-19.3-4.5-26.7 0-7.4 11.6 0 16.1z" fill="#e0e0e0"/></g><g id="freepik--Plants--inject-77"><g id="freepik--plants--inject-77"><path class="st2" d="M73.2 302.2s-1.7-15-9.2-26.6-17.6-18.9-27.1-19.6-17.3 8-7 14.1 28.4 12.2 36.7 34.8l6.6-2.7z"/><path class="st3" d="M73.2 302.2s-1.7-15-9.2-26.6-17.6-18.9-27.1-19.6-17.3 8-7 14.1 28.4 12.2 36.7 34.8l6.6-2.7z"/><path class="st4" d="M70.4 298.3c.1 0 .1 0 0 0 .4-.1.5-.4.4-.6-10.1-24.8-29.3-35.2-38-37.2-.3-.1-.5.1-.6.4-.1.3.1.5.4.6 8.6 2 27.4 12.1 37.3 36.6.1.1.3.3.5.2z"/><path class="st5" d="M19.4 298.6c.9 2 3 3 5 3.8s4.1 1.6 5.2 3.5c2.1 3.7-1.4 9 .9 12.6 1.1 1.5 2.7 2.4 4.5 2.6 1.5.2 3 .3 4.5.4.7 0 1.4-.1 2.1-.2 2.1-.5 4.2-.2 6.2.6 3 1.7 3.9 5.4 5.7 8.3 2.3 3.4 5.9 5.7 10 6.3 1.3.2 3.8.4 5.2-.3.1 0 .2-.1.3-.2.2-.2.4-.5.5-.6 0 0 0-.1.1-.1.5-1.9-.3-3.9-.4-5.9v-.4c.1-2.3.2-4.6.2-6.9.1-4.2.2-8.5.1-12.8 0-2.8.3-5.8-.9-8.4-1.3-2.9-4.5-2.9-5.7-5.7-.5-1.1-.8-2.3-1.2-3.5-1.5-3.4-4.7-5.7-8.4-5.9-5.6-.3-10.7 4.3-16.3 3.9-1.4-.2-2.9-.5-4.3-.8-4.6-.9-9.8.5-12.4 4.3-1.2 1.5-1.5 3.6-.9 5.4z"/><path class="st4" d="M70 326.4c.3-.1.4-.3.3-.6-7.8-29.2-38.5-33.4-45.7-32.8-.3 0-.5.2-.4.5 0 .3.2.5.5.4 7-.5 37.1 3.6 44.7 32.1.1.3.4.5.6.4z"/><path class="st4" d="M35.8 311.6c.1 0 .2-.1.3-.1 5.8-5 13.4-7.1 20.9-5.9.3.1.5-.1.6-.3.1-.3-.1-.5-.3-.6h-.1c-7.8-1.3-15.8 1-21.7 6.2-.2.2-.2.5 0 .7 0 0 .2.1.3 0z"/></g></g><g id="freepik--Server--inject-77"><g id="freepik--server--inject-77_1_"><g id="freepik--server--inject-77"><path class="st6" d="M315.6 52.4l55.3 31.9c1.1.7 1.8 1.9 1.9 3.2v151.9c-.1 1.3-.8 2.5-1.9 3.2l-55.3 31.9c-1.2.6-2.5.6-3.7 0l-55.3-31.9c-1.1-.7-1.8-1.9-1.9-3.2V87.6c.1-1.3.8-2.5 1.9-3.2l55.3-31.9c1.2-.6 2.5-.6 3.7-.1z"/><path class="st7" d="M254.8 87.6v151.9c.1 1.3.8 2.5 1.8 3.2l55.3 31.9c.6.3 1.2.5 1.9.4V118.8c-.6 0-1.3-.1-1.9-.4l-55.3-31.9-.5-.4-.7-.6c-.4.6-.6 1.3-.6 2.1z"/><path class="st8" d="M363.9 102.5l-41.4 23.9c-1.1.7-1.8 1.9-1.9 3.2v15.8c0 1.2.8 1.7 1.8 1.1l41.4-23.9c1.1-.7 1.8-1.9 1.9-3.2v-15.8c.1-1.2-.7-1.7-1.8-1.1z"/><path class="st5" d="M362.3 109.5c-.1 1.3-.8 2.4-1.9 3.1L326 132.4c-1 .6-1.9.2-1.9-.9.1-1.3.8-2.4 1.9-3.1l34.5-19.9c1-.6 1.8-.2 1.8 1z"/><path class="st7" d="M362.3 117.5c-.1 1.3-.8 2.4-1.9 3.1L326 140.4c-1 .6-1.9.2-1.9-.9.1-1.3.8-2.4 1.9-3.1l34.5-19.9c1-.6 1.8-.1 1.8 1z"/><path class="st5" d="M360.5 116.5l-19 11v4l19-11c1.1-.7 1.8-1.8 1.9-3.1-.1-1-.9-1.5-1.9-.9z"/><path class="st8" d="M363.9 130.6l-41.4 23.9c-1.1.7-1.8 1.9-1.9 3.2v15.8c0 1.2.8 1.7 1.8 1.1l41.4-23.9c1.1-.7 1.8-1.9 1.9-3.2v-15.8c.1-1.3-.7-1.7-1.8-1.1z"/><path class="st5" d="M362.3 137.5c-.1 1.3-.8 2.4-1.9 3.1L326 160.5c-1 .6-1.9.2-1.9-.9.1-1.3.8-2.4 1.9-3.1l34.5-19.9c1-.6 1.8-.2 1.8.9z"/><path class="st7" d="M362.3 145.5c-.1 1.3-.8 2.4-1.9 3.1L326 168.5c-1 .6-1.9.2-1.9-.9.1-1.3.8-2.4 1.9-3.1l34.5-19.9c1-.6 1.8-.2 1.8.9z"/><path class="st5" d="M360.5 144.6l-29.4 17v4l29.4-16.9c1.1-.7 1.8-1.8 1.9-3.1-.1-1.2-.9-1.6-1.9-1z"/><path class="st8" d="M363.9 158.6l-41.4 23.9c-1.1.7-1.8 1.9-1.9 3.2v15.8c0 1.2.8 1.7 1.8 1.1l41.4-23.9c1.1-.7 1.8-1.9 1.9-3.2v-15.7c.1-1.3-.7-1.8-1.8-1.2z"/><path class="st5" d="M362.3 165.5c-.1 1.3-.8 2.4-1.9 3.1L326 188.5c-1 .6-1.9.2-1.9-.9.1-1.3.8-2.4 1.9-3.1l34.5-19.9c1-.6 1.8-.2 1.8.9z"/><path class="st7" d="M362.3 173.5c-.1 1.3-.8 2.4-1.9 3.1L326 196.5c-1 .6-1.9.2-1.9-.9.1-1.3.8-2.4 1.9-3.1l34.5-19.9c1-.6 1.8-.2 1.8.9z"/><path class="st5" d="M360.5 172.6l-12 6.9v4l12-6.9c1.1-.7 1.8-1.8 1.9-3.1-.1-1.1-.9-1.5-1.9-.9z"/><path class="st8" d="M363.9 186.6l-41.4 23.9c-1.1.7-1.8 1.9-1.9 3.2v15.8c0 1.2.8 1.7 1.8 1.1l41.4-23.9c1.1-.7 1.8-1.9 1.9-3.2v-15.8c.1-1.2-.7-1.7-1.8-1.1z"/><path class="st5" d="M362.3 193.6c-.1 1.3-.8 2.4-1.9 3.1L326 216.5c-1 .6-1.9.2-1.9-.9.1-1.3.8-2.4 1.9-3.1l34.5-19.9c1-.5 1.8-.1 1.8 1z"/><path class="st7" d="M362.3 201.6c-.1 1.3-.8 2.4-1.9 3.1L326 224.6c-1 .6-1.9.2-1.9-.9.1-1.3.8-2.4 1.9-3.1l34.5-19.9c1-.6 1.8-.2 1.8.9z"/><path class="st5" d="M360.5 200.6l-19 10.9v4l19-10.9c1.1-.7 1.8-1.8 1.9-3.1-.1-1-.9-1.4-1.9-.9z"/><path class="st8" d="M363.9 214.7l-41.4 23.9c-1.1.7-1.8 1.9-1.9 3.2v15.8c0 1.2.8 1.6 1.8 1.1l41.4-23.9c1.1-.7 1.8-1.9 1.9-3.2v-15.8c.1-1.2-.7-1.7-1.8-1.1z"/><path class="st5" d="M362.3 221.6c-.1 1.3-.8 2.4-1.9 3.1L326 244.6c-1 .6-1.9.2-1.9-.9.1-1.3.8-2.4 1.9-3.1l34.5-19.9c1-.6 1.8-.2 1.8.9z"/><path class="st7" d="M362.3 229.6c-.1 1.3-.8 2.4-1.9 3.1L326 252.6c-1 .6-1.9.2-1.9-.9.1-1.3.8-2.4 1.9-3.1l34.5-19.9c1-.6 1.8-.2 1.8.9z"/><path class="st5" d="M360.5 228.7l-25.9 14.9v4l25.9-15c1.1-.7 1.8-1.8 1.9-3.1-.1-1-.9-1.4-1.9-.8z"/><path class="st6" d="M305.1 128.5c-1.9-1.1-3.5-.1-3.5 2.3v91.6c.1 2.5 1.4 4.9 3.5 6.3 1.9 1.1 3.5.1 3.5-2.3v-91.6c-.2-2.6-1.4-4.9-3.5-6.3z"/><path class="st7" d="M305.1 226.6c-1-.7-1.7-1.9-1.7-3.1v-91.9c0-1.2.8-1.7 1.7-1.1 1 .7 1.7 1.9 1.7 3.1v91.9c0 1.1-.8 1.7-1.7 1.1z"/><path class="st5" d="M305.1 226.6c-1-.7-1.7-1.9-1.7-3.1v-43.9l3.5 2v43.9c-.1 1.1-.9 1.7-1.8 1.1z"/><path class="st6" d="M294.7 122.5c-1.9-1.1-3.5-.1-3.5 2.3v91.6c.1 2.5 1.4 4.9 3.5 6.3 1.9 1.1 3.5.1 3.5-2.3v-91.6c-.2-2.6-1.4-4.9-3.5-6.3z"/><path class="st5" d="M294.7 220.6c-1-.7-1.7-1.9-1.7-3.1v-91.9c0-1.2.8-1.7 1.7-1.1 1 .7 1.7 1.9 1.7 3.1v91.9c0 1.1-.8 1.6-1.7 1.1z"/><path class="st6" d="M284.3 116.5c-1.9-1.1-3.5-.1-3.5 2.3v91.6c.1 2.5 1.4 4.9 3.5 6.3 1.9 1.1 3.5.1 3.5-2.3v-91.6c-.2-2.6-1.4-4.9-3.5-6.3z"/><path class="st7" d="M284.3 214.6c-1-.7-1.7-1.9-1.7-3.1v-91.9c0-1.2.8-1.7 1.7-1.1 1 .7 1.7 1.9 1.7 3.1v91.9c0 1.1-.8 1.6-1.7 1.1z"/><path class="st5" d="M284.3 214.6c-1-.7-1.7-1.9-1.7-3.1v-71l3.5 2v71c-.1 1.1-.9 1.6-1.8 1.1z"/><path class="st6" d="M273.9 110.5c-1.9-1.1-3.5-.1-3.5 2.3v91.6c.1 2.5 1.4 4.9 3.5 6.3 1.9 1.1 3.5.1 3.5-2.3v-91.6c-.2-2.6-1.5-4.9-3.5-6.3z"/><path class="st7" d="M273.9 208.6c-1-.7-1.7-1.9-1.7-3.1v-91.9c0-1.2.8-1.7 1.7-1.1 1 .7 1.7 1.9 1.7 3.1v91.9c0 1.1-.8 1.6-1.7 1.1z"/><path class="st5" d="M273.9 208.6c-1-.7-1.7-1.9-1.7-3.1V190l3.5 2v15.5c-.1 1.1-.9 1.6-1.8 1.1z"/><path class="st6" d="M263.5 104.5c-1.9-1.1-3.5-.1-3.5 2.3v91.6c.1 2.5 1.4 4.9 3.5 6.3 1.9 1.1 3.5.1 3.5-2.3v-91.6c-.2-2.6-1.5-4.9-3.5-6.3z"/><path class="st7" d="M263.5 202.6c-1-.7-1.7-1.9-1.7-3.1v-91.9c0-1.2.8-1.7 1.7-1.1 1 .7 1.7 1.9 1.7 3.1v91.9c0 1.1-.8 1.6-1.7 1.1z"/><path class="st5" d="M263.5 202.6c-1-.7-1.7-1.9-1.7-3.1v-47.9l3.5 2v47.9c-.1 1.1-.9 1.6-1.8 1.1z"/><path class="st6" d="M307.1 239.8l-45.6-26.3c-.8-.5-1.5-.1-1.5.9V231c.1 1 .6 2 1.5 2.6l45.6 26.3c.8.5 1.5.1 1.5-.9v-16.6c-.1-1.1-.7-2.1-1.5-2.6z"/><path class="st7" d="M305.2 244.7c0 1.1-.8 1.5-1.9.9l-38.2-22c-1.1-.7-1.8-1.8-1.9-3.1 0-1.1.8-1.5 1.9-.9l38.2 22c1.1.7 1.8 1.8 1.9 3.1z"/><path class="st5" d="M305.2 244.7c0 1.1-.8 1.5-1.9.9l-27.8-16v-4l27.8 16c1.1.7 1.8 1.9 1.9 3.1z"/><path class="st7" d="M305.2 252.7c0 1.1-.8 1.5-1.9.9l-38.2-22c-1.1-.7-1.8-1.8-1.9-3.1 0-1.1.8-1.5 1.9-.9l38.2 22c1.1.7 1.8 1.9 1.9 3.1z"/><path class="st5" d="M305.2 252.7c0 1.1-.8 1.5-1.9.9l-10.4-6v-4l10.4 6c1.1.7 1.8 1.9 1.9 3.1z"/><path class="st8" d="M256.6 84.4l55.3-31.9c1.2-.6 2.5-.6 3.7 0l55.3 31.9c.6.2.9.8.7 1.4-.1.3-.4.6-.7.7l-55.3 31.9c-1.2.6-2.5.6-3.7 0l-55.3-31.9c-.6-.2-.9-.8-.7-1.4.1-.4.4-.6.7-.7z"/><path class="st7" d="M314.9 110.8L357.8 86c.7-.4 1.1-1.1 1.1-1.9v-1.4c0-.8-.5-1.5-1.1-1.9L314.9 56c-.7-.3-1.5-.3-2.2 0l-42.9 24.8c-.7.4-1.1 1.1-1.1 1.9v1.4c0 .8.5 1.5 1.1 1.9l42.9 24.8c.6.4 1.5.4 2.2 0z"/><path class="st8" d="M357.7 82.1l-42.9 24.8c-.7.4-1.5.4-2.2 0l-42.9-24.8c-.4-.1-.5-.5-.4-.9.1-.2.2-.3.4-.4l42.9-23.9c.7-.4 1.5-.4 2.2 0l42.9 23.9c.4.1.6.5.4.8 0 .2-.2.4-.4.5z"/><path class="st6" d="M313.8 107.1v4c.4 0 .8-.1 1.1-.3L357.8 86c.7-.4 1.1-1.1 1.1-1.9v-1.4c0-.7-.4-1.3-.9-1.8.4.3.3.8-.2 1.1l-42.9 24.8c-.4.2-.8.3-1.1.3z"/><path class="st7" d="M314.9 98.8l29-16.7c.7-.4 1.1-1.1 1.1-1.9v-1.4c0-.8-.5-1.5-1.1-1.9L325.3 66c-.7-.4-1.3-1-1.9-1.7l-8.9-12c-.4-.6-1.2-.7-1.9-.4l-29 16.7c-.7.4-1.1 1.1-1.1 1.9V80c0 .8.5 1.5 1.1 1.9l29 16.7c.7.5 1.6.5 2.3.2z"/><path class="st8" d="M312.6 94.8L294 84.1c-.4-.2-.7-.4-1-.7-.3-.3-.6-.6-.9-1l-8.9-12c-.4-.5-.3-1.2.2-1.6.1 0 .1-.1.2-.1l29-16.7c.6-.4 1.4-.2 1.9.4l8.9 12c.5.7 1 1.3 1.7 1.7l18.8 10.7c.4.1.5.5.4.9-.1.2-.2.3-.4.4l-29 16.8c-.8.2-1.6.2-2.3-.1z"/><path class="st6" d="M283.6 68.8l29-16.7c.6-.4 1.4-.2 1.9.4l8.9 12c.3.3.6.7.9.9l-31.2 18c-.3-.3-.6-.6-.9-1l-8.9-12c-.4-.6-.2-1.2.3-1.6z"/><path class="st5" d="M336.8 77.1c-.8-.4-1.8-.4-2.6 0-.7.4-.7 1.1 0 1.5.8.4 1.8.4 2.6 0 .7-.5.7-1.1 0-1.5zM331.6 80.1c-.8-.4-1.8-.4-2.6 0-.7.4-.7 1.1 0 1.5.8.4 1.8.4 2.6 0 .7-.4.7-1.1 0-1.5z"/><path class="st7" d="M326.4 83.1c-.8-.4-1.8-.4-2.6 0-.4.1-.6.6-.5 1 .1.2.3.4.5.5.8.4 1.8.4 2.6 0 .4-.1.6-.6.5-1-.1-.3-.3-.4-.5-.5zM321.2 86.1c-.8-.4-1.8-.4-2.6 0-.4.1-.6.6-.5 1 .1.2.3.4.5.5.8.4 1.8.4 2.6 0 .4-.1.6-.6.5-1-.1-.3-.3-.4-.5-.5z"/><path class="st5" d="M332.9 74.8c-.8-.4-1.8-.4-2.6 0-.4.1-.6.6-.5 1 .1.2.3.4.5.5.8.4 1.8.4 2.6 0 .4-.1.6-.6.5-1-.1-.2-.3-.4-.5-.5z"/><path class="st7" d="M327.7 77.8c-.8-.4-1.8-.4-2.6 0-.4.1-.6.6-.5 1 .1.2.3.4.5.5.8.4 1.8.4 2.6 0 .4-.1.6-.6.5-1-.1-.2-.2-.4-.5-.5z"/><ellipse class="st5" cx="321.2" cy="81.6" rx="1.8" ry="1.1"/><path class="st7" d="M317.3 83.8c-.8-.4-1.8-.4-2.6 0-.7.4-.7 1.1 0 1.5.8.4 1.8.4 2.6 0 .7-.4.7-1.1 0-1.5zM329 72.6c-.8-.4-1.8-.4-2.6 0-.7.4-.7 1.1 0 1.5.8.4 1.8.4 2.6 0 .7-.5.7-1.1 0-1.5z"/><path class="st5" d="M323.8 75.6c-.8-.4-1.8-.4-2.6 0-.4.1-.6.6-.5 1 .1.2.3.4.5.5.8.4 1.8.4 2.6 0 .4-.1.6-.6.5-1-.1-.3-.3-.5-.5-.5z"/><path class="st7" d="M318.6 78.6c-.8-.4-1.8-.4-2.6 0-.4.1-.6.6-.5 1 .1.2.3.4.5.5.8.4 1.8.4 2.6 0 .4-.1.6-.6.5-1-.1-.3-.3-.5-.5-.5z"/><path class="st5" d="M316 89c-.8-.4-1.8-.4-2.6 0-.7.4-.7 1.1 0 1.5.8.4 1.8.4 2.6 0 .7-.4.7-1.1 0-1.5z"/><path class="st7" d="M312.1 86.8c-.8-.4-1.8-.4-2.6 0-.4.1-.6.6-.5 1 .1.2.3.4.5.5.8.4 1.8.4 2.6 0 .4-.1.6-.6.5-1-.1-.3-.3-.5-.5-.5zM313.4 81.6c-.8-.4-1.8-.4-2.6 0-.4.1-.6.6-.5 1 .1.2.3.4.5.5.8.4 1.8.4 2.6 0 .4-.1.6-.6.5-1-.1-.3-.3-.4-.5-.5z"/><path class="st5" d="M325.1 70.3c-.8-.4-1.8-.4-2.6 0-.4.1-.6.6-.5 1 .1.2.3.4.5.5.8.4 1.8.4 2.6 0 .4-.1.6-.6.5-1-.1-.2-.2-.4-.5-.5z"/><ellipse class="st7" cx="318.6" cy="74.1" rx="1.8" ry="1.1"/><path class="st5" d="M314.7 76.3c-.8-.4-1.8-.4-2.6 0-.7.4-.7 1.1 0 1.5.8.4 1.8.4 2.6 0 .7-.4.7-1.1 0-1.5z"/><path class="st7" d="M309.5 79.3c-.8-.4-1.8-.4-2.6 0-.4.1-.6.6-.5 1 .1.2.3.4.5.5.8.4 1.8.4 2.6 0 .4-.1.6-.6.5-1-.1-.2-.3-.4-.5-.5z"/><path class="st5" d="M308.2 84.5c-.8-.4-1.8-.4-2.6 0-.4.1-.6.6-.5 1 .1.2.3.4.5.5.8.4 1.8.4 2.6 0 .4-.1.6-.6.5-1-.1-.2-.3-.4-.5-.5z"/><path class="st7" d="M304.3 82.3c-.8-.4-1.8-.4-2.6 0-.7.4-.7 1.1 0 1.5.8.4 1.8.4 2.6 0 .7-.5.7-1.1 0-1.5z"/><path class="st6" d="M313.7 95.1v4c.4 0 .8-.1 1.2-.3l29-16.7c.7-.4 1.1-1.1 1.1-1.9v-1.4c0-.7-.4-1.3-.9-1.8.4.3.3.8-.2 1.1l-29 16.8c-.4.1-.8.2-1.2.2z"/><path class="st7" d="M319.6 63.9c-.3-.4-.8-.5-1.3-.3L293 78.1c-.4.2-.5.6-.3 1l.1.1c.3.4.8.5 1.3.3L319.3 65c.4-.2.5-.6.3-1v-.1z"/><path class="st5" d="M319.6 63.9c-.3-.4-.8-.5-1.3-.3l-18.8 10.8 1 1.4L319.3 65c.4-.2.5-.6.3-1v-.1z"/><path class="st7" d="M317.5 61.1c-.3-.4-.8-.5-1.2-.3L291 75.3c-.4.2-.5.7-.3 1 0 0 0 .1.1.1.3.4.8.5 1.3.3l25.2-14.6c.3-.2.4-.6.2-1z"/><path class="st5" d="M317.5 61.1c-.3-.4-.8-.5-1.2-.3l-6.3 3.6 1 1.4 6.3-3.6c.3-.2.4-.7.2-1.1z"/><path class="st7" d="M315.4 58.3c-.3-.4-.8-.5-1.3-.3l-25.3 14.5c-.4.2-.5.7-.3 1 0 0 0 .1.1.1.3.4.8.5 1.3.3l25.2-14.6c.4-.1.5-.6.3-1z"/><path class="st5" d="M315.4 58.3c-.3-.4-.8-.5-1.3-.3L301 65.5l1 1.4 13.1-7.6c.4-.1.6-.6.3-1z"/><path class="st7" d="M313.3 55.5c-.3-.4-.8-.5-1.3-.3l-25.3 14.5c-.4.2-.5.7-.3 1 0 0 0 .1.1.1.3.4.8.5 1.3.3L313 56.5c.4-.1.5-.6.3-1z"/><path class="st5" d="M313.3 55.5c-.3-.4-.8-.5-1.3-.3l-22.9 13.2 1 1.4L313 56.6c.4-.2.5-.6.3-1 .1-.1 0-.1 0-.1z"/></g><path class="st8" d="M264.3 242.1c.2-.1.3 0 .5.1.4.3.7.7.7 1.2 0 .2 0 .3-.2.4l-.1.1-30.1 17.3-2-1.1 31.2-18zM268.4 244.5c.2-.1.3 0 .5.1.4.3.7.7.7 1.2 0 .2 0 .3-.2.4l-.1.1-30.1 17.4-2-1.1 31.2-18.1zM272.5 246.8c.2-.1.3 0 .5.1.4.3.7.7.7 1.2 0 .2 0 .3-.2.4l-.1.1-30.1 17.3-2-1.1 31.2-18zM276.5 249.2c.2 0 .3 0 .5.1.4.3.7.7.7 1.2 0 .2 0 .3-.2.4l-.1.1-30.1 17.3-2-1.1 31.2-18z"/></g></g><g id="freepik--Device--inject-77"><g id="freepik--Laptop--inject-77"><path class="st2" d="M71 347.6c.2 2.8 1.7 5.3 4.1 6.8l115 66.4c2.6 1.3 5.6 1.3 8.2 0L355.6 330c3.8-2 5.2-6.7 3.2-10.4-.7-1.4-1.8-2.5-3.2-3.2l-115-66.4c-2.6-1.3-5.6-1.3-8.2 0L75.1 340.7c-2.4 1.5-3.9 4.1-4.1 6.9z"/><path class="st7" d="M194.2 412.8v8.9c-1.4 0-2.8-.3-4.1-1l-115-66.3c-3.8-2-5.2-6.6-3.2-10.4.6-1.2 1.6-2.3 2.8-3-1.8 1.3-1.7 3.3.4 4.5l115 66.4c1.3.6 2.7 1 4.1.9z"/><path class="st2" d="M67.2 340.9c-2.3-1.6-3.8-4.2-3.8-7V196.8c.2-2.9 1.7-5.5 4.1-7.1l157.3-90.8c3.6-2.3 8.4-1.2 10.6 2.4.8 1.3 1.2 2.8 1.2 4.4v137.2c-.2 2.9-1.7 5.5-4.1 7.1L75.1 340.7c-2.4 1.4-5.4 1.4-7.9.2z"/><path class="st7" d="M74.7 341c-2.4 1.1-5.1 1-7.5-.1-2.3-1.6-3.8-4.2-3.8-7V196.8c.1-1.4.5-2.8 1.2-4l7.7 4.4c-.7 1.2-1.2 2.6-1.2 4v137.2c-.1 2.4 1.5 3.5 3.6 2.6z"/><path class="st6" d="M71 201.2v137.2c0 2.6 1.8 3.7 4.1 2.4L232.4 250c2.4-1.6 3.9-4.2 4.1-7.1V105.6c0-2.6-1.8-3.7-4.1-2.4L75.1 194.1c-2.4 1.6-3.9 4.2-4.1 7.1z"/><path class="st2" d="M75.1 345.5l115 66.4c2.6 1.3 5.6 1.3 8.2 0L355.6 321c2.3-1.3 2.3-3.4 0-4.7L240.7 250c-2.6-1.3-5.6-1.3-8.2 0L75.1 340.7c-2.2 1.3-2.2 3.5 0 4.8z"/><path class="st8" d="M75.1 345.5l115 66.4c2.6 1.3 5.6 1.3 8.2 0L355.6 321c2.3-1.3 2.3-3.4 0-4.7L240.7 250c-2.6-1.3-5.6-1.3-8.2 0L75.1 340.7c-2.2 1.3-2.2 3.5 0 4.8z"/><path d="M77.3 201.7L229 114.2c1.4-.8 2.5-.1 2.5 1.4v118.8c-.1 1.7-1 3.3-2.5 4.3L77.3 326.1c-1.4.8-2.5.1-2.5-1.4V206c.2-1.7 1.1-3.3 2.5-4.3z" fill="#fafafa"/><path class="st5" d="M177.4 183.2l-1 27.4c0 11.3-7.1 31.7-21.7 46.8-1 1-2.4 1.7-3.8 1.9-.7.1-1.4.1-2.1.1-3.1 0-6.2-.7-8.9-2.3h-.1l-.2-.1c-6.5-3.9-9.7-11.9-9.7-19.5l-1-26.2c0-.7.3-1.4.7-1.9.4-.4.8-.8 1.3-1 6.7-3 16.7-14.8 21.4-26.5.3-.8.8-1.1 1.4-.8l.1.1c.2.1.4.2.5.4l.1.1c5 5.8 14.8 5.8 21.3.8.5-.4.9-.5 1.2-.4.4.1.5.5.5 1.1z"/><path class="st10" d="M153.2 181c-.4.2-.7.5-.8.9-4.7 11.7-14.7 23.5-21.4 26.5-.5.2-1 .6-1.3 1-.5.5-.7 1.2-.7 1.9l1 26.2c0 7.6 3.2 15.6 9.7 19.5l.2.1h.1c2.7 1.5 5.8 2.3 8.9 2.3.7 0 1.4 0 2.1-.1.8-.1 1.5-.4 2.2-.8V181z"/><path class="st3" d="M88.5 341.9l146-84.3c1.3-.7 2.8-.7 4.1 0l7.5 4.3c.7.2 1 .9.8 1.6-.1.4-.4.7-.8.8L100 348.6c-1.3.7-2.8.7-4.1 0l-7.4-4.3c-.7-.2-1-.9-.8-1.6.1-.4.4-.7.8-.8zM107.7 353l146-84.3c1.3-.7 2.8-.7 4.1 0l45.9 26.5c.7.2 1 .9.8 1.6-.1.4-.4.7-.8.8l-145.8 84.2c-1.3.6-2.8.6-4.1 0l-46.1-26.4c-.7-.2-1.1-.8-.9-1.5.2-.4.5-.8.9-.9z"/><path class="st7" d="M238.6 306.7l4.6-2.6c.2-.1.2-.3 0-.4l-5.3-3c-.2-.1-.5-.1-.7 0l-4.6 2.6c-.2.1-.2.3 0 .4l5.3 3.1c.2 0 .5 0 .7-.1zm-9-10.5l-4.6 2.6c-.2.1-.2.3 0 .4l5.3 3c.2.1.5.1.7 0l4.6-2.6c.2-.1.2-.3 0-.4l-5.3-3c-.2-.1-.5-.1-.7 0zm-14.8 8.5l-7.7 4.5c-.2.1-.2.3 0 .4l5.3 3c.2.1.5.1.7 0l7.7-4.5c.2-.1.2-.3 0-.4l-5.3-3c-.2-.1-.5-.1-.7 0zm8.1-4.7l-4.6 2.6c-.2.1-.2.3 0 .4l5.3 3c.2.1.5.1.7 0l4.6-2.6c.2-.1.2-.3 0-.4l-5.3-3c-.2-.1-.5-.1-.7 0zM205 310.4l-4.6 2.6c-.2.1-.2.3 0 .4l5.3 3c.2.1.5.1.7 0l4.6-2.6c.2-.1.2-.3 0-.4l-5.3-3c-.2-.1-.5-.1-.7 0zm-6.7 3.9l-4.6 2.6c-.2.1-.2.3 0 .4l5.3 3c.2.1.5.1.7 0l4.6-2.6c.2-.1.2-.3 0-.4l-5.3-3c-.2-.1-.5-.2-.7 0zm20.8 12.4l4.6-2.6c.2-.1.2-.3 0-.4l-5.3-3c-.2-.1-.5-.1-.7 0l-4.7 2.6c-.2.1-.2.3 0 .4l5.3 3c.2.1.5.1.8 0zm-6.7 3.8l4.6-2.6c.2-.1.2-.3 0-.4l-5.3-3c-.2-.1-.5-.1-.7 0l-4.6 2.5c-.2.1-.2.3 0 .4l5.3 3.1c.2.1.4.1.7 0zm-6.6 3.9l4.6-2.6c.2-.1.2-.3 0-.4l-5.3-3c-.2-.1-.5-.1-.7 0l-4.6 2.6c-.2.1-.2.3 0 .4l5.3 3c.1.1.4.1.7 0zm-6.8 3.8l4.6-2.6c.2-.1.2-.3 0-.4l-5.3-3c-.2-.1-.5-.1-.7 0l-4.6 2.6c-.2.1-.2.3 0 .4l5.3 3c.2.1.5.1.7 0zm32.9-27.7l4.6-2.6c.2-.1.2-.3 0-.4l-5.3-3c-.2-.1-.5-.1-.7 0l-4.6 2.6c-.2.1-.2.3 0 .4l5.3 3c.2.1.5.1.7 0zm-6.2 12.3l10.2-5.9c.2-.1.2-.3 0-.4l-12.8-7.4c-.2-.1-.5-.1-.7 0l-5.3 3c-.2.1-.2.3 0 .4l6.8 3.9c.2.1.2.3 0 .4l-4.2 2.4c-.2.1-.2.3 0 .4l5.3 3c.2.4.5.4.7.2zm-34.1-4.7l-4.6 2.6c-.2.1-.2.3 0 .4l5.3 3c.2.1.5.1.7 0l4.6-2.6c.2-.1.2-.3 0-.4l-5.3-3c-.2-.1-.5-.1-.7 0zm-6.7 3.9l-4.6 2.6c-.2.1-.2.3 0 .4l5.3 3c.2.1.5.1.7 0l4.6-2.6c.2-.1.2-.3 0-.4l-5.3-3c-.2-.1-.4-.1-.7 0zm-33.4 43.3c.2.1.5.1.7 0l4.6-2.6c.2-.1.2-.3 0-.4l-5.3-3c-.2-.1-.5-.1-.7 0l-4.6 2.6c-.2.1-.2.3 0 .4l5.3 3zm-20-12.4l-4.6 2.6c-.2.1-.2.3 0 .4l5.3 3c.2.1.5.1.7 0l4.6-2.6c.2-.1.2-.3 0-.4l-5.3-3c-.2-.2-.5-.2-.7 0zm10.7 9c.2.1.5.1.7 0l4.6-2.6c.2-.1.2-.3 0-.4l-5.3-3c-.2-.1-.5-.1-.7 0l-4.6 2.6c-.2.1-.2.3 0 .4l5.3 3zm21.1 5.7l4.6-2.6c.2-.1.2-.3 0-.4l-5.3-3c-.2-.1-.5-.1-.7 0l-4.6 2.6c-.2.1-.2.3 0 .4l5.3 3c.2.1.5.1.7 0zm-7.4 3.8c.2.1.5.1.7 0l4.6-2.6c.2-.1.2-.3 0-.4l-5.3-3c-.2-.1-.5-.1-.7 0l-4.6 2.6c-.2.1-.2.3 0 .4l5.3 3zM138.1 349l-4.6 2.6c-.2.1-.2.3 0 .4l5.3 3c.2.1.5.1.7 0l4.6-2.6c.2-.1.2-.3 0-.4l-5.3-3c-.1-.1-.4-.1-.7 0zm33.5-19.3l-4.6 2.6c-.2.1-.2.3 0 .4l5.3 3c.2.1.5.1.7 0l4.6-2.6c.2-.1.2-.3 0-.4l-5.3-3c-.2-.1-.5-.1-.7 0zm-26.8 15.4l-4.6 2.6c-.2.1-.2.3 0 .4l5.3 3c.2.1.5.1.7 0l4.6-2.6c.2-.1.2-.3 0-.4l-5.3-3c-.2-.1-.4-.1-.7 0zm33.4-19.3l-4.6 2.6c-.2.1-.2.3 0 .4l5.3 3.1c.2.1.5.1.7 0l4.6-2.6c.2-.1.2-.3 0-.4l-5.3-3.1c-.1-.1-.4-.1-.7 0zm-13.3 7.8l-4.6 2.6c-.2.1-.2.3 0 .4l5.3 3c.2.1.5.1.7 0l4.6-2.6c.2-.1.2-.3 0-.4l-5.3-3.1c-.2-.1-.5-.1-.7.1zm-6.7 3.8l-4.6 2.6c-.2.1-.2.3 0 .4l5.3 3c.2.1.5.1.7 0l4.6-2.6c.2-.1.2-.3 0-.4l-5.3-3c-.2-.1-.5-.1-.7 0zm-6.7 3.9l-4.5 2.6c-.2.1-.2.3 0 .4l5.3 3.1c.2.1.5.1.7 0l4.6-2.6c.2-.1.2-.3 0-.4l-5.3-3c-.2-.3-.5-.3-.8-.1zm34.2 4.7l4.6-2.6c.2-.1.2-.3 0-.4l-5.3-3c-.2-.1-.5-.1-.7 0l-4.6 2.6c-.2.1-.2.3 0 .4l5.3 3c.2.1.4.1.7 0zm58.7-58.3l-4.6 2.6c-.2.1-.2.3 0 .4l5.3 3c.2.1.5.1.7 0l4.6-2.6c.2-.1.2-.3 0-.4l-5.3-3.1c-.3-.1-.5-.1-.7.1zm-8.1 4.7l-4.6 2.6c-.2.1-.2.3 0 .4l5.3 3c.2.1.5.1.7 0l4.6-2.6c.2-.1.2-.3 0-.4l-5.3-3.1c-.2-.1-.5-.1-.7.1zm14.7-8.6l-4.6 2.6c-.2.1-.2.3 0 .4l5.3 3c.2.1.5.1.7 0l4.6-2.6c.2-.1.2-.3 0-.4l-5.3-3c-.2-.1-.5-.1-.7 0zm-34.6 35.7l4.6-2.6c.2-.1.2-.3 0-.4l-5.3-3c-.2-.1-.5-.1-.7 0l-4.6 2.6c-.2.1-.2.3 0 .4l5.3 3.1c.2 0 .5 0 .7-.1zm42-39.5c-.2-.1-.5-.1-.7 0l-4.6 2.6c-.2.1-.2.3 0 .4l5.3 3.1c.2.1.5.1.7 0l4.6-2.6c.2-.1.2-.3 0-.4l-5.3-3.1zm-66.1 62.1l4.6-2.6c.2-.1.2-.3 0-.4l-5.3-3c-.2-.1-.5-.1-.7 0l-4.6 2.6c-.2.1-.2.3 0 .4l5.3 3.1c.2.1.5 0 .7-.1zm82-47.3l4.6-2.6c.2-.1.2-.3 0-.4l-5.3-3c-.2-.1-.5-.1-.7 0l-4.6 2.6c-.2.1-.2.3 0 .4l5.3 3c.2.1.4.1.7 0zm-14.3-.5l4.6-2.6c.2-.1.2-.3 0-.4l-5.3-3c-.2-.1-.5-.1-.7 0l-4.6 2.6c-.2.1-.2.3 0 .4l5.3 3c.2.1.5.1.7 0zm6-10c-.2-.1-.5-.1-.7 0l-4.6 2.6c-.2.1-.2.3 0 .4l5.3 3.1c.2.1.5.1.7 0l4.6-2.6c.2-.1.2-.3 0-.4l-5.3-3.1zm1.4-.8l12.8 7.4c.2.1.5.1.7 0l4.6-2.6c.2-.1.2-.3 0-.4l-12.8-7.4c-.2-.1-.5-.1-.7 0l-4.6 2.6c-.2.1-.2.3 0 .4zm-15.5 8.5l-4.6 2.6c-.2.1-.2.3 0 .4l5.3 3c.2.1.5.1.7 0l4.6-2.6c.2-.1.2-.3 0-.4l-5.3-3.1c-.2 0-.5 0-.7.1zm-50.3 29l-4.6 2.7c-.2.1-.2.3 0 .4l5.3 3c.2.1.5.1.7 0l4.6-2.6c.2-.1.2-.3 0-.4l-5.3-3.1c-.2-.1-.5-.1-.7 0zm65.3-22.4c.2.1.5.1.7 0l4.6-2.6c.2-.1.2-.3 0-.4l-5.3-3c-.2-.1-.5-.1-.7 0l-4.6 2.6c-.2.1-.2.3 0 .4l5.3 3zm-58.6 18.5l-4.6 2.6c-.2.1-.2.3 0 .4l5.3 3.1c.2.1.5.1.7 0l4.6-2.6c.2-.1.2-.3 0-.4l-5.3-3c-.2-.1-.5-.1-.7-.1zm-50.1 44.2c.2.1.5.1.7 0l4.6-2.6c.2-.1.2-.3 0-.4l-5.3-3c-.2-.1-.5-.1-.7 0l-4.6 2.6c-.2.1-.2.3 0 .4l5.3 3zm-10-9.4l-4.6 2.6c-.2.1-.2.3 0 .4l5.3 3c.2.1.5.1.7 0l4.6-2.6c.2-.1.2-.3 0-.4l-5.3-3c-.2-.2-.5-.1-.7 0zm17.4 5.6l4.6-2.6c.2-.1.2-.3 0-.4l-5.3-3c-.2-.1-.5-.1-.7 0l-4.6 2.6c-.2.1-.2.3 0 .4l5.3 3.1c.2 0 .5 0 .7-.1zm6.7-3.9l4.6-2.6c.2-.1.2-.3 0-.4l-5.3-3c-.2-.1-.5-.1-.7 0l-4.6 2.6c-.2.1-.2.3 0 .4l5.3 3c.2.1.5.1.7 0zm6.7-3.8l4.6-2.6c.2-.1.2-.3 0-.4l-5.3-3.1c-.2-.1-.5-.1-.7 0l-4.6 2.7c-.2.1-.2.3 0 .4l5.3 3c.2.1.5.1.7 0zm-24.2-1.8l-4.6 2.6c-.2.1-.2.3 0 .4l5.3 3c.2.1.5.1.7 0l4.6-2.6c.2-.1.2-.3 0-.4l-5.3-3.1c-.2 0-.4 0-.7.1zm6.7-3.9l-4.5 2.7c-.2.1-.2.3 0 .4l5.3 3c.2.1.5.1.7 0l4.6-2.6c.2-.1.2-.3 0-.4l-5.3-3c-.2-.1-.5-.1-.8-.1zm26.7-15.4l-4.6 2.6c-.2.1-.2.3 0 .4l5.3 3c.2.1.5.1.7 0l4.6-2.6c.2-.1.2-.3 0-.4l-5.3-3c-.1 0-.4-.1-.7 0zm-6.6 3.9l-4.6 2.7c-.2.1-.2.3 0 .4l5.3 3c.2.1.5.1.7 0l4.6-2.6c.2-.1.2-.3 0-.4l-5.3-3c-.2-.2-.5-.2-.7-.1zm13.3-7.7l-4.6 2.6c-.2.1-.2.3 0 .4l5.3 3c.2.1.5.1.7 0l4.6-2.6c.2-.1.2-.3 0-.4l-5.3-3c-.2-.2-.5-.1-.7 0zm-26.7 15.4l-4.6 2.7c-.2.1-.2.3 0 .4l5.3 3.1c.2.1.5.1.7 0l4.6-2.6c.2-.1.2-.3 0-.4l-5.3-3c-.2-.2-.4-.3-.7-.2zm6.7-3.9l-4.6 2.6c-.2.1-.2.3 0 .4l5.3 3c.2.1.5.1.7 0l4.6-2.6c.2-.1.2-.3 0-.4l-5.3-3c-.2-.1-.5-.1-.7 0zm-4.9 27.3l4.6-2.6c.2-.1.2-.3 0-.4l-5.3-3c-.2-.1-.5-.1-.7 0l-4.6 2.6c-.2.1-.2.3 0 .4l5.3 3c.2.1.5.1.7 0zm-39.2-4l-5.3-3c-.2-.1-.5-.1-.7 0l-4.6 2.6c-.2.1-.2.3 0 .4l5.3 3c.2.1.5.1.7 0l4.6-2.6c.2 0 .2-.2 0-.4zm10 2.9l-5.3-3c-.2-.1-.5-.1-.7 0l-7 4.1c-.2.1-.2.3 0 .4l5.3 3c.2.1.5.1.7 0l7-4.1c.2 0 .2-.2 0-.4zm-18.1-8.8l-5.3-3c-.2-.1-.5-.1-.7 0l-5.6 3.2c-.2.1-.2.3 0 .4l5.3 3c.2.1.5.1.7 0l5.6-3.3c.2.1.2-.1 0-.3zm4.3-2.5c.2.1.5.1.7 0l4.6-2.6c.2-.1.2-.3 0-.4l-5.3-3c-.2-.1-.5-.1-.7 0l-4.6 2.6c-.2.1-.2.3 0 .4l5.3 3zm23.1 14.7l-5.3-3c-.2-.1-.5-.1-.7 0l-8.8 5c-.2.1-.2.3 0 .4l5.3 3c.2.1.5.1.7 0l8.8-5.1c.3 0 .2-.2 0-.3zm4.4 6.2l-5.3-3c-.2-.1-.5-.1-.7 0l-5.6 3.3c-.2.1-.2.3 0 .4l5.3 3c.2.1.5.1.7 0l5.6-3.3c.2-.1.2-.3 0-.4zm22.2-49.6c.2.1.5.1.7 0l4.6-2.6c.2-.1.2-.3 0-.4l-5.3-3.1c-.2-.1-.5-.1-.7 0l-4.6 2.6c-.2.1-.2.3 0 .4l5.3 3.1zm-13.4 7.8c.2.1.5.1.7 0l4.6-2.6c.2-.1.2-.3 0-.4l-5.3-3c-.2-.1-.5-.1-.7 0l-4.6 2.7c-.2.1-.2.3 0 .4l5.3 2.9zm-29.6 17.1c.2.1.5.1.7 0l4.6-2.6c.2-.1.2-.3 0-.4l-5.3-3.1c-.2-.1-.5-.1-.7 0l-4.6 2.6c-.2.1-.2.3 0 .4l5.3 3.1zm36.3-21c.2.1.5.1.7 0l4.6-2.6c.2-.1.2-.3 0-.4l-5.3-3c-.2-.1-.5-.1-.7 0l-4.6 2.6c-.2.1-.2.3 0 .4l5.3 3zm-13.4 7.7c.2.1.5.1.7 0l4.6-2.6c.2-.1.2-.3 0-.4l-5.3-3.1c-.2-.1-.5-.1-.7 0l-4.6 2.6c-.2.1-.2.3 0 .4l5.3 3.1zm1.6 38.5c-.2-.1-.5-.1-.7 0l-7 4.1c-.2.1-.2.3 0 .4l5.3 3c.2.1.5.1.7 0l7-4.1c.2-.1.2-.3 0-.4l-5.3-3zm-11.1-32.9c.2.1.5.1.7 0l4.6-2.6c.2-.1.2-.3 0-.4l-5.4-3c-.2-.1-.5-.1-.7 0l-4.6 2.6c-.2.1-.2.3 0 .4l5.4 3zm-6.7 3.8c.2.1.5.1.7 0l4.6-2.6c.2-.1.2-.3 0-.4l-5.3-3c-.2-.1-.5-.1-.7 0l-4.6 2.6c-.2.1-.2.3 0 .4l5.3 3zM282 301.3c-.2-.1-.5-.1-.7 0l-11.3 6.5c-.2.1-.2.3 0 .4l5.3 3c.2.1.5.1.7 0l11.3-6.5c.2-.1.2-.3 0-.4l-5.3-3zm-14.8 8.5c-.2-.1-.5-.1-.7 0l-4.6 2.6c-.2.1-.2.3 0 .4l5.3 3c.2.1.5.1.7 0l4.6-2.6c.2-.1.2-.3 0-.4l-5.3-3zm-90.5 50.1l4.6-2.6c.2-.1.2-.3 0-.4l-5.3-3c-.2-.1-.5-.1-.7 0l-4.6 2.6c-.2.1-.2.3 0 .4l5.3 3.1c.2 0 .5 0 .7-.1zm77.2-42.4c-.2-.1-.5-.1-.7 0l-4.6 2.6c-.2.1-.2.3 0 .4l5.3 3c.2.1.5.1.7 0l4.6-2.6c.2-.1.2-.3 0-.4l-5.3-3zm34.8-20.1c-.2-.1-.5-.1-.7 0l-4.6 2.6c-.2.1-.2.3 0 .4l5.3 3c.2.1.5.1.7 0l4.6-2.6c.2-.1.2-.3 0-.4l-5.3-3zm12-.8l-12.8-7.4c-.2-.1-.5-.1-.7 0l-4.6 2.6c-.2.1-.2.3 0 .4l12.8 7.4c.2.1.5.1.7 0l4.6-2.6c.1-.1.1-.3 0-.4zm-71.8 35.3c-.2-.1-.5-.1-.7 0l-5.6 3.3c-.2.1-.2.3 0 .4l5.3 3c.2.1.5.1.7 0l5.6-3.3c.2-.1.2-.3 0-.4l-5.3-3zm16.9-9.7c-.2-.1-.5-.1-.7 0l-7 4.1c-.2.1-.2.3 0 .4l5.3 3c.2.1.5.1.7 0l7-4.1c.2-.1.2-.3 0-.4l-5.3-3zm-32.3 18.6c-.2-.1-.5-.1-.7 0L175 362.5c-.2.1-.2.3 0 .4l5.3 3c.2.1.5.1.7 0l37.6-21.7c.2-.1.2-.3 0-.4l-5.1-3zm-39.8 23c-.2-.1-.5-.1-.7 0l-5.7 3.2c-.2.1-.2.3 0 .4l5.3 3c.2.1.5.1.7 0l5.6-3.3c.2-.1.2-.3 0-.4l-5.2-2.9zm47.5-27.4c-.2-.1-.5-.1-.7 0l-5.6 3.3c-.2.1-.2.3 0 .4l5.3 3c.2.1.5.1.7 0l5.6-3.3c.2-.1.2-.3 0-.4l-5.3-3zM166 368.3c-.2-.1-.5-.1-.7 0l-5.6 3.3c-.2.1-.2.3 0 .4l5.3 3c.2.1.5.1.7 0l5.6-3.3c.2-.1.2-.3 0-.4l-5.3-3zm70.7-40.9c-.2-.1-.5-.1-.7 0l-5.6 3.3c-.2.1-.2.3 0 .4l5.3 3c.2.1.5.1.7 0l5.6-3.2c.2-.1.2-.3 0-.4l-5.3-3.1zm23.9-13.8c-.2-.1-.5-.1-.7 0l-4.6 2.6c-.2.1-.2.3 0 .4l5.3 3.1c.2.1.5.1.7 0l4.6-2.6c.2-.1.2-.3 0-.4l-5.3-3.1zm14.5-10.6l4.6-2.6c.2-.1.2-.3 0-.4l-5.3-3c-.2-.1-.5-.1-.7 0l-4.6 2.6c-.2.1-.2.3 0 .4l5.3 3c.3.1.5.1.7 0zm-29.8-.2l4.6-2.6c.2-.1.2-.3 0-.4l-5.3-3c-.2-.1-.5-.1-.7 0l-4.6 2.6c-.2.1-.2.3 0 .4l5.3 3c.2.1.5.1.7 0zM230.1 329l13.4-7.7c.2-.1.2-.3 0-.4l-5.3-3c-.2-.1-.5-.1-.7 0l-13.4 7.7c-.2.1-.2.3 0 .4l5.3 3c.2.1.5.1.7 0zm37.6-22.1c.2.1.5.1.7 0l4.6-2.6c.2-.1.2-.3 0-.4l-5.3-3c-.2-.1-.5-.1-.7 0l-4.6 2.6c-.2.1-.2.3 0 .4l5.3 3zm-6.8-4.4l4.6-2.6c.2-.1.2-.3 0-.4l-5.3-3c-.2-.1-.5-.1-.7 0l-4.6 2.6c-.2.1-.2.3 0 .4l5.3 3c.2.1.5.1.7 0zm-37.4 30.4l4.6-2.6c.2-.1.2-.3 0-.4l-5.3-3c-.2-.1-.5-.1-.7 0l-4.6 2.6c-.2.1-.2.3 0 .4l5.3 3c.2.1.4.1.7 0zm29.5-17.5c.2.1.5.1.7 0l4.6-2.6c.2-.1.2-.3 0-.4l-5.3-3c-.2-.1-.5-.1-.7 0l-4.6 2.6c-.2.1-.2.3 0 .4l5.3 3zm-62.9 36.7l4.6-2.6c.2-.1.2-.3 0-.4l-5.3-3.1c-.2-.1-.5-.1-.7 0l-4.6 2.6c-.2.1-.2.3 0 .4l5.3 3c.1.3.4.3.7.1zm6.7-3.8l4.6-2.6c.2-.1.2-.3 0-.4l-5.3-3c-.2-.1-.5-.1-.7 0l-4.6 2.6c-.2.1-.2.3 0 .4l5.3 3c.1.1.4.1.7 0zm-13.4 7.7l4.6-2.6c.2-.1.2-.3 0-.4l-5.3-3c-.2-.1-.5-.1-.7 0l-4.6 2.6c-.2.1-.2.3 0 .4l5.3 3c.2.1.4.1.7 0zm26.7-15.4l4.6-2.6c.2-.1.2-.3 0-.4l-5.3-3c-.2-.1-.5-.1-.7 0l-4.6 2.6c-.2.1-.2.3 0 .4l5.3 3c.2.1.5.1.7 0zm-6.7 3.8l4.6-2.6c.2-.1.2-.3 0-.4l-5.3-3c-.2-.1-.5-.1-.7 0l-4.6 2.6c-.2.1-.2.3 0 .4l5.3 3.1c.2 0 .5 0 .7-.1zm13.4-7.7l4.6-2.6c.2-.1.2-.3 0-.4l-5.3-3c-.2-.1-.5-.1-.7 0l-4.6 2.6c-.2.1-.2.3 0 .4l5.3 3c.2.2.5.1.7 0zm30.5-57c.2.1.5.1.7 0l4.6-2.6c.2-.1.2-.3 0-.4l-1.4-.8c-.2-.1-.5-.1-.7 0l-4.6 2.6c-.2.1-.2.3 0 .4l1.4.8zm-32.8 21.2c.2.1.5.1.7 0l4.6-2.6c.2-.1.2-.3 0-.4l-5.3-3c-.2-.1-.5-.1-.7 0l-4.6 2.6c-.2.1-.2.3 0 .4l5.3 3zm13.3-7.7c.2.1.5.1.7 0l4.6-2.6c.2-.1.2-.3 0-.4l-5.3-3c-.2-.1-.5-.1-.7 0l-4.6 2.6c-.2.1-.2.3 0 .4l5.3 3zm-21.5 12.4c.2.1.5.1.7 0l4.6-2.6c.2-.1.2-.3 0-.4l-5.3-3c-.2-.1-.5-.1-.7 0l-4.6 2.6c-.2.1-.2.3 0 .4l5.3 3zm14.8-8.6c.2.1.5.1.7 0l4.6-2.6c.2-.1.2-.3 0-.4l-5.3-3c-.2-.1-.5-.1-.7 0l-4.6 2.6c-.2.1-.2.3 0 .4l5.3 3zM193 313.3c.2.1.5.1.7 0l4.6-2.6c.2-.1.2-.3 0-.4l-5.3-3c-.2-.1-.5-.1-.7 0l-4.6 2.6c-.2.1-.2.3 0 .4l5.3 3zm6.7-3.9c.2.1.5.1.7 0l4.6-2.6c.2-.1.2-.3 0-.4l-5.3-3.1c-.2-.1-.5-.1-.7 0l-4.6 2.7c-.2.1-.2.3 0 .4l5.3 3zm34.3-22c.2.1.5.1.7 0l4.6-2.6c.2-.1.2-.3 0-.4l-1.4-.8c-.2-.1-.5-.1-.7 0l-4.6 2.6c-.2.1-.2.3 0 .4l1.4.8zm20-11.6c.2.1.5.1.7 0l4.6-2.6c.2-.1.2-.3 0-.4l-1.4-.8c-.2-.1-.5-.1-.7 0l-4.6 2.6c-.2.1-.2.3 0 .4l1.4.8zm11.1 6.4c.2.1.5.1.7 0l4.6-2.6c.2-.1.2-.3 0-.4l-5.3-3c-.2-.1-.5-.1-.7 0l-4.6 2.6c-.2.1-.2.3 0 .4l5.3 3zm16.7 16.9l4.6-2.6c.2-.1.2-.3 0-.4l-5.3-3c-.2-.1-.5-.1-.7 0l-4.6 2.6c-.2.1-.2.3 0 .4l5.3 3c.2.2.5.2.7 0zm-41.1-15.6c.2.1.5.1.7 0l4.6-2.6c.2-.1.2-.3 0-.4l-1.4-.8c-.2-.1-.5-.1-.7 0l-4.6 2.6c-.2.1-.2.3 0 .4l1.4.8zm-54.4 33.6c.2.1.5.1.7 0l4.6-2.6c.2-.1.2-.3 0-.4l-5.3-3c-.2-.1-.5-.1-.7 0l-4.6 2.6c-.2.1-.2.3 0 .4l5.3 3z"/><path class="st3" d="M215.9 357.3l45.1-26c1.5-.8 3.4-.8 4.9 0l25.9 14.9c1.4.8 1.4 2 0 2.8l-45.1 26c-1.5.8-3.4.8-4.9 0l-25.9-14.9c-1.4-.8-1.4-2.1 0-2.8z"/><path class="st2" d="M67.2 340.9c.4.2.8.4 1.3.5-.5-.1-.9-.3-1.3-.5-.1-.1-.3-.1-.4-.2.1 0 .3.1.4.2z"/><path class="st8" d="M236.5 105c-.3-2.1-2-2.9-4.1-1.7L75.1 194.1c-1.2.7-2.2 1.8-2.9 3l-7.7-4.4c.7-1.3 1.7-2.3 2.9-3.1l157.3-90.8c3.6-2.3 8.3-1.2 10.6 2.4a8.9 8.9 0 011.2 3.8z"/><path class="st2" d="M74.4 341.3z"/><path class="st7" d="M359.7 323.1c-.2 2.8-1.7 5.3-4.1 6.8l-157.3 90.8c-1.3.7-2.7 1-4.1 1v-8.9c1.4 0 2.8-.3 4.1-1L355.6 321c2.1-1.2 2.3-3.1.4-4.5 2.2 1.6 3.5 4 3.7 6.6z"/></g></g><g id="freepik--Padlock--inject-77"><path class="st2" d="M460.4 245.4L442 234.8c-.4-.2-1-.1-1.7.5-.4.3-.8.6-1.1.8l-.4.3c-.3.2-.5.3-.8.5s-.4.2-.5.3l-.7.4-.6.3-.6.3-.7.3c-.2.1-.4.2-.6.2l-.8.3-.5.2-.8.3-.5.1-.9.2-.4.1c-.3.1-.6.1-.9.2l-.4.1-1 .1h-.3c-.3 0-.7.1-1 .1H423.9c-.4 0-.8 0-1.1-.1h-.1l-1.2-.2h-.1l-.5-.1-11.4-6.6c-.8-.5-1.6-.1-2.1 1.1-6.6 16.4-20.7 33.1-30.1 37.3-.2.1-.4.2-.5.3-.1.1-.2.1-.3.2l-.1.1-.4.4-.4.4c-.7.7-1 1.7-1 2.7l1.4 16.7c0 10.8 4.6 22.1 13.9 27.6l18.4 10.6.1.1c4.7 2.6 10.2 3.7 15.6 3 2-.3 3.9-1.3 5.4-2.7 20.6-21.2 30.5-50 30.5-65.9l1.4-18.4c-.4-.8-.6-1.3-.9-1.5z"/><path d="M427.6 243.9c-.4-.2-.8-.2-1.2.1l-.2.1c-.1.1-.2.2-.3.4-.1.2-.2.4-.3.5-1.7 4.2-3.8 8.3-6.2 12.2-2.1 3.4-4.4 6.7-6.8 9.8-1.2 1.5-2.4 2.9-3.6 4.3l-1 1.1-1 1c-.2.2-.3.4-.5.5-3.9 3.9-7.6 6.8-10.9 8.2-.6.2-1.1.6-1.5 1l-.4.4s0 .1-.1.1l.1-.1-18.4-10.6s0-.1.1-.1c0-.1.1-.1.1-.1l.1-.1.1-.1.1-.1.3-.3.1-.1c.1-.1.2-.2.3-.2.2-.1.4-.2.5-.3 9.4-4.2 23.5-20.8 30.1-37.3.4-.9.9-1.3 1.4-1.3.2 0 .5.1.7.2l11.3 6.7 7.1 4.1z" opacity=".4" fill="#fff"/><path d="M460.4 245.4L442 234.8c-.4-.2-1-.1-1.7.5-.4.3-.8.6-1.1.8l-.4.3c-.3.2-.5.3-.8.5s-.4.2-.5.3l-.7.4-.6.3-.6.3-.7.3-.6.3-.8.3-.5.2-.8.3-.5.1-.9.2-.4.1-.9.2-.4.1c-.3.1-.6.1-1 .1h-.3l-1 .1H423.9c-.4 0-.8-.1-1.2-.1h-.1c-.4 0-.8-.1-1.2-.1h-.1c-.2 0-.4-.1-.5-.1l6.8 3.9.1.1c.3.2.5.4.7.6l.1.1c7 8.2 20.8 8.2 30.1 1.1.8-.7 1.3-.9 1.8-.6z" opacity=".1"/><path class="st10" d="M407.7 330.6l-18.1-10.4c-9.3-5.4-13.9-16.8-13.9-27.6l-1.4-16.7c0-1.3.6-2.5 1.7-3.3l-.6.6 18.4 10.6c-.7.7-1 1.7-1 2.7l1.4 16.7c-.2 10.6 4.3 21.9 13.5 27.4z"/><path class="st2" d="M460.9 246.9l-1.4 18.4c0 15.9-10 44.6-30.5 65.9-1.5 1.4-3.3 2.4-5.4 2.7-5.4.7-10.8-.4-15.6-3l-.1-.1-.2-.1c-9.2-5.5-13.7-16.7-13.7-27.4l-1.4-16.7c0-1 .3-1.9 1-2.7.1-.1.2-.3.4-.4.4-.4.9-.8 1.5-1 3.2-1.4 7-4.3 10.9-8.2l.5-.5 1-1.1 1-1.1c1.2-1.4 2.4-2.8 3.6-4.3 2.5-3.1 4.8-6.4 6.8-9.8 2.4-3.9 4.5-7.9 6.2-12.2l.3-.6c.1-.1.2-.3.3-.4.1-.1.1-.1.2-.1.3-.2.8-.3 1.2-.1l.1.1c.3.2.5.4.7.6l.1.1c7 8.2 20.8 8.2 30.1 1.1.7-.5 1.3-.7 1.7-.5.1 0 .2.1.2.2.3.3.5.8.5 1.2z"/><path class="st8" d="M432.1 307.3l-10.9 6.3 1.7-19.8c-1.3-.7-2.1-2.4-2.1-4.8 0-4.4 2.6-9.4 5.9-11.3s5.9.1 5.9 4.5c-.1 2.6-.8 5.1-2.1 7.3l1.6 17.8z"/><path class="st6" d="M432.1 307.3l-9.9-5.8-1 12.1zM426.6 277.6c-2.4 1.6-4.2 4-5 6.7l8.8 5.1c1.3-2.2 2.1-4.7 2.1-7.3.1-4.4-2.6-6.4-5.9-4.5zM440.4 198.7c-3-1.8-6.9-1.6-10.5.5l-28.8 16.6c-6.1 3.9-9.9 10.5-10.2 17.6v35.2c.1.9.7 1.7 1.5 2.1 2.3 1.1 4.9 1.1 7.2 0 .8-.4 1.4-1.2 1.5-2.1v-35.2c.3-3.6 2.2-6.8 5.1-8.9L435 208v35.3c.1.9.7 1.7 1.5 2.1 2.3 1.1 4.9 1.1 7.2 0 .8-.4 1.4-1.2 1.5-2.1V208c0-4.1-1.8-7.6-4.8-9.3z"/><path class="st7" d="M435 208v35.2c.1.9.7 1.7 1.5 2.1.5.3 1 .5 1.5.6v-39.6l-3 1.7z"/></g><g id="freepik--text-boxes--inject-25"><g id="freepik--text-box--inject-25"><g id="freepik----inject-25_1_"><g id="freepik--speech-bubble--inject-25_2_"><g id="freepik--speach-bubble--inject-25"><path class="st7" d="M151.5 14.5L107.2 40c-.6.4-1.1 1.1-1.1 1.9v24.7c0 .8.4 1.5 1.1 1.9l4.4 2.5c.7.3 1.5.3 2.2 0l44.3-25.5c.6-.4 1.1-1.1 1.1-1.9V18.8c0-.8-.4-1.5-1.1-1.9l-4.4-2.5c-.7-.3-1.5-.3-2.2.1z"/><path class="st8" d="M159.2 18.6c-.1-.6-.5-.8-1.1-.4l-44.3 25.5c-.3.2-.6.5-.8.8l-6.6-3.8c.2-.3.4-.6.8-.8l44.3-25.5c.7-.3 1.5-.3 2.2 0l4.4 2.5c.6.4 1 1 1.1 1.7z"/><path class="st6" d="M158.1 18.2l-44.3 25.5c-.6.4-1 1.1-1.1 1.9v24.7c0 .7.5 1 1.1.6l44.3-25.5c.6-.4 1.1-1.1 1.1-1.9V18.8c0-.7-.5-1-1.1-.6z"/></g></g></g></g><g id="freepik--text-box--inject-25_3_"><g id="freepik----inject-25_4_"><g id="freepik--speech-bubble--inject-25_1_"><g id="freepik--speach-bubble--inject-25_3_"><path class="st7" d="M69.4 17.3l-53.9 31c-.8.5-1.3 1.4-1.3 2.3v30.1c0 1 .5 1.8 1.3 2.3l5.3 3c.8.4 1.8.4 2.7 0l53.9-31c.8-.5 1.3-1.4 1.3-2.3v-30c0-.9-.5-1.8-1.3-2.3l-5.3-3c-.8-.5-1.8-.5-2.7-.1z"/><path class="st8" d="M78.7 22.4c-.1-.7-.7-.9-1.3-.5l-53.9 31c-.4.2-.7.6-1 1l-8-4.6c.2-.4.5-.8.9-1l53.9-31c.8-.4 1.8-.4 2.7 0l5.3 3c.8.5 1.3 1.3 1.4 2.1z"/><path class="st6" d="M77.4 21.9l-53.9 31c-.8.5-1.3 1.4-1.3 2.3v30.1c0 .8.6 1.2 1.3.8l53.9-31c.8-.5 1.3-1.4 1.3-2.3V22.7c.1-.9-.5-1.2-1.3-.8z"/></g></g></g></g><g id="freepik--text-box--inject-25_1_"><g id="freepik----inject-25_2_"><g id="freepik--speech-bubble--inject-25_3_"><g id="freepik--speach-bubble--inject-25_1_"><path class="st7" d="M104.5 87.7l-53.9 31c-.8.5-1.3 1.4-1.3 2.3v30.1c.1.9.5 1.8 1.3 2.3l5.3 3c.8.4 1.8.4 2.7 0l53.9-31c.8-.5 1.3-1.4 1.3-2.3V93c-.1-.9-.5-1.8-1.3-2.3l-5.3-3c-.9-.5-1.8-.4-2.7 0z"/><path class="st8" d="M113.8 92.8c-.1-.7-.7-.9-1.3-.5l-53.9 31c-.4.2-.7.6-1 1l-8-4.6c.2-.4.5-.7.9-.9l53.9-31c.8-.4 1.8-.4 2.7 0l5.3 3c.8.3 1.3 1.1 1.4 2z"/><path class="st6" d="M112.5 92.2l-53.9 31c-.8.5-1.3 1.4-1.3 2.3v30.1c0 .9.6 1.2 1.3.8l53.9-31c.8-.5 1.3-1.4 1.3-2.3V93c.1-.9-.5-1.2-1.3-.8z"/></g></g></g></g><g id="freepik--text-box--inject-25_2_"><g id="freepik----inject-25_3_"><g id="freepik--speech-bubble--inject-25_4_"><g id="freepik--speach-bubble--inject-25_2_"><path class="st7" d="M199.9 58.3L146 89.4c-.8.5-1.3 1.4-1.3 2.3v30.1c0 .9.5 1.8 1.3 2.3l5.3 3c.8.4 1.8.4 2.7 0L207.9 96c.8-.5 1.3-1.4 1.3-2.3V63.6c0-.9-.5-1.8-1.3-2.3l-5.3-3c-.8-.5-1.8-.5-2.7 0z"/><path class="st8" d="M209.3 63.3c-.1-.7-.7-.9-1.3-.5l-53.9 31c-.4.2-.7.6-1 1l-8-4.6c.2-.4.5-.8.9-1l53.9-31c.8-.4 1.8-.4 2.7 0l5.3 3c.8.5 1.3 1.3 1.4 2.1z"/><path class="st6" d="M207.9 62.8l-53.9 31c-.8.5-1.3 1.4-1.3 2.3v30.1c0 .9.6 1.2 1.3.8l53.9-31.1c.8-.5 1.3-1.4 1.3-2.3v-30c.1-.9-.5-1.2-1.3-.8z"/></g></g></g></g></g><path class="st4" d="M70.8 136.8l2.3-1.8c.2 1 .5 1.5.9 1.8.4.2 1 .1 1.8-.4s1.3-1.1 1.7-1.8c.4-.7.6-1.3.5-1.9 0-.4-.1-.6-.3-.8-.2-.2-.5-.2-.9-.1-.3 0-.9.2-1.9.5-1.3.4-2.2.4-2.8.1-.8-.4-1.2-1.3-1.2-2.5 0-.8.1-1.7.4-2.6.3-.9.8-1.8 1.4-2.5.6-.8 1.4-1.4 2.3-2 1.5-.9 2.6-1.2 3.4-.8.8.4 1.2 1.3 1.3 2.8l-2.4 1.6c-.1-.8-.4-1.2-.7-1.3-.3-.1-.9 0-1.5.4-.7.4-1.2 1-1.6 1.6-.2.4-.4.8-.3 1.2 0 .4.1.6.4.7.3.1 1.1 0 2.2-.3 1.2-.4 2.1-.5 2.6-.5.6 0 1 .3 1.4.8.3.5.5 1.2.6 2.2 0 .9-.1 1.9-.5 2.9s-.9 2-1.5 2.8c-.7.8-1.5 1.6-2.6 2.2-1.5.9-2.7 1.2-3.5.8-.7-.4-1.2-1.4-1.5-3.1zM81.9 129.8l2.3-1.8c.2 1 .5 1.5.9 1.8.4.2 1 .1 1.8-.4s1.3-1.1 1.7-1.8c.4-.7.6-1.3.5-1.9 0-.4-.1-.6-.3-.8-.2-.2-.5-.2-.9-.1-.3 0-.9.2-1.9.5-1.3.4-2.2.4-2.8.1-.8-.4-1.2-1.2-1.2-2.5 0-.8.1-1.7.4-2.6.3-.9.8-1.8 1.4-2.5.6-.8 1.4-1.4 2.3-2 1.5-.9 2.6-1.2 3.4-.8.8.4 1.2 1.3 1.3 2.8l-2.4 1.6c-.1-.8-.4-1.2-.7-1.3s-.9 0-1.5.4c-.7.4-1.2 1-1.6 1.6-.2.4-.4.8-.3 1.2 0 .4.1.6.4.7.3.1 1.1 0 2.2-.3 1.2-.4 2.1-.5 2.6-.5.6 0 1 .3 1.4.8.3.5.5 1.2.6 2.2 0 .9-.1 1.9-.5 2.9s-.9 2-1.5 2.8c-.7.8-1.5 1.6-2.6 2.2-1.5.9-2.7 1.2-3.5.8-.8-.4-1.3-1.4-1.5-3.1zM93.8 127.6l-.5-15.7 2.4-1.5.4 13.1 6-3.8.1 2.7-8.4 5.2zM24.7 69.2l1.2-.9c.1.5.2.8.5.9.2.1.5.1.9-.2.4-.2.7-.5.9-.9.2-.4.3-.7.3-1 0-.2 0-.3-.1-.4-.1-.1-.2-.1-.5-.1-.1 0-.5.1-1 .2-.7.2-1.2.2-1.4 0-.4-.2-.6-.7-.6-1.3 0-.4.1-.9.3-1.4.2-.5.4-.9.8-1.3.3-.4.8-.7 1.2-1 .8-.5 1.4-.6 1.8-.4.4.2.6.7.6 1.5l-1.3.8c-.1-.4-.2-.6-.4-.7-.2-.1-.5 0-.8.2-.4.2-.7.5-.9.8-.1.2-.2.4-.2.6 0 .2.1.3.2.4.2.1.6 0 1.2-.1s1.1-.2 1.4-.2c.3 0 .5.2.7.4.2.3.3.6.3 1.2 0 .5-.1 1-.3 1.5-.2.5-.5 1-.8 1.4-.4.4-.8.8-1.4 1.1-.8.5-1.4.6-1.8.4-.4-.1-.7-.6-.8-1.5zM33.6 64.7l1.2-.4c-.2.7-.4 1.3-.7 1.8-.3.5-.8.9-1.3 1.2-.8.5-1.4.5-1.8 0-.3-.4-.5-1-.5-1.8 0-1 .2-1.9.6-2.7.4-.8.9-1.4 1.5-1.7.7-.4 1.2-.4 1.6-.1s.6 1.2.6 2.4l-3 1.8c0 .5.1.8.3.9.2.2.4.1.7 0 .2-.1.3-.3.5-.5.1-.3.2-.5.3-.9zm.1-1.6c0-.5-.1-.8-.3-.9-.2-.1-.4-.1-.6 0-.3.2-.5.4-.7.8-.2.4-.3.8-.2 1.2l1.8-1.1zM37 64.6l-1.2.7v-6l1.1-.7v.9c.2-.5.4-.9.5-1.1.2-.2.3-.4.5-.5.3-.2.5-.2.8-.2l-.4 1.6c-.2-.1-.4 0-.6.1-.2.1-.3.2-.4.4-.1.2-.2.5-.3.8.1.4 0 1.1 0 2.2v1.8zM40.6 62.5l-1.9-4.9 1.3-.8.9 2.6.3.9c.1-.3.1-.5.1-.6 0-.2.1-.4.1-.6l.9-3.6 1.2-.7-1.8 7.1-1.1.6zM46.9 56.9l1.2-.4c-.2.7-.4 1.3-.7 1.8-.3.5-.8.9-1.3 1.2-.8.5-1.4.5-1.8 0-.3-.4-.5-1-.5-1.8 0-1 .2-1.9.6-2.7.4-.8.9-1.4 1.5-1.7.7-.4 1.2-.4 1.6-.1s.6 1.2.6 2.4l-3 1.8c0 .5.1.8.3.9.2.2.4.1.7 0 .2-.1.3-.3.5-.5l.3-.9zm0-1.7c0-.5-.1-.8-.3-.9-.2-.1-.4-.1-.6 0-.3.2-.5.4-.7.8s-.3.8-.2 1.2l1.8-1.1zM50.3 56.8l-1.2.7v-6l1.1-.7v.9c.2-.5.4-.9.5-1.1.2-.2.3-.4.5-.5.3-.2.5-.2.8-.2l-.4 1.6c-.2-.1-.4 0-.6.1-.2.1-.3.2-.4.4-.1.2-.2.5-.3.8-.1.4-.1 1.1-.1 2.1l.1 1.9zM54.7 51.5l1.2-.9c.1.5.2.8.5.9.2.1.5.1.9-.2.4-.2.7-.5.9-.9.2-.4.3-.7.3-1 0-.2 0-.3-.1-.4-.1-.1-.2-.1-.5-.1-.2 0-.5.1-1 .2-.7.2-1.2.2-1.4 0-.4-.2-.6-.7-.6-1.3 0-.4.1-.9.3-1.4.2-.5.4-.9.8-1.3.3-.4.8-.7 1.2-1 .8-.5 1.4-.6 1.8-.4.4.2.6.7.6 1.5l-1.3.8c-.1-.4-.2-.6-.4-.7-.2-.1-.5 0-.8.2-.4.2-.7.5-.9.8-.1.2-.2.4-.2.6 0 .2.1.3.2.4.2.1.6 0 1.2-.1.6-.2 1.1-.2 1.4-.2.3 0 .5.2.7.4.2.3.3.6.3 1.2 0 .5-.1 1-.3 1.5-.2.5-.5 1-.8 1.4-.4.4-.8.8-1.4 1.1-.8.5-1.4.6-1.8.4-.5-.1-.7-.7-.8-1.5zM60.9 43.6v-1.5l1.2-.7v1.5l-1.2.7zm0 6.9v-6l1.2-.7v6l-1.2.7zM67.6 46.5l-1.1.7v-.9c-.2.5-.4.8-.7 1.2-.3.3-.5.6-.8.7-.5.3-1 .3-1.4 0-.4-.3-.6-1-.6-2s.2-1.9.5-2.7c.4-.7.8-1.3 1.4-1.6.5-.3 1-.3 1.3.1v-3l1.2-.7.2 8.2zm-3.3-1.2c0 .6.1 1.1.2 1.3.2.3.5.3.8.1.3-.2.5-.5.7-.9s.3-1 .3-1.6c0-.7-.1-1.1-.3-1.3-.2-.2-.4-.2-.7 0-.3.2-.5.5-.7.9s-.3.9-.3 1.5zM71.4 42.3l1.2-.4c-.2.7-.4 1.3-.7 1.8-.3.5-.8.9-1.3 1.2-.8.5-1.4.5-1.8 0-.3-.4-.5-1-.5-1.8 0-1 .2-1.9.6-2.7s.9-1.4 1.5-1.7c.7-.4 1.2-.4 1.6-.1.4.4.6 1.2.6 2.4l-3 1.8c0 .5.1.8.3.9.2.2.4.1.7 0 .2-.1.3-.3.5-.5s.2-.5.3-.9zm.1-1.6c0-.5-.1-.8-.3-.9-.2-.1-.4-.1-.6 0-.3.2-.5.4-.7.8-.2.4-.3.8-.2 1.2l1.8-1.1z"/><g><path class="st4" d="M166.3 109.6l3.8-10.8-3.9-5.3 2.8-1.8 2.6 3.6 2.2-6.6 2.8-1.7-3.6 10 4.3 5.6-2.9 1.8-2.8-3.8-2.5 7.1-2.8 1.9zM177.8 97.1l2.3-1.8c.2 1 .5 1.5.9 1.8.4.2 1 .1 1.8-.4s1.3-1.1 1.7-1.8c.4-.7.6-1.3.5-1.9 0-.4-.1-.6-.3-.8-.2-.2-.5-.2-.9-.1-.3 0-.9.2-1.9.5-1.3.4-2.2.4-2.8.1-.8-.4-1.2-1.3-1.2-2.5 0-.8.1-1.7.4-2.6.3-.9.8-1.8 1.4-2.5.6-.8 1.4-1.4 2.3-2 1.5-.9 2.6-1.2 3.4-.8.8.4 1.2 1.3 1.3 2.8l-2.4 1.6c-.1-.8-.4-1.2-.7-1.3-.3-.1-.9 0-1.5.4-.7.4-1.2 1-1.6 1.6-.2.4-.4.8-.3 1.2 0 .4.1.6.4.7.3.1 1.1 0 2.2-.3 1.2-.4 2.1-.5 2.6-.5.6 0 1 .3 1.4.8.3.5.5 1.2.6 2.2 0 .9-.1 1.9-.5 2.9s-.9 2-1.5 2.8c-.7.8-1.5 1.6-2.6 2.2-1.5.9-2.7 1.2-3.5.8-.7-.4-1.3-1.5-1.5-3.1zM188.9 90.1l2.3-1.8c.2 1 .5 1.5.9 1.8.4.2 1 .1 1.8-.4s1.3-1.1 1.7-1.8c.4-.7.6-1.3.5-1.9 0-.4-.1-.6-.3-.8-.2-.2-.5-.2-.9-.1-.3 0-.9.2-1.9.5-1.3.4-2.2.4-2.8.1-.8-.4-1.2-1.2-1.2-2.5 0-.8.1-1.7.4-2.6.3-.9.8-1.8 1.4-2.5.6-.8 1.4-1.4 2.3-2 1.5-.9 2.6-1.2 3.4-.8.8.4 1.2 1.3 1.3 2.8l-2.4 1.6c-.1-.8-.4-1.2-.7-1.3-.3-.1-.9 0-1.5.4-.7.4-1.2 1-1.6 1.6-.2.4-.4.8-.3 1.2 0 .4.1.6.4.7.3.1 1.1 0 2.2-.3 1.2-.4 2.1-.5 2.6-.5.6 0 1 .3 1.4.8.3.5.5 1.2.6 2.2 0 .9-.1 1.9-.5 2.9s-.9 2-1.5 2.8c-.7.8-1.5 1.6-2.6 2.2-1.5.9-2.7 1.2-3.5.8s-1.3-1.4-1.5-3.1z"/></g><g><path class="st4" d="M124.5 53.8l1.9-1.5c.1.8.4 1.3.8 1.5.4.2.9.1 1.5-.3s1.1-.9 1.4-1.5c.3-.6.5-1.1.4-1.6 0-.3-.1-.5-.2-.7-.1-.1-.4-.2-.7-.1-.2 0-.8.2-1.6.4-1.1.3-1.9.4-2.3.1-.6-.3-1-1-1-2.1 0-.7.1-1.4.4-2.2.3-.8.7-1.5 1.2-2.1.5-.6 1.2-1.2 1.9-1.7 1.2-.8 2.2-1 2.9-.7.7.3 1 1.1 1.1 2.3l-2 1.4c-.1-.6-.3-1-.6-1.1-.3-.1-.7 0-1.3.4-.6.4-1 .8-1.4 1.3-.2.3-.3.7-.3 1 0 .3.1.5.3.6.3.1.9 0 1.9-.3s1.7-.4 2.2-.4c.5 0 .9.3 1.1.7.3.4.4 1 .5 1.9 0 .8-.1 1.6-.4 2.4-.3.9-.7 1.6-1.3 2.3-.6.7-1.3 1.3-2.1 1.8-1.3.8-2.2 1-2.9.7-.8-.2-1.2-1.1-1.4-2.5zM142.4 45.2c.5.2 1.1.2 1.6.1l-.7 2.4c-.3.1-.6.1-.9.1-.1 0-.5-.1-1.4-.3-.6.8-1.4 1.4-2.1 1.9-1.5 1-2.7 1.1-3.7.5-.9-.7-1.4-2.1-1.5-4.3-.1-2.2.3-4.1 1.1-5.9.8-1.8 2-3.1 3.5-4 1.5-.9 2.7-1.1 3.6-.4.9.7 1.4 2.1 1.5 4.3 0 1.2 0 2.2-.3 3.3-.1.6-.3 1.4-.7 2.3zm-1.7-.5c.2-.6.4-1.2.5-1.8.1-.7.2-1.4.1-2.1-.1-1.5-.3-2.5-.9-3-.5-.4-1.2-.4-2 .1s-1.5 1.3-2 2.4c-.5 1.1-.7 2.4-.6 3.9.1 1.6.3 2.6.9 3 .5.5 1.2.4 2-.1.3-.2.6-.4.8-.7-.4-.1-.8-.1-1.3-.1l.5-1.9c.7 0 1.4.1 2 .3zM145.3 45.1l-.4-13.2 2-1.3.4 11 5-3.1.1 2.2-7.1 4.4z"/></g><g><path class="st4" d="M166.9 214.6l.1-7.4c-.9.5-1.6 1.8-1.6 2.9l-.1 6.6c0 1 .6 1.5 1.4 1.1l6.7-3.8c.9-.5 1.6-1.8 1.6-2.9l-7.3 4.2c-.4.1-.8-.1-.8-.7zM163.2 214.2l-.1.1v2.4c0 .7-.4 1.5-1 1.8l-.3.2c-.5.3-.9 0-.9-.7v-2.4l-1.5.9v3c0 1.5.9 2.1 2 1.5l1.2-.7c1.1-.6 2-2.3 2.1-3.8v-1.2c-.1-1.1-.7-1.6-1.5-1.1z"/><path class="st4" d="M159.4 216.4v2.5c0 .6-.4 1.3-.8 1.6l-5.2 3v2l5.2-2.9c1.3-.8 2.5-2.8 2.5-4.6v-2.4l-1.7.8z"/><path class="st4" d="M147.8 223v2.5c0 .6.4.9.8.6l5.2-3v2l-5.2 2.9c-1.3.8-2.4 0-2.4-1.8v-2.4l1.6-.8z"/><path class="st4" d="M146.2 223.9v2.5c0 .6-.4 1.3-.8 1.6l-3.3 1.9v2l3.3-1.9c1.3-.8 2.5-2.8 2.5-4.6V223l-1.7.9zM153.2 217.9l-1.9 1.1c-1.2.7-1.8 1.5-1.8 3l3.3-1.9c.8-.4 1.4 0 1.4 1s-.6 2.1-1.4 2.6l-2.9 1.7c.1 1.1.5 1.7 1.6 1.1l1.7-1c1.4-.8 2.6-3 2.6-4.8v-.9c-.1-1.8-1.2-2.7-2.6-1.9z"/><path class="st4" d="M140.6 228.3l1.4-2s1.9 2.5.1 7.3c-1.8 4.7-5.8 6.1-6.9 4.4-1.1-1.7-.3-5-.3-5l1.4-.4s-.5 2.9.5 3.4c1.1.6 3.8-1 4.3-4.2.5-2.4-.5-3.5-.5-3.5z"/><ellipse transform="rotate(-65.55 136.007 230.984)" class="st4" cx="136" cy="231" rx="1.5" ry=".8"/><ellipse transform="rotate(-65.55 144.127 232.785)" class="st4" cx="144.1" cy="232.8" rx="1.5" ry=".8"/><ellipse transform="rotate(-65.55 146.045 231.692)" class="st4" cx="146" cy="231.7" rx="1.5" ry=".8"/><ellipse transform="rotate(-65.55 161.172 223.066)" class="st4" cx="161.2" cy="223.1" rx="1.5" ry=".8"/><ellipse transform="rotate(-65.55 163.09 221.973)" class="st4" cx="163.1" cy="222" rx="1.5" ry=".8"/><ellipse transform="rotate(-65.55 150.275 229.28)" class="st4" cx="150.3" cy="229.3" rx="1.5" ry=".8"/><ellipse transform="rotate(-65.55 152.192 228.186)" class="st4" cx="152.2" cy="228.2" rx="1.5" ry=".8"/><ellipse transform="rotate(-65.55 150.358 223.38)" class="st4" cx="150.4" cy="223.4" rx="1.5" ry=".8"/><ellipse transform="rotate(-65.55 152.276 222.287)" class="st4" cx="152.3" cy="222.3" rx="1.5" ry=".8"/><ellipse transform="rotate(-65.55 154.11 227.093)" class="st4" cx="154.1" cy="227.1" rx="1.5" ry=".8"/><path class="st4" d="M135.4 227.2c-.1.1-.2.1-.3.2s-.2 0-.2 0v-.4h.2c.1 0 .2-.1.3-.1.2-.1.3-.3.3-.4v-.1h-.1-.1H134.9s-.1-.1-.1-.2v-.2c0-.1.1-.2.1-.3.1-.1.1-.2.2-.2.1-.1.2-.2.3-.2.1 0 .1-.1.2-.1s.1 0 .2-.1h.2v.4c-.2 0-.4 0-.5.1l-.1.1-.1.1-.1.1v.2H136l.1.1v.4c0 .1 0 .2-.1.2 0 .1-.1.2-.2.3-.1 0-.2 0-.4.1zM139 225.2l-.3.2v-2l.3-.2v2zM142.8 221.4l-.5.3v1.6l-.3.2v-1.6l-.5.3v-.3l1.3-.8v.3zM146.5 220.9l-1.2.7v-2l1.1-.6v.3l-.8.5v.4l.6-.4v.3l-.6.4v.5l.8-.5.1.4zM152.6 217.4c-.1.1-.2.1-.4.1-.1 0-.2 0-.3-.1-.1 0-.1-.1-.2-.2 0-.1-.1-.2-.1-.4s0-.3.1-.5c0-.1.1-.3.2-.4.1-.1.2-.3.3-.4.1-.1.2-.2.4-.3.2-.1.4-.2.5-.2v.4c-.2 0-.3.1-.5.2-.1 0-.2.1-.2.2l-.2.2c0 .1-.1.2-.1.3v.6c0 .1.1.1.1.2h.2c.1 0 .1 0 .2-.1s.3-.2.5-.4v.3c-.1.3-.3.4-.5.5zM157.2 214.8l-.3.2v-.8l-.8.5v.8l-.3.2v-2l.3-.2v.8l.8-.5v-.8l.3-.2v2zM160.2 213.1l-.3.2v-2l.3-.2v2zM164.2 210.8l-.3.2-.8-.9v1.3l-.3.2v-2l.3-.2.7.8v-1.3l.3-.2.1 2.1z"/></g></svg>