<svg version="1.1" id="Layer_1" xmlns="http://www.w3.org/2000/svg" x="0" y="0" viewBox="0 0 500 500" xml:space="preserve"><style>.st0{fill:#f5f5f5}.st2{fill:#263238}.st3{fill:#455a64}.st4{fill:#37474f}.st5{fill:#e0e0e0}.st6{fill:#fff}.st7{fill:#06826a}.st8{fill:#ebebeb}.st9{fill:#fafafa}.st10{fill:#ff4c00}.st11{opacity:.1}.st11,.st12,.st14{enable-background:new}.st12{fill:#fff;opacity:.4}.st14{opacity:.15}.st16{fill:#ffa8a7}.st18{fill:#f28f8f}</style><path class="st0" d="M401.8 426.6c-81.3 39.9-213 39.9-294.3 0s-81.3-104.5 0-144.4 213-39.9 294.3 0 81.3 104.5 0 144.4z" id="freepik--Floor--inject-262"/><ellipse cx="117.1" cy="382.9" rx="47.6" ry="23.3" fill="#e6e6e6" id="freepik--Shadow--inject-262"/><g id="freepik--Device--inject-262"><g id="freepik--device--inject-262"><path class="st2" d="M255.9 247.3l37.5 21.6c1.5 1 2.6 2.5 3 4.3l9.3 53.8c.2 1.7-.6 3.4-2 4.3l-24.2 14c-1.6.8-3.4.8-5 0l-51.7-29.8c-2.3-1.2-3.2-4.1-2-6.4.4-.8 1.1-1.5 2-2l18.5-10.8c1.5-1 2.5-2.6 2.8-4.4l4.2-40.6c.3-1.7 1.2-3.3 2.7-4.3 1.6-.6 3.4-.5 4.9.3z"/><path class="st3" d="M277.1 335.9V346c-.9 0-1.7-.2-2.5-.6l-51.7-29.8c-1.5-.9-2.4-2.5-2.5-4.2.1-1 .4-1.9 1-2.7h8.5l47.2 27.2z"/><path class="st2" d="M251.2 250l37.5 21.7c1.5 1 2.6 2.5 3 4.3l8.5 48.8c.2 1.7-.6 3.4-2 4.3l-18.6 10.7c-1.6.8-3.4.8-5 0L222.9 310c-1.4-.8-1.4-2.1 0-2.9l18.6-10.7c1.5-1 2.5-2.6 2.8-4.4l4.2-40.6c0-1 .8-1.8 1.7-1.8.3.1.7.2 1 .4z"/><path class="st4" d="M222.9 307.1l18.6-10.7c.7-.5 1.4-1.1 1.9-1.9l56.6 32.7c-.3.8-.9 1.5-1.7 2l-18.6 10.7c-1.6.8-3.4.8-5 0L222.9 310c-1.5-.8-1.5-2.1 0-2.9z"/><path class="st3" d="M375.1 354.3l2.4-1.4c2.1-1.4 3.4-3.6 3.5-6.1v-161c-.1-2.5-1.4-4.7-3.5-6.1l-196.8-113c-2.2-1.1-4.8-1.1-7.1 0l-1.8 1c-2.1 1.4-3.4 3.6-3.5 6.1v161.1c.1 2.5 1.4 4.8 3.5 6.1L368 354.3c2.3 1.1 4.9 1.1 7.1 0z"/><path class="st2" d="M366.9 189.9l13.1-7.6c.6 1.1 1 2.3 1 3.5v161c-.1 2.5-1.4 4.8-3.5 6.1l-2.4 1.4c-2.2 1.1-4.8 1.1-7.1 0l-1.2-.7.1-163.7z"/><path class="st4" d="M371.6 352.3v-161c-.1-2.5-1.4-4.8-3.5-6.1L171.9 71.8c-2-1.1-3.5-.2-3.5 2v161.1c.1 2.5 1.4 4.8 3.5 6.1l196.2 113.3c1.9 1.1 3.5.2 3.5-2z"/><path class="st5" d="M279.4 292.2l-18.6-10.7c-1.4-.8-2.5-.2-2.5 1.3.1 1.7 1.1 3.3 2.5 4.2l18.6 10.7c1.4.8 2.5.2 2.5-1.3-.1-1.7-1-3.3-2.5-4.2z"/><path class="st6" d="M362.5 190L177.8 83c-1.1-.6-2-.1-2 1.2v140.4c.1 1.4.8 2.7 2 3.5l184.8 106.7c1.1.6 2 .1 2-1.2v-140c-.1-1.5-.9-2.8-2.1-3.6z"/></g></g><g id="freepik--Window--inject-262"><g id="freepik--Tab--inject-262"><path class="st5" d="M349.2 193.5l-193.9-112c-3.1-1.8-5.6-.3-5.6 3.2v126.6c.1 1.8 1.1 3.5 2.6 4.5l197.9 114.3c1.4.8 2.6.1 2.6-1.5V199.8c-.1-2.6-1.5-4.9-3.6-6.3z"/><path class="st7" d="M149.7 87.7v-2.9c0-3.6 2.5-5 5.6-3.2l193.9 112c2.1 1.4 3.5 3.7 3.6 6.2v5.2L149.7 87.7z"/><path class="st6" d="M173.2 94.4c1.1.7 1.8 2 1.9 3.3 0 1.2-.9 1.7-1.9 1.1-1.1-.7-1.9-2-1.9-3.3 0-1.3.8-1.8 1.9-1.1zM165.5 90c1.1.7 1.8 2 1.9 3.3 0 1.2-.9 1.7-1.9 1.1-1.1-.7-1.9-2-1.9-3.3 0-1.3.8-1.8 1.9-1.1zM157.9 85.5c1.1.7 1.9 2 1.9 3.3 0 1.2-.9 1.7-1.9 1.1-1.1-.7-1.8-2-1.9-3.3 0-1.2.8-1.7 1.9-1.1z"/></g></g><g id="freepik--Charts--inject-262"><g id="freepik--Graphics--inject-262"><path class="st8" d="M162 109.9c.2-.5.7-.7 1.3-.4l123.3 71.2c.4.2.7.6.9 1l4.1-2.4c-.2-.4-.5-.8-.9-1l-123.3-71.2c-.8-.4-1.8-.4-2.6 0l-1.5.8c-.7.6-1.2 1.3-1.3 2z"/><path class="st9" d="M161.9 110.3v53.3c0 .9.5 1.8 1.3 2.3l123.3 71.2.2.1c.1 0 .2.1.2.1.5.1.8-.3.8-.9V183c0-.5-.1-.9-.4-1.3-.2-.4-.5-.8-.9-1l-123.3-71.2c-.6-.3-1.1-.2-1.3.4v.1c.1.1.1.2.1.3z"/><path class="st5" d="M287 237.2c.4.1.8.2 1.2.1.3 0 .6-.1.9-.3l1.5-.8c.8-.5 1.2-1.3 1.3-2.3v-53.3c0-.5-.1-.9-.4-1.3l-4.1 2.4c.2.4.4.8.4 1.3v53.3c0 .7-.3 1-.8.9z"/><path class="st10" d="M165.5 144.2c-.2.1-.3.4-.2.7l4.9 9.6c.1 1.6 1 3 2.3 3.8.4.2.7.3 1.2.4.3 0 .5-.1.8-.2.5-.3.8-.8.8-1.3l8.4-1.4c.2 1.4 1 2.6 2.2 3.4.4.2.8.3 1.2.3.3 0 .5-.1.8-.2.6-.4.9-1.1.8-1.8 0-.7-.2-1.3-.5-1.9l10.6-9.7c.3.5.8.9 1.3 1.2.3.2.6.3 1 .3l7.7 23.2c-.2.4-.4.8-.4 1.3.1 1.6.9 3.1 2.3 4 .3.2.7.3 1.2.4.3 0 .5-.1.8-.2.6-.4.9-1.1.8-1.8 0-.3 0-.7-.1-1l8.9-6.4c.3 1.1 1.1 2.1 2.1 2.7.4.2.7.3 1.2.4.1 0 .3 0 .4-.1l7.2 21.2c-.5.4-.8 1-.8 1.7.1 1.6.9 3.1 2.3 3.9.4.2.7.3 1.2.4.3 0 .5-.1.8-.2.4-.2.6-.6.7-1l11.3 6.5c.2 1.5 1 2.8 2.3 3.6.3.2.7.3 1.2.4.3 0 .5-.1.8-.2.6-.4.9-1.1.8-1.8v-.1l7.5-3c.4 1 1.1 1.8 1.9 2.4.4.2.8.3 1.2.3.3 0 .5-.1.8-.2l8.3 15.8c-.2.4-.3.8-.3 1.2.1 1.6.9 3.1 2.3 4 .4.2.8.3 1.2.3.3 0 .5-.1.8-.2.4-.2.6-.6.7-1l5.5 3.2c.1 0 .2.1.3.1.2 0 .3-.1.4-.3.1-.2.1-.5-.2-.7l-5.9-3.5c-.2-1.5-1-2.8-2.3-3.6-.5-.3-1.1-.4-1.7-.3l-8.4-16.1c.1-.3.2-.6.1-.9-.1-1.6-.9-3.1-2.3-3.9-.4-.3-.8-.4-1.3-.4-.9.1-1.6 1-1.5 2 0 .2 0 .4.1.6l-7.4 3c-.3-1.2-1.1-2.2-2.1-2.8-.6-.4-1.3-.5-1.9-.1-.4.2-.6.6-.7 1l-11.4-6.5c-.2-1.5-1-2.8-2.3-3.6-.3-.2-.6-.3-1-.3l-7.4-21.5c.2-.4.4-.8.4-1.3-.1-1.6-.9-3.1-2.3-4-.4-.3-.8-.4-1.3-.4-.9.1-1.6 1-1.5 2v.1l-9.1 6.6c-.4-.8-1-1.5-1.8-2-.5-.3-1-.4-1.6-.3l-7.5-22.7c.6-.4.9-1 .8-1.7-.1-1.6-.9-3.1-2.3-3.9-.4-.3-.8-.4-1.3-.4-.9.1-1.6 1-1.5 2 0 .7.2 1.3.5 1.9l-10.6 9.7c-.3-.5-.8-.9-1.3-1.2-.6-.4-1.3-.4-1.9-.1-.5.3-.8.8-.8 1.3l-8.4 1.4c-.2-1.4-1.1-2.6-2.2-3.4-.6-.4-1.3-.4-1.9-.1-.2.1-.3.3-.5.4l-4.4-8.6c-.2-.5-.5-.6-.8-.4.1 0 0 0 0 0zM274 220.8c0-.3.1-.7.4-.9.1 0 .2-.1.3-.1.2 0 .5.1.6.2 1 .7 1.7 1.8 1.8 3.1 0 .3-.1.7-.4.9-.3.1-.7.1-.9-.1-1.1-.7-1.8-1.8-1.8-3.1zm-10.5-18c-1-.7-1.7-1.8-1.8-3.1 0-.3.1-.7.3-.9.1 0 .2-.1.3-.1.2 0 .5.1.7.2 1 .7 1.7 1.8 1.8 3.1 0 .3-.1.7-.4.9-.2.2-.6.1-.9-.1zm-12.1 2.4c-1.1-.7-1.7-1.9-1.8-3.1 0-.3.1-.7.3-.9.1 0 .2-.1.3-.1.2 0 .5.1.7.2 1.1.7 1.7 1.9 1.8 3.1 0 .3-.1.7-.3.9-.4.1-.8.1-1-.1zm-18.1-12.5c0-.3.1-.7.4-.9.1 0 .2-.1.3-.1.2 0 .5.1.6.2 1 .7 1.7 1.8 1.8 3.1 0 .3-.1.7-.4.9-.3.1-.7.1-.9-.1-1-.7-1.7-1.9-1.8-3.1zM223 165.6c0-.3.1-.7.4-.9.1 0 .2-.1.3-.1.2 0 .5.1.6.2 1 .7 1.7 1.8 1.8 3.1 0 .3-.1.6-.2.8l-.1.1c-.3.1-.7.1-.9-.1-1.2-.7-1.8-1.8-1.9-3.1zm-13.6 6.3c0-.3.1-.6.3-.8l.1-.1c.1 0 .2-.1.3-.1.2 0 .5.1.7.2 1 .7 1.7 1.8 1.8 3.1 0 .3-.1.7-.3.9-.3.1-.7.1-.9-.1-1.3-.7-1.9-1.9-2-3.1zm-10.6-28.7c0-.3.1-.7.3-.9.1 0 .2-.1.3-.1.2 0 .5.1.7.2 1 .7 1.7 1.8 1.8 3.1 0 .3-.1.7-.4.9-.3.1-.7.1-.9-.1-1.1-.7-1.7-1.8-1.8-3.1zm-14.2 12c0-.4.1-.8.3-.9.1 0 .2-.1.3-.1.2 0 .5.1.7.2 1 .7 1.7 1.8 1.8 3.1 0 .3-.1.7-.3.9-.3.1-.7.1-.9-.1-1.2-.7-1.8-1.8-1.9-3.1zm-11.6 2.2c-1-.7-1.7-1.8-1.8-3 0-.3.1-.7.4-.9.1 0 .2-.1.3-.1.2 0 .5.1.6.2 1 .7 1.7 1.8 1.8 3.1 0 .3-.1.7-.4.9-.3.1-.6.1-.9-.2z"/><path class="st8" d="M235.1 217.8c.2-.5.7-.7 1.3-.4l50.2 29c.4.2.7.6.9 1l4.1-2.4c-.2-.4-.5-.8-.9-1l-50.2-29c-.8-.4-1.8-.4-2.6 0l-1.5.8c-.7.6-1.2 1.2-1.3 2z"/><path class="st9" d="M235 218.2v39.2c.1.9.5 1.7 1.3 2.3l47.4 27.4 2.8 1.6.2.1c.6.2 1.1-.1 1.1-.9v-39.2c0-.4-.1-.8-.4-1.2-.2-.4-.6-.8-.9-1l-50.2-29c-.6-.3-1.1-.2-1.3.4V218.2z"/><path class="st5" d="M286.8 288.8l.2.1c.1 0 .1 0 .2.1.1 0 .2.1.3.1h.3c.2 0 .5 0 .7-.1.2 0 .4-.1.6-.2l1.5-.9c.8-.5 1.3-1.3 1.3-2.3v-39.2c0-.4-.1-.9-.4-1.3l-4 2.4c.2.4.3.8.4 1.2v39.2c-.1.7-.5 1.1-1.1.9z"/><path class="st7" d="M283.8 281.4v-26.1c0-.6-.4-1.2-.9-1.5l-2.3-1.4c-.5-.3-.9 0-.9.5V279c0 .6.4 1.2.9 1.5l2.3 1.3c.5.4.9.1.9-.4z"/><path class="st10" d="M275.6 276.7v-30.8c0-.6-.3-1.2-.9-1.5l-2.4-1.4c-.5-.3-.9 0-.9.5v30.8c0 .6.4 1.2.9 1.5l2.3 1.4c.7.3 1 0 1-.5z"/><path class="st7" d="M267.5 272v-14.8c0-.6-.4-1.2-.9-1.5l-2.3-1.3c-.5-.3-.9-.1-.9.5v14.8c0 .6.3 1.2.9 1.5l2.3 1.4c.5.2.9-.1.9-.6zM259.4 267.3v-19.2c0-.6-.4-1.2-.9-1.5l-2.3-1.4c-.5-.3-.9-.1-.9.5V265c0 .6.4 1.2.9 1.5l2.3 1.4c.5.2.9 0 .9-.6z"/><path class="st10" d="M251.3 262.6v-6.5c0-.6-.4-1.2-.9-1.5l-2.3-1.4c-.5-.3-.9-.1-.9.5v6.5c0 .6.4 1.2.9 1.5l2.3 1.4c.5.3.9.1.9-.5z"/><path class="st7" d="M243.2 257.9v-21.5c0-.6-.4-1.2-.9-1.5l-2.3-1.3c-.5-.3-.9 0-.9.5v21.4c0 .6.4 1.2.9 1.5l2.3 1.4c.5.3.9.1.9-.5z"/><path class="st8" d="M162 175.6c.2-.5.7-.7 1.3-.4l62.4 36c.4.2.7.6 1 1l4-2.4c-.2-.4-.5-.8-.9-1l-62.4-36c-.8-.4-1.8-.4-2.6 0l-1.5.8c-.7.5-1.2 1.2-1.3 2z"/><path class="st9" d="M161.9 176v39.2c.1.9.5 1.7 1.3 2.3l59.6 34.4 2.8 1.6.2.1c.6.2 1.1-.1 1.1-.9v-39.2c0-.4-.1-.8-.4-1.2-.2-.4-.6-.8-1-1l-62.4-36c-.6-.3-1.1-.2-1.3.4v.1c.1 0 .1.1.1.2z"/><path class="st5" d="M225.8 253.6l.2.1c.1 0 .1 0 .2.1.1 0 .2.1.3.1h.3c.2 0 .5 0 .7-.1.2 0 .4-.1.6-.2l1.5-.9c.8-.5 1.3-1.3 1.3-2.3v-39.2c0-.4-.1-.9-.4-1.3l-4 2.4c.2.4.3.8.4 1.2v39.2c0 .8-.5 1.1-1.1.9z"/><path class="st10" d="M203.8 207.9l3.2 12c.3 1 .8 1.9 1.4 2.7l10.4 12.5c1.4-1 2.3-2.4 2.5-4.1.7-4-1.3-9.5-5.4-14.4-.7-.8-1.4-1.6-2.1-2.3-2.7-2.9-6.2-5.1-10-6.4z"/><path class="st7" d="M195.1 223.1c4.6 7.8 13.4 13.7 20 13.3.9 0 1.8-.2 2.6-.6l-10.3-12.4c-.6-.6-1.3-1-2.1-1h-.1l-10.1.7zM196 207.7l9.6 11.5-3.2-11.7c-2.1-.7-4.3-.6-6.4.2zM194.4 221.9l10.7-.7c.1 0 .2 0 .4-.1 0-.1 0-.1-.1-.2l-.1-.1-10.4-12.5c-3.4 2.3-3.6 7.6-.5 13.6zM188.1 199.5c0 .7-.6 1-1.3.6l-19.5-11.3c-.7-.4-1.2-1.2-1.3-2 0-.7.6-1 1.3-.6l19.5 11.3c.7.4 1.2 1.2 1.3 2z"/><path class="st5" d="M188.1 207.3c0 .7-.6 1-1.3.6l-19.5-11.3c-.7-.4-1.2-1.2-1.3-2.1 0-.7.6-1 1.3-.6l19.5 11.3c.7.5 1.2 1.3 1.3 2.1zM188.1 212.2c0 .7-.6 1-1.3.6l-19.5-11.3c-.7-.4-1.2-1.2-1.3-2.1 0-.7.6-1 1.3-.6l19.5 11.3c.7.5 1.2 1.2 1.3 2.1zM188.1 217c0 .7-.6 1-1.3.6l-19.5-11.3c-.7-.4-1.2-1.2-1.3-2.1 0-.7.6-1 1.3-.6l19.5 11.3c.7.5 1.2 1.3 1.3 2.1zM188.1 221.9c0 .7-.6 1-1.3.6l-19.5-11.3c-.7-.4-1.2-1.2-1.3-2.1 0-.7.6-1 1.3-.6l19.5 11.3c.7.4 1.2 1.2 1.3 2.1z"/><path class="st8" d="M304.1 213.1c.2-.5.7-.7 1.3-.4l34 19.6c.4.3.7.6.9 1l4-2.4c-.2-.4-.5-.8-.9-1l-34-19.6c-.8-.4-1.8-.4-2.6 0l-1.5.9c-.6.5-1 1.2-1.2 1.9z"/><path class="st9" d="M304.1 213.5v11.1c0 .9.5 1.8 1.3 2.3l34 19.6.2.1h.1c.6.2 1-.2 1-.9v-11.1c0-.5-.1-.9-.4-1.3-.2-.4-.5-.7-.9-1l-34-19.6c-.6-.4-1.1-.2-1.3.4v.4z"/><path class="st5" d="M339.6 246.6c.2.1.3.1.5.1.5.1 1 0 1.5-.1l.3-.1 1.5-.8c.8-.5 1.3-1.3 1.3-2.3v-11.1c0-.5-.1-.9-.4-1.3l-4.1 2.3c.2.4.4.8.4 1.3v11.1c0 .7-.4 1.1-1 .9z"/><path class="st8" d="M304.1 234.2c.2-.5.7-.7 1.3-.4l34 19.6c.4.3.7.6.9 1l4.1-2.3c-.2-.4-.5-.8-.9-1l-34-19.6c-.8-.4-1.8-.4-2.6 0l-1.5.9c-.7.4-1.1 1.1-1.3 1.8z"/><path class="st9" d="M304.1 234.6v11.1c0 .9.5 1.8 1.3 2.3l34 19.6.2.1h.1c.6.2 1-.2 1-.9v-11.1c0-.5-.1-.9-.4-1.3-.2-.4-.5-.7-.9-1l-34-19.6c-.6-.4-1.1-.2-1.3.4v.4z"/><path class="st5" d="M339.6 267.7c.2.1.3.1.5.1.5.1 1 0 1.5-.1l.3-.1 1.5-.8c.8-.5 1.3-1.3 1.3-2.3v-11.1c0-.5-.1-.9-.4-1.3l-4.1 2.3c.2.4.4.8.4 1.3v11.1c0 .7-.4 1.1-1 .9z"/><path class="st8" d="M304.1 255.4c.2-.5.7-.7 1.3-.4l34 19.6c.4.3.7.6.9 1l4.1-2.3c-.2-.4-.5-.8-.9-1l-34-19.6c-.8-.4-1.8-.4-2.6 0l-1.5.9c-.7.3-1.1 1-1.3 1.8z"/><path class="st9" d="M304.1 255.7v11.1c0 .9.5 1.8 1.3 2.3l34 19.6.2.1h.1c.6.2 1-.2 1-.9v-11c0-.5-.1-.9-.4-1.3-.2-.4-.5-.7-.9-1l-34-19.6c-.6-.4-1.1-.2-1.3.4V255.7z"/><path class="st5" d="M339.6 288.8c.2.1.3.1.5.1.5.1 1 0 1.5-.1l.3-.1 1.5-.8c.8-.5 1.3-1.3 1.3-2.3v-11.1c0-.5-.1-.9-.4-1.3l-4.1 2.3c.2.4.4.8.4 1.3v11.1c0 .7-.4 1.1-1 .9z"/><path class="st8" d="M304.1 276.5c.2-.5.7-.7 1.3-.4l34 19.6c.4.3.7.6.9 1l4.1-2.3c-.2-.4-.5-.8-.9-1l-34-19.6c-.8-.4-1.8-.4-2.6 0l-1.5.9c-.7.3-1.1 1-1.3 1.8z"/><path class="st9" d="M304.1 276.9V288c0 .9.5 1.8 1.3 2.3l34 19.6.2.1h.1c.6.2 1-.2 1-.9v-11c0-.5-.1-.9-.4-1.3-.2-.4-.5-.7-.9-1l-34-19.6c-.6-.4-1.1-.2-1.3.4V276.9z"/><path class="st5" d="M339.6 309.9c.2.1.3.1.5.1.5.1 1 0 1.5-.1l.3-.1 1.5-.8c.8-.5 1.3-1.3 1.3-2.3v-11.1c0-.5-.1-.9-.4-1.3l-4.1 2.3c.2.4.4.8.4 1.3V309c0 .7-.4 1.1-1 .9z"/><path class="st7" d="M300.6 195.6h-.1l3.6-2.1v-1.1-.3-.1c.1-.8.6-1.4 1.3-1.9l1.5-.9c.8-.4 1.8-.4 2.6 0l34 19.6c.8.5 1.3 1.3 1.3 2.3v11.1c0 .9-.5 1.8-1.3 2.3l-1.5.8-.3.1c-.5.2-1 .2-1.5.1-.2 0-.3-.1-.5-.1h-.1l-.2-.1-34-19.6c-.8-.5-1.3-1.3-1.3-2.3v-3.2l-3.7-4.3c-.1-.1-.1-.3 0-.4 0 .1.1.1.2.1z"/><path class="st11" d="M339.6 225.5c.2.1.3.1.5.1.5.1 1 0 1.5-.1l.3-.1 1.5-.8c.8-.5 1.3-1.3 1.3-2.3v-11.1c0-.5-.1-.9-.4-1.3l-4.1 2.3c.2.4.4.8.4 1.3v11.1c0 .7-.4 1-1 .9z"/><path class="st12" d="M304.1 192c.2-.5.7-.7 1.3-.4l34 19.6c.4.3.7.6.9 1l4.1-2.3c-.2-.4-.5-.8-.9-1l-34-19.6c-.8-.4-1.8-.4-2.6 0l-1.5.9c-.7.4-1.1 1-1.3 1.8zM300.6 195.6h3.5v-2.1l-3.6 2.1h.1z"/></g></g><g id="freepik--Plants--inject-262"><g id="freepik--plants--inject-262"><path class="st7" d="M410 374.3l-7-4s-3.4-18.5-.9-34.5c3.5-22.4 18.8-30.1 24.3-27.9s6.8 8.9-3.2 21.8c-5.8 7.7-13.4 23.8-13.2 44.6z"/><path d="M410 374.3l-7-4s-3.4-18.5-.9-34.5c3.5-22.4 18.8-30.1 24.3-27.9s6.8 8.9-3.2 21.8c-5.8 7.7-13.4 23.8-13.2 44.6z" opacity=".1"/><path class="st6" d="M407.5 365.4c.3 0 .5-.3.5-.6-2.9-21 5.5-44 15-53.2.2-.2.2-.5 0-.7-.2-.2-.5-.2-.7 0-9.6 9.4-18.3 32.8-15.3 54.1 0 .3.2.4.5.4z"/><path class="st10" d="M429.5 385.6c1.1.6 3.4-.8 4.3-1.4 1.5-1 2.7-2.4 3.5-4 .9-1.9 1.2-4 .9-6-.2-1.1-.4-2.1-.8-3.2-.3-1-.6-2-.9-3.1-.4-1-.5-2-.4-3.1.3-2.1 2.1-3.6 3.8-4.8 1.9-1.4 3.8-3.3 3.8-5.8-.1-2-.9-3.8-2.2-5.3-1.2-1.5-2.6-2.9-3.7-4.5-.9-1.1-1.3-2.5-1.3-3.9.1-.9.4-1.7.9-2.5 1-1.6 1.9-3.2 2.7-4.9.6-1.8.5-4-.9-5.2-1.2-.9-2.8-1.3-4.4-1.1-1.4.2-2.8.7-4 1.4-4 2.2-6.3 7-10.6 8.7-1.7.5-3.4 1-5.1 1.3-1.8.3-3.3 1.4-4.3 2.9-1.6 3.1 1.3 7 .2 10.3-1 2.9-3.8 4.1-5.4 6.7-.7 1.2-.9 2.5-.8 3.8.1 2.2.7 4.5 1.6 6.5 1 2 2.2 4 3.6 5.8.1.2 19.3 11.3 19.5 11.4z"/><path class="st6" d="M418.1 379.5c.3 0 .5-.2.5-.5-.8-19.9 8.5-41.8 15.3-48.1.2-.2.2-.5 0-.7-.2-.2-.5-.2-.7 0-6.9 6.5-16.5 28.8-15.6 48.9 0 .2.2.4.5.4z"/><path class="st6" d="M421.1 356h.1c4.7-1.3 9.5-2.1 14.4-2.3.3 0 .5-.2.5-.5s-.2-.5-.5-.5c-5 .3-9.9 1.1-14.7 2.4-.3 0-.5.3-.4.6 0 .3.3.4.6.3z"/></g></g><g id="freepik--magnifying-glass--inject-262"><g id="freepik--Lens--inject-262"><path class="st7" d="M346.1 334.2c.1-1.2.9-2.3 2-2.7 3-1.5 6.5-1.5 9.5 0 1.1.5 1.9 1.5 2 2.7l2.7 69.9c.1 1.5-.8 2.9-2.7 4-4.2 2.1-9.1 2.1-13.3 0-1.9-1.1-2.8-2.6-2.7-4l2.5-69.9z"/><path class="st14" d="M357.6 331.5c2.6 1.5 2.6 4 0 5.5-3 1.5-6.5 1.5-9.5 0-2.6-1.5-2.6-4 0-5.5 3-1.6 6.5-1.6 9.5 0z"/><path class="st2" d="M350 311.9c1.8-.9 3.9-.9 5.7 0 .7.3 1.1.9 1.2 1.6v20.6c-.1.7-.5 1.4-1.2 1.7-1.8.9-3.9.9-5.7 0-.7-.3-1.1-.9-1.2-1.7v-20.6c0-.7.5-1.3 1.2-1.6z"/><path class="st7" d="M307.6 262.9c0 22 15.5 48.8 34.5 59.8 6.4 3.7 12.4 5.1 17.5 4.6l.9-.1h.2c.3 0 .5-.1.8-.1.1 0 .3-.1.4-.1.2 0 .4-.1.6-.1.2 0 .4-.1.6-.2l.5-.1c.4-.1.7-.2 1-.4s.7-.3 1-.5c.3-.1.6-.3.8-.4l.2-.1h.1l14.2-8.2h.1c6.2-3.6 10-11.3 10-22.3 0-22-15.5-48.8-34.5-59.8-5.5-3.2-10.8-4.7-15.4-4.7-3.1 0-6.2.7-8.9 2.3h-.1l-14.2 8.2h-.1l-.2.1-.9.6-.5.4c-.2.1-.4.3-.5.4-.4.3-.7.6-1 .9l-.4.4-.3.3-.3.4c-.6.7-1.2 1.5-1.7 2.3-.1.1-.1.2-.2.3-.1.2-.3.5-.3.5l-.1.1-.3.6c-.1.2-.2.3-.3.5-.1.2-.2.4-.4.7s-.3.7-.4 1c-.1.3-.2.6-.4.9 0 .1 0 .1-.1.1-.1.3-.2.7-.3 1l-.6 2.1c-.1.3-.1.5-.2.8s-.2.6-.2.9c-.1.6-.2 1.3-.3 2 0 .3 0 .4-.1.8 0 .4 0 .8-.1 1.2s-.1.8-.1 1.2v1.7zm23.1-17.1c2.8.7 5.4 1.8 7.9 3.3 16.8 9.7 31 34.3 31 53.7 0 2.8-.3 5.7-1.1 8.4-2.8-.7-5.4-1.8-7.9-3.3-16.8-9.7-31-34.3-31-53.7 0-2.8.4-5.6 1.1-8.4z"/><path class="st11" d="M367 324.9l13.8-7.9c6.2-3.6 10-11.4 10-22.3 0-9.8-3.1-20.6-8.2-30.5l-14.2 8.2c5.1 9.9 8.2 20.6 8.2 30.5.1 10.7-3.6 18.3-9.6 22z"/><path class="st12" d="M307.5 262.9c0 22 15.5 48.8 34.5 59.8 6.4 3.7 12.4 5.1 17.5 4.6l.9-.1h.2c.3 0 .5-.1.8-.1.1 0 .3-.1.4-.1.2 0 .4-.1.6-.1.2 0 .4-.1.5-.2l.5-.1c.4-.1.7-.2 1-.4s.7-.3 1-.5c.3-.1.6-.3.8-.4 6.4-3.5 10.4-11.3 10.4-22.5 0-22-15.5-48.8-34.5-59.8-9.7-5.6-18.4-6-24.7-2.2l-.9.6-.5.4c-.2.1-.4.3-.5.4-.4.3-.7.6-1 .9l-.4.4-.3.3-.3.4c-.6.7-1.2 1.5-1.7 2.3-.1.1-.1.2-.2.3-.1.2-.3.5-.3.5l-.1.1-.3.6c-.1.2-.2.3-.3.5-.1.2-.2.4-.4.7s-.3.7-.4 1c-.1.3-.2.6-.4.9 0 .1 0 .1-.1.1-.1.3-.2.7-.3 1l-.6 2.1c-.1.3-.1.5-.2.8s-.2.6-.2.9c-.1.6-.2 1.3-.3 2 0 .3 0 .4-.1.8 0 .4 0 .8-.1 1.2s-.1.8-.1 1.2c.2.7.2 1.2.1 1.7zm7.2.1c0-5.3 1.2-17.7 12.1-17.7 1.3 0 2.7.2 4 .5 2.8.7 5.4 1.8 7.9 3.3 16.8 9.7 31 34.3 31 53.7 0 2.8-.3 5.7-1.1 8.4-1.4 4.7-4.4 9.2-11 9.2-3.5 0-7.6-1.3-11.9-3.8-16.9-9.6-31.1-34.2-31-53.6z"/><path class="st11" d="M314.6 263c0 19.4 14.2 44 31 53.7 4.3 2.5 8.4 3.8 11.9 3.8 6.6 0 9.6-4.5 11-9.2-2.8-.7-5.4-1.8-7.9-3.3-16.8-9.7-31-34.3-31-53.7 0-2.8.3-5.7 1.1-8.4-1.3-.3-2.7-.5-4-.5-10.9-.1-12.1 12.2-12.1 17.6z"/><path d="M320.6 259.6c0 19.4 14.2 44 31 53.7 4.3 2.5 8.4 3.8 11.9 3.8.7 0 1.4-.1 2.1-.2 1.4-1.7 2.3-3.6 2.9-5.7.7-2.7 1.1-5.6 1.1-8.4 0-19.4-14.2-44-31-53.7-2.5-1.5-5.1-2.6-7.9-3.3-1.3-.3-2.7-.5-4-.5-.7 0-1.4.1-2.1.2-3.4 4.1-4 10.6-4 14.1z" opacity=".7" fill="#fff"/><path class="st11" d="M354.8 337.9l1.8 71.3c1-.2 2-.6 2.9-1.1 1.9-1.1 2.8-2.6 2.7-4l-2.7-69.9c-.1 1.2-.9 2.3-2 2.7-.9.5-1.8.8-2.7 1z"/></g></g><g id="freepik--Cloud--inject-262"><g id="freepik--cloud--inject-262"><path id="freepik--Nube--inject-262" class="st8" d="M362.1 111l6.9 4c0-.3-.1-.6-.1-.9v-2c0-3.5 2.5-5 5.6-3.2 1.3.8 2.4 1.9 3.3 3.2.5-4.4 4-6.1 8.2-3.7 4.6 2.6 8.3 9.1 8.3 14.4v3c0 1.2-.2 2.4-.7 3.4l5.7 3.3c1.8 1.2 3 3.1 3.1 5.3 0 2-1.4 2.8-3.1 1.8l-37.2-21.5c-1.8-1.2-3-3.2-3.1-5.3.1-2 1.4-2.8 3.1-1.8z"/></g></g><g id="freepik--Character--inject-27"><g id="freepik--character--inject-27"><path class="st2" d="M86.2 371.9c-.6.2-.7 1.4-.8 3.6 0 1.7-.3 4.6 1.7 5.2s4.9.2 6.1-1.4c1.5-2 2.6-3.8 4.8-6.3 1.9-2.1 4-4.1 4.7-7.1.6-2.7 0-3.8-1.8-4.6-2.5-1-6.4 2.6-8.3 3.1-1.7.6-5.8 7.3-6.4 7.5z"/><path class="st16" d="M86.1 369.9l.1 2.7c2.1 1.3 4.8 1.3 6.9 0 .1-.3.6-3.9.6-3.9l-7.6 1.2z"/><path class="st2" d="M108.7 387.2s-.7 2.4-1.1 4.5c-.3 1.7-.7 4.4-.1 5.7s2.9 2 6.4 1.9c2.3-.1 5.8 1.4 8.3 2.7s7.8 1.8 10.4 1.4c3.1-.4 6.3-2.3 6.8-3.6s-.2-2.6-7.6-5.6c-.1 0-10.3-3.1-13.9-6.9l-9.2-.1z"/><path class="st16" d="M108.6 384.3s.1 2 .1 3.2 1.4 2.9 5 2.6c2.5-.1 4.2-.9 4.1-2.9l-.1-3-9.1.1z"/><path class="st4" d="M83.5 333.6c.5-4.9 1.5-9.7 2.9-14.3 0 0-1.3-12.3-2-23.9-.8-12.6-1.5-19.1 1-37.2 0 0 38.6-3.5 39.6 11.1 1 14.5-.4 51.7-.8 58.1s-1.3 12.1-2.4 22.5-4.2 34.5-4.2 34.5c-2.8 1.5-6.2 1.5-9 0 0 0-3.5-29.1-3.4-36.4.1-5.5.9-10.9 2.4-16.2 0 0-1-12-2-22.4s-1.8-15.4-2-20l-.9-.4s-.5 18-.8 24.4-1.2 12.6-2.8 24.5c-1.4 10.4-5.6 32.4-5.6 32.4-4.6 2.6-7.4-.2-7.4-.2s-3.6-27.5-2.6-36.5z"/><path class="st2" d="M103.7 289.3s-10-4.6-15-8.9c0 0 4.7 6.4 10.8 9.1 0 0 2.6 22.3 2.6 21.9l.7-22.1h.9z"/><path class="st16" d="M110.6 206.2l-1.5 13.4-12.6-.7 1.4-15.5z"/><path class="st4" d="M91.8 211.3c-4.7-.2-7.1.5-9.2 4.5s-2.9 16.1-3.7 22.3-.9 10.6 1.6 11.3 12.5.9 12.5.9l-1.2-39z"/><path class="st3" d="M83.9 218.2c.7-3.7 5.6-7.6 10.2-6.9l3.1.5c.5 2.2 6.7 3.6 12.6 2.3 1.8.5 7.6 1.6 9.1 2.1 4.2 1.4 6 5.6 6.6 19.3 0 0-.3 31.2-.2 37.3-10.4 4.4-21.3 4.5-27.4 3.3-12.6-2.5-14.3-7.6-14.3-7.6l1.9-14.3c-.1.1-3.1-27.5-1.6-36z"/><path class="st4" d="M110.1 210.6l-.1.8c-2.5.5-5.2.5-7.7 0-4.1-.9-4.9-2.1-4.9-2.1l.1-1s-1-.4-1.5 1.2c-.2.6-.4 1.3-.6 1.9 0 0-.5 2.9 4.3 4.3 4 1.3 8.4.8 12-1.3l1.9.4s-1.6-3.8-2.1-4.5c-.2-.4-.7-.7-1.2-.7l-.2 1z"/><path class="st3" d="M148.5 196.3l25 13.1-12.4 33.9-23.3-13.1z"/><path class="st0" d="M149.7 199.7l20.9 10.9-11 29.1-19.5-10.9z"/><path class="st14" d="M154.1 202.8l.4-1c.2-.5 2-.2 3.9.8l3.7 1.9c1.9 1 3.3 2.3 3.1 2.8l-.4 1-10.7-5.5z"/><path class="st7" d="M154.5 198.7c.1-.4.9-.3 1.7.1l1.4.8s.9-2.2 4.2-.7 2.6 4.1 2.6 4.1l1.5.8c.9.5 1.5 1.1 1.4 1.5l-.2.7-12.9-6.7.3-.6z"/><path class="st7" d="M155.9 200.2c1.2.6 1.7.9 1.3 1.8s-.8 1.7-.8 1.7l5.7 3s.5-1.3.7-1.8.6-.7 1.5-.3l.3-.4-9-4.6.3.6z"/><path d="M155.9 200.2c1.2.6 1.7.9 1.3 1.8s-.8 1.7-.8 1.7l5.7 3s.5-1.3.7-1.8.6-.7 1.5-.3l.3-.4-9-4.6.3.6z" fill="#004436"/><path class="st7" d="M153.9 202.9l.4-1c.2-.6 2-.2 3.9.8l3.7 1.9c1.9 1 3.3 2.3 3.1 2.8l-.4 1-10.7-5.5z"/><path class="st16" d="M118.8 216.2c5.8.5 8.2 1.6 12.5 9.3 4.7 8.5 13.7 23.8 14.9 25.7 1.6 2.7 1.9 6.8.5 9.3-1.3 2.3-5.4 3.4-10-1.9-5.5-6.2-15.7-21.3-15.7-21.3s-8.6-11.4-2.2-21.1z"/><path class="st16" d="M144.3 262.3c4.4-.5 14.7-14.5 17.7-19.1 2.3-3.7 5.4-6.9 8.9-9.4 4.7-3.4 4-8.8 2-13.6-.7-1.7-3.1-.6-3.1-.6l-.8 2.3-1.5 4c-1 .9-1.6 1.2-1.6.9-.1-.5.7-2.7.7-4.9 0-2.7-1.9-.9-2.5 0-.8 1.4-1.4 2.9-2 4.4-.9 2.4-.6 4.9-1.7 6.5s-16.5 16.4-16.5 16.4l.4 13.1z"/><path class="st4" d="M117.7 215.9c3.5-.1 7.7.5 10.9 4.7s16.3 27.2 16.3 27.2l7.3-6.5c2.8 1.8 4.9 4.6 5.6 7.9-2 3.2-4.2 6.2-6.6 9-3.1 3.4-6.5 5.7-9.4 4.7-2.8-1-5.7-3.3-11.8-11.7-6.1-8.5-12.7-18.4-12.7-18.4s-4.1-9.9.4-16.9z"/><path class="st18" d="M119.5 189.9s3.1 4.8 2.8 5.2-2.7.9-2.7.9l-.1-6.1z"/><path class="st2" d="M114.3 189.2c0-2.1 1.7-3.8 3.7-3.8s3.8 1.7 3.8 3.7c0 2.1-1.7 3.8-3.8 3.8-2 .1-3.7-1.6-3.7-3.7zm3.7-2.9c-1.6 0-2.9 1.3-2.9 2.9 0 1.6 1.3 2.9 2.9 2.9s2.9-1.3 2.9-2.9c0-1.6-1.3-2.9-2.9-2.9z"/><path class="st16" d="M110.8 176.7c6.4 1.3 8.2 4.1 8.8 14.2.6 10.6-.5 13.9-1.8 15.3-.9 1-6.1 1.1-8.8.4-3.3-.9-10.7-3.5-14.2-8.8-4.1-6.2-5.2-14.7-.8-18.2 6.1-4.8 14.2-3.4 16.8-2.9z"/><path class="st18" d="M110.5 207l.3-1.9c2 1.1 4.2 1.6 6.5 1.5-1.2.5-4.3.7-6.8.4z"/><path class="st2" d="M121.4 188.5l-11.3 1.4.5.8 10.8-1.4z"/><path class="st2" d="M120.6 180.8c-.5.1-1 0-1.4-.1.4 1 .1 2-.8 2.6-.8.6-1.9.7-2.9.4.4.6.5 1.3.3 2-.4 1.5-1.8 2.5-3.3 2.4-.1 1.5-.1 2.9-1.7 3.6 0 0-1-3.9-4.3-3.4s-3.8 4.7-1.7 7.3 4 1.6 4 1.6c-.2.1-.3 1.3-.3 1.6-.2.7-.5 1.5-.9 2.1-.7 1.4-1.7 2.6-3 3.5-1.7 1.4-3.9 2-6 1.7-1.9-.4-3.5-1.7-4.4-3.5-.1-.5-.4-.9-.7-1.3-.5-.3-1-.6-1.6-.7-2.5-.8-3.8-3.5-3-6 .1-.2.2-.5.3-.7-2.3-.6-3.7-3-3.1-5.3.2-.9.7-1.7 1.5-2.3-1.9-1.2-2.8-3.5-2.3-5.7.5-1.8 2-3.1 3.8-3.6 1.3-.4.8-.6 1.2-1.8.3-.9.8-1.6 1.5-2.2 1.2-1 2.9-1.3 4.4-.8.3-1.6 1.6-3 3.2-3.4.7-.2 1.5-.3 2.2-.1.5.1 1.6.6 1.8 1.1.7-.7.9-1.5 1.7-2.1 2.1-1.6 5.2-1.2 6.8 1 .1.2.2.3.3.5 1.1-1.2 2.8-1.9 4.4-1.9 1.7.1 3.2 1 4 2.5.8 1.5.6 3.3-.5 4.6 1 .4 1.9 1.1 2.5 2.1.6 1.1.4 2.4-.4 3.3-.3.4-.7.8-1.2.9 0 .1-.2.1-.4.1z"/><path class="st2" d="M111 193.9l-.1-4.4c1.2 0 2.2.9 2.3 2.2 0 1.2-1 2.2-2.2 2.2z"/></g></g><path class="st6" d="M311.1 203.7l1.7.8c.1.3.3.6.6.8.2.3.6.5 1 .8.4.3.8.4 1 .4.1 0 .2-.1.2-.2s-.1-.2-.2-.3c-.1-.1-.3-.3-.6-.5-1.4-1.1-2.3-1.8-2.7-2.2-.6-.6-.9-1.1-1-1.5-.1-.4.1-.6.4-.7.4 0 1 .3 2 .8.9.5 1.6 1 2 1.5.5.5.8 1 1.1 1.5l-1.6-.7c-.1-.2-.3-.5-.5-.7-.2-.2-.5-.4-.9-.6-.4-.3-.8-.4-.9-.4-.1 0-.2 0-.1.1 0 .1.1.2.2.3.2.2.7.6 1.7 1.3.9.7 1.6 1.3 2 1.7.4.4.6.9.7 1.3.1.4-.1.7-.5.7s-1.1-.3-2.1-.8c-.9-.5-1.6-1.1-2.2-1.7-.6-.6-1-1.2-1.3-1.7zM322.3 210.3l1.7 1.2c-.1.3-.4.5-.8.4s-1-.3-1.7-.7c-1.1-.7-2-1.5-2.7-2.3-.5-.7-.8-1.4-1-2.1-.2-.8 0-1.3.4-1.4.5-.1 1.1.1 2 .6 1 .6 1.8 1.3 2.4 2.1.7.8 1.1 1.7 1.3 2.7l-4.3-2.6c.1.4.3.8.6 1.1.3.4.7.7 1 .9.3.2.5.2.6.2.3.2.4.1.5-.1zm-.2-1.3c-.1-.4-.3-.7-.6-1.1-.3-.3-.6-.6-.9-.8-.4-.2-.7-.3-.9-.3-.2.1-.3.3-.2.6l2.6 1.6zM324.8 211c-.1-.4 0-.8.2-1 .2-.2.5-.3 1-.2.5.1 1 .3 1.6.7 1 .6 1.8 1.3 2.5 2.2.7.9 1.2 1.6 1.3 2.4.2.7 0 1.1-.6 1.2-.5.1-1.3-.1-2.2-.7-.6-.4-1.2-.8-1.7-1.3s-1-1.1-1.4-1.6c-.3-.6-.6-1.1-.7-1.7zm1.8 1.1c.1.5.3.9.7 1.4.4.4.8.8 1.2 1.1s.8.4 1 .3c.2-.1.3-.4.2-.8-.1-.5-.3-.9-.7-1.4-.4-.4-.8-.8-1.2-1.1s-.8-.4-1-.3c-.3.1-.3.4-.2.8z"/><g><path class="st10" d="M252.5 173.2c.1.7-.1 1.1-.6 1.2h-.5c-.2 0-.3-.1-.5-.2l-1-.6c-.5-.3-.9-.7-1.2-1.2-.3-.5-.5-1.1-.6-1.6l-.1-1.5.8.4.1 1.6c0 .1 0 .2.1.4.1.1.1.3.2.4l.3.3c.1.1.3.2.4.3l.9.5c.1.1.2.1.4.1h.3c.1 0 .2-.1.2-.1s.1-.1.1-.2-.1-.3-.4-.5l-.1-.1h-.1l-1-.6-.1-1.3c0-.4.1-.6.3-.7.2-.1.5-.1.9.1l.9.5.1.9-.9-.5c-.2-.1-.3-.1-.4 0v.5c.2.1.4.3.6.4.2.1.3.2.4.3.2.2.3.4.4.6.1.1.1.4.1.6z"/><path class="st10" d="M255.3 174.2c0 .5-.1.9-.4 1.1-.3.2-.7.1-1.2-.1l-1-.5-.2-1.1.9.5c.2.1.3.2.4.2.1 0 .2.1.3 0 .1 0 .2-.1.3-.1.1-.1.1-.1.1-.3l-.2-2.3.9.5.1 2.1zm-.3-3.9v.2l-.1.1h-.2c-.1 0-.1 0-.2-.1-.2-.1-.3-.2-.5-.4s-.2-.3-.2-.5c0-.3.2-.3.5-.1.5.3.7.5.7.8zM258 176c-.6-.3-1.1-.7-1.4-1.1-.2-.2-.3-.5-.3-.9l-.2-3.3.8.5.2 3c0 .2.1.4.2.5 0 0 .1.1.2.1.1.1.3.2.4.3l.1.9z"/><path class="st10" d="M263.2 177.8v.5c0 .1-.1.2-.1.3-.2.1-.4.1-.8-.1-.1-.1-.3-.2-.5-.4l-.5-.5c-.1.1-.2.1-.4.1-.1 0-.3-.1-.4-.1-.1 0-.1-.1-.2-.1-.1-.1-.2-.1-.2-.2l-.3-.3c-.1-.1-.2-.2-.2-.3-.1.1-.3.1-.4.1-.1 0-.3-.1-.4-.1l-.9-.5-.1-1 .9.5c.3.1.4.1.4-.1l-.1-1.1.8.5.1 1.1c0 .1.1.2.2.4.1.1.2.2.4.3.3.1.4.1.4 0l-.1-1.3.8.5.1 1.1c0 .1.1.2.2.4.1.1.2.2.4.3.3.1.4.1.4 0l-.1-1.3.8.5-.2.8zM269.8 182.6c-.3-.2-.6-.4-.8-.6 0 0-.1-.1-.2-.3-.1-.1-.3-.4-.5-.7-.1.2-.3.3-.5.3s-.4-.1-.7-.2c-.4-.2-.7-.5-1-1-.3-.4-.4-.8-.5-1.2v-.3c0-.1.1-.2.1-.3.1-.1.1-.2.2-.2.1-.1.2-.1.3-.2v-.1-.1l-.1-.2.6-.3 2.3 3.3c.1.1.1.2.2.3.1.1.1.1.1.2.1.1.3.2.5.4v1.2zm-2.2-2.4v-.2c0-.1 0-.1-.1-.2s-.2-.3-.3-.4-.2-.3-.3-.4c-.1 0-.1.1-.2.1h-.1l-.1.1v.2c0 .1.1.2.2.4.1.1.2.2.4.3.2.1.3.1.4.1l.1-.1c0 .1.1.1 0 .1z"/><path class="st10" d="M272.6 184.2l-.3-.2c-.4-.2-.7-.4-.9-.7h-.3c-.1 0-.2-.1-.3-.1l-1.2-.7-.1-1c.4.2.7.4.9.5.2.1.3.2.4.2.1 0 .2-.1.1-.4v-.1-.2-.1-.2-.2-.1l.9.5.1 1.1c0 .1.1.3.2.4l.2.2c.1.1.2.1.4.2l-.1.9zm-1.6-4.1v.2l-.1.1c-.1 0-.2 0-.4-.1-.4-.2-.6-.5-.6-.9 0-.3.1-.3.5-.1.3.2.5.5.6.8z"/><path class="st10" d="M275.6 185.9l-.1-.1c-.1-.1-.2-.1-.3-.2-.1-.1-.2-.1-.2-.2l-.2-.2-.2-.2h-.3c-.1 0-.2-.1-.3-.1l-1.5-.9-.1-1 1.3.7c.2.1.3.1.3.1.1 0 .1-.1.1-.2l-.1-1.1.8.5.1 1.1c0 .2 0 .3.1.3 0 .1.1.1.2.2s.2.1.4.2v1.1zm-2.1-.2c0 .3-.1.3-.5.1-.4-.2-.6-.4-.6-.7v-.2l.1-.1h.2c.1 0 .1 0 .2.1.4.2.6.5.6.8zm1.4.7c0 .3-.1.3-.5.1-.4-.2-.5-.4-.6-.7 0-.1 0-.2.1-.3.1 0 .2 0 .3.1.4.3.6.5.7.8z"/><path class="st10" d="M277.3 186.6c-.2 0-.4-.1-.7-.2l-1-.6-.1-1 .6.4c.3.1.5.2.6.1.1 0 .1-.2.1-.4l.1-.9.8.6-.1 1.2v.4c.2-.1.4 0 .7.2l1 .6.1 1-.6-.4c-.3-.1-.5-.2-.6-.1-.1 0-.1.2-.1.4l-.1.9-.8-.6.1-1.2v-.2c-.1-.1-.1-.2 0-.2z"/><path class="st10" d="M281.2 187.8v.4c0 .1-.1.2-.2.3-.1.1-.2.1-.3.1s-.3 0-.4-.1l-1.2-.7-.1-1c.8.4 1.2.7 1.2.7.1 0 .2-.1.1-.4v-.1-.2-.2-.2-.2-.1l.8.5.1 1.2zm-.5 1.9c0 .1 0 .2-.1.3h-.2c-.1 0-.1 0-.2-.1-.4-.2-.6-.5-.6-.8 0-.3.1-.3.5-.1.4.2.6.4.6.7z"/></g></svg>