<svg xmlns="http://www.w3.org/2000/svg" width="209" height="83" viewBox="0 0 209 83"><g><g><g><path fill="#f6f8f8" d="M40.5 18h169a3.5 3.5 0 0 1 0 7h-169a3.5 3.5 0 0 1 0-7zm-37 0h21a3.5 3.5 0 0 1 0 7h-21a3.5 3.5 0 0 1 0-7z"/></g><g><path fill="#f6f8f8" d="M95.5 36h169a3.5 3.5 0 0 1 0 7h-169a3.5 3.5 0 1 1 0-7zm-37 0h21a3.5 3.5 0 0 1 0 7h-21a3.5 3.5 0 1 1 0-7z"/></g><g><path fill="#f6f8f8" d="M66.5 56h169a3.5 3.5 0 0 1 0 7h-169a3.5 3.5 0 1 1 0-7zm-37 0h21a3.5 3.5 0 0 1 0 7h-21a3.5 3.5 0 0 1 0-7z"/></g><g><path fill="#f6f8f8" d="M114.5 76h169a3.5 3.5 0 0 1 0 7h-169a3.5 3.5 0 0 1 0-7zm-37 0h21a3.5 3.5 0 0 1 0 7h-21a3.5 3.5 0 0 1 0-7z"/></g><g><path fill="#f6f8f8" d="M166.5 0h169a3.5 3.5 0 0 1 0 7h-169a3.5 3.5 0 1 1 0-7zm-37 0h21a3.5 3.5 0 0 1 0 7h-21a3.5 3.5 0 0 1 0-7z"/></g><g><path fill="#f6f8f8" d="M22.5 36h21a3.5 3.5 0 0 1 0 7h-21a3.5 3.5 0 1 1 0-7z"/></g></g></g></svg>