<svg xmlns="http://www.w3.org/2000/svg" width="99" height="99" viewBox="0 0 99 99"><g><g opacity=".1"><path fill="#06826a" d="M10 0h79c5.523 0 10 4.477 10 10v79c0 5.523-4.477 10-10 10H10C4.477 99 0 94.523 0 89V10C0 4.477 4.477 0 10 0z"/></g><g><path fill="#06826a" d="M90.614 78.996c.16.17.23.448.217.852-.012.356-.017.715-.022 1.075-.015 1.11-.03 2.26-.271 3.32-.74 3.253-3.564 5.57-6.868 5.635-3.761.073-7.589.064-11.29.056-1.233-.003-2.466-.006-3.699-.006h-.096c-5.59.001-11.178 0-16.767-.001-11.553-.003-23.5-.005-35.25.01h-.017c-3.325 0-5.672-1.29-7.175-3.944-.314-.554-.502-1.18-.7-1.843-.086-.284-.174-.578-.273-.864v-4.07c.373-.41.864-.566 1.575-.505.323.028.644.022.984.015.157-.004.32-.007.491-.007h.334V66.23c0-10.517-.001-21.034.002-31.55 0-2.86 1.52-4.97 4.064-5.643.576-.152 1.212-.182 1.773-.208a28.51 28.51 0 0 1 1.614-.013c.23.002.458.005.683.005h.373l-.041-.371a19.282 19.282 0 0 0-.12-.84c-.088-.568-.173-1.106-.138-1.621.116-1.695.993-2.99 2.607-3.849 2.998-1.595 5.994-3.195 8.99-4.795l3.971-2.12 3.215-1.714c2.295-1.223 4.59-2.445 6.882-3.675 2.62-1.408 5.158-1.434 7.756-.08.879.459 1.832.968 3 1.604.381.207.964.657.594 1.34-.36.666-1.067.422-1.455.218-.757-.399-1.51-.805-2.263-1.212l-.595-.32c-2.032-1.096-4.095-1.1-6.13-.014l-4.424 2.361c-6.234 3.328-12.469 6.656-18.707 9.976-1.121.597-1.696 1.474-1.706 2.608-.011 1.165.57 2.069 1.729 2.685a19688.58 19688.58 0 0 1 23.135 12.327c1.952 1.042 3.886 1.09 5.748.144 1.37-.696 2.701-1.408 4.11-2.162.613-.328 1.232-.66 1.86-.993l.37-.196-.787-.917c-.362-.422-.707-.825-1.056-1.225l-5.282-6.06-2.158-2.475c-.07-.08-.139-.16-.207-.242-.268-.32-.416-.634-.428-.907-.01-.246.087-.452.298-.628.547-.458 1.113-.037 1.492.396 1.268 1.452 2.534 2.905 3.8 4.359 1.46 1.676 2.918 3.354 4.398 5.055l1.538 1.768 1.202-.638 1.976-1.049 3.033-1.616c3.096-1.648 6.192-3.297 9.285-4.953 1.54-.825 2.153-2.341 1.49-3.688-.315-.64-.942-1.274-1.635-1.651-3.867-2.106-7.817-4.21-11.637-6.244a4382.18 4382.18 0 0 1-3.46-1.844l-.15-.076c-.067-.033-.134-.065-.197-.104-.522-.31-.707-.823-.46-1.278.24-.442.741-.563 1.248-.303a234.29 234.29 0 0 1 3.505 1.85l1.081.579c1.152.614 2.304 1.23 3.455 1.845 2.223 1.188 4.521 2.417 6.787 3.616 3.225 1.706 3.89 3.15 3.09 6.722l-.09.407H81.503c3.726.008 5.952 2.24 5.953 5.971.002 10.393.002 20.786.001 31.179v12.75h.334c.217 0 .43 0 .639-.002a40.55 40.55 0 0 1 1.316.005c.422.011.706.1.868.273zM60.93 41.395c.127 1.823.098 3.695.07 5.505a153.45 153.45 0 0 0-.023 2.362v.314l.313.019c.032.002.059.006.081.009a.82.82 0 0 0 .112.009.427.427 0 0 0 .176-.036c.132-.06.305-.14.47-.241 2.568-1.57 4.027-3.703 4.34-6.341.173-1.467.13-2.98.089-4.442a72.526 72.526 0 0 1-.038-1.924l.057-.173-.171-.145a.4.4 0 0 0-.353-.07l-.2.013v.075c-.27.144-.537.296-.795.445-.633.362-1.231.704-1.874.933-1.717.612-2.391 1.715-2.254 3.688zm-1.123 15.551c-.162.284-.32.557-.473.823-.332.576-.646 1.121-.954 1.67-.396.707-.453 1.376-.16 1.882.29.5.885.78 1.677.788l.16.003c.082.001.164.003.248.003.115 0 .233-.003.351-.013.58-.048 1.065-.343 1.328-.81.253-.45.257-.993.01-1.49a32.54 32.54 0 0 0-1.085-1.953c-.171-.293-.346-.592-.522-.902l-.289-.508zM32.58 41.492c.156 3.92 2.008 6.77 5.357 8.243C41.673 51.378 45.539 52.2 49.5 52.2c2.934 0 5.92-.452 8.943-1.356.716-.213.773-.685.771-1.149-.008-1.925-.008-3.85-.007-5.774v-3.983l-.476.225c-.122.058-.234.109-.337.156-.205.094-.383.176-.558.269-.559.296-1.116.594-1.674.893-.905.485-1.84.986-2.765 1.467-2.489 1.296-5.001 1.308-7.466.038-.955-.492-1.918-1.01-2.85-1.511-.433-.233-.866-.466-1.3-.697l-9.212-4.91v.556c0 .57-.005 1.122-.01 1.665-.012 1.174-.023 2.284.021 3.402zm-19.058-6.524c.05 10.496.043 21.168.037 31.488-.003 3.612-.005 7.224-.005 10.836v1.366h72.075l.02-.312c.005-.082.011-.157.017-.228.011-.144.022-.28.022-.418l.001-6.86c.002-12.122.003-24.243-.004-36.364-.001-2.24-1.485-3.788-3.692-3.854a101.707 101.707 0 0 0-3.601-.021c-.453.002-.906.005-1.36.006h-.037c-.176-.001-.396-.002-.592.1-1.527.8-3.05 1.607-4.573 2.414l-1.658.878.516.303c.406.238.772.236 1.06.238l2.607-.003c1.998-.002 3.996-.004 5.995-.003 1.239.001 1.425.192 1.425 1.46v37.34c0 1.272-.173 1.448-1.428 1.448-16.717 0-33.435 0-50.153-.002h-.026c-.252.002-.491 0-.707-.048-.484-.108-.716-.408-.691-.893.026-.49.285-.765.77-.815.252-.027.508-.025.78-.024H79.94V36.37H68.446l-.002 1.596c-.001.906-.002 1.797.003 2.688.032 5.197-2.192 8.772-6.801 10.928-.194.09-.644.341-.634.697.007.224-.005.45-.018.689-.037.677-.079 1.444.381 2.176.568.904 1.1 1.857 1.615 2.78.164.293.327.586.492.878.562.996.63 2.006.199 3-.647 1.494-1.81 2.14-3.77 2.104-1.459-.029-2.642-.653-3.245-1.713-.6-1.055-.535-2.386.181-3.653.21-.371.426-.739.643-1.106.44-.748.895-1.522 1.287-2.317.214-.432.31-.905.413-1.406.047-.23.096-.466.157-.708l.136-.533-.535.125-.427.097c-.202.046-.337.077-.471.113-6.25 1.704-12.428 1.502-18.885-.616-5.503-1.805-8.636-6.199-8.38-11.753.039-.84.029-1.662.018-2.532a97.43 97.43 0 0 1-.01-1.194v-.334H19.29V73h1.264l1.213-.001c.958-.003 1.948-.006 2.92.014.424.008.93.163.94.854.01.715-.574.88-.923.916-.105.01-.218.01-.337.008l-1.475-.002c-1.36 0-2.718-.002-4.077-.007-1.132-.005-1.346-.222-1.346-1.372-.002-12.501-.002-25.002 0-37.504 0-1.158.202-1.362 1.35-1.364 2.068-.004 4.135-.003 6.202-.002h4.165l-.613-.577c-.348-.328-.717-.546-1.073-.758a8.446 8.446 0 0 1-.526-.33c-2.535-1.77-5.422-2.51-9.088-2.333-2.745.133-4.376 1.788-4.364 4.427zM41.616 80.56l.206.47c.665 1.51 1.678 2.292 3.01 2.322a214.418 214.418 0 0 0 9.573.007c1.321-.028 2.336-.811 3.018-2.327l.212-.472zm47.373.267l-.036-.269-.27-.02a9.409 9.409 0 0 1-.16-.014 3.365 3.365 0 0 0-.311-.02h-6.386c-7.054 0-14.348 0-21.522-.012H60.3c-.708 0-.966.354-1.137.887-.729 2.28-2.589 3.733-4.854 3.79-3.023.075-6.183.075-9.393 0-2.212-.053-4.088-1.488-4.778-3.658-.271-.853-.757-1.013-1.462-1.022-6.8.014-13.713.014-20.4.014l-6.858.001c-.207 0-.41.012-.606.024l-.252.014-.275.014-.04.272c-.297 2.061.17 3.87 1.35 5.23 1.171 1.349 2.974 2.121 4.95 2.121h.024c15.695-.051 31.653-.047 47.085-.043 6.29.001 12.582.003 18.873.001.662 0 1.347 0 2.007-.148 3.143-.705 4.933-3.584 4.455-7.162zM49.015 68.99c-.234.064-.498.07-.795.07-7.764.003-15.528.004-23.292-.002-.062-.002-.123.002-.188.003-.149.005-.457.012-.524-.042-.454-.418-.645-.763-.633-.92.009-.12.15-.36.773-.82a.382.382 0 0 1 .16-.022c.083 0 .177.007.242.011.094.007.186.007.273.013 3.095-.002 6.19-.002 9.284-.002l4.886-.006c2.905 0 5.81 0 8.716.002h.152c.299 0 .58-.003.85.04.452.07.684.33.708.796.025.472-.175.76-.612.879zM23.72 63.566c-.144-.15-.213-.35-.205-.593.026-.75.769-.862 1.21-.862 5.212-.003 10.424-.003 15.636 0 .452.001.794.11.992.314.145.15.213.355.205.612-.007.21-.027.853-1.197.854-1.88.004-3.758.003-5.638.003H30.17c-1.815 0-3.63 0-5.445-.003-.445 0-.802-.116-1.004-.325z"/></g></g></svg>