<svg xmlns="http://www.w3.org/2000/svg" width="8.031" height="15" viewBox="0 0 8.031 15">
  <defs>
    <style>
      .cls-1 {
        fill: #8e8e8e;
        fill-rule: evenodd;
      }
    </style>
  </defs>
  <path id="Shape_3_copy_10" data-name="Shape 3 copy 10" class="cls-1" d="M373.359,250a0.531,0.531,0,0,0-.4.183l-3.009,3.31-3.009-3.306-0.051-.05a0.53,0.53,0,0,0-.752.05,0.671,0.671,0,0,0,0,.884l3.432,3.765,0.031,0.03a0.528,0.528,0,0,0,.352.134,0.533,0.533,0,0,0,.4-0.181l3.409-3.75a0.677,0.677,0,0,0,0-.886l-0.052-.052a0.527,0.527,0,0,0-.349-0.131" transform="translate(-365.969 -240)"/>
  <path id="Shape_3_copy_11" data-name="Shape 3 copy 11" class="cls-1" d="M366.581,245a0.536,0.536,0,0,0,.4-0.183l3.02-3.31,3.021,3.306,0.051,0.05a0.534,0.534,0,0,0,.755-0.05,0.668,0.668,0,0,0,0-.884l-3.445-3.765-0.031-.03a0.535,0.535,0,0,0-.755.047l-3.423,3.75a0.675,0.675,0,0,0,0,.886l0.052,0.052a0.532,0.532,0,0,0,.351.131" transform="translate(-365.969 -240)"/>
</svg>
