<svg xmlns="http://www.w3.org/2000/svg" width="99" height="99" viewBox="0 0 99 99"><g><g><path fill="#06826a" d="M84.868 27.378v-1.901c3.324.403 5.277 2.69 5.278 6.295.002 10.956.002 21.91.001 32.865V78.59h.356c.232 0 .458-.002.68-.003.486-.003.944-.006 1.404.006.45.011.753.106.926.29.17.18.244.477.23.908-.013.38-.018.763-.023 1.146-.016 1.184-.032 2.409-.29 3.537-.788 3.468-3.798 5.938-7.32 6.006-4.007.079-8.086.07-12.03.06-1.313-.003-2.626-.006-3.94-.006h-.11c-5.957 0-11.914 0-17.872-.002-12.315-.003-25.048-.005-37.572.012h-.018c-3.545 0-6.047-1.375-7.649-4.204-.334-.59-.534-1.258-.747-1.964a24.1 24.1 0 0 0-.29-.921v-4.337c.397-.437.923-.604 1.68-.539.343.03.685.023 1.046.016.168-.004.342-.007.525-.007h.356V65.412c0-11.253-.001-22.506.003-33.76 0-3.048 1.62-5.296 4.331-6.013.095-.025.192-.043.29-.063v2.042c-1.774.674-2.784 2.21-2.774 4.343.053 11.185.046 22.559.039 33.557-.003 3.85-.005 7.699-.005 11.548v1.456h76.825l.022-.332c.005-.086.012-.165.018-.24.012-.154.024-.3.024-.449v-6.58c.002-13.162.004-26.323-.004-39.484 0-2.197-1.342-3.768-3.39-4.059zM41.285 80.55l.22.5 2.945 2.46c.086.009.173.014.262.016 1.734.04 3.488.06 5.25.06h.034c1.638 0 3.281-.018 4.92-.053 1.409-.03 2.49-.865 3.217-2.48l.226-.503zm42.86-.06c-7.52 0-15.294 0-22.94-.013H61.2c-.754 0-1.03.378-1.211.946-.777 2.43-2.76 3.978-5.175 4.038-1.613.04-3.262.06-4.935.06-1.672 0-3.369-.02-5.077-.06-2.063-.049-3.852-1.226-4.76-3.068a5.972 5.972 0 0 1-.333-.83 2.822 2.822 0 0 0-.057-.16c-.297-.767-.795-.928-1.491-.928h-.01c-7.248.015-14.617.015-21.744.015H9.096c-.22 0-.437.014-.646.026l-.269.015-.293.014-.042.29c-.317 2.197.18 4.125 1.44 5.575 1.247 1.437 3.169 2.26 5.275 2.26h.026c16.72-.055 33.72-.05 50.16-.046 6.715.002 13.43.003 20.145.001.705 0 1.435 0 2.14-.158 3.35-.752 5.257-3.819 4.748-7.633l-.038-.286-.288-.022c-.062-.004-.118-.01-.17-.014a3.615 3.615 0 0 0-.332-.02zM55.287 53.61h22.94v8.025h-22.94zm16.026 5.824h4.714V55.81h-4.714zm-6.913 0h4.714V55.81H64.4zm-6.914 0H62.2V55.81h-4.714zm-2.2-11.65h22.94v2.2h-22.94zm0-5.825h22.94v2.2h-22.94zm0-5.825h22.94v2.2h-22.94zm-3.622 1.1c0 2.213-1.8 4.013-4.01 4.013-2.212 0-4.01-1.8-4.01-4.013 0-.114.015-.231.033-.355l.049-.38-4.759-2.382-.18.175a3.988 3.988 0 0 1-4.996.456l-.21-.14-5.48 4.111.075.24c.137.44.2.817.2 1.187 0 2.213-1.798 4.013-4.01 4.013-2.211 0-4.01-1.8-4.01-4.013 0-2.212 1.799-4.012 4.01-4.012.791 0 1.558.233 2.22.674l.209.14 5.48-4.112-.075-.24a3.98 3.98 0 0 1-.2-1.187c0-2.213 1.799-4.013 4.01-4.013s4.01 1.8 4.01 4.013c0 .11-.015.224-.031.346l-.048.389 4.756 2.38.182-.175a3.988 3.988 0 0 1 2.775-1.128c2.211 0 4.01 1.8 4.01 4.013zm-25.487 2.912c0-.999-.812-1.812-1.81-1.812-1 0-1.812.813-1.812 1.812 0 1 .813 1.813 1.811 1.813.999 0 1.811-.813 1.811-1.813zm11.644-8.737c0-1-.812-1.812-1.811-1.812-.999 0-1.811.813-1.811 1.812 0 1 .812 1.812 1.81 1.812 1 0 1.812-.813 1.812-1.812zm11.644 5.825c0-1-.813-1.812-1.811-1.812-.999 0-1.812.813-1.812 1.812 0 1 .813 1.812 1.812 1.812.998 0 1.81-.813 1.81-1.812zm-29.11 10.55h8.022v13.85h-8.021zm2.2 11.65h3.622v-9.45h-3.622zm9.444-20.388h8.022v22.589h-8.022zm2.2 20.388h3.622V41.246H34.2zm9.444-14.563h8.021v16.764h-8.02zm2.2 14.563h3.622V47.071h-3.623zm38.313-45.509V38.81a1.01 1.01 0 0 1-1.008 1.009 1.01 1.01 0 0 1-1.009-1.01V22.216H16.841v42.524a2.575 2.575 0 0 0 2.572 2.573h60.154a2.575 2.575 0 0 0 2.572-2.573V45.084a1.01 1.01 0 0 1 2.017 0v19.654a4.596 4.596 0 0 1-4.589 4.592H19.413c-2.53 0-4.589-2.06-4.589-4.592V13.924a4.596 4.596 0 0 1 4.59-4.592h60.153c2.53 0 4.59 2.06 4.59 4.592zm-2.017 0a2.575 2.575 0 0 0-2.572-2.573H19.413a2.575 2.575 0 0 0-2.572 2.573v6.272H82.14zm-59.765 1.894a1.01 1.01 0 0 1-1.009 1.01 1.01 1.01 0 0 1 0-2.02c.556 0 1.01.453 1.01 1.01zm5.458 0a1.01 1.01 0 0 1-1.01 1.01 1.01 1.01 0 0 1 0-2.02c.557 0 1.01.452 1.01 1.01zm5.458 0a1.01 1.01 0 0 1-1.01 1.01 1.01 1.01 0 0 1 0-2.02c.557 0 1.01.452 1.01 1.01z"/></g><g opacity=".1"><path fill="#06826a" d="M10 0h79c5.523 0 10 4.477 10 10v79c0 5.523-4.477 10-10 10H10C4.477 99 0 94.523 0 89V10C0 4.477 4.477 0 10 0z"/></g></g></svg>