<svg xmlns="http://www.w3.org/2000/svg" width="99" height="99" viewBox="0 0 99 99"><g><g><path fill="#06826a" d="M15.133 16.848a1.103 1.103 0 0 1-2.204 0c0-.607.494-1.102 1.102-1.102.608 0 1.102.495 1.102 1.102zm7.922 0a1.103 1.103 0 1 1-1.102-1.102c.608 0 1.102.495 1.102 1.102zm7.922 0a1.103 1.103 0 1 1-1.102-1.102c.607 0 1.102.495 1.102 1.102zM14.03 62.758h12.323a1.103 1.103 0 0 1 0 2.203H14.03a1.103 1.103 0 0 1 0-2.204zm46.3-22.447H45.718a1.103 1.103 0 0 1 0-2.204H60.33a1.103 1.103 0 0 1 0 2.204zm-20.552-9.377v25.882c0 .608-.494 1.102-1.102 1.102H14.031a1.103 1.103 0 0 1-1.102-1.102V30.934c0-.608.494-1.102 1.102-1.102h24.646c.608 0 1.102.494 1.102 1.102zm-2.204 1.76a.659.659 0 0 0-.658-.658H15.792a.659.659 0 0 0-.66.658v22.362c0 .363.296.658.66.658h21.125a.659.659 0 0 0 .658-.658zM85.862 57.09c-.63.27-1.14.807-1.361 1.437a11.884 11.884 0 0 0 0 7.846c.223.64.704 1.16 1.317 1.425.635.276 1.357.264 2.042-.039l1.995-.929c.947-.44 2.018-.379 2.865.162.813.52 1.28 1.394 1.28 2.397v7.5a2.866 2.866 0 0 1-2.862 2.862h-9.949a.659.659 0 0 0-.596.938l.978 2.09c.57 1.214.603 2.545.092 3.75a4.627 4.627 0 0 1-2.758 2.576c-3.113 1.06-6.338 1.061-9.328.002a4.721 4.721 0 0 1-2.776-2.628c-.496-1.189-.46-2.502.103-3.7l.978-2.09a.659.659 0 0 0-.597-.938h-9.947a2.866 2.866 0 0 1-2.863-2.863v-2.64a.659.659 0 0 0-.658-.66H51a1.103 1.103 0 0 1 0-2.203h2.817a.659.659 0 0 0 .658-.66V69.39c0-1.004.467-1.878 1.281-2.398.847-.541 1.917-.601 2.862-.163l2.009.935c.673.298 1.395.31 2.03.034a2.425 2.425 0 0 0 1.318-1.425c.887-2.54.887-5.326 0-7.847a2.504 2.504 0 0 0-1.364-1.437 2.392 2.392 0 0 0-1.947.03l-2.11.983a2.917 2.917 0 0 1-2.79-.197c-.819-.53-1.289-1.432-1.289-2.474v-7.418a2.866 2.866 0 0 1 2.863-2.863h9.947a.659.659 0 0 0 .597-.938l-.972-2.079c-.56-1.336-.589-2.602-.084-3.76.603-1.382 1.82-2.24 2.757-2.582 3.046-1.11 5.858-.865 7.682-.464a.657.657 0 0 0 .8-.643v-9.032a.659.659 0 0 0-.659-.659H8.75a.659.659 0 0 0-.659.659v45.074c0 .364.295.659.659.659h26.343c.613 0 1.123.45 1.162 1.024.021.308-.083.603-.294.828a1.09 1.09 0 0 1-.805.352H6.99a1.103 1.103 0 0 1-1.102-1.103v-59.16a4.628 4.628 0 0 1 4.623-4.622h65.136a4.628 4.628 0 0 1 4.623 4.623V36.27a.66.66 0 0 0 .216.488c.727.66 2.285 2.502 1.08 5.376l-.972 2.078a.659.659 0 0 0 .596.938h9.949A2.866 2.866 0 0 1 94 48.013v7.418c0 1.042-.47 1.943-1.289 2.474a2.912 2.912 0 0 1-2.78.202l-2.127-.992a2.39 2.39 0 0 0-1.942-.025zm-7.797-34.96v-8.803a2.422 2.422 0 0 0-2.419-2.42H10.51a2.422 2.422 0 0 0-2.419 2.42v8.803c0 .364.295.66.659.66h68.656a.659.659 0 0 0 .659-.66zm10.677 32.99l2.117.988a.657.657 0 0 0 .937-.597v-7.498a.659.659 0 0 0-.658-.66h-9.949c-1.005 0-1.882-.478-2.406-1.313-.53-.844-.601-1.9-.185-2.761l.977-2.092a.54.54 0 0 0 .012-.026c.277-.669.282-1.346.014-1.96a2.495 2.495 0 0 0-1.424-1.325c-2.394-.883-5.411-.884-7.873-.002a2.468 2.468 0 0 0-1.425 1.311c-.27.61-.266 1.311.01 1.976a.776.776 0 0 0 .012.027l.98 2.098c.413.855.34 1.91-.189 2.754-.524.835-1.401 1.314-2.407 1.314h-9.947a.659.659 0 0 0-.659.659v7.498a.659.659 0 0 0 .937.597l2.131-.993c1.08-.533 2.504-.558 3.717-.065 1.22.497 2.139 1.47 2.587 2.74 1.07 3.033 1.07 6.341.001 9.317a4.82 4.82 0 0 1-2.59 2.747c-.821.353-2.137.625-3.729-.075l-2.117-.986a.66.66 0 0 0-.937.597v7.498c0 .364.295.659.659.659h9.947c1.008 0 1.888.481 2.413 1.32.527.843.598 1.896.18 2.755l-.98 2.095a2.398 2.398 0 0 0-.018 2.012c.283.629.827 1.118 1.455 1.308 1.425.432 2.684.648 3.934.648s2.49-.217 3.876-.65a2.42 2.42 0 0 0 1.455-1.32 2.396 2.396 0 0 0-.025-2.001l-.981-2.101c-.414-.85-.344-1.902.183-2.745.525-.84 1.404-1.32 2.412-1.32h9.949a.659.659 0 0 0 .658-.66V69.39a.659.659 0 0 0-.937-.597l-2.104.981c-1.606.705-2.922.433-3.742.08a4.821 4.821 0 0 1-2.59-2.747c-1.07-2.974-1.069-6.283 0-9.316.45-1.272 1.37-2.246 2.591-2.742 1.213-.493 2.636-.468 3.728.072zM44.18 72.488a1.103 1.103 0 1 1-1.102-1.102c.608 0 1.102.494 1.102 1.101zm.437-40.32c0-.608.494-1.103 1.102-1.103H63.85a1.103 1.103 0 0 1 0 2.204H45.719a1.103 1.103 0 0 1-1.102-1.102z"/></g><g opacity=".1"><path fill="#06826a" d="M10 0h79c5.523 0 10 4.477 10 10v79c0 5.523-4.477 10-10 10H10C4.477 99 0 94.523 0 89V10C0 4.477 4.477 0 10 0z"/></g></g></svg>