<svg xmlns="http://www.w3.org/2000/svg" width="99" height="99" viewBox="0 0 99 99"><g><g opacity=".1"><path fill="#06826a" d="M10 0h79c5.523 0 10 4.477 10 10v79c0 5.523-4.477 10-10 10H10C4.477 99 0 94.523 0 89V10C0 4.477 4.477 0 10 0z"/></g><g><path fill="#06826a" d="M93.588 78.313v16.093H5V78.313c0-5.528 3.52-10.413 8.759-12.158l24.378-6.79v-5.527l-.217-.2c-.923-.857-1.416-1.323-1.506-1.426a18.707 18.707 0 0 1-2.868-4.432l-1.221-3.505a17.711 17.711 0 0 1-.25-1.224l-.378-2.261-.521-3.557c-.441-3.419-.739-7.08-.861-10.592v-.03a82.03 82.03 0 0 1-.02-.555l-.038-.768c-.044-1.022-.08-2.096-.003-2.994l.002-.039c.258-9.323 8.03-16.911 17.324-16.911h3.19c9.435 0 17.212 7.694 17.335 17.153l-.058 3.865c-.12 3.615-.42 7.369-.87 10.855l-.521 3.555-.38 2.278c-.62 3.719-2.43 7.261-5.1 9.975a5.944 5.944 0 0 1-.688.582l-.274.203v5.549l24.61 6.79.016.007a12.792 12.792 0 0 1 8.748 12.157zM45.61 16.049c.291 0 .577.118.783.324a29.312 29.312 0 0 0 16.486 8.25l3 .43v-.787c.01-.45.014-.942.014-1.505a15.128 15.128 0 0 0-4.423-10.733c-2.86-2.881-6.66-4.468-10.7-4.468h-3.19c-7.777 0-14.243 5.853-15.04 13.615l-.23 2.23 1.422-1.732c2.893-3.522 7.333-5.624 11.878-5.624zM32.544 26.925l.01.24c.216 5.374 1.234 14.377 2.172 17.497l1.631 3.71c2.12 3.553 5.455 6.121 9.151 7.046 2.39.597 4.945.597 7.335 0 5.608-1.404 10.234-6.64 11.249-12.733l.25-1.504c.159-.944.255-1.515.37-2.297l.01-.067c.51-3.426.872-7.203 1.047-10.923l.029-.614-3.233-.462c-6.397-.915-12.503-3.879-17.194-8.346l-.212-.202-.292.016a13.139 13.139 0 0 0-9.78 5.245zM67.247 64.01L61.42 81.5l-4.48-3.736-2.711 4.07 1.73 10.382H91.4V78.313c0-4.581-2.917-8.634-7.26-10.084zm-19.692 5.78l-8.437-8.445-5.932 1.98 4.807 14.44zm4.94 10.702l2.756-4.137-6.076-5.067-6.075 5.067 2.756 4.137zm-3.32-12.177l8.53-8.537.042-4.795-1.108.832c-1.148.862-2.58 1.422-3.578 1.74-.565.18-.977.277-1.09.302a17.39 17.39 0 0 1-7.086-.313c-1.999-.513-3.09-1.226-3.136-1.256l-1.058-.726v4.261zm11.184 9.45l4.808-14.44-5.933-1.98-8.437 8.445zm-45.918-9.534a10.611 10.611 0 0 0-7.253 10.082v13.904H42.39l1.733-10.381-2.712-4.071-4.48 3.736-5.826-17.491zM44.61 92.217h9.133l-1.589-9.535h-5.956z"/></g></g></svg>