<svg xmlns="http://www.w3.org/2000/svg" width="15" height="15" viewBox="0 0 15 15"><g><g><path fill="#fff" d="M5.945 10.616a4.648 4.648 0 0 0 3.307-1.369 4.629 4.629 0 0 0 1.37-3.303 4.644 4.644 0 0 0-1.37-3.301 4.646 4.646 0 0 0-3.308-1.37 4.652 4.652 0 0 0-3.306 1.37 4.63 4.63 0 0 0-1.37 3.301 4.642 4.642 0 0 0 1.37 3.303 4.647 4.647 0 0 0 3.306 1.37zm8.785 4.139l-.002.002a.638.638 0 0 1-.9-.025l-4.129-4.166a5.94 5.94 0 0 1-3.755 1.33 5.953 5.953 0 1 1 0-11.906 5.95 5.95 0 0 1 4.654 9.665l4.155 4.193a.644.644 0 0 1-.023.907z"/></g></g></svg>