<svg xmlns="http://www.w3.org/2000/svg" width="56" height="56" viewBox="0 0 56 56"><g><g clip-path="url(#clip-157)" opacity=".1"><path d="M55.998 47.999C55.998 74.468 34.465 96 7.995 96c-26.469 0-48.002-21.533-48.002-48.002 0-26.47 21.533-48.003 48.002-48.003 26.47 0 48.003 21.533 48.003 48.003zm-15.607-20.8C35.27 16.477 23.81 9.243 10.479 8.319c-.081-.005-4.635-.618-5.35 1.767-.77 2.567 3.697 6.706 3.513 12.153-.095 2.789-1.034 5.125-2.77 6.756-.744.7-1.914 1.358-3.155 2.054-2.84 1.598-6.377 3.586-7.172 7.704-.963 4.983 1.245 9.125 3.194 12.779.668 1.256 1.3 2.437 1.788 3.61 1.265 3.034 2.529 6.892 1.07 9.816-.41.824-2.437 3.154-13.498-3.479-4.532-2.716-10.74-6.513-14.564-6.848-3.36-.294-2.722 3.315-2.722 3.315C-26.023 75.592-9.624 87.18 7.74 87.684c10.742.311 20.384-5.412 22.964-9.607 3.662-5.96-3.35-13.564-7.568-16.754-1.247-.943-2.536-1.82-3.908-2.755-4.232-2.885-8.61-5.868-10.514-10.035-.665-1.457-.637-2.73.088-4.004 1.525-2.68 4.84-4.137 8.455-4.635 13.31-1.833 21.104-3.149 23.512-7.2 1.231-2.076-.361-5.464-.378-5.495z"/></g></g></svg>