<svg xmlns="http://www.w3.org/2000/svg" width="57" height="57" viewBox="0 0 57 57"><g><g clip-path="url(#clip-152)" opacity=".1"><path d="M57 48.5C57 75.243 35.242 97 8.5 97S-40 75.243-40 48.5-18.242 0 8.5 0 57 21.757 57 48.5zM8.5 73.543c13.809 0 25.043-11.234 25.043-25.043 0-13.81-11.234-25.043-25.043-25.043-13.81 0-25.043 11.234-25.043 25.043S-5.31 73.543 8.5 73.543zm37.116-4.736A42.067 42.067 0 0 0 50.818 48.5a42.06 42.06 0 0 0-5.201-20.305l-7.812 7.813A31.704 31.704 0 0 1 40.358 48.5c0 4.43-.912 8.654-2.553 12.492zM8.5 6.18a42.054 42.054 0 0 0-20.305 5.202l7.813 7.813A31.695 31.695 0 0 1 8.5 16.642c4.43 0 8.654.912 12.493 2.554l7.813-7.813A42.067 42.067 0 0 0 8.5 6.18zM-33.818 48.5a42.025 42.025 0 0 0 5.203 20.304l7.813-7.812a31.675 31.675 0 0 1-2.555-12.493c0-4.431.912-8.654 2.554-12.492l-7.813-7.813A42.046 42.046 0 0 0-33.818 48.5zM8.499 90.818a42.06 42.06 0 0 0 20.305-5.201l-7.813-7.812a31.708 31.708 0 0 1-12.492 2.553c-4.431 0-8.653-.912-12.492-2.553l-7.813 7.812a42.057 42.057 0 0 0 20.305 5.2z"/></g></g></svg>