<svg xmlns="http://www.w3.org/2000/svg" width="54" height="58" viewBox="0 0 54 58"><g><g clip-path="url(#clip-147)" opacity=".1"><path d="M51.84 17.438h-63.358c-1.191 0-2.158-.914-2.158-2.042V2.042c0-1.127.967-2.042 2.158-2.042H51.84c1.19 0 2.158.915 2.158 2.042v13.354c0 1.128-.966 2.042-2.158 2.042zm-89.685 9.082h89.688c1.191 0 2.158.914 2.158 2.042v13.354c0 1.127-.967 2.042-2.158 2.042h-89.688c-1.19 0-2.158-.915-2.158-2.042V28.562c0-1.129.966-2.042 2.158-2.042zm89.686 43.96h-63.36c-1.19 0-2.157-.915-2.157-2.042V55.083c0-1.127.967-2.042 2.158-2.042H51.84c1.19 0 2.158.915 2.158 2.042v13.355c0 1.128-.966 2.042-2.158 2.042zm-89.686 9.081h89.688c1.191 0 2.158.915 2.158 2.042v13.355C54 96.085 53.034 97 51.843 97h-89.688c-1.19 0-2.158-.915-2.158-2.042V81.603c0-1.128.966-2.042 2.158-2.042z"/></g></g></svg>