<svg xmlns="http://www.w3.org/2000/svg" width="79" height="59" viewBox="0 0 79 59"><g><g clip-path="url(#clip-142)" opacity=".1"><path d="M78.999 54.988v31.62c0 .629-.407 1.175-1.007 1.358l-28.868 9.932c-.301.103-.638.103-.937 0L19.5 88.025l-28.746 9.873c-.301.103-.636.103-.937 0l-28.86-9.92A1.424 1.424 0 0 1-40 86.64V54.747c0-.328.117-.652.328-.905.124-.196.374-.385.665-.489l28.193-10.03V11.722c0-.327.117-.65.328-.904.124-.196.374-.385.665-.488L19.024.066c.3-.103.636-.105.936 0l28.897 10.555c.575.198.96.737.96 1.342v31.374L78.04 53.646c.576.198.958.737.958 1.342zM44.785 16.83l-22.181 8.113v23.724l22.181-7.486zm-47.042-3.811l21.772 7.493 20.607-7.61-20.631-7.688zm13.196 42.908l-20.632-7.686-21.75 7.804 21.773 7.493zm4.661 3.929l-22.182 8.113v23.724L15.6 84.206zm53.708-3.929l-20.633-7.686-21.749 7.804L48.7 63.538zm4.66 28.279v-24.35l-22.182 8.113v23.724l22.183-7.487z"/></g></g></svg>