<svg xmlns="http://www.w3.org/2000/svg" width="14" height="11" viewBox="0 0 14 11"><g><g><path fill="#06826a" d="M11.853 6.265V8.75c0 .62-.237 1.15-.711 1.59a2.43 2.43 0 0 1-1.713.66H2.424a2.43 2.43 0 0 1-1.713-.66C.237 9.9 0 9.37 0 8.75v-6.5C0 1.63.237 1.1.71.66A2.43 2.43 0 0 1 2.424 0h7.004c.354 0 .682.065.985.195a.24.24 0 0 1 .152.18.232.232 0 0 1-.076.226l-.412.383a.276.276 0 0 1-.194.078.29.29 0 0 1-.075-.015A1.605 1.605 0 0 0 9.428 1H2.425c-.37 0-.687.122-.95.367-.265.245-.396.539-.396.883v6.5c0 .343.131.637.395.882s.581.368.951.368H9.43c.37 0 .687-.123.951-.368.264-.245.396-.539.396-.883V6.765c0-.067.025-.125.075-.172l.539-.5a.275.275 0 0 1 .194-.078c.033 0 .067.008.1.024.113.042.17.117.17.226zM14 2c0 .172-.068.32-.202.445l-6.853 6.36a.682.682 0 0 1-.48.187.682.682 0 0 1-.48-.187l-3.62-3.36A.588.588 0 0 1 2.164 5c0-.172.068-.32.203-.446l.926-.859a.682.682 0 0 1 .48-.187c.185 0 .345.062.48.187L6.464 5.75 11.912.695a.682.682 0 0 1 .48-.187c.185 0 .345.062.48.187l.926.86A.588.588 0 0 1 14 2z"/></g></g></svg>