<svg xmlns="http://www.w3.org/2000/svg" width="12" height="11" viewBox="0 0 12 11"><g><g><path fill="#4c4c4c" d="M11.848 2.25v6.5c0 .62-.237 1.15-.71 1.59-.475.44-1.046.66-1.713.66H2.423c-.667 0-1.238-.22-1.712-.66C.237 9.9 0 9.37 0 8.75v-6.5C0 1.63.237 1.1.71.66A2.428 2.428 0 0 1 2.423 0h7.002c.667 0 1.238.22 1.712.66.474.44.711.97.711 1.59zm-1.077 6.5v-6.5c0-.344-.132-.638-.395-.883A1.349 1.349 0 0 0 9.425 1H2.423c-.37 0-.687.122-.95.367-.264.245-.396.54-.396.883v6.5c0 .344.132.638.395.883.264.244.581.367.951.367h7.002c.37 0 .687-.123.95-.367.264-.245.396-.54.396-.883z"/></g></g></svg>