<svg xmlns="http://www.w3.org/2000/svg" width="1280" height="397" style="background: #f2f2f2;" viewBox="0 0 1280 397"><defs><mask id="t6tcb" width="2" height="2" x="-1" y="-1"><path fill="#fff" d="M0 0h1280v208H0z"/><path d="M0 0V95.81l71.111 26.649c71.111 26.248 213.333 80.143 355.556 85.133 142.222 4.99 284.444-36.928 426.666-58.585 142.222-21.258 284.445-21.258 355.556-21.258H1280V0z"/></mask><filter id="t6tca" width="1556" height="582" x="-138" y="-138" filterUnits="userSpaceOnUse"><feOffset dy="98" in="SourceGraphic" result="FeOffset1113Out"/><feGaussianBlur in="FeOffset1113Out" result="FeGaussianBlur1114Out" stdDeviation="51.2 51.2"/></filter></defs><g><g><g filter="url(#t6tca)"><path fill="none" d="M0 0V95.81l71.111 26.649c71.111 26.248 213.333 80.143 355.556 85.133 142.222 4.99 284.444-36.928 426.666-58.585 142.222-21.258 284.445-21.258 355.556-21.258H1280V0z" mask="url(&quot;#t6tcb&quot;)"/><path fill-opacity=".08" d="M0 0V95.81l71.111 26.649c71.111 26.248 213.333 80.143 355.556 85.133 142.222 4.99 284.444-36.928 426.666-58.585 142.222-21.258 284.445-21.258 355.556-21.258H1280V0z"/></g><path fill="#fff" d="M0 0V95.81l71.111 26.649c71.111 26.248 213.333 80.143 355.556 85.133 142.222 4.99 284.444-36.928 426.666-58.585 142.222-21.258 284.445-21.258 355.556-21.258H1280V0z"/></g></g></svg>