<svg xmlns="http://www.w3.org/2000/svg" width="1280" height="135" viewBox="0 0 1280 135"><defs><clipPath id="hjxba"><path fill="#fff" d="M-1 50.999c72.683 40.652 141.794 116.313 399 61 198.85-42.764 383.392 5.555 475 6 178.72.867 210.915-59.22 402-67"/></clipPath><clipPath id="hjxbb"><path fill="#fff" d="M-38-27.002s100.252 83.977 250 135c182.642 62.233 508.566-7.527 762-30 140.49-12.456 263.675 4.821 316 31.001"/></clipPath></defs><g><g><g opacity=".22"><path fill="none" stroke="#06826a" stroke-dasharray="20 20" stroke-miterlimit="20" stroke-width="4" d="M-1 50.999c72.683 40.652 141.794 116.313 399 61 198.85-42.764 383.392 5.555 475 6 178.72.867 210.915-59.22 402-67" clip-path="url(&quot;#hjxba&quot;)"/></g><g opacity=".22"><path fill="none" stroke="#ff3600" stroke-dasharray="20 20" stroke-miterlimit="20" stroke-width="4" d="M-38-27.002v0s100.252 83.977 250 135c182.642 62.233 508.566-7.527 762-30 140.49-12.456 263.675 4.821 316 31.001" clip-path="url(&quot;#hjxbb&quot;)"/></g></g></g></svg>