<?xml version="1.0" encoding="utf-8"?>
<!-- Generator: Adobe Illustrator 22.0.0, SVG Export Plug-In . SVG Version: 6.00 Build 0)  -->
<svg version="1.1" xmlns="http://www.w3.org/2000/svg" xmlns:xlink="http://www.w3.org/1999/xlink" x="0px" y="0px"
	 viewBox="0 0 379.6 359" style="enable-background:new 0 0 379.6 359;" xml:space="preserve">
<style type="text/css">
	.st0{display:none;}
	.st1{display:inline;fill:#FF0000;stroke:#000000;stroke-miterlimit:10;}
	.st2{fill:none;stroke:url(#SVGID_1_);stroke-width:2;stroke-miterlimit:10;}
</style>
<g id="Layer_2" class="st0">
	<rect x="-9" class="st1" width="388.6" height="359"/>
</g>
<g id="Layer_1">
	<title>pattern req</title>
	<radialGradient id="SVGID_1_" cx="190.2884" cy="179.0512" r="185.2128" gradientUnits="userSpaceOnUse">
		<stop  offset="0" style="stop-color:#000000;stop-opacity:0.1"/>
		<stop  offset="0.8769" style="stop-color:#959494;stop-opacity:0.1"/>
		<stop  offset="1" style="stop-color:#FFFFFF;stop-opacity:0"/>
	</radialGradient>
	<path class="st2" d="M210.7,223.4c-1.3,0-2.6,0.5-3.5,1.5l-13.9,13.9c-2,2-2,5.1,0,7.1c0,0,0,0,0,0l13.9,13.9c2,2,5.1,2,7.1,0
		l13.9-13.9c2-2,2-5.1,0-7.1c0,0,0,0,0,0l-13.9-13.9C213.3,224,212,223.4,210.7,223.4L210.7,223.4z M257.1,191.4h24.2 M269.2,179.3
		v24.2 M269.6,302.1c14.7,0,26.5,11.9,26.5,26.5s-11.9,26.5-26.5,26.5c-14.7,0-26.6-11.9-26.6-26.5S254.9,302.1,269.6,302.1z
		 M335.6,190.8c6.6,0,12,5.4,12,12s-5.4,12-12,12s-12-5.4-12-12S328.9,190.8,335.6,190.8z M373.3,194.5l-4.5,1.8
		c-4.9,2-7.2-0.4-5.3-5.2l1.8-4.5c2-4.9-0.4-7.2-5.2-5.3l-4.5,1.8c-4.9,2-7.2-0.4-5.3-5.2l1.8-4.5c2-4.9-0.4-7.2-5.2-5.3l-4.5,1.8
		c-4.9,2-7.2-0.4-5.2-5.2l1.8-4.5c2-4.9-0.4-7.2-5.2-5.3l-4.5,1.8 M243.1,250.8l36,36 M206.8,293c-0.2-0.8,0.2-1.5,1-1.7
		c0.2-0.1,0.5-0.1,0.7,0l10.9,2.9l11.4,3.1c0.6,0.2,0.9,0.8,0.8,1.4c-0.1,0.2-0.1,0.4-0.3,0.5l-8.4,8.4l-8,8c-0.5,0.6-1.4,0.6-2,0
		c-0.2-0.2-0.3-0.4-0.4-0.6l-2.9-10.9L206.8,293z M351,275.3c-1.3,0-2.6,0.5-3.5,1.5l-9.9,9.9c-2,2-2,5.1,0,7.1l9.9,9.9
		c2,2,5.1,2,7.1,0l9.9-9.9c2-2,2-5.1,0-7.1l-9.9-9.9C353.6,275.8,352.3,275.3,351,275.3L351,275.3z M347.5,233.6l-12.8,12.8
		 M183.3,356.3l1.3-2.2c1.4-2.4,3.7-2.4,5,0l1.3,2.2c1.4,2.4,3.7,2.4,5.1,0l1.3-2.2c1.4-2.4,3.7-2.4,5,0l1.3,2.2
		c1.4,2.4,3.7,2.4,5,0l1.3-2.2c1.4-2.4,3.7-2.4,5.1,0l1.3,2.2c1.4,2.4,3.7,2.4,5,0l1.3-2.2 M330.4,250.8l-0.9,0.9 M321.9,259.3
		l4.3-4.3 M253.5,219.3c-4.7,4.7-4.7,12.3,0,17 M303,293.6c0,3.8,3.1,6.8,6.8,6.8c3.8,0,6.8-3.1,6.8-6.8c0-3.8-3.1-6.9-6.8-6.9l0,0
		 M361.5,214.9c0.2-0.3,0.6-0.4,0.9-0.3c0.1,0.1,0.2,0.1,0.3,0.3l2.6,4.6l2.8,4.8c0.1,0.2,0.1,0.6-0.2,0.7c-0.1,0-0.2,0.1-0.3,0.1
		h-10.8c-0.4,0-0.7-0.3-0.7-0.7c0-0.1,0-0.2,0.1-0.3l2.6-4.6L361.5,214.9z M326.2,228c1.1,0.6,1.5,2,0.8,3.1
		c-0.2,0.3-0.5,0.6-0.8,0.8l-15.8,9.1l-16.5,9.5c-0.9,0.5-2,0.2-2.4-0.7c-0.2-0.3-0.2-0.6-0.2-0.9v-37.2c0-1.3,1-2.3,2.3-2.3
		c0.4,0,0.8,0.1,1.1,0.3l15.8,9.1L326.2,228z M368.1,264.9v-14.5 M360.8,257.6h14.5 M149,166.8h-29.4c-2.8,0-5,2.2-5,5v29.4
		c0,2.8,2.2,5,5,5H149c2.8,0,5-2.2,5-5v-29.4C154,169.1,151.8,166.8,149,166.8z M76.5,131.8v-24.2 M64.3,119.6h24.2 M213.7,92.7
		c14.7,0,26.6,11.9,26.6,26.6s-11.9,26.6-26.6,26.6s-26.6-11.9-26.6-26.6S199.1,92.7,213.7,92.7z M87.8,41.3c6.6,0,12,5.4,12,12
		s-5.4,12-12,12s-12-5.4-12-12S81.2,41.3,87.8,41.3z M69.3,70.4l1.8,4.5c2,4.9-0.4,7.2-5.3,5.2l-4.5-1.8c-4.9-2-7.2,0.4-5.2,5.3
		l1.8,4.5c2,4.9-0.4,7.2-5.2,5.2l-4.5-1.8c-4.9-2-7.2,0.4-5.2,5.3l1.8,4.5c2,4.9-0.4,7.2-5.2,5.2l-4.5-1.8c-4.9-2-7.2,0.4-5.2,5.3
		l1.8,4.5 M137.5,149.2l36-36 M178,197.8c-0.7,0.2-1.5-0.2-1.7-1c-0.1-0.2-0.1-0.5,0-0.8l3-10.9l3-11.5c0.2-0.6,0.8-0.9,1.4-0.8
		c0.2,0.1,0.4,0.2,0.5,0.3l8.4,8.4l8,8c0.6,0.6,0.5,1.5,0,2c-0.2,0.2-0.4,0.3-0.6,0.4l-10.9,2.9L178,197.8z M175.2,23.1
		c-1.3,0-2.6,0.5-3.5,1.5l-9.9,9.9c-2,2-2,5.1,0,7.1c0,0,0,0,0,0l9.9,9.9c2,2,5.1,2,7.1,0l9.9-9.9c2-2,2-5.1,0-7.1c0,0,0,0,0,0
		l-9.9-9.9C177.8,23.6,176.5,23,175.2,23.1z M118.7,41.3l12.8,12.8 M241.3,205.6l-2.2-1.3c-2.4-1.4-2.4-3.7,0-5l2.2-1.3
		c2.4-1.4,2.4-3.7,0-5.1l-2.2-1.3c-2.4-1.4-2.4-3.7,0-5l2.2-1.3c2.4-1.4,2.4-3.7,0-5.1l-2.2-1.3c-2.4-1.4-2.4-3.7,0-5l2.2-1.3
		c2.4-1.4,2.4-3.7,0-5.1l-2.2-1.3 M135.8,58.4l0.9,0.9 M144.4,67l-4.3-4.3 M104.3,135.3c4.7,4.7,12.3,4.7,17,0c0,0,0,0,0,0
		 M178.6,85.9c3.8,0,6.8-3.1,6.8-6.9c0-3.8-3.1-6.8-6.9-6.8s-6.8,3.1-6.8,6.9c0,0,0,0,0,0 M102.8,22.3c-0.3-0.2-0.4-0.6-0.2-0.9
		c0.1-0.1,0.1-0.2,0.2-0.2l4.6-2.6l4.8-2.8c0.2-0.1,0.6-0.1,0.7,0.2c0,0.1,0.1,0.2,0.1,0.3V27c0,0.4-0.3,0.7-0.7,0.7
		c-0.1,0-0.2,0-0.3-0.1l-4.6-2.6L102.8,22.3z M118.1,74.7c0.6-1.1,2-1.5,3.1-0.8c0.4,0.2,0.6,0.5,0.8,0.8l9.1,15.8l9.5,16.5
		c0.5,0.9,0.2,2-0.7,2.4c-0.3,0.2-0.6,0.2-0.9,0.2h-37.2c-1.3,0-2.3-1-2.3-2.3c0-0.4,0.1-0.8,0.3-1.2l9.1-15.8L118.1,74.7z
		 M149.9,20.8h-14.5 M142.6,28V13.5 M271.4,88.7c-1.3,0-2.6,0.5-3.5,1.5l-14.2,14.2c-2,2-2,5.1,0,7.1l14.2,14.2c2,2,5.1,2,7.1,0
		l14.2-14.2c2-2,2-5.1,0-7.1l-14.2-14.2C274,89.3,272.7,88.7,271.4,88.7L271.4,88.7z M266.4,55.3l13.1-13.1 M266.4,42.3l13.1,13.1
		 M347.3,102.5c11.2,0,20.3,9.1,20.3,20.3s-9.1,20.3-20.3,20.3s-20.3-9.1-20.3-20.3S336.1,102.5,347.3,102.5z M314.9,9.9
		c5.1,0,9.2,4.1,9.2,9.2s-4.1,9.2-9.2,9.2s-9.2-4.1-9.2-9.2S309.8,9.9,314.9,9.9z M287.6,18.7l-0.9,2.2c-1,2.4-2.6,2.4-3.6,0
		l-0.9-2.2c-1-2.4-2.6-2.4-3.6,0l-0.9,2.2c-1,2.4-2.6,2.4-3.6,0l-0.9-2.2c-1-2.4-2.6-2.4-3.6,0l-0.9,2.2c-1,2.4-2.6,2.4-3.6,0
		l-0.9-2.2c-1-2.4-2.6-2.4-3.6,0l-0.9,2.2 M290.8,95h38.9 M285.5,145.9c-0.5-0.3-0.7-1-0.4-1.5c0.1-0.2,0.2-0.3,0.4-0.4l7.5-4.3
		l7.8-4.5c0.4-0.2,0.9-0.1,1.2,0.3c0.1,0.1,0.1,0.3,0.1,0.4v17.7c0,0.6-0.5,1.1-1.1,1.1c-0.2,0-0.4-0.1-0.5-0.1l-7.5-4.3
		L285.5,145.9z M374.6,48.8h-8.3c-2.8,0-5,2.2-5,5v8.3c0,2.8,2.2,5,5,5h8.3c2.8,0,5-2.2,5-5v-8.3C379.6,51,377.3,48.8,374.6,48.8z
		 M338,29.3v13.9 M338,47.8v0.9 M338,57v-4.6 M279.5,72.3c0,5.1,4.1,9.2,9.2,9.2l0,0 M346.4,85.7c2,2,5.4,2,7.4,0c2-2,2-5.4,0-7.4
		c-2-2-5.4-2-7.4,0c0,0,0,0,0,0 M342,13.3c-0.1-0.3,0.1-0.5,0.3-0.6c0.1,0,0.2,0,0.3,0l3.9,1l4.1,1.1c0.2,0.1,0.3,0.3,0.3,0.5
		c0,0.1-0.1,0.1-0.1,0.2l-3,3l-2.9,2.9c-0.2,0.2-0.5,0.2-0.7,0c-0.1-0.1-0.1-0.1-0.1-0.2l-1-3.9L342,13.3z M323.4,37.8
		c0.9-0.2,1.9,0.3,2.1,1.2c0.1,0.3,0.1,0.6,0,0.9L322,53.3l-3.8,14c-0.2,0.7-1,1.2-1.7,1c-0.2-0.1-0.4-0.2-0.6-0.4l-10.3-10.3
		l-9.8-9.8c-0.7-0.7-0.7-1.8,0-2.4c0.2-0.2,0.5-0.4,0.8-0.5l13.4-3.6L323.4,37.8z M366,35l-7.8-7.8 M358.2,35l7.8-7.8 M161.2,325.1
		L148.1,312 M148.1,325.1l13.1-13.1 M118.1,267.4c5.1,0,9.2,4.1,9.2,9.2s-4.1,9.2-9.2,9.2s-9.2-4.1-9.2-9.2S113.1,267.4,118.1,267.4
		z M86.3,263.5l3.4,1.4c3.7,1.6,3.7,4.1,0,5.7l-3.4,1.4c-3.7,1.6-3.7,4.1,0,5.7l3.4,1.4c3.7,1.6,3.7,4.1,0,5.7l-3.4,1.4
		c-3.7,1.6-3.7,4.1,0,5.7l3.4,1.4c3.7,1.6,3.7,4.1,0,5.7l-3.4,1.4c-3.7,1.6-3.7,4.1,0,5.7l3.4,1.4 M168,211.9h-8.3c-2.8,0-5,2.2-5,5
		v8.3c0,2.8,2.2,5,5,5h8.3c2.8,0,5-2.2,5-5v-8.3C173,214.1,170.8,211.9,168,211.9z M135.1,253.4H149 M153.7,253.4h0.9 M162.9,253.4
		h-4.6 M178.3,312c5.1,0,9.2-4.1,9.2-9.2 M108.9,249.4c-0.3,0.1-0.6-0.1-0.6-0.4c0-0.1,0-0.2,0-0.3l1-3.9l1.1-4.1
		c0.1-0.2,0.3-0.3,0.5-0.3c0.1,0,0.1,0.1,0.2,0.1l3,3l2.9,2.9c0.2,0.2,0.2,0.5,0,0.7c-0.1,0.1-0.1,0.1-0.2,0.1l-3.9,1L108.9,249.4z
		 M143.6,268c-0.2-0.9,0.3-1.9,1.2-2.1c0.3-0.1,0.6-0.1,0.9,0l13.4,3.6l14,3.8c0.7,0.2,1.2,0.9,1,1.7c-0.1,0.2-0.2,0.4-0.4,0.6
		l-10.2,10.3l-9.8,9.8c-0.7,0.7-1.8,0.7-2.5,0c-0.2-0.2-0.4-0.5-0.4-0.8l-3.6-13.4L143.6,268z M140.9,225.4l-7.8,7.9 M140.9,233.3
		l-7.8-7.9 M87.2,207.9c6.6,0,12,5.4,12,12s-5.4,12-12,12s-12-5.4-12-12S80.6,207.9,87.2,207.9z M30.2,192.9l2.9-1.2
		c3.2-1.3,4.7,0.2,3.4,3.4l-1.2,2.9c-1.3,3.2,0.2,4.7,3.4,3.4l2.9-1.2c3.2-1.3,4.7,0.2,3.4,3.4l-1.2,2.9c-1.3,3.2,0.2,4.7,3.4,3.4
		l2.9-1.2c3.2-1.3,4.7,0.2,3.4,3.4l-1.2,2.9c-1.3,3.2,0.2,4.7,3.4,3.4l2.9-1.2 M41.7,171.3l12.8-12.8 M58.8,154.2l0.9-0.9
		 M67.3,145.6l-4.3,4.3 M8.9,184.1c-0.2,0.3-0.6,0.4-0.9,0.3c-0.1-0.1-0.2-0.1-0.3-0.3l-2.7-4.6l-2.8-4.8c-0.1-0.2-0.1-0.6,0.2-0.7
		c0.1,0,0.2-0.1,0.3-0.1h10.8c0.4,0,0.7,0.3,0.7,0.7c0,0.1,0,0.2-0.1,0.3l-2.6,4.6L8.9,184.1z M61.3,178.7c-1.1-0.6-1.5-2-0.8-3.1
		c0.2-0.3,0.5-0.6,0.8-0.8l15.8-9.1l16.5-9.5c0.9-0.5,2-0.2,2.4,0.6c0.2,0.3,0.2,0.6,0.2,0.9v37.2c0,1.3-1,2.3-2.3,2.3
		c-0.4,0-0.8-0.1-1.2-0.3l-15.8-9.1L61.3,178.7z M21.1,140.1v14.5 M28.4,147.4H13.8 M261.5,65.2H250 M255.7,70.9V59.5 M260.4,145
		c3.1,0,5.7,2.5,5.7,5.7s-2.5,5.7-5.7,5.7s-5.7-2.5-5.7-5.7S257.3,145,260.4,145z M193.3,156.5l2.1-0.9c2.3-0.9,3.4,0.2,2.5,2.5
		l-0.9,2.1c-0.9,2.3,0.2,3.4,2.5,2.5l2.1-0.9c2.3-0.9,3.4,0.2,2.5,2.5l-0.9,2.1c-0.9,2.3,0.2,3.4,2.5,2.5l2.1-0.9
		c2.3-0.9,3.4,0.2,2.5,2.5l-0.9,2.1c-0.9,2.3,0.2,3.4,2.5,2.5l2.1-0.9 M201.7,0.1c-0.9,0-1.7,0.4-2.3,1l-3.3,3.3
		c-1.3,1.3-1.3,3.4,0,4.7c0,0,0,0,0,0l3.3,3.3c1.3,1.3,3.4,1.3,4.7,0c0,0,0,0,0,0l3.3-3.3c1.3-1.3,1.3-3.4,0-4.7c0,0,0,0,0,0
		l-3.3-3.3C203.5,0.4,202.6,0.1,201.7,0.1L201.7,0.1z M218.8,45.3l6.1-6.1 M237.1,33.8l0.4-0.4 M227.6,17.8l1.2,5.4 M244.6,15.8
		c0-7.5-6.1-13.7-13.7-13.7l0,0 M170.8,12.3c-0.1,0.1-0.3,0.2-0.4,0.1c0,0-0.1-0.1-0.1-0.1l-1.2-2.2l-1.3-2.3
		c-0.1-0.1,0-0.3,0.1-0.3c0,0,0.1,0,0.1,0h5.1c0.2,0,0.3,0.1,0.3,0.3c0,0.1,0,0.1,0,0.2l-1.3,2.2L170.8,12.3z M228.8,48
		c-0.5-0.3-0.7-0.9-0.4-1.5c0.1-0.2,0.2-0.3,0.4-0.4l7.4-4.3l7.8-4.5c0.4-0.2,0.9-0.1,1.2,0.3c0.1,0.1,0.1,0.3,0.1,0.4v17.6
		c0,0.6-0.5,1.1-1.1,1.1c-0.2,0-0.4,0-0.5-0.1l-7.4-4.3L228.8,48z M214.2,23.7v6.9 M217.6,27.1h-6.9 M370.7,151.4
		c2.4,0,4.3,1.9,4.3,4.3s-1.9,4.3-4.3,4.3s-4.3-1.9-4.3-4.3S368.3,151.4,370.7,151.4z M52.5,251.1h24.2 M64.6,239v24.2 M1.1,208.4
		c-0.2-0.9,0.3-1.8,1.2-2c0.3-0.1,0.6-0.1,0.8,0l12.7,3.4l13.3,3.5c0.7,0.2,1.1,0.9,0.9,1.6c-0.1,0.2-0.2,0.4-0.3,0.6l-9.7,9.7
		l-9.3,9.3c-0.6,0.6-1.7,0.6-2.3,0c-0.2-0.2-0.3-0.5-0.4-0.7l-3.4-12.7L1.1,208.4z"/>
</g>
</svg>
