<svg xmlns="http://www.w3.org/2000/svg" width="120" height="34" viewBox="0 0 120 34"><g><g><g><path fill="#fff" d="M97.983 19.727h21.472a4.557 4.557 0 0 1-4.561 4.572H95.246c-2.386 0-4.28-1.969-4.28-4.29V5.024a4.558 4.558 0 0 1 4.56-4.572v16.882c0 1.337 1.053 2.392 2.457 2.392zm-9.474-4.01v2.603a5.967 5.967 0 0 1-5.964 5.98h-3.509A5.938 5.938 0 0 1 74.87 22.6a7.111 7.111 0 0 1-4.464 1.558H55.178v-4.502h15.438c1.333 0 2.456-1.125 2.456-2.462v-5.698h4.49v5.416a2.818 2.818 0 0 0 2.807 2.814h.842a2.818 2.818 0 0 0 2.807-2.814v-5.346h.421c2.246 0 4.07 1.829 4.07 4.15zM78.615 26.34a2.81 2.81 0 0 1 2.807 2.813 2.81 2.81 0 0 1-2.807 2.814 2.81 2.81 0 0 1-2.807-2.814 2.81 2.81 0 0 1 2.807-2.813zm5.684 0a2.81 2.81 0 0 1 2.807 2.813 2.81 2.81 0 0 1-2.807 2.814 2.81 2.81 0 0 1-2.807-2.814A2.81 2.81 0 0 1 84.3 26.34zM46.617 13.045a2.81 2.81 0 0 1 2.807 2.813 2.81 2.81 0 0 1-2.807 2.814 2.81 2.81 0 0 1-2.807-2.814 2.81 2.81 0 0 1 2.807-2.813zm5.684 0a2.81 2.81 0 0 1 2.806 2.813 2.81 2.81 0 0 1-2.806 2.814 2.81 2.81 0 0 1-2.807-2.814 2.81 2.81 0 0 1 2.807-2.813z"/></g><g><path fill="#fff" d="M39.052 17.128c0 1.344 1.119 2.475 2.448 2.475h12.85c1.88-.356 3.305-2.027 3.305-4.03 0-2.263-1.819-4.1-4.057-4.1h-9.72c.07-3.395 1.818-4.525 5.245-4.525h5.664c4.197 0 7.553 3.464 7.483 7.706v1.98c0 3.479-2.258 6.387-5.385 7.32v.173h-.703a7.62 7.62 0 0 1-1.465.141h-4.965a6.54 6.54 0 0 1-1.41-.14H41.71a7.056 7.056 0 0 1-4.93-1.991 7.056 7.056 0 0 1-4.931 1.99H24.35a14.838 14.838 0 0 1-1.804 4.242c-5.245 8.484-16.994 6.363-20.28.99-3.288-5.373-.91-11.807-.91-11.807l4.126.92s-1.398 5.868 1.679 8.554c3.357 2.899 11.12 2.687 12.658-4.03 1.119-4.807-1.818-8.766-1.818-8.766l4.126-2.616s2.3 3.358 2.612 7.99h7.319c1.328 0 2.447-1.132 2.447-2.476v-5.727h4.546zM4.504 11.614c1.545 0 2.798 1.266 2.798 2.828 0 1.561-1.253 2.828-2.798 2.828-1.545 0-2.797-1.267-2.797-2.828 0-1.562 1.252-2.828 2.797-2.828zM28.492 26.32c1.545 0 2.797 1.266 2.797 2.828 0 1.562-1.252 2.828-2.797 2.828-1.545 0-2.798-1.266-2.798-2.828 0-1.562 1.253-2.828 2.798-2.828zm5.665 0c1.545 0 2.797 1.266 2.797 2.828 0 1.562-1.252 2.828-2.797 2.828-1.545 0-2.798-1.266-2.798-2.828 0-1.562 1.253-2.828 2.798-2.828zm12.378 0c1.545 0 2.797 1.266 2.797 2.828 0 1.562-1.252 2.828-2.797 2.828-1.545 0-2.797-1.266-2.797-2.828 0-1.562 1.252-2.828 2.797-2.828zm5.665 0c1.545 0 2.797 1.266 2.797 2.828 0 1.562-1.252 2.828-2.797 2.828-1.545 0-2.798-1.266-2.798-2.828 0-1.562 1.253-2.828 2.798-2.828zm5.595 0c1.545 0 2.797 1.266 2.797 2.828 0 1.562-1.252 2.828-2.797 2.828-1.545 0-2.798-1.266-2.798-2.828 0-1.562 1.253-2.828 2.798-2.828zM2.685 5.109c-.349 0-.699 0-1.048-.07-.28-.071-.56-.142-.7-.213l.14-.989c.14.142.35.212.63.354.28.07.63.14.979.14.63 0 .909-.14.909-.494 0-.07 0-.212-.07-.283-.07-.07-.14-.141-.21-.141-.07-.071-.14-.142-.28-.142-.07-.07-.14-.07-.28-.141l-.699-.212-.28-.071c-.279-.141-.559-.283-.699-.424-.14-.142-.21-.354-.21-.636 0-.142.07-.354.14-.495.07-.142.14-.283.35-.424.14-.142.35-.213.56-.284.21-.07.49-.14.839-.14h.49c.14 0 .349.07.489.07s.28.07.42.141c.14.071.21.071.28.142l-.14.848c-.56-.283-1.05-.424-1.54-.424h-.349c-.14 0-.21.071-.28.071l-.21.212c-.07.07-.07.141-.07.212 0 .141 0 .212.07.283.07 0 .14.07.28.141.14 0 .28.07.49.141l.63.213.419.14c.07 0 .21.072.35.142.14.07.21.142.35.212.07.071.209.212.209.354.07.141.07.283.07.424 0 .141 0 .283-.07.425-.07.14-.14.282-.28.424a1.35 1.35 0 0 1-.63.353 4.17 4.17 0 0 1-1.048.142zm10.421-.141h-.979V.584h.98zm11.26-3.606h-1.469V5.04h-.98V1.362H20.45V.584h3.917zm10.7 3.606h-3.427V.584h3.357v.778h-2.378v.92h1.818v.777h-1.818v1.132h2.448zm18.113.142c-.35 0-.7-.071-1.05-.142-.279-.142-.559-.283-.838-.495-.28-.212-.42-.424-.56-.707a1.976 1.976 0 0 1-.21-.92c0-.352.07-.635.21-.918.14-.283.28-.495.56-.707.21-.212.49-.353.839-.495.28-.142.63-.142 1.049-.142.56 0 1.049.071 1.469.284l-.07.777c-.49-.141-.98-.283-1.4-.283-.279 0-.489.071-.629.142-.21.07-.35.212-.49.283-.139.07-.209.282-.279.494-.07.213-.14.284-.14.495 0 .212 0 .424.07.637.07.212.14.353.28.494.14.142.28.212.49.284.21.07.42.14.629.14.42 0 .91-.07 1.399-.282l.07.777c-.35.213-.84.284-1.4.284zm12.308-.142V3.059H63.04v1.909h-.91V.584h.98v1.768h2.447V.584h.98v4.384zm9.791 0H74.3V.584h.98zm11.12 0l-2.378-3.04v3.04h-.909V.584h.91l2.237 2.9v-2.9h.98v4.384z"/></g></g></g></svg>