<svg xmlns="http://www.w3.org/2000/svg" width="1282" height="187" viewBox="0 0 1282 187"><defs><clipPath id="tcb5a"><path fill="#fff" d="M1 185h145C270.532 185 217.065 1 340 1c138.673 0 62.146 184 203 184C680.88 185 605.277 1 739 1c138.086 0 64.14 185 204 185 135.37 0 55.23-183 199-183 92.605 0 139-1 139-1"/></clipPath></defs><g><g><path fill="none" stroke="#5400ff" stroke-dasharray="14 14" stroke-linecap="round" stroke-miterlimit="20" stroke-width="4" d="M1 185v0h145C270.532 185 217.065 1 340 1c138.673 0 62.146 184 203 184C680.88 185 605.277 1 739 1c138.086 0 64.14 185 204 185 135.37 0 55.23-183 199-183 92.605 0 139-1 139-1v0" clip-path="url(&quot;#tcb5a&quot;)"/></g></g></svg>