<svg xmlns="http://www.w3.org/2000/svg" width="29" height="41" viewBox="0 0 29 41"><g><g><path fill="#5400ff" d="M29 14.662v11.72C29 34.443 22.495 41 14.5 41S0 34.422 0 26.338V14.662C0 6.577 6.505 0 14.5 0S29 6.577 29 14.662zm-2.727 0c0-6.588-5.281-11.947-11.773-11.947-6.491 0-11.773 5.36-11.773 11.947v11.675c0 6.588 5.282 11.947 11.773 11.947 6.492 0 11.773-5.339 11.773-11.902zm-10.41-2.082v4.752c0 .75-.61 1.358-1.363 1.358a1.36 1.36 0 0 1-1.364-1.358V12.58c0-.75.61-1.358 1.364-1.358.753 0 1.364.609 1.364 1.358z"/></g></g></svg>