<svg style="opacity: .7" xmlns="http://www.w3.org/2000/svg" width="970" height="266" viewBox="0 0 970 266"><defs><clipPath id="sp3xa"><path fill="#fff" d="M2.301 258.769L144.236.887 963.86 262.216 715.974 2.266l111.949 260.64 141.935-153.764L785.942 2.266l107.95 261.33 72.967-55.852L546.052 1.576 967.859 25.02l-348.84 237.886 45.978-259.95-448.794 259.26-216.9-231.68 498.771 234.438L458.092 1.576l102.953 260.64L3.301 228.43 75.268 1.577l229.894 263.397L356.14 6.404 96.26 262.905 2.3 129.828 254.186 1.576l150.93 262.02L6.3 6.402l963.559 67.574-382.825 188.239L393.122 2.956l337.845 259.95-39.982-259.95"/></clipPath></defs><g><g clip-path="url(#clip-1065)" opacity=".07"><path fill="none" stroke="#fff" stroke-miterlimit="20" stroke-width="2" d="M2.301 258.769v0L144.236.887v0L963.86 262.216v0L715.974 2.266v0l111.949 260.64v0l141.935-153.764v0L785.942 2.266v0l107.95 261.33v0l72.967-55.852v0L546.052 1.576v0L967.859 25.02v0l-348.84 237.886v0l45.978-259.95v0l-448.794 259.26v0L-.697 30.536v0l498.771 234.438v0L458.092 1.576v0l102.953 260.64v0L3.301 228.43v0L75.268 1.577v0l229.894 263.397v0L356.14 6.404v0L96.26 262.905v0L2.3 129.828v0L254.186 1.576v0l150.93 262.02v0L6.3 6.402v0l963.559 67.574v0L587.033 262.216v0L393.122 2.956v0l337.845 259.95v0L690.985 2.956v0" clip-path="url(&quot;#sp3xa&quot;)"/></g></g></svg>