<svg xmlns="http://www.w3.org/2000/svg" width="509.938" height="454.419" viewBox="0 0 509.938 454.419"><defs><style>.a{fill:#f5f5f5;}.b,.r{fill:#e0e0e0;}.c{fill:#06826a;}.d{opacity:0.15;}.e{fill:none;stroke:#fff;stroke-linecap:round;stroke-miterlimit:10;}.f{fill:#ff3600;}.g,.v{fill:#455a64;}.h{fill:#37474f;}.i{fill:#263238;}.j{opacity:0.1;}.k,.m{opacity:0.4;}.l{fill:#fafafa;}.n{fill:#ffa8a7;}.o{fill:#f28f8f;}.p{fill:#f0f0f0;}.q{fill:#ebebeb;}.r{font-size:2px;font-family:ArialMT, Arial;}.s,.v{opacity:0.3;}.t,.u{fill:#fff;}.u{opacity:0.8;}</style></defs><g transform="translate(-47.763 -36.381)"><ellipse class="a" cx="247.3" cy="142.8" rx="247.3" ry="142.8" transform="translate(63.1 205.2)"/><path class="b" d="M203,397.4,81.4,327c-5-2.9-5-7.6,0-10.4L280,201.9a8.056,8.056,0,0,1,7.4,0l133.1,70.3a2.261,2.261,0,0,1,.8,3.1,3.044,3.044,0,0,1-.8.8L210.4,397.4A8.055,8.055,0,0,1,203,397.4Z"/><ellipse class="b" cx="58.9" cy="34" rx="58.9" ry="34" transform="translate(363.1 345.1)"/><path class="c" d="M97.2,280.8s2.6-19.7-6.1-32.9-21.2-12.5-25.9-10.8-8.4,7.7-1.4,13.2,21.8,16.6,23.5,25.1Z"/><path class="d" d="M97.2,280.8s2.6-19.7-6.1-32.9-21.2-12.5-25.9-10.8-8.4,7.7-1.4,13.2,21.8,16.6,23.5,25.1Z"/><path class="e" d="M69.6,239.9c6.4,2.7,22.7,12.3,25.1,38"/><path class="f" d="M95.6,275.4c.4-5.1-3.6-9.4-12.1-9.8s-7.2-.3-16.7-5-17.3-2-18.8,1.7c-1.7,4.1,6.1,7.6,11.6,11.6s9,8.4,6.4,13.5c-2.2,4.4-2.3,8.6,4.6,11.8,6.1,2.9,13.8.6,15.2,7.3.8,3.8,6,8.9,12.2,6.8C115.7,301.6,95.6,275.4,95.6,275.4Z"/><path class="e" d="M55.9,261.7c10.3,3,37.3,16.5,46.1,44"/><path class="e" d="M73.2,289.7s8.8-4,18.4-3.1"/><path class="g" d="M94.9,314.5a10.517,10.517,0,0,0,4.9,8.1l106,61.2a10.4,10.4,0,0,0,9.7,0L402.1,276.1a9.126,9.126,0,0,0,3.8-12.4,9.91,9.91,0,0,0-3.8-3.8l-106-61.2a10.4,10.4,0,0,0-9.7,0L99.7,306.5A10.077,10.077,0,0,0,94.9,314.5Z"/><path class="h" d="M406.9,268a10.517,10.517,0,0,1-4.9,8.1L215.4,383.8a10.442,10.442,0,0,1-4.9,1.2V374.5a10.442,10.442,0,0,0,4.9-1.2L402,265.5c2.4-1.4,2.6-3.5.9-5A10.8,10.8,0,0,1,406.9,268Z"/><path class="i" d="M210.6,374.4v10.5a10.442,10.442,0,0,1-4.9-1.2l-106-61.2a9.012,9.012,0,0,1-3.8-12.3,8.584,8.584,0,0,1,3.3-3.5c-2.2,1.6-2,3.9.5,5.3l106,61.2A8.517,8.517,0,0,0,210.6,374.4Z"/><path class="h" d="M113.2,306.7l173.2-100a5.3,5.3,0,0,1,4.9,0l5,2.6c1.3.8,1.3,2,0,2.8l-173.2,100a5.3,5.3,0,0,1-4.9,0l-5-2.6C111.9,308.8,111.9,307.5,113.2,306.7Z"/><path class="i" d="M126.8,314.8,300,214.8a4.6,4.6,0,0,1,4.4-.2l45.1,26c1.1.6.9,1.8-.4,2.6l-173,99.9a4.9,4.9,0,0,1-4.4.3l-45.3-25.9C125.3,316.7,125.5,315.6,126.8,314.8Z"/><path class="g" d="M275.4,256.4l5.4-3.1c.2-.1.3-.3.1-.4l-4.8-2.8a1.1,1.1,0,0,0-.8,0l-5.4,3.1c-.2.1-.3.3-.1.4l4.8,2.8A1.1,1.1,0,0,0,275.4,256.4Zm-7.5-10.6-5.4,3.2c-.2.1-.3.3-.1.4l4.8,2.8a1.1,1.1,0,0,0,.8,0l5.4-3.2c.2-.1.3-.3.1-.4l-4.8-2.8A.6.6,0,0,0,267.9,245.8Zm-17.5,10.1-9.2,5.3c-.2.1-.3.3-.1.4l4.8,2.8a1.1,1.1,0,0,0,.8,0l9.2-5.3c.2-.1.3-.3.1-.4l-4.8-2.8A1.1,1.1,0,0,0,250.4,255.9Zm9.6-5.5-5.4,3.1c-.2.1-.3.3-.1.4l4.8,2.8a1.1,1.1,0,0,0,.8,0l5.4-3.1c.2-.1.3-.3.1-.4l-4.8-2.8a.6.6,0,0,0-.8,0Zm-21.3,12.2-5.4,3.1c-.2.1-.3.3-.1.4l4.8,2.7a1.1,1.1,0,0,0,.8,0l5.4-3.1c.2-.1.3-.3.1-.4l-4.8-2.8A1.949,1.949,0,0,0,238.7,262.6Zm-7.9,4.6-5.4,3.1c-.2.1-.3.3-.1.4l4.8,2.8a1.1,1.1,0,0,0,.8,0l5.4-3.1c.2-.1.3-.3.1-.4l-4.8-2.8a1.1,1.1,0,0,0-.8,0Zm20.1,12.1,5.4-3.1c.2-.1.3-.3.1-.4l-4.8-2.8a1.1,1.1,0,0,0-.8,0l-5.4,3.2c-.2.1-.3.3-.1.4l4.8,2.8a1.185,1.185,0,0,0,.8-.1Zm-8,4.6,5.4-3.1c.2-.1.3-.3.1-.4l-4.8-2.8a1.1,1.1,0,0,0-.8,0l-5.4,3.1c-.2.1-.3.3-.1.4l4.8,2.8a1.1,1.1,0,0,0,.8,0Zm-7.9,4.6,5.4-3.1c.2-.1.3-.3.1-.4l-4.8-2.8a1.1,1.1,0,0,0-.8,0l-5.4,3.1c-.2.1-.3.3-.1.4l4.8,2.8a1.1,1.1,0,0,0,.8,0Zm-7.9,4.5,5.4-3.1c.2-.1.3-.3.1-.4l-4.8-2.8a1.1,1.1,0,0,0-.8,0l-5.4,3.1c-.2.1-.3.3-.1.4l4.8,2.8a.608.608,0,0,0,.8,0Zm40.4-32,5.4-3.1c.2-.1.3-.3.1-.4l-4.8-2.8a1.1,1.1,0,0,0-.8,0l-5.4,3.1c-.2.1-.3.3-.1.4l4.8,2.8a1.1,1.1,0,0,0,.8,0Zm-8.7,13.8,12.1-7c.2-.1.3-.3.1-.4l-12.3-7.1a1.1,1.1,0,0,0-.8,0l-6.3,3.6c-.2.1-.3.3-.1.4l6.8,4c.2.1.1.3-.1.4l-5,2.9c-.2.1-.3.3-.1.4l4.8,2.8a1.387,1.387,0,0,0,.9,0Zm-36-3-5.5,3.1c-.2.1-.3.3-.1.4l4.8,2.8a1.1,1.1,0,0,0,.8,0l5.4-3.1c.2-.1.3-.3.1-.4l-4.8-2.8a.846.846,0,0,0-.7,0Zm-7.9,4.6-5.4,3.1c-.2.1-.3.3-.1.4l4.8,2.8a1.1,1.1,0,0,0,.8,0l5.4-3.1c.2-.1.3-.3.1-.4l-4.8-2.8a.6.6,0,0,0-.8,0Zm-44.1,48.7a1.1,1.1,0,0,0,.8,0L177,322c.2-.1.3-.3.1-.4l-4.8-2.8a1.1,1.1,0,0,0-.8,0l-5.4,3.1c-.2.1-.3.3-.1.4Zm-19.3-12.2-5.4,3.1c-.2.1-.3.3-.1.4l4.8,2.8a1.1,1.1,0,0,0,.8,0l5.4-3.1c.2-.1.3-.3.1-.4l-4.8-2.7A.8.8,0,0,0,151.5,312.9Zm9.7,9a1.1,1.1,0,0,0,.8,0l5.4-3.1c.2-.1.3-.3.1-.4l-4.8-2.8a1.1,1.1,0,0,0-.8,0l-5.4,3.1c-.2.1-.3.3-.1.4Zm22.1,5,5.4-3.1c.2-.1.3-.3.1-.4l-4.8-2.8a1.1,1.1,0,0,0-.8,0l-5.4,3.1c-.2.1-.3.3-.1.4l4.8,2.8a.608.608,0,0,0,.8,0Zm-8.7,4.7a1.1,1.1,0,0,0,.8,0l5.4-3.1c.2-.1.3-.3.1-.4l-4.8-2.8a1.1,1.1,0,0,0-.8,0l-5.4,3.1c-.2.1-.3.3-.1.4Zm-15.2-23.2-5.4,3.1c-.2.1-.3.3-.1.4l4.8,2.8a1.1,1.1,0,0,0,.8,0l5.4-3.1c.2-.1.3-.3.1-.4l-4.8-2.8A1.1,1.1,0,0,0,159.4,308.4Zm39.7-22.9-5.4,3.1c-.2.1-.3.3-.1.4l4.8,2.8a1.1,1.1,0,0,0,.8,0l5.4-3.1c.2-.1.3-.3.1-.4l-4.8-2.8A1.1,1.1,0,0,0,199.1,285.5Zm-31.7,18.3-5.4,3.1c-.2.1-.3.3-.1.4l4.8,2.8a1.1,1.1,0,0,0,.8,0l5.4-3.1c.2-.1.3-.3.1-.4l-4.8-2.8A1.1,1.1,0,0,0,167.4,303.8ZM207,280.9l-5.4,3.1c-.2.1-.3.3-.1.4l4.8,2.8a1.1,1.1,0,0,0,.8,0l5.4-3.1c.2-.1.3-.3.1-.4l-4.8-2.8A1.1,1.1,0,0,0,207,280.9Zm-15.9,9.2-5.4,3.1c-.2.1-.3.3-.1.4l4.8,2.8a1.1,1.1,0,0,0,.8,0l5.4-3.1c.2-.1.3-.3.1-.4l-4.8-2.8C191.6,289.9,191.4,290,191.1,290.1Zm-7.9,4.6-5.4,3.1c-.2.1-.3.3-.1.4l4.8,2.8a1.1,1.1,0,0,0,.8,0l5.4-3.1c.2-.1.3-.3.1-.4l-4.8-2.8A1.1,1.1,0,0,0,183.2,294.7Zm-7.9,4.6-5.4,3.1c-.2.1-.3.3-.1.4l4.8,2.8a1.1,1.1,0,0,0,.8,0l5.4-3.1c.2-.1.3-.3.1-.4l-4.8-2.8A.6.6,0,0,0,175.3,299.3Zm36,2.9,5.4-3.1c.2-.1.3-.3.1-.4l-4.8-2.8a1.1,1.1,0,0,0-.8,0l-5.4,3.1c-.2.1-.3.3-.1.4l4.8,2.8a1.1,1.1,0,0,0,.8,0Zm74.1-66.5-5.4,3.1c-.2.1-.3.3-.1.4l4.8,2.8a.8.8,0,0,0,.8-.1l5.4-3.1c.2-.1.3-.3.1-.4l-4.8-2.8A.755.755,0,0,0,285.4,235.7Zm-9.6,5.5-5.4,3.1c-.2.1-.3.3-.1.4l4.8,2.8a1.1,1.1,0,0,0,.8,0l5.4-3.1c.2-.1.3-.3.1-.4l-4.8-2.8a1.1,1.1,0,0,0-.8,0Zm17.6-10.1-5.4,3.1c-.2.1-.3.3-.1.4l4.8,2.8a1.1,1.1,0,0,0,.8,0l5.4-3.1c.2-.1.3-.3.1-.4l-4.8-2.8A1.1,1.1,0,0,0,293.4,231.1Zm-44.2,40.5,5.4-3.1c.2-.1.3-.3.1-.4l-4.8-2.8a1.1,1.1,0,0,0-.8,0l-5.4,3.1c-.2.1-.3.3-.1.4l4.8,2.8A1.1,1.1,0,0,0,249.2,271.6ZM302,226.5a1.1,1.1,0,0,0-.8,0l-5.4,3.1c-.2.1-.3.3-.1.4l4.8,2.8a1.1,1.1,0,0,0,.8,0l5.4-3.1c.2-.1.3-.3.1-.4Zm-82.9,71.1,5.4-3.1c.2-.1.3-.3.1-.4l-4.8-2.8a1.1,1.1,0,0,0-.8,0l-5.4,3.1c-.2.1-.3.3-.1.4l4.8,2.8A.762.762,0,0,0,219.1,297.6Zm97.3-56.1,5.4-3.1c.2-.1.3-.3.1-.4l-4.8-2.8a1.1,1.1,0,0,0-.8,0l-5.4,3.1c-.2.1-.3.3-.1.4l4.8,2.8A1.1,1.1,0,0,0,316.4,241.5Zm-15.5.2,5.4-3.1c.2-.1.3-.3.1-.4l-4.8-2.8a1.1,1.1,0,0,0-.8,0l-5.4,3.1c-.2.1-.3.3-.1.4l4.8,2.8a1.1,1.1,0,0,0,.8,0Zm8.7-10.9a1.1,1.1,0,0,0-.8,0l-5.4,3.2c-.2.1-.3.3-.1.4l4.8,2.8a.8.8,0,0,0,.8-.1l5.4-3.1c.2-.1.3-.3.1-.4Zm1.6-1,12.3,7.1a.8.8,0,0,0,.8-.1l5.4-3.1c.2-.1.3-.3.1-.4l-12.3-7.1a1.1,1.1,0,0,0-.8,0l-5.4,3.1c-.2.2-.3.4-.1.5ZM292.9,240l-5.4,3.1c-.2.1-.3.3-.1.4l4.8,2.8a1.1,1.1,0,0,0,.8,0l5.4-3.1c.2-.1.3-.3.1-.4l-4.8-2.8a1.1,1.1,0,0,0-.8,0Zm-59.6,34.4-5.4,3.1c-.2.1-.3.3-.1.4l4.8,2.8a1.1,1.1,0,0,0,.8,0l5.4-3.1c.2-.1.3-.3.1-.4l-4.8-2.8a1.1,1.1,0,0,0-.8,0Zm74.4-28.3a1.1,1.1,0,0,0,.8,0l5.4-3.1c.2-.1.3-.3.1-.4l-4.8-2.8a.8.8,0,0,0-.8.1L303,243c-.2.1-.3.3-.1.4Zm-66.5,23.7-5.4,3.1c-.2.1-.3.3-.1.4l4.8,2.8a1.1,1.1,0,0,0,.8,0l5.4-3.1c.2-.1.3-.3.1-.4l-4.8-2.8a1.1,1.1,0,0,0-.8,0Zm-62.4,50.7a1.1,1.1,0,0,0,.8,0l5.4-3.1c.2-.1.3-.3.1-.4l-4.8-2.8a1.1,1.1,0,0,0-.8,0l-5.4,3.1c-.2.1-.3.3-.1.4Zm-8.9-9.4-5.4,3.1c-.2.1-.3.3-.1.4l4.8,2.8a1.1,1.1,0,0,0,.8,0l5.4-3.1c.2-.1.3-.3.1-.4l-4.8-2.8A.6.6,0,0,0,169.9,311.1Zm17.5,4.8,5.4-3.1c.2-.1.3-.3.1-.4l-4.8-2.8a1.1,1.1,0,0,0-.8,0l-5.4,3.1c-.2.1-.3.3-.1.4l4.8,2.8A.6.6,0,0,0,187.4,315.9Zm8-4.5,5.4-3.1c.2-.1.3-.3.1-.4l-4.8-2.8a1.1,1.1,0,0,0-.8,0l-5.4,3.1c-.2.1-.3.3-.1.4l4.8,2.8a1.1,1.1,0,0,0,.8,0Zm7.9-4.6,5.4-3.1c.2-.1.3-.3.1-.4l-4.8-2.8a1.1,1.1,0,0,0-.8,0l-5.4,3.1c-.2.1-.3.3-.1.4l4.8,2.8a1.1,1.1,0,0,0,.8,0Zm-25.5-.3-5.4,3.1c-.2.1-.3.3-.1.4l4.8,2.8a1.1,1.1,0,0,0,.8,0l5.4-3.1c.2-.1.3-.3.1-.4l-4.8-2.8a1.1,1.1,0,0,0-.8,0Zm7.9-4.6-5.4,3.1c-.2.1-.3.3-.1.4l4.8,2.8a1.1,1.1,0,0,0,.8,0l5.4-3.1c.2-.1.3-.3.1-.4l-4.8-2.8a1.1,1.1,0,0,0-.8,0Zm31.7-18.3-5.4,3.1c-.2.1-.3.3-.1.4l4.8,2.8a1.1,1.1,0,0,0,.8,0l5.4-3.1c.2-.1.3-.3.1-.4l-4.8-2.8a1.1,1.1,0,0,0-.8,0Zm-7.9,4.6-5.4,3.1c-.2.1-.3.3-.1.4l4.8,2.8a1.1,1.1,0,0,0,.8,0l5.4-3.1c.2-.1.3-.3.1-.4l-4.8-2.8a.762.762,0,0,0-.8,0Zm15.9-9.2-5.4,3.1c-.2.1-.3.3-.1.4l4.8,2.8a1.1,1.1,0,0,0,.8,0l5.4-3.1c.2-.1.3-.3.1-.4l-4.8-2.8A1.1,1.1,0,0,0,225.4,279Zm-31.7,18.3-5.4,3.1c-.2.1-.3.3-.1.4l4.8,2.8a1.1,1.1,0,0,0,.8,0l5.4-3.1c.2-.1.3-.3.1-.4l-4.8-2.8a1.07,1.07,0,0,0-.8,0Zm7.9-4.5-5.4,3.1c-.2.1-.3.3-.1.4l4.8,2.8a1.1,1.1,0,0,0,.8,0l5.4-3.1c.2-.1.3-.3.1-.4l-4.8-2.8a.6.6,0,0,0-.8,0Zm-10.4,29.6,5.4-3.1c.2-.1.3-.3.1-.4l-4.8-2.8a1.1,1.1,0,0,0-.8,0l-5.4,3.1c-.2.1-.3.3-.1.4l4.8,2.8a1.1,1.1,0,0,0,.8,0Zm-42.1-2.1-4.8-2.8a1.1,1.1,0,0,0-.8,0l-5.4,3.1c-.2.1-.3.3-.1.4l4.8,2.8a1.1,1.1,0,0,0,.8,0l5.4-3.1c.3-.1.3-.3.1-.4Zm10.5,2.6-4.8-2.8a1.1,1.1,0,0,0-.8,0l-8.3,4.8c-.2.1-.3.3-.1.4l4.8,2.8a1.1,1.1,0,0,0,.8,0l8.4-4.8A.3.3,0,0,0,159.6,322.9Zm-17.5-8.1-4.8-2.8a1.1,1.1,0,0,0-.8,0l-6.7,3.9c-.2.1-.3.3-.1.4l4.8,2.8a1.1,1.1,0,0,0,.8,0l6.7-3.9c.2-.1.3-.3.1-.4Zm5.1-3a1.1,1.1,0,0,0,.8,0l5.4-3.1c.2-.1.3-.3.1-.4l-4.8-2.8a1.1,1.1,0,0,0-.8,0l-5.4,3.1c-.2.1-.3.3-.1.4Zm22,14.2-4.8-2.7a1.1,1.1,0,0,0-.8,0l-10.4,6c-.2.1-.3.3-.1.4l4.8,2.8a1.1,1.1,0,0,0,.8,0l10.4-6c.3-.1.3-.3.1-.5Zm3.8,6.6-4.8-2.8a1.1,1.1,0,0,0-.8,0l-6.7,3.9c-.2.1-.3.3-.1.4l4.8,2.8a1.1,1.1,0,0,0,.8,0l6.7-3.9a.247.247,0,0,0,.1-.4Zm33.1-54.8a1.1,1.1,0,0,0,.8,0l5.4-3.1c.2-.1.3-.3.1-.4l-4.8-2.8a1.1,1.1,0,0,0-.8,0l-5.4,3.1c-.2.1-.3.3-.1.4Zm-15.8,9.1a1.1,1.1,0,0,0,.8,0l5.4-3.1c.2-.1.3-.3.1-.4l-4.8-2.8a1.1,1.1,0,0,0-.8,0l-5.4,3.1c-.2.1-.3.3-.1.4Zm-35.2,20.3a1.1,1.1,0,0,0,.8,0l5.4-3.1c.2-.1.3-.3.1-.4l-4.8-2.8a1.1,1.1,0,0,0-.8,0l-5.5,3.2c-.2.1-.3.3-.1.4Zm43.1-24.8a1.1,1.1,0,0,0,.8,0l5.4-3.1c.2-.1.3-.3.1-.4l-4.8-2.8a1.1,1.1,0,0,0-.8,0l-5.4,3.1c-.2.1-.3.3-.1.4Zm-15.8,9.1a1.1,1.1,0,0,0,.8,0l5.4-3.1c.2-.1.3-.3.1-.4l-4.8-2.8a1.1,1.1,0,0,0-.8,0l-5.4,3.1c-.2.1-.3.3-.1.4Zm-5,41.7a1.1,1.1,0,0,0-.8,0l-8.3,4.8c-.2.1-.3.3-.1.4l4.8,2.8a1.1,1.1,0,0,0,.8,0l8.3-4.8c.2-.1.3-.3.1-.4ZM171,298.1a1.1,1.1,0,0,0,.8,0l5.4-3.1c.2-.1.3-.3.1-.4l-4.8-2.8a1.1,1.1,0,0,0-.8,0l-5.4,3.1c-.2.1-.3.3-.1.4Zm-7.9,4.6a1.1,1.1,0,0,0,.8,0l5.4-3.1c.2-.1.3-.3.1-.4l-4.8-2.8a1.1,1.1,0,0,0-.8,0l-5.4,3.1c-.2.1-.3.3-.1.4Zm161.1-54.3a1.1,1.1,0,0,0-.8,0L310,256.1c-.2.1-.3.3-.1.4l4.8,2.8a1.1,1.1,0,0,0,.8,0l13.4-7.7c.2-.1.3-.3.1-.4Zm-17.5,10.1a1.1,1.1,0,0,0-.8,0l-5.4,3.1c-.2.1-.3.3-.1.4l4.8,2.8a1.1,1.1,0,0,0,.8,0l5.4-3.1c.2-.1.3-.3.1-.4ZM199.1,317.8l5.4-3.1c.2-.1.3-.3.1-.4l-4.8-2.8a1.1,1.1,0,0,0-.8,0l-5.4,3.1c-.2.1-.3.3-.1.4l4.8,2.9A.755.755,0,0,0,199.1,317.8Zm91.7-50.1a1.1,1.1,0,0,0-.8,0l-5.4,3.1c-.2.1-.3.3-.1.4l4.8,2.8a1.1,1.1,0,0,0,.8,0l5.4-3.1c.2-.1.3-.3.1-.4Zm41.3-23.9a1.1,1.1,0,0,0-.8,0l-5.4,3.1c-.2.1-.3.3-.1.4l4.8,2.8a.8.8,0,0,0,.8-.1l5.4-3.1c.2-.1.3-.3.1-.4Zm12.7-1.8-12.3-7.1a.8.8,0,0,0-.8.1l-5.4,3.1c-.2.1-.3.3-.1.4l12.3,7.1a1.1,1.1,0,0,0,.8,0l5.4-3.1c.3-.2.3-.4.1-.5Zm-83.6,42.8a1.1,1.1,0,0,0-.8,0l-6.7,3.9c-.2.1-.3.3-.1.4l4.8,2.8a1.1,1.1,0,0,0,.8,0l6.7-3.9c.2-.1.3-.3.1-.4Zm20-11.6a1.1,1.1,0,0,0-.8,0l-8.3,4.8c-.2.1-.3.3-.1.4l4.8,2.8a1.1,1.1,0,0,0,.8,0l8.4-4.8c.2-.1.3-.3.1-.4Zm-38.4,22.2a1.1,1.1,0,0,0-.8,0l-44.6,25.8c-.2.1-.3.3-.1.4l4.8,2.8a1.1,1.1,0,0,0,.8,0l44.6-25.8c.2-.1.3-.3.1-.4Zm-47.1,27.2a1.1,1.1,0,0,0-.8,0l-6.7,3.9c-.2.1-.3.3-.1.4l4.8,2.8a1.1,1.1,0,0,0,.8,0l6.7-3.9c.2-.1.3-.3.1-.4ZM252,290.1a1.1,1.1,0,0,0-.8,0l-6.6,3.8c-.2.1-.3.3-.1.4l4.8,2.8a1.1,1.1,0,0,0,.8,0l6.7-3.9c.2-.1.3-.3.1-.4Zm-65.5,37.8a1.1,1.1,0,0,0-.8,0l-6.7,3.9c-.2.1-.3.3-.1.4l4.8,2.8a1.1,1.1,0,0,0,.8,0l6.7-3.9c.2-.1.3-.3.1-.4Zm83.9-48.4a1.1,1.1,0,0,0-.8,0l-6.7,3.9c-.2.1-.3.3-.1.4l4.8,2.8a1.1,1.1,0,0,0,.8,0l6.7-3.9c.2-.1.3-.3.1-.4Zm28.3-16.4a1.1,1.1,0,0,0-.8,0l-5.4,3.1c-.2.1-.3.3-.1.4l4.8,2.8a1.1,1.1,0,0,0,.8,0l5.4-3.1c.2-.1.3-.3.1-.4Zm17.2-12.7,5.4-3.1c.2-.1.3-.3.1-.4l-4.8-2.8a1.1,1.1,0,0,0-.8,0l-5.4,3.1c-.2.1-.3.3-.1.4l4.8,2.8a1.1,1.1,0,0,0,.8,0Zm-32.5,1.4,5.4-3.1c.2-.1.3-.3.1-.4l-4.8-2.8a.8.8,0,0,0-.8.1l-5.4,3.1c-.2.1-.3.3-.1.4l4.8,2.8A.8.8,0,0,0,283.4,251.8Zm-20.9,29.4,15.8-9.1c.2-.1.3-.3.1-.4l-4.8-2.8a1.1,1.1,0,0,0-.8,0L256.9,278c-.2.1-.3.3-.1.4l4.8,2.8q.6.3.9,0ZM307.2,255a.8.8,0,0,0,.8-.1l5.4-3.1c.2-.1.3-.3.1-.4l-4.8-2.8a1.1,1.1,0,0,0-.8,0l-5.4,3.1c-.2.1-.3.3-.1.4Zm-6.7-4.4,5.4-3.1c.2-.1.3-.3.1-.4l-4.8-2.8a1.1,1.1,0,0,0-.8,0l-5.4,3.1c-.2.1-.3.3-.1.4l4.8,2.8a.608.608,0,0,0,.8,0Zm-45.9,35.2,5.4-3.1c.2-.1.3-.3.1-.4l-4.7-2.8a1.1,1.1,0,0,0-.8,0l-5.4,3.1c-.2.1-.3.3-.1.4l4.8,2.8a.854.854,0,0,0,.7,0Zm35.1-20.7a1.1,1.1,0,0,0,.8,0l5.4-3.1c.2-.1.3-.3.1-.4l-4.8-2.8a1.1,1.1,0,0,0-.8,0l-5.4,3.1c-.2.1-.3.3-.1.4ZM215,308.7l5.4-3.1c.2-.1.3-.3.1-.4l-4.8-2.8a1.1,1.1,0,0,0-.8,0l-5.4,3.1c-.2.1-.3.3-.1.4l4.8,2.8a1.1,1.1,0,0,0,.8,0Zm7.9-4.6,5.5-3.2c.2-.1.3-.3.1-.4l-4.8-2.8a1.1,1.1,0,0,0-.8,0l-5.4,3.1c-.2.1-.3.3-.1.4l4.8,2.8c.2.3.5.2.7.1Zm-15.8,9.2,5.4-3.1c.2-.1.3-.3.1-.4l-4.8-2.8a1.1,1.1,0,0,0-.8,0l-5.4,3.1c-.2.1-.3.3-.1.4l4.8,2.8a1.1,1.1,0,0,0,.8,0Zm31.7-18.4,5.4-3.1c.2-.1.3-.3.1-.4l-4.8-2.8a1.1,1.1,0,0,0-.8,0l-5.4,3.1c-.2.1-.3.3-.1.4l4.8,2.8A.6.6,0,0,0,238.8,294.9Zm-8,4.6,5.4-3.1c.2-.1.3-.3.1-.4l-4.8-2.8a1.1,1.1,0,0,0-.8,0l-5.4,3.2c-.2.1-.3.3-.1.4l4.8,2.8a.755.755,0,0,0,.8-.1Zm15.9-9.1,5.4-3.1c.2-.1.3-.3.1-.4l-4.8-2.7a1.1,1.1,0,0,0-.8,0l-5.4,3.1c-.2.1-.3.3-.1.4l4.8,2.8a2.484,2.484,0,0,0,.8-.1ZM290.5,227a1.1,1.1,0,0,0,.8,0l5.4-3.1c.2-.1.3-.3.1-.4l-1.3-.7a.8.8,0,0,0-.8.1l-5.4,3.1c-.2.1-.3.3-.1.4Zm-39.6,24.9a1.1,1.1,0,0,0,.8,0l5.4-3.1c.2-.1.3-.3.1-.4l-4.8-2.8a1.1,1.1,0,0,0-.8,0l-5.4,3.1c-.2.1-.3.3-.1.4Zm15.9-9.1a.8.8,0,0,0,.8-.1l5.4-3.1c.2-.1.3-.3.1-.4l-4.8-2.8a1.1,1.1,0,0,0-.8,0l-5.4,3.1c-.2.1-.3.3-.1.4Zm-25.5,14.7a1.1,1.1,0,0,0,.8,0l5.4-3.1c.2-.1.3-.3.1-.4l-4.8-2.8a.8.8,0,0,0-.8.1l-5.4,3.1c-.2.1-.3.3-.1.4Zm17.6-10.1a1.1,1.1,0,0,0,.8,0l5.4-3.1c.2-.1.3-.3.1-.4l-4.8-2.8a1.1,1.1,0,0,0-.8,0l-5.4,3.1c-.2.1-.3.3-.1.4Zm-33.5,19.2a1.1,1.1,0,0,0,.8,0l5.4-3.1c.2-.1.3-.3.1-.4l-4.8-2.8a1.1,1.1,0,0,0-.8,0l-5.4,3.1c-.2.1-.3.3-.1.4Zm7.9-4.5a1.1,1.1,0,0,0,.8,0l5.4-3.1c.2-.1.3-.3.1-.4l-4.8-2.8a1.1,1.1,0,0,0-.8,0l-5.4,3.1c-.2.1-.3.3-.1.4Zm41.3-25.9a1.1,1.1,0,0,0,.8,0l5.4-3.1c.2-.1.3-.3.1-.4l-1.3-.7a1.1,1.1,0,0,0-.8,0l-5.4,3.1c-.2.1-.3.3-.1.4Zm23.8-13.7a.8.8,0,0,0,.8-.1l5.4-3.1c.2-.1.3-.3.1-.4l-1.3-.7a1.1,1.1,0,0,0-.8,0l-5.4,3.1c-.2.1-.3.3-.1.4Zm10,5.8a.8.8,0,0,0,.8-.1l5.4-3.1c.2-.1.3-.3.1-.4L310,222a.8.8,0,0,0-.8.1l-5.4,3.1c-.2.1-.3.3-.1.4Zm15.4,17.5,5.4-3.1c.2-.1.3-.3.1-.4l-4.8-2.8a1.1,1.1,0,0,0-.8,0l-5.4,3.2c-.2.1-.3.3-.1.4l4.8,2.8a.755.755,0,0,0,.8-.1Zm-41.3-14.2a.8.8,0,0,0,.8-.1l5.4-3.1c.2-.1.3-.3.1-.4l-1.3-.7a1.1,1.1,0,0,0-.8,0l-5.4,3.2c-.2.1-.3.3-.1.4Zm-65.1,39.6a1.1,1.1,0,0,0,.8,0l5.4-3.1c.2-.1.3-.3.1-.4l-4.8-2.8a1.1,1.1,0,0,0-.8,0l-5.4,3.1c-.2.1-.3.3-.1.4Z"/><path class="i" d="M241.8,312.1l1.1.7,29.5,17,52.5-30.3,1.1-.6-30.6-17.7Z"/><path class="h" d="M324.4,299.8l-29-16.8-52,30.1,29,16.7Z"/><path class="g" d="M90.4,306.6c-2.4-1.7-2.4-3.9-2.4-7V153.2a10.633,10.633,0,0,1,4.9-8.4L279.4,37.1c2.7-1.5,5.2-.4,7.7,1s4.1,2.7,4.1,5.8V190.3a10.633,10.633,0,0,1-4.9,8.4L99.7,306.5C95.7,309.2,92.9,308.5,90.4,306.6Z"/><path class="i" d="M99.7,306.5c-4.1,2.7-6.8,2-9.4.2-2.4-1.7-2.4-3.9-2.4-7V153.2a11.583,11.583,0,0,1,1.4-4.8l7,4.1a8.968,8.968,0,0,0-1.4,4.8V303.7C94.9,306.7,97.1,308,99.7,306.5Z"/><path class="h" d="M94.9,157.3V303.7c0,3.1,2.2,4.4,4.9,2.8L286.4,198.8a10.787,10.787,0,0,0,4.9-8.4V43.9c0-3.1-2.2-4.4-4.9-2.8L99.7,148.9A10.8,10.8,0,0,0,94.9,157.3Z"/><path class="i" d="M102.4,154.5,282.3,50.6c1.6-.9,2.9-.2,2.9,1.7V185.7a6.594,6.594,0,0,1-2.9,5.1L102.4,294.6c-1.6.9-2.9.2-2.9-1.7V159.5A6.154,6.154,0,0,1,102.4,154.5Z"/><path class="c" d="M102.4,154.5a6.439,6.439,0,0,0-2.9,5.1V292L278.3,188.8a6.439,6.439,0,0,0,2.9-5.1V51.2Z"/><path class="j" d="M102.4,154.5a6.439,6.439,0,0,0-2.9,5.1V292L278.3,188.8a6.439,6.439,0,0,0,2.9-5.1V51.2Z"/><path class="g" d="M432.2,353.8c-.1,2-.4,3.9.5,6.1,1.2,3.2,3.7,4.7,5.1,5.9a27.92,27.92,0,0,1,4.2,4.9,22.6,22.6,0,0,0,4.4,5.3c1.4,1.1,5.2,1.2,7,.4s2.4-1.5,2.3-4.4-9.1-3.7-9.1-3.7Z"/><path class="f" d="M454.4,363.3c.8.3,1,1.7,1.1,4.6.1,2.2,1.1,5.3-1.9,6.7-2.4,1.1-6.3.5-7.9-1.5-2.1-2.5-3.5-4.7-6.5-7.8-2.6-2.6-5.2-3.5-6.4-8.9-.8-3.5-.3-4.9,2.1-6,3.2-1.4,8.3,2.9,10.8,3.6C448,354.7,453.7,363.1,454.4,363.3Z"/><path class="k" d="M454.4,363.3c.8.3,1,1.7,1.1,4.6.1,2.2,1.1,5.3-1.9,6.7-2.4,1.1-6.3.5-7.9-1.5-2.1-2.5-3.5-4.7-6.5-7.8-2.6-2.6-5.2-3.5-6.4-8.9-.8-3.5-.3-4.9,2.1-6,3.2-1.4,8.3,2.9,10.8,3.6C448,354.7,453.7,363.1,454.4,363.3Z"/><path class="l" d="M445.8,354.1c-.1,0-.3-.1-.4-.1a8.252,8.252,0,0,0-6.9,4.7c-.4,1,.9,1.7,1.7.9a8.818,8.818,0,0,1,6.9-4.7A5.669,5.669,0,0,0,445.8,354.1Z"/><path class="l" d="M447.9,355.7a8.341,8.341,0,0,0-6.4,4.6c-.4,1,.9,1.7,1.7.9a8.007,8.007,0,0,1,5.7-4.4A10.945,10.945,0,0,0,447.9,355.7Z"/><path class="g" d="M392.8,398.9c-.4,2.4.5,3.7,3.6,5.4s8.1,2.3,13.3.7,7.6-3.9,9.7-4.5,7.5-.7,9.6-1.4,2.1-1.8,2-4.3Z"/><path class="f" d="M428.6,382.5c.7,1.9,1.2,3.8,1.7,5.7.5,2.1,1.2,5.7.5,7.3s-3.6,2.7-8.1,2.8c-2.9,0-7.4,2.1-10.5,3.9s-6.7,1.9-10.1,1.6c-4-.4-8.2-2.6-8.9-4.3s-.9-2.9,8.5-7.1c.1,0,10.9-4.3,15.4-9.4Z"/><g class="m"><path d="M428.6,382.5c.7,1.9,1.2,3.8,1.7,5.7.5,2.1,1.2,5.7.5,7.3s-3.6,2.7-8.1,2.8c-2.9,0-7.4,2.1-10.5,3.9s-6.7,1.9-10.1,1.6c-4-.4-8.2-2.6-8.9-4.3s-.9-2.9,8.5-7.1c.1,0,10.9-4.3,15.4-9.4Z"/></g><path class="l" d="M410.9,402.8s-1-8.1-7.6-10.3c-6-2-11.1,2.5-10.5,6.4C393.2,401.5,400.6,407.2,410.9,402.8Z"/><path class="l" d="M404.9,391a7.337,7.337,0,0,1,4.5,1.9c1.9,1.6,2,2.6,2,2.6a.967.967,0,0,0,1.4,0,1.4,1.4,0,0,0,.3-.9s-.5-4.1-5.9-4.8A2.373,2.373,0,0,0,404.9,391Z"/><path class="l" d="M408.6,389.1a7.069,7.069,0,0,1,4.6,1.7c1.9,1.6,2,2.8,2,2.8a.967.967,0,0,0,1.4,0,1.008,1.008,0,0,0,.3-.9s-.5-4.1-5.9-4.8A2.526,2.526,0,0,0,408.6,389.1Z"/><path class="l" d="M412.3,386.9a7.08,7.08,0,0,1,4.7,1.4c2,1.4,2.2,2.7,2.2,2.7a.972.972,0,0,0,1.4-.1,1.02,1.02,0,0,0,.2-.9s-.8-4-6.2-4.4A2.214,2.214,0,0,0,412.3,386.9Z"/><path class="n" d="M454.3,358.7l.1,5.5s-3.6,2.9-8.9.4c-.2-.3-.7-5.7-.7-5.7Z"/><path class="n" d="M428.5,378.7s0,2.6.1,4.1-1.7,3.8-6.2,3.7c-3.2,0-5.5-.9-5.4-3.5l-.1-3.8Z"/><path class="g" d="M459.3,311.9c-.5-11.6-3-16.6-3-16.6s.6-14.4,2.2-31.9c2.4-26.8.3-30.7-5.2-42.6,0,0-44.4-4.8-45.4,13.9-1.2,23.3-1.5,67.8-.7,76s1.3,11.4,3.7,28c1.8,13.1,6.1,40.7,6.1,40.7,6,3.1,11.6-.5,11.6-.5s2.8-43.6,2.2-53c-.7-11.6-1.4-14.5-1.4-14.5s4.5-37.6,5.2-43.6c0,0,.9,10.8,1.7,19s.9,14.8,2.9,31.8c1.6,13.3,5.5,42,5.5,42a10.95,10.95,0,0,0,9.8-.9C454.5,359.5,459.7,321.3,459.3,311.9Z"/><path class="l" d="M434.5,360.4s.1-6.4,8.8-7.5l.5.3a7.3,7.3,0,0,0-4.3-3.2c-2.9-.7-5.2.1-6.6,2S432.9,359.2,434.5,360.4Z"/><path class="h" d="M434.5,267.5l.6-7.7a60.732,60.732,0,0,0,13.7-6.9,18.6,18.6,0,0,1-11,8.4l-1.4,7.5-.2,17.6Z"/><path class="n" d="M453,168c5.5,1.5,9.8,6,11.5,14.1,1.8,8.1,10.9,29.7,10.5,35.3-.3,4.1-4,14-9.9,7.8-5.8-6-19.6-40.6-19.6-40.6Z"/><path class="b" d="M452.9,167.4a15,15,0,0,1,8.6,5.8c1.5,2.4,3.7,9.2,6.3,16.8,1.4,4,2.5,8,3.5,12.1a17.012,17.012,0,0,1-15,8.9L444,186.5Z"/><path class="n" d="M425.4,159.1l1.9,16.9,15.7-3.5-2-22.6Z"/><path class="c" d="M459.4,174.4c-.9-4.7-7.1-9.7-12.9-8.8-1.4.2-2.7.4-4,.7-.7,2.8-8.5,4.6-16,2.9-2.2.6-9.6,2-11.5,2.6-5.4,1.8-7.6,7.1-8.4,24.5,0,0,.4,39.6.2,47.4,13.2,5.6,27.1,5.7,34.8,4.2,16-3.1,18.1-9.7,18.1-9.7l-2.4-18.1S461.3,185.1,459.4,174.4Z"/><path class="b" d="M426,164.7h0a21.183,21.183,0,0,0,10,.4c5.2-1.2,6.2-2,6.2-2l-.1-1.2s.8-.1,2,1.5,1.7,2.3,1.7,2.3-.3,3.8-6.4,5.6a18.825,18.825,0,0,1-15.2-1.7l-2.4.5s2.1-4.8,2.7-5.7a1.562,1.562,0,0,1,1.5-.8Z"/><path class="o" d="M414.1,138.4s-4,6.1-3.5,6.6,3.4,1.1,3.4,1.1Z"/><path class="n" d="M425.2,121.6c-8.1,1.7-10.4,5.3-11.2,18.1-.8,13.4.6,17.6,2.3,19.4,1.2,1.2,7.8,1.4,11.1.5,4.2-1.2,13.6-4.5,18-11.2,5.2-7.9,6.5-18.7,1-23.1C438.7,119.1,428.5,120.9,425.2,121.6Z"/><path class="o" d="M425.5,160l-.4-2.5a15.867,15.867,0,0,1-8.3,1.9C418.4,160.2,422.4,160.4,425.5,160Z"/><path class="i" d="M412.7,126.8a3.673,3.673,0,0,0,1.8-.1,2.849,2.849,0,0,0,1,3.4,4.2,4.2,0,0,0,3.6.5,3.627,3.627,0,0,0-.4,2.5,4.021,4.021,0,0,0,4.2,3c.1,1.9.1,3.7,2.1,4.6,0,0,1.3-5,5.5-4.3s4.8,6,2.1,9.2-5.1,2-5.1,2a7.283,7.283,0,0,0,.7,2.4,10.1,10.1,0,0,0,3.5,3.9,18.676,18.676,0,0,0,10.1,2.7c1.3-3.8,3.5-6.6,5.7-10,1.8-2.6,4.1-5.6,5-8.6a16.588,16.588,0,0,0,.1-10.1c-1-3-2.2-5.3-5.4-6.1-.7-4-4.8-6.1-8.4-8a13.569,13.569,0,0,0-11.8-.1c-1.3-1.4-2.4-3.1-4.3-4a3.973,3.973,0,0,0-4.6.8,5.678,5.678,0,0,0-.7,3.8,9.065,9.065,0,0,0-4.6.4,4.7,4.7,0,0,0-3,3.4,3.257,3.257,0,0,0,2.1,3.7,3,3,0,0,0-1,3.3A2.253,2.253,0,0,0,412.7,126.8Z"/><path class="i" d="M424.9,143.5l.1-5.6a2.935,2.935,0,0,0-2.9,2.7A2.881,2.881,0,0,0,424.9,143.5Z"/><path class="i" d="M372.5,200.4l33.5,18,.5.9v.7a1.05,1.05,0,0,1-.5.9l-25,14.4a1.91,1.91,0,0,1-1.8,0l-32.9-19v-.7Z"/><path class="g" d="M380.1,234.8a2.92,2.92,0,0,0,.9-.2l25-14.4a1.06,1.06,0,0,0,0-1.8l-32.3-18.7-27.4,15.8,32.9,19A1.613,1.613,0,0,0,380.1,234.8Z"/><path class="p" d="M373.7,197.7l32,18.5.3.4v2.7h0c0,.2-.1.3-.3.4l-25,14.4a1.483,1.483,0,0,1-1.3,0l-32-18.5v-2.7Z"/><path class="q" d="M347.5,212.8l.3.2,4.1,2.4.8.4,26.9,15.5a1.483,1.483,0,0,0,1.3,0l25-14.4a.365.365,0,0,0,.2-.5.215.215,0,0,0-.2-.2l-.3-.2-31.7-18.3-26,14.9-.1.1Z"/><path class="b" d="M380.1,231.5v2.7a1.421,1.421,0,0,0,.6-.2l25-14.4a1.38,1.38,0,0,0,.3-.4v-2.7c0,.2-.1.3-.3.4l-25,14.4C380.6,231.5,380.4,231.5,380.1,231.5Z"/><path class="l" d="M347.5,212.4,352,215l.7.4,26.8,15.5a1.483,1.483,0,0,0,1.3,0l21.3-12.3.8-.4a6.654,6.654,0,0,0,2.5-2.2l.1-.1c0-.1.1-.1.1-.2,0-.3-.1-.6-.4-.6a12.234,12.234,0,0,1-2.4-1h0l-29-16.8Z"/><path class="b" d="M357.9,213.8l17.8-10.3a1.1,1.1,0,0,1,.8,0h0a.192.192,0,0,1,.1.3.1.1,0,0,1-.1.1l-17.7,10.3a1.1,1.1,0,0,1-.8,0h0C357.7,214.1,357.7,213.9,357.9,213.8Z"/><path class="b" d="M359.6,214.8l17.8-10.3a1.1,1.1,0,0,1,.8,0h0a.192.192,0,0,1,.1.3.1.1,0,0,1-.1.1l-17.7,10.3a1.1,1.1,0,0,1-.8,0h0C359.4,215.1,359.4,214.9,359.6,214.8Z"/><path class="b" d="M361.4,215.8l17.8-10.3a1.1,1.1,0,0,1,.8,0h0c.2.1.2.3,0,.5l-17.8,10.3a1.1,1.1,0,0,1-.8,0h0C361.2,216.1,361.2,215.9,361.4,215.8Z"/><path class="b" d="M373.8,223l17.8-10.3a1.1,1.1,0,0,1,.8,0h0c.2.1.2.3,0,.5l-17.7,10.3a1.1,1.1,0,0,1-.8,0h0C373.6,223.3,373.6,223.1,373.8,223Z"/><path class="b" d="M383.6,214.3c.1.1.2.2.2.3s-.1.2-.2.3a.367.367,0,0,1-.3.1H383c-.1,0-.1-.1-.2-.2s-.1-.2-.2-.3c0-.1,0-.2.1-.2.1-.1.2-.1.4-.1A1.75,1.75,0,0,0,383.6,214.3Zm.1.2h-.5c-.1,0-.2,0-.2.1-.1,0-.1.1,0,.1a.1.1,0,0,0,.1.1c.1,0,.1.1.2,0a.367.367,0,0,0,.3-.1c.1-.1.2-.1.2-.2Z"/><path class="b" d="M385.4,213.9l.2.2c-.1,0-.1.1-.2.1s-.2.1-.3.1h-.2l-.1-.1v-.3a.367.367,0,0,0-.3.1h-.2c-.1,0-.1-.1-.1-.2v-.4l.2.2-.1.1v.1h.2c.1,0,.2,0,.2-.1h.2v.3c0,.1,0,.1.1.1h.3C385.2,214,385.3,214,385.4,213.9Z"/><path class="b" d="M386.7,213.2l.2.2c-.1,0-.1.1-.2.1s-.2.1-.3.1h-.2l-.1-.1v-.3a.367.367,0,0,0-.3.1h-.2c-.1,0-.1-.1-.1-.2v-.4l.2.2-.1.1v.1h.2c.1,0,.2,0,.2-.1h.2v.3c0,.1,0,.1.1.1h.3C386.5,213.3,386.6,213.2,386.7,213.2Z"/><path class="b" d="M380.3,212.3l.2.2c0,.1,0,.1-.1.2h-.1c.1,0,.2,0,.2.1.1,0,.2.1.3.1s.2.1.4.2a.1.1,0,0,1,.1.1.1.1,0,0,1,.1.1h0a3.931,3.931,0,0,0-.6-.2.9.9,0,0,0-.5-.1,1.486,1.486,0,0,1-.6-.1l-.2-.2h.3c.1,0,.3,0,.3-.1.1-.1.1-.1.1-.2l-.1-.1h0a.1.1,0,0,1,.1.1C380.3,212.2,380.3,212.2,380.3,212.3Z"/><path class="b" d="M382.2,212a.215.215,0,0,1,.2.2l.2.2h0a.31.31,0,0,1-.2-.1,1.689,1.689,0,0,0-.5-.2c-.2,0-.3-.1-.5-.1h-.3l-.1-.2h.4c.1,0,.3.1.4.1A.6.6,0,0,1,382.2,212Z"/><path class="b" d="M383.9,211.3l.2.2h-.5c-.1,0-.2-.1-.4-.2l-.1-.1-.2-.2a.1.1,0,0,0-.1.1l-.1.1a.367.367,0,0,1-.3.1h-.2a.1.1,0,0,1-.1-.1l-.1-.1h.1c.1,0,.1,0,.2-.1.1,0,.1-.1.2-.1l.1-.1c.1.1.1.1.2.1s.1.1.2.1c.1.1.2.1.4.2.1,0,.2.1.3.1Z"/><path class="b" d="M378.4,211.3l.2.2a.6.6,0,0,1-.4-.1.914.914,0,0,1-.5-.3l-.1.1-.1.1c-.1,0-.2.1-.3.1H377l-.1-.1c-.1-.1-.1-.1-.1-.2s0-.1.1-.2h.3c.1,0,.2.1.3.1s.2.1.3.2a1.689,1.689,0,0,0,.5.2C378.2,211.3,378.3,211.3,378.4,211.3Zm-1-.3c-.1,0-.1-.1-.2-.1H377l-.1.1v.1h.1c.1,0,.1,0,.2-.1.1.1.1.1.2,0C377.3,211.1,377.4,211.1,377.4,211Z"/><path class="b" d="M379.2,210.2c.1.1.2.2.2.3s-.1.2-.2.3a.367.367,0,0,1-.3.1h-.3c-.1,0-.1-.1-.2-.2s-.1-.2-.2-.3c0-.1,0-.2.1-.2.1-.1.2-.1.4-.1A2.035,2.035,0,0,1,379.2,210.2Zm.1.1h-.5c-.1,0-.2,0-.2.1-.1,0-.1.1,0,.1a.1.1,0,0,0,.1.1h.2a.367.367,0,0,0,.3-.1c.1-.1.2-.1.2-.2C379.3,210.4,379.3,210.4,379.3,210.3Z"/><path class="b" d="M380.9,209.8l.2.2c-.1,0-.1.1-.2.1s-.2.1-.3.1h-.2l-.1-.1v-.3a.367.367,0,0,0-.3.1h-.2c-.1,0-.1-.1-.1-.2v-.4l.2.2-.1.1v.1h.2c.1,0,.2,0,.2-.1h.2v.3c0,.1,0,.1.1.1h.3C380.7,209.9,380.8,209.9,380.9,209.8Z"/><text class="r" transform="translate(377.617 214.688) rotate(-45)"><tspan x="0" y="0">+</tspan></text><path class="b" d="M375.5,219.6l.2.2a.6.6,0,0,1-.4-.1.914.914,0,0,1-.5-.3l-.1.1-.1.1a.367.367,0,0,1-.3.1h-.2l-.1-.1c-.1-.1-.1-.1-.1-.2s0-.1.1-.2h.3c.1,0,.2.1.3.1s.2.1.3.2a1.689,1.689,0,0,0,.5.2C375.3,219.6,375.4,219.6,375.5,219.6Zm-1-.2c-.1,0-.1-.1-.2-.1h-.2l-.1.1v.1h.1c.1,0,.1,0,.2-.1.1.1.1.1.2,0Z"/><path class="b" d="M376.3,218.9a.215.215,0,0,1,.2.2l.2.2h0a.31.31,0,0,1-.2-.1,1.689,1.689,0,0,0-.5-.2c-.2,0-.3-.1-.5-.1h-.3l-.1-.2h.4c.1,0,.3.1.4.1C376,218.7,376.2,218.8,376.3,218.9Z"/><path class="b" d="M378,218.2l.2.2c-.1,0-.1.1-.2.1s-.2.1-.3.1h-.2l-.1-.1v-.3a.367.367,0,0,0-.3.1h-.2c-.1,0-.1-.1-.1-.2v-.4l.2.2-.1.1v.1h.2c.1,0,.2,0,.2-.1h.2v.3c0,.1,0,.1.1.1h.3C377.9,218.3,377.9,218.2,378,218.2Z"/><path class="b" d="M371.4,217.3c.1.1.2.1.2.2s0,.1-.1.1a.1.1,0,0,0-.1.1h-.1v.1l-.1.1h.2c.1,0,.2,0,.2.1.1,0,.2.1.3.1a.1.1,0,0,1,.1.1l.2.2h0c-.2-.1-.3-.2-.5-.2a.6.6,0,0,0-.4-.1,1.759,1.759,0,0,1-.6-.1l-.2-.2h.3c.1,0,.2,0,.2-.1a.1.1,0,1,0,0-.2h0c.1,0,.1.1.2.1h.1c.1,0,.1-.1,0-.2h0c0-.1,0-.1.1-.1Z"/><path class="b" d="M373.2,217c.1.1.2.2.2.3s-.1.2-.2.3a.367.367,0,0,1-.3.1h-.3c-.1,0-.1-.1-.2-.2s-.1-.2-.2-.3c0-.1,0-.2.1-.2.1-.1.2-.1.4-.1A.749.749,0,0,1,373.2,217Zm0,.1h-.5c-.1,0-.2,0-.2.1-.1,0-.1.1,0,.1l.1.1h.2a.367.367,0,0,0,.3-.1c.1-.1.2-.1.2-.2C373.2,217.2,373.2,217.1,373.2,217.1Z"/><path class="b" d="M374.8,216.5l.2.2h-.5c-.1,0-.2-.1-.4-.2l-.1-.1-.2-.2a.1.1,0,0,0-.1.1l-.1.1a.367.367,0,0,1-.3.1h-.2a.1.1,0,0,1-.1-.1l-.1-.1h.1c.1,0,.1,0,.2-.1.1,0,.1-.1.2-.1l.1-.1c.1.1.1.1.2.1s.1.1.2.1c.1.1.3.1.4.2.1,0,.2.1.3.1Z"/><path class="b" d="M369.5,216.4l.2.2a.6.6,0,0,1-.4-.1.914.914,0,0,1-.5-.3l-.1.1-.1.1c-.1,0-.2.1-.3.1h-.2l-.1-.1c-.1-.1-.1-.1-.1-.2s0-.1.1-.2h.3c.1,0,.2.1.3.1s.2.1.3.2a1.689,1.689,0,0,0,.5.2C369.3,216.4,369.4,216.4,369.5,216.4Zm-1-.2c-.1,0-.1-.1-.2-.1h-.2l-.1.1v.1h.1c.1,0,.1,0,.2-.1.1.1.1.1.2,0Z"/><path class="b" d="M370.8,215.5l.3.2a2.485,2.485,0,0,1-.8-.1c-.3-.1-.5-.1-.8-.2h0c.1.1.3.2.3.3.1.1.2.2.2.3s.1.2.1.3l-.3-.2a.6.6,0,0,0-.1-.4l-.5-.5h0a1.421,1.421,0,0,0,.6.2c.2,0,.3.1.5.1Z"/><path class="b" d="M372,215l.2.2c-.1,0-.1.1-.2.1s-.2.1-.3.1h-.2l-.1-.1V215a.367.367,0,0,0-.3.1h-.2c-.1,0-.1-.1-.1-.2v-.4l.2.2-.1.1v.1h.2c.1,0,.2,0,.2-.1h.2v.3c0,.1,0,.1.1.1h.3C371.8,215.1,371.9,215,372,215Z"/><text class="r" transform="translate(368.768 219.808) rotate(-45)"><tspan x="0" y="0">+</tspan></text><path class="j" d="M352.2,212.1a.365.365,0,0,1,.2.5.215.215,0,0,1-.2.2,1.275,1.275,0,0,1-1.2,0,.385.385,0,0,1,0-.7A1.275,1.275,0,0,1,352.2,212.1Z"/><path class="c" d="M347.6,211.7v.6l.4-.2v-.4a1.717,1.717,0,0,1,.6-1.5.6.6,0,0,1,.4-.1,1.446,1.446,0,0,1,.7.2,4.525,4.525,0,0,1,1.8,2.5h.4a4.971,4.971,0,0,0-2-2.9,1.543,1.543,0,0,0-1.6-.1A2.52,2.52,0,0,0,347.6,211.7Z"/><path class="i" d="M347.7,212.5v0Z"/><path class="j" d="M355.7,210.1a.365.365,0,0,1,.2.5.215.215,0,0,1-.2.2,1.275,1.275,0,0,1-1.2,0,.385.385,0,0,1,0-.7A1.271,1.271,0,0,1,355.7,210.1Z"/><path class="c" d="M351.1,209.7v.6l.4-.2v-.4a1.445,1.445,0,0,1,.6-1.4.6.6,0,0,1,.4-.1,1.446,1.446,0,0,1,.7.2,4.525,4.525,0,0,1,1.8,2.5h.4a4.971,4.971,0,0,0-2-2.9,1.543,1.543,0,0,0-1.6-.1A2.666,2.666,0,0,0,351.1,209.7Z"/><path class="j" d="M359.2,208a.365.365,0,0,1,.2.5.215.215,0,0,1-.2.2,1.275,1.275,0,0,1-1.2,0,.365.365,0,0,1-.2-.5.215.215,0,0,1,.2-.2A1.271,1.271,0,0,1,359.2,208Z"/><path class="c" d="M354.7,207.6v.6l.4-.2v-.4a1.445,1.445,0,0,1,.6-1.4.6.6,0,0,1,.4-.1,1.446,1.446,0,0,1,.7.2,4.525,4.525,0,0,1,1.8,2.5.6.6,0,0,0,.4-.1,4.971,4.971,0,0,0-2-2.9,1.543,1.543,0,0,0-1.6-.1A2.28,2.28,0,0,0,354.7,207.6Z"/><path class="j" d="M362.7,206a.365.365,0,0,1,.2.5.215.215,0,0,1-.2.2,1.275,1.275,0,0,1-1.2,0,.385.385,0,0,1,0-.7A1.271,1.271,0,0,1,362.7,206Z"/><path class="c" d="M358.2,205.6v.6l.4-.2v-.4a1.445,1.445,0,0,1,.6-1.4.6.6,0,0,1,.4-.1,1.446,1.446,0,0,1,.7.2,4.525,4.525,0,0,1,1.8,2.5.6.6,0,0,0,.4-.1,4.971,4.971,0,0,0-2-2.9,1.543,1.543,0,0,0-1.6-.1A2.28,2.28,0,0,0,358.2,205.6Z"/><path class="j" d="M366.3,203.9a.365.365,0,0,1,.2.5.215.215,0,0,1-.2.2,1.275,1.275,0,0,1-1.2,0,.385.385,0,0,1,0-.7A1.271,1.271,0,0,1,366.3,203.9Z"/><path class="c" d="M361.7,203.6v.6l.4-.2v-.4a1.717,1.717,0,0,1,.6-1.5.6.6,0,0,1,.4-.1,1.446,1.446,0,0,1,.7.2,4.525,4.525,0,0,1,1.8,2.5.6.6,0,0,0,.4-.1,4.971,4.971,0,0,0-2-2.9,1.543,1.543,0,0,0-1.6-.1A3.057,3.057,0,0,0,361.7,203.6Z"/><path class="j" d="M369.9,201.9a.365.365,0,0,1,.2.5.215.215,0,0,1-.2.2,1.275,1.275,0,0,1-1.2,0,.365.365,0,0,1-.2-.5.215.215,0,0,1,.2-.2A1.271,1.271,0,0,1,369.9,201.9Z"/><path class="c" d="M365.3,201.5v.6l.4-.2v-.4a1.717,1.717,0,0,1,.6-1.5.6.6,0,0,1,.4-.1,1.446,1.446,0,0,1,.7.2,4.525,4.525,0,0,1,1.8,2.5.6.6,0,0,0,.4-.1,4.971,4.971,0,0,0-2-2.9,1.543,1.543,0,0,0-1.6-.1A2.607,2.607,0,0,0,365.3,201.5Z"/><path class="j" d="M373.4,199.8a.365.365,0,0,1,.2.5.215.215,0,0,1-.2.2,1.275,1.275,0,0,1-1.2,0,.385.385,0,0,1,0-.7A2.437,2.437,0,0,1,373.4,199.8Z"/><path class="c" d="M368.8,199.5v.6l.4-.2v-.4a1.445,1.445,0,0,1,.6-1.4.6.6,0,0,1,.4-.1,1.446,1.446,0,0,1,.7.2,4.525,4.525,0,0,1,1.8,2.5h.4a4.971,4.971,0,0,0-2-2.9,1.543,1.543,0,0,0-1.6-.1A1.986,1.986,0,0,0,368.8,199.5Z"/><g class="s"><path d="M347.6,211.7v.6l.4-.2v-.4a1.717,1.717,0,0,1,.6-1.5.6.6,0,0,1,.4-.1,1.446,1.446,0,0,1,.7.2,4.525,4.525,0,0,1,1.8,2.5h.4a4.971,4.971,0,0,0-2-2.9,1.543,1.543,0,0,0-1.6-.1A2.52,2.52,0,0,0,347.6,211.7Z"/><path d="M351.1,209.7v.6l.4-.2v-.4a1.445,1.445,0,0,1,.6-1.4.6.6,0,0,1,.4-.1,1.446,1.446,0,0,1,.7.2,4.525,4.525,0,0,1,1.8,2.5h.4a4.971,4.971,0,0,0-2-2.9,1.543,1.543,0,0,0-1.6-.1A2.666,2.666,0,0,0,351.1,209.7Z"/><path d="M354.7,207.6v.6l.4-.2v-.4a1.445,1.445,0,0,1,.6-1.4.6.6,0,0,1,.4-.1,1.446,1.446,0,0,1,.7.2,4.525,4.525,0,0,1,1.8,2.5.6.6,0,0,0,.4-.1,4.971,4.971,0,0,0-2-2.9,1.543,1.543,0,0,0-1.6-.1A2.28,2.28,0,0,0,354.7,207.6Z"/><path d="M358.2,205.6v.6l.4-.2v-.4a1.445,1.445,0,0,1,.6-1.4.6.6,0,0,1,.4-.1,1.446,1.446,0,0,1,.7.2,4.525,4.525,0,0,1,1.8,2.5.6.6,0,0,0,.4-.1,4.971,4.971,0,0,0-2-2.9,1.543,1.543,0,0,0-1.6-.1A2.28,2.28,0,0,0,358.2,205.6Z"/><path d="M361.7,203.6v.6l.4-.2v-.4a1.717,1.717,0,0,1,.6-1.5.6.6,0,0,1,.4-.1,1.446,1.446,0,0,1,.7.2,4.525,4.525,0,0,1,1.8,2.5.6.6,0,0,0,.4-.1,4.971,4.971,0,0,0-2-2.9,1.543,1.543,0,0,0-1.6-.1A3.057,3.057,0,0,0,361.7,203.6Z"/><path d="M365.3,201.5v.6l.4-.2v-.4a1.717,1.717,0,0,1,.6-1.5.6.6,0,0,1,.4-.1,1.446,1.446,0,0,1,.7.2,4.525,4.525,0,0,1,1.8,2.5.6.6,0,0,0,.4-.1,4.971,4.971,0,0,0-2-2.9,1.543,1.543,0,0,0-1.6-.1A2.607,2.607,0,0,0,365.3,201.5Z"/><path d="M368.8,199.5v.6l.4-.2v-.4a1.445,1.445,0,0,1,.6-1.4.6.6,0,0,1,.4-.1,1.446,1.446,0,0,1,.7.2,4.525,4.525,0,0,1,1.8,2.5h.4a4.971,4.971,0,0,0-2-2.9,1.543,1.543,0,0,0-1.6-.1A1.986,1.986,0,0,0,368.8,199.5Z"/></g><path class="n" d="M378.4,233.1c6.2-.6,28.9-2.3,30.6-6.6,2.1-5.2,11.1-33.6,11.1-33.6s3-19.1-6.3-19.9c-4,.8-7.6,2.9-9.1,10-.8,3.7-4.9,18.6-8.3,35,0,0-24.2,7.5-25.9,6.9s-1.9-2.3-3.3-4.3-2.4-4.6-3.5-3.9-.4,4,0,5.6a4.03,4.03,0,0,1-.6,3s-1-.4-2-.7c-.5-.1-8.8-5-8.8-5s-.8,5.3,1.8,7.9c3.2,3.7,7.8,5.1,12,5.7C370.9,233.9,372.2,233.7,378.4,233.1Z"/><path class="b" d="M415,171.7c-5.4,1.1-9.1,2.6-10.9,9.6s-6,23.4-6,23.4,8.4,6.8,17.2,6.6l5.4-18.5S425.2,176,415,171.7Z"/><path class="l" d="M275.6,57.1l-168.4,99V285.8l168.4-98.9Z"/><path class="t" d="M275.6,57.1l-4.1-2.3L103.2,153.7l4,2.4Z"/><path class="b" d="M103.2,153.7l4,2.4V285.8l-4,2.4Z"/><path class="b" d="M267.2,71.6,234.7,90.4v22.1l32.5-18.8Z"/><path class="b" d="M152.2,138.3l-32.5,18.8v22l32.5-18.7Z"/><path class="c" d="M267.2,106.5,120,192v-5.7l147.2-85.5Z"/><path class="g" d="M198.2,205.7l-33.1,19.1V172.6l33.1-19.2Z"/><path class="t" d="M192.7,165l-22,12.7c-.4.2-.7,0-.7-.5h0a1.75,1.75,0,0,1,.7-1.4l22-12.7c.4-.2.7,0,.7.6h0A1.889,1.889,0,0,1,192.7,165Z"/><path class="t" d="M192.7,174.3l-22,12.7c-.4.2-.7,0-.7-.5h0a1.75,1.75,0,0,1,.7-1.4l22-12.7c.4-.2.7,0,.7.6h0A1.709,1.709,0,0,1,192.7,174.3Z"/><path class="t" d="M192.7,183.7l-22,12.7c-.4.2-.7,0-.7-.5h0a1.75,1.75,0,0,1,.7-1.4l22-12.7c.4-.2.7,0,.7.6h0A1.709,1.709,0,0,1,192.7,183.7Z"/><path class="t" d="M192.7,193.1l-22,12.7c-.4.2-.7,0-.7-.5h0a1.75,1.75,0,0,1,.7-1.4l22-12.7c.4-.2.7,0,.7.5h0A2.1,2.1,0,0,1,192.7,193.1Z"/><path class="t" d="M192.7,202.4l-22,12.7c-.4.2-.7,0-.7-.5h0a1.75,1.75,0,0,1,.7-1.4l22-12.7c.4-.2.7,0,.7.5h0A1.75,1.75,0,0,1,192.7,202.4Z"/><path class="t" d="M192.7,169.4l-22,12.7c-.4.2-.7,0-.7-.5h0a1.75,1.75,0,0,1,.7-1.4l22-12.7c.4-.2.7,0,.7.6h0A1.709,1.709,0,0,1,192.7,169.4Z"/><path class="t" d="M192.7,178.8l-22,12.7c-.4.2-.7,0-.7-.5h0a1.75,1.75,0,0,1,.7-1.4l22-12.7c.4-.2.7,0,.7.5h0A1.75,1.75,0,0,1,192.7,178.8Z"/><path class="t" d="M192.7,188.2l-22,12.7c-.4.2-.7,0-.7-.6h0a1.75,1.75,0,0,1,.7-1.4l22-12.7c.4-.2.7,0,.7.6h0A2.1,2.1,0,0,1,192.7,188.2Z"/><path class="t" d="M192.7,197.5l-22,12.7c-.4.2-.7,0-.7-.5h0a1.75,1.75,0,0,1,.7-1.4l22-12.7c.4-.2.7,0,.7.5h0A1.75,1.75,0,0,1,192.7,197.5Z"/><path class="g" d="M158.8,228.3l-33.2,19.2V195.2l33.2-19.1Z"/><path class="t" d="M153.2,187.6l-22,12.7c-.4.2-.7,0-.7-.5h0a1.75,1.75,0,0,1,.7-1.4l22-12.7c.4-.2.7,0,.7.6h0A1.28,1.28,0,0,1,153.2,187.6Z"/><path class="t" d="M153.2,197l-22,12.7c-.4.2-.7,0-.7-.5h0a1.75,1.75,0,0,1,.7-1.4l22-12.7c.4-.2.7,0,.7.6h0A1.36,1.36,0,0,1,153.2,197Z"/><path class="t" d="M153.2,206.3l-22,12.7c-.4.2-.7,0-.7-.5h0a1.75,1.75,0,0,1,.7-1.4l22-12.7c.4-.2.7,0,.7.6h0A1.28,1.28,0,0,1,153.2,206.3Z"/><path class="t" d="M153.2,215.7l-22,12.7c-.4.2-.7,0-.7-.5h0a1.75,1.75,0,0,1,.7-1.4l22-12.7c.4-.2.7,0,.7.5h0A1.343,1.343,0,0,1,153.2,215.7Z"/><path class="t" d="M153.2,225.1l-22,12.7c-.4.2-.7,0-.7-.5h0a1.75,1.75,0,0,1,.7-1.4l22-12.7c.4-.2.7,0,.7.5h0A1.5,1.5,0,0,1,153.2,225.1Z"/><path class="t" d="M153.2,192.1l-22,12.7c-.4.2-.7,0-.7-.5h0a1.75,1.75,0,0,1,.7-1.4l22-12.7c.4-.2.7,0,.7.6h0A1.36,1.36,0,0,1,153.2,192.1Z"/><path class="t" d="M153.2,201.4l-22,12.7c-.4.2-.7,0-.7-.5h0a1.75,1.75,0,0,1,.7-1.4l22-12.7c.4-.2.7,0,.7.5h0A1.343,1.343,0,0,1,153.2,201.4Z"/><path class="t" d="M153.2,210.8l-22,12.7c-.4.2-.7,0-.7-.6h0a1.75,1.75,0,0,1,.7-1.4l22-12.7c.4-.2.7,0,.7.6h0A1.343,1.343,0,0,1,153.2,210.8Z"/><path class="t" d="M153.2,220.2l-22,12.7c-.4.2-.7,0-.7-.5h0a1.75,1.75,0,0,1,.7-1.4l22-12.7c.4-.2.7,0,.7.5h0A1.5,1.5,0,0,1,153.2,220.2Z"/><path class="b" d="M266.9,189.4l-64.1,37-.3-78.4,64.1-37Z"/><path class="u" d="M207,149.5l55.7-32.2c.8-.5,1.4-.1,1.4.8v45.7a3.164,3.164,0,0,1-1.4,2.4L207,198.5c-.8.5-1.4.1-1.4-.8V152A3.191,3.191,0,0,1,207,149.5Z"/><path class="c" d="M248.6,143.7l-9.3,16.5,6.5,8.5-21.6-18.6-18.6,40.3v7.3c0,.9.6,1.3,1.4.8l55.7-32.2a3.05,3.05,0,0,0,1.4-2.4V158Z"/><path class="c" d="M255,128.6c1.5-.9,2.8-.2,2.8,1.6A5.811,5.811,0,0,1,255,135c-1.5.9-2.8.2-2.8-1.6A6.686,6.686,0,0,1,255,128.6Z"/><path class="p" d="M215.1,196.9,262,169.8v18.8l-46.9,27.1Z"/><path class="f" d="M199.6,228l-72.4,41.9V251.2l72.4-42Z"/><path class="i" d="M173,128.2v2.1a.749.749,0,0,1-.1.5,18.666,18.666,0,0,1-.4,2.5,10.33,10.33,0,0,1-.7,2.1,6.242,6.242,0,0,1-1,1.6,5.3,5.3,0,0,1-1.2,1,.1.1,0,0,0-.1.1h-.1c0,.7-.1,1.3-.1,2.1a16.354,16.354,0,0,1-.2,2.2c-.1.7-.1,1.5-.2,2.2s-.1,1.4-.2,2.1l-2.1,1.2c.1-1.2.2-2.4.4-3.5.1-1.2.2-2.3.3-3.4s.1-2.1.1-3a17.722,17.722,0,0,0-.1-2.4c0-.3-.1-.4-.1-.6a.6.6,0,0,0-.1-.4.756.756,0,0,0-.1-.4,4.331,4.331,0,0,1-.1-.5l1.9-3.1a1.087,1.087,0,0,1,.1.5c0,.1.1.3.1.4,0,.2.1.3.1.5s.1.4.1.7h0c0,.2.1.4.1.6s.1.4.1.6c.1.2.1.3.2.3a.187.187,0,0,0,.3,0c.1-.1.3-.2.4-.4s.2-.5.3-.7c.1-.3.1-.5.2-.8a2.2,2.2,0,0,0,.1-.8v-1.6Z"/><path class="i" d="M177,135l-.6.3a1.268,1.268,0,0,1-.6.1c-.1,1.3-.2,2.6-.3,3.8s-.2,2.4-.4,3.6L173,144c.1-1.4.3-2.7.4-4s.2-2.6.2-3.8v-3.3a19.343,19.343,0,0,0-.4-2.7l2-3.1c0,.2.1.3.1.5,0,.1.1.2.1.3v.7a10.9,10.9,0,0,1,.6-1.1,8.792,8.792,0,0,1,.6-1,2.7,2.7,0,0,1,.7-.8,2.651,2.651,0,0,1,.6-.5,1.613,1.613,0,0,1,.9-.3,1.382,1.382,0,0,1,.9.5l-1.2,3.3H178c-.1,0-.2.1-.3.1-.1.1-.2.1-.4.2-.1.1-.3.2-.4.4-.2.2-.3.4-.5.6-.1.2-.3.4-.4.6a1.087,1.087,0,0,0-.1.5.367.367,0,0,0,.1.3c.1,0,.2.1.4.1a.6.6,0,0,0,.4-.1c.2-.1.3-.1.4-.2a1.381,1.381,0,0,1,.4-.3l.4-.4.5-.5c.2-.2.3-.4.5-.6l.5,2.5a10.476,10.476,0,0,1-.8,1.1c-.2.3-.5.6-.7.9l-.6.6A1.082,1.082,0,0,1,177,135Z"/><path class="i" d="M188.4,119.1v2.8a1.268,1.268,0,0,1-.1.6,5.02,5.02,0,0,1-.2,1.2,5.02,5.02,0,0,0-.2,1.2c-.1.4-.2.8-.3,1.1a10.379,10.379,0,0,1-.4,1,5.582,5.582,0,0,1-.5.8,4.35,4.35,0,0,1-.7.6.367.367,0,0,1-.3.1h-.3c-.1,0-.2-.1-.3-.1a.52.52,0,0,1-.2-.4,4.875,4.875,0,0,1-.3.7c-.1.2-.3.4-.4.6a1.205,1.205,0,0,1-.5.5c-.2.1-.3.2-.5.3,0,.6-.1,1.3-.1,2-.1.7-.1,1.5-.2,2.2s-.1,1.5-.2,2.3c-.1.7-.1,1.5-.2,2.1l-2.1,1.2a1.759,1.759,0,0,1,.1-.6c0-.3.1-.5.1-.8s.1-.6.1-.8c0-.3,0-.5.1-.6.1-.9.2-1.8.3-2.8s.2-2,.2-3v-2.9a17.135,17.135,0,0,0-.3-2.5l1.9-2.9a.9.9,0,0,1,.1.5,4.331,4.331,0,0,1,.1.5c0,.2.1.3.1.5s.1.5.1.8a7.473,7.473,0,0,0,.2,1.1c.1.2.2.3.4.2.1,0,.1-.1.2-.3a.749.749,0,0,0,.1-.5c0-.2.1-.4.1-.7s.1-.5.1-.8a2.2,2.2,0,0,1,.1-.8,1.483,1.483,0,0,1,.1-.7l1.7-1.3v3c0,.2.1.3.1.4s.1.1.2,0a.845.845,0,0,0,.2-.6c.1-.3.1-.6.2-1,0-.4.1-.8.1-1.3v-1.2Z"/><path class="i" d="M193.8,130.4a2.6,2.6,0,0,1-1,.4,1.077,1.077,0,0,1-.8-.2,1.934,1.934,0,0,1-.5-.9,4.267,4.267,0,0,1,0-1.6,3.529,3.529,0,0,1,.3-1.4,7.839,7.839,0,0,1,.5-1.4c.2-.5.4-.9.6-1.3l.6-1.2a8.792,8.792,0,0,1,.6-1c.2-.3.4-.5.5-.7v-1.2l2.2-2.1c-.1,1.3-.1,2.4-.1,3.4s-.1,1.9-.1,2.6V126a.349.349,0,0,0,.1.2.367.367,0,0,0,.3-.1l.1-.1-.4,4-.2.1a1.254,1.254,0,0,1-1.1.3c-.3,0-.5-.3-.7-.7a1.756,1.756,0,0,0-.5.4A1.381,1.381,0,0,1,193.8,130.4Zm-.7-3.4c0,.1,0,.1.1.1h.3a.758.758,0,0,0,.4-.2,1.756,1.756,0,0,0,.5-.4l.1-2.3a4.233,4.233,0,0,0-.5.7,5.582,5.582,0,0,1-.5.8c-.1.3-.3.5-.3.8A2.035,2.035,0,0,1,193.1,127Z"/><path class="i" d="M202,123.2l-.4,4-5.1,3,.4-4Z"/><path class="i" d="M206.8,120.4l-.4,4-5.1,3,.4-4Z"/><path class="i" d="M206.6,120.5l.3-.2a1,1,0,0,0,.4-.5,4.875,4.875,0,0,0,.3-.7c.1-.3.1-.6.2-.9,0-.3.1-.7.1-1a7.72,7.72,0,0,1,.2-1.5c.1-.5.1-1.1.2-1.7s.1-1.2.2-1.8.1-1.2.2-1.7c0-.6.1-1.1.1-1.6s.1-.9.1-1.3l2.2-2-1.2,12.2v.6a.367.367,0,0,0,.3.1l.1-.1-.4,4-.1.1c-.1.1-.3.1-.4.2H209c-.1,0-.2-.1-.3-.1-.1-.1-.2-.2-.2-.3a7.458,7.458,0,0,1-.7,1.2,3.126,3.126,0,0,1-1.1.9l-.3.2Z"/><path class="i" d="M210.1,118.5l1.1-.7a13.029,13.029,0,0,0,1.5-1c.5-.4.9-.8,1.4-1.2l1.3-1.3a13.445,13.445,0,0,0,1.1-1.4,1.268,1.268,0,0,1-.6-.1h-.6a1.952,1.952,0,0,0-.7.1,3.629,3.629,0,0,0-.7.3c-.1.1-.3.2-.5.4a4.233,4.233,0,0,0-.5.7,2.506,2.506,0,0,0-.4.7,1.689,1.689,0,0,0-.2.5l-1.3-1a13.355,13.355,0,0,1,.7-1.8,10.191,10.191,0,0,1,.8-1.5,6.233,6.233,0,0,1,.9-1.2,6.471,6.471,0,0,1,.9-.8,1.33,1.33,0,0,1,.8-.3h.8a2.354,2.354,0,0,1,.8.2,2.354,2.354,0,0,0,.8.2c.3,0,.5.1.8.1a2.354,2.354,0,0,0,.8-.2l-.6,3.9c0,.1-.1.1-.1.2s-.1.1-.1.2h.5c.2-.1.3-.1.4-.2l.2-.1-.4,4-.2.1a2.119,2.119,0,0,1-1.6.4c-.5-.1-.8-.5-1.1-1-.5.6-.9,1.2-1.4,1.8a17.876,17.876,0,0,1-1.3,1.4,11.984,11.984,0,0,1-1.2,1.1,14.629,14.629,0,0,1-1.3.9l-1.1.7Zm3.4,6.6-1-1.6,1.4-2.9,1,1.6Z"/><path class="i" d="M223.7,114.1a1,1,0,0,1-.5.4c-.2.1-.3.2-.5.2h-.5a.9.9,0,0,1-.5-.1c-.2,0-.3-.1-.5-.2-.1-.1-.3-.1-.4-.2a7.933,7.933,0,0,1-.4.9,5.582,5.582,0,0,1-.5.8l-.6.6a2.092,2.092,0,0,1-.6.4l-.3.2.4-4,.3-.2a1.756,1.756,0,0,0,.5-.4c.1-.2.3-.3.4-.5a4.875,4.875,0,0,0,.3-.7,9.44,9.44,0,0,0,.3-.9,7.6,7.6,0,0,1,.4-1.1c.1-.4.3-.8.4-1.2a6.117,6.117,0,0,1,.5-1.2c.2-.4.3-.7.5-1.1l.6-.9.6-.6a.8.8,0,0,1,.8-.1,1.7,1.7,0,0,1,.6.6,3.545,3.545,0,0,1,.3,1.1,7.568,7.568,0,0,1,.1,1.5,10.283,10.283,0,0,1-.1,1.7c-.1.6-.2,1.2-.3,1.7a7.494,7.494,0,0,1-.5,1.6A3.759,3.759,0,0,1,223.7,114.1Zm-.5-5.8c-.1,0-.2.2-.3.3a3.329,3.329,0,0,0-.3.6c-.1.2-.2.5-.3.7a2.544,2.544,0,0,0-.2.7c.1.1.2.1.3.2.1,0,.2.1.4.1h.4c.2,0,.3-.1.5-.2a3.4,3.4,0,0,0,.1-1v-.9a1.072,1.072,0,0,0-.2-.6A.6.6,0,0,1,223.2,108.3Z"/><path class="l" d="M363.3,54.9,195,153.9V283.6l168.3-99Z"/><path class="t" d="M363.3,54.9l-4-2.4-168.4,99,4.1,2.4Z"/><path class="b" d="M190.9,151.5l4.1,2.4V283.6l-4.1,2.3Z"/><path class="b" d="M355,69.4,322.5,88.2v22L355,91.5Z"/><path class="b" d="M239.9,136.1l-32.5,18.7v22.1l32.5-18.8Z"/><path class="c" d="M355,104.3,207.7,189.7V184L355,98.6Z"/><path class="g" d="M281.8,206.3l-33.1,19.1V173.2l33.1-19.1Z"/><path class="t" d="M276.3,165.6l-22,12.7c-.4.2-.7,0-.7-.5h0a1.75,1.75,0,0,1,.7-1.4l22-12.7c.4-.2.7,0,.7.6h0A1.709,1.709,0,0,1,276.3,165.6Z"/><path class="t" d="M276.3,175l-22,12.7c-.4.2-.7,0-.7-.5h0a1.75,1.75,0,0,1,.7-1.4l22-12.7c.4-.2.7,0,.7.6h0A2.111,2.111,0,0,1,276.3,175Z"/><path class="t" d="M276.3,184.3l-22,12.7c-.4.2-.7,0-.7-.5h0a1.75,1.75,0,0,1,.7-1.4l22-12.7c.4-.2.7,0,.7.6h0A1.709,1.709,0,0,1,276.3,184.3Z"/><path class="t" d="M276.3,193.7l-22,12.7c-.4.2-.7,0-.7-.5h0a1.75,1.75,0,0,1,.7-1.4l22-12.7c.4-.2.7,0,.7.5h0A1.91,1.91,0,0,1,276.3,193.7Z"/><path class="t" d="M276.3,203.1l-22,12.7c-.4.2-.7,0-.7-.5h0a1.75,1.75,0,0,1,.7-1.4l22-12.7c.4-.2.7,0,.7.5h0A2.1,2.1,0,0,1,276.3,203.1Z"/><path class="t" d="M276.3,170.1l-22,12.7c-.4.2-.7,0-.7-.5h0a1.75,1.75,0,0,1,.7-1.4l22-12.7c.4-.2.7,0,.7.6h0A2.111,2.111,0,0,1,276.3,170.1Z"/><path class="t" d="M276.3,179.4l-22,12.7c-.4.2-.7,0-.7-.5h0a1.75,1.75,0,0,1,.7-1.4l22-12.7c.4-.2.7,0,.7.5h0A1.75,1.75,0,0,1,276.3,179.4Z"/><path class="t" d="M276.3,188.8l-22,12.7c-.4.2-.7,0-.7-.6h0a1.75,1.75,0,0,1,.7-1.4l22-12.7c.4-.2.7,0,.7.6h0A1.91,1.91,0,0,1,276.3,188.8Z"/><path class="t" d="M276.3,198.2l-22,12.7c-.4.2-.7,0-.7-.5h0a1.75,1.75,0,0,1,.7-1.4l22-12.7c.4-.2.7,0,.7.5h0A2.1,2.1,0,0,1,276.3,198.2Z"/><path class="g" d="M246.5,226.1l-33.1,19.1V193l33.1-19.2Z"/><path class="t" d="M241,185.4l-22,12.7c-.4.2-.7,0-.7-.5h0a1.75,1.75,0,0,1,.7-1.4l22-12.7c.4-.2.7,0,.7.6h0A1.709,1.709,0,0,1,241,185.4Z"/><path class="t" d="M241,194.8l-22,12.7c-.4.2-.7,0-.7-.5h0a1.75,1.75,0,0,1,.7-1.4l22-12.7c.4-.2.7,0,.7.6h0A2.111,2.111,0,0,1,241,194.8Z"/><path class="t" d="M241,204.1l-22,12.7c-.4.2-.7,0-.7-.5h0a1.75,1.75,0,0,1,.7-1.4l22-12.7c.4-.2.7,0,.7.6h0A1.709,1.709,0,0,1,241,204.1Z"/><path class="t" d="M241,213.5l-22,12.7c-.4.2-.7,0-.7-.5h0a1.75,1.75,0,0,1,.7-1.4l22-12.7c.4-.2.7,0,.7.5h0A1.91,1.91,0,0,1,241,213.5Z"/><path class="t" d="M241,222.8l-22,12.7c-.4.2-.7,0-.7-.5h0a1.75,1.75,0,0,1,.7-1.4l22-12.7c.4-.2.7,0,.7.5h0A1.75,1.75,0,0,1,241,222.8Z"/><path class="t" d="M241,189.9l-22,12.7c-.4.2-.7,0-.7-.5h0a1.75,1.75,0,0,1,.7-1.4L241,188c.4-.2.7,0,.7.6h0A2.111,2.111,0,0,1,241,189.9Z"/><path class="t" d="M241,199.2l-22,12.7c-.4.2-.7,0-.7-.5h0a1.75,1.75,0,0,1,.7-1.4l22-12.7c.4-.2.7,0,.7.5h0A1.75,1.75,0,0,1,241,199.2Z"/><path class="t" d="M241,208.6l-22,12.7c-.4.2-.7,0-.7-.6h0a1.75,1.75,0,0,1,.7-1.4l22-12.7c.4-.2.7,0,.7.6h0A1.91,1.91,0,0,1,241,208.6Z"/><path class="t" d="M241,217.9l-22,12.7c-.4.2-.7,0-.7-.5h0a1.75,1.75,0,0,1,.7-1.4L241,216c.4-.2.7,0,.7.5h0A1.75,1.75,0,0,1,241,217.9Z"/><path class="c" d="M287.4,225.7l-72.5,42V248.9L287.4,207Z"/><path class="b" d="M357.2,162.7,324,181.8V129.6l33.2-19.1Z"/><path class="v" d="M351.6,122l-22,12.7c-.4.2-.7,0-.7-.5h0a1.75,1.75,0,0,1,.7-1.4l22-12.7c.4-.2.7,0,.7.6h0A1.709,1.709,0,0,1,351.6,122Z"/><path class="v" d="M351.6,131.4l-22,12.7c-.4.2-.7,0-.7-.5h0a1.75,1.75,0,0,1,.7-1.4l22-12.7c.4-.2.7,0,.7.6h0A2.112,2.112,0,0,1,351.6,131.4Z"/><path class="v" d="M351.6,140.7l-22,12.7c-.4.2-.7,0-.7-.5h0a1.75,1.75,0,0,1,.7-1.4l22-12.7c.4-.2.7,0,.7.6h0A1.709,1.709,0,0,1,351.6,140.7Z"/><path class="v" d="M351.6,150.1l-22,12.7c-.4.2-.7,0-.7-.5h0a1.75,1.75,0,0,1,.7-1.4l22-12.7c.4-.2.7,0,.7.5h0A1.91,1.91,0,0,1,351.6,150.1Z"/><path class="v" d="M351.6,159.5l-22,12.7c-.4.2-.7,0-.7-.5h0a1.75,1.75,0,0,1,.7-1.4l22-12.7c.4-.2.7,0,.7.5h0A2.1,2.1,0,0,1,351.6,159.5Z"/><path class="v" d="M351.6,126.5l-22,12.7c-.4.2-.7,0-.7-.5h0a1.75,1.75,0,0,1,.7-1.4l22-12.7c.4-.2.7,0,.7.6h0A2.112,2.112,0,0,1,351.6,126.5Z"/><path class="v" d="M351.6,135.8l-22,12.7c-.4.2-.7,0-.7-.5h0a1.75,1.75,0,0,1,.7-1.4l22-12.7c.4-.2.7,0,.7.5h0A1.75,1.75,0,0,1,351.6,135.8Z"/><path class="v" d="M351.6,145.2l-22,12.7c-.4.2-.7,0-.7-.6h0a1.75,1.75,0,0,1,.7-1.4l22-12.7c.4-.2.7,0,.7.6h0A1.91,1.91,0,0,1,351.6,145.2Z"/><path class="v" d="M351.6,154.6l-22,12.7c-.4.2-.7,0-.7-.5h0a1.75,1.75,0,0,1,.7-1.4l22-12.7c.4-.2.7,0,.7.5h0A2.1,2.1,0,0,1,351.6,154.6Z"/><path class="g" d="M317.7,185.3l-33.1,19.2V152.2l33.1-19.1Z"/><path class="t" d="M312.2,144.6l-22,12.7c-.4.2-.7,0-.7-.5h0a1.75,1.75,0,0,1,.7-1.4l22-12.7c.4-.2.7,0,.7.6h0A1.709,1.709,0,0,1,312.2,144.6Z"/><path class="t" d="M312.2,154l-22,12.7c-.4.2-.7,0-.7-.5h0a1.75,1.75,0,0,1,.7-1.4l22-12.7c.4-.2.7,0,.7.6h0A1.709,1.709,0,0,1,312.2,154Z"/><path class="t" d="M312.2,163.4l-22,12.7c-.4.2-.7,0-.7-.5h0a1.75,1.75,0,0,1,.7-1.4l22-12.7c.4-.2.7,0,.7.6h0A2.112,2.112,0,0,1,312.2,163.4Z"/><path class="t" d="M312.2,172.7l-22,12.7c-.4.2-.7,0-.7-.5h0a1.75,1.75,0,0,1,.7-1.4l22-12.7c.4-.2.7,0,.7.5h0A1.75,1.75,0,0,1,312.2,172.7Z"/><path class="t" d="M312.2,182.1l-22,12.7c-.4.2-.7,0-.7-.5h0a1.75,1.75,0,0,1,.7-1.4l22-12.7c.4-.2.7,0,.7.5h0A1.75,1.75,0,0,1,312.2,182.1Z"/><path class="t" d="M312.2,149.1l-22,12.7c-.4.2-.7,0-.7-.5h0a1.75,1.75,0,0,1,.7-1.4l22-12.7c.4-.2.7,0,.7.6h0A1.709,1.709,0,0,1,312.2,149.1Z"/><path class="t" d="M312.2,158.5l-22,12.7c-.4.2-.7,0-.7-.5h0a1.75,1.75,0,0,1,.7-1.4l22-12.7c.4-.2.7,0,.7.5h0A2.1,2.1,0,0,1,312.2,158.5Z"/><path class="t" d="M312.2,167.8l-22,12.7c-.4.2-.7,0-.7-.6h0a1.75,1.75,0,0,1,.7-1.4l22-12.7c.4-.2.7,0,.7.6h0A1.75,1.75,0,0,1,312.2,167.8Z"/><path class="t" d="M312.2,177.2l-22,12.7c-.4.2-.7,0-.7-.5h0a1.75,1.75,0,0,1,.7-1.4l22-12.7c.4-.2.7,0,.7.5h0A1.75,1.75,0,0,1,312.2,177.2Z"/><path class="f" d="M358.5,185l-72.4,41.9V208.2l72.4-42Z"/><path class="i" d="M263.5,124.4v2.1a.749.749,0,0,1-.1.5,18.668,18.668,0,0,1-.4,2.5,10.33,10.33,0,0,1-.7,2.1,6.242,6.242,0,0,1-1,1.6,3.775,3.775,0,0,1-1.2,1,.1.1,0,0,0-.1.1h-.1c0,.7-.1,1.3-.1,2.1a14.978,14.978,0,0,1-.2,2.2c-.1.7-.1,1.5-.2,2.2s-.1,1.4-.2,2.1l-2.1,1.2c.1-1.2.2-2.4.4-3.5.1-1.2.2-2.3.3-3.4s.1-2.1.1-3a17.722,17.722,0,0,0-.1-2.4,1.083,1.083,0,0,0-.1-.6.6.6,0,0,0-.1-.4.756.756,0,0,0-.1-.4,4.331,4.331,0,0,1-.1-.5l1.9-3.1a1.087,1.087,0,0,1,.1.5c0,.1.1.3.1.4,0,.2.1.3.1.5s.1.4.1.7h0c0,.2.1.4.1.6s.1.4.1.6c.1.2.1.3.2.3a.187.187,0,0,0,.3,0c.1-.1.3-.2.4-.4s.2-.5.3-.7c.1-.3.1-.5.2-.8,0-.3.1-.5.1-.8v-1.6Z"/><path class="i" d="M267.4,131.2l-.6.3a1.268,1.268,0,0,1-.6.1c-.1,1.3-.2,2.6-.3,3.8s-.2,2.4-.4,3.7l-2.1,1.2c.1-1.4.3-2.7.4-4s.2-2.6.2-3.8v-3.3a19.345,19.345,0,0,0-.4-2.7l2-3.1c0,.2.1.3.1.5,0,.1.1.2.1.3v.7a10.907,10.907,0,0,1,.6-1.1,8.794,8.794,0,0,1,.6-1,2.7,2.7,0,0,1,.7-.8,2.651,2.651,0,0,1,.6-.5,1.613,1.613,0,0,1,.9-.3,1.382,1.382,0,0,1,.9.5L269,125h-.5c-.1,0-.2.1-.3.1-.1.1-.2.1-.4.2-.1.1-.3.2-.4.4-.2.2-.3.4-.5.6-.1.2-.3.4-.4.6a1.087,1.087,0,0,0-.1.5.367.367,0,0,0,.1.3c.1,0,.2.1.4.1a.6.6,0,0,0,.4-.1c.2-.1.3-.1.4-.2a1.381,1.381,0,0,1,.4-.3l.4-.4.5-.5c.2-.2.3-.4.5-.6l.5,2.5a10.476,10.476,0,0,1-.8,1.1,5.5,5.5,0,0,0-.7.9l-.6.6A2.181,2.181,0,0,1,267.4,131.2Z"/><path class="i" d="M270.5,129.9a11.63,11.63,0,0,1,.4-1.8c.2-.6.4-1.1.6-1.6a4.111,4.111,0,0,1,.8-1.3,3.819,3.819,0,0,1,.9-.9,1.486,1.486,0,0,1,.9-.2c.3.1.5.2.6.5a2.817,2.817,0,0,1,.4,1.1,3.778,3.778,0,0,1,0,1.5,14.91,14.91,0,0,1-.4,1.8c-.2.6-.4,1.1-.6,1.6a7.378,7.378,0,0,1-.8,1.3,7.636,7.636,0,0,1-.9.9,1.486,1.486,0,0,1-.9.2c-.3-.1-.5-.2-.6-.5a2.817,2.817,0,0,1-.4-1.1A3.75,3.75,0,0,1,270.5,129.9Zm1.6-.9v.5c0,.1.1.2.1.3s.1.1.2.2a.367.367,0,0,0,.3-.1c.1-.1.2-.1.3-.3a1.38,1.38,0,0,1,.3-.4c.1-.2.1-.3.2-.5a1.087,1.087,0,0,0,.1-.5v-.5a1.007,1.007,0,0,0-.1-.3c0-.1-.1-.1-.2-.2a.367.367,0,0,0-.3.1c-.1.1-.2.1-.3.3a.758.758,0,0,0-.2.4c-.1.2-.1.3-.2.5C272.1,128.6,272.1,128.8,272.1,129Z"/><path class="i" d="M281.6,128.2a2.6,2.6,0,0,1-1,.4,1.077,1.077,0,0,1-.8-.2,1.934,1.934,0,0,1-.5-.9,4.267,4.267,0,0,1,0-1.6,3.53,3.53,0,0,1,.3-1.4,7.837,7.837,0,0,1,.5-1.4c.2-.5.4-.9.6-1.3l.6-1.2a8.794,8.794,0,0,1,.6-1c.2-.3.4-.5.5-.7v-1.2l2.2-2.1c-.1,1.3-.1,2.4-.1,3.4s-.1,1.9-.1,2.6v2.2a.349.349,0,0,0,.1.2.367.367,0,0,0,.3-.1l.1-.1-.4,4-.2.1a1.254,1.254,0,0,1-1.1.3c-.3,0-.5-.3-.7-.7a1.756,1.756,0,0,0-.5.4C281.9,128,281.7,128.1,281.6,128.2Zm-.7-3.4c0,.1,0,.1.1.1h.3a.758.758,0,0,0,.4-.2,1.756,1.756,0,0,0,.5-.4l.1-2.3a4.233,4.233,0,0,0-.5.7,5.582,5.582,0,0,1-.5.8c-.1.3-.3.5-.3.8A1.087,1.087,0,0,0,280.9,124.8Z"/><path class="i" d="M289.7,121l-.4,4-5.1,3,.4-4Z"/><path class="i" d="M294.6,118.2l-.4,4-5.1,3,.4-4Z"/><path class="i" d="M294.3,118.3l.3-.2a1,1,0,0,0,.4-.5,4.872,4.872,0,0,0,.3-.7c.1-.3.1-.6.2-.9,0-.3.1-.7.1-1a7.719,7.719,0,0,1,.2-1.5c.1-.5.1-1.1.2-1.7s.1-1.2.2-1.8.1-1.2.2-1.7c0-.6.1-1.1.1-1.6s.1-.9.1-1.3l2.2-2-1.2,12.2v.6a.367.367,0,0,0,.3.1l.1-.1-.4,4-.1.1c-.1.1-.3.1-.4.2h-.4c-.1,0-.2-.1-.3-.1-.1-.1-.2-.2-.2-.3a7.458,7.458,0,0,1-.7,1.2,3.126,3.126,0,0,1-1.1.9l-.3.2Z"/><path class="i" d="M297.8,116.3l1.1-.7a13.029,13.029,0,0,0,1.5-1c.5-.4.9-.8,1.4-1.2l1.3-1.3a13.447,13.447,0,0,0,1.1-1.4,1.268,1.268,0,0,1-.6-.1H303a1.952,1.952,0,0,0-.7.1,3.629,3.629,0,0,0-.7.3c-.1.1-.3.2-.5.4a4.233,4.233,0,0,0-.5.7,2.506,2.506,0,0,0-.4.7,1.689,1.689,0,0,0-.2.5l-1.3-1a13.355,13.355,0,0,1,.7-1.8,10.191,10.191,0,0,1,.8-1.5,6.233,6.233,0,0,1,.9-1.2,6.47,6.47,0,0,1,.9-.8,1.33,1.33,0,0,1,.8-.3h.8a2.353,2.353,0,0,1,.8.2,2.353,2.353,0,0,0,.8.2,2.2,2.2,0,0,0,.8.1,2.353,2.353,0,0,0,.8-.2l-.6,3.9c0,.1-.1.1-.1.2s-.1.1-.1.2h.5c.2-.1.3-.1.4-.2l.2-.1-.4,4-.2.1a2.119,2.119,0,0,1-1.6.4c-.5-.1-.8-.5-1.1-1-.5.6-.9,1.2-1.4,1.8a17.879,17.879,0,0,1-1.3,1.4,11.981,11.981,0,0,1-1.2,1.1,14.627,14.627,0,0,1-1.3.9l-1.1.7Zm3.5,6.5-1-1.6,1.4-2.9,1,1.6Z"/><path class="i" d="M311.5,111.9a1,1,0,0,1-.5.4c-.2.1-.3.2-.5.2H310a.9.9,0,0,1-.5-.1c-.2,0-.3-.1-.5-.2-.1-.1-.3-.1-.4-.2a7.931,7.931,0,0,1-.4.9,5.582,5.582,0,0,1-.5.8l-.6.6a2.092,2.092,0,0,1-.6.4l-.3.2.4-4,.3-.2a1.756,1.756,0,0,0,.5-.4c.1-.2.3-.3.4-.5a4.872,4.872,0,0,0,.3-.7,9.431,9.431,0,0,0,.3-.9,7.6,7.6,0,0,1,.4-1.1c.1-.4.3-.8.4-1.2a6.117,6.117,0,0,1,.5-1.2c.2-.4.3-.7.5-1.1l.6-.9.6-.6a.8.8,0,0,1,.8-.1,1.7,1.7,0,0,1,.6.6,3.545,3.545,0,0,1,.3,1.1,7.568,7.568,0,0,1,.1,1.5,10.283,10.283,0,0,1-.1,1.7c-.1.6-.2,1.2-.3,1.7a7.494,7.494,0,0,1-.5,1.6A9.259,9.259,0,0,1,311.5,111.9Zm-.6-5.8c-.1,0-.2.2-.3.3l-.3.6c-.1.2-.2.5-.3.7a2.544,2.544,0,0,0-.2.7c.1.1.2.1.3.2.1,0,.2.1.4.1h.4c.2,0,.3-.1.5-.2a3.4,3.4,0,0,0,.1-1v-.9a1.072,1.072,0,0,0-.2-.6A.756.756,0,0,0,310.9,106.1Z"/><path class="l" d="M309,135.6l-168.3,99V364.4l168.3-99Z"/><path class="t" d="M309,135.6l-4.1-2.3-168.3,99,4.1,2.3Z"/><path class="b" d="M136.6,232.3l4.1,2.3V364.4l-4.1,2.3Z"/><path class="b" d="M300.6,150.2l-32.5,18.7V191l32.5-18.8Z"/><path class="b" d="M185.6,216.8l-32.5,18.8v22.1l32.5-18.8Z"/><path class="b" d="M301.1,244.1l-32.5,18.8v22l32.5-18.7Z"/><path class="c" d="M300.6,185.1,153.4,270.5v-5.7l147.2-85.4Z"/><path class="g" d="M299.9,242.1l-33.1,19.1V209l33.1-19.1Z"/><path class="t" d="M294.3,201.4l-22,12.7c-.4.2-.7,0-.7-.5h0a1.75,1.75,0,0,1,.7-1.4l22-12.7c.4-.2.7,0,.7.6h0A1.28,1.28,0,0,1,294.3,201.4Z"/><path class="t" d="M294.3,210.8l-22,12.7c-.4.2-.7,0-.7-.5h0a1.75,1.75,0,0,1,.7-1.4l22-12.7c.4-.2.7,0,.7.6h0A1.45,1.45,0,0,1,294.3,210.8Z"/><path class="t" d="M294.3,220.1l-22,12.7c-.4.2-.7,0-.7-.5h0a1.75,1.75,0,0,1,.7-1.4l22-12.7c.4-.2.7,0,.7.6h0A1.28,1.28,0,0,1,294.3,220.1Z"/><path class="t" d="M294.3,229.5l-22,12.7c-.4.2-.7,0-.7-.5h0a1.75,1.75,0,0,1,.7-1.4l22-12.7c.4-.2.7,0,.7.5h0A1.42,1.42,0,0,1,294.3,229.5Z"/><path class="t" d="M294.3,238.9l-22,12.7c-.4.2-.7,0-.7-.5h0a1.75,1.75,0,0,1,.7-1.4l22-12.7c.4-.2.7,0,.7.5h0A1.5,1.5,0,0,1,294.3,238.9Z"/><path class="t" d="M294.3,205.9l-22,12.7c-.4.2-.7,0-.7-.5h0a1.75,1.75,0,0,1,.7-1.4l22-12.7c.4-.2.7,0,.7.6h0A1.45,1.45,0,0,1,294.3,205.9Z"/><path class="t" d="M294.3,215.2l-22,12.7c-.4.2-.7,0-.7-.5h0a1.75,1.75,0,0,1,.7-1.4l22-12.7c.4-.2.7,0,.7.5h0A1.343,1.343,0,0,1,294.3,215.2Z"/><path class="t" d="M294.3,224.6l-22,12.7c-.4.2-.7,0-.7-.6h0a1.75,1.75,0,0,1,.7-1.4l22-12.7c.4-.2.7,0,.7.6h0A1.42,1.42,0,0,1,294.3,224.6Z"/><path class="t" d="M294.3,234l-22,12.7c-.4.2-.7,0-.7-.5h0a1.75,1.75,0,0,1,.7-1.4l22-12.7c.4-.2.7,0,.7.5h0A1.5,1.5,0,0,1,294.3,234Z"/><path class="g" d="M192.2,328.4l-33.1,19.1V273.8l33.1-19.2Z"/><path class="t" d="M186.5,267.8l-22,12.7c-.4.2-.7,0-.7-.5h0a1.75,1.75,0,0,1,.7-1.4l22-12.7c.4-.2.7,0,.7.5h0A1.75,1.75,0,0,1,186.5,267.8Z"/><path class="t" d="M186.5,277.2l-22,12.7c-.4.2-.7,0-.7-.5h0a1.75,1.75,0,0,1,.7-1.4l22-12.7c.4-.2.7,0,.7.5h0A1.75,1.75,0,0,1,186.5,277.2Z"/><path class="t" d="M186.5,286.6l-22,12.7c-.4.2-.7,0-.7-.5h0a1.75,1.75,0,0,1,.7-1.4l22-12.7c.4-.2.7,0,.7.6h0A1.889,1.889,0,0,1,186.5,286.6Z"/><path class="t" d="M186.5,295.9l-22,12.7c-.4.2-.7,0-.7-.5h0a1.75,1.75,0,0,1,.7-1.4l22-12.7c.4-.2.7,0,.7.5h0A1.75,1.75,0,0,1,186.5,295.9Z"/><path class="t" d="M186.5,305.3l-22,12.7c-.4.2-.7,0-.7-.5h0a1.75,1.75,0,0,1,.7-1.4l22-12.7c.4-.2.7,0,.7.5h0A1.75,1.75,0,0,1,186.5,305.3Z"/><path class="t" d="M186.5,272.3l-22,12.7c-.4.2-.7,0-.7-.5h0a1.75,1.75,0,0,1,.7-1.4l22-12.7c.4-.2.7,0,.7.5h0A1.75,1.75,0,0,1,186.5,272.3Z"/><path class="t" d="M186.5,281.7l-22,12.7c-.4.2-.7,0-.7-.5h0a1.75,1.75,0,0,1,.7-1.4l22-12.7c.4-.2.7,0,.7.5h0A2.1,2.1,0,0,1,186.5,281.7Z"/><path class="t" d="M186.5,291l-22,12.7c-.4.2-.7,0-.7-.6h0a1.75,1.75,0,0,1,.7-1.4l22-12.7c.4-.2.7,0,.7.6h0A1.75,1.75,0,0,1,186.5,291Z"/><path class="t" d="M186.5,300.4l-22,12.7c-.4.2-.7,0-.7-.5h0a1.75,1.75,0,0,1,.7-1.4l22-12.7c.4-.2.7,0,.7.5h0A1.75,1.75,0,0,1,186.5,300.4Z"/><path class="t" d="M186.8,309.7l-22,12.7c-.4.2-.7,0-.7-.5h0a1.75,1.75,0,0,1,.7-1.4l22-12.7c.4-.2.7,0,.7.6h0A1.457,1.457,0,0,1,186.8,309.7Z"/><path class="t" d="M186.8,319.1l-22,12.7c-.4.2-.7,0-.7-.5h0a1.75,1.75,0,0,1,.7-1.4l22-12.7c.4-.2.7,0,.7.6h0A1.574,1.574,0,0,1,186.8,319.1Z"/><path class="t" d="M186.8,314.2l-22,12.7c-.4.2-.7,0-.7-.5h0a1.75,1.75,0,0,1,.7-1.4l22-12.7c.4-.2.7,0,.7.6h0A1.574,1.574,0,0,1,186.8,314.2Z"/><path class="t" d="M186.8,323.5l-22,12.7c-.4.2-.7,0-.7-.5h0a1.75,1.75,0,0,1,.7-1.4l22-12.7c.4-.2.7,0,.7.5h0A1.513,1.513,0,0,1,186.8,323.5Z"/><path class="b" d="M262.2,289.7l-64.1,37-.3-78.4,64-37Z"/><path class="u" d="M202.3,249.8,258,217.6c.8-.5,1.4-.1,1.4.8v45.7a3.546,3.546,0,0,1-1.4,2.5l-55.7,32.2c-.8.5-1.4.1-1.4-.8V252.3A2.973,2.973,0,0,1,202.3,249.8Z"/><path class="f" d="M243.9,244l-9.3,16.5,6.5,8.5-21.6-18.6-18.6,40.3V298c0,.9.6,1.3,1.4.8L258,266.6a3.05,3.05,0,0,0,1.4-2.4v-6Z"/><path class="f" d="M250.3,228.9c1.5-.9,2.8-.2,2.8,1.6a5.811,5.811,0,0,1-2.8,4.8c-1.5.9-2.8.2-2.8-1.6A6.1,6.1,0,0,1,250.3,228.9Z"/><path class="p" d="M201.6,302.2,259,269.1v18.8l-57.4,33Z"/><path class="i" d="M205.9,207.1v2.1a.749.749,0,0,1-.1.5,18.666,18.666,0,0,1-.4,2.5,10.33,10.33,0,0,1-.7,2.1,6.242,6.242,0,0,1-1,1.6,3.775,3.775,0,0,1-1.2,1,.1.1,0,0,0-.1.1h-.1c0,.7-.1,1.3-.1,2.1a16.354,16.354,0,0,1-.2,2.2c-.1.7-.1,1.5-.2,2.2s-.1,1.4-.2,2.1l-2.1,1.2c.1-1.2.2-2.4.4-3.5.1-1.2.2-2.3.3-3.4s.1-2.1.1-3a17.722,17.722,0,0,0-.1-2.4,1.083,1.083,0,0,0-.1-.6.6.6,0,0,0-.1-.4.756.756,0,0,0-.1-.4,4.331,4.331,0,0,1-.1-.5l1.9-3.1a1.087,1.087,0,0,1,.1.5c0,.1.1.3.1.4,0,.2.1.3.1.5s.1.4.1.7h0c0,.2.1.4.1.6s.1.4.1.6c.1.2.1.3.2.3a.187.187,0,0,0,.3,0c.1-.1.3-.2.4-.4s.2-.5.3-.7c.1-.3.1-.5.2-.8a2.2,2.2,0,0,0,.1-.8v-1.6Z"/><path class="i" d="M213.8,202.3v2.8a1.268,1.268,0,0,1-.1.6,5.02,5.02,0,0,1-.2,1.2,5.019,5.019,0,0,0-.2,1.2c-.1.4-.2.8-.3,1.1a10.38,10.38,0,0,1-.4,1,5.582,5.582,0,0,1-.5.8,4.35,4.35,0,0,1-.7.6.367.367,0,0,1-.3.1h-.3c-.1,0-.2-.1-.3-.1a.52.52,0,0,1-.2-.4,4.875,4.875,0,0,1-.3.7c-.1.2-.3.4-.4.6a1.205,1.205,0,0,1-.5.5c-.2.1-.3.2-.5.3,0,.6-.1,1.3-.1,2-.1.7-.1,1.5-.2,2.2-.1.8-.1,1.5-.2,2.3-.1.7-.1,1.5-.2,2.1l-2.1,1.2a1.759,1.759,0,0,1,.1-.6c0-.3.1-.5.1-.8s.1-.6.1-.8c0-.3,0-.5.1-.6.1-.9.2-1.8.3-2.8s.2-2,.2-3v-2.9a17.135,17.135,0,0,0-.3-2.5l1.9-2.9a.9.9,0,0,1,.1.5,4.331,4.331,0,0,1,.1.5c0,.2.1.3.1.5s.1.5.1.8a7.473,7.473,0,0,0,.2,1.1c.1.2.2.3.4.2.1,0,.1-.1.2-.3a.749.749,0,0,0,.1-.5c0-.2.1-.4.1-.7s.1-.5.1-.8a2.2,2.2,0,0,1,.1-.8,1.483,1.483,0,0,1,.1-.7l1.7-1.3v3c0,.2.1.3.1.4s.1.1.2,0a.845.845,0,0,0,.2-.6c.1-.3.1-.6.2-1,0-.4.1-.8.1-1.3V204Z"/><path class="i" d="M221.8,197.6v2.8a1.268,1.268,0,0,1-.1.6,5.02,5.02,0,0,1-.2,1.2,5.02,5.02,0,0,0-.2,1.2c-.1.4-.2.8-.3,1.1a10.38,10.38,0,0,1-.4,1,5.582,5.582,0,0,1-.5.8,4.35,4.35,0,0,1-.7.6.367.367,0,0,1-.3.1h-.3c-.1,0-.2-.1-.3-.1a.52.52,0,0,1-.2-.4,4.875,4.875,0,0,1-.3.7c-.1.2-.3.4-.4.6a1.205,1.205,0,0,1-.5.5c-.2.1-.3.2-.5.3,0,.6-.1,1.3-.1,2-.1.7-.1,1.5-.2,2.2s-.1,1.5-.2,2.3c-.1.7-.1,1.5-.2,2.1l-2.1,1.2a1.759,1.759,0,0,1,.1-.6c0-.3.1-.5.1-.8s.1-.6.1-.8c0-.3,0-.5.1-.6.1-.9.2-1.8.3-2.8s.2-2,.2-3v-2.9a17.135,17.135,0,0,0-.3-2.5l1.9-2.9a.9.9,0,0,1,.1.5,4.331,4.331,0,0,1,.1.5c0,.2.1.3.1.5s.1.5.1.8a7.473,7.473,0,0,0,.2,1.1c.1.2.2.3.4.2.1,0,.1-.1.2-.3a.749.749,0,0,0,.1-.5c0-.2.1-.4.1-.7s.1-.5.1-.8a2.2,2.2,0,0,1,.1-.8,1.483,1.483,0,0,1,.1-.7l1.7-1.3v3c0,.2.1.3.1.4s.1.1.2,0a.845.845,0,0,0,.2-.6c.1-.3.1-.6.2-1,0-.4.1-.8.1-1.3v-1.2Z"/><path class="i" d="M227.2,209a2.6,2.6,0,0,1-1,.4,1.077,1.077,0,0,1-.8-.2,1.934,1.934,0,0,1-.5-.9,4.267,4.267,0,0,1,0-1.6,3.529,3.529,0,0,1,.3-1.4,7.838,7.838,0,0,1,.5-1.4c.2-.5.4-.9.6-1.3l.6-1.2a8.793,8.793,0,0,1,.6-1c.2-.3.4-.5.5-.7v-1.2l2.2-2.1c-.1,1.3-.1,2.4-.1,3.4s-.1,1.9-.1,2.6v2.2a.349.349,0,0,0,.1.2.367.367,0,0,0,.3-.1l.1-.1-.4,4-.2.1a1.254,1.254,0,0,1-1.1.3c-.3,0-.5-.3-.7-.7a1.756,1.756,0,0,0-.5.4A1.381,1.381,0,0,1,227.2,209Zm-.7-3.4c0,.1,0,.1.1.1h.3a.758.758,0,0,0,.4-.2,1.756,1.756,0,0,0,.5-.4l.1-2.3a4.233,4.233,0,0,0-.5.7,5.582,5.582,0,0,1-.5.8c-.1.3-.3.5-.3.8A4.332,4.332,0,0,1,226.5,205.6Z"/><path class="i" d="M235.4,201.8l-.4,4-5.1,3,.4-4Z"/><path class="i" d="M240.2,198.9l-.4,4-5.1,3,.4-4Z"/><path class="i" d="M240,199l.3-.2a1,1,0,0,0,.4-.5,4.875,4.875,0,0,0,.3-.7c.1-.3.1-.6.2-.9,0-.3.1-.7.1-1a7.72,7.72,0,0,1,.2-1.5c.1-.5.1-1.1.2-1.7s.1-1.2.2-1.8.1-1.2.2-1.7c0-.6.1-1.1.1-1.6s.1-.9.1-1.3l2.2-2-1.2,12.2v.6a.367.367,0,0,0,.3.1l.1-.1-.4,4-.1.1c-.1.1-.3.1-.4.2h-.4c-.1,0-.2-.1-.3-.1-.1-.1-.2-.2-.2-.3a7.458,7.458,0,0,1-.7,1.2,3.126,3.126,0,0,1-1.1.9l-.3.2Z"/><path class="i" d="M243.5,197l1.1-.7a13.03,13.03,0,0,0,1.5-1c.5-.4.9-.8,1.4-1.2l1.3-1.3a13.445,13.445,0,0,0,1.1-1.4,1.268,1.268,0,0,1-.6-.1h-.6a1.952,1.952,0,0,0-.7.1,3.63,3.63,0,0,0-.7.3c-.1.1-.3.2-.5.4a4.233,4.233,0,0,0-.5.7,2.506,2.506,0,0,0-.4.7,1.689,1.689,0,0,0-.2.5l-1.3-1a13.354,13.354,0,0,1,.7-1.8,10.191,10.191,0,0,1,.8-1.5,6.233,6.233,0,0,1,.9-1.2,6.47,6.47,0,0,1,.9-.8,1.33,1.33,0,0,1,.8-.3h.8a2.354,2.354,0,0,1,.8.2,2.353,2.353,0,0,0,.8.2c.3,0,.5.1.8.1a2.354,2.354,0,0,0,.8-.2l-.6,3.9c0,.1-.1.1-.1.2s-.1.1-.1.2h.5c.2-.1.3-.1.4-.2l.2-.1-.4,4-.2.1a2.119,2.119,0,0,1-1.6.4c-.5-.1-.8-.5-1.1-1-.5.6-.9,1.2-1.4,1.8a17.874,17.874,0,0,1-1.3,1.4,11.986,11.986,0,0,1-1.2,1.1,14.625,14.625,0,0,1-1.3.9l-1.1.7Zm3.4,6.6-1-1.6,1.4-2.9,1,1.6Z"/><path class="i" d="M257.1,192.7a1,1,0,0,1-.5.4c-.2.1-.3.2-.5.2h-.5a.9.9,0,0,1-.5-.1c-.2,0-.3-.1-.5-.2-.1-.1-.3-.1-.4-.2a7.932,7.932,0,0,1-.4.9,5.582,5.582,0,0,1-.5.8l-.6.6a2.092,2.092,0,0,1-.6.4l-.3.2.4-4,.3-.2a1.756,1.756,0,0,0,.5-.4c.1-.2.3-.3.4-.5a4.875,4.875,0,0,0,.3-.7,9.44,9.44,0,0,0,.3-.9,7.6,7.6,0,0,1,.4-1.1c.1-.4.3-.8.4-1.2a6.118,6.118,0,0,1,.5-1.2c.2-.4.3-.7.5-1.1l.6-.9.6-.6a.8.8,0,0,1,.8-.1,1.7,1.7,0,0,1,.6.6,3.545,3.545,0,0,1,.3,1.1,7.568,7.568,0,0,1,.1,1.5,10.283,10.283,0,0,1-.1,1.7c-.1.6-.2,1.2-.3,1.7a7.494,7.494,0,0,1-.5,1.6A3.835,3.835,0,0,1,257.1,192.7Zm-.5-5.8c-.1,0-.2.2-.3.3a3.329,3.329,0,0,0-.3.6c-.1.2-.2.5-.3.7a2.544,2.544,0,0,0-.2.7c.1.1.2.1.3.2.1,0,.2.1.4.1h.4c.2,0,.3-.1.5-.2a3.4,3.4,0,0,0,.1-1v-.9a1.072,1.072,0,0,0-.2-.6A.756.756,0,0,0,256.6,186.9Z"/></g></svg>