<svg xmlns="http://www.w3.org/2000/svg" width="545.8" height="395" viewBox="0 0 545.8 395"><defs><style>.a{fill:#f0f0f0;}.b{fill:#e6e6e6;}.c{fill:#e0e0e0;}.d{fill:#fff;}.e{fill:#f5f5f5;}.f{fill:#ebebeb;}.g{fill:#263238;}.h,.w{fill:#737373;}.h,.i,.j{stroke:#1d1d1b;stroke-miterlimit:10;}.h,.j{stroke-width:0.5px;}.i,.j,.y{fill:none;}.i{stroke-width:0.25px;}.k,.v{fill:#ff3600;}.l{fill:#56180a;}.m{fill:#ffbe9d;}.n{fill:#eb996e;}.o{fill:#455a64;}.p{fill:#075b4b;}.q{fill:#06826a;}.r{fill:#fafafa;}.s,.t{opacity:0.6;}.t{fill:#1e1e1e;}.u,.v{opacity:0.3;}.x{fill:#1d1d1b;}</style></defs><g transform="translate(2.9 -54.8)"><path class="a" d="M29.1,416v29.4h90.4V416Z"/><path class="b" d="M76.5,407.8H26V416h97.3v-8.2Z"/><path class="c" d="M76.5,415.2v-7.4H26V416h3.1v29.4H74.6Z"/><rect class="c" width="18.3" height="4.4" transform="translate(88.5 420.7)"/><rect class="d" width="23.5" height="9.3" transform="translate(85.7 430.7)"/><path class="a" d="M57.4,378.5l1.2-10.9,38.7-3.3-.1,11Z"/><rect class="c" width="24.3" height="2" transform="translate(64.661 371.35) rotate(-4.89)"/><path class="c" d="M62.1,367.4l1-9.9,38.7-3.7v11Z"/><path class="d" d="M64.8,358.6l-.7,6.9,37.7-2.8v-7.4Z"/><path class="c" d="M68.3,361.2l3.7-.5c3.1-.4,7.4-.8,12.2-1.3s9.1-.9,12.2-1.1l3.7-.3h1.4a5.9,5.9,0,0,1-1.4.2l-3.7.5c-3.1.4-7.4.8-12.2,1.3s-9.1.9-12.2,1.2l-3.7.3a3.3,3.3,0,0,1-1.4,0C67.4,361.4,67.9,361.3,68.3,361.2Z"/><path class="c" d="M68.4,362.2l3.7-.3c3.1-.3,7.5-.6,12.3-.9s9.2-.6,12.3-.8l3.7-.2h1.4a5.9,5.9,0,0,1-1.4.2l-3.7.3c-3.1.3-7.5.6-12.3.9s-9.2.6-12.3.8l-3.7.2a3.3,3.3,0,0,1-1.4,0A7.841,7.841,0,0,1,68.4,362.2Z"/><path class="c" d="M57.1,387.6l1.1-9.9,38.7-3.3-.2,11.1Z"/><path class="e" d="M92.4,380.3a24.687,24.687,0,0,1,.5-5.4,25.279,25.279,0,0,1,0,5.5,25.6,25.6,0,0,1-.5,5.5A52.268,52.268,0,0,1,92.4,380.3Z"/><path class="e" d="M91.1,380.4a32.722,32.722,0,0,1-.4,5.4,56.736,56.736,0,0,1,.2-10.9A20.442,20.442,0,0,1,91.1,380.4Z"/><path class="d" d="M65.9,381.6c6.9-.6,14.8-1,21.5-1.8"/><path class="e" d="M69.1,381.1c1.9-.2,4.6-.4,7.6-.6l7.6-.5a17.128,17.128,0,0,1,3.2-.1,16.683,16.683,0,0,1-3.1.5c-1.9.2-4.6.5-7.6.7s-5.6.4-7.6.5c-1.1.1-2.1.1-3.2.1A10.657,10.657,0,0,1,69.1,381.1Z"/><path class="e" d="M63.1,382.3a26.259,26.259,0,0,1,.5-4.9,20.908,20.908,0,0,1,0,5,26.259,26.259,0,0,1-.5,4.9A20.9,20.9,0,0,1,63.1,382.3Z"/><path class="e" d="M61,382.4a26.3,26.3,0,0,1,.7-4.9,27.9,27.9,0,0,1-.2,5,26.3,26.3,0,0,1-.7,4.9A20.749,20.749,0,0,1,61,382.4Z"/><path class="d" d="M70.8,382.9c3.4-.1,6.7-.3,10.9-.6"/><path class="e" d="M76.2,382.3a25.282,25.282,0,0,1,5.5,0,25.029,25.029,0,0,1-5.5.5,25.282,25.282,0,0,1-5.5,0A35.138,35.138,0,0,1,76.2,382.3Z"/><path class="e" d="M54.4,407.1l1.6-9.8L94.9,396l-.8,11.1Z"/><path class="d" d="M93.3,397.6l-37.4.7-1.1,6.8,37.8.6Z"/><path class="f" d="M53.4,397.6l1.3-9.9,38.7-2.5-.3,11.1Z"/><rect class="c" width="24.3" height="2" transform="translate(60.565 391.688) rotate(-3.71)"/><path class="c" d="M57,401l4-.1H74.4c5.3,0,9.9.1,13.3.1l4,.1a7.568,7.568,0,0,1,1.5.1,7.568,7.568,0,0,1-1.5.1l-4,.1H74.4c-5.2,0-9.9-.1-13.3-.1l-4-.1a7.568,7.568,0,0,1-1.5-.1A6.149,6.149,0,0,1,57,401Z"/><path class="c" d="M56.5,403.1l4.1-.1c3.4-.1,8.2-.2,13.4-.3s10-.1,13.4-.1h4.1a7.568,7.568,0,0,1,1.5.1,7.568,7.568,0,0,1-1.5.1l-4.1.1c-3.4.1-8.2.2-13.4.3s-10,.1-13.4.1H56.5a7.568,7.568,0,0,1-1.5-.1A7.568,7.568,0,0,1,56.5,403.1Z"/><path class="g" d="M240,444.8c123.1,0,302.9.1,302.9.3s-179.8.3-302.9.3-242.9-.1-242.9-.3S116.9,444.8,240,444.8Z"/><rect class="d" width="143.9" height="117.2" transform="translate(283.5 76.5)"/><path class="g" d="M283.3,191.5v-6.2c0-5.5-.1-13.5-.1-23.7,0-20.5-.1-49.8-.1-85.2v-.2H427.5V193.9h-.2l-104.1-.1-29.4-.1h.1l29.4-.1,104-.1-.2.2V76.5l.3.3H283.5l.2-.2c0,35.3-.1,64.5-.1,85v32.3A9.193,9.193,0,0,1,283.3,191.5Z"/><path class="g" d="M355.2,86c39.6,0,71.7.1,71.7.3s-32.1.3-71.7.3-71.7-.1-71.7-.3S315.6,86,355.2,86Z"/><line class="h" x2="59" transform="translate(346.3 134.7)"/><line class="h" x2="59" transform="translate(346.3 142.4)"/><line class="h" x2="59" transform="translate(345.1 150)"/><rect class="i" width="91.1" height="29.7" transform="translate(409.57 156.63) rotate(180)"/><path class="j" d="M340.8,151.4H323.7a1.367,1.367,0,0,1-1.4-1.4V132.9a1.367,1.367,0,0,1,1.4-1.4h17.1a1.367,1.367,0,0,1,1.4,1.4V150A1.312,1.312,0,0,1,340.8,151.4Z"/><path class="j" d="M323.2,151.3s8.1-15.1,11.6-15,7.6,9.2,7.6,9.2"/><path class="j" d="M326.3,131.5s1.2,4.7-4,4.8"/><path class="g" d="M423.5,80.2a.9.9,0,1,1-.9.9A.9.9,0,0,1,423.5,80.2Z"/><circle class="g" cx="0.9" cy="0.9" r="0.9" transform="translate(419.1 80.2)"/><path class="g" d="M416.4,80.2h0a.9.9,0,1,1-.9.9A.9.9,0,0,1,416.4,80.2Z"/><path class="c" d="M417.5,140.3c0-30,.1-54.3.3-54.3s.3,24.3.3,54.3-.1,54.3-.3,54.3C417.7,194.7,417.5,170.4,417.5,140.3Z"/><rect class="c" width="140.1" height="114.2" transform="translate(15.9 99.5)"/><rect class="c" width="140.1" height="114.2" transform="translate(380.7 314.2)"/><rect class="f" width="140.1" height="114.2" transform="translate(69.9 129.1)"/><rect class="d" width="143.9" height="117.2" transform="translate(79.9 137)"/><path class="g" d="M79.7,252v-6.2c0-5.5-.1-13.5-.1-23.7,0-20.5-.1-49.8-.1-85.2v-.2H223.9V254.4h-.2l-104.1-.1-29.4-.1h.1l29.4-.1,104-.1-.2.2V137l.3.3H79.9l.2-.2c0,35.3-.1,64.5-.1,85v32.3A9.193,9.193,0,0,1,79.7,252Z"/><path class="g" d="M151.6,146.5c39.6,0,71.7.1,71.7.3s-32.1.3-71.7.3-71.7-.1-71.7-.3C79.9,146.7,112,146.5,151.6,146.5Z"/><path class="g" d="M219.9,140.8a.9.9,0,1,1-.9.9A.9.9,0,0,1,219.9,140.8Z"/><circle class="g" cx="0.9" cy="0.9" r="0.9" transform="translate(215.5 140.8)"/><path class="g" d="M212.8,140.8h0a.9.9,0,1,1-.9.9A.9.9,0,0,1,212.8,140.8Z"/><path class="c" d="M213.9,200.9c0-30,.1-54.3.3-54.3s.3,24.3.3,54.3-.1,54.3-.3,54.3S213.9,230.9,213.9,200.9Z"/><rect class="k" width="39.5" height="28.1" transform="translate(448.7 215.8)"/><path class="d" d="M468.3,219.8c11,0,19.9,0,19.9.1s-8.9.1-19.9.1-19.9-.1-19.9-.1S457.3,219.8,468.3,219.8Z"/><path class="d" d="M485,217.9a.536.536,0,0,1,.5-.5h0a.472.472,0,0,1,.5.5h0c0,.3-.3.5-.5.4-.2.1-.5-.1-.5-.4Z"/><path class="d" d="M483.5,217.4a.56.56,0,0,1,.6.5c0,.2-.2.4-.5.5a.56.56,0,0,1-.6-.5A.821.821,0,0,1,483.5,217.4Z"/><path class="d" d="M481.7,217.4h0a.46.46,0,0,1,.5.6.552.552,0,1,1-.5-.6Z"/><path class="k" d="M201.7,125.8V115.1c0-7.4-.1-18.1-.1-31.1v-.2h.2l65.9-.1h.3v42.9h-.2l-47.6-.1-13.5-.1h-.1l13.6-.1,47.4-.1-.2.2V83.8l.3.3H201.8l.2-.2c0,13-.1,23.6-.1,31-.1,3.7-.1,6.6-.1,8.6v3.1A2.768,2.768,0,0,1,201.7,125.8Z"/><path class="k" d="M234.8,90c18.2,0,33,.1,33,.3s-14.8.3-33,.3-33-.1-33-.3S216.5,90,234.8,90Z"/><path class="k" d="M262.8,87.2a.773.773,0,0,1,.8-.7h.1c.4.1.8.5.7.9s-.5.8-.9.7a.961.961,0,0,1-.7-.9Z"/><path class="k" d="M259.9,87.2a.773.773,0,0,1,.8-.7h.1c.4.1.8.5.7.9s-.5.8-.9.7a.779.779,0,0,1-.7-.9Z"/><path class="k" d="M257,87.2a.773.773,0,0,1,.8-.7h.1c.4.1.8.5.7.9s-.5.8-.9.7a.779.779,0,0,1-.7-.9Z"/><path class="l" d="M302.7,205.9s1-59.6,3.9-63.9-13.4,4.6-18.7,11.3c-4.7,5.9-2,12-1.1,22.7,1,12.3-4.1,23,4.3,31.8C300.5,217.6,302.7,205.9,302.7,205.9Z"/><path class="g" d="M286.7,162.4c-.2-1.2,1,.6,1-.4,2.6-1.2,3-2.8,4.6-5.4a2.994,2.994,0,0,0,.4-.8,18.8,18.8,0,0,1,4,7c1.2,3.6,5.5,8.2,5.2,12,0,1.7,2.1,23.7,1.2,25.1-.6.8-17.9,6.4-18.8,5.8C283.9,205.4,291.2,186.7,286.7,162.4Z"/><path class="m" d="M320.6,157.7a3.8,3.8,0,0,1,3.4,3.8h0l-2.3,51c-.1,6-8.9,9.4-15.4,9.3h0c-6.5-.1-6.7-3.3-6.8-9.1-.1-9.6-.1-13.2-.1-13.1s-8.2-1.4-9.9-12.1c-.8-5.3-.5-14.1-.1-21.3.4-6.4,4.7-14.3,11.1-13.6Z"/><path class="n" d="M299.4,199.6a27.029,27.029,0,0,0,14.4-3.8c-.1,0-4,7.5-14.3,6.3Z"/><path class="o" d="M392.6,268.7A11.715,11.715,0,0,0,380.9,257H324.1l-32.5,90.4H251.1a9.855,9.855,0,0,0-9.8,9.3h0v.5a9.816,9.816,0,0,0,9.8,9.8l106-.3a9.12,9.12,0,0,0,8.8-6.6L392,272A9.6,9.6,0,0,0,392.6,268.7Z"/><path class="p" d="M250.2,310.4s-7.4-1.8-9.6,2.9c-2.4,5.1-1.9,38.9,6,35.3,8.4-3.9,45.1,5.4,53.6,6.1l-1-42.6-46.3-1.8Z"/><path class="g" d="M326.6,354.3c13.3,0,24.1.2,24.1.4s-10.8.4-24.1.4-24.1-.2-24.1-.4C302.4,354.5,313.2,354.3,326.6,354.3Z"/><path class="g" d="M277.8,312c-15.4-.7-17.6,9.3-17.8,24.7,1.1,39.3-2,100.4-1.7,101.5s14.8-21.3,14.8-21.3L290,347.5l18.2,2.6c5,1.8,14.1,3.2,19.2,1.7l6.5-1.9c8.4-2.4,15.4-14.1,12.9-22.5l-3.6-12.3C343.3,315,278.3,312,277.8,312Z"/><path class="g" d="M368.9,307.2c-8.7,26.2-15.9,47.2-16.1,47.2s6.7-21.3,15.4-47.4,15.9-47.2,16.1-47.2C384.5,259.9,377.6,281,368.9,307.2Z"/><path class="o" d="M306.8,366.7h6.5v78.2l-6.5.2Z"/><path class="o" d="M313.7,435.3h-6.5L280,444.7h60.1Z"/><path class="g" d="M231.5,314.2a24.88,24.88,0,0,0-20.8,28.2l25.2,95.9,9.7-1.2s-5.1-92.9-5.6-94c-.5-1,56.5.9,56.5.9l-2.7-32s-33.9,1.1-59.4,2A9.466,9.466,0,0,0,231.5,314.2Z"/><path class="q" d="M355.2,234.3a29.511,29.511,0,0,0-25.8-27.8h-.3c-1.6-.2-3-.3-3.9-.4a37.956,37.956,0,0,1-23.1,0h0a31.376,31.376,0,0,0-9.6,1.8,40.83,40.83,0,0,0-15.3,9.9h0l-23.4,42.4,12.8,24.7s13.7-32.6,16.4-31.8c.2,6.1,7,27.5,7,27.5l-9.7,32.1,66.9,11.1-6.7-29.1,14.9-57.9Z"/><path class="q" d="M336.8,256.8l23.7.2-.5-21.3c-3.4-29-30.9-29.2-30.9-29.2Z"/><path class="g" d="M296.3,224.2l7.7,11.2,12.8-11.2Z"/><path class="g" d="M316.4,224.6c-2,1.9-3.9,3.8-5.9,5.7l-6,5.6.1-.1a15.66,15.66,0,0,0-1.2,3,29.92,29.92,0,0,0-.8,3.2,47.821,47.821,0,0,0-.7,6.5,48.52,48.52,0,0,0,.2,6.6l.3,3.3.5,3.3c-.3-1.1-.6-2.2-.8-3.2l-.6-3.3a50.353,50.353,0,0,1-.5-6.7,37.934,37.934,0,0,1,.6-6.7,21.135,21.135,0,0,1,2.2-6.4v-.1h.1l6.2-5.4C312.2,228.2,314.3,226.4,316.4,224.6Z"/><path class="g" d="M297.8,226.1a30.886,30.886,0,0,1,3.6,4.5,27.443,27.443,0,0,1,2.7,5.1,30.886,30.886,0,0,1-3.6-4.5A41.11,41.11,0,0,1,297.8,226.1Z"/><path class="g" d="M282.4,252.5c-.5-14.5,5.6-20.3,5.8-20.3s-4.3,5.8-5,20.3c-.4,7.2,10,31.5,9.8,31.5C292.7,284,282.7,261.3,282.4,252.5Z"/><path class="m" d="M293,284.8s-10.6-2.1-12.7-2.2-1.6-6.2-1.6-6.2l-3.6,6.3a3.306,3.306,0,0,1-2.3.7c-1.4-.1,2.2-9.9,4.6-13.3s15.3-4.4,15.3-4.4Z"/><path class="q" d="M338.6,250.3,338,273l-45.2-8.7-.1,21.5,52.4,10.8c.7.1,1.3.2,2,.3a12.736,12.736,0,0,0,13.4-12V251.4Z"/><path class="g" d="M329.8,293.8l-2.1-.4L320,292l-27.4-5.3h-.3V263.8l.4.1,9.2,1.8,36,7-.4.3c-.2-10-.4-18.3-.6-24.2,0-2.9-.1-5.1-.1-6.8v-2.4c0,.2.1.4.1.6,0,.4.1,1,.1,1.8.1,1.6.2,3.9.3,6.8.2,5.9.5,14.2.8,24.2v.3l-.4-.1-36-6.9-9.2-1.8.4-.4v22.1l-.3-.3,27.3,5.6,7.7,1.6,2,.5a1.854,1.854,0,0,1,.7.2C330.3,293.9,330,293.9,329.8,293.8Z"/><path class="r" d="M297.4,284.3c-.2-2.1-.4-4.9-.4-8s.1-6,.3-8a12.574,12.574,0,0,1,.5-3.3,18.186,18.186,0,0,1,0,3.3c-.1,2-.1,4.9-.1,8s.1,5.9.2,7.9a18.186,18.186,0,0,1,0,3.3A30.623,30.623,0,0,1,297.4,284.3Z"/><path class="r" d="M300.2,284.8c-.2-2-.3-4.8-.3-7.9s.1-5.9.2-7.9a12.423,12.423,0,0,1,.4-3.3,12.172,12.172,0,0,1,.1,3.3v7.9c0,2.9.1,5.6.1,7.9a12.172,12.172,0,0,1-.1,3.3A18.584,18.584,0,0,1,300.2,284.8Z"/><g class="s"><path class="d" d="M253.3,446.5a1.662,1.662,0,1,1,.8,3.2,1.7,1.7,0,0,1-2-1.3,1.783,1.783,0,0,1,1.3-2"/></g><path class="o" d="M240,330.3c1.5,3.5,1.8,6.6,1.6,6.7s-.9-2.9-2.3-6.4-3.1-6-2.9-6.1C236.5,324.3,238.5,326.7,240,330.3Z"/><path class="o" d="M236.3,331.3c2.8,2.2,4.3,4.6,4.1,4.8s-1.9-2.1-4.6-4.2-5.2-3.2-5.1-3.4C230.7,328.3,233.5,329.1,236.3,331.3Z"/><path class="o" d="M288.4,340.6c1.5,3.5,1.8,6.6,1.6,6.7s-.9-2.9-2.3-6.4-3.1-6-2.9-6.1A18.285,18.285,0,0,1,288.4,340.6Z"/><path class="o" d="M284.6,341.7c2.8,2.2,4.3,4.6,4.1,4.8s-1.9-2.1-4.6-4.2-5.2-3.2-5.1-3.4C279.1,338.6,281.8,339.5,284.6,341.7Z"/><path class="o" d="M321.5,290.2l-29.5-.5-17.1-48.2-74-.5,19,53.6,101.6-1Z"/><path class="d" d="M239.6,267.9h0a4.144,4.144,0,1,1,4.7,3.5A4.234,4.234,0,0,1,239.6,267.9Z"/><path class="g" d="M316.8,147.6c2.7-2.1,8.3.3,10.5,3.7s2.3,7.1,1.9,11.1a52.624,52.624,0,0,1-6.1,19.7c-.3.6-.8,1.2-1.4,1-.4-.1,2.3-5.2,2.2-5.6-1.3-6-.1-6.3-.1-7.9,0-3.6-4.8-5.6-6.4-8.8s-4.7-6-8.3-6.1a11.812,11.812,0,0,0-7.4,2.7c-2.1,1.6-3.9,3.6-5.9,5.4a12.769,12.769,0,0,1-6.2,3.7c-2.6.5-1,4.7-1.8,2.2-3.2-9.5-.3-20.8,11.2-26a11.287,11.287,0,0,1,10.5-1.7c3.7,1.3,6.3,3,7.3,6.6"/><path class="g" d="M292.2,171.4a1.367,1.367,0,0,1,1.4-1.4,1.456,1.456,0,0,1,1.6,1.3h0a1.367,1.367,0,0,1-1.4,1.4,1.456,1.456,0,0,1-1.6-1.3Z"/><path class="g" d="M291.7,168.8a3.719,3.719,0,0,1,2.2-1,4.025,4.025,0,0,1,2.4.5c.5.3.8.5.7.7-.2.2-1.4-.4-2.9-.3-1.6.2-2.6,1.1-2.8.9C291.1,169.6,291.3,169.3,291.7,168.8Z"/><path class="g" d="M307.6,170.3a1.367,1.367,0,0,1,1.4-1.4,1.533,1.533,0,0,1,1.6,1.3h0a1.52,1.52,0,0,1-1.4,1.5,1.617,1.617,0,0,1-1.6-1.4Z"/><path class="g" d="M307.1,167.5a3.719,3.719,0,0,1,2.2-1,4.025,4.025,0,0,1,2.4.5c.5.3.8.5.7.7-.2.2-1.4-.5-2.9-.3-1.6.2-2.6,1.1-2.8.9C306.5,168.3,306.7,167.9,307.1,167.5Z"/><path class="g" d="M299.7,180.8H299c-.3-.1-.6-.2-.7-.5a2.208,2.208,0,0,1,0-1.6c.3-1,.5-2.1.8-3.2,1.2-4.5,2.3-8.1,2.5-8.1s-.6,3.7-1.8,8.2c-.3,1.1-.6,2.2-.9,3.2a1.672,1.672,0,0,0-.1,1.2c.1.3.5.3.9.3a11.4,11.4,0,0,1,2.6.2A12.215,12.215,0,0,1,299.7,180.8Z"/><path class="g" d="M306.5,162a6.5,6.5,0,0,1,5.4-1.2c.7.2,1.1.5,1,.7-.1.4-1.7.4-3.5.8-1.8.3-3.3,1.1-3.5.7C305.7,162.8,305.9,162.4,306.5,162Z"/><path class="g" d="M291.8,163.9a3.139,3.139,0,0,1,2.1-.7,4.282,4.282,0,0,1,2.2.6c.5.3.7.7.5.9-.2.4-1.4.1-2.7.1s-2.4.4-2.7.1C291.1,164.7,291.3,164.3,291.8,163.9Z"/><path class="m" d="M324.4,181.9c0,.2,7.1,1.1,6.6-5.9s-7.1-4.3-7.3-4.2C323.8,171.9,324.4,181.8,324.4,181.9Z"/><path class="n" d="M326.6,179.5a1.376,1.376,0,0,0,1.1.1,3.021,3.021,0,0,0,1.5-3.1,3.292,3.292,0,0,0-.6-1.9,1.436,1.436,0,0,0-2.1-.8c-.1.1-.2.3-.3.4a.584.584,0,0,0,.1.4,1,1,0,0,1,.1-.4.67.67,0,0,1,.7-.4,1.3,1.3,0,0,1,1,.9,4.8,4.8,0,0,1,.5,1.7,2.98,2.98,0,0,1-1.2,2.8,2.768,2.768,0,0,1-.9.1,1.237,1.237,0,0,1-.3-.2Z"/><path class="g" d="M287.4,155.5a13.643,13.643,0,0,1,3.8-5.4,23.352,23.352,0,0,1,12.6-6.1,18.618,18.618,0,0,1,13.5,3.5,19.554,19.554,0,0,1,6.4,9.3c1.2,3.6,5.5,8.2,5.2,12,0,1.7,2.1,23.7,1.2,25.1-.6.8-17.9,6.4-18.8,5.8-.5-.4,20.4-9.8,5.1-43.5-1.6-3.6-10.1-5.9-17.5,2.5-3.3,3.4-7.1,9.7-10.4,11.6"/><path class="t" d="M333.6,208.6c1.4-2.1,6.3.2,6.3.2s-16.1,24.9-43.6,18c-13.6-3.4-16.6-11.4-16.6-11.4l6.5-4.6Z"/><path class="k" d="M296.4,144.2s11.1-3.4,23.3,11.7,6.8,40.1-1.9,46-13.7,3.8-18.4,4.2c-4.1.3-16,3.6-17.3,7.4-2.4,7.2,28.8,25.9,51.6-.4,20.5-23.6,8.3-57.6,3.1-63.9C329.7,140.4,307.3,132.7,296.4,144.2Z"/><path class="d" d="M309.3,146.6a27.029,27.029,0,0,1,14.2,9.7l.7.9.6.9a11.784,11.784,0,0,1,1.1,1.9,28.746,28.746,0,0,1,1.8,4l.7,2.1.5,2.1a32.088,32.088,0,0,1,.7,4.3,42.628,42.628,0,0,1-1.4,17.4,28.811,28.811,0,0,1-3.8,7.9,21.19,21.19,0,0,1-6.3,6,20.861,20.861,0,0,0,6.1-6.1,28.275,28.275,0,0,0,3.6-7.9,41.6,41.6,0,0,0,1.2-17.2,32.084,32.084,0,0,0-.7-4.3l-.5-2.1-.7-2a34.235,34.235,0,0,0-1.7-4c-.4-.6-.7-1.2-1.1-1.9l-.6-.9-.7-.9a27.621,27.621,0,0,0-6.2-6.1A25.2,25.2,0,0,0,309.3,146.6Z"/><path class="d" d="M293,207.3c.5.6,1.1,1.1,1.6,1.6a21.968,21.968,0,0,0,1.8,1.4,9.938,9.938,0,0,0,4.1,1.7,7.025,7.025,0,0,1-4.2-1.5A14.353,14.353,0,0,1,293,207.3Z"/><path class="d" d="M309.1,218a24.446,24.446,0,0,1-7.6-1,22.131,22.131,0,0,1-3.5-1.6,11.628,11.628,0,0,1-2.9-2.5,13.307,13.307,0,0,0,3,2.3,15.4,15.4,0,0,0,3.5,1.5,24.906,24.906,0,0,0,3.7.9A16.367,16.367,0,0,0,309.1,218Z"/><path class="d" d="M343.9,193.6a43.137,43.137,0,0,1-4.4,10.7,41.833,41.833,0,0,1-7.2,9.1l-1.1,1a10.632,10.632,0,0,0-1.1.9c-.8.6-1.5,1.2-2.3,1.8a40.789,40.789,0,0,1-5,2.9l-1.3.6-.7.3-.7.2-2.7,1a14.345,14.345,0,0,1-2.8.7l-2.8.6,2.8-.7a14.731,14.731,0,0,0,2.8-.8l2.7-1,.7-.2.6-.3,1.3-.6a40.791,40.791,0,0,0,5-2.9c.8-.5,1.5-1.2,2.3-1.8a10.632,10.632,0,0,0,1.1-.9l1-1a41.9,41.9,0,0,0,7.2-9l1.4-2.5c.4-.9.9-1.7,1.2-2.6A33.443,33.443,0,0,0,343.9,193.6Z"/><path class="d" d="M308.9,140.5a25.939,25.939,0,0,1,14.7,4.7,30.418,30.418,0,0,1,9.8,12.1,50.028,50.028,0,0,1,2.6,7.4l2.1,7.5a64.372,64.372,0,0,0,2.5,7.4,22.612,22.612,0,0,0,1.7,3.5,3.483,3.483,0,0,0,1.4,1.3,1.02,1.02,0,0,0,.9-.2,2.177,2.177,0,0,0,.5-.8,1.374,1.374,0,0,1-.5.8,1.008,1.008,0,0,1-.9.3,3.738,3.738,0,0,1-1.5-1.3,28.99,28.99,0,0,1-1.9-3.4c-1-2.4-1.9-4.9-2.7-7.4-1.6-5-2.5-10.1-4.8-14.8a29.408,29.408,0,0,0-9.5-12,28.293,28.293,0,0,0-6.9-3.6A20.889,20.889,0,0,0,308.9,140.5Z"/><path class="d" d="M321.3,211.4a21.476,21.476,0,0,1-7.3,3.1,17.518,17.518,0,0,1-4,.4,18.251,18.251,0,0,1-4-.5c.7.1,1.3.2,2,.3l1,.1h1a17.373,17.373,0,0,0,3.9-.5,24.011,24.011,0,0,0,3.8-1.2C318.9,212.6,320.1,212,321.3,211.4Z"/><path class="l" d="M296.6,206.6s5.2,4.6,14.3,3.8a20.137,20.137,0,0,1-17.3-3.2Z"/><path class="d" d="M293,221.6a9.994,9.994,0,0,1-6.2-2,10.44,10.44,0,0,1-2.3-2.4c-.3-.4-.6-.9-.9-1.4l-.6-1.5a13.066,13.066,0,0,0,1.7,2.8,10.039,10.039,0,0,0,2.3,2.3,8.03,8.03,0,0,0,2.9,1.5A7.83,7.83,0,0,0,293,221.6Z"/><path class="l" d="M306.9,214.7s6.7,1.6,14.5-3.3c0,0-5.8,7.4-16.6,2.8Z"/><path class="d" d="M300.6,208.8a4.793,4.793,0,0,1-2-.7l-.9-.6a2.7,2.7,0,0,1-.7-.8A12.64,12.64,0,0,0,300.6,208.8Z"/><path class="l" d="M333.8,178s1.8,17.8-13.5,27.7C320.2,205.8,339.9,202.8,333.8,178Z"/><path class="k" d="M245,414.4l2.9,35-43,.1c.2-4.1,22.5-12.4,22.5-12.4l1.9-22.2Z"/><g class="s"><path class="d" d="M240.9,435.2a1.627,1.627,0,1,0-.9,3.1,1.635,1.635,0,0,0,2-1.2,1.774,1.774,0,0,0-1.2-2"/></g><g class="s"><path class="d" d="M204.9,449.5c-.2-1.4,1.7-2.2,1.7-2.2l41.4-1.4v3.5Z"/></g><path class="g" d="M229.2,437.2c1.3.8,1.6,2,1.4,2.1s-.7-.8-1.8-1.5-2.1-.8-2.1-1S227.9,436.4,229.2,437.2Z"/><path class="g" d="M224.3,439.7c.9,1.1.8,2.3.6,2.3s-.4-.9-1.1-1.8-1.6-1.2-1.6-1.5C222.2,438.5,223.4,438.6,224.3,439.7Z"/><path class="g" d="M219,442.3c-.5-.9-1.1-1.6-1-1.7s1.1.3,1.6,1.4.3,2.1.1,2.1C219.4,444.1,219.5,443.2,219,442.3Z"/><path class="g" d="M229.4,431c1.4.1,2.3.8,2.2,1s-1-.2-2.2-.3-2.1.2-2.2,0C227,431.6,228,431,229.4,431Z"/><g class="u"><path d="M245.4,419.5l.4,3.5-17.2.2.3-3.9Z"/></g><path class="g" d="M230,426.8a18.034,18.034,0,0,0,2.1-.8,10.909,10.909,0,0,0,1.1-.6,1.756,1.756,0,0,0,.5-.4c0-.1.1,0,0-.2s-.5-.2-1-.1a5.639,5.639,0,0,0-1.2.4,7.24,7.24,0,0,0-1.9,1.1c-1,.8-1.5,1.4-1.6,1.4s.3-.8,1.3-1.8a8.577,8.577,0,0,1,2-1.3c.4-.2.9-.3,1.3-.5a2.2,2.2,0,0,1,.8-.1,1.05,1.05,0,0,1,.9.5.9.9,0,0,1-.1,1.1,2.651,2.651,0,0,1-.6.5c-.4.2-.8.5-1.2.7a8.78,8.78,0,0,1-2.3.7,4.108,4.108,0,0,1-2.2,0A8.3,8.3,0,0,1,230,426.8Z"/><path class="g" d="M228.2,425.5a7.117,7.117,0,0,0-.4-2.1,6.119,6.119,0,0,0-.5-1.2,1.268,1.268,0,0,0-.8-.7c-.2,0-.3.3-.4.8a2.845,2.845,0,0,0,0,1.3,4.793,4.793,0,0,0,.7,2,7.119,7.119,0,0,0,1.3,1.6c0,.1-.9-.2-1.7-1.3a4.69,4.69,0,0,1-.9-2.2,3.787,3.787,0,0,1,0-1.5,2.354,2.354,0,0,1,.2-.8.961.961,0,0,1,.9-.6,1.933,1.933,0,0,1,1.4,1.1,6.944,6.944,0,0,1,.5,1.3,9.863,9.863,0,0,1,.3,2.4,3.936,3.936,0,0,1-.6,2.1C228,427.5,228.3,426.8,228.2,425.5Z"/><path class="k" d="M274.5,414.7l2.9,35-43,.1c.2-4.1,22.5-12.4,22.5-12.4l1.9-22.2Z"/><g class="s"><path class="d" d="M270.3,435.6a1.627,1.627,0,1,0-.9,3.1,1.635,1.635,0,0,0,2-1.2,1.774,1.774,0,0,0-1.2-2"/></g><g class="s"><path class="d" d="M234.4,449.8c-.2-1.4,1.7-2.2,1.7-2.2l41.4-1.4v3.5Z"/></g><path class="g" d="M258.7,437.6c1.3.8,1.6,2,1.4,2.1s-.7-.8-1.8-1.5-2.1-.8-2.1-1S257.4,436.8,258.7,437.6Z"/><path class="g" d="M253.8,440c.9,1.1.8,2.3.6,2.3s-.4-.9-1.1-1.8-1.6-1.2-1.6-1.5A2.622,2.622,0,0,1,253.8,440Z"/><path class="g" d="M248.5,442.6c-.5-.9-1.1-1.6-1-1.7s1.1.3,1.6,1.4.3,2.1.1,2.1C248.9,444.5,248.9,443.6,248.5,442.6Z"/><path class="g" d="M258.8,431.4c1.4.1,2.3.8,2.2,1s-1-.2-2.2-.3-2.1.2-2.2,0C256.5,432,257.4,431.3,258.8,431.4Z"/><g class="u"><path d="M274.9,419.8l.4,3.6-17.2.2.3-3.9Z"/></g><path class="g" d="M259.5,427.1a18.033,18.033,0,0,0,2.1-.8,10.911,10.911,0,0,0,1.1-.6,1.756,1.756,0,0,0,.5-.4c0-.1.1,0,0-.2s-.5-.2-1-.1a5.64,5.64,0,0,0-1.2.4,7.24,7.24,0,0,0-1.9,1.1c-1,.8-1.5,1.4-1.6,1.4s.3-.8,1.3-1.8a8.577,8.577,0,0,1,2-1.3c.4-.2.9-.3,1.3-.5a2.2,2.2,0,0,1,.8-.1,1.05,1.05,0,0,1,.9.5.9.9,0,0,1-.1,1.1,2.651,2.651,0,0,1-.6.5c-.4.2-.8.5-1.2.7a8.781,8.781,0,0,1-2.3.7,4.108,4.108,0,0,1-2.2,0A16.546,16.546,0,0,1,259.5,427.1Z"/><path class="g" d="M257.7,425.9a7.117,7.117,0,0,0-.4-2.1,6.118,6.118,0,0,0-.5-1.2,1.268,1.268,0,0,0-.8-.7c-.2,0-.3.3-.4.8a2.845,2.845,0,0,0,0,1.3,4.793,4.793,0,0,0,.7,2,7.119,7.119,0,0,0,1.3,1.6c0,.1-.9-.2-1.7-1.3a4.69,4.69,0,0,1-.9-2.2,3.787,3.787,0,0,1,0-1.5,2.354,2.354,0,0,1,.2-.8.961.961,0,0,1,.9-.6,1.933,1.933,0,0,1,1.4,1.1,6.943,6.943,0,0,1,.5,1.3,9.862,9.862,0,0,1,.3,2.4,3.936,3.936,0,0,1-.6,2.1C257.5,427.9,257.8,427.1,257.7,425.9Z"/><path class="v" d="M303.6,185.6a1.592,1.592,0,0,0-1.9.3c-.7.9,0,2.6.8,3a1.6,1.6,0,0,0,2.3-1.4C304.8,186.7,303.6,185.6,303.6,185.6Z"/><path class="g" d="M305.4,186.3a3.716,3.716,0,0,1-2.2,1.7,4.126,4.126,0,0,1-2.9-.2c-.7-.3-1.1-.6-.9-.8s1.7.7,3.5.1,2.5-2.1,2.7-2C305.7,185.2,305.8,185.7,305.4,186.3Z"/><rect class="g" width="43.3" height="93.3" transform="translate(399.1 351.2)"/><path class="o" d="M402.7,434.1v-5.5c-.1-3.9-.1-9.5-.1-16.6,0-14.3-.1-34.3-.1-57.7V354h36.8v.3c-.1,31.2-.1,59.5-.1,80.2v.2H439l-26.6-.1h.1l26.5-.1-.2.2c-.1-20.8-.1-49.1-.1-80.2l.3.3H402.7l.3-.2c0,23.3-.1,43.3-.1,57.5-.1,7.1-.1,12.8-.1,16.7v6.1A5.389,5.389,0,0,1,402.7,434.1Z"/><path class="o" d="M405.1,360.1a21.846,21.846,0,0,1-.1-2.8v-.1h0c5.6-.1,17.6-.1,31.5-.1h0l.3.3h0v3.9h-.3c-8.9,0-16.9,0-22.5-.1l-6.6-.1h.1l6.7-.1c5.7,0,13.5-.1,22.3-.1l-.3.3v-3.7h0l.3.3h0c-13.9,0-25.9-.1-31.5-.1l.1-.1Z"/><path class="o" d="M434.9,363.6c.8,0,1.5.1,1.5.3s-.7.3-1.5.3-1.5-.1-1.5-.3C433.5,363.7,434.1,363.6,434.9,363.6Z"/><path class="o" d="M420.9,368.4c8.3,0,15,.1,15,.3s-6.7.3-15,.3-15-.1-15-.3S412.6,368.4,420.9,368.4Z"/><path class="o" d="M420.5,374.2c8.1,0,14.7.1,14.7.3s-6.6.3-14.7.3-14.7-.1-14.7-.3S412.4,374.2,420.5,374.2Z"/><circle class="k" cx="2.4" cy="2.4" r="2.4" transform="translate(418.5 385.7)"/><path class="o" d="M430.8,387.7a8.72,8.72,0,0,1,3.2.3,10.884,10.884,0,0,1-3.1.3,8.72,8.72,0,0,1-3.2-.3A10.884,10.884,0,0,1,430.8,387.7Z"/><path class="o" d="M411.3,387.1a7.687,7.687,0,0,1,3,.3,10.206,10.206,0,0,1-3,.3,7.687,7.687,0,0,1-3-.3A7.687,7.687,0,0,1,411.3,387.1Z"/><path class="g" d="M441.4,397.9a10.344,10.344,0,0,0,1.2-.3,16.52,16.52,0,0,0,4.2-2.1,18.435,18.435,0,0,0,5-5.4,32.861,32.861,0,0,0,3.7-9.1,36.41,36.41,0,0,0,1.1-11.8,24.093,24.093,0,0,0-4.5-12.7,20.92,20.92,0,0,0-5.3-5,21.583,21.583,0,0,0-3.4-1.7,23.392,23.392,0,0,0-3.8-.9c-2.6-.4-5.3-.3-8-.5a20.464,20.464,0,0,1-8.1-1.9,10.647,10.647,0,0,1-3.4-2.6,9.274,9.274,0,0,1-2-5.8,8.962,8.962,0,0,1,9.1-8.9,5.982,5.982,0,0,1,3.6,1.4,4.42,4.42,0,0,1,1.6,3.4,5.161,5.161,0,0,1-4.9,4.7,8.249,8.249,0,0,1-6.1-2.7,13.465,13.465,0,0,1-2.8-5.6,38.189,38.189,0,0,1-1.1-5.7,92.024,92.024,0,0,1-.4-17.4c.1-2,.3-3.6.3-4.7a5.739,5.739,0,0,0,.1-1.2.6.6,0,0,1,.1-.4v.4c0,.3-.1.7-.1,1.2-.1,1.1-.1,2.7-.2,4.7a90.775,90.775,0,0,0,.5,17.3c.3,1.9.7,3.8,1.1,5.6a13.291,13.291,0,0,0,2.8,5.4,7.316,7.316,0,0,0,5.7,2.6,5,5,0,0,0,4.5-4.3,3.749,3.749,0,0,0-1.4-3,5.8,5.8,0,0,0-3.3-1.2,14.918,14.918,0,0,0-2.1.2,8.391,8.391,0,0,0-6.3,10.1,8.718,8.718,0,0,0,4.9,6,19.8,19.8,0,0,0,7.9,1.8c2.7.2,5.4.1,8,.5a27.439,27.439,0,0,1,3.9.9,22.611,22.611,0,0,1,3.5,1.7,19.112,19.112,0,0,1,5.4,5.2A25.194,25.194,0,0,1,457,369a36.762,36.762,0,0,1-1.1,11.9,31.986,31.986,0,0,1-3.8,9.2,17.841,17.841,0,0,1-5.2,5.4,14.042,14.042,0,0,1-4.3,2c-.5.1-1.1.2-1.6.3A.6.6,0,0,0,441.4,397.9Z"/><rect class="g" width="102.6" height="70.5" transform="translate(353.1 206.5)"/><rect class="g" width="14" height="26.6" transform="translate(398.4 267.4)"/><path class="g" d="M127.7,292.1v11.5l34.2-.3V444.9h4.7V303.6l221.1-1.1V444.9h4.9V302.5h52.9v-9.6Z"/><path class="g" d="M413.6,301.5l-21,15.9-1.8-1.8,20.9-15Z"/><path class="g" d="M140.2,302.9,164.6,321l1.8-1.7L142.2,302Z"/><rect class="g" width="54.7" height="4" transform="translate(313.8 289.4)"/><path class="o" d="M123,246.8c-4.5,6.9.9,13,.9,13l63.2.4c.2,0,.3-.1.5-.2,6.9-7.3-.3-12.8-.3-12.8Z"/><path class="c" d="M155.6,252.8c9.7,0,17.6.1,17.6.1s-7.9.1-17.6.1-17.6-.1-17.6-.1C137.9,252.9,145.8,252.8,155.6,252.8Z"/><path class="c" d="M156,255.1c4.6,0,8.3,0,8.3.1s-3.7.1-8.3.1-8.3-.1-8.3-.1C147.8,255.2,151.5,255.1,156,255.1Z"/><path class="c" d="M131.9,259.1a10.626,10.626,0,0,1-.3-1.4,18.3,18.3,0,0,1-.4-4.7,23.147,23.147,0,0,1,.5-4.6,8.4,8.4,0,0,1,.4-1.4c0-.2.1-.3.2-.5a6.7,6.7,0,0,1-.4,1.9,25.859,25.859,0,0,0-.1,9.2c.2,1.2.3,1.9.3,1.9C132,259.5,131.9,259.3,131.9,259.1Z"/><path class="c" d="M126.6,248.6a15.985,15.985,0,0,0-.5,2.1,23.005,23.005,0,0,0-.3,2.6,21.116,21.116,0,0,0,.2,2.6,15.985,15.985,0,0,0,.5,2.1c.4,1.2.7,1.9.7,1.9a2.186,2.186,0,0,1-.3-.5l-.3-.6a6.893,6.893,0,0,1-.3-.8l-.6-2.1a12.287,12.287,0,0,1-.2-2.7,12.412,12.412,0,0,1,.3-2.7,8.3,8.3,0,0,1,.6-2.1c.1-.3.2-.5.3-.8l.3-.6c.1-.2.2-.3.3-.5C127.4,246.7,127,247.4,126.6,248.6Z"/><path class="c" d="M178.1,258a11.7,11.7,0,0,0,.5-2,10.554,10.554,0,0,0,.2-2.5,10.679,10.679,0,0,0-.3-2.5,6.637,6.637,0,0,0-.6-2,8.691,8.691,0,0,0-.8-1.7,2.959,2.959,0,0,1,.3.4c.1.2.2.3.3.5a2.507,2.507,0,0,0,.4.7,11.764,11.764,0,0,1,.7,2,10.679,10.679,0,0,1,.3,2.5,10.075,10.075,0,0,1-.3,2.5,6.637,6.637,0,0,1-.6,2,4.877,4.877,0,0,1-.3.7,2.186,2.186,0,0,1-.3.5,1.38,1.38,0,0,1-.3.4C177.3,259.7,177.7,259,178.1,258Z"/><path class="c" d="M185,259.3a18.659,18.659,0,0,0,.7-2.2,13.329,13.329,0,0,0,.3-2.8,26.355,26.355,0,0,0-.2-2.8,7.945,7.945,0,0,0-.6-2.2,10.821,10.821,0,0,0-.8-2c.1.2.2.3.3.5l.3.6a2.994,2.994,0,0,0,.4.8,8.648,8.648,0,0,1,.6,2.3,13.678,13.678,0,0,1,.2,2.9,8.628,8.628,0,0,1-.4,2.8,14.162,14.162,0,0,1-.7,2.2,2.01,2.01,0,0,1-.4.8l-.3.6c-.1.2-.2.3-.3.5A15.577,15.577,0,0,0,185,259.3Z"/><path class="f" d="M149.7,279.1v12.1H126.3V279.1Z"/><path class="k" d="M201.9,285.1a6.957,6.957,0,0,0-7-7l-69.7-.2v1.3h16.6a6.04,6.04,0,0,1,6,6.1h0a6.018,6.018,0,0,1-6,6H125.2v.9h69.7a6.927,6.927,0,0,0,7-6.5v-.6Z"/><path class="c" d="M137,285.1c5.9,0,10.8,0,10.8.1s-4.8.1-10.8.1-10.7-.1-10.7-.1S131.1,285.1,137,285.1Z"/><path class="c" d="M136.8,287.9c5.6,0,10.2.1,10.2.1s-4.6.1-10.2.1-10.2-.1-10.2-.1S131.2,287.9,136.8,287.9Z"/><path class="c" d="M136.8,282.7c5.8,0,10.5,0,10.5.1s-4.7.1-10.5.1-10.5,0-10.5-.1S131,282.7,136.8,282.7Z"/><path class="c" d="M136,280.2c5.2,0,9.4.1,9.4.1,0,.1-4.2.1-9.4.1s-9.4-.1-9.4-.1S130.8,280.2,136,280.2Z"/><path class="e" d="M193.9,278.6a6.885,6.885,0,0,1,1.1,1.3,9,9,0,0,1-.1,10.6,4.894,4.894,0,0,1-1.2,1.3c-.2.1-.3.3-.5.4a7.965,7.965,0,0,0,1.5-1.7,8.747,8.747,0,0,0,1.7-5.2,8.659,8.659,0,0,0-1.6-5.2,11.917,11.917,0,0,0-1.5-1.8C193.5,278.2,193.6,278.3,193.9,278.6Z"/><path class="e" d="M196.3,278.3a6.885,6.885,0,0,1,1.1,1.3,9.048,9.048,0,0,1,1.7,5.3,9.389,9.389,0,0,1-1.8,5.3,4.894,4.894,0,0,1-1.2,1.3,2.182,2.182,0,0,1-.5.4,7.965,7.965,0,0,0,1.5-1.7,9.018,9.018,0,0,0,.1-10.4,11.917,11.917,0,0,0-1.5-1.8A3.335,3.335,0,0,1,196.3,278.3Z"/><path class="e" d="M148.9,278.6a6.885,6.885,0,0,1,1.1,1.3,9,9,0,0,1-.1,10.6,4.894,4.894,0,0,1-1.2,1.3c-.2.1-.3.3-.5.4a7.965,7.965,0,0,0,1.5-1.7,8.747,8.747,0,0,0,1.7-5.2,8.659,8.659,0,0,0-1.6-5.2,11.917,11.917,0,0,0-1.5-1.8Q148.45,278.15,148.9,278.6Z"/><path class="e" d="M151.3,278.3a6.885,6.885,0,0,1,1.1,1.3,9.048,9.048,0,0,1,1.7,5.3,9.389,9.389,0,0,1-1.8,5.3,4.894,4.894,0,0,1-1.2,1.3,2.182,2.182,0,0,1-.5.4,7.965,7.965,0,0,0,1.5-1.7,9.018,9.018,0,0,0,.1-10.4,11.917,11.917,0,0,0-1.5-1.8A3.335,3.335,0,0,1,151.3,278.3Z"/><path class="e" d="M185.7,288.8a1.63,1.63,0,0,0,1.3,1.1,1.65,1.65,0,0,0,1.5-.9,6.071,6.071,0,0,0,.5-1.8c.1-1.3.2-2.6.2-3.9a4.025,4.025,0,0,0-.5-2.4,2.031,2.031,0,0,0-2-1,1.22,1.22,0,0,0-.9.8,5.066,5.066,0,0,0-.2,1.3c0,1.6-.1,3.3-.1,4.9A6.154,6.154,0,0,0,185.7,288.8Z"/><path class="e" d="M169.7,285.4c6.3,0,11.3.1,11.3.1,0,.1-5,.1-11.3.1s-11.3-.1-11.3-.1C158.4,285.4,163.4,285.4,169.7,285.4Z"/><path class="e" d="M183.8,277.7l.3-11.4h6.2l-.1,11.4Z"/><path class="c" d="M190.2,268.3a28.107,28.107,0,0,1-5.8,0A28.106,28.106,0,0,1,190.2,268.3Z"/><path class="c" d="M190.2,270.1a28.107,28.107,0,0,1-5.8,0A28.1,28.1,0,0,1,190.2,270.1Z"/><path class="c" d="M190.2,271.8a28.107,28.107,0,0,1-5.8,0A56.109,56.109,0,0,1,190.2,271.8Z"/><path class="c" d="M190.2,273.6a28.107,28.107,0,0,1-5.8,0A28.1,28.1,0,0,1,190.2,273.6Z"/><path class="c" d="M190.2,275.4a28.107,28.107,0,0,1-5.8,0A28.106,28.106,0,0,1,190.2,275.4Z"/><path class="g" d="M190.6,266.7h-4.5a2.006,2.006,0,0,0-2,2v6.8a2.006,2.006,0,0,0,2,2h4.2v.8H121.4a32.333,32.333,0,0,1,0-12.4h69.2Z"/><path class="r" d="M156.6,272.2h1.2c.1,0,.1.1.1.2v.1a.494.494,0,0,1-.1.3,3.293,3.293,0,0,1-.7,1.3,1.231,1.231,0,0,1-1,.5H156a1.555,1.555,0,0,1-.8-.6,3.255,3.255,0,0,1-.4-1.4,3.4,3.4,0,0,1,.1-1,3.293,3.293,0,0,1,.7-1.3,1.231,1.231,0,0,1,1-.5.6.6,0,0,1,.4.1,1.779,1.779,0,0,1,.7.8v.2c0,.1-.1.1-.1.2h-.1c-.1,0-.1-.1-.2-.2h0c0-.1-.1-.2-.1-.3a.55.55,0,0,0-.5-.3c-.1,0-.3.1-.4.1a1.8,1.8,0,0,0-.6.9,3.079,3.079,0,0,0-.3,1.3,3.553,3.553,0,0,0,.2,1c.1.3.3.4.6.5.2,0,.4-.2.6-.3a2.384,2.384,0,0,0,.6-1.1h-.8a.265.265,0,0,1-.3-.3v-.1C156.4,272.3,156.5,272.2,156.6,272.2Z"/><path class="r" d="M160.5,269.9h0c0,.3.3,1.7.8,4.4v.2c0,.1-.1.1-.2.1h0a.215.215,0,0,1-.2-.2l-.3-1.4h-1.4l-.7,1.4h0c-.1.1-.1.1-.2.1h-.1c-.1,0-.1-.1-.1-.2v-.1a1.69,1.69,0,0,1,.2-.5q1.5-3.3,1.8-3.9a.215.215,0,0,1,.2-.2C160.4,269.8,160.5,269.8,160.5,269.9Zm-.3,1-.8,1.6h1.1Z"/><path class="r" d="M164.4,274.6h-2.2a.367.367,0,0,1-.1-.3h0c0-.1.3-1.5.6-4.3,0-.2.1-.3.2-.3h.1c.1,0,.1.1.1.2,0,.2-.1.6-.1,1.2-.2,1.8-.4,2.8-.4,2.9h1.9a.215.215,0,0,1,.2.2v.1Q164.55,274.6,164.4,274.6Z"/><path class="r" d="M167.2,269.9h0c0,.3.3,1.7.8,4.4v.2c0,.1-.1.1-.2.1h0a.215.215,0,0,1-.2-.2l-.3-1.4h-1.4l-.7,1.4h0c-.1.1-.1.1-.2.1h-.1c-.1,0-.1-.1-.1-.2v-.1a1.69,1.69,0,0,1,.2-.5q1.5-3.3,1.8-3.9a.215.215,0,0,1,.2-.2C167.1,269.8,167.2,269.8,167.2,269.9Zm-.3,1-.8,1.6h1.1Z"/><path class="r" d="M170.5,272.4l.4,1,.3.9v.1c0,.1-.1.1-.2.1a.215.215,0,0,1-.2-.2v-.1q-.15-.45-.6-1.5l-1.2,1.6c0,.1-.1.1-.2.1h-.1c-.1,0-.1-.1-.1-.2v-.1c0-.1.1-.1.1-.2.4-.5.8-1.1,1.3-1.8,0-.1-.1-.3-.1-.4a15.21,15.21,0,0,0-.7-1.8v-.1c0-.1.1-.1.2-.1a.349.349,0,0,1,.2.1l.7,1.9,1.3-1.9c0-.1.1-.1.2-.1h.1c.1,0,.1.1.1.2v.1Z"/><path class="r" d="M175.7,269.8h.1c.1,0,.1.1.1.2-.4,2.7-.5,4.1-.6,4.4a2.22,2.22,0,0,1-.5,1.1,1.71,1.71,0,0,1-2,.5,1.407,1.407,0,0,1-.7-.6v-.2c0-.1.1-.1.2-.1s.1,0,.2.1a1.149,1.149,0,0,0,1.1.6,1.235,1.235,0,0,0,.8-.4,2.106,2.106,0,0,0,.5-1.3l-.3.3a.952.952,0,0,1-.7.2h-.2a1.555,1.555,0,0,1-.8-.6,3.255,3.255,0,0,1-.4-1.4v-.8a9.219,9.219,0,0,1,.3-1.8v-.1a.215.215,0,0,1,.2-.2h.1c.1,0,.1.1.1.2,0,.3-.1.7-.1,1-.1.5-.1,1-.2,1.4a1.978,1.978,0,0,0,.2,1.1.739.739,0,0,0,.6.5h.1a1.024,1.024,0,0,0,.6-.5,3.337,3.337,0,0,0,.5-1.2l.3-2.4v-.1c.2.1.4,0,.5.1Z"/><path class="e" d="M124.5,272.2c0-3.5.1-6.4.1-6.4s.1,2.9.1,6.4-.1,6.4-.1,6.4S124.5,275.7,124.5,272.2Z"/><path class="c" d="M180.5,272.2c0-3.5.1-6.4.1-6.4s.1,2.9.1,6.4-.1,6.4-.1,6.4S180.5,275.7,180.5,272.2Z"/><path class="e" d="M123.3,272.2c0-3.5.1-6.4.1-6.4s.1,2.9.1,6.4,0,6.4-.1,6.4S123.3,275.7,123.3,272.2Z"/><path class="c" d="M181.7,272.2c0-3.5,0-6.4.1-6.4s.1,2.9.1,6.4-.1,6.4-.1,6.4C181.7,278.5,181.7,275.7,181.7,272.2Z"/><path class="c" d="M140.8,267.9h0l-7.3,5.9v-.1l1,.3,6.2,1.6h0l5.6-2.4,1.6-.6.4-.2h0l-.4.2-1.6.7-5.6,2.4h0l-6.2-1.6-1-.3h0l7.3-5.9h0"/><path class="c" d="M134.2,273.4l.5.3-.5.2-.1.5-.4-.4-.5.1.3-.5-.3-.5.6.1.4-.4Z"/><path class="c" d="M141.2,275.5l.3.2-.3.1-.1.4-.2-.3h-.4l.2-.3-.1-.3.3.1.3-.2Z"/><path class="c" d="M148.7,272.4l.2.4-.5-.2-.3.3v-.4l-.4-.2.4-.2.1-.4.3.3h.4Z"/><path class="c" d="M131.2,267.4l.2.4-.4-.2-.4.3v-.4l-.3-.2.4-.2.1-.4.2.3h.5Z"/><path class="c" d="M141,267.9l.1.3-.2-.1-.3.2V268l-.2-.1.3-.1v-.3l.2.2h.3Z"/><path class="c" d="M135.6,268c2.9-.1,5.3-.2,5.3-.2s-2.4.1-5.3.3-5.3.2-5.3.2S132.7,268.1,135.6,268Z"/><path class="k" d="M127.6,260h70.2a5.978,5.978,0,0,1,0,5.8H127.6A7.308,7.308,0,0,1,127.6,260Z"/><rect class="f" width="38" height="2.1" transform="translate(145.3 261.7)"/><path class="c" d="M195.5,265.1a4.552,4.552,0,0,0,.5-2,5.022,5.022,0,0,0-.2-2.1,6.889,6.889,0,0,0-.3-.8,2.01,2.01,0,0,1,.4.8,4.8,4.8,0,0,1-.4,4.2,1.345,1.345,0,0,1-.6.7A1.818,1.818,0,0,0,195.5,265.1Z"/><path class="e" d="M194,265.1a4.552,4.552,0,0,0,.5-2,5.022,5.022,0,0,0-.2-2.1,6.889,6.889,0,0,0-.3-.8,2.01,2.01,0,0,1,.4.8,4.8,4.8,0,0,1-.4,4.2,1.345,1.345,0,0,1-.6.7C193.6,265.9,193.8,265.6,194,265.1Z"/><path class="e" d="M130.3,262.9a5,5,0,0,1,.7-2.9,13.52,13.52,0,0,0-.5,2.9,9.818,9.818,0,0,0,.5,2.9A5.918,5.918,0,0,1,130.3,262.9Z"/><path class="e" d="M131.9,263a6.632,6.632,0,0,1,.5-2.8c.1,0-.2,1.3-.2,2.8s.3,2.8.2,2.8A5.568,5.568,0,0,1,131.9,263Z"/><path class="k" d="M116.6,241h70.2a5.978,5.978,0,0,1,0,5.8H116.6A6.567,6.567,0,0,1,116.6,241Z"/><rect class="f" width="38" height="2.1" transform="translate(134.2 242.6)"/><path class="c" d="M184.5,246a4.552,4.552,0,0,0,.5-2,5.022,5.022,0,0,0-.2-2.1,6.89,6.89,0,0,0-.3-.8,2.01,2.01,0,0,1,.4.8,4.8,4.8,0,0,1-.4,4.2,1.344,1.344,0,0,1-.6.7A1.555,1.555,0,0,0,184.5,246Z"/><path class="e" d="M183,246.1a4.552,4.552,0,0,0,.5-2,5.022,5.022,0,0,0-.2-2.1,6.89,6.89,0,0,0-.3-.8,2.01,2.01,0,0,1,.4.8,4.8,4.8,0,0,1-.4,4.2,1.344,1.344,0,0,1-.6.7C182.5,246.8,182.7,246.5,183,246.1Z"/><path class="e" d="M119.3,243.9a5,5,0,0,1,.7-2.9,13.52,13.52,0,0,0-.5,2.9,9.818,9.818,0,0,0,.5,2.9A5,5,0,0,1,119.3,243.9Z"/><path class="e" d="M120.9,243.9a6.632,6.632,0,0,1,.5-2.8c.1,0-.2,1.3-.2,2.8s.3,2.8.2,2.8A5.385,5.385,0,0,1,120.9,243.9Z"/><rect class="k" width="53.6" height="38.2" transform="translate(44.5 159.8)"/><path class="d" d="M71.1,165.4c14.9,0,27,.1,27,.2s-12.1.2-27,.2-27-.1-27-.2C44.1,165.4,56.2,165.4,71.1,165.4Z"/><path class="d" d="M94.3,162.1a.641.641,0,0,1,.8.6.9.9,0,0,1-.6.6.641.641,0,0,1-.8-.6A.9.9,0,0,1,94.3,162.1Z"/><path class="d" d="M91.7,162.1a.641.641,0,0,1,.8.6.9.9,0,0,1-.6.6.641.641,0,0,1-.8-.6C91.1,162.4,91.4,162.2,91.7,162.1Z"/><path class="d" d="M89.2,162.1h.1c.4.1.7.4.6.8s-.4.7-.8.6-.7-.4-.6-.8C88.5,162.3,88.8,162.1,89.2,162.1Z"/><path class="g" d="M179.3,221.2h-2.1s.8-12.6,2-12.6-.3,12.6-.3,12.6"/><path class="o" d="M175.1,221.2H173s.8-12.6,2-12.6-.3,12.6-.3,12.6"/><path class="o" d="M168.9,221.2h-2.1s.8-12.6,2-12.6-.3,12.6-.3,12.6"/><path class="g" d="M172.5,221.9l-2.1.3s-.8-12.6.4-12.7,1.3,12.5,1.3,12.5"/><path class="g" d="M176.4,221.2h-2.1s.8-12.6,2-12.6-.3,12.6-.3,12.6"/><path class="g" d="M164.4,240.3V221.2h16.8l-2.1,19.6Z"/><rect class="k" width="59.2" height="42.2" transform="translate(400.5 54.8)"/><path class="d" d="M429.9,60.8c16.5,0,29.9.1,29.9.3s-13.4.3-29.9.3-29.9-.1-29.9-.3C400.1,60.9,413.4,60.8,429.9,60.8Z"/><path class="d" d="M455,58a.773.773,0,0,1,.8-.7h.1c.4.1.8.5.7.9s-.5.8-.9.7-.8-.5-.7-.9Z"/><path class="d" d="M452.6,57.3a.707.707,0,0,1,.2,1.4h0a.773.773,0,0,1-.8-.7A.669.669,0,0,1,452.6,57.3Z"/><ellipse class="d" cx="0.8" cy="0.7" rx="0.8" ry="0.7" transform="translate(449.1 57.3)"/><path class="d" d="M413.8,84.4h6.9v2.1h-9.6V71.3h2.6V84.4Z"/><path class="d" d="M425.1,71.3,429.5,83l4.4-11.7h3.4V86.5h-2.6v-5l.3-6.7-4.5,11.7h-1.9L424,74.8l.3,6.7v5h-2.6V71.3Z"/><path class="d" d="M447.3,82.6a1.865,1.865,0,0,0-.7-1.6,8.6,8.6,0,0,0-2.5-1.1,17,17,0,0,1-2.9-1.2,3.923,3.923,0,0,1-2.1-3.4,3.694,3.694,0,0,1,1.5-3,6.895,6.895,0,0,1,6.7-.6,4.7,4.7,0,0,1,2,1.7,3.986,3.986,0,0,1,.7,2.4h-2.6a2.56,2.56,0,0,0-.8-1.9,2.817,2.817,0,0,0-2.1-.7,2.986,2.986,0,0,0-2,.6,1.865,1.865,0,0,0-.7,1.6,1.723,1.723,0,0,0,.8,1.4,9.509,9.509,0,0,0,2.6,1.1,21.329,21.329,0,0,1,2.9,1.2,4.094,4.094,0,0,1,1.6,1.6,4.649,4.649,0,0,1,.5,2.1,3.442,3.442,0,0,1-1.5,3,6.778,6.778,0,0,1-4,1.1,7.306,7.306,0,0,1-3-.6,6.2,6.2,0,0,1-2.2-1.7,4.376,4.376,0,0,1-.8-2.5h2.6a2.384,2.384,0,0,0,.9,2,3.727,3.727,0,0,0,2.5.7,3.281,3.281,0,0,0,2.1-.6A3.021,3.021,0,0,0,447.3,82.6Z"/><line class="w" x2="79" transform="translate(170.5 176.6)"/><path class="x" d="M170.5,176.6l9.9-.1,9.9-.1,19.7-.1,19.8.1,9.9.1,9.8.1-9.8.2-9.9.1L210,177l-19.7-.1-9.9-.1Z"/><line class="w" x2="79" transform="translate(170.5 184.3)"/><path class="x" d="M170.5,184.3l9.9-.2,9.9-.1,19.7-.1,19.8.1,9.9.1,9.8.2-9.8.2-9.9.1-19.8.1-19.7-.1-9.9-.1Z"/><line class="w" x2="79" transform="translate(169.4 192)"/><path class="x" d="M169.4,192l9.8-.2,9.9-.1,19.8-.1,19.7.1,9.9.1,9.9.2-9.9.1-9.9.1-19.7.1-19.8-.1-9.9-.1Z"/><rect class="i" width="91.1" height="29.7" transform="translate(253.825 198.577) rotate(180)"/><path class="o" d="M277.8,312.5a12.434,12.434,0,0,0-9.9,3.5,19.868,19.868,0,0,0-5,9.5,49.074,49.074,0,0,0-1.3,10.8,101.11,101.11,0,0,0,.4,11,80.235,80.235,0,0,1-.8-11,49.206,49.206,0,0,1,1.2-10.9c1-3.5,2.5-7.1,5.2-9.6a13.354,13.354,0,0,1,4.7-2.8A11.509,11.509,0,0,1,277.8,312.5Z"/><path class="q" d="M297.4,354.3c-.1.4,57.3,12.4,49.8-30.6l-3.9-8.7-60.9-8-35.3,3,41.4,7.5C288.5,317.6,300.3,325.9,297.4,354.3Z"/><path class="d" d="M329,315.1a12.54,12.54,0,0,0-2.4-1.6,12.273,12.273,0,0,0-2.6-1.2,17.961,17.961,0,0,0-5.7-1,39.838,39.838,0,0,0-5.8.7c-1.9.3-3.9.6-5.8.8l5.7-1.2a36.817,36.817,0,0,1,5.8-.8,16.157,16.157,0,0,1,5.8,1.1A13.459,13.459,0,0,1,329,315.1Z"/><path class="y" d="M307,311.1"/><path class="d" d="M327.1,320.9a20.135,20.135,0,0,0-2.2-2.9,15.458,15.458,0,0,0-2.7-2.4,19.234,19.234,0,0,0-3.1-1.8,23.01,23.01,0,0,0-3.4-1.2l1.8.3a12.663,12.663,0,0,1,1.8.6,12.886,12.886,0,0,1,3.3,1.7,16.023,16.023,0,0,1,2.7,2.5A12.564,12.564,0,0,1,327.1,320.9Z"/><path class="o" d="M288.5,164.5a38.093,38.093,0,0,1,2.7-6.6,23.857,23.857,0,0,1,4.2-5.8,25.592,25.592,0,0,1,5.9-4,22.566,22.566,0,0,1,3.3-1.3,6.951,6.951,0,0,1,3.5-.2,8.212,8.212,0,0,0-3.5.3,22.563,22.563,0,0,0-3.3,1.3,26.428,26.428,0,0,0-5.8,4.1,24.4,24.4,0,0,0-4.3,5.7C290.2,160.1,289.3,162.3,288.5,164.5Z"/></g></svg>