<svg xmlns="http://www.w3.org/2000/svg" xmlns:xlink="http://www.w3.org/1999/xlink" width="463" height="416" viewBox="0 0 463 416"><defs><style>.a{fill:#e0e0e0;}.b{fill:#f5f5f5;}.c{fill:#06826a;}.d{opacity:0.15;}.e,.n{fill:#fff;}.f{fill:#37474f;}.g,.m{fill:#263238;}.h,.o{fill:#455a64;}.i,.s{fill:#ff3600;}.j{fill:#ffe1b6;}.j,.l,.m,.n,.o,.r,.s,.w,.y{stroke:#263238;}.j,.l,.m,.n,.o,.p,.r,.s,.w,.y{stroke-linecap:round;stroke-linejoin:round;}.k{opacity:0.25;}.l,.p,.y{fill:none;}.p{stroke:#fff;}.q{clip-path:url(#a);}.r{fill:#949494;}.t{clip-path:url(#b);}.u{clip-path:url(#c);}.v{clip-path:url(#d);}.w{fill:#d9d9d9;}.x{clip-path:url(#e);}.y{stroke-width:2px;}.z{clip-path:url(#f);}.aa{fill:#520000;}.ab{fill:#8c1b09;}.ac{fill:#ce2b05;}.ad{fill:#b72508;}.ae{fill:#e5250c;}</style><clipPath id="a"><path d="M168.3,209l-1.7-6-48.4,9.2-.4,2.5a55.833,55.833,0,0,0,24.4,1.5A131.148,131.148,0,0,0,168.3,209Z" transform="translate(-117.8 -203)"/></clipPath><clipPath id="b"><path d="M150.1,121.1s1.7-4,3.5-2c1.9,2.1.7,6-.7,7.8-1.3,1.7-2.2.6-2.8-1.4A8.216,8.216,0,0,1,150.1,121.1Z" transform="translate(-149.8 -118.54)"/></clipPath><clipPath id="c"><path d="M125.7,122.1s-2.3-3.7-3.8-1.4.3,6.2,1.9,7.6c1.5,1.4,2.3.2,2.6-1.9A10.247,10.247,0,0,0,125.7,122.1Z" transform="translate(-121.338 -119.947)"/></clipPath><clipPath id="d"><path d="M131.8,136.7s6.4,16.6,9.8,15.4,4.4-15.9,4.4-15.9S135.5,138.4,131.8,136.7Z" transform="translate(-131.8 -136.2)"/></clipPath><clipPath id="e"><path d="M124.5,114.7s0,10.9,1,15.8,6,10,13.7,9.7,11.6-11.1,11.7-11.8,1-13.9-1.3-19.1-7.5-10.4-15.7-7.7C125.7,104.6,124.1,111.9,124.5,114.7Z" transform="translate(-124.444 -100.862)"/></clipPath><clipPath id="f"><path d="M382.5,315.1l-14.2-6.8a8.636,8.636,0,0,1-1.6-1l14.2,6.8A8.637,8.637,0,0,0,382.5,315.1Z" transform="translate(-366.7 -307.3)"/></clipPath></defs><g transform="translate(-18.3 -51)"><g transform="translate(329.2 51.095)"><path class="a" d="M338.6,68.5,333,70l-3.8-13.6,5.6-1.5Z" transform="translate(-329.2 -51.095)"/><path class="a" d="M356.1,57.6a2.418,2.418,0,0,1,2.5,1.5,1.962,1.962,0,0,1-1,2.3,3,3,0,0,1,1,.4,2.123,2.123,0,0,1,.5,3,2.43,2.43,0,0,1-1.4.9l-7.9,2.1a9.847,9.847,0,0,1,1.2,3.4,11.328,11.328,0,0,1-.1,2.6,2.7,2.7,0,0,1-.5,1.1c-1,1.4-3.2,1.9-3.3,1.3-.2-.6-.7-3.9-1.2-4.6a63.052,63.052,0,0,0-5.4-4.2h0L337,54.7l12.9-3.5c1.8-.4,3.2.4,3.5,1.4a4.329,4.329,0,0,1,.1,1.6,2.626,2.626,0,0,1,2.7,1.3A7.414,7.414,0,0,1,356.1,57.6Z" transform="translate(-329.2 -51.095)"/></g><g transform="translate(427.023 195.167)"><path class="a" d="M457.7,199.3l7.2,1.7-4.2,17.4-7.2-1.8Z" transform="translate(-427.023 -195.26)"/><path class="a" d="M430.9,201.2a3.438,3.438,0,0,1,3.4-1.9,7.387,7.387,0,0,1,0-2.1c.3-1.4,2.1-2.3,4.3-1.8l16.5,4-3.9,16.1h0s-5.9,4.7-6.6,5.5-1.2,5-1.4,5.8-2.9.3-4.3-1.5a3.48,3.48,0,0,1-.7-1.5,17.328,17.328,0,0,1-.3-3.2,10.318,10.318,0,0,1,1.4-4.4l-9.9-2.4a2.891,2.891,0,0,1-1.8-1.1,2.75,2.75,0,0,1-.5-2.3,2.788,2.788,0,0,1,2.2-2.1,2.5,2.5,0,0,1-1.4-2.9,2.916,2.916,0,0,1,3-2A4.09,4.09,0,0,1,430.9,201.2Z" transform="translate(-427.023 -195.26)"/></g><g transform="translate(32.831 168.722)"><path class="a" d="M63.5,190.1l7.8-2.4-5.6-18.9-7.9,2.4Z" transform="translate(-32.831 -168.8)"/><path class="a" d="M34.7,190a3.169,3.169,0,0,0-1.8,3.6,2.916,2.916,0,0,0,3,2,2.73,2.73,0,0,0-.9,1.2,3.174,3.174,0,0,0,4,4.1l10.8-3.3a11.032,11.032,0,0,0,1.1,5,16.1,16.1,0,0,0,2.1,3,3.956,3.956,0,0,0,1.5,1c2.3,1,5.2-.2,5-.9-.2-.8-2-5.1-1.9-6.3s3.2-9,3.2-9h0l-5.3-17.6-18,5.4c-2.3.7-3.6,2.6-3.1,4.1a5.64,5.64,0,0,0,1.1,2,3.768,3.768,0,0,0-2.2,3.7A3.524,3.524,0,0,0,34.7,190Z" transform="translate(-32.831 -168.8)"/></g><g transform="translate(18.3 199.7)"><path class="b" d="M86.1,428.1c-90.4-52.2-90.4-136.8,0-189s237-52.2,327.4,0,90.4,136.8,0,189S176.5,480.3,86.1,428.1Z" transform="translate(-18.3 -199.95)"/></g><g transform="translate(65.6 233.409)"><ellipse class="a" cx="93.6" cy="41" rx="93.6" ry="41" transform="translate(0 114.941)"/><ellipse class="a" cx="101.3" cy="50.4" rx="101.3" ry="50.4" transform="translate(120.013 96.174) rotate(-28.341)"/></g><g transform="translate(56.389 260.255)"><g transform="translate(339.211)"><path class="c" d="M403.9,303.8c9.9-11.7,25.3-19.4,42.6-23.9,17.1-4.5,20.2-15,8.9-18.4-12.9-3.9-28.9,3.2-39.3,13.1-18,17.3-20.3,30.5-20.3,30.5Z" transform="translate(-395.6 -260.412)"/><path class="d" d="M403.9,303.8c9.9-11.7,25.3-19.4,42.6-23.9,17.1-4.5,20.2-15,8.9-18.4-12.9-3.9-28.9,3.2-39.3,13.1-18,17.3-20.3,30.5-20.3,30.5Z" transform="translate(-395.6 -260.412)"/><path class="e" d="M398.8,303.1h-.2a.482.482,0,0,1-.2-.7h0c14.6-30,47-37.4,54.8-36.8a.5.5,0,0,1,0,1c-7.7-.6-39.5,6.7-53.9,36.3C399.1,303,399,303.1,398.8,303.1Z" transform="translate(-395.6 -260.412)"/><path class="c" d="M395.7,306.9a2.689,2.689,0,0,0,2.7,2.7,2.3,2.3,0,0,0,1.4-.4c9.2-5.3,22.5-8.3,44.1-2.1,11.5,3.3,17.2,1.1,19.6-3.6,2.7-5.2-3-10.2-9.5-12.6-22.1-8.1-42.1-2.6-58.4,13.6Z" transform="translate(-395.6 -260.412)"/><path class="e" d="M397,307.4a.758.758,0,0,1-.4-.2.483.483,0,0,1,0-.7c19.1-17.1,48.7-13.8,59.9-7.1a.515.515,0,1,1-.5.9c-11-6.5-40-9.8-58.7,7C397.2,307.3,397.1,307.4,397,307.4Z" transform="translate(-395.6 -260.412)"/></g><g transform="translate(0 29.823)"><path class="c" d="M116.1,338.7c-8.4-12.8-22.8-22.2-39.5-28.8-16.5-6.4-18.3-17.3-6.6-19.3,13.2-2.3,28.4,6.6,37.5,17.7,15.9,19.3,16.6,32.7,16.6,32.7Z" transform="translate(-56.389 -290.235)"/><path class="d" d="M116.1,338.7c-8.4-12.8-22.8-22.2-39.5-28.8-16.5-6.4-18.3-17.3-6.6-19.3,13.2-2.3,28.4,6.6,37.5,17.7,15.9,19.3,16.6,32.7,16.6,32.7Z" transform="translate(-56.389 -290.235)"/><path class="e" d="M121.2,338.7h.2a.446.446,0,0,0,.3-.6c-11-31.5-42.2-42.7-50.1-43a.5.5,0,0,0,0,1c7.7.3,38.4,11.3,49.2,42.4A.52.52,0,0,0,121.2,338.7Z" transform="translate(-56.389 -290.235)"/><path class="c" d="M124.1,340.4a4.229,4.229,0,0,1-4.6,3.7,4.383,4.383,0,0,1-1.9-.7c-8.5-5.7-21.1-9.4-41.8-6-11.8,1.9-17.2-1-19-5.9-2.1-5.5,4.2-9.8,10.9-11.4,23-5.4,42.2,2.5,56.4,20.3Z" transform="translate(-56.389 -290.235)"/><path class="e" d="M122.5,343.1a.6.6,0,0,0,.4-.1.483.483,0,0,0,0-.7c-17-19.2-46.8-19.4-58.7-14.1a.539.539,0,1,0,.4,1c11.7-5.2,40.9-5,57.5,13.9C122.2,343,122.4,343.1,122.5,343.1Z" transform="translate(-56.389 -290.235)"/></g></g><g transform="translate(187.425 99.521)"><path class="f" d="M380.6,126.7h0l-.2-.1h0l-38.1-21.9h0l-.2-.1h0c-17.8-9-41.6-6.3-67.1,10.2-51.3,33.2-90.5,109.6-87.4,170.7,1.5,30.4,13.3,51.3,31,60.5h0l.1.1h0l38.1,22h0l.2.1h0c17.8,9,41.6,6.3,67.2-10.2,51.3-33.2,90.5-109.6,87.4-170.7C410.1,156.7,398.4,135.9,380.6,126.7Z" transform="translate(-187.425 -99.521)"/><path class="g" d="M255.6,367.3,218.8,346h0l-.2-.1c-17.7-9.2-29.5-30.1-31-60.5-1.4-27.2,5.7-57.5,18.4-85.6l.3-.6,37.9,22.6c-12.8,28.1-19.8,58.4-18.4,85.6C227.2,337.2,238.5,357.8,255.6,367.3Z" transform="translate(-187.425 -99.521)"/><path class="h" d="M324.3,357.8c51.3-33.2,90.5-109.6,87.4-170.7s-47.2-83.6-98.5-50.4-90.5,109.6-87.4,170.7S272.9,391,324.3,357.8Z" transform="translate(-187.425 -99.521)"/></g><g transform="translate(178.261 51)"><ellipse class="i" cx="37" cy="32.4" rx="37" ry="32.4" transform="translate(3.339)"/><path class="i" d="M189,102.2c-.2,4.3-3.9,12.1-10.5,15a.481.481,0,0,0-.2.6l.3.3a19.937,19.937,0,0,0,20.5-7.8Z" transform="translate(-178.261 -51)"/></g><g transform="translate(90.157 93.445)"><g transform="translate(65.843 61.455)"><path class="j" d="M196.2,180.1c-.2-1.5-7-15-12.4-25.2a19.045,19.045,0,0,1-12.4,4.8c-.8,0-1.5-.1-2.2-.1,2.5,5.4,10.6,23,11.5,23.5-2,7.6-2.5,5.2-3.6,12.9-1.1,9.7-2.5,10.7-4.1,16.1a36,36,0,0,1-3.7,7s-8.4-.5-10,1.1A14.6,14.6,0,0,0,156,229c0,3.2,6,5.7,7.3,6.2s7.3-2.4,10.5-6.2c5.1-5.9,8.3-14.6,11.6-21.6,4.3-9,6.6-11.9,8.2-16.8C195.2,185.6,196.5,182.5,196.2,180.1Z" transform="translate(-156 -154.9)"/><path class="k" d="M196.3,180c-.2-1.4-6.5-13.9-12.5-25.1a21.265,21.265,0,0,1-4.7,3.1c6.2,9.8,13.1,20.9,13.1,23.4,0,4.1.5-.6-4.8,13.1-5.1,13.7-13.6,34.4-13.6,34.4,5.1-5.9,8.3-14.6,11.6-21.6,4.3-9,6.6-11.7,8.2-16.8C195.2,185.5,196.6,182.4,196.3,180Z" transform="translate(-156 -154.9)"/></g><g transform="translate(0 61.455)"><path class="j" d="M90.3,180.1c.2-1.5,7-15,12.4-25.2a19.046,19.046,0,0,0,12.4,4.8c.8,0-1-.8-.3-.9-2.5,5.4-8.1,23.8-9,24.3,2,7.6,2.5,5.2,3.6,12.9,1.1,9.7,2.5,10.7,4.1,16.1a36,36,0,0,0,3.7,7s8.4-.5,10,1.1a14.6,14.6,0,0,1,3.3,8.8c0,3.2-6,5.7-7.3,6.2s-7.3-2.4-10.5-6.2c-5.1-5.9-8.3-14.6-11.6-21.6-4.3-9-6.6-11.9-8.2-16.8C91.3,185.6,90,182.5,90.3,180.1Z" transform="translate(-90.157 -154.9)"/><path class="k" d="M90.2,180c.2-1.4,6.5-13.9,12.5-25.1a21.266,21.266,0,0,0,4.7,3.1c-6.2,9.8-13.1,20.9-13.1,23.4,0,4.1-.5-.6,4.8,13.1,5.1,13.7,13.6,34.4,13.6,34.4-5.1-5.9-8.3-14.6-11.6-21.6-4.3-9-6.6-11.7-8.2-16.8C91.2,185.5,89.9,182.4,90.2,180Z" transform="translate(-90.157 -154.9)"/></g><path class="l" d="M117.6,218.9a16.918,16.918,0,0,1,0,5.5" transform="translate(-90.157 -93.445)"/><path class="l" d="M118.6,218.6a4.9,4.9,0,0,1,1.8,4.5" transform="translate(-90.157 -93.445)"/><path class="l" d="M167,225.5s-5.1-8.2-2.1-7.7c3,.4,5,4.3,5,4.3" transform="translate(-90.157 -93.445)"/><path class="l" d="M166.9,211.2a30.3,30.3,0,0,0-1.2,4.3c-.1,1.4-1.8,2.2-1.8,2.2s-1.4-2.7-2.7-2.3-1.6,2.8-1.6,2.8l1.4-.1" transform="translate(-90.157 -93.445)"/><path class="l" d="M158.7,222.6s5.4-.5,5.1-4.7" transform="translate(-90.157 -93.445)"/><path class="l" d="M159.9,225.3s4-.5,5.2-3.5" transform="translate(-90.157 -93.445)"/><path class="l" d="M162,227.1s3.6-.3,4.3-2.4" transform="translate(-90.157 -93.445)"/><path class="e" d="M129.4,365.4c.4-.5,2-2.6,4-5.3a17.538,17.538,0,0,1-7.2-7.8c-3.7,8.2-7.1,15.8-7.1,15.8s-9.4,8.8-13.5,12-9,4.1-7.6,7.7c1.3,3.6,8.2,1.5,13.2.6,4.8-.9,6.6-4.9,9.4-5.1,2.6-.3,7.2,2,8.6-4.9S128,367,129.4,365.4Z" transform="translate(-90.157 -93.445)"/><path class="l" d="M129.4,365.4c.4-.5,2-2.6,4-5.3a17.538,17.538,0,0,1-7.2-7.8c-3.7,8.2-7.1,15.8-7.1,15.8s-9.4,8.8-13.5,12-9,4.1-7.6,7.7c1.3,3.6,8.2,1.5,13.2.6,4.8-.9,6.6-4.9,9.4-5.1,2.6-.3,7.2,2,8.6-4.9S128,367,129.4,365.4Z" transform="translate(-90.157 -93.445)"/><path class="m" d="M97.9,387.7c1.3,3.6,8.2,1.5,13.2.6,4.8-.9,6.6-4.9,9.4-5.1,2.6-.3,7.2,2,8.6-4.9,1.3-6.1-.6-10.4-.1-12.3a9.8,9.8,0,0,1-4.8,3.7c-4.3,1.8-5.1-1.7-5.1-1.7s-9.4,8.8-13.5,12S96.5,384.2,97.9,387.7Z" transform="translate(-90.157 -93.445)"/><path class="n" d="M129,378.5a28.51,28.51,0,0,1-5,1.4c-5.1.7-7.3,4.1-15,7a13.521,13.521,0,0,1-11.3-.5,2.953,2.953,0,0,0,.2,1.3c1.3,3.6,8.2,1.5,13.2.6,4.8-.9,6.6-4.9,9.4-5.1C123,382.9,127.5,385.3,129,378.5Z" transform="translate(-90.157 -93.445)"/><path class="e" d="M169,362.4c-.4-.5-2-2.6-4-5.3a17.538,17.538,0,0,0,7.2-7.8c3.7,8.2,7.1,15.8,7.1,15.8s9.4,8.8,13.5,12,9,4.1,7.6,7.7c-1.3,3.6-8.2,1.5-13.2.6-4.8-.9-6.6-4.9-9.4-5.1-2.6-.3-7.2,2-8.6-4.9S170.4,363.9,169,362.4Z" transform="translate(-90.157 -93.445)"/><path class="l" d="M169,362.4c-.4-.5-2-2.6-4-5.3a17.538,17.538,0,0,0,7.2-7.8c3.7,8.2,7.1,15.8,7.1,15.8s9.4,8.8,13.5,12,9,4.1,7.6,7.7c-1.3,3.6-8.2,1.5-13.2.6-4.8-.9-6.6-4.9-9.4-5.1-2.6-.3-7.2,2-8.6-4.9S170.4,363.9,169,362.4Z" transform="translate(-90.157 -93.445)"/><path class="m" d="M192.9,377c-4.1-3.2-13.5-12-13.5-12s-.9,3.4-5.1,1.7a9.8,9.8,0,0,1-4.8-3.7c.5,1.9-1.3,6.2-.1,12.3,1.4,6.9,6,4.6,8.6,4.9,2.7.3,4.5,4.2,9.4,5.1s11.8,3,13.2-.6C201.9,381.2,196.9,380.1,192.9,377Z" transform="translate(-90.157 -93.445)"/><path class="n" d="M178,380.1c2.7.3,4.5,4.2,9.4,5.1s11.8,3,13.2-.6a2.953,2.953,0,0,0,.2-1.3,12.823,12.823,0,0,1-11.3.5c-7.8-2.8-10-6.3-15-7a28.51,28.51,0,0,1-5-1.4C170.9,382.2,175.4,379.8,178,380.1Z" transform="translate(-90.157 -93.445)"/><path class="o" d="M118.1,212.2s-2.1,10.5-2.4,14c-1.6,18-.9,139.1-.9,139.1s-1,.9,6.5,1.4c11.4.7,12.6-.8,12.6-.8s4.4-115.3,10.6-115.3c8,0,19.7,108.9,19.7,108.9a3.788,3.788,0,0,0,2,1.6c4.5,2.1,10.1.8,15-1.9.9-.9.3-4.8-.5-6.6,0,0-1-97.8-11-138.5-.7-2.8-3.2-11-3.2-11Z" transform="translate(-90.157 -93.445)"/><line class="p" x2="11.3" y2="10.8" transform="translate(28.543 138.055)"/><line class="p" x2="1.9" y2="1.3" transform="translate(42.243 152.355)"/><line class="p" x2="11.4" y2="8.4" transform="translate(28.743 142.355)"/><line class="p" x1="5.4" y2="10.2" transform="translate(75.143 135.455)"/><path class="e" d="M168.3,209l-1.7-6-48.4,9.2-.4,2.5a55.833,55.833,0,0,0,24.4,1.5A131.148,131.148,0,0,0,168.3,209Z" transform="translate(-90.157 -93.445)"/><g transform="translate(27.643 109.555)"><g class="q"><path class="r" d="M168.3,209l-1.7-6-48.4,9.2-.4,2.5a55.833,55.833,0,0,0,24.4,1.5A131.148,131.148,0,0,0,168.3,209Z" transform="translate(-117.8 -203)"/></g></g><path class="l" d="M168.3,209l-1.7-6-48.4,9.2-.4,2.5a55.833,55.833,0,0,0,24.4,1.5A131.148,131.148,0,0,0,168.3,209Z" transform="translate(-90.157 -93.445)"/><path class="s" d="M142.1,220.8a82.023,82.023,0,0,0,29.3-7.2s-2.1-23.2-2.1-25.1c0-1.5-1.4-19-1.3-30l4.2,12.9c3.6-.5,11.5-3.8,18.2-7.7a126.756,126.756,0,0,0-15.6-21.6c-2.3-2.5-15.2-4.8-25.6-4-1.7-.2-3.7-5-4.6-5-1.9,0-15.5,7-15.5,7-2.5-1-18.7,2.1-21.2,4.2-3.1,2.5-13.4,23-13.4,23,3.2,2.5,11.5,7.8,17.2,7.7.4,0,4.2-15.6,4.2-15.6s-.1,17.3,1.2,25.4-2.5,30.4-2.5,30.4S128.1,222.3,142.1,220.8Z" transform="translate(-90.157 -93.445)"/><path class="m" d="M124.5,122.5s-1.3-3-4.1-9c-2.9-6.1.4-16.1,12.6-19.3s19.4,4.5,20.8,9.5-.4,10.3-1.5,13.1a18.713,18.713,0,0,0-1.3,5.3,7.957,7.957,0,0,0-2.1-2c-1.6-1.3-3.8-14.4-7.7-15.7-3.8-1.2-12.2.5-13.3,6.6C126.9,117,126.3,126.3,124.5,122.5Z" transform="translate(-90.157 -93.445)"/><path class="e" d="M150.1,121.1s1.7-4,3.5-2c1.9,2.1.7,6-.7,7.8-1.3,1.7-2.2.6-2.8-1.4A8.216,8.216,0,0,1,150.1,121.1Z" transform="translate(-90.157 -93.445)"/><g transform="translate(59.643 25.095)"><g class="t"><path class="j" d="M150.1,121.1s1.7-4,3.5-2c1.9,2.1.7,6-.7,7.8-1.3,1.7-2.2.6-2.8-1.4A8.216,8.216,0,0,1,150.1,121.1Z" transform="translate(-149.8 -118.54)"/></g></g><path class="l" d="M150.1,121.1s1.7-4,3.5-2c1.9,2.1.7,6-.7,7.8-1.3,1.7-2.2.6-2.8-1.4A8.216,8.216,0,0,1,150.1,121.1Z" transform="translate(-90.157 -93.445)"/><path class="e" d="M125.7,122.1s-2.3-3.7-3.8-1.4.3,6.2,1.9,7.6c1.5,1.4,2.3.2,2.6-1.9A10.247,10.247,0,0,0,125.7,122.1Z" transform="translate(-90.157 -93.445)"/><g transform="translate(31.181 26.502)"><g class="u"><path class="j" d="M125.7,122.1s-2.3-3.7-3.8-1.4.3,6.2,1.9,7.6c1.5,1.4,2.3.2,2.6-1.9A10.247,10.247,0,0,0,125.7,122.1Z" transform="translate(-121.338 -119.947)"/></g></g><path class="l" d="M125.7,122.1s-2.3-3.7-3.8-1.4.3,6.2,1.9,7.6c1.5,1.4,2.3.2,2.6-1.9A10.247,10.247,0,0,0,125.7,122.1Z" transform="translate(-90.157 -93.445)"/><path class="n" d="M128.6,134.2a52.981,52.981,0,0,0,.7,10.5,78.279,78.279,0,0,0,2.2,9.3l8.8-8.3,11,5.9s1.7-11.2-1.7-16.1-14.7-5.4-17.6-3.6A10.768,10.768,0,0,0,128.6,134.2Z" transform="translate(-90.157 -93.445)"/><path class="e" d="M131.8,136.7s6.4,16.6,9.8,15.4,4.4-15.9,4.4-15.9S135.5,138.4,131.8,136.7Z" transform="translate(-90.157 -93.445)"/><g transform="translate(41.643 42.755)"><g class="v"><path class="w" d="M131.8,136.7s6.4,16.6,9.8,15.4,4.4-15.9,4.4-15.9S135.5,138.4,131.8,136.7Z" transform="translate(-131.8 -136.2)"/><path class="k" d="M131.8,136.7s6.4,16.6,9.8,15.4,4.4-15.9,4.4-15.9S135.5,138.4,131.8,136.7Z" transform="translate(-131.8 -136.2)"/></g></g><path class="l" d="M131.8,136.7s6.4,16.6,9.8,15.4,4.4-15.9,4.4-15.9S135.5,138.4,131.8,136.7Z" transform="translate(-90.157 -93.445)"/><path class="e" d="M124.5,116.6s.6,10.9,1.8,15.7c1.2,4.9,6.3,8.5,13.9,7.7,7.7-.8,10.9-10.5,11-11.2,0-.7.7-13.8-2-18.9-2.6-5.1-8.3-9.1-16.3-6C124.9,107.3,123.9,113.9,124.5,116.6Z" transform="translate(-90.157 -93.445)"/><g transform="translate(34.287 7.417)"><g class="x"><path class="j" d="M124.4,115.3s0,10.9,1,15.8,6,10,13.7,9.7c7.7-.4,11.6-11.1,11.7-11.8s1-13.9-1.3-19.1-7.5-8.6-15.5-6.3C125.6,106,124,112.6,124.4,115.3Z" transform="translate(-124.444 -100.862)"/><path class="k" d="M152.5,131c.1-.7,1-14.5-1.5-19.9a31.358,31.358,0,0,0-1.8-3.1c.4,3.2,2.5,20.8-1.3,26.3-4.1,6.1-11.7,5.8-18.3,1.7-4.9-3.1-4.8-17.9-4.4-25.3a10.573,10.573,0,0,0-1.1,6s.1,11.4,1.1,16.5c1.1,5.2,6.5,10.5,14.8,10.1S152.5,131.7,152.5,131Z" transform="translate(-124.444 -100.862)"/></g></g><path class="l" d="M124.2,115.4s.6,10.9,1.8,15.7c1.2,4.9,6.6,9.7,14.2,8.9,7.7-.8,11-11.7,11-12.4s.3-13.9-2.3-19-8-10-16-6.8C124.9,105.2,123.6,112.7,124.2,115.4Z" transform="translate(-90.157 -93.445)"/><path class="n" d="M145.7,129.9a12.813,12.813,0,0,0-12.4,3c-1.1-.4,1.7-4.3,5.8-5.1C142,127.3,145.2,128.1,145.7,129.9Z" transform="translate(-90.157 -93.445)"/><path class="l" d="M136.7,119.3s-1.3,2.2-.4,2.9c.8.6,3.8.5,5.1-1.2s-1.2-3-1.2-3" transform="translate(-90.157 -93.445)"/><path class="l" d="M128.9,117.6s.7-2.4,4.6-2.4" transform="translate(-90.157 -93.445)"/><path class="l" d="M140.3,114.3a4.432,4.432,0,0,1,5.7-.7" transform="translate(-90.157 -93.445)"/><path class="y" d="M133.5,111.1s-5.5-1.4-6.5,3.6" transform="translate(-90.157 -93.445)"/><path class="y" d="M138.9,110s3.5-3.7,7.6-.8" transform="translate(-90.157 -93.445)"/><ellipse class="g" cx="1" cy="0.5" rx="1" ry="0.5" transform="matrix(0.988, -0.158, 0.158, 0.988, 52.286, 21.22)"/><ellipse class="g" cx="1" cy="0.5" rx="1" ry="0.5" transform="matrix(0.988, -0.158, 0.158, 0.988, 40.986, 23.324)"/></g><g transform="translate(247.849 137.312)"><path class="f" d="M366.3,137.7a10.158,10.158,0,0,1,8.5,1.7l10.5,7.9c6.1,4.6,6.5,15.8.9,25.1l-33.9,55.8,37,27.8c6.1,4.6,6.5,15.8.9,25.1L380.5,297c-3.4,5.5-8.1,9.1-12.7,10.1a10.158,10.158,0,0,1-8.5-1.7l-37-27.8-33.9,55.8c-3.4,5.5-8.1,9.1-12.7,10.1a10.158,10.158,0,0,1-8.5-1.7l-10.5-7.9c-6.1-4.6-6.5-15.8-.9-25.1L289.7,253l-37-27.8c-6.1-4.6-6.5-15.8-.9-25.1l9.7-15.9c3.4-5.5,8.1-9.1,12.7-10.1a9.824,9.824,0,0,1,8.5,1.7l37,27.8,33.9-55.8C356.9,142.3,361.7,138.7,366.3,137.7Z" transform="translate(-247.849 -137.415)"/></g><g transform="translate(259.8 139.191)"><g transform="translate(106.9 168)"><g class="z"><path class="aa" d="M382.5,315.1l-14.2-6.8a8.636,8.636,0,0,1-1.6-1l14.2,6.8a8.637,8.637,0,0,0,1.6,1" transform="translate(-366.7 -307.3)"/></g></g><g transform="translate(69.9 140.1)"><path class="ab" d="M380.9,314.1l-14.2-6.9-37-27.8,14.2,6.8Z" transform="translate(-329.7 -279.4)"/></g><path class="ac" d="M376.4,154.5h0c.2-.3.5-.6.7-.9h0c.2-.3.5-.6.7-.9h0c.2-.3.5-.5.7-.8h0a6.035,6.035,0,0,1,.8-.8h0c.3-.2.5-.5.8-.7h0c.3-.2.5-.4.8-.6h0c.3-.2.5-.4.8-.6h0a3.508,3.508,0,0,1,.8-.5h0c.3-.2.5-.3.8-.5h.1c.2-.1.5-.3.7-.4.1,0,.1-.1.2-.1l.6-.3c.1,0,.2-.1.3-.1s.2-.1.3-.1a6.889,6.889,0,0,0,.8-.3c.1,0,.2-.1.3-.1.4-.1.7-.2,1.1-.3a2.768,2.768,0,0,1,.9-.1h.2c.2,0,.4-.1.7-.1h1.9c.3,0,.6.1.8.1h0c.3.1.6.1.8.2h0a6.889,6.889,0,0,1,.8.3h0c.3.1.5.2.8.3l-14.2-6.8h-.1c-.1,0-.1-.1-.2-.1s-.1-.1-.2-.1-.1-.1-.2-.1-.1,0-.2-.1h0c-.1,0-.1,0-.2-.1-.1,0-.1,0-.2-.1-.1,0-.1,0-.2-.1-.1,0-.1,0-.2-.1h0c-.1,0-.1,0-.2-.1-.1,0-.2,0-.2-.1-.1,0-.2,0-.2-.1H375a.6.6,0,0,0-.4.1h-.3c-.3,0-.5.1-.8.1-.4.1-.7.2-1.1.3-.1,0-.2.1-.3.1a6.889,6.889,0,0,0-.8.3c-.1,0-.1,0-.2.1H371c-.1,0-.2.1-.3.1s-.2.1-.3.1a.349.349,0,0,0-.2.1c-.1,0-.1.1-.2.1a.1.1,0,0,0-.1.1c-.2.1-.3.2-.5.2a.1.1,0,0,0-.1.1h-.1c-.1,0-.1.1-.2.1-.1.1-.2.1-.4.2a.349.349,0,0,0-.2.1h0c-.1.1-.2.1-.3.2s-.2.1-.3.2l-.1.1h0a.1.1,0,0,0-.1.1c-.1.1-.2.1-.3.2s-.2.1-.3.2c-.1,0-.1.1-.2.1h0c-.1.1-.2.1-.2.2l-.2.2-.2.2-.1.1h0a.1.1,0,0,0-.1.1l-.2.2-.2.2-.2.2-.1.1h0l-.1.1-.2.2-.2.2-.2.2a.349.349,0,0,0-.1.2h0l-.2.2-.2.2-.2.2-.2.2-.1.1h0l-.1.1-.2.2-.2.2-.2.2c0,.1-.1.1-.1.2h0l-.1.1c0,.1-.1.1-.1.2s-.1.1-.1.2-.1.1-.1.2-.1.1-.1.2h0c0,.1-.1.1-.1.2s-.1.1-.1.2-.1.1-.1.2-.1.1-.1.2-.1.1-.1.2h0c0,.1-.1.1-.1.2s-.1.1-.1.2-.1.1-.1.2-.1.1-.1.2-.1.1-.1.2h0L327,205.4l14.2,6.8,33.9-55.8c.2-.3.4-.7.6-1h0C375.9,155.1,376.2,154.8,376.4,154.5Z" transform="translate(-259.8 -139.3)"/><path class="ad" d="M278.2,342.5c-.3-.3-.7-.5-1-.8l-.2-.2a6.469,6.469,0,0,1-.8-.9c0-.1-.1-.1-.1-.2a8.794,8.794,0,0,1-.6-1c0-.1-.1-.1-.1-.2l-.6-1.2c0-.1-.1-.2-.1-.3a5.637,5.637,0,0,1-.4-1.2v-.1c-.1-.4-.3-.9-.4-1.3a.367.367,0,0,0-.1-.3,6.752,6.752,0,0,1-.2-1.4v-.1a6.6,6.6,0,0,1-.1-1.4v-2.1c0-.5.1-.9.1-1.4v-.3c.1-.6.2-1.1.3-1.7h0c.1-.6.3-1.2.4-1.8h0c.2-.6.3-1.2.5-1.8h0a13.353,13.353,0,0,1,.7-1.8h0c.3-.6.5-1.2.8-1.8h0a9.5,9.5,0,0,1,1-1.7l33.9-55.8L297,254.9l-33.9,55.8c0,.1-.1.1-.1.2s-.1.1-.1.2-.1.1-.1.2-.1.1-.1.2-.1.1-.1.2-.1.1-.1.2a.349.349,0,0,1-.1.2c0,.1-.1.1-.1.2h0a2950479362088.231,2950479362088.231,0,0,0-.3.6l-.1.2c0,.1-.1.2-.1.3s-.1.2-.1.3-.1.2-.1.3h0a.349.349,0,0,1-.1.2c0,.1-.1.2-.1.3s-.1.2-.1.3-.1.2-.1.3-.1.2-.1.3-.1.2-.1.3v.1h0c0,.1,0,.1-.1.2,0,.1-.1.2-.1.3s-.1.2-.1.4-.1.2-.1.4c0,.1-.1.2-.1.4v.1h0c0,.1,0,.2-.1.2,0,.2-.1.3-.1.5s-.1.3-.1.5-.1.4-.1.6h0c0,.2-.1.4-.1.7a2.768,2.768,0,0,0-.1.9v.4a6.6,6.6,0,0,0-.1,1.4v2.1c0,.5.1.9.1,1.4v.1c.1.5.1,1,.2,1.4a.367.367,0,0,0,.1.3,4.952,4.952,0,0,0,.4,1.3v.1c.1.4.3.8.4,1.2,0,.1.1.2.1.3l.6,1.2c0,.1.1.1.1.2.2.3.4.7.6,1,0,.1.1.1.1.2.3.3.5.6.8.9l.2.2a3.915,3.915,0,0,0,1,.8l10.5,7.9a3.508,3.508,0,0,0,.8.5c.3.2.5.3.8.5l14.2,6.8a8.636,8.636,0,0,1-1.6-1Z" transform="translate(-259.8 -139.3)"/><g transform="translate(9.649 6.715)"><path class="i" d="M387.8,146.3a10.158,10.158,0,0,1,8.5,1.7l10.5,7.9c6.1,4.6,6.5,15.8.9,25.1l-33.9,55.8,37,27.8c6.1,4.6,6.5,15.8.9,25.1L402,305.6c-3.4,5.5-8.1,9.1-12.7,10.1a10.158,10.158,0,0,1-8.5-1.7l-37-27.8L310,342.1c-3.4,5.5-8.1,9.1-12.7,10.1a10.158,10.158,0,0,1-8.5-1.7l-10.5-7.9c-6.1-4.6-6.5-15.8-.9-25.1l33.9-55.8-37-27.8c-6.1-4.6-6.5-15.8-.9-25.1l9.7-15.9c3.4-5.5,8.1-9.1,12.7-10.1a9.824,9.824,0,0,1,8.5,1.7l37,27.8,33.9-55.8C378.4,150.9,383.2,147.3,387.8,146.3Z" transform="translate(-269.449 -146.015)"/></g></g><g transform="translate(194.3 75.2)"><path class="e" d="M195.7,84.7l1.4,1.6-1.4,1.6-1.4-1.6Zm-.8-.8-.4-5.4v-3h2.2v3l-.3,5.4Z" transform="translate(-194.3 -75.2)"/><path class="e" d="M199.6,84.7l1.4,1.6-1.4,1.6-1.4-1.6Zm-.7-.8-.4-5.4v-3h2.2v3l-.3,5.4Z" transform="translate(-194.3 -75.2)"/><path class="e" d="M203.6,84.7l1.4,1.6-1.4,1.6-1.4-1.6Zm-.7-.8-.4-5.4v-3h2.2v3l-.3,5.4Z" transform="translate(-194.3 -75.2)"/><path class="e" d="M209.6,87.2a5.9,5.9,0,0,1-1.4-.2,1.6,1.6,0,0,1-.9-.7,3.128,3.128,0,0,1-.5-1,5.066,5.066,0,0,1-.2-1.3V78.8a8.6,8.6,0,0,0-.1-1.6,5.067,5.067,0,0,0-.2-1.3l1.9-.7a3.749,3.749,0,0,1,.1,1.1c0,.4.1.9.1,1.3v5.9c0,.3.1.5.1.7,0,.1.1.2.1.3.1.1.1.1.2.1a.367.367,0,0,1,.3.1h.5V87h0Z" transform="translate(-194.3 -75.2)"/><path class="e" d="M209.5,85H211a1.421,1.421,0,0,0,.6-.2c.2-.1.3-.2.5-.3a.764.764,0,0,0,.2-.5,1.087,1.087,0,0,0-.1-.5c-.1-.2-.1-.5-.2-.8l-.3-.9a3.552,3.552,0,0,0-.4-.9l1.8-1a6.9,6.9,0,0,0,.4,1c.1.3.2.7.3,1a3.553,3.553,0,0,1,.2,1,3.4,3.4,0,0,1,.1,1,3.339,3.339,0,0,1-.3,1.5,3.591,3.591,0,0,1-.7,1,2.384,2.384,0,0,1-1.1.6,5.9,5.9,0,0,1-1.4.2h-1V85Zm2.1,6.2-1.4-1.6,1.4-1.6,1.4,1.6Z" transform="translate(-194.3 -75.2)"/><path class="e" d="M218.2,87.2a5.9,5.9,0,0,1-1.4-.2,1.6,1.6,0,0,1-.9-.7,3.128,3.128,0,0,1-.5-1,5.066,5.066,0,0,1-.2-1.3V78.8a8.6,8.6,0,0,0-.1-1.6,5.067,5.067,0,0,0-.2-1.3l1.9-.7a3.749,3.749,0,0,1,.1,1.1c0,.4.1.9.1,1.3v5.9c0,.3.1.5.1.7,0,.1.1.2.1.3.1.1.1.1.2.1a.367.367,0,0,1,.3.1h.5V87h0Z" transform="translate(-194.3 -75.2)"/><path class="e" d="M218.1,85h1.5a1.421,1.421,0,0,0,.6-.2c.2-.1.3-.2.5-.3a.764.764,0,0,0,.2-.5,1.087,1.087,0,0,0-.1-.5c-.1-.2-.1-.5-.2-.8l-.3-.9a3.552,3.552,0,0,0-.4-.9l1.8-1a6.9,6.9,0,0,0,.4,1c.1.3.2.7.3,1a3.553,3.553,0,0,1,.2,1,3.4,3.4,0,0,1,.1,1,3.339,3.339,0,0,1-.3,1.5,3.591,3.591,0,0,1-.7,1,2.384,2.384,0,0,1-1.1.6,5.9,5.9,0,0,1-1.4.2h-1V85Zm2.1,6.2-1.4-1.6,1.4-1.6,1.4,1.6Z" transform="translate(-194.3 -75.2)"/><path class="e" d="M232.6,85.2a5.02,5.02,0,0,1,.2-1.2,3.7,3.7,0,0,1,.5-1.1,3.591,3.591,0,0,1,.7-1,6.034,6.034,0,0,1,.8-.8,3.128,3.128,0,0,1,1-.5,4.253,4.253,0,0,1,1.1-.2,2.769,2.769,0,0,1,.9.1,3.552,3.552,0,0,1,.9.4L238,83a1.421,1.421,0,0,0-.6-.2,1.087,1.087,0,0,0-.5-.1,2.354,2.354,0,0,0-.8.2,3.508,3.508,0,0,0-.8.5,5.548,5.548,0,0,0-.6.8,1.613,1.613,0,0,0-.3.9.367.367,0,0,0,.1.3c.1.1.2.2.3.2a.758.758,0,0,1,.4.2.749.749,0,0,0,.5.1l.9.3a2.01,2.01,0,0,1,.8.4l.6.6a1.5,1.5,0,0,1,.2,1,3.194,3.194,0,0,1-.3,1.4,3.591,3.591,0,0,1-.7,1,3.916,3.916,0,0,1-1,.8,6.117,6.117,0,0,1-1.2.5c-.4.1-.9.2-1.3.3a5.284,5.284,0,0,1-1.2.1,6.448,6.448,0,0,1-2-.3,5.071,5.071,0,0,1-1.6-.9,3.072,3.072,0,0,1-1-1.5,6.537,6.537,0,0,1-.4-2.1v-.8a7.72,7.72,0,0,1,.2-1.5c.1-.5.2-.9.3-1.3a4.649,4.649,0,0,1,.3-.9c.1-.2.1-.4.2-.4l1.6.8-.3.9c-.1.3-.2.6-.3,1s-.1.7-.2,1a3.4,3.4,0,0,0-.1,1,2.768,2.768,0,0,0,.3,1.3,1.853,1.853,0,0,0,.7.8,3,3,0,0,0,1,.4,4.869,4.869,0,0,0,1.2.1,7.083,7.083,0,0,0,1.5-.1c.5-.1.9-.2,1.3-.3a1.934,1.934,0,0,0,.9-.5c.2-.2.3-.4.4-.5-.3-.1-.6-.1-.9-.2l-.9-.3a2.01,2.01,0,0,1-.8-.4,1.794,1.794,0,0,1-.7-.5,5.582,5.582,0,0,1-.5-.8C232.5,86,232.6,85.6,232.6,85.2Z" transform="translate(-194.3 -75.2)"/><path class="e" d="M239.7,86a4.868,4.868,0,0,1,.1-1.2V82.5c0-.7-.1-1.3-.1-1.8a6.149,6.149,0,0,0-.1-1.4,3.083,3.083,0,0,0-.1-1,1.949,1.949,0,0,0-.1-.8c0-.2-.1-.5-.1-.7s-.1-.4-.1-.7l2-.7a12.252,12.252,0,0,1,.2,1.9,12.1,12.1,0,0,1,.1,1.9,9.7,9.7,0,0,0,.1,1.7,5.577,5.577,0,0,1,0,1.3v3.5a4.868,4.868,0,0,1-.1,1.2l-2,.3A2.344,2.344,0,0,0,239.7,86Z" transform="translate(-194.3 -75.2)"/></g><g transform="translate(255.7 175.406)"><path class="ae" d="M272.2,231.8c0-.1-.1-.1-.1-.2a8.8,8.8,0,0,1-.6-1c0-.1-.1-.1-.1-.2l-.6-1.2c0-.1-.1-.2-.1-.3a5.637,5.637,0,0,1-.4-1.2v-.1c-.1-.4-.3-.9-.4-1.3a.367.367,0,0,0-.1-.3,6.752,6.752,0,0,1-.2-1.4v-.1a6.6,6.6,0,0,1-.1-1.4V221c0-.5.1-.9.1-1.4v-.3c.1-.6.2-1.1.3-1.7h0c.1-.6.3-1.2.4-1.8h0c.2-.6.3-1.2.5-1.8h0a13.355,13.355,0,0,1,.7-1.8h0c.3-.6.5-1.2.8-1.8h0a16.178,16.178,0,0,1,1-1.8l9.7-15.9c.2-.3.4-.7.6-1h0c.2-.3.4-.6.7-1h0c.2-.3.5-.6.7-.9h0c.2-.3.5-.6.7-.9h0c.2-.3.5-.5.7-.8h0a6.035,6.035,0,0,1,.8-.8h0c.3-.2.5-.5.8-.7h0c.3-.2.5-.4.8-.6h0c.3-.2.5-.4.8-.6h0a3.508,3.508,0,0,1,.8-.5h0c.3-.2.5-.3.8-.5h.1c.2-.1.5-.3.7-.4.1,0,.1-.1.2-.1l.6-.3c.1,0,.2-.1.3-.1s.2-.1.3-.1a6.889,6.889,0,0,0,.8-.3c.1,0,.2-.1.3-.1.4-.1.7-.2,1.1-.3a2.768,2.768,0,0,1,.9-.1h.2c.2,0,.4-.1.7-.1h1.9c.3,0,.6.1.8.1h0c.3.1.6.1.8.2h0a6.889,6.889,0,0,1,.8.3h0c.3.1.5.2.8.3h0l-14.2-6.8h-.1c-.1,0-.1-.1-.2-.1s-.1-.1-.2-.1-.1-.1-.2-.1-.1,0-.2-.1h0c-.1,0-.1,0-.2-.1-.1,0-.1,0-.2-.1-.1,0-.1,0-.2-.1-.1,0-.1,0-.2-.1h0c-.1,0-.1,0-.2-.1-.1,0-.2,0-.2-.1-.1,0-.2,0-.2-.1h-3.1a.6.6,0,0,0-.4.1h-.3c-.3,0-.5.1-.8.1-.4.1-.7.2-1.1.3-.1,0-.2.1-.3.1a6.889,6.889,0,0,0-.8.3c-.1,0-.1,0-.2.1h-.1c-.1,0-.2.1-.3.1s-.2.1-.3.1a.349.349,0,0,0-.2.1c-.1,0-.1.1-.2.1a.1.1,0,0,0-.1.1c-.2.1-.3.2-.5.2a.1.1,0,0,0-.1.1h-.1c-.1,0-.1.1-.2.1-.1.1-.2.1-.4.2a.349.349,0,0,0-.2.1h-.1c-.1.1-.2.1-.3.2s-.2.1-.3.2l-.1.1h0a.1.1,0,0,0-.1.1c-.1.1-.2.1-.3.2s-.2.1-.3.2c-.1,0-.1.1-.2.1h0c-.1.1-.2.1-.2.2-.1.1-.2.1-.2.2l-.2.2-.1.1h0l-.1.1-.2.2-.2.2-.2.2-.1.1h0l-.1.1-.2.2-.2.2-.2.2-.1.1h0l-.2.2-.2.2-.2.2-.2.2-.1.1h0l-.1.1-.2.2-.2.2-.2.2c0,.1-.1.1-.1.2h0l-.1.1c0,.1-.1.1-.1.2s-.1.1-.1.2-.1.1-.1.2-.1.1-.1.2h0c0,.1-.1.1-.1.2s-.1.1-.1.2-.1.1-.1.2-.1.1-.1.2-.1.1-.1.2h0c0,.1-.1.1-.1.2s-.1.1-.1.2-.1.1-.1.2-.1.1-.1.2-.1.1-.1.2h0l-9.7,15.9c0,.1-.1.1-.1.2s-.1.1-.1.2-.1.1-.1.2-.1.1-.1.2-.1.1-.1.2-.1.1-.1.2a.349.349,0,0,1-.1.2c0,.1-.1.1-.1.2h0a786770488608.659,786770488608.659,0,0,0-.2.4,561978920434.54,561978920434.54,0,0,0-.2.4c0,.1-.1.2-.1.3s-.1.2-.1.3-.1.2-.1.3h0a.349.349,0,0,1-.1.2c0,.1-.1.2-.1.3s-.1.2-.1.3-.1.2-.1.3-.1.2-.1.3-.1.2-.1.3v.1h0c0,.1,0,.1-.1.2,0,.1-.1.2-.1.3s-.1.2-.1.4c0,.1-.1.2-.1.4,0,.1-.1.2-.1.4v.2c0,.1,0,.2-.1.2,0,.2-.1.3-.1.5s-.1.3-.1.5-.1.4-.1.6h0c0,.2-.1.4-.1.7a2.768,2.768,0,0,0-.1.9v.4a6.6,6.6,0,0,0-.1,1.4V216c0,.5.1.9.1,1.4v.1c.1.5.1,1,.2,1.4a.367.367,0,0,0,.1.3c0,.1.1.2.1.4l17.2,12.7C272.6,232.4,272.4,232.1,272.2,231.8Z" transform="translate(-255.7 -175.5)"/><path class="ad" d="M311.2,261.6l-32-24-1.8,2.4L297,254.8Z" transform="translate(-255.7 -175.5)"/><path class="i" d="M273.2,233a3.915,3.915,0,0,0,1,.8l5.1,3.8.1-.2-6.5-4.8.1.1C273.1,232.8,273.1,232.9,273.2,233Z" transform="translate(-255.7 -175.5)"/><path class="ad" d="M274.2,233.8c-.3-.3-.7-.5-1-.8l-.2-.2-.1-.1L255.7,220c.1.3.2.7.3,1v.1c.1.4.3.8.4,1.2,0,.1.1.2.1.3l.6,1.2c0,.1.1.1.1.2.2.3.4.7.6,1,0,.1.1.1.1.2.3.3.5.6.8.9l.2.2a3.915,3.915,0,0,0,1,.8l17.4,13.1,1.8-2.4Z" transform="translate(-255.7 -175.5)"/></g></g></svg>