<svg id="096a2db5-a7ba-4020-ab66-fa68097329f7" data-name="Layer 1" xmlns="http://www.w3.org/2000/svg" xmlns:xlink="http://www.w3.org/1999/xlink" viewBox="0 0 462.6 455"><defs><style>.\33 8efae9d-13ea-4ffc-bb3f-17860d27e44f,.\34 23a7b4a-33d6-430a-8035-f8d4d0c0b210,.\36 c8fabe1-d96c-43c7-b030-b1bb856ae2b1,.c5a61730-6c3b-4c3e-b590-41e0d8b1a194{fill:none;}.aa3024b3-0b83-4e0b-82dc-aab8f4a36643{fill:#f5f5f5;}.c086de37-7538-40c4-9a20-c7d5c7374745{fill:#e0e0e0;}.\35 208b1bb-73b5-4e6a-9c7f-0663862e0f86{fill:#06826a;}.eb94d9b3-4d61-4fe0-a50e-044fcee5c653{opacity:0.15;}.\35 2634340-4f1e-456b-b353-ae2b57a60829,.eb94d9b3-4d61-4fe0-a50e-044fcee5c653{isolation:isolate;}.\38 fd298db-0ac3-4dcc-9e41-725f0b6aba65,.aca21df7-a785-4c4d-9652-265d3f51e19f{fill:#fff;}.\39 7ad523e-6743-41ad-a7c8-8e5630412546{fill:#37474f;}.\33 856d331-43bd-49f1-b503-e7475c507700,.f162703e-a2f1-4340-b54e-af94ebf4000e{fill:#263238;}.a63c7705-a5cf-44b4-9e82-5ef4c2f7b9bb,.e68e3edc-129f-4023-8860-517e742aab65{fill:#455a64;}.\31 a602709-bd70-48a2-a332-5057f663ab2d,.\33 8efae9d-13ea-4ffc-bb3f-17860d27e44f,.\34 4730eb0-294b-4d36-ae68-4373e5cc0dac,.\36 c8fabe1-d96c-43c7-b030-b1bb856ae2b1,.\37 4b9bd67-17d3-4621-94ed-d634dfb303b0,.\38 fd298db-0ac3-4dcc-9e41-725f0b6aba65,.a354d699-03d6-490d-a998-b8f4a4e72fb8,.e68e3edc-129f-4023-8860-517e742aab65,.f162703e-a2f1-4340-b54e-af94ebf4000e{stroke:#263238;}.\31 a602709-bd70-48a2-a332-5057f663ab2d,.\33 8efae9d-13ea-4ffc-bb3f-17860d27e44f,.\34 4730eb0-294b-4d36-ae68-4373e5cc0dac,.\36 c8fabe1-d96c-43c7-b030-b1bb856ae2b1,.\37 4b9bd67-17d3-4621-94ed-d634dfb303b0,.\38 fd298db-0ac3-4dcc-9e41-725f0b6aba65,.a354d699-03d6-490d-a998-b8f4a4e72fb8,.c5a61730-6c3b-4c3e-b590-41e0d8b1a194,.e68e3edc-129f-4023-8860-517e742aab65,.f162703e-a2f1-4340-b54e-af94ebf4000e{stroke-linecap:round;stroke-linejoin:round;}.f9ca11e4-a7fb-430a-a90c-f109da903bf2{clip-path:url(#46b53ecb-4634-4de6-ac39-2ce55b57be60);}.a354d699-03d6-490d-a998-b8f4a4e72fb8,.b4f571db-55fc-446b-b9d1-d5694555b498{fill:#ff3600;}.\35 2634340-4f1e-456b-b353-ae2b57a60829{opacity:0.25;}.c5a61730-6c3b-4c3e-b590-41e0d8b1a194{stroke:#fff;}.\31 65e299c-4a19-44f1-b77f-461f173bf9a0{clip-path:url(#32cebd1c-30e7-498d-891d-2a0f4b4fb031);}.\37 4b9bd67-17d3-4621-94ed-d634dfb303b0{fill:#949494;}.\34 a687e9e-2ef8-4755-8aff-670d77185995{clip-path:url(#0d889532-60b4-4be4-94ab-1f238dfea1ca);}.\34 4730eb0-294b-4d36-ae68-4373e5cc0dac{fill:#ffe1b6;}.\34 2a90fcd-eea8-482d-ba0f-4bd56c145e26{clip-path:url(#88c05589-6c3b-41fc-8971-8995f9c243d5);}.\31 a602709-bd70-48a2-a332-5057f663ab2d{fill:#d9d9d9;}.\30 b597c94-455d-466b-b354-d86c1c450f33{clip-path:url(#44e28433-b5ce-48c5-8db9-55a8f4ac647a);}.\31 c95335d-63d8-427a-b0f1-d0f02b8fcb01{clip-path:url(#f5793ae3-4352-4b81-8e12-012af471eafc);}.\39 816222a-6f7d-4ada-bf6e-054746cebc7d{clip-path:url(#5ce6f82d-ae7c-4790-9fa6-aaa13340e342);}.\36 c8fabe1-d96c-43c7-b030-b1bb856ae2b1{stroke-width:2px;}</style><clipPath id="46b53ecb-4634-4de6-ac39-2ce55b57be60" transform="translate(-0.2 -0.6)"><path class="423a7b4a-33d6-430a-8035-f8d4d0c0b210" d="M171.8,184.6s.5.5-1.9,2.1-8.3,3-7,5.1,2.7,3.2,1.6,4-2.7.8-4,1.9-5.4-11.8-5.4-11.8S165.1,181.1,171.8,184.6Z"/></clipPath><clipPath id="32cebd1c-30e7-498d-891d-2a0f4b4fb031" transform="translate(-0.2 -0.6)"><path class="423a7b4a-33d6-430a-8035-f8d4d0c0b210" d="M160.4,190.3l-1.7-6-48.4,9.2-.4,2.5a55.8,55.8,0,0,0,24.4,1.5A131.1,131.1,0,0,0,160.4,190.3Z"/></clipPath><clipPath id="0d889532-60b4-4be4-94ab-1f238dfea1ca" transform="translate(-0.2 -0.6)"><path class="423a7b4a-33d6-430a-8035-f8d4d0c0b210" d="M187,87.1a164.7,164.7,0,0,0-10.5-27.9c-3.3-7-6.5-15.7-11.6-21.6-3.2-3.8-9.2-6.7-10.5-6.2s-7.3,3-7.3,6.2,2.2,3.2,2.2,3.2-.5,4,1.1,5.6,10,1.1,10,1.1a36,36,0,0,1,3.7,7c1.6,5.4,3,6.4,4.1,16.1a201.8,201.8,0,0,0,4.6,22.9,10.3,10.3,0,0,0-2.7,2.4c-1.6,1.9-11.8,12-11.8,12a60.1,60.1,0,0,1-9.2,3.5,56,56,0,0,0-8,3.3l-4.2-.4c-1.9,0-15.1,2.4-15.1,2.4a42.2,42.2,0,0,0-9.7-4.3,64.3,64.3,0,0,1-9.2-3.5s-10.2-10.1-11.8-12a8.8,8.8,0,0,0-2.7-2.4A197.5,197.5,0,0,0,93,71.6c.9-7.8,3.1-16.7,7.8-23.1,0,0,8.3.5,10-1.1s1.1-5.6,1.1-5.6,2.2,0,2.2-3.2-5.9-5.6-7.3-6.2-7.3,2.4-10.5,6.2-3,7.5-6.2,12.9S75.6,82.9,74.2,88.1s-3,8.1-2.7,10.5,13.2,16.3,16.4,20.1,15.6,16.7,15.6,16.7,4.6,22.6,5.9,30.7.5,30.3.5,30.3,14.8-3.2,28.8-4.8,29.3-7,31.2-7h1.9s-10.5-12.8-10.5-14.7.4-28.9.5-39.9c3.9-4.1,9.4-10,11.4-12.3s16.1-17.7,16.4-20.1S188.3,92.2,187,87.1Z"/></clipPath><clipPath id="88c05589-6c3b-41fc-8971-8995f9c243d5" transform="translate(-0.2 -0.6)"><path class="423a7b4a-33d6-430a-8035-f8d4d0c0b210" d="M141.8,101.7s1.5-4,3.4-2.1,1,5.9-.3,7.7-2.2.7-2.9-1.2A9.4,9.4,0,0,1,141.8,101.7Z"/></clipPath><clipPath id="44e28433-b5ce-48c5-8db9-55a8f4ac647a" transform="translate(-0.2 -0.6)"><path class="423a7b4a-33d6-430a-8035-f8d4d0c0b210" d="M117.5,104.1s-2.5-3.5-3.9-1.2.7,6.2,2.3,7.5,2.3.1,2.5-2A10.4,10.4,0,0,0,117.5,104.1Z"/></clipPath><clipPath id="f5793ae3-4352-4b81-8e12-012af471eafc" transform="translate(-0.2 -0.6)"><path class="423a7b4a-33d6-430a-8035-f8d4d0c0b210" d="M123.9,118.1s6.4,16.6,9.8,15.4,4.4-15.9,4.4-15.9S127.6,119.8,123.9,118.1Z"/></clipPath><clipPath id="5ce6f82d-ae7c-4790-9fa6-aaa13340e342" transform="translate(-0.2 -0.6)"><path class="423a7b4a-33d6-430a-8035-f8d4d0c0b210" d="M115.6,97.6s1.2,10.7,2.7,15.5,7.1,9.3,14.7,8.1,10.3-12.3,10.3-13-.5-13.8-3.4-18.7-8.6-9.5-16.4-5.9S114.9,94.9,115.6,97.6Z"/></clipPath></defs><title>final 2</title><g id="182455ad-044d-43d2-9c3a-980b0366e7c9" data-name="freepik--Floor--inject-10"><path id="eeab1f63-8ca2-4ba9-82c7-42d8af863fd1" data-name="freepik--floor--inject-10" class="aa3024b3-0b83-4e0b-82dc-aab8f4a36643" d="M67.9,416.5c-90.3-52.2-90.3-136.7,0-188.8s236.8-52.1,327.1,0,90.3,136.6,0,188.8S158.2,468.6,67.9,416.5Z" transform="translate(-0.2 -0.6)"/></g><g id="7a8fbcfa-ff3e-4e61-8fed-9aa2d9dc9a4f" data-name="freepik--Shadow--inject-10"><ellipse id="40ad460c-31cd-4167-b708-82e44ca68ae0" data-name="freepik--shadow--inject-10" class="c086de37-7538-40c4-9a20-c7d5c7374745" cx="140.9" cy="377.4" rx="93.6" ry="41"/><ellipse id="9909bca0-8f65-469c-9f18-60c460f8f0bc" data-name="freepik--shadow--inject-10" class="c086de37-7538-40c4-9a20-c7d5c7374745" cx="280.6" cy="314.6" rx="101.3" ry="50.4" transform="translate(-115.8 170) rotate(-28.3)"/></g><g id="4ff0399d-d883-4c9f-babf-e2b9d8a30aba" data-name="freepik--Plants--inject-10"><g id="01d104c8-e275-44b8-9bd8-b098c24ea007" data-name="freepik--plants--inject-10"><path class="5208b1bb-73b5-4e6a-9c7f-0663862e0f86" d="M353.6,300.7c9.9-11.7,25.3-19.4,42.6-23.9s20.2-14.9,8.9-18.3c-12.9-3.9-28.9,3.2-39.3,13-18,17.3-20.3,30.5-20.3,30.5Z" transform="translate(-0.2 -0.6)"/><path class="eb94d9b3-4d61-4fe0-a50e-044fcee5c653" d="M353.6,300.7c9.9-11.7,25.3-19.4,42.6-23.9s20.2-14.9,8.9-18.3c-12.9-3.9-28.9,3.2-39.3,13-18,17.3-20.3,30.5-20.3,30.5Z" transform="translate(-0.2 -0.6)"/><path class="aca21df7-a785-4c4d-9652-265d3f51e19f" d="M348.5,300h-.2a.5.5,0,0,1-.2-.7h0c14.6-30,47-37.3,54.8-36.7a.5.5,0,0,1,0,1c-7.7-.6-39.5,6.6-53.9,36.2Z" transform="translate(-0.2 -0.6)"/><path class="5208b1bb-73b5-4e6a-9c7f-0663862e0f86" d="M345.4,303.8a2.7,2.7,0,0,0,2.7,2.7,2.3,2.3,0,0,0,1.4-.4c9.2-5.3,22.5-8.3,44.1-2.1,11.5,3.3,17.2,1.1,19.6-3.6s-3-10.2-9.5-12.6c-22.1-8.1-42.1-2.6-58.4,13.6Z" transform="translate(-0.2 -0.6)"/><path class="aca21df7-a785-4c4d-9652-265d3f51e19f" d="M346.7,304.3l-.4-.2a.5.5,0,0,1,0-.7c19.1-17.1,48.7-13.8,59.9-7.1a.5.5,0,0,1-.5.9c-11-6.5-40-9.8-58.7,7Z" transform="translate(-0.2 -0.6)"/></g><g id="b953885b-490a-4568-b7d6-ecaea357d425" data-name="freepik--plants--inject-10"><path class="5208b1bb-73b5-4e6a-9c7f-0663862e0f86" d="M131.6,343.6c-8.4-12.8-22.8-22.2-39.5-28.8s-18.3-17.3-6.6-19.3c13.2-2.3,28.4,6.6,37.5,17.7,15.9,19.3,16.6,32.7,16.6,32.7Z" transform="translate(-0.2 -0.6)"/><path class="eb94d9b3-4d61-4fe0-a50e-044fcee5c653" d="M131.6,343.6c-8.4-12.8-22.8-22.2-39.5-28.8s-18.3-17.3-6.6-19.3c13.2-2.3,28.4,6.6,37.5,17.7,15.9,19.3,16.6,32.7,16.6,32.7Z" transform="translate(-0.2 -0.6)"/><path class="aca21df7-a785-4c4d-9652-265d3f51e19f" d="M136.7,343.6h.2a.4.4,0,0,0,.3-.6c-11-31.5-42.2-42.7-50.1-43a.5.5,0,0,0,0,1c7.7.3,38.4,11.3,49.2,42.4A.5.5,0,0,0,136.7,343.6Z" transform="translate(-0.2 -0.6)"/><path class="5208b1bb-73b5-4e6a-9c7f-0663862e0f86" d="M139.6,345.3A4.2,4.2,0,0,1,135,349a4.4,4.4,0,0,1-1.9-.7c-8.5-5.7-21.1-9.4-41.8-6-11.8,1.9-17.2-1-19-5.9s4.2-9.8,10.9-11.4c23-5.4,42.2,2.5,56.4,20.3Z" transform="translate(-0.2 -0.6)"/><path class="aca21df7-a785-4c4d-9652-265d3f51e19f" d="M138,348h.4a.5.5,0,0,0,0-.7c-17-19.2-46.8-19.4-58.7-14.1a.5.5,0,1,0,.4,1c11.7-5.2,40.9-5,57.5,13.9C137.7,347.9,137.9,348,138,348Z" transform="translate(-0.2 -0.6)"/></g></g><g id="7dcf88db-1198-4fae-86a1-15b033fc1bae" data-name="freepik--check-mark--inject-10"><g id="7183f7ae-507f-4082-b949-11d931d94e75" data-name="freepik--check-mark--inject-10"><g id="51a6bcfc-5569-4f27-b282-9d714d88040a" data-name="freepik--Circle--inject-10"><path class="97ad523e-6743-41ad-a7c8-8e5630412546" d="M362.5,115.4h-.2L324.2,93.5H324c-17.8-9-41.6-6.3-67.1,10.1C205.6,136.7,166.4,213,169.5,274c1.5,30.4,13.3,51.3,31,60.5h.1l38.1,21.9h.2c17.8,9,41.6,6.3,67.2-10.1C357.4,313.3,396.6,237,393.5,176,392,145.4,380.3,124.6,362.5,115.4Z" transform="translate(-0.2 -0.6)"/><path class="3856d331-43bd-49f1-b503-e7475c507700" d="M237.5,355.7l-36.8-21.2h-.2c-17.7-9.2-29.5-30.1-31-60.5-1.4-27.1,5.7-57.4,18.4-85.5l.3-.6,37.9,22.6c-12.8,28.1-19.8,58.3-18.4,85.5C209.1,325.7,220.4,346.3,237.5,355.7Z" transform="translate(-0.2 -0.6)"/><path class="a63c7705-a5cf-44b4-9e82-5ef4c2f7b9bb" d="M306.2,346.3c51.3-33.2,90.5-109.5,87.4-170.5s-47.2-83.5-98.5-50.4-90.5,109.5-87.4,170.5S254.8,379.4,306.2,346.3Z" transform="translate(-0.2 -0.6)"/></g><path id="b3f1c97e-dccd-45e8-b634-135f381da654" data-name="freepik--shadow--inject-10" class="97ad523e-6743-41ad-a7c8-8e5630412546" d="M349.6,110.6,285.3,243.1l-13.9-15A22.8,22.8,0,0,0,237.9,259l36.5,39.4a22.5,22.5,0,0,0,15.5,7.3h1.3l3.3-.2a22.7,22.7,0,0,0,17.2-12.6l73.8-151.8C377.9,124.2,365.3,113.7,349.6,110.6Z" transform="translate(-0.2 -0.6)"/><path class="5208b1bb-73b5-4e6a-9c7f-0663862e0f86" d="M401.9,67.1l-1.2-.7a19.7,19.7,0,0,0-26.4,9.1L292.4,244l-4.7-5a18.3,18.3,0,0,0-4.6-3.7l-14.5-8.4a19.7,19.7,0,0,0-24.4,30.5l36.5,39.4a24.5,24.5,0,0,0,4.7,3.8l14.4,8.3a19.8,19.8,0,0,0,27-7.2c.2-.4.5-.8.7-1.3l96.8-199.1a19.8,19.8,0,0,0-7.9-25.8Z" transform="translate(-0.2 -0.6)"/><path class="eb94d9b3-4d61-4fe0-a50e-044fcee5c653" d="M401.9,67.1l-1.2-.7a19.7,19.7,0,0,0-26.4,9.1L292.4,244l-4.7-5a18.3,18.3,0,0,0-4.6-3.7l-14.5-8.4a19.7,19.7,0,0,0-24.4,30.5l36.5,39.4a24.5,24.5,0,0,0,4.7,3.8l14.4,8.3a19.8,19.8,0,0,0,27-7.2c.2-.4.5-.8.7-1.3l96.8-199.1a19.8,19.8,0,0,0-7.9-25.8Z" transform="translate(-0.2 -0.6)"/><path class="eb94d9b3-4d61-4fe0-a50e-044fcee5c653" d="M299.7,308.9l-14.4-8.3a19.1,19.1,0,0,1-4.7-3.8l-36.5-39.4a21,21,0,0,1-3.8-6l14.5,8.4a19.7,19.7,0,0,0,3.8,6l36.5,39.4A18.3,18.3,0,0,0,299.7,308.9Z" transform="translate(-0.2 -0.6)"/><path class="eb94d9b3-4d61-4fe0-a50e-044fcee5c653" d="M393.3,77.9a19.6,19.6,0,0,0-4.6,6.1L304.5,257.3l-12.2-13.2L374.2,75.6a19.6,19.6,0,0,1,4.6-6.1Z" transform="translate(-0.2 -0.6)"/><path id="6811a941-688b-48e8-ba6b-e0bdcbcfb9e6" data-name="freepik--Check--inject-10" class="5208b1bb-73b5-4e6a-9c7f-0663862e0f86" d="M415.2,74.8a19.8,19.8,0,0,0-26.4,9.1L304.6,257.2,287.7,239a19.8,19.8,0,0,0-29,26.8l36.5,39.4a19.8,19.8,0,0,0,27.9,1.1,21.2,21.2,0,0,0,4.4-5.9l96.9-199.2A19.9,19.9,0,0,0,415.2,74.8Z" transform="translate(-0.2 -0.6)"/></g></g><g id="59d9e437-f1d1-464c-a68f-52a5d5bd348a" data-name="freepik--speech-bubble--inject-10"><g id="07bce9b9-c4b3-4684-8c29-f9b8434fe32e" data-name="freepik--speech-bubble--inject-10"><g id="54a2d388-cd06-45ac-9e4c-badc64845ea3" data-name="freepik--speech-bubble--inject-10"><ellipse class="5208b1bb-73b5-4e6a-9c7f-0663862e0f86" cx="245.5" cy="32.4" rx="37" ry="32.4"/><path class="5208b1bb-73b5-4e6a-9c7f-0663862e0f86" d="M216.1,51.7c-.2,4.3-3.9,12.1-10.5,15a.5.5,0,0,0-.2.6l.3.3a19.9,19.9,0,0,0,20.5-7.8Z" transform="translate(-0.2 -0.6)"/></g></g></g><g id="45893557-bced-468f-a9e6-4bca88968f6a" data-name="freepik--Icons--inject-10"><g id="76995673-8121-48ee-b3b2-4700be7d15aa" data-name="freepik--like-icon--inject-10"><polygon class="c086de37-7538-40c4-9a20-c7d5c7374745" points="341.1 62 335.5 63.7 331.5 50.2 337 48.5 341.1 62"/><path class="c086de37-7538-40c4-9a20-c7d5c7374745" d="M358.8,50.6a2.5,2.5,0,0,1-1.6,2.6,3.9,3.9,0,0,1,.8,1.4c.3,1-.5,2.4-2.2,3L343,61.5l-3.8-12.6h0s2.2-5.6,2.3-6.4-1.2-3.9-1.4-4.5,1.9-1.3,3.5-.7l1,.7a8,8,0,0,1,1.5,2.1,8.5,8.5,0,0,1,.8,3.5l7.8-2.4a2.5,2.5,0,0,1,1.7,0,2.1,2.1,0,0,1,1.2,2.8,2.4,2.4,0,0,1-.6.9,2,2,0,0,1,2.1,1.4,2.4,2.4,0,0,1-1.3,2.6A3.8,3.8,0,0,1,358.8,50.6Z" transform="translate(-0.2 -0.6)"/></g><g id="5a8a5b81-330d-4c51-9ae0-f64612f610c4" data-name="freepik--like-icon--inject-10"><polygon class="c086de37-7538-40c4-9a20-c7d5c7374745" points="421.5 202.2 414.3 200.5 418.5 183.1 425.7 184.9 421.5 202.2"/><path class="c086de37-7538-40c4-9a20-c7d5c7374745" d="M448.5,200.8a3.4,3.4,0,0,1-3.4,1.9,7.4,7.4,0,0,1,0,2.1c-.3,1.4-2.1,2.3-4.3,1.8l-16.5-4,3.9-16.1h0s5.9-4.6,6.6-5.4,1.2-5,1.4-5.8,2.9-.3,4.3,1.5a3.5,3.5,0,0,1,.7,1.5,17.3,17.3,0,0,1,.3,3.2,9.9,9.9,0,0,1-1.4,4.3l9.9,2.4a2.9,2.9,0,0,1,1.8,1.1,2.8,2.8,0,0,1,.5,2.3,2.8,2.8,0,0,1-2.2,2.1,2.5,2.5,0,0,1,1.4,2.9,2.9,2.9,0,0,1-3,2A4.1,4.1,0,0,1,448.5,200.8Z" transform="translate(-0.2 -0.6)"/></g><g id="db35df0e-e587-40dd-9052-de18f1cc5933" data-name="freepik--like-icon--inject-10"><polygon class="c086de37-7538-40c4-9a20-c7d5c7374745" points="58.3 191.8 66.2 194.2 71.8 175.3 64 172.9 58.3 191.8"/><path class="c086de37-7538-40c4-9a20-c7d5c7374745" d="M34,175.6a3.8,3.8,0,0,0,2.2,3.7,5.6,5.6,0,0,0-1.1,2c-.5,1.5.8,3.3,3.1,4l18,5.4,5.3-17.5h0s-3.1-7.8-3.2-9,1.7-5.5,1.9-6.3-2.7-1.9-5-.9a4,4,0,0,0-1.5,1,16.1,16.1,0,0,0-2.1,3,11,11,0,0,0-1.1,5l-10.8-3.3a3.2,3.2,0,0,0-4,4.1,2.7,2.7,0,0,0,.9,1.2,2.9,2.9,0,0,0-3,2,3.2,3.2,0,0,0,1.8,3.6A3.5,3.5,0,0,0,34,175.6Z" transform="translate(-0.2 -0.6)"/></g></g><g id="9ab45195-5426-417d-96a3-19838599b649" data-name="freepik--character-2--inject-2"><path class="aca21df7-a785-4c4d-9652-265d3f51e19f" d="M91.9,267.6s-3.5,9.1-6.2,14.5-7.3,28.3-8.3,39.5-2.7,25.6-2.7,25.6-6.2,11.2-9.1,15.5-7.3,6.7-4.8,9.7,8.3-1.1,12.7-3.5,4.8-6.7,7.3-7.8,7.5-.3,6.7-7.3-4.6-10.4-3.8-12.3,6.4-20.4,8.9-25.3,7.8-10.5,10-18a65.1,65.1,0,0,0,1.9-16.4s5.1-10.2,5.9-10.8S94.9,269.8,91.9,267.6Z" transform="translate(-0.2 -0.6)"/><path class="38efae9d-13ea-4ffc-bb3f-17860d27e44f" d="M91.9,267.6s-3.5,9.1-6.2,14.5-7.3,28.3-8.3,39.5-2.7,25.6-2.7,25.6-6.2,11.2-9.1,15.5-7.3,6.7-4.8,9.7,8.3-1.1,12.7-3.5,4.8-6.7,7.3-7.8,7.5-.3,6.7-7.3-4.6-10.4-3.8-12.3,6.4-20.4,8.9-25.3,7.8-10.5,10-18a65.1,65.1,0,0,0,1.9-16.4s5.1-10.2,5.9-10.8S94.9,269.8,91.9,267.6Z" transform="translate(-0.2 -0.6)"/><path class="f162703e-a2f1-4340-b54e-af94ebf4000e" d="M60.7,372.4c2.4,3,8.3-1.1,12.7-3.5s4.8-6.7,7.3-7.8,7.5-.3,6.7-7.3-3.8-9.6-3.9-11.6a9.6,9.6,0,0,1-3.4,5c-3.5,2.9-5.4,0-5.4,0s-6.2,11.2-9.1,15.5S58.3,369.5,60.7,372.4Z" transform="translate(-0.2 -0.6)"/><path class="8fd298db-0ac3-4dcc-9e41-725f0b6aba65" d="M87.4,353.9a24.9,24.9,0,0,1-4.3,2.9C78.5,359,77.5,363,71,368.1a13.1,13.1,0,0,1-10.9,3,2.7,2.7,0,0,0,.6,1.2c2.4,3,8.3-1.1,12.7-3.5s4.8-6.7,7.3-7.8S88.1,360.8,87.4,353.9Z" transform="translate(-0.2 -0.6)"/><path class="aca21df7-a785-4c4d-9652-265d3f51e19f" d="M161.3,268.9l6.2,9.4s2.7,12.4,6.7,20.4,14,21.8,18.8,27.7,6.5,17.5,6.5,17.5-2.4,5.1-.8,8.8,6.2,6.5,7,10,5.6,11.8,9.4,11.3,6.2-5.4,3.2-12.4-8.6-12.3-10.2-19.5-6.7-37.4-11-46.8a108,108,0,0,0-8.6-15.6l-4-16S169.4,271.6,161.3,268.9Z" transform="translate(-0.2 -0.6)"/><path class="38efae9d-13ea-4ffc-bb3f-17860d27e44f" d="M161.3,268.9l6.2,9.4s2.7,12.4,6.7,20.4,14,21.8,18.8,27.7,6.5,17.5,6.5,17.5-2.4,5.1-.8,8.8,6.2,6.5,7,10,5.6,11.8,9.4,11.3,6.2-5.4,3.2-12.4-8.6-12.3-10.2-19.5-6.7-37.4-11-46.8a108,108,0,0,0-8.6-15.6l-4-16S169.4,271.6,161.3,268.9Z" transform="translate(-0.2 -0.6)"/><path class="f162703e-a2f1-4340-b54e-af94ebf4000e" d="M218.4,361.6c-2.6-6-7.1-10.9-9.3-16.6a6.9,6.9,0,0,1-2,3c-3,2.3-7.5-4-7.5-4s-2.4,5.1-.8,8.8,6.2,6.5,7,10,5.6,11.8,9.4,11.3S221.3,368.7,218.4,361.6Z" transform="translate(-0.2 -0.6)"/><path class="8fd298db-0ac3-4dcc-9e41-725f0b6aba65" d="M205.7,362.7a11.4,11.4,0,0,0,1.5,3.6l-.4-.9c-1.4-4.3-2.2-9.7-5.1-12.4a15.4,15.4,0,0,1-3.4-4.9,8,8,0,0,0,.4,4.6C200.4,356.5,205,359.2,205.7,362.7Z" transform="translate(-0.2 -0.6)"/><path class="8fd298db-0ac3-4dcc-9e41-725f0b6aba65" d="M219.5,365.1c-.3,2.3-1,4.8-2.4,6.2s-7.1-.4-9.3-4c1.9,3.5,4.9,7,7.4,6.6S220.4,370.2,219.5,365.1Z" transform="translate(-0.2 -0.6)"/><path class="aca21df7-a785-4c4d-9652-265d3f51e19f" d="M171.8,184.6s.5.5-1.9,2.1-8.3,3-7,5.1,2.7,3.2,1.6,4-2.7.8-4,1.9-5.4-11.8-5.4-11.8S165.1,181.1,171.8,184.6Z" transform="translate(-0.2 -0.6)"/><g class="f9ca11e4-a7fb-430a-a90c-f109da903bf2"><path class="b4f571db-55fc-446b-b9d1-d5694555b498" d="M171.8,184.6s.5.5-1.9,2.1-8.3,3-7,5.1,2.7,3.2,1.6,4-2.7.8-4,1.9-5.4-11.8-5.4-11.8S165.1,181.1,171.8,184.6Z" transform="translate(-0.2 -0.6)"/><path class="52634340-4f1e-456b-b353-ae2b57a60829" d="M171.8,184.6s.5.5-1.9,2.1-8.3,3-7,5.1,2.7,3.2,1.6,4-2.7.8-4,1.9-5.4-11.8-5.4-11.8S165.1,181.1,171.8,184.6Z" transform="translate(-0.2 -0.6)"/></g><path class="38efae9d-13ea-4ffc-bb3f-17860d27e44f" d="M171.8,184.6s.5.5-1.9,2.1-8.3,3-7,5.1,2.7,3.2,1.6,4-2.7.8-4,1.9-5.4-11.8-5.4-11.8S165.1,181.1,171.8,184.6Z" transform="translate(-0.2 -0.6)"/><path class="e68e3edc-129f-4023-8860-517e742aab65" d="M110.2,193.5l-2.4,14s-10,21.5-13.4,32.6-22.9,98.6-22.9,98.6-1,.9,6.5,1.4c11.4.7,12.6-.8,12.6-.8s40-92.5,41.4-95.4,5.1-10.8,5.1-10.8h3.5l51.9,103.6a3.8,3.8,0,0,0,2,1.6c4.5,2.1,10.1.8,15-1.9.9-.9.3-4.8-.5-6.6,0,0-27.5-97.5-32-107.5s-15.1-26.9-15.1-26.9l-3.2-11Z" transform="translate(-0.2 -0.6)"/><line class="c5a61730-6c3b-4c3e-b590-41e0d8b1a194" x1="110.6" y1="212.2" x2="121.9" y2="223"/><line class="c5a61730-6c3b-4c3e-b590-41e0d8b1a194" x1="124.3" y1="226.5" x2="126.2" y2="227.8"/><line class="c5a61730-6c3b-4c3e-b590-41e0d8b1a194" x1="110.8" y1="216.5" x2="122.2" y2="224.9"/><line class="c5a61730-6c3b-4c3e-b590-41e0d8b1a194" x1="164.9" y1="204.5" x2="159.5" y2="214.6"/><path class="c5a61730-6c3b-4c3e-b590-41e0d8b1a194" d="M121.3,201.5a52.8,52.8,0,0,0,29-5.4" transform="translate(-0.2 -0.6)"/><path class="aca21df7-a785-4c4d-9652-265d3f51e19f" d="M160.4,190.3l-1.7-6-48.4,9.2-.4,2.5a55.8,55.8,0,0,0,24.4,1.5A131.1,131.1,0,0,0,160.4,190.3Z" transform="translate(-0.2 -0.6)"/><g class="165e299c-4a19-44f1-b77f-461f173bf9a0"><path class="74b9bd67-17d3-4621-94ed-d634dfb303b0" d="M160.4,190.3l-1.7-6-48.4,9.2-.4,2.5a55.8,55.8,0,0,0,24.4,1.5A131.1,131.1,0,0,0,160.4,190.3Z" transform="translate(-0.2 -0.6)"/></g><path class="38efae9d-13ea-4ffc-bb3f-17860d27e44f" d="M160.4,190.3l-1.7-6-48.4,9.2-.4,2.5a55.8,55.8,0,0,0,24.4,1.5A131.1,131.1,0,0,0,160.4,190.3Z" transform="translate(-0.2 -0.6)"/><path class="aca21df7-a785-4c4d-9652-265d3f51e19f" d="M187,87.1a164.7,164.7,0,0,0-10.5-27.9c-3.3-7-6.5-15.7-11.6-21.6-3.2-3.8-9.2-6.7-10.5-6.2s-7.3,3-7.3,6.2,2.2,3.2,2.2,3.2-.5,4,1.1,5.6,10,1.1,10,1.1a36,36,0,0,1,3.7,7c1.6,5.4,3,6.4,4.1,16.1a201.8,201.8,0,0,0,4.6,22.9,10.3,10.3,0,0,0-2.7,2.4c-1.6,1.9-11.8,12-11.8,12a60.1,60.1,0,0,1-9.2,3.5,56,56,0,0,0-8,3.3l-4.2-.4c-1.9,0-15.1,2.4-15.1,2.4a42.2,42.2,0,0,0-9.7-4.3,64.3,64.3,0,0,1-9.2-3.5s-10.2-10.1-11.8-12a8.8,8.8,0,0,0-2.7-2.4A197.5,197.5,0,0,0,93,71.6c.9-7.8,3.1-16.7,7.8-23.1,0,0,8.3.5,10-1.1s1.1-5.6,1.1-5.6,2.2,0,2.2-3.2-5.9-5.6-7.3-6.2-7.3,2.4-10.5,6.2-3,7.5-6.2,12.9S75.6,82.9,74.2,88.1s-3,8.1-2.7,10.5,13.2,16.3,16.4,20.1,15.6,16.7,15.6,16.7,4.6,22.6,5.9,30.7.5,30.3.5,30.3,14.8-3.2,28.8-4.8,29.3-7,31.2-7h1.9s-10.5-12.8-10.5-14.7.4-28.9.5-39.9c3.9-4.1,9.4-10,11.4-12.3s16.1-17.7,16.4-20.1S188.3,92.2,187,87.1Z" transform="translate(-0.2 -0.6)"/><g class="4a687e9e-2ef8-4755-8aff-670d77185995"><path class="44730eb0-294b-4d36-ae68-4373e5cc0dac" d="M187,87.1a164.7,164.7,0,0,0-10.5-27.9c-3.3-7-6.5-15.7-11.6-21.6-3.2-3.8-9.2-6.7-10.5-6.2s-7.3,3-7.3,6.2,2.2,3.2,2.2,3.2-.5,4,1.1,5.6,10,1.1,10,1.1a36,36,0,0,1,3.7,7c1.6,5.4,3,6.4,4.1,16.1a201.8,201.8,0,0,0,4.6,22.9,10.3,10.3,0,0,0-2.7,2.4c-1.6,1.9-11.8,12-11.8,12a60.1,60.1,0,0,1-9.2,3.5,56,56,0,0,0-8,3.3l-4.2-.4c-1.9,0-15.1,2.4-15.1,2.4a42.2,42.2,0,0,0-9.7-4.3,64.3,64.3,0,0,1-9.2-3.5s-10.2-10.1-11.8-12a8.8,8.8,0,0,0-2.7-2.4A197.5,197.5,0,0,0,93,71.6c.9-7.8,3.1-16.7,7.8-23.1,0,0,8.3.5,10-1.1s1.1-5.6,1.1-5.6,2.2,0,2.2-3.2-5.9-5.6-7.3-6.2-7.3,2.4-10.5,6.2-3,7.5-6.2,12.9S75.6,82.9,74.2,88.1s-3,8.1-2.7,10.5,13.2,16.3,16.4,20.1,15.6,16.7,15.6,16.7,4.6,22.6,5.9,30.7.5,30.3.5,30.3,14.8-3.2,28.8-4.8,29.3-7,31.2-7h1.9s-10.5-12.8-10.5-14.7.4-28.9.5-39.9c3.9-4.1,9.4-10,11.4-12.3s16.1-17.7,16.4-20.1S188.3,92.2,187,87.1Z" transform="translate(-0.2 -0.6)"/><path class="52634340-4f1e-456b-b353-ae2b57a60829" d="M111,171.5c-.8-3.8-1.9-25.6-3.2-32.6s-4.6-9.7-6.5-12.6-7.3-7.3-14-14.5S74.4,98.5,75.5,93.1c.7-3.7,8-24.8,12.3-37.2C83.3,65.2,75.2,84,74.1,88.3s-3,8.1-2.7,10.5,13.2,16.3,16.4,20.1,15.6,16.7,15.6,16.7,4.6,22.6,5.9,30.7a113.4,113.4,0,0,1,.8,13C110.9,175.7,111.3,172.7,111,171.5Z" transform="translate(-0.2 -0.6)"/><path class="52634340-4f1e-456b-b353-ae2b57a60829" d="M185.6,96.3c0,4-19.6,18.5-24.2,26s-3.2,26.1-3.2,33.6a70.7,70.7,0,0,1-.3,9.2l3.5,4.3c0-4.3.3-29,.5-39.3,3.9-4.1,9.4-10,11.4-12.3s16.1-17.7,16.4-20.1-1.3-5.4-2.7-10.5a164.7,164.7,0,0,0-10.5-27.9c-3.3-7-6.5-15.7-11.6-21.6,0,0,8.5,20.7,13.6,34.4S185.6,92.2,185.6,96.3Z" transform="translate(-0.2 -0.6)"/></g><path class="38efae9d-13ea-4ffc-bb3f-17860d27e44f" d="M187,87.1a164.7,164.7,0,0,0-10.5-27.9c-3.3-7-6.5-15.7-11.6-21.6-3.2-3.8-9.2-6.7-10.5-6.2s-7.3,3-7.3,6.2,2.2,3.2,2.2,3.2-.5,4,1.1,5.6,10,1.1,10,1.1a36,36,0,0,1,3.7,7c1.6,5.4,3,6.4,4.1,16.1a201.8,201.8,0,0,0,4.6,22.9,10.3,10.3,0,0,0-2.7,2.4c-1.6,1.9-11.8,12-11.8,12a60.1,60.1,0,0,1-9.2,3.5,56,56,0,0,0-8,3.3l-4.2-.4c-1.9,0-15.1,2.4-15.1,2.4a42.2,42.2,0,0,0-9.7-4.3,64.3,64.3,0,0,1-9.2-3.5s-10.2-10.1-11.8-12a8.8,8.8,0,0,0-2.7-2.4A197.5,197.5,0,0,0,93,71.6c.9-7.8,3.1-16.7,7.8-23.1,0,0,8.3.5,10-1.1s1.1-5.6,1.1-5.6,2.2,0,2.2-3.2-5.9-5.6-7.3-6.2-7.3,2.4-10.5,6.2-3,7.5-6.2,12.9S75.6,82.9,74.2,88.1s-3,8.1-2.7,10.5,13.2,16.3,16.4,20.1,15.6,16.7,15.6,16.7,4.6,22.6,5.9,30.7.5,30.3.5,30.3,14.8-3.2,28.8-4.8,29.3-7,31.2-7h1.9s-10.5-12.8-10.5-14.7.4-28.9.5-39.9c3.9-4.1,9.4-10,11.4-12.3s16.1-17.7,16.4-20.1S188.3,92.2,187,87.1Z" transform="translate(-0.2 -0.6)"/><path class="38efae9d-13ea-4ffc-bb3f-17860d27e44f" d="M111.8,41.9s-6.7-5.6-7.3-3.2,4,5.6,4,5.6" transform="translate(-0.2 -0.6)"/><path class="38efae9d-13ea-4ffc-bb3f-17860d27e44f" d="M102.7,41.4a5.4,5.4,0,0,1-4.8,5.9h0" transform="translate(-0.2 -0.6)"/><polyline class="38efae9d-13ea-4ffc-bb3f-17860d27e44f" points="106.3 42.1 100.9 39.5 101.2 37.7 102.8 36.9"/><path class="38efae9d-13ea-4ffc-bb3f-17860d27e44f" d="M107,34.2a34.4,34.4,0,0,1,.5,4.5" transform="translate(-0.2 -0.6)"/><path class="38efae9d-13ea-4ffc-bb3f-17860d27e44f" d="M110,35a16.9,16.9,0,0,1,0,5.5" transform="translate(-0.2 -0.6)"/><path class="38efae9d-13ea-4ffc-bb3f-17860d27e44f" d="M112.8,36.3a4.9,4.9,0,0,1-1.8,4.5" transform="translate(-0.2 -0.6)"/><path class="38efae9d-13ea-4ffc-bb3f-17860d27e44f" d="M149.3,40.8s9.3-2.4,8,.3-5.6,3.5-5.6,3.5" transform="translate(-0.2 -0.6)"/><path class="38efae9d-13ea-4ffc-bb3f-17860d27e44f" d="M163,44.9a24.5,24.5,0,0,0-3.8-2.4c-1.3-.5-1.6-2.4-1.6-2.4s3-.5,3-1.9-2.2-2.4-2.2-2.4l-.3,1.4" transform="translate(-0.2 -0.6)"/><path class="38efae9d-13ea-4ffc-bb3f-17860d27e44f" d="M154.6,33.7s-1.1,5.3,3,6.3" transform="translate(-0.2 -0.6)"/><path class="38efae9d-13ea-4ffc-bb3f-17860d27e44f" d="M151.6,34s-.7,4,1.8,6" transform="translate(-0.2 -0.6)"/><path class="38efae9d-13ea-4ffc-bb3f-17860d27e44f" d="M149.3,35.5s-.8,3.5,1,4.8" transform="translate(-0.2 -0.6)"/><path class="a354d699-03d6-490d-a998-b8f4a4e72fb8" d="M138.8,191.6c14-1.6,29.3-7,31.2-7h1.9s-10.5-12.8-10.5-14.7.4-28.9.5-39.9l6-6.4c-3-.9-6.2-2.4-7.4-5.1s-.8-8.9,0-12.9l-2.4,2.4a60.1,60.1,0,0,1-9.2,3.5,56,56,0,0,0-8,3.3l-4.2-.4c-1.9,0-15.1,2.4-15.1,2.4a42.2,42.2,0,0,0-9.7-4.3,64.3,64.3,0,0,1-9.2-3.5l-.4-.4a65.8,65.8,0,0,1,.4,13.3c-.5,4-3.7,5.8-5.9,6.7l6.5,6.8s4.6,22.6,5.9,30.7.5,30.3.5,30.3S124.8,193.1,138.8,191.6Z" transform="translate(-0.2 -0.6)"/><path class="38efae9d-13ea-4ffc-bb3f-17860d27e44f" d="M132.9,141.7a35.7,35.7,0,0,1-3-3.8" transform="translate(-0.2 -0.6)"/><path class="38efae9d-13ea-4ffc-bb3f-17860d27e44f" d="M161.3,169.9a161.5,161.5,0,0,0-16.9-17.2c-3.1-2.6-5.6-4.9-7.6-6.9" transform="translate(-0.2 -0.6)"/><path class="f162703e-a2f1-4340-b54e-af94ebf4000e" d="M116.3,104.6l-4.6-8.7c-3.2-5.9-.5-16.1,11.5-20s19.6,3.4,21.3,8.3.2,10.3-.7,13.2a19.1,19.1,0,0,0-1,5.3,6.3,6.3,0,0,0-2.2-1.8c-1.7-1.2-4.6-14.2-8.6-15.2s-12.2,1.2-12.9,7.3S118.3,108.3,116.3,104.6Z" transform="translate(-0.2 -0.6)"/><path class="aca21df7-a785-4c4d-9652-265d3f51e19f" d="M141.8,101.7s1.5-4,3.4-2.1,1,5.9-.3,7.7-2.2.7-2.9-1.2A9.4,9.4,0,0,1,141.8,101.7Z" transform="translate(-0.2 -0.6)"/><g class="42a90fcd-eea8-482d-ba0f-4bd56c145e26"><path class="1a602709-bd70-48a2-a332-5057f663ab2d" d="M141.8,101.7s1.5-4,3.4-2.1,1,5.9-.3,7.7-2.2.7-2.9-1.2A9.4,9.4,0,0,1,141.8,101.7Z" transform="translate(-0.2 -0.6)"/></g><path class="38efae9d-13ea-4ffc-bb3f-17860d27e44f" d="M141.8,101.7s1.5-4,3.4-2.1,1,5.9-.3,7.7-2.2.7-2.9-1.2A9.4,9.4,0,0,1,141.8,101.7Z" transform="translate(-0.2 -0.6)"/><path class="aca21df7-a785-4c4d-9652-265d3f51e19f" d="M117.5,104.1s-2.5-3.5-3.9-1.2.7,6.2,2.3,7.5,2.3.1,2.5-2A10.4,10.4,0,0,0,117.5,104.1Z" transform="translate(-0.2 -0.6)"/><g class="0b597c94-455d-466b-b354-d86c1c450f33"><path class="1a602709-bd70-48a2-a332-5057f663ab2d" d="M117.5,104.1s-2.5-3.5-3.9-1.2.7,6.2,2.3,7.5,2.3.1,2.5-2A10.4,10.4,0,0,0,117.5,104.1Z" transform="translate(-0.2 -0.6)"/></g><path class="38efae9d-13ea-4ffc-bb3f-17860d27e44f" d="M117.5,104.1s-2.5-3.5-3.9-1.2.7,6.2,2.3,7.5,2.3.1,2.5-2A10.4,10.4,0,0,0,117.5,104.1Z" transform="translate(-0.2 -0.6)"/><path class="8fd298db-0ac3-4dcc-9e41-725f0b6aba65" d="M120.7,115.6a53,53,0,0,0,.7,10.5,78.3,78.3,0,0,0,2.2,9.3l8.8-8.3,11,5.9s1.7-11.2-1.7-16.1-14.7-5.4-17.6-3.6A10.8,10.8,0,0,0,120.7,115.6Z" transform="translate(-0.2 -0.6)"/><path class="aca21df7-a785-4c4d-9652-265d3f51e19f" d="M123.9,118.1s6.4,16.6,9.8,15.4,4.4-15.9,4.4-15.9S127.6,119.8,123.9,118.1Z" transform="translate(-0.2 -0.6)"/><g class="1c95335d-63d8-427a-b0f1-d0f02b8fcb01"><path class="1a602709-bd70-48a2-a332-5057f663ab2d" d="M123.9,118.1s6.4,16.6,9.8,15.4,4.4-15.9,4.4-15.9S127.6,119.8,123.9,118.1Z" transform="translate(-0.2 -0.6)"/><path class="52634340-4f1e-456b-b353-ae2b57a60829" d="M123.9,118.1s6.4,16.6,9.8,15.4,4.4-15.9,4.4-15.9S127.6,119.8,123.9,118.1Z" transform="translate(-0.2 -0.6)"/></g><path class="38efae9d-13ea-4ffc-bb3f-17860d27e44f" d="M123.9,118.1s6.4,16.6,9.8,15.4,4.4-15.9,4.4-15.9S127.6,119.8,123.9,118.1Z" transform="translate(-0.2 -0.6)"/><path class="aca21df7-a785-4c4d-9652-265d3f51e19f" d="M115.6,97.6s1.2,10.7,2.7,15.5,7.1,9.3,14.7,8.1,10.3-12.3,10.3-13-.5-13.8-3.4-18.7-8.6-9.5-16.4-5.9S114.9,94.9,115.6,97.6Z" transform="translate(-0.2 -0.6)"/><g class="9816222a-6f7d-4ada-bf6e-054746cebc7d"><path class="44730eb0-294b-4d36-ae68-4373e5cc0dac" d="M115.6,97.6s1.2,10.7,2.7,15.5,7.1,9.3,14.7,8.1,10.3-12.3,10.3-13-.5-13.8-3.4-18.7-8.6-9.5-16.4-5.9S114.9,94.9,115.6,97.6Z" transform="translate(-0.2 -0.6)"/><path class="52634340-4f1e-456b-b353-ae2b57a60829" d="M143.3,108.3c0-.7-.5-13.8-3.4-18.7a28.3,28.3,0,0,0-2-2.8c.7,3,4.4,19.4,1.5,25s-10.2,6.7-16.7,3.5c-4.8-2.4-6.2-16.4-6.6-23.5a10.5,10.5,0,0,0-.4,5.8s1.2,10.7,2.7,15.5,7.1,9.3,14.7,8.1S143.3,109,143.3,108.3Z" transform="translate(-0.2 -0.6)"/></g><path class="38efae9d-13ea-4ffc-bb3f-17860d27e44f" d="M115.6,97.6s1.2,10.7,2.7,15.5,7.1,9.3,14.7,8.1,10.3-12.3,10.3-13-.5-13.8-3.4-18.7-8.6-9.5-16.4-5.9S114.9,94.9,115.6,97.6Z" transform="translate(-0.2 -0.6)"/><path class="8fd298db-0ac3-4dcc-9e41-725f0b6aba65" d="M122.6,103.8a13,13,0,0,0,12.4-2.9c1.1.4.7,6.8-5.3,7.8A6.1,6.1,0,0,1,122.6,103.8Z" transform="translate(-0.2 -0.6)"/><path class="38efae9d-13ea-4ffc-bb3f-17860d27e44f" d="M126,98.1s-1.5,2.1-.7,2.8,3.7.8,5.2-.7-.9-3.1-.9-3.1" transform="translate(-0.2 -0.6)"/><path class="38efae9d-13ea-4ffc-bb3f-17860d27e44f" d="M120.3,99.1s.7-2.4,4.6-2.4" transform="translate(-0.2 -0.6)"/><path class="38efae9d-13ea-4ffc-bb3f-17860d27e44f" d="M131.7,95.7a4.4,4.4,0,0,1,5.7-.7" transform="translate(-0.2 -0.6)"/><path class="6c8fabe1-d96c-43c7-b030-b1bb856ae2b1" d="M124.4,91.7s-5.6-1.1-6.3,4" transform="translate(-0.2 -0.6)"/><path class="6c8fabe1-d96c-43c7-b030-b1bb856ae2b1" d="M130.3,91.1s3.9-3.2,7.6.2" transform="translate(-0.2 -0.6)"/></g><path class="aca21df7-a785-4c4d-9652-265d3f51e19f" d="M225.9,35.3l-1.4,1.4-1.4-1.4,1.4-1.4Zm-.5-2.7h-1.8l-.2-9h2.1Z" transform="translate(-0.2 -0.6)"/><path class="aca21df7-a785-4c4d-9652-265d3f51e19f" d="M234.8,34.1h2l1-.2.8-.3a1.2,1.2,0,0,0,.5-.5,1.4,1.4,0,0,0,.2-.7,3.1,3.1,0,0,0-.2-.8,1.8,1.8,0,0,0-.5-.7l-.7-.7-.8-.7-.9-.7-.8-.6.2-2,6.9-3,.8,1.8-5.7,2.4,1.1,1a9.4,9.4,0,0,1,1,1,7.6,7.6,0,0,1,.8,1.1,5.4,5.4,0,0,1,.5,1.1,3.6,3.6,0,0,0,.4.9,2.7,2.7,0,0,0,.7.8l.9.6,1,.2h.3v1.9h-.2a4.6,4.6,0,0,1-2.1-.4,4.8,4.8,0,0,1-1.6-1.2l-.6.7-.8.5-1,.3-1.1.2H232l-1.4-.2-1.2-.4-1.1-.6-.8-.9a4.9,4.9,0,0,1-.4-1.1v-.3a3.8,3.8,0,0,1,.1-1,7.6,7.6,0,0,1,.4-1.1,9.3,9.3,0,0,0,.5-1l1.4,1.2-.3.5-.3.6a6.4,6.4,0,0,0-.2.7v.2a.4.4,0,0,0,.1.3l.4.5.8.4,1,.3,1.2.2h1.3A1.9,1.9,0,0,1,234.8,34.1Z" transform="translate(-0.2 -0.6)"/><path class="aca21df7-a785-4c4d-9652-265d3f51e19f" d="M243.9,34.1h2.4l.8-.2.6-.4a.8.8,0,0,0,.2-.7,1.1,1.1,0,0,0-.1-.5c-.1-.2-.1-.5-.2-.8l-.3-.9-.4-.9,1.7-.9a3.6,3.6,0,0,0,.4.9,2.9,2.9,0,0,1,.3,1,4.4,4.4,0,0,1,.2,1,3.4,3.4,0,0,1,.1,1,3.3,3.3,0,0,1-.3,1.5,2.8,2.8,0,0,1-.9,1,2.9,2.9,0,0,1-1.3.5l-1.6.2h-1.6V34.1Zm2.8,4.1-1.3,1.3-1.3-1.3,1.3-1.3Zm2.8,0-1.3,1.3-1.3-1.3,1.3-1.3Z" transform="translate(-0.2 -0.6)"/><path class="aca21df7-a785-4c4d-9652-265d3f51e19f" d="M257.7,36H257l-.6-.3a6.4,6.4,0,0,1-.6,1.8,6.1,6.1,0,0,1-1.2,1.6,10.7,10.7,0,0,1-1.6,1.4l-1.8,1.1-.8-1.7,1-.6,1-.7.9-.7.7-.8a4.1,4.1,0,0,0,.5-.9,2.9,2.9,0,0,0,.2-.9,1.7,1.7,0,0,0-.1-.7c-.1-.2-.1-.6-.2-.8l-.3-.9-.3-.9,1.8-.7.5,1.4a3.6,3.6,0,0,0,.5.9c.2.2.3.4.5.5h.8Z" transform="translate(-0.2 -0.6)"/><path class="aca21df7-a785-4c4d-9652-265d3f51e19f" d="M263,34.1V36h-.1l-1.2-.2-.9-.6a2.7,2.7,0,0,1-1.2.6l-1.8.2h-.3V34.1h.3a2.7,2.7,0,0,0,1.7-.4,1.4,1.4,0,0,0,.6-1.2,2,2,0,0,0-.1-.7l-.3-1.1,1.8-.5c.1.2.1.4.2.6s.1.3.1.5a1.3,1.3,0,0,0,.1.6,2,2,0,0,0,.1.7.9.9,0,0,0,.1.5l.2.5.3.4.5.2H263Zm-1.5,4.3-1.4,1.4-1.4-1.4,1.4-1.4Z" transform="translate(-0.2 -0.6)"/><path class="aca21df7-a785-4c4d-9652-265d3f51e19f" d="M262.7,34.1h2.4l.8-.2.6-.4a.8.8,0,0,0,.2-.7,1.1,1.1,0,0,0-.1-.5c-.1-.2-.1-.5-.2-.8l-.3-.9-.4-.9,1.7-.9a3.6,3.6,0,0,0,.4.9,2.9,2.9,0,0,1,.3,1,4.4,4.4,0,0,1,.2,1,3.4,3.4,0,0,1,.1,1,3.3,3.3,0,0,1-.3,1.5,2.8,2.8,0,0,1-.9,1,2.9,2.9,0,0,1-1.3.5l-1.6.2h-1.6Zm3.3-7.8-1.3,1.3-1.3-1.3,1.3-1.3Zm2.8,0-1.3,1.3-1.3-1.3,1.3-1.3Z" transform="translate(-0.2 -0.6)"/></svg>