<svg xmlns="http://www.w3.org/2000/svg" viewBox="0 0 657.37 315.7"><defs><style>.\32 cd8e0ed-f42e-4fff-97fd-5bb2a3a9af55,.a54c55ac-f40c-4cd7-b1c5-7966de946861,.c3e076cf-fde8-4416-9d13-916855113f74{fill:#ebebeb;}.c3e076cf-fde8-4416-9d13-916855113f74{opacity:0.26;}.\37 298aeec-2c3f-4518-9adc-430daa19923e{fill:#e0e0e0;}.fdff55d6-1b65-4821-9986-82d19cc60fe0{fill:#f5f5f5;}.a54c55ac-f40c-4cd7-b1c5-7966de946861{opacity:0.71;}.\31 6ecdd70-b223-4b6a-983e-f4ab5c0cffd6,.\32 45c1707-9504-446a-9719-52864cc7b400,.\37 d3ded9a-250d-40a8-869e-0095577ed36e{fill:#606060;}.\31 6ecdd70-b223-4b6a-983e-f4ab5c0cffd6{opacity:0.07;}.\37 d3ded9a-250d-40a8-869e-0095577ed36e{opacity:0.04;}.\32 45c1707-9504-446a-9719-52864cc7b400{opacity:0.02;}.\33 937369c-5384-4876-b890-f05428dffa17{fill:#263238;}.\36 f0634c6-6841-42d6-a91b-d8a44b953a8f{fill:#056855;}.\30 631825d-b66f-43b0-8781-9308d4c6b577{fill:#ff3600;}</style></defs><title>Asset 3</title><g id="4e6d822f-0ffd-4012-8dbf-f2cdad2d841b" data-name="Layer 2"><g id="ed3bc436-7d45-4768-8243-fbefc1e79d1b" data-name="Layer 1"><g id="32ce004f-1756-4589-aa26-bb474f2c1b50" data-name="freepik--background-complete--inject-31"><path class="c3e076cf-fde8-4416-9d13-916855113f74" d="M166.66,67.3l2.75-10.51-7.93-4.29-1-9.55,7.69-5.16L163.07,29l-7.92,1.17L148.6,21.9,152,13.72l-8.82-5.86-6.59,6.65L127.87,13l-3.52-10.2-10.56,1.1-.59,8.93-7.86,4-8.27-5.9-8.44,6.15L93,26.52l-5,7.57-9.12-.48L76.51,44.86,85.2,48.2l.74,9.46-9,5.17,4.29,9.76,9.33-1.44,6.17,7.12-3.22,8.88,8.52,6,6.67-7.21,9.25,2.5L120.82,98l10.27-.69,1.32-8.57,8.81-5.06,7.21,5.75,9.1-6.79-4.6-8,4.48-8Zm-34.32,1.28v0A20.76,20.76,0,1,1,140,40.27,20.76,20.76,0,0,1,132.34,68.61Z"/><path class="7298aeec-2c3f-4518-9adc-430daa19923e" d="M278.34,254.25,282,240.7l-10.28-5.56-1.41-12.35,9.94-6.71-6.54-11.4-10.25,1.51-8.4-10.63L259.43,185,248,177.39l-8.53,8.6-11.24-2-4.59-13.2L210,172.23l-.77,11.56L199.07,189l-10.76-7.63-10.92,8,5.68,12.19-6.5,9.79-11.81-.63-3.08,14.57,11.23,4.32,1,12.24-11.63,6.69,5.56,12.63,12.06-1.88,8,9.22L183.72,280l11,7.8,8.63-9.32,12,3.23L219.07,294l13.28-.89,1.72-11.09,11.4-6.54,9.31,7.44,11.8-8.79-6-10.38,5.81-10.41ZM234,256a26.86,26.86,0,1,1,9.92-36.67A26.88,26.88,0,0,1,234,256Z"/><path class="fdff55d6-1b65-4821-9986-82d19cc60fe0" d="M283.07,42.6l1.87-6.81L279.77,33l-.7-6.2,5-3.41-3.29-5.73-5.16.76-4.27-5.35,2.21-5.33-5.75-3.82-4.29,4.33-5.67-1L255.57.59l-6.87.73-.39,5.81-5.1,2.66L237.78,6l-5.5,4,2.87,6.16L231.88,21l-5.94-.31-1.56,7.33,5.69,2.13.49,6.16-5.87,3.36,2.81,6.36,6.06-.94,4,4.64-2.1,5.78L241,59.48l4.33-4.7,6,1.63,1.87,6.21,6.69-.45.87-5.58,5.74-3.29L271.21,57l5.93-4.42-3-5.23,2.93-5.23Zm-22.29.86h0a13.52,13.52,0,1,1,5-18.46A13.52,13.52,0,0,1,260.77,43.46Z"/><path class="7298aeec-2c3f-4518-9adc-430daa19923e" d="M421.88,83.46l3.66-13.55-10.26-5.56L413.91,52l10-6.72-6.54-11.4L407.07,35.4l-8.44-10.61L403,14.2,391.57,6.6l-8.5,8.6-11.23-2L367.28,0,353.63,1.44,352.85,13l-10.19,5.2-10.77-7.63-10.92,8,5.67,12.23-6.49,9.79L308.34,40l-3.09,14.57,11.23,4.27,1,12.24-11.64,6.69,5.57,12.63,12-1.88,8,9.22-4.18,11.49,11.05,7.8,8.61-9.32,12,3.23,3.72,12.34,13.29-.89,1.71-11.09,11.4-6.54,9.32,7.44,11.69-8.78-6-10.38,5.81-10.41Zm-44.29,1.71a26.86,26.86,0,1,1,13.49-23.32A26.86,26.86,0,0,1,377.59,85.17Z"/><path class="a54c55ac-f40c-4cd7-b1c5-7966de946861" d="M221.56,77l.95-3.51-2.66-1.44-.35-3.2,2.57-1.74-1.7-3-2.65.39-2.25-2.71L216.6,59l-3-2-2.21,2.23-2.92-.51-1.18-3.43-3.53.38-.2,3-2.63,1.34-2.79-2-2.83,2.06,1.47,3.17-1.69,2.53L192,65.65l-.81,3.78,2.92,1.12.26,3.17-3,1.73,1.44,3.28,3.12-.49,2.11,2.45-1.09,3,2.87,2,2.24-2.42,3.1.84,1,3.2,3.45-.23.44-2.88L213,82.51l2.42,1.93,3.05-2.28L217,79.47l1.51-2.7Zm-11.49.44a7,7,0,1,1,2.53-9.57s0,0,0,.07A7,7,0,0,1,210.07,77.44Z"/><path class="2cd8e0ed-f42e-4fff-97fd-5bb2a3a9af55" d="M498,70.79l1.56-5.71-4.31-2.29-.57-5.2,4.19-2.8L496.15,50l-4.31.63-3.57-4.47,1.8-4.5-4.81-3.2-3.6,3.63-4.72-.83-1.87-5.57-5.75.61L469,41.16l-4.27,2.17-4.55-3.21-4.59,3.35L458,48.62l-2.74,4.17-5-.27-1.29,6.14,4.73,1.82.41,5.16-4.91,2.81,2.34,5.32,5.08-.79L460,76.79l-1.76,4.83,4.64,3.29L466.48,81l5,1.36,1.58,5.2,5.6-.37.72-4.67,4.8-2.76,3.92,3.13,5-3.7-2.5-4.37L493,70.42Zm-18.63.76v0a11.35,11.35,0,1,1,5.67-9.85A11.32,11.32,0,0,1,479.41,71.59Z"/><path class="2cd8e0ed-f42e-4fff-97fd-5bb2a3a9af55" d="M141.29,299l1.56-5.71-4.33-2.34-.57-5.2,4.21-2.82-2.76-4.8-4.31.64-3.57-4.48,1.83-4.46-4.81-3.19L125,270.21l-4.74-.83-1.91-5.59-5.75.6-.34,4.87L108,271.44l-4.54-3.21-4.6,3.35,2.39,5.15-2.73,4.12-5-.26-1.31,6.13,4.75,1.82.4,5.16-4.9,2.81,2.34,5.32,5.08-.79,3.36,3.89-1.74,4.86,4.65,3.28,3.63-3.93,5,1.37,1.58,5.19,5.6-.37.72-4.67,4.8-2.76,3.92,3.14,5-3.71-2.5-4.37,2.44-4.38Zm-18.63.73a11.32,11.32,0,1,1,5.68-9.83A11.32,11.32,0,0,1,122.66,299.68Z"/><path class="16ecdd70-b223-4b6a-983e-f4ab5c0cffd6" d="M153,208l4.82-17.76L144.29,183l-1.85-16.19,13-8.8L146.9,143l-13.44,2-11-13.93,5.72-13.89-15-9.94L102,118.53l-14.74-2.62-6-17.31-17.91,1.89-1,15.15L49,122.45l-14.11-10L20.6,122.93l7.44,16-8.52,12.83L4,150.93,0,170l14.72,5.66L16,191.74.79,200.51l7.29,16.56,15.81-2.46,10.49,12.08L28.9,241.76,43.32,252l11.31-12.22L70.37,244l4.87,16.18L92.66,259l2.25-14.54,15-8.57,12.2,9.75,15.47-11.52-7.86-13.61,7.62-13.65Zm-58.17,2.25a35.22,35.22,0,1,1,13-48.08A35.24,35.24,0,0,1,94.78,210.27Z"/><path class="7d3ded9a-250d-40a8-869e-0095577ed36e" d="M518.35,219l4.81-17.76L509.69,194l-1.85-16.19,13-8.8L512.29,154l-13.43,2-11-13.93,5.72-13.89-15-9.94-11.18,11.28-14.74-2.62-6-17.31-17.91,1.89-1,15.15-13.3,6.81-14.11-10L386,133.93l7.44,16-8.52,12.83-15.48-.82-4,19.1,14.72,5.66,1.31,16.05-15.24,8.77,7.28,16.56,15.82-2.46,10.49,12.08-5.48,15.07L408.72,263,420,250.77,435.77,255l4.87,16.18L458.05,270l2.26-14.54,14.95-8.57,12.2,9.75,15.47-11.52-7.86-13.61,7.61-13.65Zm-58.17,2.25a35.22,35.22,0,1,1,13-48.08A35.24,35.24,0,0,1,460.18,221.27Z"/><path class="245c1707-9504-446a-9719-52864cc7b400" d="M652.56,134.46l4.81-17.76-13.48-7.29L642,93.22l13-8.8-8.57-15-13.44,2-11-13.93,5.71-13.89-15-9.94L601.59,45l-14.73-2.62-6-17.31-17.91,1.89-1,15.15-13.29,6.81-14.11-10L520.2,49.37l7.45,16-8.52,12.83-15.49-.82-4,19.1,14.73,5.66,1.31,16.05L500.39,127l7.29,16.56,15.81-2.46L534,153.13,528.5,168.2l14.42,10.23,11.32-12.22L570,170.44l4.88,16.18,17.41-1.17,2.25-14.54,15-8.57,12.21,9.75,15.47-11.52L629.27,147l7.62-13.65Zm-58.18,2.25a35.22,35.22,0,1,1,13-48.08A35.24,35.24,0,0,1,594.38,136.71Z"/></g><g id="44708756-e5a2-4176-accf-930a94132a74" data-name="freepik--Gears--inject-31"><path class="3937369c-5384-4876-b890-f05428dffa17" d="M342.46,195.15v-7.31l-5.36-2.11L336,178.27l5-3.9-3.41-6.82-6.5,1.79-4.87-4.06,1.47-7.63-7-3.08-3.58,5.35-6.33-.32-3.08-6.66-7.47.82-.65,7.46-5.84,2.92-5.52-3.57-5.46,6.22,4.22,5.2L284,178.15h-7.47l-.81,7.63,6.33,2.44,1.26,6.57-5.19,4.39L281.3,206l6.74-2.12,4.87,4.87-1.58,7L298,219l3.9-4.87h7.3l2.44,6.17,8.11-1v-6.66l5.68-3.41,5.52,3.74,5.52-5.52L333.05,202l2.76-6.33ZM324,186.63a14.94,14.94,0,1,1-14.95-14.95A14.92,14.92,0,0,1,324,186.63Z"/><path class="6f0634c6-6841-42d6-a91b-d8a44b953a8f" d="M307.06,137l2.77-10.23-7.75-4.19-1-9.33,7.63-5.12-4.94-8.6L296,100.61l-6.39-8,3.29-8-8.61-5.74-6.44,6.5-8.48-1.49-3.44-10L255.66,75l-.58,8.72-7.68,3.9-8.13-5.75-8.25,6,4.29,9.23-4.91,7.4-8.91-.48-2.33,11,8.48,3.26.73,9.24-8.79,5,4.2,9.54,9.1-1.42,6,7-3.15,8.68,8.34,5.89,6.5-7,9,2.44,2.81,9.32,10-.68,1.29-8.37,8.6-4.94,7,5.62,8.9-6.64-4.5-7.83,4.39-7.86Zm-33.3,1.24a20.28,20.28,0,1,1,7.49-27.69A20.27,20.27,0,0,1,273.76,138.19Z"/><path class="0631825d-b66f-43b0-8781-9308d4c6b577" d="M340.86,142.32l1-3.51-2.66-1.44-.35-3.2,2.53-1.7-1.7-3-2.65.39-2.2-2.76,1.13-2.74-3-2-2.21,2.23-2.91-.51-1.14-3.29-3.54.37-.2,3-2.63,1.29-2.79-2-2.83,2.06,1.47,3.17-1.69,2.54-3.06-.16-.8,3.77,2.91,1.12.25,3.17-3,1.74,1.44,3.27,3.12-.48,2.07,2.39-1.08,3,2.86,2,2.24-2.41,3.1.84,1,3.19,3.44-.23.45-2.87,2.95-1.7,2.42,1.93,3.05-2.28-1.59-2.72,1.5-2.69Zm-11.48.47v0a7,7,0,1,1,2.54-9.57l0,.06A7,7,0,0,1,329.38,142.79Z"/></g></g></g></svg>