<svg xmlns="http://www.w3.org/2000/svg" width="123" height="99" viewBox="0 0 123 99"><g><g><path fill="#fff" d="M123 62.016v17.057c-.032 3.69-3.013 6.685-6.715 6.685h-1.757V71.632a17.19 17.19 0 0 0 3.608-3.31zm-52.37-5.928c0 9.9 8.002 17.94 17.854 17.973h18.074c.565-.033 1.13-.096 1.663-.159l.031 18.318c0 3.72-2.98 6.747-6.683 6.78H6.715C3.012 98.967.03 95.94 0 92.22V19.925c.031-3.689 3.012-6.684 6.715-6.684h94.854a6.677 6.677 0 0 1 6.683 6.684V37.96a7.702 7.702 0 0 1-1.663.188H88.484c-9.852 0-17.853 8.04-17.853 17.94zM123 6.778v15.355l-8.472 10.972v-13.18c0-7.189-5.805-12.99-12.96-12.99H14.748v-.157c0-3.72 2.98-6.747 6.683-6.779h94.855c3.702.032 6.683 3.059 6.715 6.78zm0 44.928l-9.821 12.801c-1.57 2.049-4.017 3.247-6.59 3.28H88.484c-6.4-.033-11.578-5.235-11.578-11.666 0-6.432 5.177-11.635 11.578-11.666h18.074c2.165 0 4.299-.474 6.244-1.42a14.6 14.6 0 0 0 5.303-4.287l4.863-6.306zm-24.35 4.415c0-1.735-1.411-3.153-3.137-3.153h-7.53c-1.726 0-3.138 1.418-3.138 3.153 0 1.733 1.412 3.152 3.137 3.152h7.531c1.726 0 3.138-1.419 3.138-3.152z"/></g></g></svg>