<svg xmlns="http://www.w3.org/2000/svg" width="188" height="373" viewBox="0 0 188 373"><defs><linearGradient id="myrra" x1="187.19" x2="187.05" y1="373" y2=".86" gradientUnits="userSpaceOnUse"><stop offset="0" stop-color="#fff" stop-opacity="0"/><stop offset="1" stop-color="#7d2a8c"/></linearGradient><linearGradient id="myrrb" x1="134.62" x2="135.62" y1="269.63" y2=".63" gradientUnits="userSpaceOnUse"><stop offset="0" stop-color="#fff" stop-opacity="0"/><stop offset="1" stop-color="#7d2a8c"/></linearGradient></defs><g><g><g opacity=".05"><path fill="url(#myrra)" d="M194.193 3.787l176.07 176.07c3.905 3.905 3.905 10.237 0 14.142l-176.07 176.07c-3.905 3.905-10.236 3.905-14.142 0L3.981 193.999c-3.905-3.905-3.905-10.237 0-14.142l176.07-176.07c3.906-3.905 10.237-3.905 14.142 0z"/></g><g opacity=".05"><path fill="url(#myrrb)" d="M10.624.627h249c5.522 0 10 4.477 10 10v249c0 5.523-4.478 10-10 10h-249c-5.523 0-10-4.477-10-10v-249c0-5.523 4.477-10 10-10z"/></g></g></g></svg>