<svg xmlns="http://www.w3.org/2000/svg" width="183" height="371" viewBox="0 0 183 371"><defs><linearGradient id="lsj3a" x1="-3.81" x2="-3.95" y1="372" y2="-.14" gradientUnits="userSpaceOnUse"><stop offset="0" stop-color="#fff" stop-opacity="0"/><stop offset="1" stop-color="#7d2a8c"/></linearGradient><linearGradient id="lsj3b" x1="47.63" x2="48.63" y1="269.43" y2=".43" gradientUnits="userSpaceOnUse"><stop offset="0" stop-color="#fff" stop-opacity="0"/><stop offset="1" stop-color="#7d2a8c"/></linearGradient></defs><g><g><g opacity=".05"><path fill="url(#lsj3a)" d="M3.193 2.787l176.07 176.07c3.905 3.905 3.905 10.237 0 14.142L3.193 369.069c-3.905 3.905-10.237 3.905-14.142 0l-176.07-176.07c-3.904-3.905-3.904-10.237 0-14.142l176.07-176.07c3.905-3.905 10.237-3.905 14.142 0z"/></g><g opacity=".05"><path fill="url(#lsj3b)" d="M182.63 10.429v249c0 5.523-4.477 10-10 10h-249c-5.523 0-10-4.477-10-10v-249c0-5.523 4.477-10 10-10h249c5.523 0 10 4.477 10 10z"/></g></g></g></svg>